<svg version="1.1" xmlns="http://www.w3.org/2000/svg" xmlns:xlink="http://www.w3.org/1999/xlink" width="98.18777" height="205.7211" viewBox="0,0,98.18777,205.7211"><g transform="translate(-457.20908,-104.65654)"><g data-paper-data="{&quot;isPaintingLayer&quot;:true}" fill-rule="nonzero" stroke-linecap="butt" stroke-linejoin="miter" stroke-miterlimit="10" stroke-dasharray="" stroke-dashoffset="0" style="mix-blend-mode: normal"><path d="M457.20908,245.06596l5.81988,-140.40941l92.36789,15.14246l-7.20449,190.57864z" data-paper-data="{&quot;index&quot;:null}" fill="#2b2633" stroke="#000000" stroke-width="0"/><path d="M482.21143,225.9432l2.84018,-68.5217c0.03004,-0.07206 0.05899,-0.1447 0.08682,-0.21788c2.88014,0.45699 5.76547,0.88207 8.65302,1.26755l36.60304,6.00057l-3.53541,93.52146z" data-paper-data="{&quot;index&quot;:null}" fill="#464646" stroke="#000000" stroke-width="0"/><g stroke="none" stroke-width="0.5"><path d="M523.40276,230.6557c-5.6979,0.76883 -12.07159,2.31885 -17.84656,1.14796c-4.35814,-0.88361 -4.83638,-1.85957 -8.38326,-4.54783c-0.20214,-0.15321 -0.40381,-0.30671 -0.60496,-0.46059c-1.373,3.36381 -2.56928,7.21554 -3.10757,10.98364c-0.67051,-0.23637 -1.34159,-0.44079 -2.01176,-0.60944c-1.31559,-0.33107 -2.48374,-0.90832 -3.6227,-1.45031c0.90497,-4.58665 2.54757,-9.05584 3.97167,-12.38307c0,0 0.04469,-0.10366 0.13693,-0.26101c-4.02001,-3.42328 -7.6527,-7.15238 -10.47687,-11.58829c-0.144,-2.34086 -0.36806,-4.39633 -0.34924,-5.66688c0.03175,-2.14431 0.17592,-4.31386 0.35714,-6.49058c0.87265,1.54986 1.72228,3.1124 2.51092,4.72209c3.47775,8.03377 9.88435,13.41284 16.67946,18.64253c2.41683,1.86005 3.05654,2.96588 5.9339,3.46406c5.24017,0.90727 10.88765,-0.50298 16.04999,-1.19087c2.41178,-0.32137 4.98629,-0.72319 7.37173,-1.56287c-0.00523,0.50764 -0.0092,1.01543 -0.0118,1.52338c-0.00758,1.48258 -0.01871,2.97057 -0.03014,4.46264c-2.16407,0.59479 -4.39371,0.9722 -6.56689,1.26543z" fill="#545454"/><path d="" fill="#000000"/><path d="M526.38089,261.11546c-0.0662,0.06386 -2.5751,-1.92866 -2.62923,-1.95998c-0.54558,-0.31574 -1.07556,-0.6138 -1.59267,-0.90233c2.12989,0.38163 3.68084,0.86527 6.00167,0.70668c-0.49659,0.75522 -1.07732,1.47806 -1.77976,2.15563z" fill="#000000"/><path d="M496.51989,226.76392c0.20115,0.15387 0.49908,0.36991 0.70122,0.52312c3.54688,2.68827 3.93016,3.59977 8.28831,4.48338c5.77498,1.17089 12.21306,-0.40052 17.91096,-1.16935c2.1641,-0.29201 4.38877,-0.66453 6.54958,-1.25162c-0.06373,8.32213 -0.13791,16.77161 0.33911,25.11882c-0.5932,1.57436 -1.2363,3.11878 -2.18435,4.54593c-2.23769,0.14334 -3.77406,-0.30672 -5.81819,-0.67865c-3.11631,-1.74182 -5.76023,-3.11323 -8.51931,-5.87711c-5.29641,-5.30562 -12.80446,-12.04699 -20.38003,-14.69825c0.54191,-3.77401 1.74126,-7.63628 3.1127,-10.99627z" data-paper-data="{&quot;noHover&quot;:false,&quot;origItem&quot;:[&quot;Path&quot;,{&quot;applyMatrix&quot;:true,&quot;segments&quot;:[[[989.86286,488.51504],[0,0],[0.17357,3.10244]],[[992.63052,499.03512],[-2.28801,-2.6539],[3.25228,3.77234]],[[1004.93564,505.48498],[-4.26596,-1.9932],[12.78588,5.974]],[[1043.48777,518.31544],[-13.95895,-1.33503],[7.68409,0.7349]],[[1062.25498,520.05784],[-7.69535,1.15578],[4.1098,-0.5448]],[[1076.75471,517.25816],[-3.87121,1.67565],[18.86804,-8.16701]],[[1093.4726,466.30836],[4.89546,17.15921],[-1.82835,-6.40863]],[[1082.11053,451.21392],[4.52532,4.49656],[-0.87069,0.7951]],[[1079.42019,453.5083],[0.92342,-0.73342],[-8.26616,6.56535]],[[1050.2853,463.72095],[10.12779,-1.36657],[-11.39579,1.53767]],[[1014.59217,466.01687],[11.54996,2.34178],[-8.71629,-1.76723]],[[997.82565,456.9212],[7.09376,5.37654],[-0.40428,-0.30642]],[[996.61573,456.00002],[0.4023,0.30775],[-4.05607,9.93722]],[[989.86283,488.51502],[-0.5881,-10.51148],[0,0]]],&quot;closed&quot;:true,&quot;fillColor&quot;:[0,0,0,1]}]}" fill="#8799ff"/><path d="M522.65125,225.02337c-5.16235,0.68788 -10.83128,2.09841 -16.07145,1.19113c-2.87736,-0.49818 -3.52571,-1.60626 -5.94254,-3.4663c-6.79511,-5.22969 -13.23039,-10.63061 -16.70813,-18.66438c-0.77582,-1.58352 -1.6124,-3.12499 -2.47191,-4.65374c0.37668,-4.55312 0.92063,-9.13888 0.94196,-13.59192c0.04009,-8.37074 -0.02168,-16.74182 -0.0336,-25.11268c1.24935,-0.85766 2.2259,-2.08388 2.77286,-3.52185c6.43683,1.02134 12.89963,1.88325 19.35502,2.50007c5.34576,0.51079 10.95387,0.30151 16.25951,1.21033c2.70821,0.4639 5.50423,0.6736 8.27305,0.95095c0.41077,1.36526 1.20013,2.56655 2.24608,3.48189c-0.08975,8.1605 -0.24014,15.8375 -0.30426,24.08558c-0.08773,11.28378 -0.84154,22.6186 -0.95687,34.03219c-2.38375,0.83601 -4.9554,1.23836 -7.35972,1.55874z" data-paper-data="{&quot;noHover&quot;:false,&quot;origItem&quot;:[&quot;Path&quot;,{&quot;applyMatrix&quot;:true,&quot;segments&quot;:[[[521.29584,226.43282],[0,0],[0.57269,-1.14539]],[[523.44318,225.03578],[-0.7086,-0.01367],[3.10748,-2.92528]],[[531.33842,214.92614],[-2.28195,3.4063],[1.47257,-3.46181]],[[535.88606,204.51194],[-1.02593,3.63404],[1.64387,-5.82294]],[[540.17552,186.87816],[-1.57331,5.78863],[0.29815,-1.09698]],[[543.1861,180.27167],[-0.69817,1.2089],[0.52477,-0.90866]],[[544.92489,177.64755],[-0.06093,1.04754],[0.032,-0.55014]],[[543.37164,177.08135],[0.47627,0.27721],[-1.34965,-0.78554]],[[539.47745,174.47696],[1.36506,0.75846],[-4.67296,-2.59639]],[[524.25839,170.48875],[5.23097,0.46505],[0,0]],[[522.9821,170.02626],[0.61137,0.40204],[-0.09023,-0.00549]],[[522.70193,169.99748],[0.09659,0.0138],[-2.47487,-0.35356]],[520.58061,167.16905],[[521.03819,164.01048],[0,0],[0.0104,-1.10251]],[[519.60122,155.96498],[1.66734,1.13542],[-0.43855,-0.29864]],[[518.16822,156.6579],[0.51485,-0.12822],[-0.84345,0.21005]],[[515.57891,156.96669],[0.86314,-0.10264],[-2.54612,0.30276]],[[506.07058,158.38958],[2.51628,-0.69582],[-4.74289,1.31154]],[[492.46647,164.15511],[4.62843,-1.68941],[0,0]],[[491.24522,164.29486],[0.66755,0.0616],[-1.1039,0.2473]],[489.15928,163.80563],[[487.15316,162.29694],[0,0],[-0.98129,-0.81886]],[[484.20929,159.84037],[0.92837,0.8784],[-0.68219,-0.64548]],[[481.86649,158.27526],[0.65086,-0.67706],[-0.60349,0.62778]],[[479.5574,163.42095],[0.36776,-0.92323],[-2.36277,5.93152]],[[472.58049,181.15814],[2.81297,-5.73565],[-0.18624,0.7104]],[[471.50055,182.53312],[0.45365,-0.2463],[-0.4216,0.29451]],[[469.79576,182.88581],[0.71492,0.14792],[-0.33425,0]],[[468.63114,182.88581],[0.42837,0],[1.57895,3.78587]],[[473.88722,194.13932],[-1.68514,-3.78507],[0,0]],[[473.94329,196.18038],[0.41008,-0.99221],[0,0]],[[474.87671,198.51393],[0,0],[1.16922,2.92367]],[[478.27875,207.27901],[-0.99805,-2.98922],[2.07248,7.33921]],[[490.52139,225.3067],[-5.26145,-5.30225],[1.87135,1.88585]],[[495.24371,228.98474],[-2.42668,-0.76332],[4.4194,1.39014]],[[509.23946,229.81503],[-4.53692,-0.00384],[3.54007,0.00299]],[[519.89112,227.77294],[-3.15363,1.90689],[0.4042,-0.24441]],[[521.07615,226.99232],[-0.386,0.27542],[0.05019,-0.17799]],[[521.29583,226.43285],[-0.0975,0.19499],[0,0]]],&quot;closed&quot;:true,&quot;fillColor&quot;:[0,0,0,1]}]}" fill="#a2f4ff"/><path d="M492.97973,196.76913c5.32065,3.26179 4.39518,4.99113 2.01722,5.91985c0.38302,0.96931 0.53445,1.92335 0.11158,2.83954c-2.5573,5.54068 -10.02082,-2.25518 -10.15536,-3.57824c-0.04351,-0.42795 -0.01088,-0.84359 0.0781,-1.25013l-0.09417,-0.02354l0.89668,-3.58672c0.25265,-1.1133 1.24829,-1.9444 2.43804,-1.9444c0.66213,0 1.26415,0.25741 1.71143,0.67762c1.09224,0.1003 2.20502,0.46081 2.99648,0.94601z" fill="#ffffff"/><path d="M526.35352,201.4361c1.33984,-1.00632 2.91113,-1.72552 4.38221,-1.57404c-0.11635,3.51998 -0.2583,7.04572 -0.38662,10.57806c-3.08337,1.61433 -8.30176,1.06823 -9.86337,-2.05622c-1.00128,-2.00335 1.42134,-4.45819 3.06572,-5.97871c0.73676,-0.68126 1.75715,-0.84745 2.80207,-0.96908z" fill="#ffffff"/></g><g data-paper-data="{&quot;index&quot;:null}" fill="#2b2633" stroke="none" stroke-width="0"><path d="M475.54692,230.54505l0.57504,-79.69324l9.66153,2.78183l-2.54382,72.42869z"/><path d="M522.05474,267.02441l-51.16999,-40.05281l12.228,-1.12595l47.82506,34.55515z"/><path d="M526.74832,260.64044l3.52669,-94.41104l9.66952,-1.33318l-3.2337,95.76z"/><path d="M478.19459,155.87788l18.3625,-10.38533l26.05051,4.45186l14.32305,18.76382z"/></g></g></g></svg>