<svg version="1.1" xmlns="http://www.w3.org/2000/svg" xmlns:xlink="http://www.w3.org/1999/xlink" width="806.96294" height="720.64153" viewBox="0,0,806.96294,720.64153"><g transform="translate(285.23147,87.75)"><g data-paper-data="{&quot;isPaintingLayer&quot;:true}" fill-rule="nonzero" stroke="none" stroke-linecap="butt" stroke-linejoin="miter" stroke-miterlimit="10" stroke-dasharray="" stroke-dashoffset="0" style="mix-blend-mode: normal"><path d="M-285.23147,574.02757l256.62839,-433.91909c0,0 209.68263,84.15123 305.94267,122.78296c86.03387,34.52769 244.39188,98.08099 244.39188,98.08099l-109.12839,271.9191z" fill="#0e1410" stroke-width="0"/><path d="M-48.5,222.25l17,-310l537,37l-5,273c0,0 -8.38047,170 -12,170c-34.43307,0 -537,-170 -537,-170z" fill="#1b271f" stroke-width="0"/><path d="M-78.56649,171.19652c0,-1.38071 1.11929,-2.5 2.5,-2.5c1.38071,0 2.5,1.11929 2.5,2.5c0,1.38071 -1.11929,2.5 -2.5,2.5c-1.38071,0 -2.5,-1.11929 -2.5,-2.5z" fill="#252525" stroke-width="0.5"/></g></g></svg>