<svg version="1.1" xmlns="http://www.w3.org/2000/svg" xmlns:xlink="http://www.w3.org/1999/xlink" width="806.8585" height="471.26673" viewBox="0,0,806.8585,471.26673"><defs><linearGradient x1="92.52526" y1="194.64289" x2="401.32244" y2="194.64289" gradientUnits="userSpaceOnUse" id="color-1"><stop offset="0" stop-color="#000000"/><stop offset="1" stop-color="#1b271f"/></linearGradient></defs><g transform="translate(100.19111,52.12234)"><g data-paper-data="{&quot;isPaintingLayer&quot;:true}" fill-rule="nonzero" stroke="none" stroke-linecap="butt" stroke-linejoin="miter" stroke-miterlimit="10" stroke-dasharray="" stroke-dashoffset="0" style="mix-blend-mode: normal"><path d="M-100.1911,393.87766v-446h766.75514v446z" data-paper-data="{&quot;index&quot;:null}" fill="#000000" stroke-width="0"/><path d="M344.77751,419.14439v-461.01502h259.19863v461.01502z" data-paper-data="{&quot;index&quot;:null}" fill="#1a261e" stroke-width="0"/><path d="M92.52526,417.64289v-446h308.79718v446z" data-paper-data="{&quot;index&quot;:null}" fill="url(#color-1)" stroke-width="0"/><path d="M155.96691,202.16634c0.85207,3.73693 0.59155,5.49476 0.05621,8.86981c-0.66635,4.20099 -0.79678,6.89145 -3.3628,10.56253c-4.29464,6.14411 -10.3194,7.2349 -16.85479,9.27606c-1.60249,0.5005 -3.10853,1.32354 -4.75071,1.67238c-3.23984,0.68823 -7.52785,0.05688 -10.82454,0.05688c-10.41951,0 -19.91966,-1.44215 -29.80158,-4.90533c-5.24926,-1.83963 -10.25616,-3.73301 -13.39874,-8.77927c-1.24427,-1.99802 -1.37924,-5.88032 -1.2396,-8.27278c0.42736,-7.32155 3.33988,-13.30332 7.00385,-19.33962c-3.90857,-1.66531 -7.63385,-3.64067 -10.66229,-6.81445c-4.64208,-4.86487 -6.44743,-10.49817 -8.03089,-16.82162c-0.2502,-2.47228 -0.4445,-5.01145 -0.54539,-7.57907c-2.95046,0.68527 -5.42799,0.36751 -9.01732,-0.3433c-2.5538,-0.50574 -6.54999,-1.21905 -8.89612,-2.16057c-6.98197,-2.80192 -11.79115,-7.98953 -15.73058,-14.13173c-4.33971,-18.39956 1.96061,-38.97574 14.04766,-53.36889c5.03525,-5.99594 10.77902,-10.95165 16.73009,-15.93211c11.0694,-9.26401 23.37156,-17.61306 38.13301,-19.68481c4.84246,-0.67963 10.92948,-0.14236 15.78137,0.10645c9.21232,0.89892 16.78458,3.19626 25.3327,6.93726c8.94183,3.91331 18.25996,9.03897 25.22471,16.01101c4.73349,4.73844 9.25446,11.90418 11.59096,18.1491c0.91828,2.45436 1.13138,5.11912 1.80578,7.65138c3.80426,14.28442 5.35028,29.60773 2.89342,44.36044c-1.12692,6.76681 -3.49445,13.01902 -5.81266,19.43193c-5.84901,9.16087 -12.66914,20.56941 -22.79583,25.55703c-0.4328,0.21317 -0.86577,0.41965 -1.29895,0.61961c1.72901,2.84152 3.66023,5.52612 4.42306,8.87168zM83.61678,207.99557c-0.2837,1.49157 -1.00125,5.79415 -0.01229,7.31476c1.96197,3.01672 6.12517,4.19917 9.29691,5.30768c9.11521,3.18574 17.73308,4.48598 27.32886,4.48598c2.77507,0 6.80228,0.69803 9.52327,0.05687c2.44416,-0.57592 4.73811,-1.69048 7.17591,-2.29273c3.59936,-0.88922 7.31898,-2.3384 9.56642,-5.54143c1.67671,-2.38962 1.67704,-4.64419 2.11545,-7.43747c0.3778,-2.40714 0.66795,-3.29446 0.05621,-5.99976c-0.63692,-2.81667 -2.80041,-5.41774 -4.23091,-7.87805c-8.19122,2.51551 -16.55396,3.07776 -25.42141,2.83835c-10.06866,-0.27185 -19.76541,-1.00374 -29.15766,-4.71487c-2.75323,4.41566 -5.25053,8.65453 -6.24076,13.86066zM63.57588,152.23483c0.27496,-5.59618 1.1655,-11.14301 3.05173,-16.25076c2.2678,-6.14101 6.05,-12.11007 9.89216,-17.36012c3.34237,-4.56713 7.84851,-9.83846 13.23691,-12.15591c8.61196,-3.70383 19.02943,-2.27709 28.12577,-2.27709c0,0 3.75,0 3.75,3.75c0,3.75 -3.75,3.75 -3.75,3.75c-7.88904,0 -17.60377,-1.55546 -25.09161,1.63595c-4.14446,1.76642 -7.71249,6.29098 -10.24134,9.75714c-3.42425,4.69341 -6.8522,10.02532 -8.89046,15.50944c-3.18163,8.56048 -3.05281,18.81752 -2.16908,27.7914c0.88565,3.54999 1.17067,5.61487 3.07376,8.93999c3.93084,6.86805 10.8345,8.89048 17.72903,11.70658c8.62655,3.52356 17.65191,4.07473 26.92329,4.32101c10.72102,0.28478 20.37251,-0.62084 30.22781,-5.363c8.56971,-4.12357 14.50727,-14.53226 19.46504,-22.1821c2.01753,-5.73076 4.13838,-11.32308 5.14386,-17.35068c2.28968,-13.72609 0.76618,-27.92708 -2.744,-41.20747c-0.60806,-2.30051 -0.76125,-4.72812 -1.58605,-6.96011c-1.94474,-5.26265 -5.90933,-11.51037 -9.90154,-15.49759c-6.29135,-6.28349 -14.82411,-10.88386 -22.8889,-14.40533c-7.73852,-3.37901 -14.54782,-5.55815 -22.87743,-6.32941c-4.01559,-0.20864 -10.13569,-0.72807 -14.19011,-0.15911c-13.34734,1.873 -24.37349,9.65679 -34.35438,18.00289c-5.61762,4.6975 -11.01516,9.33656 -15.78426,14.98205c-10.27133,12.15881 -16.0547,29.92299 -12.91625,45.63c5.04453,7.08823 10.72937,10.16873 19.19939,11.88161c3.32619,0.67265 4.58862,1.23917 7.56669,-0.15938z" fill="#000000" stroke-width="0.5"/><path d="M89.81462,194.10927c9.39226,3.71113 19.14497,4.42039 29.21363,4.69224c8.86746,0.23942 17.26213,-0.2964 25.45335,-2.81191c1.43051,2.46031 3.59822,5.07432 4.23514,7.89099c0.61174,2.7053 0.32239,3.60167 -0.05541,6.00881c-0.43841,2.79327 -0.44021,5.05972 -2.11693,7.44934c-2.24744,3.20302 -5.97323,4.66674 -9.57259,5.55595c-2.4378,0.60226 -4.74086,1.7276 -7.18502,2.30352c-2.72099,0.64115 -6.76833,-0.04597 -9.5434,-0.04597c-9.59579,0 -18.27206,-1.32729 -27.38727,-4.51303c-3.17174,-1.10852 -7.33895,-2.30376 -9.30092,-5.32048c-0.98896,-1.52061 -0.27205,-5.83435 0.01166,-7.32591c0.99023,-5.20613 3.49453,-9.46788 6.24776,-13.88354z" data-paper-data="{&quot;noHover&quot;:false,&quot;origItem&quot;:[&quot;Path&quot;,{&quot;applyMatrix&quot;:true,&quot;segments&quot;:[[[163.05996,399.38234],[1.98047,-10.41227],[-0.56741,2.98313]],[[163.03537,414.01187],[-1.97791,-3.04123],[3.92393,6.03343]],[[181.6292,424.62724],[-6.34348,-2.21703],[18.23042,6.37148]],[[236.28692,433.5992],[-19.19157,0],[5.55013,0]],[[255.33347,433.71295],[-5.44199,1.2823],[4.88832,-1.15184]],[[269.68529,429.12748],[-4.8756,1.20451],[7.19871,-1.77843]],[[288.81813,418.04463],[-4.49488,6.40604],[3.35342,-4.77925]],[[293.04904,403.16969],[-0.87682,5.58655],[0.75561,-4.81429]],[[293.16146,391.17017],[1.22348,5.4106],[-1.27385,-5.63334]],[[284.69963,375.41407],[2.86101,4.92062],[-16.38244,5.03102]],[[233.8568,381.09077],[17.73491,0.47883],[-20.13731,-0.54369]],[[175.54148,371.66102],[18.78451,7.42226],[-5.50646,8.83133]]],&quot;closed&quot;:true}]}" fill="#00300b" stroke-width="0.5"/><path d="M55.96486,152.41736c-8.47002,-1.71288 -14.15954,-4.80656 -19.20407,-11.89479c-3.13845,-15.707 2.65042,-33.50582 12.92175,-45.66462c4.7691,-5.64548 10.17757,-10.29782 15.79519,-14.99532c9.9809,-8.3461 21.03524,-16.14177 34.38258,-18.01477c4.05442,-0.56895 10.18544,-0.04929 14.20103,0.15935c8.32961,0.77125 15.15613,2.95597 22.89465,6.33498c8.06479,3.52147 16.61273,8.13447 22.90408,14.41796c3.99221,3.98722 7.96364,10.24617 9.90837,15.50883c0.8248,2.23199 0.9798,4.66434 1.58786,6.96485c3.51018,13.28038 5.03411,27.51073 2.74443,41.23683c-1.00548,6.0276 -3.13125,11.6313 -5.14878,17.36207c-4.95776,7.64984 -10.90873,18.07341 -19.47843,22.19697c-9.8553,4.74216 -19.52617,5.65648 -30.24719,5.3717c-9.27138,-0.24628 -18.31776,-0.79753 -26.94431,-4.32109c-6.89453,-2.8161 -13.81428,-4.84516 -17.74513,-11.71321c-1.90309,-3.32512 -2.19378,-5.39419 -3.07944,-8.94419c-0.88372,-8.97388 -1.02683,-19.25123 2.1548,-27.81171c2.03826,-5.48412 5.46352,-10.84112 8.88777,-15.53453c2.52886,-3.46616 6.11158,-8.01928 10.25604,-9.7857c7.48784,-3.19142 17.26931,-1.63844 25.15835,-1.63844c0,0 3.6853,0.07624 3.6853,-3.67376c0,-3.75 -3.74145,-3.74403 -3.74145,-3.74403c-9.09633,0 -19.4587,-1.43123 -28.07066,2.2726c-5.38841,2.31745 -9.87723,7.56262 -13.21961,12.12975c-3.84216,5.25006 -7.62402,11.19417 -9.89181,17.33518c-1.88622,5.10775 -2.78271,10.64028 -3.05768,16.23646c-2.97807,1.39855 -4.32745,0.8813 -7.65364,0.20865z" data-paper-data="{&quot;noHover&quot;:false,&quot;origItem&quot;:[&quot;Path&quot;,{&quot;applyMatrix&quot;:true,&quot;segments&quot;:[[[122.97813,287.86087],[-5.95614,2.7971],[0.54993,-11.19236]],[[129.08158,255.35935],[-3.77245,10.2155],[4.53559,-12.28203]],[[148.86589,220.63911],[-7.68431,10.50011],[6.68474,-9.13426]],[[175.33972,196.3273],[-10.77682,4.63489],[17.22393,-7.40767]],[[231.59126,191.77312],[-18.19267,0],[0,0]],[[239.09126,199.27312],[0,-7.5],[0,7.5]],[[231.59126,206.77312],[0,0],[-15.77807,0]],[[181.40803,210.04502],[14.97568,-6.38283],[-8.28892,3.53284]],[[160.92534,229.5593],[5.05772,-6.93231],[-6.8485,9.38682]],[[143.14443,260.57818],[4.07651,-10.96823],[-6.36326,17.12096]],[[138.80627,316.16099],[-1.76745,-17.94776],[1.77131,7.09998]],[[144.95378,334.04097],[-3.80617,-6.65023],[7.86168,13.73611]],[[180.41183,357.45413],[-13.78905,-5.63221],[17.2531,7.04712]],[[234.25842,366.09615],[-18.54277,-0.49256],[21.44205,0.56957]],[[294.71404,355.37014],[-19.71059,9.48432],[17.13942,-8.24713]],[[333.64412,311.00594],[-9.91553,15.29968],[4.03505,-11.46152]],[[343.93184,276.30459],[-2.01096,12.0552],[4.57937,-27.45219]],[[338.44385,193.88965],[7.02035,26.56077],[-1.21611,-4.60102]],[[335.27175,179.96943],[1.6496,4.46398],[-3.88947,-10.52531]],[[315.46866,148.97425],[7.98443,7.97445],[-12.5827,-12.56698]],[[269.69086,120.16359],[16.12958,7.04294],[-15.47704,-6.75801]],[[223.93599,107.50478],[16.65923,1.54251],[-8.03118,-0.41728]],[[195.55577,107.18655],[8.10883,-1.1379],[-26.69468,3.74601]],[[126.847,143.19233],[19.96179,-16.6922],[-11.23524,9.395]],[[95.27848,173.15642],[9.53821,-11.29097],[-20.54266,24.31761]],[[69.44597,264.41641],[-6.2769,-31.41401],[10.08905,14.17646]],[[107.84475,288.17963],[-16.94004,-3.42576],[6.65239,1.3453]]],&quot;closed&quot;:true}]}" fill="#313131" stroke-width="0.5"/><path d="M135.89367,160.88559c0.10685,-0.49885 0.32655,-1.14832 0.77835,-1.70995c-4.11991,-1.75211 -8.12287,-3.78667 -12.31152,-5.40104c-1.98925,-0.76669 -4.18124,-0.9959 -6.09731,-1.93057c-0.47558,-0.23199 -0.92021,-1.46679 -1.21192,-1.0253c-0.92439,1.399 -0.84572,3.24579 -1.3183,4.85463c-0.05153,0.17542 -3.08145,7.9147 -2.45616,9.20382c2.7288,5.62585 12.15977,1.68169 16.05641,0.67575c2.23667,-1.54138 4.45396,-2.99191 6.56046,-4.66733zM142.95318,160.10628c0.33933,0.833 0.33933,1.58883 0.33933,1.58883l-1.30953,3.88591c-3.0155,2.5743 -6.22006,4.63599 -9.54284,6.79809c-6.01748,1.70967 -12.71812,4.49732 -18.94671,1.76943c-2.73167,-1.19637 -6.0549,-3.8507 -7.2374,-6.63342c-1.5612,-3.67392 1.05898,-11.4036 2.46785,-14.5106c1.38526,-3.05494 2.15745,-6.80659 4.83717,-8.82419c1.46348,-1.10188 6.89766,0.4323 9.08561,1.12165c6.78244,2.13692 12.97227,5.56426 19.59751,8.03463c0,0 3.51123,1.31671 2.19452,4.82795c-0.36629,0.97676 -0.90239,1.57991 -1.4855,1.94173z" fill="#000000" stroke-width="0.5"/><path d="M8.83283,413.89156l-68.53784,-97.88682l511.02011,2.48804l255.35229,66.5173z" data-paper-data="{&quot;index&quot;:null}" fill="#0e1410" stroke-width="0"/><g stroke-width="0"><g><path d="M27.39851,200.32416v-17.25863l295.40688,-0.98697l35.18693,-15.79155v17.25862l-33.15321,16.77852z" fill="#1e1e1e"/><path d="M26.08536,185.8967l40.14022,-19.32254l291.26876,0.78989l-40.14022,18.53265z" fill="#323232"/></g><path d="M27.50728,249.84391v-50.55447h19.56947v50.55447z" fill="#1e1e1e"/><path d="M63.48091,255.13331l-0.26402,-54.91085h19.56947l0.26402,54.91085z" fill="#161616"/><path d="M204.20585,254.69898l-0.26402,-54.91085h19.56947l0.26402,54.91085z" fill="#161616"/><path d="M172.62235,244.74402v-50.55447h19.56947v50.55447z" fill="#1e1e1e"/></g><path d="M641.5024,173.69655c-1.38071,0 -2.5,-1.11929 -2.5,-2.5c0,-1.38071 1.11929,-2.5 2.5,-2.5c1.38071,0 2.5,1.11929 2.5,2.5c0,1.38071 -1.11929,2.5 -2.5,2.5z" data-paper-data="{&quot;index&quot;:null}" fill="#252525" stroke-width="0.5"/><g stroke-width="0.5"><path d="M360.94129,101.36498c3.48179,-1.39271 4.8745,2.08907 4.8745,2.08907l0.79924,2.09069c0.39617,1.60079 0.35151,3.30688 0.88402,4.86762c0.67615,1.98172 1.82641,3.84455 2.09904,5.92063c0.53418,4.06786 -0.12529,8.43129 -0.30376,12.49139c-0.2278,5.18218 -0.30814,10.47591 -0.33923,15.65427c-2.11741,9.52836 -0.74465,20.00713 -3.32294,29.50572c-2.02459,7.45872 -5.39666,14.23216 -9.45121,20.63403c-2.39392,3.77983 -6.17209,6.64547 -9.33664,9.71977c-2.43252,1.25072 -4.65526,2.92495 -7.18755,3.95887c-5.48869,2.241 -11.77372,3.00834 -17.58308,3.49219c-11.80924,0.98355 -23.7194,1.18556 -35.1205,-2.41182c-2.9178,-0.92065 -6.17944,-0.82097 -9.00058,-2.04487c-2.41982,-1.04979 -4.58677,-2.61077 -6.94287,-3.79667c-8.36822,-6.05289 -17.27483,-13.56333 -20.00235,-24.10594c-1.60451,-6.2019 -0.08053,-13.21787 0.20112,-19.47239c0.15566,-3.45669 -0.00465,-6.96113 -0.00465,-10.42261c0,0 0,-0.3597 0.1114,-0.85629c-0.58336,-4.91565 -1.06807,-9.84672 -1.68997,-14.75373c-1.09832,-8.66612 -2.80353,-16.83038 -1.93929,-25.5933l0.27026,-0.75298c-0.03619,-0.45728 0.01556,-0.97486 0.19078,-1.55892c1.07755,-3.59185 4.6694,-2.5143 4.6694,-2.5143c6.59229,1.98895 12.34939,4.63133 18.4053,7.84695c3.64943,-2.63639 7.59337,-4.87496 11.58057,-6.96487c5.93236,-3.10948 10.09088,-6.05761 16.5881,-8.11124c4.85174,-1.53353 10.326,-2.47612 15.28762,-3.79065l2.8242,-0.36179c0,0 0.18929,-0.02366 0.48783,-0.01761c3.62032,-0.32533 4.02586,3.32454 4.02586,3.32454c0.68225,6.1403 1.77664,12.17578 2.63126,18.2652c10.38024,-5.41217 21.07979,-8.71098 32.33622,-12.41158l2.13563,-0.18757c0,0 0.77598,0 1.62196,0.35299c0.06491,-0.02904 0.13166,-0.05731 0.20031,-0.08477zM258.69919,160.33113c-0.24532,5.35262 -1.87149,11.8852 -0.44187,17.17832c2.31677,8.57774 9.86642,14.65349 16.64837,19.61771c2.01943,1.00235 3.86849,2.33483 5.91702,3.27627c2.49538,1.14681 5.71461,0.99363 8.36029,1.8131c10.55066,3.26796 21.47494,2.99958 32.39396,2.08915c5.00734,-0.41752 10.47905,-0.99773 15.20966,-2.93776c1.99568,-0.81843 3.72925,-2.17763 5.67235,-3.11408c2.38684,-2.48713 5.54832,-4.66348 7.38123,-7.64109c3.64263,-5.91756 6.60364,-11.77295 8.55265,-18.58866c0.69228,-2.4209 0.58119,-5.63172 0.85764,-8.11946c0.74494,-6.70361 0.79802,-13.71327 2.24937,-20.24436c-0.06142,-8.74152 1.47136,-17.78801 0.64299,-26.50891c-0.14841,-1.56236 -1.27066,-2.87579 -1.75894,-4.36729c-0.44623,-1.36303 -0.55752,-2.81054 -0.79861,-4.22747c-0.28409,0.04017 -0.4663,0.04017 -0.4663,0.04017l0.20665,-0.18756c-11.72744,3.85528 -22.85429,7.188 -33.60556,13.22863c-0.27092,0.80541 -0.89184,1.60711 -2.18058,2.1226c-3.48179,1.39271 -4.8745,-2.08907 -4.8745,-2.08907l-0.88759,-2.57993c-0.71287,-6.3615 -1.874,-12.62535 -2.73507,-18.96492c-4.41796,1.12273 -9.11621,1.96745 -13.40442,3.30504c-6.0044,1.87291 -9.81824,4.70424 -15.35708,7.60044c-3.95111,2.06599 -7.87833,4.26129 -11.42972,6.95606c-0.61827,0.76275 -1.42371,1.06811 -2.14105,1.16838c-0.72696,0.18087 -1.62326,0.19345 -2.51066,-0.33495l-2.22143,-0.69947c-4.36983,-2.33159 -8.53075,-4.35335 -13.02696,-6.00577c-0.21255,7.05213 1.2192,13.80489 2.11637,20.87895c0.70524,5.56067 1.23332,11.15253 1.92895,16.71759c0,0 0.12574,1.0059 -0.27653,2.03708c0.03586,2.86027 0.10972,5.7365 -0.02066,8.58128z" fill="#000000"/><path d="M258.66986,151.74909c0.40227,-1.03118 0.27661,-2.03913 0.27661,-2.03913c-0.69563,-5.56506 -1.22056,-11.1718 -1.92579,-16.73246c-0.89717,-7.07407 -2.32211,-13.83919 -2.10956,-20.89132c4.49621,1.65243 8.65891,3.67196 13.02874,6.00355l2.222,0.6988c0.8874,0.52841 1.78466,0.51476 2.51162,0.33389c0.71734,-0.10027 1.52444,-0.40734 2.14271,-1.1701c3.55139,-2.69477 7.48986,-4.89835 11.44097,-6.96434c5.53884,-2.8962 9.36933,-5.73302 15.37373,-7.60593c4.28821,-1.33759 8.99958,-2.18245 13.41754,-3.30518c0.86108,6.33957 2.02932,12.60482 2.74219,18.96632l0.88985,2.58061c0,0 1.40026,3.48494 4.88205,2.09222c1.28873,-0.5155 1.91086,-1.31655 2.18178,-2.12196c10.75128,-6.04063 21.89165,-9.36241 33.61909,-13.2177l-0.20664,0.18757c0,0 0.18234,0.00015 0.46643,-0.04001c0.24109,1.41693 0.35418,2.86664 0.80041,4.22968c0.48828,1.49151 1.61258,2.80781 1.76099,4.37018c0.82837,8.7209 -0.69681,17.7867 -0.63539,26.52822c-1.45135,6.53109 -1.50496,13.56 -2.2499,20.26361c-0.27645,2.48774 -0.16759,5.70584 -0.85987,8.12674c-1.94901,6.81572 -4.91986,12.6868 -8.56249,18.60436c-1.8329,2.97761 -5.00138,5.16021 -7.38822,7.64735c-1.9431,0.93645 -3.68144,2.29877 -5.67712,3.1172c-4.73061,1.94003 -10.21517,2.52543 -15.22251,2.94294c-10.91902,0.91044 -21.87364,1.17685 -32.42431,-2.09111c-2.64567,-0.81947 -5.87178,-0.66963 -8.36717,-1.81643c-2.04853,-0.94144 -3.90264,-2.27728 -5.92207,-3.27963c-6.78194,-4.96422 -14.34622,-11.05763 -16.66299,-19.63537c-1.42962,-5.29312 0.19194,-11.84018 0.43726,-17.19281c0.13038,-2.84477 0.05593,-5.7295 0.02007,-8.58977z" data-paper-data="{&quot;noHover&quot;:false,&quot;origItem&quot;:[&quot;Path&quot;,{&quot;applyMatrix&quot;:true,&quot;segments&quot;:[[[258.69919,160.33113],[0.13038,-2.84477],[-0.24532,5.35262]],[[258.25732,177.50945],[-1.42962,-5.29312],[2.31677,8.57774]],[[274.90569,197.12716],[-6.78194,-4.96422],[2.01943,1.00235]],[[280.82271,200.40344],[-2.04853,-0.94144],[2.49538,1.14681]],[[289.183,202.21654],[-2.64567,-0.81947],[10.55066,3.26796]],[[321.57696,204.30569],[-10.91902,0.91044],[5.00734,-0.41752]],[[336.78662,201.36793],[-4.73061,1.94003],[1.99568,-0.81843]],[[342.45897,198.25385],[-1.9431,0.93645],[2.38684,-2.48713]],[[349.8402,190.61276],[-1.8329,2.97761],[3.64263,-5.91756]],[[358.39285,172.02409],[-1.94901,6.81572],[0.69228,-2.4209]],[[359.25049,163.90463],[-0.27645,2.48774],[0.74494,-6.70361]],[[361.49986,143.66027],[-1.45135,6.53109],[-0.06142,-8.74152]],[[362.14286,117.15136],[0.82837,8.7209],[-0.14841,-1.56236]],[[360.38392,112.78407],[0.48828,1.49151],[-0.44623,-1.36303]],[[359.58532,108.5566],[0.24109,1.41693],[-0.28409,0.04017]],[359.11902,108.59677],[[359.32567,108.4092],[0,0],[-11.72744,3.85528]],[[325.72011,121.63783],[10.75128,-6.04063],[-0.27092,0.80541]],[[323.53953,123.76043],[1.28873,-0.5155],[-3.48179,1.39271]],[318.66503,121.67136],[[317.77744,119.09143],[0,0],[-0.71287,-6.3615]],[[315.04237,100.12651],[0.86108,6.33957],[-4.41796,1.12273]],[[301.63795,103.43155],[4.28821,-1.33759],[-6.0044,1.87291]],[[286.28087,111.03199],[5.53884,-2.8962],[-3.95111,2.06599]],[[274.85115,117.98805],[3.55139,-2.69477],[-0.61827,0.76275]],[[272.71011,119.15643],[0.71734,-0.10027],[-0.72696,0.18087]],[[270.19945,118.82148],[0.8874,0.52841],[0,0]],[[267.97802,118.12201],[0,0],[-4.36983,-2.33159]],[[254.95106,112.11624],[4.49621,1.65243],[-0.21255,7.05213]],[[257.06743,132.99519],[-0.89717,-7.07407],[0.70524,5.56067]],[[258.99638,149.71278],[-0.69563,-5.56506],[0,0]],[[258.71985,151.74986],[0.40227,-1.03118],[0.03586,2.86027]]],&quot;closed&quot;:true}]}" fill="#002f3b"/><path d="M268.5694,160.32017c-3.71231,-0.53033 -3.18198,-4.24264 -3.18198,-4.24264l0.28381,-1.72015c0,-1.50032 0,-3.00064 0,-4.50096c0,0 0,-3.75 3.75,-3.75c3.75,0 3.75,3.75 3.75,3.75c0,1.50032 0,3.00064 0,4.50096l-0.35919,2.78081c0,0 -0.53033,3.71231 -4.24264,3.18198z" fill="#ffffff"/><path d="M307.7874,168.50327c0,-2.07107 1.67893,-3.75 3.75,-3.75c2.07107,0 3.75,1.67893 3.75,3.75c0,2.07107 -1.67893,3.75 -3.75,3.75c-2.07107,0 -3.75,-1.67893 -3.75,-3.75z" fill="#ffffff"/></g><g stroke-width="0"><path d="M195.9353,215.22822l40.14022,-19.32254l291.26876,0.78989l-40.14022,18.53265z" fill="#323232"/><path d="M195.73645,232.13205v-17.25862l295.40688,-0.98697l35.18693,-15.79155v17.25862l-33.15321,16.77853z" fill="#1e1e1e"/></g><g stroke-width="0"><path d="M24.50962,259.49305v-17.25862l295.40689,-0.98698l35.18693,-15.79155v17.25862l-33.15321,16.77853z" fill="#1e1e1e"/><path d="M23.35686,244.55973l40.14022,-19.32254l291.26876,0.78989l-40.14022,18.53265z" fill="#323232"/></g><g stroke-width="0"><path d="M-39.61756,371.21624v-98.16866l477.81764,-12.86174l1.07181,129.2512z" fill="#686868"/><path d="M425.56329,373.35986v-135.66113h59.07236v135.66113z" fill="#a5a5a5"/><path d="M-40.01358,272.28245l60.82149,-28.64938l466.62421,-7.10901l-60.82148,27.8595z" fill="#424242"/></g><path d="M-52.28897,101.56522c0,-0.69035 0.55965,-1.25 1.25,-1.25c0.69035,0 1.25,0.55965 1.25,1.25c0,0.69035 -0.55965,1.25 -1.25,1.25c-0.69035,0 -1.25,-0.55965 -1.25,-1.25z" fill="#000000" stroke-width="0.5"/><path d="M162.00474,152.56164c-3.67718,-0.73544 -2.94174,-4.41261 -2.94174,-4.41261l0.43156,-2.07329c1.54712,-5.15705 2.60905,-9.59518 3.33857,-15.00964c0,0 0.50667,-3.71561 4.22229,-3.20894c3.71561,0.50667 3.20894,4.22229 3.20894,4.22229c-0.7978,5.7867 -1.92925,10.62855 -3.5861,16.1514l-0.2609,1.38905c0,0 -0.73544,3.67718 -4.41261,2.94174z" fill="#ffffff" stroke-width="0.5"/><path d="M130.88667,139.13135c-3.75,0 -3.75,-3.75 -3.75,-3.75l0.0893,-2.19842c0.93935,-4.21704 2.45012,-7.9007 3.95804,-11.92894c0,0 1.31671,-3.51123 4.82795,-2.19452c3.51123,1.31671 2.19452,4.82795 2.19452,4.82795c-1.39222,3.7065 -2.80004,7.04678 -3.6591,10.92249l0.0893,0.57145c0,0 0,3.75 -3.75,3.75z" fill="#ffffff" stroke-width="0.5"/></g></g></svg>