<svg version="1.1" xmlns="http://www.w3.org/2000/svg" xmlns:xlink="http://www.w3.org/1999/xlink" width="87.41062" height="115.93403" viewBox="0,0,87.41062,115.93403"><g transform="translate(-383.51533,-81.67006)"><g data-paper-data="{&quot;isPaintingLayer&quot;:true}" fill-rule="nonzero" stroke="none" stroke-linecap="butt" stroke-linejoin="miter" stroke-miterlimit="10" stroke-dasharray="" stroke-dashoffset="0" style="mix-blend-mode: normal"><path d="M383.51533,197.60409v-115.93403h87.41057v115.93403z" fill="#000000" stroke-width="0"/><path d="M398.89983,171.08599c-0.4861,0.41081 -1.20969,0.68552 -2.24911,0.37369c-2.39457,-0.71837 -1.6762,-3.11294 -1.6762,-3.11294c2.18505,-7.28317 4.64041,-14.60663 5.1064,-22.26767c0.34053,-5.59837 0.00075,-11.22658 0.40054,-16.82262c0.46157,-6.46074 2.44085,-12.52836 3.61935,-18.8551c1.41408,-0.87722 2.66469,-2.10204 4.24223,-2.63165c0.28606,-0.09604 7.17486,-0.09841 7.54677,-0.08191c6.87365,0.3049 13.66655,1.14397 20.50875,1.6066c2.92578,0.19782 7.65708,-1.0194 10.00185,1.52702c0.10499,0.11402 2.72434,6.93611 3.0097,7.79398c2.32034,6.97558 3.30189,14.41711 5.6336,21.31251c1.52621,6.10485 4.03494,12.22323 4.49933,18.54598c0.0691,0.94085 -0.00053,6.50783 -0.28952,6.96441c-2.97065,4.69326 -9.57484,2.41411 -13.97515,2.1166c-10.86029,-0.73427 -21.58346,-0.19245 -32.39878,0.78903c-4.51865,0.64689 -9.19556,1.23039 -13.51832,2.69236z" fill="#4e4e4e" stroke-width="0.5"/><path d="M383.51538,197.60409v-115.93403h87.41057v115.93403z" fill="#000000" stroke-width="0"/><path d="M398.40064,161.18153c0.32138,-3.91345 1.00994,-7.75387 1.50353,-11.68509c0.84396,-6.72176 1.3144,-13.34575 2.38623,-20.03054c0.67928,-4.23656 0.471,-12.46249 4.94769,-15.03773c0.03103,-0.01785 6.1927,-1.13001 7.17924,-1.3084c7.33577,-0.56637 14.55027,-1.44378 21.93628,-1.44581c2.45776,-0.00067 7.21756,-0.73358 9.35476,0.58908c2.65903,1.6456 3.60704,6.66435 4.2464,9.42821c1.91514,8.27874 3.84978,16.67738 5.25217,25.07202c0.7275,4.03378 1.05036,8.11333 1.22225,12.19296c0.09432,2.23855 0.86503,4.91826 -0.82438,6.95156c-2.49142,2.99855 -9.6676,2.76902 -13.12771,3.01869c-10.48353,0.75647 -20.81157,2.39061 -31.42726,2.37971c-5.25981,0.47835 -12.18335,3.53888 -14.20952,-3.45915c-0.30677,-1.05954 0.13631,-2.2019 0.20446,-3.30284l0.86154,-2.55181c0,0 0.15088,-0.40234 0.49433,-0.81086z" fill="#4e4e4e" stroke-width="0.5"/></g></g></svg>