<svg version="1.1" xmlns="http://www.w3.org/2000/svg" xmlns:xlink="http://www.w3.org/1999/xlink" width="98.67645" height="205.7211" viewBox="0,0,98.67645,205.7211"><defs><radialGradient cx="-27.84531" cy="206.77106" r="102.86055" gradientUnits="userSpaceOnUse" id="color-1"><stop offset="0" stop-color="#000000"/><stop offset="1" stop-color="#000000"/></radialGradient><radialGradient cx="-40.43165" cy="201.59695" r="9.83744" gradientUnits="userSpaceOnUse" id="color-2"><stop offset="0" stop-color="#ffffff" stop-opacity="0.15801"/><stop offset="1" stop-color="#ffffff" stop-opacity="0"/></radialGradient><radialGradient cx="-3.76288" cy="200.14473" r="9.83744" gradientUnits="userSpaceOnUse" id="color-3"><stop offset="0" stop-color="#ffffff" stop-opacity="0.15801"/><stop offset="1" stop-color="#ffffff" stop-opacity="0"/></radialGradient><linearGradient x1="-29.7345" y1="227.56307" x2="-29.7345" y2="259.62604" gradientUnits="userSpaceOnUse" id="color-4"><stop offset="0" stop-color="#04010d"/><stop offset="1" stop-color="#010004"/></linearGradient></defs><g transform="translate(77.18353,-103.91048)"><g data-paper-data="{&quot;isPaintingLayer&quot;:true}" fill-rule="nonzero" stroke-linecap="butt" stroke-linejoin="miter" stroke-miterlimit="10" stroke-dasharray="" stroke-dashoffset="0" style="mix-blend-mode: normal"><path d="M-69.49035,309.63158l-7.69318,-184.63566l92.85657,-21.08544l5.81988,140.40941z" fill="url(#color-1)" stroke="#000000" stroke-width="0"/><path d="M-42.93165,201.59695c0,-1.38071 1.11929,-2.5 2.5,-2.5c1.38071,0 2.5,1.11929 2.5,2.5c0,1.38071 -1.11929,2.5 -2.5,2.5c-1.38071,0 -2.5,-1.11929 -2.5,-2.5z" fill="#ffffff" stroke="none" stroke-width="0.5"/><path d="M-50.26909,201.59695c0,-5.43306 4.40438,-9.83744 9.83744,-9.83744c5.43306,0 9.83744,4.40438 9.83744,9.83744c0,5.43306 -4.40438,9.83744 -9.83744,9.83744c-5.43306,0 -9.83744,-4.40438 -9.83744,-9.83744z" fill="url(#color-2)" stroke="none" stroke-width="0.5"/><path d="M-13.60032,200.14473c0,-5.43306 4.40438,-9.83744 9.83744,-9.83744c5.43306,0 9.83744,4.40438 9.83744,9.83744c0,5.43306 -4.40438,9.83744 -9.83744,9.83744c-5.43306,0 -9.83744,-4.40438 -9.83744,-9.83744z" fill="url(#color-3)" stroke="none" stroke-width="0.5"/><path d="M-6.72647,199.74028c0,-1.38071 1.11929,-2.5 2.5,-2.5c1.38071,0 2.5,1.11929 2.5,2.5c0,1.38071 -1.11929,2.5 -2.5,2.5c-1.38071,0 -2.5,-1.11929 -2.5,-2.5z" fill="#ffffff" stroke="none" stroke-width="0.5"/><path d="M0.53939,236.00268c-0.69256,3.23898 -2.11599,7.70258 -4.21421,10.33368c-2.00824,2.51827 -5.42733,4.22788 -8.16785,5.72568c-5.02629,2.74706 -9.47405,4.87841 -15.18126,5.8445c-2.058,0.33985 -4.03044,1.12996 -6.09844,1.40236c-4.24945,0.55975 -9.65781,0.25514 -13.93219,0.02106c-2.40138,-0.13151 -6.49175,-0.44283 -8.81567,-1.62028c-4.72682,-2.39493 -4.73548,-4.96799 -4.69985,-9.69582c0.01194,-1.58408 -0.25476,-3.20077 0.06688,-4.7519c0.25902,-1.24917 2.89257,-5.55534 3.47812,-6.63946c2.05828,-3.8108 4.24356,-6.69269 7.68891,-9.05943c4.59638,2.82286 9.73403,4.39652 15.56239,5.10446c12.22239,1.4846 23.31468,-1.11317 34.86755,-3.82324c0.30922,2.49568 -0.16344,5.33005 -0.55438,7.1584z" fill="url(#color-4)" stroke="none" stroke-width="0.5"/></g></g></svg>