<svg version="1.1" xmlns="http://www.w3.org/2000/svg" xmlns:xlink="http://www.w3.org/1999/xlink" width="241.84826" height="302.60817" viewBox="0,0,241.84826,302.60817"><g transform="translate(-129.72084,-23.24325)"><g data-paper-data="{&quot;isPaintingLayer&quot;:true}" fill-rule="nonzero" stroke="none" stroke-linecap="butt" stroke-linejoin="miter" stroke-miterlimit="10" stroke-dasharray="" stroke-dashoffset="0" style="mix-blend-mode: normal"><path d="M270.70234,270.24742c0,-3.28787 -0.00827,-6.57595 0,-9.86381c0.00329,-1.30731 -0.00627,-2.61482 0.01873,-3.92189c0.00822,-0.4297 0.47146,-1.10745 0.08089,-1.28679c-0.95006,-0.43624 -2.11046,0.09685 -3.13416,-0.11518c-1.38761,-0.2874 -2.62724,-1.13562 -4.02517,-1.36768c-1.35886,-0.22557 -2.76165,0.14982 -4.13235,0.01355c-4.04742,-0.40238 -6.57807,-1.32964 -10.50815,0.43584c-0.43353,0.19475 -1.04616,0.24522 -1.25828,0.67053c-2.18265,4.37629 -0.92838,11.46202 -0.92838,16.13998c0,4.78245 -0.92954,10.78069 -0.10727,15.48037c0.36289,2.07407 3.92312,2.2633 5.14314,2.50035c6.71564,1.3049 14.12208,1.86327 19.58323,-2.8391c1.51861,-1.30762 0.48944,-1.96407 0.68905,-4.11504c0.22505,-2.42508 0.42965,-4.7878 0.57217,-7.17798c-0.7306,-0.14868 -1.99345,-0.66266 -1.99345,-2.43949c0,-0.44154 0.07798,-0.8051 0.2064,-1.10444c-0.2064,-0.53522 -0.2064,-1.00923 -0.2064,-1.00923zM275.91524,264.46702c0.49167,0.70759 0.49167,1.55305 0.49167,1.55305l-0.26393,-0.41348c0.53539,1.12063 1.07078,2.24125 1.60617,3.36188c0.00362,0.25974 0.00632,0.51831 0.00812,0.77584c2.11322,-0.11375 4.33904,-0.23404 6.21106,0.033c-1.00601,-2.34974 -0.68909,-5.18417 -1.71597,-7.54519c-0.33142,-0.76201 -1.31286,-1.0408 -1.83558,-1.68675c-1.7957,-2.21905 -2.76347,-4.85499 -4.35016,-7.21116c-1.63026,-2.42086 -3.37939,-4.81962 -4.4809,-7.5224c0,0 -0.08062,-0.20154 -0.13495,-0.5096c-0.18968,-0.0089 -0.37912,-0.02225 -0.56829,-0.04106c-5.53129,-0.5501 -10.17086,-2.25628 -15.26315,-4.31129c-8.60394,-1.41968 -16.88878,-4.08869 -25.12037,-6.95987c-2.78689,-0.97207 -5.69325,-1.59344 -8.48015,-2.55812c0.66825,3.41691 1.61296,6.70237 2.21301,10.19997c0.76278,4.44612 0.85727,9.03549 1.42794,13.51218c1.20375,9.4429 2.72084,18.7339 4.9061,27.94562c1.92566,0.8998 3.81373,2.07927 5.02402,3.78682c2.19259,1.72844 4.20573,3.70405 6.55021,5.22008c1.49849,0.96899 3.50602,1.21851 4.71967,2.52674c3.65564,3.94053 1.85107,10.16892 1.34544,14.68571c-0.32737,2.92436 -0.06014,5.93958 -0.77653,8.79367c-0.52139,2.07719 -0.69482,4.44535 -2.07966,6.079c-2.10086,2.4783 -8.81475,1.40759 -11.60188,1.40759c-5.85748,0 -12.0028,0.59575 -17.82426,-0.00886c-4.39215,-0.45617 -8.53308,-1.91176 -12.77854,-3.02308c-1.10216,-0.83859 -2.63624,-1.30383 -3.30648,-2.51576c-0.36513,-0.66023 -0.29581,-5.66662 -0.29581,-6.81611c0,-6.00777 0.25133,-11.85719 0.71085,-17.79116c0.12079,-1.55985 1.29251,-9.83686 2.28689,-10.88958c0.67713,-0.71686 5.8964,-0.59245 7.2524,-0.59245c5.28036,0 10.56073,0 15.84109,0c-2.18784,-9.29555 -3.72203,-18.66815 -4.93549,-28.19285c-0.55957,-4.39218 -0.64346,-8.89925 -1.39029,-13.26101c-0.81329,-4.74992 -2.23078,-9.144 -2.80714,-13.95836c-0.92745,-0.6041 -1.86201,-1.19556 -2.85648,-1.66788c-3.05969,-1.45319 -6.3836,-2.3509 -9.33827,-4.00723c-2.65556,-1.48866 -5.11247,-3.20297 -7.51369,-4.97678c0,0.86928 0,1.68658 0,2.33569c0,4.5219 -0.98067,8.56531 -1.42784,12.9875c-0.15079,1.49124 0.24712,3.0268 -0.04815,4.49627c-0.21833,1.08661 -1.16295,1.92037 -1.45595,2.98926c-0.99352,3.62445 -1.35533,7.94402 -2.04092,11.68276c-1.03038,5.61897 -0.22928,12.61487 -4.10763,17.40863c-0.61566,0.76097 -1.64983,1.06264 -2.4029,1.68797c-0.87475,0.72638 -1.47486,1.80022 -2.4669,2.35581c-4.91576,2.7531 -12.04853,2.43818 -17.43658,2.43818c-8.48976,0 -18.99545,1.32199 -26.6784,-3.1916c-1.11879,-0.65726 -1.6357,-2.08104 -2.73565,-2.76936c-0.88728,-0.55524 -2.19084,-0.20638 -3.0266,-0.83652c-1.03023,-0.77675 -1.70361,-1.97948 -2.25528,-3.14583c-1.66843,-3.52743 -0.8727,-7.10544 -0.16134,-10.6797c0.87496,-4.39624 1.57872,-8.78067 2.08003,-13.18298c0.14301,-1.25589 -0.22677,-2.55797 0.04815,-3.79172c0.47622,-2.13713 1.6748,-4.0775 2.08962,-6.2274c1.31272,-7.48791 1.86965,-15.29486 3.55572,-22.69586c0.97601,-4.28419 3.15063,-8.34802 4.22722,-12.68152c0.68966,-2.77606 1.77654,-6.30145 2.95101,-8.84373c0.61335,-1.32766 0.99443,-2.95385 2.18322,-3.8057c2.28132,-1.63473 7.36678,-1.2078 9.83644,-1.14538c7.80344,0.19723 15.43275,1.2006 23.24446,1.32421c0.23975,-0.56104 0.71445,-1.16202 1.65435,-1.34246l1.30556,-0.75872c2.00786,0.03861 3.88615,-1.04114 5.86825,-1.36401c0.19249,-0.03135 2.52108,-0.04139 4.69599,-0.04436c-0.97088,-1.73054 -1.30469,-3.76971 -1.77257,-5.64996c-0.04403,-7.34172 -0.58925,-15.05104 -0.0086,-22.37153c0.29879,-3.76692 0.71637,-7.54349 1.14536,-11.32487c-3.6963,2.17079 -7.27918,4.624 -11.26578,6.16719c-1.55238,0.60092 -3.2377,0.80195 -4.8019,1.37139c-2.24893,0.81871 -4.26198,2.26343 -6.57049,2.89493c-4.44914,1.21707 -9.74847,1.42559 -14.17022,-0.04195c-4.13291,-1.37168 -6.79176,-4.64148 -10.2221,-7.0512c-2.857,-5.49786 -5.71592,-10.67482 -4.04132,-17.17468c0.64907,-2.5193 2.42051,-4.65564 4.10619,-6.63721c0.52856,-0.62134 1.52276,-0.71494 2.0488,-1.33841c1.93032,-2.28785 2.92723,-5.95329 4.83559,-8.33872c3.79453,-4.74313 8.74715,-8.58209 13.57408,-12.08224c1.23744,-0.8973 2.38883,-1.82659 3.5091,-2.7619c-0.29148,-1.26949 0.73351,-2.29447 0.73351,-2.29447l1.94808,-1.93088c2.44823,-3.57037 5.76729,-4.05342 8.78618,-6.67543c0.84826,-0.73675 1.19973,-1.92384 1.9975,-2.71498c0.89217,-0.88475 1.96397,-1.65147 3.08012,-2.37881c0.18062,-0.19583 0.3716,-0.38221 0.57574,-0.55664c4.54831,-3.88645 8.62312,-8.80507 12.26701,-13.6578c1.4005,-1.8651 2.12269,-4.23824 3.75502,-5.90423c0.73505,-0.75021 2.05743,-0.68503 2.81823,-1.40912c1.33108,-1.26683 1.5256,-3.34444 2.34993,-4.98673c1.49744,-2.98333 3.45323,-5.47164 4.9319,-8.45469c0.98679,-1.96639 1.70217,-3.69922 3.12094,-5.39884c0.54885,-0.65749 1.44985,-1.01498 1.87153,-1.76045c0.43734,-0.77316 0.23995,-1.78309 0.59377,-2.59787c1.33613,-3.07679 4.04344,-6.40963 6.4518,-8.67506l0.4547,-2.19282c0,0 0.60634,-2.42536 3.0317,-1.81902c0.0016,0.0004 0.00319,0.0008 0.00479,0.0012c0.96938,-0.28523 1.91602,0.18809 1.91602,0.18809c5.89967,2.96062 9.14,7.63977 13.42682,12.54624c3.06654,3.50979 7.10689,6.31577 9.9715,9.99258c1.93087,2.47833 3.28745,4.65175 5.48208,6.86607c1.63714,1.65184 3.94587,2.53083 5.58809,4.17762c2.70573,2.71326 3.62857,6.2062 6.86278,8.2891c1.36905,1.36905 3.18423,2.26733 4.45169,3.73093c2.84416,3.28429 5.03307,7.35811 7.87417,10.70861c0.95013,1.12048 2.27857,1.92767 3.06038,3.17146c0.51531,0.81982 0.22975,1.97431 0.70456,2.81823c0.41996,0.74643 1.31805,1.10685 1.87153,1.76045c2.07193,2.44675 3.99118,4.98789 5.80693,7.64426l-0.00001,-0.00002c0.39728,0.10563 0.88849,0.31794 1.25818,0.74464c1.67639,0.77133 3.36818,1.50414 5.12967,2.08149c6.70029,2.1961 13.05327,3.09972 17.4914,9.38041c0.89932,1.27269 1.81475,2.72304 1.88101,4.28001c0.0559,1.31364 -1.14766,2.37604 -1.54443,3.62958c-0.71235,2.25057 -0.69946,4.68544 -1.37744,6.9466c-1.43273,4.77832 -3.6992,8.86255 -6.73738,12.76512c-0.89312,1.14721 -1.52839,2.58365 -2.7308,3.40094c-3.68407,2.5041 -8.56963,0.53239 -12.57132,0.40492c0.85402,6.24051 1.00642,12.25696 1.00642,18.6491c0,3.50047 0.56493,8.24338 -0.03228,11.67338c-0.26052,1.49627 -0.72651,2.87043 -1.32214,4.16932c1.49931,0.99226 3.04789,1.97156 4.23648,3.33783c2.57399,-2.24168 6.05157,-3.54973 9.34508,-4.64861c3.74249,-1.24867 7.47958,-1.29595 10.27827,-4.32221l2.05885,-1.17286c0,0 2.08957,-1.04479 3.23877,0.90557c3.27653,-0.92547 6.80005,-1.14219 10.2287,-1.16761c0.76534,-0.75038 1.52905,-0.84291 2.14767,-0.708c0.52555,0.05646 1.09689,0.29527 1.55567,0.92759c1.24108,1.2203 2.6854,2.27517 3.65166,3.71917c0.26643,0.39816 3.25362,7.76567 3.72188,8.82836c2.01993,4.58408 4.19451,9.08773 6.16927,13.69348c1.76905,4.12598 3.59763,8.24756 5.72606,12.2055c2.29243,4.26292 5.18783,8.46134 6.53817,13.1715c0.38521,1.34368 0.27608,2.79939 0.67743,4.13834c0.85803,2.86248 2.01038,5.95935 3.30761,8.67754c0.59241,1.24133 2.15563,2.44832 1.71724,3.75204c-0.66659,1.98238 -2.97476,2.94068 -4.46214,4.41101c-3.20704,2.40437 -6.65021,5.42041 -10.19517,7.26259c-1.54905,0.80498 -3.29205,1.17028 -4.89582,1.85983c-2.7664,1.18943 -5.29018,2.93911 -8.13264,3.93317c-3.87153,1.35395 -8.73657,1.44074 -12.39083,3.39556c-1.07514,0.57513 -1.82831,1.67757 -2.94229,2.17329c-1.11476,0.49606 -2.44428,0.30295 -3.5865,0.73199c-0.7927,0.29775 -1.3198,1.11452 -2.11367,1.40912c-2.255,0.83679 -8.9233,2.63811 -11.23399,1.33548c-4.23317,-2.38641 -2.62611,-3.68498 -3.98648,-6.86115c-1.65825,-3.87163 -2.9304,-7.36284 -3.83111,-11.38235c-0.00887,0.01833 -0.01806,0.03658 -0.02759,0.05475c-2.79333,5.32537 -9.39885,3.71337 -14.3123,3.65684c-4.23438,-0.04871 -8.1282,-0.96291 -12.25781,-1.42772c-0.10947,-0.01232 -0.21905,-0.02273 -0.32871,-0.03143c0.94152,1.86748 2.23464,3.56621 3.40638,5.30412c0.59003,0.87513 3.00145,5.49025 4.10452,6.87999c0.72309,0.91101 1.91321,1.48051 2.39177,2.54059c0.66578,1.47479 0.50452,3.20165 0.90792,4.76867c0.4382,1.70221 3.02535,7.36391 1.6579,9.18673c-0.97701,1.30237 -3.16981,0.78883 -4.78874,0.96147c-2.17398,0.23183 -4.51627,0.14441 -6.80709,0.06747c-0.10419,2.49961 -0.2959,4.97424 -0.56889,7.54268c-0.14099,1.32654 0.28524,2.72226 -0.0951,4.0009c-0.8208,2.75937 -2.42459,3.45235 -4.52877,4.87845c-1.61725,1.09609 -3.8919,2.70168 -5.74427,3.17123c-4.48396,1.13662 -11.44041,0.21832 -15.86038,-0.68623c-3.02023,-0.61809 -4.68214,-0.4984 -6.91394,-2.79736c-2.72883,-2.81095 -2.08426,-3.64379 -2.14135,-7.40423c-0.06414,-4.22458 0,-8.45712 0,-12.68204c0,-5.85025 -1.25025,-13.807 1.88985,-19.08791c0.62428,-1.04989 1.88932,-1.57661 2.96906,-2.1477c4.79905,-2.53828 8.47958,-1.47281 13.44681,-0.97327c1.43356,0.14417 2.9013,-0.22418 4.32234,0.01355c1.53237,0.25635 2.93398,1.02958 4.42952,1.45055c1.75693,0.49455 3.91515,0.12935 5.32053,1.29394c1.18009,0.97789 1.23336,2.83871 1.49001,4.34967c0.45269,2.66517 0.37072,5.66331 0.23162,8.61621zM230.69909,288.89804c-0.04303,0.00832 -0.08403,0.01536 -0.12261,0.02132l-0.09411,0.43713c0,0 -0.79057,2.37171 -3.16228,1.58114c-1.24795,-0.41598 -1.62037,-1.26973 -1.69312,-1.98538c-4.33886,0 -8.67772,0 -13.01658,0c-1.87882,0 -3.77771,0.2739 -5.63646,0c-0.44201,-0.06513 -1.00289,-0.99226 -1.20229,-0.59245c-0.40262,0.80725 0.21446,1.80231 0.1501,2.7021c-0.45124,6.30899 -1.37971,12.30531 -1.37971,18.64076c0,1.66355 -0.96135,7.761 0.62506,8.28208c3.73531,0.87681 7.33525,2.21977 11.17642,2.61338c5.68209,0.58225 11.68477,-0.00886 17.40362,-0.00886c2.24671,0 4.4934,0.01948 6.74012,0.01873c0.46192,-0.00015 1.15467,0.37978 1.38562,-0.02026c0.59974,-1.03888 0.47242,-2.35265 0.66755,-3.53624c0.77246,-4.68541 1.36636,-9.67161 1.38875,-14.3944c0.00554,-1.16914 0.35728,-3.6705 -0.74882,-4.64825c-1.02495,-0.90601 -2.57514,-0.97531 -3.73502,-1.70061c-0.40006,-0.25016 -7.23072,-5.80157 -7.54094,-6.05284c-0.31561,-0.51474 -0.73024,-0.96547 -1.20528,-1.35734zM311.09312,219.13777c0.69827,0.09722 1.75297,0.63929 2.11475,0.03418c0.32188,-0.53836 -0.95424,-0.82347 -1.35373,-1.30705c-0.46133,-0.55844 -0.77727,-1.22449 -1.21461,-1.80191c-1.92562,-2.54247 -2.90693,-4.49206 -5.34467,-5.87607c0.00015,0.99441 -0.00109,1.99134 -0.00109,2.99132c0,1.5803 -0.00274,3.15122 -0.01553,4.71613c1.93801,0.41929 3.85168,0.97006 5.81488,1.24339zM306.73004,205.30572c3.73348,1.97095 7.99264,6.08957 9.54921,10.23145c0.69449,1.84796 2.43888,4.02159 1.4645,5.73853c-2.51653,4.43435 -8.50068,2.73109 -12.55312,1.73752c-0.0945,3.37897 -0.27408,6.74709 -0.61359,10.13899c-0.04964,0.49596 -0.0986,0.99205 -0.14823,1.4881c2.11833,0.1359 2.2634,2.18177 2.27333,2.46134c0.40651,0.63103 0.81303,1.26206 1.21954,1.89308c0.77559,3.65585 1.20512,7.6901 2.75432,11.13125c0.3606,0.80097 1.10342,1.39336 1.44961,2.20067c0.2961,0.69047 0.5567,3.76046 1.64998,4.41178c1.16619,0.69476 2.64351,-0.61908 3.96996,-0.90758c1.82145,-0.39617 3.48251,-1.33074 5.22822,-1.98428c1.10033,-0.41192 2.3852,-0.20047 3.45907,-0.67712c1.03218,-0.45814 1.69173,-1.53405 2.69417,-2.05405c3.94479,-2.04631 8.82531,-2.20959 12.97325,-3.65002c7.96343,-2.76541 15.17128,-7.28389 21.86806,-12.30849c0.86115,-0.40848 1.95718,-0.50696 2.58344,-1.22545c0.26265,-0.30133 -0.86618,-0.15181 -1.10099,-0.47531c-0.71236,-0.98142 -1.21973,-2.11404 -1.61152,-3.26171c-1.20875,-3.54081 -1.85203,-7.09697 -2.85813,-10.6956c-1.97089,-7.04953 -6.99477,-13.47933 -10.05281,-20.11874c-2.78948,-6.05631 -5.46168,-12.20899 -8.15069,-18.31212c-1.16988,-2.65523 -1.68459,-5.64409 -3.29821,-8.05554c-0.53189,-0.79488 -1.25638,-1.42987 -1.98985,-2.05741l-0.87706,0.33612c-3.74524,-0.01772 -8.29609,0.10836 -11.564,1.84974c0,0 -1.34999,0.67499 -2.47655,-0.07291c-0.28697,0.27065 -0.59211,0.5172 -0.93253,0.7169c-0.90455,0.53061 -2.07572,0.39985 -3.03859,0.81534c-0.80748,0.34844 -1.37184,1.16821 -2.20571,1.44765c-1.40287,0.47013 -2.96983,0.28971 -4.37358,0.75719c-1.43324,0.47729 -2.6442,1.47739 -4.04375,2.04592c-1.60847,0.65339 -3.66567,1.08457 -4.51304,2.59984c0,0 -0.23438,0.35157 -0.65497,0.66929c-0.03442,1.19538 -0.09346,2.40337 0.24774,3.51188c0.32887,1.06845 1.22228,1.92566 1.46478,3.01695c0.27418,1.23391 -0.09486,2.53583 0.04815,3.79172c0.47799,4.19751 0.64201,8.38135 0.69721,12.5938c0.79095,-0.0644 1.46234,0.2713 1.46234,0.2713zM157.38786,188.27119c-2.22288,-0.06224 -4.85586,-1.16519 -6.67017,0.12063c-0.52699,0.37348 -0.41268,1.22431 -0.635,1.83076c-1.60584,4.38032 -2.43207,8.65317 -3.80674,13.07708c-0.81862,2.63446 -2.51116,4.97736 -3.10619,7.67114c-1.61652,7.31819 -2.19635,14.99916 -3.48986,22.39583c-0.45682,2.21997 -1.64756,4.2418 -2.13772,6.45464c-0.23459,1.05907 0.16473,2.17541 0.04815,3.25387c-0.48946,4.52775 -1.23924,9.07314 -2.14732,13.59021c-0.33826,1.6826 -1.95876,7.48974 0.40161,8.72031c0.78976,0.41174 1.85432,0.101 2.60986,0.5726c1.1533,0.71988 1.74254,2.15526 2.90081,2.8671c0.68884,0.42334 5.14517,1.54657 6.27972,1.80121c5.71681,1.28307 11.92816,0.64365 17.77003,0.64365c6.23278,0 14.1229,0.28346 18.55798,-4.79097c3.03338,-3.47066 2.19764,-10.89672 2.93794,-15.00102c1.90706,-10.57292 4.89094,-20.44244 4.89094,-31.2544c0,-1.87882 0,-3.75764 0,-5.63646v-0.44746c-1.97299,-1.46403 -3.97602,-2.88959 -6.08917,-4.18355c-0.55091,-0.18052 -0.92592,-0.55958 -1.17237,-0.92424c-0.28083,-0.34655 -0.53738,-0.82375 -0.54321,-1.41417l-0.63121,-2.58893c0.02952,-0.79975 0.31329,-1.63115 0.08854,-2.39923c-0.23781,-0.81269 -1.20336,-1.29228 -1.40911,-2.11368c-0.29751,-1.18767 0.22644,-2.47794 -0.0404,-3.67287c-0.2289,-1.02505 -1.18988,-1.79108 -1.40911,-2.81823c-0.04676,-0.2191 -0.06297,-2.36975 -0.06776,-4.43158c-7.77074,-0.13713 -15.36703,-1.10488 -23.13023,-1.32225zM290.55825,173.63701c0.33335,-1.00004 0.94781,-1.43785 1.54706,-1.60977c0.55408,-1.15205 0.97403,-2.35543 1.17517,-3.63659c0.51054,-3.25193 -0.03228,-7.58989 -0.03228,-10.87247c0,-7.08006 -0.22449,-13.64021 -1.3507,-20.62439c-0.43307,-0.4043 -0.86638,-0.8077 -1.39707,-1.04831v0.00002c-0.94101,-0.42664 -2.04083,-0.33003 -3.05084,-0.54773c-3.49703,-0.75378 -8.25504,-2.13126 -11.33422,-3.83525c-0.92259,-0.51055 -1.40906,-1.59105 -2.26112,-2.2122c-2.65965,-1.93886 -6.83835,-2.57363 -9.66285,-4.10358c-2.67195,-1.44732 -5.02695,-3.4329 -7.69234,-4.89226c-1.47092,-0.80536 -3.1107,-1.31764 -4.4861,-2.27708c-1.08961,-0.76009 -1.72986,-2.05638 -2.81823,-2.81824c-1.29065,-0.90345 -2.91648,-1.23981 -4.22734,-2.11367c-0.78089,-0.52056 -1.1558,-1.54189 -1.96623,-2.01515c-2.06447,-1.20558 -3.41975,-1.12518 -5.39067,-1.06067l-0.95426,0.93404c-6.11785,4.58583 -10.71881,10.15324 -16.87833,14.77204c-2.78485,2.22788 -5.63856,5.04903 -8.52397,7.09735c-3.67337,2.60769 -8.17797,4.39169 -12.25517,6.20514c-0.54485,4.85533 -1.12119,9.70475 -1.51244,14.53739c-0.56538,6.9835 0.04364,14.30325 -0.0086,21.31104c0.16017,0.63623 0.77858,3.60771 1.40017,4.17415c0.72321,0.65903 1.90901,0.62125 2.65233,1.25751c0.93069,0.79664 1.37513,2.04382 2.22984,2.92147c2.91837,2.99671 8.66964,3.82366 12.34899,5.05014c16.41696,5.47246 33.61856,4.1298 50.75228,4.1298c4.05191,0.0104 6.70184,-0.7991 10.50375,-1.9924c0.69294,-0.2175 1.54773,0.04051 2.14729,-0.36937c0.58681,-0.40116 0.58142,-1.33271 1.08147,-1.8379c1.29836,-1.31169 2.92758,-1.48136 3.90801,-3.13125c0.61633,-1.03717 0.7298,-2.31733 1.3168,-3.37137c1.2738,-2.28728 3.07666,-4.45181 4.60604,-6.74411c-0.05821,-0.36239 -0.03004,-0.7855 0.13357,-1.27633zM206.75487,218.5059c2.85287,1.60707 6.08066,2.44285 9.03676,3.85104c2.41681,1.15129 4.45659,3.0524 6.95283,4.01946c10.84533,4.20156 22.77574,7.83225 34.22215,9.75839c4.83374,1.9181 9.10289,3.6176 14.32827,4.14339c2.13597,0.21493 4.30636,-0.22422 6.44028,0.01021c3.95611,0.43463 7.63897,1.3486 11.69714,1.39051c0.03032,0.00032 7.00673,-0.00061 7.02046,-0.00012c0.58997,0.02085 2.35656,0.74973 2.6222,-0.57039c0.14294,-0.71035 -0.2486,-1.4465 -0.17157,-2.16698c0.34814,-3.25626 1.09944,-6.51972 1.40255,-9.80469c0.48105,-5.21338 -0.01217,-10.71782 -0.01217,-15.95848c0,-6.79741 0.03641,-13.44571 -0.68583,-20.12671c-0.11658,-1.07845 0.28348,-2.19496 0.04815,-3.25387c-0.21323,-0.95943 -1.07712,-1.67631 -1.35345,-2.6195c-0.45581,-1.55581 -0.66877,-3.17998 -0.81858,-4.79426c-0.06394,-0.68894 0.48574,-1.44617 0.18178,-2.06772c-0.33648,-0.68808 -2.12523,-1.88425 -3.27456,-2.62879c-1.41789,2.11632 -2.96578,4.16768 -4.2138,6.41969c-0.64131,1.15723 -0.78124,2.56434 -1.50142,3.6742c-1.08859,1.6776 -3.12588,2.50696 -4.54668,3.91433c-0.69955,0.69294 -0.91352,1.84925 -1.73676,2.38945c-1.01466,0.66581 -2.34321,0.64026 -3.48918,1.03975c-4.1976,1.46328 -7.55741,2.22469 -12.0421,2.23494c-17.71837,0 -35.37561,1.26598 -52.36171,-4.39591c-4.60824,-1.53604 -10.51559,-2.57505 -14.17563,-6.15176c-0.36767,-0.3593 -0.63858,-0.80499 -0.90597,-1.2529c-0.71715,0.52764 -1.60336,0.52764 -1.60336,0.52764c-2.42584,0 -4.8862,-0.45373 -7.27737,-0.04511c-1.71641,0.29331 -3.38399,0.94641 -5.08986,1.2683c-0.14311,1.8722 -0.41655,3.75669 0.00464,5.56624c0.2381,1.02295 1.18239,1.7927 1.40912,2.81823c0.24271,1.09781 -0.31254,2.28183 -0.04039,3.37271c0.20497,0.82159 1.18088,1.29823 1.40911,2.11367c0.29095,1.03953 0.05902,2.15815 0.08854,3.23723l0.39218,1.52204c6.24184,3.9135 11.54317,8.90363 18.04422,12.56577zM286.76926,90.76107c-0.72198,-0.87839 -1.78605,-1.48293 -2.35582,-2.4669c-0.48523,-0.83797 -0.19374,-1.9956 -0.70456,-2.81823c-0.62696,-1.00967 -1.79746,-1.56709 -2.57609,-2.46501c-2.80159,-3.23082 -4.90123,-7.21012 -7.6261,-10.42812c-1.11949,-1.3221 -2.77801,-2.08965 -4.003,-3.31465c-3.42102,-2.34581 -4.38185,-5.78363 -7.22837,-8.62028c-1.67972,-1.6739 -4.00137,-2.60693 -5.68483,-4.27707c-2.30166,-2.28347 -3.76293,-4.61326 -5.79084,-7.22508c-2.78114,-3.58194 -6.76381,-6.32012 -9.75611,-9.73503c-3.46899,-3.95893 -6.12704,-7.94117 -10.47841,-10.60142l-0.27899,1.00661c-2.14938,2.25073 -4.98994,5.29881 -6.23023,8.23433c-0.40815,0.96601 -0.29192,2.12987 -0.81534,3.03859c-1.47138,2.55448 -3.49037,4.15875 -4.87134,6.93186c-1.50128,2.98023 -3.44832,5.47516 -4.9319,8.45469c-0.3959,0.79511 -2.91296,5.89819 -3.28653,6.28619c-0.72846,0.75661 -2.06643,0.67569 -2.81823,1.40912c-0.61739,0.60229 -0.59954,1.62942 -1.05026,2.36479c-0.65274,1.06498 -1.49135,2.00424 -2.2403,3.0039c-0.40121,0.53551 -0.80761,1.07402 -1.21937,1.6136c2.90257,-1.1947 5.71813,-2.69698 8.59692,-3.89619c4.71582,-1.96446 6.65125,-3.10154 11.75918,-3.12653c7.31936,0.22163 12.16304,5.92215 18.62533,8.6684c2.86359,1.21693 6.37281,1.57919 9.16829,2.82225c1.14163,0.50764 1.93134,1.60814 3.02262,2.21653c4.00571,2.23319 8.79171,3.16917 13.02915,4.7666c2.46841,0.93054 4.62777,2.56378 7.08012,3.53586c2.82375,1.11929 5.88942,1.60812 8.63929,2.89832c1.55547,0.7298 3.04225,1.60799 4.57181,2.39097c-0.1811,-0.22284 -0.36313,-0.4455 -0.5461,-0.66811zM187.78136,88.63412c-1.07907,1.21845 -2.73382,2.41647 -4.32266,3.48966c-0.04567,1.28139 -1.26717,2.01429 -1.26717,2.01429c-4.61501,2.76792 -7.78835,6.26688 -12.11733,9.42419c-4.44237,3.24002 -9.05688,6.72531 -12.56247,11.10733c-2.01045,2.51308 -3.00745,6.12132 -5.02822,8.57067c-1.51143,1.83198 -4.48945,3.47059 -5.11792,6.11553c-1.10568,4.65327 1.10606,8.41743 3.00426,12.41674c3.83769,2.37749 6.13545,5.83326 11.05418,6.21225c5.82268,0.44864 9.17932,-1.47463 14.34761,-3.36489c4.54918,-1.66383 8.12488,-3.17417 12.38533,-5.49804c2.03232,-1.10853 4.09282,-2.11454 6.14049,-3.11882c0.42449,-3.88942 0.8037,-7.78139 1.02113,-11.67069c0.35077,-6.2743 0.08766,-12.65245 0.01383,-18.9651l-0.21358,0.42715c0,0 -1.11803,2.23607 -3.35411,1.11804c-2.23607,-1.11804 -1.11803,-3.35411 -1.11803,-3.35411l0.70455,-1.40911c1.02355,-2.02084 0.91782,-4.7493 2.58198,-6.28619c2.97087,-2.74367 10.01733,-1.43679 13.74524,-1.43679c11.99693,0 23.85155,1.34013 35.80227,1.47599c1.40911,0.70456 2.69345,1.75426 4.22735,2.11367c3.14635,0.73723 6.47762,0.17646 9.67172,0.66709c9.74791,1.49732 20.24892,1.40364 29.05482,6.64934c3.55012,2.11481 3.1994,4.74682 5.55129,7.55335c0.66062,0.78833 1.99266,0.9596 2.44367,1.88397c0.54122,1.10927 0.09362,2.47186 0.27708,3.69242c0.76643,5.0991 1.79246,10.07576 2.05865,15.22031c0.22657,0.08785 0.45852,0.16179 0.69744,0.21783c2.24911,0 7.58058,1.97183 9.5846,0.39856c0.70535,-0.55373 0.97536,-1.50579 1.49654,-2.23552c2.57005,-3.59849 4.64785,-6.86974 5.94466,-11.18985c0.52834,-1.76005 0.85931,-5.49712 1.44079,-7.14455c0.26373,-0.74716 1.1949,-1.21849 1.2738,-2.00689c0.05473,-0.54685 -0.56703,-0.95025 -0.93722,-1.35645c-1.78676,-1.96058 -2.76218,-3.0393 -4.86318,-4.23141c-3.25468,-1.84671 -6.60496,-2.15605 -10.05507,-3.29756c-4.66829,-1.54456 -8.83153,-4.10994 -13.5082,-5.67769c-2.51114,-1.00948 -4.82355,-2.4578 -7.26895,-3.6175c-2.62377,-1.24429 -5.57169,-1.66527 -8.27009,-2.73814c-2.42857,-0.96559 -4.56216,-2.59688 -7.01104,-3.50973c-4.49275,-1.67472 -9.49522,-2.74478 -13.74404,-5.0972c-0.9617,-0.53247 -1.60922,-1.56457 -2.61384,-2.01082c-2.77717,-1.23359 -6.29517,-1.58183 -9.15021,-2.81421c-5.24594,-2.26442 -10.7617,-8.54022 -16.60256,-8.24098c-4.64714,-0.02706 -5.40165,0.89364 -9.86713,2.75472c-2.47953,1.03339 -4.93388,2.13244 -7.34045,3.32591c-1.95576,0.9699 -4.32422,0.96742 -6.22018,2.04955c-2.08509,1.19009 -3.47358,3.33177 -5.39258,4.77446c-1.19062,0.8951 -2.60703,1.68795 -3.94814,2.54256c-1.05242,1.18374 -1.56596,2.85643 -2.6289,4.05666zM245.62982,106.77709c0.92962,0.49762 1.38379,1.62728 2.26112,2.21219c1.31082,0.87392 2.93669,1.21022 4.22734,2.11367c1.08837,0.76186 1.7312,2.05446 2.81823,2.81823c1.20604,0.84738 2.67345,1.24658 3.96859,1.95026c2.66391,1.44735 5.01216,3.43047 7.67374,4.8821c3.23766,1.76582 7.15231,2.30338 10.19896,4.44056c0.7683,0.53896 1.14675,1.55774 1.96623,2.01515c3.91982,2.18793 8.78738,2.20763 12.90072,3.71315c-0.21146,-2.98806 -0.59242,-5.99731 -1.1624,-8.82758c-0.20471,-1.0165 -0.64233,-1.98938 -0.7382,-3.02184c-0.06052,-0.65176 0.58063,-1.36412 0.27708,-1.94405c-0.31126,-0.59464 -1.35539,-0.41748 -1.78368,-0.93425c-1.34042,-1.61732 -1.50756,-3.99494 -2.81823,-5.63647c-0.96364,-1.2069 -2.67049,-1.56502 -4.08185,-2.19214c-3.09751,-1.37635 -6.02519,-1.98677 -9.32996,-2.64738c-6.57882,-1.31508 -13.42012,-2.28164 -20.1191,-2.77597c-1.77165,-0.13073 -3.59686,0.33352 -5.32906,-0.06059c-1.53618,-0.34951 -2.81823,-1.40911 -4.22735,-2.11367c-11.52796,0.15403 -23.06491,-1.34224 -34.6535,-1.34224c-2.95141,0 -5.90241,-0.00087 -8.85379,-0.01873c-0.45198,-0.00274 -1.07856,-0.36583 -1.35592,-0.00894c-0.15392,0.19805 -0.17611,0.44173 -0.15817,0.70146c0.15558,-0.02425 0.32329,-0.03733 0.50408,-0.03733c2.5,0 2.5,2.5 2.5,2.5c0,7.31586 0.4052,14.75066 -0.00391,22.04913c-0.16243,2.8976 -0.41208,5.79691 -0.70296,8.69562c1.0948,-0.59202 2.17491,-1.21007 3.23356,-1.87083c1.73222,-1.08119 3.83168,-1.52689 5.48901,-2.71971c2.84098,-2.04471 5.62529,-4.7857 8.38541,-6.9938c6.16431,-4.62405 10.79011,-10.20396 16.94044,-14.81938l0.74572,-0.76893c0.30863,-0.51585 0.78082,-0.79832 1.2054,-0.95298c0.40324,-0.1879 0.92671,-0.32085 1.49914,-0.1851c3.58894,-0.00078 4.68883,-0.27218 8.52332,1.78039z" fill="#000000" stroke-width="0.5"/><path d="M306.68223,205.29097c0,0 -0.67147,-0.33543 -1.46242,-0.27103c-0.0552,-4.21245 -0.21206,-8.41085 -0.69005,-12.60836c-0.14301,-1.25589 0.22841,-2.56088 -0.04577,-3.79479c-0.2425,-1.09129 -1.13485,-1.94972 -1.46372,-3.01817c-0.3412,-1.10851 -0.28029,-2.31848 -0.24587,-3.51386c0.42059,-0.31772 0.65571,-0.67002 0.65571,-0.67002c0.84737,-1.51527 2.90893,-1.95018 4.5174,-2.60357c1.39955,-0.56853 2.61475,-1.57152 4.04799,-2.04881c1.40375,-0.46748 2.97502,-0.2894 4.37789,-0.75953c0.83387,-0.27944 1.40104,-1.10047 2.20852,-1.44891c0.96287,-0.41549 2.13752,-0.286 3.04206,-0.81661c0.34042,-0.1997 0.6468,-0.44664 0.93377,-0.71729c1.12656,0.7479 2.47926,0.07219 2.47926,0.07219c3.26791,-1.74138 7.8325,-1.86874 11.57774,-1.85102l0.87806,-0.33607c0.73347,0.62754 1.46052,1.26276 1.99241,2.05764c1.61362,2.41145 2.13446,5.40142 3.30434,8.05665c2.68901,6.10313 5.38648,12.27098 8.17597,18.32729c3.05804,6.63941 8.09362,13.11292 10.06451,20.16245c1.0061,3.59863 1.64413,7.16881 2.85288,10.70962c0.39179,1.14767 0.89771,2.28272 1.61007,3.26414c0.23481,0.3235 1.36377,0.17377 1.10112,0.4751c-0.62626,0.71849 -1.72415,0.81973 -2.58531,1.22821c-6.69678,5.0246 -13.93432,9.56257 -21.89775,12.32798c-4.14794,1.44043 -9.04665,1.60434 -12.99144,3.65065c-1.00244,0.52 -1.66489,1.59539 -2.69707,2.05353c-1.07387,0.47665 -2.36253,0.26425 -3.46286,0.67617c-1.74571,0.65354 -3.41143,1.58648 -5.23288,1.98265c-1.32645,0.2885 -2.80698,1.60091 -3.97317,0.90615c-1.09328,-0.65132 -1.35726,-3.72313 -1.65336,-4.4136c-0.34619,-0.80731 -1.09132,-1.40115 -1.45192,-2.20212c-1.5492,-3.44115 -1.98759,-7.4829 -2.76318,-11.13874c-0.40651,-0.63102 -0.81504,-1.26434 -1.22156,-1.89537c-0.00993,-0.27957 -0.15775,-2.32909 -2.27608,-2.46499c0.04963,-0.49605 0.0977,-0.99348 0.14734,-1.48944c0.33951,-3.3919 0.51346,-6.77221 0.60796,-10.15118c4.05244,0.99357 10.03849,2.70199 12.55502,-1.73236c0.97438,-1.71694 -0.77394,-3.90612 -1.46843,-5.75408c-1.55657,-4.14188 -5.81369,-8.27957 -9.54717,-10.25052z" data-paper-data="{&quot;noHover&quot;:false,&quot;origItem&quot;:[&quot;Path&quot;,{&quot;applyMatrix&quot;:true,&quot;segments&quot;:[[[613.46007,410.61143],[0,0],[7.46696,3.9419]],[[632.55849,431.07433],[-3.11314,-8.28376],[1.38898,3.69592]],[[635.48749,442.55139],[1.94876,-3.43388],[-5.03306,8.8687]],[[610.38125,446.02643],[8.10488,1.98714],[-0.189,6.75794]],[[609.15407,466.30441],[0.67902,-6.7838],[-0.09928,0.99192]],[[608.85761,469.28061],[0.09926,-0.9921],[4.23666,0.2718]],[[613.40427,474.20329],[-0.01986,-0.55914],[0.81302,1.26206]],[[615.84335,477.98945],[-0.81302,-1.26204],[1.55118,7.3117]],[[621.35199,500.25195],[-3.0984,-6.8823],[0.7212,1.60194]],[[624.25121,504.65329],[-0.69238,-1.61462],[0.5922,1.38094]],[[627.55117,513.47685],[-2.18656,-1.30264],[2.33238,1.38952]],[[635.49109,511.66169],[-2.6529,0.577],[3.6429,-0.79234]],[[645.94753,507.69313],[-3.49142,1.30708],[2.20066,-0.82384]],[[652.86567,506.33889],[-2.14774,0.9533],[2.06436,-0.91628]],[[658.25401,502.23079],[-2.00488,1.04],[7.88958,-4.09262]],[[684.20051,494.93075],[-8.29588,2.88086],[15.92686,-5.53082]],[[727.93663,470.31377],[-13.39356,10.0492],[1.7223,-0.81696]],[[733.10351,467.86287],[-1.25252,1.43698],[0.5253,-0.60266]],[[730.90153,466.91225],[0.46962,0.647],[-1.42472,-1.96284]],[[727.67849,460.38883],[0.78358,2.29534],[-2.4175,-7.08162]],[[721.96223,438.99763],[2.0122,7.19726],[-3.94178,-14.09906]],[[701.85661,398.76015],[6.11608,13.27882],[-5.57896,-12.11262]],[[685.55523,362.13591],[5.37802,12.20626],[-2.33976,-5.31046]],[[678.95881,346.02483],[3.22724,4.8229],[-1.06378,-1.58976]],[[674.97911,341.91001],[1.46694,1.25508],[0,0]],[[673.22499,342.58225],[0,0],[-7.49048,-0.03544]],[[650.09699,346.28173],[6.53582,-3.48276],[0,0]],[[645.14389,346.13591],[2.25312,1.4958],[-0.57394,0.5413]],[[643.27883,347.56971],[0.68084,-0.3994],[-1.8091,1.06122]],[[637.20165,349.20039],[1.92574,-0.83098],[-1.61496,0.69688]],[[632.79023,352.09569],[1.66774,-0.55888],[-2.80574,0.94026]],[[624.04307,353.61007],[2.8075,-0.93496],[-2.86648,0.95458]],[[615.95557,357.70191],[2.7991,-1.13706],[-3.21694,1.30678]],[[606.92949,362.90159],[1.69474,-3.03054],[0,0]],[[605.61955,364.24017],[0.84118,-0.63544],[-0.06884,2.39076]],[[606.11503,371.26393],[-0.6824,-2.21702],[0.65774,2.1369]],[[609.04459,377.29783],[-0.485,-2.18258],[0.54836,2.46782]],[[609.14089,384.88127],[-0.28602,-2.51178],[0.95598,8.39502]],[[610.53531,410.06887],[-0.1104,-8.4249],[1.5819,-0.1288]],[613.45999,410.61147]],&quot;closed&quot;:true,&quot;fillColor&quot;:[0,0,0,1]}]}" fill="#ffeaab" stroke-width="0.5"/><path d="M157.38091,188.22167c7.7632,0.21737 15.38632,1.18875 23.15706,1.32588c0.00479,2.06183 0.02309,4.21344 0.06985,4.43254c0.21923,1.02715 1.18314,1.79474 1.41204,2.81978c0.26684,1.19493 -0.25481,2.4866 0.0427,3.67427c0.20575,0.8214 1.17414,1.30297 1.41195,2.11566c0.22475,0.76808 -0.05732,1.60082 -0.08684,2.40057l0.63385,2.59125c0.00583,0.59042 0.26402,1.06924 0.54485,1.4158c0.24645,0.36466 0.62313,0.74554 1.17404,0.92606c2.11315,1.29396 4.12249,2.72861 6.09548,4.19264l0.00029,0.448c0,1.87882 0.00324,3.7653 0.00324,5.64412c0,10.81196 -2.99464,20.73096 -4.9017,31.30389c-0.7403,4.1043 0.08323,11.54001 -2.95015,15.01067c-4.43508,5.07443 -12.34708,4.79734 -18.57986,4.79734c-5.84187,0 -12.0736,0.63624 -17.79041,-0.64683c-1.13455,-0.25464 -5.59747,-1.38093 -6.28631,-1.80427c-1.15827,-0.71184 -1.75132,-2.14957 -2.90462,-2.86945c-0.75554,-0.4716 -1.82233,-0.16247 -2.61209,-0.57421c-2.36037,-1.23057 -0.7453,-7.04253 -0.40704,-8.72512c0.90808,-4.51707 1.6494,-9.07409 2.13886,-13.60184c0.11658,-1.07846 -0.28494,-2.19958 -0.05035,-3.25865c0.49016,-2.21284 1.67798,-4.24527 2.13479,-6.46524c1.29351,-7.39667 1.88611,-15.11961 3.50263,-22.4378c0.59503,-2.69378 2.29713,-5.04468 3.11575,-7.67914c1.37467,-4.42391 2.21215,-8.70214 3.81799,-13.08246c0.22232,-0.60645 0.10932,-1.4577 0.63631,-1.83118c1.81431,-1.28582 4.45482,-0.18453 6.6777,-0.12229z" data-paper-data="{&quot;noHover&quot;:false,&quot;origItem&quot;:[&quot;Path&quot;,{&quot;applyMatrix&quot;:true,&quot;segments&quot;:[[[314.77571,376.54237],[0,0],[-4.44576,-0.12448]],[[301.43537,376.78363],[3.62862,-2.57164],[-1.05398,0.74696]],[[300.16537,380.44515],[0.44464,-1.2129],[-3.21168,8.76064]],[[292.55189,406.59931],[2.74934,-8.84782],[-1.63724,5.26892]],[[286.33951,421.94159],[1.19006,-5.38756],[-3.23304,14.63638]],[[279.35979,466.73325],[2.58702,-14.79334],[-0.91364,4.43994]],[[275.08435,479.64253],[0.98032,-4.42568],[-0.46918,2.11814]],[[275.18065,486.15027],[0.23316,-2.15692],[-0.97892,9.0555]],[[270.88601,513.33069],[1.81616,-9.03414],[-0.67652,3.3652]],[[271.68923,530.77131],[-4.72074,-2.46114],[1.57952,0.82348]],[[276.90895,531.91651],[-1.51108,-0.9432],[2.3066,1.43976]],[[282.71057,537.65071],[-2.31654,-1.42368],[1.37768,0.84668]],[[295.27001,541.25313],[-2.2691,-0.50928],[11.43362,2.56614]],[[330.81007,542.54043],[-11.68374,0],[12.46556,0]],[[367.92603,532.95849],[-8.87016,10.14886],[6.06676,-6.94132]],[[373.80191,502.95645],[-1.4806,8.2086],[3.81412,-21.14584]],[[383.58379,440.44765],[0,21.62392],[0,-3.75764]],[[383.58379,429.17473],[0,3.75764],[0,0]],[[383.58379,428.27981],[0,0],[-3.94598,-2.92806]],[[371.40545,419.91271],[4.2263,2.58792],[-1.10182,-0.36104]],[[369.06071,418.06423],[0.4929,0.72932],[-0.56166,-0.6931]],[[367.97429,415.23589],[0.01166,1.18084],[0,0]],[[366.71187,410.05803],[0,0],[0.05904,-1.5995]],[[366.88895,405.25957],[0.4495,1.53616],[-0.47562,-1.62538]],[[364.07073,401.03221],[0.4115,1.6428],[-0.59502,-2.37534]],[[363.98993,393.68647],[0.53368,2.38986],[-0.4578,-2.0501]],[[361.17171,388.05001],[0.43846,2.0543],[-0.09352,-0.4382]],[[361.03619,379.18685],[0.00958,4.12366],[-15.54148,-0.27426]],[[314.77573,376.54235],[15.5264,0.43474],[0,0]]],&quot;closed&quot;:true,&quot;fillColor&quot;:[0,0,0,1]}]}" fill="#ffeaab" stroke-width="0.5"/><path d="M206.70625,218.51763c-6.50105,-3.66214 -11.80365,-8.66755 -18.04549,-12.58105l-0.39207,-1.52339c-0.02952,-1.07908 0.20278,-2.20058 -0.08817,-3.24011c-0.22823,-0.81544 -1.20386,-1.2937 -1.40883,-2.11528c-0.27215,-1.09088 0.28373,-2.2777 0.04102,-3.37552c-0.22673,-1.02553 -1.1705,-1.79721 -1.4086,-2.82016c-0.42119,-1.80955 -0.14634,-3.69814 -0.00323,-5.57033c1.70587,-0.32189 3.37447,-0.97743 5.09088,-1.27074c2.39117,-0.40862 4.85281,0.04249 7.27865,0.04249c0,0 0.88679,-0.00107 1.60394,-0.52871c0.26739,0.44791 0.62596,0.94171 0.99363,1.30101c3.66004,3.57671 9.48039,4.56645 14.08863,6.10249c16.9861,5.66189 34.73074,4.39841 52.44911,4.39841c4.48469,-0.01025 7.84641,-0.7675 12.04402,-2.23078c1.14597,-0.39949 2.38175,-0.33662 3.39641,-1.00243c0.82324,-0.5402 1.03789,-1.6949 1.73744,-2.38783c1.4208,-1.40737 3.45881,-2.23515 4.5474,-3.91276c0.72018,-1.10986 0.86124,-2.51477 1.50254,-3.672c1.24802,-2.25201 2.88229,-4.35367 4.30018,-6.46999c1.14933,0.74454 2.93968,1.94346 3.27616,2.63154c0.30396,0.62155 -0.24507,1.38004 -0.18113,2.06898c0.14981,1.61428 0.36437,3.24199 0.82018,4.7978c0.27633,0.94319 1.14109,1.66235 1.35432,2.62178c0.23533,1.05891 -0.16394,2.17788 -0.04736,3.25633c0.72224,6.681 0.68779,13.3464 0.68779,20.14381c0,5.24066 0.49069,10.75811 0.00964,15.97149c-0.30311,3.28497 -1.05743,6.55555 -1.40557,9.81181c-0.07703,0.72048 0.31383,1.45789 0.17089,2.16824c-0.26564,1.32012 -2.03294,0.59247 -2.62291,0.57162c-0.01373,-0.00049 -6.99185,0.00313 -7.02218,0.00281c-4.05817,-0.04191 -7.74465,-0.95122 -11.70076,-1.38585c-2.13392,-0.23443 -4.30784,0.20838 -6.44381,-0.00655c-5.22538,-0.52579 -9.50504,-2.21777 -14.33878,-4.13587c-11.44641,-1.92614 -23.439,-5.56913 -34.28433,-9.77069c-2.49624,-0.96706 -4.54278,-2.87892 -6.95959,-4.03021c-2.9561,-1.40819 -6.18714,-2.25329 -9.04001,-3.86035z" data-paper-data="{&quot;noHover&quot;:false,&quot;origItem&quot;:[&quot;Path&quot;,{&quot;applyMatrix&quot;:true,&quot;segments&quot;:[[[413.50973,437.01179],[0,0],[5.70574,3.21414]],[[431.58325,444.71387],[-5.9122,-2.81638],[4.83362,2.30258]],[[445.48891,452.75279],[-4.99248,-1.93412],[21.69066,8.40312]],[[513.93321,472.26957],[-22.89282,-3.85228],[9.66748,3.8362]],[[542.58975,480.55635],[-10.45076,-1.05158],[4.27194,0.42986]],[[555.47031,480.57677],[-4.26784,-0.46886],[7.91222,0.86926]],[[578.86459,483.35779],[-8.11634,-0.08382],[0.06064,0.00064]],[[592.90551,483.35755],[-0.02746,-0.00098],[1.17994,0.0417]],[[598.14991,482.21677],[-0.53128,2.64024],[0.28588,-1.4207]],[[597.80677,477.88281],[-0.15406,1.44096],[0.69628,-6.51252]],[[600.61187,458.27343],[-0.60622,6.56994],[0.9621,-10.42676]],[[600.58753,426.35647],[0,10.48132],[0,-13.59482]],[[599.21587,386.10305],[1.44448,13.362],[-0.23316,-2.1569]],[[599.31217,379.59531],[0.47066,2.11782],[-0.42646,-1.91886]],[[596.60527,374.35631],[0.55266,1.88638],[-0.91162,-3.11162]],[[594.96811,364.76779],[0.29962,3.22856],[-0.12788,-1.37788]],[[595.33167,360.63235],[0.60792,1.2431],[-0.67296,-1.37616]],[[588.78255,355.37477],[2.29866,1.48908],[-2.83578,4.23264]],[[580.35495,368.21415],[2.49604,-4.50402],[-1.28262,2.31446]],[[577.35211,375.56255],[1.44036,-2.21972],[-2.17718,3.3552]],[[568.25875,383.39121],[2.8416,-2.81474],[-1.3991,1.38588]],[[564.78523,388.17011],[1.64648,-1.0804],[-2.02932,1.33162]],[[557.80687,390.24961],[2.29194,-0.79898],[-8.3952,2.92656]],[[533.72267,394.71949],[8.96938,-0.0205],[-35.43674,0]],[[428.99925,385.92767],[33.9722,11.32378],[-9.21648,-3.07208]],[[400.64799,373.62415],[7.32008,7.15342],[-0.73534,-0.7186]],[[398.83605,371.11835],[0.53478,0.89582],[-1.4343,1.05528]],[[395.62933,372.17363],[0,0],[-4.85168,0]],[[381.07459,372.08341],[4.78234,-0.81724],[-3.43282,0.58662]],[[370.89487,374.62001],[3.41174,-0.64378],[-0.28622,3.7444]],[[370.90415,385.75249],[-0.84238,-3.6191],[0.4762,2.0459]],[[373.72239,391.38895],[-0.45346,-2.05106],[0.48542,2.19562]],[[373.64161,398.13437],[-0.5443,-2.18176],[0.40994,1.64318]],[[376.45983,402.36171],[-0.45646,-1.63088],[0.5819,2.07906]],[[376.63691,408.83617],[-0.05904,-2.15816],[0,0]],[[377.42127,411.88025],[0,0],[12.48368,7.827]],[[413.50971,437.01179],[-13.0021,-7.32428],[0,0]]],&quot;closed&quot;:true,&quot;fillColor&quot;:[0,0,0,1]}]}" fill="#7aff69" stroke-width="0.5"/><path d="M270.75205,270.24194c0,0 0.00029,0.47851 0.20669,1.01373c-0.12842,0.29934 -0.20655,0.66781 -0.20655,1.10935c0,1.77683 1.26148,2.2991 1.99208,2.44778c-0.14252,2.39018 -0.3572,4.77268 -0.58225,7.19776c-0.19961,2.15097 0.82273,2.81417 -0.69588,4.12179c-5.46115,4.70237 -12.9193,4.15099 -19.63494,2.84609c-1.22002,-0.23705 -4.79266,-0.43409 -5.15555,-2.50816c-0.82227,-4.69968 0.08986,-10.73794 0.08986,-15.52039c0,-4.67796 -1.23319,-11.80245 0.94946,-16.17874c0.21212,-0.42531 0.82767,-0.47769 1.2612,-0.67244c3.93008,-1.76548 6.48663,-0.84549 10.53405,-0.44311c1.3707,0.13627 2.78481,-0.23784 4.14367,-0.01227c1.39793,0.23206 2.6485,1.0842 4.03611,1.3716c1.0237,0.21203 2.19033,-0.31739 3.14039,0.11885c0.39057,0.17934 -0.07123,0.85813 -0.07945,1.28783c-0.025,1.30707 -0.00984,2.61944 -0.01313,3.92675c-0.00827,3.28786 0.01422,6.60571 0.01422,9.89358z" data-paper-data="{&quot;noHover&quot;:false,&quot;origItem&quot;:[&quot;Path&quot;,{&quot;applyMatrix&quot;:true,&quot;segments&quot;:[[[270.70235,270.24742],[0,0],[0,-3.28787]],[[270.70235,260.38361],[-0.00827,3.28786],[0.00329,-1.30731]],[[270.72108,256.46172],[-0.025,1.30707],[0.00822,-0.4297]],[[270.80197,255.17493],[0.39057,0.17934],[-0.95006,-0.43624]],[[267.66781,255.05975],[1.0237,0.21203],[-1.38761,-0.2874]],[[263.64264,253.69207],[1.39793,0.23206],[-1.35886,-0.22557]],[[259.51029,253.70562],[1.3707,0.13627],[-4.04742,-0.40238]],[[249.00214,254.14146],[3.93008,-1.76548],[-0.43353,0.19475]],[[247.74386,254.81199],[0.21212,-0.42531],[-2.18265,4.37629]],[[246.81548,270.95197],[0,-4.67796],[0,4.78245]],[[246.70821,286.43234],[-0.82227,-4.69968],[0.36289,2.07407]],[[251.85135,288.93269],[-1.22002,-0.23705],[6.71564,1.3049]],[[271.43458,286.09359],[-5.46115,4.70237],[1.51861,-1.30762]],[[272.12363,281.97855],[-0.19961,2.15097],[0.22505,-2.42508]],[[272.6958,274.80057],[-0.14252,2.39018],[-0.7306,-0.14868]],[[270.70235,272.36108],[0,1.77683],[0,-0.44154]],[[270.90875,271.25664],[-0.12842,0.29934],[-0.2064,-0.53522]],[270.70235,270.24741]],&quot;closed&quot;:true,&quot;fillColor&quot;:[0,0,0,1]}]}" fill="#00f3ff" stroke-width="0.5"/><path d="M230.71848,288.85195c0.47504,0.39187 0.89421,0.84478 1.20982,1.35952c0.31022,0.25127 7.161,5.8229 7.56106,6.07306c1.15988,0.7253 2.71333,0.80205 3.73828,1.70806c1.1061,0.97775 0.75684,3.49058 0.7513,4.65972c-0.02239,4.72279 -0.62468,9.74183 -1.39714,14.42724c-0.19513,1.18359 -0.07208,2.5028 -0.67182,3.54168c-0.23095,0.40004 -0.92511,0.02161 -1.38703,0.02176c-2.24672,0.00075 -4.50337,-0.01087 -6.75008,-0.01087c-5.71885,0 -11.76908,0.59324 -17.45117,0.01099c-3.84117,-0.39361 -7.4601,-1.75266 -11.19541,-2.62947c-1.58641,-0.52108 -0.63262,-6.63473 -0.63262,-8.29828c0,-6.33545 0.93667,-12.37426 1.38791,-18.68325c0.06436,-0.89979 -0.55004,-1.89816 -0.14742,-2.70541c0.1994,-0.39981 0.76079,0.52676 1.2028,0.59189c1.85875,0.2739 3.76494,-0.00658 5.64376,-0.00658c4.33886,0 8.7122,-0.00953 13.05106,-0.00953c0.07275,0.71565 0.4518,1.57049 1.69975,1.98647c2.37171,0.79057 3.17015,-1.57859 3.17015,-1.57859l0.09389,-0.43722c0.03858,-0.00596 0.07987,-0.01288 0.1229,-0.0212z" data-paper-data="{&quot;noHover&quot;:false,&quot;origItem&quot;:[&quot;Path&quot;,{&quot;applyMatrix&quot;:true,&quot;segments&quot;:[[[230.69909,288.89804],[0,0],[-0.04303,0.00832]],[[230.57648,288.91936],[0.03858,-0.00596],[0,0]],[230.48237,289.35649],[[227.32009,290.93763],[2.37171,0.79057],[-1.24795,-0.41598]],[[225.62697,288.95225],[0.07275,0.71565],[-4.33886,0]],[[212.61039,288.95225],[4.33886,0],[-1.87882,0]],[[206.97393,288.95225],[1.85875,0.2739],[-0.44201,-0.06513]],[[205.77164,288.3598],[0.1994,-0.39981],[-0.40262,0.80725]],[[205.92174,291.0619],[0.06436,-0.89979],[-0.45124,6.30899]],[[204.54203,309.70266],[0,-6.33545],[0,1.66355]],[[205.16709,317.98474],[-1.58641,-0.52108],[3.73531,0.87681]],[[216.34351,320.59812],[-3.84117,-0.39361],[5.68209,0.58225]],[[233.74713,320.58926],[-5.71885,0],[2.24671,0]],[[240.48725,320.60799],[-2.24672,0.00075],[0.46192,-0.00015]],[[241.87287,320.58773],[-0.23095,0.40004],[0.59974,-1.03888]],[[242.54042,317.05149],[-0.19513,1.18359],[0.77246,-4.68541]],[[243.92917,302.65709],[-0.02239,4.72279],[0.00554,-1.16914]],[[243.18035,298.00884],[1.1061,0.97775],[-1.02495,-0.90601]],[[239.44533,296.30823],[1.15988,0.7253],[-0.40006,-0.25016]],[[231.90439,290.25539],[0.31022,0.25127],[-0.31561,-0.51474]],[[230.69911,288.89805],[0.47504,0.39187],[0,0]]],&quot;closed&quot;:true,&quot;fillColor&quot;:[0,0,0,1]}]}" fill="#00f3ff" stroke-width="0.5"/><path d="M290.54776,135.82934c0.53069,0.24061 0.96446,0.64542 1.39753,1.04972c1.12621,6.98418 1.35249,13.56556 1.35249,20.64562c0,3.28258 0.54031,7.63089 0.02977,10.88282c-0.80048,5.09872 -5.07365,8.97893 -7.46894,13.28c-0.587,1.05404 -0.70259,2.33683 -1.31892,3.374c-0.98043,1.64989 -2.61298,1.82305 -3.91134,3.13474c-0.50005,0.50519 -0.49612,1.43809 -1.08293,1.83925c-0.59956,0.40988 -1.45575,0.15305 -2.14869,0.37055c-3.80191,1.1933 -6.46033,2.00841 -10.51224,1.99801c-17.13372,0 -34.38948,1.33756 -50.80644,-4.1349c-3.67935,-1.22648 -9.43926,-2.0622 -12.35763,-5.05891c-0.85471,-0.87765 -1.30118,-2.12768 -2.23187,-2.92432c-0.74332,-0.63626 -1.93035,-0.60045 -2.65356,-1.25948c-0.62159,-0.56644 -1.24193,-3.54146 -1.4021,-4.17769c0.05224,-7.00779 -0.56187,-14.34725 0.00351,-21.33075c0.39125,-4.83264 0.96919,-9.69722 1.51404,-14.55255c4.0772,-1.81345 8.58616,-3.60847 12.25953,-6.21616c2.88541,-2.04832 5.74772,-4.88101 8.53257,-7.10889c6.15952,-4.6188 10.7853,-10.19976 16.90315,-14.78559l0.95558,-0.9343c1.97092,-0.06451 3.3325,-0.14569 5.39697,1.05989c0.81043,0.47326 1.18776,1.49451 1.96865,2.01507c1.31086,0.87386 2.94249,1.21049 4.23314,2.11395c1.08837,0.76186 1.73315,2.05884 2.82276,2.81893c1.3754,0.95944 3.02229,1.4737 4.49321,2.27905c2.66539,1.45936 5.03275,3.45145 7.7047,4.89878c2.8245,1.52995 7.01353,2.17472 9.67318,4.11358c0.85206,0.62115 1.341,1.70516 2.26359,2.21571c3.07918,1.70399 7.84189,3.09081 11.33892,3.84459c1.01001,0.2177 2.11039,0.12266 3.0514,0.5493z" data-paper-data="{&quot;noHover&quot;:false,&quot;origItem&quot;:[&quot;Path&quot;,{&quot;applyMatrix&quot;:true,&quot;segments&quot;:[[[581.00085,271.69099],[0,0],[-1.88202,-0.85328]],[[574.89917,270.59553],[2.02002,0.4354],[-6.99406,-1.50756]],[[552.23073,262.92503],[6.15836,3.40798],[-1.84518,-1.0211]],[[547.70849,258.50063],[1.70412,1.2423],[-5.3193,-3.87772]],[[528.38279,250.29347],[5.649,3.0599],[-5.3439,-2.89464]],[[512.99811,240.50895],[5.33078,2.91872],[-2.94184,-1.61072]],[[504.02591,235.95479],[2.7508,1.91888],[-2.17922,-1.52018]],[[498.38945,230.31831],[2.17674,1.52372],[-2.5813,-1.8069]],[[489.93477,226.09097],[2.62172,1.74772],[-1.56178,-1.04112]],[[486.00231,222.06067],[1.62086,0.94652],[-4.12894,-2.41116]],[[475.22097,219.93933],[3.94184,-0.12902],[0,0]],[[473.31245,221.80741],[0,0],[-12.2357,9.17166]],[[439.55579,251.35149],[12.31904,-9.2376],[-5.5697,4.45576]],[[422.50785,265.54619],[5.77082,-4.09664],[-7.34674,5.21538]],[[397.99751,277.95647],[8.1544,-3.6269],[-1.0897,9.71066]],[[394.97263,307.03125],[0.7825,-9.66528],[-1.13076,13.967]],[[394.95543,349.65333],[0.10448,-14.01558],[0.32034,1.27246]],[[397.75577,358.00163],[-1.24318,-1.13288],[1.44642,1.31806]],[[403.06043,360.51665],[-1.48664,-1.27252],[1.86138,1.59328]],[[407.52011,366.35959],[-1.70942,-1.7553],[5.83674,5.99342]],[[432.21809,376.45987],[-7.3587,-2.45296],[32.83392,10.94492]],[[533.72265,384.71947],[-34.26744,0],[8.10382,0.0208]],[[554.73015,380.73467],[-7.60382,2.3866],[1.38588,-0.435]],[[559.02473,379.99593],[-1.19912,0.81976],[1.17362,-0.80232]],[[561.18767,376.32013],[-1.0001,1.01038],[2.59672,-2.62338]],[[569.00369,370.05763],[-1.96086,3.29978],[1.23266,-2.07434]],[[571.63729,363.31489],[-1.174,2.10808],[4.79058,-8.60214]],[[586.56095,336.78129],[-1.60096,10.19744],[1.02108,-6.50386]],[[586.49639,315.03635],[0,6.56516],[0,-14.16012]],[[583.79499,273.78757],[2.25242,13.96836],[-0.86614,-0.8086]],[[581.00085,271.69095],[1.06138,0.48122],[0,0]]],&quot;closed&quot;:true,&quot;fillColor&quot;:[0,0,0,1],&quot;strokeWidth&quot;:0.5}]}" fill="#ffeaab" stroke-width="0.25"/><path d="M287.35553,91.45895c-1.52956,-0.78298 -3.01685,-1.66049 -4.57232,-2.39029c-2.74987,-1.2902 -5.81797,-1.7761 -8.64172,-2.89539c-2.45234,-0.97208 -4.61401,-2.60292 -7.08242,-3.53346c-4.23744,-1.59743 -9.03587,-2.52453 -13.04159,-4.75772c-1.09128,-0.60839 -1.88569,-1.70681 -3.02732,-2.21445c-2.79549,-1.24306 -6.33497,-1.60364 -9.19855,-2.82056c-6.46229,-2.74625 -11.34268,-8.48619 -18.66204,-8.70781c-5.10792,0.02499 -6.94526,1.14269 -11.66108,3.10714c-2.8788,1.19921 -5.69489,2.69923 -8.59746,3.89393c0.41176,-0.53958 0.72106,-1.05426 1.12226,-1.58978c0.74895,-0.99967 1.58696,-1.94195 2.2397,-3.00693c0.45072,-0.73537 0.43249,-1.76532 1.04987,-2.36761c0.7518,-0.73342 2.08963,-0.65407 2.81809,-1.41068c0.37357,-0.38801 2.89082,-5.50058 3.28672,-6.29569c1.48358,-2.97954 3.43475,-5.48938 4.93603,-8.46961c1.38097,-2.77311 3.40781,-4.3896 4.87919,-6.94408c0.52343,-0.90873 0.4104,-2.07594 0.81855,-3.04195c1.24029,-2.93552 4.09341,-5.99233 6.24279,-8.24306l0.27989,-1.00704c4.35137,2.66025 7.02089,6.63878 10.48988,10.59771c2.99231,3.41492 7.00766,6.15786 9.7888,9.7398c2.02791,2.61183 3.51358,4.97047 5.81524,7.25394c1.68345,1.67015 4.00754,2.62018 5.68726,4.29408c2.84652,2.83665 3.8042,6.29046 7.22522,8.63628c1.22499,1.22499 2.88247,1.99509 4.00197,3.31718c2.72487,3.21801 4.82092,7.20403 7.62252,10.43485c0.77862,0.89791 1.94872,1.45598 2.57568,2.46564c0.51081,0.82263 0.21818,1.98194 0.70341,2.81991c0.56977,0.98397 1.63348,1.589 2.35546,2.46739c0.18297,0.2226 0.36488,0.44543 0.54597,0.66827z" data-paper-data="{&quot;noHover&quot;:false,&quot;origItem&quot;:[&quot;Path&quot;,{&quot;applyMatrix&quot;:true,&quot;segments&quot;:[[[286.76926,90.76107],[0.18297,0.2226],[-0.72198,-0.87839]],[[284.41345,88.29417],[0.56977,0.98397],[-0.48523,-0.83797]],[[283.70889,85.47594],[0.51081,0.82263],[-0.62696,-1.00967]],[[281.1328,83.01093],[0.77862,0.89791],[-2.80159,-3.23082]],[[273.5067,72.58281],[2.72487,3.21801],[-1.11949,-1.3221]],[[269.5037,69.26816],[1.22499,1.22499],[-3.42102,-2.34581]],[[262.27533,60.64788],[2.84652,2.83665],[-1.67972,-1.6739]],[[256.5905,56.37081],[1.68345,1.67015],[-2.30166,-2.28347]],[[250.79966,49.14572],[2.02791,2.61183],[-2.78114,-3.58194]],[[241.04355,39.41069],[2.99231,3.41492],[-3.46899,-3.95893]],[[230.56514,28.80927],[4.35137,2.66025],[0,0]],[[230.28616,29.81588],[0,0],[-2.14938,2.25073]],[[224.05593,38.05021],[1.24029,-2.93552],[-0.40815,0.96601]],[[223.24058,41.08881],[0.52343,-0.90873],[-1.47138,2.55448]],[[218.36925,48.02067],[1.38097,-2.77311],[-1.50128,2.98023]],[[213.43734,56.47536],[1.48358,-2.97954],[-0.3959,0.79511]],[[210.15081,62.76156],[0.37357,-0.38801],[-0.72846,0.75661]],[[207.33258,64.17067],[0.7518,-0.73342],[-0.61739,0.60229]],[[206.28233,66.53546],[0.45072,-0.73537],[-0.65274,1.06498]],[[204.04203,69.53937],[0.74895,-0.99967],[-0.40121,0.53551]],[[202.82266,71.15297],[0.41176,-0.53958],[2.90257,-1.1947]],[[211.41958,67.25678],[-2.8788,1.19921],[4.71582,-1.96446]],[[223.17876,64.13025],[-5.10792,0.02499],[7.31936,0.22163]],[[241.80408,72.79866],[-6.46229,-2.74625],[2.86359,1.21693]],[[250.97237,75.62091],[-2.79549,-1.24306],[1.14163,0.50764]],[[253.99499,77.83744],[-1.09128,-0.60839],[4.00571,2.23319]],[[267.02414,82.60404],[-4.23744,-1.59743],[2.46841,0.93054]],[[274.10426,86.1399],[-2.45234,-0.97208],[2.82375,1.11929]],[[282.74355,89.03821],[-2.74987,-1.2902],[1.55547,0.7298]],[[287.31536,91.42918],[-1.52956,-0.78298],[-0.1811,-0.22284]]],&quot;closed&quot;:true}]}" fill="#ffffff" stroke-width="0.5"/><path d="M190.36693,84.55252c1.34111,-0.85461 2.75995,-1.65128 3.95057,-2.54638c1.919,-1.44269 3.31246,-3.59038 5.39755,-4.78047c1.89596,-1.08214 4.26951,-1.08424 6.22527,-2.05414c2.40658,-1.19347 4.86895,-2.29766 7.34848,-3.33105c4.46549,-1.86109 5.23174,-2.78605 9.87888,-2.759c5.84087,-0.29924 11.37959,5.97675 16.62552,8.24117c2.85504,1.23238 6.38659,1.58614 9.16377,2.81974c1.00462,0.44625 1.65631,1.48111 2.61801,2.01358c4.24882,2.35242 9.26374,3.43574 13.75649,5.11046c2.44888,0.91285 4.58611,2.55092 7.01468,3.5165c2.6984,1.07287 5.64836,1.49926 8.27213,2.74355c2.4454,1.1597 4.75904,2.61281 7.27018,3.62229c4.67667,1.56775 8.84076,4.13903 13.50905,5.68359c3.45011,1.14151 6.80054,1.45345 10.05522,3.30016c2.101,1.19211 3.07643,2.27342 4.86319,4.23401c0.37019,0.4062 0.99192,0.81039 0.9372,1.35724c-0.07889,0.7884 -1.01013,1.26095 -1.27385,2.00811c-0.58149,1.64743 -0.91291,5.38881 -1.44125,7.14887c-1.29681,4.32012 -3.37627,7.59867 -5.94632,11.19716c-0.52118,0.72973 -0.7917,1.68333 -1.49704,2.23707c-2.00401,1.57327 -7.33615,-0.39673 -9.58526,-0.39673c-0.23892,-0.05604 -0.56411,-0.16614 -0.79068,-0.25399c-0.26619,-5.14455 -1.295,-10.11091 -2.06143,-15.21c-0.18346,-1.22056 0.26377,-2.58029 -0.27745,-3.68956c-0.45101,-0.92437 -1.78316,-1.09429 -2.44378,-1.88262c-2.35188,-2.80653 -2.00121,-5.43196 -5.55132,-7.54677c-8.8059,-5.24569 -19.30355,-5.13676 -29.05146,-6.63407c-3.19411,-0.49062 -6.5202,0.07997 -9.66655,-0.65726c-1.5339,-0.35941 -2.81019,-1.39992 -4.21931,-2.10448c-11.95072,-0.13587 -23.72874,-1.48822 -35.72567,-1.48822c-3.72791,0 -10.77021,-1.31614 -13.74108,1.42754c-1.66415,1.53689 -1.55648,4.25736 -2.58003,6.27819l-0.70431,1.40734c0,0 -1.11772,2.23213 1.11835,3.35016c2.23607,1.11804 3.25429,-1.12386 3.25429,-1.12386l0.31324,-0.41904c0.07383,6.31265 0.3331,12.66678 -0.01767,18.94108c-0.21743,3.8893 -0.60213,7.77158 -1.02662,11.66101c-2.04767,1.00429 -4.18974,2.06814 -6.22205,3.17668c-4.26045,2.32387 -7.8372,3.83263 -12.38638,5.49646c-5.1683,1.89026 -8.52649,3.81094 -14.34917,3.36229c-4.91873,-0.379 -7.21915,-3.84029 -11.05684,-6.21778c-1.89819,-3.99931 -4.11217,-7.77038 -3.00649,-12.42365c0.62848,-2.64494 3.60589,-4.2864 5.11731,-6.11838c2.02077,-2.44935 3.01712,-6.06258 5.02757,-8.57565c3.50559,-4.38202 8.1201,-7.87541 12.56247,-11.11543c4.32898,-3.15731 7.50412,-6.66614 12.11914,-9.43405c0,0 1.22216,-0.73502 1.26783,-2.01641c1.58884,-1.07319 3.24535,-2.2757 4.32443,-3.49415c1.06294,-1.20023 1.57874,-2.87734 2.63116,-4.06108z" data-paper-data="{&quot;noHover&quot;:false,&quot;origItem&quot;:[&quot;Path&quot;,{&quot;applyMatrix&quot;:true,&quot;segments&quot;:[[[187.78136,88.63412],[1.06294,-1.20023],[-1.07907,1.21845]],[[183.4587,92.12377],[1.58884,-1.07319],[-0.04567,1.28139]],[[182.19154,94.13806],[0,0],[-4.61501,2.76792]],[[170.07421,103.56226],[4.32898,-3.15731],[-4.44237,3.24002]],[[157.51173,114.66959],[3.50559,-4.38202],[-2.01045,2.51308]],[[152.48351,123.24026],[2.02077,-2.44935],[-1.51143,1.83198]],[[147.36559,129.35579],[0.62848,-2.64494],[-1.10568,4.65327]],[[150.36984,141.77253],[-1.89819,-3.99931],[3.83769,2.37749]],[[161.42403,147.98478],[-4.91873,-0.379],[5.82268,0.44864]],[[175.77164,144.61989],[-5.1683,1.89026],[4.54918,-1.66383]],[[188.15697,139.12185],[-4.26045,2.32387],[2.03232,-1.10853]],[[194.29746,136.00303],[-2.04767,1.00429],[0.42449,-3.88942]],[[195.31859,124.33234],[-0.21743,3.88929],[0.35077,-6.2743]],[[195.33242,105.36725],[0.07383,6.31265],[0,0]],[195.11885,105.7944],[[191.76474,106.91244],[2.23607,1.11804],[-2.23607,-1.11804]],[190.64671,103.55833],[[191.35127,102.14922],[0,0],[1.02355,-2.02084]],[[193.93324,95.86302],[-1.66415,1.53689],[2.97087,-2.74367]],[[207.67849,94.42623],[-3.72791,0],[11.99693,0]],[[243.48076,95.90223],[-11.95072,-0.13587],[1.40911,0.70456]],[[247.7081,98.0159],[-1.5339,-0.35941],[3.14635,0.73723]],[[257.37983,98.68298],[-3.19411,-0.49062],[9.74791,1.49732]],[[286.43465,105.33232],[-8.8059,-5.24569],[3.55012,2.11481]],[[291.98593,112.88567],[-2.35188,-2.80653],[0.66062,0.78833]],[[294.4296,114.76964],[-0.45101,-0.92437],[0.54122,1.10927]],[[294.70668,118.46206],[-0.18346,-1.22056],[0.76643,5.0991]],[[296.76533,133.68237],[-0.26619,-5.14455],[0.22657,0.08785]],[[297.46277,133.90019],[-0.23892,-0.05604],[2.24911,0]],[[307.04737,134.29875],[-2.00401,1.57327],[0.70535,-0.55373]],[[308.54391,132.06323],[-0.52118,0.72973],[2.57005,-3.59849]],[[314.48857,120.87338],[-1.29681,4.32012],[0.52834,-1.76005]],[[315.92936,113.72883],[-0.58149,1.64743],[0.26373,-0.74716]],[[317.20315,111.72194],[-0.07889,0.7884],[0.05473,-0.54685]],[[316.26594,110.36549],[0.37019,0.4062],[-1.78676,-1.96058]],[[311.40276,106.13408],[2.101,1.19211],[-3.25468,-1.84671]],[[301.34769,102.83652],[3.45011,1.14151],[-4.66829,-1.54456]],[[287.83949,97.15883],[4.67667,1.56775],[-2.51114,-1.00948]],[[280.57054,93.54133],[2.4454,1.1597],[-2.62377,-1.24429]],[[272.30045,90.80319],[2.6984,1.07287],[-2.42857,-0.96559]],[[265.28941,87.29346],[2.44888,0.91285],[-4.49275,-1.67472]],[[251.54537,82.19626],[4.24882,2.35242],[-0.9617,-0.53247]],[[248.93153,80.18544],[1.00462,0.44625],[-2.77717,-1.23359]],[[239.78132,77.37123],[2.85504,1.23238],[-5.24594,-2.26442]],[[223.17876,69.13025],[5.84087,-0.29924],[-4.64714,-0.02706]],[[213.31162,71.88498],[4.46549,-1.86109],[-2.47953,1.03339]],[[205.97117,75.21089],[2.40658,-1.19347],[-1.95576,0.9699]],[[199.75099,77.26044],[1.89596,-1.08214],[-2.08509,1.19009]],[[194.35841,82.0349],[1.919,-1.44269],[-1.19062,0.8951]],[[190.41027,84.57746],[1.34111,-0.85461],[-1.05242,1.18374]]],&quot;closed&quot;:true}]}" fill="#ffffff" stroke-width="0.5"/><path d="M237.13384,105.03855c-0.57243,-0.13575 -1.09202,-0.00561 -1.49527,0.18229c-0.42459,0.15467 -0.89276,0.43355 -1.20138,0.9494l-0.74316,0.7662c-6.15033,4.61543 -10.76486,10.15296 -16.92917,14.77702c-2.76012,2.2081 -5.54622,4.94245 -8.3872,6.98716c-1.65733,1.19281 -3.75709,1.63768 -5.48931,2.71887c-1.05865,0.66076 -2.23249,1.31367 -3.32729,1.90569c0.29088,-2.89871 0.53815,-5.80649 0.70057,-8.70409c0.40912,-7.29846 0.00529,-14.75737 0.00529,-22.07323c0,0 0.00052,-2.50158 -2.49948,-2.50158c-0.18078,0 -0.34856,0.01327 -0.50414,0.03752c-0.01794,-0.25973 0.00448,-0.50409 0.15841,-0.70214c0.27736,-0.35688 0.9041,0.00578 1.35608,0.00851c2.95138,0.01786 5.90381,0.01524 8.85523,0.01524c11.58859,0 23.16416,1.46755 34.69212,1.31353c1.40912,0.70456 2.7057,1.76428 4.24188,2.11379c1.7322,0.39411 3.57402,-0.06443 5.34567,0.0663c6.69898,0.49433 13.56268,1.48668 20.14149,2.80177c3.30478,0.66061 6.23465,1.27845 9.33216,2.65479c1.41136,0.62712 3.11884,0.98881 4.08248,2.19571c1.31067,1.64153 1.47829,4.02597 2.81871,5.64329c0.42829,0.51677 1.47242,0.34063 1.78367,0.93528c0.30355,0.57993 -0.33769,1.29443 -0.27717,1.94619c0.09587,1.03246 0.53319,2.00854 0.7379,3.02504c0.56998,2.83028 0.94909,5.84808 1.16055,8.83614c-4.11334,-1.50552 -9.07629,-1.55524 -12.99611,-3.74318c-0.81948,-0.45741 -1.19848,-1.4743 -1.96679,-2.01326c-3.04665,-2.13718 -6.9621,-2.67137 -10.19976,-4.43719c-2.66159,-1.45162 -5.01081,-3.42342 -7.67472,-4.87077c-1.29515,-0.70368 -2.76136,-1.09331 -3.9674,-1.94069c-1.08703,-0.76377 -1.72249,-2.03932 -2.81086,-2.80118c-1.29065,-0.90345 -2.89634,-1.22249 -4.20716,-2.09642c-0.87733,-0.58491 -1.3163,-1.71021 -2.24593,-2.20783c-3.83449,-2.05257 -4.901,-1.78895 -8.48994,-1.78817z" data-paper-data="{&quot;noHover&quot;:false,&quot;origItem&quot;:[&quot;Path&quot;,{&quot;applyMatrix&quot;:true,&quot;segments&quot;:[[[245.62982,106.77709],[-3.83449,-2.05257],[0.92962,0.49762]],[[247.89094,108.98928],[-0.87733,-0.58491],[1.31082,0.87392]],[[252.11828,111.10295],[-1.29065,-0.90345],[1.08837,0.76186]],[[254.93651,113.92118],[-1.08703,-0.76377],[1.20604,0.84738]],[[258.90511,115.87145],[-1.29515,-0.70368],[2.66391,1.44735]],[[266.57885,120.75354],[-2.66159,-1.45162],[3.23766,1.76582]],[[276.7778,125.19411],[-3.04665,-2.13718],[0.7683,0.53896]],[[278.74403,127.20926],[-0.81948,-0.45741],[3.91982,2.18793]],[[291.64475,130.92241],[-4.11334,-1.50552],[-0.21146,-2.98806]],[[290.48235,122.09482],[0.56998,2.83028],[-0.20471,-1.0165]],[[289.74414,119.07298],[0.09587,1.03246],[-0.06052,-0.65176]],[[290.02122,117.12893],[0.30355,0.57993],[-0.31126,-0.59464]],[[288.23754,116.19468],[0.42829,0.51677],[-1.34042,-1.61732]],[[285.41931,110.55822],[1.31067,1.64153],[-0.96364,-1.2069]],[[281.33746,108.36608],[1.41136,0.62712],[-3.09751,-1.37635]],[[272.0075,105.7187],[3.30478,0.66061],[-6.57882,-1.31508]],[[251.8884,102.94273],[6.69898,0.49433],[-1.77165,-0.13073]],[[246.55934,102.88214],[1.7322,0.39411],[-1.53618,-0.34951]],[[242.33199,100.76847],[1.40912,0.70456],[-11.52796,0.15403]],[[207.67849,99.42623],[11.58859,0],[-2.95141,0]],[[198.8247,99.4075],[2.95138,0.01786],[-0.45198,-0.00274]],[[197.46878,99.39856],[0.27736,-0.35688],[-0.15392,0.19805]],[[197.31061,100.10002],[-0.01794,-0.25973],[0.15558,-0.02425]],[[197.81468,100.06269],[-0.18078,0],[2.5,0]],[[200.31468,102.56269],[0,0],[0,7.31586]],[[200.31077,124.61182],[0.40912,-7.29846],[-0.16243,2.8976]],[[199.60781,133.30743],[0.29088,-2.89871],[1.0948,-0.59202]],[[202.84137,131.4366],[-1.05865,0.66076],[1.73222,-1.08119]],[[208.33039,128.7169],[-1.65733,1.19281],[2.84098,-2.04471]],[[216.7158,121.7231],[-2.76012,2.2081],[6.16431,-4.62405]],[[233.65624,106.90371],[-6.15033,4.61543],[0,0]],[[234.40196,106.13478],[0,0],[0.30863,-0.51585]],[[235.60736,105.18179],[-0.42459,0.15467],[0.40324,-0.1879]],[[237.1065,104.9967],[-0.57243,-0.13575],[3.58894,-0.00078]]],&quot;closed&quot;:true}]}" fill="#ffffff" stroke-width="0.5"/><path d="M222.12279,143.14909c0.33856,1.78732 0.22908,3.7039 -0.33678,5.40825c-0.46154,1.57377 -1.3735,2.9984 -2.68604,3.86913c-4.1121,3.04277 -11.76344,4.00481 -13.81422,-1.93395c-0.96721,-2.8009 -0.22372,-5.06037 1.29311,-6.84076c0.14085,-2.22887 1.79773,-5.7826 3.44276,-6.65625c1.25225,-0.66505 2.82948,-0.1891 4.24422,-0.28365c1.53646,0.35912 3.30006,0.19682 4.60937,1.07737c0.20457,0.13758 0.40011,0.28647 0.58659,0.44564c5.85868,-0.28451 11.93461,1.61901 16.05307,5.53807c0,0 1.76777,1.76777 0,3.53553c-1.76777,1.76777 -3.53553,0 -3.53553,0c-2.08625,-2.2559 -6.01175,-3.74326 -9.85656,-4.15938z" fill="#000000" stroke-width="0.5"/><path d="M265.10081,145.96733c0.33856,1.78732 0.22908,3.7039 -0.33678,5.40825c-0.46154,1.57377 -1.3735,2.9984 -2.68604,3.86913c-4.1121,3.04277 -11.76344,4.00481 -13.81422,-1.93395c-0.96721,-2.8009 -0.22372,-5.06037 1.29311,-6.84076c0.14085,-2.22887 1.79773,-5.7826 3.44276,-6.65625c1.25225,-0.66505 2.82948,-0.1891 4.24422,-0.28365c1.53646,0.35912 3.30006,0.19682 4.60937,1.07737c0.20457,0.13758 0.40011,0.28647 0.58659,0.44564c5.85868,-0.28451 11.93461,1.61901 16.05307,5.53807c0,0 1.76777,1.76777 0,3.53553c-1.76777,1.76777 -3.53553,0 -3.53553,0c-2.08625,-2.2559 -6.01175,-3.74326 -9.85656,-4.15938z" fill="#000000" stroke-width="0.5"/><path d="M256.67929,182.88227c0,2.5 -2.5,2.5 -2.5,2.5l-1.51025,-0.00205c-7.31131,-0.29978 -14.40503,-1.40707 -21.74015,-1.40707c0,0 -2.5,0 -2.5,-2.5c0,-2.5 2.5,-2.5 2.5,-2.5c7.40385,0 14.56668,1.11653 21.94242,1.41116l1.30798,-0.00205c0,0 2.5,0 2.5,2.5z" fill="#000000" stroke-width="0.5"/></g></g></svg>