<svg version="1.1" xmlns="http://www.w3.org/2000/svg" xmlns:xlink="http://www.w3.org/1999/xlink" width="1106.11536" height="477.29512" viewBox="0,0,1106.11536,477.29512"><g transform="translate(399.448,41.87063)"><g data-paper-data="{&quot;isPaintingLayer&quot;:true}" fill-rule="nonzero" stroke-linejoin="miter" stroke-miterlimit="10" stroke-dasharray="" stroke-dashoffset="0" style="mix-blend-mode: normal"><path d="M-90.22253,419.14439v-461.01502h694.19863v461.01502z" data-paper-data="{&quot;index&quot;:null}" fill="#1a261e" stroke="none" stroke-width="0" stroke-linecap="butt"/><path d="M8.8328,413.89156l-25.53784,-69.88682l553.02011,10.48804l170.35229,30.5173z" data-paper-data="{&quot;index&quot;:null}" fill="#0e1410" stroke="none" stroke-width="0" stroke-linecap="butt"/><path d="M641.50237,173.69655c-1.38071,0 -2.5,-1.11929 -2.5,-2.5c0,-1.38071 1.11929,-2.5 2.5,-2.5c1.38071,0 2.5,1.11929 2.5,2.5c0,1.38071 -1.11929,2.5 -2.5,2.5z" data-paper-data="{&quot;index&quot;:null}" fill="#252525" stroke="none" stroke-width="0.5" stroke-linecap="butt"/><path d="M-330.13427,57.50003c0,-6.90356 5.59644,-12.5 12.5,-12.5c6.90356,0 12.5,5.59644 12.5,12.5c0,6.90356 -5.59644,12.5 -12.5,12.5c-6.90356,0 -12.5,-5.59644 -12.5,-12.5z" fill="#262429" stroke="none" stroke-width="0.5" stroke-linecap="butt"/><path d="M151.86504,353.5744v-314h230.8552v314z" fill="#000000" stroke="none" stroke-width="0" stroke-linecap="butt"/><g><path d="M324.79875,353.60318v-324h221v324z" fill="#151f19" stroke="none" stroke-width="0" stroke-linecap="butt"/><path d="M361.44604,344.43907v-295.30769" fill="none" stroke="#0e1410" stroke-width="5" stroke-linecap="round"/><path d="M399.52296,345.41029v-295.30769" fill="none" stroke="#0e1410" stroke-width="5" stroke-linecap="round"/><path d="M437.59989,50.1026v295.30769" fill="none" stroke="#0e1410" stroke-width="5" stroke-linecap="round"/><path d="M475.67681,50.1026v295.30769" fill="none" stroke="#0e1410" stroke-width="5" stroke-linecap="round"/><path d="M513.75373,345.41029v-295.30769" fill="none" stroke="#0e1410" stroke-width="5" stroke-linecap="round"/></g><g><path d="M-19.21346,354.5744v-324h221v324z" fill="#151f19" stroke="none" stroke-width="0" stroke-linecap="butt"/><path d="M8.20306,345.41029v-295.30769" fill="none" stroke="#0e1410" stroke-width="5" stroke-linecap="round"/><path d="M46.27998,50.1026v295.30769" fill="none" stroke="#0e1410" stroke-width="5" stroke-linecap="round"/><path d="M84.35691,50.1026v295.30769" fill="none" stroke="#0e1410" stroke-width="5" stroke-linecap="round"/><path d="M122.43382,50.1026v295.30769" fill="none" stroke="#0e1410" stroke-width="5" stroke-linecap="round"/><path d="M160.51074,50.1026v295.30769" fill="none" stroke="#0e1410" stroke-width="5" stroke-linecap="round"/></g><path d="M-399.448,128.483c0,-1.38071 1.11929,-2.5 2.5,-2.5c1.38071,0 2.5,1.11929 2.5,2.5c0,1.38071 -1.11929,2.5 -2.5,2.5c-1.38071,0 -2.5,-1.11929 -2.5,-2.5z" fill="#ffeaaa" stroke="none" stroke-width="0.5" stroke-linecap="butt"/><g stroke="none" stroke-width="0.5" stroke-linecap="butt"><path d="M203.22202,182.10958c1.22348,-1.13177 2.09855,-2.84122 3.67042,-3.39531c7.45809,-2.62897 12.09689,4.68482 16.74544,9.08251c5.9142,5.59506 12.20458,10.96592 17.81446,16.86062c4.20218,4.41552 7.07162,9.3703 10.78431,14.05103c6.40762,8.07832 16.14124,14.60771 12.79089,26.59976c-1.90839,6.83077 -8.83522,10.81318 -14.13947,14.82926c-5.16114,3.90221 -10.63384,7.53065 -16.3469,10.59207c-2.73258,1.46428 -3.00887,1.04754 -5.65949,2.9887c-9.79575,7.17383 -20.71686,13.71677 -31.86052,18.86428c-4.66937,2.1569 -9.70204,3.48012 -14.36967,5.50489c-5.09652,2.2108 -10.13316,4.74196 -15.51263,6.44763c-5.48736,1.73987 -11.23291,1.94879 -16.80429,3.3576c-1.66734,-0.08648 -3.34203,-0.43818 -5.00201,-0.25944c-5.75132,0.6193 -12.46776,4.16608 -18.49195,2.27782c-4.34459,-1.3618 -6.77416,-5.36376 -9.63066,-8.45874c-3.38189,-3.66424 -7.10627,-6.95619 -10.45706,-10.65335c-2.2644,-2.49848 -6.14844,-4.62717 -6.38681,-8.51397c-0.14137,-2.3053 1.98136,-4.18877 3.24513,-6.12199c0.51352,-0.78555 1.1209,-1.54479 1.7887,-2.27655c-2.83562,-1.90416 -5.48563,-4.38331 -8.24072,-6.61439c-6.75704,-5.47188 -13.15154,-11.33055 -19.3726,-17.3809c-0.08855,0.25825 -0.17613,0.5174 -0.26265,0.77752c-1.84695,5.55229 -4.21368,10.91821 -6.26149,16.3996c-0.82707,2.21383 -0.93177,4.66349 -1.82871,6.84994c-1.65059,4.02355 -3.86278,6.86613 -6.27935,10.27307c-1.79686,1.89565 -4.32584,4.95202 -6.89055,5.79024c-8.94177,2.92242 -18.85478,-7.96765 -23.34321,-14.36637c-3.29967,-4.70403 -3.85982,-9.16416 -5.92618,-14.37011c-1.96896,-4.96058 -2.97769,-10.00428 -3.25496,-15.0855c-0.36566,-0.06461 -0.70476,-0.17554 -1.00718,-0.3051c-0.53635,0.69959 -1.39503,1.29124 -2.75962,1.52495c-4.31126,0.73837 -5.04963,-3.57288 -5.04963,-3.57288l-0.50524,-3.00504c-0.6953,-6.63773 -1.91497,-13.67339 -1.32676,-20.37508c0.2066,-2.35398 1.49505,-4.51515 1.78766,-6.86001c0.1653,-1.32463 -0.3468,-2.69286 -0.094,-4.00361c0.6781,-3.51592 1.97208,-7.23699 3.48378,-10.82826c-1.3822,-0.94524 -1.84485,-2.59957 -1.84485,-2.59957c-3.748,-13.62767 2.07458,-27.13891 4.62363,-40.49924c1.55288,-8.13906 2.78449,-16.25469 4.97948,-24.26392c0.97218,-3.54736 2.01396,-7.083 2.74193,-10.6884c1.06659,-5.28255 1.32535,-9.77672 5.90766,-13.60881c5.6261,-4.70499 15.26856,-1.27331 21.53067,-0.30805c9.58565,0.1868 19.9047,1.07185 29.12039,4.07226c5.80881,1.89122 11.58459,4.61838 17.65034,5.63521c0.91424,0.15326 1.85522,-0.22409 2.77778,-0.13361c6.57112,0.64441 12.9989,2.83936 19.58337,3.35927l3.29461,1.45549c4.53437,-1.93537 9.06694,-3.86799 13.54819,-5.90412c6.60407,-3.00071 13.18774,-5.98106 20.11516,-8.13247c1.64694,-0.51148 3.22917,-1.59946 4.95092,-1.50147c7.12983,0.40579 11.10174,9.41893 13.20072,15.07493c3.77656,5.86844 5.89276,12.03077 8.11705,18.58875c0.54545,1.60817 1.66703,3.16597 1.53178,4.85872c-0.21683,2.71381 -0.90296,5.58714 -2.54014,7.7623c-1.21511,1.6144 -3.5686,1.89879 -5.38996,2.77366c-1.81315,0.87092 -3.66342,1.63711 -5.53033,2.35586c0.27874,0.25865 0.55643,0.51837 0.83295,0.77922c6.19164,5.85752 11.98291,11.76751 17.59018,18.18937c2.36587,2.70956 4.953,4.87646 6.71859,7.6356zM112.44943,279.53388c-0.68794,0.72805 -1.26326,1.58589 -2.07311,2.17535c-0.34864,0.25376 -1.44419,-0.13711 -1.26799,0.25648c0.24077,0.53782 1.17807,0.27174 1.65769,0.61405c0.90981,0.64934 1.68349,1.47823 2.43422,2.30638c3.35452,3.70046 7.05927,6.989 10.45706,10.65334c1.1774,1.26979 3.57192,5.41201 5.62109,5.96996c4.63937,1.26322 10.53059,-2.04851 14.98555,-2.55883c1.71513,-0.19648 3.449,0.16003 5.17348,0.24005c4.98771,-1.33917 10.15784,-1.40368 15.06775,-2.99786c5.08795,-1.65197 9.79412,-4.0296 14.62402,-6.11305c4.64365,-2.00311 9.61201,-3.31007 14.24817,-5.45032c10.67921,-4.93001 21.00719,-11.25627 30.43107,-18.03799c6.9195,-4.97949 14.90724,-8.20437 21.79957,-13.42892c3.20103,-2.42276 9.97061,-5.83078 10.96424,-10.09849c1.92778,-8.27998 -6.74415,-13.32986 -11.13786,-18.85495c-3.59197,-4.51691 -6.25415,-9.24773 -10.30309,-13.50419c-5.50762,-5.78987 -11.69724,-11.05854 -17.50537,-16.55324c-2.45311,-2.32073 -5.51916,-4.57775 -7.38519,-7.44499c-0.28415,-0.43662 -0.38819,0.97281 -0.66381,1.41486l-1.89852,2.00681c0,0 -1.64853,1.74257 -3.79441,1.42596c-0.52954,7.93046 -8.84927,13.54685 -14.00832,19.00018c-8.6404,9.13327 -17.4494,18.04151 -26.28443,26.9784c-6.85469,6.93374 -13.17034,14.03452 -20.7756,20.1849c-5.97383,4.82284 -11.24904,10.30751 -17.59269,14.6084c-1.84726,1.25242 -3.45162,2.9807 -5.54655,3.75026c-1.66177,0.61043 -3.21783,0.91295 -4.68946,0.96777c-0.88102,0.7933 -1.72468,1.62946 -2.53752,2.48969zM104.9277,125.04906c-1.15171,-0.1103 -2.33089,0.23811 -3.47073,0.03966c-6.39641,-1.1136 -12.51586,-3.83235 -18.62517,-5.86552c-8.6198,-2.86865 -18.40162,-3.55949 -27.37618,-3.74108c-2.92408,-0.44598 -5.84084,-0.9429 -8.77224,-1.3379c-2.14027,-0.28839 -5.06616,-1.93467 -6.4721,-0.29538c-2.48488,2.89735 -2.10804,4.79726 -2.85868,8.5209c-0.0255,0.12654 -2.84035,11.13685 -2.90015,11.35467c-2.9183,10.62922 -4.31813,21.54108 -6.92332,32.25364c-1.63276,6.71394 -3.80944,14.04908 -3.64542,21.13077c4.72647,-8.93243 10.27031,-17.68752 17.64662,-24.60104c4.64107,-4.34986 13.01372,-5.5663 18.83157,-7.98567c5.00706,-1.45664 8.78657,-4.43262 13.62112,-6.53352c9.09036,-3.95032 17.5913,-8.60765 26.23581,-13.46203c4.96762,-2.7896 10.07185,-5.27729 15.23736,-7.62477c-3.50017,-0.73709 -6.99418,-1.51425 -10.52849,-1.85274zM23.73092,234.53752c0.15376,0.20313 0.30754,0.40625 0.46132,0.6094c0.61826,-4.80918 1.73821,-9.62253 3.16937,-14.40211c0,0 1.26762,-4.18631 5.45394,-2.91867c4.18631,1.26764 2.91868,5.45395 2.91868,5.45395c-3.51041,11.44831 -5.08478,23.37995 -0.67785,34.56872c1.78861,4.54109 2.12987,8.69612 4.98572,12.68558c2.27827,3.18262 5.46381,6.12815 8.42591,8.64001c0.51991,0.4409 3.87194,3.11198 4.89624,2.5535c1.26407,-0.68921 2.03714,-2.03569 3.02506,-3.08304c1.74244,-2.47068 3.83582,-5.25081 4.93846,-8.0163c0.83405,-2.09186 0.92073,-4.42668 1.70842,-6.53644c2.02004,-5.41044 4.36527,-10.70299 6.18652,-16.18353c0.54098,-1.62793 1.12193,-3.22135 1.72787,-4.79451c-6.01014,-6.05603 -11.92035,-12.22743 -17.90982,-18.32933c0,0 -3.06401,-3.12152 0.05751,-6.18554c3.12152,-3.06402 6.18554,0.05751 6.18554,0.05751c5.09445,5.19008 10.12185,10.519 15.2112,15.79528c0.83247,-1.99126 1.66008,-3.99306 2.4508,-6.03585c2.09476,-5.41165 3.2468,-11.15297 5.26663,-16.59305c0.94622,-2.54849 2.45384,-4.87527 3.29351,-7.46082c0.47622,-1.46641 0.24967,-3.08678 0.6181,-4.58391c1.81167,-7.36143 5.44663,-14.28962 7.56898,-21.54797c0.07886,-0.26971 0.13635,-0.55184 0.17979,-0.84195c-5.45218,4.51064 -10.73586,9.22392 -15.79604,14.19356c-7.36055,7.22474 -14.68526,14.41742 -21.78898,21.89941c-3.38799,3.56839 -7.04445,6.95006 -9.77526,11.05021l0.80893,-0.22077c0,0 0.12125,4.37235 -4.25109,4.49359c-4.37235,0.12125 -4.49358,-4.2511 -4.49358,-4.2511l0.67898,-4.90716c3.05696,-4.50177 6.94479,-8.24573 10.6854,-12.18544c7.17532,-7.55729 14.57316,-14.82413 22.00761,-22.12181c16.89883,-16.57886 36.34291,-30.99963 56.36856,-43.64265c6.41909,-4.05263 13.86206,-9.63539 21.97359,-6.79318c4.15853,1.45711 6.91953,5.64201 10.16172,8.34124c2.90644,2.41969 5.84977,4.81792 8.75356,7.26275c1.89208,-0.68484 3.77699,-1.39024 5.62611,-2.19053c2.01525,-0.8722 4.52441,-0.81369 6.19606,-2.23762c1.1983,-1.0207 -0.41101,-3.12343 -0.68213,-3.80297c-2.48376,-6.22532 -4.10625,-11.97273 -7.74115,-17.70978c-0.90073,-2.52193 -2.25565,-4.88435 -3.76098,-7.09918c-0.6645,-0.97772 -0.64251,-3.59464 -1.71753,-3.10287c-9.24379,4.22861 -18.97915,8.45411 -28.44323,12.24488c-11.59487,4.64423 -23.31331,9.42991 -34.27393,15.59656c-6.81269,3.83294 -13.55825,7.90107 -20.64227,11.23822c-3.90036,1.83738 -7.54839,2.77345 -11.29609,4.86171c-2.96417,1.65167 -5.91647,3.43864 -9.15523,4.45085c-4.49455,1.87768 -9.93045,2.82719 -14.24408,4.89948c-6.47872,3.11241 -11.75199,13.62652 -15.16629,19.47306c-4.07993,6.98632 -8.99547,15.69839 -10.47875,23.79174c-0.22887,1.24886 0.2911,2.54859 0.1226,3.80702c-0.06667,0.49796 -1.65565,5.3003 -1.74947,6.5264c-0.30277,3.95668 0.06909,8.04116 0.54219,12.07196c0.87455,0.53207 1.3889,1.2115 1.3889,1.2115zM163.99096,161.82563c-7.64407,3.31111 -15.23082,7.34641 -23.22252,9.78039c-3.87789,1.18105 -7.9241,1.72301 -11.85197,2.72546c-6.47295,1.652 -11.97094,3.16459 -18.72464,3.33402c-2.12389,0.58577 -4.17088,1.65451 -6.37165,1.75733c-0.9913,0.04632 -1.73667,-1.6967 -2.6609,-1.3353c-0.69356,0.2712 1.14633,1.20537 1.0935,1.94819c-0.10744,1.51066 -1.09978,2.8256 -1.53616,4.27585c-1.76032,5.85029 -4.6774,11.63671 -6.10599,17.58957c-0.37962,1.58188 -0.18313,3.28446 -0.68412,4.83219c-0.90981,2.81071 -2.48846,5.3659 -3.51378,8.13656c-2.03404,5.4965 -3.21804,11.2879 -5.32878,16.7554c-1.26486,3.27638 -2.62885,6.43404 -3.95306,9.61487c5.91022,5.9426 11.97434,11.70816 18.38539,17.01014c3.19697,2.64391 6.51456,5.27049 9.81879,7.7965c0.97977,0.74902 1.96569,1.46696 3.02942,1.90252c0.78717,-0.45202 2.62922,-1.25194 4.41058,-0.14332c1.30658,-0.63509 2.28279,-1.82883 3.47169,-2.67467c6.05813,-4.31009 11.26463,-9.52157 17.07045,-14.21764c7.35083,-5.93562 13.42338,-12.8248 20.04568,-19.52378c8.79236,-8.89419 17.55897,-17.75797 26.15789,-26.84738c2.91106,-3.0771 5.74362,-6.23041 8.73316,-9.23132c1.32148,-1.32652 3.19884,-2.96158 2.90102,-4.81015c-0.5531,-3.43299 -4.52642,-6.27962 -6.6836,-8.7464c-5.4318,-6.21137 -11.02034,-11.91955 -17.01354,-17.58934c-1.33346,-1.26555 -2.6976,-2.50095 -4.0817,-3.71578c-1.13623,0.43703 -2.26618,0.89141 -3.38518,1.37613zM102.84398,170.72942c2.05633,-0.38679 4.02583,-1.14232 6.03874,-1.71347c18.05714,-0.54616 34.66788,-7.88464 50.95638,-14.92608c-1.66861,-1.37603 -3.33837,-2.74731 -4.99192,-4.12934c-1.89289,-1.58208 -4.91004,-5.97 -7.45487,-6.80356c-2.91659,-0.95533 -5.29603,0.55862 -7.67486,1.95057c-4.73314,2.76955 -9.34938,5.7396 -13.90699,8.78938c-8.07418,5.40294 -16.02475,10.99848 -23.70992,16.92487c0.25258,-0.01738 0.50093,-0.04676 0.74343,-0.09237z" fill="#000000"/><path d="M115.51232,126.88595c-5.1655,2.34748 -10.26877,4.83916 -15.23639,7.62877c-8.64451,4.85437 -17.14572,9.53664 -26.23607,13.48696c-4.83455,2.10091 -8.64764,5.1173 -13.6547,6.57395c-5.81786,2.41936 -14.24894,3.62885 -18.89001,7.97871c-7.37633,6.91352 -12.9195,15.66911 -17.64595,24.60154c-0.16401,-7.08169 2.00136,-14.42774 3.63412,-21.14168c2.60519,-10.71257 3.99813,-21.68549 6.91642,-32.31471c0.0598,-0.21782 2.88941,-11.24746 2.91492,-11.37401c0.75064,-3.72365 0.38494,-5.63106 2.86981,-8.52841c1.40593,-1.6393 4.34166,0.00299 6.48193,0.29139c2.9314,0.395 5.86465,0.8894 8.78873,1.33536c8.97456,0.18159 18.8001,0.89163 27.4199,3.76029c6.10932,2.03316 12.2395,4.76901 18.63592,5.88259c1.13984,0.19844 2.31955,-0.14866 3.47125,-0.03836c3.5343,0.33849 7.02995,1.12053 10.53011,1.85762z" data-paper-data="{&quot;noHover&quot;:false,&quot;origItem&quot;:[&quot;Path&quot;,{&quot;applyMatrix&quot;:true,&quot;segments&quot;:[[[303.61878,102.42675],[1.87157,2.40059],[-0.60988,-0.78227]],[[301.54916,100.28856],[0.54799,0.82681],[-3.07516,-4.63979]],[[294.22843,85.23294],[2.3333,5.00279],[-3.29211,-7.05857]],[[280.42861,65.97891],[5.17462,5.69633],[-1.44509,-2.08387]],[[276.09333,59.7273],[1.48115,2.0584],[-1.08141,-1.50287]],[[272.464,55.52246],[1.84931,-0.09024],[-3.26852,0.15951]],[[265.4729,58.76251],[2.76135,-1.72644],[-0.09384,0.05867]],[[256.6925,63.64636],[0.17089,-0.09109],[-8.33928,4.44512]],[[232.52585,78.33804],[8.20671,-4.68922],[-5.14343,2.9389]],[[217.21781,88.51771],[4.31383,-4.27461],[8.34788,-2.31926]],[[242.93649,85.01331],[-8.65178,-0.52058],[5.44356,0.32755]],[[259.00532,92.0365],[-4.9346,-2.19788],[3.8573,2.26014]],[[271.09981,96.67021],[-4.15691,-1.77312],[7.81619,3.33397]],[[294.94179,105.07813],[-8.11654,-2.52363],[4.66423,1.45022]],[[308.66818,110.07548],[-4.50547,-1.83395],[-1.6032,-2.61418]]],&quot;closed&quot;:true,&quot;fillColor&quot;:[0,0,0,1]}]}" fill="#484848"/><path d="M171.98497,150.12438c-4.99194,2.3756 -10.33765,3.37326 -15.50518,5.48708c-4.22353,1.72768 -7.70222,4.50983 -12.25235,5.51943c-0.71387,0.15839 -1.42747,0.27018 -2.141,0.34432c-10.69738,4.06391 -21.7053,7.20785 -33.25961,7.55733c-1.57517,0.44694 -3.12379,1.00672 -4.70821,1.41438c-2.52196,1.22856 -5.07347,2.34693 -7.62472,3.26324c-0.22356,0.23281 -0.44719,0.46559 -0.67089,0.69833c-0.13971,1.84299 -0.43657,3.67456 -0.97286,5.48385c-1.92834,6.50552 -5.62883,12.26616 -8.16893,18.5116c-0.16748,0.41178 -0.34296,0.82036 -0.5235,1.22688c-0.01699,0.06776 -0.03386,0.13553 -0.05053,0.20333c-0.36844,1.49713 -0.14016,3.11799 -0.61638,4.5844c-0.83967,2.58554 -2.34948,4.9117 -3.2957,7.46018c-2.01984,5.44008 -3.17197,11.18135 -5.26673,16.59302c-0.79072,2.04279 -1.61886,4.04442 -2.45133,6.03568c-0.25053,-0.25973 -0.50096,-0.51961 -0.75129,-0.77963c-0.30531,3.57424 -0.79001,7.0872 -1.84872,10.63316c0,0 -0.61805,2.0411 -2.41624,2.8413c-0.08722,0.25516 -0.17291,0.50926 -0.25674,0.76154c-1.82125,5.48054 -4.1669,10.77294 -6.18694,16.18338c-0.78769,2.10976 -0.87407,4.44468 -1.70811,6.53655c-1.10264,2.76549 -3.19712,5.54522 -4.93957,8.01591c-0.98791,1.04736 -1.7619,2.3935 -3.02598,3.08271c-1.02432,0.55847 -4.37911,-2.11376 -4.89902,-2.55466c-2.96211,-2.51186 -6.15328,-5.46026 -8.43156,-8.64288c-2.85585,-3.98946 -3.2026,-8.14808 -4.99121,-12.68918c-2.68017,-6.80468 -3.15244,-13.88856 -2.32141,-20.9704l-1.63444,1.44066c-1.67725,1.51238 -4.26281,1.50445 -5.93169,-0.07438c-1.02061,-0.96554 -1.47362,-2.30594 -1.34743,-3.6038c-0.03659,-0.03598 -0.07097,-0.0737 -0.10171,-0.11429v0.00007c0,0 -0.51508,-0.68041 -1.38962,-1.21248c-0.47311,-4.03079 -0.84894,-8.12134 -0.54618,-12.07801c0.09382,-1.2261 1.68108,-6.0317 1.74775,-6.52966c0.16849,-1.25843 -0.35262,-2.56063 -0.12373,-3.80949c1.48328,-8.09334 6.39431,-16.82282 10.47424,-23.80914c3.4143,-5.84654 8.6901,-16.38429 15.16882,-19.4967c4.31363,-2.07229 9.75629,-3.03592 14.25084,-4.91361c3.23877,-1.01223 6.20251,-2.81199 9.16668,-4.46366c3.7477,-2.08827 7.41712,-3.03562 11.31748,-4.87301c7.08402,-3.33715 13.86348,-7.40463 20.67618,-11.23757c10.96062,-6.16665 22.69902,-10.94112 34.29391,-15.58535c9.46409,-3.79078 19.20508,-8.01075 28.44887,-12.23936c1.07503,-0.49177 1.05435,2.12668 1.71885,3.10439c1.50531,2.21483 2.86305,4.58096 3.76378,7.10288c3.6349,5.73704 5.26301,11.49442 7.74677,17.71974c0.27112,0.67954 1.88132,2.78439 0.68302,3.80509c-1.67165,1.42392 -4.28922,1.40841 -6.30448,2.2806c-0.40053,0.17335 -0.80273,0.34225 -1.20633,0.50744c-0.72052,0.85568 -1.58684,1.27882 -1.58684,1.27882z" fill="#484848"/><path d="M112.3931,279.54906c0.81284,-0.86023 1.65615,-1.69774 2.53718,-2.49104c1.47164,-0.05482 3.02772,-0.35719 4.68949,-0.96763c2.09493,-0.76956 3.69881,-2.49996 5.54608,-3.75238c6.34364,-4.30089 11.6177,-9.80011 17.59153,-14.62295c7.60524,-6.15039 13.93771,-13.28948 20.79242,-20.22322c8.83504,-8.93689 17.69004,-17.86224 26.33043,-26.99551c5.15905,-5.45333 13.489,-11.06799 14.01853,-18.99845c2.14588,0.31662 3.79696,-1.42522 3.79696,-1.42522l1.89942,-2.00652c0.27562,-0.44206 0.3798,-1.85145 0.66395,-1.41482c1.86604,2.86724 4.93904,5.12706 7.39216,7.4478c5.80813,5.49471 12.01369,10.77469 17.52131,16.56458c4.04894,4.25645 6.71989,8.99855 10.31187,13.51545c4.3937,5.52508 13.07234,10.5915 11.14456,18.87148c-0.99364,4.2677 -7.762,7.68273 -10.96303,10.10549c-6.89234,5.22455 -14.88064,8.46625 -21.80014,13.44574c-9.42388,6.78172 -19.79271,13.1535 -30.47192,18.08351c-4.63616,2.14025 -9.63396,3.44816 -14.27761,5.45127c-4.82989,2.08345 -9.55279,4.45442 -14.64074,6.1064c-4.90991,1.59418 -10.09006,1.65123 -15.07776,2.99041c-1.72448,-0.08001 -3.46122,-0.43937 -5.17634,-0.24289c-4.45496,0.51032 -10.35063,3.81669 -14.99001,2.55347c-2.04917,-0.55797 -4.4473,-4.70571 -5.6247,-5.9755c-3.39778,-3.66434 -7.10708,-6.96287 -10.46161,-10.66334c-0.75072,-0.82815 -1.52508,-1.65914 -2.43491,-2.30847c-0.47962,-0.34231 -1.41714,-0.07698 -1.65791,-0.6148c-0.17619,-0.3936 0.91938,-0.00263 1.26802,-0.2564c0.80985,-0.58947 1.38486,-1.44843 2.0728,-2.17648z" data-paper-data="{&quot;noHover&quot;:false,&quot;origItem&quot;:[&quot;Path&quot;,{&quot;applyMatrix&quot;:true,&quot;segments&quot;:[[[211.83771,198.13211],[0,0],[-0.85876,0.00051]],[[209.26144,198.12268],[0.84427,0.15707],[-0.36346,-0.06762]],[[208.35462,197.48409],[0.14132,-0.34163],[-0.1931,0.46683]],[[208.94888,198.87829],[-0.0694,-0.5004],[0.13165,0.94922]],[[208.94669,201.75321],[0.07345,-0.95549],[-0.32819,4.26946]],[[208.47301,214.54268],[0.2802,-4.27513],[-0.0971,1.48143]],[[208.06682,221.56092],[-0.85985,-1.60496],[1.94674,3.63367]],[[218.48978,229.38625],[-2.94264,-2.47386],[1.1329,0.95242]],[[221.38844,232.74972],[-0.96622,-1.12115],[3.77274,2.31731]],[[232.13326,240.36757],[-3.88572,-2.11861],[4.02662,2.19544]],[[244.55677,245.87363],[-4.14329,-1.7805],[3.98352,1.71185]],[[256.34609,251.53608],[-4.06452,-1.62637],[9.36248,3.74628]],[[285.50978,259.86069],[-9.77609,-1.87345],[7.17811,1.37559]],[[306.71736,265.52523],[-7.31473,-1.21428],[3.3949,0.56613]],[[319.46669,266.40381],[-3.24335,1.89565],[6.29258,-3.67785]],[[324.6472,248.35804],[-0.85229,5.99171],[0.69677,-4.89839]],[[326.9871,233.98478],[-0.26532,5.02952],[0.36089,-6.84147]],[[326.98244,213.32948],[0,6.85471],[0,-2.89514]],[[327.26789,204.34349],[-0.68626,2.85151],[0.10451,-0.43423]],[[325.9956,204.76369],[0.43771,-0.0888],[0,0]],[323.62718,204.76369],[[320.50347,203.2407],[1.06714,1.52299],[-5.25107,4.34275]],[[300.41665,205.71106],[6.43597,0],[-10.77901,0]],[[268.12805,205.23656],[10.77139,0.23692],[-8.35703,-0.18381]],[[243.31618,204.1903],[8.31138,1.11278],[-6.52337,-0.87892]],[[223.85267,201.84073],[6.41619,1.41677],[-1.86839,-0.41256]],[[218.24905,200.59596],[1.71359,0.85131],[-1.35928,-0.67529]],[[214.88334,198.24557],[0.90121,0.88423],[-1.01315,-0.0813]],[[211.83769,198.13211],[1.01466,-0.00061],[0,0]]],&quot;closed&quot;:true,&quot;fillColor&quot;:[0,0,0,1]}]}" fill="#295623"/><path d="M164.02744,161.78015c1.11901,-0.4847 2.25029,-0.93798 3.38653,-1.37501c1.3841,1.21483 2.75221,2.45395 4.08567,3.7195c5.99319,5.66979 11.59411,11.39706 17.02591,17.60843c2.15717,2.46678 6.13321,5.32214 6.68631,8.75513c0.29782,1.84858 -1.57884,3.48727 -2.90032,4.81378c-2.98954,3.00091 -5.8214,6.16249 -8.73245,9.2396c-8.59893,9.08942 -17.38085,17.99353 -26.17321,26.88772c-6.62229,6.69898 -12.72738,13.60611 -20.0782,19.54174c-5.80582,4.69607 -11.03126,9.90789 -17.08939,14.21798c-1.18889,0.84585 -2.16786,2.0391 -3.47443,2.6742c-1.78136,-1.10862 -3.6272,-0.30959 -4.41435,0.14243c-1.06372,-0.43556 -2.05264,-1.15438 -3.03242,-1.90339c-3.30424,-2.52602 -6.63224,-5.15714 -9.82921,-7.80105c-6.41104,-5.30196 -12.49342,-11.08352 -18.40365,-17.02612c1.32421,-3.18082 2.68479,-6.34353 3.94965,-9.61991c2.11074,-5.4675 3.28818,-11.2749 5.32223,-16.7714c1.02532,-2.77066 2.60234,-5.33754 3.51215,-8.14825c0.50099,-1.54773 0.30475,-3.25841 0.68437,-4.84029c1.42858,-5.95286 4.35695,-11.76822 6.11727,-17.61851c0.43637,-1.45026 1.43314,-2.77046 1.54059,-4.28112c0.05282,-0.74282 -1.78637,-1.6777 -1.09281,-1.9489c0.92423,-0.3614 1.67064,1.38058 2.66195,1.33427c2.20077,-0.10282 4.25562,-1.17795 6.3795,-1.76373c6.75369,-0.16943 12.28425,-1.69209 18.75721,-3.34409c3.92786,-1.00245 7.99342,-1.54117 11.87131,-2.72223c7.9917,-2.43398 15.59579,-6.45966 23.23986,-9.77077z" data-paper-data="{&quot;noHover&quot;:false,&quot;origItem&quot;:[&quot;Path&quot;,{&quot;applyMatrix&quot;:true,&quot;segments&quot;:[[[315.51387,160.87959],[0,0],[-6.56596,-2.80984]],[[295.74021,152.17916],[6.2245,3.54314],[-3.02038,-1.71928]],[[287.05974,146.40359],[2.93859,1.85563],[-4.84266,-3.058]],[[273.95096,136.7063],[4.08473,4.10636],[-1.61619,-0.97762]],[[269.10239,133.77345],[1.36071,1.31006],[-0.61291,-0.59009]],[[268.36624,131.3295],[0.76963,0.36268],[-0.57754,-0.27216]],[[267.79719,133.15838],[0.49375,-0.40476],[-1.00414,0.82315]],[[264.22911,134.72096],[1.16032,-0.5827],[-4.68071,2.35062]],[[249.67678,141.28175],[4.54914,-2.61764],[-1.20886,0.6956]],[[246.26423,143.70276],[1.2591,-0.59989],[-2.28655,1.08941]],[[239.12651,146.30836],[2.32967,-0.99388],[-4.62164,1.97168]],[[225.55162,152.86171],[4.64878,-1.90683],[-2.78576,1.14266]],[[217.23441,156.06474],[2.76122,-1.04939],[-0.2188,7.18219]],[[217.47301,177.53731],[-0.47527,-7.11665],[0.237,3.54883]],[[218.40249,188.24605],[-0.37362,-3.54617],[0.11079,1.05151]],[[219.00251,191.2537],[-0.35547,-0.91911],[0.74531,0.22392]],[[221.69043,193.91616],[-0.35911,-1.76261],[1.16536,0.43954]],[[225.40169,194.50243],[-1.22727,-0.24208],[6.2537,1.23353]],[[244.31414,196.75698],[-6.34543,-0.84898],[8.02772,1.08087]],[[268.28421,197.73818],[-8.07389,-0.17738],[10.71965,0.2355]],[[300.41666,198.21105],[-10.72727,0],[3.63158,0]],[[311.3114,198.21105],[-3.63037,-0.09378],[1.60475,0.04145]],[[316.0164,197.1837],[-0.97581,1.27465],[1.81218,-2.36715]],[[317.52573,187.86788],[-0.26532,2.79688],[0.66807,-7.04259]],[[318.45613,166.90842],[0,7.07313],[0.00252,-1.57612]],[[318.36542,162.17706],[0.0589,1.57778],[-0.94164,-0.45016]],[[315.51386,160.87958],[0.96118,0.41133],[0,0]]],&quot;closed&quot;:true,&quot;fillColor&quot;:[0,0,0,1]}]}" fill="#000000"/></g><path d="M137.44469,425.12227c0.20851,1.0217 0.50997,4.05934 -2.93698,5.14809c-4.17091,1.31741 -5.48833,-2.8535 -5.48833,-2.8535l-0.13577,-4.68338c2.3604,-4.47794 2.87022,-9.35943 4.12761,-14.18722c1.15983,-4.45321 2.6752,-9.02644 4.08936,-13.40828c5.14414,-15.82401 7.93083,-31.91218 12.56899,-47.96014c4.81686,-16.66625 11.45028,-32.89372 15.2592,-49.81051c0,0 0.96364,-4.26655 5.2302,-3.30291c4.26656,0.96364 3.30291,5.23021 3.30291,5.23021c-3.87107,17.08859 -10.49889,33.48682 -15.38995,50.31811c-1.42197,4.89335 -2.21307,9.94835 -3.31073,14.92449c-0.92412,4.18942 -2.97722,8.31722 -3.74649,12.53828c-1.27324,6.98638 -3.35118,13.86584 -5.59464,20.767c-2.90115,8.84882 -4.08241,18.78494 -7.97538,27.27975z" fill="#000000" stroke="none" stroke-width="0.5" stroke-linecap="butt"/><path d="M186.73522,389.223c0.09565,1.3279 -0.21215,3.52833 -3.03644,4.4204c-4.17091,1.31741 -5.48833,-2.8535 -5.48833,-2.8535l0.07716,-4.00926c0.83214,-1.39434 1.01806,-3.1414 1.0115,-4.76516c2.59572,-7.7172 4.48136,-15.57342 6.46817,-23.4549c1.6263,-6.45133 4.13665,-12.66104 5.92362,-19.04155c0.98856,-3.52971 1.15479,-7.26129 2.20385,-10.77349c4.18013,-13.99501 8.65542,-27.98296 14.20116,-41.52094c0,0 1.65809,-4.04757 5.70566,-2.38948c4.04757,1.65809 2.38948,5.70566 2.38948,5.70566c-5.44638,13.29501 -9.79656,27.02702 -13.92996,40.7607c-1.04125,3.45966 -1.19201,7.14052 -2.15897,10.62168c-1.74892,6.29633 -4.26664,12.41789 -5.85364,18.78168c-1.9114,7.66458 -3.58306,15.4248 -6.33751,22.84828c-0.06223,1.92277 -0.48728,3.85553 -1.17575,5.66991z" fill="#000000" stroke="none" stroke-width="0.5" stroke-linecap="butt"/><path d="M268.02498,194.55756c-1.48271,0.37751 -2.89154,-0.16896 -2.89154,-0.16896c-4.4855,-1.76159 -8.51383,-3.10846 -13.43351,-2.80751c-1.7913,0.10958 -3.52382,0.75677 -5.31586,0.85364c-2.69445,0.14564 -8.02408,-0.6572 -10.8322,-0.30541c-3.76062,0.47113 -7.59625,2.25714 -11.40799,2.67227c-3.83802,0.41798 -8.34244,-0.34342 -12.06441,1.27263c-4.42415,1.92094 -6.14226,10.04086 -6.78135,14.26705c-0.23692,5.07745 -0.27589,10.23679 -0.59379,15.29314c-0.23589,3.75202 -1.28609,7.43576 -1.37506,11.19414c-0.20018,8.4563 1.9932,16.96473 2.6283,25.37524c0.82757,10.95942 0.66511,21.52185 6.38713,31.21414c5.10795,5.34824 9.56309,7.21085 16.35344,9.69244c3.81459,1.39408 6.33702,2.48448 10.4679,2.40254c1.31644,-0.02611 6.68095,-1.13722 7.53197,-1.24599c2.29059,-0.29276 4.6517,-0.00809 6.82873,-0.97025c4.04173,-1.7863 7.58092,-4.1908 11.1632,-6.71936c4.06178,-2.867 9.08112,-4.56881 12.5328,-8.18474c1.30497,-3.14435 3.1779,-6.05129 3.32252,-9.54155c0.17231,-4.15888 -0.90245,-4.14393 -1.58756,-8.72803c-0.44094,-2.95034 -0.12154,-6.01682 -0.85472,-8.90842c-0.56121,-2.2134 -1.65088,-4.28265 -2.09199,-6.52307c-0.43738,-2.22152 -0.14979,-4.53937 -0.52561,-6.77212c-1.43738,-8.53968 -3.5902,-17.22262 -4.24023,-25.93538c-0.14839,-1.98908 0.49802,-6.08512 0.28543,-8.07645c-0.3153,-2.95337 -1.41335,-5.80547 -1.56654,-8.77167c-0.05258,-1.01823 0.37398,-2.04095 0.2291,-3.0502c-0.32101,-2.23637 -1.36504,-4.31984 -1.77164,-6.54224c-0.13217,-0.32862 -0.26435,-0.65725 -0.39652,-0.98587zM267.50795,185.93298c0.14648,-0.10784 0.30458,-0.21309 0.47506,-0.31522c3.75225,-2.24783 6.00008,1.50442 6.00008,1.50442l1.60296,2.79159c0.41605,1.07694 0.83211,2.15388 1.24817,3.23083c1.20534,6.58801 2.70508,13.01288 3.38015,19.70457c0.28633,2.83834 -0.4629,5.71081 -0.24043,8.55487c0.48886,6.24933 1.37631,13.27396 2.57202,19.42673c1.21234,6.23835 2.55138,12.17789 4.0624,18.33771c0.78103,3.18391 0.52872,6.54053 1.01845,9.78206c0.51979,3.44052 1.84005,6.83157 1.65705,10.30631c-0.27756,5.27042 -2.64582,9.27022 -4.75233,13.94296c-4.42058,4.75985 -9.55397,6.79272 -14.7423,10.48562c-4.0251,2.86495 -8.22506,5.79199 -12.85119,7.66675c-4.2237,1.71167 -4.69673,1.02368 -9.11884,1.59065c-2.89281,0.37088 -5.46999,1.25262 -8.41562,1.31491c-5.19031,0.10978 -8.93017,-1.20172 -13.70434,-2.9294c-1.34301,-0.48601 -6.82661,-2.0696 -8.50648,-2.9422c-4.70328,-2.4431 -8.23332,-5.87598 -11.81722,-9.68052c-2.70339,-4.47044 -5.92184,-10.29629 -6.59274,-15.58476c-0.14833,-1.16932 0.48828,-2.33738 0.40325,-3.51301c-0.21256,-2.93917 -1.55107,-5.72109 -1.78365,-8.65875c-0.21262,-2.68564 0.0392,-5.3943 -0.1676,-8.0804c-0.67063,-8.71042 -2.85758,-17.47092 -2.65137,-26.23799c0.046,-1.95572 1.24821,-9.26136 1.38391,-11.43672c0.32488,-5.20785 0.3673,-10.51032 0.62785,-15.74036c1.22451,-7.66157 4.06389,-17.33933 11.58939,-21.21257c4.54372,-2.33857 10.23828,-1.62857 15.02869,-2.13789c3.67871,-0.39113 7.41368,-2.19198 11.05698,-2.62751c3.84956,-0.46019 7.75797,0.44376 11.62875,0.22447c1.79178,-0.1015 3.52347,-0.7637 5.31587,-0.85363c5.93882,-0.298 10.8943,1.05953 16.29306,3.08647z" fill="#000000" stroke="none" stroke-width="0.5" stroke-linecap="butt"/><path d="M268.44511,195.49935c0.40661,2.2224 1.45434,4.30808 1.77536,6.54445c0.14487,1.00925 -0.2805,2.03276 -0.22792,3.051c0.15319,2.9662 1.25666,5.82266 1.57196,8.77602c0.21259,1.99133 -0.42925,6.09221 -0.28085,8.08129c0.65003,8.71276 2.81433,17.42855 4.2517,25.96824c0.37581,2.23275 0.08716,4.55997 0.52454,6.78148c0.44111,2.24042 1.52869,4.31685 2.0899,6.53026c0.73318,2.8916 0.40986,5.96625 0.85079,8.91658c0.68511,4.58411 1.75612,4.57457 1.58381,8.73344c-0.14461,3.49025 -2.02353,6.40352 -3.3285,9.54787c-3.45168,3.61593 -8.48233,5.32532 -12.54413,8.19231c-3.58228,2.52855 -7.13218,4.93682 -11.17391,6.72313c-2.17703,0.96216 -4.54407,0.67848 -6.83466,0.97124c-0.85102,0.10877 -6.22207,1.22014 -7.53851,1.24625c-4.13089,0.08193 -6.66249,-1.00957 -10.47708,-2.40365c-6.79035,-2.48159 -11.26114,-4.35048 -16.3691,-9.69872c-5.72201,-9.69229 -5.5793,-20.27755 -6.40687,-31.23698c-0.6351,-8.41051 -2.83071,-16.95211 -2.63054,-25.40842c0.08897,-3.75837 1.14446,-7.45442 1.38035,-11.20644c0.3179,-5.05635 0.36511,-10.22604 0.60205,-15.30349c0.63908,-4.22618 2.36741,-12.35367 6.79156,-14.27461c3.72197,-1.61605 8.23574,-0.8587 12.07376,-1.27668c3.81173,-0.41512 7.65776,-2.20325 11.41839,-2.67437c2.80813,-0.3518 8.14756,0.45109 10.84201,0.30545c1.79204,-0.09685 3.52909,-0.74337 5.3204,-0.85295c4.91968,-0.30096 8.95929,1.04957 13.44479,2.81117c0,0 1.41085,0.54746 2.89356,0.16995c0.13217,0.32862 0.26496,0.65756 0.39713,0.98618z" data-paper-data="{&quot;noHover&quot;:false,&quot;origItem&quot;:[&quot;Path&quot;,{&quot;applyMatrix&quot;:true,&quot;segments&quot;:[[[156.64206,273.67217],[0.02965,0.35296],[-1.52816,-0.07537]],[[153.92817,272.66008],[0,0],[-3.76882,-3.00315]],[[141.91496,266.02504],[4.79053,1.15959],[-1.74428,-0.42222]],[[136.58319,265.27713],[1.74124,0.4346],[-2.61807,-0.65344]],[[126.32013,261.79871],[2.78736,0.48984],[-3.73282,-0.65598]],[[114.63081,260.99683],[3.76519,0.72455],[-3.79116,-0.72955]],[[102.72585,258.66414],[4.03268,-0.44965],[-4.79348,0.53448]],[[92.04759,270.30503],[1.85403,-3.85118],[-1.72008,4.78309]],[[86.98126,284.74681],[1.79127,-4.7391],[-1.32919,3.51661]],[[82.37404,295.04113],[1.19064,-3.5659],[-2.67893,8.02324]],[[77.42137,320.06675],[1.86714,-8.22519],[-2.433,10.71794]],[[74.34357,351.77866],[-2.61763,-10.94669],[3.30863,6.61421]],[[87.12217,365.85295],[-5.75988,-4.36931],[3.23571,2.45454]],[[96.42013,371.22856],[-3.97221,-1.13689],[1.26587,0.3623]],[[103.98536,372.25339],[-0.84536,-0.14639],[2.27536,0.39402]],[[110.79736,373.33488],[-2.36374,0.27917],[4.38837,-0.5183]],[[123.44326,370.19674],[-4.1676,1.36286],[4.72545,-1.54528]],[[137.82923,366.06094],[-4.36265,2.44055],[2.17221,-2.62133]],[[143.81159,357.91897],[-1.16494,3.29328],[1.38811,-3.92417]],[[144.86182,349.11012],[-0.69372,4.58281],[0.44648,-2.9495]],[[146.66552,340.34444],[-0.14989,2.97934],[0.11474,-2.28055]],[[146.585,333.49458],[-0.23748,2.27105],[0.23548,-2.25189]],[[148.07482,326.86749],[-0.29763,2.24451],[1.13836,-8.58466]],[[151.65166,300.83233],[-1.94178,8.51846],[0.4433,-1.94472]],[[154.30032,293.19721],[-0.38261,1.96576],[0.56745,-2.91544]],[[155.38348,284.35283],[-0.72616,2.88002],[0.24928,-0.98865]],[[156.49973,281.50498],[-0.15843,1.00721],[0.35107,-2.23185]],[[156.73102,274.73106],[-0.26515,2.24368],[-0.02965,-0.35296]]],&quot;closed&quot;:true}]}" fill="#484230" stroke="none" stroke-width="0.5" stroke-linecap="butt"/><path d="M66.7806,287.23149c6.92481,-2.74851 14.79289,-2.04073 22.3071,-2.78709c3.05135,-0.30308 5.80209,-1.99838 8.75726,-2.81663c7.55047,-2.09063 15.42036,-3.2121 23.15435,-4.34877c5.32436,-0.78253 10.46033,-1.56273 14.69101,2.7592c2.17117,2.21801 3.17437,6.04981 4.13903,8.89317c-0.16214,6.22777 1.16582,12.10099 0.47431,18.44452c-1.7146,15.72883 -3.41155,31.40217 -4.06965,47.24419c-0.34239,8.24248 -1.23766,16.37844 -1.79342,24.58603c-0.15991,2.3615 -0.0851,4.82557 -0.91785,7.04114c-0.34708,2.62984 -0.045,5.32245 -0.4375,7.9459c-0.74657,4.99003 -2.51116,10.49234 -3.93417,15.30612c-3.92059,13.26255 -17.34702,22.63067 -30.45734,25.0734c-7.65158,1.42565 -15.85227,0.79251 -23.53255,0.04525c-7.82943,-2.50168 -18.14357,-1.16237 -24.75975,-6.82985c-3.19258,-2.7348 -8.05914,-8.22336 -9.5441,-12.23354c-1.05978,-2.86196 -0.61052,-6.07556 -1.06268,-9.09377c-2.51736,-16.80326 -1.12347,-34.90178 3.26987,-51.41991c2.25872,-9.5264 4.28392,-19.21109 6.17199,-28.78987c0.43029,-2.18299 -0.12961,-4.46497 0.14052,-6.67351c0.596,-4.87267 1.73284,-10.78112 3.32366,-15.43185c1.70629,-4.98831 5.12411,-9.43174 7.88296,-13.88895l0.78929,-1.27516c0,0 2.05051,-3.31283 5.40765,-1.75002zM66.31314,297.48552c-2.03586,3.0346 -4.21658,6.16486 -5.34359,9.51574c-1.39122,4.13642 -2.38193,9.3384 -2.90851,13.633c-0.29269,2.38696 0.21088,4.84568 -0.22297,7.21107c-1.79037,9.76105 -4.0024,19.65645 -6.29236,29.33986c-2.84842,10.45499 -4.3014,22.41275 -4.11786,33.17555c0.09205,5.39742 0.24937,9.62919 1.03826,14.94473c0.30705,2.06892 -0.13825,5.16151 0.59796,7.2195c0.99125,2.77092 4.97703,6.67012 6.97289,8.5721c1.65361,1.57583 3.60198,1.52499 5.78021,2.02351c5.06233,1.15861 10.12884,1.34109 15.08147,2.92357c6.51345,0.53256 13.54202,1.15967 20.0237,-0.03829c3.39265,-0.62704 7.13139,-2.00007 10.14248,-3.67333c2.50033,-1.38944 6.26051,-3.65856 8.28786,-5.734c3.47815,-3.56064 4.6912,-8.80938 5.95961,-13.28865c0.95551,-3.37435 2.57458,-6.79936 3.1078,-10.318c0.45144,-2.97897 0.23607,-6.03142 0.65445,-9.01521c0.69459,-1.50758 0.50841,-3.2848 0.61968,-4.94096c0.55967,-8.33024 1.45361,-16.5633 1.80637,-24.92097c0.67384,-15.9644 2.33328,-31.79382 4.10167,-47.64092c0.62513,-5.60199 -0.66737,-10.71348 -0.41829,-16.20613c-0.37655,-0.96155 -1.30829,-3.47568 -1.85275,-4.22194c-1.64655,-2.25685 -9.82736,0.38437 -11.71179,0.61014c-5.70096,0.68302 -11.83934,1.83902 -17.3961,3.39047c-3.41814,0.95433 -6.66073,2.69421 -10.18693,3.09454c-6.85266,0.77797 -17.49454,-1.25931 -23.03427,3.89114c0,0 -0.25736,0.2145 -0.68899,0.45353z" fill="#000000" stroke="none" stroke-width="0.5" stroke-linecap="butt"/><path d="M66.98426,296.98529c5.53973,-5.15045 16.19998,-3.11646 23.05265,-3.89444c3.5262,-0.40033 6.77644,-2.13953 10.19457,-3.09387c5.55675,-1.55145 11.70594,-2.70438 17.40691,-3.3874c1.88443,-0.22577 10.0712,-2.86407 11.71774,-0.60722c0.54445,0.74626 1.47824,3.26163 1.8548,4.22318c-0.24909,5.49266 1.04907,10.60834 0.42394,16.21033c-1.76839,15.8471 -3.41046,31.71254 -4.0843,47.67693c-0.35277,8.35767 -1.25466,16.61978 -1.81434,24.95002c-0.11127,1.65616 0.07202,3.43738 -0.62257,4.94496c-0.41839,2.98378 -0.20796,6.0416 -0.65939,9.02056c-0.53323,3.51865 -2.15865,6.94872 -3.11418,10.32307c-1.26841,4.47927 -2.48968,9.73246 -5.96784,13.2931c-2.02735,2.07545 -5.79432,4.34688 -8.29464,5.73632c-3.01108,1.67327 -6.75731,3.04768 -10.14996,3.67472c-6.48169,1.19796 -13.52429,0.57036 -20.03775,0.0378c-4.95263,-1.58249 -10.0293,-1.7679 -15.09164,-2.92651c-2.17823,-0.49852 -4.13037,-0.44941 -5.78398,-2.02524c-1.99585,-1.90198 -5.98785,-5.80494 -6.9791,-8.57586c-0.73621,-2.05798 -0.29378,-5.15276 -0.60083,-7.2217c-0.78889,-5.31554 -0.95293,-9.554 -1.04498,-14.95142c-0.18354,-10.7628 1.25798,-22.75033 4.1064,-33.20532c2.28997,-9.68341 4.51438,-19.61395 6.30475,-29.375c0.43386,-2.36538 -0.06552,-4.82833 0.22715,-7.21529c0.52658,-4.29461 1.52542,-9.50251 2.91664,-13.63894c1.12701,-3.35086 3.31453,-6.48445 5.35039,-9.51904c0.43163,-0.23903 0.68959,-0.45376 0.68959,-0.45376z" data-paper-data="{&quot;noHover&quot;:false,&quot;origItem&quot;:[&quot;Path&quot;,{&quot;applyMatrix&quot;:true,&quot;segments&quot;:[[[304.61697,234.7303],[0.42689,-0.24739],[-1.97638,3.07366]],[[299.45968,244.34827],[1.06155,-3.37217],[-1.31041,4.16273]],[[296.81718,258.03533],[0.44286,-4.30405],[-0.24615,2.39221]],[[296.73465,265.24937],[0.38772,-2.37338],[-1.59996,9.79406]],[[291.01479,294.70619],[2.10098,-9.72616],[-2.6443,10.50847]],[[287.54371,327.95563],[-0.39308,-10.75718],[0.19713,5.3946]],[[288.87276,342.87731],[-0.89224,-5.29917],[0.34728,2.06255]],[[289.61118,350.08379],[-0.77614,-2.04325],[1.04502,2.75109]],[[296.74966,358.5185],[-2.03251,-1.86276],[1.68398,1.54333]],[[302.56817,360.42907],[-2.18752,-0.45601],[5.08393,1.05982]],[[317.7037,363.05842],[-4.98251,-1.48575],[6.52259,0.40563]],[[337.72287,362.63024],[-6.45713,1.32394],[3.3798,-0.69298]],[[347.7919,358.76011],[-2.97793,1.73158],[2.4728,-1.43786]],[[355.96654,352.86582],[-1.98656,2.11453],[3.40816,-3.62769]],[[361.66628,339.46364],[-1.18095,4.50312],[0.88963,-3.39231]],[[364.57258,329.08708],[-0.46461,3.52837],[0.39335,-2.98719]],[[365.05136,320.06084],[-0.36021,2.99136],[0.6651,-1.52082]],[[365.57472,315.10875],[-0.079,1.65801],[0.39736,-8.33956]],[[366.89549,290.15733],[-0.18996,8.36296],[0.36286,-15.97449]],[[370.06873,242.44557],[-1.45948,15.87853],[0.51593,-5.6131]],[[369.33496,226.25065],[-0.14209,5.49647],[-0.3952,-0.95404]],[[367.40035,222.06559],[0.55888,0.73552],[-1.69018,-2.22436]],[[355.70266,222.90366],[1.87968,-0.26242],[-5.68658,0.7939]],[[338.37587,226.63221],[5.52549,-1.65935],[-3.39891,1.02071]],[[328.25113,229.92452],[3.51774,-0.46892],[-6.83621,0.91126]],[[305.29699,234.26344],[5.43839,-5.25734],[0,0]]],&quot;closed&quot;:true}]}" fill="#484230" stroke="none" stroke-width="0.5" stroke-linecap="butt"/><path d="M139.48921,182.64156c0.06812,0.89835 -0.00882,1.8047 -0.01553,2.81914c-0.03164,4.783 -0.19283,9.4566 -0.58695,14.18967c-0.22593,2.7132 0.79314,4.36124 -1.32444,6.05811c0,0 -0.42204,0.41893 -0.7604,1.0906c0.55261,-4.31793 1.16777,-8.67307 1.13658,-13.16837c0.59354,-2.9677 -0.1474,-6.3158 0.52938,-9.10892c0.16701,-0.68927 0.71327,-1.24354 1.02136,-1.88024z" data-paper-data="{&quot;noHover&quot;:false,&quot;origItem&quot;:[&quot;Path&quot;,{&quot;applyMatrix&quot;:true,&quot;selected&quot;:true,&quot;segments&quot;:[[[276.93268,369.14355],[0.33403,-1.37855],[-1.35357,5.58623]],[[275.89682,387.35944],[1.18708,-5.9354],[0.06238,8.99059]],[[273.61495,413.49879],[1.10522,-8.63586],[0.67673,-1.34335]],[[275.13001,411.3171],[0,0],[4.23516,-3.39375]],[[277.75887,399.2018],[-0.45185,5.42641],[0.78824,-9.46612]],[[278.93332,371.02041],[-0.06327,9.566],[0.01342,-2.02888]],[[278.96749,365.38252],[0.13623,1.7967],[-0.61618,1.2734]]],&quot;closed&quot;:true}]}" fill="#ffffff" stroke="none" stroke-width="0.5" stroke-linecap="butt"/><path d="M136.50519,209.19526c0.15529,0.55359 0.4863,1.13568 1.06787,1.71725c0.72696,0.72696 1.46291,1.05766 2.13523,1.15135c-0.26344,4.23212 -0.23607,8.54225 -1.26735,12.69478c-1.27849,5.14794 -4.45643,9.15628 -7.1724,13.44849c0.57342,-2.08114 1.0699,-4.24768 1.26333,-6.08023c0.0878,-0.83181 -0.27046,-1.69429 -0.0884,-2.51067c0.16836,-0.75493 0.85491,-1.30999 1.09776,-2.04435c1.00482,-3.03848 2.11963,-7.9124 2.59372,-10.99135c0.19553,-1.26983 -0.0787,-2.47354 0.01922,-3.7546c0.09091,-1.18938 0.2169,-2.4642 0.35103,-3.63069z" data-paper-data="{&quot;noHover&quot;:false,&quot;origItem&quot;:[&quot;Path&quot;,{&quot;applyMatrix&quot;:true,&quot;selected&quot;:true,&quot;segments&quot;:[[[272.31445,425.55207],[0.18183,-2.37876],[-0.19584,2.56212]],[[272.26082,433.26066],[0.39105,-2.53966],[-0.94818,6.1579]],[[267.12736,455.05443],[2.00965,-6.07695],[-0.48571,1.46872]],[[264.93268,459.14355],[0.33672,-1.50986],[-0.36413,1.63275]],[[265.09682,464.15944],[0.17559,-1.66362],[-0.38685,3.66509]],[[262.56499,476.31823],[1.14683,-4.16227],[5.43195,-8.58443]],[[276.78771,449.48359],[-2.55699,10.29589],[2.06257,-8.30507]],[[279.38248,424.22171],[-0.52688,8.46424],[-1.34464,-0.18736]],[[275.13001,421.92371],[1.45391,1.45391],[-1.16313,-1.16313]],[[273.00338,418.49027],[0.31058,1.10718],[-0.26825,2.33297]]],&quot;closed&quot;:true}]}" fill="#ffffff" stroke="none" stroke-width="0.5" stroke-linecap="butt"/><path d="M113.89527,250.41678c-0.25886,-0.10752 -0.45728,-0.12766 -0.51648,-0.25707c-0.55482,-1.21266 -0.02731,-2.66733 -0.02374,-4.00088c0.0107,-4.00583 0.30037,-7.73792 0.5827,-11.69201c0.23073,-3.23146 -0.13022,-6.53439 0.51666,-9.70883c0.68926,-3.38244 2.08998,-6.55646 2.44789,-10.05896c0.59879,-5.85972 0.90505,-11.75328 2.34728,-17.53446c1.11393,-4.46517 3.27119,-8.57761 4.7293,-12.9183c1.02058,-3.08925 2.31576,-7.36054 5.51601,-9.05416c-2.35027,6.99074 -4.96078,14.57889 -6.18063,21.73457c-1.05612,6.19527 -2.45239,12.51958 -3.01261,18.76688c-0.09575,1.06773 0.27832,2.26827 0.03378,3.31202c-0.32423,1.38393 -1.31507,2.53913 -1.73046,3.89848c-0.0994,0.32526 -1.15712,6.87731 -1.26581,7.48131c-0.62979,3.49983 -1.81041,6.36998 -1.84936,9.9666c-0.38738,2.27068 -1.7626,6.84541 -1.59452,10.0648z" data-paper-data="{&quot;noHover&quot;:false,&quot;origItem&quot;:[&quot;Path&quot;,{&quot;applyMatrix&quot;:true,&quot;selected&quot;:true,&quot;segments&quot;:[[[230.95887,480.8018],[-0.77476,4.54136],[0.0779,-7.19323]],[[234.6562,460.8683],[-1.25958,6.99965],[0.21738,-1.20801]],[[237.2359,445.71158],[-0.19879,0.65053],[0.83079,-2.71869]],[[240.68648,437.91241],[-0.64847,2.76785],[0.48907,-2.08751]],[[240.56982,431.48137],[-0.1915,2.13546],[1.12044,-12.49462]],[[246.64098,393.75415],[-2.11225,12.39054],[2.43969,-14.31136]],[[258.96851,350.48195],[-4.70055,13.98147],[-6.4005,3.38723]],[[247.94844,368.59211],[2.04116,-6.1785],[-2.91622,8.68138]],[[238.51216,394.4283],[2.22785,-8.93034],[-2.88446,11.56235]],[[233.89682,429.35944],[1.19758,-11.71944],[-0.71582,7.00501]],[[228.95871,449.42933],[1.37853,-6.76488],[-1.29376,6.34889]],[[227.90776,468.83901],[0.46145,-6.46292],[-0.56464,7.90817]],[[226.73332,492.2204],[0.02141,-8.01166],[-0.00713,2.6671]],[[226.77837,500.22162],[-1.10964,-2.42532],[0.11841,0.25881]],[[227.77117,500.93167],[-0.51773,-0.21505],[-0.33617,-6.43877]]],&quot;closed&quot;:true}]}" fill="#ffffff" stroke="none" stroke-width="0.5" stroke-linecap="butt"/></g></g></svg>