<svg version="1.1" xmlns="http://www.w3.org/2000/svg" xmlns:xlink="http://www.w3.org/1999/xlink" width="1130.29281" height="475.75324" viewBox="0,0,1130.29281,475.75324"><g transform="translate(330.13427,50.50751)"><g data-paper-data="{&quot;isPaintingLayer&quot;:true}" fill-rule="nonzero" stroke="none" stroke-linecap="butt" stroke-linejoin="miter" stroke-miterlimit="10" stroke-dasharray="" stroke-dashoffset="0" style="mix-blend-mode: normal"><path d="M-330.13427,57.50003c0,-6.90356 5.59644,-12.5 12.5,-12.5c6.90356,0 12.5,5.59644 12.5,12.5c0,6.90356 -5.59644,12.5 -12.5,12.5c-6.90356,0 -12.5,-5.59644 -12.5,-12.5z" fill="#262429" stroke-width="0.5"/><path d="M-173.9781,169.69505c0,-1.38071 1.11929,-2.5 2.5,-2.5c1.38071,0 2.5,1.11929 2.5,2.5c0,1.38071 -1.11929,2.5 -2.5,2.5c-1.38071,0 -2.5,-1.11929 -2.5,-2.5z" data-paper-data="{&quot;index&quot;:null}" fill="#252525" stroke-width="0.5"/><path d="M787.65854,68.49853c-6.90356,0 -12.5,-5.59644 -12.5,-12.5c0,-6.90356 5.59644,-12.5 12.5,-12.5c6.90356,0 12.5,5.59644 12.5,12.5c0,6.90356 -5.59644,12.5 -12.5,12.5z" data-paper-data="{&quot;index&quot;:null}" fill="#262429" stroke-width="0.5"/><path d="M-105.02404,410.50751v-461.01502h694.19863v461.01502z" data-paper-data="{&quot;index&quot;:null}" fill="#1a2026" stroke-width="0"/><path d="M-64.35505,424.95383c-58.78198,-2.43282 -77.31453,-358.32809 -77.31453,-358.32809l98.15109,71.34756l667.26335,159.41887l-25.53784,69.88682c0,0 -539.97142,62.74853 -662.56207,57.67484z" data-paper-data="{&quot;index&quot;:null}" fill="#0e1414" stroke-width="0"/><g><g><path d="M167.75005,238.88458c-0.7164,5.72381 -1.08752,10.55333 -3.55695,15.82512c-5.58605,9.76402 -17.65697,15.14834 -28.33163,17.04013c-6.98048,1.23711 -14.35034,1.89968 -21.37836,2.24748c-3.35707,0.16613 -6.67543,-0.79333 -10.01059,-1.21076c-11.72018,-1.4669 -22.52927,-4.12597 -33.97789,-7.03559c-6.68996,-1.88155 -14.67693,-5.94384 -20.00564,-10.58791c-0.54091,-0.47141 -5.20535,-6.66394 -5.64208,-7.16193c-2.593,-2.95671 -4.01184,-2.81375 -5.43365,-7.32377c-1.42916,-4.53329 0.46228,-8.90467 1.38235,-13.18481c0.36484,-1.69719 0.11407,-3.53041 0.71708,-5.15828c2.75247,-7.43039 9.2543,-13.36736 13.61141,-19.92844c-0.09931,-0.0474 -0.19856,-0.09489 -0.29777,-0.14247c-14.16395,-7.65085 -26.95559,-15.92303 -34.10159,-31.10173c-2.29293,-4.87038 -2.8278,-11.76941 -3.6832,-17.01111c-2.84064,-17.40682 -0.69724,-36.50235 7.20713,-52.55893c2.63154,-16.31767 8.60017,-32.95869 2.88299,-49.11649l-0.89971,-4.46064c0,0 -0.24808,-1.24143 0.3418,-2.32747c-0.77135,-0.59429 -1.91428,-1.89423 -0.93396,-3.94316c1.39864,-2.92323 4.32186,-1.52459 4.32186,-1.52459c6.70341,3.24145 11.47334,8.26295 18.42726,11.21493l0.46013,0.008c0.2242,-0.14785 0.38084,-0.22048 0.38084,-0.22048c10.88245,-5.04163 21.42293,-10.70834 32.1515,-16.07097c3.96183,-1.98029 7.9771,-4.73956 12.19426,-6.06756c3.24408,-1.02157 6.77453,-1.0242 9.95956,-2.21719c6.5041,-2.43618 12.6662,-4.88703 19.68055,-5.42065l3.09141,0.37368c0.53957,-0.01007 1.03208,0.13123 1.40704,0.28707c0.39067,0.14806 0.86129,0.39267 1.25381,0.78961c9.06766,6.95955 14.42752,17.29927 23.35036,24.72494l1.67068,1.09788c8.90958,-1.4348 17.52366,-5.38371 25.22396,-10.08536c9.27141,-5.66095 19.17609,-13.0334 30.41322,-11.8965l2.71153,0.33938c0,0 0.60747,0.07603 1.26129,0.42604c0.40495,-0.1162 0.88397,-0.15754 1.45022,-0.08667c3.2155,0.40245 2.81305,3.61796 2.81305,3.61796c-0.11894,0.9503 -1.44952,11.65082 -1.52926,11.96607c-1.58417,6.26291 -4.6956,12.05691 -7.06161,18.0918c10.0322,1.1367 20.18535,2.00247 29.78181,5.19393l2.83544,1.77353c0.92399,0.34871 1.40728,0.99692 1.65666,1.63448c0.32162,0.60996 0.49632,1.40653 0.14597,2.34238c-0.99884,5.59511 -4.4249,10.2703 -6.90561,15.43718c-3.09729,6.45105 -6.13565,13.24963 -8.9498,19.79866c-4.57507,10.64701 -4.50931,24.41599 -11.69084,33.7812c-3.7044,6.65757 -5.04114,14.01296 -6.47486,21.37886c-0.86881,4.46362 -2.42906,8.39335 -3.01809,12.92522l-2.09705,5.00126c0,0 -0.89907,2.10992 -2.95949,2.02338c-5.33032,11.39848 -12.90435,21.54705 -23.60141,29.00125c-3.91978,3.4432 -8.40491,5.92812 -13.20335,7.66756c4.15644,5.90907 3.93956,12.00154 2.95918,19.83452zM49.86088,221.33636c-0.70268,1.12288 -1.82368,2.01314 -2.27413,3.25883c-0.49393,1.36596 -0.17772,2.90939 -0.47073,4.33205c-0.6268,3.04336 -2.49723,6.60464 -1.50235,9.86313c0.69555,2.27809 2.60457,3.22393 4.05493,4.87983c1.81712,2.07462 2.93525,4.77624 5.03258,6.56711c4.6107,3.937 11.6526,7.72619 17.44485,9.24641c11.18366,2.84207 21.68763,5.43953 33.13139,6.87185c2.99178,0.37446 5.96082,1.35306 8.97007,1.16487c6.7593,-0.42272 13.75644,-0.98087 20.48227,-2.1522c8.25422,-1.4375 19.55714,-5.72224 23.70157,-13.62633c2.16678,-4.40461 2.27968,-8.8043 2.8877,-13.66225c0.86658,-6.92367 1.61462,-11.93787 -3.26772,-17.09411c-7.03683,1.54314 -14.4615,1.81819 -21.58475,1.40705c-25.69401,-1.48303 -51.7052,-6.98356 -75.38148,-17.27086c-3.53628,5.62525 -7.67086,10.53627 -11.22424,16.21463zM218.07668,115.12797c3.40745,-10.25169 8.19536,-20.66534 12.8842,-30.49722c1.8541,-3.8878 5.01567,-7.97847 6.07685,-12.17139l-0.03492,-0.02598c-10.40302,-3.48013 -21.5867,-4.01538 -32.42366,-5.37174c-1.11673,-0.13977 -1.79707,-0.61884 -2.20946,-1.18467c-0.44674,-0.53912 -0.74336,-1.31655 -0.60359,-2.43329c0.01891,-0.15107 0.04403,-0.29417 0.07474,-0.42971l0.15148,-0.87098c2.35549,-7.06274 6.24741,-13.64587 8.08357,-20.83272c0.65424,-2.56078 0.82975,-5.21128 1.04209,-7.85522l-2.29664,-0.28745c-2.10754,-0.34197 -4.29544,0.32934 -6.33078,0.97435c-7.37886,2.33844 -13.22447,5.97005 -19.90727,10.02712c-8.56103,5.19731 -18.05113,9.46178 -27.94545,11.00821c0,0 -0.68419,0.10606 -1.4691,-0.09612c-1.18499,0.0844 -2.18103,-0.57985 -2.18103,-0.57985l-2.81838,-1.90168c-4.16807,-3.47765 -5.09812,-4.03997 -9.00303,-8.31863c-5.03567,-5.51764 -7.97949,-11.5286 -13.9007,-16.0677l-2.21711,-0.28898c-6.14269,0.41935 -11.75718,2.9851 -17.43579,5.08083c-3.16116,1.16665 -6.64921,1.19422 -9.86953,2.18597c-3.96104,1.21986 -7.73717,3.89436 -11.46421,5.75699c-10.78592,5.39038 -21.38525,11.07994 -32.32318,16.15364c0,0 -0.35923,0.16654 -0.88477,0.2576c-1.04503,0.68578 -2.32123,0.52605 -2.32123,0.52605l-2.90151,-0.48881c-3.9917,-1.70683 -6.12192,-2.37768 -9.75359,-4.97612c-1.05021,-0.75141 -1.95356,-1.4879 -2.81984,-2.20059l0.10637,0.53781c4.16939,11.8544 2.5704,23.71101 0.29672,35.59008c0.17946,-0.2643 0.35942,-0.5283 0.53999,-0.79193c-0.75619,4.78198 -1.2288,9.60573 -1.74653,14.42342c-0.69882,1.17057 -1.35974,2.36462 -1.98332,3.57951c-0.11863,0.81212 -0.22895,1.6244 -0.32937,2.43684c0,0 -0.25998,2.07721 -2.03159,2.68359c-5.73253,13.91632 -7.05241,29.90552 -4.68594,44.44592c0.76576,4.70511 1.17735,11.17739 3.26006,15.5289c6.56067,13.70742 18.26047,20.9118 31.06736,27.83446c24.53623,11.75739 51.97635,17.80773 79.08333,19.4344c6.19138,0.37154 12.75919,0.20653 18.99987,-1.05486c1.20401,-1.44482 2.70153,-1.17726 3.54838,-0.85034c5.3843,-1.50524 10.4074,-3.95157 14.58293,-7.72597c20.61256,-14.27731 28.57468,-39.40566 31.5922,-63.26472c1.34127,-1.2697 2.75434,-3.6921 4.03101,-6.40304c1.43203,-1.20864 2.60588,-2.72791 3.40966,-4.4708c-0.02474,0.62601 -0.05491,1.2526 -0.0902,1.87972c2.87505,-5.78374 3.12342,-12.80483 5.15095,-18.90489z" fill="#000000" stroke-width="0.5"/><path d="M49.79913,221.31662c3.55338,-5.67837 7.69884,-10.60983 11.23512,-16.23508c23.67629,10.28729 49.79675,15.79993 75.49076,17.28296c7.12325,0.41114 14.55129,0.14457 21.58812,-1.39857c4.88234,5.15625 4.13733,10.18971 3.27075,17.11337c-0.60802,4.85795 -0.72274,9.27322 -2.88952,13.67783c-4.14443,7.90408 -15.46109,12.21572 -23.71532,13.65323c-6.72584,1.17132 -13.74923,1.74794 -20.50853,2.17067c-3.00925,0.18819 -5.99647,-0.78638 -8.98825,-1.16084c-11.44376,-1.43231 -22.00615,-4.05798 -33.18981,-6.90005c-5.79226,-1.52023 -12.84349,-5.33045 -17.4542,-9.26745c-2.09733,-1.79087 -3.217,-4.50151 -5.03412,-6.57613c-1.45036,-1.6559 -3.3597,-2.60766 -4.05525,-4.88574c-0.99488,-3.25848 0.87644,-6.831 1.50324,-9.87436c0.29301,-1.42266 -0.02219,-2.97092 0.47175,-4.33688c0.45044,-1.24569 1.57262,-2.14008 2.2753,-3.26296z" data-paper-data="{&quot;noHover&quot;:false,&quot;origItem&quot;:[&quot;Path&quot;,{&quot;applyMatrix&quot;:true,&quot;segments&quot;:[[[198.90219,248.3042],[0,0],[-0.43031,0.92688]],[[197.47359,251.01669],[0.22546,-0.99672],[-0.24723,1.09295]],[[197.5283,254.37794],[0.08799,-1.11711],[-0.18823,2.38972]],[[197.32325,262.07202],[-1.07377,-2.39902],[0.7507,1.67722]],[[200.8948,265.41899],[-1.26889,-1.12862],[1.58976,1.41401]],[[205.37639,269.96389],[-1.77707,-1.16995],[3.90666,2.57199]],[[219.61618,275.37056],[-4.57958,-0.60877],[8.8333,1.10408]],[[245.63639,277.4566],[-8.89734,0],[2.32606,0]],[[252.61451,277.48888],[-2.28553,0.43238],[5.13369,-0.9712]],[[268.08733,273.87899],[-5.03635,1.54104],[6.18082,-1.89123]],[[284.92516,261.17731],[-2.41524,6.44759],[1.23665,-3.57929]],[[285.8267,250.4423],[0,3.77697],[0,-5.38304]],[[281.68751,237.66997],[4.23141,3.47929],[-5.23879,1.85546]],[[265.29936,240.81508],[5.49218,-0.36775],[-19.81065,1.32648]],[[205.94072,234.81664],[19.10963,5.60643],[-2.16804,4.64489]],[[198.90217,248.3042],[2.17604,-4.68719],[0,0]]],&quot;closed&quot;:true,&quot;fillColor&quot;:[0,0,0],&quot;strokeWidth&quot;:0.5}]}" fill="#667eff" stroke-width="0.25"/><path d="M218.14144,115.12507c-2.02752,6.10005 -2.2768,13.13516 -5.15185,18.91891c0.03529,-0.62712 0.06569,-1.25511 0.09042,-1.88111c-0.80378,1.74289 -1.97832,3.26591 -3.41034,4.47456c-1.27669,2.71094 -2.69117,5.13883 -4.03244,6.40852c-3.01752,23.85907 -11.01119,49.02566 -31.62375,63.30297c-4.17553,3.7744 -9.20849,6.22497 -14.59278,7.73021c-0.84685,-0.32692 -2.34663,-0.59376 -3.55064,0.85105c-6.24068,1.26139 -12.82067,1.42875 -19.01205,1.05721c-27.10698,-1.62667 -54.59669,-7.69346 -79.13292,-19.45085c-12.80689,-6.92266 -24.52142,-14.14658 -31.08208,-27.85401c-2.08271,-4.35151 -2.49772,-10.83223 -3.26348,-15.53734c-2.36647,-14.5404 -1.04942,-30.55647 4.68312,-44.47278c1.7716,-0.60637 2.03181,-2.68546 2.03181,-2.68546c0.10042,-0.81244 0.21099,-1.62632 0.32961,-2.43844c0.62358,-1.21489 1.28495,-2.41148 1.98377,-3.58205c0.51774,-4.8177 0.99288,-9.65057 1.74908,-14.43255c-0.18056,0.26362 -0.36073,0.5282 -0.54018,0.79251c2.27367,-11.87908 3.8814,-23.75239 -0.288,-35.60679l-0.10625,-0.53798c0.86627,0.7127 1.7696,1.44923 2.8198,2.20064c3.63168,2.59844 5.76253,3.26843 9.75424,4.97526l2.90205,0.48811c0,0 1.27694,0.15878 2.32197,-0.527c0.52554,-0.09106 0.88508,-0.258 0.88508,-0.258c10.93793,-5.0737 21.55595,-10.77884 32.34187,-16.16922c3.72704,-1.86263 7.51158,-4.54103 11.47262,-5.76089c3.22032,-0.99174 6.71533,-1.02153 9.87649,-2.18818c5.67861,-2.09573 11.30591,-4.66341 17.44859,-5.08277l2.21868,0.28891c5.9212,4.5391 8.87657,10.55079 13.91224,16.06843c3.9049,4.27866 4.8442,4.8431 9.01227,8.32075l2.82129,1.90265c0,0 0.99801,0.665 2.18301,0.58059c0.78491,0.20218 1.4703,0.09662 1.4703,0.09662c9.89432,-1.54643 19.39754,-5.80347 27.95858,-11.00078c6.6828,-4.05707 12.53293,-7.68505 19.9118,-10.02348c2.03535,-0.64502 4.22491,-1.31481 6.33245,-0.97285l2.29738,0.28816c-0.21234,2.64394 -0.38595,5.29636 -1.04019,7.85714c-1.83616,7.18685 -5.72378,13.77505 -8.07927,20.83778l-0.15123,0.87131c-0.03071,0.13553 -0.05571,0.27881 -0.07462,0.42989c-0.13977,1.11674 0.1578,1.89547 0.60455,2.43459c0.41239,0.56583 1.09363,1.04618 2.21036,1.18595c10.83696,1.35636 22.02658,1.90251 32.4296,5.38263l0.03493,0.02601c-1.06118,4.19293 -4.22088,8.2885 -6.07498,12.1763c-4.68884,9.83188 -9.47347,20.2632 -12.88093,30.51489z" data-paper-data="{&quot;noHover&quot;:false,&quot;origItem&quot;:[&quot;Path&quot;,{&quot;applyMatrix&quot;:true,&quot;segments&quot;:[[[317.49428,150.88584],[0,0],[1.62617,-8.17405]],[[324.43511,126.30603],[-2.64728,7.97546],[1.04681,-3.15372]],[[327.92075,116.40671],[-0.4106,3.31132],[0,0]],[[327.89153,116.39016],[0,0],[-8.29686,-1.6673]],[[302.55681,115.38463],[8.42556,0],[-0.86824,0]],[[300.75198,114.68946],[0.36989,0.39363],[-0.39363,-0.36989]],[[300.05681,112.88463],[0,0.86824],[0,-0.11746]],[[300.07285,112.54853],[-0.01052,0.10669],[0,0]],[[300.10536,111.86729],[0,0],[1.12643,-5.63215]],[[304.2973,95.14552],[-0.717,5.6774],[0.25547,-2.02294]],[[304.34241,89.03257],[0.09077,2.04426],[0,0]],[[302.55681,89.03257],[0,0],[-1.64607,-0.05985]],[[297.804,90.38498],[1.49624,-0.68876],[-5.42442,2.49702]],[[283.52583,99.96797],[4.72693,-3.74593],[-6.05545,4.79873]],[[263.1885,111.07211],[7.42586,-2.13175],[0,0]],[[262.05471,111.13928],[0.62021,0.07957],[-0.89902,0.17814]],[260.32959,110.90437],[[257.98994,109.71868],[0,0],[-3.52382,-2.26277]],[[250.30119,104.21341],[3.39911,2.90115],[-4.38341,-3.74125]],[[238.12088,93.24553],[4.96752,2.90734],[0,0]],[[236.39601,93.23674],[0,0],[-4.662,0.90954]],[[223.53584,98.79659],[4.14614,-2.14833],[-2.30807,1.19593]],[[216.19023,101.41553],[2.37011,-1.06771],[-2.91527,1.3133]],[[207.96604,106.92084],[2.67456,-1.78291],[-7.74009,5.15968]],[[184.77057,122.38319],[7.88679,-4.93183],[0,0]],[[184.11797,122.66515],[0.39357,-0.12006],[-0.73426,0.62508]],[182.39149,123.29023],[[180.12357,123.19404],[0,0],[-3.21915,-0.92412]],[[172.18051,120.31934],[3.02898,1.64114],[-0.87592,-0.47458]],[[169.81111,118.90497],[0.73141,0.46257],[0,0]],[[169.94406,119.30647],[0,0],[4.3274,8.67498]],[[173.58107,146.52197],[0.60235,-9.31118],[0.11205,-0.21952]],[[173.91855,145.86402],[-0.11296,0.2191],[-0.1207,3.73302]],[[173.96349,157.07237],[-0.06526,-3.73751],[-0.42279,0.96301]],[[172.78823,160.00248],[0.36095,-0.98974],[-0.013,0.63304]],[[172.76957,161.89942],[-0.00097,-0.63154],[0,0]],[[171.47152,164.14833],[1.29805,-0.63391],[-3.05489,11.20206]],[[172.14281,198.62029],[-3.20462,-10.90383],[1.03698,3.52836]],[[176.12618,210.19519],[-2.01122,-3.1315],[6.33544,9.86435]],[[202.5748,228.5257],[-10.46683,-4.07222],[19.90876,6.64938]],[[264.97447,235.82564],[-20.90603,1.35191],[4.77505,-0.30878]],[[279.41765,233.19778],[-4.65634,1.5635],[0.78323,-1.22135]],[[282.05244,232.20688],[-0.67958,-0.16912],[3.97742,-1.66812]],[[292.47533,224.89553],[-2.83471,3.28933],[14.41085,-12.90405]],[[310.59754,173.44005],[-0.02396,18.55303],[0.90508,-1.10045]],[[313.06978,168.15236],[-0.71756,2.19752],[0.98041,-1.06241]],[[315.2515,164.40332],[-0.4483,1.41118],[0.04104,0.48157]],[[315.36255,165.85088],[-0.03307,-0.48344],[1.64669,-4.70287]],[[317.49429,150.88583],[-0.96761,4.8638],[0,0]]],&quot;closed&quot;:true,&quot;fillColor&quot;:[0,0,0],&quot;strokeWidth&quot;:0.5}]}" fill="#66ecff" stroke-width="0.25"/></g><path d="M79.22758,109.42528c1.23409,1.12443 0.97246,2.95585 0.97246,2.95585l-0.37921,2.58884c-0.87335,2.93197 -1.17237,7.34301 -3.39201,9.67257c-0.00833,0.00874 -0.01666,0.01747 -0.02501,0.0262l0.00699,0.0042l-1.97826,3.2971c-0.5737,0.995 -1.64833,1.66475 -2.87938,1.66475c-1.83435,0 -3.32139,-1.48704 -3.32139,-3.32139v-2.00958h0.13237l-0.12105,-0.27395c0.15773,-0.94641 0.28229,-1.88122 0.39163,-2.80957c-1.01113,-1.68553 -0.20314,-3.06168 0.40653,-3.76162c0.21697,-1.97385 0.47622,-3.9501 0.95497,-5.97943c0.34469,-1.46108 0.33394,-3.21341 1.38491,-4.28535c0.41085,-0.41905 0.88026,-0.75929 1.38462,-1.05252c0.4485,-1.30363 1.68561,-2.24035 3.14149,-2.24035c1.83435,0 3.32139,1.48704 3.32139,3.32139v2.00958c-0.00023,0.0637 -0.00059,0.12814 -0.00106,0.1933z" fill="#ffffff" stroke-width="0.5"/><path d="M158.66885,159.06088c0.12841,-0.56961 0.24372,-1.22017 0.36327,-2.07573c0.04275,-0.30591 0.54894,-6.67921 0.72981,-7.00788c0.06912,-0.12561 0.14006,-0.25004 0.21266,-0.37337l-0.08562,-0.03293l1.64681,-4.28172c0.45955,-1.28332 1.68647,-2.20145 3.12783,-2.20145c1.69161,0 3.08786,1.26461 3.29491,2.90002l0.32802,2.29616l-0.22141,0.03163l0.25479,0.43809c-0.20986,1.57726 -0.12148,3.18669 -0.35981,4.75991c-0.17644,1.16467 -0.46955,2.25243 -0.84437,3.29783l0.19939,0.98537c-0.02759,2.67753 -0.33899,7.6648 -2.74804,9.45653c-0.19285,0.14343 -0.39327,0.27284 -0.59995,0.39064l0.09187,0.11484l-1.65399,1.32319c-0.5716,0.46536 -1.30098,0.74435 -2.09551,0.74435c-1.83435,0 -3.32139,-1.48704 -3.32139,-3.32139c0,-0.15745 0.01096,-0.31234 0.03214,-0.46394l0.32843,-2.62746l0.12537,0.01567l-0.06874,-0.33842c0.21608,-0.65467 0.40002,-1.18706 0.56022,-1.65728c-0.03139,-1.04236 0.44533,-1.90045 0.44533,-1.90045c0.08883,-0.1594 0.17476,-0.31674 0.25793,-0.47221z" fill="#ffffff" stroke-width="0.5"/></g><g stroke-width="0.5"><path d="M450.92857,272.96646c1.34668,1.89166 1.92655,4.27635 3.36363,6.10029c1.80143,2.28636 4.14615,4.139 5.76851,6.55572c3.41911,5.0932 5.52808,11.10296 7.96195,16.58722c1.11989,2.52346 2.42917,5.01703 3.01021,7.71599c1.70507,8.54094 2.35319,18.04614 1.45267,26.79942c-0.30339,2.94898 -1.5378,5.73057 -2.11732,8.63792c-0.18846,0.94548 0.19356,1.95244 -0.02181,2.89216c-0.55523,2.42265 -2.25335,4.49174 -2.76923,6.92308c-0.20356,0.95938 0.21887,1.99521 -0.03701,2.94197c-0.48221,1.78421 -3.67104,7.33349 -4.71019,8.37264c-2.36783,2.36783 -6.80322,3.55756 -9.6533,5.3431c-3.04355,1.90675 -5.81116,3.61763 -9.06753,5.2169c-4.3153,1.11396 -8.55425,2.42103 -12.84522,3.58315c-2.47231,0.66957 -5.09018,0.69489 -7.56104,1.3698c-1.31049,0.35796 -2.46867,1.21014 -3.80302,1.46513c-5.57497,1.06535 -12.47685,0.07669 -18.1114,0.07669c-13.31945,0 -27.02069,0.70464 -40.16023,-1.44244c-3.41173,-0.57133 -6.93557,-0.79823 -10.2754,-1.36787c-3.23891,-0.55243 -6.24812,-2.05375 -9.43499,-2.85347c-5.00928,-1.25705 -10.29704,-1.40791 -15.29714,-2.78628c-2.35854,-0.65017 -4.41526,-2.23369 -6.80869,-2.74055c-1.18042,-0.24998 -2.46749,0.31809 -3.61956,-0.04052c-1.59468,-0.49639 -2.89695,-1.66418 -4.37221,-2.44714c-2.43147,-1.29045 -5.18981,-2.04974 -7.36296,-3.73933c-3.1685,-2.46346 -7.69987,-7.6619 -9.63116,-11.25384c-1.62344,-3.01938 -1.85168,-7.83905 -2.49775,-11.15977c-0.01688,-4.29578 -0.34266,-8.89035 -0.00999,-13.1816c0.22001,-2.8381 1.15866,-5.58838 1.39461,-8.4252c0.38939,-4.68164 -0.26961,-9.61532 0.74831,-14.23108c0.46978,-2.13024 1.72665,-4.05361 2.0725,-6.20744c1.00155,-6.23733 2.80173,-12.74817 3.40996,-19.02302c0.25499,-2.63064 0.30323,-5.28692 0.72945,-7.8953c0,0 0.00578,-0.0347 0.01946,-0.09727c-1.66252,-0.28603 -3.21893,-0.83154 -5.815,-2.60085c-4.32422,-2.9471 -7.66533,-7.12604 -11.50934,-10.67679c-2.22383,-2.05418 -4.64878,-3.92942 -6.57688,-6.26342c-1.91548,-2.31872 -3.25372,-5.0592 -4.87126,-7.59475c-3.7293,-5.84579 -5.56341,-7.97667 -7.78874,-14.39493c-0.49301,-1.42193 -0.95304,-2.85227 -1.38131,-4.29007c-1.24275,1.02062 -2.88475,1.02062 -2.88475,1.02062h-1.38462c-6.26541,0 -13.12805,0.79673 -19.21159,-0.72415c-5.16363,0.03367 -9.65383,-1.25896 -14.71584,-2.10257c-5.82994,-0.97159 -11.18541,-2.05946 -16.92007,-3.5237c-1.35122,-0.34501 -2.81704,-0.31906 -4.08659,-0.89617c-8.29482,-3.77065 -14.95416,-11.07438 -20.87653,-17.65421c-2.25648,-2.50698 -3.40117,-2.8208 -5.35885,-6.21746c-2.84898,-4.9431 -3.69249,-9.65047 -5.30186,-14.88814c-0.59424,-1.93394 -1.62819,-3.72516 -2.1168,-5.68845c-1.70078,-6.83406 -2.29854,-14.44092 -2.92945,-21.4247c-1.09839,-14.66485 -1.3751,-29.46498 2.29524,-43.82071c3.24592,-12.69571 10.97724,-25.47269 18.63161,-35.88672c5.69738,-7.75148 10.83024,-15.54726 17.93393,-22.14939c8.93417,-8.30337 20.09152,-14.23808 30.09085,-21.11416c15.08237,-10.34337 31.85196,-17.66346 49.15817,-23.42652c7.81387,-2.60206 15.8927,-5.04853 24.0593,-6.32791c6.19024,-0.96977 12.82128,-0.73134 19.07924,-0.73197c6.63302,-0.00066 13.95516,-0.38799 20.57051,0.01069c8.85511,0.53367 17.89215,2.64545 26.62425,4.1883c8.12083,0.9509 16.6291,1.53128 24.63715,3.2523c27.11577,5.82749 53.47232,23.07398 65.80665,48.26602c5.80943,11.86537 9.06884,25.49585 11.75004,38.34455c4.18025,20.08501 5.0987,39.53372 3.89284,59.97084c-0.57892,9.81177 -0.92891,19.66726 -2.11263,29.43384c-1.51212,12.47615 -4.93181,25.35898 -8.47056,37.39701c-1.90146,6.46835 -4.98935,12.84456 -7.43472,19.1217c-4.26492,8.53754 -8.54638,19.01722 -15.17954,26.64556c0.9109,0.99331 1.85301,1.96157 2.63302,3.05724zM309.05755,276.15018c-0.41266,2.41996 -0.40445,4.89342 -0.65517,7.33547c-0.66782,6.50469 -2.40441,13.29669 -3.51312,19.74621c-0.37224,2.16535 -1.60012,4.11033 -2.08135,6.2541c-0.96628,4.30461 -0.27042,9.07766 -0.63631,13.46123c-0.23026,2.75865 -1.16424,5.42994 -1.37462,8.19019c-0.29231,3.83508 0.00797,7.89634 -0.00999,11.74148c0.47525,2.29674 0.47406,6.20958 1.65609,8.22485c1.479,2.52157 4.68725,6.34321 6.98422,8.13077c1.90002,1.47864 4.38568,2.00184 6.4832,3.18374c0.8913,0.50223 1.56689,1.42666 2.55087,1.70671c1.05919,0.30145 2.23055,-0.28853 3.30352,-0.04052c2.45957,0.56852 4.59977,2.14193 7.03747,2.79792c4.9615,1.33515 10.19405,1.51369 15.1644,2.75218c1.94819,0.48544 6.51075,2.35216 8.56501,2.68499c3.43164,0.55598 6.99444,0.82114 10.49383,1.40136c3.72042,0.63442 7.01105,0.3191 10.72877,0.64896c9.31505,0.82649 18.64606,0.67783 28.03407,0.67783c3.46154,0 6.92308,0 10.38462,0c2.03995,0 4.12395,0.50058 6.11937,0.07669c1.10261,-0.23423 2.03245,-1.00794 3.12006,-1.30411c2.50748,-0.68282 5.16387,-0.7107 7.66973,-1.39943c4.04046,-1.11051 7.99079,-2.36413 12.07786,-3.33993c3.63532,-1.86168 6.95173,-3.99269 10.50631,-5.97033c1.77613,-0.98817 3.95104,-1.41708 5.38825,-2.85428c2.07635,-2.07635 1.61848,-4.26705 2.17588,-6.68539c0.33934,-1.47225 1.05079,-2.83345 1.6119,-4.23624c0.67502,-1.68756 0.77799,-3.55108 1.13552,-5.33313c0.53985,-2.69081 1.77394,-5.24562 2.03653,-7.97746c0.76996,-8.01029 0.24962,-16.61389 -1.31656,-24.43135c-0.76617,-4.32911 -3.22251,-8.20109 -5.17834,-12.0988c-1.53632,-3.06166 -2.71222,-6.4046 -4.61873,-9.2903c-1.4591,-2.2085 -3.69361,-3.80848 -5.30841,-5.90582c-1.48232,-1.92527 -2.14293,-4.38707 -3.55944,-6.36125c-0.59747,-0.83268 -1.28808,-1.59168 -1.98567,-2.34543c-0.61355,0.42387 -1.24417,0.8239 -1.89285,1.19804c-4.04272,2.33173 -12.65874,4.31009 -17.17279,5.53238c-2.52554,0.68385 -12.2018,3.43009 -12.90248,3.55676c-7.4887,1.35373 -15.95369,0.74825 -23.52151,0.74631c-21.62594,-0.00555 -42.34276,-4.60394 -63.59602,-7.79814c-4.66781,-0.7049 -9.28119,-1.72786 -13.89672,-2.72777c-0.0044,0.03364 -0.00739,0.05153 -0.00739,0.05153z" fill="#000000"/><path d="M309.01606,276.12234c0,0 0.003,-0.01791 0.0074,-0.05155c4.61553,0.99991 9.23104,2.01993 13.89885,2.72483c21.25326,3.1942 42.01463,7.77368 63.64057,7.77923c7.56782,0.00194 16.05621,0.61612 23.54491,-0.73761c0.70068,-0.12667 10.38257,-2.86834 12.90811,-3.55219c4.51405,-1.22229 13.13406,-3.19644 17.17678,-5.52817c0.64868,-0.37414 1.27943,-0.77402 1.89298,-1.19789c0.69759,0.75375 1.38944,1.51429 1.98691,2.34697c1.41651,1.97418 2.07981,4.43982 3.56213,6.36509c1.6148,2.09734 3.85176,3.70166 5.31086,5.91016c1.90651,2.8857 3.08495,6.23468 4.62127,9.29634c1.95583,3.89771 4.41419,7.77753 5.18036,12.10664c1.56618,7.81746 2.08683,16.43601 1.31687,24.4463c-0.26259,2.73184 -1.49757,5.29158 -2.03742,7.98239c-0.35753,1.78205 -0.46137,3.64879 -1.13639,5.33635c-0.56111,1.40279 -1.27344,2.76661 -1.61278,4.23886c-0.5574,2.41834 -0.10117,4.61299 -2.17752,6.68934c-1.43721,1.4372 -3.61351,1.86887 -5.38964,2.85704c-3.55458,1.97764 -6.87479,4.11458 -10.51011,5.97626c-4.08707,0.9758 -8.04231,2.23508 -12.08277,3.34559c-2.50586,0.68873 -5.16612,0.72007 -7.6736,1.40289c-1.08761,0.29617 -2.01956,1.07149 -3.12217,1.30572c-1.99542,0.42389 -4.08298,-0.07435 -6.12293,-0.07435c-3.46154,0 -6.93063,0.00369 -10.39217,0.00369c-9.38801,0 -18.74594,0.15127 -28.06099,-0.67522c-3.71772,-0.32986 -7.01825,-0.01739 -10.73867,-0.65181c-3.49939,-0.58022 -7.07041,-0.84962 -10.50205,-1.4056c-2.05426,-0.33283 -6.62275,-2.20399 -8.57094,-2.68943c-4.97035,-1.23849 -10.20962,-1.42417 -15.17112,-2.75932c-2.4377,-0.65599 -4.5805,-2.23311 -7.04007,-2.80163c-1.07297,-0.24801 -2.24494,0.34098 -3.30413,0.03953c-0.98398,-0.28005 -1.66048,-1.20606 -2.55178,-1.70829c-2.09752,-1.1819 -4.58485,-1.70839 -6.48487,-3.18703c-2.29697,-1.78756 -5.50745,-5.61492 -6.98645,-8.13649c-1.18203,-2.01527 -1.18212,-5.93294 -1.65737,-8.22968c0.01796,-3.84514 -0.2833,-7.91336 0.00901,-11.74844c0.21038,-2.76025 1.14426,-5.43657 1.37452,-8.19522c0.36589,-4.38357 -0.32902,-9.16488 0.63726,-13.46949c0.48123,-2.14377 1.71007,-4.09269 2.08231,-6.25804c1.10871,-6.44952 2.84986,-13.2524 3.51768,-19.75709c0.25072,-2.44205 0.2445,-4.91874 0.65716,-7.3387z" data-paper-data="{&quot;noHover&quot;:false,&quot;origItem&quot;:[&quot;Path&quot;,{&quot;applyMatrix&quot;:true,&quot;segments&quot;:[[[309.05755,276.15018],[0,0],[-0.41266,2.41996]],[[308.40238,283.48565],[0.25072,-2.44205],[-0.66782,6.50469]],[[304.88926,303.23186],[1.10871,-6.44952],[-0.37224,2.16535]],[[302.80791,309.48596],[0.48123,-2.14377],[-0.96628,4.30461]],[[302.17161,322.94719],[0.36589,-4.38357],[-0.23026,2.75865]],[[300.79699,331.13738],[0.21038,-2.76025],[-0.29231,3.83508]],[[300.787,342.87886],[0.01796,-3.84514],[0.47525,2.29674]],[[302.44309,351.10371],[-1.18203,-2.01527],[1.479,2.52157]],[[309.42731,359.23448],[-2.29697,-1.78756],[1.90002,1.47864]],[[315.9105,362.41822],[-2.09752,-1.1819],[0.8913,0.50223]],[[318.46137,364.12493],[-0.98398,-0.28005],[1.05919,0.30145]],[[321.76489,364.08441],[-1.07297,-0.24801],[2.45957,0.56852]],[[328.80236,366.88233],[-2.4377,-0.65599],[4.9615,1.33515]],[[343.96677,369.63451],[-4.97035,-1.23849],[1.94819,0.48544]],[[352.53177,372.3195],[-2.05426,-0.33283],[3.43164,0.55598]],[[363.0256,373.72086],[-3.49939,-0.58022],[3.72042,0.63442]],[[373.75437,374.36982],[-3.71772,-0.32986],[9.31505,0.82649]],[[401.78844,375.04765],[-9.38801,0],[3.46154,0]],[[412.17306,375.04765],[-3.46154,0],[2.03995,0]],[[418.29243,375.12434],[-1.99542,0.42389],[1.10261,-0.23423]],[[421.41249,373.82023],[-1.08761,0.29617],[2.50748,-0.68282]],[[429.08223,372.4208],[-2.50586,0.68873],[4.04046,-1.11051]],[[441.16008,369.08087],[-4.08707,0.9758],[3.63532,-1.86168]],[[451.66639,363.11054],[-3.55458,1.97764],[1.77613,-0.98817]],[[457.05464,360.25626],[-1.43721,1.4372],[2.07635,-2.07635]],[[459.23052,353.57087],[-0.5574,2.41834],[0.33934,-1.47225]],[[460.84242,349.33463],[-0.56111,1.40279],[0.67502,-1.68756]],[[461.97795,344.0015],[-0.35753,1.78205],[0.53985,-2.69081]],[[464.01447,336.02404],[-0.26259,2.73184],[0.76996,-8.01029]],[[462.69792,311.59269],[1.56618,7.81746],[-0.76617,-4.32911]],[[457.51957,299.49389],[1.95583,3.89771],[-1.53632,-3.06166]],[[452.90085,290.20359],[1.90651,2.8857],[-1.4591,-2.2085]],[[447.59243,284.29777],[1.6148,2.09734],[-1.48232,-1.92527]],[[444.03299,277.93652],[1.41651,1.97418],[-0.59747,-0.83268]],[[442.04732,275.59109],[0.69759,0.75375],[-0.61355,0.42387]],[[440.15447,276.78913],[0.64868,-0.37414],[-4.04272,2.33173]],[[422.98168,282.32151],[4.51405,-1.22229],[-2.52554,0.68385]],[[410.0792,285.87827],[0.70068,-0.12667],[-7.4887,1.35373]],[[386.55769,286.62458],[7.56782,0.00194],[-21.62594,-0.00555]],[[322.96167,278.82644],[21.25326,3.1942],[-4.66781,-0.7049]],[[309.06495,276.09867],[4.61553,0.99991],[-0.0044,0.03364]],[309.05756,276.1502]],&quot;closed&quot;:true,&quot;fillColor&quot;:[0,0,0,1]}]}" fill="#7300ff"/><path d="M299.23078,200.68225c0,-2.34721 1.90279,-4.25 4.25,-4.25c2.34721,0 4.25,1.90279 4.25,4.25c0,2.34721 -1.90279,4.25 -4.25,4.25c-2.34721,0 -4.25,-1.90279 -4.25,-4.25z" fill="#ffffff"/><path d="M401.6923,221.45148c0,-2.34721 1.90279,-4.25 4.25,-4.25c2.34721,0 4.25,1.90279 4.25,4.25c0,2.34721 -1.90279,4.25 -4.25,4.25c-2.34721,0 -4.25,-1.90279 -4.25,-4.25z" fill="#ffffff"/></g></g></g></svg>