<svg version="1.1" xmlns="http://www.w3.org/2000/svg" xmlns:xlink="http://www.w3.org/1999/xlink" width="592.05422" height="499.59224" viewBox="0,0,592.05422,499.59224"><g transform="translate(37.79499,37.10856)"><g data-paper-data="{&quot;isPaintingLayer&quot;:true}" fill-rule="nonzero" stroke-linecap="butt" stroke-linejoin="miter" stroke-miterlimit="10" stroke-dasharray="" stroke-dashoffset="0" style="mix-blend-mode: normal"><path d="M335.76141,462.48116c-4.49829,0.12413 -4.62242,-4.37416 -4.62242,-4.37416l-0.08001,-3.28745c-1.48023,-8.79383 -3.32455,-17.58922 -4.55935,-26.41884c-1.24011,-8.8676 -1.54302,-17.86867 -2.80812,-26.73204c-1.43072,-10.02371 -4.65413,-20.1307 -6.93177,-30.00051c-3.68557,-15.97085 -7.10526,-31.94545 -11.4356,-47.72735c-0.993,-0.6729 -2.02329,-1.31867 -2.9226,-1.63584c-6.45221,-2.2755 -13.31917,-5.10224 -19.4887,-8.17916c-1.38375,-0.69012 -2.5111,-1.82042 -3.87138,-2.55572c-5.18424,-2.80235 -10.95909,-4.42212 -15.9257,-7.71635c-2.6152,-1.7346 -5.06754,-3.73957 -7.83686,-5.4274c-6.90044,-4.20564 -14.33592,-7.71845 -21.30717,-11.86176c-10.98314,-5.49616 -21.37003,-12.12419 -32.13858,-18.05812c-4.46179,8.36048 -9.55296,16.65872 -14.97608,24.28869c-6.24376,8.78456 -13.9118,16.5534 -20.2898,25.24153c-15.87657,21.62709 -30.77913,44.03613 -46.39987,65.85808c-0.58643,0.95359 -8.80528,14.31986 -9.35063,15.19982c-0.75619,1.22017 -1.77429,2.30685 -2.29266,3.64549c-1.04139,2.6893 -1.56262,5.55208 -2.34392,8.32812l-2.12695,5.10706c0,0 -1.73594,4.15169 -5.88762,2.41575c-4.15169,-1.73594 -2.41575,-5.88762 -2.41575,-5.88762l1.93707,-4.61253c0.86702,-2.9931 1.44745,-6.08456 2.60106,-8.97931c0.68274,-1.71321 1.90184,-3.1604 2.86386,-4.73385c0.57207,-0.93565 8.98639,-14.59839 9.51688,-15.45988c15.67419,-21.98621 30.71023,-44.52009 46.69323,-66.27405c6.33754,-8.62583 13.95957,-16.34002 20.15932,-25.06266c5.19053,-7.30273 10.08212,-15.25435 14.35323,-23.26465c-0.97047,-0.48352 -1.94575,-0.95819 -2.92652,-1.42277c-8.7464,-4.14303 -17.55579,-7.87724 -26.1268,-12.44683c-2.92995,-1.56209 -6.12571,-2.73522 -8.73338,-4.79064c-1.10718,-0.8727 -1.63914,-2.32155 -2.68204,-3.27013c-1.25749,-1.14375 -3.03256,-1.67816 -4.15846,-2.95167c-0.82949,-0.93824 -0.80292,-2.40358 -1.49741,-3.4457c-0.71977,-1.08005 -2.0748,-1.67616 -2.68081,-2.82391c-1.64167,-3.1092 -1.74073,-8.00892 -1.76749,-11.38609c0,-5.54271 -0.20775,-11.13426 0,-16.67291c0.06794,-1.81138 -0.43736,-3.79087 0.34254,-5.42717c2.68245,-5.62799 7.24712,-4.65314 12.18515,-4.63047c2.25212,0.01034 4.48798,0.39045 6.72498,0.65123c3.35705,0.39136 6.88994,-0.27682 10.26693,-0.02239c2.64369,0.19917 5.27044,0.33551 7.89632,0.42761c-1.54113,-1.91445 -2.89193,-3.94833 -4.00363,-6.06601c-1.375,-2.75934 -3.14561,-5.91636 -3.79461,-8.9621c-0.09106,-0.42737 -0.0722,-5.80407 -0.0722,-6.61732c0,-5.14658 0.15169,-10.17961 0.49323,-15.30017c0.31067,-4.65761 0.6135,-9.31857 0.95368,-13.97538c-2.1124,1.14843 -4.20356,2.32953 -6.2546,3.57415c-6.97439,4.23224 -13.94841,13.02053 -23.31271,11.49116c-1.11535,-0.18216 -4.60908,-5.49441 -5.34979,-7.09169c-4.25337,-9.17198 -6.72904,-18.30477 -5.28122,-28.43955c0.00438,-4.29053 0.33432,-8.82819 1.74504,-12.93251c1.56297,-4.54729 5.53318,-8.13344 8.56144,-11.5138c1.83951,-2.05339 3.12763,-4.57748 5.06799,-6.53585c0.97941,-0.9885 2.27866,-1.64137 3.18945,-2.69343c3.55928,-4.11134 6.48629,-8.69424 10.28103,-12.7132c3.76072,-3.98292 8.02883,-7.76738 12.55255,-11.21618c-0.17899,-1.10901 0.05357,-2.03925 0.05357,-2.03925c1.21636,-4.81226 3.15619,-9.28239 4.30863,-14.14533c0.96737,-4.08202 1.26562,-7.54503 2.58516,-11.51799c0.83769,-2.52219 2.29324,-4.81658 3.07038,-7.35808c0.57389,-1.87681 2.08069,-9.08379 2.71926,-10.49293c0.56735,-1.25198 1.8879,-2.03612 2.54968,-3.24085c1.93757,-3.52728 3.03695,-7.93227 4.86482,-11.58821c2.95444,-5.90919 6.89496,-11.25215 9.80336,-17.12797c1.34238,-3.35594 2.76066,-5.5326 4.88076,-8.33609c3.74169,-4.94777 6.18492,-10.42529 11.27533,-14.3629c1.65488,-1.2801 7.05849,-4.3421 9.04781,-3.98255c0.41917,0.07576 6.52378,4.96227 7.64794,5.86811c8.98685,7.24149 15.2469,16.9065 22.56797,25.75145c3.30698,6.59442 8.90136,11.21664 12.96782,17.29042c0.73075,1.09146 0.96393,2.4751 1.73706,3.53696c0.83248,1.14338 2.16505,1.85547 3.01317,2.9873c1.04464,1.3941 1.65057,3.07423 2.61564,4.52455c2.9882,4.49073 6.78836,8.50164 9.85476,12.93073c0.95315,1.37672 1.56932,2.96471 2.49554,4.35969c1.81462,2.73302 3.33024,3.48605 5.10639,6.43901c1.44497,2.40236 1.95228,5.30359 3.46765,7.66217c0.44981,0.7001 1.30567,1.06726 1.77814,1.75227c2.67403,3.87699 3.76693,7.55507 6.63149,11.23202c0.24748,0.91506 0.49497,1.83013 0.74246,2.74519l0.9289,1.49123c5.25036,3.37114 10.54475,6.67772 15.81405,10.01067c5.39376,3.41168 11.155,5.7739 16.50862,9.22818c6.39524,4.12635 15.30268,8.75394 16.56289,17.29388c0.23129,1.56739 -0.42252,3.14042 -0.63379,4.71063c-2.75943,6.56449 -6.43438,12.55962 -10.18121,18.54372c-0.81568,1.30273 -2.03498,2.33272 -2.78846,3.67238c-1.33454,2.37276 -2.07268,5.09976 -3.70592,7.27772c-2.58947,3.4531 -5.87112,8.32513 -10.72093,9.10829c-1.62463,0.26235 -3.02777,-1.29155 -4.55795,-1.89721c-1.19806,-0.47421 -2.43618,-0.8452 -3.62516,-1.34175c-2.59523,-1.08384 -4.94186,-2.69107 -7.34455,-4.15291c-0.35032,-0.21314 -0.70231,-0.42229 -1.05566,-0.62821c0.44765,2.85281 0.8229,5.71015 1.02796,8.55551c0.7862,10.90869 0.01358,21.58159 -0.47854,32.46429c-0.14534,3.21402 -0.07534,6.45176 -0.52336,9.63773c-0.38729,2.75411 -1.63218,5.32837 -2.7225,7.88696c-0.30084,0.70597 -0.59269,1.40743 -0.88486,2.10006c3.4088,-0.36046 6.78551,-0.26825 10.27839,-0.26825l-0.00002,0.00002c10.38519,0 20.63971,1.39735 25.83351,11.58395c1.31104,5.08738 2.23915,10.14525 2.72768,15.32069c0.31842,3.37335 1.66491,6.64999 2.38233,9.95393c0.48299,2.22431 0.51003,4.52405 0.71181,6.79123c0.36031,4.04834 1.67868,7.89044 2.40146,11.85641c0.58898,3.23178 0.49598,6.57441 1.21419,9.77994c0.42694,1.90551 1.42955,3.65125 1.85255,5.55764c1.00358,4.52303 0.40078,9.40946 2.45445,13.5168c0.20431,7.02807 0.76214,13.54091 0.10505,20.54802c-0.4224,4.50431 0.52173,8.80094 -0.78874,13.2614c-1.18032,4.01747 -3.49478,9.00082 -7.53149,10.90289c-1.45396,0.6851 -3.20388,0.27289 -4.80965,0.34254c-4.12426,0.17889 -8.78694,0.17434 -12.77933,-0.7409c-1.75381,-0.40206 -3.33382,-1.3714 -5.05896,-1.88268c-4.32449,-1.28164 -8.93041,-0.26169 -13.36369,-1.36103c-0.9817,-0.49804 -1.91239,-1.11754 -2.91955,-1.55496c3.62857,13.94031 6.67557,28.00823 9.92179,42.07514c2.32107,10.05795 5.56065,20.32448 7.03877,30.53853c1.29394,8.94135 1.59365,18.02425 2.84486,26.97126c1.2523,8.95477 3.12411,17.87555 4.60416,26.79764l0.11851,3.90689c0,0 0.12413,4.49829 -4.37416,4.62242zM305.81568,309.52851c4.31022,-1.29307 5.60328,3.01715 5.60328,3.01715c0.55317,1.84391 1.09101,3.69091 1.61535,5.5407c1.51507,0.39766 3.23547,0.18933 4.74046,0.68543c1.3678,0.45088 2.58317,1.27432 3.87475,1.91148c4.11442,1.04851 8.3557,-0.0572 12.57194,1.10903c4.51306,1.24833 7.66846,2.32206 12.41995,2.31654c1.48874,-0.00173 3.03323,0.79019 4.45308,0.34254c1.43712,-0.4531 2.6942,-6.18173 2.80161,-7.40123c0.26742,-3.03619 -0.27522,-6.14938 -0.00657,-9.19047c0.31912,-3.61246 0.86046,-6.78197 0.61088,-10.46449c-0.16434,-2.42477 -0.62203,-4.84587 -0.50583,-7.27343c-2.10647,-4.21295 -1.46206,-9.05484 -2.48567,-13.65387c-0.42425,-1.90611 -1.43203,-3.6507 -1.85255,-5.55764c-0.72206,-3.27442 -0.65765,-6.68126 -1.25587,-9.98055c-0.97003,-5.3499 -2.02204,-10.44034 -2.53209,-15.85951c-0.43372,-4.60822 -2.60305,-8.96491 -3.08758,-13.58533c-0.46242,-4.40968 -1.17449,-8.70267 -2.21244,-13.08501c-3.30469,-6.95641 -14.331,-5.70647 -20.48012,-5.70647c-2.9405,0 -5.50013,-0.07017 -8.3802,0.53013l-1.50004,0.08739c0,0 -1.22331,0 -2.39429,-0.63782c-1.18663,1.22526 -2.62125,2.28706 -4.42876,3.12776c-7.16609,3.33304 -16.70979,1.92109 -24.28577,1.92109c-14.53782,0 -28.91922,-0.47869 -43.37342,-2.03773c-7.69758,-0.83026 -15.00689,-1.21111 -22.5414,-2.91724c-4.97647,-1.12688 -9.89835,-1.72603 -14.69146,-3.58661c-2.60754,-1.01219 -5.15654,-2.33026 -7.5706,-3.89839c-10.67305,-0.01469 -21.39809,-0.17367 -31.93781,-1.26749l-0.00001,0.00001c-1.19296,-0.12381 -4.86308,0.64093 -6.72102,0.16809c0.02358,0.30801 0.02004,0.62405 0.03806,0.92326c0.07424,1.2328 0,2.47006 0,3.70509c0,4.32261 0,8.64521 0,12.96782c-0.01629,1.52448 -0.19398,5.65327 0.70257,7.13937c0.53303,0.88354 1.68674,1.25777 2.25931,2.11621c0.53594,0.80353 0.32836,2.00988 0.97265,2.72945c0.84751,0.94652 2.30178,1.14477 3.25172,1.98845c0.91702,0.81444 1.30778,2.12968 2.25808,2.90502c0.85322,0.69613 2.025,0.87155 2.9994,1.38451c3.05957,1.61067 6.05923,3.33643 9.15183,4.88273c8.25779,4.12889 16.60627,8.0462 24.8857,12.11269c0.95022,-0.43243 2.19415,-0.54475 3.7318,0.22408c1.52982,0.76491 2.18744,1.82055 2.41488,2.83542c4.14997,2.09768 8.27233,4.25598 12.34666,6.52105c7.12917,3.96337 13.68846,8.39071 21.00887,12.04781c7.16402,4.25248 14.77642,7.88483 21.87459,12.19918c2.88124,1.75125 5.47155,3.84613 8.21853,5.68787c4.59178,3.07861 10.11819,4.51183 14.95005,7.10401c1.2534,0.67242 2.26731,1.74685 3.5388,2.3844c5.0178,2.51604 10.51234,4.73757 15.82655,6.75833c0.21915,-1.23529 0.97615,-2.62701 3.12214,-3.2708zM294.82465,59.53341c-1.65071,-2.61334 -2.35617,-5.74032 -3.94253,-8.39323c-1.29984,-2.17375 -3.36526,-3.80638 -4.77385,-5.91129c-0.91464,-1.36677 -1.5085,-2.93334 -2.44458,-4.28552c-3.08429,-4.45524 -6.89053,-8.49041 -9.90572,-13.0049c-0.87588,-1.31142 -1.37771,-2.85946 -2.32448,-4.12066c-0.89855,-1.19694 -2.28228,-1.977 -3.16199,-3.18785c-0.8512,-1.17161 -1.16724,-2.66659 -1.96803,-3.87322c-4.03888,-6.08582 -9.66429,-10.66331 -12.96782,-17.29042c-6.05745,-7.21635 -11.391,-14.90788 -17.99068,-21.56172c-1.17996,-1.18964 -5.43834,-2.97738 -6.13102,-5.01717c-0.63908,0.43045 -1.45881,0.62955 -2.07118,1.1096c-1.39417,1.09292 -2.56822,2.44727 -3.73888,3.77683c-3.91048,4.4413 -7.56303,10.05842 -9.74575,15.51521c-3.01532,5.98538 -6.94318,11.42532 -9.95713,17.45287c-1.88502,3.76984 -3.03131,8.21598 -5.01542,11.87737c-0.60107,1.10919 -1.85153,1.79362 -2.39044,2.9343c-1.35699,2.87222 -1.28213,6.23278 -2.22086,9.26755c-0.79614,2.57382 -2.24957,4.90749 -3.10477,7.46229c-0.94806,2.83217 -1.7232,8.07074 -2.35496,10.71254c-0.12557,0.52511 -0.2602,1.04548 -0.40196,1.56206c4.05027,-2.97483 8.14183,-5.87713 12.27113,-8.82078c4.53654,-3.23396 8.47654,-6.52448 13.63357,-8.55979c5.36548,-3.39043 10.75079,-6.56483 15.86084,-10.29366c3.67897,-2.68456 4.16552,-4.55084 9.78893,-5.19123c1.51009,-0.17197 2.94306,0.79076 4.35099,1.36319c3.73717,1.51944 6.51941,4.44351 9.85885,6.6598c10.57886,7.02088 20.60203,14.84096 30.7854,22.47541c3.47861,2.7829 7.043,5.44957 10.66794,8.03317c-0.22915,-0.20839 -0.44115,-0.43038 -0.60559,-0.69073zM193.58391,65.981c-8.6453,4.78859 -17.35905,11.34422 -24.11899,18.54737c-3.71701,3.96071 -6.56105,8.43836 -10.0694,12.48258c-1.03972,1.19853 -2.46643,2.00472 -3.59403,3.12098c-1.80593,1.78777 -2.94062,4.15727 -4.62269,6.06204c-2.30515,2.61035 -5.81174,5.26722 -6.94365,8.83664c-1.04091,3.28244 -1.16573,6.93146 -1.16217,10.32513c-1.11397,7.79774 0.44504,13.2181 3.11654,20.38952c0.71229,1.91207 2.19337,3.55517 2.55245,5.56377c0.00075,0.00423 0.0013,0.00848 0.00163,0.01273c4.95382,-3.29853 9.58468,-7.1953 14.65349,-10.27429c3.81797,-2.31918 7.77977,-4.41092 11.75809,-6.48269c0.44153,-4.84768 0.96113,-9.68462 1.61014,-14.50233c0.15599,-1.15797 0.35158,-2.31717 0.57597,-3.47651c-2.55613,-1.06064 -2.55613,-4.14709 -2.55613,-4.14709v-1.4536c0.11932,-8.90703 4.43666,-17.04045 8.84499,-24.54724c1.67415,-2.85085 3.48802,-5.84431 6.18982,-7.74968c3.80913,-2.68627 7.91078,-3.00396 12.17348,-4.06196c0.14606,-0.03625 6.81473,-2.33239 7.33655,-2.43828c7.50807,-1.52365 15.17076,-1.56533 22.78628,-1.52474c18.58058,1.95414 36.99457,5.84999 54.13775,13.43545c7.71981,3.41584 16.57947,7.40196 21.38434,14.82998c0.66195,1.02332 0.73393,2.33176 1.24922,3.43623c1.38414,2.96676 2.92525,5.92047 3.67844,9.10641c0.57168,2.41814 0.4014,4.95343 0.57844,7.43191c0.3148,4.40721 0.86151,8.77901 1.41029,13.17623c2.49996,1.35396 5.04353,2.62616 7.51098,4.08972c2.06092,1.22243 4.00169,2.69952 6.2224,3.59964c1.36367,0.55274 2.85642,0.82401 4.12739,1.56545c0.30234,0.17638 -0.05294,1.09179 0.2874,1.01c0.41667,-0.10013 0.23077,-0.84315 0.47719,-1.19374c0.28363,-0.40352 4.20158,-5.10241 4.90339,-6.53663c0.62468,-1.27659 0.81523,-2.74792 1.51207,-3.98661c3.92863,-6.98352 8.95584,-12.99923 12.22611,-20.4229c0.69917,-2.30177 -1.35683,-3.7397 -2.85957,-5.36787c-3.44038,-3.7275 -8.97681,-6.79674 -13.37764,-9.27598c-2.33658,-1.31633 -4.94516,-2.10237 -7.29009,-3.40378c-4.80936,-2.66913 -9.23411,-5.90166 -13.84235,-8.88582c-2.0197,-1.30789 -4.04232,-2.60252 -6.06303,-3.89405c-1.59465,-0.21005 -2.66306,-1.41164 -3.07934,-1.96843c-8.91021,-5.70163 -17.73536,-11.44379 -26.05915,-18.10282c-10.01337,-7.51299 -19.89328,-15.15861 -30.2659,-22.10173c-1.57463,-1.05401 -3.21457,-2.01759 -4.71761,-3.17139c-0.58492,-0.449 -3.49343,-3.56528 -4.3302,-3.34164c-1.38652,0.37056 -3.89074,2.90958 -4.74709,3.53038c-1.77477,1.28659 -3.94075,1.97637 -5.68872,3.29914c-0.91782,0.69456 -1.50653,1.77162 -2.44427,2.43906c-2.82408,2.01006 -6.00719,3.46303 -8.9545,5.28763c-4.66567,1.63414 -8.47893,5.01396 -12.53128,7.91438c-3.35671,2.40252 -6.69171,4.77085 -10.00072,7.17392c1.63237,3.63513 -1.98632,5.64551 -1.98632,5.64551zM192.33164,124.94484c10.98242,-7.19074 21.88478,-14.28095 33.74482,-20.03285c3.18449,-3.25858 7.05726,-5.48044 10.64116,-8.22361c3.8996,-2.98481 6.21895,-6.82863 9.89175,-9.94987c1.5487,-1.31612 2.66162,-4.55897 4.61216,-3.98796c3.69216,1.08086 5.69474,5.17498 8.48608,7.82239c3.12526,2.96412 5.77343,6.44392 9.12495,9.14957c1.57421,1.27084 3.48511,2.06551 5.13145,3.2414c4.84573,3.46104 9.14076,7.68229 14.01139,11.11594c5.54233,3.90718 11.12708,7.84392 16.75907,11.64969c-0.22348,-2.05979 -0.41971,-4.12108 -0.56736,-6.18821c-0.146,-2.04395 0.07569,-4.13965 -0.39063,-6.13504c-0.60649,-2.59518 -2.00031,-4.9424 -3.10504,-7.36776c-0.34211,-0.75108 -0.25464,-1.67636 -0.68892,-2.37817c-3.53765,-5.71711 -11.64342,-8.79872 -17.37839,-11.33487c-16.12513,-7.13093 -33.49823,-10.83366 -50.97949,-12.67557c-6.81569,-0.0236 -13.63949,0.00876 -20.36393,1.32865c-2.48302,0.48738 -4.74557,1.78958 -7.19948,2.40705c-3.17665,0.79933 -6.25938,0.82424 -9.14603,2.72153c-2.63503,1.73192 -2.09045,2.41181 -3.50086,4.84821c-1.29779,2.24187 -2.82331,4.37584 -3.88647,6.7342c3.30094,1.375 2.441,5.10142 2.441,5.10142c-1.40045,6.06785 -3.47282,12.3198 -4.28759,18.49845c-0.36038,2.73283 -0.68132,5.47091 -0.97162,8.21304c2.59026,-1.4353 5.14314,-2.9346 7.62197,-4.55762zM301.63885,134.48363c-6.33414,-4.21609 -12.60929,-8.63811 -18.81794,-13.02603c-4.89466,-3.45927 -9.21997,-7.69271 -14.09159,-11.17263c-1.78087,-1.27213 -3.82891,-2.16298 -5.5283,-3.54208c-1.90069,-1.54245 -3.47861,-3.44477 -5.21155,-5.17355c-2.24142,-2.23604 -5.38906,-4.25498 -6.14184,-7.47129c-0.49951,0.29655 -1.00973,0.5907 -1.38049,0.99808c-1.47921,1.62534 -2.53191,3.63566 -4.14913,5.12373c-4.74638,4.36735 -10.37715,7.4804 -14.97915,11.9933c-11.86202,6.07236 -22.95992,12.99493 -34.08024,20.26327c-4.3576,2.84816 -8.93615,5.32542 -13.54542,7.74281c-0.53199,6.49078 -0.95697,12.99563 -1.39032,19.49903c-0.32904,4.938 -0.47583,9.77627 -0.47583,14.74094c0,1.67067 -0.4255,3.37861 -0.07221,5.0115c0.32194,1.48806 2.45128,5.47185 2.98887,6.54299c0.81417,1.76334 2.13858,3.27748 3.51787,4.64489c1.83646,1.82064 3.50694,3.94217 5.44703,5.72102c0.98949,0.19023 2.57996,0.75589 3.28953,2.43793c5.42161,3.18507 12.19214,3.81162 18.14075,5.16869c7.19328,1.64102 14.16939,1.95229 21.53412,2.7501c14.13601,1.53134 28.18884,1.98561 42.40621,1.98561c5.86573,0 14.63717,1.58544 20.29137,-0.98612c4.01337,-1.8253 4.52516,-5.7197 6.07682,-9.31838c0.52579,-1.21943 1.35127,-2.30188 1.81617,-3.54579c1.21614,-3.25394 0.59979,-7.56862 0.75238,-10.90877c0.48277,-10.56769 1.23996,-20.89999 0.49052,-31.49422c-0.34625,-4.89456 -1.24612,-9.83734 -2.11854,-14.71945c-1.63842,-0.98293 -3.23925,-2.04634 -4.76909,-3.26559z" fill="#000000" stroke="none" stroke-width="0.5"/><path d="M294.8635,59.56492c0.16444,0.26035 0.37637,0.48243 0.60552,0.69082c-3.62494,-2.5836 -7.18962,-5.24992 -10.66823,-8.03282c-10.18337,-7.63445 -20.21109,-15.44973 -30.78995,-22.47061c-3.33944,-2.21629 -6.13895,-5.12995 -9.87612,-6.64939c-1.40793,-0.57243 -2.87612,-1.53588 -4.38621,-1.36391c-5.62341,0.64039 -6.12908,2.49311 -9.80805,5.17767c-5.11005,3.72883 -10.49778,6.90022 -15.86326,10.29065c-5.15703,2.03531 -9.01607,5.26714 -13.55261,8.5011c-4.1293,2.94365 -8.3025,5.9037 -12.35277,8.87853c0.14176,-0.51658 0.27593,-1.03761 0.4015,-1.56272c0.63176,-2.6418 1.40354,-7.88605 2.3516,-10.71822c0.8552,-2.5548 2.30655,-4.89318 3.10269,-7.467c0.93873,-3.03477 0.86152,-6.4035 2.21851,-9.27572c0.53891,-1.14068 1.78891,-1.82784 2.38998,-2.93703c1.98411,-3.66139 3.13048,-8.12203 5.0155,-11.89187c3.01395,-6.02755 6.95269,-11.4918 9.96801,-17.47718c2.18272,-5.45679 5.85237,-11.08723 9.76285,-15.52853c1.17066,-1.32956 2.34986,-2.68601 3.74403,-3.77893c0.61237,-0.48005 1.43453,-0.67992 2.07361,-1.11037c0.69268,2.03979 4.95667,3.82626 6.13663,5.0159c6.59968,6.65384 11.96943,14.35322 18.02688,21.56957c3.30353,6.62711 8.951,11.24648 12.98988,17.3323c0.80079,1.20663 1.11625,2.70881 1.96745,3.88042c0.87971,1.21085 2.26258,1.99521 3.16113,3.19215c0.94677,1.2612 1.44714,2.81412 2.32302,4.12554c3.01519,4.51449 6.81753,8.55805 9.90182,13.01329c0.93608,1.35218 1.52871,2.92075 2.44335,4.28752c1.40859,2.10491 3.47291,3.73917 4.77275,5.91292c1.58636,2.65291 2.28979,5.78257 3.9405,8.39591z" data-paper-data="{&quot;noHover&quot;:false,&quot;origItem&quot;:[&quot;Path&quot;,{&quot;applyMatrix&quot;:true,&quot;segments&quot;:[[[294.82465,59.53341],[0,0],[-1.65071,-2.61334]],[[290.88212,51.14018],[1.58636,2.65291],[-1.29984,-2.17375]],[[286.10827,45.22889],[1.40859,2.10491],[-0.91464,-1.36677]],[[283.66369,40.94337],[0.93608,1.35218],[-3.08429,-4.45524]],[[273.75797,27.93847],[3.01519,4.51449],[-0.87588,-1.31142]],[[271.43349,23.81781],[0.94677,1.2612],[-0.89855,-1.19694]],[[268.2715,20.62996],[0.87971,1.21085],[-0.8512,-1.17161]],[[266.30347,16.75674],[0.80079,1.20663],[-4.03888,-6.08582]],[[253.33565,-0.53368],[3.30353,6.62711],[-6.05745,-7.21635]],[[235.34497,-22.0954],[6.59968,6.65384],[-1.17996,-1.18964]],[[229.21395,-27.11257],[0.69268,2.03979],[-0.63908,0.43045]],[[227.14277,-26.00297],[0.61237,-0.48005],[-1.39417,1.09292]],[[223.40389,-22.22614],[1.17066,-1.32956],[-3.91048,4.4413]],[[213.65814,-6.71093],[2.18272,-5.45679],[-3.01532,5.98538]],[[203.70101,10.74194],[3.01395,-6.02755],[-1.88502,3.76984]],[[198.68559,22.61931],[1.98411,-3.66139],[-0.60107,1.10919]],[[196.29515,25.55361],[0.53891,-1.14068],[-1.35699,2.87222]],[[194.07429,34.82116],[0.93873,-3.03477],[-0.79614,2.57382]],[[190.96952,42.28345],[0.8552,-2.5548],[-0.94806,2.83217]],[[188.61456,52.99599],[0.63176,-2.6418],[-0.12557,0.52511]],[[188.2126,54.55805],[0.14176,-0.51658],[4.05027,-2.97483]],[[200.48373,45.73727],[-4.1293,2.94365],[4.53654,-3.23396]],[[214.1173,37.17748],[-5.15703,2.03531],[5.36548,-3.39043]],[[229.97814,26.88382],[-5.11005,3.72883],[3.67897,-2.68456]],[[239.76707,21.69259],[-5.62341,0.64039],[1.51009,-0.17197]],[[244.11806,23.05578],[-1.40793,-0.57243],[3.73717,1.51944]],[[253.97691,29.71558],[-3.33944,-2.21629],[10.57886,7.02088]],[[284.76231,52.19099],[-10.18337,-7.63445],[3.47861,2.7829]],[[295.43025,60.22416],[-3.62494,-2.5836],[-0.22915,-0.20839]],[[294.82466,59.53343],[0.16444,0.26035],[0,0]]],&quot;closed&quot;:true,&quot;fillColor&quot;:[0,0,0,1]}]}" fill="#ffffff" stroke="none" stroke-width="0.5"/><path d="M195.52721,60.31c3.30901,-2.40307 6.64997,-4.77949 10.00668,-7.18201c4.05235,-2.90042 7.87574,-6.2888 12.54141,-7.92294c2.94731,-1.8246 6.13888,-3.2819 8.96296,-5.29196c0.93774,-0.66744 1.52909,-1.74547 2.44691,-2.44003c1.74797,-1.32277 3.91931,-2.01401 5.69408,-3.3006c0.85635,-0.6208 3.36494,-3.16055 4.75146,-3.53111c0.83677,-0.22364 3.74868,2.89234 4.3336,3.34134c1.50304,1.1538 3.1472,2.11733 4.72183,3.17134c10.37262,6.94312 20.28648,14.60348 30.29985,22.11647c8.32379,6.65903 17.16214,12.42501 26.07235,18.12664c0.41628,0.55679 1.48513,1.76044 3.07978,1.97049c2.02071,1.29153 4.04388,2.58979 6.06358,3.89768c4.60824,2.98416 9.03331,6.22312 13.84267,8.89225c2.34493,1.30141 4.95345,2.08932 7.29003,3.40565c4.40083,2.47924 9.93687,5.55264 13.37725,9.28014c1.50274,1.62817 3.55837,3.06839 2.8592,5.37016c-3.27027,7.42367 -8.30071,13.45007 -12.22934,20.43359c-0.69684,1.23869 -0.88827,2.71195 -1.51295,3.98854c-0.70181,1.43422 -4.62165,6.13667 -4.90528,6.54019c-0.24642,0.35059 -0.06085,1.09416 -0.47752,1.19429c-0.34034,0.08179 -0.07094,-0.88485 -0.37328,-1.06123c-1.27097,-0.74144 -2.67786,-0.96145 -4.04153,-1.51419c-2.22071,-0.90012 -4.16152,-2.37715 -6.22244,-3.59958c-2.46745,-1.46356 -5.09647,-2.7877 -7.59643,-4.14166c-0.54878,-4.39722 -1.09886,-8.76247 -1.41366,-13.16968c-0.17704,-2.47848 -0.00843,-5.00922 -0.58011,-7.42736c-0.75319,-3.18594 -2.29576,-6.13376 -3.6799,-9.10052c-0.51529,-1.10447 -0.58767,-2.41035 -1.24962,-3.43367c-4.80487,-7.42802 -13.66419,-11.39889 -21.384,-14.81473c-17.14318,-7.58546 -35.47798,-11.45001 -54.05856,-13.40415c-7.61552,-0.04059 -15.26336,-0.01676 -22.77143,1.50689c-0.52182,0.10589 -7.18827,2.39683 -7.33433,2.43308c-4.2627,1.058 -8.36249,1.36917 -12.17162,4.05544c-2.7018,1.90537 -4.51469,4.89194 -6.18884,7.74279c-4.40833,7.50679 -8.72734,15.62336 -8.84666,24.53039l-0.00025,1.45271c0,0 -0.00099,3.08345 2.55514,4.14409c-0.22439,1.15934 -0.42071,2.31667 -0.5767,3.47464c-0.64901,4.81771 -1.17204,9.64785 -1.61357,14.49553c-3.97832,2.07177 -7.93998,4.16374 -11.75795,6.48292c-5.06881,3.07899 -9.69997,6.97527 -14.65379,10.2738c-0.00033,-0.00425 -0.08618,0.04368 -0.08693,0.03945c-0.35908,-2.0086 -1.84148,-3.65399 -2.55377,-5.56606c-2.6715,-7.17142 -4.23403,-12.59993 -3.12006,-20.39767c-0.00356,-3.39367 0.12005,-7.04699 1.16096,-10.32943c1.13191,-3.56942 4.63781,-6.22984 6.94296,-8.84019c1.68207,-1.90477 2.81639,-4.27711 4.62232,-6.06488c1.1276,-1.11626 2.55418,-1.924 3.5939,-3.12253c3.50835,-4.04422 6.35245,-8.52942 10.06946,-12.49013c6.75994,-7.20315 15.47819,-13.77574 24.12349,-18.56433c0,0 3.62101,-2.01477 1.98863,-5.6499z" data-paper-data="{&quot;noHover&quot;:false,&quot;origItem&quot;:[&quot;Path&quot;,{&quot;applyMatrix&quot;:true,&quot;segments&quot;:[[[195.57023,60.33548],[0,0],[1.63238,3.63513]],[[193.58391,65.981],[0,0],[-8.6453,4.78859]],[[169.46492,84.52837],[6.75994,-7.20315],[-3.71701,3.96071]],[[159.39552,97.01095],[3.50835,-4.04422],[-1.03972,1.19853]],[[155.80149,100.13193],[1.1276,-1.11626],[-1.80593,1.78777]],[[151.1788,106.19397],[1.68207,-1.90477],[-2.30515,2.61035]],[[144.23515,115.03061],[1.13191,-3.56942],[-1.04091,3.28244]],[[143.07298,125.35574],[-0.00356,-3.39367],[-1.11397,7.79774]],[[146.18952,145.74526],[-2.6715,-7.17142],[0.71229,1.91207]],[[148.74197,151.30903],[-0.35908,-2.0086],[0.00075,0.00423]],[[148.7436,151.32176],[-0.00033,-0.00425],[4.95382,-3.29853]],[[163.39709,141.04747],[-5.06881,3.07899],[3.81797,-2.31918]],[[175.15518,134.56478],[-3.97832,2.07177],[0.44153,-4.84768]],[[176.76532,120.06245],[-0.64901,4.81771],[0.15599,-1.15797]],[[177.34129,116.58594],[-0.22439,1.15934],[-2.55613,-1.06064]],[174.78516,112.43885],[[174.78516,110.98525],[0,0],[0.11932,-8.90703]],[[183.63015,86.43801],[-4.40833,7.50679],[1.67415,-2.85085]],[[189.81997,78.68833],[-2.7018,1.90537],[3.80913,-2.68627]],[[201.99345,74.62637],[-4.2627,1.058],[0.14606,-0.03625]],[[209.33,72.18809],[-0.52182,0.10589],[7.50807,-1.52365]],[[232.11628,70.66335],[-7.61552,-0.04059],[18.58058,1.95414]],[[286.25403,84.0988],[-17.14318,-7.58546],[7.71981,3.41584]],[[307.63837,98.92878],[-4.80487,-7.42802],[0.66195,1.02332]],[[308.88759,102.36501],[-0.51529,-1.10447],[1.38414,2.96676]],[[312.56603,111.47142],[-0.75319,-3.18594],[0.57168,2.41814]],[[313.14447,118.90333],[-0.17704,-2.47848],[0.3148,4.40721]],[[314.55476,132.07956],[-0.54878,-4.39722],[2.49996,1.35396]],[[322.06574,136.16928],[-2.46745,-1.46356],[2.06092,1.22243]],[[328.28814,139.76892],[-2.22071,-0.90012],[1.36367,0.55274]],[[332.41553,141.33437],[-1.27097,-0.74144],[0.30234,0.17638]],[[332.70293,142.34437],[-0.34034,0.08179],[0.41667,-0.10013]],[[333.18012,141.15063],[-0.24642,0.35059],[0.28363,-0.40352]],[[338.08351,134.614],[-0.70181,1.43422],[0.62468,-1.27659]],[[339.59558,130.62739],[-0.69684,1.23869],[3.92863,-6.98352]],[[351.82169,110.20449],[-3.27027,7.42367],[0.69917,-2.30177]],[[348.96212,104.83662],[1.50274,1.62817],[-3.44038,-3.7275]],[[335.58448,95.56064],[4.40083,2.47924],[-2.33658,-1.31633]],[[328.29439,92.15686],[2.34493,1.30141],[-4.80936,-2.66913]],[[314.45204,83.27104],[4.60824,2.98416],[-2.0197,-1.30789]],[[308.38901,79.37699],[2.02071,1.29153],[-1.59465,-0.21005]],[[305.30967,77.40856],[0.41628,0.55679],[-8.91021,-5.70163]],[[279.25052,59.30574],[8.32379,6.65903],[-10.01337,-7.51299]],[[248.98462,37.20401],[10.37262,6.94312],[-1.57463,-1.05401]],[[244.26701,34.03262],[1.50304,1.1538],[-0.58492,-0.449]],[[239.93681,30.69098],[0.83677,-0.22364],[-1.38652,0.37056]],[[235.18972,34.22136],[0.85635,-0.6208],[-1.77477,1.28659]],[[229.501,37.5205],[1.74797,-1.32277],[-0.91782,0.69456]],[[227.05673,39.95956],[0.93774,-0.66744],[-2.82408,2.01006]],[[218.10223,45.24719],[2.94731,-1.8246],[-4.66567,1.63414]],[[205.57095,53.16157],[4.05235,-2.90042],[-3.35671,2.40252]],[[195.57023,60.33549],[3.30901,-2.40307],[0,0]]],&quot;closed&quot;:true,&quot;fillColor&quot;:[0,0,0,1]}]}" fill="#ffffff" stroke="none" stroke-width="0.5"/><path d="M192.37823,124.92673c-2.47883,1.62302 -5.12449,3.15962 -7.71475,4.59492c0.2903,-2.74213 0.60931,-5.48577 0.96969,-8.2186c0.81477,-6.17865 2.88528,-12.44585 4.28573,-18.5137c0,0 0.86027,-3.73077 -2.44067,-5.10577c1.06316,-2.35836 2.58988,-4.49873 3.88767,-6.7406c1.41041,-2.4364 0.86739,-3.1213 3.50242,-4.85322c2.88665,-1.89729 5.97192,-1.92792 9.14857,-2.72725c2.45391,-0.61747 4.71994,-1.92538 7.20296,-2.41276c6.72444,-1.31989 13.56584,-1.3677 20.38153,-1.3441c17.48126,1.84191 34.92519,5.57352 51.05032,12.70445c5.73497,2.53615 13.84316,5.63232 17.38081,11.34943c0.43428,0.70181 0.3468,1.62922 0.68891,2.3803c1.10473,2.42536 2.49802,4.77867 3.10451,7.37385c0.46632,1.99539 0.24367,4.0959 0.38967,6.13985c0.14765,2.06713 0.34255,4.13284 0.56603,6.19263c-5.63199,-3.80577 -11.31273,-7.76987 -16.85506,-11.67705c-4.87063,-3.43365 -9.16675,-7.64142 -14.01248,-11.10246c-1.64634,-1.17589 -3.55633,-1.96345 -5.13054,-3.23429c-3.35152,-2.70565 -5.98721,-6.16118 -9.11247,-9.1253c-2.79134,-2.64741 -4.77166,-6.72775 -8.46382,-7.80861c-1.95054,-0.57101 -3.05445,2.67364 -4.60315,3.98976c-3.6728,3.12124 -5.95127,6.95043 -9.85087,9.93524c-3.5839,2.74317 -7.4423,4.92903 -10.62679,8.18761c-11.86004,5.7519 -22.76579,12.8249 -33.74821,20.01564z" data-paper-data="{&quot;noHover&quot;:false,&quot;origItem&quot;:[&quot;Path&quot;,{&quot;applyMatrix&quot;:true,&quot;segments&quot;:[[[192.33164,124.94484],[0,0],[10.98242,-7.19074]],[[226.07646,104.91199],[-11.86004,5.7519],[3.18449,-3.25858]],[[236.71762,96.68838],[-3.5839,2.74317],[3.8996,-2.98481]],[[246.60937,86.73851],[-3.6728,3.12124],[1.5487,-1.31612]],[[251.22153,82.75055],[-1.95054,-0.57101],[3.69216,1.08086]],[[259.70761,90.57294],[-2.79134,-2.64741],[3.12526,2.96412]],[[268.83256,99.72251],[-3.35152,-2.70565],[1.57421,1.27084]],[[273.96401,102.96391],[-1.64634,-1.17589],[4.84573,3.46104]],[[287.9754,114.07985],[-4.87063,-3.43365],[5.54233,3.90718]],[[304.73447,125.72954],[-5.63199,-3.80577],[-0.22348,-2.05979]],[[304.16711,119.54133],[0.14765,2.06713],[-0.146,-2.04395]],[[303.77648,113.40629],[0.46632,1.99539],[-0.60649,-2.59518]],[[300.67144,106.03853],[1.10473,2.42536],[-0.34211,-0.75108]],[[299.98252,103.66036],[0.43428,0.70181],[-3.53765,-5.71711]],[[282.60413,92.32549],[5.73497,2.53615],[-16.12513,-7.13093]],[[231.62464,79.64992],[17.48126,1.84191],[-6.81569,-0.0236]],[[211.26071,80.97857],[6.72444,-1.31989],[-2.48302,0.48738]],[[204.06123,83.38562],[2.45391,-0.61747],[-3.17665,0.79933]],[[194.9152,86.10715],[2.88665,-1.89729],[-2.63503,1.73192]],[[191.41434,90.95536],[1.41041,-2.4364],[-1.29779,2.24187]],[[187.52787,97.68956],[1.06316,-2.35836],[3.30094,1.375]],[[189.96887,102.79098],[0,0],[-1.40045,6.06785]],[[185.68128,121.28943],[0.81477,-6.17865],[-0.36038,2.73283]],[[184.70966,129.50247],[0.2903,-2.74213],[2.59026,-1.4353]],[[192.33163,124.94485],[-2.47883,1.62302],[0,0]]],&quot;closed&quot;:true,&quot;fillColor&quot;:[0,0,0,1]}]}" fill="#ffffff" stroke="none" stroke-width="0.5"/><path d="M301.68668,134.46906c1.52984,1.21925 3.13159,2.28614 4.77001,3.26907c0.87242,4.88211 1.77353,9.83662 2.11978,14.73118c0.74944,10.59423 -0.01329,20.94876 -0.49606,31.51645c-0.15259,3.34015 0.46033,7.66053 -0.75581,10.91447c-0.4649,1.24391 -1.29191,2.32845 -1.8177,3.54788c-1.55166,3.59868 -2.06821,7.49838 -6.08158,9.32368c-5.6542,2.57156 -14.43486,0.99315 -20.30059,0.99315c-14.21737,0 -28.30338,-0.44786 -42.43939,-1.9792c-7.36473,-0.79781 -14.35809,-1.11514 -21.55137,-2.75616c-5.94861,-1.35707 -12.72997,-1.99201 -18.15158,-5.17708c-0.70957,-1.68204 -2.30205,-2.24988 -3.29154,-2.44011c-1.94009,-1.77885 -3.61407,-3.90491 -5.45053,-5.72555c-1.37929,-1.36741 -2.70592,-2.8851 -3.52009,-4.64844c-0.53759,-1.07114 -2.66925,-5.05956 -2.99119,-6.54762c-0.35329,-1.63289 0.07096,-3.34398 0.07096,-5.01465c0,-4.96467 0.14424,-9.81351 0.47328,-14.75151c0.43335,-6.5034 0.85877,-13.02374 1.39076,-19.51452c4.60927,-2.41739 9.19055,-4.90407 13.54815,-7.75223c11.12032,-7.26834 22.24803,-14.21951 34.11005,-20.29187c4.602,-4.5129 10.25044,-7.62878 14.99682,-11.99613c1.61722,-1.48807 2.67347,-3.49819 4.15268,-5.12353c0.37076,-0.40738 0.88208,-0.70142 1.38159,-0.99797c0.75278,3.21631 3.90705,5.23647 6.14847,7.47251c1.73294,1.72878 3.31709,3.63313 5.21778,5.17558c1.69939,1.3791 3.75355,2.2729 5.53442,3.54503c4.87162,3.47992 9.21122,7.72552 14.10588,11.18479c6.20865,4.38792 12.49265,8.8267 18.82679,13.04279z" data-paper-data="{&quot;noHover&quot;:false,&quot;origItem&quot;:[&quot;Path&quot;,{&quot;applyMatrix&quot;:true,&quot;segments&quot;:[[[301.63885,134.48363],[0,0],[-6.33414,-4.21609]],[[282.82091,121.4576],[6.20865,4.38792],[-4.89466,-3.45927]],[[268.72932,110.28497],[4.87162,3.47992],[-1.78087,-1.27213]],[[263.20102,106.74289],[1.69939,1.3791],[-1.90069,-1.54245]],[[257.98947,101.56934],[1.73294,1.72878],[-2.24142,-2.23604]],[[251.84763,94.09805],[0.75278,3.21631],[-0.49951,0.29655]],[[250.46714,95.09613],[0.37076,-0.40738],[-1.47921,1.62534]],[[246.31801,100.21986],[1.61722,-1.48807],[-4.74638,4.36735]],[[231.33886,112.21316],[4.602,-4.5129],[-11.86202,6.07236]],[[197.25862,132.47643],[11.12032,-7.26834],[-4.3576,2.84816]],[[183.7132,140.21924],[4.60927,-2.41739],[-0.53199,6.49078]],[[182.32288,159.71827],[0.43335,-6.5034],[-0.32904,4.938]],[[181.84705,174.45921],[0,-4.96467],[0,1.67067]],[[181.77484,179.47071],[-0.35329,-1.63289],[0.32194,1.48806]],[[184.76371,186.0137],[-0.53759,-1.07114],[0.81417,1.76334]],[[188.28158,190.65859],[-1.37929,-1.36741],[1.83646,1.82064]],[[193.72861,196.37961],[-1.94009,-1.77885],[0.98949,0.19023]],[[197.01814,198.81754],[-0.70957,-1.68204],[5.42161,3.18507]],[[215.15889,203.98623],[-5.94861,-1.35707],[7.19328,1.64102]],[[236.69301,206.73633],[-7.36473,-0.79781],[14.13601,1.53134]],[[279.09922,208.72194],[-14.21737,0],[5.86573,0]],[[299.39059,207.73582],[-5.6542,2.57156],[4.01337,-1.8253]],[[305.46741,198.41744],[-1.55166,3.59868],[0.52579,-1.21943]],[[307.28358,194.87165],[-0.4649,1.24391],[1.21614,-3.25394]],[[308.03596,183.96288],[-0.15259,3.34015],[0.48277,-10.56769]],[[308.52648,152.46866],[0.74944,10.59423],[-0.34625,-4.89456]],[[306.40794,137.74921],[0.87242,4.88211],[-1.63842,-0.98293]],[[301.63885,134.48362],[1.52984,1.21925],[0,0]]],&quot;closed&quot;:true,&quot;fillColor&quot;:[0,0,0,1]}]}" fill="#ffeaab" stroke="none" stroke-width="0.5"/><path d="M158.94237,203.98758c10.53972,1.09382 21.27055,1.24537 31.9436,1.26006c2.41406,1.56813 4.96412,2.88511 7.57166,3.8973c4.79311,1.86058 9.71951,2.45574 14.69598,3.58262c7.53451,1.70613 14.85749,2.0794 22.55507,2.90966c14.4542,1.55904 28.87684,2.04093 43.41466,2.04093c7.57598,0 17.13142,1.42091 24.29751,-1.91213c1.80751,-0.8407 3.24252,-1.9021 4.42915,-3.12736c1.17098,0.63782 2.39523,0.63884 2.39523,0.63884l1.50044,-0.08694c2.88007,-0.6003 5.44163,-0.52778 8.38213,-0.52778c6.14912,0 17.18013,-1.24263 20.48482,5.71378c1.03795,4.38234 1.75272,8.68139 2.21514,13.09107c0.48453,4.62042 2.65588,8.98416 3.0896,13.59238c0.51005,5.41917 1.56308,10.51802 2.53311,15.86792c0.59822,3.29929 0.53372,6.71133 1.25578,9.98575c0.42052,1.90694 1.42804,3.65426 1.85229,5.56037c1.02361,4.59903 0.37801,9.4472 2.48448,13.66015c-0.1162,2.42756 0.34058,4.85178 0.50492,7.27655c0.24958,3.68252 -0.2934,6.85636 -0.61252,10.46882c-0.26865,3.04109 0.27239,6.15763 0.00497,9.19382c-0.10741,1.2195 -1.36619,6.95111 -2.80331,7.40421c-1.41985,0.44765 -2.96483,-0.34349 -4.45357,-0.34176c-4.75149,0.00552 -7.90823,-1.06622 -12.42129,-2.31455c-4.21624,-1.16623 -8.45972,-0.05766 -12.57414,-1.10617c-1.29158,-0.63716 -2.50733,-1.46015 -3.87513,-1.91103c-1.85046,-0.60998 -4.02776,-0.15364 -5.74746,-1.06955c-2.17833,-1.16018 -4.05264,-2.92024 -6.36499,-3.7829c-6.20427,-2.31461 -12.84206,-4.88307 -18.80223,-7.87164c-1.27149,-0.63755 -2.28641,-1.71119 -3.53981,-2.38361c-4.83186,-2.59218 -10.36748,-4.01985 -14.95926,-7.09846c-2.74698,-1.84174 -5.34603,-3.93351 -8.22727,-5.68476c-7.09817,-4.31435 -14.75913,-7.96073 -21.92315,-12.21321c-7.32041,-3.6571 -13.89335,-8.11567 -21.02252,-12.07904c-14.16534,-7.87504 -28.91005,-14.47444 -43.37772,-21.70827c-3.0926,-1.5463 -6.09191,-3.27342 -9.15148,-4.88409c-0.9744,-0.51296 -2.1461,-0.68866 -2.99932,-1.38479c-0.9503,-0.77534 -1.34075,-2.09165 -2.25777,-2.90609c-0.94994,-0.84368 -2.40407,-1.04238 -3.25158,-1.9889c-0.64429,-0.71957 -0.43636,-1.92698 -0.9723,-2.73051c-0.57257,-0.85844 -1.72608,-1.23324 -2.25911,-2.11678c-0.89655,-1.4861 -0.71779,-5.61766 -0.7015,-7.14214c0,-4.32261 0.00226,-8.64988 0.00226,-12.97249c0,-1.23503 0.07492,-2.4735 0.00068,-3.7063c-0.01802,-0.29921 -0.01431,-0.61553 -0.03789,-0.92354c1.85794,0.47284 5.5289,-0.29326 6.72186,-0.16945z" data-paper-data="{&quot;noHover&quot;:false,&quot;origItem&quot;:[&quot;Path&quot;,{&quot;applyMatrix&quot;:true,&quot;segments&quot;:[[[158.98451,204.01449],[0,0],[-1.19296,-0.12381]],[[152.26349,204.18258],[1.85794,0.47284],[0.02358,0.30801]],[[152.30155,205.10584],[-0.01802,-0.29921],[0.07424,1.2328]],[[152.30155,208.81093],[0,-1.23503],[0,4.32261]],[[152.30155,221.77875],[0,-4.32261],[-0.01629,1.52448]],[[153.00412,228.91812],[-0.89655,-1.4861],[0.53303,0.88354]],[[155.26343,231.03433],[-0.57257,-0.85844],[0.53594,0.80353]],[[156.23608,233.76378],[-0.64429,-0.71957],[0.84751,0.94652]],[[159.4878,235.75223],[-0.94994,-0.84368],[0.91702,0.81444]],[[161.74588,238.65725],[-0.9503,-0.77534],[0.85322,0.69613]],[[164.74528,240.04176],[-0.9744,-0.51296],[3.05957,1.61067]],[[173.89711,244.92449],[-3.0926,-1.5463],[14.46767,7.23383]],[[217.27615,266.61772],[-14.16534,-7.87504],[7.12917,3.96337]],[[238.28502,278.66553],[-7.32041,-3.6571],[7.16402,4.25248]],[[260.15961,290.86471],[-7.09817,-4.31435],[2.88124,1.75125]],[[268.37814,296.55258],[-2.74698,-1.84174],[4.59178,3.07861]],[[283.32819,303.65659],[-4.83186,-2.59218],[1.2534,0.67242]],[[286.86699,306.04099],[-1.27149,-0.63755],[5.96017,2.98857]],[[305.66423,313.91722],[-6.20427,-2.31461],[2.31235,0.86266]],[[312.02852,317.70088],[-2.17833,-1.16018],[1.7197,0.91591]],[[317.77478,318.7718],[-1.85046,-0.60998],[1.3678,0.45088]],[[321.64953,320.68328],[-1.29158,-0.63716],[4.11442,1.04851]],[[334.22147,321.79231],[-4.21624,-1.16623],[4.51306,1.24833]],[[346.64142,324.10885],[-4.75149,0.00552],[1.48874,-0.00173]],[[351.0945,324.45139],[-1.41985,0.44765],[1.43712,-0.4531]],[[353.89611,317.05016],[-0.10741,1.2195],[0.26742,-3.03619]],[[353.88954,307.85969],[-0.26865,3.04109],[0.31912,-3.61246]],[[354.50042,297.3952],[0.24958,3.68252],[-0.16434,-2.42477]],[[353.99459,290.12177],[-0.1162,2.42756],[-2.10647,-4.21295]],[[351.50892,276.4679],[1.02361,4.59903],[-0.42425,-1.90611]],[[349.65637,270.91026],[0.42052,1.90694],[-0.72206,-3.27442]],[[348.4005,260.92971],[0.59822,3.29929],[-0.97003,-5.3499]],[[345.86841,245.0702],[0.51005,5.41917],[-0.43372,-4.60822]],[[342.78083,231.48487],[0.48453,4.62042],[-0.46242,-4.40968]],[[340.56839,218.39986],[1.03795,4.38234],[-3.30469,-6.95641]],[[320.08827,212.69339],[6.14912,0],[-2.9405,0]],[[311.70807,213.22352],[2.88007,-0.6003],[0,0]],[310.20803,213.31091],[[307.81374,212.67309],[1.17098,0.63782],[-1.18663,1.22526]],[[303.38498,215.80085],[1.80751,-0.8407],[-7.16609,3.33304]],[[279.09921,217.72194],[7.57598,0],[-14.53782,0]],[[235.72579,215.68421],[14.4542,1.55904],[-7.69758,-0.83026]],[[213.18439,212.76697],[7.53451,1.70613],[-4.97647,-1.12688]],[[198.49293,209.18036],[4.79311,1.86058],[-2.60754,-1.01219]],[[190.92233,205.28197],[2.41406,1.56813],[-10.67305,-0.01469]],[[158.98452,204.01448],[10.53972,1.09382],[0,0]]],&quot;closed&quot;:true,&quot;fillColor&quot;:[0,0,0],&quot;strokeWidth&quot;:0.5}]}" fill="#7aff69" stroke="none" stroke-width="0.25"/><path d="M196.0787,374.05682c3.18198,3.18198 0,6.36396 0,6.36396l-1.58637,1.46279c-7.90463,5.15231 -15.9528,4.35793 -25.00966,4.35793c-3.99675,-0.00715 -7.96706,-0.65568 -11.95588,-0.90743c-4.5212,-0.28534 -9.29468,0.46049 -13.80908,-0.02683c-1.23053,-0.13283 -2.3682,-0.80472 -3.60216,-0.90054c-7.51522,-0.58359 -15.31838,0.03963 -22.86422,0.03372c-6.29367,-0.00494 -12.69589,-0.62746 -18.87586,-1.88501c-1.68169,-0.3422 -3.51938,-0.45927 -4.95425,-1.40071c-1.8802,-1.23362 -3.58132,-2.91249 -4.64193,-4.89545c-0.86723,-1.62141 -0.64403,-3.63191 -0.36876,-5.63255c-2.67541,-1.01266 -2.67541,-4.19439 -2.67541,-4.19439c0,-1.784 -0.02577,-7.75709 0.16328,-8.40552c0.92797,-3.18287 3.3899,-5.71656 4.73434,-8.74711c2.97031,-6.69548 7.24818,-11.48542 11.08364,-17.6326c0.76654,-1.22855 1.14619,-2.68253 1.97842,-3.86757c1.26481,-1.80099 3.50705,-2.68145 5.06082,-4.24001c2.91605,-2.92503 4.98154,-5.76126 8.34438,-8.31586c1.01904,-0.77412 1.72097,-2.06472 2.93196,-2.4785c1.43268,-0.48953 9.94177,-0.32525 11.1709,-0.32064c7.18279,1.4045 14.36289,2.70663 21.42401,4.63155c3.60235,0.98203 7.54411,2.90369 11.27284,3.50952c0.9921,0.16119 2.0488,-0.21578 3.01469,0.06227c1.56177,0.4496 2.92213,1.4257 4.41173,2.07562c2.97777,1.29923 6.47239,2.1095 8.73442,4.72913c3.14873,3.6465 3.73717,8.82784 5.34963,13.12388c0.90416,2.40893 2.52921,4.60152 2.92303,7.14422c1.01308,6.54086 0.05811,13.88234 0.05811,20.53271c-0.05443,0.50014 -0.10886,1.00028 -0.16328,1.50042l2.22362,3.38867c0,0 0.05775,0.09625 0.13981,0.26747c1.16406,-0.71949 3.32565,-1.49473 5.48724,0.66686zM95.16059,359.01662c0.71859,1.52691 1.75118,2.9424 2.15578,4.58073c0.07091,0.28712 0.18301,7.40043 0.12038,8.23821c-0.02579,0.34494 -0.43629,0.64659 -0.34254,0.97955c0.28415,1.00921 1.97479,0.75094 3.01138,0.90817c2.08866,0.3168 11.12253,1.58638 12.92267,1.72585c9.33877,0.72352 18.84215,-0.68696 28.18696,0.02502c1.2341,0.09403 2.37255,0.75946 3.60216,0.90054c4.24303,0.48682 8.97833,-0.28863 13.20713,-0.02683c3.82367,0.23672 7.62719,0.90152 11.45817,0.89365c4.33453,0 8.73661,0.48983 12.88241,-0.14063l-2.81048,-4.96465c-0.05443,-1.30094 -0.10886,-2.60188 -0.16328,-3.90282c0,-6.22057 0.8057,-12.95262 0.05811,-19.09107c-0.24179,-1.98532 -1.77847,-3.59051 -2.48021,-5.46334c-1.20295,-3.2105 -1.49711,-7.46336 -3.65577,-10.29017c-1.25239,-1.64002 -3.796,-1.62054 -5.67422,-2.47519c-0.9656,-0.43938 -1.77172,-1.23803 -2.7926,-1.52654c-0.76643,-0.21661 -1.60343,0.19615 -2.38855,0.06227c-4.07635,-0.69511 -8.18184,-2.61449 -12.14121,-3.69481c-6.59359,-1.79907 -13.30648,-2.99979 -20.00084,-4.37385c-1.65327,0.0073 -3.30835,0.09932 -4.95982,0.0219c-0.63631,-0.02983 -1.271,-0.5291 -1.88009,-0.34254c-0.417,0.12772 -0.34076,0.8379 -0.67021,1.12366c-1.57969,1.37023 -3.50462,2.37578 -4.85665,3.97107c-1.06545,1.25715 -1.84198,2.75901 -3.00869,3.9228c-1.16448,1.16155 -3.08547,1.56177 -3.94458,2.96432c-4.09793,6.69006 -8.95163,12.73441 -12.15307,19.92468c-0.95601,2.14715 -2.6392,3.95221 -3.68725,6.0404c0.00329,0.00634 0.00493,0.00963 0.00493,0.00963z" fill="#000000" stroke="none" stroke-width="0.5"/><path d="M95.11183,359.02759c0,0 -0.00164,-0.0033 -0.00493,-0.00964c1.04805,-2.08819 2.73025,-3.89953 3.68626,-6.04668c3.20144,-7.19027 8.06172,-13.26447 12.15965,-19.95453c0.85911,-1.40255 2.78433,-1.80892 3.94881,-2.97047c1.16671,-1.16379 1.94872,-2.67145 3.01417,-3.9286c1.35203,-1.59529 3.28504,-2.60678 4.86473,-3.97701c0.32945,-0.28576 0.25477,-0.99682 0.67177,-1.12454c0.60909,-0.18656 1.24593,0.31161 1.88224,0.34144c1.65147,0.07742 3.31374,-0.0174 4.96701,-0.0247c6.69436,1.37406 13.44385,2.57777 20.03744,4.37684c3.95937,1.08032 8.08116,3.01252 12.15751,3.70763c0.78512,0.13388 1.62353,-0.27711 2.38996,-0.0605c1.02088,0.28851 1.82943,1.09065 2.79503,1.53003c1.87822,0.85465 4.42506,0.84111 5.67745,2.48113c2.15866,2.82681 2.45685,7.09332 3.6598,10.30382c0.70174,1.87283 2.23894,3.4851 2.48073,5.47042c0.74759,6.13845 -0.06282,12.89179 -0.06282,19.11236c0.05442,1.30094 0.10716,2.60518 0.16159,3.90612l2.80901,4.9671c-4.1458,0.63046 -8.55306,0.14739 -12.88759,0.14739c-3.83098,0.00787 -7.64249,-0.64986 -11.46616,-0.88658c-4.2288,-0.2618 -8.98216,0.52168 -13.22519,0.03486c-1.22961,-0.14108 -2.37429,-0.80553 -3.60839,-0.89956c-9.34481,-0.71198 -18.88786,0.68441 -28.22663,-0.03911c-1.80014,-0.13947 -10.84122,-1.41797 -12.92988,-1.73477c-1.03659,-0.15723 -2.72851,0.09891 -3.01266,-0.9103c-0.09375,-0.33296 0.3164,-0.63524 0.34219,-0.98018c0.06263,-0.83778 -0.05285,-7.95871 -0.12376,-8.24583c-0.4046,-1.63833 -1.43874,-3.05925 -2.15733,-4.58616z" data-paper-data="{&quot;noHover&quot;:false,&quot;origItem&quot;:[&quot;Path&quot;,{&quot;applyMatrix&quot;:true,&quot;segments&quot;:[[[95.16059,359.01662],[0,0],[0.71859,1.52691]],[[97.31637,363.59735],[-0.4046,-1.63833],[0.07091,0.28712]],[[97.43675,371.83556],[0.06263,-0.83778],[-0.02579,0.34494]],[[97.09421,372.81511],[-0.09375,-0.33296],[0.28415,1.00921]],[[100.10559,373.72328],[-1.03659,-0.15723],[2.08866,0.3168]],[[113.02826,375.44913],[-1.80014,-0.13947],[9.33877,0.72352]],[[141.21522,375.47415],[-9.34481,-0.71198],[1.2341,0.09403]],[[144.81738,376.37469],[-1.22961,-0.14108],[4.24303,0.48682]],[[158.02451,376.34786],[-4.2288,-0.2618],[3.82367,0.23672]],[[169.48268,377.24151],[-3.83098,0.00787],[4.33453,0]],[[182.36509,377.10088],[-4.1458,0.63046],[0,0]],[[179.55461,372.13623],[0,0],[-0.05443,-1.30094]],[[179.39133,368.23341],[0.05442,1.30094],[0,-6.22057]],[[179.44944,349.14234],[0.74759,6.13845],[-0.24179,-1.98532]],[[176.96923,343.679],[0.70174,1.87283],[-1.20295,-3.2105]],[[173.31346,333.38883],[2.15866,2.82681],[-1.25239,-1.64002]],[[167.63924,330.91364],[1.87822,0.85465],[-0.9656,-0.43938]],[[164.84664,329.3871],[1.02088,0.28851],[-0.76643,-0.21661]],[[162.45809,329.44937],[0.78512,0.13388],[-4.07635,-0.69511]],[[150.31688,325.75456],[3.95937,1.08032],[-6.59359,-1.79907]],[[130.31604,321.38071],[6.69436,1.37406],[-1.65327,0.0073]],[[125.35622,321.40261],[1.65147,0.07742],[-0.63631,-0.02983]],[[123.47613,321.06007],[0.60909,-0.18656],[-0.417,0.12772]],[[122.80592,322.18373],[0.32945,-0.28576],[-1.57969,1.37023]],[[117.94927,326.1548],[1.35203,-1.59529],[-1.06545,1.25715]],[[114.94058,330.0776],[1.16671,-1.16379],[-1.16448,1.16155]],[[110.996,333.04192],[0.85911,-1.40255],[-4.09793,6.69006]],[[98.84293,352.9666],[3.20144,-7.19027],[-0.95601,2.14715]],[[95.15568,359.007],[1.04805,-2.08819],[0.00329,0.00634]],[95.16061,359.01663]],&quot;closed&quot;:true,&quot;fillColor&quot;:[0,0,0,1]}]}" fill="#00f3ff" stroke="none" stroke-width="0.5"/><path d="M274.96291,361.34545c-0.02107,-0.22569 -0.04764,-0.44828 -0.0806,-0.66708c-1.04783,-6.95548 -2.1478,-15.09656 1.45092,-21.67832c1.11116,-2.03222 4.21796,-4.17634 6.15993,-5.27711c9.33908,-5.29371 21.5754,-3.30953 31.9765,-3.30953c8.40504,0 16.81009,0 25.21513,0c1.68943,0 6.69042,-0.10619 7.62039,0.5841c4.86054,3.60788 7.21494,12.74358 8.47648,18.23548c0.36517,1.58971 0.17114,3.30696 0.73357,4.83804c0.58319,1.58761 1.96198,2.78429 2.63621,4.33543c1.10325,2.53812 0.81604,5.51858 1.80108,8.10486c0.37275,0.97867 1.35071,1.6388 1.75894,2.60321c1.10942,2.62096 1.22087,5.84875 2.41424,8.4601c0.72342,1.58301 2.79014,2.90312 2.45125,4.61029c-0.42124,2.12203 -2.88451,3.22513 -4.32677,4.8377c-1.39101,1.33351 -2.47803,3.08395 -4.17304,4.00054c-2.27562,1.23057 -4.92949,1.5761 -7.42187,2.26951c-7.34269,2.04283 -14.54408,3.27704 -22.00893,4.58982c-2.81727,0.49545 -5.53851,1.52754 -8.38186,1.84024c-0.30406,0.03344 -13.35229,0.02687 -14.89967,0.02687c-2.70656,0 -6.87498,0.6036 -9.40889,-0.19309c-2.54901,-0.80144 -4.62228,-2.68918 -7.01221,-3.88415c-2.10294,-1.05147 -6.09369,-2.82367 -7.66487,-4.64897c-2.95106,-3.42836 -1.72143,-4.35506 -3.8792,-7.55124c-1.71399,-2.53884 -3.5514,-5.13226 -4.37038,-8.08399c-0.45095,-1.6253 -0.23093,-3.4091 -0.80228,-4.99608l-0.94564,-3.7689c0,0 -0.98897,-3.95588 2.68158,-5.27774zM282.53924,371.54254c0.08947,0.71877 0.18287,1.43699 0.32762,2.14366c0.35707,1.74313 1.85427,3.03823 2.83395,4.52357c1.39868,2.12063 1.76697,4.85103 3.32512,6.85741c1.13762,1.46486 3.28378,1.72589 4.94269,2.55535c1.93979,0.9699 3.56766,2.55078 5.59535,3.32017c1.42562,0.54094 5.2098,-0.19309 6.80083,-0.19309c4.63922,0 9.30742,0.54488 13.91762,0.02687c2.65784,-0.29864 5.19428,-1.2955 7.82786,-1.76193c7.2131,-1.27749 14.08564,-2.61214 21.217,-4.41558c1.73026,-0.43756 3.62326,-0.47006 5.1857,-1.33265c0.89062,-0.49169 1.51632,-1.32562 2.15207,-2.14656c-1.20055,-2.41164 -1.2345,-6.17942 -2.18423,-8.36426c-0.44547,-1.02479 -1.45515,-1.75217 -1.84322,-2.80004c-0.96114,-2.59526 -0.65349,-5.58649 -1.80108,-8.10486c-0.75029,-1.6465 -2.15348,-2.96778 -2.76703,-4.66997c-2.0373,-5.65221 -1.63961,-13.15698 -5.1986,-18.35133c-0.14298,-0.20868 -0.23566,0.53849 -0.48448,0.5841c-2.06682,0.3789 -4.20252,0 -6.30378,0c-7.20432,0 -14.40865,0 -21.61297,0c-3.60216,0 -7.20432,0 -10.80648,0c-3.17826,0 -6.3666,-0.26835 -9.53478,-0.01533c-2.02793,0.16195 -8.9259,1.36167 -9.96337,4.03626c-2.077,5.35452 -1.09164,10.70493 -0.35016,16.14438c0.37451,2.74737 0.03372,5.87562 0.03372,8.65469c0,0 0,1.97595 -1.30936,3.30914z" fill="#000000" stroke="none" stroke-width="0.5"/><path d="M282.49,371.55128c1.30936,-1.33319 1.3088,-3.31333 1.3088,-3.31333c0,-2.77907 0.34114,-5.91931 -0.03337,-8.66668c-0.74148,-5.43945 -1.72013,-10.80838 0.35687,-16.1629c1.03747,-2.67459 7.94288,-3.88377 9.97081,-4.04572c3.16818,-0.25302 6.36535,0.00833 9.54361,0.00833c3.60216,0 7.22094,-0.0066 10.8231,-0.0066c7.20432,0 14.4456,0.007 21.64992,0.007c2.10126,0 4.24314,0.3836 6.30996,0.0047c0.24882,-0.04561 0.34147,-0.79281 0.48445,-0.58413c3.55899,5.19435 3.17628,12.72327 5.21358,18.37548c0.61355,1.70219 2.01826,3.0317 2.76855,4.6782c1.14759,2.51837 0.83963,5.52203 1.80077,8.11729c0.38807,1.04787 1.39711,1.77868 1.84258,2.80347c0.94973,2.18484 0.98072,5.9617 2.18127,8.37334c-0.63575,0.82094 -1.263,1.65811 -2.15362,2.1498c-1.56244,0.86259 -3.458,0.89943 -5.18826,1.33699c-7.13136,1.80344 -14.02894,3.15767 -21.24204,4.43516c-2.63358,0.46643 -5.18538,1.46614 -7.84322,1.76478c-4.6102,0.51801 -9.30255,-0.03237 -13.94177,-0.03237c-1.59103,0 -5.38291,0.72914 -6.80853,0.1882c-2.02769,-0.76939 -3.66248,-2.35675 -5.60227,-3.32665c-1.65891,-0.82946 -3.80939,-1.09614 -4.94701,-2.561c-1.55815,-2.00638 -1.93123,-4.74605 -3.32991,-6.86668c-0.97968,-1.48534 -2.47896,-2.78709 -2.83603,-4.53022c-0.14475,-0.70667 -0.23873,-1.4277 -0.3282,-2.14647z" data-paper-data="{&quot;noHover&quot;:false,&quot;origItem&quot;:[&quot;Path&quot;,{&quot;applyMatrix&quot;:true,&quot;segments&quot;:[[[282.53924,371.54254],[0,0],[0.08947,0.71877]],[[282.86686,373.6862],[-0.14475,-0.70667],[0.35707,1.74313]],[[285.70081,378.20977],[-0.97968,-1.48534],[1.39868,2.12063]],[[289.02593,385.06718],[-1.55815,-2.00638],[1.13762,1.46486]],[[293.96862,387.62253],[-1.65891,-0.82946],[1.93979,0.9699]],[[299.56397,390.9427],[-2.02769,-0.76939],[1.42562,0.54094]],[[306.3648,390.74961],[-1.59103,0],[4.63922,0]],[[320.28242,390.77648],[-4.6102,0.51801],[2.65784,-0.29864]],[[328.11028,389.01455],[-2.63358,0.46643],[7.2131,-1.27749]],[[349.32728,384.59897],[-7.13136,1.80344],[1.73026,-0.43756]],[[354.51298,383.26632],[-1.56244,0.86259],[0.89062,-0.49169]],[[356.66505,381.11976],[-0.63575,0.82094],[-1.20055,-2.41164]],[[354.48082,372.7555],[0.94973,2.18484],[-0.44547,-1.02479]],[[352.6376,369.95546],[0.38807,1.04787],[-0.96114,-2.59526]],[[350.83652,361.8506],[1.14759,2.51837],[-0.75029,-1.6465]],[[348.06949,357.18063],[0.61355,1.70219],[-2.0373,-5.65221]],[[342.87089,338.8293],[3.55899,5.19435],[-0.14298,-0.20868]],[[342.38641,339.4134],[0.24882,-0.04561],[-2.06682,0.3789]],[[336.08263,339.4134],[2.10126,0],[-7.20432,0]],[[314.46966,339.4134],[7.20432,0],[-3.60216,0]],[[303.66318,339.4134],[3.60216,0],[-3.17826,0]],[[294.1284,339.39807],[3.16818,-0.25302],[-2.02793,0.16195]],[[284.16503,343.43433],[1.03747,-2.67459],[-2.077,5.35452]],[[283.81487,359.57871],[-0.74148,-5.43945],[0.37451,2.74737]],[[283.84859,368.2334],[0,-2.77907],[0,0]],[[282.53923,371.54254],[1.30936,-1.33319],[0,0]]],&quot;closed&quot;:true,&quot;fillColor&quot;:[0,0,0,1]}]}" fill="#00f3ff" stroke="none" stroke-width="0.5"/><path d="M151.18115,196.86282c0.6591,-0.54666 1.59154,-0.93334 2.91065,-0.93334c4.5,0 4.5,4.5 4.5,4.5v2.25169c0,5.4991 -0.45036,9.66972 -1.14774,15.0794c-0.76442,5.92962 0.09564,11.57718 -2.68737,17.29548c-0.56724,1.16551 -1.60648,2.05791 -2.17879,3.22094c-0.98641,2.00453 -0.55041,5.0899 -2.4718,6.22981c-4.28458,2.54193 -9.55198,1.48825 -13.28146,-1.02218c-0.88055,-0.59273 -1.3685,-1.6629 -2.25169,-2.25169c-1.39644,-0.93096 -3.10694,-1.32073 -4.50338,-2.25169c-1.36183,-0.90789 -2.39782,-2.31894 -3.88464,-3.0032c-1.55648,-0.77824 -7.01831,-3.49969 -7.3738,-3.75187c-2.68581,-1.90529 -4.56904,-4.89572 -7.45438,-6.48272c-1.95367,-1.07456 -4.37379,-1.27087 -6.16185,-2.6029c-1.47091,-1.09577 -1.93361,-3.16972 -3.27144,-4.42451c-0.47379,-0.44438 -1.26548,-0.29438 -1.90134,-0.42719c-5.37333,-1.12225 -10.25611,-0.96109 -15.73266,-0.97509c-3.7401,-0.00956 -8.32825,0.34132 -11.78806,1.90915c-3.51928,1.59478 -6.5365,4.21618 -10.1326,5.62922c-1.92976,0.75827 -4.26441,0.60798 -5.94891,1.81687c-2.02456,1.45293 -2.95027,4.03798 -4.69232,5.81986c-2.10206,2.15012 -4.67937,3.79622 -6.79642,5.93157c-2.13856,2.15703 -3.82832,4.72669 -5.93754,6.91242c-2.91854,3.02442 -6.59666,5.21002 -9.9047,7.80267c-2.21003,2.58917 -9.37729,11.40701 -12.31973,13.09381c-5.93941,3.40487 -12.52334,3.79583 -18.64013,1.40488c-2.12437,-0.83038 -3.84452,-2.47176 -5.88423,-3.49257c-3.8525,-1.92807 -7.059,-2.24711 -10.40323,-5.56768c-0.77372,-0.76825 -0.97382,-1.95785 -1.58022,-2.86401c-1.10231,-1.64721 -2.5667,-3.05164 -3.53561,-4.78069c-1.0402,-1.85627 -0.46142,-4.49277 -1.84186,-6.11207c-1.02309,-1.20012 -3.08177,-1.44034 -3.76889,-2.8598c-0.86051,-1.77765 -0.1503,-3.95771 -0.47436,-5.90592c-0.38945,-2.34132 -1.93666,-4.40258 -2.25169,-6.75507c-0.25662,-1.91632 0.19011,-3.87873 -0.02439,-5.80022c-0.17167,-1.53777 -0.97463,-2.96346 -1.12584,-4.50338c-0.23797,-2.42333 -0.02248,-4.86993 -0.03372,-7.30489c0,-11.66217 -0.01234,-23.32442 0.00009,-34.98658c0.00939,-8.81765 0.03223,-18.63476 2.49593,-27.2079c0.87212,-3.03478 2.50227,-5.79922 3.6721,-8.73213c1.8663,-4.67908 3.67277,-11.64021 7.45939,-15.49126c0.95614,-0.97241 11.77742,-8.04197 13.84997,-8.90372c4.85145,-2.01719 11.99725,-3.3262 17.23392,-3.73802c12.98166,-1.02089 25.72856,1.63293 38.50575,3.48659c5.01785,1.65977 10.16059,2.93217 15.15554,4.65963c4.31623,1.49273 8.24898,3.93388 12.47567,5.66397c5.47125,2.23951 7.60898,1.70478 13.84238,4.64958c2.36128,1.11552 4.36481,2.86858 6.54075,4.31265c9.23935,6.13172 17.60038,12.7251 25.45305,20.58163c7.33868,7.34229 15.0749,15.52482 19.06449,25.23848c1.03829,2.52798 4.80202,12.1633 6.43883,14.90081c0.19134,0.32001 0.72145,0.1886 1.08217,0.2829c0,0 0.30551,0.15276 0.70611,0.45827z" fill="#ffeaab" stroke="#000000" stroke-width="10"/><path d="M346.9697,224.07925c-0.89299,-0.89036 -1.25005,-1.96156 -1.25005,-1.96156c-1.44161,-4.333 -5.5541,-10.77297 -4.70743,-15.42418c2.11546,-11.62135 14.60457,-20.80719 23.3012,-27.21514c6.68959,-4.92911 13.40226,-10.56668 20.55576,-14.77972c4.44233,-2.6163 9.18323,-4.09934 13.67997,-6.52647c4.66856,-2.51987 8.89248,-5.8866 13.75763,-8.00216c4.35933,-1.89561 9.24183,-2.45689 13.52845,-4.51162c2.82332,-1.35332 5.22967,-3.57168 8.18304,-4.61102c2.80352,-0.9866 5.87359,-0.91283 8.81039,-1.36925c5.96089,-0.74191 11.79738,-2.32051 17.7576,-3.06786c3.3776,-0.42351 14.0343,-0.3478 17.74587,-0.35055c4.03752,-0.00299 8.18,-0.83457 12.11229,0.0812c2.48316,0.57829 4.94556,1.47304 7.10945,2.82141c2.63955,1.64476 4.57811,4.23574 7.11137,6.03991c3.46117,2.46502 7.48971,4.04411 11.0157,6.41548c7.25552,4.87965 7.26844,5.25195 13.81285,10.34668c1.63238,1.27079 3.49984,2.27229 4.93787,3.75944c1.65824,1.71489 3.14936,3.63955 4.25877,5.75139c0.70894,1.34952 0.35511,3.10742 1.09514,4.44015c1.18343,2.13124 3.48774,3.53145 4.54975,5.72572c0.75662,1.56328 2.29657,11.80999 2.59907,13.47373c0.5229,2.87592 2.32212,10.85163 2.32484,13.2681c0.00239,2.12935 -0.78891,4.18499 -1.18337,6.27749c-0.42895,3.2086 -0.2737,6.55129 -1.28684,9.62581c-0.98567,2.99119 -3.28467,5.39085 -4.60391,8.25064c-0.92946,2.01484 -1.50451,4.17854 -2.11399,6.31209c-0.98989,3.4652 -3.27378,14.06783 -4.67346,17.36582c-2.54056,5.98619 -7.68287,11.05475 -10.16527,16.96338c-0.59933,1.42654 -0.49064,3.09244 -1.12584,4.50338c-1.06941,2.37541 -3.44384,3.94472 -4.79076,6.17452c-1.8821,3.11576 -0.93106,7.55341 -7.30322,6.63653c-0.42404,-0.06101 -9.19576,-4.401 -12.28547,-6.23141c-2.06188,-1.2215 -4.2848,-2.22003 -6.14795,-3.72736c-3.34715,-2.70793 -5.76668,-6.45252 -9.14609,-9.12009c-2.43876,-1.92506 -5.34522,-3.27228 -7.56252,-5.44874c-4.41612,-4.3348 -7.55362,-9.80631 -11.48207,-14.58751c-1.4928,-1.98227 -3.23724,-3.79799 -4.47839,-5.9468c-0.9096,-1.57478 -0.8458,-3.63535 -1.90864,-5.11105c-0.14398,-0.19991 -7.02212,-4.77453 -7.16213,-4.88647c-0.95111,-0.76043 -1.48519,-2.26591 -2.68432,-2.47795c-1.5564,-0.27522 -3.28477,0.13275 -4.70943,-0.55169c-0.75639,-0.36339 -0.37052,-1.88608 -1.12584,-2.25169c-0.6723,-0.32542 -1.39279,0.61578 -2.13759,0.67207c-4.14711,0.31342 -8.45041,-1.16417 -12.47624,-0.12038c-2.26193,0.58646 -4.06019,2.34538 -6.2277,3.2184c-2.48109,0.99932 -5.26325,1.13114 -7.72009,2.18866c-5.32552,2.29231 -10.21493,5.73745 -15.16867,8.70802c-3.4767,2.08484 -9.79713,4.29521 -12.73289,7.29123c-1.44942,1.47917 -2.5592,3.25662 -3.83881,4.88493c-5.05494,1.83269 -10.58754,3.00427 -16.04937,1.85487c-2.78426,-0.58592 -5.80035,-3.12854 -7.29742,-5.39136c-0.65481,-0.98974 -0.52342,-2.35506 -1.12584,-3.37753c-1.3224,-2.24444 -3.73137,-3.79462 -4.79076,-6.17452c-1.12546,-2.52832 -1.25639,-5.41364 -2.29383,-7.97933c-1.58726,-3.92542 -3.55251,-7.69888 -4.49079,-11.84763z" fill="#ffeaab" stroke="#000000" stroke-width="10"/><path d="M200.18488,154.02556c0.15858,1.78023 0.24891,3.68308 0.88231,5.29687c-0.38537,-2.53689 -0.43365,-5.02052 0.23661,-7.13601c0.0702,-0.22156 0.14663,-0.44017 0.22879,-0.65605l-0.095,-0.02639l1.84912,-6.65682c0.1144,-0.45113 0.29694,-0.87509 0.53602,-1.26029c-0.18721,-0.57858 -0.37888,-1.18446 -0.56923,-1.82686c-0.15421,-0.49189 -0.3364,-0.97691 -0.50915,-1.46424c-0.50629,2.19737 -1.57712,4.26265 -1.9726,6.48653c-0.42416,2.38515 -0.4439,4.82184 -0.58687,7.24327zM215.61788,136.50628c0.13399,1.21791 0.25874,2.43772 0.43647,3.64616c1.43173,9.73495 2.53216,20.05422 0.44264,29.77954c-0.71062,3.30745 -0.27114,7.12458 -2.19207,9.90922c-0.2204,0.3195 -0.46651,0.61224 -0.73372,0.88302l0.08995,0.07871l-2.6089,2.9816c-0.82513,0.953 -2.04384,1.55588 -3.40335,1.55588c-2.48528,0 -4.5,-2.01472 -4.5,-4.5v-0.15773c-1.41067,0.93042 -2.9923,1.32989 -4.72,0.80146c-3.08315,-0.94301 -4.9148,-4.44885 -6.246,-7.38534c-2.84496,-6.27569 -1.58394,-13.1276 -1.05418,-19.57457c0.01369,-0.16664 0.0264,-0.33343 0.03829,-0.50034c-0.06726,-2.43395 0.08859,-4.90693 0.14595,-7.42632c0.12049,-5.29206 0.46278,-10.69012 2.009,-15.75269c2.08596,-6.82976 2.49435,-15.89287 13.4195,-15.06454c1.00288,0.07604 2.40368,2.29562 3.74766,5.00067c0.15382,-0.3855 0.30399,-0.77211 0.44817,-1.16056c0,0 1.58006,-4.21348 5.79354,-2.63343c4.21348,1.58006 2.63343,5.79354 2.63343,5.79354c-1.00064,2.63795 -2.33296,5.17295 -3.00191,7.91386c-0.46339,1.89866 -0.59611,3.85658 -0.74447,5.81187zM204.87331,130.38707c-0.47902,-0.96637 -1.00304,-1.91709 -1.43532,-2.8971c-0.16119,0.67977 -0.32483,1.35899 -0.4916,2.03742c0.70332,0.16075 1.33894,0.4611 1.92692,0.85968z" fill="#000000" stroke="none" stroke-width="0.5"/><path d="M268.31703,173.1138c0.08364,-0.17645 0.16752,-0.3528 0.25128,-0.5292c-0.0568,-1.38135 -0.10171,-2.76199 -0.1319,-4.1425c-0.015,0.14838 -0.02953,0.2968 -0.04357,0.44527c-0.13283,1.40411 -0.11876,2.81448 -0.07581,4.22642zM287.16748,144.04232c-0.29298,9.98428 -0.73587,19.94272 -2.35952,29.82468c-0.06886,0.41908 -0.12896,0.84204 -0.18466,1.26718c0.85493,0.07771 1.79082,0.46307 2.72671,1.39896c3.18198,3.18198 0,6.36396 0,6.36396l-3.87737,2.74581c-0.59576,0.01307 -1.22929,0.12747 -1.87277,0.26859l-1.99048,3.98095c-0.72155,1.52211 -2.27211,2.57474 -4.06852,2.57474c-1.90869,0 -3.53983,-1.18832 -4.19395,-2.86549l-1.62031,-3.88874c-1.42898,1.13704 -3.00017,1.98314 -4.75669,2.2312c-6.15999,0.86991 -5.52558,-7.85515 -5.55696,-10.48185c-0.1254,-10.49933 0.89057,-22.24587 5.32171,-31.90712c1.39085,-3.03249 2.03487,-6.5559 4.22341,-9.07399c3.08302,-3.54726 5.49184,-4.35345 7.49599,-3.23862c0.19218,-0.02504 0.38816,-0.03796 0.58717,-0.03796c0.58002,0 1.1344,0.10973 1.64353,0.30958c0.82052,-1.09866 2.13108,-1.80995 3.60778,-1.80995c2.42216,0 4.39736,1.91368 4.49613,4.31158l0.37387,7.85134l-0.05291,0.00252z" fill="#000000" stroke="none" stroke-width="0.5"/><path d="M209.09157,205.79755c0,-0.45747 0.09301,-0.82192 0.24121,-1.11228c-1.40067,-3.78273 -1.78968,-8.28501 0.77217,-11.66611c1.50763,-1.98975 4.97028,-3.47045 7.15195,-4.18496c6.18727,-2.02636 12.82378,-1.70132 19.23616,-1.70132c3.01086,0 6.1698,-0.21872 9.14876,0.30278c2.97575,0.52093 5.8074,2.00152 8.66076,2.95589c6.14177,1.39926 14.71118,7.39782 16.87363,13.58926c0.60213,1.724 1.60074,8.50767 0.19902,10.06603c-1.04857,1.16574 -2.87165,1.31603 -4.40172,1.65861c-3.94877,0.88413 -8.50141,-0.8524 -12.26441,-1.7028c-9.92348,-2.24261 -19.82686,-4.2228 -29.96856,-5.16323c-4.05639,0.00423 -7.94119,-0.10407 -11.9482,-0.82817l-1.45078,0.03629c0,0 -2.25,0 -2.25,-2.25zM213.72651,203.60725c3.7627,0.67498 7.40846,0.73329 11.22085,0.73694c10.40814,0.95475 20.57133,2.96536 30.75424,5.26929c2.79937,0.63337 5.59624,1.3893 8.45741,1.61575c1.2099,0.09576 2.77557,0.93804 3.64004,0.08615c0.26521,-0.26135 -0.41363,-0.64784 -0.46191,-1.01704c-0.20828,-1.59263 0.13399,-3.28659 -0.39808,-4.80209c-0.95448,-2.71863 -3.12848,-4.20834 -5.32073,-5.84128c-2.93768,-2.18819 -4.8515,-4.1355 -8.51694,-4.92669c-2.71742,-0.90309 -5.45653,-2.38104 -8.2834,-2.86866c-2.69463,-0.46481 -5.60295,-0.22672 -8.32491,-0.22672c-4.55068,0 -9.27499,-0.29985 -13.77543,0.52605c-2.88096,0.5287 -9.4923,1.58325 -9.95574,5.56416c-0.12018,1.03238 0.19406,2.06963 0.29086,3.10447c0.08848,0.94587 0.31919,1.8909 0.67375,2.77967z" fill="#000000" stroke="none" stroke-width="0.5"/></g></g></svg>