<svg version="1.1" xmlns="http://www.w3.org/2000/svg" xmlns:xlink="http://www.w3.org/1999/xlink" width="540.6923" height="422.37427" viewBox="0,0,540.6923,422.37427"><defs><radialGradient cx="240.82691" cy="173.53124" r="270.34615" gradientUnits="userSpaceOnUse" id="color-1"><stop offset="0" stop-color="#171717"/><stop offset="1" stop-color="#000000"/></radialGradient></defs><g transform="translate(29.51924,15.46876)"><g data-paper-data="{&quot;isPaintingLayer&quot;:true}" fill-rule="nonzero" stroke="none" stroke-linecap="butt" stroke-linejoin="miter" stroke-miterlimit="10" stroke-dasharray="" stroke-dashoffset="0" style="mix-blend-mode: normal"><path d="M-29.51924,362.53124v-378h540.6923v378z" fill="url(#color-1)" stroke-width="0"/><path d="M299.67306,356.99278c0,4.5 -4.5,4.5 -4.5,4.5h-2.07692c-3.77935,-0.03839 -7.26914,-0.69231 -11.07692,-0.69231c-4.60507,0 -8.78137,0.915 -13.29633,1.3509c-1.26058,0.1217 -2.56561,-0.34617 -3.79887,-0.05818c-1.71144,0.39965 -3.12596,1.71677 -4.84615,2.07692c-4.68178,0.9802 -10.20881,0.32568 -14.99984,0.76231c-5.23402,0.47701 -10.47946,0.41033 -15.73292,0.45881c-1.29399,0.77995 -2.70912,1.40145 -3.75896,2.47371c-1.13979,1.16413 -1.54061,2.92702 -2.69263,4.07905c-1.15203,1.15203 -2.92233,1.54532 -4.07905,2.69263c-0.85203,0.8451 -1.05202,2.17667 -1.78678,3.12551c-2.11362,2.72945 -4.99015,4.67718 -6.34181,8.02174c-1.29032,3.19277 -2.17502,6.43439 -3.3541,9.61186c0.44726,-0.01248 0.89223,-0.00114 1.33135,0.07822c2.89792,0.52376 5.66087,1.81925 8.59818,2.03014c11.51946,0.82704 23.43706,-0.01132 34.98869,-0.01132c7.50373,0 14.91504,-0.08719 22.29633,-0.65859c1.68002,-0.13005 3.38951,0.34652 5.0544,0.08666c2.1076,-0.32896 3.91095,-1.86116 6.02252,-2.16359c4.80058,-0.68756 9.79597,-1.19307 14.52245,-2.62349c2.05386,-0.62158 4.32608,-0.71524 6.18402,-1.7889c1.27939,-0.73932 2.16985,-2.05162 3.46154,-2.76923c0.83175,-0.46208 1.92931,-0.24524 2.76923,-0.69231c3.11124,-1.65603 5.64646,-5.29021 8.14258,-7.73684c5.27324,-8.9132 4.07501,-18.64059 3.23449,-28.52697c-0.20611,-2.42428 -1.27223,-2.23305 -1.99026,-5.0544c-0.0216,-0.08487 -0.03713,-0.1705 -0.04773,-0.25673c-10.57157,0.6739 -21.23136,1.09133 -31.92123,1.19264c-0.34183,0.31042 -0.6872,0.60653 -1.03591,0.88482c-2.1014,1.67702 -4.76388,3.16109 -7.4893,4.4185c0.18807,-0.00256 0.37676,-0.00388 0.5661,-0.00388c3.7707,0 7.38261,0.74843 11.07692,0.69231h2.07692c0,0 4.5,0 4.5,4.5zM207.24999,366.33893c0,0 -4.5,0 -4.5,-4.5c0,-4.5 4.5,-4.5 4.5,-4.5c4.64601,0 8.94221,-0.39817 13.56654,-0.68361c1.9744,-0.12187 3.94778,-0.18055 5.91988,-0.21156c0.04628,-0.03231 0.0924,-0.06481 0.13836,-0.09752c1.22521,-0.26049 2.51262,-0.31626 3.67562,-0.78148c1.28736,-0.51496 2.26177,-1.68628 3.57862,-2.12033c2.67241,-0.88086 5.51803,-1.11165 8.2947,-1.56745c4.42878,-0.727 9.14228,-1.03973 13.60897,-1.44579c2.61078,-0.23734 6.93463,0.4349 9.32472,-0.86748c0.78094,-0.42554 1.05407,-1.51084 1.83449,-1.93732c0.90466,-0.49437 1.84624,-0.92429 2.8095,-1.31779c-28.92734,-0.85173 -57.81005,-4.28277 -85.50055,-11.46991c-0.51248,0.73071 -1.11464,1.41339 -1.4126,2.24736c-1.2286,3.43873 -1.46039,7.50684 -2.73567,10.98253c-0.4832,1.31693 -1.54666,2.38491 -1.95373,3.72732c-0.2502,0.82511 0.22642,1.74469 0.03918,2.58633c-0.26987,1.21308 -1.11124,2.24925 -1.38462,3.46154c-1.59268,7.06285 -0.45092,15.07425 -0.73149,22.3459c1.08553,1.87186 1.92648,4.44964 3.79004,5.69099c1.71784,1.14428 3.84903,1.5834 5.53846,2.76923c2.7626,1.9391 5.37744,4.4499 8.78731,5.50174c0.65528,0.20213 1.37116,-0.16829 2.05434,-0.10906c0.54539,0.04729 1.08785,0.11749 1.62849,0.20206c1.8022,-3.88286 2.62631,-8.10048 4.30894,-12.04294c1.77554,-4.16015 4.84783,-6.57689 7.50434,-9.97826c0.91814,-1.17557 1.31614,-2.73904 2.36707,-3.79757c1.04891,-1.05649 2.58394,-1.5241 3.75609,-2.43192c-2.91195,0.19014 -5.80164,0.345 -8.80701,0.345zM332.87012,349.51987c1.59919,12.37129 1.55277,24.21927 -5.07321,35.16533c-3.46873,3.5215 -6.89501,7.77503 -11.24203,10.26316c-0.82578,0.47266 -1.93748,0.23023 -2.76923,0.69231c-1.29169,0.71761 -2.16025,2.06918 -3.46154,2.76923c-1.06931,0.57526 -2.34807,0.62223 -3.50829,0.98033c-6.60029,2.03721 -13.26046,3.62569 -20.09293,4.29959c-1.80197,0.17773 -3.27078,1.67821 -5.0544,1.99026c-1.97768,0.346 -4.02264,-0.09053 -6.02252,0.08666c-7.76265,0.68779 -15.51669,0.72602 -23.39598,0.72602c-11.7383,0 -23.92826,0.93618 -35.62669,-0.01132c-3.20241,-0.25938 -6.24145,-1.5451 -9.40182,-2.12371c-1.04409,-0.19115 -2.128,0.14221 -3.18414,0.03621c-1.17435,-0.11787 -2.33512,-0.3378 -3.49403,-0.5715c-0.55879,0.02388 -1.17292,-0.07714 -1.83423,-0.36841c-0.94669,-0.18252 -1.89624,-0.34322 -2.85501,-0.43413c-1.15675,-0.10968 -2.36962,0.21956 -3.48412,-0.10906c-4.56415,-1.34579 -8.30822,-4.27696 -11.98192,-6.9598c-1.66689,-1.2173 -3.87872,-1.5422 -5.53846,-2.76923c-3.69029,-2.72818 -5.41887,-6.91963 -7.28689,-10.92439c-0.19504,-8.40538 -1.14545,-17.91216 0.65312,-26.11564c0.26614,-1.2139 1.11529,-2.24834 1.38462,-3.46154c0.21328,-0.96074 -0.24125,-2.00881 0.03918,-2.95214c0.48266,-1.62356 1.6256,-2.98699 2.20011,-4.58037c1.27358,-3.53216 1.51662,-7.68174 2.8028,-11.17131c0.21156,-0.574 0.44647,-1.12242 0.69679,-1.65281c-11.41145,-3.08442 -22.29463,-7.07833 -33.34616,-11.26543c-4.93848,-1.87104 -5.45699,-1.57024 -12.01119,-4.25164c-5.95871,-2.43777 -11.60817,-6.08256 -17.09125,-9.4348c-6.67646,-4.08186 -13.56128,-8.36831 -19.47765,-13.54823c-4.97585,-4.35649 -9.03395,-10.32283 -13.03984,-15.56338c-7.48622,-9.79354 -13.31332,-19.89765 -18.79425,-30.91995c-7.84965,-17.0616 -11.6001,-34.68089 -10.41433,-53.55851c0.26429,-4.20747 1.8688,-8.22218 2.86767,-12.3179c0.18473,-0.75743 4.33526,-17.12109 4.39686,-17.29588c4.36388,-12.38234 11.66386,-24.13838 18.15323,-35.47764c6.45601,-11.28097 12.43873,-23.91592 20.96987,-33.7337c4.76408,-5.44459 9.48857,-11.46066 14.46103,-16.70623c4.87457,-5.1423 11.52104,-10.12337 17.18538,-14.32223c14.13191,-10.47567 30.8473,-15.51502 47.46819,-20.16074c1.59333,-0.44535 3.14895,-0.86317 4.68158,-1.24948c0.53304,-3.64048 4.44004,-3.64048 4.44004,-3.64048c6,0 13.38461,0 19.38461,0c1.01742,0 7.88009,-0.01051 8.23954,0.0435c4.5507,0.68363 7.3933,2.04408 11.99606,2.11462c2.79933,1.0674 5.41393,2.58731 8.22481,3.62391c2.92806,1.07981 6.11177,1.26713 9.1613,1.93037c2.26493,0.4926 4.3556,1.6153 6.60539,2.17299c1.74604,0.43282 3.60513,0.23908 5.35834,0.64184c1.2071,0.2773 2.23469,1.13898 3.44926,1.38146c11.42883,2.28171 23.41739,2.74211 34.75753,5.58747c9.79872,2.4586 18.80469,6.75059 28.26736,10.05181c2.90751,1.01434 6.02569,1.39446 8.87712,2.55716c2.78022,1.13366 5.2363,2.94392 7.91927,4.29171c8.09564,4.06686 14.8762,8.1748 22.02197,13.83472c7.60984,5.75484 14.20801,11.89299 20.34366,19.2459c4.70397,5.63719 8.32611,12.41788 12.39578,18.50537c11.21611,16.77727 17.85658,35.95512 24.38953,55.00808c3.35116,9.77347 3.36776,20.63649 3.63961,30.79108c0.10677,3.98827 1.1744,7.90624 1.35949,11.89164c0.14775,3.1814 -0.11703,6.36858 -0.17555,9.55288c-2.57644,19.28088 -0.3254,38.93268 -5.40314,57.96254c-4.52295,16.95067 -16.93809,30.62722 -31.27449,40.37352c-3.43554,2.33558 -7.81977,2.81193 -11.68131,4.34371c-2.87214,1.1393 -5.63175,2.5557 -8.52609,3.63734c-8.60515,3.21582 -18.80713,4.09239 -27.81042,5.72436c-2.07243,0.18011 -4.14943,0.35131 -6.23054,0.51314c0.62221,1.6197 1.57118,3.14857 1.79258,4.86137z" fill="#000000" stroke-width="0.5"/><path d="M216.10596,365.98383c-1.17215,0.90783 -2.7091,1.3686 -3.75801,2.4251c-1.05093,1.05853 -1.4528,2.61372 -2.37094,3.78929c-2.65652,3.40137 -5.73398,5.81083 -7.50952,9.97098c-1.68263,3.94246 -2.51257,8.15429 -4.31477,12.03715c-0.54063,-0.08457 -1.14875,-0.07937 -1.69414,-0.12666c-0.68318,-0.05924 -1.40035,0.30999 -2.05563,0.10785c-3.40987,-1.05183 -6.03198,-3.5715 -8.79458,-5.5106c-1.68943,-1.18583 -3.82337,-1.62978 -5.54121,-2.77406c-1.86356,-1.24135 -2.70714,-3.8255 -3.79267,-5.69736c0.28057,-7.27165 -0.86325,-15.30611 0.72943,-22.36896c0.27337,-1.21229 1.11547,-2.25236 1.38534,-3.46543c0.18723,-0.84163 -0.28872,-1.76384 -0.03851,-2.58895c0.40707,-1.34241 1.47196,-2.41466 1.95516,-3.73159c1.27528,-3.47569 1.51249,-7.55412 2.7411,-10.99285c0.29796,-0.83396 0.90172,-1.51885 1.4142,-2.24956c27.6905,7.18714 56.65943,10.63057 85.58678,11.4823c-0.96325,0.3935 -1.90476,0.82363 -2.80942,1.318c-0.78043,0.42648 -1.14737,1.54638 -1.92831,1.97192c-2.39009,1.30239 -6.71277,0.63313 -9.32356,0.87047c-4.46669,0.40606 -9.17606,0.7265 -13.60483,1.45351c-2.77667,0.4558 -5.61573,0.69464 -8.28814,1.5755c-1.31684,0.43405 -2.28795,1.60837 -3.57531,2.12334c-1.163,0.46522 -2.43941,0.52793 -3.66462,0.78842c-0.04596,0.03271 -0.09165,0.06541 -0.13793,0.09772c-1.97209,0.031 -3.9111,0.09212 -5.88549,0.214c-4.62432,0.28544 -8.88887,0.65627 -13.53489,0.65627c0,0 -4.49595,-0.01411 -4.49595,4.48589c0,4.5 4.50012,4.48778 4.50012,4.48778c3.00537,0 5.89435,-0.15933 8.80629,-0.34947z" data-paper-data="{&quot;noHover&quot;:false,&quot;origItem&quot;:[&quot;Path&quot;,{&quot;applyMatrix&quot;:true,&quot;segments&quot;:[[[207.24999,366.33893],[3.00537,0],[0,0]],[[202.74999,361.83893],[0,4.5],[0,-4.5]],[[207.24999,357.33893],[0,0],[4.64601,0]],[[220.81652,356.65532],[-4.62432,0.28544],[1.9744,-0.12187]],[[226.7364,356.44376],[-1.97209,0.031],[0.04628,-0.03231]],[[226.87476,356.34624],[-0.04596,0.03271],[1.22521,-0.26049]],[[230.55038,355.56476],[-1.163,0.46522],[1.28736,-0.51496]],[[234.129,353.44443],[-1.31684,0.43405],[2.67241,-0.88086]],[[242.4237,351.87698],[-2.77667,0.4558],[4.42878,-0.727]],[[256.03267,350.43119],[-4.46669,0.40606],[2.61078,-0.23734]],[[265.3574,349.5637],[-2.39009,1.30239],[0.78094,-0.42554]],[[267.19189,347.62639],[-0.78043,0.42648],[0.90466,-0.49437]],[[270.00139,346.3086],[-0.96325,0.3935],[-28.92734,-0.85173]],[[184.50084,334.83868],[27.6905,7.18714],[-0.51248,0.73071]],[[183.08824,337.08604],[0.29796,-0.83396],[-1.2286,3.43873]],[[180.35257,348.06858],[1.27528,-3.47569],[-0.4832,1.31693]],[[178.39884,351.7959],[0.40707,-1.34241],[-0.2502,0.82511]],[[178.43802,354.38222],[0.18723,-0.84163],[-0.26987,1.21308]],[[177.05341,357.84376],[0.27337,-1.21229],[-1.59268,7.06285]],[[176.32192,380.18966],[0.28057,-7.27165],[1.08553,1.87186]],[[180.11195,385.88065],[-1.86356,-1.24135],[1.71784,1.14428]],[[185.65042,388.64988],[-1.68943,-1.18583],[2.7626,1.9391]],[[194.43772,394.15162],[-3.40987,-1.05183],[0.65528,0.20213]],[[196.49207,394.04256],[-0.68318,-0.05924],[0.54539,0.04729]],[[198.12055,394.24462],[-0.54063,-0.08457],[1.8022,-3.88286]],[[202.42949,382.20168],[-1.68263,3.94246],[1.77554,-4.16015]],[[209.93383,372.22342],[-2.65652,3.40137],[0.91814,-1.17557]],[[212.3009,368.42585],[-1.05093,1.05853],[1.04891,-1.05649]],[[216.05699,365.99393],[-1.17215,0.90783],[-2.91195,0.19014]]],&quot;closed&quot;:true}]}" fill="#424242" stroke-width="0.5"/><path d="M295.13123,352.52016l-2.07596,0.00142c-3.69431,0.05612 -7.29681,-0.68225 -11.06751,-0.68225c-0.18935,0 -0.31581,-0.07696 -0.50388,-0.0744c2.72542,-1.2574 5.39153,-2.73836 7.49293,-4.41538c0.34871,-0.27829 0.69423,-0.57425 1.03606,-0.88467c10.68987,-0.10132 21.36037,-0.50387 31.93194,-1.17777c0.0106,0.08623 0.02621,0.17204 0.04781,0.25691c0.71803,2.82135 1.78583,2.63419 1.99194,5.05847c0.84052,9.88638 2.04127,19.63764 -3.23197,28.55084c-2.49613,2.44662 -5.03337,6.08957 -8.14461,7.7456c-0.83992,0.44706 -1.93802,0.23177 -2.76977,0.69385c-1.29169,0.71761 -2.18378,2.03385 -3.46317,2.77317c-1.85794,1.07366 -4.13266,1.17201 -6.18652,1.79359c-4.72648,1.43042 -9.7324,1.9483 -14.53298,2.63587c-2.11157,0.30243 -3.92359,1.84053 -6.03119,2.16948c-1.66489,0.25986 -3.382,-0.21341 -5.06202,-0.08336c-7.38129,0.5714 -14.83207,0.65539 -22.3358,0.65539c-11.55163,0 -23.48993,0.81767 -35.00939,-0.00937c-2.93731,-0.21088 -5.70227,-1.51063 -8.60019,-2.03438c-0.43911,-0.07936 -0.88426,-0.09113 -1.33152,-0.07865c1.17909,-3.17747 2.06169,-6.42547 3.352,-9.61823c1.35166,-3.34457 4.22702,-5.29846 6.34063,-8.02792c0.73475,-0.94884 0.93446,-2.28344 1.78649,-3.12854c1.15672,-1.14731 2.92692,-1.54342 4.07895,-2.69544c1.15203,-1.15203 1.55305,-2.91992 2.69284,-4.08405c1.04984,-1.07226 2.46546,-1.69751 3.75945,-2.47746c5.25347,-0.04848 10.50055,0.01137 15.73458,-0.46563c4.79102,-0.43663 10.33449,0.19399 15.01627,-0.78621c1.72019,-0.36015 3.16026,-1.6879 4.87171,-2.08754c1.23326,-0.28798 2.55779,0.18152 3.81837,0.05981c4.51496,-0.4359 8.7189,-1.33079 13.32397,-1.33079c3.80779,0 7.30296,0.66439 11.08231,0.70278l2.07732,0.00111c0,0 4.40688,0.03624 4.40688,-4.46376c0,-4.5 -4.49596,-4.4925 -4.49596,-4.4925z" data-paper-data="{&quot;noHover&quot;:false,&quot;origItem&quot;:[&quot;Path&quot;,{&quot;applyMatrix&quot;:true,&quot;segments&quot;:[[[299.67306,356.99278],[0,-4.5],[0,4.5]],[295.17306,361.49278],[[293.09614,361.49278],[0,0],[-3.77935,-0.03839]],[[282.01922,360.80047],[3.80779,0],[-4.60507,0]],[[268.72289,362.15137],[4.51496,-0.4359],[-1.26058,0.1217]],[[264.92402,362.09318],[1.23326,-0.28798],[-1.71144,0.39965]],[[260.07786,364.17011],[1.72019,-0.36015],[-4.68178,0.9802]],[[245.07802,364.93241],[4.79102,-0.43663],[-5.23402,0.47701]],[[229.3451,365.39123],[5.25347,-0.04848],[-1.29399,0.77995]],[[225.58614,367.86494],[1.04984,-1.07226],[-1.13979,1.16413]],[[222.89351,371.94399],[1.15203,-1.15203],[-1.15203,1.15203]],[[218.81446,374.63662],[1.15672,-1.14731],[-0.85203,0.8451]],[[217.02768,377.76213],[0.73475,-0.94884],[-2.11362,2.72945]],[[210.68587,385.78387],[1.35166,-3.34457],[-1.29032,3.19277]],[[207.33177,395.39574],[1.17909,-3.17747],[0.44726,-0.01248]],[[208.66312,395.47396],[-0.43911,-0.07936],[2.89792,0.52376]],[[217.2613,397.5041],[-2.93731,-0.21088],[11.51946,0.82704]],[[252.24999,397.49278],[-11.55163,0],[7.50373,0]],[[274.54632,396.83418],[-7.38129,0.5714],[1.68002,-0.13005]],[[279.60072,396.92085],[-1.66489,0.25986],[2.1076,-0.32896]],[[285.62324,394.75726],[-2.11157,0.30243],[4.80058,-0.68756]],[[300.14569,392.13377],[-4.72648,1.43042],[2.05386,-0.62158]],[[306.32971,390.34488],[-1.85794,1.07366],[1.27939,-0.73932]],[[309.79125,387.57564],[-1.29169,0.71761],[0.83175,-0.46208]],[[312.56048,386.88334],[-0.83992,0.44706],[3.11124,-1.65603]],[[320.70306,379.1465],[-2.49613,2.44662],[5.27324,-8.9132]],[[323.93755,350.61952],[0.84052,9.88638],[-0.20611,-2.42428]],[[321.94729,345.56513],[0.71803,2.82135],[-0.0216,-0.08487]],[[321.89956,345.3084],[0.0106,0.08623],[-10.57157,0.6739]],[[289.97833,346.50104],[10.68987,-0.10132],[-0.34183,0.31042]],[[288.94242,347.38585],[0.34871,-0.27829],[-2.1014,1.67702]],[[281.45312,351.80435],[2.72542,-1.2574],[0.18807,-0.00256]],[[282.01922,351.80047],[-0.18935,0],[3.7707,0]],[[293.09614,352.49278],[-3.69431,0.05612],[0,0]],[295.17306,352.49278]],&quot;closed&quot;:true}]}" fill="#420000" stroke-width="0.5"/><path d="M193.32691,232.21837c2.5,0 2.5,2.5 2.5,2.5l-0.12829,1.79057c-1.13544,3.30616 -1.70132,6.17249 -5.13173,8.38025c-1.41614,0.91141 -3.32471,0.54266 -4.99448,0.76173c-3.39134,0.44495 -6.8251,0.57146 -10.2455,0.56745c-17.09337,-0.02006 -36.2578,-8.74782 -46.08271,-23.11713c-1.74025,-2.54518 -2.77449,-5.50709 -4.15336,-8.26483c0,0 -1.11803,-2.23607 1.11803,-3.3541c2.23607,-1.11803 3.3541,1.11803 3.3541,1.11803c1.2878,2.5756 2.21656,5.36135 3.84664,7.73517c7.83229,11.40578 23.4938,19.67438 37.20018,20.89892c4.77724,0.4268 9.66639,-0.1477 14.41045,-0.55292c1.01949,-0.08708 2.19448,0.40103 3.06668,-0.13395c1.66768,-1.0229 2.32698,-3.93032 2.86827,-5.61975l-0.12829,-0.20943c0,0 0,-2.5 2.5,-2.5z" fill="#ffffff" stroke-width="0.5"/><path d="M341.25539,249.39718c2.32119,0.92848 1.39272,3.24967 1.39272,3.24967l-0.14305,0.35762c-1.80647,4.51331 -2.6118,9.40391 -7.09465,12.24327c-3.91343,2.47869 -6.43438,1.9516 -10.63555,1.90149c-8.0236,-0.0957 -18.78629,0.16128 -25.82417,-4.34374c-2.65925,-1.70222 -4.02864,-4.20458 -5.7039,-6.70035c0,0 -1.38675,-2.08013 0.69338,-3.46688c2.08013,-1.38675 3.46688,0.69338 3.46688,0.69338c1.11372,1.68376 2.5077,4.17434 4.2961,5.29965c4.95266,3.11636 12.62399,3.13369 18.24894,3.44581c3.77765,0.20962 9.32082,1.06518 12.77817,-1.05034c3.05467,-1.86912 3.94661,-6.91286 5.13242,-9.87922l0.14305,-0.35762c0,0 0.92848,-2.32119 3.24967,-1.39272z" fill="#ffffff" stroke-width="0.5"/><text transform="translate(29.85989,107.71837) scale(1.71343,1.71343)" font-size="40" xml:space="preserve" fill="#ff0000" fill-rule="nonzero" stroke="none" stroke-width="1" stroke-linecap="butt" stroke-linejoin="miter" stroke-miterlimit="10" stroke-dasharray="" stroke-dashoffset="0" font-family="Serif" font-weight="normal" text-anchor="start" style="mix-blend-mode: normal"><tspan x="0" dy="0">SLEEP</tspan></text><text transform="translate(29.85989,107.71838) scale(1.71344,1.71344)" font-size="40" xml:space="preserve" fill="#ff0000" fill-rule="nonzero" stroke="none" stroke-width="1" stroke-linecap="butt" stroke-linejoin="miter" stroke-miterlimit="10" stroke-dasharray="" stroke-dashoffset="0" font-family="Serif" font-weight="normal" text-anchor="start" style="mix-blend-mode: normal"><tspan x="0" dy="0">SLEEP</tspan></text><text transform="translate(44.85989,122.71838) scale(1.71344,1.71344)" font-size="40" xml:space="preserve" fill="#ff0000" fill-rule="nonzero" stroke="none" stroke-width="1" stroke-linecap="butt" stroke-linejoin="miter" stroke-miterlimit="10" stroke-dasharray="" stroke-dashoffset="0" font-family="Serif" font-weight="normal" text-anchor="start" style="mix-blend-mode: normal"><tspan x="0" dy="0">SLEEP</tspan></text><text transform="translate(59.85989,137.71837) scale(1.71344,1.71344)" font-size="40" xml:space="preserve" fill="#ff0000" fill-rule="nonzero" stroke="none" stroke-width="1" stroke-linecap="butt" stroke-linejoin="miter" stroke-miterlimit="10" stroke-dasharray="" stroke-dashoffset="0" font-family="Serif" font-weight="normal" text-anchor="start" style="mix-blend-mode: normal"><tspan x="0" dy="0">SLEEP</tspan></text><text transform="translate(74.85988,152.71837) scale(1.71344,1.71344)" font-size="40" xml:space="preserve" fill="#ff0000" fill-rule="nonzero" stroke="none" stroke-width="1" stroke-linecap="butt" stroke-linejoin="miter" stroke-miterlimit="10" stroke-dasharray="" stroke-dashoffset="0" font-family="Serif" font-weight="normal" text-anchor="start" style="mix-blend-mode: normal"><tspan x="0" dy="0">SLEEP</tspan></text><text transform="translate(89.85989,167.71837) scale(1.71344,1.71344)" font-size="40" xml:space="preserve" fill="#ff0000" fill-rule="nonzero" stroke="none" stroke-width="1" stroke-linecap="butt" stroke-linejoin="miter" stroke-miterlimit="10" stroke-dasharray="" stroke-dashoffset="0" font-family="Serif" font-weight="normal" text-anchor="start" style="mix-blend-mode: normal"><tspan x="0" dy="0">SLEEP</tspan></text><text transform="translate(104.85989,182.71837) scale(1.71344,1.71344)" font-size="40" xml:space="preserve" fill="#ff0000" fill-rule="nonzero" stroke="none" stroke-width="1" stroke-linecap="butt" stroke-linejoin="miter" stroke-miterlimit="10" stroke-dasharray="" stroke-dashoffset="0" font-family="Serif" font-weight="normal" text-anchor="start" style="mix-blend-mode: normal"><tspan x="0" dy="0">SLEEP</tspan></text></g></g></svg>