<svg version="1.1" xmlns="http://www.w3.org/2000/svg" xmlns:xlink="http://www.w3.org/1999/xlink" width="112.22909" height="117.15209" viewBox="0,0,112.22909,117.15209"><g transform="translate(-182.65562,-143.32485)"><g data-paper-data="{&quot;isPaintingLayer&quot;:true}" fill-rule="nonzero" stroke-linecap="butt" stroke-linejoin="miter" stroke-miterlimit="10" stroke-dasharray="" stroke-dashoffset="0" style="mix-blend-mode: normal"><path d="M247.57498,207.31707c-0.0882,-0.96257 -0.08932,-4.35528 -1.46476,-4.77778c-1.1556,-0.35497 -2.40606,0.24051 -3.60545,0.39176c-3.51315,0.44303 -9.2379,-0.53776 -8.91756,4.16214c0,0 0,0.4314 -0.1889,0.9164c0.32805,0.06345 0.65199,0.12776 0.96735,0.19971c1.93589,0.44164 3.81333,0.52541 5.79536,0.74012c2.54537,0.27574 5.08071,0.42172 7.62601,0.48814zM229.21405,203.74274c2.23907,-5.24874 8.05314,-4.69694 12.74852,-5.27891c1.27166,-0.15762 4.79899,-0.56031 5.86973,-0.082c3.38872,1.51377 3.88492,5.34148 4.22035,8.48747l0.23688,2.3688c0,0 0.01031,0.10313 0.00438,0.26734c1.51615,0.07749 3.43644,0.30608 4.74056,-0.28704c1.0801,-0.49123 1.21783,-1.53931 1.63542,-2.5078c0.1415,-0.32818 0.36366,-0.61949 0.48878,-0.95426c0.32729,-0.87571 0.16142,-2.0369 0.20248,-2.93582c0.12993,-2.84402 0.3337,-5.6247 0.13201,-8.47586c-0.09318,-1.31725 -0.33536,-2.64747 -0.57015,-3.96136c-0.44094,-0.26453 -0.87176,-0.55072 -1.28348,-0.87885l-0.00001,-0.00001c-1.70467,-1.13465 -3.39347,-2.32473 -5.06437,-3.50562c-1.31727,-0.93097 -2.48132,-2.0703 -3.79239,-3.00683c-0.47928,-0.34236 -1.03045,-0.58211 -1.4878,-0.95326c-0.51152,-0.41511 -0.93618,-0.92707 -1.40255,-1.39233c-0.60322,-0.60177 -1.45033,-1.14512 -1.65292,-2.01071c-0.13443,0.07981 -0.27174,0.15897 -0.37152,0.26861c-0.39809,0.43742 -0.6814,0.97844 -1.11663,1.37892c-1.27737,1.17536 -2.79274,2.01316 -4.03125,3.22769c-3.19236,1.63422 -6.17907,3.49725 -9.17182,5.45334c-1.17274,0.76651 -2.40494,1.4332 -3.6454,2.08378c-0.14317,1.74683 -0.25754,3.49744 -0.37417,5.24766c-0.08855,1.32894 -0.12806,2.63103 -0.12806,3.96715c0,0.44962 -0.11451,0.90927 -0.01943,1.34872c0.08664,0.40047 0.6597,1.47261 0.80438,1.76088c0.21911,0.47456 0.57554,0.88205 0.94674,1.25005c0.49424,0.48998 0.9438,1.06093 1.46593,1.53967c0.13334,0.02564 0.30723,0.0766 0.4716,0.17793c-0.05837,-0.88964 -0.1971,-1.7973 0.1442,-2.59735zM258.30153,249.33915c-4.36564,1.09141 -5.45705,-3.27423 -5.45705,-3.27423l-0.61613,-2.52362c-0.27038,-1.7202 -0.70444,-3.43178 -1.36838,-5.04155c0,0 -0.31923,-0.79807 -0.32985,-1.83615c-1.10152,-0.49052 -2.24259,-0.90397 -3.25809,-1.57753c-0.70381,-0.46682 -1.3638,-1.00641 -2.10909,-1.46065c-1.85708,-1.13184 -3.85814,-2.07722 -5.73428,-3.19229c-1.65529,-0.82834 -3.26026,-1.75221 -4.86113,-2.6853c-1.54278,2.04485 -3.50387,3.8026 -5.61702,5.24351l-3.10736,1.07776c0,0 -4.26907,1.42302 -5.6921,-2.84605c-1.42302,-4.26907 2.84605,-5.6921 2.84605,-5.6921l1.99925,-0.62444c0.60357,-0.37679 1.12943,-0.87614 1.58935,-1.43343c-1.9357,-0.89204 -3.87304,-1.75027 -5.76714,-2.76009c-0.78852,-0.4204 -1.64858,-0.73611 -2.35036,-1.28928c-0.29797,-0.23486 -0.44113,-0.62479 -0.7218,-0.88007c-0.33842,-0.30781 -0.81614,-0.45163 -1.11914,-0.79437c-0.22324,-0.2525 -0.21609,-0.64686 -0.40299,-0.92732c-0.19371,-0.29067 -0.55838,-0.4511 -0.72147,-0.75998c-0.44181,-0.83676 -0.46847,-2.1554 -0.47567,-3.06427c0,-1.49168 -0.05591,-2.9965 0,-4.48709c0.01828,-0.48749 -0.1177,-1.02022 0.09219,-1.46058c0.72191,-1.51463 1.95038,-1.25227 3.27932,-1.24617c0.6061,0.00278 1.20782,0.10508 1.80986,0.17526c0.90346,0.10532 1.85425,-0.0745 2.76308,-0.00603c0.71148,0.0536 1.4184,0.09029 2.12509,0.11508c-0.41476,-0.51523 -0.77829,-1.06259 -1.07747,-1.63251c-0.37005,-0.74261 -0.84656,-1.59224 -1.02122,-2.41192c-0.02451,-0.11502 -0.01943,-1.56202 -0.01943,-1.78088c0,-1.38507 0.04082,-2.73958 0.13274,-4.11765c0.08361,-1.25348 0.16511,-2.50785 0.25666,-3.76111c-0.5685,0.30907 -1.13128,0.62693 -1.68326,0.96189c-1.87698,1.139 -3.75386,3.50414 -6.27402,3.09255c-0.30017,-0.04902 -1.24042,-1.47868 -1.43976,-1.90855c-1.14469,-2.4684 -1.81095,-4.92626 -1.4213,-7.65377c0.00118,-1.15469 0.08997,-2.37588 0.46963,-3.48045c0.42063,-1.22379 1.48911,-2.18891 2.30409,-3.09864c0.49506,-0.55262 0.84172,-1.23191 1.36392,-1.75896c0.26358,-0.26603 0.61324,-0.44173 0.85836,-0.72487c0.95789,-1.10646 1.74562,-2.33983 2.76688,-3.42143c1.0121,-1.0719 2.16075,-2.09039 3.3782,-3.01855c-0.04817,-0.29846 0.01442,-0.54881 0.01442,-0.54881c0.32735,-1.2951 0.84941,-2.49812 1.15956,-3.80685c0.26034,-1.09857 0.34061,-2.03055 0.69573,-3.09977c0.22544,-0.67878 0.61717,-1.29626 0.82631,-1.98024c0.15445,-0.5051 0.55996,-2.44467 0.73182,-2.8239c0.15269,-0.33694 0.50808,-0.54797 0.68618,-0.87219c0.52145,-0.94928 0.81732,-2.13477 1.30924,-3.11867c0.79511,-1.59031 1.8556,-3.02823 2.63832,-4.60955c0.36127,-0.90317 0.74296,-1.48896 1.31353,-2.24344c1.00698,-1.33157 1.66451,-2.8057 3.03447,-3.86541c0.44537,-0.34451 1.89961,-1.16856 2.43499,-1.0718c0.11281,0.02039 1.75571,1.33547 2.05825,1.57925c2.41858,1.94886 4.10331,4.54995 6.07359,6.93034c0.88999,1.77472 2.39557,3.01867 3.48996,4.65327c0.19666,0.29374 0.25942,0.66611 0.46749,0.95188c0.22404,0.30771 0.58267,0.49935 0.81092,0.80396c0.28114,0.37519 0.44421,0.82735 0.70393,1.21767c0.8042,1.20856 1.82691,2.288 2.65216,3.47997c0.25652,0.37051 0.42234,0.79788 0.67161,1.1733c0.48836,0.73552 0.89625,0.93818 1.37425,1.73289c0.38888,0.64653 0.52541,1.42732 0.93323,2.06208c0.12105,0.18841 0.35139,0.28723 0.47854,0.47158c0.71965,1.04339 1.01377,2.03325 1.7847,3.02281c0.0666,0.24626 0.13321,0.49253 0.19981,0.7388l0.24999,0.40133c1.413,0.90726 2.83785,1.79714 4.25595,2.69411c1.45159,0.91817 3.00208,1.5539 4.44287,2.48353c1.72111,1.1105 4.11832,2.3559 4.45748,4.6542c0.06225,0.42182 -0.11371,0.84516 -0.17057,1.26775c-0.74263,1.76666 -1.73165,3.3801 -2.74001,4.99057c-0.21952,0.3506 -0.54766,0.62779 -0.75044,0.98833c-0.35916,0.63857 -0.55781,1.37247 -0.99735,1.95861c-0.69689,0.92931 -1.58006,2.24049 -2.88526,2.45126c-0.43723,0.0706 -0.81485,-0.34759 -1.22666,-0.51059c-0.32243,-0.12762 -0.65564,-0.22746 -0.97562,-0.3611c-0.69844,-0.29169 -1.32997,-0.72423 -1.9766,-1.11765c-0.09428,-0.05736 -0.18901,-0.11365 -0.2841,-0.16907c0.12047,0.76776 0.22146,1.53674 0.27665,2.3025c0.21159,2.93579 0.00365,5.80813 -0.12879,8.73693c-0.03911,0.86497 -0.02028,1.73633 -0.14085,2.59375c-0.10423,0.7412 -0.43926,1.43399 -0.73269,2.12257c-0.08096,0.18999 -0.15951,0.37877 -0.23814,0.56518c0.91739,-0.09701 1.82615,-0.07219 2.76616,-0.07219l-0.00007,-0.00003c2.79491,0 5.55465,0.37606 6.95243,3.11752c0.35283,1.36914 0.60261,2.73033 0.73408,4.12317c0.08569,0.90785 0.44807,1.78967 0.64114,2.67884c0.12998,0.59862 0.13726,1.21753 0.19157,1.82769c0.09697,1.08951 0.45177,2.12351 0.64629,3.19085c0.15851,0.86975 0.13348,1.76933 0.32677,2.63202c0.1149,0.51282 0.38473,0.98264 0.49857,1.4957c0.27009,1.21726 0.10786,2.53231 0.66055,3.6377c0.05498,1.89142 0.20511,3.64419 0.02827,5.52997c-0.11368,1.21222 0.14041,2.36855 -0.21227,3.56897c-0.31765,1.0812 -0.94053,2.42234 -2.02691,2.93423c-0.3913,0.18438 -0.86224,0.07344 -1.29439,0.09219c-1.10994,0.04814 -2.36478,0.04692 -3.43923,-0.19939c-0.47199,-0.1082 -0.89721,-0.36908 -1.36149,-0.50667c-1.16383,-0.34492 -2.40339,-0.07043 -3.59649,-0.36629c-0.31716,-0.1609 -0.61453,-0.36891 -0.95147,-0.4827c-0.08514,-0.02875 -0.17212,-0.0515 -0.2603,-0.07025c0.04659,0.24229 0.09095,0.48489 0.13313,0.72769l0.46987,1.82039c0,0 1.09141,4.36564 -3.27423,5.45705zM253.36686,232.65034c4.17815,-1.67126 5.8494,2.50689 5.8494,2.50689c0.4634,1.18469 0.85367,2.40041 1.17898,3.63359c0.01342,0.00736 0.02688,0.01464 0.04038,0.02183c0.46281,0.24649 1.04845,0.12405 1.54646,0.28821c0.36811,0.12134 0.69519,0.34295 1.04279,0.51443c1.10729,0.28218 2.24872,-0.01539 3.38341,0.29847c1.21457,0.33596 2.06377,0.62492 3.34251,0.62344c0.40066,-0.00047 0.81632,0.21266 1.19843,0.09219c0.38676,-0.12194 0.72507,-1.66365 0.75398,-1.99185c0.07197,-0.81711 -0.07407,-1.65495 -0.00177,-2.47338c0.08588,-0.9722 0.23157,-1.82519 0.1644,-2.81625c-0.04423,-0.65256 -0.1674,-1.30414 -0.13613,-1.95746c-0.5669,-1.13381 -0.39348,-2.43688 -0.66895,-3.67459c-0.11418,-0.51298 -0.38539,-0.98249 -0.49857,-1.4957c-0.19432,-0.88123 -0.17699,-1.79809 -0.33799,-2.68601c-0.26106,-1.43979 -0.54418,-2.80975 -0.68145,-4.26818c-0.11672,-1.24018 -0.70054,-2.41268 -0.83094,-3.65614c-0.12445,-1.18675 -0.31608,-2.3421 -0.59542,-3.52149c-0.88937,-1.87214 -3.85682,-1.53575 -5.5117,-1.53575c-0.79136,0 -1.48022,-0.01888 -2.25532,0.14267l-0.4037,0.02352c0,0 -0.32922,0 -0.64436,-0.17165c-0.31935,0.32975 -0.70544,0.6155 -1.19189,0.84176c-1.92857,0.897 -4.49701,0.51701 -6.53589,0.51701c-3.91248,0 -7.78287,-0.12883 -11.67284,-0.5484c-2.07161,-0.22344 -4.03872,-0.32594 -6.06644,-0.7851c-1.33929,-0.30327 -2.66389,-0.46452 -3.95383,-0.96524c-0.70175,-0.2724 -1.38775,-0.62713 -2.03743,-1.04915c-2.87238,-0.00395 -5.75875,-0.04674 -8.59524,-0.34111l0.00002,-0.00002c-0.32105,-0.03332 -1.30877,0.17249 -1.80879,0.04524c0.00635,0.08289 0.00539,0.16795 0.01024,0.24847c0.01998,0.33178 0,0.66475 0,0.99713c0,1.16332 0,2.32664 0,3.48996c-0.00438,0.41027 -0.0522,1.52143 0.18908,1.92138c0.14345,0.23778 0.45394,0.3385 0.60804,0.56952c0.14423,0.21625 0.08837,0.54091 0.26176,0.73456c0.22809,0.25473 0.61946,0.30809 0.87512,0.53514c0.24679,0.21919 0.35196,0.57315 0.6077,0.78181c0.22962,0.18735 0.54498,0.23456 0.80721,0.37261c0.8234,0.43347 1.63069,0.89791 2.46298,1.31406c1.58278,0.79139 3.17793,1.55389 4.76994,2.32259c0.92977,-0.94577 2.9853,-2.40598 5.69403,-0.60016c2.11942,1.41294 2.23934,3.22579 1.94431,4.53308c1.64247,0.95257 3.20352,1.96748 4.92007,2.82503c1.92801,1.14445 3.97669,2.122 5.88698,3.2831c0.77541,0.4713 1.47253,1.03509 2.21181,1.53074c0.7658,0.51344 1.6282,0.85683 2.48285,1.20977c0.42834,-0.65059 1.11713,-1.24911 2.19576,-1.68057zM255.80564,169.33351c-0.44425,-0.70331 -0.6341,-1.54486 -1.06103,-2.25882c-0.34982,-0.58501 -0.90567,-1.02439 -1.28476,-1.59087c-0.24615,-0.36783 -0.40597,-0.78943 -0.6579,-1.15334c-0.83006,-1.19901 -1.85441,-2.28498 -2.66587,-3.49993c-0.23572,-0.35293 -0.37078,-0.76955 -0.62557,-1.10897c-0.24182,-0.32213 -0.61422,-0.53206 -0.85097,-0.85793c-0.22908,-0.31531 -0.31413,-0.71764 -0.52964,-1.04238c-1.08696,-1.63784 -2.6009,-2.86976 -3.48996,-4.65327c-1.63021,-1.9421 -3.06559,-4.01207 -4.84173,-5.80278c-0.31756,-0.32016 -1.46359,-0.80129 -1.65001,-1.35024c-0.17199,0.11584 -0.3926,0.16943 -0.5574,0.29862c-0.37521,0.29413 -0.69117,0.65862 -1.00622,1.01644c-1.05241,1.19526 -2.0354,2.70697 -2.62282,4.17552c-0.8115,1.61081 -1.86858,3.07483 -2.67971,4.69699c-0.5073,1.01456 -0.8158,2.21112 -1.34977,3.19649c-0.16176,0.29851 -0.49829,0.48271 -0.64333,0.78969c-0.3652,0.77298 -0.34505,1.67739 -0.59769,2.49412c-0.21426,0.69268 -0.60541,1.32072 -0.83557,2.00828c-0.25515,0.76221 -0.46376,2.17203 -0.63378,2.883c-0.03379,0.14132 -0.07003,0.28136 -0.10818,0.42039c1.09003,-0.8006 2.19116,-1.58168 3.30246,-2.37389c1.22089,-0.87034 2.28124,-1.7559 3.66913,-2.30365c1.44398,-0.91245 2.8933,-1.76676 4.26854,-2.77027c0.9901,-0.72248 1.12104,-1.22474 2.63444,-1.39709c0.4064,-0.04628 0.79205,0.21281 1.17096,0.36687c1.00576,0.40892 1.75453,1.19586 2.65326,1.79231c2.84703,1.88949 5.54451,3.99406 8.2851,6.04868c0.93618,0.74895 1.89544,1.46661 2.871,2.16192c-0.06167,-0.05608 -0.11872,-0.11583 -0.16298,-0.18589zM228.5593,171.06872c-2.32666,1.28873 -4.67174,3.05301 -6.49101,4.99155c-1.00034,1.06592 -1.76574,2.27097 -2.70992,3.35937c-0.27981,0.32255 -0.66378,0.53952 -0.96724,0.83993c-0.48602,0.48113 -0.79139,1.11882 -1.24408,1.63144c-0.62037,0.70251 -1.56408,1.41754 -1.8687,2.37815c-0.28013,0.88338 -0.31373,1.86542 -0.31277,2.77874c-0.2998,2.09856 0.11977,3.55731 0.83874,5.48732c0.19169,0.51458 0.59029,0.95678 0.68693,1.49735c0.0002,0.00114 0.00035,0.00228 0.00044,0.00343c1.33319,-0.88771 2.57947,-1.93643 3.94361,-2.76506c1.02751,-0.62415 2.09373,-1.18709 3.16439,-1.74465c0.11883,-1.30463 0.25866,-2.60637 0.43333,-3.90293c0.04198,-0.31164 0.09462,-0.62361 0.15501,-0.93561c-0.68792,-0.28544 -0.68792,-1.11608 -0.68792,-1.11608v-0.3912c0.03211,-2.3971 1.19401,-4.586 2.3804,-6.60626c0.45055,-0.76723 0.93871,-1.57285 1.66583,-2.08563c1.02513,-0.72294 2.12898,-0.80844 3.27618,-1.09317c0.03931,-0.00976 1.83401,-0.6277 1.97444,-0.6562c2.0206,-0.41005 4.08282,-0.42127 6.13234,-0.41034c5.00049,0.52591 9.95614,1.57437 14.56978,3.61581c2.07759,0.91929 4.46194,1.99205 5.75505,3.99111c0.17815,0.2754 0.19752,0.62753 0.3362,0.92477c0.37251,0.79843 0.78726,1.59334 0.98996,2.45076c0.15385,0.65078 0.10803,1.33309 0.15567,2.00011c0.08472,1.18609 0.23185,2.36264 0.37954,3.54604c0.6728,0.36438 1.35734,0.70676 2.02139,1.10064c0.55464,0.32899 1.07695,0.72651 1.6746,0.96875c0.367,0.14876 0.76873,0.22176 1.11078,0.4213c0.08137,0.04747 -0.01425,0.29383 0.07735,0.27182c0.11214,-0.02695 0.06211,-0.22691 0.12842,-0.32126c0.07633,-0.1086 1.13075,-1.37318 1.31962,-1.75917c0.16812,-0.34356 0.2194,-0.73953 0.40693,-1.07289c1.05729,-1.87943 2.41023,-3.49841 3.29034,-5.4963c0.18816,-0.61946 -0.36516,-1.00644 -0.76958,-1.44462c-0.92589,-1.00316 -2.41588,-1.82917 -3.60025,-2.49639c-0.62883,-0.35426 -1.33086,-0.5658 -1.96194,-0.91604c-1.29432,-0.71833 -2.48512,-1.58828 -3.72531,-2.39139c-0.54355,-0.35198 -1.08789,-0.7004 -1.63171,-1.04798c-0.42916,-0.05653 -0.71669,-0.37991 -0.82873,-0.52975c-2.39795,-1.53445 -4.77302,-3.0798 -7.01315,-4.87191c-2.69484,-2.02193 -5.35377,-4.07955 -8.14529,-5.94811c-0.42377,-0.28366 -0.86512,-0.54298 -1.26962,-0.8535c-0.15742,-0.12084 -0.94017,-0.9595 -1.16536,-0.89932c-0.37315,0.09973 -1.04709,0.78304 -1.27756,0.95011c-0.47763,0.34625 -1.06055,0.53189 -1.53097,0.88788c-0.24701,0.18692 -0.40544,0.47679 -0.65781,0.65641c-0.76003,0.54096 -1.61668,0.93199 -2.40987,1.42303c-1.25565,0.43979 -2.28189,1.34938 -3.37247,2.12995c-0.90337,0.64658 -1.80089,1.28394 -2.69143,1.93067c0.43928,0.97828 -0.53458,1.51932 -0.53458,1.51932zM228.22228,186.93732c2.95564,-1.9352 5.88973,-3.84335 9.08155,-5.39133c0.85702,-0.87696 1.89928,-1.47492 2.86379,-2.21317c1.04948,-0.80328 1.67367,-1.83775 2.66211,-2.67775c0.41679,-0.3542 0.71631,-1.22693 1.24124,-1.07326c0.99365,0.29089 1.53259,1.39271 2.28381,2.1052c0.84108,0.79772 1.55377,1.73422 2.45575,2.46237c0.42366,0.34201 0.93793,0.55588 1.381,0.87234c1.3041,0.93145 2.46,2.06749 3.77081,2.99157c1.49158,1.05152 2.99457,2.11099 4.51027,3.13521c-0.06014,-0.55434 -0.11295,-1.10908 -0.15269,-1.6654c-0.03929,-0.55008 0.02037,-1.11408 -0.10513,-1.65109c-0.16322,-0.69843 -0.53833,-1.33012 -0.83564,-1.98284c-0.09207,-0.20213 -0.06853,-0.45115 -0.18541,-0.64002c-0.95207,-1.53861 -3.13353,-2.36795 -4.67695,-3.05049c-4.33966,-1.91911 -9.01519,-2.9156 -13.71982,-3.4113c-1.83427,-0.00635 -3.67072,0.00236 -5.48043,0.35757c-0.66824,0.13117 -1.27715,0.48162 -1.93756,0.6478c-0.85491,0.21512 -1.68455,0.22182 -2.46142,0.73243c-0.70915,0.4661 -0.56259,0.64908 -0.94217,1.30477c-0.34927,0.60334 -0.75982,1.17764 -1.04594,1.81234c0.88836,0.37005 0.65693,1.37292 0.65693,1.37292c-0.3769,1.63301 -0.93462,3.31556 -1.15389,4.97838c-0.09699,0.73547 -0.18336,1.47235 -0.26149,2.21033c0.6971,-0.38627 1.38414,-0.78977 2.05126,-1.22657z" fill="#000000" stroke="none" stroke-width="0.5"/><path d="M255.8161,169.34199c0.04425,0.07007 0.10129,0.12983 0.16296,0.18592c-0.97556,-0.69531 -1.9349,-1.41288 -2.87108,-2.16183c-2.74059,-2.05462 -5.4393,-4.1579 -8.28632,-6.04739c-0.89872,-0.59646 -1.65214,-1.38059 -2.6579,-1.78951c-0.37891,-0.15405 -0.77403,-0.41334 -1.18044,-0.36706c-1.5134,0.17234 -1.64948,0.67096 -2.63958,1.39344c-1.37524,1.00352 -2.82521,1.85702 -4.26919,2.76946c-1.38788,0.54775 -2.42644,1.41752 -3.64734,2.28785c-1.1113,0.79221 -2.2344,1.58883 -3.32443,2.38943c0.03815,-0.13902 0.07426,-0.27925 0.10805,-0.42057c0.17002,-0.71097 0.37773,-2.12233 0.63287,-2.88453c0.23016,-0.68756 0.62075,-1.31687 0.83501,-2.00955c0.25264,-0.81673 0.23186,-1.72334 0.59705,-2.49632c0.14503,-0.30698 0.48144,-0.49192 0.6432,-0.79043c0.53397,-0.98537 0.84249,-2.18584 1.34979,-3.20039c0.81113,-1.62216 1.87114,-3.09272 2.68263,-4.70353c0.58742,-1.46855 1.57502,-2.98384 2.62742,-4.1791c0.31505,-0.35782 0.6324,-0.72287 1.00761,-1.017c0.1648,-0.12919 0.38607,-0.18298 0.55806,-0.29883c0.18642,0.54896 1.33396,1.02974 1.65152,1.3499c1.77613,1.79071 3.22126,3.8628 4.85147,5.8049c0.88906,1.78352 2.40893,3.0267 3.49589,4.66454c0.21551,0.32473 0.30041,0.72901 0.52949,1.04432c0.23675,0.32587 0.60892,0.53696 0.85074,0.85909c0.2548,0.33942 0.38946,0.75735 0.62518,1.11028c0.81146,1.21496 1.83476,2.30318 2.66482,3.50219c0.25192,0.3639 0.41141,0.78604 0.65756,1.15388c0.37909,0.56648 0.93464,1.0063 1.28446,1.59131c0.42693,0.71396 0.61624,1.55623 1.06048,2.25954z" data-paper-data="{&quot;noHover&quot;:false,&quot;origItem&quot;:[&quot;Path&quot;,{&quot;applyMatrix&quot;:true,&quot;segments&quot;:[[[294.82465,59.53341],[0,0],[-1.65071,-2.61334]],[[290.88212,51.14018],[1.58636,2.65291],[-1.29984,-2.17375]],[[286.10827,45.22889],[1.40859,2.10491],[-0.91464,-1.36677]],[[283.66369,40.94337],[0.93608,1.35218],[-3.08429,-4.45524]],[[273.75797,27.93847],[3.01519,4.51449],[-0.87588,-1.31142]],[[271.43349,23.81781],[0.94677,1.2612],[-0.89855,-1.19694]],[[268.2715,20.62996],[0.87971,1.21085],[-0.8512,-1.17161]],[[266.30347,16.75674],[0.80079,1.20663],[-4.03888,-6.08582]],[[253.33565,-0.53368],[3.30353,6.62711],[-6.05745,-7.21635]],[[235.34497,-22.0954],[6.59968,6.65384],[-1.17996,-1.18964]],[[229.21395,-27.11257],[0.69268,2.03979],[-0.63908,0.43045]],[[227.14277,-26.00297],[0.61237,-0.48005],[-1.39417,1.09292]],[[223.40389,-22.22614],[1.17066,-1.32956],[-3.91048,4.4413]],[[213.65814,-6.71093],[2.18272,-5.45679],[-3.01532,5.98538]],[[203.70101,10.74194],[3.01395,-6.02755],[-1.88502,3.76984]],[[198.68559,22.61931],[1.98411,-3.66139],[-0.60107,1.10919]],[[196.29515,25.55361],[0.53891,-1.14068],[-1.35699,2.87222]],[[194.07429,34.82116],[0.93873,-3.03477],[-0.79614,2.57382]],[[190.96952,42.28345],[0.8552,-2.5548],[-0.94806,2.83217]],[[188.61456,52.99599],[0.63176,-2.6418],[-0.12557,0.52511]],[[188.2126,54.55805],[0.14176,-0.51658],[4.05027,-2.97483]],[[200.48373,45.73727],[-4.1293,2.94365],[4.53654,-3.23396]],[[214.1173,37.17748],[-5.15703,2.03531],[5.36548,-3.39043]],[[229.97814,26.88382],[-5.11005,3.72883],[3.67897,-2.68456]],[[239.76707,21.69259],[-5.62341,0.64039],[1.51009,-0.17197]],[[244.11806,23.05578],[-1.40793,-0.57243],[3.73717,1.51944]],[[253.97691,29.71558],[-3.33944,-2.21629],[10.57886,7.02088]],[[284.76231,52.19099],[-10.18337,-7.63445],[3.47861,2.7829]],[[295.43025,60.22416],[-3.62494,-2.5836],[-0.22915,-0.20839]],[[294.82466,59.53343],[0.16444,0.26035],[0,0]]],&quot;closed&quot;:true,&quot;fillColor&quot;:[0,0,0,1]}]}" fill="#ffffff" stroke="none" stroke-width="0.5"/><path d="M229.08229,169.54251c0.89054,-0.64672 1.78967,-1.28628 2.69304,-1.93285c1.09059,-0.78057 2.11955,-1.69247 3.3752,-2.13226c0.79319,-0.49104 1.65212,-0.88324 2.41215,-1.4242c0.25237,-0.17962 0.41152,-0.46975 0.65852,-0.65667c0.47042,-0.35599 1.05478,-0.54202 1.53242,-0.88827c0.23046,-0.16707 0.90559,-0.85058 1.27873,-0.95031c0.2252,-0.06019 1.00886,0.7784 1.16628,0.89924c0.4045,0.31052 0.84699,0.56982 1.27076,0.85348c2.79152,1.86856 5.45958,3.93015 8.15443,5.95208c2.24013,1.79211 4.61875,3.34387 7.0167,4.87832c0.11203,0.14985 0.39968,0.47378 0.82884,0.53031c0.54382,0.34758 1.08831,0.69698 1.63186,1.04896c1.24019,0.80311 2.43108,1.67479 3.7254,2.39312c0.63108,0.35024 1.33309,0.56229 1.96192,0.91654c1.18437,0.66722 2.67425,1.49435 3.60014,2.49751c0.40442,0.43818 0.95764,0.82578 0.76948,1.44524c-0.88011,1.99789 -2.23392,3.61974 -3.29121,5.49918c-0.18754,0.33336 -0.23906,0.72985 -0.40717,1.07341c-0.18887,0.38598 -1.2438,1.65153 -1.32013,1.76012c-0.06632,0.09435 -0.01638,0.29447 -0.12851,0.32141c-0.09159,0.02201 -0.01909,-0.23813 -0.10046,-0.2856c-0.34205,-0.19954 -0.72068,-0.25875 -1.08767,-0.40751c-0.59765,-0.24224 -1.11997,-0.63975 -1.67461,-0.96873c-0.66405,-0.39388 -1.37158,-0.75024 -2.04438,-1.11462c-0.14769,-1.1834 -0.29573,-2.35819 -0.38045,-3.54428c-0.04765,-0.66702 -0.00227,-1.3481 -0.15612,-1.99888c-0.2027,-0.85741 -0.61784,-1.65074 -0.99035,-2.44917c-0.13868,-0.29724 -0.15816,-0.64868 -0.3363,-0.92408c-1.29311,-1.99906 -3.67737,-3.06772 -5.75495,-3.987c-4.61365,-2.04143 -9.54799,-3.08148 -14.54847,-3.60738c-2.04952,-0.01092 -4.10774,-0.00451 -6.12835,0.40554c-0.14043,0.0285 -1.93454,0.64505 -1.97385,0.6548c-1.1472,0.28473 -2.25055,0.36848 -3.27568,1.09142c-0.72712,0.51278 -1.21501,1.31654 -1.66557,2.08377c-1.18639,2.02026 -2.34874,4.20463 -2.38085,6.60172l-0.00007,0.39096c0,0 -0.00027,0.82983 0.68765,1.11528c-0.06039,0.31201 -0.11322,0.62347 -0.1552,0.93511c-0.17466,1.29656 -0.31542,2.59647 -0.43425,3.9011c-1.07066,0.55756 -2.13684,1.12056 -3.16435,1.74471c-1.36414,0.82863 -2.6105,1.87721 -3.94369,2.76493c-0.00009,-0.00114 -0.02319,0.01176 -0.02339,0.01062c-0.09664,-0.54056 -0.49559,-0.98338 -0.68728,-1.49796c-0.71897,-1.93 -1.13948,-3.39095 -0.83968,-5.48951c-0.00096,-0.91332 0.03231,-1.89652 0.31244,-2.7799c0.30462,-0.96062 1.24815,-1.6766 1.86852,-2.37911c0.45269,-0.51262 0.75796,-1.15107 1.24398,-1.63221c0.30346,-0.30041 0.68739,-0.5178 0.96721,-0.84035c0.94418,-1.0884 1.7096,-2.29547 2.70994,-3.3614c1.81926,-1.93854 4.16556,-3.70739 6.49222,-4.99611c0,0 0.9745,-0.54222 0.53519,-1.52053z" data-paper-data="{&quot;noHover&quot;:false,&quot;origItem&quot;:[&quot;Path&quot;,{&quot;applyMatrix&quot;:true,&quot;segments&quot;:[[[195.57023,60.33548],[0,0],[1.63238,3.63513]],[[193.58391,65.981],[0,0],[-8.6453,4.78859]],[[169.46492,84.52837],[6.75994,-7.20315],[-3.71701,3.96071]],[[159.39552,97.01095],[3.50835,-4.04422],[-1.03972,1.19853]],[[155.80149,100.13193],[1.1276,-1.11626],[-1.80593,1.78777]],[[151.1788,106.19397],[1.68207,-1.90477],[-2.30515,2.61035]],[[144.23515,115.03061],[1.13191,-3.56942],[-1.04091,3.28244]],[[143.07298,125.35574],[-0.00356,-3.39367],[-1.11397,7.79774]],[[146.18952,145.74526],[-2.6715,-7.17142],[0.71229,1.91207]],[[148.74197,151.30903],[-0.35908,-2.0086],[0.00075,0.00423]],[[148.7436,151.32176],[-0.00033,-0.00425],[4.95382,-3.29853]],[[163.39709,141.04747],[-5.06881,3.07899],[3.81797,-2.31918]],[[175.15518,134.56478],[-3.97832,2.07177],[0.44153,-4.84768]],[[176.76532,120.06245],[-0.64901,4.81771],[0.15599,-1.15797]],[[177.34129,116.58594],[-0.22439,1.15934],[-2.55613,-1.06064]],[174.78516,112.43885],[[174.78516,110.98525],[0,0],[0.11932,-8.90703]],[[183.63015,86.43801],[-4.40833,7.50679],[1.67415,-2.85085]],[[189.81997,78.68833],[-2.7018,1.90537],[3.80913,-2.68627]],[[201.99345,74.62637],[-4.2627,1.058],[0.14606,-0.03625]],[[209.33,72.18809],[-0.52182,0.10589],[7.50807,-1.52365]],[[232.11628,70.66335],[-7.61552,-0.04059],[18.58058,1.95414]],[[286.25403,84.0988],[-17.14318,-7.58546],[7.71981,3.41584]],[[307.63837,98.92878],[-4.80487,-7.42802],[0.66195,1.02332]],[[308.88759,102.36501],[-0.51529,-1.10447],[1.38414,2.96676]],[[312.56603,111.47142],[-0.75319,-3.18594],[0.57168,2.41814]],[[313.14447,118.90333],[-0.17704,-2.47848],[0.3148,4.40721]],[[314.55476,132.07956],[-0.54878,-4.39722],[2.49996,1.35396]],[[322.06574,136.16928],[-2.46745,-1.46356],[2.06092,1.22243]],[[328.28814,139.76892],[-2.22071,-0.90012],[1.36367,0.55274]],[[332.41553,141.33437],[-1.27097,-0.74144],[0.30234,0.17638]],[[332.70293,142.34437],[-0.34034,0.08179],[0.41667,-0.10013]],[[333.18012,141.15063],[-0.24642,0.35059],[0.28363,-0.40352]],[[338.08351,134.614],[-0.70181,1.43422],[0.62468,-1.27659]],[[339.59558,130.62739],[-0.69684,1.23869],[3.92863,-6.98352]],[[351.82169,110.20449],[-3.27027,7.42367],[0.69917,-2.30177]],[[348.96212,104.83662],[1.50274,1.62817],[-3.44038,-3.7275]],[[335.58448,95.56064],[4.40083,2.47924],[-2.33658,-1.31633]],[[328.29439,92.15686],[2.34493,1.30141],[-4.80936,-2.66913]],[[314.45204,83.27104],[4.60824,2.98416],[-2.0197,-1.30789]],[[308.38901,79.37699],[2.02071,1.29153],[-1.59465,-0.21005]],[[305.30967,77.40856],[0.41628,0.55679],[-8.91021,-5.70163]],[[279.25052,59.30574],[8.32379,6.65903],[-10.01337,-7.51299]],[[248.98462,37.20401],[10.37262,6.94312],[-1.57463,-1.05401]],[[244.26701,34.03262],[1.50304,1.1538],[-0.58492,-0.449]],[[239.93681,30.69098],[0.83677,-0.22364],[-1.38652,0.37056]],[[235.18972,34.22136],[0.85635,-0.6208],[-1.77477,1.28659]],[[229.501,37.5205],[1.74797,-1.32277],[-0.91782,0.69456]],[[227.05673,39.95956],[0.93774,-0.66744],[-2.82408,2.01006]],[[218.10223,45.24719],[2.94731,-1.8246],[-4.66567,1.63414]],[[205.57095,53.16157],[4.05235,-2.90042],[-3.35671,2.40252]],[[195.57023,60.33549],[3.30901,-2.40307],[0,0]]],&quot;closed&quot;:true,&quot;fillColor&quot;:[0,0,0,1]}]}" fill="#ffffff" stroke="none" stroke-width="0.5"/><path d="M228.23482,186.93244c-0.66711,0.43679 -1.37912,0.85033 -2.07623,1.2366c0.07813,-0.73797 0.16398,-1.47635 0.26097,-2.21183c0.21927,-1.66282 0.7765,-3.34948 1.15339,-4.98249c0,0 0.23152,-1.00404 -0.65684,-1.37409c0.28612,-0.63469 0.697,-1.21072 1.04627,-1.81406c0.37958,-0.65569 0.23344,-0.84002 0.94259,-1.30612c0.77687,-0.51061 1.60719,-0.51885 2.4621,-0.73397c0.66041,-0.16618 1.27025,-0.51817 1.93849,-0.64933c1.80971,-0.35521 3.6509,-0.36808 5.48517,-0.36173c4.70463,0.4957 9.39922,1.49997 13.73888,3.41908c1.54342,0.68254 3.72553,1.51579 4.6776,3.05441c0.11688,0.18887 0.09333,0.43846 0.1854,0.6406c0.29731,0.65272 0.67228,1.28606 0.8355,1.98448c0.1255,0.53701 0.06558,1.10231 0.10487,1.65238c0.03974,0.55631 0.09219,1.11225 0.15233,1.66659c-1.51571,-1.02423 -3.04453,-2.09106 -4.53611,-3.14258c-1.3108,-0.92408 -2.467,-2.05649 -3.7711,-2.98794c-0.44307,-0.31646 -0.95709,-0.52841 -1.38075,-0.87043c-0.90198,-0.72816 -1.6113,-1.65812 -2.45239,-2.45584c-0.75122,-0.71248 -1.28417,-1.8106 -2.27782,-2.10149c-0.52494,-0.15367 -0.82203,0.71954 -1.23882,1.07374c-0.98844,0.84 -1.60163,1.87053 -2.65111,2.67381c-0.96451,0.73825 -2.0029,1.32652 -2.85993,2.20348c-3.19183,1.54798 -6.12683,3.45149 -9.08246,5.3867z" data-paper-data="{&quot;noHover&quot;:false,&quot;origItem&quot;:[&quot;Path&quot;,{&quot;applyMatrix&quot;:true,&quot;segments&quot;:[[[192.33164,124.94484],[0,0],[10.98242,-7.19074]],[[226.07646,104.91199],[-11.86004,5.7519],[3.18449,-3.25858]],[[236.71762,96.68838],[-3.5839,2.74317],[3.8996,-2.98481]],[[246.60937,86.73851],[-3.6728,3.12124],[1.5487,-1.31612]],[[251.22153,82.75055],[-1.95054,-0.57101],[3.69216,1.08086]],[[259.70761,90.57294],[-2.79134,-2.64741],[3.12526,2.96412]],[[268.83256,99.72251],[-3.35152,-2.70565],[1.57421,1.27084]],[[273.96401,102.96391],[-1.64634,-1.17589],[4.84573,3.46104]],[[287.9754,114.07985],[-4.87063,-3.43365],[5.54233,3.90718]],[[304.73447,125.72954],[-5.63199,-3.80577],[-0.22348,-2.05979]],[[304.16711,119.54133],[0.14765,2.06713],[-0.146,-2.04395]],[[303.77648,113.40629],[0.46632,1.99539],[-0.60649,-2.59518]],[[300.67144,106.03853],[1.10473,2.42536],[-0.34211,-0.75108]],[[299.98252,103.66036],[0.43428,0.70181],[-3.53765,-5.71711]],[[282.60413,92.32549],[5.73497,2.53615],[-16.12513,-7.13093]],[[231.62464,79.64992],[17.48126,1.84191],[-6.81569,-0.0236]],[[211.26071,80.97857],[6.72444,-1.31989],[-2.48302,0.48738]],[[204.06123,83.38562],[2.45391,-0.61747],[-3.17665,0.79933]],[[194.9152,86.10715],[2.88665,-1.89729],[-2.63503,1.73192]],[[191.41434,90.95536],[1.41041,-2.4364],[-1.29779,2.24187]],[[187.52787,97.68956],[1.06316,-2.35836],[3.30094,1.375]],[[189.96887,102.79098],[0,0],[-1.40045,6.06785]],[[185.68128,121.28943],[0.81477,-6.17865],[-0.36038,2.73283]],[[184.70966,129.50247],[0.2903,-2.74213],[2.59026,-1.4353]],[[192.33163,124.94485],[-2.47883,1.62302],[0,0]]],&quot;closed&quot;:true,&quot;fillColor&quot;:[0,0,0,1]}]}" fill="#ffffff" stroke="none" stroke-width="0.5"/><path d="M257.65238,189.50052c0.41172,0.32813 0.84279,0.61526 1.28373,0.87979c0.23479,1.31389 0.4773,2.64727 0.57048,3.96452c0.20169,2.85116 -0.00358,5.63782 -0.1335,8.48184c-0.04107,0.89892 0.12389,2.06163 -0.20341,2.93735c-0.12512,0.33477 -0.34768,0.62664 -0.48919,0.95482c-0.41759,0.96849 -0.55661,2.018 -1.6367,2.50923c-1.52168,0.69207 -3.88477,0.26728 -5.46338,0.26728c-3.82624,0 -7.61713,-0.12053 -11.42147,-0.53265c-1.98203,-0.21471 -3.86411,-0.30011 -5.8,-0.74175c-1.60092,-0.36522 -3.42594,-0.5361 -4.88503,-1.39328c-0.19096,-0.45268 -0.61954,-0.6055 -0.88583,-0.65669c-0.52213,-0.47873 -0.97263,-1.05091 -1.46687,-1.54088c-0.3712,-0.368 -0.72823,-0.77645 -0.94734,-1.25101c-0.14468,-0.28827 -0.71836,-1.36165 -0.805,-1.76212c-0.09508,-0.43945 0.0191,-0.89995 0.0191,-1.34956c0,-1.33611 0.03882,-2.64105 0.12737,-3.96999c0.11663,-1.75022 0.23112,-3.50501 0.37429,-5.25183c1.24047,-0.65058 2.4734,-1.3198 3.64614,-2.08631c2.99275,-1.95609 5.98749,-3.82682 9.17984,-5.46104c1.23851,-1.21453 2.75864,-2.05309 4.03601,-3.22845c0.43523,-0.40048 0.7195,-0.94145 1.11759,-1.37887c0.09978,-0.10964 0.23739,-0.18877 0.37182,-0.26858c0.20259,0.86559 1.05148,1.40926 1.6547,2.01103c0.46638,0.46526 0.89271,0.97776 1.40423,1.39287c0.45735,0.37115 1.01017,0.61169 1.48945,0.95405c1.31107,0.93653 2.47896,2.07913 3.79624,3.0101c1.6709,1.1809 3.36208,2.37548 5.06675,3.51013z" data-paper-data="{&quot;noHover&quot;:false,&quot;origItem&quot;:[&quot;Path&quot;,{&quot;applyMatrix&quot;:true,&quot;segments&quot;:[[[301.63885,134.48363],[0,0],[-6.33414,-4.21609]],[[282.82091,121.4576],[6.20865,4.38792],[-4.89466,-3.45927]],[[268.72932,110.28497],[4.87162,3.47992],[-1.78087,-1.27213]],[[263.20102,106.74289],[1.69939,1.3791],[-1.90069,-1.54245]],[[257.98947,101.56934],[1.73294,1.72878],[-2.24142,-2.23604]],[[251.84763,94.09805],[0.75278,3.21631],[-0.49951,0.29655]],[[250.46714,95.09613],[0.37076,-0.40738],[-1.47921,1.62534]],[[246.31801,100.21986],[1.61722,-1.48807],[-4.74638,4.36735]],[[231.33886,112.21316],[4.602,-4.5129],[-11.86202,6.07236]],[[197.25862,132.47643],[11.12032,-7.26834],[-4.3576,2.84816]],[[183.7132,140.21924],[4.60927,-2.41739],[-0.53199,6.49078]],[[182.32288,159.71827],[0.43335,-6.5034],[-0.32904,4.938]],[[181.84705,174.45921],[0,-4.96467],[0,1.67067]],[[181.77484,179.47071],[-0.35329,-1.63289],[0.32194,1.48806]],[[184.76371,186.0137],[-0.53759,-1.07114],[0.81417,1.76334]],[[188.28158,190.65859],[-1.37929,-1.36741],[1.83646,1.82064]],[[193.72861,196.37961],[-1.94009,-1.77885],[0.98949,0.19023]],[[197.01814,198.81754],[-0.70957,-1.68204],[5.42161,3.18507]],[[215.15889,203.98623],[-5.94861,-1.35707],[7.19328,1.64102]],[[236.69301,206.73633],[-7.36473,-0.79781],[14.13601,1.53134]],[[279.09922,208.72194],[-14.21737,0],[5.86573,0]],[[299.39059,207.73582],[-5.6542,2.57156],[4.01337,-1.8253]],[[305.46741,198.41744],[-1.55166,3.59868],[0.52579,-1.21943]],[[307.28358,194.87165],[-0.4649,1.24391],[1.21614,-3.25394]],[[308.03596,183.96288],[-0.15259,3.34015],[0.48277,-10.56769]],[[308.52648,152.46866],[0.74944,10.59423],[-0.34625,-4.89456]],[[306.40794,137.74921],[0.87242,4.88211],[-1.63842,-0.98293]],[[301.63885,134.48362],[1.52984,1.21925],[0,0]]],&quot;closed&quot;:true,&quot;fillColor&quot;:[0,0,0,1]}]}" fill="#ffeaab" stroke="none" stroke-width="0.5"/><path d="M219.23642,208.20964c2.83649,0.29437 5.72442,0.33516 8.5968,0.33911c0.64968,0.42202 1.33597,0.77645 2.03772,1.04886c1.28994,0.50073 2.61576,0.6609 3.95505,0.96417c2.02772,0.45916 3.99851,0.55962 6.07012,0.78306c3.88998,0.41958 7.77146,0.54926 11.68394,0.54926c2.03888,0 4.61048,0.3824 6.53905,-0.5146c0.48644,-0.22625 0.87264,-0.5119 1.19199,-0.84165c0.31514,0.17165 0.64461,0.17193 0.64461,0.17193l0.4038,-0.0234c0.7751,-0.16156 1.46447,-0.14204 2.25583,-0.14204c1.65488,0 4.62359,-0.33442 5.51296,1.53772c0.27934,1.17939 0.4717,2.33637 0.59615,3.52313c0.1304,1.24347 0.71476,2.41786 0.83149,3.65804c0.13727,1.45843 0.42066,2.83065 0.68172,4.27044c0.161,0.88792 0.14364,1.80618 0.33796,2.68741c0.11317,0.5132 0.38432,0.98345 0.4985,1.49643c0.27548,1.23771 0.10173,2.54247 0.66863,3.67628c-0.03127,0.65332 0.09166,1.30573 0.13589,1.9583c0.06717,0.99106 -0.07896,1.84521 -0.16484,2.81741c-0.0723,0.81843 0.07331,1.65717 0.00134,2.47428c-0.02891,0.3282 -0.36767,1.87071 -0.75444,1.99265c-0.38212,0.12047 -0.79791,-0.09244 -1.19856,-0.09198c-1.27874,0.00149 -2.1283,-0.28695 -3.34287,-0.6229c-1.13469,-0.31386 -2.27672,-0.01552 -3.38401,-0.2977c-0.3476,-0.17148 -0.67478,-0.39296 -1.04289,-0.5143c-0.498,-0.16416 -1.08397,-0.04135 -1.54678,-0.28784c-0.58624,-0.31223 -1.09066,-0.78591 -1.71297,-1.01807c-1.66972,-0.62292 -3.45611,-1.31415 -5.06014,-2.11845c-0.34219,-0.17158 -0.61533,-0.46052 -0.95265,-0.64149c-1.30037,-0.69762 -2.79014,-1.08184 -4.0259,-1.91037c-0.73928,-0.49566 -1.43875,-1.0586 -2.21416,-1.52991c-1.91029,-1.1611 -3.97204,-2.14243 -5.90005,-3.28687c-1.9701,-0.98421 -3.73904,-2.18412 -5.65767,-3.25076c-3.81224,-2.11936 -7.7804,-3.89542 -11.674,-5.84222c-0.83229,-0.41615 -1.63948,-0.88096 -2.46289,-1.31443c-0.26223,-0.13805 -0.57757,-0.18534 -0.80719,-0.37268c-0.25575,-0.20866 -0.36083,-0.56291 -0.60762,-0.7821c-0.25565,-0.22705 -0.64699,-0.28053 -0.87508,-0.53526c-0.17339,-0.19365 -0.11744,-0.5186 -0.26167,-0.73485c-0.15409,-0.23103 -0.46453,-0.33189 -0.60798,-0.56968c-0.24128,-0.39995 -0.19317,-1.51185 -0.18879,-1.92212c0,-1.16332 0.00061,-2.32789 0.00061,-3.49121c0,-0.33238 0.02016,-0.66568 0.00018,-0.99746c-0.00485,-0.08052 -0.00385,-0.16565 -0.0102,-0.24855c0.50002,0.12725 1.48796,-0.07892 1.80902,-0.0456z" data-paper-data="{&quot;noHover&quot;:false,&quot;origItem&quot;:[&quot;Path&quot;,{&quot;applyMatrix&quot;:true,&quot;segments&quot;:[[[158.98451,204.01449],[0,0],[-1.19296,-0.12381]],[[152.26349,204.18258],[1.85794,0.47284],[0.02358,0.30801]],[[152.30155,205.10584],[-0.01802,-0.29921],[0.07424,1.2328]],[[152.30155,208.81093],[0,-1.23503],[0,4.32261]],[[152.30155,221.77875],[0,-4.32261],[-0.01629,1.52448]],[[153.00412,228.91812],[-0.89655,-1.4861],[0.53303,0.88354]],[[155.26343,231.03433],[-0.57257,-0.85844],[0.53594,0.80353]],[[156.23608,233.76378],[-0.64429,-0.71957],[0.84751,0.94652]],[[159.4878,235.75223],[-0.94994,-0.84368],[0.91702,0.81444]],[[161.74588,238.65725],[-0.9503,-0.77534],[0.85322,0.69613]],[[164.74528,240.04176],[-0.9744,-0.51296],[3.05957,1.61067]],[[173.89711,244.92449],[-3.0926,-1.5463],[14.46767,7.23383]],[[217.27615,266.61772],[-14.16534,-7.87504],[7.12917,3.96337]],[[238.28502,278.66553],[-7.32041,-3.6571],[7.16402,4.25248]],[[260.15961,290.86471],[-7.09817,-4.31435],[2.88124,1.75125]],[[268.37814,296.55258],[-2.74698,-1.84174],[4.59178,3.07861]],[[283.32819,303.65659],[-4.83186,-2.59218],[1.2534,0.67242]],[[286.86699,306.04099],[-1.27149,-0.63755],[5.96017,2.98857]],[[305.66423,313.91722],[-6.20427,-2.31461],[2.31235,0.86266]],[[312.02852,317.70088],[-2.17833,-1.16018],[1.7197,0.91591]],[[317.77478,318.7718],[-1.85046,-0.60998],[1.3678,0.45088]],[[321.64953,320.68328],[-1.29158,-0.63716],[4.11442,1.04851]],[[334.22147,321.79231],[-4.21624,-1.16623],[4.51306,1.24833]],[[346.64142,324.10885],[-4.75149,0.00552],[1.48874,-0.00173]],[[351.0945,324.45139],[-1.41985,0.44765],[1.43712,-0.4531]],[[353.89611,317.05016],[-0.10741,1.2195],[0.26742,-3.03619]],[[353.88954,307.85969],[-0.26865,3.04109],[0.31912,-3.61246]],[[354.50042,297.3952],[0.24958,3.68252],[-0.16434,-2.42477]],[[353.99459,290.12177],[-0.1162,2.42756],[-2.10647,-4.21295]],[[351.50892,276.4679],[1.02361,4.59903],[-0.42425,-1.90611]],[[349.65637,270.91026],[0.42052,1.90694],[-0.72206,-3.27442]],[[348.4005,260.92971],[0.59822,3.29929],[-0.97003,-5.3499]],[[345.86841,245.0702],[0.51005,5.41917],[-0.43372,-4.60822]],[[342.78083,231.48487],[0.48453,4.62042],[-0.46242,-4.40968]],[[340.56839,218.39986],[1.03795,4.38234],[-3.30469,-6.95641]],[[320.08827,212.69339],[6.14912,0],[-2.9405,0]],[[311.70807,213.22352],[2.88007,-0.6003],[0,0]],[310.20803,213.31091],[[307.81374,212.67309],[1.17098,0.63782],[-1.18663,1.22526]],[[303.38498,215.80085],[1.80751,-0.8407],[-7.16609,3.33304]],[[279.09921,217.72194],[7.57598,0],[-14.53782,0]],[[235.72579,215.68421],[14.4542,1.55904],[-7.69758,-0.83026]],[[213.18439,212.76697],[7.53451,1.70613],[-4.97647,-1.12688]],[[198.49293,209.18036],[4.79311,1.86058],[-2.60754,-1.01219]],[[190.92233,205.28197],[2.41406,1.56813],[-10.67305,-0.01469]],[[158.98452,204.01448],[10.53972,1.09382],[0,0]]],&quot;closed&quot;:true,&quot;fillColor&quot;:[0,0,0],&quot;strokeWidth&quot;:0.5}]}" fill="#7aff69" stroke="none" stroke-width="0.25"/><path d="M219.18062,225.03278h-1.13384l-0.29149,0.07287l-1.12295,0.44918l-0.30671,0.04182l-0.27313,0.14567l-0.94687,0.23672l-0.53887,0.40416l-0.14236,0.05994l-0.21957,0.36595l-0.35499,0.35499l-0.00991,0.04956l-0.10904,0.06939l-0.08866,0.08866l-0.6511,0.39066v2.61716l0.23517,1.88134l0.20817,1.24899l0.40914,1.22741l0.37958,0.94895l0.65839,1.09732l0.19376,0.63664l0.04606,0.08636l0.44565,0.09903l0.18853,0.09426l1.32192,0.37769l1.29104,0.21517l2.44305,0.2443h5.69155l0.40943,-0.10236l0.16814,-0.1261l0.03848,-0.23088l0.19466,-0.44773l0.06596,-0.48374l0.54444,-1.3611l0.64069,-1.7085l0.21558,-1.72465l0.03399,-0.0878l-0.00751,-0.09384l0.22008,-1.32045v-4.10424l-1.24018,-0.46507l-2.35747,-0.47149l-3.55741,-0.54729l-0.1241,-0.05212l-0.13452,0.00456l-1.40108,-0.30023c-0.33129,0.07771 -0.67668,0.11882 -1.03168,0.11882zM230.60627,217.72581l2.25042,0.84391l0.34002,0.2345l0.39515,0.12026l1.08164,0.64899l0.03776,-0.0026l0.08173,0.0743l0.20538,0.12323l0.69829,0.69829l0.73071,0.66428l0.13286,0.19928l0.0781,0.0781l-0.00081,0.03784l0.35245,0.52868l0.29408,0.82343l0.3743,0.7902l0.2813,1.40651l-0.02132,0.4477l0.10871,0.43482v5.34475l-0.09122,0.36488l0.02999,0.37491l-0.26621,1.59727l-0.26992,2.15933l-0.19153,0.49478l-0.06024,0.52712l-0.84391,2.25042l-0.02854,0.04139l-0.00679,0.04981l-0.38195,0.95487l-0.12649,0.75891l0.01065,0.02131l-0.02663,0.07457l-0.05887,0.3532l-0.37675,0.86652l-0.3178,0.88983l-0.19862,0.29794l-0.03157,0.07262l-0.02234,0.00826l-0.2771,0.41565l-0.00383,0.06887l-0.88386,0.7576l-0.86138,0.78307l-0.06882,-0.00475l-0.14652,0.07326l-0.8006,0.60045l-0.66669,0.28071l-0.61029,0.38836l-0.84391,0.2813l-0.17593,0.01353l-0.15569,0.08303l-1.12521,0.2813h-0.55398l-0.53743,0.13436h-6.46996l-0.22168,-0.05542l-0.22609,0.03309l-2.81303,-0.2813l-0.14182,-0.05091l-0.1502,0.01202l-1.68782,-0.2813l-0.23756,-0.10329l-0.25889,-0.00863l-1.96912,-0.56261l-0.36494,-0.21054l-0.41128,-0.0914l-0.12078,-0.06039l-0.64598,-0.1615l-0.02257,-0.01204l-0.07927,0.02162l-0.95839,-0.57503l-0.98617,-0.52596l-0.02224,-0.07909l-0.02193,-0.01316l-1.12521,-1.12521l-0.01316,-0.02193l-0.07909,-0.02224l-0.52596,-0.98617l-0.57503,-0.95839l0.02162,-0.07927l-0.01204,-0.02257l-0.1189,-0.47558l-0.49939,-0.83232l-0.10609,-0.34858l-0.21334,-0.29539l-0.56261,-1.40651l-0.01828,-0.13407l-0.07265,-0.11416l-0.56261,-1.68782l-0.02738,-0.35589l-0.14232,-0.32734l-0.2813,-1.68782l0.00751,-0.09384l-0.03399,-0.0878l-0.2813,-2.25042l0.03422,-0.28229l-0.06897,-0.27587v-4.20723l-0.02804,-0.04206l0.02804,-0.12617v-0.12539l0.25078,-1.00311l0.2243,-1.00936l0.05608,-0.11215l0.03135,-0.12539l0.04389,-0.02508l0.00697,-0.01395l0.18017,-0.54051l0.47662,-0.74898l0.01909,-0.34357l0.43901,-0.37629l0.31043,-0.48781l0.33742,-0.06748l0.67405,-0.57775l0.56261,-0.2813l0.06329,-0.01407l0.54089,-0.46362l0.58052,-0.67727l0.22416,-0.01245l0.27896,-0.2391l0.19968,-0.09984l0.49035,-0.36776l-0.23018,-0.81843l3.1378,-3.27423h2.31925l4.42687,1.10672l3.73506,0.80037l3.52693,0.5426l0.09516,0.03997l0.1031,-0.00491l2.81303,0.56261l0.33226,0.15739z" fill="#000000" stroke="none" stroke-width="0.5"/><path d="M219.16746,224.98453c0.355,0 0.70776,-0.04254 1.03905,-0.12025l1.41151,0.30011l0.13553,-0.00446l0.12508,0.05224l3.58072,0.5568l2.36652,0.48023l1.24367,0.47l0.00723,4.12519l-0.21987,1.32873l0.00747,0.09443l-0.03403,0.08838l-0.21768,1.73549l-0.64531,1.71896l-0.54948,1.36819l-0.06755,0.48552l-0.19649,0.44959l-0.03924,0.2316l-0.16901,0.12688l-0.41107,0.10374l-5.72439,0.01106l-2.46025,-0.24789l-1.2987,-0.21905l-1.32862,-0.38266l-0.18947,-0.09511l-0.44736,-0.10069l-0.04646,-0.08677l-0.19625,-0.63943l-0.66301,-1.10395l-0.38249,-0.95478l-0.41171,-1.23532l-0.20938,-1.25702l-0.2346,-1.89305l0.00449,-2.63104l0.65288,-0.39394l0.08903,-0.08927l0.1094,-0.06997l0.01006,-0.04979l0.35663,-0.35741l0.2211,-0.36795l0.14287,-0.06057l0.54153,-0.40712l0.9508,-0.24035l0.27467,-0.14689l0.30814,-0.04287l1.12982,-0.45327l0.29331,-0.07372l1.1409,-0.00251z" data-paper-data="{&quot;noHover&quot;:false,&quot;origItem&quot;:[&quot;Path&quot;,{&quot;applyMatrix&quot;:true,&quot;segments&quot;:[[219.18062,225.03278],[218.04678,225.03278],[217.75529,225.10565],[216.63234,225.55483],[216.32563,225.59665],[216.0525,225.74232],[215.10563,225.97904],[214.56676,226.3832],[214.4244,226.44314],[214.20483,226.80909],[213.84984,227.16408],[213.83993,227.21364],[213.73089,227.28303],[213.64223,227.37169],[212.99113,227.76235],[212.99113,230.37951],[213.2263,232.26085],[213.43447,233.50984],[213.84361,234.73725],[214.22319,235.6862],[214.88158,236.78352],[215.07534,237.42016],[215.1214,237.50652],[215.56705,237.60555],[215.75558,237.69981],[217.0775,238.0775],[218.36854,238.29267],[220.81159,238.53697],[226.50314,238.53697],[226.91257,238.43461],[227.08071,238.30851],[227.11919,238.07763],[227.31385,237.6299],[227.37981,237.14616],[227.92425,235.78506],[228.56494,234.07656],[228.78052,232.35191],[228.81451,232.26411],[228.807,232.17027],[229.02708,230.84982],[229.02708,226.74558],[227.7869,226.28051],[225.42943,225.80902],[221.87202,225.26173],[221.74792,225.20961],[221.6134,225.21417],[[220.21232,224.91394],[0,0],[-0.33129,0.07771]],[[219.18064,225.03276],[0.355,0],[0,0]]],&quot;closed&quot;:true,&quot;fillColor&quot;:[0,0,0,1]}]}" fill="#00f3ff" stroke="none" stroke-width="0.5"/><path d="M249.45869,229.66967h0.1278l0.53743,-0.13436h0.56261l0.53743,0.13436h0.55398l0.95086,0.23772l3.19837,0.53306l0.23756,0.10329l0.25889,0.00863l1.96912,0.56261l0.02639,0.01522l0.03043,0.00142l2.75871,0.82761l2.93631,0.80081l2.42719,0.53938l0.2113,0.10565l0.23554,0.01812l1.42203,0.47401l1.13179,0.22636l0.5432,0.2573l0.58674,0.13039l1.12521,0.56261l0.67405,0.57775l0.33742,0.06748l0.31043,0.48781l0.43901,0.37629l0.01909,0.34357l0.47662,0.74898l0.2813,0.84391l0.05548,0.72125l0.17544,0.70178v2.51941l0.02804,0.04206l-0.02804,0.12617v0.12539l-0.25078,1.00311l-0.2243,1.00936l-0.05608,0.11215l-0.03135,0.12539l-0.04389,0.02508l-0.37216,0.74432l-0.79182,1.84757l-0.08188,0.10773l-0.02935,0.13209l-1.68782,3.37563l-0.23229,0.27101l-0.13083,0.3321l-1.30206,1.82288l-0.75145,1.25241l-0.16704,0.16704l-0.09167,0.21772l-0.66774,0.89032l-0.0028,0.05047l-0.09813,0.08411l-0.07523,0.10031l-0.80248,0.65202l-0.78505,0.6729l-0.11215,0.05608l-0.00296,0.00241l-0.69566,0.59628l-0.86138,0.78307l-0.06882,-0.00475l-0.80944,0.40472l-0.02508,0.04389l-0.12539,0.03135l-0.11215,0.05608l-1.00936,0.2243l-1.00311,0.25078h-0.12539l-0.12617,0.02804l-0.04105,-0.02737l-0.5851,0.14627h-0.55398l-0.53743,0.13436h-1.96912l-0.53743,-0.13436h-0.55398l-0.95086,-0.23772l-1.51055,-0.25176l-0.32734,-0.14232l-0.35589,-0.02738l-3.09709,-1.03236l-0.04876,0.0133l-0.11083,-0.0665l-0.11895,-0.03965l-0.87233,-0.55512l-0.88663,-0.53198l-0.08866,-0.08866l-0.10904,-0.06939l-0.00991,-0.04956l-0.52587,-0.52587l-0.78329,-0.46997l-2.04269,-1.02135l-0.06882,0.00475l-0.86138,-0.78307l-0.88386,-0.7576l-0.00383,-0.06887l-0.28247,-0.42371l-0.03991,-0.03991l-0.04956,-0.00991l-0.06939,-0.10904l-0.08866,-0.08866l-0.53198,-0.88663l-0.55512,-0.87233l-0.03965,-0.11895l-0.0665,-0.11083l0.0133,-0.04876l-0.46976,-1.40927l-0.05548,-0.72125l-0.17544,-0.70178v-1.67551l-0.02804,-0.04206l0.02804,-0.12617v-0.12539l0.25078,-1.00311l0.2243,-1.00936l0.0118,-0.0236l0.07573,-0.37865v-0.67962l0.13436,-0.53743v-0.55398l0.25533,-1.02133l0.2603,-1.30151l0.07956,-0.16797l0.00619,-0.18576l0.56261,-1.96912l0.2958,-0.51271l0.17234,-0.56627l0.58976,-0.98293l0.31355,-0.94064l-0.0133,-0.04876l0.0665,-0.11083l0.03965,-0.11895l0.55512,-0.87233l0.53198,-0.88663l0.08866,-0.08866l0.06939,-0.10904l0.04956,-0.00991l0.35499,-0.35499v0c0.51669,-0.51669 1.15844,-0.90831 1.87595,-1.12557l0.11279,-0.06767l0.06519,0.01778c0.21848,-0.0564 0.44339,-0.0968 0.6734,-0.11987l0.17377,-0.30409l1.5445,-0.38613zM251.0326,238.97077l-0.14429,0.47411l-0.53872,0.89787l-0.34961,1.22365l-0.24558,1.22792l-0.04697,0.09916v0.10973l-0.14694,0.58778v0.57124l-0.10871,0.43482l0.02132,0.4477l-0.2813,1.40651l-0.19392,0.40938v0.50957l0.0711,0.21331l0.0532,0.04836l1.3264,0.6632l0.13397,0.11483l0.1688,0.05137l1.40651,0.84391l0.39172,0.39172l0.47503,0.28502l0.37405,0.37405l2.03288,0.67763l1.33954,0.22326l0.1682,0.07313h0.18341l0.58778,0.14694h0.86117l0.58778,-0.14694h0.36725l0.36639,-0.31405l0.86138,-0.78307l0.06882,0.00475l0.1219,-0.06095l0.06724,-0.08965l0.72447,-1.20746l0.12969,-0.12969l0.06723,-0.17065l1.20129,-1.68181l1.47078,-2.94155l0.69378,-1.61883l-0.90685,-0.30228l-2.30511,-0.51225l-0.09814,-0.04907l-0.1097,-0.00233l-3.09433,-0.84391l-0.05082,-0.02851l-0.05821,-0.00271l-2.78467,-0.8354l-1.6956,-0.48446l-3.03589,-0.50598z" fill="#000000" stroke="none" stroke-width="0.5"/><path d="M251.12602,238.73376l3.04765,0.49773l1.70673,0.48041l2.81207,0.83671l0.05876,0.0029l0.05138,0.02871l3.11681,0.86034l0.11004,0.00278l0.09862,0.04972l2.3107,0.5221l0.90817,0.30572l-0.69169,1.62727l-1.47224,2.96349l-1.20869,1.69688l-0.06812,0.17185l-0.13064,0.13089l-0.73245,1.21524l-0.06792,0.09017l-0.12276,0.06158l-0.06917,-0.0045l-0.8691,0.78754l-0.36961,0.31542l-0.36973,0.00088l-0.59226,0.14817l-0.86769,0.00101l-0.59239,-0.14675l-0.18489,-0.00003l-0.16959,-0.0732l-1.35042,-0.22515l-2.04806,-0.685l-0.37728,-0.37657l-0.47813,-0.28788l-0.39459,-0.39486l-1.41251,-0.85289l-0.16918,-0.05212l-0.13445,-0.11582l-1.32893,-0.66968l-0.05331,-0.04871l-0.07147,-0.21459l-0.0007,-0.51243l0.1935,-0.41157l0.28062,-1.41525l-0.02121,-0.4506l0.10899,-0.43769l0.00059,-0.57485l0.14786,-0.59158l0.00019,-0.11038l0.04718,-0.09983l0.24851,-1.23517l0.35347,-1.23014l0.54259,-0.9027l0.14607,-0.47598z" data-paper-data="{&quot;noHover&quot;:false,&quot;origItem&quot;:[&quot;Path&quot;,{&quot;applyMatrix&quot;:true,&quot;segments&quot;:[[251.0326,238.97077],[250.88831,239.44488],[250.34959,240.34275],[249.99998,241.5664],[249.7544,242.79432],[249.70743,242.89348],[249.70743,243.00321],[249.56049,243.59099],[249.56049,244.16223],[249.45178,244.59705],[249.4731,245.04475],[249.1918,246.45126],[248.99788,246.86064],[248.99788,247.37021],[249.06898,247.58352],[249.12218,247.63188],[250.44858,248.29508],[250.58255,248.40991],[250.75135,248.46128],[252.15786,249.30519],[252.54958,249.69691],[253.02461,249.98193],[253.39866,250.35598],[255.43154,251.03361],[256.77108,251.25687],[256.93928,251.33],[257.12269,251.33],[257.71047,251.47694],[258.57164,251.47694],[259.15942,251.33],[259.52667,251.33],[259.89306,251.01595],[260.75444,250.23288],[260.82326,250.23763],[260.94516,250.17668],[261.0124,250.08703],[261.73687,248.87957],[261.86656,248.74988],[261.93379,248.57923],[263.13508,246.89742],[264.60586,243.95587],[265.29964,242.33704],[264.39279,242.03476],[262.08768,241.52251],[261.98954,241.47344],[261.87984,241.47111],[258.78551,240.6272],[258.73469,240.59869],[258.67648,240.59598],[255.89181,239.76058],[254.19621,239.27612],[251.16032,238.77014]],&quot;closed&quot;:true,&quot;fillColor&quot;:[0,0,0,1]}]}" fill="#00f3ff" stroke="none" stroke-width="0.5"/><path d="M219.62867,201.40292c1.06839,0.49405 2.03265,1.10866 2.72454,2.03979c3.22341,4.33802 -1.27649,14.42376 -4.76062,17.14134c-3.84057,2.99561 -8.81336,1.46066 -12.84543,0.32199c-4.30433,-1.07608 -8.5574,-2.18351 -12.41704,-4.47134c-1.44479,-0.85641 -3.2148,-1.40669 -4.2211,-2.7514c-4.71993,-6.30719 -1.8454,-15.31955 2.04316,-21.07052c1.12682,-1.66651 1.63671,-4.02425 3.40554,-4.98249c1.74558,-0.94564 3.97125,-0.16249 5.95514,-0.08851c9.1361,0.34068 16.81169,5.69894 20.11581,13.86114z" fill="#ffeaab" stroke="#000000" stroke-width="6"/><path d="M263.64048,211.65631c0.17882,-5.45713 1.22969,-11.21555 6.19568,-14.47475c2.86343,-1.87928 7.94708,-2.16045 11.23525,-2.2761c1.83073,-0.06439 3.90248,-0.83313 5.4951,0.07201c3.23437,1.83819 3.88816,6.72859 4.40426,9.84287c0.54721,3.30204 2.15068,8.20253 1.06621,11.47534c-2.42589,7.32105 -10.0252,9.12962 -16.38437,11.19927c-3.06439,0.37375 -6.79238,1.25387 -9.74028,-0.46162c-4.13355,-2.40547 -5.29504,-8.18814 -4.07384,-12.43115c0.32496,-1.12906 0.96356,-2.09761 1.802,-2.94586z" fill="#ffeaab" stroke="#000000" stroke-width="6"/><path d="M227.62174,193.40545c0,-2.48528 2.01472,-4.5 4.5,-4.5c2.48528,0 4.5,2.01472 4.5,4.5c0,2.48528 -2.01472,4.5 -4.5,4.5c-2.48528,0 -4.5,-2.01472 -4.5,-4.5z" fill="#000000" stroke="none" stroke-width="0.5"/><path d="M245.06251,194.34315c0,-2.48528 2.01472,-4.5 4.5,-4.5c2.48528,0 4.5,2.01472 4.5,4.5c0,2.48528 -2.01472,4.5 -4.5,4.5c-2.48528,0 -4.5,-2.01472 -4.5,-4.5z" fill="#000000" stroke="none" stroke-width="0.5"/><path d="M232.17796,209.97122c-0.48507,-0.64779 -0.48507,-1.45676 -0.48507,-1.45676c0,-2.96914 -0.73176,-6.82698 2.16599,-8.96478c1.02567,-0.75668 2.5035,-0.50313 3.77213,-0.62617c2.25945,-0.21915 7.10373,-0.46092 8.99268,0.89255c3.4779,2.49197 4.03245,10.69784 0.22486,13.05097c-1.04263,0.64435 -2.44279,0.21426 -3.66735,0.26623c-3.0432,0.12916 -5.21267,0.04795 -8.0202,-1.14144l-1.36247,-0.36641c0,0 -1.37925,-0.39407 -1.62056,-1.65419zM236.13066,207.62449l0.85795,0.25517c1.88769,0.89906 5.69339,1.49175 7.73657,1.01983c0.70943,-0.16386 -0.20528,-5.11566 -0.72266,-5.42563c-1.04777,-0.62774 -2.44247,-0.05443 -3.66389,-0.05266c-1.31532,0.00191 -2.7731,-0.75602 -3.94294,-0.15472c-0.53402,0.27448 -0.37261,2.91787 -0.26503,4.35802z" fill="#000000" stroke="none" stroke-width="0.5"/></g></g></svg>