<svg version="1.1" xmlns="http://www.w3.org/2000/svg" xmlns:xlink="http://www.w3.org/1999/xlink" width="1130.29281" height="498.75324" viewBox="0,0,1130.29281,498.75324"><g transform="translate(330.13427,68.52553)"><g data-paper-data="{&quot;isPaintingLayer&quot;:true}" fill-rule="nonzero" stroke="none" stroke-linecap="butt" stroke-linejoin="miter" stroke-miterlimit="10" stroke-dasharray="" stroke-dashoffset="0" style="mix-blend-mode: normal"><path d="M-330.13427,57.50003c0,-6.90356 5.59644,-12.5 12.5,-12.5c6.90356,0 12.5,5.59644 12.5,12.5c0,6.90356 -5.59644,12.5 -12.5,12.5c-6.90356,0 -12.5,-5.59644 -12.5,-12.5z" fill="#262429" stroke-width="0.5"/><path d="M787.65854,68.49853c-6.90356,0 -12.5,-5.59644 -12.5,-12.5c0,-6.90356 5.59644,-12.5 12.5,-12.5c6.90356,0 12.5,5.59644 12.5,12.5c0,6.90356 -5.59644,12.5 -12.5,12.5z" data-paper-data="{&quot;index&quot;:null}" fill="#262429" stroke-width="0.5"/><path d="M-10.55707,392.48949v-461.01502h694.19863v461.01502z" data-paper-data="{&quot;index&quot;:null}" fill="#1a2026" stroke-width="0"/><path d="M-153.88808,429.93581c-58.78198,-2.43282 156.68547,-375.32809 156.68547,-375.32809l165.15109,-0.65244l366.26335,248.41887l-25.53784,69.88682c0,0 -539.97142,62.74853 -662.56207,57.67484z" data-paper-data="{&quot;index&quot;:null}" fill="#0e1414" stroke-width="0"/><path d="M641.5024,173.69655c-1.38071,0 -2.5,-1.11929 -2.5,-2.5c0,-1.38071 1.11929,-2.5 2.5,-2.5c1.38071,0 2.5,1.11929 2.5,2.5c0,1.38071 -1.11929,2.5 -2.5,2.5z" data-paper-data="{&quot;index&quot;:null}" fill="#252525" stroke-width="0.5"/><path d="M163.8836,87.95612c0,-3.45178 2.79822,-6.25 6.25,-6.25c3.45178,0 6.25,2.79822 6.25,6.25c0,3.45178 -2.79822,6.25 -6.25,6.25c-3.45178,0 -6.25,-2.79822 -6.25,-6.25z" fill="#ffffff" stroke-width="0.5"/><g><g><path d="M154.82671,114.44231c0,4.45017 0.17862,8.18268 -1.20662,12.45479c-3.34059,8.00948 -12.06492,13.28764 -20.05503,15.75853c-5.22498,1.6158 -10.80306,2.82909 -16.14963,3.76868c-2.55389,0.44881 -5.186,0.03228 -7.77903,0.03228c-9.11225,0 -17.64128,-0.99988 -26.68388,-2.13028c-5.30138,-0.79935 -11.80455,-3.14377 -16.32858,-6.18823c-0.45923,-0.30904 -4.62312,-4.60247 -5.00515,-4.94184c-2.2682,-2.0149 -3.34061,-1.76953 -4.8611,-5.08569c-1.52834,-3.33327 -0.49928,-6.86074 -0.20505,-10.22531c0.11667,-1.33414 -0.25093,-2.71343 0.05471,-4.01732c1.39509,-5.95162 5.80337,-11.11926 8.51009,-16.55917c-0.08056,-0.02677 -0.16109,-0.05361 -0.24159,-0.08053c-11.57541,-4.49962 -22.15987,-9.60635 -29.08434,-20.54087c-2.22185,-3.50855 -3.29228,-8.73846 -4.44929,-12.66898c-3.84223,-13.05262 -4.03101,-27.87546 0.48135,-40.92396c0.45103,-12.74318 3.4256,-26.05359 -2.49893,-37.8745l-1.11609,-3.32838c0,0 -0.30884,-0.92654 0.03865,-1.81441c-0.6474,-0.38102 -1.64685,-1.26661 -1.09273,-2.92897c0.79057,-2.37171 3.16228,-1.58114 3.16228,-1.58114c5.44197,1.83906 9.57442,5.22597 15.18042,6.81943l0.35299,-0.03796c0.15746,-0.13466 0.27041,-0.20526 0.27041,-0.20526c7.84739,-4.90197 15.37312,-10.24967 23.07197,-15.38262c2.84302,-1.89548 5.65231,-4.39238 8.75328,-5.813c2.38544,-1.09282 5.08772,-1.43308 7.41154,-2.65146c4.74543,-2.48803 9.22765,-4.95452 14.54596,-6.03505l2.40225,-0.01014c0.41207,-0.0594 0.80262,0.00157 1.10458,0.08494c0.31324,0.07591 0.69694,0.21807 1.03544,0.48432c7.60801,4.45871 12.70158,11.86016 20.2434,16.68956l1.38408,0.68035c6.68274,-1.95195 12.89841,-5.80012 18.34247,-10.13696c6.55482,-5.2217 13.43042,-11.81422 22.14128,-12.02056h2.10817c0,0 0.4723,0 1.00633,0.20529c0.29885,-0.12775 0.66158,-0.20529 1.10183,-0.20529c2.5,0 2.5,2.5 2.5,2.5c0,0.73884 0.00667,9.05749 -0.02417,9.30645c-0.61262,4.94598 -2.43928,9.67935 -3.67224,14.5257c7.78848,-0.09105 15.64358,-0.40108 23.29537,1.12253l2.34043,1.08596c0.74072,0.1784 1.17277,0.62831 1.42476,1.09246c0.30464,0.4361 0.51469,1.02913 0.33616,1.77909c-0.22854,4.37871 -2.40323,8.28578 -3.80716,12.47866c-1.75288,5.23498 -3.42735,10.73034 -4.9541,16.01319c-2.4821,8.58854 -1.11256,19.12228 -5.71269,26.97933c-2.19783,5.45123 -2.51637,11.2098 -2.90815,16.9857c-0.23741,3.5001 -1.05526,6.65777 -1.07196,10.18331l-1.1261,4.02934c0,0 -0.48608,1.70127 -2.07161,1.83243c-2.98823,9.23614 -7.81377,17.73046 -15.2881,24.46147c-2.67067,3.01129 -5.86592,5.3432 -9.37243,7.13446c3.74787,4.12512 4.16557,8.80964 4.16557,14.89965zM62.90219,112.3042c-0.43031,0.92688 -1.20314,1.71577 -1.4286,2.71249c-0.24723,1.09295 0.1427,2.24414 0.05471,3.36125c-0.18823,2.38972 -1.27882,5.29506 -0.20505,7.69408c0.7507,1.67722 2.30266,2.21835 3.57155,3.34697c1.58976,1.41401 2.70452,3.37495 4.48159,4.5449c3.90666,2.57199 9.66021,4.7979 14.23979,5.40667c8.8333,1.10408 17.12287,2.08604 26.02021,2.08604c2.32606,0 4.69259,0.46466 6.97812,0.03228c5.13369,-0.9712 10.43647,-2.06885 15.47282,-3.60989c6.18082,-1.89123 14.42259,-6.25409 16.83783,-12.70168c1.23665,-3.57929 0.90154,-6.95804 0.90154,-10.73501c0,-5.38304 0.09222,-9.29304 -4.13919,-12.77233c-5.23879,1.85546 -10.89597,2.77736 -16.38815,3.14511c-19.81065,1.32648 -40.24901,-0.39201 -59.35864,-5.99844c-2.16804,4.64489 -4.86251,8.80037 -7.03855,13.48756zM181.49428,14.88584c1.62617,-8.17405 4.29355,-16.60435 6.94083,-24.57981c1.04681,-3.15372 3.07504,-6.588 3.48564,-9.89932l-0.02922,-0.01655c-8.29686,-1.6673 -16.90916,-1.00553 -25.33472,-1.00553c-0.86824,0 -1.43494,-0.30154 -1.80483,-0.69517c-0.39363,-0.36989 -0.69517,-0.93659 -0.69517,-1.80483c0,-0.11746 0.00552,-0.22941 0.01604,-0.3361l0.03251,-0.68124c1.12643,-5.63215 3.47494,-11.04437 4.19194,-16.72177c0.25547,-2.02294 0.13588,-4.06869 0.04511,-6.11295h-1.7856c-1.64607,-0.05985 -3.25657,0.66365 -4.75281,1.35241c-5.42442,2.49702 -9.55124,5.83706 -14.27817,9.58299c-6.05545,4.79873 -12.91147,8.97239 -20.33733,11.10414c0,0 -0.51358,0.14674 -1.13379,0.06717c-0.89902,0.17814 -1.72512,-0.23491 -1.72512,-0.23491l-2.33965,-1.18569c-3.52382,-2.26277 -4.28964,-2.60412 -7.68875,-5.50527c-4.38341,-3.74125 -7.21279,-8.06054 -12.18031,-10.96788l-1.72487,-0.00879c-4.662,0.90954 -8.71403,3.41152 -12.86017,5.55985c-2.30807,1.19593 -4.9755,1.55123 -7.34561,2.61894c-2.91527,1.3133 -5.54963,3.7224 -8.22419,5.50531c-7.74009,5.15968 -15.30868,10.53052 -23.19547,15.46235c0,0 -0.25903,0.1619 -0.6526,0.28196c-0.73426,0.62508 -1.72648,0.62508 -1.72648,0.62508l-2.26792,-0.09619c-3.21915,-0.92412 -4.91408,-1.23356 -7.94306,-2.8747c-0.87592,-0.47458 -1.63799,-0.9518 -2.3694,-1.41437l0.13295,0.4015c4.3274,8.67498 4.23936,17.90432 3.63701,27.2155c0.11205,-0.21952 0.22452,-0.43885 0.33748,-0.65795c-0.1207,3.73302 -0.02032,7.47084 0.04494,11.20835c-0.42279,0.96301 -0.81431,1.94037 -1.17526,2.93011c-0.013,0.63304 -0.01963,1.2654 -0.01866,1.89694c0,0 0,1.615 -1.29805,2.24891c-3.05489,11.20206 -2.53333,23.56813 0.67129,34.47196c1.03698,3.52836 1.97215,8.4434 3.98337,11.5749c6.33544,9.86435 15.98179,14.25829 26.44862,18.33051c19.90876,6.64938 41.49364,8.65185 62.39967,7.29994c4.77505,-0.30878 9.78684,-1.06436 14.44318,-2.62786c0.78323,-1.22135 1.95521,-1.16002 2.63479,-0.9909c3.97742,-1.66812 7.58818,-4.02202 10.42289,-7.31135c14.41085,-12.90405 18.09825,-32.90245 18.12221,-51.45548c0.90508,-1.10045 1.75468,-3.09017 2.47224,-5.28769c0.98041,-1.06241 1.73342,-2.33786 2.18172,-3.74904c0.04104,0.48157 0.07798,0.96412 0.11105,1.44756c1.64669,-4.70287 1.16413,-10.10125 2.13174,-14.96505z" fill="#000000" stroke-width="0.5"/><path d="M62.85303,112.29501c2.17604,-4.68719 4.87688,-8.85936 7.04492,-13.50425c19.10963,5.60643 39.6328,7.32371 59.44345,5.99723c5.49218,-0.36775 11.15275,-1.28348 16.39154,-3.13894c4.23141,3.47929 4.14336,7.40374 4.14336,12.78678c0,3.77697 0.33521,7.16782 -0.90144,10.74711c-2.41524,6.44759 -10.66496,10.83236 -16.84578,12.72359c-5.03635,1.54104 -10.35746,2.65534 -15.49115,3.62654c-2.28553,0.43238 -4.66559,-0.02745 -6.99165,-0.02745c-8.89734,0 -17.23433,-0.99795 -26.06763,-2.10203c-4.57958,-0.60877 -10.3423,-2.84989 -14.24896,-5.42188c-1.77707,-1.16995 -2.89387,-3.13765 -4.48363,-4.55166c-1.26889,-1.12862 -2.82166,-1.67425 -3.57236,-3.35147c-1.07377,-2.39902 0.01643,-5.31305 0.20466,-7.70277c0.08799,-1.11711 -0.30163,-2.27209 -0.0544,-3.36504c0.22546,-0.99672 0.99879,-1.78889 1.4291,-2.71577z" data-paper-data="{&quot;noHover&quot;:false,&quot;origItem&quot;:[&quot;Path&quot;,{&quot;applyMatrix&quot;:true,&quot;segments&quot;:[[[198.90219,248.3042],[0,0],[-0.43031,0.92688]],[[197.47359,251.01669],[0.22546,-0.99672],[-0.24723,1.09295]],[[197.5283,254.37794],[0.08799,-1.11711],[-0.18823,2.38972]],[[197.32325,262.07202],[-1.07377,-2.39902],[0.7507,1.67722]],[[200.8948,265.41899],[-1.26889,-1.12862],[1.58976,1.41401]],[[205.37639,269.96389],[-1.77707,-1.16995],[3.90666,2.57199]],[[219.61618,275.37056],[-4.57958,-0.60877],[8.8333,1.10408]],[[245.63639,277.4566],[-8.89734,0],[2.32606,0]],[[252.61451,277.48888],[-2.28553,0.43238],[5.13369,-0.9712]],[[268.08733,273.87899],[-5.03635,1.54104],[6.18082,-1.89123]],[[284.92516,261.17731],[-2.41524,6.44759],[1.23665,-3.57929]],[[285.8267,250.4423],[0,3.77697],[0,-5.38304]],[[281.68751,237.66997],[4.23141,3.47929],[-5.23879,1.85546]],[[265.29936,240.81508],[5.49218,-0.36775],[-19.81065,1.32648]],[[205.94072,234.81664],[19.10963,5.60643],[-2.16804,4.64489]],[[198.90217,248.3042],[2.17604,-4.68719],[0,0]]],&quot;closed&quot;:true,&quot;fillColor&quot;:[0,0,0],&quot;strokeWidth&quot;:0.5}]}" fill="#667eff" stroke-width="0.25"/><path d="M181.54358,14.87742c-0.96761,4.8638 -0.4844,10.273 -2.13109,14.97587c-0.03307,-0.48344 -0.06997,-0.96707 -0.11101,-1.44864c-0.4483,1.41118 -1.20148,2.68957 -2.18189,3.75198c-0.71756,2.19752 -1.56772,4.19157 -2.4728,5.29202c-0.02396,18.55303 -3.73185,38.58373 -18.1427,51.48778c-2.83471,3.28933 -6.45261,5.64742 -10.43003,7.31554c-0.67958,-0.16912 -1.85322,-0.22969 -2.63645,0.99166c-4.65634,1.5635 -9.67723,2.32204 -14.45228,2.63082c-20.90603,1.35191 -42.53044,-0.6584 -62.4392,-7.30778c-10.46683,-4.07222 -20.12633,-8.47971 -26.46177,-18.34406c-2.01122,-3.1315 -2.94982,-8.05268 -3.9868,-11.58104c-3.20462,-10.90383 -3.73092,-23.29019 -0.67603,-34.49225c1.29805,-0.63391 1.29804,-2.25037 1.29804,-2.25037c-0.00097,-0.63154 0.00569,-1.26515 0.01869,-1.89819c0.36095,-0.98974 0.75258,-1.96908 1.17537,-2.93209c-0.06526,-3.73751 -0.16457,-7.48256 -0.04387,-11.21558c-0.11296,0.2191 -0.22553,0.43889 -0.33758,0.65841c0.60235,-9.31118 0.69547,-18.55414 -3.63193,-27.22912l-0.13287,-0.40164c0.73141,0.46257 1.49346,0.93983 2.36938,1.41441c3.02898,1.64114 4.72432,1.94985 7.94347,2.87397l2.26826,0.0956c0,0 0.9927,-0.0008 1.72696,-0.62588c0.39357,-0.12006 0.6528,-0.28229 0.6528,-0.28229c7.88679,-4.93183 15.46819,-10.31639 23.20828,-15.47607c2.67456,-1.78291 5.31498,-4.19581 8.23025,-5.50911c2.37011,-1.06771 5.04266,-1.42537 7.35073,-2.6213c4.14614,-2.14833 8.20778,-4.65302 12.86978,-5.56256l1.72606,0.00859c4.96752,2.90734 7.80581,7.22608 12.18922,10.96733c3.39911,2.90115 4.17221,3.24324 7.69603,5.50601l2.34197,1.18616c0,0 0.82768,0.41343 1.7267,0.23529c0.62021,0.07957 1.13476,-0.06691 1.13476,-0.06691c7.42586,-2.13175 14.29264,-6.30098 20.34809,-11.09971c4.72693,-3.74593 8.85756,-7.08362 14.28198,-9.58064c1.49624,-0.68876 3.10816,-1.41126 4.75423,-1.35141l1.78623,0.00047c0.09077,2.04426 0.212,4.0913 -0.04347,6.11424c-0.717,5.6774 -3.06173,11.09308 -4.18816,16.72523l-0.03228,0.68147c-0.01052,0.10669 -0.01593,0.21876 -0.01593,0.33622c0,0.86824 0.3024,1.43585 0.69603,1.80574c0.36989,0.39363 0.9374,0.69607 1.80564,0.69607c8.42556,0 17.04345,-0.65401 25.34031,1.01329l0.02923,0.01656c-0.4106,3.31132 -2.43693,6.74918 -3.48374,9.9029c-2.64728,7.97546 -5.31046,16.41897 -6.93663,24.59302z" data-paper-data="{&quot;noHover&quot;:false,&quot;origItem&quot;:[&quot;Path&quot;,{&quot;applyMatrix&quot;:true,&quot;segments&quot;:[[[317.49428,150.88584],[0,0],[1.62617,-8.17405]],[[324.43511,126.30603],[-2.64728,7.97546],[1.04681,-3.15372]],[[327.92075,116.40671],[-0.4106,3.31132],[0,0]],[[327.89153,116.39016],[0,0],[-8.29686,-1.6673]],[[302.55681,115.38463],[8.42556,0],[-0.86824,0]],[[300.75198,114.68946],[0.36989,0.39363],[-0.39363,-0.36989]],[[300.05681,112.88463],[0,0.86824],[0,-0.11746]],[[300.07285,112.54853],[-0.01052,0.10669],[0,0]],[[300.10536,111.86729],[0,0],[1.12643,-5.63215]],[[304.2973,95.14552],[-0.717,5.6774],[0.25547,-2.02294]],[[304.34241,89.03257],[0.09077,2.04426],[0,0]],[[302.55681,89.03257],[0,0],[-1.64607,-0.05985]],[[297.804,90.38498],[1.49624,-0.68876],[-5.42442,2.49702]],[[283.52583,99.96797],[4.72693,-3.74593],[-6.05545,4.79873]],[[263.1885,111.07211],[7.42586,-2.13175],[0,0]],[[262.05471,111.13928],[0.62021,0.07957],[-0.89902,0.17814]],[260.32959,110.90437],[[257.98994,109.71868],[0,0],[-3.52382,-2.26277]],[[250.30119,104.21341],[3.39911,2.90115],[-4.38341,-3.74125]],[[238.12088,93.24553],[4.96752,2.90734],[0,0]],[[236.39601,93.23674],[0,0],[-4.662,0.90954]],[[223.53584,98.79659],[4.14614,-2.14833],[-2.30807,1.19593]],[[216.19023,101.41553],[2.37011,-1.06771],[-2.91527,1.3133]],[[207.96604,106.92084],[2.67456,-1.78291],[-7.74009,5.15968]],[[184.77057,122.38319],[7.88679,-4.93183],[0,0]],[[184.11797,122.66515],[0.39357,-0.12006],[-0.73426,0.62508]],[182.39149,123.29023],[[180.12357,123.19404],[0,0],[-3.21915,-0.92412]],[[172.18051,120.31934],[3.02898,1.64114],[-0.87592,-0.47458]],[[169.81111,118.90497],[0.73141,0.46257],[0,0]],[[169.94406,119.30647],[0,0],[4.3274,8.67498]],[[173.58107,146.52197],[0.60235,-9.31118],[0.11205,-0.21952]],[[173.91855,145.86402],[-0.11296,0.2191],[-0.1207,3.73302]],[[173.96349,157.07237],[-0.06526,-3.73751],[-0.42279,0.96301]],[[172.78823,160.00248],[0.36095,-0.98974],[-0.013,0.63304]],[[172.76957,161.89942],[-0.00097,-0.63154],[0,0]],[[171.47152,164.14833],[1.29805,-0.63391],[-3.05489,11.20206]],[[172.14281,198.62029],[-3.20462,-10.90383],[1.03698,3.52836]],[[176.12618,210.19519],[-2.01122,-3.1315],[6.33544,9.86435]],[[202.5748,228.5257],[-10.46683,-4.07222],[19.90876,6.64938]],[[264.97447,235.82564],[-20.90603,1.35191],[4.77505,-0.30878]],[[279.41765,233.19778],[-4.65634,1.5635],[0.78323,-1.22135]],[[282.05244,232.20688],[-0.67958,-0.16912],[3.97742,-1.66812]],[[292.47533,224.89553],[-2.83471,3.28933],[14.41085,-12.90405]],[[310.59754,173.44005],[-0.02396,18.55303],[0.90508,-1.10045]],[[313.06978,168.15236],[-0.71756,2.19752],[0.98041,-1.06241]],[[315.2515,164.40332],[-0.4483,1.41118],[0.04104,0.48157]],[[315.36255,165.85088],[-0.03307,-0.48344],[1.64669,-4.70287]],[[317.49429,150.88583],[-0.96761,4.8638],[0,0]]],&quot;closed&quot;:true,&quot;fillColor&quot;:[0,0,0],&quot;strokeWidth&quot;:0.5}]}" fill="#66ecff" stroke-width="0.25"/></g><path d="M70.31403,58.87605c0,-2.34721 1.90279,-4.25 4.25,-4.25c2.34721,0 4.25,1.90279 4.25,4.25c0,2.34721 -1.90279,4.25 -4.25,4.25c-2.34721,0 -4.25,-1.90279 -4.25,-4.25z" fill="#ffffff" stroke-width="0.5"/><path d="M142.31402,61.24447c0,-2.34721 1.90279,-4.25 4.25,-4.25c2.34721,0 4.25,1.90279 4.25,4.25c0,2.34721 -1.90279,4.25 -4.25,4.25c-2.34721,0 -4.25,-1.90279 -4.25,-4.25z" fill="#ffffff" stroke-width="0.5"/></g><g stroke-width="0.5"><path d="M378.36142,324.43573c2.0105,-3.74438 5.75488,-1.73389 5.75488,-1.73389l0.66961,0.43981c5.8991,-3.04153 11.47412,-6.78565 16.60477,-10.75634c5.68994,-4.40352 12.43057,-8.51586 17.53113,-13.59119c7.11112,-7.07594 12.16166,-15.91336 17.73475,-24.14407c3.11084,-4.5943 6.79358,-8.8231 9.50984,-13.66116c3.90263,-6.95118 6.6537,-15.13209 9.67777,-22.49662c9.04758,-22.00084 12.91544,-45.08362 16.94122,-68.3951c1.26158,-7.30523 2.8858,-14.65311 3.8043,-22.01055c0.50786,-4.06813 1.55105,-8.15705 1.19326,-12.24112c-0.67117,-7.66125 -3.38613,-13.96996 -6.01353,-21.0806c-2.84333,-7.69502 -5.45591,-15.03327 -9.09053,-22.39591c-2.48696,-5.05051 -4.76045,-10.73987 -8.12093,-15.25498c-3.00212,-4.0336 -6.42696,-7.73812 -9.79119,-11.47505c-3.20828,-3.5637 -6.11619,-7.47559 -9.85058,-10.48348c-5.81179,-4.68114 -13.20117,-8.51795 -19.51015,-12.48815c-11.66476,-7.34056 -23.85122,-14.72664 -36.59368,-20.07204c-14.8734,-6.23933 -30.83322,-10.28343 -46.47325,-14.00665c-20.37955,-3.51426 -40.74988,-7.70469 -61.29194,-10.1109c-8.11259,-0.95027 -15.76672,-0.76826 -23.89658,0.28481c-3.64564,0.47223 -7.3929,0.70308 -10.858,1.93061c-18.21062,6.45122 -35.31409,15.84885 -53.23813,23.01557c-3.53175,1.66242 -7.30284,2.8864 -10.60247,4.97192c-5.40449,3.41591 -10.35694,7.51401 -15.32211,11.51071c-3.53946,2.84908 -7.61649,5.11794 -10.67031,8.48235c-2.45045,2.69967 -3.99452,6.14136 -6.46501,8.82271c-5.3178,5.77166 -12.02515,11.11244 -16.02582,17.9975c-2.77313,4.77249 -4.90474,9.88996 -7.36738,14.82982c-2.97944,5.97653 -6.36196,11.77167 -8.09751,18.28418c-1.8741,7.03238 -2.58041,14.59216 -3.82835,21.76873c-1.37488,7.96133 -3.27298,15.95948 -3.3919,24.0768c-0.1231,8.40241 0.30766,16.46129 2.62199,24.51998c0.92599,3.22438 3.58351,5.32769 5.13102,8.18657c0.60202,1.11218 0.53097,2.65941 1.48262,3.49232c1.04179,0.91181 2.7299,0.62297 3.95535,1.26716c2.63901,1.38727 4.56918,3.90522 7.2026,5.30307c1.50128,0.7969 3.26116,1.02904 4.75689,1.8363c2.83753,1.53143 5.15244,3.93945 8.03138,5.39154c2.7519,1.38802 5.96143,1.56925 8.92974,2.39912c0.55652,0.15559 8.57886,3.30693 9.51378,3.67259c7.42692,1.22139 14.83846,2.54154 22.25536,3.82241c3.56135,0.61503 6.18377,1.47761 9.64825,0.87273l3.3323,0.35415c0,0 0.61968,0.10702 1.34114,0.47708c1.00363,-5.97725 3.09288,-11.89809 4.42646,-17.68922c2.05663,-8.93103 3.03352,-17.72637 5.97088,-26.48252c3.04833,-9.08695 8.12331,-16.9041 12.78881,-25.21994c1.48145,-2.61833 2.65297,-5.43811 4.44434,-7.85499c10.5271,-14.20299 27.97266,-21.85387 44.21372,-27.13714c6.60369,-2.1482 10.70659,-3.9854 17.84576,-4.1228c0.39144,-0.00754 13.30788,2.24251 13.49056,2.27406c1.12286,0.19395 12.19388,2.00834 14.06399,2.65824c8.62228,2.99639 15.87936,7.69348 22.84727,13.41763c0,0 3.27737,2.70579 0.57158,5.98317c-2.70579,3.27738 -5.98317,0.57159 -5.98317,0.57159c-6.10366,-5.067 -12.47572,-9.23438 -20.05799,-11.887c-4.12293,-1.44238 -8.58392,-1.62446 -12.88819,-2.36762c-4.04658,-0.69867 -8.02427,-2.21644 -12.13019,-2.15052c-5.51891,0.0886 -9.97094,2.01712 -15.12275,3.70389c-11.51431,3.76993 -21.53989,8.18493 -31.05854,15.68596c-3.59603,2.8338 -6.00981,4.3982 -8.9497,8.41355c-1.57041,2.14489 -2.58247,4.64733 -3.87371,6.971c-4.38302,7.81214 -9.30275,15.20687 -12.13905,23.75199c-2.81268,8.47395 -3.74725,16.9769 -5.73178,25.61602c-1.62838,7.08867 -4.57797,14.53737 -4.81151,21.88911c-0.08129,2.55911 -0.11338,5.13789 0.20447,7.67849c0.4779,3.81981 2.20489,7.44272 2.45919,11.2839c0.48895,7.38559 -0.47536,14.79643 2.0265,21.98918c1.7166,4.93518 3.79533,9.74566 5.35302,14.73328c3.31832,6.47645 7.2015,10.73587 12.37851,15.81282c3.63224,3.56204 6.51409,7.97207 10.65564,10.92653c1.8846,1.34442 4.30018,1.7681 6.27495,2.9762c1.20005,0.73414 2.27026,1.66674 3.35471,2.575c0.70301,-0.15902 1.54526,-0.12126 2.54107,0.26315c1.65096,0.63731 2.34908,1.69671 2.60163,2.71617c3.18291,1.07887 9.41948,3.19132 10.47167,3.59207c9.31931,3.5494 18.44312,7.59564 28.20485,9.8781c5.10755,1.19423 10.33899,1.77716 15.50778,2.66979c5.16308,0.89164 10.27456,2.15878 15.48767,2.68412c9.79521,0.98708 19.78066,0.41822 29.59309,0.17159c0.24744,-0.03784 14.64985,-2.24305 15.41865,-2.35002c4.31928,-0.60096 8.81308,-0.34373 12.98124,-1.62582c1.637,-0.50353 3.25723,-1.07604 4.85855,-1.70905c0.03756,-0.57342 0.21249,-1.20824 0.58538,-1.90271zM396.03465,339.37882c-0.17018,0.98541 -0.62876,1.96326 -0.51053,2.95624c0.04906,0.41202 0.70409,0.46697 0.95727,0.79571c0.77422,1.00528 1.66704,1.98207 2.10046,3.1746c0.87868,2.41762 0.31119,5.14022 0.27137,7.71225c-0.03264,2.10793 1.00468,4.14536 0.94977,6.25283c-0.1947,7.47296 -2.8129,15.60672 -5.97553,22.17559c-0.87687,1.82129 -2.41376,5.98253 -3.79854,7.50922c-1.01643,1.12059 -2.59844,1.60072 -3.67447,2.66421c-0.98938,0.97785 -1.51591,2.34644 -2.44383,3.3828c-0.29179,0.32589 -6.94387,6.55731 -7.45508,7.05455c-1.05644,1.02754 -1.85953,2.3662 -3.11582,3.13667c-1.68968,1.03626 -3.84007,1.1444 -5.53645,2.16966c-1.62705,0.98336 -2.85579,2.51029 -4.28368,3.76544c-1.86832,0.10247 -3.81422,-0.23521 -5.60494,0.30741c-1.96026,0.59399 -3.41664,2.35191 -5.35507,3.01366c-2.01578,0.68816 -4.27615,0.35702 -6.31586,0.97062c-1.70022,0.51147 -3.03538,1.99843 -4.7726,2.36506c-2.20412,0.46517 -4.51186,-0.10728 -6.75767,0.06837c-2.11813,0.16566 -4.18043,0.84227 -6.30214,0.95306c-10.53727,0.55025 -20.91516,-2.57478 -30.90473,-5.4673c-8.22469,-2.3815 -16.65295,-4.47776 -24.70083,-7.42072c-2.6357,-0.96382 -5.12235,-2.31405 -7.77561,-3.22843c-2.7084,-0.93338 -5.58897,-1.32059 -8.27942,-2.30451c-2.45797,-0.8989 -4.66018,-2.41153 -7.11293,-3.32459c-2.66315,-0.99139 -5.52875,-1.37127 -8.18856,-2.37155c-6.27461,-2.35971 -11.13536,-5.25137 -16.16364,-9.53274c-3.05125,-3.22729 -7.331,-6.57014 -9.30178,-10.64963c-4.80802,-9.95256 -2.04375,-19.50844 1.14619,-29.3681c1.94503,-6.01184 4.34717,-11.30027 8.42153,-16.36851c1.08093,-1.34459 2.58905,-2.29082 3.75126,-3.56581c1.789,-1.96259 2.5178,-4.68326 3.96255,-6.91148c0.56589,-0.87277 1.57353,-1.401 2.20921,-2.21498c-1.00047,-0.82604 -2.00368,-1.64969 -3.104,-2.32324c-2.16507,-1.32533 -4.78339,-1.86004 -6.84013,-3.34793c-0.4438,-0.32105 -11.3993,-11.51402 -11.66218,-11.77263c-6.00136,-5.90394 -10.44959,-11.13151 -14.28919,-18.65811c-1.66256,-5.26837 -3.87768,-10.3482 -5.64867,-15.58112c-2.60873,-7.70828 -1.84749,-15.50939 -2.3107,-23.41113c-0.22384,-3.8183 -2.00279,-7.41129 -2.45055,-11.20985c-0.27279,-2.31422 -0.32699,-4.65151 -0.29702,-6.98566c-1.13326,0.33834 -2.17369,0.15866 -2.17369,0.15866l-0.60935,-0.32655c-5.58856,0.7674 -10.77811,-0.6252 -16.31286,-1.58103c-6.37846,-1.10153 -12.76033,-2.1849 -19.13201,-3.325c-3.17583,-1.2123 -6.2363,-2.77056 -9.51378,-3.67259c-3.48827,-0.96005 -7.19447,-1.37272 -10.43818,-2.97523c-2.99584,-1.48005 -5.39701,-3.98108 -8.34465,-5.55494c-1.49933,-0.80055 -3.26285,-1.02592 -4.75689,-1.8363c-2.62073,-1.4215 -4.58732,-3.87158 -7.2026,-5.30307c-1.77093,-0.96933 -4.06243,-1.04979 -5.55844,-2.40543c-1.53671,-1.39253 -1.99253,-3.63919 -3.06845,-5.41204c-2.06597,-3.40419 -4.71577,-6.03673 -5.94195,-9.96252c-2.76205,-8.84312 -3.19274,-18.04177 -3.03453,-27.2747c0.14703,-8.5805 2.06212,-16.97604 3.51564,-25.3927c1.29058,-7.42184 2.03291,-15.25408 3.99384,-22.51991c1.91281,-7.08754 5.45527,-13.36515 8.70007,-19.87397c0.31281,-0.62747 7.58045,-15.22209 7.80192,-15.59866c4.27538,-7.26908 11.07851,-12.8709 16.74234,-18.96529c2.59207,-2.78912 4.22179,-6.37512 6.79266,-9.1838c3.3112,-3.61752 7.64867,-6.14003 11.4696,-9.21428c5.30736,-4.27021 10.58419,-8.6086 16.37582,-12.23523c3.58873,-2.24721 7.65643,-3.61871 11.48828,-5.42034c18.23103,-7.30107 35.64176,-16.95554 54.22369,-23.37362c6.32077,-2.18315 13.81057,-2.34525 20.4036,-2.84795c12.81512,-0.97712 25.13959,1.13581 37.74371,3.31248c14.00359,2.41835 28.00741,4.83539 42.01041,7.2571c16.17993,3.84235 32.6704,8.04162 48.05517,14.4956c13.17357,5.52637 25.77015,13.12769 37.8313,20.71553c6.62869,4.17019 14.33949,8.22918 20.42805,13.15518c4.04641,3.27378 7.25394,7.46971 10.73617,11.3382c3.60304,4.0027 7.25902,7.98296 10.45521,12.31746c3.59093,4.86981 6.07967,10.90857 8.75149,16.32849c3.74697,7.61908 6.48607,15.21368 9.42455,23.16804c2.95564,8.00083 5.85623,15.08099 6.54734,23.7103c0.13611,1.69948 -0.28622,3.39785 -0.4422,5.09562c-0.9586,10.43396 -2.88926,20.63476 -4.67193,30.95742c-4.13358,23.93567 -8.18681,47.58144 -17.45447,70.17766c-3.15658,7.68531 -6.05749,16.17719 -10.12877,23.42877c-0.17305,0.30822 -9.53034,13.74443 -9.88327,14.26565c-5.91619,8.73742 -11.31347,18.00233 -18.87522,25.49925c-5.33182,5.28611 -12.28951,9.61219 -18.23201,14.19647c-5.14373,3.96808 -10.69053,7.7156 -16.54288,10.85805c1.65783,3.24958 3.99206,6.09075 5.98985,9.40928zM242.87652,321.3041c-0.61868,1.06887 -1.86311,1.66537 -2.53639,2.70071c-1.65763,2.54903 -2.66483,5.55078 -4.67275,7.83408c-3.13608,3.56618 -6.11041,6.79967 -8.61554,10.93348c-1.05267,1.73704 -1.16011,3.89343 -1.78533,5.82592c-0.77398,2.39228 -1.80975,4.72735 -2.22708,7.20685c-1.00159,5.95069 -2.29374,10.00624 0.43658,15.68762c1.52464,3.17254 5.31643,6.00532 7.68367,8.52051c6.39642,5.60533 13.59353,7.16003 21.469,10.09157c2.43822,0.9076 4.62583,2.41453 7.06916,3.30828c2.63143,0.96255 5.45253,1.32818 8.10161,2.24102c2.70422,0.93184 5.24245,2.29853 7.9281,3.28261c7.86,2.88008 16.10889,4.91179 24.14312,7.23814c8.96675,2.59636 18.55008,5.71512 28.02402,5.14764c2.08803,-0.12507 4.11679,-0.80148 6.20353,-0.94648c1.79881,-0.12499 3.64461,0.51785 5.40764,0.13965c1.52348,-0.32681 2.64008,-1.73583 4.13176,-2.186c1.9974,-0.60279 4.21447,-0.25736 6.18981,-0.92893c2.10245,-0.71478 3.7332,-2.53081 5.86048,-3.16788c1.46559,-0.43891 3.0597,0.02556 4.58955,0.03834c0.99674,-1.03227 1.76894,-2.34345 2.99021,-3.09681c1.6215,-1.00025 3.68755,-1.0906 5.33874,-2.04105c2.28319,-1.31423 3.64936,-3.80359 5.56849,-5.60834c2.2713,-2.13593 4.01281,-4.78483 6.23034,-6.97653c0.93585,-0.92494 2.3222,-1.30329 3.25907,-2.22721c1.45927,-1.4391 1.63421,-3.76035 2.52558,-5.60587c2.64439,-5.47501 4.90382,-12.29901 5.11353,-18.53108c0.0709,-2.10699 -0.94593,-4.14465 -0.94977,-6.25283c-0.00191,-1.04889 0.92216,-3.16848 0.34266,-4.45306c-0.86496,-1.91736 -2.92657,-3.24084 -3.46417,-5.27441c-0.25558,-0.96679 0.34035,-1.97083 0.51053,-2.95624c-2.06227,-1.71423 -4.40486,-4.64372 -5.57506,-7.52147c-2.31455,0.96233 -4.66691,1.81332 -7.05174,2.53197c-4.50663,1.35803 -9.33903,1.18432 -14.00093,1.8329c-5.29106,0.73611 -10.56332,1.60156 -15.84552,2.39883c-10.35915,0.28547 -20.89203,0.86034 -31.2335,-0.18485c-5.39965,-0.54573 -10.69758,-1.83795 -16.04557,-2.76153c-0.92148,-0.15914 -15.85087,-2.73499 -16.02545,-2.77585c-10.10986,-2.36623 -19.56645,-6.50855 -29.2182,-10.18662c-1.8406,-0.70141 -6.49867,-2.21178 -9.82439,-3.357c-0.01514,0.0267 -0.03041,0.05334 -0.04579,0.07993z" fill="#000000"/><path d="M242.88109,321.19586c3.32572,1.14522 7.985,2.65388 9.82561,3.3553c9.65175,3.67806 19.11688,7.81154 29.22674,10.17777c0.17458,0.04086 15.121,2.6077 16.04248,2.76684c5.34799,0.92357 10.67573,2.21609 16.07538,2.76182c10.34147,1.04519 20.9015,0.49161 31.26065,0.20614c5.28219,-0.79727 10.55694,-1.65819 15.848,-2.3943c4.6619,-0.64858 9.49551,-0.47215 14.00214,-1.83018c2.38483,-0.71865 4.73727,-1.56944 7.05182,-2.53177c1.1702,2.87775 3.51454,5.8123 5.57681,7.52653c-0.17018,0.98541 -0.76569,1.99101 -0.51011,2.9578c0.5376,2.03357 2.59995,3.36045 3.46491,5.2778c0.5795,1.28457 -0.34419,3.40668 -0.34228,4.45557c0.00384,2.10818 1.021,4.14954 0.9501,6.25653c-0.2097,6.23207 -2.46982,13.06735 -5.11421,18.54235c-0.89137,1.84551 -1.06709,4.17041 -2.52636,5.60951c-0.93686,0.92391 -2.32372,1.30411 -3.25957,2.22906c-2.21754,2.1917 -3.96097,4.84599 -6.23227,6.98192c-1.91913,1.80474 -3.28756,4.29873 -5.57075,5.61296c-1.65119,0.95045 -3.71889,1.04357 -5.34039,2.04382c-1.22127,0.75337 -1.99525,2.06714 -2.99199,3.09941c-1.52985,-0.01278 -3.12524,-0.47557 -4.59083,-0.03667c-2.12728,0.63707 -3.76137,2.45686 -5.86381,3.17164c-1.97534,0.67157 -4.19558,0.3291 -6.19298,0.93189c-1.49169,0.45017 -2.61144,1.86168 -4.13492,2.1885c-1.76304,0.3782 -3.61217,-0.26242 -5.41098,-0.13742c-2.08674,0.145 -4.12046,0.82407 -6.2085,0.94914c-9.47394,0.56748 -19.08587,-2.54717 -28.05262,-5.14353c-8.03423,-2.32634 -16.30883,-4.37011 -24.16883,-7.25019c-2.68565,-0.98408 -5.22957,-2.35674 -7.93379,-3.28857c-2.64908,-0.91284 -5.4738,-1.28358 -8.10523,-2.24613c-2.44333,-0.89374 -4.63358,-2.40553 -7.0718,-3.31312c-7.87547,-2.93154 -15.07641,-4.49768 -21.47283,-10.10301c-2.36724,-2.51519 -6.15987,-5.35388 -7.68451,-8.52642c-2.73032,-5.68138 -1.43806,-9.74634 -0.43647,-15.69703c0.41733,-2.47949 1.45377,-4.81901 2.22775,-7.21129c0.62522,-1.93248 0.73352,-4.09247 1.78618,-5.82951c2.50514,-4.13381 5.48233,-7.37508 8.6184,-10.94125c2.00793,-2.28331 3.01791,-5.29023 4.67554,-7.83926c0.67328,-1.03534 1.91901,-1.63382 2.53769,-2.70269c0.01539,-0.02658 0.03068,-0.05328 0.04583,-0.07998z" data-paper-data="{&quot;noHover&quot;:false,&quot;origItem&quot;:[&quot;Path&quot;,{&quot;applyMatrix&quot;:true,&quot;segments&quot;:[[[413.24183,650.26746],[0.02128,-0.05763],[-0.85551,2.31712]],[[409.16223,656.45336],[0.97454,-2.26963],[-2.39934,5.58787]],[[402.61939,673.48337],[3.18015,-5.18341],[-4.96691,8.09569]],[[389.36088,697.96369],[3.53024,-8.99965],[-1.48342,3.78168]],[[387.82517,710.05321],[0.57448,-4.02139],[-0.71117,4.9782]],[[385.88885,725.01465],[-0.02141,-5.02869],[0.05137,12.06867]],[[392.0886,755.78365],[-7.31467,-10.26775],[4.08458,5.73361]],[[410.13176,769.96094],[-5.52147,-4.1513],[14.51403,8.87009]],[[455.87815,782.54265],[-16.51895,-3.09713],[5.11421,0.95886]],[[470.93623,786.65668],[-5.11957,-0.92982],[5.5137,1.0014]],[[487.66584,788.31594],[-5.53157,-0.89742],[5.64671,0.9161]],[[504.408,792.08704],[-5.62789,-1.02538],[16.47095,3.00096]],[[554.45344,798.13498],[-16.62585,-1.85035],[18.5556,2.06512]],[[611.43596,798.74204],[-18.47836,4.34289],[4.07258,-0.95716]],[[623.33991,794.7653],[-4.06326,0.996],[3.5026,-0.85857]],[[634.04497,793.20002],[-3.34592,1.34542],[2.89128,-1.16261]],[[641.44395,787.48553],[-2.78664,1.39491],[3.73137,-1.86782]],[[653.32683,783.54806],[-3.66448,1.99585],[3.90028,-2.12428]],[[663.79863,775.31009],[-3.97568,1.97958],[2.73905,-1.36383]],[[672.85689,773.82359],[-3.01942,0.4955],[1.61306,-2.37367]],[[677.69607,766.70258],[-2.15051,1.90042],[2.85526,-2.52321]],[[687.52313,760.86296],[-2.93072,2.43516],[4.05247,-3.36722]],[[696.58885,747.91465],[-3.16803,4.21002],[3.74938,-4.98259]],[[706.4933,732.04461],[-3.62443,5.0742],[1.52959,-2.14142]],[[712.15832,726.54594],[-1.53194,2.13974],[2.38617,-3.33288]],[[715.22783,714.63816],[-1.12862,3.94057],[3.34821,-11.69032]],[[718.99861,676.3762],[1.70781,12.35371],[-0.57739,-4.17665]],[[714.99861,664.3762],[0.7251,4.15355],[-0.36076,-2.06653]],[[714.15832,655.48337],[1.5793,2.33444],[-2.35727,-3.48439]],[[705.53588,646.26746],[1.75165,3.82484],[-0.83276,-1.81838]],[[705.53588,640.26746],[0,2],[-4.64783,-2.67655]],[[691.98844,627.34142],[3.28572,5.27327],[-4.23405,2.68436]],[[678.95244,634.73157],[4.4555,-2.22802],[-8.41958,4.21029]],[[651.98286,643.10916],[8.96705,-2.86493],[-10.17723,3.25158]],[[621.57053,653.2299],[10.13894,-3.36909],[-20.31894,4.08837]],[[559.95179,663.49599],[20.73698,-1.45986],[-10.82752,0.76224]],[[527.38885,663.51465],[10.85431,0],[-1.87025,0]],[[494.86069,663.49823],[0.35798,0.02111],[-20.73013,-1.22251]],[[433.80962,653.36666],[20.27378,3.96383],[-3.86624,-0.75591]],[[413.30488,650.09435],[6.94419,1.12512],[-0.02076,0.05778]]],&quot;closed&quot;:true}]}" fill="#29ff00"/><path d="M377.97074,325.39661c-1.60132,0.63301 -3.22276,1.20618 -4.85976,1.7097c-4.16816,1.28209 -8.66499,1.02633 -12.98427,1.62729c-0.7688,0.10697 -15.17515,2.31373 -15.42259,2.35157c-9.81243,0.24663 -19.80583,0.81753 -29.60104,-0.16955c-5.21311,-0.52534 -10.32902,-1.79193 -15.4921,-2.68357c-5.1688,-0.89263 -10.40493,-1.4754 -15.51247,-2.66964c-9.76173,-2.28246 -18.89462,-6.32967 -28.21393,-9.87907c-1.05219,-0.40074 -7.29222,-2.51402 -10.47513,-3.59289c-0.25255,-1.01946 -0.95168,-2.07915 -2.60264,-2.71647c-0.99581,-0.38441 -1.83885,-0.4224 -2.54186,-0.26339c-1.08445,-0.90826 -2.1559,-1.84127 -3.35595,-2.57541c-1.97477,-1.20809 -4.39249,-1.63257 -6.27709,-2.97699c-4.14155,-2.95446 -7.02775,-7.36647 -10.65999,-10.92851c-5.17701,-5.07695 -9.06584,-9.33975 -12.38416,-15.8162c-1.55768,-4.98762 -3.64031,-9.8011 -5.35692,-14.73627c-2.50186,-7.19276 -1.54244,-14.60836 -2.03139,-21.99395c-0.2543,-3.84118 -1.98417,-7.46761 -2.46207,-11.28742c-0.31786,-2.5406 -0.28746,-5.1218 -0.20617,-7.68092c0.23354,-7.35174 3.17906,-14.80799 4.80744,-21.89666c1.98453,-8.63911 2.91546,-17.1551 5.72814,-25.62906c2.8363,-8.54512 7.75649,-15.95626 12.13951,-23.7684c1.29124,-2.32367 2.30475,-4.83173 3.87515,-6.97661c2.93989,-4.01535 5.35712,-5.58797 8.95315,-8.42177c9.51865,-7.50102 19.56574,-11.93717 31.08005,-15.7071c5.1518,-1.68676 9.61897,-3.62015 15.13788,-3.70875c4.10592,-0.06592 8.09645,1.45156 12.14302,2.15023c4.30426,0.74316 8.77895,0.92871 12.90188,2.37109c7.58226,2.65262 13.97383,6.83435 20.07749,11.90135c0,0 3.19846,2.76712 5.90425,-0.51026c2.70579,-3.27738 -0.56877,-5.97965 -0.56877,-5.97965c-6.96791,-5.72416 -14.20584,-10.40772 -22.82813,-13.40412c-1.87012,-0.6499 -12.92848,-2.4611 -14.05134,-2.65505c-0.18268,-0.03155 -13.08697,-2.28166 -13.47841,-2.27413c-7.13917,0.1374 -11.22676,1.97007 -17.83045,4.11828c-16.24106,5.28326 -33.66123,12.90604 -44.18833,27.10903c-1.79137,2.41688 -2.96122,5.23102 -4.44267,7.84935c-4.6655,8.31584 -9.7394,16.11702 -12.78774,25.20396c-2.93736,8.75615 -3.9172,17.53864 -5.97383,26.46967c-1.33358,5.79114 -3.42566,11.70574 -4.42929,17.683c-0.72146,-0.37007 -1.42936,-0.43001 -1.42936,-0.43001l-3.33268,-0.35488c-3.46448,0.60488 -6.08781,-0.2596 -9.64916,-0.87463c-7.4169,-1.28086 -14.83011,-2.60518 -22.25703,-3.82658c-0.93492,-0.36566 -8.95795,-3.5191 -9.51447,-3.67469c-2.96831,-0.82987 -6.17826,-1.01259 -8.93016,-2.40061c-2.87894,-1.4521 -5.19438,-3.86227 -8.03191,-5.39371c-1.49574,-0.80726 -3.25579,-1.04022 -4.75707,-1.83711c-2.63342,-1.39785 -4.56394,-3.91767 -7.20295,-5.30494c-1.22545,-0.64419 -2.91364,-0.35587 -3.95543,-1.26768c-0.95165,-0.83291 -0.88074,-2.38116 -1.48276,-3.49334c-1.54751,-2.85888 -4.20529,-4.96458 -5.13128,-8.18895c-2.31433,-8.05869 -2.74519,-16.12424 -2.6221,-24.52665c0.11892,-8.11732 2.01777,-16.122 3.39266,-24.08333c1.24794,-7.17658 1.95567,-14.74213 3.82977,-21.77451c1.73555,-6.51252 5.11994,-12.31269 8.09938,-18.28923c2.46264,-4.93987 4.59621,-10.06136 7.36934,-14.83385c4.00067,-6.88506 10.71149,-12.23134 16.02929,-18.003c2.47049,-2.68135 4.0164,-6.12543 6.46686,-8.8251c3.05382,-3.36441 7.13332,-5.63605 10.67279,-8.48514c4.96517,-3.9967 9.92152,-8.09846 15.32602,-11.51438c3.29962,-2.08553 7.07326,-3.31152 10.60501,-4.97393c17.92404,-7.16672 35.04252,-16.57191 53.25314,-23.02314c3.46509,-1.22753 7.21547,-1.45923 10.86112,-1.93145c8.12986,-1.05308 15.79093,-1.23622 23.90353,-0.28595c20.54206,2.40621 40.93121,6.59848 61.31076,10.11274c15.64002,3.72322 31.61303,7.77344 46.48643,14.01276c12.74246,5.34541 24.93799,12.7391 36.60274,20.07966c6.30898,3.9702 13.70226,7.81172 19.51406,12.49286c3.73439,3.00788 6.64444,6.92296 9.85272,10.48666c3.36424,3.73693 6.79102,7.44487 9.79314,11.47848c3.36049,4.51511 5.63587,10.2086 8.12283,15.25911c3.63462,7.36264 6.24919,14.70689 9.09253,22.40191c2.6274,7.11064 5.34349,13.42491 6.01467,21.08616c0.35779,4.08407 -0.68504,8.17609 -1.1929,12.24423c-0.9185,7.35745 -2.54258,14.71113 -3.80416,22.01636c-4.02578,23.31148 -7.89786,46.41273 -16.94544,68.41357c-3.02407,7.36453 -5.77817,15.55126 -9.68081,22.50244c-2.71625,4.83807 -6.40147,9.07056 -9.51232,13.66486c-5.57309,8.23071 -10.62883,17.07412 -17.73995,24.15006c-5.10056,5.07533 -11.84562,9.19153 -17.53556,13.59505c-5.13065,3.97068 -10.71,7.71781 -16.6091,10.75933l-0.66969,-0.43976c0,0 -3.74573,-2.0097 -5.75623,1.73468c-0.37289,0.69447 -0.54815,1.32949 -0.58571,1.90291z" data-paper-data="{&quot;noHover&quot;:false,&quot;origItem&quot;:[&quot;Path&quot;,{&quot;applyMatrix&quot;:true,&quot;segments&quot;:[[[681.32505,610.32672],[-0.49853,1.49559],[2.68794,-8.06381]],[692.07679,604.95084],[[693.54617,605.58973],[0,0],[10.59091,-8.0021]],[[722.61036,578.73937],[-8.7602,9.57176],[9.71514,-10.61517]],[[752.5354,545.98672],[-8.32493,11.73858],[11.60648,-16.36574]],[[779.27002,492.36686],[-8.18225,18.11812],[4.56725,-10.11335]],[[793.36265,462.20637],[-3.70662,10.45948],[5.32556,-15.02785]],[[804.77908,414.57556],[-3.45338,15.54347],[10.34317,-46.43922]],[[814.88885,274.01465],[0,47.31308],[0,-14.82672]],[[814.89512,229.34085],[0.69392,14.81287],[-0.38369,-8.19044]],[[813.08053,204.80959],[2.09516,7.92722],[-3.93029,-14.87056]],[[794.05406,165.31009],[7.59828,13.1196],[-8.22274,-14.19782]],[[768.51568,124.2656],[9.6691,13.27344],[-6.62032,-9.10723]],[[747.31865,96.96466],[8.15967,7.75475],[-7.2895,-6.92776]],[[724.11634,77.68178],[7.9022,6.21981],[-7.53589,-5.93149]],[[701.13446,60.37333],[8.38358,4.65701],[-13.04728,-7.24766]],[[658.43295,42.40167],[13.78518,5.6773],[-25.4876,-10.49684]],[[579.48156,15.2979],[26.93251,6.19794],[-31.43648,-7.23443]],[[483.12362,3.51051],[32.09099,2.0147],[-41.36066,0.01023]],[[358.88652,4.44455],[41.30381,-2.24933],[-16.31195,0.88832]],[[311.88742,13.13913],[15.66414,-4.84245],[-7.02421,2.17148]],[[291.14527,20.63957],[6.41131,-3.5986],[-33.6943,18.91228]],[[194.05552,84.11903],[32.88597,-20.22486],[-6.39467,4.47838]],[[174.8521,97.52641],[5.79317,-5.23325],[-9.48871,8.57161]],[[148.57257,125.42695],[8.4252,-9.56671],[-6.00598,6.81972]],[[130.43022,145.77586],[4.87347,-7.67005],[-3.91058,6.15461]],[[120.69164,165.36428],[3.95631,-6.12531],[-8.51606,13.18487]],[[95.23301,206.28867],[5.54129,-14.9309],[-3.84103,10.34959]],[[85.76055,238.0232],[3.17214,-10.57379],[-3.83783,12.79277]],[[76.02482,276.81418],[1.20392,-13.42575],[-1.30003,14.49745]],[[75.88885,321.01958],[0.0169,-14.56853],[0,16.15835]],[[77.39861,369.62524],[-2.52838,-16.03831],[2.61718,16.6016]],[[90.91154,417.05749],[-7.30394,-15.0946],[2.92239,6.03953]],[[103.81021,431.44544],[-4.0229,-5.10765],[1.56502,1.98702]],[[107.92082,437.82359],[-2.15902,-1.31763],[2.36353,1.44244]],[[116.14741,438.97473],[-2.63441,-0.85251],[5.6732,1.83587]],[[132.14741,446.97473],[-5.66578,-1.85862],[3.22999,1.05958]],[[142.14741,448.97473],[-3.22259,-1.08189],[6.11351,2.05243]],[[159.8109,456.86703],[-6.16811,-1.88198],[5.89594,1.79893]],[[178.22642,458.55602],[-6.13248,-0.62525],[1.14976,0.11723]],[[198.22642,462.55602],[-1.96702,-0.40245],[15.05288,-0.12062]],[[243.38885,462.51465],[-15.05337,0],[7.22814,0]],[[262.70092,460.95084],[-6.62201,2.37126],[0,0]],[269.38885,460.51465],[[272.19438,460.99844],[-1.54782,-0.48379],[-0.0564,-12.12172]],[[274.89759,424.62948],[-0.65723,11.86722],[1.01357,-18.3015]],[[277.65177,370.4048],[-2.80885,18.2566],[2.91497,-18.94631]],[[294.27263,316.34794],[-6.36458,17.977],[2.02852,-5.66449]],[[300.35819,299.35446],[-2.70789,5.37296],[15.91307,-31.57456]],[[378.2596,230.82359],[-30.21015,15.94009],[12.28359,-6.48132]],[[412.02731,216.62441],[-14.02331,2.70062],[0.7689,-0.14808]],[[439.38885,216.51465],[-0.37077,-0.00001],[2.27897,0.00008]],[[468.01129,216.96687],[-3.90687,-0.64434],[18.01286,2.97076]],[[517.60604,235.63458],[-15.68077,-8.90978],[0,0]],[[520.76892,247.23183],[4.21718,-7.38007],[-4.21718,7.38007]],[[509.17167,250.39472],[0,0],[-13.75383,-7.90878]],[[465.59507,233.79429],[15.84616,2.64721],[-8.6165,-1.43944]],[[439.38885,233.51465],[8.7359,-0.00032],[-8.2129,0.0003]],[[414.7504,233.40489],[8.06962,-1.52738],[-10.84666,2.053]],[[386.20671,245.85168],[9.57922,-5.07775],[-21.40962,11.3488]],[[330.33445,287.33685],[16.20662,-18.02292],[-6.12267,6.80885]],[[315.55972,306.96456],[4.42738,-8.91416],[-2.36498,4.76169]],[[310.2979,322.02162],[1.75394,-5.01902],[-5.97929,16.88816]],[[294.45799,372.96425],[2.6815,-17.8063],[-2.65917,17.658]],[[291.88012,425.39982],[0.97083,-17.70164],[-0.7966,14.52476]],[[289.84749,470.17708],[-2.04192,-14.56849],[0.71079,5.07124]],[[292.86387,485.24047],[-1.49114,-4.8989],[2.24194,7.36553]],[[301.55102,506.6421],[-1.80854,-7.48375],[3.47734,14.3893]],[[313.02898,549.28926],[-7.37881,-13.32417],[5.06283,9.14213]],[[328.59336,576.5041],[-4.76747,-9.29957],[8.74411,11.63457]],[[358.3712,603.45537],[-11.93095,-8.24378],[8.37087,5.78392]],[[383.0905,621.363],[-9.16784,-4.41315],[4.1718,2.00819]],[[396.4703,625.09287],[-4.3031,-1.70882],[2.61495,1.03843]],[[403.95826,629.02596],[-2.44639,-1.42093],[1.33139,-0.55267]],[[409.05584,628.67972],[-2.09341,-0.41868],[3.47066,0.69413]],[[415.10766,633.14736],[-0.84471,-1.92323],[6.64016,1.04295]],[[436.96809,636.66264],[-2.21008,-0.43168],[19.5748,3.8234]],[[495.91702,646.53108],[-20.01552,-1.17591],[10.47255,0.61526]],[[527.38885,646.51465],[-10.49061,0],[10.47902,0]],[[558.82592,646.53331],[-10.45294,0.73895],[19.64063,-1.38846]],[[617.20718,636.7994],[-19.25466,3.82576],[0.47479,-0.15879]],[[646.79485,626.92014],[-1.47877,0.47248],[8.30801,-2.65447]],[[671.82527,619.29773],[-7.77836,3.94542],[3.05487,-1.54952]],[[680.81896,614.27587],[-2.94048,1.79257],[-0.12113,-1.14289]]],&quot;closed&quot;:true}]}" fill="#ffffff"/><path d="M249.56909,205.12193c0.39944,-2.31297 2.59828,-3.8642 4.91126,-3.46476c2.31297,0.39944 3.8642,2.59828 3.46476,4.91126c-0.39944,2.31297 -2.59828,3.8642 -4.91126,3.46476c-2.31297,-0.39944 -3.8642,-2.59828 -3.46476,-4.91126z" fill="#000000"/><path d="M371.15097,218.00014c0.39944,-2.31297 2.59828,-3.8642 4.91126,-3.46476c2.31297,0.39944 3.8642,2.59828 3.46476,4.91126c-0.39944,2.31297 -2.59828,3.8642 -4.91126,3.46476c-2.31297,-0.39944 -3.8642,-2.59828 -3.46476,-4.91126z" fill="#000000"/><path d="M360.62565,308.63029c1.22604,4.06931 -2.84328,5.29535 -2.84328,5.29535l-0.91709,0.04853c-2.96702,2.09315 -5.62243,4.22745 -9.17861,5.32838c-1.77427,0.54928 -4.63434,0.56854 -6.50865,1.01585c-3.47853,0.83016 -7.0496,1.70718 -10.62079,1.51755c-4.04826,-0.21496 -8.24048,-1.4021 -12.24116,-2.093c-6.8979,-1.19123 -13.79579,-2.38247 -20.69369,-3.5737c-2.79836,-0.48326 -5.68554,-0.61372 -8.38959,-1.48115c-4.25684,-1.36556 -8.32294,-3.70651 -12.53673,-5.2478c-3.49754,-1.2793 -6.75266,-2.14576 -10.02405,-3.89925c-5.93959,-3.18366 -10.51886,-7.80135 -16.40985,-10.96444c0,0 -3.74438,-2.0105 -1.73388,-5.75488c2.0105,-3.74438 5.75488,-1.73389 5.75488,-1.73389c5.89259,3.16395 10.45587,7.76125 16.34222,10.92853c2.6356,1.41814 6.35542,2.4761 9.00351,3.44593c4.05744,1.48598 7.97498,3.75157 12.06297,5.08928c2.36993,0.77551 4.9198,0.81731 7.37702,1.24166c6.8979,1.19123 13.79579,2.38247 20.69369,3.5737c3.75011,0.64763 7.61871,1.72429 11.40877,1.99123c2.74186,0.19311 5.46365,-0.69575 8.13771,-1.33175c1.96576,-0.46753 4.05542,-0.32426 5.99702,-0.88369c2.49199,-0.71801 4.58968,-2.65406 6.6593,-4.11412l3.36492,-1.24159c0,0 4.06931,-1.22604 5.29536,2.84328z" fill="#000000"/></g></g></g></svg>