<svg version="1.1" xmlns="http://www.w3.org/2000/svg" xmlns:xlink="http://www.w3.org/1999/xlink" width="97.83127" height="128.79067" viewBox="0,0,97.83127,128.79067"><g transform="translate(-199.10047,-131.56638)"><g data-paper-data="{&quot;isPaintingLayer&quot;:true}" fill-rule="nonzero" stroke="none" stroke-linecap="butt" stroke-linejoin="miter" stroke-miterlimit="10" stroke-dasharray="" stroke-dashoffset="0" style="mix-blend-mode: normal"><path d="M272.64601,227.30562c0,2.56028 0.10276,4.70768 -0.6942,7.16552c-1.92191,4.60803 -6.94122,7.64468 -11.53811,9.06624c-3.00605,0.92961 -6.21524,1.62764 -9.29125,2.16821c-1.46931,0.25821 -2.98362,0.01858 -4.47545,0.01858c-5.24248,0 -10.14943,-0.57525 -15.35184,-1.2256c-3.05,-0.45988 -6.79142,-1.80868 -9.3942,-3.56023c-0.26421,-0.1778 -2.65978,-2.6479 -2.87957,-2.84315c-1.30494,-1.15922 -1.92193,-1.01805 -2.7967,-2.92591c-0.87929,-1.9177 -0.28724,-3.94714 -0.11797,-5.88285c0.06713,-0.76756 -0.14437,-1.5611 0.03147,-2.31126c0.80263,-3.4241 3.33881,-6.39716 4.89605,-9.52686c-0.04635,-0.0154 -0.09268,-0.03084 -0.13899,-0.04633c-6.65959,-2.58873 -12.74907,-5.52675 -16.73287,-11.81763c-1.27828,-2.01855 -1.89413,-5.02744 -2.55978,-7.28875c-2.21052,-7.50947 -2.31913,-16.03737 0.27693,-23.54447c0.25949,-7.33144 1.97083,-14.98922 -1.43769,-21.79005l-0.64212,-1.9149c0,0 -0.17769,-0.53306 0.02224,-1.04387c-0.37246,-0.21921 -0.94747,-0.72871 -0.62868,-1.6851c0.45483,-1.3645 1.81933,-0.90966 1.81933,-0.90966c3.13089,1.05805 5.50838,3.00662 8.73364,3.92337l0.20308,-0.02184c0.09059,-0.07747 0.15557,-0.11809 0.15557,-0.11809c4.51478,-2.82021 8.8445,-5.89687 13.27383,-8.84996c1.63565,-1.09051 3.2519,-2.52703 5.03596,-3.34435c1.3724,-0.62872 2.92708,-0.82448 4.26402,-1.52545c2.73015,-1.43142 5.30887,-2.85045 8.36862,-3.4721l1.38207,-0.00583c0.23707,-0.03418 0.46177,0.0009 0.63549,0.04887c0.18022,0.04367 0.40096,0.12546 0.59571,0.27864c4.37706,2.56519 7.3075,6.82342 11.64649,9.60187l0.79629,0.39142c3.84473,-1.123 7.42074,-3.33694 10.55283,-5.83202c3.77113,-3.00416 7.72682,-6.79699 12.73838,-6.9157h1.21288c0,0 0.27172,0 0.57896,0.11811c0.17194,-0.0735 0.38062,-0.11811 0.63391,-0.11811c1.4383,0 1.4383,1.4383 1.4383,1.4383c0,0.42507 0.00384,5.21098 -0.01391,5.35421c-0.35245,2.84553 -1.40337,5.56875 -2.11272,8.35696c4.48089,-0.05238 9.0001,-0.23075 13.40234,0.64582l1.3465,0.62478c0.42615,0.10264 0.67472,0.36148 0.81969,0.62852c0.17527,0.2509 0.29611,0.59208 0.1934,1.02355c-0.13148,2.51917 -1.38263,4.767 -2.19035,7.17926c-1.00847,3.0118 -1.97183,6.17341 -2.8502,9.21274c-1.42801,4.94118 -0.64008,11.00148 -3.28664,15.52181c-1.26446,3.13622 -1.44772,6.44925 -1.67312,9.77225c-0.13659,2.01369 -0.60712,3.83036 -0.61673,5.85869l-0.64787,2.31817c0,0 -0.27965,0.97878 -1.19185,1.05423c-1.71919,5.31375 -4.49544,10.20073 -8.79559,14.07323c-1.53649,1.73246 -3.3748,3.07406 -5.39217,4.10461c2.15623,2.37327 2.39655,5.06839 2.39655,8.5721zM219.75977,226.07552c-0.24756,0.53325 -0.69219,0.98712 -0.82191,1.56056c-0.14224,0.6288 0.0821,1.2911 0.03147,1.9338c-0.10829,1.37486 -0.73574,3.04636 -0.11797,4.42657c0.43189,0.96495 1.32477,1.27627 2.05479,1.92558c0.91463,0.81351 1.55597,1.94169 2.57836,2.61478c2.24759,1.47972 5.55774,2.76034 8.19247,3.11058c5.082,0.6352 9.85117,1.20014 14.97001,1.20014c1.33824,0 2.69975,0.26733 4.01467,0.01858c2.95353,-0.55876 6.00434,-1.19026 8.90186,-2.07685c3.55596,-1.08807 8.29764,-3.59812 9.68718,-7.30756c0.71147,-2.05925 0.51867,-4.00312 0.51867,-6.17609c0,-3.09699 0.05306,-5.34649 -2.38137,-7.34821c-3.014,1.06749 -6.26869,1.59788 -9.42847,1.80946c-11.39751,0.76316 -23.15615,-0.22553 -34.15035,-3.45104c-1.24733,2.67231 -2.79751,5.06305 -4.04943,7.7597zM287.98846,170.02855c0.93558,-4.70271 2.47018,-9.55286 3.99322,-14.14132c0.60225,-1.8144 1.76914,-3.79022 2.00536,-5.6953l-0.01681,-0.00953c-4.77337,-0.95924 -9.72822,-0.5785 -14.57563,-0.5785c-0.49952,0 -0.82555,-0.17348 -1.03836,-0.39995c-0.22647,-0.2128 -0.39995,-0.53884 -0.39995,-1.03836c0,-0.06758 0.00318,-0.13198 0.00923,-0.19337l0.01871,-0.39193c0.64806,-3.24031 1.99921,-6.35407 2.41172,-9.62041c0.14698,-1.16384 0.07817,-2.34081 0.02595,-3.51692h-1.0273c-0.94702,-0.03443 -1.87358,0.38182 -2.7344,0.77807c-3.12079,1.43659 -5.49504,3.35819 -8.21455,5.51331c-3.48384,2.76081 -7.42826,5.16202 -11.70052,6.38846c0,0 -0.29548,0.08442 -0.6523,0.03864c-0.51722,0.10249 -0.9925,-0.13515 -0.9925,-0.13515l-1.34605,-0.68216c-2.02733,-1.30182 -2.46793,-1.49821 -4.42351,-3.16731c-2.52188,-2.15243 -4.14968,-4.63741 -7.00761,-6.31007l-0.99236,-0.00505c-2.68216,0.52328 -5.01337,1.96273 -7.39874,3.19871c-1.32788,0.68805 -2.86252,0.89245 -4.2261,1.50673c-1.67722,0.75557 -3.19283,2.14158 -4.73156,3.16733c-4.45304,2.96848 -8.80743,6.05844 -13.34487,8.89584c0,0 -0.14903,0.09315 -0.37545,0.16221c-0.42244,0.35962 -0.99328,0.35962 -0.99328,0.35962l-1.30479,-0.05534c-1.85205,-0.53166 -2.82718,-0.70969 -4.56982,-1.65388c-0.50394,-0.27303 -0.94237,-0.54759 -1.36317,-0.81371l0.07649,0.23099c2.48965,4.99091 2.439,10.30076 2.09245,15.65769c0.06446,-0.12629 0.12917,-0.25248 0.19416,-0.37853c-0.06944,2.14769 -0.01169,4.29814 0.02586,6.44842c-0.24324,0.55404 -0.46849,1.11634 -0.67615,1.68576c-0.00748,0.3642 -0.01129,0.72801 -0.01074,1.09135c0,0 0,0.92915 -0.74679,1.29385c-1.75755,6.4448 -1.45748,13.55928 0.38621,19.83249c0.59659,2.02994 1.13462,4.85768 2.29172,6.6593c3.64492,5.67519 9.19469,8.20311 15.21649,10.54595c11.45396,3.82554 23.87222,4.97761 35.89993,4.19982c2.74719,-0.17764 5.63059,-0.61235 8.30949,-1.51187c0.45061,-0.70267 1.12487,-0.66738 1.51586,-0.57009c2.2883,-0.9597 4.36565,-2.31396 5.99653,-4.20638c8.29089,-7.42399 10.41233,-18.92952 10.42611,-29.60349c0.52071,-0.63311 1.00951,-1.77784 1.42233,-3.04213c0.56405,-0.61123 0.99727,-1.34503 1.2552,-2.15691c0.02361,0.27706 0.04487,0.55468 0.06389,0.83281c0.94738,-2.70567 0.66975,-5.81148 1.22644,-8.60973z" fill="#000000" stroke-width="0.5"/><path d="M219.73149,226.07022c1.25193,-2.69664 2.80578,-5.09699 4.0531,-7.7693c10.9942,3.22551 22.80164,4.21349 34.19915,3.45034c3.15977,-0.21158 6.41643,-0.73841 9.43042,-1.8059c2.43443,2.00171 2.38376,4.25954 2.38376,7.35652c0,2.17298 0.19285,4.12381 -0.51862,6.18306c-1.38954,3.70945 -6.13579,6.2321 -9.69175,7.32017c-2.89752,0.88659 -5.95888,1.52767 -8.9124,2.08643c-1.31492,0.24876 -2.68422,-0.01579 -4.02246,-0.01579c-5.11884,0 -9.91529,-0.57415 -14.99729,-1.20935c-2.63474,-0.35023 -5.95015,-1.63961 -8.19775,-3.11933c-1.02239,-0.6731 -1.66491,-1.80516 -2.57953,-2.61867c-0.73002,-0.64932 -1.62337,-0.96323 -2.05526,-1.92817c-0.61777,-1.38021 0.00945,-3.05672 0.11774,-4.43158c0.05062,-0.6427 -0.17353,-1.30719 -0.03129,-1.93599c0.12972,-0.57343 0.57463,-1.02919 0.82219,-1.56244z" data-paper-data="{&quot;noHover&quot;:false,&quot;origItem&quot;:[&quot;Path&quot;,{&quot;applyMatrix&quot;:true,&quot;segments&quot;:[[[198.90219,248.3042],[0,0],[-0.43031,0.92688]],[[197.47359,251.01669],[0.22546,-0.99672],[-0.24723,1.09295]],[[197.5283,254.37794],[0.08799,-1.11711],[-0.18823,2.38972]],[[197.32325,262.07202],[-1.07377,-2.39902],[0.7507,1.67722]],[[200.8948,265.41899],[-1.26889,-1.12862],[1.58976,1.41401]],[[205.37639,269.96389],[-1.77707,-1.16995],[3.90666,2.57199]],[[219.61618,275.37056],[-4.57958,-0.60877],[8.8333,1.10408]],[[245.63639,277.4566],[-8.89734,0],[2.32606,0]],[[252.61451,277.48888],[-2.28553,0.43238],[5.13369,-0.9712]],[[268.08733,273.87899],[-5.03635,1.54104],[6.18082,-1.89123]],[[284.92516,261.17731],[-2.41524,6.44759],[1.23665,-3.57929]],[[285.8267,250.4423],[0,3.77697],[0,-5.38304]],[[281.68751,237.66997],[4.23141,3.47929],[-5.23879,1.85546]],[[265.29936,240.81508],[5.49218,-0.36775],[-19.81065,1.32648]],[[205.94072,234.81664],[19.10963,5.60643],[-2.16804,4.64489]],[[198.90217,248.3042],[2.17604,-4.68719],[0,0]]],&quot;closed&quot;:true,&quot;fillColor&quot;:[0,0,0],&quot;strokeWidth&quot;:0.5}]}" fill="#667eff" stroke-width="0.25"/><path d="M288.01681,170.02371c-0.55668,2.79825 -0.27869,5.91028 -1.22606,8.61595c-0.01903,-0.27814 -0.04025,-0.55638 -0.06387,-0.83344c-0.25792,0.81188 -0.69124,1.54737 -1.25529,2.1586c-0.41283,1.26428 -0.90195,2.4115 -1.42266,3.04462c-0.01378,10.67397 -2.14702,22.19809 -10.4379,29.62207c-1.63087,1.89242 -3.71233,3.24909 -6.00063,4.20879c-0.39098,-0.0973 -1.0662,-0.13215 -1.51681,0.57053c-2.6789,0.89951 -5.56753,1.33592 -8.31472,1.51357c-12.0277,0.77778 -24.46871,-0.37879 -35.92267,-4.20433c-6.0218,-2.34284 -11.57913,-4.87856 -15.22405,-10.55375c-1.1571,-1.80163 -1.6971,-4.63288 -2.2937,-6.66283c-1.84369,-6.27322 -2.14648,-13.39937 -0.38893,-19.84417c0.74679,-0.3647 0.74679,-1.29469 0.74679,-1.29469c-0.00056,-0.36334 0.00328,-0.72787 0.01075,-1.09207c0.20766,-0.56942 0.43298,-1.13285 0.67622,-1.6869c-0.03754,-2.15027 -0.09468,-4.30488 -0.02524,-6.45258c-0.06499,0.12605 -0.12976,0.2525 -0.19422,0.37879c0.34655,-5.35693 0.40012,-10.67461 -2.08953,-15.66553l-0.07645,-0.23107c0.42079,0.26613 0.85922,0.5407 1.36316,0.81374c1.74264,0.94418 2.718,1.1218 4.57006,1.65346l1.30498,0.055c0,0 0.57112,-0.00046 0.99356,-0.36008c0.22643,-0.06908 0.37557,-0.16241 0.37557,-0.16241c4.53744,-2.83739 8.89919,-5.93525 13.35225,-8.90373c1.53873,-1.02575 3.05783,-2.41395 4.73505,-3.16951c1.36358,-0.61428 2.90115,-0.82005 4.22904,-1.50809c2.38537,-1.23598 4.72212,-2.67699 7.40427,-3.20026l0.99304,0.00494c2.85792,1.67266 4.49086,4.15732 7.01273,6.30975c1.95558,1.66909 2.40037,1.86591 4.4277,3.16773l1.34738,0.68243c0,0 0.47618,0.23786 0.99341,0.13537c0.35682,0.04577 0.65285,-0.03849 0.65285,-0.03849c4.27226,-1.22644 8.22288,-3.6251 11.70672,-6.38591c2.71951,-2.15512 5.09595,-4.07536 8.21674,-5.51196c0.86082,-0.39626 1.78819,-0.81193 2.73521,-0.7775l1.02766,0.00027c0.05222,1.17611 0.12197,2.35381 -0.02501,3.51766c-0.4125,3.26633 -1.76148,6.3821 -2.40954,9.6224l-0.01858,0.39206c-0.00605,0.06139 -0.00916,0.12586 -0.00916,0.19343c0,0.49952 0.17397,0.82607 0.40044,1.03889c0.2128,0.22647 0.5393,0.40047 1.03883,0.40047c4.84742,0 9.80548,-0.37626 14.57885,0.58297l0.01681,0.00953c-0.23623,1.90508 -1.40202,3.88295 -2.00427,5.69736c-1.52304,4.58846 -3.05523,9.4462 -3.9908,14.14892z" data-paper-data="{&quot;noHover&quot;:false,&quot;origItem&quot;:[&quot;Path&quot;,{&quot;applyMatrix&quot;:true,&quot;segments&quot;:[[[317.49428,150.88584],[0,0],[1.62617,-8.17405]],[[324.43511,126.30603],[-2.64728,7.97546],[1.04681,-3.15372]],[[327.92075,116.40671],[-0.4106,3.31132],[0,0]],[[327.89153,116.39016],[0,0],[-8.29686,-1.6673]],[[302.55681,115.38463],[8.42556,0],[-0.86824,0]],[[300.75198,114.68946],[0.36989,0.39363],[-0.39363,-0.36989]],[[300.05681,112.88463],[0,0.86824],[0,-0.11746]],[[300.07285,112.54853],[-0.01052,0.10669],[0,0]],[[300.10536,111.86729],[0,0],[1.12643,-5.63215]],[[304.2973,95.14552],[-0.717,5.6774],[0.25547,-2.02294]],[[304.34241,89.03257],[0.09077,2.04426],[0,0]],[[302.55681,89.03257],[0,0],[-1.64607,-0.05985]],[[297.804,90.38498],[1.49624,-0.68876],[-5.42442,2.49702]],[[283.52583,99.96797],[4.72693,-3.74593],[-6.05545,4.79873]],[[263.1885,111.07211],[7.42586,-2.13175],[0,0]],[[262.05471,111.13928],[0.62021,0.07957],[-0.89902,0.17814]],[260.32959,110.90437],[[257.98994,109.71868],[0,0],[-3.52382,-2.26277]],[[250.30119,104.21341],[3.39911,2.90115],[-4.38341,-3.74125]],[[238.12088,93.24553],[4.96752,2.90734],[0,0]],[[236.39601,93.23674],[0,0],[-4.662,0.90954]],[[223.53584,98.79659],[4.14614,-2.14833],[-2.30807,1.19593]],[[216.19023,101.41553],[2.37011,-1.06771],[-2.91527,1.3133]],[[207.96604,106.92084],[2.67456,-1.78291],[-7.74009,5.15968]],[[184.77057,122.38319],[7.88679,-4.93183],[0,0]],[[184.11797,122.66515],[0.39357,-0.12006],[-0.73426,0.62508]],[182.39149,123.29023],[[180.12357,123.19404],[0,0],[-3.21915,-0.92412]],[[172.18051,120.31934],[3.02898,1.64114],[-0.87592,-0.47458]],[[169.81111,118.90497],[0.73141,0.46257],[0,0]],[[169.94406,119.30647],[0,0],[4.3274,8.67498]],[[173.58107,146.52197],[0.60235,-9.31118],[0.11205,-0.21952]],[[173.91855,145.86402],[-0.11296,0.2191],[-0.1207,3.73302]],[[173.96349,157.07237],[-0.06526,-3.73751],[-0.42279,0.96301]],[[172.78823,160.00248],[0.36095,-0.98974],[-0.013,0.63304]],[[172.76957,161.89942],[-0.00097,-0.63154],[0,0]],[[171.47152,164.14833],[1.29805,-0.63391],[-3.05489,11.20206]],[[172.14281,198.62029],[-3.20462,-10.90383],[1.03698,3.52836]],[[176.12618,210.19519],[-2.01122,-3.1315],[6.33544,9.86435]],[[202.5748,228.5257],[-10.46683,-4.07222],[19.90876,6.64938]],[[264.97447,235.82564],[-20.90603,1.35191],[4.77505,-0.30878]],[[279.41765,233.19778],[-4.65634,1.5635],[0.78323,-1.22135]],[[282.05244,232.20688],[-0.67958,-0.16912],[3.97742,-1.66812]],[[292.47533,224.89553],[-2.83471,3.28933],[14.41085,-12.90405]],[[310.59754,173.44005],[-0.02396,18.55303],[0.90508,-1.10045]],[[313.06978,168.15236],[-0.71756,2.19752],[0.98041,-1.06241]],[[315.2515,164.40332],[-0.4483,1.41118],[0.04104,0.48157]],[[315.36255,165.85088],[-0.03307,-0.48344],[1.64669,-4.70287]],[[317.49429,150.88583],[-0.96761,4.8638],[0,0]]],&quot;closed&quot;:true,&quot;fillColor&quot;:[0,0,0],&quot;strokeWidth&quot;:0.5}]}" fill="#66ecff" stroke-width="0.25"/><path d="M226.51063,208.90497c-0.61257,-0.71828 -0.61257,-1.68998 -0.61257,-1.68998l0.03327,-0.64764c0.18859,-1.1308 0.364,-2.26379 0.53429,-3.39748c0.56926,-1.49142 1.1843,-3.04534 2.26669,-4.21872c5.08377,-5.51118 12.49692,-2.98308 18.84373,-1.48603c1.91286,0.45119 3.8815,1.04382 5.77063,1.44785c1.4123,0.30205 3.02348,0.38169 4.12998,1.30985c2.82376,2.36865 3.43191,6.93856 3.99509,10.32455c0.37777,3.03643 1.09645,6.00586 1.2509,9.07509c0.2519,5.00591 0.00304,10.09546 0.00304,15.1078c0,4.55739 0.40005,9.57549 -0.55192,14.05285c-0.4472,2.10329 -1.5102,4.16875 -2.40411,6.09891c-1.07929,0.92106 -1.84661,2.20398 -3.02414,2.9956c-1.6516,1.11032 -2.52393,0.73462 -4.27693,1.10201c-1.31647,0.27589 -2.51129,1.01478 -3.8343,1.25736c-1.72343,0.31599 -3.55585,-0.07506 -5.26111,-0.22243c-1.75333,-0.15153 -3.61083,0.27187 -5.3491,-0.02324c-0.83182,-0.14122 -1.59349,-0.56036 -2.40879,-0.77754c-3.50955,-0.93488 -7.53372,-0.92519 -10.11291,-3.9774c-1.45212,-1.71845 -2.26235,-4.24905 -3.0045,-6.3122c-0.07586,-3.69325 -0.44355,-7.67935 -0.0156,-11.33931c0.18519,-1.58379 0.74943,-3.10419 0.98463,-4.68133c0.5403,-3.62306 0.85431,-7.26202 1.48282,-10.86529c0.16773,-0.96166 0.59886,-1.86989 0.72099,-2.83841c0.24348,-1.93098 0.05545,-3.89632 0.23882,-5.83393c0.14021,-1.48148 0.38993,-2.97099 0.60109,-4.46093z" fill="#000000" stroke-width="0.5"/><path d="M215.63172,166.12622c0.55738,-0.74407 0.97469,-1.63284 1.72068,-2.18207c0.69753,-0.51357 1.63063,-0.58661 2.45756,-0.84446c3.64459,-1.13645 7.69553,-0.86722 11.09992,0.79605c4.63555,3.8427 7.23163,9.02227 7.24859,15.06695c0.00428,1.52464 0.04678,3.79968 -0.35407,5.14206c-0.29337,0.98246 -0.9418,1.82218 -1.44774,2.71398c-1.70515,3.00561 -4.18103,6.89693 -7.12054,8.89982c-0.74842,0.50995 -1.66528,0.71681 -2.46768,1.13673c-0.95615,0.50037 -1.78437,1.26299 -2.80236,1.62116c-1.5854,0.55781 -5.28644,0.67916 -6.99423,0.30869c-1.04487,-0.22667 -1.98891,-0.84181 -3.04514,-1.00771c-1.04796,-0.43203 -2.17539,-0.70711 -3.14389,-1.29609c-5.57052,-3.38762 -5.80914,-11.95241 -4.48186,-17.55062c0.39686,-1.67386 0.85572,-3.50501 1.70028,-5.04045c0.58221,-1.05849 2.703,-4.34062 3.67563,-5.30235c1.10569,-1.09329 2.49523,-1.85403 3.95485,-2.46168z" fill="#000000" stroke-width="0.5"/><path d="M264.34116,167.28067c5.53478,0.26861 11.12259,2.86296 15.69676,5.6375c0.66717,0.78131 1.46561,1.46735 2.00151,2.34391c1.33032,2.17599 1.2866,4.74374 1.76469,7.14241c1.37793,6.91341 -0.52902,15.51519 -7.4867,18.9111c-1.54541,0.75428 -4.26895,0.88464 -5.86267,0.97224c-4.57405,0.2514 -8.73333,-0.384 -12.6573,-2.80111c-3.20287,-1.89123 -4.5587,-4.39935 -6.47565,-7.44629c-0.51156,-0.8131 -1.33795,-1.44818 -1.66742,-2.35055c-1.04814,-2.87062 -0.25523,-3.51047 0.39223,-6.1598c1.03623,-4.24011 1.86688,-8.53965 3.83937,-12.475c0.40288,-0.8038 0.55787,-1.79437 1.21472,-2.40832c1.73411,-1.62085 4.86337,-2.38946 7.14523,-2.44743c0,0 1.41929,0 2.09522,1.08133z" fill="#000000" stroke-width="0.5"/></g></g></svg>