<svg version="1.1" xmlns="http://www.w3.org/2000/svg" xmlns:xlink="http://www.w3.org/1999/xlink" width="92.2873" height="105.52056" viewBox="0,0,92.2873,105.52056"><g transform="translate(20.74532,-157.14008)"><g data-paper-data="{&quot;isPaintingLayer&quot;:true}" fill-rule="nonzero" stroke="none" stroke-linecap="butt" stroke-linejoin="miter" stroke-miterlimit="10" stroke-dasharray="" stroke-dashoffset="0" style="mix-blend-mode: normal"><path d="M32.79519,207.67991c1.84455,-0.29898 3.023,0.32586 3.76688,1.13376c3.84481,-5.5818 7.95044,-10.8841 9.8886,-17.45457c0.71617,-2.42789 0.88514,-6.38469 1.73851,-9.68885c-3.47925,-1.95282 -7.07737,-3.65919 -10.76366,-5.39016c-8.33935,-3.91594 -16.82114,-7.72452 -25.9586,-9.46557c-1.3253,-0.25253 -11.12393,-2.33725 -13.38677,0.35513c-0.50399,0.59965 -0.17403,1.56262 -0.14574,2.34542c0.05998,1.66039 -0.20891,3.42562 0.40993,4.96755c2.0729,5.16497 6.63581,9.03441 8.94388,14.09867c1.04699,2.29724 2.83787,4.89922 2.03906,7.2941c-0.87825,2.63304 -3.8079,4.21547 -6.29146,5.45487c-2.32956,1.16254 -5.08572,1.1431 -7.66339,1.50914c-2.3084,0.32779 -4.64764,0.37938 -6.97146,0.56907c-0.88902,-0.73431 1.46895,1.88564 2.51101,2.37927c2.0931,0.99149 4.44728,1.30502 6.70424,1.82491c1.18359,0.27264 2.36585,0.54858 3.54715,0.82701c0.97899,-0.38062 1.90947,-0.73958 2.7678,-1.08177c0,0 4.02756,-1.60565 5.63321,2.42191c0.10099,0.25333 0.1797,0.49707 0.23851,0.73144c4.33458,1.05046 8.66815,2.10744 13.01872,3.13019c2.24298,0.52729 4.706,1.95047 6.89315,1.62608l-0.50582,-2.61389c0,0 -0.69372,-4.27997 3.58625,-4.97368zM41.05151,220.78536c0.99908,3.94949 0.10571,4.92513 0.05569,8.7867c-0.08036,6.20383 0.13185,12.24422 -1.62469,18.31829c-1.01501,3.50988 -3.27956,9.54235 -6.3891,11.8273c-1.879,1.38073 -4.2307,1.96198 -6.34605,2.94297c-7.7292,-0.46057 -18.79263,0.40663 -24.89498,-5.34673c-4.36796,-4.11817 -4.16151,-12.06492 -8.58043,-16.06531c-2.1334,-1.93134 -5.36826,-2.34838 -7.4913,-4.29109c-1.38599,-1.26825 -2.30308,-2.97613 -3.30445,-4.56569c-0.8524,-1.3531 -2.08496,-2.64947 -2.24337,-4.24083c-0.6181,-6.20948 3.33817,-10.60466 8.51606,-13.88243c-4.87372,-1.85743 -8.80894,-5.03842 -9.47615,-11.34081c-0.30155,-2.84836 3.24991,-4.71746 4.87487,-7.0762c3.29713,-0.52691 6.59552,-1.04604 9.8914,-1.58071c1.8847,-0.30574 3.75346,-0.72206 5.65026,-0.94051c0.43518,-0.05012 1.36318,0.57368 1.30676,0.13928c-0.07152,-0.55047 -1.07627,-0.44682 -1.40483,-0.89424c-1.64209,-2.2361 -2.96885,-4.6876 -4.42729,-7.04758c-4.44345,-7.19016 -6.43402,-7.98926 -5.88726,-16.50283c0.15499,-2.41356 0.26726,-5.17929 1.83701,-7.01919c5.52485,-6.47565 14.77165,-5.0825 21.9764,-3.7097c9.85049,1.87692 19.02993,5.90756 28.02313,10.13547c4.63552,2.17927 9.13345,4.35223 13.45795,6.9319c0.60228,-0.271 1.3546,-0.4131 2.29387,-0.33374c4.32043,0.36504 3.95538,4.68547 3.95538,4.68547l-0.00145,0.0017c0.84669,1.02129 1.80058,2.91143 0.13112,5.22675c-1.48791,2.06354 -3.31355,2.04328 -4.56837,1.67413c-0.17832,0.7177 -0.37707,1.43247 -0.53039,2.15363c-0.99161,4.66444 -1.37581,7.53535 -3.68616,12.09352c-1.19695,2.36151 -2.89725,4.43209 -4.35228,6.64394c-2.35348,3.5776 -4.61981,7.69024 -7.64557,10.95089c0.47717,1.21532 0.84496,2.17027 0.88425,2.3256z" fill="#000000" stroke-width="0.5"/><path d="M32.82826,207.71874c-4.27997,0.69371 -3.59669,4.98055 -3.59669,4.98055l0.50462,2.61446c-2.18715,0.32439 -4.66184,-1.09501 -6.90481,-1.6223c-4.35057,-1.02274 -8.71413,-2.08295 -13.04871,-3.13342c-0.05882,-0.23437 -0.13865,-0.47861 -0.23964,-0.73194c-1.60564,-4.02756 -5.64527,-2.42969 -5.64527,-2.42969c-0.85833,0.34219 -1.79092,0.69922 -2.76991,1.07984c-1.18129,-0.27843 -2.36759,-0.55876 -3.55118,-0.8314c-2.25695,-0.51989 -4.61631,-0.84109 -6.70941,-1.83258c-1.04207,-0.49362 -3.30836,-3.15804 -2.41934,-2.42373c2.32382,-0.18969 4.66122,-0.24517 6.96961,-0.57298c2.57767,-0.36603 5.33064,-0.35185 7.6602,-1.5144c2.48356,-1.2394 5.32702,-2.76743 6.20527,-5.40048c0.79881,-2.39488 -0.99788,-5.03187 -2.04487,-7.3291c-2.30807,-5.06426 -6.8605,-8.95617 -8.9334,-14.12114c-0.61884,-1.54194 -0.34572,-3.31176 -0.4057,-4.97216c-0.02829,-0.7828 -0.35614,-1.74768 0.14784,-2.34733c2.26284,-2.69238 12.08064,-0.61801 13.40594,-0.36548c9.13746,1.74105 17.67405,5.56787 26.01339,9.48382c3.68628,1.73098 7.29254,3.45333 10.77179,5.40615c-0.85337,3.30416 -1.02016,7.27691 -1.73633,9.7048c-1.93815,6.57047 -6.0586,11.90756 -9.9034,17.48936c-0.74389,-0.80789 -1.92544,-1.42985 -3.77,-1.13087z" data-paper-data="{&quot;noHover&quot;:false,&quot;origItem&quot;:[&quot;Path&quot;,{&quot;applyMatrix&quot;:true,&quot;segments&quot;:[[[21.81762,203.6077],[0,0],[1.77695,-0.44424]],[[25.5904,204.4042],[-0.79325,-0.7277],[3.29468,-5.76919]],[[33.8084,186.5398],[-1.35081,6.5775],[0.49914,-2.43049]],[[34.70687,176.93298],[-0.56083,3.29768],[-3.55944,-1.62024]],[[23.7489,172.55654],[3.74334,1.38648],[-8.46842,-3.13659]],[[-2.3867,165.45352],[9.06848,0.94646],[-1.3153,-0.13728]],[[-15.4326,166.90513],[1.98798,-2.81646],[-0.44277,0.62729]],[[-15.38139,169.20799],[-0.09223,-0.76225],[0.19561,1.6168]],[[-14.57105,174.0261],[-0.73169,-1.45498],[2.4509,4.8737]],[[-4.67183,187.05854],[-2.67228,-4.75592],[1.2122,2.15737]],[[-2.07828,194.0146],[0.58258,-2.40506],[-0.64052,2.64424]],[[-7.77315,199.86172],[2.32348,-1.41551],[-2.1794,1.32773]],[[-15.13364,201.96816],[2.48747,-0.57024],[-2.22762,0.51067]],[[-21.89589,203.09931],[2.25408,-0.37705],[-0.92893,-0.64385]],[[-19.24697,205.21598],[-1.05855,-0.39614],[2.12621,0.79568]],[[-12.54816,206.44515],[-2.24733,-0.32154],[1.17854,0.16862]],[[-9.01532,206.96018],[-1.17678,-0.17446],[0.92479,-0.45256]],[[-6.40121,205.67517],[-0.81012,0.40506],[0,0]],[[-0.69924,207.57583],[-1.90065,-3.80132],[0.11955,0.2391]],[[-0.40591,208.27056],[-0.07679,-0.22406],[4.32039,0.6683]],[[12.56813,210.25352],[-4.33371,-0.63991],[2.23429,0.32991]],[[19.43504,211.27289],[-2.10947,0.49734],[0,0]],[18.72528,208.76158],[[21.81761,203.6077],[-4.12311,1.03077],[0,0]]],&quot;closed&quot;:true,&quot;fillColor&quot;:[0,0,0],&quot;strokeWidth&quot;:0.5}]}" fill="#302617" stroke-width="0.25"/><path d="M42.80492,172.65684c-0.374,0.09316 -0.74263,0.22416 -1.10416,0.39842zM43.29391,172.55663c-0.28765,0.58637 -2.03221,3.7356 -5.65281,2.17899c-2.12097,-0.91187 -2.62705,-2.46756 -2.63664,-3.72289c-1.13975,-0.20884 -2.27961,-0.40581 -3.42249,-0.29819c-0.92271,0.08689 -1.56068,1.03509 -2.43542,1.3413c-0.92491,0.32377 -1.96036,0.22236 -2.89279,0.52385c-0.90024,0.29107 -0.68004,1.78157 -0.82041,2.71723c-0.33681,2.24512 0.53109,4.51719 1.0234,6.73342c0.36724,1.65317 0.13596,3.4207 0.62615,5.04167c0.37174,1.22927 1.4022,2.16634 1.91031,3.34579c2.08226,4.83339 4.4045,9.99361 3.39353,15.3244c-1.9964,10.52685 -13.99138,11.03625 -21.97098,14.84699c-0.6663,0.50803 -1.57465,0.80155 -1.99891,1.52407c-0.68091,1.15959 -0.67611,2.60954 -1.16415,3.86258c-1.41803,3.64088 -1.23568,4.9944 -1.76083,9.23611c-0.06358,0.51355 -0.47818,1.00043 -0.37262,1.507c0.22926,1.10016 2.16734,1.69479 2.76662,2.14295c4.14971,3.10336 9.99466,5.35176 15.14111,6.64588c2.78906,0.70133 5.63865,1.147 8.42491,1.85933c0.54413,0.13912 1.13964,0.67222 1.63488,0.40735c1.66181,-0.8888 2.86184,-2.45521 4.35172,-3.60924c3.45169,-2.6736 7.85801,-5.1662 10.77195,-8.48388c0.9091,-1.03507 3.03739,-5.71892 3.42333,-6.51909c0.78022,-4.04904 2.33485,-7.91241 3.32663,-11.91489c1.04453,-4.21544 1.4811,-8.6036 2.95139,-12.69007c1.1058,-3.07343 3.44198,-6.20062 4.27167,-9.33844c1.38918,-5.25369 0.71251,-12.44872 -3.1745,-16.59576c-1.08113,-1.15346 -5.3641,-2.92103 -6.01141,-3.2119c-2.83496,-1.27387 -6.44114,-3.38388 -9.70363,-2.85454zM40.81971,164.32533c5.57575,-1.20466 10.33283,0.73454 15.7498,3.18405c3.06961,1.38806 6.34453,2.71148 8.76874,5.186c5.94053,6.0638 7.42824,16.70788 5.25755,24.62823c-1.38325,5.04715 -4.7949,9.17165 -5.98178,14.38853c-0.57236,2.51577 -0.62048,5.13573 -1.24127,7.63998c-1.04352,4.20948 -2.64688,8.27855 -3.50481,12.52975c-1.23184,2.62767 -3.07658,7.11028 -5.07452,9.44413c-3.22621,3.7686 -8.21167,6.9919 -12.22264,9.82903c-2.35529,1.66601 -4.39814,3.93263 -7.09559,4.95568c-3.22806,1.2243 -11.46017,-1.39353 -14.58477,-2.19863c-3.58719,-0.92428 -6.94645,-2.58047 -10.37093,-3.99295c-3.42621,-1.4132 -7.8942,-2.83362 -10.4817,-5.82659c-5.25332,-6.07658 -3.59457,-14.6437 -0.78214,-21.4699c0.73153,-1.77553 0.91045,-3.82189 2.00167,-5.40205c1.11493,-1.61448 2.94416,-2.59432 4.41624,-3.89149c2.68452,-1.34067 4.96505,-2.61195 7.86177,-3.50065c2.99906,-0.92009 7.98821,-1.34662 10.1096,-4.32805c1.35515,-1.90456 -0.12887,-4.61515 -0.75943,-6.28181c-1.20956,-3.19703 -3.03184,-6.15949 -4.03661,-9.42667c-0.5748,-1.86906 -0.41629,-3.89695 -0.84034,-5.80589c-0.36072,-1.62381 -1.32239,-3.10424 -1.50623,-4.75744c-0.54057,-4.86136 0.90607,-11.25949 5.29133,-14.08564c1.28254,-0.82655 2.97016,-0.7251 4.40556,-1.24254c1.30068,-0.46887 2.40495,-1.56194 3.77983,-1.70811c2.54866,-0.27096 5.1156,0.32696 7.67339,0.49046c0,0 2.00434,0.16935 3.16729,1.64255z" fill="#ffffff" stroke-width="0.5"/><path d="M53.0221,175.36646c0.64732,0.29087 4.93764,2.06335 6.01877,3.21681c3.88701,4.14703 4.57722,11.35872 3.18805,16.6124c-0.8297,3.13782 -3.16137,6.2779 -4.26716,9.35133c-1.47028,4.08648 -1.90914,8.50304 -2.95367,12.71847c-0.99176,4.00248 -2.56047,7.8861 -3.34071,11.93514c-0.38594,0.80016 -2.52401,5.49076 -3.43312,6.52582c-2.91393,3.31769 -7.33955,5.81598 -10.79124,8.48958c-1.48988,1.15404 -2.69611,2.72061 -4.35791,3.60941c-0.49523,0.26488 -1.09296,-0.26837 -1.63708,-0.40747c-2.78627,-0.71233 -5.64724,-1.16017 -8.43629,-1.86151c-5.14647,-1.29413 -11.01024,-3.55323 -15.15995,-6.65661c-0.59928,-0.44818 -2.54053,-1.0459 -2.7698,-2.14606c-0.10556,-0.50658 0.30829,-0.99429 0.37187,-1.50782c0.52515,-4.24172 0.3373,-5.60263 1.75533,-9.2435c0.48804,-1.25305 0.48093,-2.70716 1.16186,-3.86675c0.42427,-0.72253 1.42462,-1.06011 2.09093,-1.56813c7.9796,-3.81074 19.90442,-4.34358 21.90081,-14.87042c1.01098,-5.33078 -1.27349,-10.39686 -3.35576,-15.23027c-0.50811,-1.17945 -1.56814,-2.21415 -1.93989,-3.44342c-0.49019,-1.62097 -0.25727,-3.38901 -0.62451,-5.04218c-0.49232,-2.21623 -1.35899,-4.48863 -1.02217,-6.73375c0.14036,-0.93565 -0.07789,-2.42661 0.82235,-2.71768c0.93242,-0.30148 1.97179,-0.20078 2.89669,-0.52455c0.87474,-0.30621 1.51611,-1.25478 2.43881,-1.34166c1.14286,-0.10762 2.28724,0.08923 3.42699,0.29807c0.00959,1.25534 0.51962,2.81124 2.64059,3.72312c3.62062,1.55662 5.37237,-1.5914 5.66003,-2.17776c3.2625,-0.52934 6.88119,1.58551 9.71614,2.8594z" data-paper-data="{&quot;noHover&quot;:false,&quot;origItem&quot;:[&quot;Path&quot;,{&quot;applyMatrix&quot;:true,&quot;segments&quot;:[[[29.17343,168.43547],[3.14288,-0.78626],[-0.23257,0.59646]],[[23.832,171.03024],[3.66481,1.2216],[-2.14686,-0.71562]],[[20.94948,167.61158],[0.11297,1.22533],[-1.13046,-0.10992]],[[17.58205,167.60277],[1.10738,-0.19943],[-0.89406,0.16101]],[[15.31401,169.11384],[0.82911,-0.37127],[-0.87667,0.39256]],[[12.53178,169.86422],[0.88584,-0.37141],[-0.85526,0.35859]],[[11.95471,172.58591],[0.05988,-0.92546],[-0.14369,2.22067]],[[13.50997,179.07815],[-0.66375,-2.12402],[0.49512,1.58439]],[[14.53762,183.95081],[-0.61256,-1.54279],[0.46454,1.16998]],[[16.67959,187.06108],[-0.59362,-1.11007],[2.43267,4.54906]],[[21.25879,201.74877],[0.54752,-5.29015],[-1.0812,10.4466]],[[1.02441,218.06338],[7.4794,-4.38057],[-0.60887,0.55119]],[[-0.8022,219.71694],[0.35477,-0.74072],[-0.56937,1.1888]],[[-1.62049,223.58571],[0.37327,-1.26416],[-1.08456,3.67317]],[[-2.57812,232.75217],[0.16288,-4.18634],[-0.01972,0.50684]],[[-2.8177,234.25486],[-0.14491,-0.48608],[0.31472,1.05564]],[[0.06138,236.11962],[-0.62232,-0.38829],[4.30924,2.68868]],[[15.39856,241.36129],[-5.13349,-0.83929],[2.78202,0.45484]],[[23.78083,242.48207],[-2.7802,-0.46581],[0.54294,0.09097]],[[25.41127,242.74503],[-0.46185,0.29958],[1.54978,-1.00526]],[[29.36385,238.86066],[-1.35997,1.25013],[3.15071,-2.89623]],[[39.18496,229.68526],[-2.57232,3.48095],[0.80252,-1.086]],[[41.99062,223.03539],[-0.31093,0.81339],[0.42791,-4.01919]],[[44.25654,211.12327],[-0.63837,3.99117],[0.67234,-4.20353]],[[46.09198,198.48498],[-1.09882,4.1127],[0.82642,-3.09315]],[[49.49357,189.01136],[-0.55144,3.13326],[0.92328,-5.24606]],[[45.02338,173.06383],[4.13878,3.72974],[-1.15116,-1.03739]],[[38.8868,170.42278],[0.65626,0.23068],[-2.8741,-1.01027]]],&quot;closed&quot;:true}]}" fill="#000000" stroke-width="0.5"/></g></g></svg>