<svg version="1.1" xmlns="http://www.w3.org/2000/svg" xmlns:xlink="http://www.w3.org/1999/xlink" width="1130.29279" height="475.75324" viewBox="0,0,1130.29279,475.75324"><g transform="translate(330.13427,50.50751)"><g data-paper-data="{&quot;isPaintingLayer&quot;:true}" fill-rule="nonzero" stroke="none" stroke-linecap="butt" stroke-linejoin="miter" stroke-miterlimit="10" stroke-dasharray="" stroke-dashoffset="0" style="mix-blend-mode: normal"><path d="M-330.13427,57.50003c0,-6.90356 5.59644,-12.5 12.5,-12.5c6.90356,0 12.5,5.59644 12.5,12.5c0,6.90356 -5.59644,12.5 -12.5,12.5c-6.90356,0 -12.5,-5.59644 -12.5,-12.5z" fill="#262429" stroke-width="0.5"/><path d="M-173.9781,169.69505c0,-1.38071 1.11929,-2.5 2.5,-2.5c1.38071,0 2.5,1.11929 2.5,2.5c0,1.38071 -1.11929,2.5 -2.5,2.5c-1.38071,0 -2.5,-1.11929 -2.5,-2.5z" data-paper-data="{&quot;index&quot;:null}" fill="#252525" stroke-width="0.5"/><path d="M787.65853,68.49853c-6.90356,0 -12.5,-5.59644 -12.5,-12.5c0,-6.90356 5.59644,-12.5 12.5,-12.5c6.90356,0 12.5,5.59644 12.5,12.5c0,6.90356 -5.59644,12.5 -12.5,12.5z" data-paper-data="{&quot;index&quot;:null}" fill="#262429" stroke-width="0.5"/><path d="M-105.02404,410.50751v-461.01502h694.19863v461.01502z" data-paper-data="{&quot;index&quot;:null}" fill="#1a2026" stroke-width="0"/><path d="M-64.35505,424.95383c-58.78198,-2.43282 -77.31453,-358.32809 -77.31453,-358.32809l98.15109,71.34756l667.26335,159.41887l-25.53784,69.88682c0,0 -539.97142,62.74853 -662.56207,57.67484z" data-paper-data="{&quot;index&quot;:null}" fill="#0e1414" stroke-width="0"/></g></g></svg>