<svg version="1.1" xmlns="http://www.w3.org/2000/svg" xmlns:xlink="http://www.w3.org/1999/xlink" width="1542.38872" height="1597.06383" viewBox="0,0,1542.38872,1597.06383"><g transform="translate(330.13427,859.41025)"><g data-paper-data="{&quot;isPaintingLayer&quot;:true}" fill-rule="nonzero" stroke="none" stroke-linecap="butt" stroke-linejoin="miter" stroke-miterlimit="10" stroke-dasharray="" stroke-dashoffset="0" style="mix-blend-mode: normal"><path d="M122.0558,601.52493c0,0 -178.05421,-143.82347 -214.6925,-256.78054c-36.85791,-113.63417 -5.80003,-423.00533 -5.80003,-423.00533l1090.19865,-781.14931l220.49253,679.78586z" data-paper-data="{&quot;index&quot;:null}" fill="#1c261a" stroke-width="0"/><path d="M7.92686,731.92862c-95.04932,65.5722 -111.37328,-453.7773 -111.37328,-453.7773l660.61565,-201.46596l13.20005,325.90345c0,0 -364.21572,192.58808 -562.44242,329.33981z" data-paper-data="{&quot;index&quot;:null}" fill="#10140e" stroke-width="0"/><path d="M641.50236,173.69655c-1.38071,0 -2.5,-1.11929 -2.5,-2.5c0,-1.38071 1.11929,-2.5 2.5,-2.5c1.38071,0 2.5,1.11929 2.5,2.5c0,1.38071 -1.11929,2.5 -2.5,2.5z" data-paper-data="{&quot;index&quot;:null}" fill="#252525" stroke-width="0.5"/><path d="M-330.13427,57.50003c0,-6.90356 5.59644,-12.5 12.5,-12.5c6.90356,0 12.5,5.59644 12.5,12.5c0,6.90356 -5.59644,12.5 -12.5,12.5c-6.90356,0 -12.5,-5.59644 -12.5,-12.5z" fill="#262429" stroke-width="0.5"/><path d="M313.29423,159.73261v-203.88714h203.06169v203.88714z" fill="#10140e" stroke-width="0"/><g stroke-width="0.5"><path d="M239.78721,303.31576l3.09568,0.3011c0.07947,0.02977 0.1597,0.05818 0.24055,0.0855c4.28961,-1.96036 8.4538,-4.09628 12.43685,-6.39015c8.88815,-5.08369 17.90886,-11.29874 24.39485,-19.3844c15.82078,-19.72271 19.95116,-46.62586 21.325,-71.10145c0.31462,-5.60512 1.58687,-11.73621 1.00021,-17.28883c-0.6758,-6.39625 -2.40852,-13.46423 -3.52638,-19.78894c-1.36779,-7.82318 -4.12411,-15.37979 -6.78354,-22.8392c-6.22432,-17.45845 -13.35986,-33.84594 -23.40711,-49.42759c-4.57912,-7.10149 -8.64456,-15.40371 -15.26165,-20.92058c-8.65889,-7.21917 -17.82522,-13.72637 -27.30763,-19.78891c-18.98671,-10.886 -39.81827,-17.13116 -60.70987,-23.18621c-10.066,-2.91745 -20.59284,-6.47696 -30.99028,-7.84394c-8.26216,-1.08625 -16.6646,-1.55936 -24.97721,-2.05396c-2.6971,-0.16047 -5.39047,-0.58449 -8.09073,-0.4911c-10.97053,0.37942 -22.19277,3.19818 -32.94882,5.19309c-8.16326,1.48256 -15.51146,5.3293 -23.34257,7.9764c-14.21383,4.80462 -30.22536,8.1571 -43.21415,15.94075c-9.05857,5.42842 -16.51979,12.75764 -23.87022,20.23575c-1.3397,1.36297 -2.88795,2.54541 -4.03152,4.07667c-5.90592,7.90803 -10.76902,17.32853 -15.52854,25.9205c-1.57512,4.74957 -3.65034,9.35793 -4.75897,14.23752c-0.60637,2.66893 -0.63751,5.43827 -1.0708,8.1407c-1.62096,10.10985 -2.97655,18.91274 -1.81045,29.18243c0.72808,6.41209 1.23218,12.7851 3.64499,18.84566c9.05768,22.75134 27.55895,41.27975 45.57944,57.07301c1.57169,1.5159 2.96295,3.24454 4.71507,4.5477c1.36104,1.01228 6.31956,2.85271 7.92279,3.49303c8.38547,3.34913 17.68132,3.03845 26.51327,2.67942c4.53085,-0.18419 8.48621,-2.00887 12.90986,-2.67938l1.52803,0.00323c0,0 3.18997,0.17931 3.88275,2.99285c1.4314,0.08289 2.86246,0.1704 4.29308,0.27036c-1.22518,-4.00162 -3.45067,-11.25787 -3.53077,-11.65529c-1.45486,-7.21786 -0.9799,-16.25737 -0.16264,-23.48903c1.24836,-11.04633 5.72652,-21.14529 10.54814,-31.01673c6.50047,-13.25707 15.15647,-25.86426 27.46892,-34.44751c3.53732,-2.46593 7.81091,-3.67007 11.58555,-5.75468c8.59667,-4.74768 17.06453,-10.18405 26.69222,-12.80175c6.35847,-1.72882 9.46031,-1.05495 15.91923,-0.70128c6.58635,0.36065 12.38449,0.88213 18.72147,2.52182c0,0 4.11412,1.06607 3.04805,5.18019c-1.06607,4.11412 -5.18019,3.04805 -5.18019,3.04805c-5.82994,-1.51274 -10.98082,-1.91198 -17.06638,-2.26346c-5.14656,-0.29725 -8.29282,-0.97069 -13.26728,0.43172c-8.94061,2.52054 -16.75421,7.60997 -24.75956,12.02634c-3.61204,1.99268 -7.71864,3.10784 -11.10273,5.46695c-10.97468,7.65066 -18.66812,19.2151 -24.42288,31.02655c-4.43125,9.05737 -8.61058,18.28409 -9.76129,28.42319c-0.72737,6.40898 -1.20133,14.52794 0.11556,20.90424c0.90972,4.40479 2.67435,8.58885 3.97893,12.89324c2.94313,9.71072 5.67377,19.29202 10.53433,28.27791c7.18737,13.28754 18.90812,24.68756 30.4586,34.1607c3.26396,1.50816 6.59715,2.8759 9.7868,4.53547c2.35328,1.22441 4.49928,2.90498 7.00413,3.77836c2.47015,0.86128 5.1545,0.89729 7.72945,1.35884c7.90498,1.41695 15.79471,2.27209 23.80831,2.88494c14.04734,1.0743 29.10459,2.30392 43.09745,-0.02719c10.83644,-1.80527 21.9043,-4.90868 32.44731,-9.07107c0.41886,-3.9286 4.45728,-3.7016 4.45728,-3.7016zM251.39779,311.50315c1.4689,1.29949 4.96417,4.1208 5.82292,5.98499c0.83893,1.82117 0.95613,3.89467 1.45656,5.83632c3.66841,14.23322 0.85518,30.42934 -8.52693,42.09811c-4.73869,5.89363 -11.54171,9.08793 -17.91586,12.63194c-1.8692,1.03927 -3.51872,2.46938 -5.45473,3.37819c-2.16125,1.01454 -4.61044,1.3001 -6.79719,2.25843c-6.04818,3.10793 -12.11249,3.29077 -18.75469,4.23564c-5.94516,0.84571 -11.98051,1.71949 -18.00349,1.84008c-11.05945,0.22141 -22.44453,-1.24696 -33.4798,-1.87124c-6.74885,-0.38179 -13.15831,-1.32068 -19.80083,-2.5327c-5.94865,-1.08541 -10.85102,-1.73211 -16.16426,-4.6976c-4.8994,-2.15817 -8.97253,-3.79858 -12.65536,-7.8439c-1.04734,-1.15042 -1.76169,-2.56736 -2.72234,-3.79109c-1.21326,-1.54552 -2.9343,-2.74419 -3.79469,-4.51064c-1.21963,-2.50401 -0.88411,-5.62512 -0.73107,-8.29027c0.24252,-4.22332 0.53625,-9.44006 2.50987,-13.38418c0.5311,-1.06136 1.66048,-1.72318 2.27652,-2.73759c1.12787,-1.85722 0.77433,-4.30037 1.53835,-6.33449c1.08661,-2.89299 3.30299,-5.0562 4.99862,-7.5527c1.34774,-1.98431 2.43507,-4.14225 3.84512,-6.08278c1.41496,-1.94728 2.74241,-4.04054 4.61224,-5.55637c0.09211,-0.07467 0.18619,-0.14617 0.28205,-0.2148c-2.66963,-1.41003 -5.17691,-2.74589 -6.97242,-3.59127c-12.87706,-10.17301 -25.54567,-22.84479 -33.47291,-37.38622c-4.15685,-7.62516 -6.85623,-15.691 -9.37231,-23.89507l-1.78422,0.32354c-2.93964,-0.13671 -5.87671,-0.29845 -8.81484,-0.4636c0,0 -2.62198,-0.14738 -3.62795,-2.27151c-3.45791,0.81041 -6.79296,1.97811 -10.50716,2.14965c-13.09321,0.60471 -28.48238,0.41549 -39.67137,-7.70083c-2.0627,-1.49624 -3.71466,-3.4893 -5.57198,-5.23394c-18.94664,-16.59883 -38.35691,-36.26347 -47.75456,-60.22845c-5.01852,-12.79775 -5.56408,-27.99075 -4.37873,-41.52617c0.32469,-3.70757 1.46502,-7.29976 2.05784,-10.97401c0.46667,-2.89233 0.5291,-5.85333 1.18226,-8.70934c0.10617,-0.46424 5.08855,-15.24385 5.24521,-15.70976c3.22058,-6.0006 6.56996,-11.63614 10.26526,-17.35607c2.07117,-3.20594 4.3104,-7.67716 6.34562,-10.38887c1.34141,-1.78728 3.10997,-3.20987 4.67093,-4.80898c7.87846,-8.07104 16.00173,-15.87378 25.75528,-21.68515c13.48029,-8.03185 29.85992,-11.59269 44.59482,-16.56702c8.272,-2.79253 15.98307,-6.68414 24.59946,-8.31072c11.17788,-2.07316 22.80475,-4.93626 34.20507,-5.33054c2.96303,-0.10248 5.92039,0.33054 8.88033,0.50049c8.59746,0.49362 17.30105,1.00257 25.84184,2.14906c10.7535,1.44352 21.58505,5.05287 31.99606,8.07035c8.17893,2.37054 16.68592,4.26756 24.73161,7.04485c12.9225,4.46071 26.16933,10.26673 38.01258,17.03314c9.9461,6.35059 19.62784,13.16768 28.65643,20.80053c7.19129,6.07959 11.64584,14.80238 16.65632,22.57541c10.39918,16.13279 17.8301,33.10566 24.26978,51.17975c2.82339,7.92436 5.66562,15.91004 7.14714,24.21342c1.17083,6.62443 2.98041,14.08056 3.64112,20.7638c0.58418,5.90904 -0.66423,12.33007 -0.99862,18.27042c-1.47629,26.22647 -6.16669,54.90211 -23.19225,75.95676c-7.20985,8.91607 -16.95383,15.76296 -26.78257,21.42383c-3.09083,1.76885 -6.28001,3.45121 -9.54591,5.03856c0.47476,0.72852 0.8875,1.37349 1.15177,1.7806zM122.18019,320.02377c-1.12432,0.43981 -2.43599,0.55812 -3.37295,1.31945c-1.55859,1.26645 -6.08881,8.9347 -6.6103,9.7027c-1.32795,1.95565 -3.30588,3.56944 -4.07306,5.80539c-1.08268,3.15543 -0.34902,4.30896 -2.0036,7.33443c-0.53783,0.98346 -1.65594,1.56902 -2.18162,2.55902c-0.42099,0.79285 -0.34191,1.76403 -0.57427,2.63114c-0.63837,2.3822 -0.86707,4.86805 -1.00176,7.33062c-0.01378,0.25191 -0.34014,3.74748 -0.04802,4.22934c0.67442,1.11245 1.89964,1.78773 2.72893,2.79007c0.89217,1.07833 1.49896,2.37712 2.41884,3.43191c2.72308,3.12244 6.45302,4.29203 10.14663,5.91905c4.52659,2.67105 8.69615,2.9815 13.86073,3.92416c2.92608,0.53408 9.31817,1.74614 12.05079,2.0366c6.78192,0.72088 13.71418,0.7656 20.52542,1.14847c6.26146,0.35196 12.78096,1.2153 19.05266,1.08168c5.64524,-0.12027 11.29569,-0.95493 16.86818,-1.74695c5.69696,-0.80971 11.23944,-0.73094 16.3501,-3.49867c2.37618,-1.01382 5.0099,-1.37432 7.33797,-2.49422c1.65076,-0.79409 3.01566,-2.08949 4.61085,-2.99002c5.35953,-3.02561 11.2634,-5.44931 15.27885,-10.46456c8.1843,-10.22212 10.79292,-26.40515 6.11985,-38.69259c-0.75527,-1.98591 -3.11881,-2.8863 -4.69259,-4.31371c-0.781,-1.15191 -1.43697,-2.72823 -2.34473,-3.87275c-12.33206,5.25767 -25.46997,9.15651 -38.35539,11.27982c-14.69582,2.42165 -30.37766,1.24529 -45.13472,0.11671c-8.30039,-0.63479 -16.50248,-1.48202 -24.68556,-2.9982c-2.99972,-0.55579 -6.11202,-0.69289 -8.99456,-1.69197c-0.58857,-0.20399 -1.2461,-0.46515 -1.95513,-0.77022c-0.66049,0.6079 -1.32155,0.89326 -1.32155,0.89326z" fill="#000000"/><path d="M123.45682,319.10858c0.70904,0.30507 1.36663,0.5661 1.9552,0.77009c2.88254,0.99907 5.996,1.13395 8.99572,1.68974c8.18309,1.51617 16.39605,2.34997 24.69643,2.98476c14.75706,1.12857 30.51134,2.31211 45.20716,-0.10954c12.88542,-2.12332 26.0286,-6.01367 38.36066,-11.27135c0.90776,1.14452 1.565,2.72364 2.346,3.87554c1.57377,1.42741 3.93865,2.33135 4.69391,4.31726c4.67307,12.28744 2.06579,28.49702 -6.11851,38.71913c-4.01545,5.01526 -9.9233,7.45024 -15.28283,10.47585c-1.59518,0.90052 -2.96218,2.19974 -4.61294,2.99383c-2.32807,1.11991 -4.96519,1.48532 -7.34138,2.49914c-5.11067,2.76773 -10.66477,2.69973 -16.36173,3.50943c-5.57249,0.79202 -11.24256,1.63439 -16.88779,1.75467c-6.27169,0.13362 -12.81695,-0.73229 -19.07841,-1.08425c-6.81124,-0.38287 -13.76118,-0.43902 -20.5431,-1.15988c-2.73263,-0.29046 -9.13048,-1.50943 -12.05656,-2.04351c-5.16459,-0.94266 -9.33836,-1.26046 -13.86495,-3.93151c-3.6936,-1.62702 -7.42593,-2.80278 -10.14902,-5.92522c-0.91988,-1.05479 -1.52741,-2.35616 -2.41958,-3.4345c-0.82928,-1.00234 -2.05501,-1.67977 -2.72942,-2.79222c-0.29213,-0.48187 0.03375,-3.98012 0.04753,-4.23203c0.13469,-2.46257 0.3629,-4.9532 1.00127,-7.33541c0.23236,-0.8671 0.15321,-1.84005 0.5742,-2.6329c0.52568,-0.99001 1.64377,-1.57733 2.18162,-2.56079c1.65457,-3.02546 0.92128,-4.18429 2.00396,-7.33972c0.76719,-2.23595 2.74591,-3.85437 4.07385,-5.81002c0.52149,-0.768 5.05429,-8.44451 6.61289,-9.71096c0.93695,-0.76134 2.24946,-0.88153 3.37377,-1.32135c0,0 0.66156,-0.28638 1.32204,-0.89429z" data-paper-data="{&quot;noHover&quot;:false,&quot;origItem&quot;:[&quot;Path&quot;,{&quot;applyMatrix&quot;:true,&quot;segments&quot;:[[[124.68911,285.34231],[0,0],[-1.09786,0.50222]],[[121.39553,286.84898],[0.89275,-0.81272],[-1.48506,1.35193]],[[115.34019,296.90738],[0.47757,-0.79606],[-1.2161,2.0271]],[[111.59936,302.9322],[0.64049,-2.27548],[-0.90388,3.21122]],[[110.01055,310.36752],[1.48217,-3.11355],[-0.48179,1.01209]],[[107.97599,313.04494],[0.46929,-1.01795],[-0.37583,0.81523]],[[107.5503,315.70416],[0.18333,-0.87877],[-0.50367,2.41427]],[[106.96153,323.07945],[-0.00373,-2.46625],[0.00038,0.25229]],[[107.15095,327.30483],[-0.31871,-0.46472],[0.73579,1.07285]],[[110.03217,329.93734],[-0.88423,-0.95422],[0.95128,1.02656]],[[112.63981,333.2281],[-0.97763,-1.0015],[2.89403,2.96469]],[[123.10264,338.56836],[-3.77909,-1.41716],[4.66936,2.4128]],[[137.16175,341.70843],[-5.20935,-0.65132],[2.95144,0.36902]],[[149.30785,343.0655],[-2.74462,-0.13664],[6.81169,0.33912]],[[169.86537,343.06022],[-6.82199,0],[6.27134,0]],[[188.94871,343.07091],[-6.25431,0.48539],[5.62959,-0.43691]],[[205.69226,340.38004],[-5.51926,1.10351],[5.64254,-1.12816]],[[221.82023,335.96926],[-4.94728,3.05019],[2.31554,-1.14558]],[[229.00666,333.06715],[-2.26155,1.2488],[1.60359,-0.88548]],[[233.44243,329.82307],[-1.54213,0.98863],[5.18128,-3.32163]],[[248.1099,318.51751],[-3.72765,5.23271],[7.59771,-10.66533]],[[252.04858,279.54244],[5.35531,12.00581],[-0.86553,-1.94039]],[[247.12129,275.49889],[1.6514,1.33684],[-0.84442,-1.10626]],[[244.56291,271.76384],[0.97056,1.09177],[-12.01755,5.94149]],[[206.90102,285.17849],[12.74594,-2.84314],[-14.53675,3.2426]],[[161.84399,287.82811],[14.79714,0.29859],[-8.32293,-0.16795]],[[137.02908,286.22006],[8.25528,1.05452],[-3.02618,-0.38656]],[[127.95374,285.03556],[2.93407,0.83572],[-0.59909,-0.17064]],[[125.95845,284.37629],[0.72504,0.2648],[-0.62533,0.64401]]],&quot;closed&quot;:true}]}" fill="#10ff00"/><path d="M235.361,307.05655c-10.54301,4.16239 -21.61878,7.27094 -32.45522,9.0762c-13.99286,2.33111 -29.06213,1.10591 -43.10947,0.03162c-8.01362,-0.61285 -15.91111,-1.46686 -23.81609,-2.88381c-2.57495,-0.46155 -5.26197,-0.49746 -7.73213,-1.35874c-2.50485,-0.87338 -4.65336,-2.55398 -7.00663,-3.77839c-3.18965,-1.65957 -6.52652,-3.02758 -9.79047,-4.53574c-11.55048,-9.47313 -23.28637,-20.87731 -30.47374,-34.16486c-4.86056,-8.98589 -7.60129,-18.57329 -10.54442,-28.28401c-1.30457,-4.30439 -3.07414,-8.49285 -3.98386,-12.89764c-1.31689,-6.37631 -0.84954,-14.5036 -0.12216,-20.91258c1.15071,-10.1391 5.32317,-19.38328 9.75442,-28.44065c5.75476,-11.81145 13.45902,-23.41727 24.43371,-31.06793c3.3841,-2.35912 7.50521,-3.48612 11.11725,-5.47881c8.00535,-4.41637 15.85528,-9.51023 24.79589,-12.03077c4.97446,-1.4024 8.13365,-0.72359 13.28021,-0.42634c6.08556,0.35148 11.24775,0.75988 17.07769,2.27262c0,0 4.03986,1.13303 5.10593,-2.98109c1.06607,-4.11412 -3.04475,-5.17679 -3.04475,-5.17679c-6.33697,-1.63969 -12.12321,-2.1529 -18.70955,-2.51354c-6.45892,-0.35367 -9.54678,-1.023 -15.90526,0.70582c-9.62769,2.61769 -18.06339,8.04868 -26.66007,12.79637c-3.77463,2.08461 -8.0358,3.27921 -11.57312,5.74514c-12.31246,8.58325 -20.955,21.15115 -27.45545,34.40822c-4.82162,9.87144 -9.3055,19.95164 -10.55385,30.99797c-0.81726,7.23166 -1.29879,16.26174 0.15607,23.4796c0.0801,0.39742 2.30156,7.6496 3.52673,11.65121c-1.43061,-0.09996 -2.9298,-0.11427 -4.36121,-0.19716c-0.69277,-2.81353 -3.88446,-2.99458 -3.88446,-2.99458l-1.52839,-0.00361c-4.42365,0.67051 -8.38099,2.49292 -12.91184,2.6771c-8.83195,0.35903 -18.1319,0.66391 -26.51737,-2.68524c-1.60323,-0.64033 -6.56301,-2.48299 -7.92406,-3.49526c-1.75214,-1.30315 -3.14439,-3.03378 -4.71608,-4.54968c-18.02049,-15.79326 -36.52665,-34.34226 -45.58433,-57.0936c-2.41281,-6.06057 -2.91673,-12.43894 -3.64481,-18.85103c-1.16611,-10.26969 0.19087,-19.08062 1.81182,-29.19048c0.43329,-2.70242 0.46504,-5.47395 1.07141,-8.14287c1.10863,-4.87958 3.18522,-9.49187 4.76034,-14.24144c4.75953,-8.59196 9.62636,-18.01996 15.53229,-25.928c1.14357,-1.53124 2.69266,-2.71502 4.03235,-4.07799c7.35044,-7.47812 14.8171,-14.81424 23.87566,-20.24268c12.98879,-7.78365 29.01067,-11.14454 43.2245,-15.94915c7.8311,-2.6471 15.18636,-6.49742 23.34962,-7.97998c10.75605,-1.99492 21.98886,-4.81671 32.95939,-5.19613c2.70026,-0.09339 5.39629,0.33023 8.0934,0.49072c8.31261,0.4946 16.72361,0.96745 24.98577,2.0537c10.39743,1.36697 20.93528,4.92835 31.00129,7.8458c20.8916,6.05506 41.7425,12.31082 60.72922,23.19683c9.4824,6.06253 18.65596,12.57767 27.31485,19.79683c6.61709,5.51686 10.68678,13.82603 15.2659,20.92752c10.04725,15.58166 17.18773,31.98497 23.41204,49.44343c2.65944,7.45942 5.41621,15.02284 6.784,22.84602c1.11786,6.32471 2.85026,13.39827 3.52606,19.79452c0.58667,5.55262 -0.68637,11.68849 -1.00099,17.29361c-1.37385,24.47559 -5.51228,51.39713 -21.33306,71.11984c-6.48599,8.08565 -15.512,14.30703 -24.40015,19.39072c-3.98306,2.29388 -8.14996,4.43236 -12.43957,6.3927c-0.08084,-0.02731 -0.1611,-0.05571 -0.24057,-0.08548l-3.09614,-0.30071c0,0 -4.03969,-0.22595 -4.45855,3.70265z" data-paper-data="{&quot;noHover&quot;:false,&quot;origItem&quot;:[&quot;Path&quot;,{&quot;applyMatrix&quot;:true,&quot;segments&quot;:[[241.17307,262.06022],[[244.28076,262.18712],[0,0],[0.08102,0.02526]],[[244.52573,262.25898],[-0.08225,-0.02273],[4.17283,-2.19801]],[[256.58435,255.18091],[-3.84804,2.5138],[8.58883,-5.5745]],[[279.85284,234.45796],[-6.02198,8.43692],[14.68895,-20.57953]],[[297.15383,162.27176],[0.00195,24.51412],[-0.00045,-5.61394]],[[297.18217,144.95405],[0.89737,5.51094],[-1.03371,-6.34824]],[[292.55075,125.39421],[1.47106,6.252],[-1.80469,-7.73409]],[[284.49609,102.97172],[3.07389,7.29841],[-7.19432,-17.08161]],[[258.35186,54.9357],[10.9059,14.99322],[-4.97046,-6.8333]],[[241.94015,34.90462],[6.91628,5.1368],[-9.0504,-6.72183]],[[213.56495,16.67948],[9.8077,5.5208],[-19.56774,-9.80326]],[[151.64949,-3.06299],[21.1985,4.87302],[-10.21387,-2.34792]],[[120.26783,-9.15531],[10.45776,0.78128],[-8.3101,-0.62084]],[[95.21472,-9.80423],[8.32727,0.02729],[-2.70186,-0.00885]],[[87.10918,-9.84048],[2.69076,-0.24479],[-10.93194,0.99452]],[[54.50374,-2.8064],[10.62714,-2.59543],[-8.06719,1.93837]],[[31.64563,6.46748],[7.67019,-3.08243],[-13.92178,5.59477]],[[-10.60578,24.8084],[12.53148,-8.50035],[-8.73963,5.92826]],[[-33.30269,46.35193],[6.91916,-7.87886],[-1.26109,1.43601]],[[-37.09906,50.64842],[1.05583,-1.59301],[-5.45279,8.22702]],[[-51.14841,77.39957],[4.26982,-8.84554],[-1.30608,4.83048]],[[-55.10083,91.88174],[0.83303,-4.93411],[-0.45563,2.69875]],[[-55.71306,100.0697],[0.28094,-2.72248],[-1.05101,10.18489]],[[-55.88286,129.30774],[-1.74063,-10.18806],[1.0868,6.36112]],[[-51.18595,147.91913],[-2.74914,-5.9156],[10.32027,22.20714]],[[-2.47526,202.34415],[-18.87845,-14.75701],[1.65429,1.4253]],[[2.48762,206.62006],[-1.82251,-1.20276],[1.41571,0.9343]],[[10.59396,209.66294],[-1.63664,-0.54934],[8.56022,2.87324]],[[37.21582,210.85014],[-8.79788,0.85414],[4.51337,-0.43818]],[[49.95496,207.45045],[-4.37905,0.91772],[0,0]],[51.48076,207.36792],[[55.52535,210.13813],[-0.84958,-2.77022],[1.4338,0.00243]],[[59.82684,210.16712],[-1.43397,-0.01951],[-1.44783,-3.92655]],[[55.64751,198.72836],[0.10228,0.3923],[-1.85765,-7.12483]],[[54.16686,175.28548],[-0.41011,7.26613],[0.62644,-11.09898]],[[62.95763,143.72565],[-4.26001,10.12648],[5.7462,-13.601]],[[88.44997,107.7908],[-11.81134,9.26073],[3.39335,-2.66057]],[[99.69429,101.39498],[-3.65169,2.29317],[8.31667,-5.22267]],[[125.62597,87.11536],[-9.4656,3.1539],[6.25142,-2.08295]],[[141.48076,85.52176],[-6.46859,0.00938],[6.59621,-0.00956]],[[160.31425,86.98891],[-6.41901,-1.28146],[0,0]],[[163.64823,91.98987],[0.83349,-4.16747],[-0.83349,4.16747]],[[158.64726,95.32385],[0,0],[-5.90565,-1.18316]],[[141.48076,94.02176],[6.09569,0.00939],[-5.15513,-0.00794]],[[128.25862,95.19739],[4.88791,-1.67937],[-8.78506,3.01834]],[[104.21303,108.59435],[7.74487,-4.85869],[-3.49451,2.19226]],[[93.43462,114.6758],[3.24637,-2.54533],[-10.52801,8.25453]],[[70.79153,147.02414],[5.0828,-12.11581],[-3.91594,9.29179]],[[62.64081,175.95036],[0.57986,-10.1877],[-0.36653,6.4397]],[[63.9294,196.81517],[-1.67267,-6.29235],[1.15549,4.34679]],[[68.62565,209.46478],[-1.54409,-4.22439],[3.48348,9.53024]],[[80.73041,237.10691],[-5.35721,-8.69894],[7.92177,12.86322]],[[113.05819,269.50434],[-12.06393,-8.80996],[3.34346,1.3226]],[[123.0841,273.48341],[-3.27776,-1.47794],[2.41829,1.09041]],[[130.28924,276.86272],[-2.54992,-0.73142],[2.51459,0.72129]],[[138.08278,277.78562],[-2.5968,-0.31631],[7.97204,0.97107]],[[162.01548,279.32984],[-8.03538,-0.16214],[14.08549,0.28423]],[[205.04348,276.88394],[-13.83998,3.11275],[10.71804,-2.41059]],[[236.93056,266.00615],[-10.29279,4.74753],[0.19772,-3.94592]]],&quot;closed&quot;:true}]}" fill="#ffffff"/></g><path d="M102.61537,251.77176c0,-2.34721 1.90279,-4.25 4.25,-4.25c2.34721,0 4.25,1.90279 4.25,4.25c0,2.34721 -1.90279,4.25 -4.25,4.25c-2.34721,0 -4.25,-1.90279 -4.25,-4.25z" fill="#000000" stroke-width="0.5"/><path d="M198.84614,257.31022c0,-2.34721 1.90279,-4.25 4.25,-4.25c2.34721,0 4.25,1.90279 4.25,4.25c0,2.34721 -1.90279,4.25 -4.25,4.25c-2.34721,0 -4.25,-1.90279 -4.25,-4.25z" fill="#000000" stroke-width="0.5"/><path d="M165.9475,308.77697c-2.11932,2.11932 -4.23864,1.24948 -5.30396,0.55249c-3.84913,0 -7.69827,0 -11.5474,0c0,0 -4.25,0 -4.25,-4.25c0,-4.25 4.25,-4.25 4.25,-4.25c4.38462,0 8.76923,0 13.15385,0l3.69751,1.9371c0,0 3.0052,3.0052 0,6.01041z" fill="#000000" stroke-width="0.5"/></g></g></svg>