<svg version="1.1" xmlns="http://www.w3.org/2000/svg" xmlns:xlink="http://www.w3.org/1999/xlink" width="88.54988" height="115.93403" viewBox="0,0,88.54988,115.93403"><defs><linearGradient x1="337.86532" y1="134.69823" x2="337.86532" y2="181.60692" gradientUnits="userSpaceOnUse" id="color-1"><stop offset="0" stop-color="#000000"/><stop offset="1" stop-color="#ffd1a6"/></linearGradient><linearGradient x1="337.87385" y1="91.89024" x2="337.87385" y2="157.96779" gradientUnits="userSpaceOnUse" id="color-2"><stop offset="0" stop-color="#1a1a1a"/><stop offset="1" stop-color="#ffffff"/></linearGradient></defs><g transform="translate(-292.14976,-82.21626)"><g data-paper-data="{&quot;isPaintingLayer&quot;:true}" fill-rule="nonzero" stroke="none" stroke-linecap="butt" stroke-linejoin="miter" stroke-miterlimit="10" stroke-dasharray="" stroke-dashoffset="0" style="mix-blend-mode: normal"><path d="M292.14976,198.1503v-115.93403h87.41058v115.93403z" fill="#000000" stroke-width="0"/><path d="M314.95439,147.60979c-0.52857,-0.71737 -0.52857,-1.60463 -0.52857,-1.60463l0.01027,-0.70143c0.38016,-3.61772 1.36186,-7.26673 4.79805,-9.29976c2.63755,-1.56051 6.40662,-1.28689 9.33127,-1.28789c6.12236,-0.00211 12.2702,-0.02222 18.34632,0.72987c3.94165,0.44296 8.32139,0.52925 11.30264,3.65892c1.04085,1.09267 2.36786,4.89226 2.71139,6.31283c1.45769,6.02785 1.49526,12.94627 1.49526,19.11578c0,4.82567 1.56074,14.02322 -3.84238,16.76668c-1.08568,0.55126 -2.42907,0.18304 -3.64601,0.22342c-4.02768,0.13362 -8.08466,0 -12.11467,0c-6.87241,0 -13.92619,0.19556 -20.74755,-0.73305c-2.46131,-0.33506 -5.72814,-0.78549 -7.52803,-2.76495c-2.20274,-2.42248 -1.2876,-7.25692 -1.05874,-10.12864c0.54034,-6.77981 0.57461,-13.55624 1.47075,-20.28715z" fill="url(#color-1)" stroke-width="0.5"/><path d="M313.24881,122.52648c4.17395,-8.66923 8.51799,-16.8505 15.16046,-23.90815c2.08789,-2.2184 4.84254,-6.48972 8.27044,-6.7155c4.16862,-0.27457 6.2578,4.00684 8.20248,6.78274c3.16154,4.74442 4.9985,9.98837 7.9142,14.84472c3.81245,6.34995 7.5314,12.5372 10.61151,19.31486l0.38031,0.95005c2.52283,1.81485 5.08309,3.58835 7.71169,5.30076c2.86527,1.86658 9.59361,5.84297 9.18163,10.08398c-0.09312,0.95856 -4.56372,4.82948 -5.31899,5.51609c-0.96627,0.73561 -1.72094,1.91112 -2.8988,2.20684c-4.68867,1.17717 -9.79116,-3.79642 -13.17791,-6.00523c-4.39594,-2.867 -8.84262,-5.59405 -13.14592,-8.60568c-1.88018,-1.31583 -2.56505,-1.5723 -4.30865,-3.11136c-0.31704,-0.27984 -0.40857,-0.95621 -0.83145,-0.95819c-0.49534,-0.00233 -0.71321,0.70374 -1.14363,0.94893c-1.69606,0.96614 -3.4754,1.77931 -5.23771,2.61854c-4.05496,1.93103 -7.9199,4.26519 -12.0171,6.12756c-4.57211,2.75245 -9.28748,4.91839 -14.02549,7.3693c-2.0546,1.06282 -4.7809,2.96125 -7.31709,2.64624c-6.05466,-0.75204 -7.51726,-7.92262 -5.10549,-12.61796c0.17946,-0.34938 0.72203,-1.00146 1.389,-1.73661l0.30706,-1.07202c2.32379,-2.9838 4.26451,-6.05465 7.39001,-8.32467c1.26442,-0.91833 2.59945,-1.7624 3.97796,-2.55518c1.07067,-3.21475 2.53457,-5.99102 4.03147,-9.10006z" fill="url(#color-2)" stroke-width="0.5"/><path d="M320.40949,150.0457c0.07065,-0.14273 0.14653,-0.28205 0.22698,-0.4184l-0.09328,-0.03731l0.92854,-2.32136c0.35452,-0.94948 1.26971,-1.62559 2.34282,-1.62559c1.24305,0 2.27422,0.90723 2.46747,2.09567l0.46729,2.57008l-0.08514,0.01548l0.11537,0.20722c0.00337,0.94583 0.00673,1.89165 0.0101,2.83748c0,0 0,0.18363 -0.04977,0.45136c0.00859,0.0424 0.0161,0.0852 0.02251,0.12835l0.46833,2.80997l-0.06739,0.01123c0.03096,0.06452 0.06192,0.12904 0.09289,0.19356l-0.05897,0.2062h0.06749v2.85051c0,1.38071 -1.11929,2.5 -2.5,2.5c-0.69036,0 -1.31536,-0.27982 -1.76777,-0.73223l-1.90034,-1.90034l-1.13267,-3.06177c0,0 -0.31014,-1.24057 0.40044,-2.16903v-1.52536c0.01504,-1.02858 -0.41125,-2.16381 0.04511,-3.08574z" fill="#000000" stroke-width="0.5"/><path d="M342.97603,149.09553c0.07065,-0.14273 0.14653,-0.28205 0.22698,-0.4184l-0.09328,-0.03731l0.92854,-2.32136c0.35452,-0.94948 1.26971,-1.62559 2.34282,-1.62559c1.24305,0 2.27422,0.90723 2.46747,2.09567l0.46729,2.57008l-0.08514,0.01548l0.11537,0.20722c0.00337,0.94583 0.00673,1.89165 0.0101,2.83748c0,0 0,0.18363 -0.04977,0.45136c0.00859,0.0424 0.0161,0.0852 0.02251,0.12835l0.46833,2.80997l-0.06739,0.01123c0.03096,0.06452 0.06192,0.12904 0.09289,0.19356l-0.05897,0.2062h0.06749v2.85051c0,1.38071 -1.11929,2.5 -2.5,2.5c-0.69036,0 -1.31536,-0.27982 -1.76777,-0.73223l-1.90034,-1.90034l-1.13267,-3.06177c0,0 -0.31014,-1.24057 0.40044,-2.16903v-1.52536c0.01504,-1.02858 -0.41125,-2.16381 0.04511,-3.08574z" fill="#000000" stroke-width="0.5"/><path d="M346.74321,172.84747c0,2.27559 -2.07133,2.47986 -2.44319,2.49819c-4.54065,1.06208 -8.84723,2.43373 -13.28126,3.91174c0,0 -2.37171,0.79057 -3.16228,-1.58114c-0.79057,-2.37171 1.58114,-3.16228 1.58114,-3.16228c4.66824,-1.55608 9.21412,-2.99654 14.00589,-4.10249l0.79969,-0.06402c0,0 2.5,0 2.5,2.5z" fill="#000000" stroke-width="0.5"/></g></g></svg>