<svg version="1.1" xmlns="http://www.w3.org/2000/svg" xmlns:xlink="http://www.w3.org/1999/xlink" width="1398.77018" height="1053.46811" viewBox="0,0,1398.77018,1053.46811"><defs><linearGradient x1="-187.52887" y1="369.54409" x2="1022.62117" y2="-80.82124" gradientUnits="userSpaceOnUse" id="color-1"><stop offset="0" stop-color="#000000" stop-opacity="0"/><stop offset="1" stop-color="#000000"/></linearGradient></defs><g transform="translate(330.13427,382.37263)"><g data-paper-data="{&quot;isPaintingLayer&quot;:true}" fill-rule="nonzero" stroke="none" stroke-linecap="butt" stroke-linejoin="miter" stroke-miterlimit="10" stroke-dasharray="" stroke-dashoffset="0" style="mix-blend-mode: normal"><path d="M-191.09922,411.50753v-461.01502h694.19863v461.01502z" data-paper-data="{&quot;index&quot;:null}" fill="#1c261a" stroke-width="0"/><path d="M-40.13173,390.27904l-29.53784,-149.88682l597.26335,-115.41887c0,0 153.61854,320.54771 94.83656,322.98053c-122.59065,5.07369 -662.56207,-57.67484 -662.56207,-57.67484z" data-paper-data="{&quot;index&quot;:null}" fill="#10140e" stroke-width="0"/><path d="M641.5024,173.6966c-1.38071,0 -2.5,-1.11929 -2.5,-2.5c0,-1.38071 1.11929,-2.5 2.5,-2.5c1.38071,0 2.5,1.11929 2.5,2.5c0,1.38071 -1.11929,2.5 -2.5,2.5z" data-paper-data="{&quot;index&quot;:null}" fill="#252525" stroke-width="0.5"/><path d="M-330.13427,57.50005c0,-6.90356 5.59644,-12.5 12.5,-12.5c6.90356,0 12.5,5.59644 12.5,12.5c0,6.90356 -5.59644,12.5 -12.5,12.5c-6.90356,0 -12.5,-5.59644 -12.5,-12.5z" fill="#262429" stroke-width="0.5"/><path d="M-141.51414,671.09549l-92.02954,-603.1028l1210.15005,-450.36531l92.02954,603.1028z" fill="url(#color-1)" stroke-width="0"/><path d="M280.11365,242.33239c2.25,-3 5.25,-0.75 5.25,-0.75l1.1694,0.90267c2.73617,-1.5022 5.32714,-3.10551 7.55599,-4.63394c4.70124,-3.22386 6.31474,-5.71664 10.23288,-9.8368c2.28087,-2.39847 5.00817,-4.40574 6.97246,-7.06969c7.01997,-9.52042 12.22388,-19.86463 16.74014,-30.67396c1.40787,-3.36963 3.68527,-6.38654 4.70936,-9.89193c1.07396,-3.67607 1.58113,-7.49452 2.38843,-11.2382c1.7407,-5.23508 4.30751,-11.45704 5.6189,-16.83447c0.16069,-0.6589 1.29594,-8.51287 1.66539,-10.62437c2.7106,-15.49188 3.32989,-34.04498 -3.80451,-48.54046c-2.0199,-4.10398 -3.87381,-8.29991 -6.15549,-12.26432c-2.96992,-5.16022 -7.84303,-9.16129 -10.7919,-14.301c-1.2027,-2.09624 -1.79377,-4.54335 -3.21308,-6.49944c-1.41928,-1.95606 -3.63345,-3.21525 -5.18198,-5.07068c-1.59368,-1.90953 -2.79879,-4.11232 -4.19818,-6.16849c-8.64736,-8.16474 -18.01151,-13.29474 -28.66177,-18.33219c-3.94262,-1.86481 -7.64707,-4.2665 -11.73485,-5.78699c-3.67712,-1.36774 -7.62432,-1.90604 -11.31968,-3.22372c-8.23208,-2.93538 -15.33078,-5.07197 -24.14118,-4.71031c-2.44934,0.10055 -4.88539,0.41741 -7.33178,0.57415c-0.68147,0.04367 -1.44419,-0.29127 -2.04842,0.02685c-4.20568,2.21427 -9.15197,6.35018 -12.46939,9.7033c-0.0667,0.06741 -0.13168,0.13739 -0.19518,0.20957c4.90564,0.05423 9.28681,0.43955 12.80479,4.81903c0.58944,0.73378 0.96131,1.56016 1.19347,2.43283c2.54346,0.78642 5.39741,2.02046 7.58658,2.74772c0,0 3.55757,1.18585 2.37171,4.74341c-1.18586,3.55756 -4.74341,2.37171 -4.74341,2.37171c-1.59893,-0.53498 -3.25645,-0.8812 -4.87136,-1.36442c0.0236,5.96681 -0.00222,11.93512 -0.03906,17.90141c-0.99912,3.99651 -0.17882,7.51759 -0.82633,11.51648c-0.32845,2.02846 -1.24133,3.92438 -1.67119,5.9338c-0.81115,3.79174 -0.55542,7.75395 -1.29504,11.56028c-1.83833,9.46066 -6.34137,17.97964 -14.3587,23.65299c-1.23363,0.87296 -2.859,0.98153 -4.29948,1.43861c-6.45027,2.04675 -13.16799,3.90515 -19.87666,4.92288c-4.60265,0.69823 -9.24511,1.13246 -13.88775,1.47575c-0.44126,0.03263 -0.99678,-0.52929 -1.30965,-0.21641c-0.31287,0.31288 0.25039,0.86849 0.21641,1.30965c-0.1696,2.20198 -0.46018,4.39573 -0.82365,6.57412c-0.56545,3.38898 -1.76275,6.64173 -2.64869,9.96138c-1.25536,6.28029 -1.45273,14.55395 -6.71543,19.10005c-2.2806,1.97007 -4.71807,3.94181 -7.54904,4.97519c-2.69193,0.98263 -5.6884,0.74192 -8.54963,0.90126c-3.72629,0.20752 -7.50169,0.26549 -11.26852,0.12192c0.11832,2.02907 0.27965,4.05037 0.72653,6.02712c2.64417,11.69632 6.84972,23.75837 11.87179,34.61589c2.88237,6.36705 8.06911,11.48828 12.71135,16.64604c1.83703,2.04103 5.48429,6.18354 7.13235,7.43413c4.18378,3.17476 10.82958,5.88566 15.53513,8.05605c4.80696,2.21715 9.76171,5.01801 14.84012,6.50451c13.84147,4.05153 28.39869,4.86239 42.62615,6.39167c6.76435,0.72708 12.56401,1.62347 19.37984,1.61573c3.25056,0.04985 6.35264,-1.38509 9.5304,-2.07102c2.40392,-0.5189 4.92625,-0.3785 7.31438,-0.96581c2.30117,-0.56592 4.78027,-1.44813 7.28636,-2.52416c-0.40473,-0.92273 -0.5061,-2.16632 0.55069,-3.57537zM294.48541,248.33818c0.50984,0.6956 0.33979,1.73695 0.81818,2.45455c0.64183,0.96275 1.85733,1.4635 2.45455,2.45455c2.10918,3.50004 1.37824,7.93763 1.37824,11.78967c0,3.29687 0.47938,7.17383 -0.04842,10.41887c-0.58017,3.56706 -1.26771,3.3044 -2.91271,6.19063c-2.22824,3.90954 -3.95085,7.41615 -7.25467,10.70008c-1.38117,1.37285 -3.49415,1.85086 -4.86623,3.23281c-1.07503,1.08276 -1.65391,2.62956 -2.83894,3.59068c-1.45602,1.1809 -3.47599,1.47167 -5.02163,2.53258c-1.0332,0.66024 -1.9554,1.54003 -3.09961,1.98072c-1.18639,0.45694 -2.64688,0.0394 -3.7565,0.65991c-1.36334,0.76239 -1.92301,2.61465 -3.32626,3.30083c-1.74588,0.85372 -3.83993,0.63514 -5.72108,1.12322c-4.32034,1.12096 -8.30058,2.90985 -12.80716,3.36506c-4.12605,0.41677 -8.49064,0.01825 -12.64224,0.01825c-8.10656,0 -16.00236,-0.09266 -24.03657,-0.83096c-5.08504,-0.46729 -10.50979,-0.30687 -15.48652,-1.77905c-3.90466,-1.15504 -7.46709,-3.1527 -10.82976,-5.38344c-1.84235,-1.22949 -3.46702,-2.78603 -5.38755,-3.88943c-0.92702,-0.5326 -2.15681,-0.49023 -2.99037,-1.1597c-0.9881,-0.79359 -1.43138,-2.09848 -2.26017,-3.05724c-1.11633,-1.2914 -2.57046,-2.28963 -3.56263,-3.67869c-0.50128,-0.7018 -0.34744,-1.73191 -0.81818,-2.45455c-0.73668,-1.13088 -2.23705,-1.73423 -2.72915,-2.99097c-0.36798,-0.93976 -0.28545,-7.58454 -0.28545,-8.7987c0,-4.163 -0.61922,-9.60666 0.04842,-13.69159c0.298,-1.82329 1.23127,-3.48749 1.71357,-5.27091c1.51595,-5.60562 3.06208,-10.91709 5.55322,-16.16359c-5.01036,-2.27457 -11.09117,-4.9554 -15.25918,-8.13116c-2.23299,-1.7014 -5.89226,-5.859 -8.16706,-8.38669c-5.21495,-5.79468 -10.61423,-11.41112 -13.94634,-18.52034c-5.24248,-11.38209 -9.67615,-24.01251 -12.41408,-36.27622c-0.59081,-2.64635 -0.7147,-5.36572 -0.87887,-8.08089c-2.60162,-0.30367 -5.18035,-0.72227 -7.71662,-1.27342c-2.74414,-0.59633 -5.64843,-0.75855 -8.20042,-1.93042c-1.90631,-0.87538 -2.96919,-3.05763 -4.81844,-4.04787c-1.08373,-0.58032 -2.4678,-0.1718 -3.65532,-0.48967c-0.33419,-0.08945 -0.42493,-0.70457 -0.77076,-0.69506c-0.28925,0.00796 0.5864,0.42303 0.51035,0.70222c-0.46174,1.69515 -1.0063,3.43534 -2.0269,4.86541c-1.26397,1.77107 -2.75995,3.53329 -4.68745,4.54277c-1.90027,0.99522 -4.18157,1.03277 -6.31838,1.22124c-12.00358,1.05876 -19.9942,-3.6275 -28.66206,-11.24667c-1.94691,-1.97796 -4.26708,-3.64774 -5.84074,-5.93386c-3.78366,-5.49665 -4.05914,-12.25337 -3.76749,-18.63248c0.32858,-7.1868 -0.12833,-9.13133 2.61379,-16.05197c0.67809,-1.71138 1.89793,-3.1548 2.86178,-4.72311c3.74952,-6.10097 7.98391,-11.7635 13.88609,-16.06912c2.28155,-1.66438 4.79524,-3.03843 7.40667,-4.11365c2.00189,-0.82425 4.19926,-1.0572 6.31095,-1.53441c0.4286,-0.09686 1.05557,0.17512 1.30495,-0.18666c0.18519,-0.26865 -0.78378,-0.12013 -0.87817,-0.43247c-0.53807,-1.78028 -0.76773,-3.64984 -0.91598,-5.50374c-0.16217,-2.02778 -0.03803,-4.06867 -0.01219,-6.10277c0.13956,-10.98895 1.95449,-20.36888 5.17751,-30.78304c1.02307,-2.06352 4.96631,-10.03615 5.25998,-10.48867c3.90305,-6.01418 9.7531,-11.51777 14.68246,-16.67617c6.31593,-6.60938 13.14073,-12.89459 22.30208,-15.27691c4.08162,-1.06138 11.69659,-0.82635 15.9183,-0.82266c21.19008,0.01852 44.03339,7.26955 59.83129,21.6331c0.6368,0.24227 1.31191,1.05244 1.91038,0.72681c0.77546,-0.42192 0.59255,-1.69922 1.14396,-2.38865c2.20983,-2.76295 5.36424,-4.62453 8.20801,-6.72935c2.31129,-1.71071 4.54284,-3.60749 7.14078,-4.84008c1.21111,-0.57461 2.6617,-0.32524 3.99692,-0.44421c2.53853,-0.22619 5.07603,-0.49709 7.62288,-0.59115c9.75978,-0.36045 17.74051,1.85373 26.85881,5.10788c3.78487,1.35075 7.8244,1.91656 11.58941,3.32173c4.25952,1.58974 8.13617,4.06178 12.24602,6.00597c11.67856,5.52459 21.71564,11.2698 31.16581,20.25044c1.41599,2.07587 2.64,4.29661 4.24796,6.22759c1.65308,1.98517 3.97446,3.37761 5.49159,5.46853c1.51711,2.09087 2.21537,4.67295 3.49512,6.91696c2.97044,5.20858 7.90576,9.30968 10.9342,14.53728c2.41192,4.16338 4.37858,8.56999 6.48204,12.89741c7.74784,15.93946 7.33247,35.87204 4.37731,52.91409c-0.45353,2.61549 -1.47023,9.90377 -1.77302,11.14538c-1.33108,5.45817 -3.88364,11.68717 -5.66997,17.03214c-0.46524,2.18637 -2.36955,11.16519 -2.52066,11.67088c-1.09464,3.66336 -3.419,6.84643 -4.89177,10.37481c-4.78442,11.46229 -10.34806,22.46331 -17.84055,32.51385c-2.09472,2.80989 -4.9428,4.97089 -7.35926,7.50939c-4.52033,4.74864 -5.89914,7.03638 -11.41396,10.84493c-1.498,1.03453 -3.13445,2.08533 -4.86017,3.11621c0.36206,0.37759 0.69843,0.77597 1.00405,1.19295zM218.21705,41.15414c-1.3211,0.04392 -2.6477,0.172 -3.96703,0.17824c-4.18645,0.01982 -8.4048,-0.53603 -12.55948,-0.02087c-8.1339,1.00856 -16.76143,3.99421 -23.98579,7.76169c-3.94781,2.05877 -7.45999,4.86329 -11.23163,7.22941c-3.34808,2.10041 -7.29689,3.40689 -10.12946,6.16333c-1.63743,1.59341 -2.7545,3.64623 -4.16069,5.447c-4.25637,5.45072 -7.60178,9.58951 -10.86875,15.68722c-1.83077,3.38143 -3.18195,7.00825 -4.52222,10.61234c-1.51828,4.08277 -3.66844,7.96421 -4.67984,12.2011c-0.92764,3.88595 -0.98316,7.93018 -1.55929,11.88356c-1.87234,12.84788 -2.16429,25.41106 -0.60989,38.25018c3.83993,0.17889 7.6992,0.15095 11.58907,0.0163c2.13362,-0.07386 4.36575,0.21015 6.38687,-0.4775c1.88064,-0.63985 3.3965,-2.08911 4.91642,-3.3682c3.5883,-3.01973 3.74412,-11.30586 4.55161,-15.34105c1.5498,-5.81887 2.09738,-10.44873 3.40411,-16.21034c0.40948,-1.80546 0.54369,-3.92673 1.85277,-5.2358c1.89802,-1.89802 10.21958,-2.51462 12.06745,-2.71306c6.4692,-0.69473 12.78765,-1.47131 19.09549,-3.17381c2.36026,-0.63704 4.66465,-1.4663 7.00877,-2.16038c0.87152,-0.25805 1.91045,-0.14885 2.63657,-0.69555c6.12546,-4.6119 9.46765,-11.21888 10.86078,-18.63666c0.7185,-3.82565 0.49592,-7.79681 1.30365,-11.60462c0.39761,-1.87441 1.27642,-3.63242 1.60154,-5.52075c0.65914,-3.82842 -0.16229,-7.5033 0.81003,-11.3926c-0.04101,-5.30176 -0.0281,-10.60354 -0.0281,-15.90545c0,-0.51412 0.12465,-1.68924 0.21703,-2.9737zM122.31784,155.88836c-1.4245,-12.95261 -1.08072,-25.67758 0.81115,-38.65709c0.30063,-2.06257 1.54964,-11.9809 1.71344,-12.6619c0.49936,-2.07609 1.50182,-3.99783 2.2591,-5.99434c2.38414,-6.28568 4.432,-12.6013 7.60916,-18.53061c3.47121,-6.41713 7.05944,-11.07108 11.57909,-16.77047c1.68721,-2.12761 3.08636,-4.51613 5.04842,-6.39329c3.16031,-3.02354 7.43826,-4.60331 11.14327,-6.92758c1.13749,-0.71359 11.3853,-7.33696 11.7553,-7.52992c8.05973,-4.20311 17.59568,-7.46447 26.66364,-8.56989c1.35994,-0.16578 2.72608,-0.23328 4.09555,-0.24674c-0.48948,-0.52067 -0.85726,-1.271 -0.90072,-2.35229c-1.46536,-0.27349 -2.94674,-0.75099 -4.40378,-0.91858c-6.09911,-5.16927 -13.40039,-11.12623 -21.0926,-13.82957c-11.34587,-3.98737 -23.51395,-7.09407 -35.53065,-7.08279c-2.91027,0.00273 -10.99337,-0.2229 -14.01622,0.57746c-7.78843,2.06214 -13.42782,7.58807 -18.77896,13.20065c-4.6146,4.84006 -10.19322,9.98441 -13.84744,15.62798c-1.85165,2.85968 -3.02235,6.10672 -4.55819,9.1477c-2.92217,9.55743 -4.47764,18.053 -4.64068,28.12605c-0.05228,3.23028 0.17234,6.48026 0.70819,9.66622c0.25102,1.4925 1.42113,3.11608 0.75819,4.47662c-2.8878,5.92662 -7.01669,4.49329 -12.02047,6.46076c-2.02497,0.79621 -3.96451,1.8661 -5.70569,3.17099c-5.68623,4.26141 -11.65188,11.12773 -14.32159,17.74131c-2.20679,5.46679 -1.74735,7.53689 -2.00281,13.40452c-0.20264,4.65444 -0.41368,10.08844 2.48547,14.09284c1.3047,1.80209 3.17724,3.11516 4.76586,4.67274c7.29173,6.4656 12.91817,9.68127 22.91316,9.23763c1.17362,-0.0521 2.42901,0.0681 3.4998,-0.41511c3.6914,-1.66581 2.07788,-7.56266 5.25054,-9.52597c1.64866,-1.02022 3.83728,-0.76836 5.77469,-0.69506c2.08805,0.07899 4.27401,0.25314 6.16286,1.14669c1.95479,0.92474 3.04791,3.203 4.99974,4.13396c1.97876,0.9438 4.29425,0.88569 6.44239,1.32354c1.79178,0.36521 3.58499,0.65959 5.38081,0.89355z" fill="#000000" stroke-width="0.5"/><path d="M280.13199,242.3789c-1.05679,1.40905 -0.95613,2.65291 -0.5514,3.57564c-2.50609,1.07603 -4.98824,1.95928 -7.28941,2.5252c-2.38813,0.58731 -4.91342,0.44771 -7.31734,0.96661c-3.17776,0.68593 -6.28388,2.12166 -9.53444,2.07181c-6.81583,0.00774 -12.62366,-0.88808 -19.38801,-1.61516c-14.22746,-1.52928 -28.80275,-2.34376 -42.64422,-6.39529c-5.07841,-1.4865 -10.03932,-4.29034 -14.84628,-6.50749c-4.70555,-2.17039 -11.35738,-4.88536 -15.54116,-8.06012c-1.64806,-1.25059 -5.29856,-5.39588 -7.13559,-7.43691c-4.64224,-5.15776 -9.83486,-10.28554 -12.71723,-16.65259c-5.02207,-10.85752 -9.23496,-22.93348 -11.87913,-34.62979c-0.44688,-1.97675 -0.609,-4.00061 -0.72732,-6.02967c3.76683,0.14357 7.63807,0.05711 11.36436,-0.15041c2.86123,-0.15934 5.76255,0.11215 8.45449,-0.87048c2.83097,-1.03338 5.26801,-3.00645 7.54861,-4.97652c5.2627,-4.5461 5.45804,-12.83085 6.7134,-19.11114c0.88594,-3.31965 2.08325,-6.57936 2.6487,-9.96834c0.36347,-2.17839 0.65461,-4.37682 0.82421,-6.5788c0.03398,-0.44116 -0.52912,-0.99764 -0.21625,-1.31052c0.31287,-0.31288 0.86839,0.24902 1.30965,0.21639c4.64264,-0.34329 9.28587,-0.78099 13.88852,-1.47921c6.70867,-1.01773 13.43103,-2.88775 19.8813,-4.9345c1.44048,-0.45708 3.06825,-0.56955 4.30188,-1.44252c8.01733,-5.67335 12.54489,-14.2113 14.38322,-23.67196c0.73962,-3.80633 0.48813,-7.76985 1.29928,-11.56159c0.42986,-2.00942 1.34515,-3.90591 1.6736,-5.93436c0.64751,-3.99889 -0.1707,-7.52035 0.82842,-11.51686c0.03684,-5.96629 0.06424,-11.93483 0.04064,-17.90165c1.61491,0.48322 3.275,0.82917 4.87393,1.36415c0,0 3.56022,1.18571 4.74608,-2.37185c1.18586,-3.55756 -2.36802,-4.64348 -2.36802,-4.64348c-2.18917,-0.72726 -5.03942,-1.96162 -7.58288,-2.74804c-0.23216,-0.87267 -0.6036,-1.6991 -1.19304,-2.43288c-3.51798,-4.37948 -7.89375,-4.76582 -12.7994,-4.82005c0.0635,-0.07218 0.10469,-0.23929 0.17139,-0.3067c3.31742,-3.35312 8.26976,-7.49012 12.47544,-9.70439c0.60423,-0.31812 1.36781,0.01673 2.04928,-0.02694c2.44639,-0.15674 4.88557,-0.47381 7.33491,-0.57436c8.8104,-0.36166 15.91961,1.77566 24.15169,4.71104c3.69536,1.31768 7.64758,1.85713 11.3247,3.22487c4.08778,1.52049 7.79766,3.92407 11.74028,5.78888c10.65026,5.03745 20.02741,10.17535 28.67477,18.34009c1.39939,2.05617 2.60694,4.26115 4.20062,6.17068c1.54853,1.85543 3.76501,3.11698 5.18429,5.07305c1.41931,1.95609 2.01248,4.40566 3.21518,6.50189c2.94887,5.13971 7.82659,9.14762 10.79652,14.30784c2.28168,3.96441 4.13831,8.16601 6.15821,12.26999c7.1344,14.49548 6.51864,33.07095 3.80804,48.56283c-0.36945,2.1115 -1.50533,9.97055 -1.66602,10.62945c-1.31139,5.37743 -3.88038,11.6076 -5.62108,16.84268c-0.8073,3.74368 -1.31656,7.56709 -2.39052,11.24316c-1.02409,3.50539 -3.30397,6.52681 -4.71184,9.89644c-4.51626,10.80933 -9.73028,21.16528 -16.75025,30.6857c-1.96429,2.66395 -4.69498,4.67386 -6.97585,7.07233c-3.91814,4.12016 -5.53669,6.6161 -10.23793,9.83996c-2.22885,1.52843 -4.82315,3.13341 -7.55932,4.6356l-1.16967,-0.90255c0,0 -3.00202,-2.24915 -5.25202,0.75085z" data-paper-data="{&quot;noHover&quot;:false,&quot;origItem&quot;:[&quot;Path&quot;,{&quot;applyMatrix&quot;:true,&quot;segments&quot;:[[[560.22727,484.66475],[0,0],[4.5,-6]],[570.72727,483.16475],[[573.06607,484.97009],[0,0],[5.47234,-3.0044]],[[588.17805,475.70221],[-4.4577,3.05686],[9.40248,-6.44772]],[[608.64381,456.02861],[-7.83628,8.24032],[4.56174,-4.79694]],[[622.58873,441.88923],[-3.92858,5.3279],[14.03994,-19.04084]],[[656.06901,380.54131],[-9.03252,21.61866],[2.81574,-6.73926]],[[665.48773,360.75745],[-2.04818,7.01078],[2.14792,-7.35214]],[[670.26459,338.28105],[-1.6146,7.48736],[3.4814,-10.47016]],[[681.50239,304.61211],[-2.62278,10.75486],[0.32138,-1.3178]],[[684.83317,283.36337],[-0.7389,4.223],[5.4212,-30.98376]],[[677.22415,186.28245],[14.2688,28.99096],[-4.0398,-8.20796]],[[664.91317,161.75381],[4.56336,7.92882],[-5.93984,-10.32044]],[[643.32937,133.15181],[5.89774,10.27942],[-2.4054,-4.19248]],[[636.90321,120.15293],[2.83862,3.91218],[-2.83856,-3.91212]],[[626.53925,110.01157],[3.09706,3.71086],[-3.18736,-3.81906]],[[618.14289,97.67459],[2.79878,4.11234],[-17.29472,-16.32948]],[[560.81935,61.01021],[21.30052,10.0749],[-7.88524,-3.72962]],[[537.34965,49.43623],[8.17556,3.04098],[-7.35424,-2.73548]],[[514.71029,42.98879],[7.39072,2.63536],[-16.46416,-5.87076]],[[466.42793,33.56817],[17.6208,-0.72332],[-4.89868,0.2011]],[[451.76437,34.71647],[4.89278,-0.31348],[-1.36294,0.08734]],[[447.66753,34.77017],[1.20846,-0.63624],[-8.41136,4.42854]],[[422.72875,54.17677],[6.63484,-6.70624],[-0.1334,0.13482]],[[422.33839,54.59591],[0.127,-0.14436],[9.81128,0.10846]],[[447.94797,64.23397],[-7.03596,-8.75896],[1.17888,1.46756]],[[450.33491,69.09963],[-0.46432,-1.74534],[5.08692,1.57284]],[[465.50807,74.59507],[-4.37834,-1.45452],[0,0]],[[470.25149,84.08189],[2.37172,-7.11512],[-2.37172,7.11512]],[[460.76467,88.82531],[0,0],[-3.19786,-1.06996]],[[451.02195,86.09647],[3.22982,0.96644],[0.0472,11.93362]],[[450.94383,121.89929],[0.07368,-11.93258],[-1.99824,7.99302]],[[449.29117,144.93225],[1.29502,-7.99778],[-0.6569,4.05692]],[[445.94879,156.79985],[0.85972,-4.01884],[-1.6223,7.58348]],[[443.35871,179.92041],[1.47924,-7.61266],[-3.67666,18.92132]],[[414.64131,227.22639],[16.03466,-11.3467],[-2.46726,1.74592]],[[406.04235,230.10361],[2.88096,-0.91416],[-12.90054,4.0935]],[[366.28903,239.94937],[13.41734,-2.03546],[-9.2053,1.39646]],[[338.51353,242.90087],[9.28528,-0.68658],[-0.88252,0.06526]],[[335.89423,242.46805],[0.62574,-0.62576],[-0.62574,0.62576]],[[336.32705,245.08735],[0.06796,-0.88232],[-0.3392,4.40396]],[[334.67975,258.23559],[0.72694,-4.35678],[-1.1309,6.77796]],[[329.38237,278.15835],[1.77188,-6.6393],[-2.51072,12.56058]],[[315.95151,316.35845],[10.5254,-9.0922],[-4.5612,3.94014]],[[300.85343,326.30883],[5.66194,-2.06676],[-5.38386,1.96526]],[[283.75417,328.11135],[5.72246,-0.31868],[-7.45258,0.41504]],[[261.21713,328.35519],[7.53366,0.28714],[0.23664,4.05814]],[[262.67019,340.40943],[-0.89376,-3.9535],[5.28834,23.39264]],[[286.41377,409.64121],[-10.04414,-21.71504],[5.76474,12.7341]],[[311.83647,442.93329],[-9.28448,-10.31552],[3.67406,4.08206]],[[326.10117,457.80155],[-3.29612,-2.50118],[8.36756,6.34952]],[[357.17143,473.91365],[-9.4111,-4.34078],[9.61392,4.4343]],[[386.85167,486.92267],[-10.15682,-2.973],[27.68294,8.10306]],[[472.10397,499.70601],[-28.45492,-3.05856],[13.5287,1.45416]],[[510.86365,502.93747],[-13.63166,0.01548],[6.50112,0.0997]],[[529.92445,498.79543],[-6.35552,1.37186],[4.80784,-1.0378]],[[544.55321,496.86381],[-4.77626,1.17462],[4.60234,-1.13184]],[[559.12593,491.81549],[-5.01218,2.15206],[-0.80946,-1.84546]],[[560.22731,484.66475],[-2.11358,2.8181],[0,0]]],&quot;closed&quot;:true,&quot;fillColor&quot;:[0,0,0,1]}]}" fill="#302617" stroke-width="0.5"/><path d="M218.24762,41.11461c-0.09238,1.28446 -0.21611,2.46031 -0.21611,2.97443c0,5.30191 -0.00676,10.60961 0.03425,15.91137c-0.97232,3.8893 -0.14622,7.57046 -0.80536,11.39888c-0.32512,1.88833 -1.20192,3.64984 -1.59953,5.52425c-0.80773,3.80781 -0.58101,7.78981 -1.29951,11.61546c-1.39313,7.41778 -4.73561,14.05045 -10.86107,18.66235c-0.72612,0.5467 -1.76575,0.4398 -2.63727,0.69785c-2.34412,0.69408 -4.65221,1.53181 -7.01247,2.16885c-6.30784,1.7025 -12.66613,2.50477 -19.13533,3.1995c-1.84787,0.19844 -10.20036,0.80728 -12.09838,2.7053c-1.30908,1.30907 -1.39141,3.34489 -1.80089,5.15035c-1.30673,5.76161 -1.85981,10.38875 -3.40961,16.20762c-0.80749,4.03519 -1.00067,12.41407 -4.58897,15.4338c-1.51992,1.27909 -3.03827,2.72731 -4.91891,3.36716c-2.02112,0.68765 -4.25707,0.40173 -6.39069,0.47559c-3.88987,0.13465 -7.75503,0.15875 -11.59496,-0.02014c-1.5544,-12.83912 -1.27785,-25.42161 0.59449,-38.26949c0.57613,-3.95338 0.62803,-8.00924 1.55567,-11.89519c1.0114,-4.23689 3.16115,-8.13356 4.67943,-12.21633c1.34027,-3.60409 2.69586,-7.24602 4.52663,-10.62745c3.26697,-6.09771 6.62915,-10.25623 10.88552,-15.70695c1.40619,-1.80077 2.53029,-3.85765 4.16772,-5.45106c2.83257,-2.75644 6.79454,-4.06704 10.14262,-6.16745c3.77164,-2.36612 7.29618,-5.17115 11.24399,-7.22992c7.22436,-3.76748 15.8697,-6.74823 24.0036,-7.75679c4.15468,-0.51516 8.37995,0.04479 12.5664,0.02497c1.31933,-0.00624 2.64766,-0.13304 3.96876,-0.17696z" data-paper-data="{&quot;noHover&quot;:false,&quot;origItem&quot;:[&quot;Path&quot;,{&quot;applyMatrix&quot;:true,&quot;segments&quot;:[[[218.21703,41.15414],[0,0],[-1.3211,0.04392]],[[214.25,41.33238],[1.31933,-0.00624],[-4.18645,0.01982]],[[201.69052,41.31151],[4.15468,-0.51516],[-8.1339,1.00856]],[[177.70472,49.0732],[7.22436,-3.76748],[-3.94781,2.05877]],[[166.47309,56.30261],[3.77164,-2.36612],[-3.34808,2.10041]],[[156.34363,62.46594],[2.83257,-2.75644],[-1.63743,1.59341]],[[152.18295,67.91294],[1.40619,-1.80077],[-4.25637,5.45072]],[[141.31419,83.60016],[3.26697,-6.09771],[-1.83077,3.38143]],[[136.79197,94.2125],[1.34027,-3.60409],[-1.51828,4.08277]],[[132.11213,106.4136],[1.0114,-4.23689],[-0.92764,3.88595]],[[130.55284,118.29716],[0.57613,-3.95338],[-1.87234,12.84788]],[[129.94295,156.54734],[-1.5544,-12.83912],[3.83993,0.17889]],[[141.53202,156.56364],[-3.88987,0.13465],[2.13362,-0.07386]],[[147.91889,156.08614],[-2.02112,0.68765],[1.88064,-0.63985]],[[152.83531,152.71794],[-1.51992,1.27909],[3.5883,-3.01973]],[[157.38692,137.37689],[-0.80749,4.03519],[1.5498,-5.81887]],[[160.79103,121.16655],[-1.30673,5.76161],[0.40948,-1.80546]],[[162.6438,115.93075],[-1.30908,1.30907],[1.89802,-1.89802]],[[174.71125,113.21769],[-1.84787,0.19844],[6.4692,-0.69473]],[[193.80674,110.04388],[-6.30784,1.7025],[2.36026,-0.63704]],[[200.81551,107.8835],[-2.34412,0.69408],[0.87152,-0.25805]],[[203.45209,107.18795],[-0.72612,0.5467],[6.12546,-4.6119]],[[214.31287,88.55129],[-1.39313,7.41778],[0.7185,-3.82565]],[[215.61651,76.94667],[-0.80773,3.80781],[0.39761,-1.87441]],[[217.21805,71.42592],[-0.32512,1.88833],[0.65914,-3.82842]],[[218.02809,60.03332],[-0.97232,3.8893],[-0.04101,-5.30176]],[[217.99999,44.12787],[0,5.30191],[0,-0.51412]],[[218.21701,41.15417],[-0.09238,1.28446],[0,0]]],&quot;closed&quot;:true,&quot;fillColor&quot;:[0,0,0,1]}]}" fill="#302617" stroke-width="0.5"/><path d="M122.31269,155.93811c-1.79582,-0.23396 -3.59278,-0.52887 -5.38456,-0.89408c-2.14814,-0.43785 -4.46808,-0.38076 -6.44684,-1.32456c-1.95183,-0.93096 -3.049,-3.21053 -5.00379,-4.13527c-1.88885,-0.89355 -4.07882,-1.06939 -6.16687,-1.14838c-1.93741,-0.0733 -4.12897,-0.32668 -5.77763,0.69354c-3.17266,1.96331 -1.55911,7.86018 -5.25051,9.52599c-1.07079,0.48321 -2.3276,0.36219 -3.50122,0.41429c-9.99499,0.44364 -15.63163,-2.78015 -22.92336,-9.24575c-1.58862,-1.55758 -3.46352,-2.87327 -4.76822,-4.67536c-2.89915,-4.0044 -2.69223,-9.44408 -2.48959,-14.09852c0.25546,-5.86763 -0.20702,-7.9434 1.99977,-13.41019c2.66971,-6.61358 8.63252,-13.48781 14.31875,-17.74922c1.74118,-1.30489 3.68036,-2.3762 5.70533,-3.17241c5.00378,-1.96747 9.13187,-0.53833 12.01967,-6.46495c0.66294,-1.36054 -0.50766,-2.98953 -0.75868,-4.48203c-0.53585,-3.18596 -0.75962,-6.44716 -0.70734,-9.67744c0.16304,-10.07305 1.73149,-18.5938 4.65366,-28.15123c1.53584,-3.04098 2.71308,-6.29376 4.56473,-9.15344c3.65422,-5.64357 9.24722,-10.79525 13.86182,-15.63531c5.35114,-5.61258 11.00526,-11.14088 18.79369,-13.20302c3.02285,-0.80036 11.11518,-0.57396 14.02545,-0.57669c12.0167,-0.01128 24.20527,3.10409 35.55114,7.09146c7.69221,2.70334 15.00385,8.67033 21.10296,13.8396c1.45704,0.16759 2.93953,0.64659 4.40489,0.92008c0.04346,1.08129 0.41201,1.83273 0.90149,2.3534c-1.36947,0.01346 -2.8179,0.13777 -4.17784,0.30355c-9.06796,1.10542 -18.59954,4.37213 -26.65927,8.57524c-0.37,0.19296 -10.6159,6.81825 -11.75339,7.53184c-3.70501,2.32427 -7.9794,3.90713 -11.13971,6.93067c-1.96206,1.87716 -3.29929,4.18716 -4.9865,6.31477c-4.51965,5.69939 -8.10068,10.36029 -11.57189,16.77742c-3.17716,5.92931 -5.27231,12.3264 -7.65645,18.61208c-0.75728,1.99651 -1.73884,3.8205 -2.2382,5.89659c-0.1638,0.681 -1.41472,10.59891 -1.71535,12.66148c-1.89187,12.97951 -2.24034,25.70377 -0.81584,38.65638z" data-paper-data="{&quot;noHover&quot;:false,&quot;origItem&quot;:[&quot;Path&quot;,{&quot;applyMatrix&quot;:true,&quot;segments&quot;:[[[122.31782,155.88836],[0,0],[-1.4245,-12.95261]],[[123.12897,117.23127],[-1.89187,12.97951],[0.30063,-2.06257]],[[124.84241,104.56937],[-0.1638,0.681],[0.49936,-2.07609]],[[127.10152,98.57503],[-0.75728,1.99651],[2.38414,-6.28568]],[[134.71067,80.04442],[-3.17716,5.92931],[3.47121,-6.41713]],[[146.28976,63.27395],[-4.51965,5.69939],[1.68721,-2.12761]],[[151.33818,56.88066],[-1.96206,1.87716],[3.16031,-3.02354]],[[162.48145,49.95308],[-3.70501,2.32427],[1.13749,-0.71359]],[[174.23676,42.42316],[-0.37,0.19296],[8.05973,-4.20311]],[[200.9004,33.85327],[-9.06796,1.10542],[1.35994,-0.16578]],[[204.99595,33.60653],[-1.36947,0.01346],[-0.48948,-0.52067]],[[204.09523,31.25424],[0.04346,1.08129],[-1.46536,-0.27349]],[[199.69145,30.33566],[1.45704,0.16759],[-6.09911,-5.16927]],[[178.59885,16.50609],[7.69221,2.70334],[-11.34587,-3.98737]],[[143.06819,9.4233],[12.0167,-0.01128],[-2.91027,0.00273]],[[129.05197,10.00076],[3.02285,-0.80036],[-7.78843,2.06214]],[[110.27301,23.20141],[5.35114,-5.61258],[-4.6146,4.84006]],[[96.42557,38.82939],[3.65422,-5.64357],[-1.85165,2.85968]],[[91.86738,47.97709],[1.53584,-3.04098],[-2.92217,9.55743]],[[87.2267,76.10314],[0.16304,-10.07305],[-0.05228,3.23028]],[[87.93489,85.76936],[-0.53585,-3.18596],[0.25102,1.4925]],[[88.69309,90.24598],[0.66294,-1.36054],[-2.8878,5.92662]],[[76.67261,96.70674],[5.00378,-1.96747],[-2.02497,0.79621]],[[70.96692,99.87773],[1.74118,-1.30489],[-5.68623,4.26141]],[[56.64533,117.61904],[2.66971,-6.61358],[-2.20679,5.46679]],[[54.64252,131.02356],[0.25546,-5.86763],[-0.20264,4.65444]],[[57.12799,145.1164],[-2.89915,-4.0044],[1.3047,1.80209]],[[61.89385,149.78914],[-1.58862,-1.55758],[7.29173,6.4656]],[[84.80701,159.02677],[-9.99499,0.44364],[1.17362,-0.0521]],[[88.30681,158.61166],[-1.07079,0.48321],[3.6914,-1.66581]],[[93.55735,149.08569],[-3.17266,1.96331],[1.64866,-1.02022]],[[99.33205,148.39063],[-1.93741,-0.0733],[2.08805,0.07899]],[[105.4949,149.53732],[-1.88885,-0.89355],[1.95479,0.92474]],[[110.49465,153.67128],[-1.95183,-0.93096],[1.97876,0.9438]],[[116.93703,154.99482],[-2.14814,-0.43785],[1.79178,0.36521]],[[122.31784,155.88837],[-1.79582,-0.23396],[0,0]]],&quot;closed&quot;:true,&quot;fillColor&quot;:[0,0,0,1]}]}" fill="#302617" stroke-width="0.5"/><path d="M214.15612,19.1382c3.16207,0.3699 3.16207,3.71691 3.16207,3.71691c0,6.81818 0,13.63637 0,20.45455c0,3.06106 0.85867,8.95378 -0.19244,11.82222c-0.47684,1.30129 -6.18215,8.44204 -6.9273,9.09403c-1.55793,1.36316 -4.00839,1.50634 -5.43316,3.00813c-0.65333,0.68864 -0.89172,1.70961 -1.56382,2.37995c-5.20396,5.19035 -11.61231,8.5871 -14.91555,15.46363c-2.65879,5.22723 -3.07069,10.73429 -4.45536,16.3876c-0.58912,2.40526 -1.53475,4.71649 -2.07811,7.1325c-0.51848,2.30541 -1.03263,9.59034 -2.79128,12.19499c-0.77349,1.14558 -2.21124,1.6592 -3.31799,2.4873c-3.04678,2.27968 -6.10204,4.54086 -7.70135,8.19197c-0.54624,1.24703 -0.27876,2.7443 -0.78502,4.00809c-0.61998,1.54768 -1.85032,2.79016 -2.54533,4.30563c-2.5242,5.50404 -3.32865,12.20464 -4.65738,18.07393c-0.98595,4.35516 -3.02183,8.40138 -4.55961,12.60334c-0.81818,0.81818 -1.78813,1.50865 -2.45455,2.45454c-1.31823,1.87106 -1.36335,5.73604 -2.21505,7.7274c-0.32843,0.7679 -1.22756,1.22699 -1.4767,2.02416c-0.60261,1.92819 0.4047,4.06053 0.11248,6.05945c-0.04603,0.31485 -1.80215,5.62063 -1.96926,5.95598c-0.78982,1.58498 -2.5812,2.64117 -3.05231,4.34821c-0.62935,2.2804 0.16091,4.72948 0.16091,7.09513c0,3.52464 -0.52744,7.37736 -0.04842,10.85386c0.27717,2.01159 1.52695,4.68009 2.96639,6.0583c0.8516,0.81537 2.22025,1.09247 2.85763,2.08434c0.93248,1.4511 1.09091,3.27273 1.63637,4.90909c0.81818,0.54546 1.84391,0.86561 2.45454,1.63636c0.60951,0.76933 0.45817,1.9601 1.02797,2.75928c0.89563,1.25618 2.38328,2.01215 3.27273,3.27272c1.39077,1.97108 1.67921,4.86334 3.55262,6.68348c0.70528,0.68523 1.7636,0.9367 2.45454,1.63637c0.57896,0.58626 0.61548,1.61391 1.26094,2.12605c0.73287,0.58148 1.9823,0.29547 2.63532,0.96538c1.1329,1.16218 1.57973,2.83658 2.42277,4.22346c2.35905,3.88087 5.46389,7.6255 7.4889,11.6892c0.67739,1.35935 0.27793,3.24962 1.30984,4.36399c0.81709,0.88239 2.12723,1.19756 2.95477,2.07015c3.31374,3.49412 3.51181,8.61709 4.96716,12.98315c0.95321,3.91881 0.41625,7.19907 0.91931,11.08414c0.59036,4.55928 1.44195,9.4145 0.8385,14.14978c-0.38984,3.05909 -1.74059,5.8415 -2.576,8.77209c-0.57212,2.007 -0.93797,4.42048 -1.86813,6.32639c-0.99229,2.03322 -2.37216,3.9006 -3.07331,6.05165c-2.94257,9.02744 -6.00407,18.01269 -9.01054,27.0321c-0.51841,1.43748 -0.31877,3.04445 -0.62574,4.54141c-0.08369,0.4081 -1.11029,0.69355 -0.79423,0.96494c0.36556,0.3139 0.89213,-0.56486 1.36541,-0.47448c1.29438,0.2472 2.62373,0.65367 3.68231,1.43848c1.35733,1.0063 1.92732,2.99601 3.46225,3.70238c1.63121,0.75068 4.61838,1.00302 5.96644,1.41051c1.28909,0.38966 2.4206,1.24018 3.73151,1.54856c2.27918,0.53617 4.69373,-0.27734 7.024,-0.04941c5.39193,0.5274 10.52961,0.79993 15.99412,0.79993c5.10972,0 8.87773,0.71034 13.2102,-2.13398c1.23729,-0.30932 3.51788,-0.50199 4.59269,-1.67676c0.77268,-0.84454 1.12069,-2.06455 2.01179,-2.78305c0.67138,-0.54134 1.75821,-0.30934 2.45454,-0.81818c0.46959,-0.34316 0.48966,-1.05791 0.7924,-1.55452c2.02985,-3.32976 2.8384,-6.99865 4.78587,-10.43847c2.07589,-3.66666 3.10594,-7.05439 4.68796,-11.00738c1.37315,-3.43111 3.76334,-6.8319 4.80745,-10.36097c0.47064,-1.59078 0.33822,-3.3211 0.81818,-4.90909c1.71516,-5.67467 4.6689,-10.83901 5.82891,-16.63904c2.36238,-3.58503 2.55635,-7.3546 4.03839,-11.32053c1.88603,-5.04703 4.92629,-8.77319 7.51202,-13.43743c1.83924,-3.31768 2.98578,-6.91214 5.56379,-9.94025c0.65632,-0.7709 1.79381,-0.99153 2.51688,-1.7002c1.67555,-1.64215 2.44018,-4.06018 4.09091,-5.72728c2.37664,-2.40021 3.58166,-2.11444 5.42316,-4.56523c1.10377,-1.46898 1.60429,-3.41884 2.97893,-4.63808c1.11995,-0.99334 2.91433,-0.8624 4.15951,-1.6934c0.54037,-0.36062 0.57218,-1.17149 0.93787,-1.70844c1.32062,-1.9391 2.78954,-3.7752 4.09091,-5.72727c3.66899,-4.85594 5.88927,-10.02321 10.2966,-14.4619c2.85243,-2.87273 6.08112,-5.31357 8.62709,-8.58909c0.94664,-1.21791 1.44283,-2.74159 2.36816,-3.97578c1.49219,-1.99026 3.41208,-3.6405 4.85911,-5.66382c0.7516,-1.05093 3.72268,-7.04639 5.27702,-8.62966c0.86694,-0.88308 2.26843,-1.1758 3.02049,-2.15857c1.53667,-2.00806 1.75676,-4.76623 3.00576,-6.96479c1.39826,-2.46131 3.72672,-5.10683 4.68795,-7.73466c0.45141,-1.23407 0.32017,-2.62625 0.7357,-3.87285c1.34278,-4.02834 3.2575,-8.153 4.86158,-12.12427c0.87455,-4.37272 2.89977,-7.987 4.07415,-12.21464c0.67564,-2.43227 0.41937,-5.0319 0.69773,-7.54087c0.89295,-8.04843 0.79993,-16.02281 0.79993,-24.17593c0,-4.99173 -0.12989,-8.92361 -1.48681,-13.67882c-0.55386,-1.94096 -0.34181,-4.16482 -1.37953,-5.89606c-2.75162,-4.59055 -7.85855,-6.08113 -10.76258,-10.50074c-5.96042,-3.69657 -11.37632,-8.57044 -17.76027,-11.5299c-2.11406,-0.98004 -4.43569,-1.46527 -6.54546,-2.45454c-2.8976,-1.35868 -5.36945,-3.51116 -8.23565,-4.93489c-2.41618,-1.20019 -5.08273,-2.02086 -7.20568,-3.68564c-1.50714,-1.18188 -2.52774,-2.91652 -4.05934,-4.06653c-4.04032,-3.03369 -8.94152,-4.80992 -12.60641,-8.46922c-2.21417,-2.21079 -3.54841,-5.2004 -5.76901,-7.40473c-0.9921,-0.98483 -2.41607,-1.48476 -3.34528,-2.52914c-1.30727,-1.46929 -1.96615,-3.43919 -3.27273,-4.9091c-0.90595,-1.0192 -2.31762,-1.48126 -3.27272,-2.45454c-2.14505,-2.18586 -3.88051,-5.73043 -5.55358,-8.29313c-0.59993,-1.99898 -2.39594,-3.42018 -3.67799,-5.06704c-1.05244,-1.35191 -1.75949,-2.94056 -2.66757,-4.39339c-0.59339,-0.94937 -1.34118,-1.80813 -1.83625,-2.81228c-0.29063,-0.58949 -0.06237,-1.41178 -0.49166,-1.90945c-0.89068,-1.03256 -2.41448,-1.39487 -3.27273,-2.45455c-1.10349,-1.36247 -1.1787,-3.38687 -2.31242,-4.7243c-2.94584,-3.47514 -8.00663,-6.54666 -11.83845,-8.82695c-1.48943,-0.88635 -3.29839,-0.44096 -4.89788,-0.43687c-4.04109,0.01034 -6.54989,0.62151 -10.4061,1.48682c-0.40416,0.09069 -0.91137,-0.07062 -1.22677,0.19788c-2.15833,1.83743 -2.88217,5.25339 -3.32466,8.03021zM209.81818,38.73827c-0.33984,0.08915 -0.72426,0.13957 -1.1591,0.13957c-3.75,0 -3.75,-3.75 -3.75,-3.75v-0.81818c0,-5.48555 0.62591,-10.03984 1.69781,-15.40333c0.84189,-4.71263 2.2268,-10.54961 6.32142,-13.75864c1.23801,-0.97025 5.55056,-1.91404 7.09399,-2.29424c5.04189,-1.24202 12.44466,-2.2951 17.28435,0.26935c4.63011,2.4534 10.92389,6.66363 14.34338,10.80941c0.80964,0.98161 1.52712,2.0508 2.10501,3.18443c0.2985,0.58555 0.06237,1.41178 0.49166,1.90945c0.89068,1.03256 2.41447,1.39487 3.27272,2.45454c0.67358,0.83166 0.66117,2.0449 1.14471,2.99965c1.04521,2.06374 2.25854,4.05858 3.678,5.88523c1.59856,2.05713 3.62398,3.93534 4.50382,6.3875c1.34424,1.95842 2.58236,4.78952 4.26461,6.43415c0.97508,0.95327 2.36678,1.43535 3.27273,2.45455c1.30658,1.4699 1.96685,3.43857 3.27272,4.9091c0.88272,0.99401 2.26332,1.43679 3.20018,2.37995c2.17777,2.19244 3.5025,5.13536 5.68554,7.32254c3.38959,3.39603 8.19483,5.08929 11.93904,7.89441c1.55394,1.16419 2.62018,2.88518 4.12248,4.11529c1.68755,1.38179 3.93657,1.88008 5.88523,2.85981c2.82389,1.41976 5.2612,3.55227 8.12798,4.88329c2.11349,0.98127 4.43622,1.46416 6.54546,2.45455c7.0863,3.32734 13.46472,8.55587 19.8761,13.01556c3.44707,5.10155 8.76051,6.76849 12.14651,12.40834c0.2962,0.49335 1.61768,6.2318 1.8932,7.19485c1.55561,5.43745 1.78591,10.10107 1.78591,15.77573c0,8.39894 0.08689,16.61748 -0.83643,24.91497c-0.32709,2.93938 -0.17103,5.9666 -0.93864,8.82276c-1.1601,4.31655 -3.21998,7.89238 -4.10767,12.33082c-1.61827,4.08159 -3.58176,8.29668 -4.9566,12.42119c-0.46402,1.39206 -0.37642,2.93844 -0.90066,4.30896c-1.12768,2.9481 -3.54859,5.87921 -5.13022,8.62899c-1.41791,2.46512 -1.84966,5.47534 -3.53971,7.76248c-0.88571,1.19863 -2.46036,1.70754 -3.52496,2.75053c-2.15577,2.11202 -2.84473,5.34287 -4.59747,7.79967c-1.45918,2.04532 -3.39586,3.7146 -4.90275,5.72503c-0.98241,1.31069 -1.53492,2.91339 -2.54093,4.20604c-2.77043,3.55981 -6.23992,6.30245 -9.37292,9.41091c-3.99507,3.96379 -6.03783,8.9245 -9.33976,13.35628c-1.74271,2.61407 -3.94212,7.06045 -6.42577,8.92793c-1.15128,0.86566 -2.93055,0.6397 -4.0223,1.57933c-1.0195,0.87745 -1.12407,2.46694 -1.93016,3.54374c-1.59773,2.13428 -4.13461,3.37941 -6.03139,5.25295c-1.66913,1.64868 -2.44586,4.05456 -4.09091,5.72727c-0.66911,0.68037 -1.76818,0.8506 -2.39222,1.57253c-2.03466,2.35384 -2.80791,5.461 -4.25439,8.05975c-2.51679,4.52167 -5.3956,7.91097 -7.21525,12.74439c-1.50423,3.99556 -1.69721,7.96405 -4.14343,11.58856c-1.12538,5.62693 -3.98676,10.58119 -5.62563,16.08824c-0.47318,1.59002 -0.336,3.32178 -0.81819,4.90909c-1.13346,3.73122 -3.56053,7.28429 -5.01072,10.91176c-1.22729,3.06991 -1.946,6.35059 -3.41845,9.31074c-0.92849,1.86661 -2.31083,3.49815 -3.12701,5.41653c-1.67243,3.93097 -2.60572,8.41081 -6.09742,11.36327c-0.65857,0.55686 -1.7786,0.28255 -2.45454,0.81818c-0.64577,0.51173 -0.65942,1.56295 -1.26094,2.12604c-2.78555,2.60758 -3.54472,2.40305 -6.86184,3.23233c-5.11043,3.46468 -10.32213,2.77512 -16.24435,2.77512c-5.69789,0 -11.10488,-0.26013 -16.73315,-0.83643c-1.30408,-0.13353 -6.48852,0.20872 -7.70327,-0.04942c-1.55613,-0.33067 -2.92563,-1.27002 -4.4503,-1.72416c-3.02601,-0.90133 -4.37328,-0.43318 -7.12448,-1.86221c-1.23748,-0.64277 -2.4472,-1.39343 -3.45862,-2.3534c-0.59762,-0.56722 -0.65884,-1.56358 -1.26094,-2.12605c-1.65884,-1.54962 -5.0143,-0.51596 -6.40681,-2.30872c-2.12547,-2.73636 -0.7343,-9.4903 0.21639,-12.49365c2.99601,-8.98802 5.94967,-18.01241 8.98946,-26.96791c2.22607,-6.5582 6.34533,-12.65166 7.20983,-19.75897c0.49583,-4.07639 -0.32461,-8.12955 -0.79786,-12.03204c-0.44544,-3.67318 0.21106,-6.61529 -0.71705,-10.1886c-0.92314,-2.7694 -1.02643,-7.87723 -3.21466,-9.92594c-1.11383,-1.04281 -2.65107,-1.63678 -3.59068,-2.83894c-1.59356,-2.03886 -0.95589,-3.44994 -1.96289,-5.45419c-1.45302,-2.89199 -3.82767,-5.92122 -5.52738,-8.64226c-0.54636,-0.87465 -1.23328,-1.66368 -1.71098,-2.57763c-0.3818,-0.73046 -0.25483,-1.75177 -0.84996,-2.322c-0.57059,-0.54671 -1.65849,-0.17509 -2.27376,-0.67099c-0.89124,-0.71831 -1.19811,-1.97792 -2.01179,-2.78304c-0.69898,-0.69164 -1.76703,-0.93333 -2.45454,-1.63637c-0.28243,-0.28881 -3.75174,-5.44006 -3.98976,-5.91317c-0.33324,-0.66241 -0.20459,-1.53001 -0.63944,-2.13062c-0.90476,-1.24963 -2.3748,-2.01818 -3.27273,-3.27273c-0.43346,-0.60561 -0.13998,-1.57081 -0.60839,-2.14981c-0.61846,-0.7645 -1.63637,-1.09091 -2.45455,-1.63637c-0.54546,-1.63637 -0.74371,-3.43316 -1.63636,-4.90909c-0.40898,-0.67621 -1.50289,-0.61953 -2.05145,-1.18839c-2.58405,-2.67967 -4.66562,-6.54433 -5.21543,-10.30533c-0.56592,-3.87119 -0.04842,-8.14033 -0.04842,-12.05523c0,-0.47511 -0.06036,-8.50622 0.1609,-9.26851c0.99325,-3.42192 4.2802,-5.58426 4.79661,-9.33218c0.31996,-2.32218 -0.49883,-4.76845 0.11248,-7.03146c0.29541,-1.09357 1.34904,-1.84408 1.79604,-2.88493c1.15695,-2.69399 1.06086,-6.08141 2.69403,-8.63623c0.62321,-0.97491 1.63636,-1.63637 2.45454,-2.45455c0.73134,-2.70891 1.95774,-4.91848 2.9456,-7.51137c2.03507,-5.34152 2.34593,-11.44876 4.00753,-16.92923c0.987,-3.25541 2.93192,-6.14468 4.19365,-9.30379c0.52665,-1.31861 0.24982,-2.88755 0.85134,-4.17373c1.53309,-3.27809 3.98425,-6.38068 6.73481,-8.76153c1.12426,-0.97315 2.33014,-1.85282 3.56384,-2.68286c0.49074,-0.33017 1.25468,-0.29896 1.5911,-0.78543c0.38576,-0.55782 0.2305,-1.33673 0.33942,-2.00614c0.40202,-2.4707 0.64393,-4.972 1.19339,-7.41414c0.55395,-2.4621 1.51022,-4.8196 2.1106,-7.27079c1.52606,-6.23057 2.17022,-12.15461 5.03184,-17.95746c2.03874,-3.96418 4.96901,-7.70103 8.14068,-10.86533c2.34819,-2.34273 5.67926,-4.03624 8.03467,-6.39831c0.71843,-0.72046 0.97654,-1.82284 1.70891,-2.52914c1.67559,-1.61594 4.26953,-2.0044 6.02138,-3.53733c1.09793,-0.96072 1.75186,-2.33406 2.66578,-3.47125c0.59573,-0.74126 1.51377,-1.27685 1.86147,-2.16199c0.25541,-0.65021 -0.16737,-1.38875 -0.19243,-2.08687c-0.08808,-2.45296 0,-4.90909 0,-7.36364c0,-1.52379 0,-3.0476 0,-4.57139z" fill="#ffffff" stroke-width="0.5"/><path d="M217.47245,11.05869c0.31539,-0.2685 0.82295,-0.10724 1.22711,-0.19793c3.8562,-0.8653 6.36787,-1.47685 10.40895,-1.48719c1.59949,-0.00409 3.40978,-0.4496 4.89921,0.43675c3.83182,2.28029 8.89584,5.35167 11.84168,8.82682c1.13372,1.33742 1.20961,3.36182 2.3131,4.7243c0.85825,1.05967 2.38304,1.42199 3.27373,2.45455c0.42929,0.49767 0.20119,1.31996 0.49182,1.90946c0.49507,1.00416 1.24346,1.86293 1.83686,2.8123c0.90807,1.45283 1.61603,3.04153 2.66847,4.39344c1.28206,1.64687 3.07938,3.06815 3.6793,5.06714c1.67307,2.56269 3.41068,6.10749 5.55573,8.29335c0.95511,0.97328 2.36802,1.43552 3.27397,2.45472c1.30658,1.4699 1.96688,3.44004 3.27415,4.90933c0.92921,1.04438 2.35454,1.54457 3.34664,2.5294c2.2206,2.20434 3.55753,5.19458 5.7717,7.40537c3.6649,3.65931 8.57154,5.43734 12.61186,8.47104c1.5316,1.15001 2.55417,2.88549 4.06132,4.06736c2.12295,1.66478 4.79246,2.48689 7.20864,3.68708c2.8662,1.42373 5.34142,3.57817 8.23902,4.93685c2.10976,0.98927 4.43368,1.47604 6.54774,2.45608c6.38395,2.95946 11.80622,7.83872 17.76664,11.53529c2.90402,4.41961 8.01485,5.91459 10.76647,10.50514c1.03773,1.73124 0.82699,3.95685 1.38085,5.8978c1.35692,4.75521 1.48953,8.69131 1.48953,13.68303c0,8.15312 0.09695,16.13615 -0.796,24.18457c-0.27837,2.50897 -0.02113,5.11172 -0.69677,7.54399c-1.17437,4.22763 -3.19846,7.84719 -4.073,12.21991c-1.60408,3.97127 -3.5182,8.10191 -4.86098,12.13025c-0.41553,1.2466 -0.28425,2.64086 -0.73566,3.87493c-0.96123,2.62782 -3.2899,5.27774 -4.68816,7.73905c-1.24899,2.19856 -1.46964,4.96088 -3.0063,6.96894c-0.75206,0.98277 -2.15385,1.27704 -3.02079,2.16012c-1.55434,1.58327 -4.52698,7.58444 -5.27858,8.63537c-1.44704,2.02332 -3.36852,3.6777 -4.8607,5.66796c-0.92532,1.23418 -1.42278,2.76054 -2.36943,3.97844c-2.54597,3.27552 -5.7787,5.72297 -8.63113,8.5957c-4.40733,4.43869 -6.63545,9.6145 -10.30444,14.47044c-1.30138,1.95207 -2.77369,3.79086 -4.09431,5.72995c-0.36569,0.53695 -0.39841,1.34845 -0.93878,1.70907c-1.24518,0.83099 -3.04189,0.70157 -4.16184,1.69491c-1.37464,1.21925 -1.8778,3.1706 -2.98157,4.63958c-1.84149,2.45079 -3.05026,2.16681 -5.42691,4.56703c-1.65073,1.6671 -2.41857,4.08637 -4.09412,5.72852c-0.72307,0.70866 -1.86214,0.92982 -2.51846,1.70072c-2.57801,3.02811 -3.7287,6.62366 -5.56795,9.94134c-2.58574,4.66424 -5.63064,8.39119 -7.51667,13.43822c-1.48203,3.96593 -1.67826,7.73572 -4.04064,11.32075c-1.16001,5.80003 -4.11635,10.9645 -5.83151,16.63916c-0.47996,1.58799 -0.34787,3.31832 -0.81851,4.90909c-1.04411,3.52907 -3.43596,6.92986 -4.80911,10.36097c-1.58202,3.95299 -2.61346,7.34068 -4.68935,11.00734c-1.94746,3.43982 -2.75726,7.10863 -4.78711,10.43839c-0.30274,0.49661 -0.32301,1.21135 -0.7926,1.55451c-0.69634,0.50885 -1.78385,0.27679 -2.45523,0.81813c-0.8911,0.7185 -1.2396,1.93845 -2.01228,2.783c-1.07481,1.17478 -3.35662,1.36732 -4.59391,1.67664c-4.33247,2.84432 -8.10392,2.13344 -13.21364,2.13344c-5.46452,0 -10.60631,-0.27351 -15.99824,-0.80091c-2.33027,-0.22793 -4.74653,0.58507 -7.0257,0.0489c-1.31091,-0.30838 -2.44343,-1.15924 -3.73252,-1.5489c-1.34805,-0.40749 -4.33674,-0.66037 -5.96795,-1.41105c-1.53493,-0.70637 -2.10605,-2.69652 -3.46338,-3.70282c-1.05858,-0.78481 -2.38891,-1.19169 -3.68329,-1.4389c-0.47328,-0.09039 -1.00011,0.78825 -1.36567,0.47436c-0.31606,-0.27139 0.71063,-0.5568 0.79431,-0.96489c0.30697,-1.49696 0.10702,-3.10407 0.62543,-4.54156c3.00647,-9.01941 6.06715,-18.00503 9.00972,-27.03247c0.70115,-2.15105 2.08109,-4.0184 3.07337,-6.05162c0.93016,-1.90591 1.29569,-4.31953 1.86782,-6.32653c0.83541,-2.93058 2.18567,-5.71323 2.5755,-8.77232c0.60344,-4.73528 -0.25071,-9.59184 -0.84107,-14.15112c-0.50306,-3.88506 0.0315,-7.16677 -0.92171,-11.08558c-1.45535,-4.36606 -1.6578,-9.49217 -4.97154,-12.98629c-0.82754,-0.87259 -2.13901,-1.18887 -2.9561,-2.07126c-1.03191,-1.11438 -0.63386,-3.00591 -1.31125,-4.36526c-2.02501,-4.0637 -5.13451,-7.81329 -7.49355,-11.69416c-0.84304,-1.38688 -1.29137,-3.0632 -2.42427,-4.22538c-0.65303,-0.6699 -1.90314,-0.38485 -2.63601,-0.96633c-0.64546,-0.51213 -0.68268,-1.5408 -1.26164,-2.12706c-0.69094,-0.69967 -1.75,-0.95227 -2.45528,-1.6375c-1.8734,-1.82014 -2.16372,-4.71564 -3.5545,-6.68672c-0.88944,-1.26057 -2.37806,-2.01847 -3.2737,-3.27466c-0.56981,-0.79918 -0.41906,-1.99126 -1.02857,-2.76059c-0.61064,-0.77076 -1.63683,-1.09201 -2.45502,-1.63746c-0.54546,-1.63637 -0.70478,-3.46033 -1.63726,-4.91143c-0.63738,-0.99187 -2.00648,-1.27028 -2.85808,-2.08565c-1.43944,-1.37821 -2.69009,-4.04972 -2.96726,-6.06131c-0.47902,-3.47649 0.04742,-7.33415 0.04742,-10.85879c0,-2.36565 -0.79064,-4.8181 -0.16129,-7.0985c0.47111,-1.70704 2.26237,-2.76527 3.05219,-4.35025c0.16711,-0.33535 1.92319,-5.64411 1.96922,-5.95896c0.29222,-1.99892 -0.71495,-4.13432 -0.11234,-6.06251c0.24913,-0.79717 1.14837,-1.25735 1.4768,-2.02525c0.8517,-1.99136 0.89741,-5.8604 2.21564,-7.73147c0.66642,-0.9459 1.63666,-1.63785 2.45485,-2.45603c1.53778,-4.20195 3.57566,-8.25499 4.56161,-12.61015c1.32872,-5.86928 2.13735,-12.57849 4.66155,-18.08254c0.69501,-1.51547 1.92675,-2.7601 2.54673,-4.30778c0.50626,-1.26379 0.23987,-2.7626 0.78611,-4.00962c1.59931,-3.65111 4.6582,-5.91665 7.70498,-8.19633c1.10675,-0.8281 2.54595,-1.34322 3.31945,-2.4888c1.75865,-2.60465 2.27655,-9.89292 2.79503,-12.19833c0.54336,-2.41601 1.4912,-4.72893 2.08032,-7.13419c1.38467,-5.65331 1.80116,-11.1633 4.45996,-16.39053c3.30324,-6.87653 9.71887,-10.27664 14.92283,-15.46699c0.6721,-0.67034 0.91131,-1.69161 1.56464,-2.38025c1.42477,-1.50179 3.87744,-1.64569 5.43537,-3.00884c0.74515,-0.65199 6.45368,-7.79358 6.93052,-9.09487c1.05111,-2.86843 0.19334,-8.76136 0.19334,-11.82241c0,-6.81818 0.00119,-13.63659 0.00119,-20.45478c0,0 0.01854,-3.24875 -3.14353,-3.61865c0.44249,-2.77682 1.1484,-6.29115 3.30673,-8.12858z" data-paper-data="{&quot;noHover&quot;:false,&quot;origItem&quot;:[&quot;Path&quot;,{&quot;applyMatrix&quot;:true,&quot;segments&quot;:[[[428.31221,38.27638],[0.88497,-5.55364],[6.32413,0.7398]],[[434.63634,45.71021],[0,0],[0,13.63636]],[[434.63634,86.6193],[0,-13.63636],[0,6.12211]],[[434.25146,110.26373],[2.10221,-5.73687],[-0.95368,2.60257]],[[420.39687,128.45179],[1.4903,-1.30398],[-3.11586,2.72632]],[[409.53055,134.46805],[2.84954,-3.00358],[-1.30666,1.37729]],[[406.40292,139.22796],[1.3442,-1.34068],[-10.40791,10.3807]],[[376.57181,170.15522],[6.60648,-13.75306],[-5.31759,10.45447]],[[367.66109,202.93043],[2.76934,-11.30662],[-1.17825,4.81052]],[[363.50487,217.19544],[1.08672,-4.83202],[-1.03697,4.61083]],[[357.9223,241.58542],[3.5173,-5.2093],[-1.54698,2.29116]],[[351.28631,246.56002],[2.2135,-1.6562],[-6.09356,4.55936]],[[335.88361,262.94397],[3.19863,-7.30222],[-1.09248,2.49405]],[[334.31357,270.96014],[1.01251,-2.52757],[-1.23996,3.09536]],[[329.22291,279.5714],[1.39002,-3.03094],[-5.04841,11.00809]],[[319.90816,315.71925],[2.65745,-11.73857],[-1.9719,8.71032]],[[310.78895,340.92592],[3.07556,-8.40391],[-1.63636,1.63636]],[[305.87985,345.83501],[1.33284,-1.8918],[-2.63645,3.74213]],[[301.44974,361.28981],[1.7034,-3.98272],[-0.65686,1.5358]],[[298.49635,365.33813],[0.49827,-1.59433],[-1.20522,3.85638]],[[298.72131,377.45703],[0.58444,-3.99783],[-0.09206,0.62971]],[[294.78279,389.36898],[0.33422,-0.6707],[-1.57964,3.16995]],[[288.67816,398.0654],[0.94223,-3.41409],[-1.2587,4.5608]],[[288.99997,412.25566],[0,-4.7313],[0,7.04928]],[[288.90313,433.96338],[-0.95803,-6.95299],[0.55434,4.02318]],[[294.83591,446.07998],[-2.87888,-2.75641],[1.7032,1.63075]],[[300.55118,450.24866],[-1.27476,-1.98374],[1.86496,2.9022]],[[303.82391,460.06684],[-1.09091,-3.27273],[1.63636,1.09091]],[[308.733,463.33957],[-1.22128,-1.54151],[1.21903,1.53866]],[[310.78895,468.85813],[-1.13961,-1.59837],[1.79127,2.51237]],[[317.3344,475.40358],[-1.77889,-2.52115],[2.78155,3.94217]],[[324.43964,488.77054],[-3.74681,-3.64028],[1.41055,1.37045]],[[329.34873,492.04327],[-1.38189,-1.39934],[1.15791,1.17253]],[[331.87061,496.29536],[-1.29092,-1.02426],[1.46573,1.16296]],[[337.14126,498.22612],[-1.30605,-1.33981],[2.26581,2.32437]],[[341.9868,506.67303],[-1.68608,-2.77376],[4.71809,7.76173]],[[356.96461,530.05143],[-4.05003,-8.1274],[1.35478,2.7187]],[[359.58429,538.77942],[-2.06382,-2.22876],[1.63418,1.76478]],[[365.49383,542.91973],[-1.65509,-1.74518],[6.62747,6.98825]],[[375.42815,568.88602],[-2.9107,-8.73211],[1.90642,7.83761]],[[377.26677,591.05429],[-1.00612,-7.77013],[1.18072,9.11857]],[[378.94378,619.35385],[1.20688,-9.47056],[-0.77967,6.11818]],[[373.79178,636.89802],[1.67081,-5.86116],[-1.14425,4.01401]],[[370.05552,649.55079],[1.86031,-3.81182],[-1.98458,4.06644]],[[363.9089,661.65409],[1.4023,-4.3021],[-5.88513,18.05488]],[[345.88782,715.71828],[6.01294,-18.03881],[-1.03682,2.87497]],[[344.63634,724.80111],[0.61394,-2.99392],[-0.16737,0.81619]],[[343.04788,726.73098],[-0.63211,-0.54278],[0.73112,0.62779]],[[345.7787,725.78203],[-0.94656,-0.18077],[2.58876,0.4944]],[[353.14333,728.65899],[-2.11716,-1.56963],[2.71465,2.0126]],[[360.06784,736.06375],[-3.06986,-1.41275],[3.26243,1.50137]],[[372.00071,738.88476],[-2.69611,-0.81497],[2.57817,0.77932]],[[379.46373,741.98189],[-2.62182,-0.61677],[4.55835,1.07234]],[[393.51173,741.88307],[-4.66054,-0.45586],[10.78386,1.0548]],[[425.49997,743.48293],[-10.92903,0],[10.21944,0]],[[451.92037,739.21498],[-8.66493,5.68864],[2.47457,-0.61864]],[[461.10576,735.86145],[-2.14962,2.34955],[1.54536,-1.68909]],[[465.12934,730.29536],[-1.7822,1.43699],[1.34276,-1.08268]],[[470.03843,728.65899],[-1.39267,1.01769],[0.93918,-0.68631]],[[471.62323,725.54995],[-0.60547,0.99322],[4.0597,-6.65952]],[[481.19496,704.67302],[-3.89492,6.87963],[4.15178,-7.33332]],[[490.57088,682.65826],[-3.16403,7.90598],[2.74631,-6.86223]],[[500.18578,661.93633],[-2.08822,7.05814],[0.94129,-3.18155]],[[501.82215,652.11815],[-0.95993,3.17597],[3.43032,-11.34934]],[[513.47997,618.84008],[-2.32001,11.60005],[4.72476,-7.17006]],[[521.55674,596.19902],[-2.96406,7.93186],[3.77206,-10.09407]],[[536.58079,569.32416],[-5.17148,9.32848],[3.67848,-6.63537]],[[547.70837,549.44366],[-5.15602,6.05622],[1.31263,-1.5418]],[[552.74213,546.04327],[-1.44615,1.41732],[3.35111,-3.2843]],[[560.92394,534.58872],[-3.30146,3.3342],[4.75329,-4.80042]],[[571.77025,525.45825],[-3.68298,4.90158],[2.20754,-2.93796]],[[577.72811,516.18208],[-2.74928,2.43849],[2.2399,-1.98669]],[[586.04713,512.79529],[-2.49036,1.66199],[1.08073,-0.72124]],[[587.92288,509.37841],[-0.73138,1.0739],[2.64124,-3.87819]],[[596.1047,497.92387],[-2.60275,3.90413],[7.33797,-9.71188]],[[616.6979,469.00007],[-8.81466,8.87738],[5.70486,-5.74545]],[[633.95207,451.82189],[-5.09194,6.55105],[1.89329,-2.43582]],[[638.68838,443.87033],[-1.85065,2.46837],[2.98438,-3.98052]],[[648.40661,432.54269],[-2.89407,4.04665],[1.5032,-2.10186]],[[658.96066,415.28336],[-3.10868,3.16655],[1.73388,-1.76616]],[[665.00164,410.96623],[-1.50412,1.96553],[3.07333,-4.01612]],[[671.01315,397.03666],[-2.49799,4.39712],[2.79652,-4.92261]],[[680.38906,381.56735],[-1.92246,5.25564],[0.90282,-2.46814]],[[681.86047,373.82164],[-0.83107,2.49321],[2.68556,-8.05668]],[[691.58362,349.5731],[-3.20816,7.94254],[1.74909,-8.74544]],[[699.73192,325.14383],[-2.34875,8.45527],[1.35129,-4.86453]],[[701.12738,310.06208],[-0.55673,5.01794],[1.7859,-16.09685]],[[702.72724,261.71021],[0,16.30625],[0,-9.98345]],[[699.75362,234.35257],[2.71384,9.51043],[-1.10772,-3.88191]],[[696.99455,222.56045],[2.07545,3.46248],[-5.50325,-9.18111]],[[675.4694,201.55896],[5.80805,8.83922],[-11.92083,-7.39314]],[[639.94886,178.49917],[12.7679,5.91892],[-4.22813,-1.96007]],[[626.85795,173.59008],[4.21953,1.97854],[-5.7952,-2.71737]],[[610.38665,163.7203],[5.7324,2.84747],[-4.83237,-2.40039]],[[595.97529,156.34902],[4.2459,3.32956],[-3.01429,-2.36375]],[[587.85661,148.21596],[3.0632,2.30002],[-8.08064,-6.06739]],[[562.64379,131.27751],[7.32979,7.31861],[-4.42834,-4.42159]],[[551.10576,116.46805],[4.4412,4.40867],[-1.9842,-1.96967]],[[544.41521,111.40978],[1.85842,2.08875],[-2.61454,-2.93858]],[[537.86975,101.59159],[2.61316,2.93981],[-1.8119,-2.03839]],[[531.3243,96.6825],[1.91021,1.94656],[-4.2901,-4.37173]],[[520.21715,80.09625],[3.34613,5.12538],[-1.19986,-3.99796]],[[512.86116,69.96216],[2.56411,3.29374],[-2.10488,-2.70383]],[[507.52603,61.17537],[1.81615,2.90566],[-1.18679,-1.89874]],[[503.85352,55.5508],[0.99014,2.00831],[-0.58126,-1.17899]],[[502.8702,51.7319],[0.85858,0.99534],[-1.78137,-2.06512]],[[496.32475,46.82281],[1.7165,2.11935],[-2.20698,-2.72495]],[[491.69991,37.37421],[2.26744,2.67485],[-5.89169,-6.95029]],[[468.02302,19.7203],[7.66364,4.56058],[-2.97886,-1.7727]],[[458.22725,18.84657],[3.19899,-0.00819],[-8.08217,0.02069]],[[437.41506,21.8202],[7.71241,-1.73061],[-0.80832,0.18138]],[[434.96152,22.21596],[0.63079,-0.53701],[-4.31666,3.67486]]],&quot;closed&quot;:true}]}" fill="#000000" stroke-width="0.5"/><path d="M253.18182,142.30966c0,-2.07107 1.67893,-3.75 3.75,-3.75c2.07107,0 3.75,1.67893 3.75,3.75c0,2.07107 -1.67893,3.75 -3.75,3.75c-2.07107,0 -3.75,-1.67893 -3.75,-3.75z" fill="#000000" stroke-width="0.5"/><path d="M179.54544,167.67329c0,-2.07107 1.67893,-3.75 3.75,-3.75c2.07107,0 3.75,1.67893 3.75,3.75c0,2.07107 -1.67893,3.75 -3.75,3.75c-2.07107,0 -3.75,-1.67893 -3.75,-3.75z" fill="#ffffff" stroke-width="0.5"/><path d="M286.72727,170.12784c0,-2.07107 1.67893,-3.75 3.75,-3.75c2.07107,0 3.75,1.67893 3.75,3.75c0,2.07107 -1.67893,3.75 -3.75,3.75c-2.07107,0 -3.75,-1.67893 -3.75,-3.75z" fill="#ffffff" stroke-width="0.5"/><path d="M251.16219,297.32758c-0.27964,1.49009 -0.55878,2.98251 -0.81764,4.47626c-0.16768,0.96758 0.06489,2.05414 -0.3953,2.92163c-0.52709,0.9936 -1.86271,1.38116 -2.40552,2.36626c-0.97994,1.77841 -0.65783,4.11256 -1.69654,5.85729c-0.72495,1.21771 -1.89047,2.15773 -2.52437,3.42522c-0.4933,0.98636 -0.24964,2.26218 -0.78612,3.22573c-0.80362,1.44335 -2.2882,2.4443 -3.1392,3.86023c-1.96008,3.26125 -2.98376,7.72172 -5.28074,10.81349c-0.51247,0.6898 -1.59026,0.75365 -2.19704,1.36215c-0.90201,0.90458 -1.30164,2.25574 -2.26318,3.09677c-1.67436,1.4645 -5.22174,2.82597 -7.33985,3.53201c-0.60629,0.46219 -1.19021,0.9572 -1.82079,1.38565c-0.2343,0.15919 -0.58828,0.58923 -0.76623,0.36884c-2.85731,-3.53877 -1.55729,-10.05078 -1.98527,-14.01972c-0.12056,-1.118 -0.68277,-2.16575 -0.82271,-3.28149c-0.14247,-1.13587 0.19912,-2.32188 -0.02586,-3.44432c-0.75212,-3.75244 -2.78274,-7.46574 -3.24556,-11.32285c-0.27323,-2.27707 -0.22185,-4.62934 -0.66579,-6.87133c0.7041,-1.15579 0.70713,-2.44116 0.70713,-2.44116c-0.21702,-1.10441 -0.87564,-2.06691 0.65226,-2.62189c0.16145,-0.05864 0.5331,0.04849 0.78769,0.07092c-0.17443,0.53403 -0.06353,1.96743 -0.05176,2.62235c0.02699,1.50242 -0.20788,3.04941 0.18702,4.49926c0.31714,1.16437 1.35917,2.00285 1.88819,3.08751c1.08214,2.21872 1.79763,4.83289 3.69875,6.40753c1.01999,0.84482 2.43663,1.04553 3.6906,1.4717c2.00887,0.68273 3.87731,1.726 5.99719,1.81441c10.0024,0.41717 12.55042,-11.04813 15.89859,-18.06475c1.62253,-1.57803 3.08197,-3.28891 4.72207,-4.59771z" data-paper-data="{&quot;noHover&quot;:false,&quot;origItem&quot;:[&quot;Path&quot;,{&quot;applyMatrix&quot;:true,&quot;selected&quot;:true,&quot;segments&quot;:[[[492.94099,603.77115],[3.24506,-3.15607],[-6.69635,14.03326]],[[461.17377,640.02212],[20.0048,0.83434],[-4.23974,-0.17683]],[[448.99385,636.31947],[4.01773,1.36546],[-2.50796,-0.85235]],[[441.61325,633.3743],[2.03997,1.68964],[-3.80225,-3.14928]],[[434.22793,620.5356],[2.16428,4.43745],[-1.05804,-2.16931]],[[430.4556,614.35519],[0.63428,2.32874],[-0.78979,-2.8997]],[[430.09088,605.34657],[0.05398,3.00485],[-0.02353,-1.30985]],[[430.19958,600.0973],[-0.34887,1.06806],[-0.50919,-0.04487]],[[428.75278,600.10863],[0.3229,-0.11729],[-3.05578,1.10995]],[[427.45452,605.34657],[-0.43404,-2.20881],[0,0]],[[426.04631,610.22213],[1.4082,-2.31158],[0.88788,4.48398]],[[427.39083,623.94437],[-0.54646,-4.55414],[0.92565,7.71423]],[[433.89022,646.53047],[-1.50424,-7.50488],[0.44995,2.24488]],[[433.93629,653.39892],[-0.28493,-2.27173],[0.27988,2.23148]],[[435.57265,659.94437],[-0.24111,-2.236],[0.85595,7.93789]],[[439.50609,687.94987],[-5.71461,-7.07755],[0.3559,0.44078]],[[441.03681,687.21128],[-0.4686,0.31839],[1.26118,-0.8569]],[[444.67458,684.43816],[-1.21259,0.92437],[4.23622,-1.41207]],[[459.32635,677.36613],[-3.34872,2.929],[1.92309,-1.68205]],[[463.84046,671.17171],[-1.80402,1.80916],[1.21354,-1.217]],[[468.21862,668.44852],[-1.02494,1.37959],[4.59394,-6.18354]],[[478.70138,646.88516],[-3.92015,6.52249],[1.702,-2.83185]],[[484.97391,639.21044],[-1.60723,2.8867],[1.07296,-1.92711]],[[486.55228,632.78442],[-0.9866,1.97272],[1.2678,-2.53498]],[[491.60721,625.94712],[-1.44991,2.43541],[2.07743,-3.48946]],[[495.01236,614.24954],[-1.95988,3.55681],[1.08562,-1.9702]],[[499.82392,609.51759],[-1.05418,1.9872],[0.92038,-1.73498]],[[500.61958,603.67958],[-0.33535,1.93515],[0.51772,-2.98752]],[[502.26112,594.73261],[-0.55927,2.98018],[-3.28021,2.6176]]],&quot;closed&quot;:true}]}" fill="#ffffff" stroke-width="0.5"/><path d="M201.50017,244.47856c-0.10534,-0.50629 -0.23875,-1.00753 -0.41179,-1.49648c-0.4229,-1.19493 -1.91039,-1.80691 -2.35174,-2.99514c-0.31983,-0.86105 0.18342,-1.83235 0.21667,-2.75028c0.07921,-2.18636 -1.05766,-4.5031 -0.32613,-6.56498c0.31532,-0.88875 1.61597,-1.06704 2.14297,-1.84907c1.23511,-1.83283 1.35757,-4.37049 2.85746,-5.99379c1.06831,-1.1562 2.55366,-1.8595 3.72639,-2.90964c1.39104,-1.24561 2.51156,-2.79739 3.95498,-3.9819c6.36943,-5.2269 14.71862,-8.17949 22.67228,-9.76888c4.71308,-0.78497 9.57711,-1.95284 14.33358,-2.38851c1.2416,-0.11372 2.50129,0.1218 3.74373,0.01764c0.7126,-0.05974 1.41563,-0.74884 2.08665,-0.50167c0.45234,0.16662 0.07137,1.0146 0.35636,1.40338c1.52666,2.08265 3.93373,3.50327 5.2119,5.74702c1.5408,2.70479 1.20594,7.52371 1.1996,10.40162c-0.01627,7.39521 0.47367,15.05099 0.3623,22.53983l-1.03106,-0.26269c-0.76701,-0.21686 -0.73435,-1.43187 -0.91262,-2.20875c-0.59831,-2.60737 -0.89178,-5.37321 -2.18943,-7.71255c-0.51717,-0.93233 -1.89433,-1.0579 -2.60885,-1.8492c-1.30638,-1.44677 -0.6117,-4.21162 -2.12759,-5.43712c-1.5445,-1.24862 -3.76059,-1.27344 -5.64096,-1.91278c-0.82541,-0.00693 -6.89603,-0.09821 -7.6462,0.01172c-3.68719,0.54035 -7.30364,2.54342 -10.96969,3.36688c-4.9872,1.12021 -11.14228,3.0653 -14.64207,7.23118c-0.64161,0.76373 -0.50537,1.96592 -1.05835,2.79607c-0.67071,1.0069 -1.93959,1.54257 -2.53844,2.5938c-0.60509,1.06218 -0.41249,2.44392 -0.95989,3.53694c-0.5888,1.17569 -1.88515,2.56771 -2.80359,3.97537c-0.3368,-1.25724 -1.30689,-3.06499 -4.07423,-3.06499c-0.19992,0 -0.39069,0.00904 -0.57224,0.02696z" data-paper-data="{&quot;noHover&quot;:false,&quot;origItem&quot;:[&quot;Path&quot;,{&quot;applyMatrix&quot;:true,&quot;selected&quot;:true,&quot;segments&quot;:[[[404.22725,488.84657],[-0.39984,0],[5.53468,0]],[[412.36636,494.9649],[-0.67359,-2.51448],[1.83688,-2.81532]],[[417.825,487.14805],[-1.17761,2.35137],[1.09481,-2.18605]],[[419.73964,480.06772],[-1.21017,2.12436],[1.19769,-2.10245]],[[424.8149,474.87785],[-1.34142,2.0138],[1.10596,-1.66032]],[[426.92678,469.27803],[-1.28323,1.52745],[6.99959,-8.33175]],[[456.36245,454.69001],[-9.97441,2.24043],[7.33211,-1.64692]],[[478.13842,448.04723],[-7.37438,1.0807],[1.50034,-0.21987]],[[493.62944,448.00116],[-1.65081,-0.01386],[3.76074,1.27868]],[[504.91166,451.8372],[-3.08901,-2.49724],[3.03179,2.45099]],[[509.16407,462.73258],[-2.61276,-2.89355],[1.42904,1.58261]],[[514.3807,466.43501],[-1.03434,-1.86466],[2.59529,4.67867]],[[518.7519,481.87916],[-1.19662,-5.21475],[0.35654,1.55377]],[[520.57504,486.30047],[-1.53401,-0.43372],[0,0]],[[522.46403,486.72573],[0,0],[0.22273,-14.97768]],[[521.72724,441.7102],[-0.03255,14.79042],[0.01267,-5.75583]],[[519.33754,420.93724],[3.0816,5.40959],[-2.55633,-4.4875]],[[508.92656,409.46275],[3.05333,4.1653],[-0.56998,-0.77756]],[[508.21645,406.65898],[0.90467,0.33324],[-1.34204,-0.49435]],[[504.04543,407.66475],[1.42519,-0.11948],[-2.48488,0.20832]],[[496.56469,407.63579],[2.4832,-0.22745],[-9.51294,0.87134]],[[467.94145,412.43457],[9.42615,-1.56993],[-15.90732,3.17878]],[[422.70706,431.91998],[12.73886,-10.4538],[-2.88685,2.36901]],[[414.80517,439.86197],[2.78207,-2.49123],[-2.34547,2.10027]],[[407.35474,445.66734],[2.13662,-2.31241],[-2.99978,3.24658]],[[401.6396,457.63346],[2.47022,-3.66565],[-1.054,1.56407]],[[397.35295,461.32665],[0.63064,-1.7775],[-1.46306,4.12375]],[[397.99997,474.43748],[0.15843,-4.37273],[-0.06651,1.83585]],[[397.56378,479.93136],[-0.63965,-1.7221],[0.88271,2.37647]],[[402.26204,485.91194],[-0.84579,-2.38986],[0.34609,0.9779]],[[403.08326,488.90122],[-0.21068,-1.01258],[0.36311,-0.03585]]],&quot;closed&quot;:true}]}" fill="#ffffff" stroke-width="0.5"/></g></g></svg>