<svg version="1.1" xmlns="http://www.w3.org/2000/svg" xmlns:xlink="http://www.w3.org/1999/xlink" width="748.16667" height="861.06258" viewBox="0,0,748.16667,861.06258"><defs><radialGradient cx="230" cy="183.125" r="284.78197" gradientUnits="userSpaceOnUse" id="color-1"><stop offset="0" stop-color="#10140e" stop-opacity="0"/><stop offset="1" stop-color="#10140e"/></radialGradient></defs><g transform="translate(145.38923,123.409)"><g data-paper-data="{&quot;isPaintingLayer&quot;:true}" fill-rule="nonzero" stroke-linejoin="miter" stroke-miterlimit="10" stroke-dasharray="" stroke-dashoffset="0" style="mix-blend-mode: normal"><path d="M-145.38922,321.88838l22.95818,-445.29738l725.20848,53.1484l-6.75241,392.14899c0,0 -11.31767,244.19534 -16.20578,244.19534c-46.50122,0 -725.20848,-244.19534 -725.20848,-244.19534z" fill="#1b271f" stroke="none" stroke-width="0" stroke-linecap="butt"/><path d="M-103.44641,402.58881l13.20005,-325.90345l660.61565,201.46596c0,0 -16.32396,519.3495 -111.37328,453.7773c-198.2267,-136.75173 -562.44242,-329.33981 -562.44242,-329.33981z" data-paper-data="{&quot;index&quot;:null}" fill="#10140e" stroke="none" stroke-width="0" stroke-linecap="butt"/><g data-paper-data="{&quot;index&quot;:null}" stroke="none" stroke-width="0.5" stroke-linecap="butt"><path d="M148.24118,185.27494c-0.06697,-0.27268 -0.13139,-0.54639 -0.19319,-0.82115c0,0 -0.54233,-2.44046 1.89814,-2.98279c2.44046,-0.54233 2.98279,1.89814 2.98279,1.89814c0.14007,0.63893 0.29649,1.27112 0.46775,1.89718c0.11676,0.15054 0.22686,0.32515 0.32785,0.52712c0.29113,0.58227 0.35483,1.08872 0.28981,1.51937c2.38043,7.22318 6.59036,13.69193 10.17831,20.41902c4.01047,7.51927 6.53248,14.9878 9.18331,22.93811c1.68016,5.03911 3.48741,9.81567 4.51646,15.05525c4.61389,12.24345 7.88712,24.9484 11.02566,37.59725c0.86451,3.4841 2.46322,9.12712 1.47967,12.75636c-1.70767,6.30119 -9.03981,10.4412 -14.38515,13.11327c-2.69459,1.07783 -5.49501,1.99947 -8.12265,3.0512c-0.92334,0.36957 -1.62092,1.2114 -2.56504,1.52411c-3.34612,1.1083 -7.41159,1.45138 -10.88818,2.10356c-7.27496,1.36473 -14.85903,3.06829 -22.27105,3.53423c-12.20015,0.76693 -24.48628,-0.49381 -36.67722,-0.49371c-9.28505,0 -18.33552,-1.53714 -27.60028,-2.00065c-9.64743,-0.48265 -20.81639,1.75002 -30.17283,-1.62189c-6.16566,-2.22201 -11.33604,-7.66928 -16.49466,-11.60969c-1.93335,-2.53107 -4.63372,-5.43204 -5.6093,-8.49346c-0.03208,-0.10067 -0.97071,-8.15148 -1.09065,-8.87385c-1.59419,-9.60161 -1.9906,-20.3793 0.52632,-29.91722c4.12777,-15.6423 13.89542,-28.97958 19.06441,-44.25264c0.95993,-2.25672 2.12337,-4.42384 3.06728,-6.68731c2.4684,-5.91913 3.85878,-13.52189 9.34792,-17.5714c5.89702,-4.35041 14.83824,-4.875 21.77567,-5.88721c14.68513,-2.14264 29.46199,-2.81452 44.21678,-1.09406c5.9478,0.03618 10.84366,2.2647 16.51911,3.57057c5.87312,1.35134 13.07655,1.74822 19.20294,0.80227z" fill="#1b1b1b"/><path d="M177.97883,241.82992c0.76666,0.01472 1.37917,0.38223 1.37917,0.38223l2.77778,1.66666c2.94339,1.78725 6.16592,3.93042 7.6627,7.23442c0.12467,0.2752 1.1865,5.56777 1.28788,6.12528c0.83467,4.59018 1.6964,9.11618 1.70763,13.78404c-0.01504,1.08351 0.21214,2.1979 -0.04511,3.25054c-0.3446,1.41003 -0.74596,2.92734 -1.7263,3.99778c-0.98908,1.07999 -2.61148,1.33302 -3.85871,2.10052c-0.88196,0.54273 -1.56331,1.41665 -2.51612,1.82231c-3.01728,1.2846 -6.06831,0.50393 -9.17654,0.76701c-16.86087,1.42711 -33.76935,1.1174 -50.73278,1.1174c-8.12163,0 -16.56877,0.71311 -24.65064,-0.00852c-17.77428,-1.58707 -35.42348,-2.53484 -53.31215,-2.97916c-7.97426,-0.72278 -16.55128,-1.35981 -24.06993,-4.41062c-3.99514,-1.6211 -5.83417,-2.43979 -7.94111,-6.12921c-2.73401,-4.78748 -3.76979,-12.49227 -1.76903,-17.73376c0.33486,-0.87727 1.301,-1.40127 1.68282,-2.25915c0.82452,-1.85259 1.34993,-3.8364 2.26487,-5.64604c1.32935,-2.6293 1.05338,-7.14344 3.41865,-9.14441c3.00822,-2.5449 8.51694,-0.96873 11.64582,0.05126c5.53743,0.90996 10.57242,3.33423 15.98125,4.41583c4.23721,0.84731 8.96861,0.53667 13.26195,1.10845c8.85338,1.17907 17.04796,4.79696 25.91593,5.52162c6.6735,0.54533 13.65507,-0.00852 20.34936,-0.00852c7.07574,0.00028 13.93406,-1.27037 20.97286,-1.66284c10.57736,-0.58979 21.11721,-0.85303 31.64957,-1.66566c5.58486,-0.4309 10.18952,-2.71842 15.7109,-2.78261c0,0 1.4332,0 2.1293,1.08515z" fill="#ffffff"/><g><path d="M134.1169,102.08725c0.9697,-0.47915 2.05489,-0.0722 2.05489,-0.0722c5.67901,2.14123 11.74454,3.21879 17.3165,5.59311c1.81227,0.77224 6.94445,2.88913 8.5597,4.41074c2.02552,1.90809 2.9713,4.71559 4.66925,6.92025c3.99623,5.1888 8.83411,10.70027 11.91564,16.5045c2.15219,4.05376 3.01433,10.13639 4.11448,14.54275c1.64405,11.56628 1.06052,23.9978 -2.27828,35.07858c-0.2854,0.94717 -1.01419,5.85269 -1.1624,6.26578c-0.38037,1.06021 -1.28631,1.86921 -1.71926,2.90906c-1.64765,3.95731 -2.3097,7.02616 -5.52567,10.21715c-2.1672,2.15037 -5.19428,3.21723 -7.88414,4.66137c-1.04306,0.56 -1.84104,1.54995 -2.93764,1.99608c-1.03118,0.41952 -2.26127,0.12875 -3.29582,0.53987c-0.80116,0.31836 -1.36364,1.05513 -2.04546,1.58269c-4.72834,1.60708 -9.58298,3.62727 -14.44135,4.65499c-4.4599,0.94342 -8.74985,0.28775 -13.20836,0.62428c-2.78215,0.20999 -5.43609,1.31207 -8.20509,1.65422c-8.93741,1.10435 -18.32061,-0.50468 -27.17833,-1.1009c-5.5291,-0.37216 -10.01691,0.05719 -15.39642,-1.73187c-9.15398,-1.50427 -18.19125,-3.69007 -27.4215,-4.38289c-5.26582,-0.39525 -10.48284,-0.06354 -15.10432,-3.2375c-7.3534,-5.0502 -10.17165,-14.03296 -15.19711,-20.86784c-0.75428,-2.20303 -1.74955,-4.32433 -2.40413,-6.55901c-1.57392,-5.37327 -1.2172,-11.5984 -1.75814,-17.13269c-0.39936,-4.08572 -1.26673,-8.135 -1.66667,-12.22222c-0.54091,-5.52781 -0.01217,-11.36125 -0.01217,-16.91301c0,-4.39065 -0.2011,-8.62162 0.6592,-12.93459c1.74194,-4.33777 1.99904,-9.00401 4.81269,-12.97163c3.6479,-5.14401 11.57327,-8.57997 17.40035,-10.37099c4.71612,-1.44956 9.39525,-1.7362 14.27373,-2.30989c11.24445,-1.32232 22.3622,-1.13512 33.68736,-1.13512c12.03196,0 24.76716,-1.20566 36.6014,1.15966c2.34508,0.46871 4.83342,0.37698 7.06864,1.22721c1.33986,0.50966 2.34501,1.66125 3.60495,2.34502c0.6794,0.36872 1.38392,0.71902 2.1035,1.05505z" fill="#584529"/><path d="M184.84325,110.93346c4.97808,4.43297 9.06987,9.42741 10.66763,16.20726c0.39977,1.69639 1.31226,5.74337 0.32064,7.28367c-2.76054,4.288 -7.93037,4.09166 -12.20418,4.09814c-2.38984,0.00363 -4.85243,0.53486 -7.16933,-0.05106c-5.80798,-1.46876 -10.19918,-6.00376 -13.0079,-11.06634c-1.26559,4.29448 -5.27112,5.50359 -9.26722,5.56184c-6.36256,0.09275 -11.51089,-1.68584 -17.58229,-3.32505c-1.30148,-0.35138 -2.71968,-0.26726 -3.97004,-0.77114c-0.99795,-0.40216 -1.73163,-1.27835 -2.62042,-1.88473c-1.09615,-0.74786 -2.50656,-1.13872 -3.33291,-2.17697c-0.64311,-0.80803 -0.08926,-2.23392 -0.78508,-2.99703c-0.43027,-0.47188 -1.27688,0.03075 -1.91546,0.0353c-1.41272,0.01005 -2.8255,0.0068 -4.23825,0.00851c-7.58384,0.00921 -14.52236,0.06184 -21.925,-1.80286c-6.74311,-2.98816 -13.35982,-6.16401 -19.46996,-10.28918c-1.01101,-0.68256 -2.25234,-1.06257 -3.10802,-1.93196c-2.02036,-2.05271 -5.41102,-7.88112 -4.6314,-11.09867c1.08445,-4.47564 2.50523,-4.82948 5.36143,-7.11602c1.2331,-0.98717 2.29623,-2.21677 3.66746,-3.00086c3.47456,-1.98681 7.24831,-1.66064 11.01041,-1.97415c7.50171,-0.62514 13.9396,-0.47369 21.37296,1.18518c2.51965,0.98945 5.2246,1.42388 7.80821,2.23173c6.13412,1.91804 12.03334,4.5271 18.29433,6.09275c2.46622,0.61671 5.01569,0.92611 7.42828,1.72735c5.34646,1.77561 10.2208,4.87178 15.51997,6.6548c1.97493,0.66452 4.18751,0.42164 6.14934,1.12389c3.02649,1.08335 5.79792,2.64183 9.03356,3.2303c1.8609,0.33844 3.78925,0.20821 5.64539,0.57182l0.62083,-0.04855c0,0 2.5,0 2.5,2.5c0,0.4018 -0.06458,0.73902 -0.17298,1.02205z" fill="#302617"/><path d="M108.12449,85.41232c0.54387,2.29189 0.95411,4.60544 1.31745,6.97147c1.22742,7.99295 3.10924,15.90432 3.89545,23.948c0.55197,5.6472 4.11332,11.61294 2.73889,17.41568c-0.36933,1.55931 -1.23178,2.95873 -1.84767,4.4381c-3.8248,7.57509 -4.17738,16.87915 -4.77277,25.21458c-1.13862,15.94069 -1.52053,32.53532 1.62295,48.24325c0.25436,1.2718 1.3887,6.37934 0.90545,7.14423c-1.03898,1.64453 -3.16544,2.36819 -5.00474,3.00141c-1.23181,0.42407 -2.605,0.05484 -3.90771,0.06687c-3.5178,0.03249 -7.03757,0 -10.55555,0c-5.0984,0 -10.52549,0.44282 -15.55302,-0.61749c-3.85703,-0.81345 -7.66496,-2.02357 -11.5727,-2.75835c-6.54602,-1.23087 -13.96449,-0.73662 -20.31407,-2.85782c-1.95005,-0.65146 -4.91768,-2.54595 -6.73297,-3.63617c-5.82857,-4.3945 -13.7885,-7.33758 -18.35332,-13.31387c-3.31498,-4.34 -3.49323,-10.23827 -4.89018,-15.34131c-2.95271,-10.78624 -5.07191,-21.03498 -5.08375,-32.30834c0,-6.24204 -0.49482,-12.46857 -1.09895,-18.64255c-0.64177,-6.55861 0.44817,-13.45979 1.11111,-19.93713c0.7724,-7.54677 -0.94147,-15.29264 0.55556,-22.77778c-0.00538,-2.98689 -0.42963,-9.86024 2.66056,-11.75819c1.78851,-1.09847 4.14574,-0.66258 6.22677,-0.93595c3.25276,-0.42729 6.5099,-0.83002 9.74885,-1.35177c13.54128,-2.18131 27.25951,-0.28567 40.82753,-1.52892c6.29127,-0.57648 12.21663,-2.77641 18.57968,-2.78995c4.22846,0 8.55854,-0.26912 12.77777,0c1.40557,0.08966 3.17615,-0.52011 4.20176,0.44519c3.44885,3.24607 2.74268,7.98773 2.74268,12.05481v0.55555c0,0 0,0.50219 -0.22507,1.05641z" fill="#000000"/></g><path d="M155.47238,165.49948c-0.51029,3.88944 -1.75625,6.26682 -3.69076,9.7359c-3.25516,2.62372 -5.96681,4.92415 -10.42375,4.64397c-4.99706,-0.31413 -9.81785,-2.7715 -7.92162,-8.6288c1.73428,-5.35703 7.26721,-9.21752 12.45604,-10.37875c9.65412,-2.16053 21.61999,-1.40525 30.64017,2.66685c0,0 2.27592,1.0345 1.24141,3.31042c-1.0345,2.27592 -3.31042,1.24141 -3.31042,1.24141c-5.69879,-2.61035 -12.71614,-3.60013 -19.39265,-3.32468zM149.7649,165.25937c-0.95369,0.13972 -1.88968,0.30564 -2.80243,0.49656c-3.23661,0.67702 -5.19872,2.12236 -7.317,4.72303c-0.78639,0.96547 -2.25414,2.11964 -1.79394,3.27669c0.46094,1.15893 3.18397,1.11569 3.64257,1.12555c2.83687,0.06101 4.31666,-1.16673 6.45594,-2.85811c1.31505,-2.48845 2.16791,-4.17056 2.52583,-6.86259c-0.00695,0.00092 -0.0139,0.00183 -0.02085,0.00275l-0.16884,0.85614c0,0 -0.29313,-0.29313 -0.52129,-0.76002z" fill="#000000"/><path d="M116.41975,202.69981c0,-2.5 2.5,-2.5 2.5,-2.5l1.55414,0.02074c9.33221,-1.20912 18.39144,-2.83402 27.82902,-2.83402c0,0 2.5,0 2.5,2.5c0,2.5 -2.5,2.5 -2.5,2.5c-9.21836,0 -18.06937,1.61018 -27.18627,2.79254l-2.1969,0.02074c0,0 -2.5,0 -2.5,-2.5z" fill="#000000"/><path d="M63.00079,161.67814c1.26936,1.24713 2.79059,2.78356 3.28438,4.31122c2.05891,6.36968 -3.66988,13.62025 -9.74935,14.78854c-2.47878,0.47635 -5.11395,-0.35999 -7.47114,-0.83322c-1.21024,-1.0942 -2.80918,-1.87298 -3.63073,-3.28259c-0.67395,-1.15634 -0.55748,-2.63281 -0.59662,-3.97064c-0.18959,-6.48055 5.08573,-12.95147 11.04041,-15.17171c2.88558,-1.0759 6.88043,-0.7692 9.90222,-0.76952c9.53617,-0.00102 18.63207,1.07478 26.02804,7.49547c0,0 1.88144,1.64626 0.23518,3.5277c-1.64626,1.88144 -3.5277,0.23518 -3.5277,0.23518c-6.36512,-5.62111 -14.50954,-6.25741 -22.73551,-6.25835c-0.83164,-0.00009 -1.78807,-0.04643 -2.77916,-0.07207zM57.29565,162.33474c-4.12004,1.76769 -10.71883,9.38836 -6.05909,13.10631c0.89943,0.1351 3.31061,0.61352 4.40716,0.41712c3.12086,-0.55897 7.09617,-4.94053 5.87999,-8.34289c-0.20648,-0.57766 -2.66768,-2.90211 -2.82548,-3.05881l0.02456,0.15571c0,0 -1.5183,-0.75915 -1.42714,-2.27745z" fill="#ffffff"/><path d="M57.34012,193.63549l2.05322,0.04855c10.95676,2.20841 22.19199,0.63176 33.13421,2.81328c0,0 2.45145,0.49029 1.96116,2.94174c-0.49029,2.45145 -2.94174,1.96116 -2.94174,1.96116c-10.92494,-2.19226 -22.16566,-0.6351 -33.13421,-2.81328l-1.07264,0.04855c0,0 -2.5,0 -2.5,-2.5c0,-2.5 2.5,-2.5 2.5,-2.5z" fill="#ffffff"/></g><g stroke="none" stroke-width="0.5" stroke-linecap="butt"><path d="M381.34289,199.27922c-0.30191,-0.12095 -0.61351,-0.32269 -0.92511,-0.63429c-1.76777,-1.76777 0,-3.53553 0,-3.53553l2.32332,-1.28779c0.76998,0.0037 1.54064,-0.00109 2.31194,-0.0126c0.19284,-0.0315 0.40221,-0.03782 0.62876,-0.01083c7.92303,-0.15435 15.91067,-0.96678 23.89564,-0.52485c9.5537,0.52875 19.14352,1.10384 28.71921,1.10384c8.14815,0 16.2963,0 24.44444,0c6.29125,0 12.50968,-0.35876 18.65101,1.27388c7.67144,2.03941 15.13278,4.52037 22.37313,7.8344c3.11854,1.42741 5.51021,3.33556 8.65958,4.63093c5.00461,3.13749 10.37252,7.42341 13.96971,12.2433c2.22605,2.98269 3.46808,6.62391 4.78882,10.05873c5.39285,14.02507 7.17132,29.15069 5.34357,44.15903c-0.74277,6.09916 -2.21774,12.13661 -2.98478,18.25573c-1.67663,7.60185 -9.19509,13.06327 -15.67182,16.77015c-6.53899,3.74252 -13.31799,6.50605 -20.38045,9.06574c-2.14139,0.77612 -4.04504,2.15849 -6.22559,2.8166c-3.01881,0.9111 -6.5687,0.66781 -9.63431,0.66927c-7.26782,0.00347 -14.48986,-0.55474 -21.76411,-0.55746c-12.81583,-0.99529 -25.65444,-0.68963 -38.41311,-1.67106c-2.39072,-0.1839 -4.86048,-0.92944 -7.2512,-1.11334c-2.57532,-0.1981 -5.17239,0.18576 -7.7488,0.00223c-10.9371,-0.77909 -22.09359,-2.56045 -32.96117,-3.90875c-7.76937,-1.29407 -15.95156,-2.00784 -22.33547,-7.20717c-2.56848,-2.09188 -5.68125,-5.67178 -6.87217,-8.84735c-0.40662,-1.08424 -0.22062,-2.3255 -0.58698,-3.424c-0.74199,-2.2248 -2.0796,-4.3063 -2.3326,-6.63788c-1.13397,-10.45037 1.6142,-22.45683 6.96299,-31.44937c7.47802,-14.93384 17.42074,-28.54709 24.36468,-43.73051c2.34965,-5.13769 5.95003,-9.43469 8.65084,-14.33108z" fill="#006bff"/><path d="M380.25213,201.5951c-3.965,-3.3222 -8.12431,-6.38854 -10.33786,-11.45108c-1.82364,-4.1708 -2.40131,-8.31149 -3.47725,-12.62126c-0.50088,-2.0063 -1.51837,-3.89878 -1.7393,-5.95482c-0.51422,-4.78554 -0.16409,-9.70933 -1.11111,-14.44444c-0.02467,-6.13158 -0.51802,-12.42733 0.58435,-18.47482c2.24947,-12.34035 7.30709,-23.95867 8.86723,-36.52605c0.70808,-5.70378 1.56478,-10.92896 3.38441,-16.39005c0.48032,-1.44152 0.26291,-3.54425 1.59842,-4.26888c1.59048,-0.86297 3.60561,0.3114 5.40841,0.4671c7.355,7.91098 15.35815,15.38888 23.3214,22.68887c3.10063,2.84238 5.38637,5.90703 8.3136,8.82306c0.84922,0.84598 1.96678,1.39334 2.80517,2.25005c0.65814,0.67251 1.14384,2.81761 1.81714,2.16027c1.9279,-1.88218 2.71413,-4.728 4.61993,-6.63255c2.02979,-2.02846 4.63214,-3.39148 6.8727,-5.18441c3.86119,-3.08978 7.63598,-6.21023 11.75277,-8.95476c1.78191,-1.42287 3.65591,-2.7382 5.60398,-3.92342c1.45121,-0.88293 2.66803,-2.94738 4.34323,-2.66582c2.20168,0.37005 3.49354,2.78395 5.16505,4.26394c4.19954,3.71838 7.52626,8.55159 10.7232,13.11696c2.49404,3.56159 5.17169,7.08058 7.54771,10.72156c0.27687,0.42427 0.17557,1.46946 0.67102,1.36369c1.15086,-0.2457 1.83348,-1.4846 2.82967,-2.11106c2.20923,-1.3893 4.47618,-2.70864 6.85389,-3.78445c7.8977,-3.57337 16.81859,-7.61501 25.39757,-9.03755c2.40785,-0.97802 8.20785,-4.21168 10.41564,-3.96359c6.51132,0.7317 4.62544,9.39775 5.48723,13.65861c1.34765,6.66308 0.62493,12.97983 1.14749,19.68839c0.79007,10.14276 0.62384,20.4226 0.53544,30.6468c-2.14341,6.57503 -3.52992,13.04052 -6.95497,19.15769c-0.18937,0.33821 -3.13747,4.18561 -3.4719,4.66356c-2.71542,3.88079 -5.14983,7.82647 -8.73618,11.00026c-1.71713,1.5196 -3.91267,2.39217 -5.87923,3.57133c-4.86945,2.91974 -9.51498,6.39689 -14.85246,8.53664c-3.426,1.37346 -7.30012,2.25143 -10.82019,3.41965c-5.76243,1.16218 -11.29499,1.85618 -17.15299,2.30114c-2.91266,0.22124 -5.89114,-0.26953 -8.79789,-0.00734c-4.09492,0.36937 -8.14777,1.30292 -12.26236,1.67032c-9.52627,0.8506 -19.53099,0.00852 -29.09509,0.00852c-8.24255,0 -30.57176,-14.37951 -31.37787,-17.78206z" fill="#66ecff"/><path d="M399.76437,164.86892c-0.06381,0.0054 -0.12946,0.00903 -0.19701,0.01078c-0.00622,0.14062 -0.01511,0.2812 -0.02696,0.42175c-0.0265,0.31434 0.08877,0.01929 0.22396,-0.43253zM395.66174,150.63173c0.34685,-2.31017 1.29069,-4.779 3.9077,-5.00055c1.73041,-0.14649 3.09925,1.73832 4.2019,3.07994c0.67794,0.82486 0.60636,2.04823 0.86436,3.0843c0.90395,3.63006 1.65289,9.53718 0.26788,13.11376c-0.62062,1.60266 -1.06241,3.68474 -2.60014,4.45224c-6.18428,3.08664 -6.34748,-0.94373 -7.40083,-4.64396c-1.4068,-4.94179 -0.42646,-9.31863 0.75914,-14.08574z" fill="#000000"/><path d="M457.86367,154.84993c0.14318,-0.7214 0.37281,-1.38964 0.73851,-1.93521c3.07493,-4.58734 8.67802,-4.82496 11.37555,0.1811c2.80754,5.21022 1.07288,16.48517 -5.31887,18.46918c-0.35055,0.18723 -0.75093,0.29337 -1.17611,0.29337c-0.09339,0 -0.18559,-0.00512 -0.27632,-0.0151c-0.41745,0.03352 -0.85121,0.03073 -1.30128,-0.01156c-1.44492,-0.13576 -2.67818,-1.21868 -3.77525,-2.16877c-4.83185,-4.18448 -3.29467,-10.19266 -0.26623,-14.81301z" fill="#000000"/><path d="M473.49105,186.49485c0.54699,-0.4084 1.91721,-1.16233 3.28743,0.20789c1.76777,1.76777 0,3.53553 0,3.53553l-1.4648,0.96096c-5.29389,1.30516 -10.66039,0.98475 -16.07807,0.98475c-19.61403,0 -39.46716,0.77774 -58.92628,-2.15207c-5.04761,-0.75998 -10.34242,-1.75424 -15.01757,-3.8933c-2.13408,-0.97642 -4.16653,-2.27717 -6.44807,-2.82693c0,0 -2.42536,-0.60634 -1.81902,-3.0317c0.60634,-2.42536 3.0317,-1.81902 3.0317,-1.81902c4.5859,1.17904 8.44985,3.95994 13.07381,5.16468c4.15484,1.08252 8.58633,1.4592 12.83072,1.97656c17.66472,2.15322 35.50745,1.58176 53.27472,1.58176c4.76286,0 9.59137,0.36494 14.25543,-0.68913z" fill="#000000"/></g><g stroke="none" stroke-width="0.5" stroke-linecap="butt"><path d="M209.71981,217.79552c7.25796,1.12067 15.7919,0.6505 22.74981,-0.95046c6.72373,-1.54706 12.52387,-4.18721 19.57025,-4.23007c17.48006,-2.03822 34.98629,-1.24226 52.38383,1.29614c8.21882,1.19917 18.81151,1.82064 25.79773,6.97459c6.50302,4.79747 8.1502,13.8045 11.07453,20.8169c1.11825,2.68154 2.49659,5.24894 3.63382,7.9225c6.12373,18.09406 17.6955,33.8948 22.58569,52.42629c2.98181,11.29962 2.51218,24.06799 0.62355,35.44306c-0.14209,0.85579 -1.2541,10.39364 -1.2921,10.51289c-1.15577,3.62688 -4.35491,7.06367 -6.64536,10.06224c-6.11143,4.66822 -12.2368,11.12164 -19.54128,13.75405c-11.08462,3.99472 -24.31653,1.34966 -35.74588,1.92146c-10.976,0.54912 -21.69813,2.37018 -32.69817,2.37018c-14.44266,-0.00013 -28.99809,1.49349 -43.45166,0.5849c-8.78104,-0.552 -17.76593,-2.57022 -26.38461,-4.18702c-4.11873,-0.77264 -8.93511,-1.17909 -12.89926,-2.4921c-1.1185,-0.37047 -1.94493,-1.36779 -3.03883,-1.80563c-3.11296,-1.24599 -6.43066,-2.33786 -9.62294,-3.61477c-6.33265,-3.16561 -15.01907,-8.0703 -17.04214,-15.53534c-1.16522,-4.29959 0.72878,-10.98489 1.75297,-15.11252c3.71823,-14.98515 7.59605,-30.03676 13.06215,-44.54163c1.21913,-6.20737 3.36018,-11.86617 5.35068,-17.83602c3.14045,-9.41877 6.12829,-18.26677 10.87951,-27.17489c4.25066,-7.96961 9.23818,-15.63316 12.05829,-24.1905c-0.07703,-0.51019 -0.00158,-1.11019 0.34334,-1.8c0.11963,-0.23927 0.25009,-0.44614 0.38841,-0.62448c0.20289,-0.7417 0.38819,-1.49065 0.55415,-2.2476c0,0 0.6425,-2.89124 3.53374,-2.24873c2.89124,0.6425 2.24873,3.53374 2.24873,3.53374c-0.07321,0.32552 -0.14955,0.64977 -0.22887,0.97282z" fill="#66ff6f"/><path d="M355.64016,88.26938c4.76923,3.23308 10.46237,6.96171 14.22773,11.40389c5.32321,6.28006 8.8262,14.75612 11.34583,22.52399c7.16795,22.09842 5.16844,46.26696 2.76133,68.97551c-1.78235,10.05209 -3.5103,20.59731 -9.20331,29.34009c-16.68088,25.61692 -49.77818,33.25591 -78.0827,35.36022c-20.21776,1.49761 -40.03883,0.37735 -60.2187,-0.92884c-13.05409,-0.84495 -25.91235,-1.94833 -37.84134,-7.97607c-4.38594,-2.21624 -7.29676,-5.444 -11.3217,-8.1488c-4.2597,-5.05441 -7.86028,-10.46586 -11.66589,-15.85599c-0.89356,-1.26561 -2.21896,-2.28295 -2.77343,-3.72959c-1.80729,-4.7154 0.59185,-12.61376 1.0903,-17.3103c1.83371,-17.27791 7.98634,-32.89057 15.64152,-48.36982c-5.00347,-0.22351 -10.00866,-0.4218 -15.01614,-0.5889c-14.91318,-0.49767 -30.18961,0.0014 -45.02585,-1.33456c-2.68191,-0.59028 -6.09612,0.16311 -8.04572,-1.77084c-1.3814,-1.37032 0.08337,-3.90274 0.38909,-5.82435c1.197,-7.52375 6.20912,-15.32419 10.65261,-21.35599c3.78877,-5.14303 8.13904,-9.55536 12.3223,-14.33802c10.81768,-12.36765 22.83168,-24.10209 37.84457,-31.40757c0.19811,-0.0964 11.05597,-3.93921 11.20157,-3.99083c7.74214,-2.32548 15.56508,-4.89055 23.67633,-5.60077c13.20635,-1.15633 27.12087,0.76431 40.3096,1.55548c10.46911,0.62804 21.3432,1.56976 31.36326,4.88283c22.93122,0.39416 46.11465,2.95064 66.36874,14.48923z" fill="#ffffff"/><path d="M304.48289,213.96713c1.32454,2.64908 -1.32455,3.97363 -1.32455,3.97363l-2.654,1.3088c-3.47642,1.29942 -7.05108,2.34845 -10.66025,3.21321c-23.92994,2.01741 -48.68482,0.38454 -72.50282,-2.36518c-9.60846,-1.10927 -19.68014,-1.66879 -27.92021,-7.08041c0,0 -2.46434,-1.64289 -0.82145,-4.10723c1.64289,-2.46434 4.10723,-0.82145 4.10723,-0.82145c7.22199,4.90359 16.82501,5.1457 25.3134,6.1246c23.27708,2.68433 47.49181,4.32499 70.88358,2.40124c3.2264,-0.7768 6.41468,-1.74236 9.52063,-2.91116l2.08482,-1.06059c0,0 2.64908,-1.32455 3.97363,1.32455z" fill="#000000"/><path d="M202.46954,185.4474c0,-1.63573 1.32603,-2.96176 2.96176,-2.96176c1.63573,0 2.96176,1.32603 2.96176,2.96176c0,1.63573 -1.32603,2.96176 -2.96176,2.96176c-1.63573,0 -2.96176,-1.32603 -2.96176,-2.96176z" fill="#000000"/><path d="M270.33413,187.3457c0,-1.63573 1.32603,-2.96176 2.96176,-2.96176c1.63573,0 2.96176,1.32603 2.96176,2.96176c0,1.63573 -1.32603,2.96176 -2.96176,2.96176c-1.63573,0 -2.96176,-1.32603 -2.96176,-2.96176z" fill="#000000"/></g><path d="M-54.78197,386.72191v-407.19382h569.56394v407.19382z" fill="url(#color-1)" stroke="none" stroke-width="0" stroke-linecap="butt"/><path d="M78.0803,281.90002l-10.44174,-165.87468l350.94782,-22.09201l10.44174,165.87468z" fill="#ffffff" stroke="none" stroke-width="0" stroke-linecap="butt"/><path d="M80.23502,276.0462l-9.72466,-154.48346l345.92131,-21.77559l9.72466,154.48346z" fill="none" stroke="#000000" stroke-width="2.5" stroke-linecap="butt"/><path d="M322.50782,155.9464c0,0 -38.02701,2.39379 -61.99357,3.90247c-33.08258,2.08253 -118.12288,7.43578 -118.12288,7.43578" fill="none" stroke="#000000" stroke-width="2.5" stroke-linecap="round"/><path d="M396.3233,126.06763l-74.55983,4.69351" fill="none" stroke="#000000" stroke-width="2.5" stroke-linecap="round"/><path d="M93.26315,195.18883l230.80038,-14.52878" fill="none" stroke="#000000" stroke-width="2.5" stroke-linecap="round"/><path d="M215.52568,244.26473l-108.06986,6.80295" fill="none" stroke="#000000" stroke-width="2.5" stroke-linecap="round"/><path d="M260.18424,241.45349l149.11966,-9.38701" fill="none" stroke="#000000" stroke-width="2.5" stroke-linecap="round"/><path d="M348.1615,161.90115l-1.21293,-19.26827l61.52815,-3.87317l1.21293,19.26827z" fill="none" stroke="#000000" stroke-width="2.5" stroke-linecap="butt"/><text transform="translate(350.8438,159.04682) rotate(-3.60196) scale(0.46168,0.46168)" font-size="40" xml:space="preserve" fill="#000000" fill-rule="nonzero" stroke="none" stroke-width="1" stroke-linecap="butt" stroke-linejoin="miter" stroke-miterlimit="10" stroke-dasharray="" stroke-dashoffset="0" font-family="Malgun Gothic" font-weight="normal" text-anchor="start" style="mix-blend-mode: normal"><tspan x="0" dy="0">192.80</tspan></text><text transform="translate(333.83954,158.92571) rotate(-3.60196) scale(0.46168,0.46168)" font-size="40" xml:space="preserve" fill="#000000" fill-rule="nonzero" stroke="none" stroke-width="1" stroke-linecap="butt" stroke-linejoin="miter" stroke-miterlimit="10" stroke-dasharray="" stroke-dashoffset="0" font-family="Malgun Gothic" font-weight="normal" text-anchor="start" style="mix-blend-mode: normal"><tspan x="0" dy="0">$</tspan></text><text transform="translate(81.73726,156.19552) rotate(-3.60222) scale(0.26994,0.26994)" font-size="40" xml:space="preserve" fill="#000000" fill-rule="nonzero" stroke="none" stroke-width="1" stroke-linecap="butt" stroke-linejoin="miter" stroke-miterlimit="10" stroke-dasharray="" stroke-dashoffset="0" font-family="Malgun Gothic" font-weight="normal" text-anchor="start" style="mix-blend-mode: normal"><tspan x="0" dy="0">PAY TO THE</tspan><tspan x="0" dy="46.15px">ORDER OF:</tspan></text><text transform="translate(291.34666,130.15101) rotate(-3.60222) scale(0.26994,0.26994)" font-size="40" xml:space="preserve" fill="#000000" fill-rule="nonzero" stroke="none" stroke-width="1" stroke-linecap="butt" stroke-linejoin="miter" stroke-miterlimit="10" stroke-dasharray="" stroke-dashoffset="0" font-family="Malgun Gothic" font-weight="normal" text-anchor="start" style="mix-blend-mode: normal"><tspan x="0" dy="0">DATE:</tspan></text><text transform="translate(80.38232,253.73936) rotate(-3.60223) scale(0.18009,0.18009)" font-size="40" xml:space="preserve" fill="#000000" fill-rule="nonzero" stroke="none" stroke-width="1" stroke-linecap="butt" stroke-linejoin="miter" stroke-miterlimit="10" stroke-dasharray="" stroke-dashoffset="0" font-family="Malgun Gothic" font-weight="normal" text-anchor="start" style="mix-blend-mode: normal"><tspan x="0" dy="0">MEMO:</tspan></text><text transform="translate(143.60957,159.62208) rotate(-3.60161) scale(0.37831,0.37831)" font-size="40" xml:space="preserve" fill="#000000" fill-rule="nonzero" stroke="none" stroke-width="1" stroke-linecap="butt" stroke-linejoin="miter" stroke-miterlimit="10" stroke-dasharray="" stroke-dashoffset="0" font-family="Handwriting" font-weight="normal" text-anchor="start" style="mix-blend-mode: normal"><tspan x="0" dy="0">SomeRandom</tspan></text><text transform="translate(95.45442,188.38118) rotate(-3.60198) scale(0.285,0.285)" font-size="40" xml:space="preserve" fill="#000000" fill-rule="nonzero" stroke="none" stroke-width="1" stroke-linecap="butt" stroke-linejoin="miter" stroke-miterlimit="10" stroke-dasharray="" stroke-dashoffset="0" font-family="Handwriting" font-weight="normal" text-anchor="start" style="mix-blend-mode: normal"><tspan x="0" dy="0">One Hundred ninety-two dollars and 80/100</tspan></text><text transform="translate(104.18124,242.22208) rotate(-3.60166) scale(0.31121,0.31121)" font-size="40" xml:space="preserve" fill="#000000" fill-rule="nonzero" stroke="none" stroke-width="1" stroke-linecap="butt" stroke-linejoin="miter" stroke-miterlimit="10" stroke-dasharray="" stroke-dashoffset="0" font-family="Handwriting" font-weight="normal" text-anchor="start" style="mix-blend-mode: normal"><tspan x="0" dy="0">employee of the month</tspan></text><text transform="translate(272.00032,232.72546) rotate(-3.60176) scale(0.43433,0.43433)" font-size="40" xml:space="preserve" fill="#000000" fill-rule="nonzero" stroke="none" stroke-width="1" stroke-linecap="butt" stroke-linejoin="miter" stroke-miterlimit="10" stroke-dasharray="" stroke-dashoffset="0" font-family="Handwriting" font-weight="normal" text-anchor="start" style="mix-blend-mode: normal"><tspan x="0" dy="0">CPGAG Studio</tspan></text><text transform="translate(325.23465,124.75813) rotate(-3.60166) scale(0.31121,0.31121)" font-size="40" xml:space="preserve" fill="#000000" fill-rule="nonzero" stroke="none" stroke-width="1" stroke-linecap="butt" stroke-linejoin="miter" stroke-miterlimit="10" stroke-dasharray="" stroke-dashoffset="0" font-family="Handwriting" font-weight="normal" text-anchor="start" style="mix-blend-mode: normal"><tspan x="0" dy="0">11-13-23</tspan></text><text transform="translate(197.1875,72.69167) scale(1.16667,1.16667)" font-size="40" xml:space="preserve" fill="#ffffff" fill-rule="nonzero" stroke="none" stroke-width="1" stroke-linecap="butt" stroke-linejoin="miter" stroke-miterlimit="10" stroke-dasharray="" stroke-dashoffset="0" font-family="Pixel" font-weight="normal" text-anchor="start" style="mix-blend-mode: normal"><tspan x="0" dy="0">GG</tspan></text><text transform="translate(145.3125,332.06667) scale(1.16667,1.16667)" font-size="40" xml:space="preserve" fill="#ffffff" fill-rule="nonzero" stroke="none" stroke-width="1" stroke-linecap="butt" stroke-linejoin="miter" stroke-miterlimit="10" stroke-dasharray="" stroke-dashoffset="0" font-family="Pixel" font-weight="normal" text-anchor="start" style="mix-blend-mode: normal"><tspan x="0" dy="0">The End</tspan></text></g></g></svg>