<svg version="1.1" xmlns="http://www.w3.org/2000/svg" xmlns:xlink="http://www.w3.org/1999/xlink" width="87.72611" height="102.45703" viewBox="0,0,87.72611,102.45703"><g transform="translate(-204.153,-138.21789)"><g data-paper-data="{&quot;isPaintingLayer&quot;:true}" fill-rule="nonzero" stroke="none" stroke-linecap="butt" stroke-linejoin="miter" stroke-miterlimit="10" stroke-dasharray="" stroke-dashoffset="0" style="mix-blend-mode: normal"><path d="M270.10195,224.06809c0,2.29582 0.09215,4.22142 -0.62249,6.42539c-1.72339,4.13206 -6.22425,6.85505 -10.34633,8.12978c-2.69555,0.83359 -5.57326,1.45952 -8.33155,1.94425c-1.31754,0.23154 -2.67544,0.01666 -4.01318,0.01666c-4.70097,0 -9.10108,-0.51583 -13.76613,-1.09901c-2.73496,-0.41238 -6.08992,-1.62186 -8.42386,-3.19249c-0.23692,-0.15943 -2.38505,-2.37439 -2.58214,-2.54947c-1.17015,-1.03949 -1.72341,-0.9129 -2.50783,-2.62369c-0.78847,-1.71962 -0.25757,-3.53943 -0.10579,-5.2752c0.0602,-0.68828 -0.12946,-1.39986 0.02822,-2.07253c0.71973,-3.07042 2.99394,-5.73639 4.39033,-8.54282c-0.04157,-0.01381 -0.08311,-0.02765 -0.12464,-0.04155c-5.97171,-2.32134 -11.4322,-4.95588 -15.00451,-10.59697c-1.14625,-1.81005 -1.69848,-4.50814 -2.29538,-6.53588c-1.98219,-6.73381 -2.07958,-14.38085 0.24833,-21.11253c0.23269,-6.57417 1.76726,-13.44096 -1.28919,-19.53932l-0.57579,-1.7171c0,0 -0.15933,-0.478 0.01995,-0.93605c-0.33399,-0.19656 -0.8496,-0.65344 -0.56374,-1.51104c0.40785,-1.22356 1.63141,-0.8157 1.63141,-0.8157c2.8075,0.94876 4.93942,2.69607 7.83153,3.51812l0.18211,-0.01958c0.08123,-0.06947 0.1395,-0.10589 0.1395,-0.10589c4.04844,-2.52891 7.93094,-5.28777 11.90276,-7.93584c1.4667,-0.97787 2.916,-2.26601 4.51579,-2.99891c1.23064,-0.56378 2.62474,-0.73932 3.82358,-1.36789c2.44815,-1.28357 4.76051,-2.55603 7.50421,-3.11346l1.23931,-0.00523c0.21259,-0.03065 0.41408,0.00081 0.56985,0.04382c0.1616,0.03916 0.35954,0.1125 0.53418,0.24985c3.92495,2.30023 6.5527,6.11862 10.44351,8.61008l0.71404,0.35099c3.4476,-1.00701 6.65424,-2.99226 9.46281,-5.22962c3.38161,-2.69386 6.9287,-6.09492 11.42262,-6.20137h1.0876c0,0 0.24366,0 0.51916,0.10591c0.15418,-0.06591 0.3413,-0.10591 0.56843,-0.10591c1.28973,0 1.28973,1.28973 1.28973,1.28973c0,0.38116 0.00344,4.67273 -0.01248,4.80117c-0.31605,2.55161 -1.25842,4.99355 -1.89449,7.49376c4.01805,-0.04697 8.07047,-0.20692 12.01799,0.57911l1.20742,0.56024c0.38213,0.09204 0.60503,0.32415 0.73502,0.56359c0.15717,0.22498 0.26552,0.53093 0.17343,0.91783c-0.1179,2.25896 -1.23981,4.27461 -1.9641,6.43771c-0.90431,2.70071 -1.76816,5.53575 -2.5558,8.26115c-1.28051,4.4308 -0.57396,9.86512 -2.94716,13.91854c-1.13385,2.81228 -1.29818,5.7831 -1.5003,8.76286c-0.12248,1.80569 -0.54441,3.43472 -0.55303,5.25354l-0.58095,2.07873c0,0 -0.25076,0.87768 -1.06874,0.94534c-1.54161,4.76489 -4.0311,9.14708 -7.88708,12.61959c-1.37778,1.55351 -3.02621,2.75654 -4.83521,3.68064c1.93351,2.12813 2.14901,4.54487 2.14901,7.68667zM222.67841,222.96504c-0.22199,0.47817 -0.62069,0.88516 -0.73701,1.39936c-0.12754,0.56385 0.07362,1.15774 0.02822,1.73405c-0.0971,1.23285 -0.65974,2.7317 -0.10579,3.96934c0.38728,0.86528 1.18793,1.14444 1.84255,1.72668c0.82016,0.72948 1.39525,1.74113 2.31203,2.34469c2.01543,1.32688 4.98367,2.47522 7.34626,2.78929c4.55707,0.56959 8.83363,1.07617 13.42373,1.07617c1.20001,0 2.42089,0.23971 3.59999,0.01666c2.64846,-0.50105 5.38415,-1.06731 7.98237,-1.86233c3.18866,-0.97568 7.44056,-3.22646 8.68658,-6.55275c0.63798,-1.84655 0.46509,-3.58963 0.46509,-5.53815c0,-2.7771 0.04758,-4.79424 -2.1354,-6.58921c-2.70268,0.95722 -5.62119,1.43283 -8.45459,1.62256c-10.22024,0.68433 -20.76432,-0.20224 -30.62292,-3.09458c-1.11849,2.39628 -2.50855,4.54008 -3.63116,6.95819zM283.85965,172.70724c0.83894,-4.21696 2.21503,-8.56614 3.58075,-12.68064c0.54004,-1.62699 1.58641,-3.39872 1.79822,-5.10703l-0.01508,-0.00854c-4.28032,-0.86016 -8.72338,-0.51875 -13.07009,-0.51875c-0.44793,0 -0.74028,-0.15556 -0.93111,-0.35864c-0.20308,-0.19082 -0.35864,-0.48318 -0.35864,-0.93111c0,-0.0606 0.00285,-0.11835 0.00828,-0.1734l0.01678,-0.35144c0.58113,-2.90562 1.79271,-5.69775 2.16261,-8.6267c0.1318,-1.04362 0.07009,-2.09903 0.02327,-3.15366h-0.92119c-0.8492,-0.03087 -1.68005,0.34239 -2.45196,0.6977c-2.79844,1.28821 -4.92745,3.01132 -7.36606,4.94383c-3.12399,2.47565 -6.66098,4.62883 -10.49195,5.72858c0,0 -0.26496,0.0757 -0.58492,0.03465c-0.4638,0.0919 -0.88999,-0.12119 -0.88999,-0.12119l-1.20702,-0.6117c-1.81792,-1.16735 -2.21301,-1.34346 -3.9666,-2.84015c-2.26139,-1.9301 -3.72106,-4.15841 -6.28378,-5.65829l-0.88986,-0.00453c-2.40512,0.46923 -4.49553,1.76 -6.63452,2.86831c-1.19072,0.61698 -2.56685,0.80026 -3.78958,1.3511c-1.50398,0.67753 -2.86304,1.92038 -4.24283,2.84017c-3.99308,2.66186 -7.8977,5.43265 -11.96646,7.97698c0,0 -0.13363,0.08352 -0.33667,0.14546c-0.37881,0.32247 -0.89069,0.32247 -0.89069,0.32247l-1.17002,-0.04963c-1.66075,-0.47675 -2.53516,-0.63639 -4.09779,-1.48305c-0.45189,-0.24483 -0.84503,-0.49103 -1.22237,-0.72966l0.06859,0.20713c2.23249,4.47539 2.18707,9.23678 1.87632,14.04038c0.05781,-0.11325 0.11583,-0.2264 0.1741,-0.33943c-0.06227,1.92586 -0.01048,3.85418 0.02319,5.78235c-0.21811,0.49681 -0.4201,1.00103 -0.60631,1.51163c-0.00671,0.32658 -0.01012,0.65281 -0.00963,0.97863c0,0 0,0.83318 -0.66966,1.16021c-1.57601,5.77911 -1.30693,12.15872 0.34632,17.78396c0.53497,1.82027 1.01742,4.35593 2.05501,5.97145c3.26843,5.08899 8.24496,7.3558 13.64475,9.45665c10.27086,3.43039 21.40643,4.46347 32.19177,3.76601c2.46343,-0.15929 5.049,-0.5491 7.45119,-1.35571c0.40406,-0.63009 1.00868,-0.59845 1.35929,-0.51121c2.05194,-0.86057 3.91471,-2.07495 5.37714,-3.77189c7.43451,-6.65716 9.33683,-16.97426 9.34919,-26.54571c0.46692,-0.56771 0.90523,-1.5942 1.27542,-2.7279c0.50579,-0.54809 0.89426,-1.2061 1.12555,-1.93412c0.02117,0.24845 0.04023,0.49738 0.05729,0.74679c0.84953,-2.4262 0.60057,-5.21121 1.09975,-7.72041z" fill="#000000" stroke-width="0.5"/><path d="M222.65305,222.96029c1.12262,-2.4181 2.51597,-4.57051 3.63445,-6.9668c9.85859,2.89234 20.44643,3.77827 30.66667,3.09395c2.83339,-0.18972 5.75366,-0.66214 8.45634,-1.61937c2.18297,1.79495 2.13754,3.81957 2.13754,6.59666c0,1.94853 0.17293,3.69786 -0.46505,5.54441c-1.24601,3.32629 -5.50202,5.58838 -8.69067,6.56406c-2.59823,0.79501 -5.34338,1.36988 -7.99183,1.87092c-1.1791,0.22306 -2.40696,-0.01416 -3.60697,-0.01416c-4.59011,0 -8.89113,-0.51485 -13.4482,-1.08443c-2.3626,-0.31406 -5.33555,-1.47025 -7.35099,-2.79713c-0.91679,-0.60357 -1.49294,-1.6187 -2.31309,-2.34818c-0.65462,-0.58225 -1.45569,-0.86374 -1.84297,-1.72901c-0.55396,-1.23765 0.00847,-2.74099 0.10558,-3.97384c0.04539,-0.57632 -0.15561,-1.17216 -0.02806,-1.73601c0.11632,-0.5142 0.51528,-0.92288 0.73727,-1.40106z" data-paper-data="{&quot;noHover&quot;:false,&quot;origItem&quot;:[&quot;Path&quot;,{&quot;applyMatrix&quot;:true,&quot;segments&quot;:[[[198.90219,248.3042],[0,0],[-0.43031,0.92688]],[[197.47359,251.01669],[0.22546,-0.99672],[-0.24723,1.09295]],[[197.5283,254.37794],[0.08799,-1.11711],[-0.18823,2.38972]],[[197.32325,262.07202],[-1.07377,-2.39902],[0.7507,1.67722]],[[200.8948,265.41899],[-1.26889,-1.12862],[1.58976,1.41401]],[[205.37639,269.96389],[-1.77707,-1.16995],[3.90666,2.57199]],[[219.61618,275.37056],[-4.57958,-0.60877],[8.8333,1.10408]],[[245.63639,277.4566],[-8.89734,0],[2.32606,0]],[[252.61451,277.48888],[-2.28553,0.43238],[5.13369,-0.9712]],[[268.08733,273.87899],[-5.03635,1.54104],[6.18082,-1.89123]],[[284.92516,261.17731],[-2.41524,6.44759],[1.23665,-3.57929]],[[285.8267,250.4423],[0,3.77697],[0,-5.38304]],[[281.68751,237.66997],[4.23141,3.47929],[-5.23879,1.85546]],[[265.29936,240.81508],[5.49218,-0.36775],[-19.81065,1.32648]],[[205.94072,234.81664],[19.10963,5.60643],[-2.16804,4.64489]],[[198.90217,248.3042],[2.17604,-4.68719],[0,0]]],&quot;closed&quot;:true,&quot;fillColor&quot;:[0,0,0],&quot;strokeWidth&quot;:0.5}]}" fill="#667eff" stroke-width="0.25"/><path d="M283.88509,172.7029c-0.49918,2.50922 -0.2499,5.2998 -1.09942,7.72599c-0.01707,-0.24941 -0.0361,-0.49891 -0.05727,-0.74736c-0.23128,0.72802 -0.61984,1.38754 -1.12563,1.93563c-0.37018,1.13369 -0.80879,2.16241 -1.27571,2.73014c-0.01236,9.57144 -1.92526,19.90522 -9.35976,26.56236c-1.46241,1.69695 -3.32888,2.91349 -5.38082,3.77406c-0.35059,-0.08725 -0.95607,-0.1185 -1.36013,0.5116c-2.40219,0.8066 -4.99245,1.19793 -7.45588,1.35723c-10.78534,0.69744 -21.94131,-0.33967 -32.21217,-3.77006c-5.3998,-2.10085 -10.3831,-4.37465 -13.65153,-9.46364c-1.03758,-1.61554 -1.5218,-4.15435 -2.05678,-5.97462c-1.65325,-5.62525 -1.92476,-12.01533 -0.34876,-17.79444c0.66966,-0.32703 0.66966,-1.16096 0.66966,-1.16096c-0.0005,-0.32581 0.00294,-0.65269 0.00964,-0.97927c0.18621,-0.51061 0.38826,-1.01584 0.60637,-1.51266c-0.03366,-1.92816 -0.0849,-3.86023 -0.02264,-5.78608c-0.05828,0.11303 -0.11636,0.22642 -0.17415,0.33967c0.31075,-4.8036 0.35879,-9.57202 -1.8737,-14.04742l-0.06856,-0.20721c0.37733,0.23864 0.77047,0.48485 1.22236,0.72969c1.56264,0.84666 2.43725,1.00593 4.09801,1.48267l1.17018,0.04932c0,0 0.51213,-0.00041 0.89093,-0.32288c0.20304,-0.06194 0.33678,-0.14564 0.33678,-0.14564c4.06876,-2.54431 7.97998,-5.32219 11.97308,-7.98406c1.37979,-0.9198 2.74199,-2.16461 4.24596,-2.84212c1.22274,-0.55083 2.60148,-0.73534 3.79221,-1.35232c2.13898,-1.10832 4.23436,-2.40048 6.63947,-2.8697l0.89047,0.00443c2.56272,1.49989 4.02699,3.7279 6.28837,5.65801c1.75358,1.49668 2.15244,1.67317 3.97036,2.84053l1.20821,0.61194c0,0 0.42699,0.2133 0.8908,0.12138c0.31997,0.04104 0.58541,-0.03451 0.58541,-0.03451c3.83097,-1.09975 7.37353,-3.25066 10.49752,-5.7263c2.43861,-1.93252 4.56959,-3.65441 7.36802,-4.94262c0.7719,-0.35533 1.60348,-0.72806 2.45268,-0.69719l0.92151,0.00025c0.04683,1.05463 0.10937,2.11068 -0.02243,3.15432c-0.36989,2.92895 -1.57954,5.72289 -2.16065,8.62848l-0.01666,0.35156c-0.00543,0.05505 -0.00822,0.11286 -0.00822,0.17345c0,0.44793 0.156,0.74074 0.35908,0.93158c0.19082,0.20308 0.4836,0.35911 0.93153,0.35911c4.34672,0 8.79266,-0.3374 13.07298,0.52276l0.01508,0.00854c-0.21183,1.7083 -1.25721,3.48187 -1.79725,5.10887c-1.36572,4.11452 -2.73965,8.47049 -3.57858,12.68746z" data-paper-data="{&quot;noHover&quot;:false,&quot;origItem&quot;:[&quot;Path&quot;,{&quot;applyMatrix&quot;:true,&quot;segments&quot;:[[[317.49428,150.88584],[0,0],[1.62617,-8.17405]],[[324.43511,126.30603],[-2.64728,7.97546],[1.04681,-3.15372]],[[327.92075,116.40671],[-0.4106,3.31132],[0,0]],[[327.89153,116.39016],[0,0],[-8.29686,-1.6673]],[[302.55681,115.38463],[8.42556,0],[-0.86824,0]],[[300.75198,114.68946],[0.36989,0.39363],[-0.39363,-0.36989]],[[300.05681,112.88463],[0,0.86824],[0,-0.11746]],[[300.07285,112.54853],[-0.01052,0.10669],[0,0]],[[300.10536,111.86729],[0,0],[1.12643,-5.63215]],[[304.2973,95.14552],[-0.717,5.6774],[0.25547,-2.02294]],[[304.34241,89.03257],[0.09077,2.04426],[0,0]],[[302.55681,89.03257],[0,0],[-1.64607,-0.05985]],[[297.804,90.38498],[1.49624,-0.68876],[-5.42442,2.49702]],[[283.52583,99.96797],[4.72693,-3.74593],[-6.05545,4.79873]],[[263.1885,111.07211],[7.42586,-2.13175],[0,0]],[[262.05471,111.13928],[0.62021,0.07957],[-0.89902,0.17814]],[260.32959,110.90437],[[257.98994,109.71868],[0,0],[-3.52382,-2.26277]],[[250.30119,104.21341],[3.39911,2.90115],[-4.38341,-3.74125]],[[238.12088,93.24553],[4.96752,2.90734],[0,0]],[[236.39601,93.23674],[0,0],[-4.662,0.90954]],[[223.53584,98.79659],[4.14614,-2.14833],[-2.30807,1.19593]],[[216.19023,101.41553],[2.37011,-1.06771],[-2.91527,1.3133]],[[207.96604,106.92084],[2.67456,-1.78291],[-7.74009,5.15968]],[[184.77057,122.38319],[7.88679,-4.93183],[0,0]],[[184.11797,122.66515],[0.39357,-0.12006],[-0.73426,0.62508]],[182.39149,123.29023],[[180.12357,123.19404],[0,0],[-3.21915,-0.92412]],[[172.18051,120.31934],[3.02898,1.64114],[-0.87592,-0.47458]],[[169.81111,118.90497],[0.73141,0.46257],[0,0]],[[169.94406,119.30647],[0,0],[4.3274,8.67498]],[[173.58107,146.52197],[0.60235,-9.31118],[0.11205,-0.21952]],[[173.91855,145.86402],[-0.11296,0.2191],[-0.1207,3.73302]],[[173.96349,157.07237],[-0.06526,-3.73751],[-0.42279,0.96301]],[[172.78823,160.00248],[0.36095,-0.98974],[-0.013,0.63304]],[[172.76957,161.89942],[-0.00097,-0.63154],[0,0]],[[171.47152,164.14833],[1.29805,-0.63391],[-3.05489,11.20206]],[[172.14281,198.62029],[-3.20462,-10.90383],[1.03698,3.52836]],[[176.12618,210.19519],[-2.01122,-3.1315],[6.33544,9.86435]],[[202.5748,228.5257],[-10.46683,-4.07222],[19.90876,6.64938]],[[264.97447,235.82564],[-20.90603,1.35191],[4.77505,-0.30878]],[[279.41765,233.19778],[-4.65634,1.5635],[0.78323,-1.22135]],[[282.05244,232.20688],[-0.67958,-0.16912],[3.97742,-1.66812]],[[292.47533,224.89553],[-2.83471,3.28933],[14.41085,-12.90405]],[[310.59754,173.44005],[-0.02396,18.55303],[0.90508,-1.10045]],[[313.06978,168.15236],[-0.71756,2.19752],[0.98041,-1.06241]],[[315.2515,164.40332],[-0.4483,1.41118],[0.04104,0.48157]],[[315.36255,165.85088],[-0.03307,-0.48344],[1.64669,-4.70287]],[[317.49429,150.88583],[-0.96761,4.8638],[0,0]]],&quot;closed&quot;:true,&quot;fillColor&quot;:[0,0,0],&quot;strokeWidth&quot;:0.5}]}" fill="#66ecff" stroke-width="0.25"/><path d="M209.59294,191.74481c-1.96935,-4.15751 -4.2158,-9.72769 -2.64753,-14.43252c2.14586,-6.43757 16.36583,-10.8252 22.42029,-9.52377c2.54995,0.54812 3.82658,2.71818 5.68371,4.25491c11.53189,9.54245 -0.94016,26.79572 -13.81952,26.79572c-0.46708,0.33505 -1.00489,0.57775 -1.58671,0.70139c-2.70298,2.41845 -9.19559,-5.99149 -10.05023,-7.79573z" fill="#000000" stroke-width="0.5"/><path d="M251.83691,197.7522l0.03972,-0.02648l0.11916,0.02648h0.11842l0.94738,0.23684l0.62319,0.13849c-1.9385,-1.45797 -3.45656,-3.04295 -4.23031,-4.59044c-0.87239,-1.74478 -0.4972,-3.98871 -0.35999,-5.77232c-0.35908,-0.30598 -0.66662,-0.67068 -0.90774,-1.07923c-2.96756,-1.69574 1.5453,-9.00429 3.33578,-9.9592c4.65649,-2.48346 9.66164,-4.2882 15.19232,-3.5136c6.73586,0.94339 14.69056,10.21598 14.27137,17.14034c-0.10917,1.80342 -0.96245,3.10282 -1.86309,4.60679c-2.38853,3.98854 -0.41111,6.14326 -5.59218,8.51791c-3.97138,1.82021 -11.27646,-0.16715 -16.9054,-3.4174l0.11142,0.0955l0.01803,0.32449l0.45014,0.70737l0.16924,0.50772l0.27042,0.54083l0.04145,0.02368l0.02961,0.11842l0.05296,0.10592l0.13113,0.59009l0.26181,0.34908l0.26512,0.62965l0.36679,0.57638l0.26475,0.79426l0.04101,0.53313l0.20499,0.92248l0.23684,0.94738v0.05572l0.22156,0.44312l0.04145,0.02368l0.02961,0.11842l0.05296,0.10592l0.21184,0.95328l0.13233,0.52932l0.06701,0.13401l0.38273,0.5741l0.05751,0.16103l0.12502,0.07144l0.23219,0.92875l0.32199,0.90156l-0.0644,0.12879l0.04147,0.16589v1.95785l0.04666,0.13997l0.0524,0.68118l0.1657,0.66279v2.7521l0.04666,0.13997l0.0524,0.68118l0.1657,0.66279v0.36933l0.31141,0.93423l0.0524,0.68118l0.1657,0.66279v4.22349l0.02648,0.03972l-0.02648,0.11916v0.11842l-0.23684,0.94738l-0.02791,0.12559v0.51555l-0.04147,0.16589l0.0644,0.12879l-0.32199,0.90156l-0.23219,0.92875l-0.12502,0.07144l-0.05751,0.16103l-0.38273,0.5741l-0.14642,0.29284l-0.44461,0.51872l-0.3515,0.58583l-0.30658,0.30658l-0.22107,0.44214l-0.44461,0.51872l-0.3515,0.58583l-0.33342,0.33342l-0.00936,0.04681l-0.10298,0.06553l-0.08374,0.08374l-0.83737,0.50242l-0.82386,0.52428l-0.11235,0.03745l-0.10467,0.0628l-0.04606,-0.01256l-0.24465,0.08155l-1.0817,0.54085l-0.5741,0.38273l-0.77768,0.27774l-0.7463,0.35351l-0.76566,0.15313l-0.02044,0.01022l-0.95328,0.21184l-0.94738,0.23684h-0.11842l-0.11916,0.02648l-0.03972,-0.02648h-0.76775l-0.12559,0.02791l-0.94738,0.23684h-0.11842l-0.11916,0.02648l-0.03972,-0.02648h-1.84702l-0.55143,0.13786h-0.5232l-0.50758,0.12689h-1.30981l-0.12559,0.02791l-0.94738,0.23684h-0.11842l-0.11916,0.02648l-0.03972,-0.02648h-4.21094l-0.03972,0.02648l-0.11916,-0.02648h-0.11842l-0.94738,-0.23684l-0.95328,-0.21184l-0.10592,-0.05296l-0.92486,-0.23121l-0.31353,0.08551l-0.46827,-0.28096l-0.52978,-0.13245l-0.16124,-0.28217l-0.71897,-0.43138l-0.22432,-0.22432l-0.20531,-0.01141l-0.48634,-0.5674l-0.07032,-0.02344l-0.70737,-0.45014l-0.32449,-0.01803l-0.35539,-0.41462l-0.46071,-0.29318l-0.06373,-0.31867l-0.54566,-0.6366l-0.14074,-0.28148l-0.04145,-0.02368l-0.02961,-0.11842l-0.05296,-0.10592l-0.01891,-0.08508l-0.27302,-0.23401l-0.00931,-0.16756l-0.14571,-0.08326l-0.53125,-2.125v-0.63408l-0.04666,-0.13997l-0.0524,-0.68118l-0.1657,-0.66279v-3.69399l-0.02648,-0.03972l0.02648,-0.11916v-0.11842l0.23684,-0.94738l0.02791,-0.12559v-0.76775l-0.02648,-0.03972l0.02648,-0.11916v-0.11842l0.23684,-0.94738l0.21184,-0.95328l0.05296,-0.10592l0.02961,-0.11842l0.00184,-0.00105l0.12331,-0.49324l0.07842,-0.14704l0.01278,-0.16615l0.04666,-0.13997v-0.63408l0.1657,-0.66279l0.0524,-0.68118l0.04666,-0.13997v-0.35678l-0.02648,-0.03972l0.02648,-0.11916v-0.11842l0.23684,-0.94738l0.21184,-0.95328l0.05296,-0.10592l0.02786,-0.11144v-1.05901l0.12689,-0.50758v-0.5232l0.22359,-0.89435l0.23685,-1.4211l0.13441,-0.30915l0.02586,-0.33612l0.04666,-0.13997v-4.60537l0.1657,-0.66279l0.0524,-0.68118l0.04666,-0.13997v-0.10458l0.53125,-2.125l0.14571,-0.08326l0.00931,-0.16756l0.69498,-0.59569l0.12645,-0.25291l0.22582,-0.26346l0.01176,-0.21171l0.63964,-0.54827l0.54827,-0.63964l0.21171,-0.01176l0.07401,-0.06344l0.16594,-0.26077l0.056,-0.27999l0.20533,-0.13066l0.13066,-0.20533l0.27999,-0.056l1.23197,-0.78398l0.50772,-0.16924l0.01133,-0.00566l0.02368,-0.04145l0.11842,-0.02961l0.10592,-0.05296l0.95328,-0.21184l0.94738,-0.23684h0.10458l0.93423,-0.31141l0.68118,-0.0524l0.66279,-0.1657h0.70014l0.06419,-0.02292l0.06177,0.03088l0.10054,0.02514l0.13238,-0.03309h5.54725l0.03972,-0.02648l0.11916,0.02648h0.11842l0.94738,0.23684l0.95328,0.21184l0.10592,0.05296l0.11144,0.02786h0.26475l0.34461,0.08615l0.35409,-0.02833l1.24156,0.20693z" fill="#000000" stroke-width="0.5"/></g></g></svg>