<svg version="1.1" xmlns="http://www.w3.org/2000/svg" xmlns:xlink="http://www.w3.org/1999/xlink" width="87.41057" height="115.93403" viewBox="0,0,87.41057,115.93403"><defs><linearGradient x1="150.32419" y1="103.87612" x2="150.32419" y2="179.96061" gradientUnits="userSpaceOnUse" id="color-1"><stop offset="0" stop-color="#000000"/><stop offset="1" stop-color="#66d6ff"/></linearGradient></defs><g transform="translate(-103.43265,-82.21627)"><g data-paper-data="{&quot;isPaintingLayer&quot;:true}" fill-rule="nonzero" stroke="none" stroke-linecap="butt" stroke-linejoin="miter" stroke-miterlimit="10" stroke-dasharray="" stroke-dashoffset="0" style="mix-blend-mode: normal"><path d="M103.43266,198.1503v-115.93403h87.41057v115.93403z" fill="#000000" stroke-width="0"/><path d="M182.64549,122.61534c2.48759,0.24876 2.23883,2.73635 2.23883,2.73635c-0.70964,6.85291 -4.17807,12.89162 -5.76717,19.55953c-0.89087,3.7381 -0.48637,7.93932 -1.54978,11.61449c-1.12763,3.89712 -3.31239,7.20667 -5.91974,10.25379l-0.91288,0.681c-3.08043,5.4277 -8.82189,8.25365 -15.27855,10.311c-5.43162,1.73073 -11.3226,3.02265 -17.06159,1.54154c-2.7917,-0.72047 -5.77921,-2.40268 -8.20559,-3.90557c-5.26341,-3.27823 -10.68271,-8.10724 -13.02827,-14.09528c-1.03869,-2.6517 -1.44622,-5.67228 -1.31724,-8.78639c-0.08635,-0.35761 -0.08635,-0.62276 -0.08635,-0.62276c0,-8.54553 0.6059,-17.06721 0.60225,-25.59561v-1.50562c0,0 0,-2.30231 2.20942,-2.48811c1.20493,-0.29724 2.23797,0.60667 2.23797,0.60667c1.07846,0.94366 2.15965,1.88421 3.24464,2.82037c0.07367,-0.20524 0.14135,-0.32931 0.14135,-0.32931c4.54256,-8.26129 11.63567,-14.14955 18.61596,-20.25742l1.16289,-0.80093c0,0 0.73931,-0.49287 1.63026,-0.4502c1.3011,-0.21174 2.25689,0.90335 2.25689,0.90335c2.87412,3.3854 5.04332,7.38868 6.69126,11.52342c2.0662,-0.51025 4.04671,-1.4573 5.85456,-2.56766l0.22941,-0.13765c0,0 0.89414,-0.53648 1.87397,-0.33903c2.26631,-0.34562 2.76015,1.95895 2.76015,1.95895c0.50682,2.37342 0.97402,4.76183 1.2447,7.17361l0.09478,0.18507c4.76117,0 9.52233,0 14.2835,0h1.20449c0,0 0.00879,0 0.0253,0.00052c0.16274,-0.01006 0.33731,-0.00683 0.52459,0.01189z" fill="url(#color-1)" stroke-width="0.5"/><path d="M137.2784,145.71214c1.56853,0.25848 3.16529,0.49191 3.53485,1.81444c0.54885,1.96416 -1.55524,4.54236 -3.54582,4.98594c-2.26702,0.50518 -5.36371,-0.68911 -6.39314,-2.77115c-0.76222,-1.5416 1.94666,-2.83557 2.91999,-4.25336c0,0 1.86643,-1.59979 3.48411,0.22413z" fill="#000000" stroke-width="0.5"/><path d="M169.03451,153.41108l0.90329,1.4659c-1.38934,0.31365 -2.95194,1.68242 -4.16803,0.94095c-0.41128,-0.25077 -0.75193,-0.57235 -1.0454,-0.94123l-0.18541,0.15892l-1.79768,-2.09729c-0.38059,-0.43866 -0.61093,-1.01121 -0.61093,-1.63756c0,-1.38071 1.11929,-2.5 2.5,-2.5h3.01125c0,0 2.5,0 2.5,2.5c0,1.15455 -0.53319,1.7759 -1.1071,2.1103z" fill="#000000" stroke-width="0.5"/></g></g></svg>