<svg version="1.1" xmlns="http://www.w3.org/2000/svg" xmlns:xlink="http://www.w3.org/1999/xlink" width="98.67645" height="205.7211" viewBox="0,0,98.67645,205.7211"><defs><radialGradient cx="-29.16338" cy="206.15606" r="51.58102" gradientUnits="userSpaceOnUse" id="color-1"><stop offset="0" stop-color="#ababab"/><stop offset="1" stop-color="#545454"/></radialGradient></defs><g transform="translate(77.18353,-103.91048)"><g data-paper-data="{&quot;isPaintingLayer&quot;:true}" fill-rule="nonzero" stroke-linecap="butt" stroke-linejoin="miter" stroke-miterlimit="10" stroke-dasharray="" stroke-dashoffset="0" style="mix-blend-mode: normal"><path d="M-69.49035,309.63158l-7.69318,-184.63566l92.85657,-21.08544l5.81988,140.40941z" fill="#2b2633" stroke="#000000" stroke-width="0"/><path d="M-6.54578,155.18891c0.16345,0.29057 0.36025,0.54802 0.58378,0.77892c0.30343,0.39994 0.64607,0.7685 1.02219,1.09995c0.0085,0.18737 0.01804,0.34861 0.02725,0.4766c0.10045,1.39524 0.24945,2.78029 0.43068,4.15853c-0.07417,7.28844 0.53469,14.75255 0.54747,15.4939c0.2186,12.67865 -0.15497,25.07903 0.47359,37.65029c0.14426,2.88523 -0.72804,6.3244 -0.00274,9.28149c-0.65513,0.89292 -1.11737,1.9362 -1.32534,3.06844c-1.45911,1.04596 -2.87263,2.08347 -4.22816,2.79735c-8.35382,4.39949 -14.45991,11.98167 -22.31065,17.22932c-5.1351,3.43245 -12.00791,5.80912 -16.05352,10.5134c-0.77367,-0.43888 -1.63305,-0.7442 -2.54679,-0.8846c-0.01781,-0.37618 -0.03795,-0.7442 -0.05927,-1.099c0.07735,-8.95687 0.07203,-17.91481 -0.01595,-26.87154c-0.03999,-4.07122 -1.88781,-8.18764 -1.92804,-12.21094c-0.10282,-10.28238 0.07254,-20.56605 0,-30.84869c-0.04505,-6.38581 -1.71428,-12.23637 -2.95112,-18.32769l2.87876,-1.64501c0.30066,-0.1718 0.53659,-0.41085 0.71601,-0.70576c0.58206,0.14491 1.191,0.22183 1.81791,0.22183c1.41358,0 2.73583,-0.39107 3.86444,-1.07093c0.85977,-0.37972 1.73535,-0.82314 2.57911,-1.26598c2.12252,-0.50091 4.20096,-1.18432 6.00146,-1.9868c3.02247,-1.34712 6.8151,-1.0327 9.90144,-1.65335c4.58579,-0.92218 9.08803,-2.90797 13.65397,-3.99871c2.01473,-0.48129 4.34353,-0.54706 6.61887,-0.81488c0.09182,0.21095 0.19322,0.41573 0.30466,0.61384z" fill="url(#color-1)" stroke="#000000" stroke-width="0"/><path d="" fill="#000000" stroke="none" stroke-width="0.5"/><path d="" data-paper-data="{&quot;noHover&quot;:false,&quot;origItem&quot;:[&quot;Path&quot;,{&quot;applyMatrix&quot;:true,&quot;segments&quot;:[[[-57.3724,283.26335],[0,0],[-0.26428,0.09762]],[[-58.23416,283.51453],[0.31082,-0.06908],[-1.87402,0.41644]],[[-62.3308,282.73951],[0.90824,0.72848],[-11.68218,-1.2383]],[[-91.59724,293.15969],[9.24524,-6.77352],[-1.79022,1.3116]],[[-97.26876,296.64683],[1.71612,-1.40714],[-8.56586,7.0237]],[[-111.56942,326.73611],[3.44952,-9.79898],[-5.3052,15.07038]],[[-118.07276,372.61069],[0.06206,-15.95694],[0.41356,2.03892]],[[-116.67838,378.67835],[-0.51532,-2.00624],[0.26162,-0.02136]],[[-115.90162,378.61233],[-0.25596,0.02234],[9.19656,-0.8025]],[[-85.33278,364.63113],[-6.66256,6.64812],[2.1518,-2.14714]],[[-80.14054,357.13415],[-1.73076,2.499],[5.1615,-6.84092]],[[-78.56102,338.36345],[2.5999,7.83204],[0,0]],[[-84.03492,332.20533],[0,0],[-0.79412,-0.88514]],[[-85.3121,328.86751],[0,1.28276],[0,-2.76142]],[[-80.3121,323.86751],[-2.76142,0],[0.17388,0]],[[-79.79712,323.89369],[-0.1693,-0.0173],[0,0]],[-71.61206,324.63779],[[-71.62946,324.82931],[0,0],[14.26224,-2.2348]],[[-45.45186,301.47853],[4.33758,16.35172],[-0.76056,-2.86714]],[[-49.38844,293.49767],[1.27782,2.67696],[-0.91942,-1.92618]],[[-52.04282,287.67065],[1.25632,1.72546],[-1.29586,-1.77974]],[[-57.37238,283.26331],[2.11596,1.22938],[0,0]]],&quot;closed&quot;:true,&quot;fillColor&quot;:[0,0,0,1]}]}" fill="#302617" stroke="none" stroke-width="0.5"/><path d="" data-paper-data="{&quot;noHover&quot;:false,&quot;origItem&quot;:[&quot;Path&quot;,{&quot;applyMatrix&quot;:true,&quot;segments&quot;:[[[-57.3724,283.26335],[0,0],[-0.26428,0.09762]],[[-58.23416,283.51453],[0.31082,-0.06908],[-1.87402,0.41644]],[[-62.3308,282.73951],[0.90824,0.72848],[-11.68218,-1.2383]],[[-91.59724,293.15969],[9.24524,-6.77352],[-1.79022,1.3116]],[[-97.26876,296.64683],[1.71612,-1.40714],[-8.56586,7.0237]],[[-111.56942,326.73611],[3.44952,-9.79898],[-5.3052,15.07038]],[[-118.07276,372.61069],[0.06206,-15.95694],[0.41356,2.03892]],[[-116.67838,378.67835],[-0.51532,-2.00624],[0.26162,-0.02136]],[[-115.90162,378.61233],[-0.25596,0.02234],[9.19656,-0.8025]],[[-85.33278,364.63113],[-6.66256,6.64812],[2.1518,-2.14714]],[[-80.14054,357.13415],[-1.73076,2.499],[5.1615,-6.84092]],[[-78.56102,338.36345],[2.5999,7.83204],[0,0]],[[-84.03492,332.20533],[0,0],[-0.79412,-0.88514]],[[-85.3121,328.86751],[0,1.28276],[0,-2.76142]],[[-80.3121,323.86751],[-2.76142,0],[0.17388,0]],[[-79.79712,323.89369],[-0.1693,-0.0173],[0,0]],[-71.61206,324.63779],[[-71.62946,324.82931],[0,0],[14.26224,-2.2348]],[[-45.45186,301.47853],[4.33758,16.35172],[-0.76056,-2.86714]],[[-49.38844,293.49767],[1.27782,2.67696],[-0.91942,-1.92618]],[[-52.04282,287.67065],[1.25632,1.72546],[-1.29586,-1.77974]],[[-57.37238,283.26331],[2.11596,1.22938],[0,0]]],&quot;closed&quot;:true,&quot;fillColor&quot;:[0,0,0,1]}]}" fill="#302617" stroke="none" stroke-width="0.5"/><path d="" data-paper-data="{&quot;noHover&quot;:false,&quot;origItem&quot;:[&quot;Path&quot;,{&quot;applyMatrix&quot;:true,&quot;segments&quot;:[[[27.25747,388.54984],[1.34972,-11.99935],[-0.14489,1.28814]],[[26.79113,393.01557],[0.19346,-1.633],[0,0]],[26.82084,392.93236],[27.09219,392.52534],[27.52322,391.23226],[27.60394,391.10542],[27.62425,390.95645],[28.14099,389.66459],[28.87356,386.73433],[28.87356,386.06432],[29.06849,385.28457],[29.13014,384.48319],[29.19494,384.28878],[29.19494,383.4981],[29.16379,383.45137],[29.19494,383.31118],[29.19494,383.17186],[29.47358,382.0573],[29.7228,380.9358],[29.78511,380.81118],[29.81994,380.67186],[29.8687,380.644],[30.02934,380.32272],[30.22712,379.13602],[30.30838,378.94913],[30.30838,378.74534],[30.48048,378.05695],[30.48048,376.74417],[30.62977,376.14702],[30.62977,375.5315],[30.80186,374.84311],[30.80186,364.8257],[30.62977,364.13732],[30.62977,363.52179],[30.48048,362.92464],[30.48048,360.44599],[30.22712,358.92586],[30.26045,358.50929],[30.15909,358.10387],[30.15909,356.91076],[30.10618,356.59326],[30.02912,356.49052],[29.96908,356.46833],[29.90922,356.33065],[29.87356,356.2831],[29.41389,355.19139],[28.94159,354.1051],[28.93181,354.04647],[28.87356,353.9081],[28.89896,353.84935],[28.7438,352.9184],[[28.68058,352.79195],[0,0],[0.42957,11.87219]]],&quot;closed&quot;:true}]}" fill="#ffffff" stroke="none" stroke-width="0.5"/><g fill="#2b2633" stroke="none" stroke-width="0"><path d="M-3.58366,225.2925l-2.54382,-72.42869l9.66153,-2.78183l0.57504,79.69324z"/><path d="M-51.2818,259.63097l47.82506,-34.55515l12.228,1.12595l-51.16999,40.05281z"/><path d="M-57.05481,259.88641l-3.2337,-95.76l8.26087,2.31923l3.66755,93.56585z"/></g><path d="M-57.27464,167.93845l14.32305,-18.76382l26.05051,-4.45186l18.02346,9.36821z" fill="#2b2633" stroke="none" stroke-width="0"/><path d="M-42.16202,203.45838c0,-1.38071 1.11929,-2.5 2.5,-2.5c1.38071,0 2.5,1.11929 2.5,2.5c0,1.38071 -1.11929,2.5 -2.5,2.5c-1.38071,0 -2.5,-1.11929 -2.5,-2.5z" fill="#ffffff" stroke="none" stroke-width="0.5"/><path d="M-17.80373,196.49886c0,-1.38071 1.11929,-2.5 2.5,-2.5c1.38071,0 2.5,1.11929 2.5,2.5c0,1.38071 -1.11929,2.5 -2.5,2.5c-1.38071,0 -2.5,-1.11929 -2.5,-2.5z" fill="#ffffff" stroke="none" stroke-width="0.5"/></g></g></svg>