<svg version="1.1" xmlns="http://www.w3.org/2000/svg" xmlns:xlink="http://www.w3.org/1999/xlink" width="782.81912" height="487.7321" viewBox="0,0,782.81912,487.7321"><g transform="translate(150.62774,37.86984)"><g data-paper-data="{&quot;isPaintingLayer&quot;:true}" fill-rule="nonzero" stroke-linecap="butt" stroke-linejoin="miter" stroke-miterlimit="10" stroke-dasharray="" stroke-dashoffset="0" style="mix-blend-mode: normal"><path d="M336.0094,234.69038c13.16188,-3.65783 26.65032,-5.49868 36.82067,5.58216c3.45343,5.98582 6.41115,12.06912 8.85318,18.45625c1.5917,4.16313 4.45229,7.84159 6.52523,11.77622c1.39557,2.64891 2.23984,5.554 3.29411,8.35629c1.88254,5.00384 4.90665,9.40885 7.21956,14.18062c1.88474,3.88841 2.9442,8.15752 4.98348,11.96714c1.21224,2.26461 3.0978,4.12397 4.30536,6.39109c2.86499,5.37887 3.8221,11.7841 7.87153,16.26629c2.73434,8.8352 5.73524,16.8929 7.37049,26.00494c1.05115,5.8574 3.76106,10.97028 3.67126,17.08491c-0.08088,5.50735 -1.25894,12.63829 -5.70501,16.47071c-1.6014,1.38038 -3.96438,1.47431 -5.97496,2.12816c-5.16395,1.67935 -11.0749,3.31586 -16.45709,3.56209c-2.36434,0.10816 -4.70821,-0.56385 -7.07468,-0.6042c-5.93214,-0.10116 -11.4103,2.81378 -17.41611,2.98198c-1.70415,-0.34264 -3.37678,-0.933 -5.11244,-1.02793c-2.95552,-0.16163 -5.94819,1.07013 -8.86256,0.55282c-2.10483,-0.3736 -6.14778,-2.30284 -8.86381,-2.48777c-8.9788,-0.61133 -18.67741,-1.7752 -27.58022,-3.50178c-1.99679,-0.38726 -3.82367,-1.42269 -5.80664,-1.87548c-7.55738,-1.72564 -15.44676,-1.74449 -22.90158,-4.17018c-3.92538,-1.27726 -7.73959,-2.95455 -11.84382,-4.11825c-10.2267,-2.89965 -20.88748,-4.73279 -31.18197,-7.5285c-21.11849,-4.12529 -41.60361,-11.16801 -62.86427,-14.84609c-12.54417,-2.17013 -25.02417,-3.79994 -37.4963,-6.57245c-4.26352,-0.94777 -8.72693,-1.30896 -12.75576,-2.99547c-1.71059,-0.71607 -2.89508,-2.36493 -4.55093,-3.19981c-1.99655,-1.00665 -4.43445,-1.05873 -6.30993,-2.27618c-1.38173,-0.89694 -1.86418,-2.76342 -3.1114,-3.83956c-1.29263,-1.11531 -3.21991,-1.39354 -4.39221,-2.63471c-3.17571,-3.36228 -5.02702,-9.53715 -6.25043,-13.80785c-1.95223,-7.02466 -4.18496,-14.03805 -5.87247,-21.13074c-0.55189,-2.31962 -1.8895,-4.65039 -1.47741,-6.99888c1.41739,-8.07755 7.54587,-8.4498 13.81216,-10.16033c2.85791,-0.78013 5.82545,-1.0859 8.75241,-1.5433c4.39247,-0.68641 8.6346,-2.77758 13.00411,-3.64456c3.42068,-0.67873 6.79777,-1.43112 10.15817,-2.23927c-2.62748,-1.8835 -5.05581,-3.98541 -7.21063,-6.27773c-2.71452,-3.01281 -6.07049,-6.39028 -7.96577,-10.02177c-0.26593,-0.50956 -2.13579,-7.33047 -2.42223,-8.36116c-1.81271,-6.52262 -3.39318,-12.95476 -4.76387,-19.5647c-1.24675,-6.01234 -2.50462,-12.02616 -3.71369,-18.04788c-2.2727,2.19951 -4.50697,4.43294 -6.66802,6.73274c-7.34847,7.82031 -13.09175,21.41469 -25.49845,22.77467c-1.47772,0.16198 -7.77663,-5.34006 -9.27797,-7.10351c-8.62111,-10.12618 -14.97542,-20.82884 -16.71013,-34.1833c-1.50564,-5.43923 -2.68573,-11.30633 -2.34343,-17.0049c0.37923,-6.3136 4.14785,-12.25695 6.79516,-17.60772c1.6081,-3.25031 2.3516,-6.90296 4.12098,-10.06837c0.89311,-1.59776 2.30979,-2.8828 3.09354,-4.53695c3.06284,-6.46422 5.15827,-13.3034 8.55207,-19.73347c3.36337,-6.37242 7.4397,-12.67203 11.9582,-18.63626c-0.61746,-1.34248 -0.65036,-2.60335 -0.65036,-2.60335c-0.15338,-6.52734 0.73065,-12.87588 0.47841,-19.44493c-0.21174,-5.51415 -1.05347,-10.00812 -0.78047,-15.50809c0.17331,-3.4916 1.2099,-6.9121 1.29967,-10.40685c0.06629,-2.58075 -0.56246,-12.24537 -0.24947,-14.25619c0.27807,-1.78655 1.67551,-3.24547 2.08991,-5.00539c1.21325,-5.15281 1.05506,-11.12278 2.08397,-16.40002c1.66305,-8.52973 4.77527,-16.68915 6.39173,-25.16038c0.51927,-4.72603 1.5501,-7.9842 3.24962,-12.28399c2.99942,-7.58854 4.16662,-15.39113 9.23116,-22.17446c1.64647,-2.20524 7.41636,-7.98916 10.0642,-8.23415c0.55793,-0.05162 10.01583,3.99125 11.75961,4.74334c13.94023,6.01233 25.27821,16.05658 37.67205,24.6878c6.51383,7.1928 15.232,11.08043 22.52499,17.34588c1.31056,1.1259 2.09343,2.79736 3.44727,3.87082c1.45778,1.15587 3.39745,1.589 4.87098,2.72473c1.81497,1.3989 3.17468,3.31483 4.9086,4.81301c5.36886,4.63892 11.59778,8.38375 17.04404,12.91701c1.6929,1.4091 3.03313,3.20464 4.69833,4.64637c3.26241,2.82461 5.44849,3.24515 8.73961,6.36205c2.67746,2.53574 4.34227,6.03399 7.09354,8.48944c0.81666,0.72886 2.03067,0.89273 2.87074,1.59448c4.75452,3.97174 7.43511,8.24829 12.36065,11.8994c0.63595,1.07255 1.27191,2.14512 1.90787,3.21766l1.7025,1.56277c7.84152,2.42322 15.7161,4.74911 23.56817,7.11725c8.03754,2.42409 16.17117,3.38869 24.17284,5.88091c9.5585,2.9771 22.47744,5.70463 27.08249,16.08402c0.84519,1.905 0.57062,4.12889 0.85591,6.19334c-1.1851,9.29155 -3.73104,18.18398 -6.37196,27.08774c-0.57493,1.93834 -1.75745,3.67317 -2.24054,5.6364c-0.85563,3.47721 -0.83063,7.19331 -2.13344,10.52885c-2.06558,5.28841 -4.50863,12.61892 -10.37929,15.31966c-1.9666,0.90472 -4.29221,-0.57044 -6.44484,-0.79908c-1.68541,-0.17902 -3.38523,-0.21312 -5.067,-0.42365c-3.67086,-0.45954 -7.211,-1.66998 -10.77098,-2.6764c-0.51906,-0.14674 -1.03882,-0.28783 -1.55918,-0.42435c1.57214,3.4579 3.05413,6.94703 4.3162,10.48093c4.83863,13.54843 7.6186,27.34707 10.82797,41.31281c0.94783,4.12454 2.17693,8.2033 2.73128,12.3989c0.4792,3.62689 -0.19184,7.3279 -0.6725,10.9546c-0.13262,1.00069 -0.25544,1.99249 -0.38177,2.97321c4.19325,-1.65747 8.50527,-2.72994 12.93204,-3.96019zM128.03133,292.92817c-1.55553,0.26327 -5.93757,2.52515 -8.45881,2.58029c0.13837,0.38206 0.2452,0.78384 0.37342,1.15671c0.5283,1.53626 0.87,3.13048 1.30499,4.69572c1.52249,5.47835 3.04498,10.95668 4.56748,16.43502c0.5163,1.93782 1.74533,7.23311 3.40502,8.80077c0.98674,0.93203 2.58073,0.99996 3.60875,1.88625c0.96225,0.8296 1.12407,2.43161 2.19406,3.11664c1.40749,0.90108 3.32041,0.64012 4.8215,1.37479c1.44906,0.70921 2.40755,2.23847 3.88502,2.8864c1.32653,0.58174 2.8734,0.39134 4.289,0.69825c4.44491,0.96368 8.85443,2.09433 13.31853,2.9648c20.88376,4.07219 41.89155,7.22321 62.618,12.21454c10.43126,2.51205 20.30369,5.81283 30.86944,7.86936c10.57726,2.86618 21.50436,4.7885 32.01995,7.75628c4.26842,1.20466 8.28915,2.9473 12.41928,4.31393c6.90382,2.28444 14.41263,2.15437 21.44939,3.73776c1.82536,0.41074 3.48879,1.41532 5.32479,1.77549c8.60636,1.68835 17.91884,2.61318 26.59719,3.3614c3.23445,0.27886 6.22919,1.85056 9.39858,2.55369c2.50209,0.55509 5.09977,-0.78798 7.65983,-0.66668c1.89232,0.08967 3.72267,0.7052 5.584,1.0578c5.58379,-0.12032 10.56962,-3.01551 16.32392,-3.02249c6.1594,-0.00748 10.53664,0.24195 16.55659,-1.4386c1.88617,-0.52655 4.12254,-0.06689 5.76435,-1.13432c1.66177,-1.08042 1.23724,-8.78348 0.94384,-10.36687c-0.73048,-3.94217 -2.51472,-7.6966 -3.24536,-11.64541c-0.86792,-4.69072 -1.2982,-8.89833 -2.91155,-13.47754c-1.06232,-3.0152 -2.49514,-5.92242 -3.20289,-9.03996c-4.15355,-4.59743 -5.04223,-10.96087 -7.95938,-16.42901c-1.20904,-2.26632 -3.10075,-4.1224 -4.30536,-6.39109c-2.06842,-3.89558 -3.18673,-8.23599 -5.10696,-12.20671c-3.11371,-6.43864 -6.23993,-12.51958 -8.79507,-19.20802c-2.17277,-5.68756 -6.45662,-10.44502 -8.69808,-16.13014c-2.13922,-5.42582 -4.55374,-10.61583 -7.41273,-15.80429c-6.63843,-7.65238 -20.17259,-2.1846 -27.9658,-0.01877c-3.7267,1.03569 -6.99541,1.8483 -10.43409,3.62351l-1.87033,0.63909c0,0 -1.55039,0.43087 -3.2591,0.03495c-1.07234,1.97081 -2.51655,3.8218 -4.51123,5.52391c-7.90814,6.74821 -20.50084,8.32019 -30.10241,10.98858c-18.42479,5.12046 -36.81995,9.57915 -55.68789,12.69427c-10.04811,1.65897 -19.44585,3.75075 -29.59579,4.24223c-6.70393,0.32462 -13.15281,1.29884 -19.88278,0.62901c-3.66123,-0.3644 -7.356,-1.13708 -10.96783,-2.27421c-13.53188,3.74061 -27.18046,7.31665 -40.92345,9.64264zM249.30243,61.97208c-3.01252,-2.73066 -5.00797,-6.44523 -7.95288,-9.2487c-2.41301,-2.29712 -5.6057,-3.63879 -8.13229,-5.81036c-1.64059,-1.41005 -2.945,-3.18631 -4.60762,-4.57032c-5.47814,-4.5601 -11.72331,-8.33353 -17.13475,-12.99306c-1.57197,-1.35355 -2.75322,-3.13874 -4.39734,-4.40368c-1.56038,-1.20048 -3.58882,-1.70173 -5.13022,-2.92648c-1.49145,-1.18506 -2.41854,-2.96843 -3.85843,-4.21563c-7.26228,-6.29043 -16.00402,-10.11044 -22.52499,-17.34588c-10.21875,-7.01225 -19.68741,-14.8817 -30.39524,-20.99006c-1.91446,-1.09211 -7.94107,-1.85797 -9.5374,-4.19916c-0.65834,0.77063 -1.62711,1.31169 -2.23413,2.13578c-1.38198,1.87618 -2.39292,4.00617 -3.40828,6.10354c-3.39173,7.0061 -6.04242,15.41156 -6.88676,23.09612c-1.71338,8.64774 -4.77539,16.92561 -6.47218,25.62631c-1.06122,5.44172 -0.94799,11.48036 -2.17299,16.81953c-0.3711,1.61746 -1.71483,2.92532 -1.99606,4.5608c-0.70817,4.11812 0.57035,8.35082 0.44953,12.52764c-0.10246,3.5424 -1.12254,7.01194 -1.30655,10.55103c-0.20401,3.92333 0.65872,10.83555 0.78853,14.40621c0.02581,0.70974 0.03847,1.41666 0.04075,2.12128c4.08541,-5.19678 8.24869,-10.31618 12.44524,-15.50128c4.61042,-5.69647 8.44488,-11.25451 14.26388,-15.65039c5.60588,-6.18674 11.31299,-12.10667 16.47595,-18.63232c3.71707,-4.69812 3.67637,-7.23476 10.57776,-10.02703c1.85327,-0.74983 4.00846,-0.03441 5.99445,0.19518c5.27155,0.6094 9.82758,3.33533 14.8405,4.96798c15.8802,5.172 31.33762,11.55261 46.93269,17.64154c5.38887,2.30174 10.84551,4.42596 16.34964,6.42357c-0.36382,-0.1834 -0.71069,-0.39007 -1.01079,-0.66211zM123.79287,97.94763c3.34918,4.0321 -0.52896,7.85458 -0.52896,7.85458c-9.27017,9.11393 -18.00472,20.49146 -24.03499,32.00148c-3.3158,6.32888 -5.34315,13.00543 -8.36508,19.36665c-0.89557,1.88519 -2.41978,3.40944 -3.4557,5.22131c-1.6591,2.90184 -2.26259,6.30453 -3.72351,9.31103c-2.00207,4.12019 -5.51042,8.72251 -5.68776,13.64496c-0.16309,4.52669 0.96396,9.19531 2.16378,13.49509c1.33468,10.27498 5.21966,16.59547 11.13133,24.74337c1.5762,2.17242 4.032,3.73317 5.19455,6.15234c0.00244,0.0051 0.00463,0.01029 0.00655,0.01556c5.11653,-5.92527 9.61303,-12.49499 14.95262,-18.18252c4.02193,-4.28401 8.30625,-8.33043 12.61854,-12.35736c-1.14785,-6.29932 -2.19297,-12.61252 -3.06732,-18.94693c-0.21016,-1.52252 -0.37056,-3.06054 -0.49452,-4.60889c-3.61314,-0.44391 -4.70024,-4.35559 -4.70024,-4.35559l-0.51198,-1.84225c-2.98598,-11.33053 -0.37904,-23.15922 2.56393,-34.22578c1.11765,-4.20274 2.36215,-8.63544 5.11523,-12.00187c3.88143,-4.74614 8.96784,-6.59343 13.99761,-9.4357c0.17234,-0.09739 7.81528,-5.35626 8.43932,-5.67426c8.97885,-4.57549 18.67563,-7.32724 28.34161,-9.95811c24.23675,-4.06777 48.94626,-5.61599 73.34474,-2.04052c10.98697,1.61009 23.61941,3.54146 32.32523,11.26315c1.19937,1.06378 1.75144,2.6967 2.79352,3.91498c2.79916,3.27247 5.79266,6.4731 7.86937,10.24558c1.57624,2.86332 2.2534,6.13645 3.35074,9.21524c1.95126,5.47469 4.18396,10.82281 6.42824,16.20243c3.64526,0.83544 7.31699,1.5519 10.95966,2.5377c3.04251,0.82338 6.02244,2.01183 9.15393,2.37044c1.92296,0.22022 3.91037,0.03825 5.78231,0.53027c0.4453,0.11705 0.31745,1.40235 0.71998,1.17882c0.49281,-0.27366 -0.0045,-1.14986 0.18432,-1.68098c0.21734,-0.61131 3.5278,-7.94651 3.9121,-10.01138c0.34206,-1.83793 0.06534,-3.76977 0.5122,-5.58509c2.51932,-10.23443 6.77182,-19.62923 8.30172,-30.1896c0.07539,-3.16345 -3.03679,-4.26169 -5.51478,-5.79589c-5.67312,-3.51236 -13.77086,-5.4522 -20.22157,-7.04427c-3.42494,-0.8453 -7.00784,-0.92271 -10.43811,-1.74616c-7.03535,-1.68884 -13.78169,-4.22718 -20.67311,-6.38612c-3.02037,-0.94621 -6.03976,-1.87458 -9.05565,-2.7997c-2.09499,0.29545 -3.87228,-0.8511 -4.59598,-1.41013c-13.30074,-4.08775 -26.50795,-8.25683 -39.40269,-13.76451c-15.33684,-5.99486 -30.55125,-12.20483 -46.14268,-17.35092c-2.36688,-0.78121 -4.78468,-1.42481 -7.09597,-2.3577c-0.89946,-0.36303 -5.68322,-3.28809 -6.66495,-2.70993c-1.62672,0.95799 -3.9062,5.0579 -4.77286,6.1463c-1.79613,2.25569 -4.29828,3.89279 -6.0477,6.18489c-0.91858,1.20354 -1.28534,2.77592 -2.23872,3.9521c-2.87118,3.54218 -6.3936,6.50477 -9.48627,9.8553c-5.33756,3.71439 -8.97994,9.34096 -13.09419,14.44417c-3.40799,4.22717 -6.8005,8.40336 -10.14784,12.61443zM142.44484,180.97227c11.38609,-12.98152 22.70613,-25.80742 35.71127,-37.27451c2.8882,-5.25146 7.01386,-9.43143 10.5898,-14.17035c3.89094,-5.15636 5.47655,-10.84482 9.032,-16.0942c1.49922,-2.21349 1.76751,-6.71537 4.44069,-6.6787c5.06003,0.06941 9.04005,4.55283 13.51018,6.92492c5.00487,2.65587 9.58673,6.13333 14.78731,8.38193c2.44272,1.05616 5.14443,1.39025 7.64512,2.30067c7.36037,2.67967 14.29055,6.51678 21.67283,9.15297c8.40035,2.99974 16.86488,6.02201 25.34315,8.86165c-1.00872,-2.5318 -1.98344,-5.0751 -2.89864,-7.64292c-0.90495,-2.53902 -1.36213,-5.27313 -2.65593,-7.63778c-1.68271,-3.07544 -4.27593,-5.55931 -6.53028,-8.24403c-0.69812,-0.8314 -0.91316,-2.03488 -1.71075,-2.77137c-6.49717,-5.99967 -17.85557,-7.05023 -26.01717,-8.24452c-22.94813,-3.35799 -46.27044,-1.93163 -69.07441,1.89118c-8.64631,2.37069 -17.28319,4.81515 -25.34066,8.8564c-2.97524,1.49225 -5.38407,3.93953 -8.2766,5.5864c-3.74445,2.13191 -7.64264,3.24927 -10.63284,6.67057c-2.72955,3.12308 -1.79989,3.79295 -2.72927,7.37754c-0.85516,3.29838 -2.03694,6.54022 -2.5537,9.9036c4.66781,0.57999 4.89045,5.60563 4.89045,5.60563c0.36231,8.18347 -0.06211,16.83693 1.08149,24.95454c0.50581,3.59044 1.06346,7.17364 1.66137,10.75118c2.77728,-2.73139 5.48465,-5.53072 8.05459,-8.46077zM284.33723,154.56166c-9.51267,-3.11236 -19.02312,-6.50648 -28.43727,-9.88081c-7.42176,-2.6602 -14.39461,-6.50208 -21.79444,-9.19657c-2.70509,-0.98501 -5.61448,-1.39269 -8.25398,-2.54197c-2.95215,-1.2854 -5.62199,-3.14057 -8.42717,-4.72121c-3.62828,-2.04442 -8.32861,-3.49452 -10.41549,-7.30563c-0.52861,0.55177 -1.07165,1.10428 -1.39805,1.75117c-1.30223,2.58091 -1.92833,5.49951 -3.45382,7.95505c-4.47717,7.2068 -10.51697,13.13544 -14.75989,20.47585c-12.89478,11.87392 -24.52168,24.55624 -36.05521,37.68468c-4.51952,5.14449 -9.44971,9.89673 -14.43991,14.58392c1.61193,8.41359 3.36444,16.80733 5.10583,25.20218c1.32223,6.37417 2.84031,12.55774 4.58895,18.84982c0.58844,2.11736 0.65074,4.43182 1.67362,6.37686c0.93214,1.77253 5.03395,6.07148 6.09255,7.23966c1.65293,1.94804 3.86475,3.40054 6.09445,4.64774c2.96873,1.66059 5.83309,3.76099 8.91844,5.33212c1.32105,-0.10742 3.536,0.04929 5.02773,1.93113c7.99302,2.12708 16.79447,0.53646 24.81154,0.16117c9.69454,-0.45381 18.64549,-2.51642 28.26032,-4.09928c18.45492,-3.03816 36.42505,-7.41207 54.44372,-12.41966c7.43405,-2.06601 19.10913,-3.14611 25.36934,-8.39673c4.44352,-3.7269 3.72048,-8.84281 4.41949,-13.95019c0.23687,-1.73066 0.9018,-3.39327 1.05287,-5.13351c0.39521,-4.55229 -1.90564,-9.8035 -2.8887,-14.09045c-3.11027,-13.56321 -5.78983,-26.92475 -10.47111,-40.08759c-2.16277,-6.08126 -5.04417,-12.02864 -7.8694,-17.9088c-2.42269,-0.66866 -4.82608,-1.45255 -7.1944,-2.45896z" fill="#000000" stroke="none" stroke-width="0.5"/><path d="M249.36276,61.99833c0.30011,0.27204 0.64692,0.47885 1.01074,0.66225c-5.50413,-1.99761 -10.96102,-4.12129 -16.34988,-6.42303c-15.59507,-6.08892 -31.05657,-12.46185 -46.93677,-17.63385c-5.01292,-1.63265 -9.58717,-4.33931 -14.85872,-4.94871c-1.98599,-0.22958 -4.18607,-0.93351 -6.03934,-0.18368c-6.90138,2.79227 -6.8897,5.31845 -10.60677,10.01658c-5.16297,6.52565 -10.8742,12.44262 -16.48008,18.62936c-5.81899,4.39588 -9.57152,9.85102 -14.18194,15.54749c-4.19655,5.1851 -8.44296,10.40645 -12.52836,15.60323c-0.00229,-0.70463 -0.01576,-1.41222 -0.04157,-2.12196c-0.12981,-3.57065 -0.99879,-10.48889 -0.79479,-14.41222c0.18401,-3.53909 1.19979,-7.01387 1.30226,-10.55627c0.12082,-4.17681 -1.16355,-8.41904 -0.45539,-12.53716c0.28123,-1.63548 1.62342,-2.94663 1.99452,-4.56409c1.225,-5.33917 1.10676,-11.39622 2.16798,-16.83794c1.69679,-8.7007 4.76403,-17.01321 6.47741,-25.66095c0.84434,-7.68456 3.51201,-16.11292 6.90374,-23.11903c1.01537,-2.09737 2.03209,-4.23183 3.41407,-6.10801c0.60702,-0.82409 1.5786,-1.36698 2.23694,-2.13761c1.59633,2.3412 7.62961,3.10347 9.54406,4.19558c10.70783,6.10836 20.22513,13.97501 30.44388,20.98726c6.52097,7.23544 15.30542,11.10076 22.5677,17.39119c1.43989,1.2472 2.36879,3.0399 3.86023,4.22496c1.5414,1.22475 3.57027,1.73175 5.13065,2.93223c1.64412,1.26494 2.82524,3.05682 4.39721,4.41038c5.41144,4.65953 11.65462,8.44497 17.13276,13.00507c1.66262,1.38401 2.96618,3.16323 4.60676,4.57329c2.52659,2.17157 5.71846,3.5157 8.13147,5.81282c2.9449,2.80348 4.93873,6.52215 7.95125,9.25281z" data-paper-data="{&quot;noHover&quot;:false,&quot;origItem&quot;:[&quot;Path&quot;,{&quot;applyMatrix&quot;:true,&quot;segments&quot;:[[[294.82465,59.53341],[0,0],[-1.65071,-2.61334]],[[290.88212,51.14018],[1.58636,2.65291],[-1.29984,-2.17375]],[[286.10827,45.22889],[1.40859,2.10491],[-0.91464,-1.36677]],[[283.66369,40.94337],[0.93608,1.35218],[-3.08429,-4.45524]],[[273.75797,27.93847],[3.01519,4.51449],[-0.87588,-1.31142]],[[271.43349,23.81781],[0.94677,1.2612],[-0.89855,-1.19694]],[[268.2715,20.62996],[0.87971,1.21085],[-0.8512,-1.17161]],[[266.30347,16.75674],[0.80079,1.20663],[-4.03888,-6.08582]],[[253.33565,-0.53368],[3.30353,6.62711],[-6.05745,-7.21635]],[[235.34497,-22.0954],[6.59968,6.65384],[-1.17996,-1.18964]],[[229.21395,-27.11257],[0.69268,2.03979],[-0.63908,0.43045]],[[227.14277,-26.00297],[0.61237,-0.48005],[-1.39417,1.09292]],[[223.40389,-22.22614],[1.17066,-1.32956],[-3.91048,4.4413]],[[213.65814,-6.71093],[2.18272,-5.45679],[-3.01532,5.98538]],[[203.70101,10.74194],[3.01395,-6.02755],[-1.88502,3.76984]],[[198.68559,22.61931],[1.98411,-3.66139],[-0.60107,1.10919]],[[196.29515,25.55361],[0.53891,-1.14068],[-1.35699,2.87222]],[[194.07429,34.82116],[0.93873,-3.03477],[-0.79614,2.57382]],[[190.96952,42.28345],[0.8552,-2.5548],[-0.94806,2.83217]],[[188.61456,52.99599],[0.63176,-2.6418],[-0.12557,0.52511]],[[188.2126,54.55805],[0.14176,-0.51658],[4.05027,-2.97483]],[[200.48373,45.73727],[-4.1293,2.94365],[4.53654,-3.23396]],[[214.1173,37.17748],[-5.15703,2.03531],[5.36548,-3.39043]],[[229.97814,26.88382],[-5.11005,3.72883],[3.67897,-2.68456]],[[239.76707,21.69259],[-5.62341,0.64039],[1.51009,-0.17197]],[[244.11806,23.05578],[-1.40793,-0.57243],[3.73717,1.51944]],[[253.97691,29.71558],[-3.33944,-2.21629],[10.57886,7.02088]],[[284.76231,52.19099],[-10.18337,-7.63445],[3.47861,2.7829]],[[295.43025,60.22416],[-3.62494,-2.5836],[-0.22915,-0.20839]],[[294.82466,59.53343],[0.16444,0.26035],[0,0]]],&quot;closed&quot;:true,&quot;fillColor&quot;:[0,0,0,1]}]}" fill="#ffffff" stroke="none" stroke-width="0.5"/><path d="M123.72937,97.93049c3.34734,-4.21107 6.74456,-8.39961 10.15254,-12.62678c4.11425,-5.10321 7.76646,-10.7442 13.10402,-14.45859c3.09268,-3.35053 6.62429,-6.3216 9.49547,-9.86377c0.95338,-1.17618 1.32314,-2.75073 2.24172,-3.95426c1.74942,-2.2921 4.25785,-3.93294 6.05398,-6.18863c0.86666,-1.0884 3.15143,-5.19077 4.77814,-6.14876c0.98173,-0.57816 5.76969,2.34532 6.66915,2.70835c2.31129,0.9329 4.73442,1.57494 7.1013,2.35615c15.59143,5.14609 30.85406,11.36278 46.1909,17.35764c12.89474,5.50768 26.12707,9.7023 39.42781,13.79005c0.72369,0.55904 2.50226,1.70804 4.59726,1.41259c3.01588,0.92512 6.03726,1.8579 9.05763,2.80411c6.89141,2.15894 13.64043,4.70531 20.67578,6.39415c3.43027,0.82345 7.01375,0.90325 10.43869,1.74855c6.45071,1.59207 14.54942,3.53732 20.22254,7.04968c2.478,1.5342 5.59051,2.63547 5.51512,5.79892c-1.5299,10.56038 -5.78273,19.96986 -8.30205,30.20429c-0.44687,1.81532 -0.17057,3.74991 -0.51264,5.58784c-0.3843,2.06488 -3.6959,9.40525 -3.91324,10.01656c-0.18882,0.53112 0.30826,1.40814 -0.18455,1.6818c-0.40253,0.22353 -0.40157,-1.09645 -0.84687,-1.2135c-1.87194,-0.49202 -3.73248,-0.27533 -5.65544,-0.49555c-3.1315,-0.35861 -6.11146,-1.54697 -9.15396,-2.37035c-3.64266,-0.9858 -7.44099,-1.73799 -11.08625,-2.57343c-2.24428,-5.37961 -4.47895,-10.71825 -6.43021,-16.19294c-1.09734,-3.07879 -1.77501,-6.34557 -3.35125,-9.20889c-2.07671,-3.77248 -5.06999,-6.96514 -7.86915,-10.2376c-1.04208,-1.21828 -1.59376,-2.84782 -2.79313,-3.91159c-8.70582,-7.72169 -21.33246,-9.63386 -32.31943,-11.24395c-24.39847,-3.57547 -48.9966,-2.01547 -73.23335,2.05229c-9.66598,2.63087 -19.35023,5.35476 -28.32907,9.93026c-0.62404,0.318 -8.26599,5.5695 -8.43834,5.66688c-5.02977,2.84227 -10.11612,4.68065 -13.99755,9.42679c-2.75308,3.36643 -3.99876,7.79004 -5.11641,11.99279c-2.94297,11.06657 -5.55796,22.87449 -2.57199,34.20501l0.51135,1.84121c0,0 1.08479,3.90822 4.69792,4.35213c0.12395,1.54835 0.28277,3.08426 0.49293,4.60678c0.87434,6.33441 1.91272,12.64021 3.06057,18.93952c-4.31229,4.02693 -8.59635,8.07359 -12.61828,12.3576c-5.33959,5.68754 -9.83665,12.25673 -14.95317,18.18201c-0.00192,-0.00527 -0.09384,0.08571 -0.09628,0.08062c-1.16255,-2.41917 -3.62083,-3.98236 -5.19703,-6.15478c-5.91167,-8.1479 -9.80398,-14.47748 -11.13866,-24.75246c-1.19982,-4.29978 -2.32992,-8.97343 -2.16683,-13.50012c0.17734,-4.92245 3.68357,-9.52902 5.68564,-13.64921c1.46091,-3.0065 2.06294,-6.41266 3.72204,-9.3145c1.03592,-1.81187 2.55943,-3.33804 3.45499,-5.22323c3.02194,-6.36122 5.0467,-13.04737 8.3625,-19.37624c6.03028,-11.51002 14.76455,-22.91063 24.03472,-32.02456c0,0 3.87952,-3.82884 0.53034,-7.86094z" data-paper-data="{&quot;noHover&quot;:false,&quot;origItem&quot;:[&quot;Path&quot;,{&quot;applyMatrix&quot;:true,&quot;segments&quot;:[[[195.57023,60.33548],[0,0],[1.63238,3.63513]],[[193.58391,65.981],[0,0],[-8.6453,4.78859]],[[169.46492,84.52837],[6.75994,-7.20315],[-3.71701,3.96071]],[[159.39552,97.01095],[3.50835,-4.04422],[-1.03972,1.19853]],[[155.80149,100.13193],[1.1276,-1.11626],[-1.80593,1.78777]],[[151.1788,106.19397],[1.68207,-1.90477],[-2.30515,2.61035]],[[144.23515,115.03061],[1.13191,-3.56942],[-1.04091,3.28244]],[[143.07298,125.35574],[-0.00356,-3.39367],[-1.11397,7.79774]],[[146.18952,145.74526],[-2.6715,-7.17142],[0.71229,1.91207]],[[148.74197,151.30903],[-0.35908,-2.0086],[0.00075,0.00423]],[[148.7436,151.32176],[-0.00033,-0.00425],[4.95382,-3.29853]],[[163.39709,141.04747],[-5.06881,3.07899],[3.81797,-2.31918]],[[175.15518,134.56478],[-3.97832,2.07177],[0.44153,-4.84768]],[[176.76532,120.06245],[-0.64901,4.81771],[0.15599,-1.15797]],[[177.34129,116.58594],[-0.22439,1.15934],[-2.55613,-1.06064]],[174.78516,112.43885],[[174.78516,110.98525],[0,0],[0.11932,-8.90703]],[[183.63015,86.43801],[-4.40833,7.50679],[1.67415,-2.85085]],[[189.81997,78.68833],[-2.7018,1.90537],[3.80913,-2.68627]],[[201.99345,74.62637],[-4.2627,1.058],[0.14606,-0.03625]],[[209.33,72.18809],[-0.52182,0.10589],[7.50807,-1.52365]],[[232.11628,70.66335],[-7.61552,-0.04059],[18.58058,1.95414]],[[286.25403,84.0988],[-17.14318,-7.58546],[7.71981,3.41584]],[[307.63837,98.92878],[-4.80487,-7.42802],[0.66195,1.02332]],[[308.88759,102.36501],[-0.51529,-1.10447],[1.38414,2.96676]],[[312.56603,111.47142],[-0.75319,-3.18594],[0.57168,2.41814]],[[313.14447,118.90333],[-0.17704,-2.47848],[0.3148,4.40721]],[[314.55476,132.07956],[-0.54878,-4.39722],[2.49996,1.35396]],[[322.06574,136.16928],[-2.46745,-1.46356],[2.06092,1.22243]],[[328.28814,139.76892],[-2.22071,-0.90012],[1.36367,0.55274]],[[332.41553,141.33437],[-1.27097,-0.74144],[0.30234,0.17638]],[[332.70293,142.34437],[-0.34034,0.08179],[0.41667,-0.10013]],[[333.18012,141.15063],[-0.24642,0.35059],[0.28363,-0.40352]],[[338.08351,134.614],[-0.70181,1.43422],[0.62468,-1.27659]],[[339.59558,130.62739],[-0.69684,1.23869],[3.92863,-6.98352]],[[351.82169,110.20449],[-3.27027,7.42367],[0.69917,-2.30177]],[[348.96212,104.83662],[1.50274,1.62817],[-3.44038,-3.7275]],[[335.58448,95.56064],[4.40083,2.47924],[-2.33658,-1.31633]],[[328.29439,92.15686],[2.34493,1.30141],[-4.80936,-2.66913]],[[314.45204,83.27104],[4.60824,2.98416],[-2.0197,-1.30789]],[[308.38901,79.37699],[2.02071,1.29153],[-1.59465,-0.21005]],[[305.30967,77.40856],[0.41628,0.55679],[-8.91021,-5.70163]],[[279.25052,59.30574],[8.32379,6.65903],[-10.01337,-7.51299]],[[248.98462,37.20401],[10.37262,6.94312],[-1.57463,-1.05401]],[[244.26701,34.03262],[1.50304,1.1538],[-0.58492,-0.449]],[[239.93681,30.69098],[0.83677,-0.22364],[-1.38652,0.37056]],[[235.18972,34.22136],[0.85635,-0.6208],[-1.77477,1.28659]],[[229.501,37.5205],[1.74797,-1.32277],[-0.91782,0.69456]],[[227.05673,39.95956],[0.93774,-0.66744],[-2.82408,2.01006]],[[218.10223,45.24719],[2.94731,-1.8246],[-4.66567,1.63414]],[[205.57095,53.16157],[4.05235,-2.90042],[-3.35671,2.40252]],[[195.57023,60.33549],[3.30901,-2.40307],[0,0]]],&quot;closed&quot;:true,&quot;fillColor&quot;:[0,0,0,1]}]}" fill="#ffffff" stroke="none" stroke-width="0.5"/><path d="M142.49752,180.93291c-2.56994,2.93005 -5.38175,5.80934 -8.15904,8.54072c-0.59791,-3.57754 -1.15996,-7.16711 -1.66577,-10.75755c-1.14361,-8.11761 -0.72692,-16.78974 -1.08922,-24.97321c0,0 -0.22376,-5.03127 -4.89157,-5.61125c0.51676,-3.36338 1.69781,-6.61375 2.55297,-9.91213c0.92937,-3.58459 -0.00007,-4.26135 2.72948,-7.38443c2.9902,-3.42129 6.88959,-4.5468 10.63404,-6.67871c2.89253,-1.64687 5.30376,-4.10261 8.279,-5.59486c8.05747,-4.04125 16.71121,-6.51149 25.35752,-8.88218c22.80397,-3.8228 46.22622,-5.23751 69.17435,-1.87952c8.1616,1.19429 19.5282,2.26244 26.02537,8.26212c0.79758,0.73649 1.01336,1.94268 1.71148,2.77408c2.25435,2.68472 4.84904,5.1765 6.53175,8.25194c1.29381,2.36465 1.75146,5.1052 2.65641,7.64421c0.9152,2.56781 1.88979,5.11719 2.89851,7.64899c-8.47827,-2.83964 -17.07409,-5.86277 -25.47444,-8.86251c-7.38228,-2.63619 -14.3091,-6.45583 -21.66946,-9.1355c-2.50069,-0.91042 -5.19874,-1.23582 -7.64146,-2.29198c-5.20059,-2.2486 -9.75808,-5.6997 -14.76295,-8.35557c-4.47012,-2.37209 -8.41708,-6.84589 -13.47711,-6.9153c-2.67317,-0.03667 -2.92942,4.46432 -4.42863,6.67781c-3.55544,5.24939 -5.0944,10.9049 -8.98534,16.06126c-3.57594,4.73892 -7.69606,8.8682 -10.58426,14.11966c-13.00514,11.46708 -24.33554,24.27238 -35.72163,37.25389z" data-paper-data="{&quot;noHover&quot;:false,&quot;origItem&quot;:[&quot;Path&quot;,{&quot;applyMatrix&quot;:true,&quot;segments&quot;:[[[192.33164,124.94484],[0,0],[10.98242,-7.19074]],[[226.07646,104.91199],[-11.86004,5.7519],[3.18449,-3.25858]],[[236.71762,96.68838],[-3.5839,2.74317],[3.8996,-2.98481]],[[246.60937,86.73851],[-3.6728,3.12124],[1.5487,-1.31612]],[[251.22153,82.75055],[-1.95054,-0.57101],[3.69216,1.08086]],[[259.70761,90.57294],[-2.79134,-2.64741],[3.12526,2.96412]],[[268.83256,99.72251],[-3.35152,-2.70565],[1.57421,1.27084]],[[273.96401,102.96391],[-1.64634,-1.17589],[4.84573,3.46104]],[[287.9754,114.07985],[-4.87063,-3.43365],[5.54233,3.90718]],[[304.73447,125.72954],[-5.63199,-3.80577],[-0.22348,-2.05979]],[[304.16711,119.54133],[0.14765,2.06713],[-0.146,-2.04395]],[[303.77648,113.40629],[0.46632,1.99539],[-0.60649,-2.59518]],[[300.67144,106.03853],[1.10473,2.42536],[-0.34211,-0.75108]],[[299.98252,103.66036],[0.43428,0.70181],[-3.53765,-5.71711]],[[282.60413,92.32549],[5.73497,2.53615],[-16.12513,-7.13093]],[[231.62464,79.64992],[17.48126,1.84191],[-6.81569,-0.0236]],[[211.26071,80.97857],[6.72444,-1.31989],[-2.48302,0.48738]],[[204.06123,83.38562],[2.45391,-0.61747],[-3.17665,0.79933]],[[194.9152,86.10715],[2.88665,-1.89729],[-2.63503,1.73192]],[[191.41434,90.95536],[1.41041,-2.4364],[-1.29779,2.24187]],[[187.52787,97.68956],[1.06316,-2.35836],[3.30094,1.375]],[[189.96887,102.79098],[0,0],[-1.40045,6.06785]],[[185.68128,121.28943],[0.81477,-6.17865],[-0.36038,2.73283]],[[184.70966,129.50247],[0.2903,-2.74213],[2.59026,-1.4353]],[[192.33163,124.94485],[-2.47883,1.62302],[0,0]]],&quot;closed&quot;:true,&quot;fillColor&quot;:[0,0,0,1]}]}" fill="#ffffff" stroke="none" stroke-width="0.5"/><path d="M284.39272,154.52635c2.36831,1.00641 4.7741,1.79439 7.19679,2.46305c2.82524,5.88016 5.71234,11.84197 7.87511,17.92323c4.68128,13.16284 7.36165,26.55451 10.47192,40.11772c0.98307,4.28695 3.28157,9.54659 2.88636,14.09888c-0.15107,1.74024 -0.81721,3.40604 -1.05408,5.1367c-0.69901,5.10738 0.01987,10.23168 -4.42366,13.95858c-6.26022,5.25062 -17.9445,6.34288 -25.37855,8.40889c-18.01867,5.00759 -36.02859,9.40131 -54.48351,12.43947c-9.61484,1.58286 -18.58978,3.64386 -28.28432,4.09767c-8.01707,0.37529 -16.8352,1.95909 -24.82822,-0.16799c-1.49173,-1.88184 -3.70999,-2.04061 -5.03105,-1.93319c-3.08535,-1.57113 -5.95574,-3.67603 -8.92447,-5.33662c-2.22969,-1.24721 -4.44558,-2.70342 -6.09851,-4.65146c-1.0586,-1.16818 -5.16499,-5.47218 -6.09712,-7.24471c-1.02288,-1.94504 -1.08787,-4.26305 -1.67631,-6.38041c-1.74864,-6.29207 -3.27367,-12.48815 -4.5959,-18.86232c-1.74139,-8.39485 -3.4988,-16.80837 -5.11073,-25.22196c4.99021,-4.68719 9.92053,-9.45233 14.44005,-14.59682c11.53353,-13.12843 23.18814,-25.8575 36.08292,-37.73142c4.24292,-7.34041 10.30412,-13.27886 14.78128,-20.48566c1.52549,-2.45555 2.15616,-5.37514 3.45839,-7.95605c0.3264,-0.64689 0.87087,-1.19964 1.39948,-1.75142c2.08689,3.81111 6.79605,5.26042 10.42433,7.30484c2.80518,1.58063 5.48363,3.43619 8.43578,4.72159c2.6395,1.14928 5.55769,1.55854 8.26277,2.54355c7.39983,2.69448 14.39508,6.54675 21.81683,9.20694c9.41415,3.37433 18.94172,6.78658 28.45439,9.89894z" data-paper-data="{&quot;noHover&quot;:false,&quot;origItem&quot;:[&quot;Path&quot;,{&quot;applyMatrix&quot;:true,&quot;segments&quot;:[[[301.63885,134.48363],[0,0],[-6.33414,-4.21609]],[[282.82091,121.4576],[6.20865,4.38792],[-4.89466,-3.45927]],[[268.72932,110.28497],[4.87162,3.47992],[-1.78087,-1.27213]],[[263.20102,106.74289],[1.69939,1.3791],[-1.90069,-1.54245]],[[257.98947,101.56934],[1.73294,1.72878],[-2.24142,-2.23604]],[[251.84763,94.09805],[0.75278,3.21631],[-0.49951,0.29655]],[[250.46714,95.09613],[0.37076,-0.40738],[-1.47921,1.62534]],[[246.31801,100.21986],[1.61722,-1.48807],[-4.74638,4.36735]],[[231.33886,112.21316],[4.602,-4.5129],[-11.86202,6.07236]],[[197.25862,132.47643],[11.12032,-7.26834],[-4.3576,2.84816]],[[183.7132,140.21924],[4.60927,-2.41739],[-0.53199,6.49078]],[[182.32288,159.71827],[0.43335,-6.5034],[-0.32904,4.938]],[[181.84705,174.45921],[0,-4.96467],[0,1.67067]],[[181.77484,179.47071],[-0.35329,-1.63289],[0.32194,1.48806]],[[184.76371,186.0137],[-0.53759,-1.07114],[0.81417,1.76334]],[[188.28158,190.65859],[-1.37929,-1.36741],[1.83646,1.82064]],[[193.72861,196.37961],[-1.94009,-1.77885],[0.98949,0.19023]],[[197.01814,198.81754],[-0.70957,-1.68204],[5.42161,3.18507]],[[215.15889,203.98623],[-5.94861,-1.35707],[7.19328,1.64102]],[[236.69301,206.73633],[-7.36473,-0.79781],[14.13601,1.53134]],[[279.09922,208.72194],[-14.21737,0],[5.86573,0]],[[299.39059,207.73582],[-5.6542,2.57156],[4.01337,-1.8253]],[[305.46741,198.41744],[-1.55166,3.59868],[0.52579,-1.21943]],[[307.28358,194.87165],[-0.4649,1.24391],[1.21614,-3.25394]],[[308.03596,183.96288],[-0.15259,3.34015],[0.48277,-10.56769]],[[308.52648,152.46866],[0.74944,10.59423],[-0.34625,-4.89456]],[[306.40794,137.74921],[0.87242,4.88211],[-1.63842,-0.98293]],[[301.63885,134.48362],[1.52984,1.21925],[0,0]]],&quot;closed&quot;:true,&quot;fillColor&quot;:[0,0,0,1]}]}" fill="#ffeaab" stroke="none" stroke-width="0.5"/><path d="M127.96845,292.9089c13.74298,-2.32599 27.39629,-5.91349 40.92817,-9.6541c3.61183,1.13713 7.30756,1.90806 10.96879,2.27246c6.72997,0.66983 13.18317,-0.31104 19.8871,-0.63566c10.14994,-0.49148 19.56233,-2.59768 29.61045,-4.25665c18.86794,-3.11513 37.31649,-7.58428 55.74128,-12.70474c9.60157,-2.66838 22.21231,-4.23315 30.12045,-10.98136c1.99468,-1.70211 3.43952,-3.55273 4.51186,-5.52354c1.70872,0.39592 3.26065,-0.03399 3.26065,-0.03399l1.87099,-0.63866c3.43868,-1.77521 6.71066,-2.58552 10.43737,-3.62122c7.79321,-2.16582 21.3359,-7.62599 27.97433,0.02638c2.859,5.18846 5.27907,10.3852 7.41829,15.81102c2.24147,5.68512 6.53035,10.45081 8.70312,16.13836c2.55514,6.68844 5.68562,12.77968 8.79933,19.21832c1.92023,3.97072 3.04026,8.31775 5.10868,12.21333c1.20461,2.26868 3.09695,4.12832 4.30599,6.39464c2.91715,5.46814 3.80654,11.83996 7.96008,16.43739c0.70776,3.11754 2.14052,6.02904 3.20284,9.04424c1.61335,4.57921 2.04308,8.79288 2.911,13.48361c0.73064,3.94881 2.51404,7.70805 3.24451,11.65022c0.2934,1.58339 0.71683,9.29082 -0.94495,10.37124c-1.64181,1.06743 -3.87852,0.60893 -5.76469,1.13548c-6.01995,1.68055 -10.39819,1.43411 -16.55759,1.44159c-5.7543,0.00698 -10.7419,2.90658 -16.3257,3.02689c-1.86133,-0.3526 -3.692,-0.96743 -5.58432,-1.0571c-2.56006,-0.12131 -5.15878,1.22392 -7.66087,0.66883c-3.16938,-0.70313 -6.16475,-2.27362 -9.3992,-2.55248c-8.67835,-0.74822 -17.99554,-1.66547 -26.6019,-3.35383c-1.836,-0.36017 -3.50044,-1.3634 -5.32579,-1.77414c-7.03676,-1.58339 -14.55529,-1.44304 -21.45911,-3.72748c-4.13013,-1.36663 -8.16084,-3.10225 -12.42926,-4.30691c-10.51559,-2.96779 -21.50918,-4.89078 -32.08643,-7.75696c-10.56576,-2.05653 -20.46648,-5.39209 -30.89774,-7.90414c-20.72644,-4.99132 -41.73786,-8.16188 -62.62162,-12.23406c-4.4641,-0.87047 -8.87366,-2.00296 -13.31857,-2.96665c-1.4156,-0.30691 -2.96246,-0.1169 -4.28899,-0.69863c-1.47747,-0.64793 -2.43594,-2.17866 -3.885,-2.88787c-1.50108,-0.73467 -3.41399,-0.47433 -4.82148,-1.37541c-1.07,-0.68503 -1.23174,-2.2885 -2.19399,-3.11811c-1.02801,-0.88629 -2.62195,-0.95502 -3.60869,-1.88705c-1.65969,-1.56766 -2.88834,-6.86684 -3.40464,-8.80465c-1.52249,-5.47835 -3.04377,-10.96339 -4.56626,-16.44174c-0.435,-1.56524 -0.77626,-3.16123 -1.30456,-4.69749c-0.12822,-0.37286 -0.23494,-0.77506 -0.37331,-1.15712c2.52124,-0.05513 6.90387,-2.31904 8.4594,-2.5823z" data-paper-data="{&quot;noHover&quot;:false,&quot;origItem&quot;:[&quot;Path&quot;,{&quot;applyMatrix&quot;:true,&quot;segments&quot;:[[[158.98451,204.01449],[0,0],[-1.19296,-0.12381]],[[152.26349,204.18258],[1.85794,0.47284],[0.02358,0.30801]],[[152.30155,205.10584],[-0.01802,-0.29921],[0.07424,1.2328]],[[152.30155,208.81093],[0,-1.23503],[0,4.32261]],[[152.30155,221.77875],[0,-4.32261],[-0.01629,1.52448]],[[153.00412,228.91812],[-0.89655,-1.4861],[0.53303,0.88354]],[[155.26343,231.03433],[-0.57257,-0.85844],[0.53594,0.80353]],[[156.23608,233.76378],[-0.64429,-0.71957],[0.84751,0.94652]],[[159.4878,235.75223],[-0.94994,-0.84368],[0.91702,0.81444]],[[161.74588,238.65725],[-0.9503,-0.77534],[0.85322,0.69613]],[[164.74528,240.04176],[-0.9744,-0.51296],[3.05957,1.61067]],[[173.89711,244.92449],[-3.0926,-1.5463],[14.46767,7.23383]],[[217.27615,266.61772],[-14.16534,-7.87504],[7.12917,3.96337]],[[238.28502,278.66553],[-7.32041,-3.6571],[7.16402,4.25248]],[[260.15961,290.86471],[-7.09817,-4.31435],[2.88124,1.75125]],[[268.37814,296.55258],[-2.74698,-1.84174],[4.59178,3.07861]],[[283.32819,303.65659],[-4.83186,-2.59218],[1.2534,0.67242]],[[286.86699,306.04099],[-1.27149,-0.63755],[5.96017,2.98857]],[[305.66423,313.91722],[-6.20427,-2.31461],[2.31235,0.86266]],[[312.02852,317.70088],[-2.17833,-1.16018],[1.7197,0.91591]],[[317.77478,318.7718],[-1.85046,-0.60998],[1.3678,0.45088]],[[321.64953,320.68328],[-1.29158,-0.63716],[4.11442,1.04851]],[[334.22147,321.79231],[-4.21624,-1.16623],[4.51306,1.24833]],[[346.64142,324.10885],[-4.75149,0.00552],[1.48874,-0.00173]],[[351.0945,324.45139],[-1.41985,0.44765],[1.43712,-0.4531]],[[353.89611,317.05016],[-0.10741,1.2195],[0.26742,-3.03619]],[[353.88954,307.85969],[-0.26865,3.04109],[0.31912,-3.61246]],[[354.50042,297.3952],[0.24958,3.68252],[-0.16434,-2.42477]],[[353.99459,290.12177],[-0.1162,2.42756],[-2.10647,-4.21295]],[[351.50892,276.4679],[1.02361,4.59903],[-0.42425,-1.90611]],[[349.65637,270.91026],[0.42052,1.90694],[-0.72206,-3.27442]],[[348.4005,260.92971],[0.59822,3.29929],[-0.97003,-5.3499]],[[345.86841,245.0702],[0.51005,5.41917],[-0.43372,-4.60822]],[[342.78083,231.48487],[0.48453,4.62042],[-0.46242,-4.40968]],[[340.56839,218.39986],[1.03795,4.38234],[-3.30469,-6.95641]],[[320.08827,212.69339],[6.14912,0],[-2.9405,0]],[[311.70807,213.22352],[2.88007,-0.6003],[0,0]],[310.20803,213.31091],[[307.81374,212.67309],[1.17098,0.63782],[-1.18663,1.22526]],[[303.38498,215.80085],[1.80751,-0.8407],[-7.16609,3.33304]],[[279.09921,217.72194],[7.57598,0],[-14.53782,0]],[[235.72579,215.68421],[14.4542,1.55904],[-7.69758,-0.83026]],[[213.18439,212.76697],[7.53451,1.70613],[-4.97647,-1.12688]],[[198.49293,209.18036],[4.79311,1.86058],[-2.60754,-1.01219]],[[190.92233,205.28197],[2.41406,1.56813],[-10.67305,-0.01469]],[[158.98452,204.01448],[10.53972,1.09382],[0,0]]],&quot;closed&quot;:true,&quot;fillColor&quot;:[0,0,0],&quot;strokeWidth&quot;:0.5}]}" fill="#7aff69" stroke="none" stroke-width="0.25"/><path d="M119.37162,283.85419c5.8466,0.46411 13.46965,2.49363 16.17083,7.897c0.91998,1.84031 0.58965,4.10544 1.31576,6.03051c0.4451,1.18004 1.63842,1.96392 2.13665,3.12253c1.11121,2.58407 1.76744,5.34088 2.65116,8.01132c0.0494,4.30441 1.73921,8.71956 0.69396,12.89542c-0.36787,1.46969 -2.48344,1.74472 -3.63051,2.73444c-0.91171,0.78665 -1.76823,1.64625 -2.52869,2.5799c-2.49368,3.06159 -3.23931,7.63596 -5.92728,10.46163c-1.5556,1.63529 -3.91862,2.41401 -5.33116,4.17435c-3.97781,4.95724 -8.15489,9.31171 -12.68235,13.83916c-1.98606,1.98606 -4.7733,4.04881 -6.39012,6.34244c-4.43658,6.29377 -8.41685,13.40551 -12.23494,20.06246c-3.32973,4.00669 -6.99475,7.72305 -10.42933,11.64024c-1.53409,1.74964 -5.51792,7.77744 -6.97263,9.24032c-3.05794,3.07512 -7.07697,5.19302 -9.76766,8.59413c-1.35768,1.71614 -2.01055,3.92049 -3.37754,5.62923c-1.67988,2.09985 -3.92255,3.69147 -5.6961,5.71281c-1.02547,1.16874 -1.48382,2.82024 -2.67144,3.82377c-5.92791,5.00907 -7.148,2.76437 -14.86025,5.21389c-7.99031,2.53783 -15.21689,8.0887 -23.19316,10.50252c-3.70203,1.12032 -6.89849,-0.74793 -10.4903,-1.02731c-10.20834,-0.79404 -20.8097,0.02185 -31.07398,0.02185c-12.81214,0 -25.80382,0.77767 -38.34597,-2.41274c-7.01355,-1.78407 -14.02621,-5.78822 -20.45076,-9.04223c-8.05708,-4.08087 -17.0521,-8.5729 -24.04462,-14.37808c-4.55676,-3.78302 -8.26986,-8.50638 -11.96384,-13.13561c-10.45391,-13.10064 -14.57107,-30.22251 -19.05107,-45.9296c-0.05835,-0.32377 -3.23055,-17.90185 -3.26637,-18.20345c-1.74098,-14.6615 -1.08772,-29.65814 -1.08765,-44.38727c0.00007,-13.15481 -0.39864,-26.21402 1.88193,-39.19769c1.35898,-7.73689 2.00543,-16.40959 3.93472,-24.00222c1.2224,-4.81068 3.65313,-9.27404 6.16943,-13.55249c0.88374,-1.50262 2.28118,-2.63671 3.4365,-3.94213c5.68737,-6.42624 10.0237,-9.96762 16.77006,-15.21408c6.6171,-4.81477 11.63823,-9.03171 19.91576,-10.96427c5.67278,-1.32442 6.70077,1.1624 11.67896,3.71195c3.24292,1.66084 6.89871,2.35439 10.3961,3.37577c8.62576,2.51907 9.46491,1.79524 17.83642,5.67156c4.74036,2.19496 9.10787,6.00808 14.14069,7.67729c1.96408,0.65142 4.21598,0.38341 6.06951,1.30339c2.2142,1.09898 3.75679,3.23408 5.81888,4.59725c3.85888,2.55095 10.39209,3.02687 15.03834,4.19162c8.19369,2.05404 15.38999,5.29495 23.43244,7.72582c7.80922,2.37359 10.0024,2.83406 17.61899,5.99626c3.61536,1.501 6.79829,3.88716 10.27007,5.69562c4.06124,2.11551 8.44456,3.57088 12.50319,5.69138c8.66135,4.52529 16.4821,10.86507 24.90049,15.83622c4.78493,2.82554 9.89952,5.06746 14.67714,7.90534c8.95401,5.31863 17.18227,11.92861 26.00974,17.47981z" fill="#ffeaab" stroke="#000000" stroke-width="15"/><path d="M373.63145,238.71156c2.37329,0 3.49491,1.25167 4.025,2.43475c5.22055,-2.95876 9.79846,-6.53683 14.99466,-9.64013c3.95879,-2.36429 8.48752,-3.80888 12.15539,-6.60327c4.99835,-3.80803 6.34908,-6.32253 11.05805,-9.98217c10.01992,-7.78712 20.77838,-14.74581 30.94341,-22.36542c5.68824,-4.26385 12.27986,-8.77821 16.8984,-14.24713c4.37668,-5.18253 7.97857,-11.38595 12.24055,-16.71686c1.3548,-1.65619 2.93579,-3.15069 4.06439,-4.96858c0.66887,-1.07737 0.54426,-2.5398 1.25082,-3.59284c1.03313,-1.53976 2.63497,-2.61427 3.85239,-4.01289c1.67435,-1.92356 3.00987,-4.14405 4.81542,-5.94502c2.33406,-2.32814 5.29766,-3.63093 7.4419,-6.29107c1.56341,-1.93957 1.99164,-4.87117 4.0418,-6.28646c1.27337,-0.87905 3.17325,-0.33529 4.50338,-1.12584c0.6763,-0.40196 0.33451,-1.71086 0.99321,-2.14104c4.77322,-3.11729 10.01551,-2.2263 15.3327,-2.2263c1.23864,0 10.43041,-0.01044 10.75675,0.0435c6.25246,1.03338 9.35225,3.03779 15.21302,4.62316c2.9374,0.79459 6.00302,1.08809 8.90968,1.98864c5.79251,1.79465 9.75021,3.95897 15.01305,6.56111c2.37774,2.31078 5.61827,3.7577 7.60291,6.41374c2.02697,2.71269 3.1953,5.9744 4.64907,9.03281c3.902,8.20895 7.24339,16.74045 10.48025,25.22608c2.00365,5.2527 4.44379,10.36032 5.99733,15.76328c3.31551,11.53076 5.10613,23.8209 7.55884,35.56929c3.06741,14.69276 6.77251,29.47614 9.09571,44.30258c1.78439,11.38781 2.51129,23.05479 3.75491,34.51673c1.1144,7.05107 3.06792,14.4957 3.40315,21.63323c0.40799,8.68672 0.01379,17.54228 0.01379,26.23966c0,8.65126 1.06814,18.52102 -1.25012,26.95141c-0.55694,2.02531 -1.69664,3.85352 -2.31397,5.86124c-0.83311,2.70948 -0.4726,5.65965 -0.9974,8.44531c-0.8853,4.69926 -3.53119,8.2487 -6.88913,11.46792c-1.081,1.03634 -1.94442,2.42332 -3.31031,3.03724c-7.36568,3.31065 -16.73429,2.78415 -24.64025,2.78415c-5.50317,-0.00645 -10.00337,0.20775 -15.61579,-1.11609c-6.68473,-1.57678 -7.49787,-3.12447 -12.78318,-4.72953c-4.22563,-1.28326 -8.80274,-1.58589 -12.77179,-3.52222c-6.50645,-3.17423 -6.7105,-4.25116 -11.65769,-6.94925c-3.25797,-1.77682 -6.93053,-2.7181 -10.17182,-4.52516c-6.98387,-3.8936 -12.76173,-10.03299 -19.14887,-14.72264c-9.13678,-6.70853 -19.62477,-10.50483 -28.24561,-17.94933c-7.3648,-6.35985 -14.04556,-13.13096 -21.98616,-18.79814c-2.67965,-1.37428 -5.47832,-2.53781 -8.03894,-4.12285c-2.52395,-1.56234 -4.64506,-3.71925 -7.1648,-5.28837c-4.97504,-3.09811 -10.24702,-5.11041 -15.38819,-7.6757c-1.15985,-0.57873 -2.02921,-1.66894 -3.22094,-2.17879c-1.4226,-0.60862 -3.08336,-0.51122 -4.50338,-1.12584c-3.43816,-1.48814 -6.5167,-4.08333 -10.03418,-5.58708c-2.31987,-0.99176 -5.57064,-1.31023 -7.30669,-3.46074c-1.89407,-2.34625 -1.4129,-5.91848 -2.76805,-8.61217c-0.97537,-1.93881 -3.17205,-3.23451 -3.74106,-5.32892c-0.53713,-1.9771 -0.04288,-4.20348 -0.84768,-6.08755c-0.50432,-1.18063 -2.04155,-1.59154 -2.85632,-2.5837c-3.3427,-4.07046 -2.86011,-4.30612 -4.11798,-9.1726c-2.58069,-5.08596 -6.04891,-10.36114 -7.88091,-15.76182c-1.2405,-3.65697 -1.89453,-7.47989 -3.31451,-11.09763c-0.39389,-1.00353 -1.12303,-1.88555 -1.34801,-2.93988c-0.32792,-1.53679 0.04297,-3.3066 -0.77115,-4.65065l-0.47508,-4.26415c0,0 0,-4.5 4.5,-4.5z" fill="#ffeaab" stroke="#000000" stroke-width="15"/><path d="M177.82738,160.83458c0.07397,0.94904 0.13514,1.91758 0.18275,2.91192c0.1488,3.10819 0.6477,6.29087 0.00368,9.33524c-0.00827,0.03908 -0.01665,0.07813 -0.02515,0.11714l0.02049,0.00108l-0.37361,7.09867c-0.04184,0.91788 -0.35867,1.76407 -0.87003,2.45812l-1.04031,6.93542c-0.2932,2.20177 -2.17844,3.90031 -4.46039,3.90031c-2.12623,0 -3.90803,-1.47463 -4.3785,-3.45696l-2.22634,-8.5343l0.15768,-0.04113l-0.25932,-0.46643c-0.13235,-4.47657 -0.24785,-8.94643 -0.3184,-13.41784c-1.873,-5.55859 -3.22081,-11.17809 -4.19218,-16.98451c-0.5106,-3.05215 -1.7229,-6.069 -1.5265,-9.15732c0.00604,-0.09498 0.01265,-0.18988 0.01981,-0.2847l-0.04009,0.0016l-0.35859,-8.96474c-0.00313,-0.06892 -0.00472,-0.13823 -0.00472,-0.20792c0,-2.15778 1.51871,-3.96084 3.54553,-4.39857c0.76252,-1.4011 2.24782,-2.35199 3.95522,-2.35199c1.83142,0 3.40731,1.09406 4.10976,2.66426l3.33291,7.03614l-0.10014,0.04744l0.24159,0.28508c0.62809,2.15126 4.29412,14.65625 4.37318,15.21789c0.46115,3.2756 0.44036,6.75962 0.23169,10.25613z" fill="#000000" stroke="none" stroke-width="0.5"/><path d="M258.2092,173.10648c-4.26907,1.42302 -5.6921,-2.84605 -5.6921,-2.84605l-0.21647,-0.65252l-0.03104,0.34139c-0.18422,2.31615 -2.12215,4.13829 -4.48567,4.13829c-2.02428,0 -3.73637,-1.33661 -4.30189,-3.17542l-1.24717,-3.7415c-0.99541,-3.00258 -1.86274,-6.02093 -2.5987,-9.05478c-1.91036,-6.50893 -3.43235,-13.02197 -4.57774,-19.79599c-0.69955,-4.13721 -2.80537,-14.25256 -1.90126,-18.53649c0.00587,-0.02782 0.0119,-0.05558 0.01809,-0.08329h-0.01886v-2.62566c0,-2.48528 2.01472,-4.5 4.5,-4.5c2.0706,0 3.81456,1.39847 4.3389,3.30242l0.37143,1.23667c4.40607,0.55775 3.88488,4.98782 3.88488,4.98782c-0.2139,1.78946 -0.37558,3.57552 -0.48589,5.35769c0.45662,1.46227 0.87993,2.92157 1.27775,4.38453c0.35673,-0.09098 0.73049,-0.13935 1.11555,-0.13935c2.0912,0 3.84924,1.42644 4.35419,3.35941l2.22323,7.78132l-0.00975,0.00278c0.00862,0.01829 0.01723,0.03658 0.02581,0.05489c2.60536,5.55735 3.87693,15.32333 5.24221,21.34729l1.06054,3.16444c0,0 1.42302,4.26907 -2.84605,5.6921z" fill="#000000" stroke="none" stroke-width="0.5"/><path d="M199.298,279.85087c0,-0.8791 0.17174,-1.58647 0.44812,-2.15565c-1.60196,-3.35897 -2.89462,-6.86316 -4.50599,-10.21873c-2.32082,-4.83294 -4.96363,-9.25011 -6.73898,-14.37697c-1.32533,-3.8273 -1.53557,-7.53285 -2.56124,-11.39672c-1.51056,-5.69057 -2.91114,-11.4506 -4.48353,-17.12068c-1.44934,-5.22636 -2.92466,-9.72192 -2.18109,-15.20788c0.2265,-1.67106 0.15175,-3.485 0.9541,-4.96822c0.74133,-1.37042 2.29559,-2.10731 3.44338,-3.16097c4.49617,-2.52182 8.6028,-3.11979 13.60043,-3.9809c2.31532,-0.39894 4.46845,-1.474 6.75698,-2.00549c2.34309,-0.54416 4.79683,-0.44 7.15591,-0.85893c6.29246,-1.11744 12.54336,-2.5942 18.85953,-3.68918c1.87202,-0.32454 3.82344,-0.02492 5.68568,-0.40159c6.41796,-1.29815 12.92921,-4.41131 19.54477,-4.89175c2.15671,-0.15663 4.32379,0.09291 6.48568,0.13937c1.35551,2.65488 2.98128,5.18831 4.06654,7.96465c0.56757,1.45197 0.45131,3.09148 0.84489,4.59994c0.86923,3.33143 1.82462,6.64562 2.50172,10.02134c0.54313,2.70781 0.81521,5.47423 1.51913,8.14476c0.23525,0.89249 0.97891,1.59152 1.23488,2.47829c0.61067,2.11553 0.31261,4.39483 0.58702,6.57956c0.73181,5.82628 1.7211,11.88777 2.81478,17.66965c0.91536,4.83915 1.92497,9.69429 2.49894,14.60617c0.19947,1.70703 0.87763,7.06279 0.2489,8.80267c-0.62727,1.73584 -2.04399,3.07384 -3.06599,4.61076c-2.32059,1.11564 -4.48617,2.55326 -6.85948,3.55185c-6.82983,2.87372 -14.43932,2.65126 -21.63321,3.58985c-13.55321,1.7683 -27.86784,1.48247 -40.88963,5.94387l-1.83223,0.23093c0,0 -4.5,0 -4.5,-4.5zM207.98976,274.07448c15.45531,-3.94135 31.93587,-3.7199 47.69513,-5.65318c5.0123,-0.61489 8.95931,-2.78051 13.57219,-4.30608c1.0293,-1.48558 -0.14909,-3.61513 -0.36188,-5.40988c-0.56007,-4.72383 -1.54566,-9.38238 -2.41149,-14.038c-1.11843,-6.01393 -2.16012,-12.28266 -2.91406,-18.34017c-0.11124,-0.89372 0.15877,-3.71709 -0.23138,-4.87811c-1.78052,-5.29856 -2.38775,-10.75586 -3.75482,-16.21592c-1.05749,-4.22361 -2.40411,-7.54665 -2.44612,-11.95549c-0.07318,1.13861 -1.80717,1.55242 -2.92597,1.77618c-4.3367,0.86734 -8.81012,1.43473 -13.06565,2.75182c-12.34298,3.82017 -26.07141,3.75265 -38.54479,7.38967c-4.66283,1.3596 -9.61304,0.97586 -13.86911,3.49324c-0.89007,0.15459 -0.96126,4.16853 -0.92166,4.78204c0.25854,4.00496 2.18554,8.57837 3.16971,12.51272c1.12777,4.50843 2.49586,8.95624 3.66886,13.44872c0.94303,3.6117 1.09781,7.17011 2.34919,10.70021c1.70389,4.80659 4.17227,8.8985 6.3555,13.4488c1.65412,3.44753 2.96029,7.05738 4.63634,10.49341z" fill="#000000" stroke="none" stroke-width="0.5"/></g></g></svg>