<svg version="1.1" xmlns="http://www.w3.org/2000/svg" xmlns:xlink="http://www.w3.org/1999/xlink" width="809.79893" height="720.64153" viewBox="0,0,809.79893,720.64153"><g transform="translate(285.23147,87.75)"><g data-paper-data="{&quot;isPaintingLayer&quot;:true}" fill-rule="nonzero" stroke="none" stroke-linecap="butt" stroke-linejoin="miter" stroke-miterlimit="10" stroke-dasharray="" stroke-dashoffset="0" style="mix-blend-mode: normal"><path d="M-285.23147,574.02757l256.62839,-433.91909c0,0 209.68263,84.15123 305.94267,122.78296c86.03387,34.52769 244.39188,98.08099 244.39188,98.08099l-109.12839,271.9191z" fill="#0e1410" stroke-width="0"/><path d="M-48.5,222.25l17,-310l537,37l-5,273c0,0 -8.38047,170 -12,170c-34.43307,0 -537,-170 -537,-170z" fill="#1b271f" stroke-width="0"/><g><path d="M475.10741,363.47531c-0.4831,7.67481 -2.29526,13.34539 -5.0786,20.45731c-0.6089,1.55586 -0.61561,3.35971 -1.48228,4.78812c-2.19461,3.61708 -5.01148,4.47906 -8.07964,7.03587c-13.25862,11.04886 -30.04385,14.78735 -47.11601,14.78735c-6.73648,-0.00403 -13.97552,-0.00138 -20.6209,-1.27629c-7.28517,-1.39764 -13.56993,-5.04334 -20.18138,-8.12268c-6.72859,-3.13389 -13.86404,-8.64218 -16.49856,-16.06315c-2.22098,-6.25612 -0.6066,-12.71031 1.1083,-18.73111c1.95315,-6.8573 1.35817,-7.20817 5.32089,-13.13673c1.57261,-2.35276 3.52964,-4.43397 5.67094,-6.3263c-0.50145,-0.08935 -1.00298,-0.18116 -1.50461,-0.27546c-7.34366,-2.24998 -14.92705,-4.07187 -21.80205,-7.60456c-8.81713,-4.53064 -18.7402,-10.64055 -25.83068,-17.54595c-12.47745,-12.15178 -20.16415,-28.80953 -23.95754,-45.62133c-18.34768,9.4126 -42.78672,1.65188 -60.59442,-6.05088c-10.43259,-7.05318 -16.2742,-20.12792 -19.40896,-31.98801c-0.74293,-2.81083 -3.35316,-10.53912 -3.70551,-13.11735c-1.16978,-8.55946 0.1045,-17.89454 1.20323,-26.33275c0.98406,-7.5575 1.41925,-15.01619 3.7681,-22.3667c4.45208,-13.93246 11.80768,-25.90856 20.92762,-37.23863c8.36111,-10.37052 18.48653,-20.84859 30.00574,-27.78372c8.94876,-5.3876 19.11858,-6.85235 29.03144,-9.55527c9.87221,-2.69183 20.21039,-5.67678 30.23977,-7.57744c17.05203,-3.23153 36.79336,-3.14612 54.04054,-1.44109c23.86566,2.38848 49.59133,7.7717 69.90448,21.30174c20.97309,13.96958 37.07151,33.62069 55.08976,50.87657c8.40532,11.4618 14.53304,24.98005 17.64323,38.94012c1.85947,8.34618 1.2828,17.47315 1.28213,25.95871c-0.00222,28.32742 -5.90295,54.20462 -19.40672,79.14657c-4.22549,6.26718 -8.83044,13.66183 -14.31151,18.93696c-5.4789,5.27303 -12.19843,8.6441 -19.33463,11.05424c4.38067,8.26488 4.25993,15.62466 3.67786,24.8719zM378.30004,349.02052c-3.44908,2.38085 -6.88059,5.07914 -9.1999,8.56991c-2.17,3.26601 -3.23096,7.17558 -4.31176,10.94488c-1.2131,4.2307 -2.92074,9.28424 -1.29986,13.77905c1.96925,5.46086 7.47166,9.37903 12.39938,11.6307c6.02573,2.75339 11.72005,6.27819 18.34921,7.53038c6.15756,1.16311 12.87644,1.13582 19.11375,1.13187c15.1617,0 30.19813,-3.08332 41.98598,-12.90652c0.13416,-0.11181 5.71249,-3.80356 6.36933,-5.00495c3.53999,-6.47481 5.03014,-14.46332 5.47994,-21.71371c0.49064,-7.90882 1.03976,-14.16766 -3.09706,-21.26416l-0.62178,-0.80835c-4.64423,1.16114 -9.33466,2.07484 -13.86181,2.98038c-23.53431,4.70747 -47.01612,7.1674 -70.66483,4.55133c-0.34812,0.3744 -0.64061,0.57917 -0.64061,0.57917zM293.7637,267.55243c-0.35796,-5.37986 0.02649,-11.07661 0.0271,-16.19313c0.00117,-10.12642 -0.16246,-19.94891 3.90796,-29.30714c2.99905,-7.83334 8.36223,-13.22126 13.02943,-19.98686c1.05421,-1.5282 1.43492,-3.46329 2.53283,-4.96041c4.4726,-6.09886 10.6805,-10.13083 16.15651,-15.02684c4.18205,-3.73908 8.35216,-8.82864 13.50405,-11.42828c9.91676,-5.00401 21.64545,-5.8484 32.50077,-5.8484c0,0 3.96831,0 3.96831,3.96831c0,3.96831 -3.96831,3.96831 -3.96831,3.96831c-9.67732,0 -20.04053,0.60888 -28.90737,4.98833c-4.52462,2.23477 -8.10688,6.95773 -11.78166,10.24517c-4.91138,4.39372 -11.0245,8.12108 -14.93151,13.62878c-1.06356,1.49928 -1.45716,3.40189 -2.50158,4.91457c-4.3299,6.2713 -9.58993,11.2528 -12.25627,18.54371c-3.75335,8.23318 -3.31761,17.33277 -3.31653,26.30077c0.00041,3.42378 -0.2161,7.17374 -0.2194,10.88793c0.82319,0.00811 1.74628,0.32388 2.66935,1.24696c2.80601,2.80601 0,5.61205 0,5.61205l-0.60204,0.60204c-0.46804,0.45483 -0.94307,0.89254 -1.42483,1.31353c0.03796,0.20734 0.07797,0.41345 0.12016,0.61828c3.34646,16.24845 10.33866,32.45137 22.39797,44.25367c6.47352,6.33557 15.76375,11.89941 23.81033,16.05887c6.29965,3.25642 13.33364,4.87606 20.06709,6.95387c26.63203,4.97915 53.08595,2.48373 79.50294,-2.79898c12.58938,-2.51754 27.54628,-4.86577 37.19464,-14.26041c4.98595,-4.85485 9.17208,-11.60596 13.043,-17.34571c12.77263,-23.65886 18.26128,-48.1905 18.25914,-75.03577c-0.00063,-7.95161 0.63851,-16.57725 -1.12604,-24.39248c-2.8293,-12.53106 -8.26572,-24.95984 -15.82527,-35.26826c-17.58679,-16.71229 -33.13694,-35.90268 -53.5233,-49.50677c-19.20614,-12.81652 -43.74052,-17.75848 -66.29809,-20.01239c-16.47551,-1.66823 -35.48022,-1.75201 -51.77715,1.34245c-9.82597,1.86575 -19.94892,4.79624 -29.62518,7.43581c-9.13061,2.49071 -18.79489,3.70825 -27.0166,8.69201c-10.71763,6.49673 -20.14331,16.29178 -27.9276,25.96819c-8.52841,10.58343 -15.36822,21.67907 -19.55247,34.68759c-2.21156,6.87557 -2.53237,13.90858 -3.45639,20.98021c-1.01335,7.7553 -2.27559,16.36658 -1.20494,24.23864c0.17892,1.31551 3.19684,10.93864 3.51897,12.16835c2.44194,9.32188 7.10433,21.53346 15.50939,27.01195c3.66302,1.55283 7.56791,3.9729 11.3339,5.11982c12.95919,3.94663 31.88081,7.56214 44.1887,-0.37834z" fill="#000000" stroke-width="0.5"/><path d="M293.69671,267.59511c-12.30788,7.94048 -31.23622,4.31193 -44.19541,0.3653c-3.76599,-1.14692 -7.67267,-3.57192 -11.33569,-5.12475c-8.40506,-5.4785 -13.07095,-17.70638 -15.51289,-27.02826c-0.32213,-1.22971 -3.34047,-10.8595 -3.5194,-12.175c-1.07065,-7.87206 0.19236,-16.49627 1.20571,-24.25158c0.92401,-7.07163 1.24721,-14.11567 3.45876,-20.99124c4.18425,-13.00852 11.0327,-24.12359 19.56111,-34.70702c7.78429,-9.67641 17.22319,-19.48765 27.94082,-25.98438c8.22171,-4.98377 17.89836,-6.21082 27.02897,-8.70153c9.67626,-2.63956 19.816,-5.57796 29.64197,-7.44371c16.29694,-3.09446 35.33476,-3.01438 51.81027,-1.34615c22.55757,2.25391 47.13296,7.21235 66.3391,20.02887c20.38636,13.60409 35.96169,32.82856 53.54848,49.54085c7.55954,10.30842 13.00081,22.75745 15.8301,35.2885c1.76455,7.81524 1.12568,16.45388 1.12632,24.40549c0.00215,26.84527 -5.49902,51.41506 -18.27165,75.07391c-3.87092,5.73975 -8.06371,12.49973 -13.04965,17.35458c-9.64837,9.39465 -24.62009,11.75621 -37.20946,14.27375c-26.41699,5.28271 -52.91561,7.79228 -79.54764,2.81313c-6.73345,-2.07781 -13.78149,-3.6986 -20.08114,-6.95502c-8.04658,-4.15946 -17.35593,-9.72916 -23.82946,-16.06473c-12.0593,-11.8023 -19.08136,-28.02865 -22.42782,-44.27709c-0.04219,-0.20483 -0.08254,-0.41137 -0.1205,-0.6187c0.48176,-0.42099 0.9567,-0.85882 1.42473,-1.31365l0.60198,-0.60212c0,0 2.80331,-2.80977 -0.0027,-5.61578c-0.92307,-0.92307 -1.84758,-1.24099 -2.67077,-1.2491c0.0033,-3.7142 0.21505,-7.47284 0.21464,-10.89662c-0.00108,-8.96799 -0.44414,-18.09539 3.30922,-26.32857c2.66634,-7.29092 7.92899,-12.29937 12.2589,-18.57067c1.04441,-1.51268 1.44065,-3.4232 2.50421,-4.92248c3.90701,-5.5077 10.0374,-9.26174 14.94877,-13.65546c3.67478,-3.28744 7.27833,-8.02586 11.80295,-10.26062c8.86685,-4.37945 19.27806,-4.99563 28.95538,-4.99563c0,0 3.93817,0.15576 3.93817,-3.81255c0,-3.96831 -3.96171,-3.96711 -3.96171,-3.96711c-10.85532,0 -22.53768,0.83679 -32.45444,5.8408c-5.15188,2.59964 -9.30131,7.67429 -13.48336,11.41338c-5.47602,4.89601 -11.66704,8.90304 -16.13965,15.0019c-1.09791,1.49712 -1.47605,3.4253 -2.53026,4.9535c-4.66719,6.7656 -10.02661,12.12735 -13.02565,19.96069c-4.07042,9.35823 -3.91293,19.15195 -3.9141,29.27837c-0.00061,5.11652 -0.39134,10.80127 -0.03338,16.18113z" data-paper-data="{&quot;noHover&quot;:false,&quot;origItem&quot;:[&quot;Path&quot;,{&quot;applyMatrix&quot;:true,&quot;segments&quot;:[[[188.8192,184.93027],[0,0],[-0.22551,-3.38926]],[[188.83627,174.72875],[-0.00038,3.22336],[0.00074,-6.37955]],[[191.29825,156.26552],[-2.56433,5.8956],[1.88937,-4.93493]],[[199.50667,143.67398],[-2.94029,4.26227],[0.66414,-0.96275]],[[201.10233,140.54897],[-0.69167,0.94317],[2.8177,-3.84223]],[[211.28078,131.0822],[-3.44984,3.08444],[2.63465,-2.35559]],[[219.78821,123.88249],[-3.24564,1.63775],[6.24747,-3.15248]],[[240.26339,120.19805],[-6.83875,0],[0,0]],[[242.76339,122.69805],[0,-2.5],[0,2.5]],[[240.26339,125.19805],[0,0],[-6.09662,0]],[[222.05201,128.34065],[5.58603,-2.75901],[-2.85047,1.40788]],[[214.62967,134.79501],[2.31508,-2.07106],[-3.09412,2.768]],[[205.22296,143.38102],[2.46138,-3.4698],[-0.67003,0.94453]],[[203.64699,146.47715],[0.65797,-0.95297],[-2.7278,3.95086]],[[195.92565,158.15952],[1.67977,-4.59321],[-2.36458,5.18683]],[[193.83627,174.72876],[-0.00068,-5.64975],[0.00026,2.15695]],[[193.69805,181.58806],[0.00208,-2.33991],[0.5186,0.00511]],[[195.37972,182.37363],[-0.58153,-0.58153],[1.76776,1.76776]],[195.37972,185.90917],[[195.00044,186.28845],[0,0],[-0.29486,0.28654]],[[194.10281,187.11596],[0.3035,-0.26522],[0.02391,0.13062]],[[194.17851,187.50547],[-0.02658,-0.12904],[2.10824,10.23637]],[[208.28902,215.38488],[-7.59725,-7.43534],[4.07826,3.99135]],[[223.28931,225.50182],[-5.06927,-2.62042],[3.96872,2.05151]],[[235.93139,229.88269],[-4.24201,-1.309],[16.77793,3.13682]],[[286.01751,228.11936],[-16.64246,3.32806],[7.93119,-1.58603]],[[309.44979,219.13543],[-6.07838,5.91854],[3.1411,-3.05851]],[[317.66676,208.20779],[-2.43864,3.61599],[8.04664,-14.90486]],[[329.16985,160.93595],[0.00135,16.91227],[-0.0004,-5.00944]],[[328.46045,145.56891],[1.11165,4.92353],[-1.78243,-7.89445]],[[318.49068,123.35023],[4.76244,6.49421],[-11.07952,-10.52859]],[[284.77149,92.16142],[12.84322,8.57045],[-12.09969,-8.07429]],[[243.0043,79.5538],[14.21106,1.41994],[-10.37942,-1.05097]],[[210.38517,80.39953],[10.26692,-1.94948],[-6.19027,1.17541]],[[191.72158,85.08402],[6.09595,-1.6629],[-5.7522,1.56912]],[[174.70137,90.55991],[5.1796,-3.13973],[-6.75201,4.09288]],[[157.10724,106.91963],[4.90403,-6.09605],[-5.37282,6.66746]],[[144.78936,128.77249],[2.63604,-8.19525],[-1.39326,4.33155]],[[142.61187,141.98983],[0.58212,-4.45506],[-0.6384,4.88577]],[[141.85277,157.25995],[-0.6745,-4.95933],[0.11272,0.82876]],[[144.06969,164.9259],[-0.20294,-0.77471],[1.5384,5.8727]],[[153.84046,181.94318],[-5.29511,-3.4514],[2.30767,0.97827]],[[160.98071,185.16862],[-2.37254,-0.72255],[8.16417,2.48634]],[[188.81918,184.93027],[-7.75385,5.00243],[0,0]]],&quot;closed&quot;:true,&quot;fillColor&quot;:[0,0,0],&quot;strokeWidth&quot;:0.5}]}" fill="#ffffff" stroke-width="0.25"/><path d="M378.23249,348.97884c0,0 0.29332,-0.20605 0.64144,-0.58045c23.64871,2.61607 47.25894,0.14914 70.79325,-4.55832c4.52715,-0.90553 9.22277,-1.81203 13.867,-2.97317l0.62252,0.80953c4.13682,7.0965 3.59833,13.38369 3.10769,21.2925c-0.4498,7.25039 -1.94174,15.27337 -5.48173,21.74818c-0.65684,1.20139 -6.23917,4.90425 -6.37333,5.01606c-11.78785,9.8232 -26.90143,12.95338 -42.06313,12.95338c-6.23732,0.00395 -12.99723,0.01689 -19.15479,-1.14623c-6.62916,-1.25219 -12.34688,-4.80285 -18.3726,-7.55624c-4.92773,-2.25167 -10.43879,-6.19297 -12.40804,-11.65384c-1.62088,-4.49481 0.08533,-9.56931 1.29842,-13.80001c1.0808,-3.76929 2.14511,-7.69711 4.31511,-10.96313c2.3193,-3.49077 5.75912,-6.20739 9.20819,-8.58822z" data-paper-data="{&quot;noHover&quot;:false,&quot;origItem&quot;:[&quot;Path&quot;,{&quot;applyMatrix&quot;:true,&quot;segments&quot;:[[[484.15264,472.50884],[0,0],[-4.34578,2.99982]],[[472.56094,483.30676],[2.92228,-4.3983],[-2.73416,4.11512]],[[467.1282,497.0971],[1.36178,-4.74924],[-1.52848,5.3306]],[[465.4904,514.45846],[-2.04228,-5.66338],[2.48122,6.88058]],[[481.1134,529.11292],[-6.20884,-2.83706],[7.5923,3.46922]],[[504.23306,538.60106],[-8.35262,-1.57774],[7.75842,1.4655]],[[528.31604,540.0272],[-7.8589,0.00498],[19.10346,0]],[[581.2176,523.76522],[-14.85248,12.37706],[0.16904,-0.14088]],[[589.24284,517.45908],[-0.8276,1.51372],[4.46032,-8.15814]],[[596.14746,490.1002],[-0.56674,9.13536],[0.6182,-9.96496]],[[592.24522,463.30774],[5.21232,8.94146],[0,0]],[[591.4618,462.28924],[0,0],[-5.85164,1.46302]],[[573.99618,466.04446],[5.70412,-1.14096],[-29.6528,5.93132]],[[484.9598,471.77906],[29.79694,3.2962],[-0.43862,0.47174]],[484.15264,472.5088]],&quot;closed&quot;:true,&quot;fillColor&quot;:[0,0,0],&quot;strokeWidth&quot;:0.5}]}" fill="#1dff00" stroke-width="0.25"/><path d="M359.52329,253.65737c0,3.21574 -2.60592,3.82559 -3.5943,3.94125c-6.0289,2.92066 -12.22174,5.07348 -18.75337,6.6768c-3.90983,0.95976 -11.02604,2.89129 -15.34188,1.58953c-2.04016,-0.61537 -3.53985,-2.37337 -5.30978,-3.56007c0,0 -3.22914,-2.30653 -0.92261,-5.53569c2.30653,-3.22914 5.53568,-0.92261 5.53568,-0.92261c4.925,3.88521 7.85769,2.28664 14.13456,0.72398c6.24882,-1.55569 12.15716,-3.58761 17.91127,-6.46486l2.37212,-0.41663c0,0 3.96831,0 3.96831,3.96831z" fill="#000000" stroke-width="0.5"/><path d="M472.64247,252.66022c2.20123,3.30184 -1.10062,5.50306 -1.10062,5.50306l-2.86706,1.7032c-9.28177,2.72262 -18.3618,1.97348 -28.0119,1.97348c-0.95295,0 -16.10516,0.02179 -16.62369,-0.07161c-4.65697,-0.83889 -8.32094,-3.54611 -12.18948,-5.94994c0,0 -3.36513,-2.1032 -1.26192,-5.46833c2.10321,-3.36512 5.46832,-1.26192 5.46832,-1.26192c2.52461,1.58826 6.40521,4.38586 9.48396,4.88677c4.97557,0.80954 10.08182,-0.07161 15.12281,-0.07161c8.7534,0 17.34913,0.94336 25.73133,-1.63876l0.74518,-0.70496c0,0 3.30184,-2.20122 5.50306,1.10062z" fill="#000000" stroke-width="0.5"/><path d="M414.6697,315.02781c2.44583,3.12496 -0.67913,5.5708 -0.67913,5.5708l-4.22566,3.096c-16.07779,1.62934 -32.22516,2.33259 -47.9888,-1.77955c-5.45684,-1.42348 -14.5749,-3.57808 -18.9792,-7.39912c-2.11803,-1.83754 -3.29459,-4.53828 -4.94188,-6.80741c0,0 -2.27569,-3.25097 0.97528,-5.52666c3.25097,-2.27569 5.52666,0.97528 5.52666,0.97528c1.16222,1.74446 1.91733,3.84375 3.48668,5.23338c3.45435,3.05876 11.68854,4.73687 15.93916,5.84576c14.16814,3.69615 28.59417,2.91328 43.08651,2.06873l2.22959,-1.95636c0,0 3.12496,-2.44583 5.57079,0.67914z" fill="#000000" stroke-width="0.5"/></g><path d="M324.2959,257.87866c-0.00849,-0.06909 2.00463,-10.0639 2.03042,-10.19229l0.08575,-0.12587l-0.0446,-0.01451l1.0211,-3.13964c0.08251,-0.27538 0.21121,-0.53079 0.37711,-0.75725l0.53002,-4.7702c0.12362,-1.2652 1.19037,-2.2539 2.48804,-2.2539c1.38071,0 2.5,1.11929 2.5,2.5l0,5c0,1.5272 0.13868,3.26076 0.25362,5.0342c0.96301,2.44309 1.42583,4.99621 1.71678,8.49484l0.02949,2.44708c0,0 0.02104,2.20251 -2.04375,2.49255c-0.21938,1.15669 -1.23562,2.03133 -2.45614,2.03133c-1.07382,0 -1.98952,-0.67702 -2.34353,-1.6275c-0.44106,0.39047 -1.02108,0.6275 -1.65647,0.6275c-1.38071,0 -2.5,-1.11929 -2.5,-2.5v-3l0.04768,0c-0.01349,-0.08168 -0.02536,-0.16379 -0.03551,-0.24634z" fill="#ff0000" stroke-width="0.5"/><path d="M436.28373,273.125c0,-1.08233 0.46857,-1.69608 1,-2.04412c0,-0.16018 0,-0.32035 0,-0.48053c-0.81883,-4.2068 -0.2984,-9.20075 -0.08156,-13.62111c-0.15943,-1.32517 -0.45251,-2.67929 0.08156,-3.85424c0,-1.18479 0,-3 0,-3c0,-1.38071 1.11929,-2.5 2.5,-2.5c0.23123,0 0.45512,0.03139 0.66766,0.09015c-0.02261,-2.64099 -0.26638,-5.34542 0.82594,-7.68429c0.00392,-0.25907 0.0061,-0.51848 0.0064,-0.77829v-3.12757c0,-1.38071 1.11929,-2.5 2.5,-2.5c1.38071,0 2.5,1.11929 2.5,2.5l0,4l-0.00501,0c-0.00028,0.03143 -0.00057,0.06286 -0.00088,0.0943c0.00111,0.00633 0.00222,0.01266 0.00332,0.01899c0.00011,0.00063 -0.00126,0.01748 -0.004,0.04924c-0.01684,1.64743 -0.06598,3.30457 -0.15078,4.96545c0.15736,0.47645 0.15736,0.87203 0.15736,0.87203c-0.01737,6.13531 -1.97585,11.70669 -2,17.77434v3.22566c0,0.67363 -0.26643,1.28504 -0.69966,1.73459c-0.12519,1.74889 -0.22007,3.49557 -0.26926,5.23832l-0.03118,3.04943c-0.012,1.37043 -1.12664,2.47766 -2.4999,2.47766c-1.29767,0 -2.36442,-0.9887 -2.48804,-2.2539l-0.2056,-1.85042c-0.73984,-0.19644 -1.80636,-0.7628 -1.80636,-2.39568z" fill="#ff0000" stroke-width="0.5"/><path d="M333.0198,178.24303c-1.11803,2.23607 -3.3541,1.11803 -3.3541,1.11803l-4.64294,-2.46153c-3.21518,-5.9745 -7.26769,-11.3084 -10.9344,-17.01086c-6.11435,-9.51121 -12.69031,-18.82715 -18.48047,-28.53575c-9.1373,-15.32089 -16.54949,-31.65292 -27.77634,-45.6662c0,0 -1.56174,-1.95217 0.39043,-3.51391c1.95217,-1.56174 3.51391,0.39043 3.51391,0.39043c11.35723,14.21604 18.90645,30.70226 28.16627,46.22858c5.76131,9.66023 12.30812,18.92911 18.39208,28.39304c3.46419,5.39 7.50527,10.3698 10.25045,16.16557l3.35706,1.53847c0,0 2.23607,1.11803 1.11803,3.3541z" fill="#ff0000" stroke-width="0.5"/><path d="M452.78373,134.625c2.5,0 2.5,2.5 2.5,2.5l-0.12829,1.79057c-1.28479,3.82439 -1.54188,7.62283 -2.46165,11.54568c-1.14115,4.86704 -2.86253,9.67082 -4.18256,14.49772c-1.63458,5.97709 -3.56967,12.42998 -7.95973,16.93379c0,0 -1.76777,1.76777 -3.53553,0c-1.76777,-1.76777 0,-3.53553 0,-3.53553c3.77303,-3.64171 5.32436,-9.76055 6.67144,-14.71385c1.29787,-4.77234 3.01063,-9.51354 4.1384,-14.3235c0.95305,-4.06483 1.2693,-8.00703 2.58622,-11.98546l-0.12829,-0.20943c0,0 0,-2.5 2.5,-2.5z" fill="#ff0000" stroke-width="0.5"/></g></g></svg>