<svg version="1.1" xmlns="http://www.w3.org/2000/svg" xmlns:xlink="http://www.w3.org/1999/xlink" width="376.37905" height="322.2177" viewBox="0,0,376.37905,322.2177"><g transform="translate(-91.56913,-10.03813)"><g data-paper-data="{&quot;isPaintingLayer&quot;:true}" fill-rule="nonzero" stroke="none" stroke-width="0.5" stroke-linecap="butt" stroke-linejoin="miter" stroke-miterlimit="10" stroke-dasharray="" stroke-dashoffset="0" style="mix-blend-mode: normal"><path d="M270.27367,154.5309c1.41629,-0.34277 2.84464,-0.6977 4.29804,-1.10717c4.75365,-1.33927 8.39851,-3.77799 13.05885,-5.37891c10.77767,-3.70236 22.04805,-6.19859 33.01322,-9.28982c5.33869,-1.50504 16.63431,-7.34686 21.94693,-5.01602c1.48852,0.65306 1.67426,8.99072 1.76498,10.58167c4.2011,18.53743 7.26246,37.55538 12.62962,55.8071c2.73169,9.28947 6.80332,18.18685 9.62954,27.47266c0.63038,2.07114 1.78794,4.04 1.89029,6.21365c0.00146,0.03088 0.00273,0.06176 0.00382,0.09267l0.01782,-0.00401l0.79289,3.53156c0.38691,1.72331 -1.12992,3.53132 -3.38791,4.03826c-1.30524,0.29305 -2.57242,0.08721 -3.48414,-0.47153l-3.59092,-2.15746c-0.9828,-0.45972 -1.96562,-0.91944 -2.94842,-1.37916c-2.72996,-0.57351 -5.75392,-0.38637 -8.51859,-0.88307c-0.77766,-0.13971 -8.37448,-2.83327 -9.42633,-3.13381c-5.2622,-1.50352 -11.12009,-2.95874 -16.62434,-4.05871c-7.37144,-1.47311 -14.92517,-2.44297 -22.44496,-3.52429c-14.61381,-2.10141 -28.58575,-6.24994 -42.8023,-9.25925c-12.41517,-2.62801 -25.20035,-4.39118 -37.54189,-7.13361c-6.94701,-1.61813 -12.28919,-1.70753 -15.64172,-7.72401c-1.06025,-1.90276 0.00872,-4.33455 0.29682,-6.51224c0.84054,-6.35315 1.85276,-13.17942 3.7717,-19.51406c0.81349,-2.68543 0.31315,-5.90187 2.75716,-8.02115c1.72606,-1.49672 4.87984,-0.34758 7.30996,-0.70836c1.51429,-0.22481 3.00761,-0.62483 4.48185,-1.04223c5.21062,-1.47526 9.47276,-3.9255 14.53136,-5.70332c9.61991,-3.38086 20.44955,-5.88242 30.60467,-6.86511c0,0 2.47776,-0.23443 3.61198,1.14971z" fill="#7aff69"/><path d="M266.68745,49.1943c3.83859,-0.51643 7.1742,-0.02737 11.04369,0.50844c1.01021,0.13987 2.08253,-0.1434 3.04919,0.19629c2.4702,0.868 4.4269,2.86235 6.68104,4.22333c1.7398,1.05046 3.85496,1.29617 5.61298,2.31368c2.69909,1.56219 3.32675,2.89457 4.95379,5.22545c4.93791,7.17265 8.78374,14.92099 11.83314,23.05322c0.80487,2.14643 2.39525,3.95905 3.05164,6.15609c0.71644,2.39806 0.63529,4.96299 0.97803,7.44129c1.73608,12.55283 0.48442,25.46412 0.18777,38.09256c-0.1349,5.40318 -1.01751,11.10608 -2.6029,16.26389c-1.65263,5.37651 -6.30096,9.30104 -10.48492,12.52412c-3.49781,2.6945 -7.12218,3.26824 -11.20049,4.76453c-7.69855,2.82451 -16.29895,3.75651 -24.42971,5.02633c-4.75533,2.20145 -9.07541,1.21284 -14.06809,0.65239c-4.82057,-0.54112 -9.7267,-0.79367 -14.26708,-2.86173c-4.02394,-1.83285 -8.44579,-5.69915 -11.17922,-9.13429c-1.23442,-1.55131 -1.76394,-3.56986 -2.75304,-5.29431c-1.52114,-2.65199 -3.48767,-5.11456 -4.67657,-7.97618c-0.42888,-1.03226 -0.48902,-2.20023 -0.95207,-3.21727c-1.35507,-2.97617 -2.96823,-5.33491 -4.09986,-8.46277c-1.49944,-5.02518 -4.25877,-10.53138 -4.99801,-15.70748c-0.16113,-1.12824 0.124,-2.27571 0.05822,-3.41264c-0.42157,-7.28696 -1.41427,-14.655 -0.53187,-21.98449c0.29888,-2.48244 0.98909,-4.90357 1.21771,-7.39483c0.2806,-3.05782 0.42408,-6.20365 1.37607,-9.16351c1.10633,-3.43966 2.91505,-6.36991 3.87859,-9.9615c0.80695,-2.5809 2.23658,-4.90693 3.48107,-7.29286c0.53808,-1.0316 0.58151,-2.30513 1.18569,-3.2969c0.78448,-1.28776 1.95953,-2.27482 2.91466,-3.43397c10.9401,-13.27714 29.33085,-9.02205 44.74066,-7.84687z" fill="#ffeaab"/><path d="M181.4727,72.10168l0.06681,0.00774c3.41397,-0.55028 5.84765,0.28936 8.55146,-1.87335c7.06569,-3.33766 13.52988,-7.60866 20.51356,-10.87943c1.21943,-0.57112 2.64107,-0.60456 3.86228,-1.17171c2.82586,-1.31231 5.25537,-3.36899 7.87244,-5.07049c1.24916,-0.81214 2.76007,-1.31502 3.73806,-2.45137c1.32857,-1.54371 0.29165,-4.24919 1.23154,-6.07101c0.72339,-1.40216 1.94968,-2.45954 2.94348,-3.6731c2.55799,-3.12361 5.10706,-4.55629 8.03142,-7.11863c5.40743,-4.73803 10.47518,-10.09665 15.72382,-15.04635c4.64514,-2.19961 8.87275,-5.82409 13.74515,-7.41984c1.71002,-0.56004 3.55056,-1.70713 5.27506,-1.14489c1.3669,0.44564 1.53479,2.49907 2.42656,3.65587c2.71781,3.52558 5.17042,6.86608 7.38926,10.7448c4.93487,8.62653 10.89306,16.48169 15.82217,25.2465c0.0443,0.07874 4.70506,10.28176 4.80216,10.50902c0.2467,0.57725 0.14909,1.36755 0.61444,1.78112c1.34647,1.19662 3.29555,1.39109 4.85916,2.26338c3.80725,1.72672 8.02649,2.48877 11.76749,4.29013c2.91548,1.40385 5.63061,3.22318 8.35709,4.98712c0.93814,0.60695 6.63361,4.69151 7.21968,5.96292c0.62686,1.35988 0.17237,2.99045 0.1857,4.48657c0.03468,3.89434 -0.18353,7.81259 -0.27498,11.70529c-0.0767,3.2649 0.7639,14.63843 -2.08696,16.80362c-1.88273,1.4299 -4.72236,-0.10765 -7.07261,-0.34793c-7.75704,-0.79312 -15.64305,-2.71875 -23.33819,-4.16006c-4.28694,-1.42564 -7.71034,-3.24198 -11.70148,-5.12838c-8.30034,-3.92311 -17.60112,-5.86294 -26.03177,-9.61274c-2.96714,-1.31974 -5.53996,-3.77588 -8.70909,-4.39551c-2.10941,-0.41243 -4.1792,0.92466 -6.22708,1.53983c-9.84128,2.95625 -19.45617,6.27738 -29.3424,9.23154c-4.73452,0.77245 -8.5231,2.82588 -12.8989,4.50543c-4.72026,1.81178 -9.89059,3.0989 -14.72468,4.64472c-2.89991,0.92733 -7.66262,3.13468 -10.93522,2.25384c-6.14501,-1.65397 -5.53623,-6.53765 -6.2902,-11.50893c-1.28683,-8.48481 -1.40783,-17.5333 -0.03458,-25.99451c0,0 0.45521,-2.77896 3.17289,-2.27383c0.67695,0.12583 1.15706,0.39277 1.49637,0.72269z" fill="#ffffff"/><path d="M324.87156,294.19638c3.72134,-0.45214 7.80584,0.18261 11.46402,0.63765c1.7663,0.21971 4.07569,-0.37394 5.25245,0.96147c1.30035,1.47567 -0.57572,5.2883 -0.80202,7.09508c-0.5777,4.61245 0.02259,9.73593 0.00657,14.38139c-0.51975,1.65632 -0.30659,3.76712 -1.55925,4.96894c-0.80337,0.77076 -8.12075,0.56682 -8.80522,0.56664c-4.4907,-0.00111 -8.40128,-0.8068 -12.79023,-1.53636c-1.65289,-0.27475 -8.73361,-0.70531 -10.18077,-1.17621c-2.13509,-0.69475 -4.5834,-1.28702 -6.02794,-3.00591c-1.00289,-1.19335 -0.33888,-3.10111 -0.4129,-4.65816c-0.16666,-3.50592 -0.16444,-8.38642 0.43561,-11.78363c0.39321,-2.22618 0.31888,-4.81645 1.77529,-6.54541c0.91636,-1.08785 2.80863,-0.47974 4.22742,-0.58062c3.38099,-0.24041 6.74689,-0.11124 10.08947,0.29144c0.48539,-1.79246 1.22433,-3.59458 1.19464,-5.01169v-0.65639c0,0 0,-1.63926 1.32739,-2.26298c0.09683,-18.94999 0.64177,-37.84777 0.64177,-56.81179c0,0 0,-2.5 2.5,-2.5c2.5,0 2.5,2.5 2.5,2.5c0,20.81327 -0.65639,41.5466 -0.65639,62.3567v1.31277c0,0 0,0.79472 -0.44808,1.48801c0.09528,-0.01067 0.1852,-0.02088 0.26817,-0.03096zM317.99046,298.91621c-2.18495,-0.28406 -4.3959,-0.3972 -6.59756,-0.39495c-1.31277,0.00135 -2.63444,0.15257 -3.93832,0c-0.38963,-0.04559 -0.88357,-0.94704 -1.02368,-0.58062c-0.39207,1.02537 0.02377,2.19615 -0.01356,3.29329c-0.12385,3.63935 -0.14174,7.56143 -0.40108,11.197c-0.04624,0.64832 -0.86507,1.4388 -0.4129,1.9057c0.88763,0.91654 7.32966,1.43502 7.74973,1.48138c4.91448,0.54239 9.60515,1.75362 14.54447,1.99136c2.10196,0.10117 5.24606,-0.19076 7.12524,-0.0018c0.39297,0.03951 0.79917,0.87923 1.04057,0.56664c0.3288,-0.42577 -0.16431,-1.06328 -0.24647,-1.59492c-0.01545,-3.85604 -0.02517,-7.71254 -0.01217,-11.56861c0.00565,-1.67456 -0.15818,-3.71642 0.50472,-5.3705c-1.03287,0.23809 -2.32268,0.03853 -2.84577,-0.0183c-2.69788,-0.2931 -5.21861,-1.01914 -7.98122,-0.66295c-0.89471,0.11536 -1.72346,0.66342 -2.62554,0.65639c-1.58416,-0.01236 -3.59852,0.42631 -4.69877,-0.7135c-0.05881,-0.06092 -0.11468,-0.1228 -0.16769,-0.18559z" fill="#000000"/><path d="M314.4805,286.9115c2.5693,2.66169 7.33378,1.63545 11.03312,1.6643c2.10656,0.01643 4.06813,-1.25373 6.15745,-1.52312c6.45122,-0.83177 12.38184,0.90318 18.68192,1.58763c1.22152,0.13271 4.23888,0.60778 6.65084,0.05181c-1.54799,3.86261 -1.15366,8.66357 -1.16684,12.57399c-0.03036,9.00467 -0.02115,18.09136 0.01495,27.09595c0.19186,1.24148 1.33913,2.737 0.57131,3.73126c-0.56372,0.72996 -1.5127,-1.23032 -2.43037,-1.3226c-4.38825,-0.44125 -11.75817,0.26911 -16.66666,0.03286c-11.53426,-0.55516 -22.63829,-3.39487 -34.11455,-4.66145c-0.98096,-0.10826 -16.05076,-1.35848 -18.12354,-3.49878c-1.05592,-1.09031 0.85223,-2.94773 0.96022,-4.46169c0.6056,-8.48975 0.65425,-17.73121 0.94345,-26.2298c0.08718,-2.56202 -0.87392,-5.31303 0.04164,-7.70747c0.32717,-0.85566 1.48109,1.24873 2.39096,1.3552c3.0448,0.35628 6.14408,-0.01197 9.20966,-0.01511c5.1413,-0.00525 10.35135,0.23067 15.45362,0.89402c0.1238,0.14662 0.25549,0.29073 0.39283,0.433z" data-paper-data="{&quot;noHover&quot;:false,&quot;origItem&quot;:[&quot;Path&quot;,{&quot;applyMatrix&quot;:true,&quot;segments&quot;:[[[635.98093,597.83242],[0.10603,0.12557],[-4.36989,-0.56813]],[[622.7858,597.04251],[4.40332,-0.0045],[-2.62554,0.00269]],[[614.90916,597.04251],[2.60775,0.30514],[-0.77927,-0.09118]],[[612.86181,595.88127],[0.28021,-0.73284],[-0.78414,2.05074]],[[612.83468,602.46784],[0.07467,-2.19427],[-0.24769,7.2787]],[[612.03253,624.86183],[0.51867,-7.27113],[-0.09249,1.29665]],[[611.20673,628.67324],[-0.90435,-0.93381],[1.77525,1.83308]],[[626.7062,631.63599],[-0.84015,-0.09272],[9.82896,1.08477]],[[655.79514,635.61871],[-9.87863,-0.47547],[4.20392,0.20234]],[[670.04562,635.6151],[-3.75836,-0.37791],[0.78594,0.07903]],[[672.12676,636.74839],[-0.4828,0.62518],[0.65761,-0.85154]],[[671.63381,633.55855],[0.16432,1.06328],[-0.03091,-7.71207]],[[671.60948,610.42133],[-0.026,7.71214],[0.01129,-3.34912]],[[672.61891,599.68032],[-1.32579,3.30817],[-2.06575,0.47617]],[[666.92738,599.64372],[1.04618,0.11366],[-5.39576,-0.5862]],[[650.96494,598.31782],[5.52521,-0.71238],[-1.78942,0.23072]],[[645.71385,599.6306],[1.80418,0.01407],[-3.16833,-0.02471]],[[636.31631,598.20359],[2.2005,2.27963],[-0.11762,-0.12185]]],&quot;closed&quot;:true}]}" fill="#00f3ff"/><path d="M242.46108,282.78188c-1.25066,0.95463 -2.43661,2.04444 -3.91611,2.52094c-1.66981,0.53778 -3.50785,0.07342 -5.26203,0.09071c-2.40663,0.02373 -4.82694,0.25404 -7.22025,0c-0.41627,-0.04419 -0.94322,-0.82768 -1.16377,-0.4719c-0.60075,0.96909 -0.4067,2.24393 -0.62812,3.36242c-0.56361,2.84707 -0.70098,5.76288 -0.97264,8.65246c-0.29468,3.13448 -0.27763,6.46483 -0.64295,9.58692c-0.06886,0.5885 -1.08947,1.3765 -0.58062,1.68006c0.99144,0.59147 2.31684,-0.09724 3.46317,0.03958c1.6603,0.19816 3.28234,0.64005 4.92326,0.96137c5.94783,1.16467 11.9936,1.25081 17.98971,2.17221c2.16764,0.3331 5.25107,-0.05114 7.33028,0.79662c-1.15867,-1.56094 -1.41606,-3.32204 -1.96364,-5.75776c-1.21466,-5.40294 -2.03007,-10.08894 -2.03007,-15.64535c0,-3.31376 0.67813,-4.41351 -1.3578,-6.89502c-0.3512,-0.42807 -0.5113,-1.12429 -1.03723,-1.29746c-0.73865,-0.24322 -1.548,0.16392 -2.32522,0.1903c-1.53451,0.05208 -3.07027,0.03107 -4.60596,0.01389zM243.72097,277.60528c2.68558,-0.18101 5.78152,-0.36202 7.58471,0.35301c1.42502,0.56507 4.88216,4.85601 5.35332,6.11383c1.37745,3.6773 -0.32245,9.06857 0.10956,12.95645c0.38835,3.49494 1.39002,7.96447 2.50896,11.30907c0.29409,0.87907 1.05034,1.57673 1.25779,2.48018c0.49649,2.16218 0.55205,4.40242 0.82808,6.60363c-6.35801,-0.0136 -12.23803,-1.12147 -18.51403,-1.84981c-4.49962,-0.52218 -8.88068,-0.59008 -13.34665,-1.45989c-1.66644,-0.32456 -10.43642,-1.91262 -11.26689,-2.70452c-0.70606,-0.67327 -0.5831,-6.77902 -0.58062,-8.16573c0.00915,-5.12256 0.24002,-11.36457 1.786,-16.25167c0.66635,-2.10645 0.96895,-4.56516 2.53416,-6.12441c0.97163,-0.96794 2.71864,-0.38425 4.08733,-0.4719c3.41512,-0.21869 7.23429,0.5976 10.62947,-0.01213c-0.00116,-0.03722 -0.00175,-0.07502 -0.00175,-0.11342c0,-1.81203 1.31337,-2.31068 2.03623,-2.4479c-0.08638,-1.9449 0.37359,-3.67437 0.60805,-5.73419c0.33809,-2.97018 0.37452,-6.14998 0.64982,-9.13029c0.33924,-3.67232 -0.30781,-7.44021 -0.00365,-11.11843c1.06375,-12.86404 3.27342,-25.56323 3.27342,-38.52059c0,0 0,-2.5 2.5,-2.5c2.5,0 2.5,2.5 2.5,2.5c0,13.09735 -2.19791,25.93166 -3.29045,38.933c-0.31136,3.70524 0.32817,7.49278 -0.00365,11.19871c-0.42406,4.73595 -0.83507,9.42877 -1.2392,14.15699z" fill="#000000"/><path d="M253.80348,271.98476c1.34861,-0.04577 2.76078,-0.74727 4.04247,-0.32524c0.91257,0.30048 1.19653,1.51338 1.80593,2.25615c3.53268,4.30585 2.3768,6.24061 2.3768,11.99054c0,9.64132 1.41167,17.85662 3.51931,27.23164c0.95015,4.22638 1.38785,7.29438 3.39833,10.00287c-3.60778,-1.47101 -8.97434,-0.78986 -12.73557,-1.36783c-10.40428,-1.5988 -20.99378,-1.74907 -31.31427,-3.76996c-2.84727,-0.55754 -5.67881,-1.34015 -8.55971,-1.68399c-1.98907,-0.23741 -4.29456,0.9498 -6.01488,-0.07649c-0.88294,-0.52674 0.88534,-1.8984 1.00483,-2.91955c0.6339,-5.41735 0.59304,-11.24111 1.10437,-16.67995c0.47138,-5.01391 0.72275,-10.11686 1.70072,-15.05701c0.3842,-1.94077 0.05637,-4.16475 1.09878,-5.84628c0.3827,-0.61735 1.29845,0.74061 2.02074,0.81727c4.15279,0.4408 8.37917,0.02176 12.55509,-0.01942c3.04382,-0.03001 6.26756,0.76763 9.16497,-0.16551c2.56719,-0.82679 4.64812,-2.71531 6.81823,-4.37174c2.66468,0.02979 5.35122,0.07489 8.01386,-0.01548z" data-paper-data="{&quot;noHover&quot;:false,&quot;origItem&quot;:[&quot;Path&quot;,{&quot;applyMatrix&quot;:true,&quot;segments&quot;:[[[484.92215,565.56376],[3.07138,0.03434],[-2.50132,1.90925]],[[477.08992,570.60563],[2.95901,-0.95298],[-3.33962,1.07556]],[[466.56585,570.78706],[3.50838,-0.03459],[-4.81327,0.04746]],[[452.12535,570.78706],[4.78661,0.50808],[-0.83253,-0.08837]],[[449.79781,569.84327],[0.44111,-0.71157],[-1.20151,1.93818]],[[448.54157,576.56811],[0.44284,-2.23698],[-1.12723,5.69414]],[[446.59629,593.87304],[0.54332,-5.77916],[-0.58937,6.26895]],[[445.31039,613.04688],[0.73065,-6.24417],[-0.13773,1.17701]],[[444.14915,616.407],[-1.0177,-0.60713],[1.98288,1.18293]],[[451.07548,616.48616],[-2.29265,-0.27364],[3.3206,0.39632]],[[460.92201,618.40889],[-3.28184,-0.64263],[11.89566,2.32933]],[[496.90144,622.75332],[-11.99223,-1.84282],[4.33528,0.66619]],[[511.56199,624.34656],[-4.15842,-1.69552],[-2.31733,-3.12188]],[[507.6347,612.83104],[1.09517,4.87143],[-2.42932,-10.80589]],[[503.57457,581.54033],[0,11.11283],[0,-6.62751]],[[500.85898,567.75029],[4.07186,4.96303],[-0.70241,-0.85613]],[[498.78452,565.15537],[1.05185,0.34634],[-1.47731,-0.48644]],[[494.13407,565.53597],[1.55444,-0.05276],[-3.06903,0.10416]]],&quot;closed&quot;:true}]}" fill="#00f3ff"/><path d="M228.44452,117.34092c0,-1.38071 1.11929,-2.5 2.5,-2.5c1.38071,0 2.5,1.11929 2.5,2.5c0,1.38071 -1.11929,2.5 -2.5,2.5c-1.38071,0 -2.5,-1.11929 -2.5,-2.5z" fill="#000000"/><path d="M276.6921,115.92188c0,-1.38071 1.11929,-2.5 2.5,-2.5c1.38071,0 2.5,1.11929 2.5,2.5c0,1.38071 -1.11929,2.5 -2.5,2.5c-1.38071,0 -2.5,-1.11929 -2.5,-2.5z" fill="#000000"/><path d="M231.96634,134.09845c-0.06994,-0.07825 -0.20574,-0.2414 -0.34192,-0.46763c-0.73725,-0.20746 -1.76086,-0.78355 -1.76086,-2.38324c0,-2.5 2.5,-2.5 2.5,-2.5c12.29766,0 24.69148,0.67876 36.98432,1.13683c3.88624,0.14481 7.80313,-0.00829 11.69262,0.00224c1.29576,0.00351 2.81884,-0.71684 3.88725,0.01631c4.99862,3.43008 0.67682,10.27227 -1.22912,14.09884c-4.10365,8.06338 -13.93288,11.86648 -22.68642,9.82715c-4.46874,-1.04109 -7.83398,-3.37348 -11.85821,-5.28938c-3.49485,-1.66387 -7.71595,-2.40745 -10.87318,-4.76293c-3.19732,-2.38539 -4.75641,-6.1482 -6.31449,-9.67818zM237.2896,133.86257c0.93851,2.20438 2.05699,4.5307 3.91479,5.85784c2.93377,2.09578 6.92005,2.79076 10.12871,4.31896c3.72103,1.77224 6.73672,3.92259 10.84653,4.92775c6.39329,1.56364 14.12272,-1.21677 17.04688,-7.20141c0.83226,-1.65739 1.46069,-3.40978 2.15706,-5.1287c0.32681,-0.80671 1.97712,-2.62714 1.15477,-2.34196c-5.09688,1.76751 -11.93948,0.51151 -17.34201,0.30236c-4.9167,-0.19034 -9.85625,0.1969 -14.77286,-0.00057c-4.39934,-0.17669 -8.75113,-0.54635 -13.13387,-0.73427z" fill="#000000"/><path d="M204.94025,166.80323c0.24148,-0.71888 0.8424,-1.61333 2.33777,-1.61333c2.5,0 2.5,2.5 2.5,2.5l-0.12829,1.19608c-0.53478,1.58154 -0.89036,3.22801 -1.12053,4.88158c-2.21932,12.20628 -4.18838,24.2122 -4.83772,36.63966c-0.40043,7.66353 -0.0648,17.01894 -3.52338,24.13165c-2.73244,5.61936 -8.99457,7.79729 -14.65406,7.83269c-11.70112,0 -23.37053,0.71809 -35.07428,0.40464c-11.38801,-0.30499 -22.79327,-1.20668 -34.16989,-1.8097c-5.76945,-0.30581 -12.47576,0.09473 -17.98205,-1.80859c-2.09421,-0.72389 -4.82515,-0.62444 -6.21942,-2.34658c-1.12071,-1.38425 -0.00421,-3.56211 -0.00631,-5.34316c0.45792,-3.62494 1.54168,-6.58483 2.49292,-10.05522c0.65665,-2.39566 0.56743,-4.93952 1.02091,-7.3818c2.05792,-11.08314 3.44947,-22.00366 4.59254,-33.2169c0.41825,-4.10296 0.80301,-8.39625 1.52915,-12.45308c0.4022,-2.24699 -0.06538,-4.98116 1.44322,-6.69431c1.00439,-1.14057 3.03813,-0.09706 4.55772,-0.12031c5.57616,-0.08531 11.17952,0.53266 16.7078,1.2237c11.97931,1.00243 24.10536,0.79572 36.12388,1.46328c14.82073,0.82321 29.56342,2.43696 44.41002,2.5697z" fill="#ffeaab"/><path d="M342.20084,133.65163l0.56872,-0.7583c1.80838,-2.34134 2.45468,-4.98073 3.99381,-7.53364c0.71557,-2.45797 1.11837,-5.76746 3.85493,-7.13598c1.29434,-0.64728 2.88732,-0.20976 4.33347,-0.26393c4.55705,-0.17069 9.90146,1.50779 14.25994,0.11372c5.99918,-1.91886 11.05077,-6.34228 17.09837,-8.13872c5.7182,-1.6986 12.05676,-2.36792 17.93006,-3.35862c8.20692,-1.38433 16.37704,-2.90854 24.55198,-4.47006c4.78309,-0.86968 9.50627,-1.71053 14.22128,-2.89846c2.25072,-0.56706 8.01216,-2.16706 10.31367,-2.10852c2.28732,0.05818 4.90939,-0.1692 6.76345,1.17157c1.30601,0.94445 0.95382,3.08317 1.29755,4.65782c0.8941,4.0959 0.98788,8.29031 1.61296,12.36138c0.37314,2.43025 1.3151,4.75515 1.63219,7.19335c0.43133,3.31666 0.33706,6.6858 0.73093,10.00713c0.58953,4.97111 1.47493,9.89092 1.97427,14.89982c0.19048,1.91076 0.89072,7.1729 0.48576,9.32204c-0.3346,1.77575 -1.16126,3.42236 -1.74189,5.13353c-8.31616,3.31467 -17.26286,2.89644 -26.01052,4.48213c-20.89205,3.78709 -41.46576,8.026 -62.55713,10.76624c-8.11389,0.8544 -16.23395,3.04445 -24.30602,3.7112c-2.10698,0.17404 -4.62334,1.1733 -6.34221,-0.05762c-1.39824,-1.00131 -0.68177,-3.37765 -0.84549,-5.08963c-0.20608,-2.15489 0.4282,-4.36345 0.04511,-6.49401c-0.50756,-2.82283 -2.7085,-5.59971 -3.66113,-8.23592c-0.86878,-2.40418 -1.35213,-4.94355 -1.7243,-7.47266c-0.76976,-5.23093 -0.10948,-11.06949 -0.02695,-16.42781c-0.0493,-0.28149 -0.03698,-0.55332 0.0078,-0.8009c0.00028,-0.07535 0.00042,-0.1506 0.00042,-0.22573c0,0 0,-1.80914 1.539,-2.34942z" fill="#ffeaab"/></g></g></svg>