<svg version="1.1" xmlns="http://www.w3.org/2000/svg" xmlns:xlink="http://www.w3.org/1999/xlink" width="1945.31671" height="741.24895" viewBox="0,0,1945.31671,741.24895"><defs><linearGradient x1="359.01763" y1="188.47298" x2="1569.16767" y2="-99.91026" gradientUnits="userSpaceOnUse" id="color-1"><stop offset="0" stop-color="#ffd6b3" stop-opacity="0"/><stop offset="1" stop-color="#ffd6b3"/></linearGradient></defs><g transform="translate(330.13427,293.00322)"><g data-paper-data="{&quot;isPaintingLayer&quot;:true}" fill-rule="nonzero" stroke="none" stroke-linecap="butt" stroke-linejoin="miter" stroke-miterlimit="10" stroke-dasharray="" stroke-dashoffset="0" style="mix-blend-mode: normal"><path d="M-191.09925,411.50751v-461.01502h694.19863v461.01502z" data-paper-data="{&quot;index&quot;:null}" fill="#1c261a" stroke-width="0"/><path d="M-40.13173,390.27899l-29.53784,-149.88682l597.26335,-115.41887c0,0 153.61854,320.54771 94.83656,322.98053c-122.59065,5.07369 -662.56207,-57.67484 -662.56207,-57.67484z" data-paper-data="{&quot;index&quot;:null}" fill="#10140e" stroke-width="0"/><path d="M641.50236,173.69655c-1.38071,0 -2.5,-1.11929 -2.5,-2.5c0,-1.38071 1.11929,-2.5 2.5,-2.5c1.38071,0 2.5,1.11929 2.5,2.5c0,1.38071 -1.11929,2.5 -2.5,2.5z" data-paper-data="{&quot;index&quot;:null}" fill="#252525" stroke-width="0.5"/><path d="M-330.13427,57.50003c0,-6.90356 5.59644,-12.5 12.5,-12.5c6.90356,0 12.5,5.59644 12.5,12.5c0,6.90356 -5.59644,12.5 -12.5,12.5c-6.90356,0 -12.5,-5.59644 -12.5,-12.5z" fill="#262429" stroke-width="0.5"/><path d="M405.0324,381.56594l-92.02954,-386.18592l1210.15005,-288.38324l92.02954,386.18592z" fill="url(#color-1)" stroke-width="0"/><g fill-opacity="0.28343" fill="#ffffff" stroke-width="0.5"><path d="M159.89759,133.17137c-2.5,0 -2.5,-2.5 -2.5,-2.5v-3.00238c0.03143,-2.42119 0.58346,-4.85901 1.46133,-7.11566c2.7221,-4.44801 3.55146,-11.62274 8.86615,-14.30374c4.28429,-2.16121 10.19029,-0.71247 14.64115,-0.28318c2.76555,0.26674 5.56012,-0.00956 8.33373,0.1532c14.94629,0.87706 30.01729,-0.33648 44.93492,1.15048c4.20893,0.4236 8.68115,-0.00042 12.83807,0.50384c6.01393,0.72954 12.07654,2.81507 18.05556,3.60829c3.76926,0.50005 7.11261,-1.15399 10.49819,1.98196c1.64464,1.52338 1.65508,8.90125 1.85462,11.09624c0.91398,10.0538 1.80994,20.10967 1.80994,30.22998c0,22.21759 0,44.43519 0,66.65278c0,0.86824 -0.30154,1.43494 -0.69517,1.80483c-0.34401,0.36608 -0.85825,0.65251 -1.62696,0.69081c-1.56687,1.00297 -3.32333,1.7102 -4.92393,2.66675c-1.16447,0.69591 -1.99035,1.90412 -3.20513,2.50794c-0.99141,0.49279 -2.16466,0.46607 -3.24698,0.69911c-6.61178,3.34239 -14.07476,4.10281 -21.08256,6.02636c-5.83283,1.60103 -12.06168,3.98058 -18.17666,4.93075c-5.18028,0.80493 -9.90119,1.55341 -14.95324,2.9054c-3.42084,0.91545 -6.78961,0.24472 -10.17611,1.19223c-3.78366,1.05864 -7.34771,1.83994 -11.276,2.48585c-10.68382,0.02064 -21.86185,0.65359 -32.2001,-2.51465c-2.48916,-0.76282 -7.58274,-2.28322 -9.40525,-4.21382c-2.79023,-2.95571 -1.9391,-7.15188 -1.93318,-10.7749c0.01011,-6.19386 1.90857,-12.11498 2.41407,-18.26061c0.33982,-4.13141 0.60965,-8.34691 0.68987,-12.50305c2.01696,-11.21762 2.94446,-22.42295 4.50432,-33.70174c1.49052,-10.77748 3.68672,-21.37948 4.83648,-32.1292c-0.107,0.01059 -0.21928,0.01614 -0.33713,0.01614zM275.69127,154.69039c0,-9.0508 -0.9759,-17.82814 -1.79291,-26.8152c-0.28689,-3.15578 -0.63427,-6.38904 -0.59683,-9.56747c0.0061,-0.51819 0.46586,-1.24528 0.04955,-1.55389c-2.01581,-1.49429 -5.02903,-0.08674 -7.51607,-0.41995c-5.95922,-0.79841 -11.98568,-2.85612 -17.97297,-3.59742c-4.10424,-0.50815 -8.56762,-0.07803 -12.72467,-0.49119c-14.84446,-1.4894 -29.85579,-0.25563 -44.73126,-1.13431c-4.9387,-0.29173 -9.98123,-0.75767 -14.89615,-0.75767c-0.5809,0 -4.41659,-0.19068 -5.42559,0.30466c-2.41223,1.18423 -3.69947,4.37054 -4.79552,7.38273c0.71159,0.74035 0.71159,1.82212 0.71159,1.82212c0,15.63143 -3.51469,30.6897 -5.6494,46.10699c-1.55294,11.21569 -2.44078,22.3606 -4.4817,33.51155c-0.17131,9.15073 -2.26778,17.85098 -3.09153,26.91197c-0.21003,2.31026 0.03789,4.63971 0.01217,6.95936c-0.008,0.72105 -0.43357,2.85647 0.46872,3.63651c1.24192,1.07366 3.04108,1.23789 4.56499,1.84848c5.45466,2.18552 11.12719,2.95195 16.97856,3.33266c5.33393,0.34705 10.76977,0.08851 16.11387,0.0999c12.0736,-2.04209 23.8174,-4.67859 35.98294,-6.53034c3.63032,-0.55258 6.95656,-2.26242 10.50733,-3.02385c1.5206,-0.32608 3.12344,-0.1787 4.63236,-0.55514c0.86152,-0.21493 1.52396,-0.96216 2.38094,-1.1945c7.00243,-1.89852 14.33391,-2.7085 20.95072,-5.98315c2.04045,-0.37131 3.78096,-1.72738 5.55739,-2.79771c1.54183,-0.92898 3.28133,-1.54165 4.76346,-2.55421c0,-21.64698 0,-43.29396 0,-64.94093z"/><path d="M275.73215,219.66011c-1.48213,1.01256 -3.22363,1.62788 -4.76545,2.55685c-1.77643,1.07033 -3.51959,2.42942 -5.56004,2.80073c-6.61681,3.27465 -13.96033,4.09394 -20.96275,5.99246c-0.85699,0.23235 -1.52131,0.98057 -2.38283,1.1955c-1.50892,0.37644 -3.11505,0.23055 -4.63564,0.55663c-3.55078,0.76144 -6.8856,2.47394 -10.51591,3.02651c-12.16554,1.85175 -23.93644,4.4865 -36.01004,6.5286c-5.3441,-0.01139 -10.78896,0.24291 -16.1229,-0.10414c-5.85136,-0.38072 -11.53172,-1.15292 -16.98637,-3.33844c-1.52391,-0.61058 -3.32502,-0.77667 -4.56694,-1.85033c-0.90229,-0.78004 -0.47792,-2.91671 -0.46992,-3.63776c0.02572,-2.31965 -0.22431,-4.65153 -0.01428,-6.96179c0.82374,-9.06099 2.9125,-17.77439 3.08381,-26.92512c2.04093,-11.15095 2.92613,-22.32376 4.47908,-33.53945c2.13471,-15.41729 5.66604,-30.50414 5.66604,-46.13557c0,0 0.00032,-1.08204 -0.71127,-1.82239c1.09605,-3.01219 2.38754,-6.2017 4.79977,-7.38593c1.00899,-0.49534 4.84727,-0.30629 5.42817,-0.30629c4.91492,0 9.96561,0.4621 14.90431,0.75383c14.87547,0.87868 29.91946,-0.35565 44.76392,1.13376c4.15705,0.41316 8.62829,-0.01362 12.73253,0.49453c5.98729,0.7413 12.02297,2.80531 17.98219,3.60371c2.48704,0.33321 5.50287,-1.07193 7.51869,0.42236c0.41632,0.30861 -0.04299,1.03615 -0.0491,1.55434c-0.03744,3.17842 0.31308,6.4152 0.59997,9.57098c0.81701,8.98706 1.80125,17.77931 1.80125,26.83011c0,21.64698 -0.00628,43.33934 -0.00628,64.98631z" data-paper-data="{&quot;noHover&quot;:false,&quot;origItem&quot;:[&quot;Path&quot;,{&quot;applyMatrix&quot;:true,&quot;segments&quot;:[[[301.22972,126.30577],[0,21.64698],[0,-9.0508]],[[299.43681,99.49058],[0.81701,8.98706],[-0.28689,-3.15578]],[[298.83998,89.92311],[-0.03744,3.17842],[0.0061,-0.51819]],[[298.88953,88.36922],[0.41632,0.30861],[-2.01581,-1.49429]],[[291.37346,87.94927],[2.48704,0.33321],[-5.95922,-0.79841]],[[273.40049,84.35185],[5.98729,0.7413],[-4.10424,-0.50815]],[[260.67582,83.86066],[4.15705,0.41316],[-14.84446,-1.4894]],[[215.94456,82.72635],[14.87547,0.87868],[-4.9387,-0.29173]],[[201.04841,81.96868],[4.91492,0],[-0.5809,0]],[[195.62282,82.27334],[1.00899,-0.49534],[-2.41223,1.18423]],[[190.82731,89.65607],[1.09605,-3.01219],[0.71159,0.74035]],[[191.5389,91.47819],[0,0],[0,15.63143]],[[185.8895,137.58518],[2.13471,-15.41729],[-1.55294,11.21569]],[[181.4078,171.09673],[2.04093,-11.15095],[-0.17131,9.15073]],[[178.31627,198.0087],[0.82374,-9.06099],[-0.21003,2.31026]],[[178.32844,204.96806],[0.02572,-2.31965],[-0.008,0.72105]],[[178.79715,208.60458],[-0.90229,-0.78004],[1.24192,1.07366]],[[183.36214,210.45305],[-1.52391,-0.61058],[5.45466,2.18552]],[[200.3407,213.78572],[-5.85136,-0.38072],[5.33393,0.34705]],[[216.45457,213.88562],[-5.3441,-0.01139],[12.0736,-2.04209]],[[252.43751,207.35528],[-12.16554,1.85175],[3.63032,-0.55258]],[[262.94484,204.33142],[-3.55078,0.76144],[1.5206,-0.32608]],[[267.5772,203.77628],[-1.50892,0.37644],[0.86152,-0.21493]],[[269.95815,202.58178],[-0.85699,0.23235],[7.00243,-1.89852]],[[290.90887,196.59863],[-6.61681,3.27465],[2.04045,-0.37131]],[[296.46626,193.80092],[-1.77643,1.07033],[1.54183,-0.92898]],[[301.22972,191.24671],[-1.48213,1.01256],[0,-21.64698]]],&quot;closed&quot;:true}]}"/><path d="M230.25133,181.11131c0,2.5 -2.5,2.5 -2.5,2.5l-1.39043,-0.03402c-4.06853,0.6779 -8.09638,0.99049 -12.13256,1.13184c-0.79483,8.44996 -2.36928,16.85789 -2.59274,25.29522l0.00099,1.7312c0,0 0,2.5 -2.5,2.5c-2.5,0 -2.5,-2.5 -2.5,-2.5l0.00099,-1.87165c0.24724,-8.36339 1.77576,-16.68528 2.57128,-25.0535c-2.80713,0.02275 -5.628,0.00186 -8.47892,0.00186c0,0 -2.5,0 -2.5,-2.5c0,-2.5 2.5,-2.5 2.5,-2.5c2.9769,0 5.92078,0.02712 8.85068,0.00036c0.02357,-0.46589 0.04364,-0.93197 0.05987,-1.39827c0.32312,-9.28262 -0.00151,-18.63829 -0.00151,-27.92729c0,0 0,-2.5 2.5,-2.5c2.5,0 2.5,2.5 2.5,2.5c0,9.3471 0.32363,18.76049 -0.00151,28.10124c-0.01289,0.37032 -0.02825,0.74053 -0.0459,1.11062c3.64162,-0.14309 7.27843,-0.44193 10.94736,-1.05359l2.21242,-0.03402c0,0 2.5,0 2.5,2.5z"/></g></g></g></svg>