<svg version="1.1" xmlns="http://www.w3.org/2000/svg" xmlns:xlink="http://www.w3.org/1999/xlink" width="806.85848" height="486.03231" viewBox="0,0,806.85848,486.03231"><defs><linearGradient x1="92.52527" y1="194.64289" x2="401.32247" y2="194.64289" gradientUnits="userSpaceOnUse" id="color-1"><stop offset="0" stop-color="#000000"/><stop offset="1" stop-color="#1b271f"/></linearGradient></defs><g transform="translate(100.19109,52.12234)"><g data-paper-data="{&quot;isPaintingLayer&quot;:true}" fill-rule="nonzero" stroke="none" stroke-linecap="butt" stroke-linejoin="miter" stroke-miterlimit="10" stroke-dasharray="" stroke-dashoffset="0" style="mix-blend-mode: normal"><path d="M-100.19109,393.87766v-446h766.75514v446z" data-paper-data="{&quot;index&quot;:null}" fill="#000000" stroke-width="0"/><path d="M344.77754,419.14439v-461.01502h259.19863v461.01502z" data-paper-data="{&quot;index&quot;:null}" fill="#1a261e" stroke-width="0"/><path d="M92.52527,417.64289v-446h308.79718v446z" data-paper-data="{&quot;index&quot;:null}" fill="url(#color-1)" stroke-width="0"/><path d="M8.83283,413.89156l-68.53784,-97.88682l511.02011,2.48804l255.35229,66.5173z" data-paper-data="{&quot;index&quot;:null}" fill="#0e1410" stroke-width="0"/><g stroke-width="0"><g><path d="M27.39852,200.32416v-17.25863l295.40688,-0.98697l35.18693,-15.79155v17.25862l-33.15321,16.77852z" fill="#1e1e1e"/><path d="M26.08537,185.8967l40.14022,-19.32254l291.26876,0.78989l-40.14022,18.53265z" fill="#323232"/></g><path d="M27.50729,249.84391v-50.55447h19.56947v50.55447z" fill="#1e1e1e"/><path d="M63.48092,255.13331l-0.26402,-54.91085h19.56947l0.26402,54.91085z" fill="#161616"/><path d="M204.20586,254.69898l-0.26402,-54.91085h19.56947l0.26402,54.91085z" fill="#161616"/><path d="M172.62236,244.74402v-50.55447h19.56947v50.55447z" fill="#1e1e1e"/></g><path d="M641.5024,173.69655c-1.38071,0 -2.5,-1.11929 -2.5,-2.5c0,-1.38071 1.11929,-2.5 2.5,-2.5c1.38071,0 2.5,1.11929 2.5,2.5c0,1.38071 -1.11929,2.5 -2.5,2.5z" data-paper-data="{&quot;index&quot;:null}" fill="#252525" stroke-width="0.5"/><g stroke-width="0"><path d="M195.93531,215.22822l40.14022,-19.32254l291.26876,0.78989l-40.14022,18.53265z" fill="#323232"/><path d="M195.73646,232.13205v-17.25862l295.40688,-0.98697l35.18693,-15.79155v17.25862l-33.15321,16.77853z" fill="#1e1e1e"/></g><g stroke-width="0"><path d="M24.50963,259.49305v-17.25862l295.40689,-0.98698l35.18693,-15.79155v17.25862l-33.15321,16.77853z" fill="#1e1e1e"/><path d="M23.35687,244.55973l40.14022,-19.32254l291.26876,0.78989l-40.14022,18.53265z" fill="#323232"/></g><g stroke-width="0"><path d="M-39.61756,371.21624v-98.16866l477.81764,-12.86174l1.07181,129.2512z" fill="#686868"/><path d="M425.5633,373.35986v-135.66113h59.07236v135.66113z" fill="#a5a5a5"/><path d="M-40.01358,272.28245l60.82149,-28.64938l466.62421,-7.10901l-60.82148,27.8595z" fill="#424242"/></g><path d="M-52.28896,101.56522c0,-0.69035 0.55965,-1.25 1.25,-1.25c0.69035,0 1.25,0.55965 1.25,1.25c0,0.69035 -0.55965,1.25 -1.25,1.25c-0.69035,0 -1.25,-0.55965 -1.25,-1.25z" fill="#000000" stroke-width="0.5"/><g><g><path d="M401.62951,407.48128c0,0.59972 -0.14386,1.05557 -0.36257,1.40207c-0.21529,0.87348 -0.50321,1.7777 -0.88022,2.72859c-0.83414,2.49025 -1.47707,4.95396 -3.045,7.14342c-3.04172,4.24746 -6.71197,6.46975 -11.18251,8.90666c-12.79994,6.97728 -26.97064,6.70042 -41.16367,5.75423c-5.95057,-0.3967 -11.71103,-0.31948 -17.50184,-1.75111c-6.04436,-2.4048 -10.07219,-5.21861 -14.6268,-9.87814c-0.96418,-0.9864 -2.48581,-1.48792 -3.12869,-2.7083c-1.41409,-2.68436 -1.37227,-5.68926 -0.77172,-8.60886c-0.06536,-0.23515 -0.10259,-0.50298 -0.10259,-0.80804c0,-0.94725 0.35891,-1.53559 0.80475,-1.901c0.46973,-1.53872 1.02169,-3.01442 1.51108,-4.36162c2.69313,-7.41363 7.28446,-14.84364 12.07112,-21.37128c-1.18072,-0.30872 -2.34536,-0.66773 -3.48714,-1.09368c-2.57945,-0.96228 -5.10275,-2.25589 -7.83095,-2.62533c-1.66816,-0.47554 -5.65518,-1.44862 -7.30039,-2.47822c-3.46063,-2.1657 -6.40056,-5.19582 -9.20958,-8.01135c-2.91825,-2.92501 -6.31545,-5.03616 -8.58465,-8.71294c-0.65672,-1.06409 -0.74105,-2.3926 -1.22446,-3.54581c-0.26486,-0.63184 -0.51738,-1.26181 -0.75806,-1.89097c-0.92083,0.44868 -1.8576,0.84381 -2.81303,1.16485c-2.59975,0.87356 -5.46208,0.5499 -8.20342,0.63244c-6.73558,0.2028 -13.36204,-1.65184 -16.06633,-8.72941c-1.24681,-3.2631 -1.29686,-10.31419 -0.65101,-13.86638c0.14809,-0.81448 0.91024,-1.43611 1.04515,-2.25288c0.22665,-1.37222 -2.53182,-2.09251 -2.7815,-2.46668c-1.12712,-1.68912 -1.80276,-3.66271 -2.36621,-5.61362c-2.39488,-8.29214 -0.77029,-18.20723 1.96318,-26.13208c2.53045,-6.28255 5.0133,-11.81878 9.94101,-16.6443c1.61084,-1.57744 4.25277,-1.73436 5.94716,-3.22169c0.62264,-0.54655 0.33211,-1.66689 0.79234,-2.35578c0.48761,-0.72989 1.53964,-0.98928 1.95792,-1.76099c0.68451,-1.26287 -0.58343,-2.8186 -0.72326,-4.24823c-0.23017,-2.35322 -0.32566,-4.75235 0.00656,-7.09334c0.64115,-4.51781 3.42817,-10.05795 6.93399,-13.10871c2.04016,-1.77534 5.1378,-2.38437 8.1255,-2.5962c0.09346,-0.56798 0.2414,-1.11509 0.52911,-1.60861c0.6901,-1.18373 2.14368,-1.71583 3.11413,-2.68314c0.98181,-0.97863 1.48852,-2.51749 2.72739,-3.13948c1.56328,-0.78486 3.45748,-0.53502 5.18146,-0.83124c1.84574,-0.31713 3.53515,-1.29443 5.37897,-1.62256c3.61899,-0.64404 7.28146,0.4474 10.8302,0.50002c3.21287,0.04764 6.15825,-2.24616 9.072,-3.15628c1.67283,-0.52251 3.42008,-0.76722 5.13012,-1.15084c8.80476,-1.67626 21.58636,2.1258 24.18562,12.1362c0.02208,0.08502 0.03922,0.28169 0.05242,0.56202c3.51211,0.02891 7.11088,0.333 10.42298,0.35513c5.31468,1.49147 9.04196,3.83114 13.87608,6.24717c5.93057,2.96403 12.47704,5.33559 18.1558,8.81557c1.23076,0.75422 2.13241,1.96327 3.33281,2.76493c1.07572,0.71839 2.45461,0.9473 3.45458,1.76787c4.10641,3.36967 6.72751,8.23047 9.33214,12.69778c0.93037,1.59572 3.20893,4.48784 3.94706,6.25618c0.89091,2.13432 0.9118,4.55331 1.70663,6.72525c0.90321,2.46811 1.89929,4.94558 2.2907,7.54445c1.07355,7.59951 0.60901,15.31418 0.01661,22.91c-0.12966,1.66257 0.14591,5.37539 0.00153,7.06719c-0.26785,3.13877 -1.39247,6.14784 -2.25728,9.17699c-2.16953,7.59914 -3.56718,14.56609 -7.94221,21.42058c-2.73778,4.28938 -6.70313,7.87796 -10.28014,11.44382c-3.35287,2.50827 -6.60228,3.53287 -10.36381,5.26908c-0.17344,0.08005 -0.34731,0.16122 -0.52162,0.24336c0.27166,0.93559 0.48743,1.89853 1.00501,2.71369c0.93528,1.473 3.16658,1.69988 4.2303,3.08298c0.66726,0.86761 0.75179,2.06589 1.28538,3.02154c1.09251,1.95668 2.80136,3.53117 3.84904,5.51222c1.01503,1.91931 1.14873,4.20848 1.36553,6.36881c0.43268,4.31155 1.0864,7.63308 0.53969,11.34247c0.01154,0.11132 0.0176,0.22841 0.0176,0.35156zM370.23772,410.43256c4.34401,0 9.28502,0.6273 13.52773,-0.46033c4.55206,-1.16694 8.68744,-2.72071 13.03632,-4.46777c0.29015,-2.96356 -0.34865,-5.64596 -0.70522,-9.22453c-0.15224,-1.5279 -0.05615,-3.19889 -0.81498,-4.53375c-0.9757,-1.71634 -2.39741,-3.15166 -3.44608,-4.82086c-1.61333,0.64595 -4.95395,2.0478 -6.47885,2.30881c-2.24381,0.38405 -4.62712,-0.15415 -6.81212,0.48456c-1.38425,0.40463 -2.57366,1.39639 -3.98824,1.67718c-1.53233,0.30417 -3.12799,-0.06336 -4.68646,0.04476c-4.1457,0.28763 -7.973,0.55142 -12.17004,0.55142c-11.65641,0 -23.22765,-0.52785 -34.86649,-0.54471c-2.78543,4.37203 -5.25568,8.991 -6.92421,13.57451c-0.22683,0.62312 -0.53072,1.3644 -0.84827,2.17699c18.38641,0.3607 36.60449,3.23372 55.1769,3.23372zM288.7682,252.31098c-1.21443,-0.40481 -1.59973,-1.22419 -1.68659,-1.92744c-1.65781,0.19687 -3.20929,0.62441 -4.15608,1.5222c-2.41619,2.29115 -4.657,6.50186 -5.05882,9.78666c-0.46128,3.7708 1.75125,9.15949 0.37356,12.64407c-0.43392,1.0975 -1.74916,1.61762 -2.40311,2.60003c-0.62662,0.94135 -0.54627,2.34052 -1.38817,3.09549c-1.71165,1.53492 -4.44282,1.67163 -6.04566,3.31985c-4.31994,4.44228 -6.45318,9.13588 -8.73853,14.8077c-2.49197,7.14466 -3.66359,15.57557 -1.81918,23.07207c0.31145,1.26587 0.57996,2.61584 1.3424,3.67325c0.51953,0.72054 1.78185,0.63487 2.28951,1.36383c0.88888,1.27634 1.57558,2.79832 1.68945,4.3495c0.08283,1.12828 -0.93299,2.08534 -1.13537,3.19841c-0.52507,2.88792 -0.49704,8.47679 0.43924,11.20951c1.68192,4.90903 6.85204,5.62932 11.19008,5.44393c2.35618,-0.1007 4.83225,0.31556 7.06016,-0.45782c0.85662,-0.29737 1.70152,-0.66864 2.53523,-1.09208c-1.02633,-3.52022 -1.72346,-7.09862 -2.17646,-10.9199c-1.59714,-13.47243 -1.19139,-27.41867 2.95931,-40.36069c0.74801,-3.23409 1.47077,-6.84697 2.66499,-9.95345c1.5257,-3.96875 4.16367,-7.8005 6.06981,-11.60847c1.65646,-3.30917 3.59327,-7.88943 6.27227,-10.59338c3.47815,-3.51053 8.00869,-6.30877 11.88549,-9.35266c5.72348,-4.49384 12.29245,-9.70912 19.6107,-11.37785c0.2364,-0.05391 6.26525,-0.04012 6.44247,-0.04012c0,0 2.17712,0 2.46802,2.03167c2.84843,-0.84492 5.73535,-1.57133 8.63292,-2.0075c0.30201,-0.04546 0.60663,-0.08578 0.91358,-0.1214c-0.66833,-1.04846 -2.24481,-3.15448 -2.45546,-3.39656c-3.84196,-4.41532 -9.95957,-5.84131 -15.58426,-4.64319c-4.04414,0.88926 -7.36775,2.74747 -11.29039,3.77733c-4.67437,1.22722 -9.16354,-0.82377 -13.82907,0.04736c-1.88878,0.35267 -3.61897,1.39471 -5.52359,1.64821c-1.173,0.15612 -2.48084,-0.26752 -3.54059,0.25902c-0.84503,0.41985 -0.96801,1.643 -1.63363,2.3118c-0.36171,0.36343 -0.8589,0.58575 -1.32127,0.83807c0.69799,0.26399 1.50837,0.87696 1.50837,2.30032c0,2.5 -2.5,2.5 -2.5,2.5c-0.22935,-0.00106 -0.47954,-0.0049 -0.74653,-0.0096l-0.15254,0.48068c0,0 -0.79056,2.37171 -3.16227,1.58114zM292.91445,342.62635c3.32343,-1.99232 6.54811,-4.15171 8.76768,-7.44268c1.3866,-2.05593 0.7465,-5.90243 3.0666,-6.778c1.76457,-0.66592 3.61754,1.11736 5.48243,1.39899c1.2883,0.19456 2.62973,0.26798 3.90867,0.01924c3.0572,-0.59458 7.06539,-5.54915 8.85088,-7.79554c2.94343,-3.70323 2.61687,-8.14009 3.35119,-12.5355c0.51975,-3.11101 1.06009,-6.24911 1.05632,-9.40323c-0.00101,-0.84483 -0.07347,-6.55266 0.26393,-7.11302c2.56419,-4.25866 4.21442,-2.72917 7.89355,-2.46371c2.13988,0.1544 4.29262,-0.36218 6.37748,-0.86846c1.18402,-0.86411 5.2423,-3.72466 6.30241,-4.88231c4.77964,-5.2194 6.37402,-12.72053 4.84485,-19.55463c-0.77026,-3.44241 -2.56363,-5.32351 -3.28342,-8.78154c-0.46336,-2.22606 -0.25186,-4.56913 -0.18901,-6.85122c-0.27852,0.03345 -0.55483,0.07153 -0.82868,0.11472c-4.65403,0.7339 -9.25548,2.22043 -13.72951,3.71177l-1.88083,0.12829c0,0 -2.5,0 -2.5,-2.5c0,-0.50622 0.10251,-0.90994 0.26601,-1.23191c-6.26378,1.64333 -12.01343,6.41217 -16.91924,10.26955c-3.66422,2.88113 -7.94701,5.49882 -11.27041,8.78111c-2.3556,2.32647 -4.07052,6.60465 -5.49925,9.46543c-1.84677,3.69782 -4.44951,7.43565 -5.923,11.28691c-1.01135,2.64336 -1.83539,6.6554 -2.46358,9.36721c-3.95684,12.34174 -4.34159,25.59073 -2.81467,38.44169c0.36652,3.08478 0.9041,5.97516 1.65981,8.8087c1.7861,-1.21642 3.52067,-2.49604 5.2098,-3.59188zM354.1912,252.9637c0.29826,4.2894 2.78683,6.99499 3.76686,11.14426c1.97849,8.37658 -0.21531,17.68739 -6.05772,24.05561c-1.74797,1.90529 -5.86135,4.60907 -7.87091,6.02025c-4.16461,1.06231 -4.89969,1.69291 -8.88611,1.31206c-1.00287,-0.09581 -2.86819,-1.28074 -3.00901,-0.2832c-0.43437,3.07696 0.58815,6.94801 0.24324,10.08395c-0.18721,1.70211 -0.82262,3.32804 -1.1035,5.01722c-0.89338,5.37282 -0.8189,10.18462 -4.31179,14.7521c-4.20567,5.49954 -10.17169,11.33718 -17.73642,9.6366c-0.92692,-0.20837 -1.25732,-1.54489 -2.14936,-1.87177c-0.46254,-0.1695 0.77436,0.84632 0.65569,1.32443c-0.34947,1.40787 -1.15674,2.67598 -1.95011,3.89039c-2.51872,3.85539 -6.38609,6.47626 -10.21081,8.81649c-2.06303,1.33875 -4.15527,2.86469 -6.31762,4.26884c0.30444,0.8355 0.63051,1.67304 0.97946,2.51622c0.40083,0.96853 0.40911,2.10155 0.95606,2.99573c1.96408,3.21095 5.2069,5.08422 7.76919,7.6409c4.36462,4.35506 8.0074,7.41345 14.0172,9.13505c2.96017,0.44248 5.72227,1.77005 8.5229,2.82595c5.88977,2.22057 12.52793,2.46263 18.66933,3.44753c2.78904,0.44728 5.55102,1.17879 8.37284,1.30566c1.43048,0.06432 2.88993,0.32223 4.29549,0.04872c1.3012,-0.2532 2.36874,-1.23019 3.64356,-1.59359c2.88019,-0.82103 5.90584,-1.01366 8.82951,-1.6631c3.03281,-0.67368 6.17629,-0.81799 9.17954,-1.61314c4.52994,-1.19937 9.00194,-3.89934 13.19688,-5.83534c3.36462,-1.55281 6.29294,-2.30971 9.26081,-4.54323c3.22098,-3.23202 6.88286,-6.47976 9.34447,-10.36131c4.06966,-6.41717 5.30281,-12.89847 7.32138,-20.00915c0.77653,-2.73544 1.87824,-5.43254 2.10375,-8.26711c0.18784,-2.36125 -0.17777,-4.74422 0.00153,-7.10613c0.54784,-7.21648 1.06089,-14.56878 0.01661,-21.7905c-0.30595,-2.29458 -1.28346,-4.45182 -2.07032,-6.62887c-0.74185,-2.05251 -0.72636,-4.34256 -1.56414,-6.35782c-0.34634,-0.8331 -3.54503,-5.49728 -3.68473,-5.73665c-2.27998,-3.90663 -4.50394,-8.34603 -8.11195,-11.28785c-0.88699,-0.72322 -2.13417,-0.8689 -3.08696,-1.5029c-1.16132,-0.77276 -2.02222,-1.95285 -3.20872,-2.68635c-5.55113,-3.43173 -12.00597,-5.71904 -17.82266,-8.62853c-4.29877,-2.15024 -7.59327,-4.37326 -12.29006,-5.74564c-3.0784,0.02544 -6.43376,-0.28642 -9.69594,-0.32204c-0.00964,1.7739 -0.0249,3.34477 -0.00742,3.59627z" fill="#000000" stroke-width="0.5"/><path d="M288.75183,252.26372c2.37171,0.79057 3.16609,-1.58229 3.16609,-1.58229l0.15283,-0.48076c0.26699,0.0047 0.51797,0.00835 0.74732,0.00941c0,0 2.50319,-0.00064 2.50319,-2.50064c0,-1.42336 -0.79273,-1.93791 -1.49072,-2.2019c0.46237,-0.25232 0.94224,-0.57312 1.30395,-0.93655c0.66562,-0.6688 0.79051,-1.89222 1.63554,-2.31207c1.05975,-0.52654 2.37103,-0.1032 3.54403,-0.25932c1.90462,-0.2535 3.6401,-1.29553 5.52888,-1.6482c4.66553,-0.87113 9.16702,1.1821 13.8414,-0.04512c3.92264,-1.02986 7.25333,-2.88523 11.29747,-3.77449c5.62469,-1.19812 11.75225,0.23436 15.59421,4.64968c0.21065,0.24208 1.7894,2.35011 2.45773,3.39857c-0.30695,0.03562 -0.67993,0.14893 -0.98194,0.19439c-2.89757,0.43617 -5.78129,1.1653 -8.62973,2.01022c-0.2909,-2.03167 -2.46586,-2.03006 -2.46586,-2.03006c-0.17722,0 -6.20209,-0.01128 -6.43849,0.04263c-7.31825,1.66873 -13.873,6.88942 -19.59648,11.38326c-3.8768,3.04389 -8.3899,5.84275 -11.86805,9.35327c-2.679,2.70395 -4.59735,7.27775 -6.25381,10.58692c-1.90614,3.80797 -4.52232,7.61307 -6.04802,11.58182c-1.19422,3.10648 -1.91546,6.69187 -2.66347,9.92596c-4.1507,12.94202 -4.5832,26.85446 -2.98606,40.32689c0.453,3.82128 1.14484,7.39745 2.17117,10.91767c-0.83371,0.42344 -1.7136,0.88837 -2.57022,1.18574c-2.22791,0.77338 -4.70853,0.35507 -7.06471,0.45577c-4.33804,0.18539 -9.51618,-0.54003 -11.19809,-5.44906c-0.93628,-2.73272 -0.96903,-8.32579 -0.44396,-11.21372c0.20238,-1.11307 1.21726,-2.07111 1.13443,-3.19939c-0.11387,-1.55118 -0.80325,-3.07625 -1.69213,-4.35259c-0.50766,-0.72896 -1.77137,-0.64513 -2.2909,-1.36567c-0.76244,-1.05741 -1.03292,-2.41033 -1.34437,-3.6762c-1.84441,-7.4965 -0.67995,-15.94817 1.81202,-23.09283c2.28535,-5.67182 4.42024,-10.38483 8.74018,-14.82711c1.60284,-1.64822 4.33674,-1.79219 6.04838,-3.32711c0.8419,-0.75497 0.76407,-2.15887 1.39069,-3.10022c0.65395,-0.98241 1.97233,-1.50713 2.40625,-2.60463c1.37769,-3.48458 -0.82627,-8.88198 -0.36499,-12.65278c0.40182,-3.2848 2.65193,-7.50135 5.06812,-9.7925c0.94679,-0.89779 2.5027,-1.32721 4.16051,-1.52408c0.08686,0.70325 0.47315,1.52228 1.68758,1.92709z" data-paper-data="{&quot;noHover&quot;:false,&quot;origItem&quot;:[&quot;Path&quot;,{&quot;applyMatrix&quot;:true,&quot;segments&quot;:[[[361.42832,238.98915],[0,0],[-2.42886,-0.80962]],[[358.05514,235.13427],[0.17372,1.4065],[-3.31562,0.39374]],[[349.74298,238.17867],[1.89358,-1.79558],[-4.83238,4.5823]],[[339.62534,257.75199],[0.80364,-6.5696],[-0.92256,7.5416]],[[340.37246,283.04013],[2.75538,-6.96916],[-0.86784,2.195]],[[335.56624,288.24019],[1.3079,-1.96482],[-1.25324,1.8827]],[[332.7899,294.43117],[1.6838,-1.50994],[-3.4233,3.06984]],[[320.69858,301.07087],[3.20568,-3.29644],[-8.63988,8.88456]],[[303.22152,330.68627],[4.5707,-11.34364],[-4.98394,14.28932]],[[299.58316,376.83041],[-3.68882,-14.993],[0.6229,2.53174]],[[302.26796,384.17691],[-1.52488,-2.11482],[1.03906,1.44108]],[[306.84698,386.90457],[-1.01532,-1.45792],[1.77776,2.55268]],[[310.22588,395.60357],[-0.22774,-3.10236],[0.16566,2.25656]],[[307.95514,402.00039],[0.40476,-2.22614],[-1.05014,5.77584]],[[308.83362,424.41941],[-1.87256,-5.46544],[3.36384,9.81806]],[[331.21378,435.30727],[-8.67608,0.37078],[4.71236,-0.2014]],[[345.3341,434.39163],[-4.45582,1.54676],[1.71324,-0.59474]],[[350.40456,432.20747],[-1.66742,0.84688],[-2.05266,-7.04044]],[[346.05164,410.36767],[0.906,7.64256],[-3.19428,-26.94486]],[[351.97026,329.64629],[-8.3014,25.88404],[1.49602,-6.46818]],[[357.30024,309.73939],[-2.38844,6.21296],[3.0514,-7.9375]],[[369.43986,286.52245],[-3.81228,7.61594],[3.31292,-6.61834]],[[381.9844,265.33569],[-5.358,5.4079],[6.9563,-7.02106]],[[405.75538,246.63037],[-7.7536,6.08778],[11.44696,-8.98768]],[[444.97678,223.87467],[-14.6365,3.33746],[0.4728,-0.10782]],[[457.86172,223.79443],[-0.35444,0],[0,0]],[[462.79776,227.85777],[-0.5818,-4.06334],[5.69686,-1.68984]],[[480.0636,223.84277],[-5.79514,0.87234],[0.60402,-0.09092]],[[481.89076,223.59997],[-0.6139,0.07124],[-1.33666,-2.09692]],[[476.97984,216.80685],[0.4213,0.48416],[-7.68392,-8.83064]],[[445.81132,207.52047],[11.24938,-2.39624],[-8.08828,1.77852]],[[423.23054,215.07513],[7.84528,-2.05972],[-9.34874,2.45444]],[[395.5724,215.16985],[9.33106,-1.74226],[-3.77756,0.70534]],[[384.52522,218.46627],[3.80924,-0.507],[-2.346,0.31224]],[[377.44404,218.98431],[2.1195,-1.05308],[-1.69006,0.8397]],[[374.17678,223.60791],[1.33124,-1.3376],[-0.72342,0.72686]],[[371.53424,225.28405],[0.92474,-0.50464],[1.39598,0.52798]],[[374.55098,229.88469],[0,-2.84672],[0,5]],[[369.55098,234.88469],[0,0],[-0.4587,-0.00212]],[[368.05792,234.86549],[0.53398,0.0094],[0,0]],[367.75284,235.82685],[[361.4283,238.98913],[4.74342,1.58114],[0,0]]],&quot;closed&quot;:true,&quot;fillColor&quot;:[0,0,0,1]}]}" fill="#302617" stroke-width="0.5"/><path d="M292.88898,342.66934c-1.68913,1.09584 -3.42565,2.37425 -5.21175,3.59067c-0.75571,-2.83354 -1.29812,-5.72752 -1.66464,-8.8123c-1.52692,-12.85096 -1.15987,-26.1364 2.79697,-38.47814c0.62819,-2.71181 1.45425,-6.73976 2.4656,-9.38312c1.47349,-3.85126 4.0867,-7.60802 5.93347,-11.30585c1.42873,-2.86078 3.15623,-7.14923 5.51183,-9.4757c3.3234,-3.28229 7.62401,-5.90611 11.28823,-8.78724c4.90581,-3.85738 10.67418,-8.62535 16.93796,-10.26869c-0.1635,0.32197 -0.26599,0.7257 -0.26599,1.23192c0,2.5 2.50313,2.50086 2.50313,2.50086l1.88261,-0.12771c4.47403,-1.49134 9.08491,-2.9734 13.73894,-3.7073c0.27385,-0.04319 0.55065,-0.08097 0.82917,-0.11442c-0.06285,2.28209 -0.2713,4.62723 0.19206,6.85329c0.71979,3.45803 2.51949,5.34463 3.28975,8.78704c1.52917,6.8341 -0.05558,14.34933 -4.83522,19.56873c-1.06011,1.15765 -5.11694,4.02173 -6.30096,4.88584c-2.08486,0.50628 -4.33,1.06089 -6.46989,0.90649c-3.67913,-0.26546 -5.24098,-1.84141 -7.80517,2.41725c-0.3374,0.56036 -0.25965,6.3071 -0.25864,7.15193c0.00377,3.15412 -0.55918,6.3219 -1.07892,9.43291c-0.73432,4.39541 -0.42606,8.83879 -3.3695,12.54202c-1.78549,2.24639 -5.80915,7.20083 -8.86635,7.79541c-1.27894,0.24874 -2.62605,0.17404 -3.91435,-0.02052c-1.86489,-0.28163 -3.72569,-2.0679 -5.49026,-1.40198c-2.3201,0.87557 -1.67981,4.72217 -3.06641,6.7781c-2.21957,3.29097 -5.44826,5.44822 -8.77169,7.44054z" data-paper-data="{&quot;noHover&quot;:false,&quot;origItem&quot;:[&quot;Path&quot;,{&quot;applyMatrix&quot;:true,&quot;segments&quot;:[[[369.72084,419.61989],[0,0],[6.64686,-3.98464]],[[387.2562,404.73453],[-4.43914,6.58194],[2.7732,-4.11186]],[[393.3894,391.17853],[-4.6402,1.75114],[3.52914,-1.33184]],[[404.35426,393.97651],[-3.72978,-0.56326],[2.5766,0.38912]],[[412.1716,394.01499],[-2.55788,0.49748],[6.1144,-1.18916]],[[429.87336,378.42391],[-3.57098,4.49278],[5.88686,-7.40646]],[[436.57574,353.35291],[-1.46864,8.79082],[1.0395,-6.22202]],[[438.68838,334.54645],[0.00754,6.30824],[-0.00202,-1.68966]],[[439.21624,320.32041],[-0.6748,1.12072],[5.12838,-8.51732]],[[455.00334,315.39299],[-7.35826,-0.53092],[4.27976,0.3088]],[[467.7583,313.65607],[-4.16972,1.01256],[2.36804,-1.72822]],[[480.36312,303.89145],[-2.12022,2.3153],[9.55928,-10.4388]],[[490.05282,264.78219],[3.05834,13.6682],[-1.54052,-6.88482]],[[483.48598,247.21911],[1.43958,6.91606],[-0.92672,-4.45212]],[[483.10796,233.51667],[-0.1257,4.56418],[-0.55704,0.0669]],[[481.4506,233.74611],[0.5477,-0.08638],[-9.30806,1.4678]],[[453.99158,241.16965],[8.94806,-2.98268],[0,0]],[450.22992,241.42623],[[445.22992,236.42623],[0,5],[0,-1.01244]],[[445.76194,233.96241],[-0.327,0.64394],[-12.52756,3.28666]],[[411.92346,254.50151],[9.81162,-7.71476],[-7.32844,5.76226]],[[389.38264,272.06373],[6.6468,-6.56458],[-4.7112,4.65294]],[[378.38414,290.99459],[2.85746,-5.72156],[-3.69354,7.39564]],[[366.53814,313.56841],[2.94698,-7.70252],[-2.0227,5.28672]],[[361.61098,332.30283],[1.25638,-5.42362],[-7.91368,24.68348]],[[355.98164,409.18621],[-3.05384,-25.70192],[0.73304,6.16956]],[[359.30126,426.80361],[-1.51142,-5.66708],[3.5722,-2.43284]],[[369.72086,419.61985],[-3.37826,2.19168],[0,0]]],&quot;closed&quot;:true,&quot;fillColor&quot;:[0,0,0,1]}]}" fill="#302617" stroke-width="0.5"/><path d="M354.19012,253.0137c-0.01748,-0.2515 -0.00004,-1.92235 0.0096,-3.69625c3.26218,0.03562 6.62482,0.34817 9.70322,0.32273c4.69679,1.37238 8.00115,3.59813 12.29992,5.74837c5.81669,2.90949 12.28468,5.20442 17.83581,8.63615c1.1865,0.7335 2.04981,1.91566 3.21113,2.68842c0.95279,0.634 2.20175,0.78139 3.08874,1.50461c3.60801,2.94182 5.8385,7.38937 8.11848,11.296c0.1397,0.23937 3.34094,4.90801 3.68728,5.74111c0.83778,2.01526 0.82428,4.30978 1.56613,6.36229c0.78686,2.17705 1.76603,4.33935 2.07198,6.63393c1.04428,7.22172 0.53282,14.59085 -0.01502,21.80733c-0.1793,2.36191 0.18558,4.75037 -0.00226,7.11162c-0.22551,2.83457 -1.32889,5.53812 -2.10542,8.27356c-2.01857,7.11068 -3.2592,13.60627 -7.32886,20.02344c-2.46161,3.88155 -6.13057,7.13692 -9.35155,10.36894c-2.96787,2.23352 -5.90233,2.99501 -9.26695,4.54782c-4.19494,1.936 -8.67692,4.64083 -13.20686,5.8402c-3.00325,0.79515 -6.15369,0.94139 -9.1865,1.61507c-2.92367,0.64944 -5.95627,0.84296 -8.83646,1.66399c-1.27482,0.3634 -2.34519,1.34047 -3.64639,1.59367c-1.40556,0.27351 -2.86827,0.0155 -4.29875,-0.04882c-2.82182,-0.12687 -5.59019,-0.85921 -8.37923,-1.30649c-6.1414,-0.9849 -12.79277,-1.23154 -18.68254,-3.45211c-2.80063,-1.0559 -5.56815,-2.3867 -8.52832,-2.82918c-6.0098,-1.7216 -9.6613,-4.78758 -14.02592,-9.14264c-2.56229,-2.55668 -5.80965,-4.43573 -7.77373,-7.64668c-0.54695,-0.89418 -0.55634,-2.02893 -0.95717,-2.99746c-0.34895,-0.84318 -0.67594,-1.68229 -0.98038,-2.51779c2.16235,-1.40415 4.25436,-2.9305 6.31739,-4.26925c3.82472,-2.34023 7.69086,-4.96347 10.20958,-8.81886c0.79337,-1.21441 1.59952,-2.48499 1.94899,-3.89286c0.11867,-0.47811 -1.02544,-1.53119 -0.5629,-1.36169c0.89204,0.32688 1.22143,1.66096 2.14835,1.86933c7.56473,1.70058 13.43834,-4.09896 17.64401,-9.5985c3.49289,-4.56748 3.41644,-9.40823 4.30982,-14.78105c0.28088,-1.68918 0.92009,-3.32583 1.1073,-5.02794c0.34491,-3.13594 -0.66856,-7.01987 -0.23419,-10.09683c0.14082,-0.99754 2.00872,0.18492 3.01159,0.28073c3.98642,0.38085 4.7356,-0.25862 8.90021,-1.32093c2.00956,-1.41118 6.14048,-4.11876 7.88845,-6.02405c5.84241,-6.36822 8.03284,-15.57931 6.05435,-23.95589c-0.98003,-4.14927 -3.4647,-6.85462 -3.76296,-11.14402z" data-paper-data="{&quot;noHover&quot;:false,&quot;origItem&quot;:[&quot;Path&quot;,{&quot;applyMatrix&quot;:true,&quot;segments&quot;:[[[246.13716,120.1473],[0,0],[0.29826,4.2894]],[[249.90402,131.29156],[-0.98003,-4.14927],[1.97849,8.37658]],[[243.8463,155.34717],[5.84241,-6.36822],[-1.74797,1.90529]],[[235.97539,161.36742],[2.00956,-1.41118],[-4.16461,1.06231]],[[227.08928,162.67948],[3.98642,0.38085],[-1.00287,-0.09581]],[[224.08027,162.39628],[0.14082,-0.99754],[-0.43437,3.07696]],[[224.32351,172.48023],[0.34491,-3.13594],[-0.18721,1.70211]],[[223.22001,177.49745],[0.28088,-1.68918],[-0.89338,5.37282]],[[218.90822,192.24955],[3.49289,-4.56748],[-4.20567,5.49954]],[[201.1718,201.88615],[7.56473,1.70058],[-0.92692,-0.20837]],[[199.02244,200.01438],[0.89204,0.32688],[-0.46254,-0.1695]],[[199.67813,201.33881],[0.11867,-0.47811],[-0.34947,1.40787]],[[197.72802,205.2292],[0.79337,-1.21441],[-2.51872,3.85539]],[[187.51721,214.04569],[3.82472,-2.34023],[-2.06303,1.33875]],[[181.19959,218.31453],[2.16235,-1.40415],[0.30444,0.8355]],[[182.17905,220.83075],[-0.34895,-0.84318],[0.40083,0.96853]],[[183.13511,223.82648],[-0.54695,-0.89418],[1.96408,3.21095]],[[190.9043,231.46738],[-2.56229,-2.55668],[4.36462,4.35506]],[[204.9215,240.60243],[-6.0098,-1.7216],[2.96017,0.44248]],[[213.4444,243.42838],[-2.80063,-1.0559],[5.88977,2.22057]],[[232.11373,246.87591],[-6.1414,-0.9849],[2.78904,0.44728]],[[240.48657,248.18157],[-2.82182,-0.12687],[1.43048,0.06432]],[[244.78206,248.23029],[-1.40556,0.27351],[1.3012,-0.2532]],[[248.42562,246.6367],[-1.27482,0.3634],[2.88019,-0.82103]],[[257.25513,244.9736],[-2.92367,0.64944],[3.03281,-0.67368]],[[266.43467,243.36046],[-3.00325,0.79515],[4.52994,-1.19937]],[[279.63155,237.52512],[-4.19494,1.936],[3.36462,-1.55281]],[[288.89236,232.98189],[-2.96787,2.23352],[3.22098,-3.23202]],[[298.23683,222.62058],[-2.46161,3.88155],[4.06966,-6.41717]],[[305.55821,202.61143],[-2.01857,7.11068],[0.77653,-2.73544]],[[307.66196,194.34432],[-0.22551,2.83457],[0.18784,-2.36125]],[[307.66349,187.23819],[-0.1793,2.36191],[0.54784,-7.21648]],[[307.6801,165.44769],[1.04428,7.22172],[-0.30595,-2.29458]],[[305.60978,158.81882],[0.78686,2.17705],[-0.74185,-2.05251]],[[304.04564,152.461],[0.83778,2.01526],[-0.34634,-0.8331]],[[300.36091,146.72435],[0.1397,0.23937],[-2.27998,-3.90663]],[[292.24896,135.4365],[3.60801,2.94182],[-0.88699,-0.72322]],[[289.162,133.9336],[0.95279,0.634],[-1.16132,-0.77276]],[[285.95328,131.24725],[1.1865,0.7335],[-5.55113,-3.43173]],[[268.13062,122.61872],[5.81669,2.90949],[-4.29877,-2.15024]],[[255.84056,116.87308],[4.69679,1.37238],[-3.0784,0.02544]],[[246.14462,116.55104],[3.26218,0.03562],[-0.00964,1.7739]],[[246.1372,120.14731],[-0.01748,-0.2515],[0,0]]],&quot;closed&quot;:true,&quot;fillColor&quot;:[0,0,0,1],&quot;strokeWidth&quot;:0.5}]}" fill="#584529" stroke-width="0.25"/><path d="M315.01185,407.20892c0.31754,-0.81259 0.621,-1.55624 0.84784,-2.17937c1.66852,-4.58351 4.13935,-9.22098 6.92478,-13.59301c11.63883,0.01686 23.27128,0.50706 34.92769,0.50706c4.19703,0 8.05619,-0.23866 12.20189,-0.52629c1.55848,-0.10812 3.15638,0.26429 4.68871,-0.03988c1.41458,-0.2808 2.60392,-1.27271 3.98817,-1.67735c2.185,-0.63871 4.56945,-0.09733 6.81327,-0.48139c1.5249,-0.26101 4.86544,-1.6631 6.47877,-2.30906c1.04867,1.6692 2.47212,3.1114 3.44782,4.82775c0.75883,1.33486 0.66342,3.01154 0.81566,4.53945c0.35658,3.57857 0.99481,6.2722 0.70465,9.23576c-4.34888,1.74705 -8.48723,3.31139 -13.03928,4.47832c-4.2427,1.08763 -9.19137,0.47328 -13.53539,0.47328c-18.57241,0 -36.87817,-2.89457 -55.26459,-3.25527z" data-paper-data="{&quot;noHover&quot;:false,&quot;origItem&quot;:[&quot;Path&quot;,{&quot;applyMatrix&quot;:true,&quot;segments&quot;:[[[262.18368,277.61616],[-18.57241,0],[4.34401,0]],[[275.7114,277.15583],[-4.2427,1.08763],[4.55206,-1.16694]],[[288.74773,272.68806],[-4.34888,1.74705],[0.29015,-2.96356]],[[288.04251,263.46353],[0.35658,3.57857],[-0.15224,-1.5279]],[[287.22753,258.92978],[0.75883,1.33486],[-0.9757,-1.71634]],[[283.78145,254.10892],[1.04867,1.6692],[-1.61333,0.64595]],[[277.3026,256.41773],[1.5249,-0.26101],[-2.24381,0.38405]],[[270.49048,256.90229],[2.185,-0.63871],[-1.38425,0.40463]],[[266.50224,258.57947],[1.41458,-0.2808],[-1.53233,0.30417]],[[261.81577,258.62424],[1.55848,-0.10812],[-4.1457,0.28763]],[[249.64574,259.17565],[4.19703,0],[-11.65641,0]],[[214.77925,258.63094],[11.63883,0.01686],[-2.78543,4.37203]],[[207.85505,272.20545],[1.66852,-4.58351],[-0.22683,0.62312]],[[207.00678,274.38244],[0.31754,-0.81259],[18.38641,0.3607]]],&quot;closed&quot;:true}]}" fill="#ffffff" stroke-width="0.5"/><path d="M352.36017,231.48228c0.20782,0.53672 0.20781,1.01289 0.20781,1.01289c-0.01091,11.15497 -1.00355,22.32501 -0.54718,33.52692c0.71121,17.45702 2.16931,34.85806 4.33079,52.20286c1.54588,7.87584 1.5989,16.20483 2.20651,24.20887c0.22736,2.99512 -0.41236,6.19812 -0.00863,9.17161c0.52419,3.86067 1.3602,7.58881 1.63814,11.47413c0.19588,2.73812 0.30472,5.48281 0.54878,8.21706c0.32416,3.63166 -1.25453,8.35805 3.06027,9.78382c2.59751,0.36208 6.59405,1.09055 9.20916,0.51139c1.28487,-0.28456 2.35803,-1.19785 3.61562,-1.58558c2.24863,-0.69327 4.69009,-0.71364 6.8833,-1.56618c3.15037,-1.22461 6.09448,-3.04048 9.17843,-4.32452c5.09879,-2.12295 10.28904,-3.4822 13.68541,-8.43551c4.34904,-6.34268 6.15144,-14.53173 7.24469,-22.0792c2.20837,-5.56008 2.73356,-11.62971 3.19226,-17.52085c0.94599,-12.14963 3.03199,-23.6933 0.06409,-35.75733c-0.73284,-2.9789 -0.44119,-5.25475 -1.61329,-8.09231c-1.29679,-7.59965 -2.04622,-15.12701 -2.80595,-22.77755c-0.26814,-2.70018 0.27182,-5.48081 0,-8.17692c-0.20513,-2.03464 -0.92309,-3.99874 -1.09391,-6.03655c-0.24935,-2.97491 0.0207,-5.53418 -0.51268,-8.47755c-0.59537,-3.28547 0.36961,-8.6951 -1.29136,-11.65571c-0.66956,-1.19347 -2.44487,-1.23968 -3.71961,-1.73738c-7.29305,-2.94257 -14.80905,-2.54683 -22.51203,-2.54683c-3.13074,0 -7.10408,-0.53612 -10.15715,0.43141c-1.21731,0.38577 -2.20175,1.37739 -3.4418,1.68222c-2.88064,0.70812 -6.67099,0.37573 -9.66433,0.60572c-0.02003,0.00154 -4.42453,0.41306 -5.09784,1.04498c-1.98514,1.86313 -2.29083,4.39781 -2.59951,6.8961zM347.50603,237.85181c-0.48317,-0.70504 -0.48317,-1.54074 -0.48317,-1.54074l0.01216,-2.97199c0.87873,-4.39365 0.81621,-9.2963 4.68281,-12.55953c4.54923,-3.83934 11.68182,-1.39144 16.85526,-2.71032c1.12504,-0.28681 1.98751,-1.25548 3.09974,-1.58855c3.67188,-1.09958 7.87629,-0.65884 11.64798,-0.65884c8.38504,0 16.41595,-0.25274 24.36898,2.90445c2.15786,0.87974 4.69583,1.57558 6.09269,3.7139c2.29303,3.51016 1.26408,9.49909 1.9794,13.42017c0.56527,3.09858 0.32047,5.86053 0.57757,8.96655c0.16649,2.01131 0.88717,3.94796 1.08661,5.95627c0.26814,2.70018 -0.27182,5.48081 0,8.17692c0.74277,7.36719 1.45845,14.6049 2.64534,21.92296c1.13686,2.92455 0.90184,5.29164 1.65747,8.26153c2.00232,7.86987 2.49202,16.65812 1.6936,24.821c-0.40562,4.14691 -1.31233,8.29261 -1.6295,12.46883c-0.46867,6.17098 -1.00762,12.64642 -3.34928,18.45761c-1.14006,8.09772 -3.2323,16.98361 -8.01889,23.71155c-1.58688,2.2305 -5.40403,5.69242 -7.7132,7.14993c-2.4135,1.52337 -5.40411,1.85047 -8.03831,2.94891c-3.13625,1.30778 -6.14119,3.17284 -9.35593,4.39752c-2.33206,0.88842 -4.90442,0.972 -7.29003,1.70459c-1.38784,0.42618 -2.59488,1.38912 -4.01617,1.68519c-3.44548,0.71774 -8.10096,-0.08326 -11.5057,-0.57887c-1.23365,-0.53405 -2.69245,-0.71331 -3.70096,-1.60215c-3.89494,-3.43273 -2.64339,-8.20064 -3.05107,-12.59967c-0.25084,-2.70666 -0.34811,-5.42541 -0.54148,-8.13677c-0.2757,-3.86566 -1.13119,-7.57937 -1.63262,-11.42124c-0.39979,-3.06306 0.23147,-6.28386 -0.00864,-9.36275c-0.6113,-7.83862 -0.58267,-16.06343 -2.15452,-23.7624c-2.19882,-17.53967 -3.67876,-35.14626 -4.39126,-52.80121c-0.38242,-9.47584 0.27061,-18.93219 0.48112,-28.37284z" fill="#ffffff" stroke-width="0.5"/><path d="M354.94135,224.53966c0.67331,-0.63192 5.08076,-1.0445 5.10079,-1.04604c2.99335,-0.22999 6.7894,0.10092 9.67004,-0.6072c1.24005,-0.30483 2.22675,-1.29685 3.44406,-1.68261c3.05307,-0.96753 7.03268,-0.43195 10.16342,-0.43195c7.70299,0 15.23295,-0.39407 22.526,2.5485c1.27474,0.4977 3.05248,0.54462 3.72204,1.73809c1.66098,2.96061 0.69924,8.37141 1.29461,11.65688c0.53338,2.94337 0.26602,5.5038 0.51537,8.47871c0.17081,2.03781 0.89155,4.00332 1.09668,6.03796c0.27182,2.69612 -0.26477,5.47877 0.00337,8.17894c0.75973,7.65054 1.52409,15.19306 2.82088,22.79271c1.1721,2.83756 0.88545,5.12383 1.6183,8.10273c2.96789,12.06403 0.87396,23.65484 -0.07203,35.80447c-0.45869,5.89113 -0.99534,11.9714 -3.20371,17.53148c-1.09325,7.54747 -2.90791,15.74252 -7.25695,22.0852c-3.39637,4.95331 -8.59711,6.3148 -13.6959,8.43775c-3.08395,1.28404 -6.03426,3.10017 -9.18464,4.32478c-2.1932,0.85254 -4.63898,0.87262 -6.88761,1.5659c-1.25759,0.38773 -2.33284,1.30075 -3.61771,1.58531c-2.61512,0.57916 -6.61709,-0.15044 -9.21461,-0.51252c-4.31481,-1.42577 -2.73965,-6.15324 -3.06381,-9.7849c-0.24406,-2.73425 -0.35516,-5.47979 -0.55104,-8.21792c-0.27794,-3.88532 -1.11859,-7.61562 -1.64278,-11.47629c-0.40373,-2.97349 0.23224,-6.17869 0.00487,-9.17381c-0.60761,-8.00403 -0.67657,-16.34964 -2.22245,-24.22548c-2.16149,-17.3448 -3.61078,-34.80766 -4.32199,-52.26467c-0.45637,-11.20191 0.54912,-22.38071 0.56002,-33.53568c0,0 0.00015,-0.47624 -0.20767,-1.01296c0.30868,-2.49829 0.61731,-5.03424 2.60246,-6.89737z" data-paper-data="{&quot;noHover&quot;:false,&quot;origItem&quot;:[&quot;Path&quot;,{&quot;applyMatrix&quot;:true,&quot;segments&quot;:[[[488.61225,197.33176],[0.61736,-4.99658],[0.41563,1.07343]],[[489.02788,199.35754],[0,0],[-0.02181,22.30994]],[[487.93352,266.41138],[-0.91274,-22.40383],[1.42241,34.91403]],[[496.59511,370.8171],[-4.32298,-34.6896],[3.09177,15.75168]],[[501.00812,419.23483],[-1.21521,-16.00807],[0.45473,5.99024]],[[500.99085,437.57805],[-0.80746,-5.94698],[1.04838,7.72135]],[[504.26714,460.52632],[-0.55589,-7.77064],[0.39175,5.47625]],[[505.36469,476.96045],[-0.48812,-5.4685],[0.64833,7.26333]],[[511.48524,496.52808],[-8.62961,-2.85153],[5.19503,0.72415]],[[529.90357,497.55085],[-5.23023,1.15833],[2.56974,-0.56912]],[[537.1348,494.37969],[-2.51518,0.77546],[4.49726,-1.38655]],[[550.9014,491.24733],[-4.38641,1.70508],[6.30075,-2.44922]],[[569.25826,482.59828],[-6.1679,2.56809],[10.19759,-4.2459]],[[596.62908,465.72725],[-6.79274,9.90662],[8.69807,-12.68537]],[[611.11847,421.56884],[-2.1865,15.09494],[4.41675,-11.12015]],[[617.50299,386.52715],[-0.91739,11.78227],[1.89198,-24.29927]],[[617.63117,315.01249],[5.93579,24.12806],[-1.46569,-5.9578]],[[614.40458,298.82787],[2.3442,5.67512],[-2.59358,-15.19929]],[[608.79269,253.27278],[1.51946,15.30107],[-0.53628,-5.40035]],[[608.79269,236.91894],[0.54365,5.39223],[-0.41027,-4.06928]],[[606.60488,224.84584],[0.34162,4.07562],[-0.49871,-5.94982]],[[605.57952,207.89074],[1.06676,5.88674],[-1.19074,-6.57093]],[[602.99679,184.57931],[3.32195,5.92122],[-1.33912,-2.38693]],[[595.55757,181.10455],[2.54948,0.9954],[-14.58609,-5.88513]],[[550.53351,176.01089],[15.40597,0],[-6.26147,0]],[[530.21922,176.87371],[6.10614,-1.93506],[-2.43462,0.77154]],[[523.33561,180.23815],[2.48011,-0.60966],[-5.76128,1.41623]],[[504.00694,181.44959],[5.9867,-0.45998],[-0.04006,0.00308]],[[493.81127,183.53956],[1.34662,-1.26385],[-3.97029,3.72626]]],&quot;closed&quot;:true}]}" fill="#000000" stroke-width="0.5"/></g><path d="M322.31386,344.58374c0,-2.07107 1.67893,-3.75 3.75,-3.75c2.07107,0 3.75,1.67893 3.75,3.75c0,2.07107 -1.67893,3.75 -3.75,3.75c-2.07107,0 -3.75,-1.67893 -3.75,-3.75z" fill="#ffffff" stroke-width="0.5"/><path d="M383.84463,339.33111c0,-2.07107 1.67893,-3.75 3.75,-3.75c2.07107,0 3.75,1.67893 3.75,3.75c0,2.07107 -1.67893,3.75 -3.75,3.75c-2.07107,0 -3.75,-1.67893 -3.75,-3.75z" fill="#ffffff" stroke-width="0.5"/></g></g></g></svg>