<svg version="1.1" xmlns="http://www.w3.org/2000/svg" xmlns:xlink="http://www.w3.org/1999/xlink" width="813.13705" height="499.82181" viewBox="0,0,813.13705,499.82181"><g transform="translate(165.18389,41.95828)"><g data-paper-data="{&quot;isPaintingLayer&quot;:true}" fill-rule="nonzero" stroke-linecap="butt" stroke-linejoin="miter" stroke-miterlimit="10" stroke-dasharray="" stroke-dashoffset="0" style="mix-blend-mode: normal"><path d="M335.81615,231.98793c13.0362,-3.17518 26.3356,-4.55635 35.96967,6.6426c3.20113,5.98519 5.91255,12.05041 8.10814,18.39761c1.43107,4.13711 4.12308,7.83849 6.03379,11.76648c1.28635,2.64444 2.02341,5.52296 2.96987,8.30719c1.69003,4.97159 4.51962,9.39138 6.63947,14.14875c1.72741,3.87667 2.63265,8.10101 4.51426,11.90522c1.11851,2.26139 2.91081,4.14622 4.02465,6.40993c2.64264,5.37078 3.37994,11.68886 7.21363,16.21679c2.40524,8.75964 5.0967,16.76445 6.41424,25.76116c0.84692,5.78326 3.34572,10.88802 3.06448,16.88777c-0.25331,5.40388 -1.63496,12.36694 -6.12058,15.98874c-1.61564,1.30452 -3.93829,1.32211 -5.93267,1.90048c-5.12235,1.48551 -10.97667,2.90537 -16.26801,2.97713c-2.32443,0.03152 -4.60413,-0.70219 -6.92596,-0.81653c-5.82024,-0.28663 -11.29007,2.4019 -17.19113,2.37737c-1.6621,-0.39018 -3.28544,-1.02254 -4.9863,-1.17053c-2.89626,-0.252 -5.87298,0.86269 -8.71761,0.26283c-2.05446,-0.43322 -5.96241,-2.45478 -8.62283,-2.72208c-8.79496,-0.88366 -18.2791,-2.33247 -26.96425,-4.30854c-1.94797,-0.44322 -3.70868,-1.51736 -5.64101,-2.02448c-7.3644,-1.93267 -15.10862,-2.2003 -22.35023,-4.81695c-3.81312,-1.37781 -7.50447,-3.14481 -11.49674,-4.41679c-9.94774,-3.16945 -20.35527,-5.30565 -30.37284,-8.37521c-20.60124,-4.71658 -40.48858,-12.27712 -61.2435,-16.55918c-12.24578,-2.52648 -24.44562,-4.52052 -36.60165,-7.63607c-4.15546,-1.06504 -8.52568,-1.56055 -12.42743,-3.34338c-1.65663,-0.75697 -2.76735,-2.41301 -4.36649,-3.28488c-1.92818,-1.05125 -4.31976,-1.17936 -6.12243,-2.43373c-1.32809,-0.92414 -1.74276,-2.77165 -2.93314,-3.86745c-1.23372,-1.13569 -3.1169,-1.46968 -4.22853,-2.72513c-3.01134,-3.40095 -4.63374,-9.52113 -5.69987,-13.7522c-1.69463,-6.95758 -3.66498,-13.91296 -5.09759,-20.92897c-0.46853,-2.29454 -1.70803,-4.62484 -1.22933,-6.91728c1.64649,-7.88477 7.67442,-8.05668 13.8799,-9.53799c2.83018,-0.67559 5.75299,-0.88204 8.64076,-1.23864c4.33366,-0.53513 8.56409,-2.45402 12.8809,-3.16713c3.37943,-0.55827 6.7184,-1.19023 10.04274,-1.87746c-2.51986,-1.93196 -4.83731,-4.07203 -6.88026,-6.39039c-2.56964,-3.04332 -5.75746,-6.46488 -7.50333,-10.08967c-0.24497,-0.50862 -1.86517,-7.26359 -2.11381,-8.28444c-1.57352,-6.46034 -2.92192,-12.82452 -4.05876,-19.35662c-1.03405,-5.94154 -2.07896,-11.88488 -3.07572,-17.83443c-2.30051,2.08744 -4.56437,4.20939 -6.75844,6.3988c-7.46076,7.44496 -13.52808,20.60886 -25.75038,21.55214c-1.45576,0.11235 -7.4655,-5.48778 -8.88364,-7.26632c-8.14337,-10.21286 -14.04327,-20.92006 -15.32448,-34.08458c-1.30629,-5.3871 -2.27948,-11.18396 -1.76351,-16.76729c0.57165,-6.18593 4.45889,-11.90137 7.22666,-17.07049c1.68127,-3.13997 2.52649,-6.70221 4.3634,-9.75374c0.9272,-1.54028 2.3585,-2.75704 3.18012,-4.35612c3.21084,-6.24905 5.48384,-12.89673 9.0185,-19.10181c3.50297,-6.14944 7.70353,-12.20489 12.32757,-17.91714c-0.56375,-1.33738 -0.55623,-2.57618 -0.55623,-2.57618c0.05555,-6.41257 1.12386,-12.61686 1.08368,-19.0735c-0.03373,-5.41979 -0.71813,-9.85799 -0.27645,-15.24856c0.28039,-3.42215 1.406,-6.74723 1.60448,-10.17511c0.14657,-2.53137 -0.16547,-12.03874 0.20528,-14.00283c0.32939,-1.74503 1.74729,-3.13309 2.20967,-4.84767c1.35373,-5.02008 1.38696,-10.88564 2.56366,-16.03369c1.90193,-8.32091 5.21478,-16.23254 7.06912,-24.49749c0.65899,-4.62303 1.77382,-7.78894 3.57798,-11.95627c3.18409,-7.35477 4.57629,-14.97752 9.76223,-21.47662c1.68594,-2.11284 7.53274,-7.60857 10.1398,-7.76545c0.54934,-0.03306 9.70626,4.23439 11.39434,5.02777c13.49492,6.34236 24.30796,16.56059 36.20213,25.42502c6.16733,7.26669 14.60298,11.35838 21.56448,17.73932c1.25099,1.14665 1.96673,2.81221 3.26187,3.90875c1.39457,1.18072 3.28502,1.66717 4.69568,2.82862c1.73754,1.43058 3.01183,3.35434 4.66667,4.87982c5.12399,4.72345 11.12051,8.59636 16.32382,13.21853c1.61738,1.43674 2.87635,3.2417 4.46551,4.70959c3.11343,2.87587 5.24617,3.35774 8.37856,6.52145c2.54832,2.57382 4.07216,6.06054 6.69547,8.55788c0.77868,0.74129 1.96527,0.9405 2.76778,1.65591c4.54198,4.0491 7.0384,8.33193 11.75839,12.07167c0.59043,1.07298 1.18086,2.14598 1.7713,3.21894l1.62195,1.58789c7.62131,2.62644 15.27814,5.15837 22.91155,7.73107c7.81371,2.63348 15.76783,3.83725 23.54418,6.53648c9.28933,3.22439 21.88541,6.30989 26.07831,16.6445c0.76955,1.89678 0.42978,4.07125 0.64465,6.10688c-1.45679,9.08386 -4.23689,17.73295 -7.11058,26.39016c-0.6256,1.88467 -1.84124,3.55036 -2.37747,5.46236c-0.94975,3.38647 -1.04256,7.03527 -2.42683,10.26854c-2.19473,5.12628 -4.82449,12.24531 -10.67286,14.71118c-1.95913,0.82604 -4.19554,-0.69553 -6.30151,-0.98795c-1.64887,-0.22896 -3.31647,-0.31611 -4.96077,-0.57589c-3.58908,-0.56704 -7.02613,-1.86709 -10.48909,-2.96748c-0.50491,-0.16044 -1.0107,-0.31536 -1.51721,-0.46581c1.43414,3.44418 2.77879,6.91617 3.90614,10.42517c4.32213,13.45296 6.61542,27.08653 9.32497,40.8977c0.80022,4.07889 1.87799,8.12172 2.2897,12.25794c0.35589,3.57556 -0.41973,7.18756 -1.0061,10.73263c-0.16179,0.97816 -0.31368,1.94791 -0.46866,2.90667c4.16875,-1.49468 8.43562,-2.41134 12.82012,-3.47925zM129.81014,282.59099c-1.53534,0.20933 -5.90851,2.29138 -8.38529,2.26589c0.12377,0.37943 0.21595,0.77722 0.33005,1.14731c0.47011,1.52479 0.7552,3.10059 1.13279,4.65088c1.3216,5.42604 2.64319,10.85206 3.9648,16.27809c0.44565,1.91861 1.48494,7.15568 3.06471,8.74702c0.93923,0.94611 2.50186,1.06313 3.48306,1.96564c0.91842,0.84478 1.02669,2.42255 2.05544,3.12881c1.35324,0.92901 3.23935,0.73324 4.68974,1.50185c1.40011,0.74197 2.29275,2.27348 3.72268,2.95619c1.28385,0.61297 2.80839,0.47491 4.18836,0.82089c4.33303,1.08638 8.62604,2.33556 12.98085,3.33105c20.37248,4.65704 40.89581,8.4137 61.08484,13.96807c10.16079,2.79542 19.74808,6.34746 30.05527,8.69996c10.29293,3.14767 20.95909,5.37982 31.18827,8.62528c4.15216,1.31737 8.04419,3.15505 12.05548,4.62706c6.70517,2.46059 14.08049,2.57002 20.93831,4.3466c1.77894,0.46085 3.38017,1.49955 5.17115,1.9111c8.39534,1.92918 17.50797,3.13114 26.00366,4.13969c3.16637,0.37589 6.05661,2.01336 9.14571,2.80368c2.43871,0.62393 5.0312,-0.6125 7.54052,-0.41258c1.85481,0.14778 3.63218,0.80983 5.44827,1.21475c5.48527,0.05821 10.47116,-2.62648 16.12024,-2.45163c6.04677,0.18716 10.33592,0.57024 16.29863,-0.88941c1.86823,-0.45734 4.04911,0.06452 5.69454,-0.93151c1.66544,-1.00815 1.49193,-8.58346 1.25391,-10.1471c-0.59261,-3.893 -2.2256,-7.63497 -2.81815,-11.5345c-0.70389,-4.63217 -0.99342,-8.77627 -2.4326,-13.32251c-0.94764,-2.99349 -2.2624,-5.89269 -2.85873,-8.97545c-3.93226,-4.64435 -4.60371,-10.91924 -7.29473,-16.3793c-1.11532,-2.26297 -2.91375,-4.14477 -4.02465,-6.40993c-1.9075,-3.88951 -2.86826,-8.1857 -4.62791,-12.1443c-2.85333,-6.41898 -5.73024,-12.48721 -8.02735,-19.13377c-1.95335,-5.65195 -6.00847,-10.45751 -8.02933,-16.10923c-1.92868,-5.39395 -4.13507,-10.5651 -6.77783,-15.74876c-6.27514,-7.72178 -19.73395,-2.78158 -27.45275,-0.90153c-3.69112,0.89903 -6.92559,1.59353 -10.35731,3.22762l-1.85624,0.56832c0,0 -1.53559,0.37402 -3.20048,-0.06861c-1.11492,1.90083 -2.59112,3.6723 -4.603,5.28023c-7.97632,6.37483 -20.38791,7.52035 -29.8978,9.83664c-18.24886,4.44481 -36.44773,8.24091 -55.0683,10.70314c-9.91637,1.31127 -19.20796,3.06796 -29.18742,3.22991c-6.59133,0.10697 -12.95281,0.8597 -19.5383,-0.01038c-3.58263,-0.47334 -7.1853,-1.34853 -10.69503,-2.57888c-13.40204,3.24475 -26.91344,6.32427 -40.47804,8.17366zM256.15215,59.69657c-2.87109,-2.77575 -4.71267,-6.48527 -7.51509,-9.33036c-2.29625,-2.33122 -5.38807,-3.74913 -7.79979,-5.96069c-1.566,-1.43602 -2.79042,-3.22092 -4.37887,-4.63207c-5.23376,-4.64953 -11.24533,-8.55102 -16.41047,-13.29605c-1.50042,-1.37839 -2.60365,-3.16817 -4.1777,-4.46184c-1.49388,-1.22776 -3.46932,-1.78387 -4.9438,-3.03486c-1.4267,-1.21044 -2.28048,-2.99041 -3.6546,-4.26022c-6.93056,-6.40449 -15.39149,-10.43055 -21.56448,-17.73932c-9.81006,-7.20644 -18.85671,-15.23069 -29.17544,-21.56525c-1.84489,-1.13255 -7.73688,-2.07469 -9.23003,-4.42339c-0.67061,0.73572 -1.63871,1.23627 -2.26063,2.02609c-1.4159,1.79816 -2.47558,3.8572 -3.53856,5.88407c-3.55082,6.77061 -6.41836,14.93834 -7.48989,22.45542c-1.95506,8.43517 -5.22236,16.46466 -7.16281,24.95234c-1.21361,5.30849 -1.29315,11.24005 -2.6643,16.4427c-0.41538,1.5761 -1.77578,2.81756 -2.1035,4.41419c-0.82524,4.02029 0.2962,8.21581 0.04569,12.31227c-0.21244,3.47425 -1.32339,6.848 -1.61579,10.31643c-0.32416,3.84499 0.30448,10.65779 0.31916,14.16712c0.00292,0.69755 -0.00697,1.39192 -0.02698,2.0837c4.17465,-4.97254 8.4233,-9.86666 12.70669,-14.82423c4.70582,-5.4465 8.64553,-10.7816 14.49671,-14.91318c5.69852,-5.89635 11.48799,-11.52758 16.76241,-17.77061c3.79731,-4.49465 3.83746,-6.98609 10.70056,-9.50926c1.84299,-0.67757 3.93609,0.0928 5.87844,0.3809c5.15571,0.7647 9.54217,3.58455 14.41168,5.34558c15.42588,5.57869 30.39856,12.3305 45.51558,18.80031c5.21744,2.42973 10.50701,4.68734 15.8472,6.82215c-0.35136,-0.19153 -0.68535,-0.40536 -0.97136,-0.6819zM131.80646,91.04953c3.16048,4.06397 -0.7673,7.69395 -0.7673,7.69395c-9.3881,8.65419 -18.32187,19.54741 -24.60511,30.65609c-3.45489,6.1082 -5.65593,12.59839 -8.82336,18.74761c-0.93869,1.82236 -2.4831,3.27055 -3.55725,5.01651c-1.72033,2.79627 -2.42021,6.11755 -3.9493,9.02283c-2.09549,3.98147 -5.68488,8.38867 -6.01442,13.21531c-0.30305,4.43859 0.65593,9.05725 1.69798,13.31613c0.98576,10.12884 4.59996,16.45619 10.14601,24.64147c1.47872,2.18238 3.84023,3.79208 4.90508,6.20364c0.00223,0.00508 0.00422,0.01025 0.00594,0.01548c5.20988,-5.65512 9.83144,-11.96246 15.25279,-17.37716c4.08351,-4.0785 8.4171,-7.91548 12.77753,-11.73245c-0.9279,-6.22013 -1.75451,-12.45065 -2.41281,-18.6966c-0.15823,-1.50126 -0.26712,-3.01616 -0.33992,-4.54005c-3.53291,-0.54987 -4.47657,-4.4242 -4.47657,-4.4242l-0.44442,-1.82466c-2.57347,-11.2172 0.35923,-22.74681 3.59773,-33.51764c1.22988,-4.09043 2.59156,-8.40261 5.40049,-11.62041c3.96018,-4.5366 9.01172,-6.18942 14.03907,-8.82078c0.17226,-0.09016 7.84121,-5.01132 8.46386,-5.30378c8.9588,-4.20811 18.56479,-6.60323 28.13672,-8.88066c23.92108,-3.22788 48.22669,-3.96745 72.06517,0.31296c10.7348,1.92753 23.07476,4.22242 31.37722,12.07753c1.1438,1.08216 1.63419,2.70259 2.6187,3.93145c2.64453,3.3009 5.4821,6.5374 7.40163,10.30633c1.45694,2.86063 2.01833,6.09516 2.99834,9.15219c1.74262,5.43599 3.76553,10.75661 5.7988,16.10852c3.55208,0.93524 7.1339,1.75452 10.67869,2.83728c2.96076,0.90437 5.84855,2.16514 8.91133,2.61607c1.88077,0.27691 3.83751,0.16103 5.65961,0.70315c0.43344,0.12897 0.26735,1.38668 0.66956,1.17995c0.49242,-0.25308 0.03189,-1.12893 0.23402,-1.64436c0.23266,-0.59324 3.71409,-7.68949 4.15655,-9.70439c0.39383,-1.79345 0.18318,-3.69863 0.67918,-5.46657c2.79634,-9.96733 7.26758,-19.05569 9.10292,-29.37424c0.1739,-3.1031 -2.84657,-4.27949 -5.2307,-5.86383c-5.45825,-3.62714 -13.34635,-5.78715 -19.62857,-7.55375c-3.33549,-0.93796 -6.85029,-1.1271 -10.1917,-2.04378c-6.8531,-1.88006 -13.39566,-4.58492 -20.09262,-6.92191c-2.93514,-1.02425 -5.86989,-2.03095 -8.8013,-3.03436c-2.06593,0.22388 -3.77445,-0.95778 -4.46723,-1.52942c-12.92793,-4.43286 -25.76147,-8.9426 -38.246,-14.75654c-14.86649,-6.36932 -29.60601,-12.94593 -44.74923,-18.49007c-2.29884,-0.84164 -4.65201,-1.54979 -6.89149,-2.53857c-0.87151,-0.38478 -5.47525,-3.4073 -6.45724,-2.87074c-1.62716,0.88907 -3.99434,4.84187 -4.87949,5.88295c-1.83445,2.15764 -4.34244,3.68573 -6.13219,5.88058c-0.93975,1.15248 -1.34945,2.68446 -2.3225,3.80899c-2.93042,3.3866 -6.48185,6.18368 -9.62365,9.37515c-5.35705,3.47778 -9.11036,8.88622 -13.31036,13.766c-3.47903,4.04209 -6.94125,8.03463 -10.36023,12.06283zM147.49489,173.14178c11.58738,-12.38409 23.105,-24.6175 36.23394,-35.46378c3.00111,-5.06403 7.18316,-9.03712 10.84322,-13.57628c3.98247,-4.939 5.71865,-10.47315 9.37472,-15.51407c1.54165,-2.12559 1.94718,-6.5365 4.57022,-6.41609c4.96512,0.22792 8.73063,4.75487 13.04394,7.22465c4.82929,2.76525 9.21738,6.32367 14.25165,8.69529c2.36461,1.11394 5.00626,1.52723 7.43238,2.49993c7.14088,2.86299 13.8229,6.84863 20.98665,9.66963c8.15169,3.21004 16.36568,6.44422 24.59891,9.49955c-0.91029,-2.51726 -1.78683,-5.04473 -2.60418,-7.5944c-0.80819,-2.52107 -1.17065,-5.21952 -2.36607,-7.58169c-1.55476,-3.07222 -4.02202,-5.59246 -6.15029,-8.29918c-0.65907,-0.83821 -0.83217,-2.02643 -1.59189,-2.77461c-6.18865,-6.0949 -17.30574,-7.48488 -25.28007,-8.91502c-22.42158,-4.02111 -45.36156,-3.35737 -67.86837,-0.32471c-8.56273,2.05421 -17.11854,4.18114 -25.15597,7.8939c-2.96784,1.37095 -5.40981,3.69732 -8.30134,5.22267c-3.74316,1.9746 -7.6052,2.94839 -10.64864,6.21257c-2.77815,2.97966 -1.88668,3.66661 -2.91223,7.15616c-0.94365,3.21093 -2.20614,6.35605 -2.81964,9.64148c4.56396,0.71676 4.62382,5.65734 4.62382,5.65734c0.09725,8.04495 -0.59265,16.52644 0.27366,24.53141c0.38316,3.54062 0.81744,7.07577 1.29142,10.60663c2.81264,-2.59364 5.5588,-5.25618 8.17417,-8.05138zM287.62116,151.69582c-9.24007,-3.35572 -18.46907,-6.98797 -27.60415,-10.59774c-7.20176,-2.84582 -13.92551,-6.83749 -21.10466,-9.71627c-2.62442,-1.05238 -5.46762,-1.54446 -8.02246,-2.75603c-2.85746,-1.35507 -5.4198,-3.26055 -8.12366,-4.90081c-3.49723,-2.12153 -8.06564,-3.69349 -9.99393,-7.50066c-0.53635,0.52497 -1.08688,1.0502 -1.42773,1.67493c-1.35987,2.49249 -2.06666,5.33784 -3.64174,7.70021c-4.6227,6.93336 -10.73904,12.56263 -15.13601,19.63455c-13.03345,11.24914 -24.84777,23.33191 -36.58453,35.85557c-4.59916,4.9075 -9.58907,9.41697 -14.63584,13.86069c1.31671,8.31032 2.77204,16.60559 4.21643,24.90159c1.09672,6.29912 2.39171,12.41732 3.90962,18.64932c0.51079,2.09714 0.49887,4.37116 1.44158,6.31286c0.85909,1.76948 4.74998,6.11919 5.75229,7.29939c1.56113,1.96454 3.68655,3.46027 5.83601,4.75502c2.86189,1.72391 5.60744,3.87627 8.58664,5.51604c1.30023,-0.06374 3.46965,0.16005 4.87462,2.05451c7.77938,2.34051 16.46978,1.05697 24.35179,0.94172c9.53122,-0.13936 18.38328,-1.88152 27.87191,-3.13176c18.21268,-2.39972 35.99164,-6.12601 53.83825,-10.47285c7.36307,-1.7934 18.85831,-2.48503 25.16961,-7.44175c4.47978,-3.51829 3.93154,-8.56328 4.77903,-13.555c0.28718,-1.69147 0.99243,-3.30261 1.19568,-5.00619c0.53172,-4.45639 -1.56114,-9.68403 -2.39082,-13.92347c-2.62498,-13.41289 -4.8335,-26.6142 -9.01334,-39.68366c-1.9311,-6.03812 -4.5719,-11.96751 -7.15967,-17.82913c-2.35718,-0.73291 -4.69178,-1.57833 -6.98492,-2.64109z" fill="#000000" stroke="none" stroke-width="0.5"/><path d="M256.21055,59.72424c0.28602,0.27653 0.61994,0.4905 0.97131,0.68203c-5.34019,-2.13481 -10.63002,-4.3919 -15.84745,-6.82163c-15.11702,-6.46981 -30.09395,-13.2142 -45.51983,-18.79289c-4.8695,-1.76103 -9.27446,-4.56254 -14.43017,-5.32724c-1.94235,-0.28809 -4.07988,-1.04859 -5.92287,-0.37102c-6.86309,2.52317 -6.9314,5.00343 -10.72871,9.49809c-5.27443,6.24303 -11.06785,11.87123 -16.76637,17.76758c-5.85117,4.13158 -9.7072,9.36825 -14.41302,14.81475c-4.28339,4.95757 -8.61686,9.94914 -12.7915,14.92169c0.02,-0.69179 0.02912,-1.38684 0.0262,-2.08439c-0.01468,-3.50932 -0.64927,-10.32823 -0.32512,-14.17322c0.2924,-3.46843 1.39929,-6.84746 1.61174,-10.32171c0.2505,-4.09646 -0.87637,-8.30151 -0.05115,-12.3218c0.32772,-1.59663 1.68672,-2.84137 2.1021,-4.41747c1.37115,-5.20265 1.44635,-11.15244 2.65996,-16.46093c1.94045,-8.48768 5.21398,-16.55101 7.16904,-24.98618c1.07153,-7.51708 3.95647,-15.70676 7.50729,-22.47738c1.06299,-2.02687 2.12849,-4.09011 3.54439,-5.88827c0.62192,-0.78982 1.59284,-1.29208 2.26345,-2.0278c1.49315,2.34871 7.3918,3.28753 9.23668,4.42008c10.31872,6.33456 19.41321,14.3576 29.22327,21.56404c6.173,7.30877 14.67441,11.38066 21.60498,17.78515c1.37412,1.26981 2.22939,3.059 3.65608,4.26944c1.47448,1.25098 3.45016,1.81276 4.94404,3.04051c1.57405,1.29368 2.67694,3.09002 4.17736,4.46842c5.16514,4.74503 11.17438,8.65825 16.40814,13.30778c1.58845,1.41115 2.81194,3.19893 4.37793,4.63496c2.41172,2.21156 5.50265,3.63185 7.79891,5.96308c2.80241,2.8451 4.64227,6.55859 7.51336,9.33434z" data-paper-data="{&quot;noHover&quot;:false,&quot;origItem&quot;:[&quot;Path&quot;,{&quot;applyMatrix&quot;:true,&quot;segments&quot;:[[[294.82465,59.53341],[0,0],[-1.65071,-2.61334]],[[290.88212,51.14018],[1.58636,2.65291],[-1.29984,-2.17375]],[[286.10827,45.22889],[1.40859,2.10491],[-0.91464,-1.36677]],[[283.66369,40.94337],[0.93608,1.35218],[-3.08429,-4.45524]],[[273.75797,27.93847],[3.01519,4.51449],[-0.87588,-1.31142]],[[271.43349,23.81781],[0.94677,1.2612],[-0.89855,-1.19694]],[[268.2715,20.62996],[0.87971,1.21085],[-0.8512,-1.17161]],[[266.30347,16.75674],[0.80079,1.20663],[-4.03888,-6.08582]],[[253.33565,-0.53368],[3.30353,6.62711],[-6.05745,-7.21635]],[[235.34497,-22.0954],[6.59968,6.65384],[-1.17996,-1.18964]],[[229.21395,-27.11257],[0.69268,2.03979],[-0.63908,0.43045]],[[227.14277,-26.00297],[0.61237,-0.48005],[-1.39417,1.09292]],[[223.40389,-22.22614],[1.17066,-1.32956],[-3.91048,4.4413]],[[213.65814,-6.71093],[2.18272,-5.45679],[-3.01532,5.98538]],[[203.70101,10.74194],[3.01395,-6.02755],[-1.88502,3.76984]],[[198.68559,22.61931],[1.98411,-3.66139],[-0.60107,1.10919]],[[196.29515,25.55361],[0.53891,-1.14068],[-1.35699,2.87222]],[[194.07429,34.82116],[0.93873,-3.03477],[-0.79614,2.57382]],[[190.96952,42.28345],[0.8552,-2.5548],[-0.94806,2.83217]],[[188.61456,52.99599],[0.63176,-2.6418],[-0.12557,0.52511]],[[188.2126,54.55805],[0.14176,-0.51658],[4.05027,-2.97483]],[[200.48373,45.73727],[-4.1293,2.94365],[4.53654,-3.23396]],[[214.1173,37.17748],[-5.15703,2.03531],[5.36548,-3.39043]],[[229.97814,26.88382],[-5.11005,3.72883],[3.67897,-2.68456]],[[239.76707,21.69259],[-5.62341,0.64039],[1.51009,-0.17197]],[[244.11806,23.05578],[-1.40793,-0.57243],[3.73717,1.51944]],[[253.97691,29.71558],[-3.33944,-2.21629],[10.57886,7.02088]],[[284.76231,52.19099],[-10.18337,-7.63445],[3.47861,2.7829]],[[295.43025,60.22416],[-3.62494,-2.5836],[-0.22915,-0.20839]],[[294.82466,59.53343],[0.16444,0.26035],[0,0]]],&quot;closed&quot;:true,&quot;fillColor&quot;:[0,0,0,1]}]}" fill="#ffffff" stroke="none" stroke-width="0.5"/><path d="M131.74466,91.0307c3.41898,-4.0282 6.88621,-8.03271 10.36523,-12.0748c4.20001,-4.87978 7.96342,-10.30207 13.32047,-13.77984c3.14181,-3.19147 6.70253,-5.99658 9.63295,-9.38317c0.97305,-1.12452 1.38576,-2.65854 2.32551,-3.81101c1.78974,-2.19486 4.30402,-3.72642 6.13847,-5.88405c0.88515,-1.04109 3.2576,-4.99614 4.88475,-5.8852c0.982,-0.53656 5.5899,2.48454 6.46142,2.86932c2.23948,0.98879 4.59793,1.69558 6.89677,2.53722c15.14322,5.54414 29.92986,12.12887 44.79635,18.49819c12.48453,5.81395 25.34192,10.34955 38.26985,14.78241c0.69278,0.57165 2.40247,1.75576 4.46841,1.53188c2.9314,1.0034 5.86796,2.0145 8.8031,3.03875c6.69695,2.337 13.24189,5.04983 20.09499,6.92988c3.34141,0.91668 6.8567,1.10818 10.19219,2.04614c6.28223,1.7666 14.17111,3.93194 19.62936,7.55909c2.38414,1.58434 5.40484,2.76371 5.23094,5.86681c-1.83534,10.31855 -6.30737,19.42131 -9.10371,29.38865c-0.49601,1.76794 -0.28586,3.67581 -0.6797,5.46926c-0.44246,2.01491 -3.92517,9.11619 -4.15784,9.70944c-0.20213,0.51542 0.25814,1.39207 -0.23428,1.64515c-0.40221,0.20672 -0.35959,-1.08904 -0.79303,-1.21801c-1.8221,-0.54212 -3.65539,-0.38815 -5.53616,-0.66506c-3.06279,-0.45093 -5.95062,-1.71161 -8.91137,-2.61598c-3.54478,-1.08276 -7.24976,-1.94111 -10.80184,-2.87636c-2.03328,-5.3519 -4.05841,-10.66328 -5.80104,-16.09927c-0.98001,-3.05702 -1.5421,-6.28534 -2.99904,-9.14597c-1.91953,-3.76893 -4.75714,-6.99761 -7.40167,-10.29849c-0.98451,-1.22886 -1.47463,-2.84596 -2.61843,-3.92811c-8.30245,-7.85511 -20.63733,-10.13096 -31.37213,-12.0585c-23.83847,-4.28041 -48.03512,-3.52576 -71.95619,-0.29789c-9.57193,2.27743 -19.16474,4.64559 -28.12353,8.85371c-0.62265,0.29247 -8.29039,5.20642 -8.46266,5.29657c-5.02736,2.63136 -10.07855,4.27543 -14.03873,8.81203c-2.80894,3.2178 -4.17148,7.52102 -5.40136,11.61146c-3.2385,10.77085 -6.17845,22.27982 -3.60499,33.497l0.44384,1.82362c0,0 0.9415,3.87086 4.4744,4.42073c0.07278,1.52389 0.18019,3.03667 0.33842,4.53793c0.65829,6.24594 1.47852,12.46898 2.40641,18.68911c-4.36043,3.81696 -8.69377,7.65419 -12.77729,11.73269c-5.42135,5.4147 -10.04344,11.72151 -15.25331,17.37664c-0.00172,-0.00523 -0.09483,0.08118 -0.09706,0.0761c-1.06485,-2.41155 -3.42872,-4.02372 -4.90744,-6.20611c-5.54605,-8.18527 -9.16716,-14.52178 -10.15291,-24.65062c-1.04206,-4.25888 -2.00386,-8.88257 -1.70082,-13.32116c0.32953,-4.82665 3.91698,-9.23809 6.01247,-13.21955c1.52908,-2.90527 2.22764,-6.23001 3.94797,-9.02628c1.07415,-1.74596 2.61794,-3.19605 3.55662,-5.01841c3.16744,-6.14923 5.36623,-12.64892 8.82113,-18.75711c6.28324,-11.10868 15.21747,-22.02457 24.60557,-30.67875c0,0 3.92934,-3.63617 0.76886,-7.70014z" data-paper-data="{&quot;noHover&quot;:false,&quot;origItem&quot;:[&quot;Path&quot;,{&quot;applyMatrix&quot;:true,&quot;segments&quot;:[[[195.57023,60.33548],[0,0],[1.63238,3.63513]],[[193.58391,65.981],[0,0],[-8.6453,4.78859]],[[169.46492,84.52837],[6.75994,-7.20315],[-3.71701,3.96071]],[[159.39552,97.01095],[3.50835,-4.04422],[-1.03972,1.19853]],[[155.80149,100.13193],[1.1276,-1.11626],[-1.80593,1.78777]],[[151.1788,106.19397],[1.68207,-1.90477],[-2.30515,2.61035]],[[144.23515,115.03061],[1.13191,-3.56942],[-1.04091,3.28244]],[[143.07298,125.35574],[-0.00356,-3.39367],[-1.11397,7.79774]],[[146.18952,145.74526],[-2.6715,-7.17142],[0.71229,1.91207]],[[148.74197,151.30903],[-0.35908,-2.0086],[0.00075,0.00423]],[[148.7436,151.32176],[-0.00033,-0.00425],[4.95382,-3.29853]],[[163.39709,141.04747],[-5.06881,3.07899],[3.81797,-2.31918]],[[175.15518,134.56478],[-3.97832,2.07177],[0.44153,-4.84768]],[[176.76532,120.06245],[-0.64901,4.81771],[0.15599,-1.15797]],[[177.34129,116.58594],[-0.22439,1.15934],[-2.55613,-1.06064]],[174.78516,112.43885],[[174.78516,110.98525],[0,0],[0.11932,-8.90703]],[[183.63015,86.43801],[-4.40833,7.50679],[1.67415,-2.85085]],[[189.81997,78.68833],[-2.7018,1.90537],[3.80913,-2.68627]],[[201.99345,74.62637],[-4.2627,1.058],[0.14606,-0.03625]],[[209.33,72.18809],[-0.52182,0.10589],[7.50807,-1.52365]],[[232.11628,70.66335],[-7.61552,-0.04059],[18.58058,1.95414]],[[286.25403,84.0988],[-17.14318,-7.58546],[7.71981,3.41584]],[[307.63837,98.92878],[-4.80487,-7.42802],[0.66195,1.02332]],[[308.88759,102.36501],[-0.51529,-1.10447],[1.38414,2.96676]],[[312.56603,111.47142],[-0.75319,-3.18594],[0.57168,2.41814]],[[313.14447,118.90333],[-0.17704,-2.47848],[0.3148,4.40721]],[[314.55476,132.07956],[-0.54878,-4.39722],[2.49996,1.35396]],[[322.06574,136.16928],[-2.46745,-1.46356],[2.06092,1.22243]],[[328.28814,139.76892],[-2.22071,-0.90012],[1.36367,0.55274]],[[332.41553,141.33437],[-1.27097,-0.74144],[0.30234,0.17638]],[[332.70293,142.34437],[-0.34034,0.08179],[0.41667,-0.10013]],[[333.18012,141.15063],[-0.24642,0.35059],[0.28363,-0.40352]],[[338.08351,134.614],[-0.70181,1.43422],[0.62468,-1.27659]],[[339.59558,130.62739],[-0.69684,1.23869],[3.92863,-6.98352]],[[351.82169,110.20449],[-3.27027,7.42367],[0.69917,-2.30177]],[[348.96212,104.83662],[1.50274,1.62817],[-3.44038,-3.7275]],[[335.58448,95.56064],[4.40083,2.47924],[-2.33658,-1.31633]],[[328.29439,92.15686],[2.34493,1.30141],[-4.80936,-2.66913]],[[314.45204,83.27104],[4.60824,2.98416],[-2.0197,-1.30789]],[[308.38901,79.37699],[2.02071,1.29153],[-1.59465,-0.21005]],[[305.30967,77.40856],[0.41628,0.55679],[-8.91021,-5.70163]],[[279.25052,59.30574],[8.32379,6.65903],[-10.01337,-7.51299]],[[248.98462,37.20401],[10.37262,6.94312],[-1.57463,-1.05401]],[[244.26701,34.03262],[1.50304,1.1538],[-0.58492,-0.449]],[[239.93681,30.69098],[0.83677,-0.22364],[-1.38652,0.37056]],[[235.18972,34.22136],[0.85635,-0.6208],[-1.77477,1.28659]],[[229.501,37.5205],[1.74797,-1.32277],[-0.91782,0.69456]],[[227.05673,39.95956],[0.93774,-0.66744],[-2.82408,2.01006]],[[218.10223,45.24719],[2.94731,-1.8246],[-4.66567,1.63414]],[[205.57095,53.16157],[4.05235,-2.90042],[-3.35671,2.40252]],[[195.57023,60.33549],[3.30901,-2.40307],[0,0]]],&quot;closed&quot;:true,&quot;fillColor&quot;:[0,0,0,1]}]}" fill="#ffffff" stroke="none" stroke-width="0.5"/><path d="M147.54784,173.1048c-2.61537,2.7952 -5.46658,5.53294 -8.27923,8.12657c-0.47398,-3.53086 -0.91238,-7.07241 -1.29554,-10.61302c-0.86632,-8.00497 -0.18341,-16.50503 -0.28065,-24.54998c0,0 -0.06078,-4.94614 -4.62474,-5.66289c0.6135,-3.28543 1.87555,-6.43894 2.81919,-9.64988c1.02553,-3.48956 0.1345,-4.18327 2.91265,-7.16292c3.04344,-3.26417 6.90692,-4.24592 10.65008,-6.22052c2.89153,-1.52535 5.33612,-3.85995 8.30397,-5.2309c8.03744,-3.71276 16.61061,-5.86446 25.17334,-7.91868c22.50681,-3.03264 45.54454,-3.6818 67.96611,0.33931c7.97433,1.43013 19.09891,2.83765 25.28757,8.93255c0.75971,0.74818 0.93344,1.93908 1.59252,2.77729c2.12826,2.70671 4.59672,5.23477 6.15148,8.30699c1.19543,2.36217 1.55815,5.06696 2.36634,7.58802c0.81734,2.54966 1.69357,5.0831 2.60386,7.60036c-8.23324,-3.05533 -16.57608,-6.2945 -24.72777,-9.50454c-7.16376,-2.821 -13.84303,-6.78938 -20.9839,-9.65238c-2.42612,-0.9727 -5.06445,-1.37734 -7.42906,-2.49128c-5.03429,-2.37162 -9.39928,-5.9034 -14.22857,-8.66864c-4.3133,-2.46978 -8.04666,-6.98624 -13.01178,-7.21416c-2.62303,-0.12041 -3.01671,4.29001 -4.55835,6.41559c-3.65605,5.04092 -5.3454,10.5442 -9.32787,15.48321c-3.66006,4.53916 -7.83507,8.46267 -10.83618,13.52669c-13.12894,10.84627 -24.65608,23.05913 -36.24345,35.44321z" data-paper-data="{&quot;noHover&quot;:false,&quot;origItem&quot;:[&quot;Path&quot;,{&quot;applyMatrix&quot;:true,&quot;segments&quot;:[[[192.33164,124.94484],[0,0],[10.98242,-7.19074]],[[226.07646,104.91199],[-11.86004,5.7519],[3.18449,-3.25858]],[[236.71762,96.68838],[-3.5839,2.74317],[3.8996,-2.98481]],[[246.60937,86.73851],[-3.6728,3.12124],[1.5487,-1.31612]],[[251.22153,82.75055],[-1.95054,-0.57101],[3.69216,1.08086]],[[259.70761,90.57294],[-2.79134,-2.64741],[3.12526,2.96412]],[[268.83256,99.72251],[-3.35152,-2.70565],[1.57421,1.27084]],[[273.96401,102.96391],[-1.64634,-1.17589],[4.84573,3.46104]],[[287.9754,114.07985],[-4.87063,-3.43365],[5.54233,3.90718]],[[304.73447,125.72954],[-5.63199,-3.80577],[-0.22348,-2.05979]],[[304.16711,119.54133],[0.14765,2.06713],[-0.146,-2.04395]],[[303.77648,113.40629],[0.46632,1.99539],[-0.60649,-2.59518]],[[300.67144,106.03853],[1.10473,2.42536],[-0.34211,-0.75108]],[[299.98252,103.66036],[0.43428,0.70181],[-3.53765,-5.71711]],[[282.60413,92.32549],[5.73497,2.53615],[-16.12513,-7.13093]],[[231.62464,79.64992],[17.48126,1.84191],[-6.81569,-0.0236]],[[211.26071,80.97857],[6.72444,-1.31989],[-2.48302,0.48738]],[[204.06123,83.38562],[2.45391,-0.61747],[-3.17665,0.79933]],[[194.9152,86.10715],[2.88665,-1.89729],[-2.63503,1.73192]],[[191.41434,90.95536],[1.41041,-2.4364],[-1.29779,2.24187]],[[187.52787,97.68956],[1.06316,-2.35836],[3.30094,1.375]],[[189.96887,102.79098],[0,0],[-1.40045,6.06785]],[[185.68128,121.28943],[0.81477,-6.17865],[-0.36038,2.73283]],[[184.70966,129.50247],[0.2903,-2.74213],[2.59026,-1.4353]],[[192.33163,124.94485],[-2.47883,1.62302],[0,0]]],&quot;closed&quot;:true,&quot;fillColor&quot;:[0,0,0,1]}]}" fill="#ffffff" stroke="none" stroke-width="0.5"/><path d="M287.67674,151.66291c2.29313,1.06275 4.62995,1.91227 6.98713,2.64518c2.58778,5.86162 5.23372,11.80536 7.16482,17.84348c4.17984,13.06946 6.38821,26.30038 9.01319,39.71327c0.82968,4.23944 2.91997,9.47528 2.38825,13.93167c-0.20326,1.70358 -0.90979,3.31782 -1.19697,5.00929c-0.84748,4.99172 -0.30359,10.04482 -4.78338,13.5631c-6.31131,4.95672 -17.81597,5.66 -25.17904,7.4534c-17.84662,4.34683 -35.66526,8.09132 -53.87794,10.49104c-9.48864,1.25024 -18.3642,2.99006 -27.89542,3.12942c-7.88201,0.11525 -16.58857,1.39157 -24.36795,-0.94894c-1.40497,-1.89446 -3.57757,-2.12037 -4.87781,-2.05664c-2.9792,-1.63977 -5.73052,-3.79674 -8.59241,-5.52065c-2.14945,-1.29476 -4.27875,-2.79426 -5.83987,-4.7588c-1.00231,-1.1802 -4.89754,-5.53501 -5.75662,-7.30449c-0.94272,-1.9417 -0.93332,-4.21928 -1.44411,-6.31643c-1.51791,-6.23199 -2.81933,-12.36269 -3.91605,-18.66181c-1.44439,-8.29601 -2.90391,-16.61085 -4.22062,-24.92117c5.04678,-4.44372 10.03723,-8.96585 14.63638,-13.87335c11.73675,-12.52365 23.57976,-24.65144 36.6132,-35.90058c4.39697,-7.07192 10.53462,-12.71015 15.15732,-19.64351c1.57508,-2.36238 2.28639,-5.20856 3.64625,-7.70105c0.34085,-0.62473 0.89279,-1.15016 1.42914,-1.67513c1.9283,3.80717 6.5054,5.37863 10.00264,7.50016c2.70386,1.64025 5.27464,3.54639 8.1321,4.90145c2.55484,1.21157 5.40663,1.70548 8.03104,2.75786c7.17915,2.87878 13.92456,6.88135 21.12631,9.72716c9.13509,3.60978 18.38031,7.26036 27.62039,10.61608z" data-paper-data="{&quot;noHover&quot;:false,&quot;origItem&quot;:[&quot;Path&quot;,{&quot;applyMatrix&quot;:true,&quot;segments&quot;:[[[301.63885,134.48363],[0,0],[-6.33414,-4.21609]],[[282.82091,121.4576],[6.20865,4.38792],[-4.89466,-3.45927]],[[268.72932,110.28497],[4.87162,3.47992],[-1.78087,-1.27213]],[[263.20102,106.74289],[1.69939,1.3791],[-1.90069,-1.54245]],[[257.98947,101.56934],[1.73294,1.72878],[-2.24142,-2.23604]],[[251.84763,94.09805],[0.75278,3.21631],[-0.49951,0.29655]],[[250.46714,95.09613],[0.37076,-0.40738],[-1.47921,1.62534]],[[246.31801,100.21986],[1.61722,-1.48807],[-4.74638,4.36735]],[[231.33886,112.21316],[4.602,-4.5129],[-11.86202,6.07236]],[[197.25862,132.47643],[11.12032,-7.26834],[-4.3576,2.84816]],[[183.7132,140.21924],[4.60927,-2.41739],[-0.53199,6.49078]],[[182.32288,159.71827],[0.43335,-6.5034],[-0.32904,4.938]],[[181.84705,174.45921],[0,-4.96467],[0,1.67067]],[[181.77484,179.47071],[-0.35329,-1.63289],[0.32194,1.48806]],[[184.76371,186.0137],[-0.53759,-1.07114],[0.81417,1.76334]],[[188.28158,190.65859],[-1.37929,-1.36741],[1.83646,1.82064]],[[193.72861,196.37961],[-1.94009,-1.77885],[0.98949,0.19023]],[[197.01814,198.81754],[-0.70957,-1.68204],[5.42161,3.18507]],[[215.15889,203.98623],[-5.94861,-1.35707],[7.19328,1.64102]],[[236.69301,206.73633],[-7.36473,-0.79781],[14.13601,1.53134]],[[279.09922,208.72194],[-14.21737,0],[5.86573,0]],[[299.39059,207.73582],[-5.6542,2.57156],[4.01337,-1.8253]],[[305.46741,198.41744],[-1.55166,3.59868],[0.52579,-1.21943]],[[307.28358,194.87165],[-0.4649,1.24391],[1.21614,-3.25394]],[[308.03596,183.96288],[-0.15259,3.34015],[0.48277,-10.56769]],[[308.52648,152.46866],[0.74944,10.59423],[-0.34625,-4.89456]],[[306.40794,137.74921],[0.87242,4.88211],[-1.63842,-0.98293]],[[301.63885,134.48362],[1.52984,1.21925],[0,0]]],&quot;closed&quot;:true,&quot;fillColor&quot;:[0,0,0,1]}]}" fill="#ffeaab" stroke="none" stroke-width="0.5"/><path d="M129.74902,282.57009c13.5646,-1.84939 27.081,-4.94001 40.48304,-8.18476c3.50974,1.23035 7.1134,2.10385 10.69603,2.57719c6.58549,0.87008 12.95142,0.11096 19.54275,0.00398c9.97947,-0.16196 19.28589,-1.93234 29.20227,-3.24361c18.62056,-2.46223 36.87218,-6.26692 55.12104,-10.71173c9.50989,-2.31628 21.93895,-3.45416 29.91528,-9.82899c2.01188,-1.60793 3.48868,-3.37901 4.60361,-5.27985c1.66491,0.44262 3.20197,0.0696 3.20197,0.0696l1.85687,-0.56787c3.43173,-1.63409 6.66934,-2.32623 10.36046,-3.22527c7.7188,-1.88004 21.18574,-6.8125 27.46088,0.90927c2.64277,5.18367 4.85439,10.3616 6.78307,15.75555c2.02087,5.65172 6.08067,10.46552 8.03402,16.11746c2.29711,6.64656 5.17788,12.72504 8.03121,19.14402c1.75965,3.9586 2.72189,8.26134 4.62939,12.15085c1.1109,2.26515 2.90984,4.15047 4.02515,6.41344c2.69102,5.46006 3.3629,11.7432 7.29515,16.38755c0.59634,3.08276 1.91091,5.98615 2.85855,8.97965c1.43918,4.54624 1.72798,8.69627 2.43187,13.32845c0.59256,3.89952 2.22457,7.64619 2.81716,11.53919c0.23802,1.56364 0.41031,9.14321 -1.25514,10.15135c-1.64543,0.99602 -3.82668,0.4753 -5.69491,0.93263c-5.96271,1.45966 -10.25293,1.07948 -16.2997,0.89232c-5.64908,-0.17486 -10.63684,2.51411 -16.12212,2.45589c-1.81609,-0.40492 -3.5938,-1.06629 -5.44861,-1.21407c-2.50932,-0.19993 -5.1029,1.03859 -7.54161,0.41466c-3.0891,-0.79033 -5.97999,-2.42663 -9.14636,-2.80252c-8.4957,-1.00855 -17.61319,-2.20322 -26.00853,-4.13241c-1.79098,-0.41155 -3.39324,-1.44895 -5.17217,-1.90981c-6.85781,-1.77658 -14.243,-1.87623 -20.94818,-4.33681c-4.01129,-1.47201 -7.91333,-3.30311 -12.0655,-4.62048c-10.22918,-3.24547 -20.96059,-5.48038 -31.25351,-8.62805c-10.30721,-2.35249 -19.92117,-5.93957 -30.08196,-8.73499c-20.18902,-5.55436 -40.7153,-9.33032 -61.08778,-13.98735c-4.35481,-0.99549 -8.6478,-2.24647 -12.98083,-3.33286c-1.37997,-0.34599 -2.90448,-0.20831 -4.18833,-0.82127c-1.42994,-0.68271 -2.3225,-2.21566 -3.72262,-2.95763c-1.45037,-0.76861 -3.33645,-0.57345 -4.6897,-1.50246c-1.02876,-0.70627 -1.1369,-2.28546 -2.05532,-3.13025c-0.98118,-0.90251 -2.54375,-1.02032 -3.48297,-1.96643c-1.57977,-1.59134 -2.61857,-6.83222 -3.06422,-8.75082c-1.3216,-5.42604 -2.64179,-10.85861 -3.96339,-16.28465c-0.3776,-1.55029 -0.66221,-3.12781 -1.13232,-4.65261c-0.1141,-0.37008 -0.20616,-0.76828 -0.32993,-1.1477c2.47678,0.0255 6.85059,-2.05853 8.38593,-2.26785z" data-paper-data="{&quot;noHover&quot;:false,&quot;origItem&quot;:[&quot;Path&quot;,{&quot;applyMatrix&quot;:true,&quot;segments&quot;:[[[158.98451,204.01449],[0,0],[-1.19296,-0.12381]],[[152.26349,204.18258],[1.85794,0.47284],[0.02358,0.30801]],[[152.30155,205.10584],[-0.01802,-0.29921],[0.07424,1.2328]],[[152.30155,208.81093],[0,-1.23503],[0,4.32261]],[[152.30155,221.77875],[0,-4.32261],[-0.01629,1.52448]],[[153.00412,228.91812],[-0.89655,-1.4861],[0.53303,0.88354]],[[155.26343,231.03433],[-0.57257,-0.85844],[0.53594,0.80353]],[[156.23608,233.76378],[-0.64429,-0.71957],[0.84751,0.94652]],[[159.4878,235.75223],[-0.94994,-0.84368],[0.91702,0.81444]],[[161.74588,238.65725],[-0.9503,-0.77534],[0.85322,0.69613]],[[164.74528,240.04176],[-0.9744,-0.51296],[3.05957,1.61067]],[[173.89711,244.92449],[-3.0926,-1.5463],[14.46767,7.23383]],[[217.27615,266.61772],[-14.16534,-7.87504],[7.12917,3.96337]],[[238.28502,278.66553],[-7.32041,-3.6571],[7.16402,4.25248]],[[260.15961,290.86471],[-7.09817,-4.31435],[2.88124,1.75125]],[[268.37814,296.55258],[-2.74698,-1.84174],[4.59178,3.07861]],[[283.32819,303.65659],[-4.83186,-2.59218],[1.2534,0.67242]],[[286.86699,306.04099],[-1.27149,-0.63755],[5.96017,2.98857]],[[305.66423,313.91722],[-6.20427,-2.31461],[2.31235,0.86266]],[[312.02852,317.70088],[-2.17833,-1.16018],[1.7197,0.91591]],[[317.77478,318.7718],[-1.85046,-0.60998],[1.3678,0.45088]],[[321.64953,320.68328],[-1.29158,-0.63716],[4.11442,1.04851]],[[334.22147,321.79231],[-4.21624,-1.16623],[4.51306,1.24833]],[[346.64142,324.10885],[-4.75149,0.00552],[1.48874,-0.00173]],[[351.0945,324.45139],[-1.41985,0.44765],[1.43712,-0.4531]],[[353.89611,317.05016],[-0.10741,1.2195],[0.26742,-3.03619]],[[353.88954,307.85969],[-0.26865,3.04109],[0.31912,-3.61246]],[[354.50042,297.3952],[0.24958,3.68252],[-0.16434,-2.42477]],[[353.99459,290.12177],[-0.1162,2.42756],[-2.10647,-4.21295]],[[351.50892,276.4679],[1.02361,4.59903],[-0.42425,-1.90611]],[[349.65637,270.91026],[0.42052,1.90694],[-0.72206,-3.27442]],[[348.4005,260.92971],[0.59822,3.29929],[-0.97003,-5.3499]],[[345.86841,245.0702],[0.51005,5.41917],[-0.43372,-4.60822]],[[342.78083,231.48487],[0.48453,4.62042],[-0.46242,-4.40968]],[[340.56839,218.39986],[1.03795,4.38234],[-3.30469,-6.95641]],[[320.08827,212.69339],[6.14912,0],[-2.9405,0]],[[311.70807,213.22352],[2.88007,-0.6003],[0,0]],[310.20803,213.31091],[[307.81374,212.67309],[1.17098,0.63782],[-1.18663,1.22526]],[[303.38498,215.80085],[1.80751,-0.8407],[-7.16609,3.33304]],[[279.09921,217.72194],[7.57598,0],[-14.53782,0]],[[235.72579,215.68421],[14.4542,1.55904],[-7.69758,-0.83026]],[[213.18439,212.76697],[7.53451,1.70613],[-4.97647,-1.12688]],[[198.49293,209.18036],[4.79311,1.86058],[-2.60754,-1.01219]],[[190.92233,205.28197],[2.41406,1.56813],[-10.67305,-0.01469]],[[158.98452,204.01448],[10.53972,1.09382],[0,0]]],&quot;closed&quot;:true,&quot;fillColor&quot;:[0,0,0],&quot;strokeWidth&quot;:0.5}]}" fill="#7aff69" stroke="none" stroke-width="0.25"/><path d="M119.10354,283.16267c0.59853,-0.33152 1.36282,-0.54318 2.33877,-0.54318c2.56214,0 3.66549,1.45879 4.14063,2.7152c0.81343,0.41229 1.55441,0.88728 1.93899,1.6707c0.85478,1.74126 0.67207,10.27394 0.67207,12.49839c0,5.29834 1.15096,13.14255 -0.67207,18.12761c-0.28821,0.78811 -1.85524,0.38624 -2.25169,1.12584c-0.33365,0.62246 0.67415,1.35009 0.55169,2.04563c-0.23061,1.30988 -1.90763,3.7739 -2.47385,5.19156c-1.04221,2.60943 -2.25218,5.17795 -3.79076,7.52914c-1.57106,2.25715 -1.94618,5.15729 -3.20586,7.6019c-1.34102,2.60247 -5.60502,5.08772 -6.36405,8.09364c-0.36752,1.45544 0.42362,3.06326 0,4.50338c-0.44855,1.52489 -1.81616,2.62354 -2.51618,4.05059c-0.54079,1.10244 -0.56511,2.42735 -1.18226,3.48893c-1.1173,1.9219 -2.54628,3.65096 -3.964,5.36331c-0.49045,0.59238 -1.40464,0.82609 -1.73533,1.52043c-0.56389,1.18396 -0.36476,2.61812 -0.82126,3.84749c-0.16738,0.45076 -4.86673,9.79861 -5.07327,10.07669c-1.20365,1.62056 -3.28271,2.50983 -4.32604,4.23797c-1.10372,1.82816 -1.09269,4.14352 -1.92216,6.11135c-1.11247,2.63923 -2.23771,5.32078 -3.8844,7.66419c-1.41985,2.02059 -3.35078,3.64122 -5.20556,5.27172c-1.18561,1.04225 -2.94541,1.44312 -3.88006,2.71528c-1.18318,1.61044 -0.97777,3.99939 -2.20937,5.5731c-1.62395,2.07505 -4.23474,3.16797 -6.09326,5.03584c-2.1129,2.12353 -3.84768,4.59241 -5.77151,6.88861c-2.35682,1.58731 -4.79883,3.05493 -7.07046,4.76194c-5.14713,3.8678 -7.39399,7.11478 -13.36977,9.56474c-2.34065,0.95963 -4.96697,1.02362 -7.36669,1.82416c-8.85988,2.95563 -17.05276,7.19158 -26.43981,8.61099c-0.27714,0.04191 -9.51467,0.03372 -10.68242,0.03372c-7.22906,0 -14.58295,0.36816 -21.79517,-0.01818c-9.17715,-0.49161 -17.13762,-4.2111 -25.69966,-6.93953c-7.99976,-2.54925 -16.48392,-3.52119 -24.21389,-6.98375c-4.25176,-1.90454 -7.93795,-4.47605 -11.75845,-7.02118c-4.36421,-2.61835 -8.58015,-5.47644 -12.89178,-8.18048c-2.66895,-1.67383 -5.62531,-2.91374 -8.11662,-4.84206c-2.40403,-1.86077 -4.12298,-4.49318 -6.45844,-6.43932c-2.26145,-1.88447 -5.30308,-2.82029 -7.27567,-5.00531c-1.78407,-1.97619 -2.08766,-4.94954 -3.65457,-7.10198c-1.62324,-2.22982 -4.35492,-3.54948 -5.80656,-5.89463c-3.44472,-5.56502 -4.34876,-15.16033 -6.12873,-21.39676c-0.84328,-2.95457 -4.2135,-14.58314 -4.73207,-17.36104c-1.86656,-9.99899 -2.787,-20.3163 -4.37629,-30.36268c-1.68228,-10.63415 -5.45954,-21.04091 -7.39516,-31.66655c-1.28242,-7.05329 -2.99956,-14.53478 -3.91606,-21.63998c-1.1772,-9.12633 -0.01822,-19.34319 -0.01818,-28.55699c0.00004,-10.30747 -0.73102,-21.09419 1.21068,-31.26069c0.52472,-2.74736 1.60367,-5.36091 2.29354,-8.07152c0.53893,-2.11751 0.5014,-4.41005 1.39108,-6.40573c0.88231,-1.97915 2.56002,-3.49712 3.81208,-5.26569c0.90419,-1.2772 1.54422,-2.76985 2.65617,-3.87093c2.71408,-2.68753 6.46644,-4.06877 9.6446,-6.18734c2.73363,-1.82225 5.17782,-4.3865 8.35237,-5.23241c0.60482,-0.16116 10.61092,-0.12038 11.16649,-0.12038c8.87524,0 17.17073,0.21747 25.85331,2.38438c1.1645,0.29063 8.3333,2.98899 10.72353,3.27855c1.64231,0.19896 3.36083,-0.33398 4.9623,0.08081c2.08155,0.53913 3.86121,1.9007 5.84946,2.71947c6.99153,2.87912 13.8133,5.81931 20.77574,8.77427c3.32588,1.41155 12.22413,4.50207 14.84416,5.72276c8.56527,3.99061 17.48053,9.86446 25.10823,15.47459c2.34535,1.72499 4.30104,3.96687 6.74518,5.5488c2.48272,1.60691 5.39357,2.45443 7.94102,3.95662c4.42827,2.61127 8.32235,6.03754 12.4773,9.06486c12.3802,6.91234 24.47544,14.34855 36.86909,21.22326c9.29478,5.15578 19.1265,9.59205 28.75339,14.08461c7.88326,3.67887 15.67851,8.39606 23.73656,11.60725c5.43202,2.1647 7.14314,1.7625 11.70097,4.70401z" fill="#ffeaab" stroke="#000000" stroke-width="15"/><path d="M372.20843,262.11661c-4.26907,-1.42302 -2.84605,-5.6921 -2.84605,-5.6921l0.95303,-2.67533c0,-2.83657 0.63145,-5.19261 0.92416,-7.79999c-1.07578,-0.58512 -2.10813,-1.70813 -2.10813,-3.8635c0,-4.5 4.5,-4.5 4.5,-4.5c1.90119,0.00705 7.62784,0.20662 9.19933,-0.6271c1.64764,-0.87412 2.32657,-2.97584 3.83102,-4.0783c4.83138,-3.54041 10.38534,-6.0368 15.13541,-9.68558c5.35349,-4.1123 8.82052,-7.83516 14.72294,-11.29393c2.62033,-1.53549 5.60731,-2.36342 8.26897,-3.82609c5.20846,-2.86223 9.87888,-6.62889 15.04294,-9.57048c3.36522,-1.91692 7.0468,-3.26609 10.32428,-5.32945c11.5954,-7.29998 22.9481,-14.75527 34.93477,-21.41064c8.15262,-4.86856 15.48347,-11.20292 23.29428,-16.66444c1.61407,-1.1286 3.06699,-2.48735 4.73666,-3.53193c2.19962,-1.37613 5.26633,-1.61636 6.87315,-3.65356c1.1571,-1.46702 1.32891,-3.63092 2.67683,-4.92481c1.09904,-1.05499 2.9199,-0.94751 4.23746,-1.71231c2.52791,-1.46736 4.8984,-3.21962 7.11644,-5.12325c2.41643,-2.0739 4.26321,-4.77243 6.75507,-6.75507c2.43994,-1.94133 5.56733,-2.85895 8.10266,-4.67393c1.3796,-0.98762 2.2228,-2.6265 3.64294,-3.55487c1.60455,-1.04893 3.86594,-0.87802 5.36382,-2.07435c2.30104,-1.8378 3.23964,-4.59184 7.13457,-4.22694c2.58183,0.24188 4.75638,2.0674 7.13457,3.1011c4.04698,3.92831 8.37242,7.65777 11.32933,12.54324c1.24888,2.06343 1.81686,4.51385 3.20019,6.48966c1.18489,1.69237 3.13791,2.72939 4.39971,4.36522c2.45947,3.18853 3.77364,7.12285 5.91023,10.53616c0.99559,1.59051 2.41507,2.89261 3.37753,4.50338c2.8263,4.73005 4.49292,10.06657 6.95533,14.99586c1.36798,2.73845 3.29516,5.18559 4.54385,7.98045c2.93624,6.572 4.34395,13.89581 6.91168,20.62334c2.90444,7.60969 6.23085,14.97513 8.02187,22.97612c1.75397,7.83544 3.06141,15.77908 4.51124,23.67475c1.14659,3.81145 2.8315,7.50421 3.41765,11.44099c1.29168,8.67536 1.13925,17.50785 2.29957,26.18607c0.56397,4.21801 2.04179,8.3136 2.2714,12.56295c0.89903,16.63796 1.14403,33.23982 1.14403,49.92101c0,10.45315 -0.66768,20.48786 -2.00311,30.8636c-0.2318,1.801 -2.16649,16.40854 -2.8117,18.08709c-1.00215,2.60715 -3.43446,4.46406 -4.60753,6.99891c-1.08247,2.33908 -1.38536,4.96518 -2.07804,7.44776c-1.78268,4.46496 -2.33388,9.54947 -5.0702,13.50249c-1.51547,2.18933 -4.26255,3.22187 -6.13848,5.1115c-1.77428,1.78725 -2.80202,4.2834 -4.7603,5.8669c-4.93009,3.98656 -11.4734,5.40229 -17.14393,8.23838c-2.67703,1.33891 -4.84771,3.58657 -7.5716,4.82736c-2.65515,1.20949 -5.61422,1.5927 -8.40322,2.44955c-6.55744,2.01461 -12.00916,4.0578 -18.81385,0.98432c-3.84888,-1.73842 -6.79517,-5.09681 -10.58022,-6.97014c-2.67211,-1.3225 -5.54654,-2.22195 -8.17529,-3.62867c-4.21524,-2.25569 -7.94185,-5.34765 -12.13048,-7.65238c-2.80387,-1.54279 -6.0008,-2.42913 -8.55548,-4.35669c-2.48107,-1.87201 -3.97913,-4.80943 -6.31309,-6.86193c-2.15342,-1.89374 -4.80156,-3.1477 -7.06756,-4.90517c-5.6455,-4.37855 -8.59536,-7.54068 -13.67699,-12.50586c-5.12632,-5.1253 -11.18607,-9.62244 -16.06681,-14.9361c-1.9753,-2.15051 -3.5536,-4.65432 -5.60601,-6.73136c-2.11302,-2.13837 -4.72075,-3.74481 -6.84649,-5.87054c-1.62792,-1.62791 -2.7312,-3.73169 -4.37137,-5.34727c-1.7075,-1.6819 -3.92175,-2.79475 -5.61582,-4.49019c-2.0261,-2.02773 -3.36612,-4.69307 -5.48693,-6.62152c-2.0606,-1.8737 -4.95934,-2.69985 -6.92933,-4.66858c-1.8895,-1.88829 -2.53832,-4.79095 -4.42678,-6.68027c-1.61089,-1.61163 -4.22199,-1.9579 -5.82559,-3.57679c-1.30745,-1.31993 -1.56608,-3.38648 -2.60053,-4.9297c-0.51651,-0.77055 -1.40701,-1.22164 -2.00064,-1.93448c-4.31025,-5.1758 -3.79384,-5.58072 -8.11385,-11.55071c-1.52503,-2.1075 -3.57204,-3.85444 -4.82379,-6.13487c-1.13499,-2.06771 -1.04365,-4.67696 -2.22999,-6.71565c-1.3925,-2.39296 -3.73887,-4.09973 -5.36679,-6.33918c-3.92676,-5.40185 -6.10465,-11.55173 -10.13735,-16.89437c-2.25777,-3.39812 -3.38517,-4.76439 -4.98731,-8.75791c-0.27087,-0.67517 0.1739,-1.66577 -0.36793,-2.1512c-1.1761,-1.05368 -3.19249,-0.87878 -4.28582,-2.01812c-2.07218,-2.15938 -3.05558,-5.1678 -4.22047,-7.92459c-0.14512,-0.34344 -0.00177,-0.83726 -0.2829,-1.08217c-0.63273,-0.55121 -1.69037,-0.50206 -2.25169,-1.12584c-0.951,-1.05683 -1.54948,-2.40135 -2.10132,-3.71159c-0.28237,-0.67044 0.08277,-1.58015 -0.36793,-2.1512c-0.45871,-0.5812 -1.53048,-0.34955 -2.03413,-0.89227c-0.06261,-0.06746 -0.12454,-0.13699 -0.18582,-0.20846c-0.84359,1.05134 -2.357,2.11331 -4.81026,1.29555z" fill="#ffeaab" stroke="#000000" stroke-width="15"/><path d="M181.9837,134.64832c2.58536,10.32942 5.76859,20.86359 5.7841,31.56792c0.00435,3 0.50535,6.04287 0,9v9c0,2.48528 -2.01472,4.5 -4.5,4.5c-2.0643,0 -3.80395,-1.38998 -4.33408,-3.28506l-1.02372,-3.35841c-0.78983,-2.20444 -1.50296,-4.41301 -2.14469,-6.62681c-1.71802,-0.44257 -3.0388,-1.87426 -3.31899,-3.65172l-1.11191,-6.30084l0.09895,-0.01746l-0.13725,-0.24429c-0.16998,-2.8854 -0.34807,-5.76463 -0.49114,-8.64457l-0.11608,-0.0168c-2.25737,-7.91404 -3.79721,-16.19775 -4.72937,-24.37317c-0.36531,-3.20388 -1.41954,-6.5075 -0.69249,-9.64911c0.03694,-0.15963 0.0801,-0.31662 0.12892,-0.47119l-0.08629,-0.01233l0.36574,-2.56016c0.28053,-2.21573 2.17224,-3.9291 4.46413,-3.9291c2.07109,0 3.81539,1.39913 4.33927,3.30377l1.09623,3.6541l-0.1057,0.03171l0.17111,0.2107c0.13312,0.7288 0.26707,1.45723 0.4015,2.18539c1.95691,0.1184 3.57634,1.48743 4.0695,3.31831l1.84712,6.28021l-0.02989,0.00879z" fill="#000000" stroke="none" stroke-width="0.5"/><path d="M260.08716,151.89711c0.57038,3.48557 0.82008,7.03178 0.82392,10.5637c0.00197,1.808 0.50176,3.68798 -0.00331,5.42401c-0.01645,0.05655 -0.0332,0.113 -0.05022,0.16934l0.04028,0.0031l-0.37205,4.83666c-0.1571,2.34277 -2.1072,4.19443 -4.48979,4.19443c-1.96616,0 -3.63781,-1.26096 -4.25037,-3.01831l-1.06985,-2.85293c-0.72615,-1.77178 -1.39139,-3.5518 -2.00598,-5.34082c-0.70009,0.44904 -1.53276,0.70944 -2.42624,0.70944c-1.89241,0 -3.51199,-1.16814 -4.17701,-2.82269l-1.08443,-2.53033l0.13738,-0.05888l-0.25439,-0.24388c-2.73406,-10.19903 -4.39885,-20.5527 -5.65327,-31.03233c-0.36103,-3.01614 -1.28587,-6.01786 -1.08127,-9.04863c0.00256,-0.03795 0.0052,-0.07589 0.00791,-0.11382l-0.0171,0.00118l-0.61611,-8.93366c-0.00912,-0.11701 -0.01377,-0.23527 -0.01377,-0.35463c0,-2.48528 2.01472,-4.5 4.5,-4.5c1.75182,0 3.26983,1.00101 4.01326,2.46225l3.1414,5.88228c0.87228,1.60002 1.80786,3.2762 2.75503,4.99703c0.80896,0.63745 1.39389,1.5465 1.61729,2.58964l0.16254,0.68699c2.03777,3.81904 3.97823,7.75474 5.29713,11.48739c1.11797,3.16401 2.8559,6.41528 2.49921,9.75198c-0.01586,0.14835 -0.03566,0.29561 -0.05916,0.44182c0.96997,0.6673 1.66522,1.70514 1.88149,2.90923l0.73384,3.66919l-0.03365,0.00673z" fill="#000000" stroke="none" stroke-width="0.5"/><path d="M270.90721,261.84473c-4.5,0 -4.5,-4.5 -4.5,-4.5v-1.63681c0,-9.83922 -1.23318,-19.48623 -1.6335,-29.28989c-0.25742,-6.30411 -0.39316,-12.74782 -1.56361,-18.98813c-1.24809,-6.65426 -3.68818,-12.68212 -6.32508,-18.86365c-0.47284,-0.61881 -0.78274,-1.40667 -1.41852,-1.85643c-1.14401,-0.8093 -2.79969,-0.16489 -4.20101,-0.15835c-4.37784,0.02043 -9.19252,0.09754 -13.39339,1.43332c-16.42119,5.22155 -33.86169,6.59453 -50.26517,11.95888c-2.03657,0.23675 -4.07685,0.7725 -5.91917,1.67223c-0.56277,0.27484 -1.06644,0.69259 -1.64124,0.92974c0.77272,0.9123 0.98306,2.89858 1.09096,3.30319c1.10349,4.13768 1.95596,8.21135 3.52854,12.21453c2.59815,6.61388 5.11203,13.30176 8.39466,19.61247c2.99457,5.75693 6.74361,11.06818 9.49815,16.9532c1.61507,3.45056 2.95068,7.04008 4.78048,10.38172c0,0 2.15483,3.95053 -1.7957,6.10536c-3.95053,2.15483 -6.10536,-1.7957 -6.10536,-1.7957c-2.98275,-5.48757 -5.02509,-11.26292 -8.1369,-16.69303c-7.49335,-13.07586 -14.36936,-26.53467 -18.05797,-41.24954c-0.66302,-2.64498 -3.08388,-8.4705 -2.50146,-10.98003c1.40041,-6.03401 9.74763,-8.55095 14.87412,-9.23119c6.97293,-2.37634 14.6182,-4.19896 21.7932,-5.75143c3.84374,-0.83168 7.79103,-1.03008 11.65014,-1.99668c8.1657,-2.0453 16.44186,-4.59368 24.79746,-5.43507c4.71945,-0.47523 12.04489,-1.73811 16.30211,1.04648c1.77709,1.16237 2.87354,3.1272 4.31031,4.69081c0.35178,0.76897 3.91759,8.54583 4.11406,9.05336c4.07403,10.52452 4.74887,22.18713 5.18375,33.29855c0.38803,9.91439 1.64012,19.6833 1.64012,29.63527v1.63681c0,0 0,4.5 -4.5,4.5z" fill="#000000" stroke="none" stroke-width="0.5"/></g></g></svg>