<svg version="1.1" xmlns="http://www.w3.org/2000/svg" xmlns:xlink="http://www.w3.org/1999/xlink" width="98.67645" height="205.72109" viewBox="0,0,98.67645,205.72109"><defs><radialGradient cx="-27.8453" cy="206.77108" r="102.86055" gradientUnits="userSpaceOnUse" id="color-1"><stop offset="0" stop-color="#090909"/><stop offset="1" stop-color="#000000"/></radialGradient></defs><g transform="translate(77.18354,-103.91049)"><g data-paper-data="{&quot;isPaintingLayer&quot;:true}" fill-rule="nonzero" stroke-linecap="butt" stroke-linejoin="miter" stroke-miterlimit="10" stroke-dasharray="" stroke-dashoffset="0" style="mix-blend-mode: normal"><path d="M-69.49035,309.63158l-4.67452,-112.18816c0.11525,-0.82549 -0.05415,-1.5031 -0.05415,-1.5031c-0.00339,-0.01354 -0.00678,-0.02708 -0.01017,-0.04062l-1.33772,-32.10507c0.24889,-6.76135 0.39814,-13.64856 -0.83812,-20.11461l-0.77851,-18.68409l92.85657,-21.08544l5.81988,140.40941z" fill="url(#color-1)" stroke="#000000" stroke-width="0"/><path d="" fill="#000000" stroke="none" stroke-width="0.5"/><path d="" fill="#000000" stroke="none" stroke-width="0.5"/><path d="" data-paper-data="{&quot;noHover&quot;:false,&quot;origItem&quot;:[&quot;Path&quot;,{&quot;applyMatrix&quot;:true,&quot;segments&quot;:[[[-69.25794,263.71641],[0,0],[-9.39158,-12.15754]],[[-112.75192,267.72283],[7.42836,-11.5381],[-3.15362,4.89838]],[[-115.80536,280.38219],[0.71058,-5.48686],[-0.36392,2.81]],[[-117.13056,288.77869],[2.23522,-1.74138],[-3.29086,2.56378]],[[-129.44528,291.00853],[4.0303,-1.07676],[-12.4744,3.33274]],[[-157.78984,310.40985],[7.1057,-10.61348],[-4.3541,16.30516]],[[-154.86274,362.10359],[-9.65204,-15.29964],[3.4121,5.4086]],[[-142.307,372.91255],[-4.99482,-3.30622],[0.69916,0.46278]],[[-140.86988,374.97687],[-0.48652,0.68284],[1.30612,-1.83318]],[[-139.12922,368.45241],[-2.2282,0.31864],[9.90786,-1.41678]],[[-127.51342,376.08873],[-3.34596,-3.70434],[-0.1783,-0.84058]],[[-128.02412,373.59609],[0.16224,0.82076],[-0.03942,-11.72636]],[[-125.73154,338.54459],[-1.96452,11.60266],[1.1928,-7.0447]],[[-119.63092,318.57711],[-1.83422,6.8337],[2.63338,-9.81114]],[[-103.8425,289.11125],[-7.9255,6.86908],[5.58868,-4.84374]],[[-84.61126,277.07217],[-6.69988,3.00854],[1.64234,-0.73748]],[[-79.97584,275.13403],[-1.46306,0.5553],[0.15032,-0.2391]],[-79.71788,274.76039],[[-76.01542,270.29395],[0,0],[2.57464,-2.0679]],[[-68.06712,265.56997],[-2.72778,1.1284],[-0.35536,-0.66092]],[[-69.25792,263.71643],[0.4409,0.57072],[0,0]]],&quot;closed&quot;:true,&quot;fillColor&quot;:[0,0,0,1]}]}" fill="#302617" stroke="none" stroke-width="0.5"/><g fill="#000000" stroke="none" stroke-width="0.5"><path d="M2.73228,224.25117c0.58414,0.97807 0.55402,2.22233 1.01975,3.26202c0.85989,1.91958 2.44257,3.5316 2.96891,5.56807c0.07772,0.30071 0.27257,5.74437 0.28577,6.11941c0.11702,3.32584 -0.19808,7.30352 -1.81119,10.31693c-4.86453,9.08731 -16.92447,13.33232 -25.66424,17.17345c-9.36421,1.45236 -25.33839,1.23787 -28.92681,-10.0688c-0.05591,-0.17615 -0.13801,-1.7939 -0.21054,-3.48316c-0.04613,-0.22482 -0.06039,-0.47537 -0.03162,-0.75417c-0.05728,-1.39712 -0.10424,-2.70274 -0.12033,-3.12915c-0.31367,-8.31485 1.52034,-16.71573 4.4718,-24.48367c-0.63722,-0.04588 -1.2243,-0.11824 -1.72634,-0.22646c-1.11313,-0.23996 -2.02293,-1.08138 -3.11633,-1.39944c-2.75968,-0.80278 -5.2592,-1.014 -7.85182,-2.61922c-7.74564,-4.79575 -12.71841,-14.6257 -15.70983,-23.78339c-0.14669,-0.02094 -0.29272,-0.04309 -0.43751,-0.06644c-0.01678,-0.44003 -0.09098,-0.73682 -0.09098,-0.73682c-0.44929,-1.79557 -0.94198,-3.58636 -1.47327,-5.36985c0.10037,0.13199 0.20995,0.26105 0.33148,0.38566c-0.10519,-0.41657 -0.20614,-0.82865 -0.30292,-1.23562c-0.24437,-5.85812 -0.28537,-11.72209 0.47386,-17.5568c0.46098,-3.54262 1.87999,-6.64381 2.66549,-10.0933c1.12774,-4.95242 3.49561,-11.44075 7.32384,-15.02462c2.69948,-2.52717 6.08805,-4.75206 9.37789,-6.38359c0.80644,-0.39994 1.55852,-0.7517 2.27887,-1.05717c0.07052,-0.12234 0.12173,-0.19163 0.12173,-0.19163l1.76429,-2.30252c1.24675,-1.08252 2.53945,-1.8965 3.88072,-2.51255c-0.19021,-0.32341 -0.39925,-0.62657 -0.63048,-0.90327l-0.00002,-0.00001c-4.92528,-5.89436 -18.16387,-3.07205 -21.65425,2.83509c-1.4818,2.50781 -1.03314,3.62851 -1.28304,6.38354c-0.12799,1.41094 0.58219,3.30768 -0.50124,4.22056c-1.044,0.87966 -2.48506,0.92263 -3.915,1.01981c-0.14351,-1.41535 -0.33683,-2.81717 -0.59247,-4.20014c0.24035,0.00896 0.47801,-0.00973 0.71133,-0.07385c0.39908,-0.10967 -0.66942,-0.61134 -0.70234,-1.02391c-0.11262,-1.41103 -0.02256,-2.85486 0.28242,-4.23713c0.79942,-3.62328 2.50872,-6.78766 5.49448,-9.14552c6.44661,-5.09088 20.28421,-5.63962 25.9803,0.99573c0.68328,0.79595 1.22523,1.70468 1.67227,2.67493c2.15545,-0.37307 4.42381,-0.49225 6.81358,-0.58612c11.65598,-0.45783 21.01442,1.38402 30.74647,7.89842c6.38737,4.04878 9.98674,11.60253 13.20039,18.19657c6.86818,14.0927 8.20161,32.34788 -0.31353,46.26153c-3.49666,5.7135 -8.33028,8.77217 -13.6686,11.92014c3.43917,1.66927 6.88478,4.09411 8.86902,7.41646zM-22.02419,217.17861c0.47431,-0.20621 1.99157,-0.71213 3.0192,0.69773c2.23403,-0.88965 4.39933,-2.06799 6.4634,-3.05496c4.05355,-2.46068 8.7474,-4.40237 12.29909,-7.61564c2.03927,-1.84497 3.60696,-4.91391 4.78405,-7.35695c5.96534,-12.38099 4.68173,-26.9873 -1.18967,-39.003c-2.72017,-5.56677 -5.83077,-12.92531 -11.40532,-16.18003c-8.89873,-5.97208 -17.18927,-7.50988 -27.85641,-7.11141c-1.81298,0.06772 -3.66295,0.09811 -5.44439,0.32797c0.02807,0.11008 0.05587,0.21996 0.08347,0.32958l-0.00001,0.00001c2.11094,1.03746 4.22526,2.07409 5.7745,3.9327c3.00824,3.60894 4.62538,8.39406 4.76401,12.96777c0.03435,1.13341 0.43123,2.35016 0.00708,3.40178c-2.24159,5.55773 -3.68934,5.47685 -8.48618,7.95405c-2.86199,1.478 -5.36196,3.09924 -7.91814,2.72129c1.62209,4.10994 2.71618,5.61478 1.4393,10.60352c-0.34102,1.33238 -1.44761,2.33891 -2.17141,3.50837c-0.99865,1.5138 -1.75047,3.22319 -2.99594,4.5414c-3.86954,4.09556 -11.67942,8.0718 -17.38799,9.01745c1.30099,3.35308 2.87792,6.59824 4.6845,9.7402c0.83543,1.45295 1.79715,3.02328 2.89347,4.51164c-0.38053,-1.38151 -0.3573,-2.79716 0.40604,-3.85004c0.43149,-0.59515 0.41905,-2.3421 1.58028,-2.30665c0.32288,-0.17211 0.68871,-0.27571 1.07887,-0.29068c1.3797,-0.05291 2.54106,1.02267 2.59396,2.40236c0.35081,0.34347 -1.01227,3.14486 -0.21292,4.07041c2.02801,2.34822 14.41073,2.83903 17.39979,2.73891c2.86606,-0.096 13.19842,-2.82149 13.35825,1.34633c0.01519,0.39603 -0.05179,0.73766 -0.1856,1.03272c0.92016,0.26431 1.81193,0.59208 2.62474,0.92316zM-42.09461,143.23361c-0.13017,0.05384 -0.27178,0.10154 -0.42575,0.14201c-0.92834,0.24397 -1.59392,0.03784 -2.06167,-0.30873c-5.86053,-0.39486 -9.93338,2.2056 -14.42282,5.76701c-0.86932,0.68962 -1.93639,1.11502 -2.76686,1.85096c-4.14521,3.67339 -5.03282,10.34561 -6.56856,15.30759c-2.3619,7.6313 -2.64505,15.07125 -2.37032,23.04505c0.24569,1.01079 0.51702,2.01238 0.81294,3.00489c0.1303,-0.01568 0.25937,-0.0318 0.38683,-0.04787c4.57953,-0.57716 11.80386,-4.1219 15.00531,-7.57117c1.03397,-1.11401 1.63371,-2.56348 2.45057,-3.84522c2.44778,-3.51684 1.87859,-5.54539 0.42953,-9.40872l-2.85293,-2.97192c-0.41373,-0.42703 -0.6775,-1.0023 -0.70207,-1.64321c-0.05291,-1.3797 1.02267,-2.54106 2.40236,-2.59396c0.08688,-0.00333 0.17288,-0.00219 0.2578,0.00321l4.10378,0.21495l-0.00502,0.09602c7.08306,-1.38985 15.11228,-4.08164 12.63178,-12.16838c-0.43494,-1.41794 -1.43003,-2.59906 -2.11976,-3.91207c-0.49628,-0.94477 -0.7771,-2.02249 -1.43786,-2.86051c-0.68155,-0.86439 -1.66651,-1.52624 -2.74727,-2.09994zM-30.71622,249.4245c2.10799,-0.38213 4.28447,-0.26682 6.39648,-0.6261c3.93134,-0.66877 8.11846,-2.29109 11.95457,-3.40525c4.00208,-1.16236 10.50621,-2.65643 13.23832,-5.85057l1.08072,-1.16691c0,0 0.01888,-0.02038 0.05479,-0.05485c0.03883,-1.36182 0.18301,-2.73607 -0.14346,-4.04728c-0.29273,-1.17569 -2.32149,-3.91415 -2.67779,-4.71975c-0.373,-0.84335 -0.24703,-1.87582 -0.70852,-2.67419c-0.67949,-1.17556 -1.6393,-2.19262 -2.73605,-3.07014c-0.13066,0.08265 -0.21682,0.12355 -0.21682,0.12355l-2.51326,1.1919c-2.29254,1.25963 -4.72567,2.11132 -7.00506,3.27105c-5.34833,2.72119 -10.05586,6.65686 -16.21002,7.58674c-4.46403,0.67451 -8.7895,0.0541 -13.18804,-0.39355c-1.02005,4.43122 -1.54694,8.97212 -1.37132,13.47502c0.01803,0.46226 0.00709,0.92859 -0.01409,1.39626c4.62176,0.71048 9.53693,-0.21607 14.05956,-1.03593zM-40.51903,219.07111c0.04845,-0.06567 0.09527,-0.13391 0.14071,-0.20431c-2.63745,0.01272 -5.48677,-0.11435 -8.1677,-0.45394c0.93279,0.35401 1.74247,1.04982 2.71628,1.27468c0.90224,0.20833 3.18464,0.17203 5.11275,0.10073c0.06509,-0.42381 0.19796,-0.71716 0.19796,-0.71716z"/><path d="M-44.81921,250.4852c0.02118,-0.46767 0.03101,-0.93604 0.01299,-1.3983c-0.17562,-4.5029 0.34594,-9.07028 1.36599,-13.5015c4.39854,0.44765 8.72438,1.06466 13.18841,0.39015c6.15416,-0.92988 10.94377,-4.89633 16.2921,-7.61751c2.27939,-1.15973 4.71841,-2.00542 7.01096,-3.26505l2.51425,-1.19067c0,0 0.0862,-0.04084 0.21687,-0.12349c1.09676,0.87752 2.06146,1.90228 2.74096,3.07784c0.46148,0.79837 0.33798,1.83644 0.71098,2.67978c0.3563,0.8056 2.38777,3.55515 2.6805,4.73083c0.32647,1.31121 0.18264,2.69403 0.1438,4.05585c-0.03592,0.03447 -0.0548,0.05498 -0.0548,0.05498l-1.08092,1.1696c-2.73211,3.19414 -9.24855,4.71623 -13.25063,5.8786c-3.8361,1.11416 -8.07217,2.75198 -12.0035,3.42075c-2.11201,0.35928 -4.30695,0.23533 -6.41494,0.61747c-4.52263,0.81986 -9.45126,1.73116 -14.07301,1.02068z" data-paper-data="{&quot;noHover&quot;:false,&quot;origItem&quot;:[&quot;Path&quot;,{&quot;applyMatrix&quot;:true,&quot;segments&quot;:[[[-42.77087,496.36116],[-9.10145,1.29189],[4.24217,-0.60215]],[[-29.93933,495.60011],[-4.24845,0.55616],[7.90815,-1.03526]],[[-5.78678,489.71082],[-7.75196,1.93268],[8.08737,-2.0163]],[[21.1188,479.03287],[-5.705,6.17419],[0,0]],[23.36808,476.78359],[[23.48179,476.67816],[-0.07442,0.06614],[0.18198,-2.71867]],[[23.50526,468.57855],[0.55197,2.64552],[-0.49492,-2.37208]],[[18.51534,458.94075],[0.65034,1.63732],[-0.68082,-1.71404]],[[17.3043,453.54199],[0.8611,1.63094],[-1.26789,-2.40147]],[[12.07151,447.19653],[2.12465,1.8378],[-0.26747,0.15516]],[11.62872,447.42683],[[6.51454,449.61627],[0,0],[-4.67826,2.34171]],[[-7.73598,455.6167],[4.64431,-2.14307],[-10.89735,5.02848]],[[-40.71366,469.53669],[12.37054,-1.38674],[-8.9732,1.0059]],[[-67.04021,467.73943],[8.75631,1.23174],[-2.37821,8.77775]],[[-70.81356,494.56457],[-0.00588,-9.01264],[0.0006,0.92522]],[[-70.94873,497.35396],[0.07817,-0.93303],[9.18227,1.77413]]],&quot;closed&quot;:true}]}"/><path d="M-41.28391,138.16367c-0.0276,-0.10962 -0.0554,-0.21951 -0.08347,-0.32959c1.78144,-0.22986 3.63776,-0.26154 5.45074,-0.32926c10.66715,-0.39847 18.99197,1.14711 27.8907,7.11919c5.57455,3.25472 8.70195,10.63184 11.42212,16.19861c5.8714,12.0157 7.15331,26.67134 1.18797,39.05233c-1.1771,2.44304 -2.75126,5.52038 -4.79053,7.36535c-3.55169,3.21327 -8.25972,5.16532 -12.31327,7.626c-3.43834,1.6441 -7.17134,3.82364 -11.02125,4.31075c-4.66471,0.59022 -9.6547,0.35319 -14.35481,0.53474c-1.22006,0.04713 -6.46462,0.36591 -7.95164,0.02255c-1.06854,-0.24673 -1.94292,-1.06196 -2.99572,-1.36899c-2.40067,-0.70013 -4.32991,-0.71751 -6.59089,-2.08306c-3.49759,-2.1124 -6.18977,-6.21382 -8.16527,-9.64954c-1.80658,-3.14196 -3.39033,-6.3976 -4.69132,-9.75068c5.70857,-0.94565 13.51796,-4.92293 17.3875,-9.01849c1.24547,-1.31822 1.99457,-3.03507 2.99322,-4.54887c0.72381,-1.16946 1.82877,-2.18496 2.16979,-3.51734c1.27688,-4.98874 0.1888,-6.52206 -1.43328,-10.632c2.55618,0.37794 5.07014,-1.25932 7.93214,-2.73732c4.79685,-2.4772 6.27337,-2.40615 8.51496,-7.96389c0.42414,-1.05162 0.02918,-2.16839 -0.00516,-3.3018c-0.13863,-4.57371 -1.7496,-9.35931 -4.75784,-12.96826c-1.54924,-1.85861 -3.6575,-2.8965 -5.76843,-3.93396z" data-paper-data="{&quot;noHover&quot;:false,&quot;origItem&quot;:[&quot;Path&quot;,{&quot;applyMatrix&quot;:true,&quot;segments&quot;:[[[-55.3411,273.29047],[0,0],[4.13926,2.23518]],[[-44.10198,281.59265],[-2.95376,-3.83322],[5.73546,7.44314]],[[-35.57482,307.87425],[0.07348,-9.15132],[-0.01822,2.26778]],[[-35.82138,314.67335],[0.92826,-2.06918],[-4.90584,10.9355]],[[-53.39088,329.91937],[9.7765,-4.58312],[-5.83306,2.73448]],[[-69.4241,334.75111],[5.07964,0.95124],[2.9268,8.33816]],[[-67.36028,356.05289],[2.93422,-9.8723],[-0.78366,2.63666]],[[-71.9688,362.89805],[1.53618,-2.28172],[-2.11186,2.94884]],[[-78.30434,371.74457],[2.59014,-2.53904],[-8.04728,7.88854]],[[-113.74588,388.43359],[11.48122,-1.4524],[2.34308,6.80094]],[[-105.13026,408.25871],[-3.3697,-6.41776],[3.68478,7.0178]],[[-89.57154,428.14993],[-6.82814,-4.48976],[4.41398,2.90236]],[[-76.572,432.81021],[-4.74416,-1.58322],[2.08052,0.6943]],[[-70.69666,435.77263],[-2.1166,-0.575],[2.94554,0.80018]],[[-54.82028,436.33157],[-2.44194,0.00068],[9.40724,-0.00262]],[[-26.1252,436.36143],[-9.3678,0.82206],[7.7315,-0.67846]],[[-3.79632,428.59867],[-6.99764,3.02226],[8.28974,-4.60708]],[[21.36746,414.32119],[-7.34442,6.14962],[4.21694,-3.53094]],[[31.49238,399.98475],[-2.5397,4.79228],[12.8708,-24.2866]],[[32.104,321.94487],[10.81328,24.46374],[-5.0097,-11.33384]],[[10.55016,288.73447],[10.89146,6.9319],[-17.32668,-12.6174]],[[-44.57672,272.38717],[21.34916,0.02118],[-3.62848,-0.0036]],[[-55.48264,272.62537],[3.57788,-0.32286],[0.04766,0.22214]],[[-55.34108,273.29045],[-0.04676,-0.2212],[0,0]]],&quot;closed&quot;:true,&quot;fillColor&quot;:[0,0,0,1]}]}"/><path d="M-48.37626,133.65605c0.23122,0.2767 0.37656,0.65692 0.56677,0.98033c-1.34127,0.61605 -2.63227,1.43142 -3.87902,2.51394l-1.70277,2.22368c0,0 -0.11279,0.14807 -0.18332,0.27041c-0.72035,0.30548 -1.47058,0.65862 -2.27702,1.05855c-3.28984,1.63154 -6.66637,3.86271 -9.36585,6.38988c-3.82823,3.58387 -6.13478,10.00216 -7.26251,14.95458c-0.7855,3.44948 -2.22862,6.52797 -2.6896,10.07059c-0.75923,5.83471 -0.72916,11.69526 -0.48479,17.55338c0.09679,0.40697 0.17987,0.91745 0.28506,1.33401c-0.10643,-0.10912 -0.20373,-0.22166 -0.29374,-0.33661c-0.04405,-0.14828 -0.08836,-0.29652 -0.13294,-0.4447c-0.03569,-5.32581 -0.05922,-10.65225 -0.05922,-15.97931c0,-8.4155 0.9691,-17.52715 0.08952,-26.1362c1.43067,-0.09858 2.8735,-0.14765 3.91354,-1.02398c1.08342,-0.91288 0.37605,-2.80988 0.50404,-4.22082c0.2499,-2.75503 -0.19526,-3.87583 1.28654,-6.38364c3.49038,-5.90714 16.76002,-8.71847 21.6853,-2.82411z" data-paper-data="{&quot;noHover&quot;:false,&quot;origItem&quot;:[&quot;Path&quot;,{&quot;applyMatrix&quot;:true,&quot;segments&quot;:[[[-69.25794,263.71641],[0,0],[-9.39158,-12.15754]],[[-112.75192,267.72283],[7.42836,-11.5381],[-3.15362,4.89838]],[[-115.80536,280.38219],[0.71058,-5.48686],[-0.36392,2.81]],[[-117.13056,288.77869],[2.23522,-1.74138],[-3.29086,2.56378]],[[-129.44528,291.00853],[4.0303,-1.07676],[-12.4744,3.33274]],[[-157.78984,310.40985],[7.1057,-10.61348],[-4.3541,16.30516]],[[-154.86274,362.10359],[-9.65204,-15.29964],[3.4121,5.4086]],[[-142.307,372.91255],[-4.99482,-3.30622],[0.69916,0.46278]],[[-140.86988,374.97687],[-0.48652,0.68284],[1.30612,-1.83318]],[[-139.12922,368.45241],[-2.2282,0.31864],[9.90786,-1.41678]],[[-127.51342,376.08873],[-3.34596,-3.70434],[-0.1783,-0.84058]],[[-128.02412,373.59609],[0.16224,0.82076],[-0.03942,-11.72636]],[[-125.73154,338.54459],[-1.96452,11.60266],[1.1928,-7.0447]],[[-119.63092,318.57711],[-1.83422,6.8337],[2.63338,-9.81114]],[[-103.8425,289.11125],[-7.9255,6.86908],[5.58868,-4.84374]],[[-84.61126,277.07217],[-6.69988,3.00854],[1.64234,-0.73748]],[[-79.97584,275.13403],[-1.46306,0.5553],[0.15032,-0.2391]],[-79.71788,274.76039],[[-76.01542,270.29395],[0,0],[2.57464,-2.0679]],[[-68.06712,265.56997],[-2.72778,1.1284],[-0.35536,-0.66092]],[[-69.25792,263.71643],[0.4409,0.57072],[0,0]]],&quot;closed&quot;:true,&quot;fillColor&quot;:[0,0,0,1]}]}"/><path d="M-42.0737,143.18818c1.08076,0.5737 2.07143,1.23864 2.75298,2.10303c0.66076,0.83803 0.94615,1.91899 1.44243,2.86375c0.68973,1.31301 1.69125,2.50027 2.12618,3.91821c2.4805,8.08675 -5.62836,10.83857 -12.71142,12.22842l0.0054,-0.09546l-4.07189,-0.19357c-0.08492,-0.0054 -0.16726,-0.00595 -0.25414,-0.00262c-1.3797,0.05291 -2.40277,1.18327 -2.34986,2.56297c0.02458,0.64091 0.28369,1.17003 0.69742,1.59706l2.8302,3.04568c1.44906,3.86333 2.00353,5.89545 -0.44425,9.41229c-0.81686,1.28174 -1.42472,2.73125 -2.45869,3.84526c-3.20145,3.44927 -10.44956,6.98584 -15.02909,7.563c-0.12746,0.01607 -0.25694,0.03191 -0.38724,0.04759c-0.29591,-0.99251 -0.57065,-1.99661 -0.81634,-3.0074c-0.27473,-7.9738 -0.00997,-15.45711 2.35193,-23.08842c1.53574,-4.96198 2.45028,-11.67419 6.59549,-15.34758c0.83047,-0.73593 1.90545,-1.16458 2.77477,-1.8542c4.48944,-3.56141 8.59397,-6.16129 14.4545,-5.76643c0.46774,0.34657 1.13695,0.55415 2.06529,0.31018c0.15397,-0.04047 0.29615,-0.08791 0.42632,-0.14175z" data-paper-data="{&quot;noHover&quot;:false,&quot;origItem&quot;:[&quot;Path&quot;,{&quot;applyMatrix&quot;:true,&quot;segments&quot;:[[[-57.3724,283.26335],[0,0],[-0.26428,0.09762]],[[-58.23416,283.51453],[0.31082,-0.06908],[-1.87402,0.41644]],[[-62.3308,282.73951],[0.90824,0.72848],[-11.68218,-1.2383]],[[-91.59724,293.15969],[9.24524,-6.77352],[-1.79022,1.3116]],[[-97.26876,296.64683],[1.71612,-1.40714],[-8.56586,7.0237]],[[-111.56942,326.73611],[3.44952,-9.79898],[-5.3052,15.07038]],[[-118.07276,372.61069],[0.06206,-15.95694],[0.41356,2.03892]],[[-116.67838,378.67835],[-0.51532,-2.00624],[0.26162,-0.02136]],[[-115.90162,378.61233],[-0.25596,0.02234],[9.19656,-0.8025]],[[-85.33278,364.63113],[-6.66256,6.64812],[2.1518,-2.14714]],[[-80.14054,357.13415],[-1.73076,2.499],[5.1615,-6.84092]],[[-78.56102,338.36345],[2.5999,7.83204],[0,0]],[[-84.03492,332.20533],[0,0],[-0.79412,-0.88514]],[[-85.3121,328.86751],[0,1.28276],[0,-2.76142]],[[-80.3121,323.86751],[-2.76142,0],[0.17388,0]],[[-79.79712,323.89369],[-0.1693,-0.0173],[0,0]],[-71.61206,324.63779],[[-71.62946,324.82931],[0,0],[14.26224,-2.2348]],[[-45.45186,301.47853],[4.33758,16.35172],[-0.76056,-2.86714]],[[-49.38844,293.49767],[1.27782,2.67696],[-0.91942,-1.92618]],[[-52.04282,287.67065],[1.25632,1.72546],[-1.29586,-1.77974]],[[-57.37238,283.26331],[2.11596,1.22938],[0,0]]],&quot;closed&quot;:true,&quot;fillColor&quot;:[0,0,0,1]}]}"/><path d="M-38.54006,142.85387c-1.46486,-0.30012 -1.82639,-1.93073 -1.82639,-1.93073c-0.96562,-4.49435 -3.16772,-8.42119 -4.24127,-12.93441c-0.35557,-1.49484 -1.14318,-5.72796 -0.34425,-6.98867c1.94278,-3.0657 7.3861,-4.49651 10.68846,-5.0037c10.01361,-1.53793 21.61885,-3.51925 31.52715,-0.87912c9.5427,8.56892 12.36881,21.35552 14.13817,33.61486c0.52132,3.61203 1.43928,7.23171 1.91728,10.82208c1.03924,7.80604 0.99891,15.94785 1.30123,23.83144c0.40971,10.68379 -1.26944,21.82928 -8.07228,30.4606c-3.76177,4.77286 -10.55996,7.42974 -16.22873,9.26699c-2.04063,0.66137 -4.75563,1.84477 -6.967,0.87755c-4.32941,-1.89362 -4.7701,-7.66394 -5.98203,-11.44328c-0.61524,-13.23198 -3.56749,-25.49061 -7.04538,-38.13603c-1.39697,-5.07932 -1.74191,-10.57721 -3.22752,-15.63981c-0.92271,-3.14436 -2.01149,-6.25428 -2.92327,-9.41804c-1.03778,-2.16922 -1.92115,-4.31926 -2.71418,-6.49974zM-38.24565,131.57921c0.99138,0.30071 1.5181,1.26035 1.5181,1.26035l0.61209,1.23891c1.37848,4.73478 2.86084,9.03962 4.9633,13.4985c0.96932,3.30063 2.11717,6.57017 3.06821,9.86029c1.46498,5.06808 1.81751,10.55549 3.22365,15.62589c3.52419,12.70796 6.78229,25.26518 7.15206,38.6016c0.61621,1.83597 0.92847,6.67019 3.00628,7.72013c1.07471,0.54306 2.32166,-0.64376 3.46447,-1.02311c4.68346,-1.55463 10.78813,-3.65016 13.88552,-7.64439c5.99761,-7.73421 7.34086,-17.62554 6.97598,-27.14014c-0.54751,-14.27711 -1.81707,-28.16953 -4.59048,-42.20913c-1.55463,-7.86991 -4.32434,-16.09218 -10.13852,-21.8475c-8.07681,-1.65418 -16.74538,0.18737 -24.83226,0.9196c-3.05019,0.27618 -5.58402,0.68669 -8.32732,1.9426c-0.75399,0.34518 -1.73507,0.36439 -2.28403,0.98591c-0.27074,0.30652 0.29134,0.76692 0.38397,1.16526c0.17701,0.76129 0.23871,1.54677 0.42323,2.30628c0.39869,1.64102 0.93043,3.20107 1.49575,4.73896z"/><path d="M-39.76668,126.79711c-0.18452,-0.7595 -0.24554,-1.54538 -0.42255,-2.30667c-0.09262,-0.39834 -0.65451,-0.85885 -0.38377,-1.16537c0.54897,-0.62152 1.53214,-0.64183 2.28612,-0.98701c2.7433,-1.25591 5.28472,-1.66945 8.33491,-1.94564c8.08688,-0.73223 16.77985,-2.57505 24.85665,-0.92087c5.81418,5.75532 8.60331,13.98598 10.15794,21.85588c2.77341,14.0396 4.05704,27.99794 4.60455,42.27504c0.36487,9.5146 -1.00206,19.42674 -6.99967,27.16095c-3.09739,3.99423 -9.21782,6.09357 -13.90128,7.6482c-1.14281,0.37935 -2.39328,1.56631 -3.46799,1.02325c-2.07781,-1.04994 -2.39357,-5.88428 -3.00978,-7.72024c-0.36978,-13.33642 -3.67124,-25.92559 -7.19543,-38.63355c-1.40613,-5.0704 -1.74926,-10.60908 -3.21424,-15.67716c-0.95104,-3.29012 -2.09164,-6.56631 -3.06096,-9.86694c-2.10246,-4.45888 -3.58064,-8.76654 -4.95912,-13.50133l-0.56054,-1.15322c0,0 -0.57879,-1.04502 -1.57017,-1.34572c-0.56531,-1.53789 -1.09599,-3.09858 -1.49468,-4.7396z" data-paper-data="{&quot;noHover&quot;:false,&quot;origItem&quot;:[&quot;Path&quot;,{&quot;applyMatrix&quot;:true,&quot;segments&quot;:[[[-48.78694,260.26663],[-1.01193,-3.11684],[1.95825,0.67695]],[-45.84957,262.90183],[[-44.72123,265.42474],[0,0],[2.39206,9.56826]],[[-35.83646,292.78231],[-3.8601,-9.07235],[1.68425,6.6707]],[[-30.46025,312.72355],[-1.64853,-6.6483],[2.53939,10.241]],[[-25.21527,344.19943],[-2.4216,-10.24111],[6.06926,25.66734]],[[-13.8801,421.89407],[0.2831,-26.68159],[1.0908,3.71646]],[[-8.46363,437.55339],[-4.0721,-2.25758],[2.10622,1.16769]],[[-1.46136,435.7742],[-2.31302,0.67055],[9.47919,-2.74804]],[[26.87515,421.56084],[-6.49635,7.74521],[12.57917,-14.9974]],[[42.89691,367.85507],[0,19.04319],[0,-28.5752]],[[36.95763,283.14699],[4.46674,28.27113],[-2.50383,-15.8474]],[[18.36989,238.70707],[11.17873,11.94778],[-16.01497,-3.92494]],[[-31.32863,238.64175],[16.21799,-0.8436],[-6.11707,0.31819]],[[-48.11992,241.88588],[5.57882,-2.29972],[-1.53332,0.63207]],[[-52.76019,243.6812],[1.14476,-1.20005],[-0.56457,0.59184]],[[-52.08213,246.03944],[-0.15458,-0.80319],[0.29542,1.53502]],[[-51.41304,250.68104],[-0.31057,-1.53203],[0.67103,3.31018]]],&quot;closed&quot;:true}]}"/></g><path d="M-44.77184,197.28404c0,-1.42752 1.15724,-2.58476 2.58476,-2.58476c1.42752,0 2.58476,1.15724 2.58476,2.58476c0,1.42752 -1.15724,2.58476 -2.58476,2.58476c-1.42752,0 -2.58476,-1.15724 -2.58476,-2.58476z" fill="#ffffff" stroke="none" stroke-width="0.5"/><path d="M-8.02779,184.83944c0,-1.42752 1.15724,-2.58476 2.58476,-2.58476c1.42752,0 2.58476,1.15724 2.58476,2.58476c0,1.42752 -1.15724,2.58476 -2.58476,2.58476c-1.42752,0 -2.58476,-1.15724 -2.58476,-2.58476z" fill="#ffffff" stroke="none" stroke-width="0.5"/></g></g></svg>