<svg version="1.1" xmlns="http://www.w3.org/2000/svg" xmlns:xlink="http://www.w3.org/1999/xlink" width="1130.29283" height="475.75324" viewBox="0,0,1130.29283,475.75324"><g transform="translate(330.13427,50.50751)"><g data-paper-data="{&quot;isPaintingLayer&quot;:true}" fill-rule="nonzero" stroke="none" stroke-linecap="butt" stroke-linejoin="miter" stroke-miterlimit="10" stroke-dasharray="" stroke-dashoffset="0" style="mix-blend-mode: normal"><path d="M-330.13427,57.50003c0,-6.90356 5.59644,-12.5 12.5,-12.5c6.90356,0 12.5,5.59644 12.5,12.5c0,6.90356 -5.59644,12.5 -12.5,12.5c-6.90356,0 -12.5,-5.59644 -12.5,-12.5z" fill="#262429" stroke-width="0.5"/><path d="M-173.97806,169.69505c0,-1.38071 1.11929,-2.5 2.5,-2.5c1.38071,0 2.5,1.11929 2.5,2.5c0,1.38071 -1.11929,2.5 -2.5,2.5c-1.38071,0 -2.5,-1.11929 -2.5,-2.5z" data-paper-data="{&quot;index&quot;:null}" fill="#252525" stroke-width="0.5"/><path d="M787.65856,68.49853c-6.90356,0 -12.5,-5.59644 -12.5,-12.5c0,-6.90356 5.59644,-12.5 12.5,-12.5c6.90356,0 12.5,5.59644 12.5,12.5c0,6.90356 -5.59644,12.5 -12.5,12.5z" data-paper-data="{&quot;index&quot;:null}" fill="#262429" stroke-width="0.5"/><path d="M-105.02402,410.50751v-461.01502h694.19863v461.01502z" data-paper-data="{&quot;index&quot;:null}" fill="#1a2026" stroke-width="0"/><path d="M-64.35503,424.95383c-58.78198,-2.43282 -77.31453,-358.32809 -77.31453,-358.32809l98.15109,71.34756l667.26335,159.41887l-25.53784,69.88682c0,0 -539.97142,62.74853 -662.56207,57.67484z" data-paper-data="{&quot;index&quot;:null}" fill="#0e1414" stroke-width="0"/><g stroke-width="0.5"><path d="M450.92855,272.96646c1.34668,1.89166 1.92655,4.27635 3.36363,6.10029c1.80143,2.28636 4.14615,4.139 5.76851,6.55572c3.41911,5.0932 5.52808,11.10296 7.96195,16.58722c1.11989,2.52346 2.42917,5.01703 3.01021,7.71599c1.70507,8.54094 2.35319,18.04614 1.45267,26.79942c-0.30339,2.94898 -1.5378,5.73057 -2.11732,8.63792c-0.18846,0.94548 0.19356,1.95244 -0.02181,2.89216c-0.55523,2.42265 -2.25335,4.49174 -2.76923,6.92308c-0.20356,0.95938 0.21887,1.99521 -0.03701,2.94197c-0.48221,1.78421 -3.67104,7.33349 -4.71019,8.37264c-2.36783,2.36783 -6.80322,3.55756 -9.6533,5.3431c-3.04355,1.90675 -5.81116,3.61763 -9.06753,5.2169c-4.3153,1.11396 -8.55425,2.42103 -12.84522,3.58315c-2.47231,0.66957 -5.09018,0.69489 -7.56104,1.3698c-1.31049,0.35796 -2.46867,1.21014 -3.80302,1.46513c-5.57497,1.06535 -12.47685,0.07669 -18.1114,0.07669c-13.31945,0 -27.02069,0.70464 -40.16023,-1.44244c-3.41173,-0.57133 -6.93557,-0.79823 -10.2754,-1.36787c-3.23891,-0.55243 -6.24812,-2.05375 -9.43499,-2.85347c-5.00928,-1.25705 -10.29704,-1.40791 -15.29714,-2.78628c-2.35854,-0.65017 -4.41526,-2.23369 -6.80869,-2.74055c-1.18042,-0.24998 -2.46749,0.31809 -3.61956,-0.04052c-1.59468,-0.49639 -2.89695,-1.66418 -4.37221,-2.44714c-2.43147,-1.29045 -5.18981,-2.04974 -7.36296,-3.73933c-3.1685,-2.46346 -7.69987,-7.6619 -9.63116,-11.25384c-1.62344,-3.01938 -1.85168,-7.83905 -2.49775,-11.15977c-0.01688,-4.29578 -0.34266,-8.89035 -0.00999,-13.1816c0.22001,-2.8381 1.15866,-5.58838 1.39461,-8.4252c0.38939,-4.68164 -0.26961,-9.61532 0.74831,-14.23108c0.46978,-2.13024 1.72665,-4.05361 2.0725,-6.20744c1.00155,-6.23733 2.80173,-12.74817 3.40996,-19.02302c0.25499,-2.63064 0.30323,-5.28692 0.72945,-7.8953c0,0 0.00578,-0.0347 0.01946,-0.09727c-1.66252,-0.28603 -3.21893,-0.83154 -5.815,-2.60085c-4.32422,-2.9471 -7.66533,-7.12604 -11.50934,-10.67679c-2.22383,-2.05418 -4.64878,-3.92942 -6.57688,-6.26342c-1.91548,-2.31872 -3.25372,-5.0592 -4.87126,-7.59475c-3.7293,-5.84579 -5.56341,-7.97667 -7.78874,-14.39493c-0.49301,-1.42193 -0.95304,-2.85227 -1.38131,-4.29007c-1.24275,1.02062 -2.88475,1.02062 -2.88475,1.02062h-1.38462c-6.26541,0 -13.12805,0.79673 -19.21159,-0.72415c-5.16363,0.03367 -9.65383,-1.25896 -14.71584,-2.10257c-5.82994,-0.97159 -11.18541,-2.05946 -16.92007,-3.5237c-1.35122,-0.34501 -2.81704,-0.31906 -4.08659,-0.89617c-8.29482,-3.77065 -14.95416,-11.07438 -20.87653,-17.65421c-2.25648,-2.50698 -3.40117,-2.8208 -5.35885,-6.21746c-2.84898,-4.9431 -3.69249,-9.65047 -5.30186,-14.88814c-0.59424,-1.93394 -1.62819,-3.72516 -2.1168,-5.68845c-1.70078,-6.83406 -2.29854,-14.44092 -2.92945,-21.4247c-1.09839,-14.66485 -1.3751,-29.46498 2.29524,-43.82071c3.24592,-12.69571 10.97724,-25.47269 18.63161,-35.88672c5.69738,-7.75148 10.83024,-15.54726 17.93393,-22.14939c8.93417,-8.30337 20.09152,-14.23808 30.09085,-21.11416c15.08237,-10.34337 31.85196,-17.66346 49.15817,-23.42652c7.81387,-2.60206 15.8927,-5.04853 24.0593,-6.32791c6.19024,-0.96977 12.82128,-0.73134 19.07924,-0.73197c6.63302,-0.00066 13.95516,-0.38799 20.57051,0.01069c8.85511,0.53367 17.89215,2.64545 26.62425,4.1883c8.12083,0.9509 16.6291,1.53128 24.63715,3.2523c27.11577,5.82749 53.47232,23.07398 65.80665,48.26602c5.80943,11.86537 9.06884,25.49585 11.75004,38.34455c4.18025,20.08501 5.0987,39.53372 3.89284,59.97084c-0.57892,9.81177 -0.92891,19.66726 -2.11263,29.43384c-1.51212,12.47615 -4.93181,25.35898 -8.47056,37.39701c-1.90146,6.46835 -4.98935,12.84456 -7.43472,19.1217c-4.26492,8.53754 -8.54638,19.01722 -15.17954,26.64556c0.9109,0.99331 1.85301,1.96157 2.63302,3.05724zM309.05755,276.15018c-0.41266,2.41996 -0.40445,4.89342 -0.65517,7.33547c-0.66782,6.50469 -2.40441,13.29669 -3.51312,19.74621c-0.37224,2.16535 -1.60012,4.11033 -2.08135,6.2541c-0.96628,4.30461 -0.27042,9.07766 -0.63631,13.46123c-0.23026,2.75865 -1.16424,5.42994 -1.37462,8.19019c-0.29231,3.83508 0.00797,7.89634 -0.00999,11.74148c0.47525,2.29674 0.47406,6.20958 1.65609,8.22485c1.479,2.52157 4.68725,6.34321 6.98422,8.13077c1.90002,1.47864 4.38568,2.00184 6.4832,3.18374c0.8913,0.50223 1.56689,1.42666 2.55087,1.70671c1.05919,0.30145 2.23055,-0.28853 3.30352,-0.04052c2.45957,0.56852 4.59977,2.14193 7.03747,2.79792c4.9615,1.33515 10.19405,1.51369 15.1644,2.75218c1.94819,0.48544 6.51075,2.35216 8.56501,2.68499c3.43164,0.55598 6.99444,0.82114 10.49383,1.40136c3.72042,0.63442 7.01105,0.3191 10.72877,0.64896c9.31505,0.82649 18.64606,0.67783 28.03407,0.67783c3.46154,0 6.92308,0 10.38462,0c2.03995,0 4.12395,0.50058 6.11937,0.07669c1.10261,-0.23423 2.03245,-1.00794 3.12006,-1.30411c2.50748,-0.68282 5.16387,-0.7107 7.66973,-1.39943c4.04046,-1.11051 7.99079,-2.36413 12.07786,-3.33993c3.63532,-1.86168 6.95173,-3.99269 10.50631,-5.97033c1.77613,-0.98817 3.95104,-1.41708 5.38825,-2.85428c2.07635,-2.07635 1.61848,-4.26705 2.17588,-6.68539c0.33934,-1.47225 1.05079,-2.83345 1.6119,-4.23624c0.67502,-1.68756 0.77799,-3.55108 1.13552,-5.33313c0.53985,-2.69081 1.77394,-5.24562 2.03653,-7.97746c0.76996,-8.01029 0.24962,-16.61389 -1.31656,-24.43135c-0.76617,-4.32911 -3.22251,-8.20109 -5.17834,-12.0988c-1.53632,-3.06166 -2.71222,-6.4046 -4.61873,-9.2903c-1.4591,-2.2085 -3.69361,-3.80848 -5.30841,-5.90582c-1.48232,-1.92527 -2.14293,-4.38707 -3.55944,-6.36125c-0.59747,-0.83268 -1.28808,-1.59168 -1.98567,-2.34543c-0.61355,0.42387 -1.24417,0.8239 -1.89285,1.19804c-4.04272,2.33173 -12.65874,4.31009 -17.17279,5.53238c-2.52554,0.68385 -12.2018,3.43009 -12.90248,3.55676c-7.4887,1.35373 -15.95369,0.74825 -23.52151,0.74631c-21.62594,-0.00555 -42.34276,-4.60394 -63.59602,-7.79814c-4.66781,-0.7049 -9.28119,-1.72786 -13.89672,-2.72777c-0.0044,0.03364 -0.00739,0.05153 -0.00739,0.05153z" fill="#000000"/><path d="M309.01605,276.12234c0,0 0.003,-0.01791 0.0074,-0.05155c4.61553,0.99991 9.23104,2.01993 13.89885,2.72483c21.25326,3.1942 42.01463,7.77368 63.64057,7.77923c7.56782,0.00194 16.05621,0.61612 23.54491,-0.73761c0.70068,-0.12667 10.38257,-2.86834 12.90811,-3.55219c4.51405,-1.22229 13.13406,-3.19644 17.17678,-5.52817c0.64868,-0.37414 1.27943,-0.77402 1.89298,-1.19789c0.69759,0.75375 1.38944,1.51429 1.98691,2.34697c1.41651,1.97418 2.07981,4.43982 3.56213,6.36509c1.6148,2.09734 3.85176,3.70166 5.31086,5.91016c1.90651,2.8857 3.08495,6.23468 4.62127,9.29634c1.95583,3.89771 4.41419,7.77753 5.18036,12.10664c1.56618,7.81746 2.08683,16.43601 1.31687,24.4463c-0.26259,2.73184 -1.49757,5.29158 -2.03742,7.98239c-0.35753,1.78205 -0.46137,3.64879 -1.13639,5.33635c-0.56111,1.40279 -1.27344,2.76661 -1.61278,4.23886c-0.5574,2.41834 -0.10117,4.61299 -2.17752,6.68934c-1.43721,1.4372 -3.61351,1.86887 -5.38964,2.85704c-3.55458,1.97764 -6.87479,4.11458 -10.51011,5.97626c-4.08707,0.9758 -8.04231,2.23508 -12.08277,3.34559c-2.50586,0.68873 -5.16612,0.72007 -7.6736,1.40289c-1.08761,0.29617 -2.01956,1.07149 -3.12217,1.30572c-1.99542,0.42389 -4.08298,-0.07435 -6.12293,-0.07435c-3.46154,0 -6.93063,0.00369 -10.39217,0.00369c-9.38801,0 -18.74594,0.15127 -28.06099,-0.67522c-3.71772,-0.32986 -7.01825,-0.01739 -10.73867,-0.65181c-3.49939,-0.58022 -7.07041,-0.84962 -10.50205,-1.4056c-2.05426,-0.33283 -6.62275,-2.20399 -8.57094,-2.68943c-4.97035,-1.23849 -10.20962,-1.42417 -15.17112,-2.75932c-2.4377,-0.65599 -4.5805,-2.23311 -7.04007,-2.80163c-1.07297,-0.24801 -2.24494,0.34098 -3.30413,0.03953c-0.98398,-0.28005 -1.66048,-1.20606 -2.55178,-1.70829c-2.09752,-1.1819 -4.58485,-1.70839 -6.48487,-3.18703c-2.29697,-1.78756 -5.50745,-5.61492 -6.98645,-8.13649c-1.18203,-2.01527 -1.18212,-5.93294 -1.65737,-8.22968c0.01796,-3.84514 -0.2833,-7.91336 0.00901,-11.74844c0.21038,-2.76025 1.14426,-5.43657 1.37452,-8.19522c0.36589,-4.38357 -0.32902,-9.16488 0.63726,-13.46949c0.48123,-2.14377 1.71007,-4.09269 2.08231,-6.25804c1.10871,-6.44952 2.84986,-13.2524 3.51768,-19.75709c0.25072,-2.44205 0.2445,-4.91874 0.65716,-7.3387z" data-paper-data="{&quot;noHover&quot;:false,&quot;origItem&quot;:[&quot;Path&quot;,{&quot;applyMatrix&quot;:true,&quot;segments&quot;:[[[309.05755,276.15018],[0,0],[-0.41266,2.41996]],[[308.40238,283.48565],[0.25072,-2.44205],[-0.66782,6.50469]],[[304.88926,303.23186],[1.10871,-6.44952],[-0.37224,2.16535]],[[302.80791,309.48596],[0.48123,-2.14377],[-0.96628,4.30461]],[[302.17161,322.94719],[0.36589,-4.38357],[-0.23026,2.75865]],[[300.79699,331.13738],[0.21038,-2.76025],[-0.29231,3.83508]],[[300.787,342.87886],[0.01796,-3.84514],[0.47525,2.29674]],[[302.44309,351.10371],[-1.18203,-2.01527],[1.479,2.52157]],[[309.42731,359.23448],[-2.29697,-1.78756],[1.90002,1.47864]],[[315.9105,362.41822],[-2.09752,-1.1819],[0.8913,0.50223]],[[318.46137,364.12493],[-0.98398,-0.28005],[1.05919,0.30145]],[[321.76489,364.08441],[-1.07297,-0.24801],[2.45957,0.56852]],[[328.80236,366.88233],[-2.4377,-0.65599],[4.9615,1.33515]],[[343.96677,369.63451],[-4.97035,-1.23849],[1.94819,0.48544]],[[352.53177,372.3195],[-2.05426,-0.33283],[3.43164,0.55598]],[[363.0256,373.72086],[-3.49939,-0.58022],[3.72042,0.63442]],[[373.75437,374.36982],[-3.71772,-0.32986],[9.31505,0.82649]],[[401.78844,375.04765],[-9.38801,0],[3.46154,0]],[[412.17306,375.04765],[-3.46154,0],[2.03995,0]],[[418.29243,375.12434],[-1.99542,0.42389],[1.10261,-0.23423]],[[421.41249,373.82023],[-1.08761,0.29617],[2.50748,-0.68282]],[[429.08223,372.4208],[-2.50586,0.68873],[4.04046,-1.11051]],[[441.16008,369.08087],[-4.08707,0.9758],[3.63532,-1.86168]],[[451.66639,363.11054],[-3.55458,1.97764],[1.77613,-0.98817]],[[457.05464,360.25626],[-1.43721,1.4372],[2.07635,-2.07635]],[[459.23052,353.57087],[-0.5574,2.41834],[0.33934,-1.47225]],[[460.84242,349.33463],[-0.56111,1.40279],[0.67502,-1.68756]],[[461.97795,344.0015],[-0.35753,1.78205],[0.53985,-2.69081]],[[464.01447,336.02404],[-0.26259,2.73184],[0.76996,-8.01029]],[[462.69792,311.59269],[1.56618,7.81746],[-0.76617,-4.32911]],[[457.51957,299.49389],[1.95583,3.89771],[-1.53632,-3.06166]],[[452.90085,290.20359],[1.90651,2.8857],[-1.4591,-2.2085]],[[447.59243,284.29777],[1.6148,2.09734],[-1.48232,-1.92527]],[[444.03299,277.93652],[1.41651,1.97418],[-0.59747,-0.83268]],[[442.04732,275.59109],[0.69759,0.75375],[-0.61355,0.42387]],[[440.15447,276.78913],[0.64868,-0.37414],[-4.04272,2.33173]],[[422.98168,282.32151],[4.51405,-1.22229],[-2.52554,0.68385]],[[410.0792,285.87827],[0.70068,-0.12667],[-7.4887,1.35373]],[[386.55769,286.62458],[7.56782,0.00194],[-21.62594,-0.00555]],[[322.96167,278.82644],[21.25326,3.1942],[-4.66781,-0.7049]],[[309.06495,276.09867],[4.61553,0.99991],[-0.0044,0.03364]],[309.05756,276.1502]],&quot;closed&quot;:true,&quot;fillColor&quot;:[0,0,0,1]}]}" fill="#7300ff"/><path d="M299.23076,200.68225c0,-2.34721 1.90279,-4.25 4.25,-4.25c2.34721,0 4.25,1.90279 4.25,4.25c0,2.34721 -1.90279,4.25 -4.25,4.25c-2.34721,0 -4.25,-1.90279 -4.25,-4.25z" fill="#ffffff"/><path d="M401.69229,221.45148c0,-2.34721 1.90279,-4.25 4.25,-4.25c2.34721,0 4.25,1.90279 4.25,4.25c0,2.34721 -1.90279,4.25 -4.25,4.25c-2.34721,0 -4.25,-1.90279 -4.25,-4.25z" fill="#ffffff"/></g></g></g></svg>