<svg version="1.1" xmlns="http://www.w3.org/2000/svg" xmlns:xlink="http://www.w3.org/1999/xlink" width="385.39962" height="388.50646" viewBox="0,0,385.39962,388.50646"><g transform="translate(-12.54996,-34.83613)"><g data-paper-data="{&quot;isPaintingLayer&quot;:true}" fill-rule="nonzero" stroke="none" stroke-linecap="butt" stroke-linejoin="miter" stroke-miterlimit="10" stroke-dasharray="" stroke-dashoffset="0" style="mix-blend-mode: normal"><g><path d="M320.21205,394.49838c0.81062,3.24246 -1.56616,4.57249 -2.61844,4.99272c-0.17641,0.3135 -0.36375,0.62854 -0.56265,0.94565c-1.17317,1.87046 -2.94565,3.29663 -4.27526,5.05932c-0.86528,1.14712 -1.26414,2.6417 -2.27896,3.65892c-2.24072,2.24602 -5.1411,3.75378 -7.41937,5.9617c-0.81023,0.34255 -6.85254,2.93834 -7.87751,3.21798c-5.71033,1.55789 -11.85538,1.50099 -17.63492,2.73699c-11.0842,2.37043 -22.4398,2.09839 -33.82167,2.09839c-7.08117,0 -14.35728,0.39251 -21.43294,-0.0065c-6.42546,-0.36235 -7.12449,-1.04034 -13.74637,-2.04319c-4.05725,-0.61445 -8.19638,-0.41779 -12.29446,-0.62883c-7.13461,-0.36741 -14.04445,-2.06921 -21.16065,-2.7187c-3.66523,-0.8395 -7.27064,-2.08054 -10.63648,-3.75679c-5.37871,-2.6787 -10.4203,-4.20673 -13.8419,-9.79838c-1.7686,-2.89028 -1.64936,-6.92309 -1.20032,-10.66074c-0.13685,-0.68378 -0.09009,-1.47072 0.31598,-2.32887c0.15057,-1.02939 0.30103,-2.0082 0.41331,-2.90129c0.38811,-3.08711 0.03336,-6.61299 0.71315,-9.64079c0.10317,-0.45951 2.60293,-6.76675 2.931,-7.53195c1.47446,-3.43904 3.08716,-6.80054 4.7095,-10.1549c-0.69821,-0.71005 -1.20536,-1.78971 -1.00125,-3.42255c0.43686,-3.4949 3.40802,-3.73144 4.41294,-3.70994c1.12758,-2.42469 2.2133,-4.87136 3.20964,-7.36599c0,0 0.07925,-0.19812 0.24663,-0.48783c-0.55545,-0.16141 -1.11184,-0.31846 -1.66979,-0.4682c-14.61799,-4.06969 -31.35772,-11.31244 -41.93458,-22.73231c-1.18077,-1.27488 -1.90689,-2.90669 -2.91968,-4.3187c-3.68599,-5.13894 -8.18455,-9.59964 -11.06203,-15.31458c-0.89813,-1.78378 -1.34544,-3.76302 -2.12131,-5.60328c-1.94173,-4.60553 -5.25896,-11.00798 -6.80767,-15.71289c-2.0573,-6.24998 -1.91323,-12.90069 -2.79227,-19.3535c-0.08875,-0.65149 -0.18351,-1.30208 -0.28285,-1.95201c-9.10827,2.05711 -17.31494,2.24367 -27.01417,1.48731c-3.26826,-0.88761 -10.7173,-2.4629 -13.84395,-4.78982c-3.97209,-2.95612 -5.27081,-8.63611 -9.11137,-11.51082c-0.21576,-0.1615 -0.48028,0.2653 -0.74556,0.31282c-1.22841,0.22004 -2.54122,0.05428 -3.71225,0.48568c-5.34018,1.96729 -10.97707,6.78439 -16.98432,2.82548c-6.75186,-4.44964 -6.78236,-14.97608 -7.87286,-21.88254c-1.14814,-7.27155 -2.56443,-14.68918 -3.36213,-22.00822c-1.01446,-9.3078 -0.47956,-18.55866 0.04029,-27.86545c0.79426,-2.77765 3.32676,-11.69759 3.70109,-12.48794c1.21586,-2.5671 3.21813,-4.68159 4.84217,-7.012c3.36874,-4.83394 7.19989,-9.37008 11.36227,-13.54021c9.17567,-9.19277 18.52814,-18.51945 29.47959,-25.66942c0.4014,-0.26207 15.59458,-8.41098 15.87462,-8.50947c2.92822,-1.02987 6.07889,-1.27125 9.14377,-1.76284c1.97075,-0.3161 3.95594,-0.71111 5.95109,-0.6654c-0.12247,-0.14795 -0.19852,-0.30536 -0.16313,-0.49002c0.56834,-2.96557 1.8982,-5.73316 2.81311,-8.61075c1.17527,-3.69648 2.15532,-8.15393 3.41379,-11.5721c1.913,-5.19599 4.57388,-10.08521 6.86689,-15.12505c4.81722,-8.76783 9.43954,-18.51806 17.41629,-25.02235c10.35199,-8.44108 24.66257,-11.11344 37.55892,-11.69452c20.22266,-0.91118 43.52729,-2.48848 60.57097,9.58075c5.24819,0.23185 10.9484,1.7375 15.52201,3.72846c1.77573,0.773 3.69504,1.41578 5.14439,2.70036c0.67422,0.59757 1.23905,1.29546 1.75995,2.03363c3.80403,-1.99695 7.67494,-3.83152 12.01396,-4.9734c1.34013,-0.35267 2.76481,-0.19355 4.14821,-0.27437c7.90141,-0.46165 15.45363,-0.50393 23.33017,0.60589c6.38418,0.89955 11.07356,1.35848 17.32945,3.0973c6.42641,1.78621 11.99823,5.10223 17.6721,8.43758c12.14209,7.13768 23.70776,13.78938 34.19392,23.31197c3.7852,3.78414 7.49003,7.65036 11.35395,11.35408c1.9466,1.86589 4.3394,3.31825 5.94876,5.48176c1.83438,2.46601 2.79406,5.47539 4.22516,8.19534c2.54344,4.83405 5.13187,9.68599 6.97945,14.82637c5.85141,16.27989 4.1173,33.97855 3.54651,50.86374c-0.26841,7.9401 -0.03393,15.74188 -0.68491,23.67836c-0.58837,7.17321 -1.79209,14.35507 -2.68475,21.49565c-1.85708,16.71796 -5.08326,32.99402 -10.24104,49.04421c-4.47011,13.91026 -13.76166,26.8878 -21.78053,38.91686c-6.01796,9.02751 -11.68739,18.83488 -20.28354,25.75654c-6.67187,5.37223 -8.20568,5.40244 -16.00111,8.75321c-2.62802,0.73633 -5.25281,1.49855 -7.87874,2.26282c0.79036,1.54477 1.53346,3.03155 1.76772,3.6143c0.59732,1.48587 0.6865,3.21432 1.59885,4.53046c2.88864,4.16711 4.80232,7.9068 6.95869,12.53198c1.68675,3.61789 3.66255,6.47235 4.34949,10.46376c0.59905,3.48073 0.05488,7.81079 0.05488,11.37376c0,2.37114 -0.11102,4.51759 -0.51329,6.58565c0.15407,0.31139 0.28515,0.66665 0.38639,1.07162zM179.39726,409.6785c-1.02107,-0.26087 -2.07896,-0.30472 -3.13979,-0.33458c0.04691,0.01025 0.09384,0.02037 0.14079,0.03037c1.07502,0.09734 2.14555,0.22114 3.21306,0.36193c-0.07111,-0.02015 -0.14246,-0.03943 -0.21406,-0.05772zM165.23005,397.22998c2.24736,1.31135 6.70135,2.89117 9.31228,3.48222c2.25657,0.51083 4.65665,0.16649 6.90388,0.71695c11.64956,2.85357 24.96351,3.88455 37.06928,3.88455c14.24572,0 28.23325,-0.57356 42.35314,-1.98425c5.52507,-0.552 11.01881,-1.28165 16.56245,-1.98801c1.55682,-0.19837 3.17187,-0.08591 4.67902,-0.52356c1.51808,-0.44082 2.74798,-1.62913 4.265,-2.0736c0.9792,-0.28689 2.05611,0.10876 3.06022,-0.07261c3.49305,-0.63094 7.39879,-2.0919 10.76253,-3.21315c3.92825,-0.98473 7.58799,-2.3403 11.48848,-3.23263c0.08713,-0.27187 0.16395,-0.55218 0.2293,-0.84199c0.33312,-1.47739 -0.07669,-3.02831 -0.07669,-4.54278c0,-3.13527 0.54361,-6.92801 0.05488,-10.01221c-0.35919,-2.26668 -2.98762,-6.78761 -3.67025,-8.24895c-0.7162,-1.53322 -2.49608,-6.13129 -3.62015,-8.00174l-3.07942,1.51152c-5.42929,1.39482 -10.79593,1.23687 -16.16491,2.21404c-3.97421,0.72332 -7.43334,2.05551 -11.62328,2.03913c-12.79585,2.65139 -25.79789,0.70181 -38.72424,0.01541c-10.42915,-0.5538 -20.94232,0.49688 -31.37555,0.0016c-12.25229,-0.58163 -24.5395,-1.86282 -36.73517,-3.33546c-0.8991,1.84903 -1.80076,3.70315 -2.68495,5.58115c-1.4836,3.15114 -4.22375,8.06296 -5.01667,11.68778c-0.61976,2.83321 -0.26171,6.16214 -0.62347,9.07193c-0.08031,0.64594 -0.15951,1.2714 -0.23384,1.88572c2.23448,2.09138 4.30973,4.47443 6.88814,5.97895zM295.03933,337.72242c2.00128,-2.00128 4.00256,-1.3371 5.11633,-0.67001c3.50419,-1.01753 7.00474,-2.04249 10.51444,-3.00768c6.46085,-2.75932 7.94063,-2.85053 13.40458,-7.28626c7.90494,-6.41735 13.07456,-15.5931 18.62561,-23.91914c7.61025,-11.41465 16.64255,-23.82313 20.84431,-37.05c4.9149,-15.4718 8.01907,-31.09363 9.8083,-47.19263c0.88322,-7.06642 2.0825,-14.1774 2.66174,-21.27628c0.63165,-7.74119 0.39246,-15.35858 0.65171,-23.10344c0.5319,-15.89022 2.38624,-32.71551 -3.1366,-48.04634c-1.68996,-4.69115 -4.13497,-9.07947 -6.42674,-13.50786c-1.19197,-2.30325 -1.90325,-4.89146 -3.44864,-6.97413c-1.34087,-1.80704 -3.41501,-2.93366 -5.05021,-4.47944c-3.89149,-3.6787 -7.5738,-7.57257 -11.35985,-11.35971c-9.97778,-9.08242 -21.08382,-15.33609 -32.64601,-22.14199c-5.06369,-2.98067 -9.99731,-6.01395 -15.74347,-7.60188c-5.6682,-1.56639 -10.31104,-2.01749 -16.12673,-2.83782c-7.3674,-1.0392 -14.29202,-0.92135 -21.67212,-0.53574c-0.97853,0.05113 -1.99036,-0.13309 -2.93717,0.11926c-4.00862,1.06841 -7.64975,2.88453 -11.2374,4.83534c-0.27889,0.39202 -0.65936,0.77682 -1.16814,1.14024c-0.91766,0.65547 -1.76574,0.89352 -2.51656,0.88952c-1.80917,0.99391 -3.63211,1.96861 -5.5091,2.84553l-0.12744,0.48997c0,0 -3.0052,3.00521 -6.01041,0c-3.0052,-3.00521 0,-6.01041 0,-6.01041l2.5458,-2.18327c0.86689,-0.40337 1.72012,-0.82133 2.56374,-1.24852c-1.4612,-0.77126 -5.25661,-1.98959 -5.86842,-2.1533c-0.82981,-0.22205 -1.65032,-0.48729 -2.4708,-0.75193c-0.12563,0.20793 -0.27587,0.41747 -0.45383,0.62759c0.79641,0.79862 1.38235,1.71368 1.58072,2.81775c0.43521,2.42229 -3.25731,3.76537 -5.2952,5.14519c-0.15512,0.10503 -0.33889,0.20716 -0.54606,0.30633c0.39792,0.4475 0.77543,0.90906 1.10233,1.40425c3.02125,4.57664 3.84497,10.08454 5.8487,15.04243c1.65176,5.81909 3.73942,13.68539 2.11974,19.72733c-2.22815,8.31169 -8.09121,12.0327 -15.18763,15.91753c-12.15435,6.65371 -26.09027,10.84392 -39.4005,14.43935c-5.40208,1.45924 -10.92503,2.43852 -16.42693,3.45881c-1.02901,0.19083 -2.31759,0.08216 -3.02022,0.85779c-0.42197,0.46581 0.57321,1.15001 0.63473,1.77551c0.26423,2.68659 -0.46686,5.43281 -0.04108,8.09857c0.24352,1.52461 1.02481,2.92668 1.29758,4.44633c0.90361,5.03406 1.29174,10.07641 -0.61016,15.02609c-1.1412,2.96997 -3.2643,5.46229 -4.89645,8.19343c-6.67899,8.67757 -14.37115,16.94198 -22.58307,24.22817c-3.3402,2.96366 -7.54213,4.80245 -11.09515,7.50731c-0.22173,0.1688 0.4682,0.39135 0.50288,0.66785c0.13862,1.1052 0.00015,2.2277 0,3.34155c-0.00034,2.48772 0.04653,4.9759 -0.00147,7.46316c-0.15793,8.18287 -0.20416,18.03742 -2.24178,26.01897c-0.35112,1.37537 -1.42277,2.45745 -2.17827,3.65918c-1.66545,2.64913 -2.87591,5.67428 -5.08362,7.89186c-3.39123,3.40639 -5.57362,4.69064 -8.31415,5.60518c0.15882,0.99513 0.30876,1.99159 0.44476,2.99012c0.80849,5.93579 0.54903,12.20589 2.47332,17.93423c2.22377,6.61983 5.34336,13.86052 8.44711,20.11914c2.61296,5.26894 6.95332,9.35132 10.32393,14.09112c0.85495,1.20225 1.4284,2.61498 2.42682,3.70103c6.14053,6.67951 14.71004,10.51784 22.69396,14.33765c4.85869,2.32458 9.88691,4.37764 15.08248,5.79769c3.98251,1.06879 7.87321,2.5636 11.94436,3.21815c15.8137,2.5425 32.01429,2.95929 47.98051,3.62546c16.16791,0.67459 33.50489,1.7622 49.49513,-0.97636c6.37694,-1.09215 12.648,-2.7034 18.88483,-4.45746c0.20021,-0.34042 0.46598,-0.68539 0.81094,-1.03035zM211.00646,62.20697c-0.31126,-1.55631 0.0749,-2.64766 0.68101,-3.40429c0.16045,-0.62506 0.49957,-1.26132 1.13226,-1.82262c-0.31222,-0.53051 -0.52311,-1.20459 -0.55498,-2.06108c-6.79638,1.17092 -8.59117,0.88434 -15.10094,3.1259c-10.40987,3.5845 -19.54972,9.50109 -28.3044,16.04368c-9.79606,7.32085 -19.14584,15.55876 -26.87781,25.01946c-9.46255,11.5355 -15.49626,24.17978 -21.90814,37.56019c-1.68032,3.50651 -3.9366,6.76568 -5.19229,10.44568c-4.98646,14.61362 -7.74365,29.89637 -9.77233,45.11556c-1.6146,12.11274 -3.13388,23.63058 -3.25633,35.87203c-0.05554,5.45283 -0.79633,11.2784 -0.06963,16.66433c0.21966,1.62796 0.47693,3.25032 0.74994,4.87035c1.43121,-0.79611 2.7051,-1.72479 3.72531,-2.80196c1.74516,-1.84259 2.62342,-4.3456 3.97949,-6.49077c0.4197,-0.66393 1.17792,-1.16676 1.34622,-1.93399c1.60779,-7.32942 1.62646,-15.99137 1.76808,-23.43607c0.06709,-3.52644 -0.22219,-7.06108 -0.00147,-10.58125c0.09816,-1.56545 -0.45244,-3.4346 0.50289,-4.67864c3.30779,-4.30743 8.90828,-6.25683 12.96406,-9.86879c7.66684,-6.82785 14.95285,-14.53847 21.19758,-22.662c3.82237,-6.15339 5.60289,-9.52202 4.17765,-16.77077c-0.98595,-5.01455 -1.71911,-8.98439 -1.41674,-14.18756c0.12138,-2.08861 -0.64584,-4.58979 0.63474,-6.24422c4.11274,-5.31349 10.8955,-4.7028 16.48365,-5.88943c7.62527,-1.6192 15.20732,-4.15669 22.58885,-6.6158c7.68466,-2.5601 15.78885,-5.33185 22.92408,-9.23791c4.29002,-2.34851 9.83024,-5.14247 10.99663,-10.41453c1.02418,-4.62927 -0.61602,-10.60205 -1.89013,-15.02487c-1.6499,-4.16395 -2.29175,-9.24193 -4.84427,-13.02665c-1.01716,-1.50818 -2.32786,-2.82046 -3.46016,-4.24592c-1.23729,-0.22568 -2.73816,-0.99471 -3.20283,-3.31805zM161.80137,43.94139c-10.96552,0.47746 -23.72766,2.52459 -32.55143,9.7804c-6.98345,5.74252 -10.96773,14.56489 -15.20165,22.25439c-2.16244,4.76204 -4.69374,9.3722 -6.49935,14.28065c-1.37639,3.74165 -2.0523,7.4256 -3.26932,11.15049c-0.81253,2.4869 -1.85322,4.90241 -2.53338,7.42873c-0.4707,1.74832 0.31342,4.01908 -0.90842,5.35523c-1.43047,1.56431 -3.91355,1.68506 -5.97623,2.17354c-4.46243,1.05679 -9.28408,0.50655 -13.60517,2.04223c-2.46459,0.87589 -4.58436,2.51983 -6.88447,3.76518c-4.75546,2.57478 -9.32452,5.53772 -13.58441,8.86897c-7.84532,6.13507 -14.64454,12.49202 -21.70708,19.54086c-3.82086,3.81343 -7.30209,7.99187 -10.41017,12.40561c-1.37161,1.9478 -3.12804,3.66765 -4.14529,5.82182c-1.51734,3.21316 -1.9448,6.83598 -2.98202,10.23464c-0.41862,8.54154 -0.89587,17.06194 0.04029,25.59946c0.78461,7.15549 2.17674,14.40791 3.2991,21.51621c0.80978,5.12864 0.39706,12.04847 4.17863,16.12702c0.69333,0.74778 2.07531,-0.11205 3.01795,-0.50107c4.40219,-1.81674 11.61233,-6.60661 16.97523,-3.89468c5.47338,2.76779 6.44026,9.13225 10.93797,12.54839c1.42281,1.08067 10.06886,3.18979 10.21527,3.22992c5.31732,0.40241 10.67273,0.41227 15.99715,0.11829c2.39193,-0.13207 5.29732,-0.49828 8.21743,-1.18103c-0.40769,-2.34557 -0.79803,-4.69364 -1.10263,-7.05423c-0.73495,-5.69591 -0.02486,-11.78765 0.03359,-17.53742c0.13003,-12.5701 1.66418,-24.42255 3.32357,-36.85604c2.12019,-15.8862 5.00715,-31.87963 10.27701,-47.1114c1.34328,-3.88255 3.67928,-7.34738 5.45452,-11.05239c6.7069,-13.99755 13.11103,-27.19665 22.99904,-39.2747c8.20228,-9.98441 18.00385,-18.69462 28.3632,-26.44004c9.4632,-7.07539 19.39464,-13.42362 30.65168,-17.28117c6.20646,-2.12682 8.32019,-2.2098 13.39931,-2.97438c-14.18197,-5.27545 -31.61954,-3.71048 -46.01992,-3.08346zM94.16413,108.62635c0.10698,0.19325 0.15886,0.3187 0.10029,0.17603c-0.02518,-0.06133 -0.05956,-0.11975 -0.10029,-0.17603zM192.49514,411.64938c-0.35939,-0.05496 -0.72023,-0.09806 -1.08218,-0.13227c0.36043,0.04628 0.72114,0.09049 1.08218,0.13227z" fill="#000000" stroke-width="0.5"/><path d="M165.18107,397.23999c-2.57841,-1.50452 -4.65438,-3.8922 -6.88886,-5.98358c0.07433,-0.61432 0.15341,-1.24097 0.23372,-1.88691c0.36176,-2.90979 0.00356,-6.24464 0.62332,-9.07785c0.79292,-3.62482 3.53403,-8.5448 5.01763,-11.69594c0.88419,-1.878 1.78686,-3.73622 2.68596,-5.58525c12.19567,1.47264 24.48662,2.74458 36.73891,3.32621c10.43323,0.49528 20.99004,-0.58215 31.41919,-0.02835c12.92635,0.6864 25.97493,2.66618 38.77078,0.01479c4.18994,0.01638 7.65002,-1.31345 11.62423,-2.03677c5.36898,-0.97717 10.73645,-0.8168 16.16574,-2.21161l3.07932,-1.51186c1.12407,1.87045 2.90542,6.47421 3.62162,8.00743c0.68263,1.46134 3.31185,5.98794 3.67104,8.25462c0.48873,3.0842 -0.05479,6.88346 -0.05479,10.01873c0,1.51447 0.40958,3.06832 0.07646,4.54571c-0.06535,0.28981 -0.14223,0.57068 -0.22936,0.84255c-3.90049,0.89233 -7.56077,2.25133 -11.48901,3.23606c-3.36374,1.12125 -7.27056,2.58668 -10.76361,3.21762c-1.00411,0.18137 -2.08127,-0.21346 -3.06047,0.07343c-1.51702,0.44447 -2.74797,1.63584 -4.26605,2.07666c-1.50715,0.43765 -3.12308,0.32736 -4.6799,0.52573c-5.54364,0.70636 -11.04407,1.44714 -16.56914,1.99914c-14.11989,1.41069 -28.17648,1.9932 -42.4222,1.9932c-12.10577,0 -25.43709,-1.05479 -37.08665,-3.90836c-2.24723,-0.55046 -4.64801,-0.20833 -6.90458,-0.71916c-2.61093,-0.59105 -7.06593,-2.17492 -9.31329,-3.48627z" data-paper-data="{&quot;noHover&quot;:false,&quot;origItem&quot;:[&quot;Path&quot;,{&quot;applyMatrix&quot;:true,&quot;segments&quot;:[[[352.97136,771.94871],[0,0],[4.49472,2.6227]],[[371.59592,778.91315],[-5.22186,-1.1821],[4.51314,1.02166]],[[385.40368,780.34705],[-4.49446,-1.10092],[23.29912,5.70714]],[[459.54224,788.11615],[-24.21154,0],[28.49144,0]],[[544.24852,784.14765],[-28.23978,2.82138],[11.05014,-1.104]],[[577.37342,780.17163],[-11.08728,1.41272],[3.11364,-0.39674]],[[586.73146,779.12451],[-3.0143,0.8753],[3.03616,-0.88164]],[[595.26146,774.97731],[-3.03404,0.88894],[1.9584,-0.57378]],[[601.3819,774.83209],[-2.00822,0.36274],[6.9861,-1.26188]],[[622.90696,768.40579],[-6.72748,2.2425],[7.8565,-1.96946]],[[645.88392,761.94053],[-7.80098,1.78466],[0.17426,-0.54374]],[[646.34252,760.25655],[-0.1307,0.57962],[0.66624,-2.95478]],[[646.18914,751.17099],[0,3.02894],[0,-6.27054]],[[646.2989,731.14657],[0.97746,6.1684],[-0.71838,-4.53336]],[[638.9584,714.64867],[1.36526,2.92268],[-1.4324,-3.06644]],[[631.7181,698.64519],[2.24814,3.7409],[0,0]],[[625.55926,701.66823],[0,0],[-10.85858,2.78964]],[[593.22944,706.09631],[10.73796,-1.95434],[-7.94842,1.44664]],[[569.98288,710.17457],[8.37988,0.03276],[-25.5917,5.30278]],[[492.5344,710.20539],[25.8527,1.3728],[-20.8583,-1.1076]],[[429.7833,710.20859],[20.86646,0.99056],[-24.50458,-1.16326]],[[356.31296,703.53767],[24.39134,2.94528],[-1.7982,3.69806]],[[350.94306,714.69997],[1.76838,-3.756],[-2.9672,6.30228]],[[340.90972,738.07553],[1.58584,-7.24964],[-1.23952,5.66642]],[[339.66278,756.21939],[0.72352,-5.81958],[-0.16062,1.29188]],[[339.1951,759.99083],[0.14866,-1.22864],[4.46896,4.18276]],[[352.97138,771.94873],[-5.15682,-3.00904],[0,0]]],&quot;closed&quot;:true,&quot;fillColor&quot;:[0,0,0,1]}]}" fill="#ffffff" stroke-width="0.5"/><path d="M295.05767,337.76895c-0.34496,0.34496 -0.61109,0.69007 -0.8113,1.03049c-6.23683,1.75406 -12.51412,3.36726 -18.89106,4.45941c-15.99024,2.73856 -33.34408,1.65208 -49.51199,0.97749c-15.96622,-0.66617 -32.18208,-1.08704 -47.99578,-3.62954c-4.07115,-0.65455 -7.96535,-2.15109 -11.94786,-3.21988c-5.19557,-1.42005 -10.22808,-3.47573 -15.08677,-5.80031c-7.98392,-3.81981 -16.55986,-7.66336 -22.70039,-14.34287c-0.99842,-1.08605 -1.57282,-2.49972 -2.42777,-3.70197c-3.37061,-4.7398 -7.71456,-8.82622 -10.32752,-14.09516c-3.10375,-6.25862 -6.22718,-13.50488 -8.45095,-20.12471c-1.92429,-5.72834 -1.66741,-12.00339 -2.4759,-17.93918c-0.136,-0.99853 -0.28633,-1.99589 -0.44515,-2.99102c2.74053,-0.91454 4.92265,-2.19941 8.31388,-5.6058c2.20771,-2.21758 3.41743,-5.24463 5.08288,-7.89377c0.7555,-1.20173 1.8268,-2.2848 2.17792,-3.66017c2.03762,-7.98155 2.08158,-17.84585 2.23951,-26.02872c0.048,-2.48726 0.00082,-4.97854 0.00116,-7.46626c0.00015,-1.11385 0.13854,-2.23775 -0.00008,-3.34295c-0.03468,-0.2765 -0.72462,-0.49934 -0.50289,-0.66814c3.55302,-2.70486 7.75495,-4.54694 11.09516,-7.5106c8.21192,-7.28619 15.9065,-15.56438 22.58549,-24.24195c1.63215,-2.73114 3.75714,-5.22838 4.89834,-8.19835c1.9019,-4.94968 1.51726,-9.99852 0.61365,-15.03258c-0.27277,-1.51965 -1.05321,-2.92301 -1.29673,-4.44762c-0.42578,-2.66576 0.30723,-5.41461 0.043,-8.1012c-0.06152,-0.6255 -1.05641,-1.31007 -0.63444,-1.77589c0.70263,-0.77563 1.992,-0.66792 3.02101,-0.85875c5.5019,-1.02029 11.02975,-2.00465 16.43184,-3.46389c13.31023,-3.59543 27.26627,-7.79664 39.42062,-14.45035c7.09642,-3.88483 12.96878,-7.60749 15.19693,-15.91918c1.61968,-6.04194 -0.45976,-13.80857 -2.11151,-19.62766c-2.00373,-4.95789 -2.82578,-10.46596 -5.84703,-15.0426c-0.3269,-0.49519 -0.70407,-0.95679 -1.10199,-1.40429c0.20717,-0.09917 0.37869,-0.30054 0.53381,-0.40557c2.03789,-1.37982 5.73247,-2.72311 5.29726,-5.1454c-0.19837,-1.10407 -0.77592,-1.91949 -1.57233,-2.71811c0.17796,-0.21012 0.31951,-0.51928 0.44514,-0.72721c0.82048,0.26464 1.64182,0.52981 2.47163,0.75187c0.61181,0.16371 4.40922,1.38194 5.87042,2.1532c-0.84362,0.42719 -1.69308,0.94507 -2.55997,1.34844l-2.54485,2.18322c0,0 -3.01193,2.90543 -0.00673,5.91063c3.00521,3.00521 6.01266,-0.00011 6.01266,-0.00011l0.12749,-0.48997c1.87699,-0.87692 3.70198,-1.85162 5.51115,-2.84553c0.75082,0.004 1.59981,-0.23402 2.51747,-0.88949c0.50878,-0.36342 0.88966,-0.7482 1.16854,-1.14023c3.58765,-1.95081 7.2326,-3.76661 11.24122,-4.83502c0.94681,-0.25235 1.95963,-0.068 2.93816,-0.11913c7.3801,-0.38561 14.31182,-0.50192 21.67922,0.53728c5.81569,0.82033 10.4636,1.27323 16.1318,2.83962c5.74616,1.58793 10.68498,4.62373 15.74867,7.6044c11.56219,6.8059 22.67861,13.06729 32.65639,22.14971c3.78605,3.78714 7.47193,7.68484 11.36342,11.36355c1.6352,1.54578 3.71069,2.67408 5.05156,4.48112c1.54539,2.08267 2.25813,4.67289 3.45011,6.97614c2.29177,4.42839 4.73935,8.82085 6.4293,13.512c5.52284,15.33083 3.67391,32.17111 3.14201,48.06133c-0.25925,7.74486 -0.0192,15.37058 -0.65085,23.11177c-0.57924,7.09888 -1.779,14.21779 -2.66222,21.28421c-1.78923,16.099 -4.89886,31.73748 -9.81376,47.20928c-4.20176,13.22687 -13.24293,25.64723 -20.85318,37.06188c-5.55105,8.32604 -10.7284,17.50806 -18.63334,23.92541c-5.46395,4.43573 -6.94806,4.52948 -13.40891,7.2888c-3.5097,0.96519 -7.01349,1.99169 -10.51768,3.00922c-1.11377,-0.66709 -3.1166,-1.33063 -5.11788,0.67065z" data-paper-data="{&quot;noHover&quot;:false,&quot;origItem&quot;:[&quot;Path&quot;,{&quot;applyMatrix&quot;:true,&quot;segments&quot;:[[[612.58992,652.93359],[0,0],[4.00256,-4.00256]],[[622.82258,651.59357],[-2.22754,-1.33418],[7.00838,-2.03506]],[[643.85146,645.57821],[-7.0194,1.93038],[12.9217,-5.51864]],[[670.66062,631.00569],[-10.9279,8.87146],[15.80988,-12.8347]],[[707.91184,583.16741],[-11.1021,16.65208],[15.2205,-22.8293]],[[749.60046,509.06741],[-8.40352,26.45374],[9.8298,-30.9436]],[[769.21706,414.68215],[-3.57846,32.198],[1.76644,-14.13284]],[[774.54054,372.12959],[-1.15848,14.19776],[1.2633,-15.48238]],[[775.84396,325.92271],[-0.5185,15.48972],[1.0638,-31.78044]],[[769.57076,229.83003],[11.04568,30.66166],[-3.37992,-9.3823]],[[756.71728,202.81431],[4.58354,8.85678],[-2.38394,-4.6065]],[[749.82,188.86605],[3.09078,4.16534],[-2.68174,-3.61408]],[[739.71958,179.90717],[3.2704,3.09156],[-7.78298,-7.3574]],[[716.99988,157.18775],[7.5721,7.57428],[-19.95556,-18.16484]],[[651.70786,112.90377],[23.12438,13.6118],[-10.12738,-5.96134]],[[620.22092,97.70001],[11.49232,3.17586],[-11.3364,-3.13278]],[[587.96746,92.02437],[11.63138,1.64066],[-14.7348,-2.0784]],[[544.62322,90.95289],[14.7602,-0.77122],[-1.95706,0.10226]],[[538.74888,91.19141],[1.89362,-0.5047],[-8.01724,2.13682]],[[516.27408,100.86209],[7.1753,-3.90162],[-0.55778,0.78404]],[[513.9378,103.14257],[1.01756,-0.72684],[-1.83532,1.31094]],[[508.90468,104.92161],[1.50164,0.008],[-3.61834,1.98782]],[[497.88648,110.61267],[3.75398,-1.75384],[0,0]],[497.6316,111.59261],[[485.61078,111.59261],[6.01042,6.01042],[-6.0104,-6.01042]],[485.61078,99.57179],[[490.70238,95.20525],[0,0],[1.73378,-0.80674]],[[495.82986,92.70821],[-1.68724,0.85438],[-2.9224,-1.54252]],[[484.09302,88.40161],[1.22362,0.32742],[-1.65962,-0.4441]],[[479.15142,86.89775],[1.64096,0.52928],[-0.25126,0.41586]],[[478.24376,88.15293],[0.35592,-0.42024],[1.59282,1.59724]],[[481.4052,93.78843],[-0.39674,-2.20814],[0.87042,4.84458]],[[470.8148,104.07881],[4.07578,-2.75964],[-0.31024,0.21006]],[[469.72268,104.69147],[0.41434,-0.19834],[0.79584,0.895]],[[471.92734,107.49997],[-0.6538,-0.99038],[6.0425,9.15328]],[[483.62474,137.58483],[-4.00746,-9.91578],[3.30352,11.63818]],[[487.86422,177.03949],[3.23936,-12.08388],[-4.4563,16.62338]],[[457.48896,208.87455],[14.19284,-7.76966],[-24.3087,13.30742]],[[378.68796,237.75325],[26.62046,-7.19086],[-10.80416,2.91848]],[[345.8341,244.67087],[11.0038,-2.04058],[-2.05802,0.38166]],[[339.79366,246.38645],[1.40526,-1.55126],[-0.84394,0.93162]],[[341.06312,249.93747],[-0.12304,-1.251],[0.52846,5.37318]],[[340.98096,266.13461],[-0.85156,-5.33152],[0.48704,3.04922]],[[343.57612,275.02727],[-0.54554,-3.0393],[1.80722,10.06812]],[[342.3558,305.07945],[3.8038,-9.89936],[-2.2824,5.93994]],[[332.5629,321.46631],[3.2643,-5.46228],[-13.35798,17.35514]],[[287.39676,369.92265],[16.42384,-14.57238],[-6.6804,5.92732]],[[265.20646,384.93727],[7.10604,-5.40972],[-0.44346,0.3376]],[[266.21222,386.27297],[-0.06936,-0.553],[0.27724,2.2104]],[[266.21222,392.95607],[0.0003,-2.2277],[-0.00068,4.97544]],[[266.20928,407.88239],[0.096,-4.97452],[-0.31586,16.36574]],[[261.72572,459.92033],[4.07524,-15.9631],[-0.70224,2.75074]],[[257.36918,467.23869],[1.511,-2.40346],[-3.3309,5.29826]],[[247.20194,483.02241],[4.41542,-4.43516],[-6.78246,6.81278]],[[230.57364,494.23277],[5.48106,-1.82908],[0.31764,1.99026]],[[231.46316,500.21301],[-0.272,-1.99706],[1.61698,11.87158]],[[236.4098,536.08147],[-3.84858,-11.45668],[4.44754,13.23966]],[[253.30402,576.31975],[-6.2075,-12.51724],[5.22592,10.53788]],[[273.95188,604.50199],[-6.74122,-9.4796],[1.7099,2.4045]],[[278.80552,611.90405],[-1.99684,-2.1721],[12.28106,13.35902]],[[324.19344,640.57935],[-15.96784,-7.63962],[9.71738,4.64916]],[[354.3584,652.17473],[-10.39114,-2.8401],[7.96502,2.13758]],[[378.24712,658.61103],[-8.1423,-1.3091],[31.6274,5.085]],[[474.20814,665.86195],[-31.93244,-1.33234],[32.33582,1.34918]],[[573.1984,663.90923],[-31.98048,5.47712],[12.75388,-2.1843]],[[610.96806,654.99431],[-12.47366,3.50812],[0.40042,-0.68084]],[[612.58994,652.93361],[-0.68992,0.68992],[0,0]]],&quot;closed&quot;:true,&quot;fillColor&quot;:[0,0,0,1]}]}" fill="#584529" stroke-width="0.5"/><path d="M161.82198,43.89585c14.40038,-0.62702 31.85117,-2.18325 46.03314,3.0922c-5.07912,0.76458 -7.25819,0.9232 -13.46465,3.05002c-11.25704,3.85755 -21.18291,10.2097 -30.64611,17.28509c-10.35935,7.74542 -20.15283,16.45959 -28.35511,26.444c-9.88801,12.07805 -16.26787,25.28003 -22.97477,39.27758c-1.77524,3.70501 -4.07499,7.1463 -5.41827,11.02885c-5.26986,15.23177 -8.18024,31.15301 -10.30043,47.03921c-1.65939,12.43349 -3.19997,24.28376 -3.33,36.85386c-0.05845,5.74977 -0.77073,11.84098 -0.03578,17.53689c0.3046,2.36059 0.67485,4.80661 1.08254,7.15218c-2.92011,0.68275 -5.82901,1.04815 -8.22094,1.18022c-5.32442,0.29398 -10.68627,0.28191 -16.00359,-0.1205c-0.14641,-0.04013 -8.79663,-2.15124 -10.21944,-3.23191c-4.49771,-3.41614 -5.47056,-9.78435 -10.94394,-12.55214c-5.3629,-2.71193 -12.57661,2.07506 -16.9788,3.8918c-0.94264,0.38902 -2.32519,1.24834 -3.01852,0.50056c-3.78157,-4.07855 -3.37297,-11.0026 -4.18275,-16.13124c-1.12236,-7.1083 -2.5195,-14.36762 -3.30411,-21.52311c-0.93616,-8.53752 -0.46362,-17.06819 -0.045,-25.60973c1.03722,-3.39866 1.46341,-7.02609 2.98075,-10.23925c1.01725,-2.15417 2.77315,-3.87671 4.14476,-5.82451c3.10808,-4.41374 6.58864,-8.59914 10.4095,-12.41257c7.06254,-7.04884 13.86423,-13.42266 21.70955,-19.55773c4.25989,-3.33125 8.83474,-6.30617 13.5902,-8.88095c2.30011,-1.24535 4.42464,-2.89541 6.88923,-3.7713c4.32109,-1.53568 9.15377,-0.99452 13.6162,-2.05131c2.06268,-0.48848 4.55333,-0.61299 5.9838,-2.1773c1.22184,-1.33615 0.44089,-3.60804 0.91159,-5.35636c0.68016,-2.52632 1.72553,-4.94308 2.53806,-7.42998c1.21702,-3.72489 1.89759,-7.40961 3.27398,-11.15126c1.80561,-4.90845 4.3425,-9.51895 6.50494,-14.28099c4.23392,-7.6895 8.22618,-16.51127 15.20963,-22.25379c8.82377,-7.25581 21.59881,-9.29909 32.56433,-9.77655z" data-paper-data="{&quot;noHover&quot;:false,&quot;origItem&quot;:[&quot;Path&quot;,{&quot;applyMatrix&quot;:true,&quot;segments&quot;:[[[173.057,32.68577],[0,0],[-10.96552,0.47746]],[[140.50557,42.46617],[8.82377,-7.25581],[-6.98345,5.74252]],[[125.30392,64.72056],[4.23392,-7.6895],[-2.16244,4.76204]],[[118.80457,79.00121],[1.80561,-4.90845],[-1.37639,3.74165]],[[115.53525,90.1517],[1.21702,-3.72489],[-0.81253,2.4869]],[[113.00187,97.58043],[0.68016,-2.52632],[-0.4707,1.74832]],[[112.09345,102.93566],[1.22184,-1.33615],[-1.43047,1.56431]],[[106.11722,105.1092],[2.06268,-0.48848],[-4.46243,1.05679]],[[92.51205,107.15143],[4.32109,-1.53568],[-2.46459,0.87589]],[[85.62758,110.91661],[2.30011,-1.24535],[-4.75546,2.57478]],[[72.04317,119.78558],[4.25989,-3.33125],[-7.84532,6.13507]],[[50.33609,139.32644],[7.06254,-7.04884],[-3.82086,3.81343]],[[39.92592,151.73205],[3.10808,-4.41374],[-1.37161,1.9478]],[[35.78063,157.55387],[1.01725,-2.15417],[-1.51734,3.21316]],[[32.79861,167.78851],[1.03722,-3.39866],[-0.41862,8.54154]],[[32.8389,193.38797],[-0.93616,-8.53752],[0.78461,7.15549]],[[36.138,214.90418],[-1.12236,-7.1083],[0.80978,5.12864]],[[40.31663,231.0312],[-3.78157,-4.07855],[0.69333,0.74778]],[[43.33458,230.53013],[-0.94264,0.38902],[4.40219,-1.81674]],[[60.30981,226.63545],[-5.3629,-2.71193],[5.47338,2.76779]],[[71.24778,239.18384],[-4.49771,-3.41614],[1.42281,1.08067]],[[81.46305,242.41376],[-0.14641,-0.04013],[5.31732,0.40241]],[[97.4602,242.53205],[-5.32442,0.29398],[2.39193,-0.13207]],[[105.67763,241.35102],[-2.92011,0.68275],[-0.40769,-2.34557]],[[104.575,234.29679],[0.3046,2.36059],[-0.73495,-5.69591]],[[104.60859,216.75937],[-0.05845,5.74977],[0.13003,-12.5701]],[[107.93216,179.90333],[-1.65939,12.43349],[2.12019,-15.8862]],[[118.20917,132.79193],[-5.26986,15.23177],[1.34328,-3.88255]],[[123.66369,121.73954],[-1.77524,3.70501],[6.7069,-13.99755]],[[146.66273,82.46484],[-9.88801,12.07805],[8.20228,-9.98441]],[[175.02593,56.0248],[-10.35935,7.74542],[9.4632,-7.07539]],[[205.67761,38.74363],[-11.25704,3.85755],[6.20646,-2.12682]],[[219.07692,35.76925],[-5.07912,0.76458],[-14.18197,-5.27545]],[[173.057,32.68579],[14.40038,-0.62702],[0,0]]],&quot;closed&quot;:true,&quot;fillColor&quot;:[0,0,0],&quot;strokeWidth&quot;:0.5}]}" fill="#302617" stroke-width="0.25"/><path d="M211.02993,62.16283c0.46467,2.32334 1.96744,3.09343 3.20473,3.31911c1.1323,1.42546 2.4452,2.73912 3.46236,4.2473c2.55252,3.78472 3.19928,8.8664 4.84918,13.03035c1.27411,4.42282 2.9192,10.4004 1.89502,15.02967c-1.16639,5.27206 -6.78162,8.13216 -11.07164,10.48067c-7.13523,3.90606 -15.23272,6.68417 -22.91738,9.24427c-7.38153,2.45911 -14.94105,5.0066 -22.56632,6.6258c-5.58815,1.18663 -12.33931,0.57094 -16.45205,5.88443c-1.28058,1.65443 -0.50613,4.15099 -0.62751,6.2396c-0.30237,5.20317 0.44963,9.14178 1.43558,14.15633c1.42524,7.24875 -0.369,10.5738 -4.19137,16.72719c-6.24473,8.12353 -13.60103,15.90527 -21.26787,22.73312c-4.05578,3.61196 -9.58553,5.4907 -12.89332,9.79813c-0.95533,1.24404 -0.40622,3.11171 -0.50438,4.67716c-0.22072,3.52017 0.06511,7.05181 -0.00198,10.57825c-0.14162,7.4447 -0.1657,16.10291 -1.77349,23.43233c-0.1683,0.76723 -0.97791,1.35584 -1.39761,2.01977c-1.35607,2.14517 -2.23436,4.64816 -3.97952,6.49075c-1.02021,1.07717 -2.29475,2.00545 -3.72596,2.80156c-0.27301,-1.62003 -0.5315,-3.24317 -0.75116,-4.87113c-0.7267,-5.38593 0.0103,-11.21428 0.06584,-16.66711c0.12245,-12.24145 1.63197,-23.76982 3.24657,-35.88256c2.02868,-15.21919 4.77733,-30.53563 9.76379,-45.14925c1.25569,-3.68 3.51468,-6.9509 5.195,-10.45741c6.41188,-13.38041 12.47414,-26.05411 21.93669,-37.58961c7.73197,-9.4607 17.10388,-17.702 26.89994,-25.02285c8.75468,-6.54259 17.90785,-12.45634 28.31772,-16.04084c6.50977,-2.24156 8.3101,-1.95259 15.10648,-3.12351c0.03187,0.85649 0.24335,1.53087 0.55557,2.06138c-0.63269,0.5613 -0.97188,1.19752 -1.13233,1.82258c-0.60611,0.75663 -0.99185,1.8482 -0.68059,3.40451z" data-paper-data="{&quot;noHover&quot;:false,&quot;origItem&quot;:[&quot;Path&quot;,{&quot;applyMatrix&quot;:true,&quot;segments&quot;:[[[222.26209,50.95135],[0,0],[-0.31126,-1.55631]],[[222.9431,47.54706],[-0.60611,0.75663],[0.16045,-0.62506]],[[224.07536,45.72444],[-0.63269,0.5613],[-0.31222,-0.53051]],[[223.52038,43.66336],[0.03187,0.85649],[-6.79638,1.17092]],[[208.41944,46.78926],[6.50977,-2.24156],[-10.40987,3.5845]],[[180.11504,62.83294],[8.75468,-6.54259],[-9.79606,7.32085]],[[153.23723,87.8524],[7.73197,-9.4607],[-9.46255,11.5355]],[[131.32909,125.41259],[6.41188,-13.38041],[-1.68032,3.50651]],[[126.1368,135.85827],[1.25569,-3.68],[-4.98646,14.61362]],[[116.36447,180.97383],[2.02868,-15.21919],[-1.6146,12.11274]],[[113.10814,216.84586],[0.12245,-12.24145],[-0.05554,5.45283]],[[113.03851,233.51019],[-0.7267,-5.38593],[0.21966,1.62796]],[[113.78845,238.38054],[-0.27301,-1.62003],[1.43121,-0.79611]],[[117.51376,235.57858],[-1.02021,1.07717],[1.74516,-1.84259]],[[121.49325,229.08781],[-1.35607,2.14517],[0.4197,-0.66393]],[[122.83947,227.15382],[-0.1683,0.76723],[1.60779,-7.32942]],[[124.60755,203.71775],[-0.14162,7.4447],[0.06709,-3.52644]],[[124.60608,193.1365],[-0.22072,3.52017],[0.09816,-1.56545]],[[125.10897,188.45786],[-0.95533,1.24404],[3.30779,-4.30743]],[[138.07303,178.58907],[-4.05578,3.61196],[7.66684,-6.82785]],[[159.27061,155.92707],[-6.24473,8.12353],[3.82237,-6.15339]],[[163.44826,139.1563],[1.42524,7.24875],[-0.98595,-5.01455]],[[162.03152,124.96874],[-0.30237,5.20317],[0.12138,-2.08861]],[[162.66626,118.72452],[-1.28058,1.65443],[4.11274,-5.31349]],[[179.14991,112.83509],[-5.58815,1.18663],[7.62527,-1.6192]],[[201.73876,106.21929],[-7.38153,2.45911],[7.68466,-2.5601]],[[224.66284,96.98138],[-7.13523,3.90606],[4.29002,-2.34851]],[[235.65947,86.56685],[-1.16639,5.27206],[1.02418,-4.62927]],[[233.76934,71.54198],[1.27411,4.42282],[-1.6499,-4.16395]],[[228.92507,58.51533],[2.55252,3.78472],[-1.01716,-1.50818]],[[225.46491,54.26941],[1.1323,1.42546],[-1.23729,-0.22568]],[[222.26208,50.95136],[0.46467,2.32334],[0,0]]],&quot;closed&quot;:true,&quot;fillColor&quot;:[0,0,0],&quot;strokeWidth&quot;:0.5}]}" fill="#302617" stroke-width="0.25"/></g><path d="M277.32688,367.0319c-2.81095,0 -3.76274,-1.85916 -4.08501,-3.11818c-10.92721,3.11931 -21.9575,5.79143 -33.34043,5.79143c-8.10858,-0.01475 -16.59392,-1.48904 -24.44566,-3.47452c-3.46333,-0.87577 -6.52164,-2.97424 -9.94636,-3.99059c-0.97227,-0.28854 -2.09014,0.24901 -3.04076,-0.10441c-1.20183,-0.44682 -1.97804,-1.69252 -3.15581,-2.19935c-9.00791,-3.8764 -20.17769,-0.67162 -29.59656,-2.31561c-1.50239,-0.26223 -2.87556,-1.031 -4.35357,-1.40707c-1.53147,-0.38967 -3.19384,-0.28951 -4.65734,-0.88567c-2.30436,-0.93869 -4.00245,-3.00393 -6.2314,-4.10983c-2.92314,-1.45033 -6.17738,-2.45373 -9.1976,-3.70191c-10.10599,-1.20371 -21.9884,-0.30527 -31.2469,-5.17822c-1.20249,-0.6329 -1.83953,-2.02179 -2.92391,-2.84073c-0.97239,-0.73437 -2.36128,-0.88905 -3.19343,-1.7792c-1.96296,-2.09976 -2.72415,-5.6564 -3.65873,-8.22649c-0.9943,-2.73433 -2.39737,-5.31056 -3.35531,-8.05784c-1.23547,-3.54323 -1.32054,-7.40306 -1.57149,-11.14711c-0.4116,-6.1408 -1.38053,-12.4454 -1.99278,-18.57386c-0.17564,-1.75809 -0.62053,-3.49305 -0.65834,-5.25948c-0.02119,-0.98973 0.96478,-2.06553 0.483,-2.93035c-0.30676,-0.55064 -1.20629,0.36624 -1.80943,0.54936c-2.10253,-0.55336 -4.31954,-0.78005 -6.30759,-1.6601c-7.07837,-3.13338 -8.94904,-11.21791 -11.45632,-17.58224c-0.44783,-1.13676 -1.33922,-2.1191 -1.54645,-3.3232c-0.35753,-2.07745 -0.08705,-4.21512 -0.11369,-6.32294c-0.06213,-4.9163 -0.11967,-7.74439 2.52936,-12.06981c0.88774,-1.44952 1.37975,-3.35329 2.82784,-4.24337c1.44615,-0.88888 3.37995,-0.33794 5.05664,-0.60289c1.37289,-0.21694 3.5238,-1.05907 4.64554,-1.59413c1.69339,-0.80772 2.81909,-2.47958 4.15384,-3.79807c1.10782,-1.09432 2.65965,-1.7128 3.65265,-2.91228c0.58161,-0.70255 0.53901,-1.7462 0.89802,-2.58464c1.01408,-2.36834 2.69496,-5.04913 3.94333,-7.19493c0.42493,-1.7926 1.43647,-3.42309 1.77518,-5.23396c0.57931,-3.09716 -0.45604,-6.44505 -0.72431,-9.47049c-0.31838,-3.59052 -0.32144,-7.11758 -0.66831,-10.69298c-1.25185,-12.90355 0.32999,-25.94264 4.91681,-37.96942c0.60337,-1.58205 0.82411,-3.3407 1.71205,-4.78241c1.58547,-2.57427 4.60156,-4.33267 6.79565,-6.27892c3.35013,-2.97171 6.68016,-5.31326 9.85388,-8.52646c0.01664,-0.01663 6.80619,-6.85625 7.34873,-7.22598c0.99133,-0.6756 2.34338,-0.67118 3.34155,-1.33662c1.03445,-0.68962 1.57685,-1.98402 2.63016,-2.64446c3.58583,-2.24836 8.50723,-2.73747 11.92726,-5.27499c2.85003,-2.1146 5.00181,-5.07902 7.45298,-7.52985c1.0087,-1.00857 2.32895,-1.6686 3.34156,-2.67324c3.1463,-3.12154 5.67619,-7.37522 8.31041,-10.9137c0.48828,-0.6559 1.22866,-1.1477 1.5545,-1.89767c0.52976,-1.21931 0.25466,-2.74136 0.95264,-3.87281c0.5848,-0.94799 2.05506,-1.07838 2.67325,-2.00494c0.42448,-0.63622 -0.01113,-1.5487 0.19003,-2.2866c1.08351,-3.97449 2.67491,-8.05671 4.20666,-11.89131c4.55901,-9.13162 9.52363,-16.99318 15.91461,-24.95443c1.60265,-1.99642 2.37486,-4.68138 4.31104,-6.35631c6.42765,-5.5604 10.70528,-4.61379 18.40356,-4.61379c13.08683,0 26.22426,-0.32711 39.27993,0.69564c3.15645,0.24727 6.38046,0.11053 9.46099,0.84175c0.33659,0.0799 3.75782,2.11796 5.9144,3.413c1.47566,-0.27937 2.97282,-0.41963 4.57487,-0.25153c2.44072,0.2561 4.67325,1.52455 7.06804,2.06094c0.77715,0.17407 1.59911,-0.14789 2.38882,-0.04484c1.99996,0.26098 6.03441,1.7034 7.7344,2.06997c14.38304,3.10138 28.21245,7.89572 42.36076,11.96562c8.15655,2.34631 17.44508,4.66522 24.65228,9.41197c1.88738,1.24305 3.22129,3.17063 4.83193,4.75596c1.07424,1.49832 5.37273,7.14269 6.10872,9.34487c1.59166,4.76251 0.57216,5.45314 0.90256,9.80873c0.33141,4.36904 1.68759,8.05126 2.60726,12.19549c0.16926,0.7627 -0.30802,1.596 -0.07753,2.34248c0.7856,2.54431 2.95106,4.44003 4.59657,6.53359c2.7514,3.50055 5.73567,7.01101 7.32326,11.17077c4.90648,12.85585 3.61131,27.25216 6.25811,40.48611c0.03936,7.15589 1.53491,13.90127 2.01534,21.02906c0.57963,8.59945 -1.61876,16.49263 -1.99832,25.01153c-0.25786,5.78761 0.26365,12.28367 -0.74133,18.00318c-0.28486,1.62118 -4.03297,9.64959 -4.42269,10.13166c-0.04161,0.05147 -6.11996,3.48822 -6.60441,3.86098c-3.20292,2.46444 -6.63709,5.79196 -9.07946,9.07464c-2.75273,3.69983 -2.6314,9.76885 -3.37911,14.08114c-1.77763,4.16484 -2.40324,8.32344 -4.16192,12.46101c-0.71265,1.67663 -1.42908,3.38294 -2.48364,4.86849c-0.87833,1.23728 -2.36323,1.95863 -3.24126,3.19612c-0.59501,0.83861 -0.61583,1.97165 -1.07734,2.89051c-1.45052,2.88794 -3.18055,5.21097 -5.31874,7.62899c-0.18399,0.20806 -5.68933,5.69563 -5.81884,5.79878c-1.43464,1.1426 -2.98812,2.13622 -4.57113,3.06241c-0.55251,0.32326 -1.34622,0.2157 -1.80123,0.66596c-1.28214,1.26873 -0.78107,2.22783 -0.76014,3.67791c0.05007,3.46893 0.16943,8.59901 -0.85067,11.92456c-1.84527,6.01565 -4.9742,8.84328 -8.7375,13.41352c-0.96789,1.17543 -1.37966,2.77862 -2.46715,3.84438c-0.90428,0.88621 -2.2177,1.22238 -3.32655,1.83357c-3.8875,2.85038 -6.08409,7.32706 -11.28258,8.54078c-1.2504,0.29194 -2.61244,-0.37604 -3.85185,-0.04052c-1.14418,0.30973 -1.88731,1.51004 -3.0076,1.89741c-5.22143,1.80543 -11.08217,0.79395 -16.48343,2.14135c-3.71145,0.92586 -7.23684,2.57802 -10.84393,3.86228c-0.02985,0.1322 -0.0605,0.26395 -0.09197,0.39524l0.12689,0.97416c0,0 0,4.25 -4.25,4.25zM274.44535,349.56471c0.18595,-1.25011 -0.17941,-2.60757 0.29166,-3.78037c0.40171,-1.00011 1.69777,-1.42222 2.1843,-2.38393c0.41291,-0.81619 0.10877,-1.84683 0.39547,-2.71544c0.62453,-1.89211 2.05709,-3.45163 2.67324,-5.34649c0.96991,-2.9828 2.11463,-5.91136 3.37551,-8.78329c0.6008,-1.36847 0.17873,-2.99089 0.4454,-4.46145c1.27144,-7.01126 2.63216,-13.56956 2.63216,-20.79648c0,-2.99384 -0.28594,-6.24167 0.03184,-9.20733c0.47202,-4.40505 1.10569,-9.64653 -1.82838,-13.60328c-1.09953,-1.48276 -3.05309,-2.07869 -4.52319,-3.19509c-8.62279,-6.54816 -21.61151,-4.44519 -31.78341,-4.51718c-6.01278,1.24588 -12.18009,1.08235 -18.11481,2.57053c-1.84619,0.46295 -3.4998,1.54397 -5.34649,2.00493c-1.79761,0.44871 -3.69617,0.34427 -5.51331,0.70587c-6.24319,1.24235 -12.19601,3.73523 -18.13888,5.85508c-3.90304,1.39224 -8.25476,2.93527 -12.24229,4.07924c-0.82344,0.23624 -1.78179,-0.04314 -2.54718,0.34161c-0.68146,0.34256 -0.89175,1.28095 -1.52532,1.7056c-2.00675,1.34505 -4.48639,1.83034 -6.21023,3.61386c-2.60283,2.69295 -5.15603,5.1407 -7.81084,7.80238c-3.24695,3.82525 -2.24032,7.65895 -2.25835,12.53674c-0.00881,2.38402 0.0025,5.45433 0.55462,7.7116c1.0023,4.09773 3.89973,8.27644 5.25403,12.36677c0.59819,1.80668 0.37485,3.85983 1.17263,5.58767c0.45311,0.98136 1.49321,1.60773 1.96257,2.58143c1.30117,2.69934 1.66329,6.09791 1.73644,9.09903c5.71455,0.27251 11.64385,0.25448 17.20911,1.23836c2.1865,0.38655 4.3862,0.85278 6.44427,1.68619c0.87807,0.35557 1.30497,1.47444 2.19069,1.81052c0.71932,0.27294 1.56941,-0.32748 2.30572,-0.1044c3.46984,1.05126 6.58297,3.16058 10.10299,4.02914c7.1728,1.76988 14.9305,3.2241 22.33613,3.20859c11.63062,0 22.8884,-3.07936 34.04784,-6.3433c0.14695,-1.77076 0.23677,-3.55403 0.49606,-5.29714zM169.90114,343.89078c-0.53182,-1.01606 -1.5928,-1.71212 -2.0473,-2.76505c-0.22632,-0.52432 -1.08795,-5.21416 -1.50062,-6.44193c-1.46187,-4.3494 -4.32335,-8.62408 -5.43895,-13.02906c-1.23487,-4.8759 -0.8065,-10.65348 -0.782,-15.6793c0.01359,-2.78787 -0.26771,-5.28894 1.10983,-7.90105c0.84296,-1.59845 2.20996,-2.85982 3.31494,-4.28973c1.74698,-1.7436 3.81252,-3.14783 5.55539,-4.89553c1.99407,-1.99962 3.6653,-4.42942 6.07003,-5.90999c1.18768,-0.73125 2.59692,-1.06646 3.75921,-1.83745c0.94127,-0.62439 1.47359,-1.80047 2.48456,-2.30427c1.26911,-0.63245 2.78197,-0.57373 4.13593,-0.995c3.89117,-1.21069 7.98165,-2.56903 11.81691,-3.9405c6.31608,-2.2586 12.65541,-4.84181 19.28656,-6.17452c1.70522,-0.34271 3.49245,-0.20828 5.17967,-0.63075c1.84635,-0.46231 3.49965,-1.54456 5.34649,-2.00493c6.32545,-1.57677 12.90429,-1.53067 19.31062,-2.77596c12.63126,-0.06948 27.00114,-1.77951 37.72098,6.17581c0.93021,0.69032 5.75941,4.28049 6.16979,4.82465c0.29045,0.38513 3.17711,7.31682 3.39275,8.12315c1.71187,6.401 0.1572,13.296 0.1572,19.8579c0,7.63347 -1.36708,14.58533 -2.71432,21.97544c-0.37633,2.06429 -0.11423,4.28238 -0.89122,6.23154c-0.72544,1.8198 -1.93554,3.42296 -2.6393,5.25125c-0.40805,1.06009 -0.30247,2.26617 -0.66831,3.34155c-0.64173,1.88635 -2.0378,3.45801 -2.67325,5.34649c-0.43349,1.28828 -0.33853,2.74931 -0.94116,3.96767c-0.36128,0.73042 -1.47262,0.89146 -1.82556,1.62594c-0.22999,0.47863 0.33866,1.03719 0.29167,1.56612c-0.03794,0.42708 -0.07479,0.85808 -0.11164,1.29197c2.48972,-0.97017 4.98103,-1.94669 7.56693,-2.59436c2.61476,-0.65491 5.27144,-1.21093 7.95711,-1.44127c1.5352,-0.13166 5.75782,0.29821 7.63841,-0.42726c1.31841,-0.5086 2.31281,-1.73841 3.67551,-2.11246c1.3398,-0.36777 2.79458,0.17006 4.16789,-0.04052c2.44066,-0.37423 3.86045,-3.46462 5.32267,-4.8837c1.0344,-1.00389 2.29606,-1.74333 3.44409,-2.61499c0.67332,-0.27989 1.51265,-0.3159 2.01994,-0.83967c0.74925,-0.7736 0.86389,-2.00267 1.54272,-2.83874c1.15757,-1.42569 2.74736,-2.45944 3.91197,-3.87939c2.48813,-3.03364 3.68681,-7.30288 3.88417,-11.14529c0.14931,-2.90708 -0.82023,-5.97231 0.10548,-8.7321c0.7213,-2.15038 1.68704,-4.29369 3.13603,-6.03863c0.86757,-1.04477 2.38776,-1.29705 3.54526,-2.00728c3.20783,-1.9683 5.8167,-4.37662 8.32276,-7.17829c2.72598,-3.04753 3.41616,-6.32572 5.63353,-9.52984c1.57277,-2.27267 3.93113,-4.07633 4.96807,-6.63825c1.57108,-3.88156 2.18129,-7.70268 3.85782,-11.5982c1.42638,-9.03765 3.04597,-15.85967 9.69587,-22.46088c1.85917,-1.84556 3.83806,-3.57798 5.91463,-5.175c1.17282,-0.90197 2.48642,-1.61266 3.799,-2.29546c0.50549,-0.26295 1.29502,-0.06302 1.6262,-0.52668c1.22553,-1.71577 1.93986,-3.82383 2.26042,-5.90781c0.82533,-5.36533 0.34399,-11.32343 0.5953,-16.74901c0.37757,-8.15148 2.60334,-15.87314 2.01154,-24.06742c-0.50778,-7.031 -2.04459,-13.70819 -1.99453,-20.78234c-2.50685,-12.53428 -1.29591,-26.15903 -5.7715,-38.37463c-2.57661,-7.03255 -9.65412,-11.242 -12.13938,-18.38446c-0.32918,-0.94603 0.14005,-2.02626 -0.07753,-3.00401c-0.23904,-1.0742 -1.00428,-1.9796 -1.26915,-3.04773c-0.06704,-0.27035 -1.43894,-9.75287 -1.47009,-10.15261c-0.17809,-2.28548 0.32106,-5.29199 -0.43406,-7.56736c-0.85188,-2.56692 -3.01693,-4.49045 -4.58427,-6.6946c-6.58424,-6.74115 -16.50592,-8.95484 -25.3462,-11.49276c-13.97025,-4.01067 -27.62339,-8.75292 -41.81759,-11.82873c-2.35645,-0.51063 -4.57416,-1.65532 -6.96845,-1.93991c-0.97911,-0.11638 -1.99487,0.16777 -2.95767,-0.04484c-2.77105,-0.61192 -5.04356,-2.39134 -8.03337,-1.96009c-0.02387,0.00344 -0.04772,0.00695 -0.07156,0.01054c-0.962,0.73086 -2.01171,0.8124 -2.86892,0.68494c-0.71335,0.20775 -1.42532,0.42279 -2.14491,0.60072l-5.59972,0.70775c0,0 -4.21718,0.52715 -4.74433,-3.69003c-0.11109,-0.88877 -0.01147,-1.61365 0.21499,-2.20424c-0.92598,-0.01356 -1.85259,-0.02289 -2.77263,-0.08226c-10.16393,-0.65599 -20.28033,-0.67379 -30.46257,-0.67376c-2.73593,0.00001 -5.47186,0 -8.20779,0c-4.35714,0 -8.9409,-1.31021 -12.33876,2.06932c-1.6019,1.59325 -2.30009,3.90684 -3.7087,5.6733c-5.93245,7.43956 -10.56762,14.65728 -14.82771,23.164c-1.41758,3.53794 -2.65051,7.2089 -3.81308,10.83128c-0.46282,1.44208 -0.37052,3.09594 -1.14659,4.39651c-0.57076,0.95651 -2.07622,1.0646 -2.67325,2.00494c-0.50678,0.79818 0.0066,1.94928 -0.38399,2.81029c-3.11754,6.87234 -9.67023,12.73788 -14.86262,17.93097c-2.77999,2.78037 -5.31863,6.16904 -8.5865,8.50961c-3.69695,2.6479 -8.41345,3.00943 -12.13195,5.418c-1.07191,0.69431 -1.65371,1.9936 -2.71633,2.70203c-0.99817,0.66545 -2.33486,0.68415 -3.34156,1.33662c-2.40482,1.55865 -3.9911,4.11385 -6.01749,6.14025c-3.36238,3.32797 -6.73244,5.76452 -10.19546,8.84964c-1.70409,1.51814 -4.09895,2.43404 -5.23395,4.41405c-0.55981,0.9766 -0.57313,2.18067 -0.9612,3.23733c-0.79685,2.1697 -1.92047,4.22004 -2.59013,6.43232c-2.98649,9.86608 -2.15739,21.05437 -1.18112,31.11745c0.23663,2.43902 -0.22792,4.91157 0,7.35143c0.3671,3.92964 1.3281,7.89806 0.61231,11.91548c-0.41827,2.34758 -1.63353,4.48812 -2.23468,6.79564c-1.23712,2.19818 -2.95072,5.05136 -4.07641,7.50791c-0.62022,1.35347 -0.85917,2.92486 -1.77523,4.09848c-1.18338,1.51611 -3.01391,2.40413 -4.36708,3.77083c-2.01277,2.03289 -3.99524,4.2497 -6.53915,5.55829c-1.39868,0.71948 -5.61045,2.33218 -7.38407,2.41574c-0.57757,0.02722 -1.07902,-0.78895 -1.62647,-0.60289c-0.35155,0.11947 0.29803,0.76064 0.1546,1.10312c-0.37722,0.90067 -1.3723,1.49034 -1.63472,2.43089c-0.49725,1.7822 0.18408,3.69862 0.15421,5.54864c-0.08729,5.40788 1.83773,11.74738 5.1648,16.16272c0.70675,0.93793 1.77533,2.89652 3.10471,3.39069c1.40627,0.52276 2.92359,0.67543 4.38538,1.01315c2.0701,0.62866 4.82638,0.22307 6.21031,1.88598c1.12602,1.35301 2.25284,10.7478 2.4979,13.19613c0.62206,6.21467 1.60406,12.62207 2.0171,18.85158c0.11155,1.68243 -0.23749,3.38493 -0.03039,5.05829c0.30612,2.47352 2.16633,6.17811 3.05912,8.31943c1.00342,2.40666 1.85975,4.87411 2.67324,7.35143c0.14137,0.43053 0.07043,1.00055 0.41534,1.29445c0.59149,0.50401 1.52929,0.43058 2.15306,0.89405c0.93255,0.6929 1.40706,1.94144 2.42258,2.50576c2.67084,1.48419 6.18361,1.63956 9.10854,2.08849c6.5932,1.01196 13.1506,1.23042 19.79259,2.08964c3.55858,1.38885 7.43675,2.59999 10.85174,4.31783c2.08247,1.04755 3.62564,3.06491 5.7982,3.9099c1.05392,0.40991 2.26387,0.18257 3.36239,0.45095c1.17303,0.28658 2.24528,0.93029 3.41631,1.2121c-0.01774,-1.73265 -0.18502,-3.86831 -0.92684,-5.28557z" fill="#ffffff" stroke-width="0.5"/><path d="M265.83401,56.85354l5.60144,-0.70739c0.71958,-0.17793 1.43218,-0.39283 2.14552,-0.60057c0.85721,0.12746 1.90774,0.04613 2.86974,-0.68473c0.02384,-0.00359 0.04771,-0.00709 0.07158,-0.01054c2.98981,-0.43126 5.26486,1.34892 8.03591,1.96084c0.96281,0.21261 1.97942,-0.07126 2.95853,0.04512c2.39429,0.28459 4.61415,1.43006 6.9706,1.94069c14.1942,3.07581 27.85873,7.82435 41.82898,11.83502c8.84028,2.53792 18.76784,4.7567 25.35208,11.49785c1.56734,2.20414 3.73396,4.12935 4.58584,6.69627c0.75512,2.27537 0.25712,5.2832 0.43521,7.56868c0.03115,0.39974 1.4047,9.88433 1.47174,10.15468c0.26486,1.06813 1.03069,1.97432 1.26973,3.04852c0.21758,0.97776 -0.25121,2.0586 0.07797,3.00463c2.48525,7.14246 9.56628,11.35771 12.14289,18.39026c4.47559,12.2156 3.26881,25.85156 5.77566,38.38584c-0.05006,7.07415 1.48788,13.758 1.99566,20.789c0.59179,8.19428 -1.6338,15.92384 -2.01137,24.07531c-0.25131,5.42559 0.22941,11.38917 -0.59591,16.7545c-0.32057,2.08398 -1.03529,4.19406 -2.26081,5.90982c-0.33118,0.46366 -1.12077,0.26401 -1.62626,0.52696c-1.31257,0.68279 -2.62642,1.3945 -3.79923,2.29647c-2.07657,1.59703 -4.05604,3.33163 -5.91521,5.17719c-6.6499,6.60121 -8.27258,13.4313 -9.69897,22.46895c-1.67653,3.89551 -2.28876,7.72037 -3.85984,11.60193c-1.03695,2.56192 -3.39686,4.36801 -4.96963,6.64069c-2.21737,3.20412 -2.90983,6.48541 -5.63581,9.53294c-2.50606,2.80167 -5.11741,5.21287 -8.32524,7.18117c-1.1575,0.71023 -2.67864,0.96351 -3.54621,2.00829c-1.449,1.74494 -2.41637,3.88983 -3.13767,6.04021c-0.92571,2.75979 0.04233,5.82636 -0.10699,8.73344c-0.19736,3.84242 -1.3986,8.11371 -3.88673,11.14735c-1.16461,1.41994 -2.75581,2.45472 -3.91338,3.8804c-0.67883,0.83607 -0.79422,2.06566 -1.54348,2.83925c-0.50729,0.52378 -1.3472,0.56016 -2.02051,0.84005c-1.14803,0.87167 -2.41084,1.61183 -3.44524,2.61572c-1.46222,1.41908 -2.88394,4.51058 -5.32459,4.88482c-1.37331,0.21058 -2.82911,-0.3267 -4.16891,0.04107c-1.36271,0.37405 -2.35831,1.60447 -3.67672,2.11306c-1.88059,0.72546 -6.10528,0.29655 -7.64048,0.42821c-2.68567,0.23034 -5.34473,0.78731 -7.95949,1.44222c-4.64277,1.16286 -8.9851,3.38714 -13.55629,4.7302c-12.08942,3.55199 -24.27918,7.17722 -36.89568,7.17722c-7.40563,0.01551 -15.17059,-1.43909 -22.34339,-3.20897c-3.52002,-0.86856 -6.63658,-2.97844 -10.10643,-4.0297c-0.73631,-0.22308 -1.58713,0.37719 -2.30645,0.10425c-0.88572,-0.33607 -1.31343,-1.45513 -2.19151,-1.8107c-2.05806,-0.83341 -4.25991,-1.30019 -6.4464,-1.68673c-6.44412,-1.13925 -13.38228,-0.93722 -19.90402,-1.39635c-1.84409,-0.12982 -3.73154,0.39657 -5.54721,0.04895c-1.26982,-0.24311 -2.41132,-0.95986 -3.66727,-1.26669c-1.09852,-0.26837 -2.30938,-0.04149 -3.3633,-0.45141c-2.17256,-0.84499 -3.71765,-2.86339 -5.80013,-3.91094c-3.415,-1.71785 -7.29622,-2.93087 -10.8548,-4.31972c-6.64199,-0.85922 -13.20352,-1.08077 -19.79672,-2.09273c-2.92493,-0.44893 -6.43949,-0.60587 -9.11033,-2.09006c-1.01552,-0.56432 -1.49077,-1.81353 -2.42331,-2.50643c-0.62377,-0.46347 -1.56201,-0.39047 -2.15351,-0.89447c-0.34492,-0.2939 -0.27421,-0.86416 -0.41558,-1.29469c-0.81349,-2.47731 -1.67126,-4.94624 -2.67468,-7.35289c-0.89279,-2.14132 -2.7546,-5.84773 -3.06073,-8.32125c-0.2071,-1.67336 0.1412,-3.37674 0.02965,-5.05918c-0.41303,-6.22951 -1.39804,-12.64105 -2.0201,-18.85572c-0.24506,-2.44833 -1.37396,-11.84664 -2.49999,-13.19965c-1.38393,-1.66291 -4.14089,-1.25863 -6.21099,-1.88729c-1.46179,-0.33772 -2.97951,-0.4912 -4.38578,-1.01396c-1.32937,-0.49418 -2.39853,-2.454 -3.10528,-3.39193c-3.32707,-4.41533 -5.25399,-10.75976 -5.16669,-16.16764c0.02987,-1.85002 -0.65196,-3.76806 -0.15471,-5.55025c0.26242,-0.94055 1.25734,-1.53079 1.63456,-2.43146c0.14343,-0.34248 -0.50624,-0.98398 -0.15469,-1.10346c0.54745,-0.18606 1.14541,0.60389 1.72298,0.57668c1.77362,-0.08356 5.88894,-1.66985 7.28762,-2.38934c2.54391,-1.30859 4.52605,-3.52667 6.53882,-5.55956c1.35317,-1.3667 3.18348,-2.25567 4.36686,-3.77178c0.91606,-1.17362 1.15474,-2.74636 1.77495,-4.09983c1.12569,-2.45656 2.83886,-5.3123 4.07598,-7.51048c0.60116,-2.30752 1.81612,-4.45065 2.23438,-6.79823c0.71578,-4.01742 -0.24541,-7.99066 -0.6125,-11.9203c-0.22792,-2.43985 0.23674,-4.91537 0.00011,-7.35439c-0.97628,-10.06307 -1.80308,-21.26333 1.18341,-31.12941c0.66966,-2.21228 1.79417,-4.26515 2.59102,-6.43486c0.38807,-1.05666 0.40187,-2.26195 0.96168,-3.23855c1.135,-1.98002 3.53084,-2.89813 5.23493,-4.41627c3.46302,-3.08512 6.83549,-5.52618 10.19787,-8.85415c2.0264,-2.0264 3.6146,-4.58454 6.01942,-6.14319c1.0067,-0.65248 2.34414,-0.67221 3.34231,-1.33767c1.06262,-0.70843 1.64541,-2.00902 2.71732,-2.70332c3.7185,-2.40857 8.43852,-2.77407 12.13547,-5.42198c3.26787,-2.34058 5.81051,-5.7329 8.5905,-8.51327c5.19238,-5.19308 11.75315,-11.06401 14.87068,-17.93634c0.39059,-0.86102 -0.12217,-2.01244 0.3846,-2.81062c0.59703,-0.94034 2.1037,-1.04903 2.67446,-2.00554c0.77607,-1.30057 0.68484,-2.95494 1.14766,-4.39702c1.16257,-3.62238 2.39825,-7.29449 3.81583,-10.83243c4.26009,-8.50671 8.90229,-15.72655 14.83474,-23.16611c1.4086,-1.76646 2.10832,-4.08036 3.71022,-5.67361c3.39786,-3.37953 7.98559,-2.06992 12.34273,-2.06992c2.73593,0 5.47447,-0.00021 8.2104,-0.00021c10.18224,-0.00003 20.3084,0.01817 30.47234,0.67417c0.92004,0.05938 1.84752,0.06883 2.7735,0.0824c-0.22647,0.59059 -0.32605,1.31547 -0.21495,2.20424c0.52715,4.21718 4.74604,3.69034 4.74604,3.69034z" data-paper-data="{&quot;noHover&quot;:false,&quot;origItem&quot;:[&quot;Path&quot;,{&quot;applyMatrix&quot;:true,&quot;segments&quot;:[[[544.67145,83.91391],[1.0543,8.43436],[-0.22219,-1.77754]],[[545.10144,79.50543],[-0.45293,1.18118],[-1.85196,-0.02713]],[[539.55618,79.3409],[1.84008,0.11876],[-20.32787,-1.31199]],[[478.63104,77.99338],[20.36449,-0.00005],[-5.47186,0.00001]],[[462.21547,77.99338],[5.47186,0],[-8.71428,0]],[[437.53794,82.13202],[6.79573,-6.75905],[-3.20379,3.18651]],[[430.12054,93.47861],[2.81721,-3.53291],[-11.8649,14.87912]],[[400.46513,139.8066],[8.52018,-17.01343],[-2.83516,7.07589]],[[392.83897,161.46915],[2.32514,-7.24475],[-0.92564,2.88415]],[[390.54579,170.26218],[1.55214,-2.60115],[-1.14152,1.91301]],[[385.1993,174.27205],[1.19405,-1.88067],[-1.01355,1.59636]],[[384.43132,179.89264],[0.78118,-1.72204],[-6.23507,13.74467]],[[354.70609,215.75457],[10.38476,-10.38617],[-5.55998,5.56073]],[[337.5331,232.7738],[6.53573,-4.68115],[-7.3939,5.29581]],[[313.2692,243.6098],[7.437,-4.81714],[-2.14382,1.38861]],[[307.83654,249.01386],[2.12525,-1.41686],[-1.99634,1.33091]],[[301.15342,251.68711],[2.0134,-1.30496],[-4.80964,3.1173]],[[289.11843,263.9676],[4.05279,-4.05279],[-6.72477,6.65594]],[[268.72751,281.66687],[6.92604,-6.17023],[-3.40819,3.03627]],[[258.25961,290.49498],[2.26999,-3.96003],[-1.11962,1.9532]],[[256.33721,296.96964],[0.77615,-2.11332],[-1.59371,4.33941]],[[251.15696,309.83428],[1.33932,-4.42455],[-5.97298,19.73216]],[[248.79473,372.06917],[-1.95255,-20.12615],[0.47325,4.87805]],[[248.79473,386.77202],[-0.45585,-4.8797],[0.73419,7.85928]],[[250.01935,410.60297],[1.43157,-8.03484],[-0.83653,4.69515]],[[245.54998,424.19426],[1.20232,-4.61505],[-2.47424,4.39636]],[[237.39715,439.21009],[2.25139,-4.91311],[-1.24043,2.70694]],[[233.84669,447.40705],[1.83212,-2.34724],[-2.36676,3.03221]],[[225.11253,454.94871],[2.70635,-2.7334],[-4.02554,4.06578]],[[212.03423,466.0653],[5.08782,-2.61719],[-2.79736,1.43897]],[[197.2661,470.89678],[3.54723,-0.16713],[-1.15513,0.05443]],[[194.01315,469.691],[1.09491,-0.37211],[-0.7031,0.23895]],[[194.32234,471.89723],[0.28687,-0.68495],[-0.75444,1.80134]],[[191.0529,476.75901],[0.52485,-1.8811],[-0.9945,3.56439]],[[191.36132,487.8563],[0.05973,-3.70004],[-0.17459,10.81576]],[[201.69092,520.18173],[-6.65413,-8.83067],[1.4135,1.87586]],[[207.90034,526.96312],[-2.65875,-0.98836],[2.81255,1.04553]],[[216.67111,528.98943],[-2.92359,-0.67544],[4.14021,1.25732]],[[229.09174,532.76139],[-2.76787,-3.32582],[2.25205,2.70602]],[[234.08754,559.15365],[-0.49013,-4.89665],[1.24412,12.42933]],[[238.12173,596.85681],[-0.82607,-12.45903],[0.2231,3.36487]],[[238.06096,606.97338],[-0.4142,-3.34672],[0.61225,4.94703]],[[244.1792,623.61225],[-1.78558,-4.28265],[2.00683,4.81332]],[[249.52569,638.3151],[-1.62698,-4.95463],[0.28275,0.86106]],[[250.35637,640.904],[-0.68983,-0.5878],[1.18299,1.00801]],[[254.66249,642.69209],[-1.24753,-0.92694],[1.86509,1.3858]],[[259.50766,647.70361],[-2.03104,-1.12865],[5.34168,2.96838]],[[277.72473,651.8806],[-5.84986,-0.89786],[13.1864,2.02391]],[[317.30991,656.05988],[-13.28397,-1.71845],[7.11717,2.77771]],[[339.01339,664.69554],[-6.82999,-3.43569],[4.16495,2.09509]],[[350.6098,672.51534],[-4.34513,-1.68999],[2.10785,0.81982]],[[357.33459,673.41724],[-2.19705,-0.53675],[2.5119,0.61367]],[[364.66694,675.9496],[-2.53965,-0.48622],[3.63135,0.69523]],[[375.75841,675.85039],[-3.68818,-0.25965],[13.04349,0.91826]],[[415.55456,678.63898],[-12.88823,-2.27849],[4.373,0.77309]],[[428.44309,682.01136],[-4.11613,-1.66682],[1.75615,0.71115]],[[432.82446,685.63239],[-1.77144,-0.67215],[1.43864,0.54588]],[[437.43591,685.42358],[-1.47262,-0.44616],[6.93968,2.10251]],[[457.64189,693.48187],[-7.04004,-1.73712],[14.3456,3.53976]],[[502.31415,699.89905],[-14.81127,0.03101],[25.23298,0]],[[576.08148,685.54802],[-24.17884,7.10398],[9.14238,-2.68612]],[[603.18516,676.09049],[-9.28554,2.32572],[5.22952,-1.30982]],[[619.09938,673.20796],[-5.37134,0.46068],[3.0704,-0.26333]],[[634.3762,672.35345],[-3.76118,1.45093],[2.63682,-1.01719]],[[641.72723,668.12853],[-2.72541,0.74811],[2.6796,-0.73554]],[[650.063,668.04749],[-2.74662,0.42115],[4.88132,-0.74847]],[[660.70834,658.28009],[-2.92445,2.83816],[2.06881,-2.00777]],[[667.59652,653.0501],[-2.29606,1.74333],[1.34663,-0.55978]],[[671.63641,651.37075],[-1.01459,1.04755],[1.4985,-1.54719]],[[674.72185,645.69327],[-1.35767,1.67214],[2.31514,-2.85138]],[[682.54578,637.9345],[-2.32922,2.83989],[4.97626,-6.06728]],[[690.31412,615.64391],[-0.39471,7.68483],[0.29862,-5.81416]],[[690.52508,598.17971],[-1.85142,5.51959],[1.4426,-4.30076]],[[696.79715,586.10246],[-2.89799,3.48988],[1.73515,-2.08954]],[[703.88767,582.08789],[-2.315,1.42046],[6.41567,-3.93659]],[[720.53318,567.73132],[-5.01212,5.60333],[5.45196,-6.09506]],[[731.80023,548.67164],[-4.43474,6.40824],[3.14555,-4.54535]],[[741.73638,535.39515],[-2.07389,5.12384],[3.14215,-7.76312]],[[749.45202,512.19875],[-3.35306,7.79103],[2.85277,-18.0753]],[[768.84376,467.27699],[-13.29981,13.20243],[3.71834,-3.69112]],[[780.67302,456.92698],[-4.15313,3.19405],[2.34563,-1.80395]],[[788.27101,452.33607],[-2.62515,1.36558],[1.01097,-0.5259]],[[791.52341,451.28271],[-0.66236,0.92732],[2.45105,-3.43153]],[[796.04426,439.46709],[-0.64114,4.16796],[1.65065,-10.73065]],[[797.23485,405.96906],[-0.50262,10.85117],[0.75514,-16.30295]],[[801.25794,357.83422],[1.18359,16.38856],[-1.01556,-14.06201]],[[797.26888,316.26954],[-0.10012,14.14831],[-5.01371,-25.06856]],[[785.72588,239.52027],[8.95119,24.4312],[-5.15322,-14.0651]],[[761.44712,202.75135],[4.97051,14.28492],[-0.65836,-1.89207]],[[761.29207,196.74333],[0.43515,1.95551],[-0.47808,-2.1484]],[[758.75377,190.64786],[0.52973,2.13626],[-0.13408,-0.5407]],[[755.81359,170.34264],[0.0623,0.79948],[-0.35617,-4.57097]],[[754.94546,155.20791],[1.51024,4.55074],[-1.70376,-5.13385]],[[745.77693,141.81871],[3.13467,4.40829],[-13.16848,-13.48229]],[[695.08452,118.83319],[17.68057,5.07584],[-27.9405,-8.02133]],[[611.44933,95.17573],[28.3884,6.15163],[-4.7129,-1.02126]],[[597.51243,91.29592],[4.78858,0.56918],[-1.95822,-0.23276]],[[591.59708,91.20624],[1.92562,0.42522],[-5.5421,-1.22383]],[[575.53034,87.28606],[5.97962,-0.86251],[-0.04773,0.00689]],[[575.38722,87.30714],[0.04768,-0.00717],[-1.924,1.46172]],[[569.64938,88.67702],[1.71443,0.25492],[-1.42669,0.4155]],[[565.35956,89.87847],[1.43917,-0.35587],[0,0]],[554.16011,91.29397]],&quot;closed&quot;:true}]}" fill="#000000" stroke-width="0.5"/><path d="M215.34417,225.93193c0.12008,-1.11295 0.13389,-2.30983 0.35739,-3.33385c0.33083,-1.51568 2.19657,-6.46136 2.62522,-7.93956c0.26414,-0.91093 0.34966,-2.10676 0.65747,-2.93308c0.88931,-2.38736 1.721,-2.45075 2.86433,-3.60668c0.24067,-0.24332 2.46012,-2.93824 2.82198,-3.04302c0.90081,-0.26083 1.79255,0.29905 2.69401,0.15374c4.46446,-0.71965 9.05301,-1.21938 13.45688,0.52863c0.91797,-0.14213 1.66415,1.62368 2.49645,2.41846c1.15059,1.09872 2.61248,0.2526 3.68103,1.73421c2.44279,3.38708 3.94136,10.1212 5.07895,16.08202c0.42608,2.23255 -0.11814,5.10739 -0.14568,7.65234c-0.06128,5.66264 -0.09743,11.47143 -0.21916,17.26051c-0.36192,-0.27035 -0.6512,-0.2807 -0.6512,-0.2807l-1.4225,-0.05144c-1.5097,-0.01428 -2.1555,-0.29692 -3.41123,-1.99528c-1.31225,-2.40163 -1.04278,-4.47219 -1.69877,-8.36514c-0.2062,-1.2237 -0.69386,-2.11626 -0.78624,-3.44076c-0.10106,-1.449 0.24257,-2.97689 0.23183,-4.46384c-0.02154,-2.9807 -0.48274,-7.27427 -1.1142,-9.67341c-2.43814,-9.26343 -7.06585,-11.33541 -11.33912,-11.54716c-2.50673,-0.12422 -4.82794,-0.30543 -7.13522,3.41533c-0.89968,1.45085 -2.75361,6.26084 -3.20418,8.38456c-0.65643,3.094 -0.84987,6.62956 -1.55138,9.66899c-0.34937,7.64943 -1.08758,13.63377 -2.17202,20.76506c-0.16999,1.11781 -0.44415,2.13831 -0.63741,3.23668c-0.04509,0.2563 0.00474,1.05735 -0.07594,0.88778c-0.16155,-0.3395 -2.20191,-2.15704 -2.19338,-2.57888c0.16978,-8.41069 0.75456,-17.13095 1.07108,-25.58347c0,0 0.0669,-1.78335 -0.27898,-3.35205z" data-paper-data="{&quot;noHover&quot;:false,&quot;origItem&quot;:[&quot;Path&quot;,{&quot;applyMatrix&quot;:true,&quot;segments&quot;:[[[413.24069,495.87603],[0,0],[0,12.81615]],[[412.8045,534.6234],[-0.54502,-12.74449],[0.02734,0.63921]],[[421.39644,538.39508],[-0.65423,-0.50489],[0.32676,0.25217]],[[421.3899,537.15684],[-0.13328,0.39064],[0.57117,-1.67405]],[[423.32553,532.21605],[-0.48102,1.70215],[3.06874,-10.85918]],[[428.54702,500.60625],[-0.23625,11.60204],[2.20641,-4.64187]],[[433.01488,485.84904],[-2.02943,4.72193],[1.39299,-3.24112]],[[443.8792,472.941],[-3.17371,2.24778],[8.13909,-5.76452]],[[470.23521,467.32669],[-9.42846,-0.04595],[16.07288,0.07833]],[[514.5562,484.22288],[-10.45578,-13.88779],[2.70795,3.59681]],[[520.10682,498.84734],[-0.49987,-4.51195],[0.24937,2.25082]],[[519.86209,505.6367],[-0.58312,-2.18823],[0.53302,2.00024]],[[523.29508,510.81167],[-0.94618,-1.84115],[3.01008,5.85722]],[[530.84207,523.39769],[-5.26419,-3.56198],[4.95317,2.50033]],[[543.74946,526.13809],[-5.66985,0.06397],[0,0]],[549.09595,526.13809],[[551.5799,526.52692],[-1.39675,-0.38883],[-0.35689,-8.77231]],[[549.96873,500.41407],[0.56602,8.57744],[-0.25439,-3.85495]],[[549.44071,488.83611],[1.91345,3.3562],[-5.10886,-8.96096]],[[528.12963,464.81854],[9.6471,4.98998],[-4.21997,-2.18278]],[[514.08015,462.41725],[4.47414,1.59836],[-3.23646,-1.15621]],[[504.38484,458.90948],[3.42638,-0.26725],[-16.77917,-2.39702]],[[453.89767,458.86718],[16.65973,-1.34278],[-3.36393,0.27113]],[[443.77354,458.77749],[3.34524,-0.44602],[-1.34378,0.17917]],[[433.6186,463.53139],[0.86935,-0.38208],[-4.12985,1.81507]],[[423.38046,469.14085],[3.0031,-3.6652],[-1.03944,1.26861]],[[421.32758,473.61229],[0.86363,-1.39425],[-1.40143,2.26249]],[[412.59367,485.76262],[1.02894,-2.3137],[-0.69517,1.56317]],[[411.72158,490.82353],[0.29435,-1.69195],[1.51911,2.35559]]],&quot;closed&quot;:true}]}" fill="#ffffff" stroke-width="0.5"/><path d="M218.68981,333.27394c-0.50015,-3.94536 -0.84121,-8.31255 -1.16216,-12.52383c-0.26769,-6.7956 -0.1732,-13.64663 0.04663,-20.9797c-0.08347,-0.6779 -0.18533,-1.34374 -0.28056,-2.01302c0.19546,0.21787 0.4265,0.51751 0.52968,0.95643c0.21308,0.90647 -0.02984,2.24432 0.15314,3.19393c0.24381,1.26525 0.78648,2.01373 1.0821,3.20285c1.03928,4.18038 1.02503,9.55121 1.8655,13.7343c0.64386,3.20459 2.09891,4.83883 3.20853,7.10139c1.19964,2.44612 2.14017,5.9646 3.64618,7.13766c4.15415,3.23573 7.96223,-7.72612 9.63339,-15.92106c0.48011,-2.0842 1.08675,-4.02229 1.44253,-6.23497c0.17999,-1.11939 -0.01947,-2.37935 0.13392,-3.51815c0.13289,-0.98657 0.50972,-1.70681 0.7001,-2.64386c1.17907,-5.80315 2.1059,-11.34743 3.66763,-16.70651c0.73328,-2.51626 1.31536,-4.9981 2.42118,-5.46272c0.33005,-0.13867 0.67574,-0.21302 0.99172,-0.5059c-0.09515,2.15304 0.85626,6.02014 0.97078,7.97948l-0.11535,1.28338c0,0 -0.09503,2.5785 0.54596,4.26451c-0.10445,1.57095 -0.02974,3.20914 -0.15304,4.78514c-0.28514,3.64441 -1.02079,7.38051 -1.44645,10.97887c-0.44123,3.72995 -0.63554,7.6041 -1.12152,11.30795c-0.32385,2.46815 -0.49613,5.17238 -1.11008,7.32474c-0.28433,0.99679 -0.84789,1.40448 -1.11556,2.4272c-0.77563,2.96364 -1.27867,8.90498 -2.39003,11.64471c-0.38814,0.95682 -0.96505,1.32363 -1.37254,2.22957c-1.65155,3.67168 -3.29428,7.92222 -5.40962,10.13129c-1.27372,1.33014 -3.05652,1.21592 -4.42083,2.03766c-1.14987,-0.08533 -2.78984,0.73979 -3.83635,-0.03824c-0.41252,-0.30669 -0.69743,-1.2452 -1.10053,-1.60996c-0.26365,-0.23857 -0.66601,0.33467 -0.85692,-0.16163c-0.33046,-0.85906 -0.25462,-2.3656 -0.50662,-3.3792c-0.49499,-1.99086 -1.40053,-3.20799 -1.89343,-5.20225c-0.50805,-2.0555 -0.62635,-4.64956 -1.08472,-6.7811c-0.40692,-1.89225 -1.14064,-3.25908 -1.62284,-5.01879c0.13234,-1.62317 -0.03983,-3.02014 -0.03983,-3.02014z" data-paper-data="{&quot;noHover&quot;:false,&quot;origItem&quot;:[&quot;Path&quot;,{&quot;applyMatrix&quot;:true,&quot;segments&quot;:[[[439.93572,657.67706],[0.26864,-2.4652],[2.05771,2.63711]],[[446.72341,665.16827],[-1.79368,-2.84204],[2.02051,3.20144]],[[451.73493,675.35993],[-2.19632,-3.08348],[2.13087,2.9916]],[[459.55886,683.1187],[-2.13822,-2.98635],[1.08863,1.52043]],[[461.92929,688.20324],[-1.36138,-1.28198],[0.78651,0.74064]],[[465.16451,688.39742],[-1.02335,-0.34628],[1.56462,0.52944]],[[469.51486,690.77007],[-1.59182,-0.44097],[4.03829,1.11871]],[[483.8995,690.60638],[-4.32897,-0.064],[5.0065,-1.32159]],[[500.18133,687.27312],[-4.59489,2.08623],[7.63105,-3.46475]],[[519.02633,671.64632],[-5.68425,5.65303],[1.4025,-1.3948]],[[523.85734,668.2005],[-1.32264,1.47075],[3.78721,-4.21131]],[[531.17243,650.46542],[-2.4953,4.53132],[0.8611,-1.56371]],[[535.01613,646.73633],[-0.92731,1.52538],[2.00234,-3.29377]],[[538.15009,635.60514],[-0.86882,3.75546],[1.30381,-5.63567]],[[540.77404,618.4511],[-1.13213,5.67265],[1.09219,-5.47251]],[[544.6695,601.7673],[-0.55816,5.53428],[0.24137,-2.39326]],[[544.57611,594.52129],[-0.1713,2.38454],[-2.64354,-2.51649]],[541.93257,588.103],[[542.18636,586.15469],[0,0],[-0.70532,-2.9602]],[[537.43118,574.13909],[-0.05454,3.26537],[-1.14509,0.46138]],[[533.7814,574.96325],[1.2196,-0.22868],[-4.08624,0.7662]],[[525.58416,583.21536],[2.39921,-3.85152],[-5.10979,8.20287]],[[514.177,608.73191],[3.61075,-8.85358],[-0.58304,1.42961]],[[511.92339,612.77849],[0.3602,-1.50133],[-0.41578,1.73298]],[[511.92339,618.12498],[0.51838,-1.70511],[-1.02467,3.37044]],[[507.39495,627.67389],[1.50948,-3.18297],[-5.12192,12.50295]],[[473.31276,652.43273],[16.05081,4.66377],[-5.81892,-1.69076]],[[458.58205,641.78036],[4.84769,3.63572],[-4.48392,-3.3629]],[[445.53321,631.17565],[2.86778,4.81565],[-3.74345,-6.28609]],[[436.60719,610.44914],[4.48945,6.27071],[-1.27703,-1.78372]],[[432.09618,605.65717],[1.09321,1.90193],[-0.82049,-1.42746]],[[431.07505,600.82449],[0.92739,1.36043],[-0.44906,-0.65874]],[[429.12561,599.50567],[0.76445,0.3188],[0.45163,1.00798]],[[430.46342,602.53506],[-0.40867,-1.02169],[0.20563,11.11568]],[[433.24954,634.25366],[-1.96036,-10.27423],[1.79697,6.35823]],[[439.3652,653.11394],[-2.43236,-5.94542],[0,0]]],&quot;closed&quot;:true}]}" fill="#ffffff" stroke-width="0.5"/><path d="M290.39637,106.01744c2.38814,0.8604 7.41773,-0.75004 9.88729,0.59995c3.35509,1.83406 5.65437,5.85584 8.87303,7.76685c2.77747,1.64906 6.25792,2.13826 8.73961,4.20584c1.60135,1.33415 1.67207,3.51906 2.15667,5.37332c1.26562,4.84271 1.69582,9.0424 0.62192,14.02022c-0.13468,0.62426 -0.42829,1.21411 -0.691,1.80605c-0.50466,-1.08698 -1.0546,-2.25 -1.71729,-3.24453c-0.90974,-1.36528 -2.35805,-2.33356 -3.18707,-3.74931c-0.65738,-1.12262 -0.79464,-2.473 -1.19072,-3.71218c-0.88867,-1.45414 -1.5606,-3.05968 -2.66834,-4.35473c-0.97413,-1.13885 -2.41658,-1.78295 -3.49086,-2.82785c-1.06144,-1.03242 -1.56117,-2.70829 -2.89082,-3.35989c-4.58129,-2.24507 -10.36007,-0.88402 -15.19534,-1.22382c-7.18466,-0.50491 -8.27231,-0.79512 -14.99248,-3.50899c-2.4395,-0.98516 -4.90752,-2.16394 -7.26497,-3.3319c-1.08562,-0.53785 -2.47419,-0.81087 -3.14727,-1.81825c-2.97464,-4.45206 5.67834,-6.73873 7.71749,-7.03484c1.9801,-0.28754 4.00779,0.04121 6.00865,0.04916c1.016,0.00404 4.11675,-0.09882 6.69927,0.01859c0.68129,1.99443 2.61449,2.48464 3.52428,2.60618c0.65334,0.71178 1.3244,1.40179 2.20796,1.72012z" data-paper-data="{&quot;noHover&quot;:false,&quot;origItem&quot;:[&quot;Path&quot;,{&quot;applyMatrix&quot;:true,&quot;segments&quot;:[[[598.91332,186.18015],[1.30668,1.42355],[-1.81958,-0.24308]],[[591.87752,180.96353],[1.36258,3.98885],[-5.16504,-0.23483]],[[578.50165,180.91333],[2.032,0.00807],[-4.0017,-0.01589]],[[566.49697,180.80358],[3.96019,-0.57508],[-4.07829,0.59223]],[[551.08073,194.84434],[-5.94928,-8.90411],[1.34616,2.01475]],[[557.37589,198.47931],[-2.17123,-1.0757],[4.7149,2.33591]],[[571.71983,205.06963],[-4.87899,-1.97033],[13.44032,5.42774]],[[601.73366,212.04703],[-14.36933,-1.00983],[9.67054,0.67961]],[[632.28738,214.55434],[-9.16258,-4.49015],[2.65929,1.30319]],[[638.07011,221.29907],[-2.12288,-2.06483],[2.14856,2.08981]],[[645.04989,226.96786],[-1.94826,-2.2777],[2.21548,2.5901]],[[650.3819,235.69269],[-1.77734,-2.90828],[0.79216,2.47835]],[[652.75839,243.12773],[-1.31475,-2.24525],[1.65804,2.8315]],[[659.12959,250.63148],[-1.81948,-2.73056],[1.32539,1.98906]],[[662.39691,257.01102],[-1.00932,-2.17397],[0.52543,-1.18388]],[[663.77581,253.40368],[-0.26935,1.24852],[2.14779,-9.95565]],[[662.51789,225.40364],[2.53124,9.68543],[-0.9692,-3.70851]],[[658.20417,214.677],[3.2027,2.66829],[-4.96338,-4.13518]],[[640.731,206.29237],[5.55493,3.29812],[-6.43732,-3.82201]],[[623.02984,190.81088],[6.71018,3.66813],[-4.93913,-2.69999]],[[603.31792,189.62267],[4.77628,1.7208],[-1.76711,-0.63666]]],&quot;closed&quot;:true}]}" fill="#ffffff" stroke-width="0.5"/><path d="M163.17873,189.3941c-0.69947,1.419 -1.57394,2.80517 -2.10928,4.29387c-0.6087,1.69269 -0.12429,3.76475 -1.03607,5.31535c-1.19117,2.02577 -4.41094,4.70189 -6.79597,5.22012c-1.53951,0.33451 -2.81787,-1.44628 -4.213,-2.17813c-0.53743,-0.28192 -1.25571,-0.22675 -1.7181,-0.61982c-0.75383,-0.64082 -0.71112,-1.8816 -0.79856,-2.86712c-0.23076,-2.60073 0.22049,-7.25725 1.51853,-9.53542c1.68378,-2.95518 6.50035,-6.2402 8.85665,-7.99395c1.93156,-1.43762 3.7173,-3.16769 5.89112,-4.20316c1.24977,-0.59531 2.67285,-0.69429 4.05998,-0.88057c-0.88458,4.65122 -2.16097,8.92483 -3.65529,13.44883z" data-paper-data="{&quot;noHover&quot;:false,&quot;origItem&quot;:[&quot;Path&quot;,{&quot;applyMatrix&quot;:true,&quot;segments&quot;:[[[356.12089,329.46046],[-1.76917,9.30243],[-2.77426,0.37255]],[[348.01743,331.23123],[2.49955,-1.19062],[-4.34764,2.07093]],[[336.2745,339.64671],[3.86312,-2.87525],[-4.7126,3.5075]],[[318.66303,355.54705],[3.36756,-5.91036],[-2.59607,4.55634]],[[315.60355,374.54143],[-0.46153,-5.20145],[0.17489,1.97104]],[[317.18751,380.26256],[-1.50765,-1.28163],[0.92478,0.78614]],[[320.61387,381.49507],[-1.07485,-0.56384],[2.79026,1.4637]],[[329.00954,385.83841],[-3.07903,0.66902],[4.77007,-1.03645]],[[342.54246,375.40192],[-2.38235,4.05154],[1.82355,-3.10121]],[[344.57248,364.80169],[-1.21741,3.38537],[1.0707,-2.97739]],[[348.7693,356.28771],[-1.39894,2.838],[2.98864,-9.04799]]],&quot;closed&quot;:true}]}" fill="#ffffff" stroke-width="0.5"/></g></g></svg>