<svg version="1.1" xmlns="http://www.w3.org/2000/svg" xmlns:xlink="http://www.w3.org/1999/xlink" width="1542.38872" height="1597.06383" viewBox="0,0,1542.38872,1597.06383"><g transform="translate(330.13427,859.41025)"><g data-paper-data="{&quot;isPaintingLayer&quot;:true}" fill-rule="nonzero" stroke="none" stroke-linecap="butt" stroke-linejoin="miter" stroke-miterlimit="10" stroke-dasharray="" stroke-dashoffset="0" style="mix-blend-mode: normal"><path d="M122.0558,601.52493c0,0 -178.05421,-143.82347 -214.6925,-256.78054c-36.85791,-113.63417 -5.80003,-423.00533 -5.80003,-423.00533l1090.19865,-781.14931l220.49253,679.78586z" data-paper-data="{&quot;index&quot;:null}" fill="#1c261a" stroke-width="0"/><path d="M7.92686,731.92862c-95.04932,65.5722 -111.37328,-453.7773 -111.37328,-453.7773l660.61565,-201.46596l13.20005,325.90345c0,0 -364.21572,192.58808 -562.44242,329.33981z" data-paper-data="{&quot;index&quot;:null}" fill="#10140e" stroke-width="0"/><path d="M641.50236,173.69655c-1.38071,0 -2.5,-1.11929 -2.5,-2.5c0,-1.38071 1.11929,-2.5 2.5,-2.5c1.38071,0 2.5,1.11929 2.5,2.5c0,1.38071 -1.11929,2.5 -2.5,2.5z" data-paper-data="{&quot;index&quot;:null}" fill="#252525" stroke-width="0.5"/><path d="M-330.13427,57.50003c0,-6.90356 5.59644,-12.5 12.5,-12.5c6.90356,0 12.5,5.59644 12.5,12.5c0,6.90356 -5.59644,12.5 -12.5,12.5c-6.90356,0 -12.5,-5.59644 -12.5,-12.5z" fill="#262429" stroke-width="0.5"/><path d="M313.29423,159.73261v-203.88714h203.06169v203.88714z" fill="#10140e" stroke-width="0"/><g><g><path d="M468.04482,255.37972c0,7.6953 0.30887,14.14961 -2.0865,21.537c-5.7766,13.85011 -20.86284,22.97718 -34.67945,27.24988c-9.03511,2.79406 -18.68081,4.8921 -27.92618,6.51686c-4.41622,0.77609 -8.96771,0.05582 -13.45161,0.05582c-15.75704,0 -30.50556,-1.72901 -46.14215,-3.68371c-9.16722,-1.38225 -20.4126,-5.43625 -28.23562,-10.70078c-0.79411,-0.5344 -7.99437,-7.95866 -8.65498,-8.5455c-3.9222,-3.48419 -5.77663,-3.0599 -8.40588,-8.79425c-2.64283,-5.76394 -0.86336,-11.86369 -0.35458,-17.68175c0.20175,-2.30701 -0.43391,-4.6921 0.09461,-6.94681c2.41241,-10.29163 10.03527,-19.22759 14.71577,-28.63436c-0.13931,-0.04629 -0.27856,-0.0927 -0.41776,-0.13925c-20.01637,-7.78081 -38.31917,-16.61144 -50.29306,-35.51957c-3.84206,-6.06704 -5.69306,-15.11067 -7.69378,-21.90738c-6.64404,-22.57078 -6.97048,-48.20265 0.83236,-70.76631c0.77993,-22.03569 5.9236,-45.05225 -4.32119,-65.49314l-1.92996,-5.75548c0,0 -0.53405,-1.60219 0.06683,-3.1375c-1.11949,-0.65887 -2.84776,-2.19024 -1.88956,-5.06482c1.36707,-4.1012 5.46826,-2.73413 5.46826,-2.73413c9.41033,3.18013 16.55623,9.03682 26.2502,11.79226l0.6104,-0.06564c0.27228,-0.23286 0.4676,-0.35494 0.4676,-0.35494c13.56982,-8.47656 26.58342,-17.72388 39.89639,-26.59985c4.91619,-3.27769 9.77406,-7.59537 15.1363,-10.05192c4.12494,-1.88972 8.79776,-2.4781 12.81614,-4.58494c8.20587,-4.30234 15.95659,-8.56743 25.15309,-10.4359l4.15401,-0.01753c0.71256,-0.10272 1.3879,0.00271 1.91006,0.14688c0.54166,0.13126 1.20516,0.37709 1.7905,0.83749c13.15588,7.71007 21.96376,20.50876 35.00518,28.85983l2.39337,1.17647c11.55589,-3.37534 22.30412,-10.02965 31.71807,-17.52898c11.33469,-9.02944 23.22408,-20.42932 38.28702,-20.78613h3.64548c0,0 0.81671,0 1.74016,0.35499c0.51678,-0.22091 1.14401,-0.35499 1.9053,-0.35499c4.32304,0 4.32304,4.32304 4.32304,4.32304c0,1.27761 0.01153,15.66234 -0.0418,16.09285c-1.05935,8.55266 -4.21804,16.73767 -6.35009,25.11805c13.46795,-0.15744 27.05111,-0.69355 40.28269,1.9411l4.04711,1.87786c1.28086,0.30849 2.02797,1.08648 2.46372,1.8891c0.52679,0.75411 0.89001,1.77959 0.58129,3.07643c-0.39519,7.57173 -4.1557,14.32789 -6.5834,21.57828c-3.03111,9.0524 -5.92662,18.55506 -8.5667,27.69024c-4.29208,14.85143 -1.92385,33.06652 -9.87847,46.65305c-3.80052,9.42635 -4.35134,19.38415 -5.02882,29.37192c-0.41053,6.05242 -1.82477,11.51271 -1.85365,17.60913l-1.94727,6.96759c0,0 -0.84054,2.94186 -3.58226,3.16866c-5.16729,15.97127 -13.51168,30.65977 -26.4364,42.29913c-4.61816,5.20717 -10.14343,9.23954 -16.20694,12.33701c6.48087,7.13322 7.20316,15.23376 7.20316,25.76469zM309.08759,251.68247c-0.7441,1.60277 -2.08049,2.96693 -2.47036,4.69048c-0.42751,1.88995 0.24676,3.8806 0.09461,5.81232c-0.32549,4.13234 -2.21135,9.15629 -0.35458,13.30472c1.29812,2.90027 3.98179,3.836 6.17598,5.78763c2.74904,2.44513 4.6767,5.83601 7.74963,7.85911c6.75545,4.44752 16.70458,8.2966 24.62365,9.34929c15.27467,1.90919 29.60912,3.60721 44.99453,3.60721c4.02226,0 8.11449,0.8035 12.06667,0.05582c8.87725,-1.67941 18.0469,-3.57749 26.75583,-6.24227c10.68796,-3.27034 24.93975,-10.81466 29.11622,-21.96393c2.13843,-6.18936 1.55896,-12.03194 1.55896,-18.56314c0,-9.30843 0.15947,-16.06966 -7.15755,-22.0861c-9.05899,3.20849 -18.84147,4.80265 -28.33863,5.43857c-34.25686,2.29377 -69.59917,-0.67787 -102.64382,-10.37259c-3.74901,8.03201 -8.40832,15.21773 -12.17116,23.32288zM514.15877,83.22522c2.812,-14.13469 7.42447,-28.71248 12.00218,-42.50376c1.81016,-5.45346 5.3174,-11.39207 6.02742,-17.11805l-0.05053,-0.02862c-14.34705,-2.88312 -29.23957,-1.73878 -43.80917,-1.73878c-1.50137,0 -2.48132,-0.52143 -3.12094,-1.2021c-0.68067,-0.63962 -1.2021,-1.61957 -1.2021,-3.12094c0,-0.20311 0.00955,-0.3967 0.02774,-0.58119l0.05622,-1.17801c1.94784,-9.7392 6.00892,-19.09809 7.24876,-28.91553c0.44176,-3.4981 0.23497,-7.03564 0.078,-10.5706h-3.08769c-2.84641,-0.10349 -5.63131,1.14759 -8.21863,2.33861c-9.37999,4.31788 -16.51614,10.09353 -24.69002,16.57105c-10.47117,8.29803 -22.3267,15.51519 -35.16761,19.20144c0,0 -0.88809,0.25374 -1.96057,0.11615c-1.5546,0.30804 -2.9831,-0.40621 -2.9831,-0.40621l-4.04576,-2.05031c-6.09344,-3.91281 -7.41771,-4.50308 -13.2955,-9.51979c-7.57986,-6.46942 -12.47246,-13.9384 -21.06237,-18.96582l-2.98267,-0.0152c-8.0616,1.57279 -15.06843,5.89925 -22.23799,9.61417c-3.99115,2.06802 -8.60371,2.68241 -12.70214,4.52871c-5.04113,2.27098 -9.5965,6.43683 -14.22139,9.51986c-13.38428,8.92219 -26.47199,18.20953 -40.10994,26.73772c0,0 -0.44792,0.27996 -1.12849,0.48757c-1.26969,1.0809 -2.98545,1.0809 -2.98545,1.0809l-3.92172,-0.16633c-5.5666,-1.598 -8.4975,-2.13309 -13.73525,-4.97097c-1.51465,-0.82065 -2.83244,-1.64587 -4.0972,-2.44575l0.2299,0.69428c7.483,15.0009 7.33076,30.96041 6.28917,47.06144c0.19376,-0.3796 0.38824,-0.75887 0.58358,-1.13774c-0.20872,6.45519 -0.03514,12.91869 0.07771,19.38164c-0.73109,1.66525 -1.40812,3.35532 -2.03228,5.06679c-0.02248,1.09466 -0.03394,2.18815 -0.03227,3.28022c0,0 0,2.79268 -2.24461,3.88885c-5.28256,19.37077 -4.38067,40.75435 1.1608,59.60941c1.79316,6.10129 3.41027,14.60045 6.8881,20.01549c10.95533,17.05758 27.63594,24.65564 45.73534,31.69738c34.42652,11.4982 71.75141,14.9609 107.90242,12.62316c8.25709,-0.53395 16.92355,-1.84051 24.97536,-4.54413c1.35437,-2.11198 3.38098,-2.00592 4.55612,-1.71348c6.87781,-2.88454 13.12159,-6.95494 18.02341,-12.64289c24.91945,-22.31387 31.29576,-56.89539 31.33719,-88.97756c1.56508,-1.90291 3.03422,-5.34357 4.27503,-9.14355c1.69534,-1.83713 2.99746,-4.04266 3.77266,-6.48289c0.07097,0.83274 0.13484,1.66717 0.19203,2.50314c2.84748,-8.13227 2.01303,-17.46723 3.68624,-25.87778z" fill="#000000" stroke-width="0.5"/><path d="M309.0026,251.66658c3.76284,-8.10516 8.43317,-15.31973 12.18218,-23.35175c33.04465,9.69472 68.53361,12.66427 102.79048,10.3705c9.49716,-0.63592 19.2855,-2.21941 28.34449,-5.4279c7.31702,6.01644 7.16476,12.80265 7.16476,22.11109c0,6.53119 0.57965,12.3947 -1.55878,18.58406c-4.17647,11.14927 -18.442,18.73147 -29.12997,22.00182c-8.70893,2.66479 -17.91027,4.59165 -26.78752,6.27107c-3.95217,0.74768 -8.06781,-0.04747 -12.09006,-0.04747c-15.38541,0 -29.80185,-1.72567 -45.07652,-3.63486c-7.91908,-1.05269 -17.88406,-4.92807 -24.63951,-9.37559c-3.07294,-2.02309 -5.00412,-5.42567 -7.75316,-7.8708c-2.19418,-1.95163 -4.87926,-2.89514 -6.17738,-5.79541c-1.85678,-4.14842 0.02841,-9.1874 0.3539,-13.31974c0.15215,-1.93172 -0.52158,-3.92893 -0.09407,-5.81888c0.38987,-1.72354 1.72712,-3.09337 2.47122,-4.69615z" data-paper-data="{&quot;noHover&quot;:false,&quot;origItem&quot;:[&quot;Path&quot;,{&quot;applyMatrix&quot;:true,&quot;segments&quot;:[[[198.90219,248.3042],[0,0],[-0.43031,0.92688]],[[197.47359,251.01669],[0.22546,-0.99672],[-0.24723,1.09295]],[[197.5283,254.37794],[0.08799,-1.11711],[-0.18823,2.38972]],[[197.32325,262.07202],[-1.07377,-2.39902],[0.7507,1.67722]],[[200.8948,265.41899],[-1.26889,-1.12862],[1.58976,1.41401]],[[205.37639,269.96389],[-1.77707,-1.16995],[3.90666,2.57199]],[[219.61618,275.37056],[-4.57958,-0.60877],[8.8333,1.10408]],[[245.63639,277.4566],[-8.89734,0],[2.32606,0]],[[252.61451,277.48888],[-2.28553,0.43238],[5.13369,-0.9712]],[[268.08733,273.87899],[-5.03635,1.54104],[6.18082,-1.89123]],[[284.92516,261.17731],[-2.41524,6.44759],[1.23665,-3.57929]],[[285.8267,250.4423],[0,3.77697],[0,-5.38304]],[[281.68751,237.66997],[4.23141,3.47929],[-5.23879,1.85546]],[[265.29936,240.81508],[5.49218,-0.36775],[-19.81065,1.32648]],[[205.94072,234.81664],[19.10963,5.60643],[-2.16804,4.64489]],[[198.90217,248.3042],[2.17604,-4.68719],[0,0]]],&quot;closed&quot;:true,&quot;fillColor&quot;:[0,0,0],&quot;strokeWidth&quot;:0.5}]}" fill="#667eff" stroke-width="0.25"/><path d="M514.24402,83.21066c-1.67321,8.41055 -0.83763,17.76422 -3.68511,25.89649c-0.05719,-0.83597 -0.12099,-1.67227 -0.19196,-2.50501c-0.77521,2.44023 -2.07762,4.65084 -3.77296,6.48798c-1.24082,3.79998 -2.71092,7.24812 -4.276,9.15104c-0.04143,32.08217 -6.45317,66.71955 -31.37262,89.03342c-4.90182,5.68796 -11.15795,9.7656 -18.03576,12.65014c-1.17514,-0.29244 -3.20461,-0.39718 -4.55899,1.71479c-8.05181,2.70363 -16.73401,4.01531 -24.99109,4.54925c-36.15101,2.33774 -73.54426,-1.13851 -107.97077,-12.63672c-18.09939,-7.04174 -34.80274,-14.66324 -45.75808,-31.72082c-3.47783,-5.41504 -5.10087,-13.92481 -6.89403,-20.0261c-5.54148,-18.85506 -6.45156,-40.27374 -1.169,-59.6445c2.24461,-1.09617 2.24459,-3.89137 2.24459,-3.89137c-0.00168,-1.09207 0.00984,-2.18772 0.03232,-3.28238c0.62416,-1.71147 1.30137,-3.40496 2.03247,-5.07021c-0.11285,-6.46296 -0.28458,-12.93895 -0.07586,-19.39414c-0.19533,0.37887 -0.38999,0.75893 -0.58375,1.13853c1.04159,-16.10103 1.20262,-32.08409 -6.28039,-47.08499l-0.22976,-0.69452c1.26476,0.79988 2.58251,1.62517 4.09717,2.44582c5.23776,2.83788 8.16936,3.37171 13.73596,4.96971l3.92231,0.16531c0,0 1.71659,-0.00138 2.98628,-1.08228c0.68057,-0.20761 1.12883,-0.48814 1.12883,-0.48814c13.63795,-8.52819 26.74782,-17.83925 40.1321,-26.76145c4.62489,-3.08303 9.19074,-7.25546 14.23187,-9.52643c4.09843,-1.8463 8.71984,-2.46477 12.71099,-4.53279c7.16957,-3.71492 14.19301,-8.04607 22.25461,-9.61886l2.98473,0.01485c8.58991,5.02741 13.49792,12.49544 21.07778,18.96487c5.87779,5.01671 7.21465,5.60826 13.30809,9.52107l4.04977,2.05113c0,0 1.43124,0.71491 2.98583,0.40687c1.07248,0.13759 1.96224,-0.1157 1.96224,-0.1157c12.84091,-3.68625 24.71504,-10.89575 35.18621,-19.19378c8.17388,-6.47752 15.31662,-12.2491 24.69661,-16.56698c2.58732,-1.19101 5.37468,-2.44037 8.22108,-2.33688l3.08877,0.00081c0.15696,3.53496 0.36659,7.07474 -0.07517,10.57283c-1.23985,9.81744 -5.29439,19.18232 -7.24223,28.92151l-0.05582,1.17841c-0.01819,0.18449 -0.02755,0.37828 -0.02755,0.5814c0,1.50137 0.52291,2.48289 1.20359,3.12251c0.63962,0.68067 1.62097,1.20365 3.12234,1.20365c14.5696,0 29.47178,-1.13092 43.81883,1.7522l0.05054,0.02864c-0.71002,5.72598 -4.21397,11.67078 -6.02413,17.12424c-4.57772,13.79128 -9.18292,28.39192 -11.99492,42.52661z" data-paper-data="{&quot;noHover&quot;:false,&quot;origItem&quot;:[&quot;Path&quot;,{&quot;applyMatrix&quot;:true,&quot;segments&quot;:[[[317.49428,150.88584],[0,0],[1.62617,-8.17405]],[[324.43511,126.30603],[-2.64728,7.97546],[1.04681,-3.15372]],[[327.92075,116.40671],[-0.4106,3.31132],[0,0]],[[327.89153,116.39016],[0,0],[-8.29686,-1.6673]],[[302.55681,115.38463],[8.42556,0],[-0.86824,0]],[[300.75198,114.68946],[0.36989,0.39363],[-0.39363,-0.36989]],[[300.05681,112.88463],[0,0.86824],[0,-0.11746]],[[300.07285,112.54853],[-0.01052,0.10669],[0,0]],[[300.10536,111.86729],[0,0],[1.12643,-5.63215]],[[304.2973,95.14552],[-0.717,5.6774],[0.25547,-2.02294]],[[304.34241,89.03257],[0.09077,2.04426],[0,0]],[[302.55681,89.03257],[0,0],[-1.64607,-0.05985]],[[297.804,90.38498],[1.49624,-0.68876],[-5.42442,2.49702]],[[283.52583,99.96797],[4.72693,-3.74593],[-6.05545,4.79873]],[[263.1885,111.07211],[7.42586,-2.13175],[0,0]],[[262.05471,111.13928],[0.62021,0.07957],[-0.89902,0.17814]],[260.32959,110.90437],[[257.98994,109.71868],[0,0],[-3.52382,-2.26277]],[[250.30119,104.21341],[3.39911,2.90115],[-4.38341,-3.74125]],[[238.12088,93.24553],[4.96752,2.90734],[0,0]],[[236.39601,93.23674],[0,0],[-4.662,0.90954]],[[223.53584,98.79659],[4.14614,-2.14833],[-2.30807,1.19593]],[[216.19023,101.41553],[2.37011,-1.06771],[-2.91527,1.3133]],[[207.96604,106.92084],[2.67456,-1.78291],[-7.74009,5.15968]],[[184.77057,122.38319],[7.88679,-4.93183],[0,0]],[[184.11797,122.66515],[0.39357,-0.12006],[-0.73426,0.62508]],[182.39149,123.29023],[[180.12357,123.19404],[0,0],[-3.21915,-0.92412]],[[172.18051,120.31934],[3.02898,1.64114],[-0.87592,-0.47458]],[[169.81111,118.90497],[0.73141,0.46257],[0,0]],[[169.94406,119.30647],[0,0],[4.3274,8.67498]],[[173.58107,146.52197],[0.60235,-9.31118],[0.11205,-0.21952]],[[173.91855,145.86402],[-0.11296,0.2191],[-0.1207,3.73302]],[[173.96349,157.07237],[-0.06526,-3.73751],[-0.42279,0.96301]],[[172.78823,160.00248],[0.36095,-0.98974],[-0.013,0.63304]],[[172.76957,161.89942],[-0.00097,-0.63154],[0,0]],[[171.47152,164.14833],[1.29805,-0.63391],[-3.05489,11.20206]],[[172.14281,198.62029],[-3.20462,-10.90383],[1.03698,3.52836]],[[176.12618,210.19519],[-2.01122,-3.1315],[6.33544,9.86435]],[[202.5748,228.5257],[-10.46683,-4.07222],[19.90876,6.64938]],[[264.97447,235.82564],[-20.90603,1.35191],[4.77505,-0.30878]],[[279.41765,233.19778],[-4.65634,1.5635],[0.78323,-1.22135]],[[282.05244,232.20688],[-0.67958,-0.16912],[3.97742,-1.66812]],[[292.47533,224.89553],[-2.83471,3.28933],[14.41085,-12.90405]],[[310.59754,173.44005],[-0.02396,18.55303],[0.90508,-1.10045]],[[313.06978,168.15236],[-0.71756,2.19752],[0.98041,-1.06241]],[[315.2515,164.40332],[-0.4483,1.41118],[0.04104,0.48157]],[[315.36255,165.85088],[-0.03307,-0.48344],[1.64669,-4.70287]],[[317.49429,150.88583],[-0.96761,4.8638],[0,0]]],&quot;closed&quot;:true,&quot;fillColor&quot;:[0,0,0],&quot;strokeWidth&quot;:0.5}]}" fill="#66ecff" stroke-width="0.25"/></g><path d="M294.44443,156.65623c0,-2.34721 1.90279,-4.25 4.25,-4.25c2.34721,0 4.25,1.90279 4.25,4.25c0,2.34721 -1.90279,4.25 -4.25,4.25c-2.34721,0 -4.25,-1.90279 -4.25,-4.25z" fill="#ffffff" stroke-width="0.5"/><path d="M393.44443,180.65623c0,-2.34721 1.90279,-4.25 4.25,-4.25c2.34721,0 4.25,1.90279 4.25,4.25c0,2.34721 -1.90279,4.25 -4.25,4.25c-2.34721,0 -4.25,-1.90279 -4.25,-4.25z" fill="#ffffff" stroke-width="0.5"/></g></g></g></svg>