<svg version="1.1" xmlns="http://www.w3.org/2000/svg" xmlns:xlink="http://www.w3.org/1999/xlink" width="765.48276" height="504.83353" viewBox="0,0,765.48276,504.83353"><g transform="translate(143.87265,53.72506)"><g data-paper-data="{&quot;isPaintingLayer&quot;:true}" fill-rule="nonzero" stroke-linecap="butt" stroke-linejoin="miter" stroke-miterlimit="10" stroke-dasharray="" stroke-dashoffset="0" style="mix-blend-mode: normal"><path d="M348.72207,235.15782c14.31687,-4.83145 29.10369,-7.67576 41.00285,3.95104c4.17416,6.40346 7.80669,12.94438 10.88792,19.85189c2.00833,4.50231 5.38897,8.39302 7.91507,12.61403c1.70065,2.84171 2.80782,5.99951 4.14075,9.03114c2.38011,5.41336 5.98504,10.09668 8.82653,15.22785c2.31547,4.18127 3.74233,8.83265 6.22374,12.91761c1.47506,2.42828 3.66941,4.36849 5.13946,6.79983c3.48775,5.76849 4.93003,12.78529 9.67203,17.49219c3.5513,9.59374 7.35025,18.31273 9.70429,28.27833c1.5132,6.40608 4.81367,11.89012 5.0822,18.64892c0.24186,6.08754 -0.63044,14.03426 -5.3105,18.53441c-1.68568,1.62088 -4.28986,1.86673 -6.47116,2.70979c-5.60241,2.16533 -12.03244,4.32826 -17.96208,4.92387c-2.60483,0.26164 -5.23396,-0.33962 -7.85007,-0.24187c-6.55793,0.24501 -12.43307,3.7939 -19.05617,4.34084c-1.90278,-0.27595 -3.78564,-0.8274 -5.70833,-0.82787c-3.27399,-0.00078 -6.50522,1.53962 -9.75515,1.14353c-2.34718,-0.28605 -6.9285,-2.1737 -9.93938,-2.21462c-9.95354,-0.13524 -20.73531,-0.83746 -30.67199,-2.20902c-2.22867,-0.30764 -4.30867,-1.34137 -6.52602,-1.72221c-8.45064,-1.45144 -17.16532,-0.99782 -25.54479,-3.2286c-4.41226,-1.17463 -8.72579,-2.79777 -13.32875,-3.83622c-11.46941,-2.58757 -23.35411,-3.97111 -34.89215,-6.4398c-23.57272,-3.28625 -46.62136,-9.83279 -70.32421,-12.61657c-13.98511,-1.64247 -27.86685,-2.69204 -41.80861,-5.00415c-4.76591,-0.79039 -9.71731,-0.9209 -14.26843,-2.54131c-1.93235,-0.68801 -3.33973,-2.43788 -5.21877,-3.2604c-2.26566,-0.99175 -4.96137,-0.90266 -7.10598,-2.13451c-1.58001,-0.90755 -2.2251,-2.94 -3.66733,-4.05355c-1.49474,-1.15409 -3.64008,-1.34548 -5.00949,-2.64581c-3.70966,-3.52255 -6.1257,-10.23115 -7.73374,-14.87442c-2.57861,-7.64109 -5.46634,-15.25287 -7.75667,-22.98503c-0.74904,-2.52875 -2.36655,-5.02257 -2.05264,-7.64118c1.0797,-9.00661 7.82601,-9.78629 14.64405,-12.05235c3.10955,-1.03349 6.36871,-1.54966 9.57393,-2.23086c4.81005,-1.02226 9.36958,-3.58699 14.14342,-4.80731c3.73721,-0.95534 7.42184,-1.98942 11.08469,-3.08407c-3.01523,-1.92225 -5.82364,-4.09771 -8.34141,-6.49992c-3.17927,-3.1643 -7.08894,-6.69279 -9.40059,-10.58967c-0.32435,-0.5468 -2.79973,-7.96781 -3.17808,-9.08895c-2.39432,-7.095 -4.5267,-14.10403 -6.43808,-21.32206c-1.73855,-6.56545 -3.48948,-13.13186 -5.18698,-19.70993c-2.37785,2.56595 -4.71121,5.16706 -6.95972,7.83707c-7.64585,9.07917 -13.17159,24.43908 -26.79257,26.68722c-1.62235,0.26777 -8.91015,-5.43025 -10.67438,-7.28764c-10.13067,-10.66557 -17.79241,-22.10417 -20.51142,-36.74939c-1.99002,-5.9169 -3.64622,-12.32594 -3.61085,-18.6404c0.03917,-6.99596 3.84407,-13.78682 6.44616,-19.85576c1.58063,-3.68656 2.18214,-7.7655 3.94601,-11.36799c0.89033,-1.81838 2.37772,-3.32286 3.14387,-5.19694c2.99407,-7.3237 4.89711,-15.00335 8.25877,-22.30923c3.33151,-7.24038 7.45484,-14.44322 12.0867,-21.30223c-0.7627,-1.44559 -0.87486,-2.8362 -0.87486,-2.8362c-0.56193,-7.2 0.03267,-14.2649 -0.64096,-21.50502c-0.56546,-6.07746 -1.76537,-10.99027 -1.7946,-17.08122c-0.01856,-3.86677 0.92062,-7.70694 0.80961,-11.57216c-0.08198,-2.85434 -1.35761,-13.49076 -1.13285,-15.73047c0.19968,-1.98991 1.65537,-3.68527 2.00723,-5.65396c1.03012,-5.76406 0.49639,-12.34817 1.31544,-18.23858c1.32383,-9.5208 4.2705,-18.71976 5.54639,-28.17315c0.28931,-5.25096 1.23189,-8.91149 2.85038,-13.76266c2.85641,-8.56166 3.67632,-17.24954 8.86201,-25.04606c1.68585,-2.53462 7.71068,-9.26974 10.62039,-9.69956c0.61311,-0.09056 11.30216,3.80588 13.27333,4.53168c15.75806,5.8021 28.8845,16.2138 43.09211,25.00137c7.62685,7.55248 17.48956,11.32196 25.92119,17.80336c1.51518,1.16471 2.48034,2.9637 4.04017,4.06788c1.67958,1.18895 3.84792,1.55069 5.54368,2.71645c2.0887,1.43589 3.70567,3.4702 5.71082,5.02062c6.20869,4.80066 13.31352,8.56211 19.60134,13.24143c1.95449,1.4545 3.5427,3.35701 5.46856,4.84922c3.77308,2.9235 6.21282,3.2565 10.03519,6.5011c3.10965,2.63962 5.15875,6.40321 8.34509,8.94971c0.9458,0.75589 2.29649,0.86387 3.26652,1.58841c5.49005,4.10073 8.70784,8.66283 14.3675,12.39915c0.76688,1.14635 1.53378,2.29272 2.30067,3.43906l1.97433,1.62364c8.80641,2.2048 17.64348,4.30012 26.45824,6.44345c9.02296,2.19398 18.06428,2.77022 27.05173,5.0416c10.73607,2.71329 25.16861,4.94886 30.87891,16.1356c1.04804,2.05318 0.87853,4.5259 1.31777,6.78886c-0.75014,10.33346 -3.02729,20.30795 -5.40865,30.30066c-0.51843,2.1754 -1.72015,4.16258 -2.13565,6.35995c-0.73591,3.89191 -0.48482,7.99471 -1.72314,11.75705c-1.96334,5.96508 -4.22077,14.20829 -10.5423,17.54421c-2.11764,1.1175 -4.7749,-0.37191 -7.16616,-0.49499c-1.87224,-0.09637 -3.75169,-0.03181 -5.6218,-0.1632c-4.08197,-0.28679 -8.06473,-1.41079 -12.05713,-2.30826c-0.58211,-0.13085 -1.16465,-0.25543 -1.74758,-0.37492c1.94432,3.72459 3.79095,7.48909 5.39738,11.31627c6.15885,14.6728 10.05903,29.74574 14.44352,44.97742c1.29488,4.49841 2.89766,8.92935 3.76223,13.52991c0.74737,3.97696 0.22879,8.10495 -0.08398,12.13942c-0.0863,1.1132 -0.1623,2.216 -0.24285,3.30677c4.53163,-2.08279 9.22961,-3.5266 14.04484,-5.15158zM122.51967,311.98649c-1.7022,0.38432 -6.40599,3.146 -9.18729,3.35852c0.1758,0.41365 0.31795,0.85098 0.48199,1.25509c0.67587,1.66498 1.14914,3.40519 1.7237,5.10778c2.01099,5.95909 4.02197,11.91816 6.03297,17.87724c0.68677,2.10921 2.36263,7.88376 4.28997,9.51538c1.14587,0.97006 2.91046,0.94923 4.09917,1.86628c1.11266,0.8584 1.38772,2.61803 2.61069,3.31028c1.60871,0.91057 3.70577,0.50731 5.40786,1.22846c1.64309,0.69616 2.79367,2.32753 4.46445,2.9543c1.50009,0.56274 3.19711,0.25943 4.77904,0.51327c4.9672,0.79705 9.90536,1.78064 14.88815,2.47359c23.31028,3.24172 46.70215,5.45858 69.89396,9.72492c11.67203,2.14717 22.77429,5.19908 34.56747,6.83506c11.85458,2.52952 24.03879,3.99554 35.83137,6.64098c4.78677,1.07382 9.33232,2.75671 13.97609,4.01774c7.76241,2.10791 16.04781,1.5127 23.91489,2.83834c2.04075,0.34388 3.93836,1.35337 5.98782,1.64075c9.60696,1.34717 19.94789,1.80859 29.57782,2.11309c3.58911,0.11348 6.99121,1.66928 10.53398,2.25527c2.79685,0.46261 5.58513,-1.17698 8.41993,-1.19696c2.09539,-0.01476 4.15397,0.555 6.23095,0.8325c6.15987,-0.46868 11.49244,-3.96615 17.84745,-4.3199c6.8024,-0.37867 11.65191,-0.36641 18.19967,-2.58454c2.05154,-0.69498 4.54918,-0.32179 6.29831,-1.59946c1.7704,-1.29322 0.83828,-9.77545 0.41901,-11.50661c-1.04386,-4.31006 -3.24027,-8.3494 -4.2847,-12.66679c-1.24067,-5.12855 -1.96893,-9.74983 -4.0262,-14.71039c-1.35462,-3.2663 -3.11195,-6.39106 -4.08111,-9.79171c-4.86393,-4.82792 -6.22812,-11.80268 -9.77884,-17.66663c-1.47163,-2.43037 -3.67258,-4.36658 -5.13946,-6.79983c-2.51876,-4.17815 -4.01492,-8.90473 -6.37453,-13.17478c-3.82618,-6.92401 -7.64467,-13.4522 -10.86895,-20.68569c-2.74178,-6.15105 -7.75924,-11.14789 -10.57674,-17.29211c-2.68898,-5.86399 -5.66785,-11.45097 -9.13752,-17.00952c-7.7921,-8.05258 -22.4113,-1.19971 -30.88839,1.66103c-4.05373,1.36799 -7.61504,2.46206 -11.30619,4.62951l-2.02728,0.81833c0,0 -1.68644,0.56912 -3.59746,0.23459c-1.06585,2.24118 -2.54961,4.37238 -4.65031,6.37226c-8.32846,7.92873 -22.14213,10.42221 -32.58626,13.94676c-20.04162,6.76337 -40.09031,12.79406 -60.74197,17.36925c-10.99803,2.43653 -21.25171,5.31198 -32.43242,6.46518c-7.38474,0.76168 -14.44872,2.22549 -21.92202,1.8904c-4.06562,-0.18229 -8.19283,-0.8135 -12.25035,-1.85222c-14.72055,4.94513 -29.57988,9.71552 -44.61867,13.11095zM242.57057,49.61065c-3.49144,-2.83476 -5.91872,-6.81737 -9.33986,-9.73661c-2.80323,-2.39198 -6.41013,-3.68181 -9.33125,-5.9283c-1.89677,-1.45869 -3.44426,-3.34207 -5.3638,-4.77068c-6.32464,-4.70704 -13.44914,-8.4991 -19.7061,-13.31997c-1.81758,-1.40042 -3.22959,-3.30106 -5.12153,-4.59927c-1.79558,-1.23205 -4.06606,-1.66368 -5.84214,-2.92368c-1.71852,-1.21917 -2.8497,-3.13309 -4.51502,-4.42399c-8.39922,-6.51084 -18.28389,-10.20421 -25.92119,-17.80336c-11.70795,-7.13027 -22.639,-15.2524 -34.83276,-21.35494c-2.18013,-1.09107 -8.88237,-1.57452 -10.78625,-4.06428c-0.68077,0.89072 -1.71821,1.54656 -2.33908,2.49325c-1.41352,2.15528 -2.40198,4.56858 -3.39728,6.94611c-3.32473,7.94196 -5.74685,17.38491 -6.21727,25.92301c-1.37233,9.65417 -4.25641,18.98093 -5.60723,28.69259c-0.84484,6.07401 -0.35664,12.73667 -1.38853,18.70727c-0.3126,1.80875 -1.71805,3.33404 -1.93031,5.15728c-0.5345,4.59091 1.13212,9.18889 1.24986,13.80931c0.09986,3.91862 -0.81813,7.81195 -0.80854,11.73182c0.01061,4.34545 1.37914,11.92788 1.73724,15.86374c0.07119,0.78233 0.12768,1.56234 0.17257,2.34043c4.19968,-5.98535 8.49002,-11.88991 12.81315,-17.86904c4.74949,-6.56881 8.65027,-12.93806 14.81281,-18.14309c5.81945,-7.17016 11.76676,-14.05172 17.07664,-21.56956c3.82285,-5.41244 3.62535,-8.21163 11.07978,-11.71062c2.00178,-0.93961 4.42514,-0.27906 6.6324,-0.14491c5.85889,0.35605 11.0548,3.09276 16.68958,4.59451c17.85016,4.75732 35.30605,10.87493 52.89644,16.66211c6.09024,2.21813 12.24465,4.23611 18.4439,6.1114c-0.41286,-0.18068 -0.80839,-0.38808 -1.1562,-0.67049zM106.11302,96.89209c3.94153,4.25191 -0.11187,8.70692 -0.11187,8.70692c-9.6905,10.6235 -18.65331,23.71485 -24.62137,36.78991c-3.28159,7.18943 -5.11923,14.68537 -8.0743,21.89284c-0.87576,2.13598 -2.46753,3.91113 -3.50271,5.97457c-1.65791,3.30475 -2.11982,7.0992 -3.55256,10.50763c-1.96344,4.67101 -5.56153,9.96509 -5.46138,15.41243c0.09209,5.00938 1.61763,10.09793 3.20137,14.77474c2.09201,11.2681 6.76293,18.01523 13.78215,26.6588c1.8715,2.30458 4.6777,3.88069 6.10718,6.48267c0.003,0.00549 0.00573,0.01109 0.00817,0.01679c5.29471,-6.85195 9.86586,-14.37838 15.42122,-20.98116c4.18446,-4.97341 8.67301,-9.70018 13.19362,-14.40711c-1.64658,-6.88835 -3.18053,-13.79822 -4.52715,-20.74177c-0.32367,-1.66893 -0.59332,-3.35798 -0.82334,-5.06062c-4.01728,-0.273 -5.45318,-4.52794 -5.45318,-4.52794l-0.67625,-2.00391c-3.97929,-12.33461 -1.81135,-25.55577 0.77356,-37.95538c0.98167,-4.70899 2.08961,-9.6796 4.92785,-13.56326c4.00149,-5.47536 9.50817,-7.82151 14.89245,-11.26317c0.18449,-0.11793 8.3096,-6.38579 8.97971,-6.77453c9.64168,-5.59343 20.18596,-9.21577 30.70349,-12.70275c26.52403,-5.95022 53.72173,-9.14612 80.88403,-6.66437c12.23155,1.11757 26.29979,2.49104 36.37943,10.49584c1.38863,1.10278 2.09657,2.87309 3.32078,4.15597c3.28837,3.446 6.78706,6.80097 9.30758,10.84265c1.91309,3.06765 2.85783,6.64199 4.25495,9.97641c2.48433,5.92926 5.27188,11.70181 8.07412,17.50845c4.0763,0.7035 8.17469,1.274 12.25717,2.14373c3.40986,0.72643 6.77256,1.85983 10.25275,2.06759c2.13709,0.12759 4.32117,-0.19291 6.41825,0.23794c0.49886,0.1025 0.43494,1.52976 0.86608,1.25867c0.52783,-0.33188 -0.07412,-1.26971 0.10249,-1.86767c0.20328,-0.68824 3.41846,-8.9888 3.71873,-11.29248c0.26727,-2.0505 -0.15453,-4.16751 0.22984,-6.19934c2.16704,-11.45508 6.29881,-22.08704 7.35347,-33.84261c-0.10697,-3.49846 -3.61031,-4.52427 -6.43943,-6.06972c-6.47699,-3.53812 -15.53732,-5.19364 -22.75764,-6.5641c-3.83356,-0.72764 -7.79541,-0.59768 -11.63354,-1.30086c-7.87186,-1.44219 -15.47561,-3.83999 -23.21678,-5.81004c-3.3928,-0.86342 -6.78344,-1.7072 -10.17002,-2.5476c-2.29608,0.4523 -4.32798,-0.70715 -5.1609,-1.28105c-14.93603,-3.71492 -29.77365,-7.52529 -44.34666,-12.83289c-17.29952,-5.69881 -34.47676,-11.64257 -52.00642,-16.38864c-2.66112,-0.72048 -5.3702,-1.28592 -7.97904,-2.17727c-1.01525,-0.34686 -6.47465,-3.28981 -7.52417,-2.59222c-1.73905,1.15589 -4.0101,5.82118 -4.90184,7.0754c-1.84811,2.59934 -4.5132,4.55794 -6.30754,7.19468c-0.94216,1.38451 -1.25268,3.1432 -2.23492,4.49959c-2.95811,4.08488 -6.67034,7.56878 -9.8846,11.45531c-5.67178,4.4234 -9.3563,10.85679 -13.59346,16.74052c-3.5098,4.87371 -7.00557,9.69018 -10.44935,14.54246zM131.70629,187.46828c11.79488,-15.02236 23.52617,-29.86887 37.20031,-43.31596c2.87411,-5.97374 7.1794,-10.83848 10.84392,-16.2875c3.98732,-5.92901 5.39649,-12.30707 9.00769,-18.31864c1.52273,-2.53488 1.54832,-7.52319 4.50296,-7.64344c5.5928,-0.22763 10.25821,4.48481 15.33797,6.83588c5.68742,2.63234 10.95705,6.19754 16.83613,8.3683c2.76141,1.0196 5.76545,1.22612 8.58213,2.08126c8.29042,2.51698 16.17532,6.33818 24.48732,8.80582c9.45829,2.80794 18.98882,5.63691 28.52354,8.26334c-1.26635,-2.73563 -2.49584,-5.486 -3.66107,-8.26703c-1.15217,-2.74984 -1.82153,-5.74208 -3.39269,-8.27595c-2.04344,-3.29553 -5.05693,-5.88293 -7.70823,-8.71254c-0.82105,-0.87627 -1.13092,-2.19254 -2.05612,-2.958c-7.5367,-6.23571 -20.14484,-6.71297 -29.23086,-7.54121c-25.54736,-2.32877 -51.22027,0.64912 -76.17658,6.24263c-9.40699,3.1383 -18.79912,6.35751 -27.45529,11.30548c-3.19631,1.82706 -5.70961,4.67485 -8.80527,6.66771c-4.00741,2.5798 -8.24563,4.04831 -11.34246,8.00683c-2.82688,3.61348 -1.75982,4.29742 -2.57073,8.31237c-0.74614,3.69437 -1.85643,7.34594 -2.22491,11.09176c5.19031,0.35987 5.73844,5.89713 5.73844,5.89713c0.89228,9.01657 0.94391,18.59954 2.69514,27.49639c0.77457,3.9351 1.60595,7.85909 2.48146,11.7744c2.90315,-3.18374 5.72501,-6.43832 8.38722,-9.829zM286.83329,149.76579c-10.69358,-2.86544 -21.40166,-6.0422 -32.00218,-9.2029c-8.35705,-2.49178 -16.28936,-6.31568 -24.62426,-8.84666c-3.04691,-0.92524 -6.28475,-1.20054 -9.2691,-2.31115c-3.33785,-1.24215 -6.39816,-3.13057 -9.59144,-4.70763c-4.13025,-2.0398 -9.40881,-3.35872 -11.94288,-7.44247c-0.55065,0.6412 -1.11719,1.28408 -1.43879,2.01818c-1.28306,2.92884 -1.79905,6.18998 -3.33624,8.99378c-4.51149,8.2289 -10.82571,15.14009 -15.07045,23.50248c-13.52779,13.88978 -25.60663,28.59616 -37.55552,43.78966c-4.68228,5.9537 -9.84173,11.49887 -15.07136,16.9758c2.28628,9.19558 4.72664,18.36079 7.15478,27.52789c1.84368,6.96054 3.8922,13.69879 6.2019,20.54301c0.77724,2.30316 0.98523,4.85566 2.23194,6.94238c1.13611,1.90164 5.92494,6.40302 7.16438,7.62957c1.94275,2.05214 4.47298,3.52337 7.01061,4.76677c3.37872,1.65554 6.66862,3.8031 10.17076,5.35282c1.45259,-0.19808 3.90835,-0.1582 5.66909,1.83052c8.95593,1.86862 18.58117,-0.41746 27.41318,-1.31407c10.67999,-1.08421 20.44197,-3.90057 30.96603,-6.22699c20.20012,-4.46535 39.78448,-10.37684 59.38434,-16.99113c8.08641,-2.72889 20.91618,-4.62392 27.51461,-10.79952c4.68359,-4.38345 3.57737,-9.99031 4.04226,-15.67328c0.15754,-1.9257 0.79195,-3.80198 0.85415,-5.7331c0.16274,-5.05161 -2.69426,-10.71303 -4.03782,-15.3887c-4.25083,-14.79306 -8.01382,-29.38928 -13.9757,-43.64567c-2.75441,-6.58648 -6.29447,-12.98188 -9.76845,-19.30642c-2.71599,-0.59282 -5.41759,-1.31407 -8.09384,-2.28319z" fill="#000000" stroke="none" stroke-width="0.5"/><path d="M242.63878,49.63602c0.34782,0.28241 0.7433,0.48997 1.15615,0.67065c-6.19925,-1.87529 -12.35391,-3.89267 -18.44414,-6.11079c-17.59038,-5.78717 -35.05032,-11.89606 -52.90048,-16.65337c-5.63478,-1.50175 -10.84965,-4.21608 -16.70854,-4.57213c-2.20726,-0.13413 -4.67951,-0.77929 -6.68129,0.16032c-7.45442,3.49899 -7.2896,6.28837 -11.11245,11.70082c-5.30989,7.51784 -11.26193,14.39638 -17.08138,21.56654c-6.16252,5.20503 -9.97901,11.45571 -14.72849,18.02452c-4.32313,5.97913 -8.69915,12.00129 -12.89882,17.98664c-0.0449,-0.7781 -0.10233,-1.5588 -0.17352,-2.34113c-0.3581,-3.93585 -1.73389,-11.52455 -1.74452,-15.87c-0.0096,-3.91987 0.90334,-7.81873 0.80349,-11.73735c-0.11774,-4.62041 -1.79139,-9.22857 -1.2569,-13.81948c0.21226,-1.82324 1.61581,-3.35208 1.92841,-5.16082c1.03189,-5.9706 0.53705,-12.65329 1.38189,-18.7273c1.35082,-9.71166 4.23859,-19.077 5.61092,-28.73116c0.47042,-8.53811 2.90992,-18.00736 6.23465,-25.94934c0.99531,-2.37753 1.98989,-4.79611 3.40341,-6.9514c0.62087,-0.94668 1.6613,-1.60471 2.34208,-2.49544c1.90388,2.48978 8.61327,2.96886 10.79339,4.05993c12.19376,6.10254 23.17837,14.21865 34.88631,21.34892c7.6373,7.59915 17.57187,11.34 25.97109,17.85083c1.66531,1.2909 2.79906,3.21501 4.51756,4.43418c1.77608,1.26 4.04738,1.69796 5.84296,2.93001c1.89194,1.29821 3.30421,3.20625 5.12179,4.60668c6.25696,4.82087 13.37998,8.62631 19.70462,13.33335c1.91954,1.42861 3.46627,3.3153 5.36303,4.77401c2.92112,2.24648 6.52726,3.53908 9.33049,5.93106c3.42113,2.91925 5.84688,6.90649 9.33831,9.74125z" data-paper-data="{&quot;noHover&quot;:false,&quot;origItem&quot;:[&quot;Path&quot;,{&quot;applyMatrix&quot;:true,&quot;segments&quot;:[[[294.82465,59.53341],[0,0],[-1.65071,-2.61334]],[[290.88212,51.14018],[1.58636,2.65291],[-1.29984,-2.17375]],[[286.10827,45.22889],[1.40859,2.10491],[-0.91464,-1.36677]],[[283.66369,40.94337],[0.93608,1.35218],[-3.08429,-4.45524]],[[273.75797,27.93847],[3.01519,4.51449],[-0.87588,-1.31142]],[[271.43349,23.81781],[0.94677,1.2612],[-0.89855,-1.19694]],[[268.2715,20.62996],[0.87971,1.21085],[-0.8512,-1.17161]],[[266.30347,16.75674],[0.80079,1.20663],[-4.03888,-6.08582]],[[253.33565,-0.53368],[3.30353,6.62711],[-6.05745,-7.21635]],[[235.34497,-22.0954],[6.59968,6.65384],[-1.17996,-1.18964]],[[229.21395,-27.11257],[0.69268,2.03979],[-0.63908,0.43045]],[[227.14277,-26.00297],[0.61237,-0.48005],[-1.39417,1.09292]],[[223.40389,-22.22614],[1.17066,-1.32956],[-3.91048,4.4413]],[[213.65814,-6.71093],[2.18272,-5.45679],[-3.01532,5.98538]],[[203.70101,10.74194],[3.01395,-6.02755],[-1.88502,3.76984]],[[198.68559,22.61931],[1.98411,-3.66139],[-0.60107,1.10919]],[[196.29515,25.55361],[0.53891,-1.14068],[-1.35699,2.87222]],[[194.07429,34.82116],[0.93873,-3.03477],[-0.79614,2.57382]],[[190.96952,42.28345],[0.8552,-2.5548],[-0.94806,2.83217]],[[188.61456,52.99599],[0.63176,-2.6418],[-0.12557,0.52511]],[[188.2126,54.55805],[0.14176,-0.51658],[4.05027,-2.97483]],[[200.48373,45.73727],[-4.1293,2.94365],[4.53654,-3.23396]],[[214.1173,37.17748],[-5.15703,2.03531],[5.36548,-3.39043]],[[229.97814,26.88382],[-5.11005,3.72883],[3.67897,-2.68456]],[[239.76707,21.69259],[-5.62341,0.64039],[1.51009,-0.17197]],[[244.11806,23.05578],[-1.40793,-0.57243],[3.73717,1.51944]],[[253.97691,29.71558],[-3.33944,-2.21629],[10.57886,7.02088]],[[284.76231,52.19099],[-10.18337,-7.63445],[3.47861,2.7829]],[[295.43025,60.22416],[-3.62494,-2.5836],[-0.22915,-0.20839]],[[294.82466,59.53343],[0.16444,0.26035],[0,0]]],&quot;closed&quot;:true,&quot;fillColor&quot;:[0,0,0,1]}]}" fill="#ffffff" stroke="none" stroke-width="0.5"/><path d="M106.04186,96.87698c3.44378,-4.85228 6.94401,-9.68267 10.4538,-14.55638c4.23716,-5.88374 7.93167,-12.33365 13.60345,-16.75704c3.21427,-3.88653 6.93614,-7.38035 9.89425,-11.46522c0.98224,-1.35638 1.29594,-3.11766 2.23811,-4.50215c1.79434,-2.63675 4.46614,-4.59985 6.31425,-7.19919c0.89174,-1.25422 3.16849,-5.92254 4.90753,-7.07843c1.04952,-0.6976 6.51346,2.24336 7.52872,2.59022c2.60884,0.89136 5.32371,1.45476 7.98483,2.17524c17.52966,4.74607 34.76056,10.69435 52.06008,16.39316c14.57301,5.3076 29.43991,9.14467 44.37594,12.85959c0.83291,0.57392 2.86638,1.73599 5.16246,1.28369c3.38657,0.8404 6.77967,1.68893 10.17247,2.55235c7.74116,1.97005 15.34834,4.37657 23.22021,5.81875c3.83813,0.70319 7.80076,0.57583 11.63432,1.30347c7.22033,1.37046 16.28205,3.0319 22.75904,6.57002c2.82913,1.54545 6.33301,2.57459 6.43999,6.07305c-1.05466,11.75558 -5.18591,22.40377 -7.35295,33.85885c-0.38439,2.03183 0.03712,4.1519 -0.23016,6.20241c-0.30027,2.3037 -3.5164,10.61003 -3.71968,11.29827c-0.17661,0.59796 0.42514,1.5367 -0.10269,1.86859c-0.43114,0.27109 -0.50946,-1.18684 -1.00831,-1.28934c-2.09708,-0.43085 -4.13895,-0.07963 -6.27604,-0.20722c-3.4802,-0.20776 -6.84293,-1.34105 -10.25278,-2.06748c-4.08247,-0.86973 -8.32283,-1.47208 -12.39914,-2.17558c-2.80224,-5.80663 -5.5914,-11.56859 -8.07573,-17.49785c-1.39712,-3.33443 -2.34204,-6.90172 -4.25513,-9.96937c-2.52052,-4.04169 -6.01849,-7.38787 -9.30686,-10.83385c-1.2242,-1.28288 -1.93151,-3.04948 -3.32014,-4.15225c-10.07963,-8.0048 -24.14031,-9.35741 -36.37187,-10.47498c-27.16229,-2.48175 -54.23626,0.72046 -80.76029,6.67067c-10.51753,3.48698 -21.04965,7.0778 -30.69131,12.67124c-0.67011,0.38875 -8.79457,6.64841 -8.97907,6.76632c-5.38428,3.44166 -10.89143,5.77796 -14.89292,11.25333c-2.83824,3.88367 -3.94803,8.8443 -4.9297,13.55331c-2.58491,12.39962 -4.76299,25.59832 -0.78371,37.93292l0.67549,2.0028c0,0 1.43314,4.25126 5.45041,4.52426c0.23001,1.70265 0.49779,3.38945 0.82146,5.05839c1.34661,6.94356 2.87267,13.84565 4.51925,20.734c-4.52061,4.70693 -9.00886,9.43395 -13.19331,14.40736c-5.55537,6.6028 -10.12717,14.12868 -15.42186,20.98063c-0.00244,-0.00571 -0.09849,0.10031 -0.10149,0.09483c-1.42948,-2.60198 -4.23857,-4.18064 -6.11007,-6.48521c-7.01922,-8.64357 -11.69878,-15.4003 -13.79079,-26.6684c-1.58373,-4.67681 -3.11295,-9.77073 -3.20504,-14.78011c-0.10015,-5.44734 3.49534,-10.74599 5.45878,-15.417c1.43272,-3.40843 1.89281,-7.20662 3.55073,-10.51137c1.03518,-2.06344 2.62606,-3.84066 3.50181,-5.97665c2.95509,-7.20748 4.78929,-14.71386 8.07088,-21.90328c5.96807,-13.07506 14.92918,-26.19189 24.61968,-36.81538c0,0 4.05454,-4.46212 0.11301,-8.71403z" data-paper-data="{&quot;noHover&quot;:false,&quot;origItem&quot;:[&quot;Path&quot;,{&quot;applyMatrix&quot;:true,&quot;segments&quot;:[[[195.57023,60.33548],[0,0],[1.63238,3.63513]],[[193.58391,65.981],[0,0],[-8.6453,4.78859]],[[169.46492,84.52837],[6.75994,-7.20315],[-3.71701,3.96071]],[[159.39552,97.01095],[3.50835,-4.04422],[-1.03972,1.19853]],[[155.80149,100.13193],[1.1276,-1.11626],[-1.80593,1.78777]],[[151.1788,106.19397],[1.68207,-1.90477],[-2.30515,2.61035]],[[144.23515,115.03061],[1.13191,-3.56942],[-1.04091,3.28244]],[[143.07298,125.35574],[-0.00356,-3.39367],[-1.11397,7.79774]],[[146.18952,145.74526],[-2.6715,-7.17142],[0.71229,1.91207]],[[148.74197,151.30903],[-0.35908,-2.0086],[0.00075,0.00423]],[[148.7436,151.32176],[-0.00033,-0.00425],[4.95382,-3.29853]],[[163.39709,141.04747],[-5.06881,3.07899],[3.81797,-2.31918]],[[175.15518,134.56478],[-3.97832,2.07177],[0.44153,-4.84768]],[[176.76532,120.06245],[-0.64901,4.81771],[0.15599,-1.15797]],[[177.34129,116.58594],[-0.22439,1.15934],[-2.55613,-1.06064]],[174.78516,112.43885],[[174.78516,110.98525],[0,0],[0.11932,-8.90703]],[[183.63015,86.43801],[-4.40833,7.50679],[1.67415,-2.85085]],[[189.81997,78.68833],[-2.7018,1.90537],[3.80913,-2.68627]],[[201.99345,74.62637],[-4.2627,1.058],[0.14606,-0.03625]],[[209.33,72.18809],[-0.52182,0.10589],[7.50807,-1.52365]],[[232.11628,70.66335],[-7.61552,-0.04059],[18.58058,1.95414]],[[286.25403,84.0988],[-17.14318,-7.58546],[7.71981,3.41584]],[[307.63837,98.92878],[-4.80487,-7.42802],[0.66195,1.02332]],[[308.88759,102.36501],[-0.51529,-1.10447],[1.38414,2.96676]],[[312.56603,111.47142],[-0.75319,-3.18594],[0.57168,2.41814]],[[313.14447,118.90333],[-0.17704,-2.47848],[0.3148,4.40721]],[[314.55476,132.07956],[-0.54878,-4.39722],[2.49996,1.35396]],[[322.06574,136.16928],[-2.46745,-1.46356],[2.06092,1.22243]],[[328.28814,139.76892],[-2.22071,-0.90012],[1.36367,0.55274]],[[332.41553,141.33437],[-1.27097,-0.74144],[0.30234,0.17638]],[[332.70293,142.34437],[-0.34034,0.08179],[0.41667,-0.10013]],[[333.18012,141.15063],[-0.24642,0.35059],[0.28363,-0.40352]],[[338.08351,134.614],[-0.70181,1.43422],[0.62468,-1.27659]],[[339.59558,130.62739],[-0.69684,1.23869],[3.92863,-6.98352]],[[351.82169,110.20449],[-3.27027,7.42367],[0.69917,-2.30177]],[[348.96212,104.83662],[1.50274,1.62817],[-3.44038,-3.7275]],[[335.58448,95.56064],[4.40083,2.47924],[-2.33658,-1.31633]],[[328.29439,92.15686],[2.34493,1.30141],[-4.80936,-2.66913]],[[314.45204,83.27104],[4.60824,2.98416],[-2.0197,-1.30789]],[[308.38901,79.37699],[2.02071,1.29153],[-1.59465,-0.21005]],[[305.30967,77.40856],[0.41628,0.55679],[-8.91021,-5.70163]],[[279.25052,59.30574],[8.32379,6.65903],[-10.01337,-7.51299]],[[248.98462,37.20401],[10.37262,6.94312],[-1.57463,-1.05401]],[[244.26701,34.03262],[1.50304,1.1538],[-0.58492,-0.449]],[[239.93681,30.69098],[0.83677,-0.22364],[-1.38652,0.37056]],[[235.18972,34.22136],[0.85635,-0.6208],[-1.77477,1.28659]],[[229.501,37.5205],[1.74797,-1.32277],[-0.91782,0.69456]],[[227.05673,39.95956],[0.93774,-0.66744],[-2.82408,2.01006]],[[218.10223,45.24719],[2.94731,-1.8246],[-4.66567,1.63414]],[[205.57095,53.16157],[4.05235,-2.90042],[-3.35671,2.40252]],[[195.57023,60.33549],[3.30901,-2.40307],[0,0]]],&quot;closed&quot;:true,&quot;fillColor&quot;:[0,0,0,1]}]}" fill="#ffffff" stroke="none" stroke-width="0.5"/><path d="M131.76209,187.42164c-2.66221,3.39069 -5.59461,6.73985 -8.49777,9.92359c-0.87551,-3.91531 -1.71214,-7.84607 -2.48671,-11.78117c-1.75124,-8.89685 -1.81253,-18.49997 -2.7048,-27.51655c0,0 -0.5497,-5.54341 -5.74001,-5.90327c0.36848,-3.74581 1.47745,-7.40676 2.22359,-11.10113c0.81089,-4.01495 -0.25634,-4.70651 2.57054,-8.31999c3.09683,-3.95852 7.33589,-5.4361 11.3433,-8.0159c3.09566,-1.99286 5.6111,-4.85014 8.80742,-6.6772c8.65617,-4.94797 18.06538,-8.19667 27.47237,-11.33497c24.95631,-5.5935 50.7403,-8.56452 76.28766,-6.23576c9.08603,0.82824 21.70428,1.32443 29.24098,7.56016c0.92519,0.76546 1.23605,2.08468 2.05709,2.96095c2.6513,2.82961 5.66689,5.42566 7.71033,8.72119c1.57117,2.53387 2.24144,5.53319 3.39361,8.28302c1.16523,2.78102 2.39494,5.53811 3.66129,8.27374c-9.53472,-2.62643 -19.21031,-5.44845 -28.6686,-8.2564c-8.312,-2.46764 -16.19214,-6.26974 -24.48255,-8.78672c-2.81668,-0.85515 -5.81615,-1.05229 -8.57756,-2.07188c-5.8791,-2.17076 -11.12022,-5.70831 -16.80764,-8.34065c-5.07974,-2.35108 -9.70806,-7.05488 -15.30086,-6.82725c-2.95463,0.12025 -2.96698,5.10685 -4.48969,7.64173c-3.61118,6.01158 -4.97081,12.35044 -8.95813,18.27945c-3.66452,5.44902 -7.96673,10.25743 -10.84085,16.23118c-13.67414,13.44708 -25.41811,28.27146 -37.213,43.29381z" data-paper-data="{&quot;noHover&quot;:false,&quot;origItem&quot;:[&quot;Path&quot;,{&quot;applyMatrix&quot;:true,&quot;segments&quot;:[[[192.33164,124.94484],[0,0],[10.98242,-7.19074]],[[226.07646,104.91199],[-11.86004,5.7519],[3.18449,-3.25858]],[[236.71762,96.68838],[-3.5839,2.74317],[3.8996,-2.98481]],[[246.60937,86.73851],[-3.6728,3.12124],[1.5487,-1.31612]],[[251.22153,82.75055],[-1.95054,-0.57101],[3.69216,1.08086]],[[259.70761,90.57294],[-2.79134,-2.64741],[3.12526,2.96412]],[[268.83256,99.72251],[-3.35152,-2.70565],[1.57421,1.27084]],[[273.96401,102.96391],[-1.64634,-1.17589],[4.84573,3.46104]],[[287.9754,114.07985],[-4.87063,-3.43365],[5.54233,3.90718]],[[304.73447,125.72954],[-5.63199,-3.80577],[-0.22348,-2.05979]],[[304.16711,119.54133],[0.14765,2.06713],[-0.146,-2.04395]],[[303.77648,113.40629],[0.46632,1.99539],[-0.60649,-2.59518]],[[300.67144,106.03853],[1.10473,2.42536],[-0.34211,-0.75108]],[[299.98252,103.66036],[0.43428,0.70181],[-3.53765,-5.71711]],[[282.60413,92.32549],[5.73497,2.53615],[-16.12513,-7.13093]],[[231.62464,79.64992],[17.48126,1.84191],[-6.81569,-0.0236]],[[211.26071,80.97857],[6.72444,-1.31989],[-2.48302,0.48738]],[[204.06123,83.38562],[2.45391,-0.61747],[-3.17665,0.79933]],[[194.9152,86.10715],[2.88665,-1.89729],[-2.63503,1.73192]],[[191.41434,90.95536],[1.41041,-2.4364],[-1.29779,2.24187]],[[187.52787,97.68956],[1.06316,-2.35836],[3.30094,1.375]],[[189.96887,102.79098],[0,0],[-1.40045,6.06785]],[[185.68128,121.28943],[0.81477,-6.17865],[-0.36038,2.73283]],[[184.70966,129.50247],[0.2903,-2.74213],[2.59026,-1.4353]],[[192.33163,124.94485],[-2.47883,1.62302],[0,0]]],&quot;closed&quot;:true,&quot;fillColor&quot;:[0,0,0,1]}]}" fill="#ffffff" stroke="none" stroke-width="0.5"/><path d="M286.89246,149.72345c2.67624,0.96912 5.38074,1.69475 8.09673,2.28757c3.47399,6.32453 7.02122,12.73553 9.77562,19.32201c5.96188,14.25639 9.72758,28.88584 13.97841,43.6789c1.34357,4.67567 4.19848,10.34654 4.03574,15.39815c-0.0622,1.93112 -0.69775,3.811 -0.85529,5.7367c-0.46489,5.68296 0.63724,11.29934 -4.04636,15.68279c-6.59844,6.1756 -19.43764,8.08461 -27.52405,10.8135c-19.59986,6.61429 -39.22698,12.55005 -59.4271,17.0154c-10.52407,2.32642 -20.31264,5.14244 -30.99264,6.22665c-8.83201,0.89661 -18.47609,3.17615 -27.43202,1.30754c-1.76073,-1.98872 -4.22027,-2.03068 -5.67288,-1.83259c-3.50214,-1.54972 -6.79897,-3.70189 -10.17769,-5.35743c-2.53762,-1.24342 -5.07256,-2.71849 -7.01532,-4.77064c-1.23944,-1.22655 -6.03363,-5.73323 -7.16973,-7.63487c-1.2467,-2.08672 -1.45788,-4.64297 -2.23512,-6.94614c-2.30969,-6.84422 -4.36665,-13.59586 -6.21032,-20.5564c-2.42814,-9.1671 -4.8751,-18.35386 -7.16138,-27.54945c5.22964,-5.47693 10.38846,-11.03636 15.07074,-16.99006c11.94889,-15.19348 24.05553,-29.95317 37.58331,-43.84295c4.24473,-8.36238 10.582,-15.2857 15.09348,-23.5146c1.53718,-2.80381 2.05816,-6.06632 3.34122,-8.99516c0.3216,-0.7341 0.8897,-1.37733 1.44035,-2.01854c2.53408,4.08374 7.82235,5.40126 11.9526,7.44106c3.19328,1.57706 6.26312,3.46539 9.60097,4.70754c2.98435,1.11061 6.232,1.38713 9.2789,2.31237c8.33489,2.53096 16.29257,6.36499 24.64961,8.85676c10.60052,3.1607 21.3286,6.35646 32.02218,9.2219z" data-paper-data="{&quot;noHover&quot;:false,&quot;origItem&quot;:[&quot;Path&quot;,{&quot;applyMatrix&quot;:true,&quot;segments&quot;:[[[301.63885,134.48363],[0,0],[-6.33414,-4.21609]],[[282.82091,121.4576],[6.20865,4.38792],[-4.89466,-3.45927]],[[268.72932,110.28497],[4.87162,3.47992],[-1.78087,-1.27213]],[[263.20102,106.74289],[1.69939,1.3791],[-1.90069,-1.54245]],[[257.98947,101.56934],[1.73294,1.72878],[-2.24142,-2.23604]],[[251.84763,94.09805],[0.75278,3.21631],[-0.49951,0.29655]],[[250.46714,95.09613],[0.37076,-0.40738],[-1.47921,1.62534]],[[246.31801,100.21986],[1.61722,-1.48807],[-4.74638,4.36735]],[[231.33886,112.21316],[4.602,-4.5129],[-11.86202,6.07236]],[[197.25862,132.47643],[11.12032,-7.26834],[-4.3576,2.84816]],[[183.7132,140.21924],[4.60927,-2.41739],[-0.53199,6.49078]],[[182.32288,159.71827],[0.43335,-6.5034],[-0.32904,4.938]],[[181.84705,174.45921],[0,-4.96467],[0,1.67067]],[[181.77484,179.47071],[-0.35329,-1.63289],[0.32194,1.48806]],[[184.76371,186.0137],[-0.53759,-1.07114],[0.81417,1.76334]],[[188.28158,190.65859],[-1.37929,-1.36741],[1.83646,1.82064]],[[193.72861,196.37961],[-1.94009,-1.77885],[0.98949,0.19023]],[[197.01814,198.81754],[-0.70957,-1.68204],[5.42161,3.18507]],[[215.15889,203.98623],[-5.94861,-1.35707],[7.19328,1.64102]],[[236.69301,206.73633],[-7.36473,-0.79781],[14.13601,1.53134]],[[279.09922,208.72194],[-14.21737,0],[5.86573,0]],[[299.39059,207.73582],[-5.6542,2.57156],[4.01337,-1.8253]],[[305.46741,198.41744],[-1.55166,3.59868],[0.52579,-1.21943]],[[307.28358,194.87165],[-0.4649,1.24391],[1.21614,-3.25394]],[[308.03596,183.96288],[-0.15259,3.34015],[0.48277,-10.56769]],[[308.52648,152.46866],[0.74944,10.59423],[-0.34625,-4.89456]],[[306.40794,137.74921],[0.87242,4.88211],[-1.63842,-0.98293]],[[301.63885,134.48362],[1.52984,1.21925],[0,0]]],&quot;closed&quot;:true,&quot;fillColor&quot;:[0,0,0,1]}]}" fill="#ffeaab" stroke="none" stroke-width="0.5"/><path d="M122.44906,311.96898c15.03877,-3.39543 29.90264,-8.17876 44.62319,-13.12389c4.05752,1.03872 8.18569,1.66794 12.25131,1.85023c7.4733,0.33509 14.54165,-1.13632 21.92639,-1.898c11.1807,-1.1532 21.4497,-4.04545 32.44774,-6.48199c20.65166,-4.5752 40.75869,-10.62065 60.80031,-17.38402c10.44414,-3.52454 24.27816,-6.01114 32.60662,-13.93987c2.1007,-1.99987 3.58518,-4.13071 4.65103,-6.37189c1.91103,0.33452 3.59923,-0.23362 3.59923,-0.23362l2.02804,-0.81789c3.69115,-2.16745 7.25621,-3.25917 11.30995,-4.62718c8.47709,-2.86073 23.10617,-9.70571 30.89827,-1.65314c3.46968,5.55855 6.45508,11.15263 9.14406,17.01662c2.81751,6.14423 7.84102,11.14985 10.5828,17.30089c3.22428,7.23349 7.04809,13.7728 10.87428,20.69681c2.35961,4.27005 3.85806,9.00384 6.37683,13.18198c1.46688,2.43324 3.66874,4.37335 5.14037,6.80371c3.55073,5.86395 4.9162,12.84792 9.78012,17.67584c0.96917,3.40065 2.72669,6.53014 4.08131,9.79644c2.05727,4.96056 2.78528,9.58857 4.02595,14.71713c1.04443,4.31739 3.2402,8.36209 4.28405,12.67215c0.41927,1.73116 1.35043,10.21828 -0.41998,11.5115c-1.74913,1.27767 -4.24707,0.90578 -6.29862,1.60077c-6.54777,2.21813 -11.3982,2.20923 -18.2006,2.5879c-6.35501,0.35375 -11.68927,3.8562 -17.84915,4.32486c-2.07698,-0.2775 -4.13586,-0.84647 -6.23126,-0.83171c-2.83479,0.01997 -5.62409,1.66201 -8.42095,1.1994c-3.54275,-0.58599 -6.94548,-2.14041 -10.53459,-2.25389c-9.62993,-0.3045 -19.97561,-0.75727 -29.58257,-2.10445c-2.04946,-0.28739 -3.94811,-1.29532 -5.98884,-1.6392c-7.86708,-1.32563 -16.1626,-0.71849 -23.925,-2.8264c-4.64377,-1.26102 -9.19992,-2.93557 -13.98669,-4.00938c-11.79258,-2.64545 -24.05026,-4.10821 -35.90483,-6.63773c-11.79319,-1.63598 -22.92878,-4.7246 -34.60082,-6.87177c-23.1918,-4.26633 -46.58885,-6.50455 -69.89913,-9.74626c-4.98279,-0.69295 -9.9211,-1.67857 -14.88831,-2.47563c-1.58194,-0.25384 -3.27896,0.04904 -4.77905,-0.51369c-1.67078,-0.62677 -2.82143,-2.25977 -4.46451,-2.95592c-1.70207,-0.72115 -3.79916,-0.31858 -5.40787,-1.22915c-1.22297,-0.69225 -1.49804,-2.4535 -2.6107,-3.31191c-1.1887,-0.91706 -2.95328,-0.89711 -4.09915,-1.86717c-1.92734,-1.63162 -3.60302,-7.41049 -4.28979,-9.51969c-2.01099,-5.95909 -4.02104,-11.92565 -6.03202,-17.88474c-0.57457,-1.70259 -1.04746,-3.44479 -1.72333,-5.10976c-0.16404,-0.4041 -0.30609,-0.8419 -0.48189,-1.25555c2.78131,-0.21251 7.48563,-2.97647 9.18783,-3.36078z" data-paper-data="{&quot;noHover&quot;:false,&quot;origItem&quot;:[&quot;Path&quot;,{&quot;applyMatrix&quot;:true,&quot;segments&quot;:[[[158.98451,204.01449],[0,0],[-1.19296,-0.12381]],[[152.26349,204.18258],[1.85794,0.47284],[0.02358,0.30801]],[[152.30155,205.10584],[-0.01802,-0.29921],[0.07424,1.2328]],[[152.30155,208.81093],[0,-1.23503],[0,4.32261]],[[152.30155,221.77875],[0,-4.32261],[-0.01629,1.52448]],[[153.00412,228.91812],[-0.89655,-1.4861],[0.53303,0.88354]],[[155.26343,231.03433],[-0.57257,-0.85844],[0.53594,0.80353]],[[156.23608,233.76378],[-0.64429,-0.71957],[0.84751,0.94652]],[[159.4878,235.75223],[-0.94994,-0.84368],[0.91702,0.81444]],[[161.74588,238.65725],[-0.9503,-0.77534],[0.85322,0.69613]],[[164.74528,240.04176],[-0.9744,-0.51296],[3.05957,1.61067]],[[173.89711,244.92449],[-3.0926,-1.5463],[14.46767,7.23383]],[[217.27615,266.61772],[-14.16534,-7.87504],[7.12917,3.96337]],[[238.28502,278.66553],[-7.32041,-3.6571],[7.16402,4.25248]],[[260.15961,290.86471],[-7.09817,-4.31435],[2.88124,1.75125]],[[268.37814,296.55258],[-2.74698,-1.84174],[4.59178,3.07861]],[[283.32819,303.65659],[-4.83186,-2.59218],[1.2534,0.67242]],[[286.86699,306.04099],[-1.27149,-0.63755],[5.96017,2.98857]],[[305.66423,313.91722],[-6.20427,-2.31461],[2.31235,0.86266]],[[312.02852,317.70088],[-2.17833,-1.16018],[1.7197,0.91591]],[[317.77478,318.7718],[-1.85046,-0.60998],[1.3678,0.45088]],[[321.64953,320.68328],[-1.29158,-0.63716],[4.11442,1.04851]],[[334.22147,321.79231],[-4.21624,-1.16623],[4.51306,1.24833]],[[346.64142,324.10885],[-4.75149,0.00552],[1.48874,-0.00173]],[[351.0945,324.45139],[-1.41985,0.44765],[1.43712,-0.4531]],[[353.89611,317.05016],[-0.10741,1.2195],[0.26742,-3.03619]],[[353.88954,307.85969],[-0.26865,3.04109],[0.31912,-3.61246]],[[354.50042,297.3952],[0.24958,3.68252],[-0.16434,-2.42477]],[[353.99459,290.12177],[-0.1162,2.42756],[-2.10647,-4.21295]],[[351.50892,276.4679],[1.02361,4.59903],[-0.42425,-1.90611]],[[349.65637,270.91026],[0.42052,1.90694],[-0.72206,-3.27442]],[[348.4005,260.92971],[0.59822,3.29929],[-0.97003,-5.3499]],[[345.86841,245.0702],[0.51005,5.41917],[-0.43372,-4.60822]],[[342.78083,231.48487],[0.48453,4.62042],[-0.46242,-4.40968]],[[340.56839,218.39986],[1.03795,4.38234],[-3.30469,-6.95641]],[[320.08827,212.69339],[6.14912,0],[-2.9405,0]],[[311.70807,213.22352],[2.88007,-0.6003],[0,0]],[310.20803,213.31091],[[307.81374,212.67309],[1.17098,0.63782],[-1.18663,1.22526]],[[303.38498,215.80085],[1.80751,-0.8407],[-7.16609,3.33304]],[[279.09921,217.72194],[7.57598,0],[-14.53782,0]],[[235.72579,215.68421],[14.4542,1.55904],[-7.69758,-0.83026]],[[213.18439,212.76697],[7.53451,1.70613],[-4.97647,-1.12688]],[[198.49293,209.18036],[4.79311,1.86058],[-2.60754,-1.01219]],[[190.92233,205.28197],[2.41406,1.56813],[-10.67305,-0.01469]],[[158.98452,204.01448],[10.53972,1.09382],[0,0]]],&quot;closed&quot;:true,&quot;fillColor&quot;:[0,0,0],&quot;strokeWidth&quot;:0.5}]}" fill="#7aff69" stroke="none" stroke-width="0.25"/><path d="M105.25576,307.73453c1.19756,-0.94537 2.86457,-1.51914 5.37153,-1.45041c5.51191,0.15112 8.01243,9.07124 8.52624,12.93503c0.4694,3.52975 0.03372,7.1216 0.03372,10.68242c0,7.05921 -0.09363,13.9046 -1.15956,20.81502c-0.81265,5.26841 -3.47306,9.33416 -4.49156,14.52957c-0.04409,5.8221 -1.58067,9.15326 -3.6302,14.61452c-1.41606,3.77327 -1.31232,5.19182 -3.95238,8.9643c-0.96594,1.38027 -2.46913,2.30543 -3.54808,3.59929c-2.14688,2.57449 -3.51248,5.78466 -5.87797,8.15985c-3.05223,3.06475 -7.17611,4.91921 -10.232,7.98031c-1.79166,1.79472 -2.88516,4.24196 -4.80622,5.89743c-2.99698,2.58263 -7.1615,3.46443 -10.35586,5.7985c-2.70539,1.97679 -8.33425,7.39263 -11.65956,9.26092c-1.76191,0.98991 -3.86256,1.27029 -5.62922,2.25169c-1.62777,0.90424 -2.82276,2.47966 -4.46567,3.3561c-8.36777,4.46397 -9.03969,3.5345 -17.8719,6.04826c-2.45862,0.69975 -4.76552,1.98653 -7.29239,2.37304c-2.83434,0.43354 -5.73449,0.03874 -8.60173,0.05811c-1.77055,0 -15.66089,0.00267 -16.07663,-0.01103c-9.80704,-0.32301 -19.47894,-3.34488 -28.89155,-5.74488c-2.11727,-0.53986 -4.40443,-0.51411 -6.40573,-1.39108c-1.80256,-0.78988 -3.05101,-2.51512 -4.75509,-3.4996c-2.69811,-1.55875 -5.92406,-1.97115 -8.76173,-3.25846c-2.25252,-1.02186 -4.35393,-2.36559 -6.63369,-3.32516c-2.40747,-1.01332 -5.18897,-1.18856 -7.39878,-2.58122c-2.24501,-1.41484 -3.51541,-4.02497 -5.62922,-5.62922c-0.82967,-0.62967 -2.05944,-0.44116 -2.98882,-0.91135c-3.1322,-1.58464 -8.54665,-6.29408 -10.79318,-7.82268c-5.1954,-3.5351 -10.81625,-6.63631 -15.23374,-11.10563c-4.40353,-4.45519 -7.4602,-9.75516 -11.85094,-14.27196c-1.1952,-3.33064 -3.29584,-6.26725 -4.76179,-9.48791c-1.00025,-2.19755 -1.29785,-4.67309 -2.30963,-6.86536c-1.25654,-2.72261 -3.11436,-5.13235 -4.4635,-7.81029c-1.91939,-3.80983 -3.00159,-8.00086 -4.10671,-12.12125c-0.78381,-2.92239 -1.12772,-5.94635 -1.78436,-8.89992c-0.84807,-3.81466 -2.38099,-7.44799 -3.36997,-11.22857c-2.60886,-9.97288 -4.97165,-20.91066 -5.75751,-31.21501c-0.68413,-8.9705 -0.01303,-18.34229 -0.01303,-27.3422c0,-12.9598 -0.07447,-25.83866 0.6718,-38.77583c0.95638,-16.05076 4.88755,-31.04501 13.57752,-44.73579c0.98332,-1.54919 2.22146,-2.92124 3.31042,-4.39808c1.5668,-2.12487 2.25911,-5.30123 4.65659,-6.40666c1.85956,-0.85741 4.08902,0.66789 5.95349,1.51456c1.85104,0.84057 3.16674,2.62577 5.01732,3.46736c2.52993,1.15054 5.31819,1.61686 7.97271,2.44012c10.71583,3.32334 20.51549,8.16793 30.60866,13.06613c17.64562,8.56339 34.42446,18.2319 51.32887,28.15406c28.17797,16.53924 56.33546,33.07163 82.48721,52.68544c0.33877,0.25408 14.46729,10.84617 14.64128,10.99429c7.53469,6.41418 14.11461,13.91181 21.40257,20.64322z" fill="#ffeaab" stroke="#000000" stroke-width="15"/><path d="M379.26068,231.95649c2.07987,0 3.19844,0.9613 3.80001,1.99529c3.58646,-12.36905 12.85706,-22.75889 21.89886,-31.80981c5.26291,-5.26822 10.69108,-10.69293 16.50873,-15.34692c4.68356,-3.74674 9.98021,-6.68451 14.64211,-10.45817c5.74865,-4.65334 11.28044,-10.03272 16.5976,-15.18669c3.57825,-3.46843 6.49833,-7.71748 10.61152,-10.53093c1.95859,-1.33969 4.2721,-2.067 6.40815,-3.1005c1.40531,-2.29453 3.40476,-4.16743 5.12729,-6.23446c4.06897,-4.88276 8.06129,-10.40718 13.23313,-14.30777c1.22464,-0.92362 2.97719,-0.99376 4.15646,-1.97465c0.97058,-0.80731 1.15369,-2.29473 2.04782,-3.18596c1.06212,-1.05867 2.53814,-1.60972 3.70656,-2.54975c0.89912,-0.72337 1.51295,-1.78261 2.47344,-2.42224c1.31016,-0.87249 3.05717,-1.03029 4.25121,-2.05598c1.35412,-1.1632 1.89748,-3.064 3.16843,-4.31754c3.74818,-3.69682 9.7733,-5.19352 13.42062,-8.91969c1.01014,-1.03198 1.34372,-2.6476 2.45556,-3.5691c1.48528,-1.23102 3.4853,-1.67492 5.1157,-2.70607c1.58586,-1.00298 2.90802,-2.38975 4.50338,-3.37753c1.24879,-0.7732 2.8748,-0.91792 3.9858,-1.87864c1.31925,-1.1408 1.84069,-3.0022 3.07892,-4.23048c1.51235,-1.50019 3.39085,-2.57939 5.08628,-3.86908c1.85527,-1.23267 6.4698,-4.78622 8.94912,-4.1459c2.34092,0.60458 3.82987,2.95355 5.69124,4.49653c2.49986,2.07226 5.51673,3.69452 7.38975,6.34694c1.90927,2.70376 2.29167,6.21477 3.62122,9.24593c1.19568,2.72597 2.72408,5.29649 3.94771,8.01003c4.99365,11.07395 9.71709,22.36612 14.39077,33.58239c1.92181,4.6121 4.39543,9.00983 5.94641,13.75949c1.50275,4.60197 1.30999,9.68478 3.06697,14.19581c1.08127,2.77615 2.98473,5.19135 4.00372,7.99096c2.32948,6.40007 2.6746,12.00545 3.51182,18.66372c0.7543,5.99878 1.80092,11.94339 2.79318,17.90649c1.13409,5.289 2.54133,10.52704 3.39647,15.86824c3.11018,19.42611 3.28535,39.33451 4.55144,58.9405c1.17681,18.22328 1.95863,36.52839 0.30493,54.74278c-0.52774,5.81272 -1.05169,12.0529 -2.69198,17.66761c-0.13684,0.46839 -3.61428,9.99132 -4.56673,12.60275c-1.82751,6.71235 -3.57709,13.47897 -5.59127,20.13935c-0.94102,3.11173 -1.36773,6.45454 -2.94387,9.2978c-0.72056,1.29984 -2.58705,1.52647 -3.63866,2.57666c-0.49185,0.49119 -0.38814,1.38423 -0.84881,1.90477c-1.24469,1.40648 -2.44825,3.05147 -4.1802,3.77795c-1.69431,0.71069 -3.69004,-0.00368 -5.50463,0.28444c-1.17206,0.1861 -2.19948,0.98246 -3.37753,1.12584c-4.89084,0.59527 -9.89479,0.65824 -14.78078,0.02439c-3.08283,-0.39993 -6.00573,-1.62643 -9.05433,-2.23457c-7.03323,-1.40301 -15.49418,-0.68203 -21.42531,-5.53189c-1.63732,-1.33883 -2.49409,-3.42419 -3.89371,-5.00985c-2.63995,-2.99085 -5.27039,-5.99019 -7.88091,-9.00676c-3.27939,-3.78948 -7.35475,-6.24373 -10.89342,-9.75811c-2.32766,-1.9509 -4.84071,-3.69987 -6.98299,-5.8527c-1.16108,-1.16679 -1.5319,-3.0483 -2.85238,-4.03108c-1.72429,-1.28332 -4.32137,-1.09646 -5.93892,-2.51195c-1.48453,-1.29908 -1.69782,-3.58625 -2.85529,-5.18365c-0.84197,-1.16199 -2.13324,-1.92929 -3.08002,-3.00758c-7.3785,-8.40344 -14.90383,-16.94679 -23.2908,-24.41665c-2.72193,-2.42429 -5.37331,-4.40841 -8.41198,-6.30559c-2.7324,-1.70597 -6.03661,-2.61767 -8.3579,-4.85104c-1.39276,-1.34001 -2.06547,-3.33029 -3.508,-4.61658c-2.84176,-2.53397 -7.09147,-3.06151 -10.00214,-5.51602c-1.38835,-1.17077 -1.7788,-3.29658 -3.23146,-4.38653c-1.53394,-1.15094 -3.77455,-1.0013 -5.36914,-2.06663c-1.89319,-1.26482 -3.09944,-3.36003 -4.87912,-4.78012c-2.1153,-1.6879 -4.50338,-3.00225 -6.75507,-4.50338c-0.96346,-1.00988 -1.74559,-2.23115 -2.89037,-3.02964c-2.25956,-1.57606 -6.08071,-1.82455 -8.65343,-3.18054c-1.08386,-0.57126 -2.3283,-0.93419 -3.21734,-1.77721c-0.90826,-0.86125 -1.02746,-2.39323 -2.00505,-3.1749c-0.99533,-0.79586 -2.58052,-0.53049 -3.59447,-1.30248c-0.74756,-0.56917 -0.69467,-1.80523 -1.35942,-2.46925c-0.53083,-0.53025 -1.53404,-0.3875 -2.04782,-0.93427c-1.32679,-1.412 -2.39265,-3.07061 -3.316,-4.774c-0.777,-1.43341 -0.34828,-3.56317 -1.58282,-4.62819c-0.9559,-0.82464 -2.29328,-1.15514 -3.18596,-2.04782c-0.89268,-0.89268 -1.15514,-2.29328 -2.04782,-3.18596c-0.65682,-0.65682 -1.83185,-0.62908 -2.45556,-1.31742c-0.95463,-1.05354 -1.51584,-2.41603 -2.10132,-3.71159c-1.15628,-2.55866 -3.0204,-6.94799 -3.5997,-9.69494c-0.2138,-1.01378 0.40271,-2.12527 0.07271,-3.10739c-0.43097,-1.28263 -1.50113,-2.25169 -2.25169,-3.37753c-0.07635,-2.24026 -0.3358,-4.52449 -1.08801,-6.63607l-0.23093,-2.54887c0,0 0,-4.5 4.5,-4.5z" fill="#ffeaab" stroke="#000000" stroke-width="15"/><path d="M166.32308,141.51054c0.90062,2.64092 1.6573,5.34866 2.24292,8.14544c0.19028,0.90871 0.33208,1.82397 0.4379,2.74403c0.99395,3.89153 2.70404,7.76311 2.36112,11.74105l1.33623,8.8191c0.0413,0.245 0.0628,0.49672 0.0628,0.75347c0,2.13758 -1.49041,3.92705 -3.48874,4.38592l-0.70833,3.54164c-0.37776,2.10325 -2.21698,3.69922 -4.42896,3.69922c-1.88025,0 -3.49116,-1.15317 -4.16407,-2.79085l-2.5843,-5.90696l0.08351,-0.03654l-0.1912,-0.23294c-0.29088,-0.99172 -0.57697,-1.98198 -0.85777,-2.97123c-2.29192,-0.26009 -3.43789,-2.55201 -3.43789,-2.55201l-1.22527,-3.51284c0.00866,-9.41764 -1.28233,-18.75714 -2.1478,-28.13126c-0.28563,-3.09379 -1.30587,-6.20822 -0.85192,-9.28183c0.01572,-0.10647 0.03238,-0.21271 0.04993,-0.31874l-0.04535,-0.00227l0.06309,-1.26189c-0.10813,-2.39771 -0.12158,-4.76739 0.14526,-5.93113l0.54252,-8.95154c0.12486,-2.37359 2.08901,-4.25975 4.4937,-4.25975c1.37739,0 2.61024,0.61884 3.43569,1.59365l4.48209,5.2291l-0.07769,0.06659l0.3009,0.21596c4.53992,7.4566 5.73802,10.92301 8.50618,19.22749c0,0 1.42302,4.26907 -2.84605,5.6921c-0.5409,0.1803 -1.03611,0.26922 -1.48852,0.28703z" fill="#000000" stroke="none" stroke-width="0.5"/><path d="M250.80159,138.96299c1.51916,5.56802 2.89044,11.07785 3.77164,16.85697c0.50004,3.27935 1.78445,6.65156 1.07951,9.89305c-0.05467,0.25138 -0.12316,0.49711 -0.20374,0.73788l0.09564,0.02206l-0.80423,3.48677c-0.42589,2.04241 -2.23636,3.57673 -4.4052,3.57673c-1.9008,0 -3.52634,-1.17851 -4.18579,-2.84471l-3.46175,-8.1948l0.03698,-0.01562l-0.09698,-0.13382c-0.09831,-0.2885 -0.19664,-0.57699 -0.29498,-0.86547c-0.76859,0.61197 -1.74201,0.97766 -2.80084,0.97766c-1.87082,0 -3.475,-1.14164 -4.15387,-2.76625l-2.95903,-6.65781l0.06535,-0.02904l-0.16321,-0.20932c-3.42403,-10.8845 -6.68597,-21.7497 -9.18999,-32.89353c-1.11297,-4.95314 -3.26459,-9.93703 -2.72238,-14.98463c0.02131,-0.19839 0.04921,-0.39511 0.0831,-0.59034l-0.07307,-0.00609l0.37156,-4.45871c0.16959,-2.33059 2.11413,-4.16871 4.48799,-4.16871c1.54088,0 2.90087,0.77446 3.71196,1.95537l4.46552,6.32615l-0.05093,0.03595l0.18067,0.15837c4.78963,8.5324 9.82571,16.93001 14.41118,25.5667c0.29305,0.38667 0.52505,0.82217 0.68163,1.29214c0.68009,1.29781 1.34929,2.60141 2.00524,3.91205c0,0 1.04867,2.09734 0.11802,4.02102z" fill="#000000" stroke="none" stroke-width="0.5"/><path d="M200.4967,294.14718c-0.13251,-0.26503 -0.23885,-0.52133 -0.32189,-0.76891c-8.34612,-8.77852 -13.90176,-20.52545 -20.11925,-30.77367c-2.21168,-3.64549 -3.80586,-5.3399 -6.02304,-9.03773c-6.08691,-10.1518 -11.02638,-22.55348 -12.26488,-34.35126c0.03826,-1.66966 -0.27618,-3.3853 0.11479,-5.00899c0.40804,-1.69455 1.47382,-3.15918 2.23017,-4.72951c1.4636,-3.03871 3.20247,-7.09796 5.5016,-9.5631c2.5004,-2.68096 4.90713,-3.78113 7.96584,-5.48643c8.93748,-4.98284 18.34849,-8.12747 28.3225,-10.2339c7.15424,-1.51092 14.94852,-0.81084 21.82217,-3.38847c8.15844,-0.12123 15.61915,-0.6369 23.70507,0.74463c4.4941,0.76784 5.49547,-0.23332 9.66984,3.27674c3.49458,2.93845 5.92245,8.68051 7.33331,12.86885c4.16585,12.36693 3.60445,26.414 3.60445,39.30051c0,7.00174 0.00532,14.00351 0,21.00525c-0.00405,5.32604 -0.22192,11.50589 -2.77272,16.35755c-3.32117,6.31691 -7.23663,7.86285 -13.8533,11.13108c-8.9085,4.40024 -19.48919,5.79261 -29.22977,7.01018c-4.1184,0.00515 -8.90854,-0.01941 -12.85406,1.31598c-2.48646,0.84156 -4.89876,2.03889 -7.49756,2.4089l0.70412,-0.06523c0,0 -4.02492,2.01246 -6.03738,-2.01246zM206.43702,286.91904c1.44882,-0.46926 2.83133,-1.23977 4.28245,-1.71689c4.63781,-1.52486 10.07489,-1.69111 14.90288,-1.68477c10.88819,-1.36102 23.45359,-3.05411 32.90428,-9.35713c0.72311,-0.48227 0.74424,-1.57987 1.23978,-2.29397c1.80601,-2.60256 2.29595,-3.71107 2.97098,-7.18196c0.63398,-3.25979 0.29999,-6.76222 0.29999,-10.05898c0,-5.87647 0,-11.75294 0,-17.62941c0,-10.69933 0.66567,-22.56462 -2.10498,-32.99815c-1.07879,-4.06246 -2.57931,-9.29493 -5.71196,-12.35687c-1.41452,-1.38259 -3.67237,-0.95535 -5.33391,-1.22438c-7.01489,-1.13582 -13.49211,-0.61674 -20.556,-0.75575c-4.78526,1.79447 -10.8839,2.36444 -16.00703,3.03924c-1.88072,0.24772 -3.83082,-0.09173 -5.68168,0.32398c-7.70327,1.73018 -15.38469,3.67693 -22.40113,7.44205c-2.75598,1.4789 -6.65991,2.99205 -8.82741,5.34475c-2.59939,2.82148 -5.83187,9.155 -5.65682,12.95646c1.35145,14.58342 9.59948,26.99924 16.97089,39.13163c5.78405,9.51979 10.91615,20.85339 18.70965,29.02013z" fill="#000000" stroke="none" stroke-width="0.5"/></g></g></svg>