<svg version="1.1" xmlns="http://www.w3.org/2000/svg" xmlns:xlink="http://www.w3.org/1999/xlink" width="806.96294" height="720.64153" viewBox="0,0,806.96294,720.64153"><g transform="translate(285.23147,87.75)"><g data-paper-data="{&quot;isPaintingLayer&quot;:true}" fill-rule="nonzero" stroke="none" stroke-linecap="butt" stroke-linejoin="miter" stroke-miterlimit="10" stroke-dasharray="" stroke-dashoffset="0" style="mix-blend-mode: normal"><path d="M-285.23147,574.02757l256.62839,-433.91909c0,0 209.68263,84.15123 305.94267,122.78296c86.03387,34.52769 244.39188,98.08099 244.39188,98.08099l-109.12839,271.9191z" fill="#0e1410" stroke-width="0"/><path d="M-48.5,222.25l17,-310l537,37l-5,273c0,0 -8.38047,170 -12,170c-34.43307,0 -537,-170 -537,-170z" fill="#1b271f" stroke-width="0"/><g><path d="M299.50234,322.5637c0,6.88689 0.27643,12.66317 -1.86731,19.27451c-5.16976,12.39513 -18.67115,20.56338 -31.03631,24.38723c-8.08596,2.50054 -16.71836,4.37818 -24.99248,5.83225c-3.95229,0.69456 -8.02563,0.04996 -12.0385,0.04996c-14.10173,0 -27.30089,-1.54737 -41.29483,-3.29673c-8.20419,-1.23704 -18.26822,-4.86516 -25.26942,-9.57664c-0.71069,-0.47825 -7.15454,-7.12259 -7.74576,-7.64778c-3.51017,-3.11818 -5.16979,-2.73845 -7.52283,-7.8704c-2.36519,-5.15843 -0.77267,-10.61739 -0.31733,-15.82425c0.18055,-2.06466 -0.38833,-4.19919 0.08467,-6.21704c2.15898,-9.21047 8.98105,-17.20769 13.16986,-25.62626c-0.12467,-0.04143 -0.2493,-0.08297 -0.37388,-0.12463c-17.91361,-6.96342 -34.29367,-14.86638 -45.00968,-31.78817c-3.43844,-5.42968 -5.09499,-13.52327 -6.88553,-19.60597c-5.94607,-20.19968 -6.23822,-43.13888 0.74492,-63.33218c0.698,-19.7208 5.30132,-40.31942 -3.86723,-58.61296l-1.72722,-5.15086c0,0 -0.47795,-1.43387 0.05982,-2.8079c-1.00189,-0.58965 -2.5486,-1.96015 -1.69107,-4.53275c1.22345,-3.67036 4.89381,-2.44691 4.89381,-2.44691c8.42176,2.84605 14.81697,8.08749 23.49257,10.55346l0.54627,-0.05875c0.24368,-0.20839 0.41848,-0.31765 0.41848,-0.31765c12.14428,-7.58608 23.79079,-15.86195 35.7052,-23.80548c4.39973,-2.93336 8.74728,-6.79746 13.54621,-8.99595c3.69161,-1.6912 7.87353,-2.21778 11.46978,-4.10329c7.34383,-3.85037 14.28032,-7.66741 22.51071,-9.33958l3.71762,-0.01569c0.6377,-0.09193 1.2421,0.00243 1.7094,0.13144c0.48476,0.11747 1.07855,0.33748 1.6024,0.74952c11.77383,6.90011 19.65642,18.35427 31.32782,25.82805l2.14195,1.05288c10.34193,-3.02075 19.96103,-8.97601 28.38602,-15.68752c10.14396,-8.08088 20.78435,-18.28318 34.2649,-18.60251h3.26252c0,0 0.73091,-0.00001 1.55735,0.3177c0.46249,-0.1977 1.02384,-0.3177 1.70515,-0.3177c3.8689,0 3.8689,3.8689 3.8689,3.8689c0,1.14339 0.01032,14.01699 -0.0374,14.40227c-0.94806,7.65419 -3.77493,14.97934 -5.683,22.47935c12.05312,-0.14091 24.20934,-0.6207 36.05092,1.73718l3.62195,1.68059c1.1463,0.27608 1.81493,0.97234 2.2049,1.69064c0.47145,0.67489 0.79651,1.59264 0.52023,2.75325c-0.35368,6.7763 -3.71914,12.82272 -5.8918,19.31144c-2.71268,8.10143 -5.30402,16.60582 -7.66676,24.78133c-3.84119,13.29126 -1.72175,29.59283 -8.84071,41.75207c-3.40127,8.43609 -3.89423,17.34781 -4.50053,26.28634c-0.36741,5.41661 -1.63307,10.30328 -1.65892,15.75926l-1.74271,6.23564c0,0 -0.75223,2.63281 -3.20594,2.83579c-4.62446,14.29345 -12.09226,27.4389 -23.65922,37.85553c-4.13302,4.66015 -9.07784,8.26891 -14.50437,11.04099c5.80005,6.38386 6.44646,13.63342 6.44646,23.05806zM157.24387,319.25486c-0.66593,1.4344 -1.86193,2.65525 -2.21084,4.19773c-0.38261,1.6914 0.22083,3.47294 0.08467,5.20173c-0.29129,3.69823 -1.97905,8.19441 -0.31733,11.90703c1.16175,2.5956 3.56349,3.43302 5.52718,5.17962c2.46024,2.18826 4.1854,5.22293 6.93552,7.0335c6.04578,3.9803 14.94973,7.42503 22.03689,8.36713c13.67004,1.70862 26.49862,3.22827 40.26777,3.22827c3.59971,0 7.26205,0.71909 10.79904,0.04996c7.94468,-1.50299 16.15104,-3.20166 23.94508,-5.58651c9.56518,-2.92678 22.31979,-9.67856 26.05751,-19.65658c1.91379,-5.53915 1.39519,-10.76797 1.39519,-16.61304c0,-8.33056 0.14272,-14.38151 -6.40564,-19.76592c-8.10733,2.87143 -16.86214,4.29812 -25.3616,4.86724c-30.65812,2.0528 -62.28765,-0.60666 -91.8609,-9.28293c-3.35516,7.18824 -7.52501,13.61908 -10.89255,20.87278zM340.77193,168.49436c2.51659,-12.64981 6.64452,-25.69619 10.74133,-38.03867c1.62,-4.88057 4.7588,-10.1953 5.39423,-15.31976l-0.04522,-0.02561c-12.83986,-2.58024 -26.16789,-1.55611 -39.20693,-1.55611c-1.34365,0 -2.22066,-0.46665 -2.79308,-1.07582c-0.60917,-0.57242 -1.07581,-1.44943 -1.07581,-2.79308c0,-0.18178 0.00854,-0.35502 0.02482,-0.52013l0.05031,-1.05425c1.74322,-8.71608 5.37766,-17.0918 6.48726,-25.8779c0.39535,-3.13062 0.21028,-6.29653 0.06981,-9.46014h-2.76331c-2.54739,-0.09262 -5.03973,1.02703 -7.35525,2.09293c-8.3946,3.86428 -14.78109,9.03319 -22.09629,14.83023c-9.37115,7.42631 -19.98124,13.88529 -31.47318,17.18429c0,0 -0.79479,0.22709 -1.7546,0.10395c-1.39129,0.27568 -2.66972,-0.36353 -2.66972,-0.36353l-3.62074,-1.83492c-5.45332,-3.50177 -6.63846,-4.03002 -11.89878,-8.51972c-6.78358,-5.7898 -11.16221,-12.47415 -18.84973,-16.97343l-2.66933,-0.0136c-7.21471,1.40757 -13.48546,5.27952 -19.90185,8.60419c-3.57187,1.85077 -7.69988,2.40062 -11.36776,4.05296c-4.51155,2.0324 -8.58837,5.76063 -12.72741,8.51978c-11.97824,7.9849 -23.69106,16.29658 -35.89632,23.92887c0,0 -0.40086,0.25055 -1.00993,0.43635c-1.13631,0.96734 -2.67183,0.96735 -2.67183,0.96735l-3.50974,-0.14886c-4.98182,-1.43013 -7.60482,-1.90901 -12.29234,-4.44877c-1.35554,-0.73444 -2.53488,-1.47296 -3.66678,-2.18882l0.20575,0.62134c6.6969,13.42503 6.56065,27.70797 5.62848,42.11755c0.17341,-0.33972 0.34746,-0.67915 0.52227,-1.01821c-0.18679,5.77706 -0.03145,11.56155 0.06955,17.34556c-0.65429,1.49032 -1.2602,3.00283 -1.81879,4.53451c-0.02012,0.97967 -0.03037,1.95828 -0.02887,2.93562c0,0 0,2.4993 -2.0088,3.48031c-4.72762,17.33583 -3.92047,36.47304 1.03886,53.34734c1.60479,5.46034 3.05201,13.06665 6.16449,17.91282c9.80446,15.26565 24.73274,22.06552 40.93076,28.36751c30.80995,10.2903 64.21379,13.38923 96.56706,11.29708c7.38966,-0.47785 15.14569,-1.64716 22.35165,-4.06676c1.21209,-1.89011 3.0258,-1.7952 4.07749,-1.53348c6.15528,-2.58151 11.74315,-6.22431 16.13002,-11.31473c22.30162,-19.96976 28.00808,-50.91843 28.04516,-79.63031c1.40067,-1.70301 2.71547,-4.78221 3.82593,-8.183c1.51724,-1.64414 2.68257,-3.61798 3.37634,-5.80185c0.06351,0.74525 0.12068,1.49203 0.17185,2.24018c2.54834,-7.27796 1.80156,-15.63226 3.29899,-23.15927z" fill="#000000" stroke-width="0.5"/><path d="M157.16779,319.24063c3.36755,-7.25369 7.54726,-13.71036 10.90242,-20.8986c29.57325,8.67627 61.33403,11.33386 91.99215,9.28105c8.49946,-0.56912 17.25952,-1.98626 25.36685,-4.85769c6.54835,5.3844 6.41209,11.45772 6.41209,19.78828c0,5.84508 0.51875,11.09261 -1.39503,16.63177c-3.73772,9.97801 -16.50464,16.7637 -26.06982,19.69048c-7.79404,2.38485 -16.02876,4.10929 -23.97344,5.61228c-3.53699,0.66913 -7.22027,-0.04248 -10.81998,-0.04248c-13.76915,0 -26.67112,-1.54438 -40.34116,-3.25301c-7.08716,-0.94211 -16.0053,-4.41037 -22.05108,-8.39067c-2.75012,-1.81056 -4.47843,-4.8557 -6.93868,-7.04396c-1.96368,-1.7466 -4.36668,-2.591 -5.52844,-5.18659c-1.66172,-3.71262 0.02543,-8.22224 0.31673,-11.92048c0.13617,-1.72879 -0.46679,-3.51619 -0.08419,-5.2076c0.34891,-1.54248 1.54568,-2.76841 2.21161,-4.20281z" data-paper-data="{&quot;noHover&quot;:false,&quot;origItem&quot;:[&quot;Path&quot;,{&quot;applyMatrix&quot;:true,&quot;segments&quot;:[[[198.90219,248.3042],[0,0],[-0.43031,0.92688]],[[197.47359,251.01669],[0.22546,-0.99672],[-0.24723,1.09295]],[[197.5283,254.37794],[0.08799,-1.11711],[-0.18823,2.38972]],[[197.32325,262.07202],[-1.07377,-2.39902],[0.7507,1.67722]],[[200.8948,265.41899],[-1.26889,-1.12862],[1.58976,1.41401]],[[205.37639,269.96389],[-1.77707,-1.16995],[3.90666,2.57199]],[[219.61618,275.37056],[-4.57958,-0.60877],[8.8333,1.10408]],[[245.63639,277.4566],[-8.89734,0],[2.32606,0]],[[252.61451,277.48888],[-2.28553,0.43238],[5.13369,-0.9712]],[[268.08733,273.87899],[-5.03635,1.54104],[6.18082,-1.89123]],[[284.92516,261.17731],[-2.41524,6.44759],[1.23665,-3.57929]],[[285.8267,250.4423],[0,3.77697],[0,-5.38304]],[[281.68751,237.66997],[4.23141,3.47929],[-5.23879,1.85546]],[[265.29936,240.81508],[5.49218,-0.36775],[-19.81065,1.32648]],[[205.94072,234.81664],[19.10963,5.60643],[-2.16804,4.64489]],[[198.90217,248.3042],[2.17604,-4.68719],[0,0]]],&quot;closed&quot;:true,&quot;fillColor&quot;:[0,0,0],&quot;strokeWidth&quot;:0.5}]}" fill="#667eff" stroke-width="0.25"/><g><path d="M340.84823,168.48133c-1.49743,7.52701 -0.74964,15.89806 -3.29799,23.17602c-0.05118,-0.74815 -0.10828,-1.4966 -0.17179,-2.24186c-0.69377,2.18388 -1.85936,4.16227 -3.3766,5.80641c-1.11046,3.40079 -2.42613,6.48669 -3.8268,8.18971c-0.03708,28.71188 -5.77525,59.71053 -28.07686,79.68029c-4.38687,5.09042 -9.98579,8.73971 -16.14107,11.32121c-1.05169,-0.26173 -2.86797,-0.35546 -4.08006,1.53465c-7.20596,2.4196 -14.97607,3.59349 -22.36573,4.07135c-32.35328,2.09216 -65.8183,-1.01891 -96.62825,-11.3092c-16.19802,-6.30199 -31.14665,-13.12284 -40.9511,-28.38849c-3.11248,-4.84617 -4.56502,-12.46198 -6.16981,-17.92232c-4.95933,-16.8743 -5.77381,-36.04291 -1.04619,-53.37874c2.0088,-0.98101 2.00879,-3.48258 2.00879,-3.48258c-0.0015,-0.97735 0.0088,-1.95789 0.02893,-2.93756c0.55859,-1.53168 1.16466,-3.04726 1.81896,-4.53758c-0.10099,-5.78401 -0.25469,-11.57969 -0.0679,-17.35675c-0.17481,0.33907 -0.34901,0.6792 -0.52242,1.01892c0.93217,-14.40958 1.07628,-28.71359 -5.62062,-42.13862l-0.20562,-0.62156c1.1319,0.71586 2.31121,1.45444 3.66675,2.18888c4.68752,2.53976 7.31115,3.01751 12.29297,4.44764l3.51027,0.14794c0,0 1.53626,-0.00124 2.67257,-0.96858c0.60907,-0.1858 1.01024,-0.43686 1.01024,-0.43686c12.20526,-7.63229 23.93791,-15.9652 35.91615,-23.9501c4.13904,-2.75916 8.22523,-6.49326 12.73678,-8.52567c3.66788,-1.65234 7.80381,-2.20584 11.37568,-4.05661c6.41639,-3.32466 12.70201,-7.20082 19.91672,-8.60838l2.67118,0.01329c7.68752,4.49927 12.07994,11.18277 18.86352,16.97257c5.26032,4.48969 6.45674,5.0191 11.91005,8.52087l3.62433,1.83565c0,0 1.28088,0.6398 2.67217,0.36413c0.95981,0.12314 1.7561,-0.10354 1.7561,-0.10354c11.49194,-3.299 22.11868,-9.75113 31.48984,-17.17744c7.3152,-5.79704 13.70758,-10.96231 22.10218,-14.82659c2.31552,-1.06589 4.81006,-2.184 7.35745,-2.09139l2.76429,0.00073c0.14047,3.16361 0.32809,6.33152 -0.06727,9.46213c-1.1096,8.7861 -4.7382,17.16718 -6.48142,25.88326l-0.04996,1.05461c-0.01628,0.16511 -0.02465,0.33854 -0.02465,0.52032c0,1.34365 0.46798,2.22207 1.07715,2.79449c0.57243,0.60917 1.45068,1.0772 2.79433,1.0772c13.03904,0 26.37572,-1.01211 39.21558,1.56813l0.04523,0.02563c-0.63542,5.12446 -3.77129,10.44474 -5.39129,15.32531c-4.09682,12.34248 -8.21824,25.4093 -10.73483,38.05911z" data-paper-data="{&quot;noHover&quot;:false,&quot;origItem&quot;:[&quot;Path&quot;,{&quot;applyMatrix&quot;:true,&quot;segments&quot;:[[[317.49428,150.88584],[0,0],[1.62617,-8.17405]],[[324.43511,126.30603],[-2.64728,7.97546],[1.04681,-3.15372]],[[327.92075,116.40671],[-0.4106,3.31132],[0,0]],[[327.89153,116.39016],[0,0],[-8.29686,-1.6673]],[[302.55681,115.38463],[8.42556,0],[-0.86824,0]],[[300.75198,114.68946],[0.36989,0.39363],[-0.39363,-0.36989]],[[300.05681,112.88463],[0,0.86824],[0,-0.11746]],[[300.07285,112.54853],[-0.01052,0.10669],[0,0]],[[300.10536,111.86729],[0,0],[1.12643,-5.63215]],[[304.2973,95.14552],[-0.717,5.6774],[0.25547,-2.02294]],[[304.34241,89.03257],[0.09077,2.04426],[0,0]],[[302.55681,89.03257],[0,0],[-1.64607,-0.05985]],[[297.804,90.38498],[1.49624,-0.68876],[-5.42442,2.49702]],[[283.52583,99.96797],[4.72693,-3.74593],[-6.05545,4.79873]],[[263.1885,111.07211],[7.42586,-2.13175],[0,0]],[[262.05471,111.13928],[0.62021,0.07957],[-0.89902,0.17814]],[260.32959,110.90437],[[257.98994,109.71868],[0,0],[-3.52382,-2.26277]],[[250.30119,104.21341],[3.39911,2.90115],[-4.38341,-3.74125]],[[238.12088,93.24553],[4.96752,2.90734],[0,0]],[[236.39601,93.23674],[0,0],[-4.662,0.90954]],[[223.53584,98.79659],[4.14614,-2.14833],[-2.30807,1.19593]],[[216.19023,101.41553],[2.37011,-1.06771],[-2.91527,1.3133]],[[207.96604,106.92084],[2.67456,-1.78291],[-7.74009,5.15968]],[[184.77057,122.38319],[7.88679,-4.93183],[0,0]],[[184.11797,122.66515],[0.39357,-0.12006],[-0.73426,0.62508]],[182.39149,123.29023],[[180.12357,123.19404],[0,0],[-3.21915,-0.92412]],[[172.18051,120.31934],[3.02898,1.64114],[-0.87592,-0.47458]],[[169.81111,118.90497],[0.73141,0.46257],[0,0]],[[169.94406,119.30647],[0,0],[4.3274,8.67498]],[[173.58107,146.52197],[0.60235,-9.31118],[0.11205,-0.21952]],[[173.91855,145.86402],[-0.11296,0.2191],[-0.1207,3.73302]],[[173.96349,157.07237],[-0.06526,-3.73751],[-0.42279,0.96301]],[[172.78823,160.00248],[0.36095,-0.98974],[-0.013,0.63304]],[[172.76957,161.89942],[-0.00097,-0.63154],[0,0]],[[171.47152,164.14833],[1.29805,-0.63391],[-3.05489,11.20206]],[[172.14281,198.62029],[-3.20462,-10.90383],[1.03698,3.52836]],[[176.12618,210.19519],[-2.01122,-3.1315],[6.33544,9.86435]],[[202.5748,228.5257],[-10.46683,-4.07222],[19.90876,6.64938]],[[264.97447,235.82564],[-20.90603,1.35191],[4.77505,-0.30878]],[[279.41765,233.19778],[-4.65634,1.5635],[0.78323,-1.22135]],[[282.05244,232.20688],[-0.67958,-0.16912],[3.97742,-1.66812]],[[292.47533,224.89553],[-2.83471,3.28933],[14.41085,-12.90405]],[[310.59754,173.44005],[-0.02396,18.55303],[0.90508,-1.10045]],[[313.06978,168.15236],[-0.71756,2.19752],[0.98041,-1.06241]],[[315.2515,164.40332],[-0.4483,1.41118],[0.04104,0.48157]],[[315.36255,165.85088],[-0.03307,-0.48344],[1.64669,-4.70287]],[[317.49429,150.88583],[-0.96761,4.8638],[0,0]]],&quot;closed&quot;:true,&quot;fillColor&quot;:[0,0,0],&quot;strokeWidth&quot;:0.5}]}" fill="#66ecff" stroke-width="0.25"/><path d="M309.91599,237.8371c1.73023,3.46044 -1.73022,5.19068 -1.73022,5.19068l-2.42066,1.01905c-9.17696,1.50095 -19.48558,1.4852 -28.40072,-1.47629c-5.48366,-1.8216 -10.15302,-5.00339 -15.74547,-6.57879c0,0 -3.72003,-1.06287 -2.65717,-4.78292c1.06286,-3.72003 4.78291,-2.65715 4.78291,-2.65715c5.70277,1.64912 10.51055,4.81846 16.08999,6.68597c7.66665,2.56615 16.77992,2.5185 24.65838,1.17667l0.2323,-0.30742c0,0 3.46044,-1.73022 5.19067,1.73022z" fill="#000000" stroke-width="0.5"/><path d="M195.83891,215.287c1.73021,3.46044 -1.73021,5.19066 -1.73021,5.19066l-1.83325,0.87315c-3.70731,1.22609 -7.49201,2.35895 -11.36911,2.82331c-15.36728,1.84054 -39.51424,5.81863 -50.57722,-7.39297c0,0 -2.41686,-3.0211 0.60422,-5.43798c3.0211,-2.41688 5.43797,0.60423 5.43797,0.60423c3.46121,4.65222 9.23457,5.87891 14.88636,5.84363c12.99287,-0.08111 26.11353,0.40798 38.57087,-3.7809l0.81971,-0.45333c0,0 3.46043,-1.73021 5.19066,1.73023z" fill="#000000" stroke-width="0.5"/></g></g><path d="M169.79176,239.62499c-2.1631,0.00695 -2.4606,-1.86372 -2.5015,-2.36802l-0.02646,0.1852c-0.15585,1.23096 -1.2068,2.18283 -2.48007,2.18283c-1.38071,0 -2.5,-1.11929 -2.5,-2.5v-4l0.00529,0l-0.00525,-0.01471c0.12636,-10.74891 1.24036,-21.44013 2.00631,-32.16341c0,0 0.17812,-2.49365 2.67176,-2.31553c2.1482,0.15344 2.31361,2.0253 2.31821,2.54098c0.56622,0.42406 0.94662,1.08268 0.99709,1.83173l0.38357,4.96306c1.54443,5.64514 0.20568,12.24045 0.61673,17.98065c0.23865,3.3327 0.8038,6.63829 0.99869,9.97384l0.00758,1.19536c0,0 0.00803,2.49999 -2.49196,2.50802z" fill="#ff0000" stroke-width="0.5"/><path d="M277.19347,268.55432c-2.42932,-0.59026 -1.83906,-3.01958 -1.83906,-3.01958l1.13288,-4.66067c0.52456,-2.58254 1.07256,-5.15724 1.65001,-7.72374c-0.10015,-1.32456 0.144,-2.68922 0.14643,-4.02533c0.00489,-2.68966 0.23926,-5.46059 0.67394,-8.23756c0.48933,-6.77909 1.26052,-13.56193 2.36007,-20.17344c0,0 0.411,-2.46598 2.87698,-2.05499c0.88,0.14667 1.39363,0.55503 1.69031,1.01963l0.54805,-1.40679c0.34873,-0.96063 1.26955,-1.64686 2.35065,-1.64686c1.38071,0 2.5,1.11929 2.5,2.5v5h-0.04812c0.00911,0.12358 0.01594,0.24748 0.02032,0.37174c0.06309,1.78949 -1.03119,3.42954 -1.55319,5.14237c-0.83124,2.72751 -1.73785,5.43259 -2.51607,8.1757c-1.39862,4.92995 -2.65709,9.87231 -3.80438,14.84575c-0.0131,0.49448 -0.02478,0.98835 -0.03507,1.48153l-0.06392,3.0291c-0.01735,0.95763 -0.57315,1.78376 -1.37745,2.18843c-0.18237,0.86637 -0.36181,1.73393 -0.53845,2.60276l-1.15437,4.75288c0,0 -0.59026,2.42932 -3.01958,1.83906z" fill="#ff0000" stroke-width="0.5"/></g></g></svg>