<svg version="1.1" xmlns="http://www.w3.org/2000/svg" xmlns:xlink="http://www.w3.org/1999/xlink" width="1540.31182" height="1597.06383" viewBox="0,0,1540.31182,1597.06383"><g transform="translate(330.13427,859.41025)"><g data-paper-data="{&quot;isPaintingLayer&quot;:true}" fill-rule="nonzero" stroke="none" stroke-linecap="butt" stroke-linejoin="miter" stroke-miterlimit="10" stroke-dasharray="" stroke-dashoffset="0" style="mix-blend-mode: normal"><path d="M119.9789,601.52493c0,0 -178.05421,-143.82347 -214.6925,-256.78054c-36.85791,-113.63417 -5.80003,-423.00533 -5.80003,-423.00533l1090.19865,-781.14931l220.49253,679.78586z" data-paper-data="{&quot;index&quot;:null}" fill="#1c261a" stroke-width="0"/><path d="M7.92688,731.92862c-95.04932,65.5722 -111.37328,-453.7773 -111.37328,-453.7773l660.61565,-201.46596l13.20005,325.90345c0,0 -364.21572,192.58808 -562.44242,329.33981z" data-paper-data="{&quot;index&quot;:null}" fill="#10140e" stroke-width="0"/><path d="M641.50239,173.69655c-1.38071,0 -2.5,-1.11929 -2.5,-2.5c0,-1.38071 1.11929,-2.5 2.5,-2.5c1.38071,0 2.5,1.11929 2.5,2.5c0,1.38071 -1.11929,2.5 -2.5,2.5z" data-paper-data="{&quot;index&quot;:null}" fill="#252525" stroke-width="0.5"/><path d="M-330.13427,57.50003c0,-6.90356 5.59644,-12.5 12.5,-12.5c6.90356,0 12.5,5.59644 12.5,12.5c0,6.90356 -5.59644,12.5 -12.5,12.5c-6.90356,0 -12.5,-5.59644 -12.5,-12.5z" fill="#262429" stroke-width="0.5"/><path d="M313.29425,159.73261v-203.88714h203.06169v203.88714z" fill="#10140e" stroke-width="0"/><g><g><path d="M468.04485,255.37972c0,7.6953 0.30887,14.14961 -2.0865,21.537c-5.7766,13.85011 -20.86284,22.97718 -34.67945,27.24988c-9.03511,2.79406 -18.68081,4.8921 -27.92618,6.51686c-4.41622,0.77609 -8.96771,0.05582 -13.45161,0.05582c-15.75704,0 -30.50556,-1.72901 -46.14215,-3.68371c-9.16722,-1.38225 -20.4126,-5.43625 -28.23562,-10.70078c-0.79411,-0.5344 -7.99437,-7.95866 -8.65498,-8.5455c-3.9222,-3.48419 -5.77663,-3.0599 -8.40588,-8.79425c-2.64283,-5.76394 -0.86336,-11.86369 -0.35458,-17.68175c0.20175,-2.30701 -0.43391,-4.6921 0.09461,-6.94681c2.41241,-10.29163 10.03527,-19.22759 14.71577,-28.63436c-0.13931,-0.04629 -0.27856,-0.0927 -0.41776,-0.13925c-20.01637,-7.78081 -38.31917,-16.61144 -50.29306,-35.51957c-3.84206,-6.06704 -5.69306,-15.11067 -7.69378,-21.90738c-6.64404,-22.57078 -6.97048,-48.20265 0.83236,-70.76631c0.77993,-22.03569 5.9236,-45.05225 -4.32119,-65.49314l-1.92996,-5.75548c0,0 -0.53405,-1.60219 0.06683,-3.1375c-1.11949,-0.65887 -2.84776,-2.19024 -1.88956,-5.06482c1.36707,-4.1012 5.46826,-2.73413 5.46826,-2.73413c9.41033,3.18013 16.55623,9.03682 26.2502,11.79226l0.6104,-0.06564c0.27228,-0.23286 0.4676,-0.35494 0.4676,-0.35494c13.56982,-8.47656 26.58342,-17.72388 39.89639,-26.59985c4.91619,-3.27769 9.77406,-7.59537 15.1363,-10.05192c4.12494,-1.88972 8.79776,-2.4781 12.81614,-4.58494c8.20587,-4.30234 15.95659,-8.56743 25.15309,-10.4359l4.15401,-0.01753c0.71256,-0.10272 1.3879,0.00271 1.91006,0.14688c0.54166,0.13126 1.20516,0.37709 1.7905,0.83749c13.15588,7.71007 21.96376,20.50876 35.00518,28.85983l2.39337,1.17647c11.55589,-3.37534 22.30412,-10.02965 31.71807,-17.52898c11.33469,-9.02944 23.22408,-20.42932 38.28702,-20.78613h3.64548c0,0 0.81671,0 1.74016,0.35499c0.51678,-0.22091 1.14401,-0.35499 1.9053,-0.35499c4.32304,0 4.32304,4.32304 4.32304,4.32304c0,1.27761 0.01153,15.66234 -0.0418,16.09285c-1.05935,8.55266 -4.21804,16.73767 -6.35009,25.11805c13.46795,-0.15744 27.05111,-0.69355 40.28269,1.9411l4.04711,1.87786c1.28086,0.30849 2.02797,1.08648 2.46372,1.8891c0.52679,0.75411 0.89001,1.77959 0.58129,3.07643c-0.39519,7.57173 -4.1557,14.32789 -6.5834,21.57828c-3.03111,9.0524 -5.92662,18.55506 -8.5667,27.69024c-4.29208,14.85143 -1.92385,33.06652 -9.87847,46.65305c-3.80052,9.42635 -4.35134,19.38415 -5.02882,29.37192c-0.41053,6.05242 -1.82477,11.51271 -1.85365,17.60913l-1.94727,6.96759c0,0 -0.84054,2.94186 -3.58226,3.16866c-5.16729,15.97127 -13.51168,30.65977 -26.4364,42.29913c-4.61816,5.20717 -10.14343,9.23954 -16.20694,12.33701c6.48087,7.13322 7.20316,15.23376 7.20316,25.76469zM309.08763,251.68247c-0.7441,1.60277 -2.08049,2.96693 -2.47036,4.69048c-0.42751,1.88995 0.24676,3.8806 0.09461,5.81232c-0.32549,4.13234 -2.21135,9.15629 -0.35458,13.30472c1.29812,2.90027 3.98179,3.836 6.17598,5.78763c2.74904,2.44513 4.6767,5.83601 7.74963,7.85911c6.75545,4.44752 16.70458,8.2966 24.62365,9.34929c15.27467,1.90919 29.60912,3.60721 44.99453,3.60721c4.02226,0 8.11449,0.8035 12.06667,0.05582c8.87725,-1.67941 18.0469,-3.57749 26.75583,-6.24227c10.68796,-3.27034 24.93975,-10.81466 29.11622,-21.96393c2.13843,-6.18936 1.55896,-12.03194 1.55896,-18.56314c0,-9.30843 0.15947,-16.06966 -7.15755,-22.0861c-9.05899,3.20849 -18.84147,4.80265 -28.33863,5.43857c-34.25686,2.29377 -69.59917,-0.67787 -102.64382,-10.37259c-3.74901,8.03201 -8.40832,15.21773 -12.17116,23.32288zM514.1588,83.22522c2.812,-14.13469 7.42447,-28.71248 12.00218,-42.50376c1.81016,-5.45346 5.3174,-11.39207 6.02742,-17.11805l-0.05053,-0.02862c-14.34705,-2.88312 -29.23957,-1.73878 -43.80917,-1.73878c-1.50137,0 -2.48132,-0.52143 -3.12094,-1.2021c-0.68067,-0.63962 -1.2021,-1.61957 -1.2021,-3.12094c0,-0.20311 0.00955,-0.3967 0.02774,-0.58119l0.05622,-1.17801c1.94784,-9.7392 6.00892,-19.09809 7.24876,-28.91553c0.44176,-3.4981 0.23497,-7.03564 0.078,-10.5706h-3.08769c-2.84641,-0.10349 -5.63131,1.14759 -8.21863,2.33861c-9.37999,4.31788 -16.51614,10.09353 -24.69002,16.57105c-10.47117,8.29803 -22.3267,15.51519 -35.16761,19.20144c0,0 -0.88809,0.25374 -1.96057,0.11615c-1.5546,0.30804 -2.9831,-0.40621 -2.9831,-0.40621l-4.04576,-2.05031c-6.09344,-3.91281 -7.41771,-4.50308 -13.2955,-9.51979c-7.57986,-6.46942 -12.47246,-13.9384 -21.06237,-18.96582l-2.98267,-0.0152c-8.0616,1.57279 -15.06843,5.89925 -22.23799,9.61417c-3.99115,2.06802 -8.60371,2.68241 -12.70214,4.52871c-5.04113,2.27098 -9.5965,6.43683 -14.22139,9.51986c-13.38428,8.92219 -26.47199,18.20953 -40.10994,26.73772c0,0 -0.44792,0.27996 -1.12849,0.48757c-1.26969,1.0809 -2.98545,1.0809 -2.98545,1.0809l-3.92172,-0.16633c-5.5666,-1.598 -8.4975,-2.13309 -13.73525,-4.97097c-1.51465,-0.82065 -2.83244,-1.64587 -4.0972,-2.44575l0.2299,0.69428c7.483,15.0009 7.33076,30.96041 6.28917,47.06144c0.19376,-0.3796 0.38824,-0.75887 0.58358,-1.13774c-0.20872,6.45519 -0.03514,12.91869 0.07771,19.38164c-0.73109,1.66525 -1.40812,3.35532 -2.03228,5.06679c-0.02248,1.09466 -0.03394,2.18815 -0.03227,3.28022c0,0 0,2.79268 -2.24461,3.88885c-5.28256,19.37077 -4.38067,40.75435 1.1608,59.60941c1.79316,6.10129 3.41027,14.60045 6.8881,20.01549c10.95533,17.05758 27.63594,24.65564 45.73534,31.69738c34.42652,11.4982 71.75141,14.9609 107.90242,12.62316c8.25709,-0.53395 16.92355,-1.84051 24.97536,-4.54413c1.35437,-2.11198 3.38098,-2.00592 4.55612,-1.71348c6.87781,-2.88454 13.12159,-6.95494 18.02341,-12.64289c24.91945,-22.31387 31.29576,-56.89539 31.33719,-88.97756c1.56508,-1.90291 3.03422,-5.34357 4.27503,-9.14355c1.69534,-1.83713 2.99746,-4.04266 3.77266,-6.48289c0.07097,0.83274 0.13484,1.66717 0.19203,2.50314c2.84748,-8.13227 2.01303,-17.46723 3.68624,-25.87778z" fill="#000000" stroke-width="0.5"/><path d="M309.00263,251.66658c3.76284,-8.10516 8.43317,-15.31973 12.18218,-23.35175c33.04465,9.69472 68.53361,12.66427 102.79048,10.3705c9.49716,-0.63592 19.2855,-2.21941 28.34449,-5.4279c7.31702,6.01644 7.16476,12.80265 7.16476,22.11109c0,6.53119 0.57965,12.3947 -1.55878,18.58406c-4.17647,11.14927 -18.442,18.73147 -29.12997,22.00182c-8.70893,2.66479 -17.91027,4.59165 -26.78752,6.27107c-3.95217,0.74768 -8.06781,-0.04747 -12.09006,-0.04747c-15.38541,0 -29.80185,-1.72567 -45.07652,-3.63486c-7.91908,-1.05269 -17.88406,-4.92807 -24.63951,-9.37559c-3.07294,-2.02309 -5.00412,-5.42567 -7.75316,-7.8708c-2.19418,-1.95163 -4.87926,-2.89514 -6.17738,-5.79541c-1.85678,-4.14842 0.02841,-9.1874 0.3539,-13.31974c0.15215,-1.93172 -0.52158,-3.92893 -0.09407,-5.81888c0.38987,-1.72354 1.72712,-3.09337 2.47122,-4.69615z" data-paper-data="{&quot;noHover&quot;:false,&quot;origItem&quot;:[&quot;Path&quot;,{&quot;applyMatrix&quot;:true,&quot;segments&quot;:[[[198.90219,248.3042],[0,0],[-0.43031,0.92688]],[[197.47359,251.01669],[0.22546,-0.99672],[-0.24723,1.09295]],[[197.5283,254.37794],[0.08799,-1.11711],[-0.18823,2.38972]],[[197.32325,262.07202],[-1.07377,-2.39902],[0.7507,1.67722]],[[200.8948,265.41899],[-1.26889,-1.12862],[1.58976,1.41401]],[[205.37639,269.96389],[-1.77707,-1.16995],[3.90666,2.57199]],[[219.61618,275.37056],[-4.57958,-0.60877],[8.8333,1.10408]],[[245.63639,277.4566],[-8.89734,0],[2.32606,0]],[[252.61451,277.48888],[-2.28553,0.43238],[5.13369,-0.9712]],[[268.08733,273.87899],[-5.03635,1.54104],[6.18082,-1.89123]],[[284.92516,261.17731],[-2.41524,6.44759],[1.23665,-3.57929]],[[285.8267,250.4423],[0,3.77697],[0,-5.38304]],[[281.68751,237.66997],[4.23141,3.47929],[-5.23879,1.85546]],[[265.29936,240.81508],[5.49218,-0.36775],[-19.81065,1.32648]],[[205.94072,234.81664],[19.10963,5.60643],[-2.16804,4.64489]],[[198.90217,248.3042],[2.17604,-4.68719],[0,0]]],&quot;closed&quot;:true,&quot;fillColor&quot;:[0,0,0],&quot;strokeWidth&quot;:0.5}]}" fill="#667eff" stroke-width="0.25"/><path d="M514.24404,83.21066c-1.67321,8.41055 -0.83763,17.76422 -3.68511,25.89649c-0.05719,-0.83597 -0.12099,-1.67227 -0.19196,-2.50501c-0.77521,2.44023 -2.07762,4.65084 -3.77296,6.48798c-1.24082,3.79998 -2.71092,7.24812 -4.276,9.15104c-0.04143,32.08217 -6.45317,66.71955 -31.37262,89.03342c-4.90182,5.68796 -11.15795,9.7656 -18.03576,12.65014c-1.17514,-0.29244 -3.20461,-0.39718 -4.55899,1.71479c-8.05181,2.70363 -16.73401,4.01531 -24.99109,4.54925c-36.15101,2.33774 -73.54426,-1.13851 -107.97077,-12.63672c-18.09939,-7.04174 -34.80274,-14.66324 -45.75808,-31.72082c-3.47783,-5.41504 -5.10087,-13.92481 -6.89403,-20.0261c-5.54148,-18.85506 -6.45156,-40.27374 -1.169,-59.6445c2.24461,-1.09617 2.24459,-3.89137 2.24459,-3.89137c-0.00168,-1.09207 0.00984,-2.18772 0.03232,-3.28238c0.62416,-1.71147 1.30137,-3.40496 2.03247,-5.07021c-0.11285,-6.46296 -0.28458,-12.93895 -0.07586,-19.39414c-0.19533,0.37887 -0.38999,0.75893 -0.58375,1.13853c1.04159,-16.10103 1.20262,-32.08409 -6.28039,-47.08499l-0.22976,-0.69452c1.26476,0.79988 2.58251,1.62517 4.09717,2.44582c5.23776,2.83788 8.16936,3.37171 13.73596,4.96971l3.92231,0.16531c0,0 1.71659,-0.00138 2.98628,-1.08228c0.68057,-0.20761 1.12883,-0.48814 1.12883,-0.48814c13.63795,-8.52819 26.74782,-17.83925 40.1321,-26.76145c4.62489,-3.08303 9.19074,-7.25546 14.23187,-9.52643c4.09843,-1.8463 8.71984,-2.46477 12.71099,-4.53279c7.16957,-3.71492 14.19301,-8.04607 22.25461,-9.61886l2.98473,0.01485c8.58991,5.02741 13.49792,12.49544 21.07778,18.96487c5.87779,5.01671 7.21465,5.60826 13.30809,9.52107l4.04977,2.05113c0,0 1.43124,0.71491 2.98583,0.40687c1.07248,0.13759 1.96224,-0.1157 1.96224,-0.1157c12.84091,-3.68625 24.71504,-10.89575 35.18621,-19.19378c8.17388,-6.47752 15.31662,-12.2491 24.69661,-16.56698c2.58732,-1.19101 5.37468,-2.44037 8.22108,-2.33688l3.08877,0.00081c0.15696,3.53496 0.36659,7.07474 -0.07517,10.57283c-1.23985,9.81744 -5.29439,19.18232 -7.24223,28.92151l-0.05582,1.17841c-0.01819,0.18449 -0.02755,0.37828 -0.02755,0.5814c0,1.50137 0.52291,2.48289 1.20359,3.12251c0.63962,0.68067 1.62097,1.20365 3.12234,1.20365c14.5696,0 29.47178,-1.13092 43.81883,1.7522l0.05054,0.02864c-0.71002,5.72598 -4.21397,11.67078 -6.02413,17.12424c-4.57772,13.79128 -9.18292,28.39192 -11.99492,42.52661z" data-paper-data="{&quot;noHover&quot;:false,&quot;origItem&quot;:[&quot;Path&quot;,{&quot;applyMatrix&quot;:true,&quot;segments&quot;:[[[317.49428,150.88584],[0,0],[1.62617,-8.17405]],[[324.43511,126.30603],[-2.64728,7.97546],[1.04681,-3.15372]],[[327.92075,116.40671],[-0.4106,3.31132],[0,0]],[[327.89153,116.39016],[0,0],[-8.29686,-1.6673]],[[302.55681,115.38463],[8.42556,0],[-0.86824,0]],[[300.75198,114.68946],[0.36989,0.39363],[-0.39363,-0.36989]],[[300.05681,112.88463],[0,0.86824],[0,-0.11746]],[[300.07285,112.54853],[-0.01052,0.10669],[0,0]],[[300.10536,111.86729],[0,0],[1.12643,-5.63215]],[[304.2973,95.14552],[-0.717,5.6774],[0.25547,-2.02294]],[[304.34241,89.03257],[0.09077,2.04426],[0,0]],[[302.55681,89.03257],[0,0],[-1.64607,-0.05985]],[[297.804,90.38498],[1.49624,-0.68876],[-5.42442,2.49702]],[[283.52583,99.96797],[4.72693,-3.74593],[-6.05545,4.79873]],[[263.1885,111.07211],[7.42586,-2.13175],[0,0]],[[262.05471,111.13928],[0.62021,0.07957],[-0.89902,0.17814]],[260.32959,110.90437],[[257.98994,109.71868],[0,0],[-3.52382,-2.26277]],[[250.30119,104.21341],[3.39911,2.90115],[-4.38341,-3.74125]],[[238.12088,93.24553],[4.96752,2.90734],[0,0]],[[236.39601,93.23674],[0,0],[-4.662,0.90954]],[[223.53584,98.79659],[4.14614,-2.14833],[-2.30807,1.19593]],[[216.19023,101.41553],[2.37011,-1.06771],[-2.91527,1.3133]],[[207.96604,106.92084],[2.67456,-1.78291],[-7.74009,5.15968]],[[184.77057,122.38319],[7.88679,-4.93183],[0,0]],[[184.11797,122.66515],[0.39357,-0.12006],[-0.73426,0.62508]],[182.39149,123.29023],[[180.12357,123.19404],[0,0],[-3.21915,-0.92412]],[[172.18051,120.31934],[3.02898,1.64114],[-0.87592,-0.47458]],[[169.81111,118.90497],[0.73141,0.46257],[0,0]],[[169.94406,119.30647],[0,0],[4.3274,8.67498]],[[173.58107,146.52197],[0.60235,-9.31118],[0.11205,-0.21952]],[[173.91855,145.86402],[-0.11296,0.2191],[-0.1207,3.73302]],[[173.96349,157.07237],[-0.06526,-3.73751],[-0.42279,0.96301]],[[172.78823,160.00248],[0.36095,-0.98974],[-0.013,0.63304]],[[172.76957,161.89942],[-0.00097,-0.63154],[0,0]],[[171.47152,164.14833],[1.29805,-0.63391],[-3.05489,11.20206]],[[172.14281,198.62029],[-3.20462,-10.90383],[1.03698,3.52836]],[[176.12618,210.19519],[-2.01122,-3.1315],[6.33544,9.86435]],[[202.5748,228.5257],[-10.46683,-4.07222],[19.90876,6.64938]],[[264.97447,235.82564],[-20.90603,1.35191],[4.77505,-0.30878]],[[279.41765,233.19778],[-4.65634,1.5635],[0.78323,-1.22135]],[[282.05244,232.20688],[-0.67958,-0.16912],[3.97742,-1.66812]],[[292.47533,224.89553],[-2.83471,3.28933],[14.41085,-12.90405]],[[310.59754,173.44005],[-0.02396,18.55303],[0.90508,-1.10045]],[[313.06978,168.15236],[-0.71756,2.19752],[0.98041,-1.06241]],[[315.2515,164.40332],[-0.4483,1.41118],[0.04104,0.48157]],[[315.36255,165.85088],[-0.03307,-0.48344],[1.64669,-4.70287]],[[317.49429,150.88583],[-0.96761,4.8638],[0,0]]],&quot;closed&quot;:true,&quot;fillColor&quot;:[0,0,0],&quot;strokeWidth&quot;:0.5}]}" fill="#66ecff" stroke-width="0.25"/></g><path d="M294.44444,156.65624c0,-2.34721 1.90279,-4.25 4.25,-4.25c2.34721,0 4.25,1.90279 4.25,4.25c0,2.34721 -1.90279,4.25 -4.25,4.25c-2.34721,0 -4.25,-1.90279 -4.25,-4.25z" fill="#ffffff" stroke-width="0.5"/><path d="M393.44446,180.65624c0,-2.34721 1.90279,-4.25 4.25,-4.25c2.34721,0 4.25,1.90279 4.25,4.25c0,2.34721 -1.90279,4.25 -4.25,4.25c-2.34721,0 -4.25,-1.90279 -4.25,-4.25z" fill="#ffffff" stroke-width="0.5"/></g><g stroke-width="0.5"><path d="M239.78723,303.31576l3.09568,0.30111c0.07948,0.02976 0.15969,0.05818 0.24055,0.08549c4.28961,-1.96035 8.4538,-4.09628 12.43686,-6.39015c8.88815,-5.08369 17.90886,-11.29874 24.39485,-19.38439c15.82078,-19.72271 19.95116,-46.62586 21.325,-71.10145c0.31462,-5.60512 1.58687,-11.73621 1.00022,-17.28884c-0.6758,-6.39625 -2.40852,-13.46424 -3.52638,-19.78894c-1.36779,-7.82318 -4.1241,-15.37978 -6.78355,-22.83919c-6.22431,-17.45845 -13.35986,-33.84594 -23.40711,-49.42759c-4.57912,-7.10148 -8.64456,-15.40371 -15.26165,-20.92057c-8.65889,-7.21917 -17.82523,-13.72638 -27.30764,-19.78891c-18.98672,-10.88601 -39.81827,-17.13116 -60.70987,-23.18621c-10.066,-2.91745 -20.59285,-6.47696 -30.99028,-7.84394c-8.26216,-1.08625 -16.66459,-1.55936 -24.97721,-2.05396c-2.6971,-0.16047 -5.39048,-0.58448 -8.09073,-0.49109c-10.97052,0.37943 -22.19277,3.19818 -32.94882,5.19309c-8.16326,1.48257 -15.51146,5.3293 -23.34256,7.9764c-14.21383,4.80463 -30.22536,8.15711 -43.21415,15.94076c-9.05856,5.42842 -16.51979,12.75764 -23.87021,20.23575c-1.33969,1.36297 -2.88795,2.54541 -4.03152,4.07667c-5.90592,7.90803 -10.76901,17.32853 -15.52854,25.9205c-1.57512,4.74957 -3.65033,9.35793 -4.75897,14.23752c-0.60637,2.66893 -0.63751,5.43827 -1.0708,8.1407c-1.62096,10.10985 -2.97655,18.91274 -1.81045,29.18243c0.72809,6.41209 1.23217,12.78511 3.64498,18.84566c9.05768,22.75134 27.55895,41.27975 45.57944,57.07301c1.57169,1.5159 2.96294,3.24454 4.71507,4.5477c1.36104,1.01228 6.31956,2.85271 7.92279,3.49303c8.38548,3.34913 17.68133,3.03845 26.51328,2.67942c4.53085,-0.18419 8.4862,-2.00887 12.90986,-2.67938l1.52802,0.00323c0,0 3.18998,0.17931 3.88276,2.99285c1.4314,0.0829 2.86245,0.17039 4.29308,0.27035c-1.22518,-4.00161 -3.45066,-11.25788 -3.53076,-11.65529c-1.45486,-7.21785 -0.9799,-16.25737 -0.16264,-23.48903c1.24835,-11.04633 5.72651,-21.14529 10.54813,-31.01673c6.50047,-13.25707 15.15647,-25.86426 27.46892,-34.44751c3.53732,-2.46594 7.81091,-3.67006 11.58555,-5.75468c8.59667,-4.74768 17.06453,-10.18406 26.69222,-12.80175c6.35847,-1.72882 9.46031,-1.05494 15.91923,-0.70127c6.58635,0.36065 12.38449,0.88213 18.72146,2.52182c0,0 4.11413,1.06607 3.04805,5.18019c-1.06607,4.11413 -5.18019,3.04805 -5.18019,3.04805c-5.82994,-1.51273 -10.98082,-1.91198 -17.06638,-2.26346c-5.14656,-0.29725 -8.29282,-0.97069 -13.26728,0.43171c-8.94061,2.52054 -16.75421,7.60998 -24.75956,12.02635c-3.61204,1.99268 -7.71864,3.10783 -11.10273,5.46695c-10.97468,7.65066 -18.66811,19.2151 -24.42287,31.02656c-4.43125,9.05737 -8.61058,18.28409 -9.76129,28.42319c-0.72737,6.40898 -1.20133,14.52794 0.11556,20.90424c0.90972,4.40479 2.67434,8.58885 3.97892,12.89324c2.94312,9.71072 5.67377,19.29202 10.53433,28.27791c7.18737,13.28753 18.90812,24.68757 30.4586,34.1607c3.26396,1.50816 6.59715,2.87591 9.7868,4.53547c2.35328,1.22441 4.49928,2.90498 7.00413,3.77835c2.47015,0.86128 5.1545,0.89729 7.72945,1.35884c7.90498,1.41695 15.79471,2.27209 23.80831,2.88494c14.04734,1.0743 29.10459,2.30392 43.09745,-0.02719c10.83643,-1.80527 21.9043,-4.90868 32.44732,-9.07107c0.41887,-3.92861 4.45728,-3.7016 4.45728,-3.7016zM251.3978,311.50315c1.46891,1.29949 4.96418,4.1208 5.82292,5.98499c0.83893,1.82117 0.95612,3.89467 1.45655,5.83633c3.66841,14.23323 0.85518,30.42933 -8.52693,42.0981c-4.73869,5.89363 -11.54171,9.08794 -17.91586,12.63195c-1.8692,1.03927 -3.51872,2.46938 -5.45473,3.37819c-2.16125,1.01454 -4.61044,1.3001 -6.79719,2.25844c-6.04818,3.10793 -12.11248,3.29077 -18.75468,4.23564c-5.94517,0.84571 -11.98051,1.71949 -18.00349,1.84008c-11.05945,0.22141 -22.44453,-1.24696 -33.4798,-1.87124c-6.74885,-0.38178 -13.15831,-1.32068 -19.80083,-2.53269c-5.94865,-1.08542 -10.85102,-1.73211 -16.16425,-4.69759c-4.8994,-2.15817 -8.97253,-3.79858 -12.65535,-7.8439c-1.04734,-1.15042 -1.76169,-2.56736 -2.72235,-3.79109c-1.21327,-1.54552 -2.9343,-2.74419 -3.79469,-4.51064c-1.21963,-2.50401 -0.8841,-5.62512 -0.73107,-8.29026c0.24251,-4.22332 0.53624,-9.44007 2.50987,-13.38419c0.5311,-1.06135 1.66048,-1.72318 2.27652,-2.73759c1.12787,-1.85722 0.77432,-4.30037 1.53835,-6.33448c1.08661,-2.89299 3.30299,-5.0562 4.99862,-7.5527c1.34774,-1.98431 2.43507,-4.14225 3.84512,-6.08278c1.41496,-1.94728 2.74241,-4.04053 4.61224,-5.55636c0.09211,-0.07467 0.18619,-0.14617 0.28205,-0.2148c-2.66963,-1.41003 -5.17691,-2.74589 -6.97242,-3.59127c-12.87706,-10.17301 -25.54567,-22.84479 -33.47291,-37.38622c-4.15685,-7.62516 -6.85623,-15.691 -9.37231,-23.89507l-1.78422,0.32354c-2.93964,-0.13671 -5.87672,-0.29845 -8.81485,-0.46361c0,0 -2.62198,-0.14739 -3.62795,-2.27151c-3.45791,0.81041 -6.79297,1.97811 -10.50716,2.14965c-13.09321,0.6047 -28.48238,0.41549 -39.67136,-7.70083c-2.0627,-1.49624 -3.71465,-3.48929 -5.57198,-5.23395c-18.94664,-16.59883 -38.35691,-36.26346 -47.75455,-60.22845c-5.01852,-12.79775 -5.56408,-27.99075 -4.37873,-41.52617c0.32469,-3.70757 1.46502,-7.29976 2.05785,-10.97401c0.46667,-2.89233 0.5291,-5.85333 1.18227,-8.70934c0.10617,-0.46425 5.08855,-15.24386 5.24521,-15.70976c3.22058,-6.0006 6.56996,-11.63613 10.26526,-17.35607c2.07117,-3.20594 4.3104,-7.67716 6.34562,-10.38887c1.34141,-1.78728 3.10997,-3.20987 4.67092,-4.80899c7.87845,-8.07104 16.00173,-15.87378 25.75528,-21.68515c13.48029,-8.03185 29.85992,-11.59269 44.59483,-16.56702c8.272,-2.79254 15.98307,-6.68414 24.59946,-8.31072c11.17788,-2.07315 22.80475,-4.93625 34.20506,-5.33054c2.96303,-0.10248 5.92039,0.33054 8.88033,0.50049c8.59745,0.49362 17.30105,1.00257 25.84184,2.14906c10.7535,1.44352 21.58505,5.05288 31.99606,8.07035c8.17893,2.37054 16.68592,4.26756 24.73161,7.04485c12.9225,4.4607 26.16933,10.26673 38.01258,17.03314c9.9461,6.35059 19.62784,13.16768 28.65644,20.80053c7.19129,6.07958 11.64583,14.80238 16.65632,22.57541c10.39918,16.13278 17.8301,33.10566 24.26977,51.17975c2.8234,7.92435 5.66562,15.91003 7.14715,24.21342c1.17084,6.62443 2.98041,14.08056 3.64112,20.7638c0.58418,5.90904 -0.66424,12.33006 -0.99862,18.27042c-1.47629,26.22647 -6.1667,54.90211 -23.19225,75.95675c-7.20984,8.91607 -16.95383,15.76297 -26.78258,21.42383c-3.09084,1.76885 -6.28001,3.45121 -9.54591,5.03856c0.47476,0.72852 0.8875,1.37349 1.15177,1.7806zM122.18021,320.02377c-1.12431,0.43982 -2.436,0.55811 -3.37295,1.31945c-1.55859,1.26646 -6.0888,8.9347 -6.6103,9.70271c-1.32795,1.95565 -3.30588,3.56944 -4.07306,5.80539c-1.08268,3.15543 -0.34902,4.30896 -2.0036,7.33443c-0.53783,0.98345 -1.65593,1.56902 -2.18161,2.55902c-0.42099,0.79285 -0.34191,1.76403 -0.57427,2.63114c-0.63837,2.3822 -0.86707,4.86805 -1.00177,7.33062c-0.01378,0.25191 -0.34014,3.74748 -0.04802,4.22934c0.67442,1.11246 1.89964,1.78773 2.72893,2.79007c0.89217,1.07833 1.49896,2.37712 2.41885,3.43191c2.72308,3.12244 6.45302,4.29202 10.14663,5.91904c4.52659,2.67106 8.69615,2.9815 13.86074,3.92416c2.92608,0.53408 9.31816,1.74614 12.05079,2.0366c6.78192,0.72087 13.71418,0.7656 20.52542,1.14847c6.26146,0.35197 12.78096,1.2153 19.05267,1.08169c5.64524,-0.12027 11.29568,-0.95493 16.86818,-1.74695c5.69696,-0.80971 11.23944,-0.73095 16.3501,-3.49867c2.37618,-1.01382 5.0099,-1.37431 7.33796,-2.49422c1.65076,-0.79408 3.01566,-2.08949 4.61085,-2.99002c5.35953,-3.0256 11.2634,-5.44931 15.27885,-10.46456c8.1843,-10.22211 10.79292,-26.40515 6.11985,-38.69259c-0.75527,-1.98591 -3.11881,-2.8863 -4.69259,-4.31371c-0.781,-1.15191 -1.43697,-2.72823 -2.34473,-3.87275c-12.33206,5.25767 -25.46998,9.15651 -38.35539,11.27982c-14.69582,2.42165 -30.37766,1.24529 -45.13471,0.11671c-8.30039,-0.63479 -16.50247,-1.48202 -24.68556,-2.9982c-2.99972,-0.55579 -6.11202,-0.6929 -8.99456,-1.69197c-0.58857,-0.204 -1.2461,-0.46515 -1.95513,-0.77022c-0.66049,0.6079 -1.32156,0.89326 -1.32156,0.89326z" fill="#000000"/><path d="M123.45683,319.10858c0.70904,0.30507 1.36663,0.5661 1.9552,0.77009c2.88255,0.99907 5.996,1.13394 8.99572,1.68973c8.18309,1.51617 16.39604,2.34998 24.69643,2.98477c14.75706,1.12858 30.51134,2.31212 45.20716,-0.10953c12.88541,-2.12333 26.0286,-6.01367 38.36066,-11.27135c0.90776,1.14452 1.565,2.72364 2.346,3.87554c1.57377,1.42741 3.93865,2.33135 4.69391,4.31726c4.67307,12.28744 2.06579,28.49703 -6.11852,38.71913c-4.01545,5.01526 -9.9233,7.45024 -15.28283,10.47584c-1.59518,0.90053 -2.96218,2.19975 -4.61294,2.99383c-2.32807,1.11991 -4.96519,1.48532 -7.34138,2.49914c-5.11067,2.76773 -10.66478,2.69973 -16.36173,3.50943c-5.5725,0.79201 -11.24255,1.63439 -16.88779,1.75467c-6.27169,0.13362 -12.81696,-0.73228 -19.07841,-1.08425c-6.81124,-0.38287 -13.76118,-0.43902 -20.5431,-1.15988c-2.73263,-0.29046 -9.13047,-1.50943 -12.05656,-2.04351c-5.16459,-0.94266 -9.33835,-1.26046 -13.86494,-3.93151c-3.6936,-1.62702 -7.42593,-2.80278 -10.14901,-5.92522c-0.91988,-1.05479 -1.52742,-2.35616 -2.41958,-3.4345c-0.82928,-1.00234 -2.055,-1.67977 -2.72942,-2.79222c-0.29212,-0.48188 0.03374,-3.98012 0.04752,-4.23203c0.13469,-2.46257 0.3629,-4.95319 1.00127,-7.3354c0.23236,-0.8671 0.15321,-1.84005 0.5742,-2.6329c0.52568,-0.99001 1.64378,-1.57734 2.18162,-2.56079c1.65457,-3.02546 0.92127,-4.18429 2.00396,-7.33972c0.76718,-2.23595 2.74591,-3.85437 4.07386,-5.81002c0.5215,-0.76801 5.05429,-8.44451 6.61288,-9.71096c0.93695,-0.76133 2.24946,-0.88153 3.37377,-1.32135c0,0 0.66156,-0.28638 1.32205,-0.89429z" data-paper-data="{&quot;noHover&quot;:false,&quot;origItem&quot;:[&quot;Path&quot;,{&quot;applyMatrix&quot;:true,&quot;segments&quot;:[[[124.68911,285.34231],[0,0],[-1.09786,0.50222]],[[121.39553,286.84898],[0.89275,-0.81272],[-1.48506,1.35193]],[[115.34019,296.90738],[0.47757,-0.79606],[-1.2161,2.0271]],[[111.59936,302.9322],[0.64049,-2.27548],[-0.90388,3.21122]],[[110.01055,310.36752],[1.48217,-3.11355],[-0.48179,1.01209]],[[107.97599,313.04494],[0.46929,-1.01795],[-0.37583,0.81523]],[[107.5503,315.70416],[0.18333,-0.87877],[-0.50367,2.41427]],[[106.96153,323.07945],[-0.00373,-2.46625],[0.00038,0.25229]],[[107.15095,327.30483],[-0.31871,-0.46472],[0.73579,1.07285]],[[110.03217,329.93734],[-0.88423,-0.95422],[0.95128,1.02656]],[[112.63981,333.2281],[-0.97763,-1.0015],[2.89403,2.96469]],[[123.10264,338.56836],[-3.77909,-1.41716],[4.66936,2.4128]],[[137.16175,341.70843],[-5.20935,-0.65132],[2.95144,0.36902]],[[149.30785,343.0655],[-2.74462,-0.13664],[6.81169,0.33912]],[[169.86537,343.06022],[-6.82199,0],[6.27134,0]],[[188.94871,343.07091],[-6.25431,0.48539],[5.62959,-0.43691]],[[205.69226,340.38004],[-5.51926,1.10351],[5.64254,-1.12816]],[[221.82023,335.96926],[-4.94728,3.05019],[2.31554,-1.14558]],[[229.00666,333.06715],[-2.26155,1.2488],[1.60359,-0.88548]],[[233.44243,329.82307],[-1.54213,0.98863],[5.18128,-3.32163]],[[248.1099,318.51751],[-3.72765,5.23271],[7.59771,-10.66533]],[[252.04858,279.54244],[5.35531,12.00581],[-0.86553,-1.94039]],[[247.12129,275.49889],[1.6514,1.33684],[-0.84442,-1.10626]],[[244.56291,271.76384],[0.97056,1.09177],[-12.01755,5.94149]],[[206.90102,285.17849],[12.74594,-2.84314],[-14.53675,3.2426]],[[161.84399,287.82811],[14.79714,0.29859],[-8.32293,-0.16795]],[[137.02908,286.22006],[8.25528,1.05452],[-3.02618,-0.38656]],[[127.95374,285.03556],[2.93407,0.83572],[-0.59909,-0.17064]],[[125.95845,284.37629],[0.72504,0.2648],[-0.62533,0.64401]]],&quot;closed&quot;:true}]}" fill="#10ff00"/><path d="M235.36101,307.05655c-10.54301,4.16239 -21.61878,7.27094 -32.45523,9.0762c-13.99286,2.3311 -29.06213,1.10591 -43.10947,0.03162c-8.01361,-0.61285 -15.91111,-1.46686 -23.81609,-2.88381c-2.57495,-0.46155 -5.26198,-0.49746 -7.73213,-1.35874c-2.50485,-0.87338 -4.65336,-2.55399 -7.00663,-3.77839c-3.18965,-1.65956 -6.52653,-3.02758 -9.79048,-4.53573c-11.55048,-9.47314 -23.28637,-20.87731 -30.47374,-34.16486c-4.86056,-8.98589 -7.60129,-18.57329 -10.54441,-28.28401c-1.30457,-4.30439 -3.07414,-8.49286 -3.98386,-12.89765c-1.31689,-6.37631 -0.84954,-14.5036 -0.12216,-20.91258c1.15071,-10.1391 5.32317,-19.38328 9.75442,-28.44065c5.75476,-11.81145 13.45903,-23.41727 24.43371,-31.06793c3.38411,-2.35913 7.50521,-3.48612 11.11724,-5.47881c8.00535,-4.41637 15.85528,-9.51023 24.79589,-12.03077c4.97446,-1.4024 8.13365,-0.72359 13.28021,-0.42634c6.08555,0.35148 11.24775,0.75988 17.07769,2.27262c0,0 4.03986,1.13304 5.10593,-2.98109c1.06607,-4.11413 -3.04475,-5.17679 -3.04475,-5.17679c-6.33697,-1.63969 -12.12321,-2.1529 -18.70955,-2.51354c-6.45892,-0.35367 -9.54678,-1.023 -15.90526,0.70582c-9.62768,2.61769 -18.06339,8.04868 -26.66007,12.79637c-3.77464,2.08462 -8.0358,3.27921 -11.57312,5.74514c-12.31246,8.58325 -20.95499,21.15115 -27.45545,34.40822c-4.82162,9.87143 -9.3055,19.95163 -10.55385,30.99796c-0.81726,7.23166 -1.29879,16.26174 0.15607,23.47959c0.0801,0.39742 2.30156,7.6496 3.52673,11.65122c-1.43062,-0.09995 -2.9298,-0.11427 -4.3612,-0.19717c-0.69277,-2.81354 -3.88446,-2.99457 -3.88446,-2.99457l-1.52838,-0.00361c-4.42365,0.67051 -8.38099,2.49291 -12.91184,2.6771c-8.83195,0.35904 -18.13189,0.6639 -26.51737,-2.68524c-1.60323,-0.64032 -6.56301,-2.48298 -7.92405,-3.49525c-1.75213,-1.30315 -3.14439,-3.03378 -4.71609,-4.54968c-18.02049,-15.79326 -36.52665,-34.34226 -45.58433,-57.0936c-2.41281,-6.06056 -2.91673,-12.43894 -3.64482,-18.85103c-1.16611,-10.26969 0.19087,-19.08062 1.81182,-29.19048c0.43329,-2.70242 0.46503,-5.47394 1.0714,-8.14287c1.10863,-4.87958 3.18523,-9.49187 4.76035,-14.24144c4.75953,-8.59197 9.62636,-18.01996 15.53229,-25.928c1.14357,-1.53124 2.69266,-2.71502 4.03235,-4.078c7.35044,-7.47812 14.8171,-14.81424 23.87567,-20.24267c12.98879,-7.78365 29.01067,-11.14454 43.2245,-15.94916c7.83109,-2.6471 15.18636,-6.49742 23.34962,-7.97998c10.75606,-1.99491 21.98887,-4.8167 32.95939,-5.19613c2.70025,-0.09339 5.39629,0.33024 8.0934,0.49072c8.31261,0.4946 16.72361,0.96745 24.98577,2.0537c10.39743,1.36697 20.93528,4.92836 31.0013,7.8458c20.8916,6.05506 41.7425,12.31082 60.72922,23.19682c9.4824,6.06253 18.65596,12.57767 27.31485,19.79684c6.61709,5.51686 10.68678,13.82603 15.26591,20.92752c10.04725,15.58165 17.18773,31.98498 23.41204,49.44343c2.65944,7.45942 5.41621,15.02284 6.784,22.84602c1.11786,6.3247 2.85026,13.39827 3.52606,19.79452c0.58666,5.55262 -0.68637,11.68849 -1.00099,17.29361c-1.37385,24.47559 -5.51228,51.39713 -21.33306,71.11983c-6.48599,8.08565 -15.512,14.30704 -24.40015,19.39072c-3.98306,2.29388 -8.14996,4.43236 -12.43957,6.3927c-0.08085,-0.02731 -0.16109,-0.05571 -0.24057,-0.08548l-3.09615,-0.30071c0,0 -4.03968,-0.22595 -4.45855,3.70265z" data-paper-data="{&quot;noHover&quot;:false,&quot;origItem&quot;:[&quot;Path&quot;,{&quot;applyMatrix&quot;:true,&quot;segments&quot;:[[241.17307,262.06022],[[244.28076,262.18712],[0,0],[0.08102,0.02526]],[[244.52573,262.25898],[-0.08225,-0.02273],[4.17283,-2.19801]],[[256.58435,255.18091],[-3.84804,2.5138],[8.58883,-5.5745]],[[279.85284,234.45796],[-6.02198,8.43692],[14.68895,-20.57953]],[[297.15383,162.27176],[0.00195,24.51412],[-0.00045,-5.61394]],[[297.18217,144.95405],[0.89737,5.51094],[-1.03371,-6.34824]],[[292.55075,125.39421],[1.47106,6.252],[-1.80469,-7.73409]],[[284.49609,102.97172],[3.07389,7.29841],[-7.19432,-17.08161]],[[258.35186,54.9357],[10.9059,14.99322],[-4.97046,-6.8333]],[[241.94015,34.90462],[6.91628,5.1368],[-9.0504,-6.72183]],[[213.56495,16.67948],[9.8077,5.5208],[-19.56774,-9.80326]],[[151.64949,-3.06299],[21.1985,4.87302],[-10.21387,-2.34792]],[[120.26783,-9.15531],[10.45776,0.78128],[-8.3101,-0.62084]],[[95.21472,-9.80423],[8.32727,0.02729],[-2.70186,-0.00885]],[[87.10918,-9.84048],[2.69076,-0.24479],[-10.93194,0.99452]],[[54.50374,-2.8064],[10.62714,-2.59543],[-8.06719,1.93837]],[[31.64563,6.46748],[7.67019,-3.08243],[-13.92178,5.59477]],[[-10.60578,24.8084],[12.53148,-8.50035],[-8.73963,5.92826]],[[-33.30269,46.35193],[6.91916,-7.87886],[-1.26109,1.43601]],[[-37.09906,50.64842],[1.05583,-1.59301],[-5.45279,8.22702]],[[-51.14841,77.39957],[4.26982,-8.84554],[-1.30608,4.83048]],[[-55.10083,91.88174],[0.83303,-4.93411],[-0.45563,2.69875]],[[-55.71306,100.0697],[0.28094,-2.72248],[-1.05101,10.18489]],[[-55.88286,129.30774],[-1.74063,-10.18806],[1.0868,6.36112]],[[-51.18595,147.91913],[-2.74914,-5.9156],[10.32027,22.20714]],[[-2.47526,202.34415],[-18.87845,-14.75701],[1.65429,1.4253]],[[2.48762,206.62006],[-1.82251,-1.20276],[1.41571,0.9343]],[[10.59396,209.66294],[-1.63664,-0.54934],[8.56022,2.87324]],[[37.21582,210.85014],[-8.79788,0.85414],[4.51337,-0.43818]],[[49.95496,207.45045],[-4.37905,0.91772],[0,0]],[51.48076,207.36792],[[55.52535,210.13813],[-0.84958,-2.77022],[1.4338,0.00243]],[[59.82684,210.16712],[-1.43397,-0.01951],[-1.44783,-3.92655]],[[55.64751,198.72836],[0.10228,0.3923],[-1.85765,-7.12483]],[[54.16686,175.28548],[-0.41011,7.26613],[0.62644,-11.09898]],[[62.95763,143.72565],[-4.26001,10.12648],[5.7462,-13.601]],[[88.44997,107.7908],[-11.81134,9.26073],[3.39335,-2.66057]],[[99.69429,101.39498],[-3.65169,2.29317],[8.31667,-5.22267]],[[125.62597,87.11536],[-9.4656,3.1539],[6.25142,-2.08295]],[[141.48076,85.52176],[-6.46859,0.00938],[6.59621,-0.00956]],[[160.31425,86.98891],[-6.41901,-1.28146],[0,0]],[[163.64823,91.98987],[0.83349,-4.16747],[-0.83349,4.16747]],[[158.64726,95.32385],[0,0],[-5.90565,-1.18316]],[[141.48076,94.02176],[6.09569,0.00939],[-5.15513,-0.00794]],[[128.25862,95.19739],[4.88791,-1.67937],[-8.78506,3.01834]],[[104.21303,108.59435],[7.74487,-4.85869],[-3.49451,2.19226]],[[93.43462,114.6758],[3.24637,-2.54533],[-10.52801,8.25453]],[[70.79153,147.02414],[5.0828,-12.11581],[-3.91594,9.29179]],[[62.64081,175.95036],[0.57986,-10.1877],[-0.36653,6.4397]],[[63.9294,196.81517],[-1.67267,-6.29235],[1.15549,4.34679]],[[68.62565,209.46478],[-1.54409,-4.22439],[3.48348,9.53024]],[[80.73041,237.10691],[-5.35721,-8.69894],[7.92177,12.86322]],[[113.05819,269.50434],[-12.06393,-8.80996],[3.34346,1.3226]],[[123.0841,273.48341],[-3.27776,-1.47794],[2.41829,1.09041]],[[130.28924,276.86272],[-2.54992,-0.73142],[2.51459,0.72129]],[[138.08278,277.78562],[-2.5968,-0.31631],[7.97204,0.97107]],[[162.01548,279.32984],[-8.03538,-0.16214],[14.08549,0.28423]],[[205.04348,276.88394],[-13.83998,3.11275],[10.71804,-2.41059]],[[236.93056,266.00615],[-10.29279,4.74753],[0.19772,-3.94592]]],&quot;closed&quot;:true}]}" fill="#ffffff"/></g><path d="M134.50383,207.03314c0.09779,0.3578 0.15001,0.73443 0.15001,1.12324c0,1.71996 -1.0217,3.20129 -2.49129,3.87018c-1.52487,4.50684 -3.71743,8.76975 -6.63698,12.48627c-1.11815,1.42338 -1.98853,3.24717 -3.60568,4.06025c-1.6025,0.80571 -3.57128,0.34986 -5.3622,0.44868c-5.27494,0.29107 -10.63789,0 -15.92308,0c0,0 -4.25,0 -4.25,-4.25c0,-4.25 4.25,-4.25 4.25,-4.25c4.38461,0 8.76923,0 13.15385,0c0.89087,0 1.78632,-0.08862 2.67308,-0.00928v-1.27918c0,-10.10413 -0.23754,-20.71175 3.01175,-30.35165c2.02814,-0.99176 3.83221,-2.81866 6.08441,-2.97527c2.92491,-0.20338 7.62363,3.60462 8.77264,6.08513c0.1414,0.30525 0.23514,1.65049 0.2891,3.17424c1.41903,1.25286 1.41903,3.29832 1.41903,3.29832l-0.44869,2.59297c-0.47376,0.94606 -0.94671,1.89119 -1.41915,2.83577c-0.05788,0.35672 -0.11942,0.71305 -0.18465,1.06887z" fill="#000000" stroke-width="0.5"/><path d="M217.58075,210.49468c0.09779,0.3578 0.15001,0.73442 0.15001,1.12324c0,1.71996 -1.0217,3.20129 -2.4913,3.87018c-1.52487,4.50684 -3.71743,8.76976 -6.63698,12.48628c-1.11815,1.42338 -1.98853,3.24716 -3.60568,4.06025c-1.6025,0.80571 -3.57128,0.34987 -5.3622,0.44869c-5.27494,0.29107 -10.63789,0 -15.92308,0c0,0 -4.25,0 -4.25,-4.25c0,-4.25 4.25,-4.25 4.25,-4.25c4.38461,0 8.76924,0 13.15385,0c0.89086,0 1.78631,-0.08862 2.67308,-0.00928v-1.27919c0,-10.10413 -0.23755,-20.71175 3.01174,-30.35165c2.02813,-0.99176 3.83221,-2.81867 6.08441,-2.97527c2.92491,-0.20338 7.62363,3.60463 8.77264,6.08513c0.1414,0.30525 0.23514,1.65049 0.2891,3.17424c1.41903,1.25286 1.41904,3.29832 1.41904,3.29832l-0.44869,2.59296c-0.47376,0.94606 -0.94671,1.8912 -1.41915,2.83578c-0.05788,0.35672 -0.11942,0.71305 -0.18465,1.06886z" fill="#000000" stroke-width="0.5"/><path d="M228.71153,275.21407c4.25,0 4.25,4.25 4.25,4.25l-0.12689,2.41539c-1.33006,5.32026 -1.54839,8.11822 -7.17415,11.1292c-5.13777,2.74979 -13.40607,1.00373 -18.82928,0.37703c-5.66539,-0.65468 -11.55579,0.55849 -17.23945,0.0062c-7.95545,-0.77304 -15.84997,-0.67783 -23.88023,-0.67783c-8.08393,0 -16.43715,0.60108 -24.49485,-0.00821c-4.89017,-0.36978 -9.75481,-1.03752 -14.62492,-1.39088c-3.65388,-0.26512 -7.33394,0.23213 -10.99046,0.00627c-6.46383,-0.39926 -15.98218,-0.57511 -20.97155,-5.64006c-1.23472,-1.25342 -1.3693,-3.27283 -1.67483,-5.00552c-0.58805,-3.33487 -0.03184,-7.47698 -0.03184,-10.90389c0,0 0,-4.25 4.25,-4.25c4.25,0 4.25,4.25 4.25,4.25c0,0.41538 0,6.23077 0,6.23077c-0.00544,1.21156 0.06151,2.4266 -0.03184,3.63457c-0.01559,0.20168 -0.47198,0.44418 -0.29022,0.53294c7.95162,3.88296 17.63924,2.07199 26.19183,2.6739c4.81231,0.33868 9.62079,1.00002 14.452,1.37835c7.87041,0.61632 16.06753,-0.00821 23.96668,-0.00821c8.25915,0 16.39584,-0.13738 24.58131,0.70679c5.72772,0.5907 11.64512,-0.60828 17.37593,0.0062c3.57042,0.38283 6.30696,0.65999 9.96583,0.67162c1.92044,0.00611 4.81039,0.43512 6.11541,-1.50682c0.80978,-1.20499 0.48629,-2.8655 0.8384,-4.27395l-0.12689,-0.35384c0,0 0,-4.25 4.25,-4.25z" fill="#000000" stroke-width="0.5"/></g></g></svg>