<svg version="1.1" xmlns="http://www.w3.org/2000/svg" xmlns:xlink="http://www.w3.org/1999/xlink" width="196.10977" height="241.03338" viewBox="0,0,196.10977,241.03338"><g transform="translate(-141.94511,-59.48331)"><g data-paper-data="{&quot;isPaintingLayer&quot;:true}" fill-rule="nonzero" stroke="none" stroke-width="0.5" stroke-linecap="butt" stroke-linejoin="miter" stroke-miterlimit="10" stroke-dasharray="" stroke-dashoffset="0" style="mix-blend-mode: normal"><path d="M182.17622,177.61255c-0.30191,-0.12095 -0.61351,-0.32269 -0.92511,-0.63429c-1.76777,-1.76777 0,-3.53553 0,-3.53553l2.32332,-1.28779c0.76998,0.0037 1.54064,-0.00109 2.31194,-0.0126c0.19284,-0.0315 0.40221,-0.03782 0.62876,-0.01083c7.92303,-0.15435 15.91067,-0.96678 23.89564,-0.52485c9.5537,0.52875 19.14352,1.10384 28.71921,1.10384c8.14815,0 16.2963,0 24.44444,0c6.29125,0 12.50968,-0.35876 18.65101,1.27388c7.67144,2.03941 15.13278,4.52037 22.37313,7.8344c3.11854,1.42741 5.51021,3.33556 8.65958,4.63093c5.00461,3.13749 10.37252,7.42341 13.96971,12.2433c2.22605,2.98269 3.46808,6.62391 4.78882,10.05873c5.39285,14.02507 7.17132,29.15069 5.34357,44.15903c-0.74277,6.09916 -2.21774,12.13661 -2.98478,18.25573c-1.67663,7.60185 -9.19509,13.06327 -15.67182,16.77015c-6.53899,3.74252 -13.31799,6.50605 -20.38045,9.06574c-2.14139,0.77612 -4.04504,2.15849 -6.22559,2.8166c-3.01881,0.9111 -6.5687,0.66781 -9.63431,0.66927c-7.26782,0.00347 -14.48986,-0.55474 -21.76411,-0.55746c-12.81583,-0.99529 -25.65444,-0.68963 -38.41311,-1.67106c-2.39072,-0.1839 -4.86048,-0.92944 -7.2512,-1.11334c-2.57532,-0.1981 -5.17239,0.18576 -7.7488,0.00223c-10.9371,-0.77909 -22.09359,-2.56045 -32.96117,-3.90875c-7.76937,-1.29407 -15.95156,-2.00784 -22.33547,-7.20717c-2.56848,-2.09188 -5.68125,-5.67178 -6.87217,-8.84735c-0.40662,-1.08424 -0.22062,-2.3255 -0.58698,-3.424c-0.74199,-2.2248 -2.0796,-4.3063 -2.3326,-6.63788c-1.13397,-10.45037 1.6142,-22.45683 6.96299,-31.44937c7.47802,-14.93384 17.42074,-28.54709 24.36468,-43.73051c2.34965,-5.13769 5.95003,-9.43469 8.65084,-14.33108z" fill="#006bff"/><path d="M181.08546,179.92843c-3.965,-3.3222 -8.12431,-6.38854 -10.33786,-11.45108c-1.82364,-4.1708 -2.40131,-8.31149 -3.47725,-12.62126c-0.50088,-2.0063 -1.51837,-3.89878 -1.7393,-5.95482c-0.51422,-4.78554 -0.16409,-9.70933 -1.11111,-14.44444c-0.02467,-6.13158 -0.51802,-12.42733 0.58435,-18.47482c2.24947,-12.34035 7.30709,-23.95867 8.86723,-36.52605c0.70808,-5.70378 1.56478,-10.92896 3.38441,-16.39005c0.48032,-1.44152 0.26291,-3.54425 1.59842,-4.26888c1.59048,-0.86297 3.60561,0.3114 5.40841,0.4671c7.355,7.91098 15.35815,15.38888 23.3214,22.68887c3.10063,2.84238 5.38637,5.90703 8.3136,8.82306c0.84922,0.84598 1.96678,1.39334 2.80517,2.25005c0.65814,0.67251 1.14384,2.81761 1.81714,2.16027c1.9279,-1.88218 2.71413,-4.728 4.61993,-6.63255c2.02979,-2.02846 4.63214,-3.39148 6.8727,-5.18441c3.86119,-3.08978 7.63598,-6.21023 11.75277,-8.95476c1.78191,-1.42287 3.65591,-2.7382 5.60398,-3.92342c1.45121,-0.88293 2.66803,-2.94738 4.34323,-2.66582c2.20168,0.37005 3.49354,2.78395 5.16505,4.26394c4.19954,3.71838 7.52626,8.55159 10.7232,13.11696c2.49404,3.56159 5.17169,7.08058 7.54771,10.72156c0.27687,0.42427 0.17557,1.46946 0.67102,1.36369c1.15086,-0.2457 1.83348,-1.4846 2.82967,-2.11106c2.20923,-1.3893 4.47618,-2.70864 6.85389,-3.78445c7.8977,-3.57337 16.81859,-7.61501 25.39757,-9.03755c2.40785,-0.97802 8.20785,-4.21168 10.41564,-3.96359c6.51132,0.7317 4.62544,9.39775 5.48723,13.65861c1.34765,6.66308 0.62493,12.97983 1.14749,19.68839c0.79007,10.14276 0.62384,20.4226 0.53544,30.6468c-2.14341,6.57503 -3.52992,13.04052 -6.95497,19.15769c-0.18937,0.33821 -3.13747,4.18561 -3.4719,4.66356c-2.71542,3.88079 -5.14983,7.82647 -8.73618,11.00026c-1.71713,1.5196 -3.91267,2.39217 -5.87923,3.57133c-4.86945,2.91974 -9.51498,6.39689 -14.85246,8.53664c-3.426,1.37346 -7.30012,2.25143 -10.82019,3.41965c-5.76243,1.16218 -11.29499,1.85618 -17.15299,2.30114c-2.91266,0.22124 -5.89114,-0.26953 -8.79789,-0.00734c-4.09492,0.36937 -8.14777,1.30292 -12.26236,1.67032c-9.52627,0.8506 -19.53099,0.00852 -29.09509,0.00852c-8.24255,0 -30.57176,-14.37951 -31.37787,-17.78206z" fill="#66ecff"/><path d="M200.5977,143.20225c-0.06381,0.0054 -0.12946,0.00903 -0.19701,0.01078c-0.00622,0.14062 -0.01511,0.2812 -0.02696,0.42175c-0.0265,0.31434 0.08877,0.01929 0.22396,-0.43253zM196.49507,128.96506c0.34685,-2.31017 1.29069,-4.779 3.9077,-5.00055c1.73041,-0.14649 3.09925,1.73832 4.2019,3.07994c0.67794,0.82486 0.60636,2.04823 0.86436,3.0843c0.90395,3.63006 1.65289,9.53718 0.26788,13.11376c-0.62062,1.60266 -1.06241,3.68474 -2.60014,4.45224c-6.18428,3.08664 -6.34748,-0.94373 -7.40083,-4.64396c-1.4068,-4.94179 -0.42646,-9.31863 0.75914,-14.08574z" fill="#000000"/><path d="M258.697,133.18326c0.14318,-0.7214 0.37281,-1.38964 0.73851,-1.93521c3.07493,-4.58734 8.67802,-4.82496 11.37555,0.1811c2.80754,5.21022 1.07288,16.48517 -5.31887,18.46918c-0.35055,0.18723 -0.75093,0.29337 -1.17611,0.29337c-0.09339,0 -0.18559,-0.00512 -0.27632,-0.0151c-0.41745,0.03352 -0.85121,0.03073 -1.30128,-0.01156c-1.44492,-0.13576 -2.67818,-1.21868 -3.77525,-2.16877c-4.83185,-4.18448 -3.29467,-10.19266 -0.26623,-14.81301z" fill="#000000"/><path d="M274.32438,164.82818c0.54699,-0.4084 1.91721,-1.16233 3.28743,0.20789c1.76777,1.76777 0,3.53553 0,3.53553l-1.4648,0.96096c-5.29389,1.30516 -10.66039,0.98475 -16.07807,0.98475c-19.61403,0 -39.46716,0.77774 -58.92628,-2.15207c-5.04761,-0.75998 -10.34242,-1.75424 -15.01757,-3.8933c-2.13408,-0.97642 -4.16653,-2.27717 -6.44807,-2.82693c0,0 -2.42536,-0.60634 -1.81902,-3.0317c0.60634,-2.42536 3.0317,-1.81902 3.0317,-1.81902c4.5859,1.17904 8.44985,3.95994 13.07381,5.16468c4.15484,1.08252 8.58633,1.4592 12.83072,1.97656c17.66472,2.15322 35.50745,1.58176 53.27472,1.58176c4.76286,0 9.59137,0.36494 14.25543,-0.68913z" fill="#000000"/></g></g></svg>