<svg version="1.1" xmlns="http://www.w3.org/2000/svg" xmlns:xlink="http://www.w3.org/1999/xlink" width="1381.54331" height="914.71384" viewBox="0,0,1381.54331,914.71384"><defs><linearGradient x1="28.67947" y1="221.27637" x2="500.61444" y2="130.3742" gradientUnits="userSpaceOnUse" id="color-1"><stop offset="0" stop-color="#000000"/><stop offset="1" stop-color="#1b271f"/></linearGradient></defs><g transform="translate(358.23058,290.74577)"><g data-paper-data="{&quot;isPaintingLayer&quot;:true}" fill-rule="nonzero" stroke-linecap="butt" stroke-linejoin="miter" stroke-miterlimit="10" stroke-dasharray="" stroke-dashoffset="0" style="mix-blend-mode: normal"><path d="M-226.93934,623.96807l-131.29124,-681.62215l1171.83248,-225.71352l131.29124,681.62215z" data-paper-data="{&quot;index&quot;:null}" fill="#000000" stroke="none" stroke-width="0"/><path d="M480.2844,490.12544l-135.71128,-704.56962l396.13347,-76.30159l135.71128,704.56962z" data-paper-data="{&quot;index&quot;:null}" fill="#1a261e" stroke="none" stroke-width="0"/><path d="M94.32508,562.08745l-131.29124,-681.62215l471.93497,-90.90216l131.29124,681.62215z" data-paper-data="{&quot;index&quot;:null}" fill="url(#color-1)" stroke="none" stroke-width="0"/><path d="M-34.68639,580.99123l-133.56186,-129.42468l781.72485,-146.62905l409.83613,26.48912z" data-paper-data="{&quot;index&quot;:null}" fill="#0e1410" stroke="none" stroke-width="0"/><g stroke="none" stroke-width="0"><g><path d="M-69.18136,249.13074l-5.08051,-26.37638l451.18003,-88.46878l49.12758,-34.49239l5.08051,26.37636l-45.7289,35.4021z" fill="#1e1e1e"/><path d="M-75.43533,227.4678l55.65826,-41.34693l445.3788,-84.53504l-55.89078,40.13974z" fill="#323232"/></g><path d="M-54.43775,324.77979l-14.88197,-77.26244l29.90804,-5.76076l14.88197,77.26244z" fill="#1e1e1e"/><path d="M2.09784,322.27385l-16.56788,-83.84257l29.90804,-5.76076l16.56788,83.84257z" fill="#161616"/><path d="M217.04002,280.18417l-16.56788,-83.84257l29.90804,-5.76076l16.56788,83.84257z" fill="#161616"/><path d="M165.84045,274.26739l-14.88197,-77.26244l29.90804,-5.76076l14.88197,77.26244z" fill="#1e1e1e"/></g><g stroke="none" stroke-width="0"><path d="M192.78093,222.29562l55.65826,-41.34693l445.3788,-84.53504l-55.89078,40.13974z" fill="#323232"/><path d="M197.45309,248.18829l-5.08051,-26.37636l451.18003,-88.46878l49.12758,-34.49239l5.08051,26.37636l-45.7289,35.40212z" fill="#1e1e1e"/></g><g stroke="none" stroke-width="0"><path d="M-56.17861,340.40902l-5.08051,-26.37636l451.18004,-88.4688l49.12758,-34.49239l5.08051,26.37636l-45.7289,35.40212z" fill="#1e1e1e"/><path d="M-62.33637,317.92575l55.65826,-41.34693l445.3788,-84.53504l-55.89078,40.13974z" fill="#323232"/></g><g stroke="none" stroke-width="0"><path d="M-121.29569,530.03309l-28.8984,-150.03124l726.4629,-160.31416l39.68637,197.2192z" fill="#686868"/><path d="M590.27157,396.37159l-39.93524,-207.33101l90.28033,-17.38942l39.93524,207.33101z" fill="#a5a5a5"/><path d="M-151.02457,378.94908l84.51987,-61.68919l711.04943,-148.22719l-84.75238,60.48202z" fill="#424242"/></g><g><g stroke="#000000" stroke-width="25.5"><path d="M130.48818,262.39634c7.8223,0.10042 16.75336,-1.66724 23.8536,-4.39274c6.86127,-2.63374 12.58549,-6.28277 20.01124,-7.37805c18.13326,-4.75474 36.71647,-6.52402 55.44471,-6.43929c8.84745,0.04003 20.11265,-0.88303 28.24939,3.51196c7.57396,4.09101 10.65356,13.34565 14.783,20.30616c1.57909,2.6617 3.41547,5.16424 5.01338,7.81469c9.15539,18.17204 23.71533,33.11332 31.63484,51.93056c4.82894,11.47385 6.23638,25.01121 5.9395,37.29045c-0.02234,0.92382 0.22612,11.14952 0.20382,11.28097c-0.67856,3.99766 -3.54067,8.09934 -5.50966,11.6034c-5.75032,5.83452 -11.24932,13.55404 -18.5614,17.41911c-11.09614,5.86527 -25.4466,5.04727 -37.41644,7.3536c-11.49505,2.21486 -22.53278,5.73345 -34.13501,7.3727c-15.23334,2.15215 -30.36302,5.89662 -45.74324,7.0922c-9.34402,0.72636 -19.12154,-0.06339 -28.45298,-0.48433c-4.45935,-0.20116 -9.59998,0.0879 -13.97681,-0.70624c-1.23495,-0.22407 -2.25523,-1.15283 -3.47427,-1.45162c-3.46907,-0.8503 -7.1311,-1.50753 -10.68843,-2.37862c-7.15108,-2.3952 -17.04393,-6.27393 -20.29022,-13.84615c-1.86974,-4.36133 -0.86832,-11.69486 -0.40317,-16.20108c1.68865,-16.3596 3.53573,-32.81309 7.13951,-48.9266c0.36083,-6.72886 1.7758,-13.01651 2.98563,-19.60982c1.90876,-10.40239 3.74162,-20.18003 7.42543,-30.28386c3.2957,-9.03935 7.41423,-17.86568 9.11348,-27.31176c-0.15727,-0.52664 -0.1671,-1.17073 0.0939,-1.94971c0.09052,-0.2702 0.19729,-0.50783 0.3166,-0.71655c0.10347,-0.81254 0.1873,-1.63011 0.24954,-2.45322c0,0 0.24682,-3.14527 3.39208,-2.89845c3.14526,0.24682 2.89845,3.39208 2.89845,3.39208c-0.02872,0.35425 -0.0609,0.70763 -0.09643,1.06018z" fill="#66ff6f"/><path d="M265.09453,104.03391c5.51212,2.69935 12.07259,5.7837 16.70606,9.90794c6.5505,5.83058 11.50838,14.24864 15.32354,22.06627c10.85352,22.24 12.34621,48.02961 13.19142,72.34004c-0.38193,10.868 -0.633,22.24801 -5.33479,32.3178c-13.77656,29.50514 -47.54737,42.49457 -77.08781,48.93209c-21.10139,4.5925 -42.17451,6.36471 -63.65377,7.99426c-13.89465,1.05415 -27.62126,1.80654 -41.10157,-2.7735c-4.95632,-1.68396 -8.50749,-4.65465 -13.15585,-6.90771c-5.24612,-4.69632 -9.85023,-9.86744 -14.66744,-14.98553c-1.13108,-1.20173 -2.68066,-2.07725 -3.48105,-3.52046c-2.60893,-4.70421 -1.25548,-13.39249 -1.42964,-18.42042c-0.6407,-18.49704 3.5221,-35.88129 9.2896,-53.34875c-5.31069,0.50989 -10.61943,1.04662 -15.92595,1.6166c-15.80375,1.69749 -31.84211,4.50042 -47.68965,5.30226c-2.91669,-0.22293 -6.40555,1.0805 -8.75008,-0.66879c-1.66124,-1.23948 -0.49366,-4.12881 -0.45756,-6.20118c0.14132,-8.11401 4.26538,-17.08841 8.05325,-24.1126c3.22975,-5.98919 7.16064,-11.29137 10.86019,-16.95924c9.56683,-14.65679 20.48983,-28.82399 35.2359,-38.76666c0.19459,-0.1312 11.07419,-5.80245 11.22007,-5.87859c7.81943,-3.60654 15.68838,-7.47784 24.13783,-9.4357c13.75701,-3.18768 28.71949,-3.23547 42.74814,-4.36641c11.13584,-0.89772 22.74555,-1.52493 33.80788,0.4763c24.24532,-3.00153 49.07889,-3.75996 72.1613,5.39199z" fill="#ffffff"/></g><g stroke="none" stroke-width="0.5"><path d="M130.48818,262.39634c7.8223,0.10042 16.75336,-1.66724 23.8536,-4.39274c6.86127,-2.63374 12.58549,-6.28277 20.01124,-7.37805c18.13326,-4.75474 36.71647,-6.52402 55.44471,-6.43929c8.84745,0.04003 20.11265,-0.88303 28.24939,3.51196c7.57396,4.09101 10.65356,13.34565 14.783,20.30616c1.57909,2.6617 3.41547,5.16424 5.01338,7.81469c9.15539,18.17204 23.71533,33.11332 31.63484,51.93056c4.82894,11.47385 6.23638,25.01121 5.9395,37.29045c-0.02234,0.92382 0.22612,11.14952 0.20382,11.28097c-0.67856,3.99766 -3.54067,8.09934 -5.50966,11.6034c-5.75032,5.83452 -11.24932,13.55404 -18.5614,17.41911c-11.09614,5.86527 -25.4466,5.04727 -37.41644,7.3536c-11.49505,2.21486 -22.53278,5.73345 -34.13501,7.3727c-15.23334,2.15215 -30.36302,5.89662 -45.74324,7.0922c-9.34402,0.72636 -19.12154,-0.06339 -28.45298,-0.48433c-4.45935,-0.20116 -9.59998,0.0879 -13.97681,-0.70624c-1.23495,-0.22407 -2.25523,-1.15283 -3.47427,-1.45162c-3.46907,-0.8503 -7.1311,-1.50753 -10.68843,-2.37862c-7.15108,-2.3952 -17.04393,-6.27393 -20.29022,-13.84615c-1.86974,-4.36133 -0.86832,-11.69486 -0.40317,-16.20108c1.68865,-16.3596 3.53573,-32.81309 7.13951,-48.9266c0.36083,-6.72886 1.7758,-13.01651 2.98563,-19.60982c1.90876,-10.40239 3.74162,-20.18003 7.42543,-30.28386c3.2957,-9.03935 7.41423,-17.86568 9.11348,-27.31176c-0.15727,-0.52664 -0.1671,-1.17073 0.0939,-1.94971c0.09052,-0.2702 0.19729,-0.50783 0.3166,-0.71655c0.10347,-0.81254 0.1873,-1.63011 0.24954,-2.45322c0,0 0.24682,-3.14527 3.39208,-2.89845c3.14526,0.24682 2.89845,3.39208 2.89845,3.39208c-0.02872,0.35425 -0.0609,0.70763 -0.09643,1.06018z" fill="#66ff6f"/><path d="M265.09453,104.03391c5.51212,2.69935 12.07259,5.7837 16.70606,9.90794c6.5505,5.83058 11.50838,14.24864 15.32354,22.06627c10.85352,22.24 12.34621,48.02961 13.19142,72.34004c-0.38193,10.868 -0.633,22.24801 -5.33479,32.3178c-13.77656,29.50514 -47.54737,42.49457 -77.08781,48.93209c-21.10139,4.5925 -42.17451,6.36471 -63.65377,7.99426c-13.89465,1.05415 -27.62126,1.80654 -41.10157,-2.7735c-4.95632,-1.68396 -8.50749,-4.65465 -13.15585,-6.90771c-5.24612,-4.69632 -9.85023,-9.86744 -14.66744,-14.98553c-1.13108,-1.20173 -2.68066,-2.07725 -3.48105,-3.52046c-2.60893,-4.70421 -1.25548,-13.39249 -1.42964,-18.42042c-0.6407,-18.49704 3.5221,-35.88129 9.2896,-53.34875c-5.31069,0.50989 -10.61943,1.04662 -15.92595,1.6166c-15.80375,1.69749 -31.84211,4.50042 -47.68965,5.30226c-2.91669,-0.22293 -6.40555,1.0805 -8.75008,-0.66879c-1.66124,-1.23948 -0.49366,-4.12881 -0.45756,-6.20118c0.14132,-8.11401 4.26538,-17.08841 8.05325,-24.1126c3.22975,-5.98919 7.16064,-11.29137 10.86019,-16.95924c9.56683,-14.65679 20.48983,-28.82399 35.2359,-38.76666c0.19459,-0.1312 11.07419,-5.80245 11.22007,-5.87859c7.81943,-3.60654 15.68838,-7.47784 24.13783,-9.4357c13.75701,-3.18768 28.71949,-3.23547 42.74814,-4.36641c11.13584,-0.89772 22.74555,-1.52493 33.80788,0.4763c24.24532,-3.00153 49.07889,-3.75996 72.1613,5.39199z" fill="#ffffff"/></g><g fill="#000000" stroke="none" stroke-width="0.5"><path d="M130.06751,221.61267c-0.24376,-1.72529 0.95725,-3.32151 2.68254,-3.56527c1.72529,-0.24376 3.32151,0.95724 3.56527,2.68253c0.24376,1.72529 -0.95725,3.32151 -2.68254,3.56527c-1.72529,0.24376 -3.32151,-0.95724 -3.56527,-2.68253z"/><path d="M217.06294,197.84786c-0.24376,-1.72529 0.95724,-3.32152 2.68253,-3.56528c1.72529,-0.24376 3.32151,0.95725 3.56527,2.68254c0.24376,1.72529 -0.95724,3.32151 -2.68253,3.56527c-1.72529,0.24376 -3.32151,-0.95724 -3.56527,-2.68253z"/><path d="M136.79174,242.05412c-0.23299,-0.28977 -0.43694,-0.65692 -0.59336,-1.12007c-1.00951,-2.98906 1.97955,-3.99857 1.97955,-3.99857c17.78182,-6.0023 36.18025,-9.0078 54.34141,-13.45697c5.52982,-1.35471 11.56671,-2.22076 16.98309,-3.81477c6.59685,-1.94141 12.60865,-4.67125 19.52539,-5.6519c1.37273,-0.35221 2.70352,-0.97201 4.11818,-1.05663c15.73934,-0.94146 15.27626,19.63622 11.56106,29.80974c-1.87421,5.13225 -4.71778,7.5399 -8.59985,10.99165c-3.93008,3.49443 -7.36464,7.45119 -11.48654,10.76912c-4.54274,3.65668 -9.9582,5.48999 -15.01741,8.22255c-8.7861,2.43054 -18.76323,4.86149 -27.96541,4.46758c-5.36336,-0.22958 -10.15602,-1.5951 -15.30469,-2.78079c-12.5932,-2.90011 -24.41029,-7.69667 -28.44246,-21.19383c-0.51495,-3.58653 -0.98964,-6.94768 -0.99212,-10.57553zM143.11902,241.95464l0.08937,0.72075c-0.01295,3.1734 0.41653,6.10359 0.85179,9.24241c2.27475,8.22796 9.77471,12.62654 17.48383,14.94358c6.56526,1.97323 13.46241,3.7219 20.3733,4.05079c8.291,0.39457 17.39317,-1.91995 25.33422,-4.01914c4.4621,-2.45751 9.3871,-3.99999 13.39021,-7.26452c4.04848,-3.30153 7.43292,-7.15184 11.30695,-10.61756c3.09712,-2.77069 5.34123,-4.22332 6.82684,-8.39809c1.52167,-4.27609 2.16932,-9.07795 1.53859,-13.54213c-0.27688,-1.95968 -0.62001,-5.59325 -2.44088,-6.96328c-2.08126,-1.56596 -5.52171,-0.50941 -7.57618,0.08527c-6.76272,0.95211 -12.59566,3.64854 -19.05095,5.53517c-5.52392,1.61443 -11.67302,2.52324 -17.30355,3.89787c-16.96735,4.14242 -34.15356,7.01541 -50.82354,12.32887z"/></g></g><g stroke="none" stroke-width="1" font-family="&quot;ヒラギノ角ゴ Pro W3&quot;, &quot;Hiragino Kaku Gothic Pro&quot;, Osaka, &quot;メイリオ&quot;, Meiryo, &quot;ＭＳ Ｐゴシック&quot;, &quot;MS PGothic&quot;" font-weight="normal" font-size="40" text-anchor="start"><text transform="translate(49.77501,75.01122) scale(2.01547,2.01547)" font-size="40" xml:space="preserve" fill="#cecece" fill-rule="nonzero" stroke="none" stroke-width="1" stroke-linecap="butt" stroke-linejoin="miter" stroke-miterlimit="10" stroke-dasharray="" stroke-dashoffset="0" font-family="&quot;ヒラギノ角ゴ Pro W3&quot;, &quot;Hiragino Kaku Gothic Pro&quot;, Osaka, &quot;メイリオ&quot;, Meiryo, &quot;ＭＳ Ｐゴシック&quot;, &quot;MS PGothic&quot;" font-weight="normal" text-anchor="start" style="mix-blend-mode: normal"><tspan x="0" dy="0">8 Nights At</tspan></text><text transform="translate(55.12979,75.01165) scale(2.01547,2.01547)" font-size="40" xml:space="preserve" fill="#ffffff" fill-rule="nonzero" stroke="none" stroke-width="1" stroke-linecap="butt" stroke-linejoin="miter" stroke-miterlimit="10" stroke-dasharray="" stroke-dashoffset="0" font-family="&quot;ヒラギノ角ゴ Pro W3&quot;, &quot;Hiragino Kaku Gothic Pro&quot;, Osaka, &quot;メイリオ&quot;, Meiryo, &quot;ＭＳ Ｐゴシック&quot;, &quot;MS PGothic&quot;" font-weight="normal" text-anchor="start" style="mix-blend-mode: normal"><tspan x="0" dy="0">8 Nights At</tspan></text></g><g fill="#55d457" font-family="&quot;ヒラギノ角ゴ Pro W3&quot;, &quot;Hiragino Kaku Gothic Pro&quot;, Osaka, &quot;メイリオ&quot;, Meiryo, &quot;ＭＳ Ｐゴシック&quot;, &quot;MS PGothic&quot;" font-weight="normal" font-size="40" text-anchor="start"><text transform="translate(196.07122,346.04564) rotate(-9.68916) scale(1.99613,1.99613)" font-size="40" xml:space="preserve" fill="#55d457" fill-rule="nonzero" stroke="#006b15" stroke-width="8" stroke-linecap="butt" stroke-linejoin="miter" stroke-miterlimit="10" stroke-dasharray="" stroke-dashoffset="0" font-family="&quot;ヒラギノ角ゴ Pro W3&quot;, &quot;Hiragino Kaku Gothic Pro&quot;, Osaka, &quot;メイリオ&quot;, Meiryo, &quot;ＭＳ Ｐゴシック&quot;, &quot;MS PGothic&quot;" font-weight="normal" text-anchor="start" style="mix-blend-mode: normal"><tspan x="0" dy="0">Charles!</tspan></text><text transform="translate(196.07122,346.04564) rotate(-9.68916) scale(1.99613,1.99613)" font-size="40" xml:space="preserve" fill="#55d457" fill-rule="nonzero" stroke="none" stroke-width="1" stroke-linecap="butt" stroke-linejoin="miter" stroke-miterlimit="10" stroke-dasharray="" stroke-dashoffset="0" font-family="&quot;ヒラギノ角ゴ Pro W3&quot;, &quot;Hiragino Kaku Gothic Pro&quot;, Osaka, &quot;メイリオ&quot;, Meiryo, &quot;ＭＳ Ｐゴシック&quot;, &quot;MS PGothic&quot;" font-weight="normal" text-anchor="start" style="mix-blend-mode: normal"><tspan x="0" dy="0">Charles!</tspan></text></g><g><g stroke="#000000" stroke-width="12.5"><path d="M384.73308,163.98484c2.41966,0.74335 5.35366,1.00761 7.8064,0.80778c2.37019,-0.19309 4.47976,-0.80496 6.88515,-0.46898c6.06321,0.17458 11.99433,1.3171 17.80168,3.0485c2.74347,0.81793 6.32531,1.55694 8.45161,3.66237c1.97923,1.9598 2.09287,5.11373 2.74133,7.6509c0.24797,0.97021 0.59033,1.91443 0.84517,2.88287c1.18828,6.47591 4.34879,12.44071 5.09459,19.00443c0.45475,4.00224 -0.34073,8.3337 -1.55085,12.11934c-0.09105,0.28481 -0.94488,3.48248 -0.96377,3.52126c-0.57465,1.17948 -1.83676,2.19246 -2.76714,3.1012c-2.31666,1.28807 -4.72688,3.18431 -7.34915,3.71869c-3.97931,0.81092 -8.36062,-0.74958 -12.28719,-1.12324c-3.77083,-0.35884 -7.51835,-0.27124 -11.27006,-0.81857c-4.92584,-0.71866 -9.96448,-0.93347 -14.84884,-1.96251c-2.96742,-0.62518 -5.93141,-1.76057 -8.79048,-2.74084c-1.3663,-0.46845 -2.98877,-0.84672 -4.27546,-1.49178c-0.36304,-0.18201 -0.59529,-0.56328 -0.94659,-0.76703c-0.99972,-0.57985 -2.07693,-1.11733 -3.10216,-1.71167c-2.00232,-1.39476 -4.7209,-3.49977 -5.03946,-6.14648c-0.18348,-1.52441 0.79513,-3.71027 1.34982,-5.06709c2.01376,-4.92587 4.08525,-9.86647 6.67124,-14.54156c0.72465,-2.05644 1.73645,-3.87992 2.71238,-5.81697c1.53974,-3.05613 2.99902,-5.92519 5.06272,-8.72702c1.84628,-2.50664 3.92865,-4.87223 5.31626,-7.6505c-0.00088,-0.17784 0.0547,-0.37872 0.20666,-0.59683c0.05271,-0.07566 0.10749,-0.13971 0.16354,-0.19366c0.10611,-0.24287 0.20657,-0.48909 0.30084,-0.739c0,0 0.36299,-0.95413 1.31711,-0.59114c0.95412,0.36299 0.59114,1.31712 0.59114,1.31712c-0.04117,0.10738 -0.08334,0.21417 -0.12647,0.3204z" fill="#66ff6f"/><path d="M440.94581,127.06878c1.46574,1.33998 3.22193,2.89495 4.28513,4.59736c1.50308,2.40676 2.27608,5.47192 2.74893,8.24662c1.34518,7.8936 -0.53931,16.03709 -2.49018,23.66236c-1.10805,3.33971 -2.22208,6.85031 -4.59876,9.54889c-6.96383,7.90699 -18.63218,8.86557 -28.39049,8.17494c-6.97004,-0.49518 -13.67453,-1.86348 -20.49214,-3.31305c-4.41022,-0.9377 -8.74079,-1.95381 -12.50941,-4.60319c-1.38561,-0.97411 -2.21777,-2.21981 -3.45595,-3.34258c-1.20133,-1.93582 -2.1601,-3.96061 -3.18986,-5.98833c-0.24179,-0.47611 -0.64322,-0.88904 -0.76035,-1.41002c-0.38178,-1.69817 0.82948,-4.27264 1.23316,-5.84965c1.4851,-5.80161 4.36036,-10.82038 7.74144,-15.71888c-1.69538,-0.32519 -3.39259,-0.64185 -5.09214,-0.948c-5.06156,-0.91177 -10.29662,-1.50164 -15.29023,-2.69549c-0.88533,-0.33477 -2.08728,-0.2477 -2.65599,-1.0043c-0.40296,-0.5361 0.22262,-1.32692 0.4225,-1.9671c0.7826,-2.50651 2.88018,-4.91757 4.69581,-6.7537c1.54811,-1.56558 3.25137,-2.85401 4.91609,-4.27705c4.30487,-3.6799 8.98627,-7.0843 14.4701,-8.82894c0.07236,-0.02302 3.96678,-0.79341 4.01901,-0.80377c2.75626,-0.40792 5.55201,-0.89352 8.35379,-0.73217c4.56173,0.26272 9.21188,1.61012 13.6707,2.53618c3.53938,0.73511 7.20126,1.59734 10.45389,3.22587c7.80137,1.27541 15.58117,3.30085 21.91497,8.24401z" fill="#ffffff"/></g><g stroke="none" stroke-width="0.5"><path d="M383.88972,163.03013c2.41966,0.74335 5.35366,1.00761 7.8064,0.80778c2.37019,-0.19309 4.47976,-0.80496 6.88515,-0.46898c6.06321,0.17458 11.99433,1.3171 17.80168,3.0485c2.74347,0.81793 6.32531,1.55694 8.45161,3.66237c1.97923,1.9598 2.09287,5.11373 2.74133,7.6509c0.24797,0.97021 0.59033,1.91443 0.84517,2.88287c1.18828,6.47591 4.34879,12.44071 5.09459,19.00443c0.45475,4.00224 -0.34073,8.3337 -1.55085,12.11934c-0.09105,0.28481 -0.94488,3.48248 -0.96377,3.52126c-0.57465,1.17948 -1.83676,2.19246 -2.76714,3.1012c-2.31666,1.28807 -4.72688,3.18431 -7.34915,3.71869c-3.97931,0.81092 -8.36062,-0.74958 -12.28719,-1.12324c-3.77083,-0.35884 -7.51835,-0.27124 -11.27006,-0.81857c-4.92584,-0.71866 -9.96448,-0.93347 -14.84884,-1.96251c-2.96742,-0.62518 -5.93141,-1.76057 -8.79048,-2.74084c-1.3663,-0.46845 -2.98877,-0.84672 -4.27546,-1.49178c-0.36304,-0.18201 -0.59529,-0.56328 -0.94659,-0.76703c-0.99972,-0.57985 -2.07693,-1.11733 -3.10216,-1.71167c-2.00232,-1.39476 -4.7209,-3.49977 -5.03946,-6.14648c-0.18348,-1.52441 0.79513,-3.71027 1.34982,-5.06709c2.01376,-4.92587 4.08525,-9.86647 6.67124,-14.54156c0.72465,-2.05644 1.73645,-3.87992 2.71238,-5.81697c1.53974,-3.05613 2.99902,-5.92519 5.06272,-8.72702c1.84628,-2.50664 3.92865,-4.87223 5.31626,-7.6505c-0.00088,-0.17784 0.0547,-0.37872 0.20666,-0.59683c0.05271,-0.07566 0.10749,-0.13971 0.16354,-0.19366c0.10611,-0.24287 0.20657,-0.48909 0.30084,-0.739c0,0 0.36299,-0.95413 1.31711,-0.59114c0.95412,0.36299 0.59114,1.31712 0.59114,1.31712c-0.04117,0.10738 -0.08334,0.21417 -0.12647,0.3204z" fill="#66ff6f"/><path d="M440.10246,126.11407c1.46574,1.33998 3.22193,2.89495 4.28513,4.59736c1.50308,2.40676 2.27608,5.47192 2.74893,8.24662c1.34518,7.8936 -0.53931,16.03709 -2.49018,23.66236c-1.10805,3.33971 -2.22208,6.85031 -4.59876,9.54889c-6.96383,7.90699 -18.63218,8.86557 -28.39049,8.17494c-6.97004,-0.49518 -13.67453,-1.86348 -20.49214,-3.31305c-4.41022,-0.9377 -8.74079,-1.95381 -12.50941,-4.60319c-1.38561,-0.97411 -2.21777,-2.21981 -3.45595,-3.34258c-1.20133,-1.93582 -2.1601,-3.96061 -3.18986,-5.98833c-0.24179,-0.47611 -0.64322,-0.88904 -0.76035,-1.41002c-0.38178,-1.69817 0.82948,-4.27264 1.23316,-5.84965c1.4851,-5.80161 4.36036,-10.82038 7.74144,-15.71888c-1.69538,-0.32519 -3.39259,-0.64185 -5.09214,-0.948c-5.06156,-0.91177 -10.29662,-1.50164 -15.29023,-2.69549c-0.88533,-0.33477 -2.08728,-0.2477 -2.65599,-1.0043c-0.40296,-0.5361 0.22262,-1.32692 0.4225,-1.9671c0.7826,-2.50651 2.88018,-4.91757 4.69581,-6.7537c1.54811,-1.56558 3.25137,-2.85401 4.91609,-4.27705c4.30487,-3.6799 8.98627,-7.0843 14.4701,-8.82894c0.07236,-0.02302 3.96678,-0.79341 4.01901,-0.80377c2.75626,-0.40792 5.55201,-0.89352 8.35379,-0.73217c4.56173,0.26272 9.21188,1.61012 13.6707,2.53618c3.53938,0.73511 7.20126,1.59734 10.45389,3.22587c7.80137,1.27541 15.58117,3.30085 21.91497,8.24401z" fill="#ffffff"/></g><path d="M395.32579,157.96752c-1.17868,0 -1.80165,-0.55572 -2.1309,-1.14315c-2.1778,-1.40828 -4.38603,-2.64191 -6.72272,-3.80902c0,0 -2.23606,-1.11803 -1.11803,-3.3541c1.11804,-2.23607 3.3541,-1.11803 3.3541,-1.11803c2.78615,1.39448 5.41146,2.88281 8.0043,4.60976l1.11325,2.31454c0,0 0,2.5 -2.5,2.5z" fill="#000000" stroke="none" stroke-width="0.5"/><path d="M424.78313,152.42017c0,2.5 -2.5,2.5 -2.5,2.5l-0.20243,-0.11055c-3.32502,1.02282 -6.64113,1.85532 -9.85338,3.2c0,0 -2.30769,0.96154 -3.26923,-1.34615c-0.96154,-2.30769 1.34615,-3.26923 1.34615,-3.26923c3.36795,-1.3974 6.82527,-2.29223 10.30602,-3.36352l1.67286,-0.11056c0,0 2.5,0 2.5,2.5z" fill="#000000" stroke="none" stroke-width="0.5"/><path d="M389.07521,161.0934c0,-1.38071 1.11929,-2.5 2.5,-2.5c1.38071,0 2.5,1.11929 2.5,2.5c0,1.38071 -1.11929,2.5 -2.5,2.5c-1.38071,0 -2.5,-1.11929 -2.5,-2.5z" fill="#000000" stroke="none" stroke-width="0.5"/><path d="M410.40666,161.32781c0,-1.38071 1.11929,-2.5 2.5,-2.5c1.38071,0 2.5,1.11929 2.5,2.5c0,1.38071 -1.11929,2.5 -2.5,2.5c-1.38071,0 -2.5,-1.11929 -2.5,-2.5z" fill="#000000" stroke="none" stroke-width="0.5"/><path d="M431.27581,166.69421c1.19713,2.19474 -0.99761,3.39187 -0.99761,3.39187l-2.64794,1.44293c-8.77184,4.08599 -16.7284,5.38273 -26.38198,4.71669c-6.64365,-0.45837 -13.67631,-1.85296 -18.8194,-6.47194c-1.50374,-1.3505 -2.89961,-3.76911 -3.98018,-5.46287c0,0 -1.34219,-2.10915 0.76697,-3.45134c2.10915,-1.34219 3.45134,0.76696 3.45134,0.76696c8.70352,13.71471 29.81387,11.4697 42.7078,5.44011l2.50912,-1.37001c0,0 2.19474,-1.19714 3.39187,0.9976z" fill="#000000" stroke="none" stroke-width="0.5"/></g></g></g></svg>