<svg version="1.1" xmlns="http://www.w3.org/2000/svg" xmlns:xlink="http://www.w3.org/1999/xlink" width="197.61951" height="201.16964" viewBox="0,0,197.61951,201.16964"><g transform="translate(-136.60393,-73.84397)"><g data-paper-data="{&quot;isPaintingLayer&quot;:true}" fill-rule="nonzero" stroke="none" stroke-linecap="butt" stroke-linejoin="miter" stroke-miterlimit="10" stroke-dasharray="" stroke-dashoffset="0" style="mix-blend-mode: normal"><path d="M303.06407,245.3608c-0.30435,4.83506 -1.44599,8.40747 -3.19947,12.88792c-0.3836,0.98018 -0.38783,2.11659 -0.93382,3.01647c-1.38258,2.27873 -3.15719,2.82177 -5.0901,4.43253c-8.35281,6.96068 -18.92735,9.31589 -29.68265,9.31589c-4.24392,-0.00254 -8.80445,-0.00087 -12.99098,-0.80405c-4.58959,-0.8805 -8.54893,-3.17726 -12.71408,-5.11721c-4.23895,-1.97432 -8.73422,-5.44449 -10.39394,-10.11964c-1.3992,-3.9413 -0.38215,-8.00738 0.69822,-11.80043c1.23047,-4.32004 0.85563,-4.54108 3.35211,-8.27602c0.99073,-1.48222 2.22364,-2.79336 3.57264,-3.98551c-0.31591,-0.05629 -0.63187,-0.11413 -0.94789,-0.17354c-4.62644,-1.41747 -9.4039,-2.56524 -13.73509,-4.7908c-5.55471,-2.85426 -11.80615,-6.70345 -16.27309,-11.05379c-7.86068,-7.65551 -12.70323,-18.14974 -15.09303,-28.74102c-11.55887,5.92985 -26.95524,1.04067 -38.17393,-3.812c-6.57244,-4.44344 -10.2526,-12.6804 -12.22747,-20.15215c-0.46804,-1.7708 -2.11246,-6.63955 -2.33444,-8.26381c-0.73695,-5.39238 0.06583,-11.2734 0.75802,-16.58939c0.61995,-4.76116 0.89412,-9.46006 2.37387,-14.09082c2.80477,-8.77732 7.43873,-16.32215 13.18421,-23.45999c5.26742,-6.53333 11.64634,-13.13442 18.90334,-17.50349c5.63764,-3.39414 12.04453,-4.31692 18.28954,-6.01973c6.2194,-1.69583 12.73236,-3.57632 19.05078,-4.77372c10.74262,-2.03583 23.17948,-1.98203 34.04504,-0.90787c15.03515,1.50472 31.24208,4.8961 44.03918,13.4199c13.21285,8.80071 23.35471,21.18072 34.70604,32.05177c5.29527,7.22083 9.15568,15.7372 11.11507,24.53192c1.17145,5.25802 0.80815,11.00793 0.80773,16.35375c-0.0014,17.84601 -3.7188,34.14841 -12.22605,49.86161c-2.66202,3.94827 -5.5631,8.60683 -9.01612,11.93011c-3.45166,3.32196 -7.6849,5.4457 -12.18064,6.96407c2.75978,5.2068 2.68372,9.84339 2.31702,15.66907zM242.07632,236.25442c-2.17289,1.49991 -4.33471,3.19981 -5.79585,5.39896c-1.36708,2.05756 -2.03548,4.52055 -2.71637,6.89517c-0.76424,2.6653 -1.84004,5.84899 -0.8189,8.68068c1.24061,3.44029 4.70708,5.9087 7.8115,7.32723c3.79615,1.73461 7.38352,3.9552 11.55983,4.74407c3.87921,0.73275 8.11204,0.71556 12.04149,0.71307c9.55173,0 19.02454,-1.94246 26.45078,-8.13099c0.08452,-0.07044 3.59882,-2.39621 4.01262,-3.15307c2.23016,-4.07907 3.16894,-9.11176 3.45231,-13.67944c0.3091,-4.98248 0.65504,-8.9255 -1.95112,-13.39623l-0.39171,-0.50925c-2.92582,0.73151 -5.88075,1.30713 -8.73281,1.87761c-14.8264,2.96566 -29.61972,4.5154 -44.51819,2.8673c-0.21931,0.23587 -0.40358,0.36487 -0.40358,0.36487zM188.8192,184.93027c-0.22551,-3.38926 0.01669,-6.97816 0.01707,-10.20152c0.00074,-6.37955 -0.10235,-12.56763 2.46198,-18.46323c1.88937,-4.93493 5.26813,-8.32927 8.20842,-12.59154c0.66414,-0.96275 0.90399,-2.18184 1.59566,-3.12501c2.8177,-3.84223 6.72861,-6.38233 10.17845,-9.46677c2.63465,-2.35559 5.26179,-5.56196 8.50743,-7.19971c6.24747,-3.15248 13.63643,-3.68444 20.47518,-3.68444c0,0 2.5,0 2.5,2.5c0,2.5 -2.5,2.5 -2.5,2.5c-6.09662,0 -12.62535,0.38359 -18.21138,3.1426c-2.85047,1.40788 -5.10726,4.3833 -7.42234,6.45436c-3.09412,2.768 -6.94533,5.11621 -9.40671,8.58601c-0.67003,0.94453 -0.918,2.14316 -1.57597,3.09613c-2.7278,3.95086 -6.04157,7.08916 -7.72134,11.68237c-2.36458,5.18683 -2.09006,10.91949 -2.08938,16.56924c0.00026,2.15695 -0.13614,4.51939 -0.13822,6.8593c0.5186,0.00511 1.10014,0.20404 1.68167,0.78557c1.76776,1.76776 0,3.53554 0,3.53554l-0.37928,0.37928c-0.29486,0.28654 -0.59413,0.56229 -0.89763,0.82751c0.02391,0.13062 0.04912,0.26047 0.0757,0.38951c2.10824,10.23637 6.51326,20.44407 14.11051,27.87941c4.07826,3.99135 9.93102,7.49652 15.00029,10.11694c3.96872,2.05151 8.40007,3.07187 12.64208,4.38087c16.77793,3.13682 33.44366,1.56473 50.08612,-1.76333c7.93119,-1.58603 17.3539,-3.06539 23.43228,-8.98393c3.1411,-3.05851 5.77833,-7.31165 8.21697,-10.92764c8.04664,-14.90486 11.50444,-30.35957 11.50309,-47.27184c-0.0004,-5.00944 0.40225,-10.44351 -0.7094,-15.36704c-1.78243,-7.89445 -5.20733,-15.72447 -9.96977,-22.21868c-11.07952,-10.52859 -20.87597,-22.61836 -33.71919,-31.18881c-12.09969,-8.07429 -27.55613,-11.18768 -41.76719,-12.60762c-10.37942,-1.05097 -22.35221,-1.10375 -32.61913,0.84573c-6.19027,1.17541 -12.56764,3.02159 -18.66359,4.68449c-5.7522,1.56912 -11.84061,2.33616 -17.02021,5.47589c-6.75201,4.09288 -12.6901,10.26367 -17.59413,16.35972c-5.37282,6.66746 -9.68184,13.65761 -12.31788,21.85286c-1.39326,4.33155 -1.59537,8.76228 -2.17749,13.21734c-0.6384,4.88577 -1.4336,10.31079 -0.7591,15.27012c0.11272,0.82876 2.01398,6.89124 2.21692,7.66595c1.5384,5.8727 4.47566,13.56588 9.77077,17.01728c2.30767,0.97827 4.76771,2.50289 7.14025,3.22544c8.16417,2.48634 20.08462,4.76408 27.83847,-0.23835z" fill="#000000" stroke-width="0.5"/><path d="M188.77703,184.95716c-7.75385,5.00243 -19.67853,2.71647 -27.8427,0.23013c-2.37254,-0.72255 -4.83371,-2.25027 -7.14138,-3.22854c-5.29511,-3.4514 -8.23458,-11.15486 -9.77298,-17.02756c-0.20294,-0.77471 -2.10447,-6.84138 -2.21719,-7.67014c-0.6745,-4.95933 0.12119,-10.3925 0.75959,-15.27827c0.58212,-4.45506 0.78573,-8.89274 2.17899,-13.22429c2.63604,-8.19525 6.9505,-15.19764 12.32332,-21.8651c4.90403,-6.09605 10.85045,-12.27704 17.60246,-16.36992c5.1796,-3.13973 11.2758,-3.91276 17.028,-5.48188c6.09595,-1.6629 12.4839,-3.51406 18.67417,-4.68947c10.26692,-1.94948 22.26057,-1.89903 32.63999,-0.84806c14.21106,1.41994 29.69333,4.54371 41.79302,12.618c12.84322,8.57045 22.65553,20.68169 33.73505,31.21028c4.76244,6.49421 8.19039,14.33698 9.97282,22.23143c1.11165,4.92353 0.70917,10.3658 0.70957,15.37524c0.00135,16.91227 -3.46433,32.39101 -11.51097,47.29587c-2.43864,3.61599 -5.08006,7.87472 -8.22116,10.93323c-6.07838,5.91854 -15.51043,7.4063 -23.44162,8.99233c-16.64246,3.32806 -33.33635,4.90907 -50.11428,1.77225c-4.24201,-1.309 -8.68221,-2.33009 -12.65093,-4.3816c-5.06927,-2.62042 -10.93408,-6.12928 -15.01234,-10.12063c-7.59725,-7.43534 -12.02108,-17.65779 -14.12932,-27.89416c-0.02658,-0.12904 -0.052,-0.25916 -0.07591,-0.38978c0.3035,-0.26522 0.60271,-0.54105 0.89757,-0.82759l0.37924,-0.37933c0,0 1.76606,-1.77013 -0.0017,-3.53789c-0.58153,-0.58153 -1.16396,-0.78181 -1.68256,-0.78692c0.00208,-2.33991 0.13548,-4.70782 0.13522,-6.86477c-0.00068,-5.64975 -0.2798,-11.39993 2.08478,-16.58676c1.67977,-4.59321 4.99519,-7.74849 7.72299,-11.69935c0.65797,-0.95297 0.9076,-2.15659 1.57763,-3.10112c2.46138,-3.4698 6.32347,-5.83481 9.41759,-8.60281c2.31508,-2.07106 4.58528,-5.05622 7.43575,-6.4641c5.58603,-2.75901 12.145,-3.1472 18.24162,-3.1472c0,0 2.48101,0.09813 2.48101,-2.40187c0,-2.5 -2.49584,-2.49924 -2.49584,-2.49924c-6.83875,0 -14.19853,0.52717 -20.446,3.67965c-3.24564,1.63775 -5.85974,4.83473 -8.49439,7.19032c-3.44984,3.08444 -7.35013,5.60883 -10.16783,9.45106c-0.69167,0.94317 -0.9299,2.15791 -1.59404,3.12066c-2.94029,4.26227 -6.31667,7.64012 -8.20604,12.57505c-2.56433,5.8956 -2.46511,12.06555 -2.46585,18.4451c-0.00038,3.22336 -0.24654,6.8047 -0.02103,10.19396z" data-paper-data="{&quot;noHover&quot;:false,&quot;origItem&quot;:[&quot;Path&quot;,{&quot;applyMatrix&quot;:true,&quot;segments&quot;:[[[188.8192,184.93027],[0,0],[-0.22551,-3.38926]],[[188.83627,174.72875],[-0.00038,3.22336],[0.00074,-6.37955]],[[191.29825,156.26552],[-2.56433,5.8956],[1.88937,-4.93493]],[[199.50667,143.67398],[-2.94029,4.26227],[0.66414,-0.96275]],[[201.10233,140.54897],[-0.69167,0.94317],[2.8177,-3.84223]],[[211.28078,131.0822],[-3.44984,3.08444],[2.63465,-2.35559]],[[219.78821,123.88249],[-3.24564,1.63775],[6.24747,-3.15248]],[[240.26339,120.19805],[-6.83875,0],[0,0]],[[242.76339,122.69805],[0,-2.5],[0,2.5]],[[240.26339,125.19805],[0,0],[-6.09662,0]],[[222.05201,128.34065],[5.58603,-2.75901],[-2.85047,1.40788]],[[214.62967,134.79501],[2.31508,-2.07106],[-3.09412,2.768]],[[205.22296,143.38102],[2.46138,-3.4698],[-0.67003,0.94453]],[[203.64699,146.47715],[0.65797,-0.95297],[-2.7278,3.95086]],[[195.92565,158.15952],[1.67977,-4.59321],[-2.36458,5.18683]],[[193.83627,174.72876],[-0.00068,-5.64975],[0.00026,2.15695]],[[193.69805,181.58806],[0.00208,-2.33991],[0.5186,0.00511]],[[195.37972,182.37363],[-0.58153,-0.58153],[1.76776,1.76776]],[195.37972,185.90917],[[195.00044,186.28845],[0,0],[-0.29486,0.28654]],[[194.10281,187.11596],[0.3035,-0.26522],[0.02391,0.13062]],[[194.17851,187.50547],[-0.02658,-0.12904],[2.10824,10.23637]],[[208.28902,215.38488],[-7.59725,-7.43534],[4.07826,3.99135]],[[223.28931,225.50182],[-5.06927,-2.62042],[3.96872,2.05151]],[[235.93139,229.88269],[-4.24201,-1.309],[16.77793,3.13682]],[[286.01751,228.11936],[-16.64246,3.32806],[7.93119,-1.58603]],[[309.44979,219.13543],[-6.07838,5.91854],[3.1411,-3.05851]],[[317.66676,208.20779],[-2.43864,3.61599],[8.04664,-14.90486]],[[329.16985,160.93595],[0.00135,16.91227],[-0.0004,-5.00944]],[[328.46045,145.56891],[1.11165,4.92353],[-1.78243,-7.89445]],[[318.49068,123.35023],[4.76244,6.49421],[-11.07952,-10.52859]],[[284.77149,92.16142],[12.84322,8.57045],[-12.09969,-8.07429]],[[243.0043,79.5538],[14.21106,1.41994],[-10.37942,-1.05097]],[[210.38517,80.39953],[10.26692,-1.94948],[-6.19027,1.17541]],[[191.72158,85.08402],[6.09595,-1.6629],[-5.7522,1.56912]],[[174.70137,90.55991],[5.1796,-3.13973],[-6.75201,4.09288]],[[157.10724,106.91963],[4.90403,-6.09605],[-5.37282,6.66746]],[[144.78936,128.77249],[2.63604,-8.19525],[-1.39326,4.33155]],[[142.61187,141.98983],[0.58212,-4.45506],[-0.6384,4.88577]],[[141.85277,157.25995],[-0.6745,-4.95933],[0.11272,0.82876]],[[144.06969,164.9259],[-0.20294,-0.77471],[1.5384,5.8727]],[[153.84046,181.94318],[-5.29511,-3.4514],[2.30767,0.97827]],[[160.98071,185.16862],[-2.37254,-0.72255],[8.16417,2.48634]],[[188.81918,184.93027],[-7.75385,5.00243],[0,0]]],&quot;closed&quot;:true,&quot;fillColor&quot;:[0,0,0],&quot;strokeWidth&quot;:0.5}]}" fill="#ffffff" stroke-width="0.25"/><path d="M242.03376,236.22816c0,0 0.18479,-0.12981 0.4041,-0.36568c14.89847,1.6481 29.7727,0.09396 44.5991,-2.8717c2.85206,-0.57048 5.81026,-1.14156 8.73608,-1.87307l0.39218,0.51c2.60616,4.47073 2.26692,8.4316 1.95782,13.41408c-0.28337,4.56768 -1.22328,9.62208 -3.45344,13.70115c-0.4138,0.75686 -3.93062,3.08963 -4.01514,3.16007c-7.42624,6.18853 -16.94765,8.16051 -26.49938,8.16051c-3.92945,0.00249 -8.18813,0.01064 -12.06734,-0.72211c-4.17631,-0.78887 -7.77842,-3.02575 -11.57457,-4.76036c-3.10442,-1.41853 -6.57634,-3.90152 -7.81695,-7.34181c-1.02114,-2.83169 0.05375,-6.02858 0.81799,-8.69388c0.68089,-2.37462 1.3514,-4.84911 2.71848,-6.90667c1.46114,-2.19915 3.62819,-3.9106 5.80108,-5.4105z" data-paper-data="{&quot;noHover&quot;:false,&quot;origItem&quot;:[&quot;Path&quot;,{&quot;applyMatrix&quot;:true,&quot;segments&quot;:[[[484.15264,472.50884],[0,0],[-4.34578,2.99982]],[[472.56094,483.30676],[2.92228,-4.3983],[-2.73416,4.11512]],[[467.1282,497.0971],[1.36178,-4.74924],[-1.52848,5.3306]],[[465.4904,514.45846],[-2.04228,-5.66338],[2.48122,6.88058]],[[481.1134,529.11292],[-6.20884,-2.83706],[7.5923,3.46922]],[[504.23306,538.60106],[-8.35262,-1.57774],[7.75842,1.4655]],[[528.31604,540.0272],[-7.8589,0.00498],[19.10346,0]],[[581.2176,523.76522],[-14.85248,12.37706],[0.16904,-0.14088]],[[589.24284,517.45908],[-0.8276,1.51372],[4.46032,-8.15814]],[[596.14746,490.1002],[-0.56674,9.13536],[0.6182,-9.96496]],[[592.24522,463.30774],[5.21232,8.94146],[0,0]],[[591.4618,462.28924],[0,0],[-5.85164,1.46302]],[[573.99618,466.04446],[5.70412,-1.14096],[-29.6528,5.93132]],[[484.9598,471.77906],[29.79694,3.2962],[-0.43862,0.47174]],[484.15264,472.5088]],&quot;closed&quot;:true,&quot;fillColor&quot;:[0,0,0],&quot;strokeWidth&quot;:0.5}]}" fill="#1dff00" stroke-width="0.25"/><path d="M230.24715,176.17651c0,2.02589 -1.64171,2.41009 -2.26438,2.48295c-3.79815,1.83999 -7.69958,3.19624 -11.81445,4.20632c-2.46316,0.60464 -6.9463,1.82149 -9.66524,1.00139c-1.28528,-0.38768 -2.23007,-1.4952 -3.34511,-2.24281c0,0 -2.03433,-1.45309 -0.58124,-3.48743c1.45309,-2.03433 3.48743,-0.58124 3.48743,-0.58124c3.1027,2.44765 4.95027,1.44056 8.90464,0.4561c3.9367,-0.98007 7.6589,-2.26016 11.28394,-4.0728l1.49441,-0.26247c0,0 2.5,0 2.5,2.5z" fill="#000000" stroke-width="0.5"/><path d="M301.51118,175.54832c1.38675,2.08013 -0.69338,3.46688 -0.69338,3.46688l-1.80622,1.073c-5.84743,1.71523 -11.56777,1.24327 -17.64724,1.24327c-0.60035,0 -10.1461,0.01373 -10.47277,-0.04511c-2.93385,-0.52849 -5.24212,-2.23402 -7.67926,-3.74841c0,0 -2.12,-1.325 -0.795,-3.445c1.325,-2.11999 3.44499,-0.795 3.44499,-0.795c1.59048,1.00059 4.03523,2.76305 5.97481,3.07862c3.13456,0.51 6.35145,-0.04511 9.52723,-0.04511c5.51456,0 10.92979,0.59431 16.2105,-1.0324l0.46946,-0.44412c0,0 2.08013,-1.38675 3.46688,0.69338z" fill="#000000" stroke-width="0.5"/><path d="M264.98888,214.83933c1.54085,1.9687 -0.42785,3.50955 -0.42785,3.50955l-2.66213,1.95045c-10.12886,1.02647 -20.30155,1.46951 -30.2325,-1.1211c-3.43776,-0.89678 -9.18205,-2.25416 -11.95672,-4.66138c-1.33434,-1.15763 -2.07556,-2.85908 -3.11334,-4.28861c0,0 -1.43366,-2.04808 0.61442,-3.48174c2.04808,-1.43366 3.48174,0.61442 3.48174,0.61442c0.73219,1.09899 1.2079,2.42153 2.19658,3.29698c2.17621,1.92699 7.36367,2.98419 10.04152,3.68278c8.9258,2.32854 18.01407,1.83534 27.14411,1.30328l1.40462,-1.23249c0,0 1.9687,-1.54085 3.50955,0.42785z" fill="#000000" stroke-width="0.5"/></g></g></svg>