<svg version="1.1" xmlns="http://www.w3.org/2000/svg" xmlns:xlink="http://www.w3.org/1999/xlink" width="1945.31669" height="741.24895" viewBox="0,0,1945.31669,741.24895"><defs><linearGradient x1="359.01761" y1="188.47298" x2="1569.16765" y2="-99.91026" gradientUnits="userSpaceOnUse" id="color-1"><stop offset="0" stop-color="#ffd6b3" stop-opacity="0"/><stop offset="1" stop-color="#ffd6b3"/></linearGradient></defs><g transform="translate(330.13427,293.00322)"><g data-paper-data="{&quot;isPaintingLayer&quot;:true}" fill-rule="nonzero" stroke="none" stroke-linecap="butt" stroke-linejoin="miter" stroke-miterlimit="10" stroke-dasharray="" stroke-dashoffset="0" style="mix-blend-mode: normal"><path d="M-191.09926,411.50751v-461.01502h694.19863v461.01502z" data-paper-data="{&quot;index&quot;:null}" fill="#1c261a" stroke-width="0"/><path d="M-40.13173,390.27899l-29.53784,-149.88682l597.26335,-115.41887c0,0 153.61854,320.54771 94.83656,322.98053c-122.59065,5.07369 -662.56207,-57.67484 -662.56207,-57.67484z" data-paper-data="{&quot;index&quot;:null}" fill="#10140e" stroke-width="0"/><path d="M641.50236,173.69655c-1.38071,0 -2.5,-1.11929 -2.5,-2.5c0,-1.38071 1.11929,-2.5 2.5,-2.5c1.38071,0 2.5,1.11929 2.5,2.5c0,1.38071 -1.11929,2.5 -2.5,2.5z" data-paper-data="{&quot;index&quot;:null}" fill="#252525" stroke-width="0.5"/><path d="M-330.13427,57.50003c0,-6.90356 5.59644,-12.5 12.5,-12.5c6.90356,0 12.5,5.59644 12.5,12.5c0,6.90356 -5.59644,12.5 -12.5,12.5c-6.90356,0 -12.5,-5.59644 -12.5,-12.5z" fill="#262429" stroke-width="0.5"/><path d="M405.03238,381.56594l-92.02954,-386.18592l1210.15005,-288.38324l92.02954,386.18592z" fill="url(#color-1)" stroke-width="0"/></g></g></svg>