<svg version="1.1" xmlns="http://www.w3.org/2000/svg" xmlns:xlink="http://www.w3.org/1999/xlink" width="183.65892" height="185.46977" viewBox="0,0,183.65892,185.46977"><g transform="translate(-3.39355,-114.1836)"><g data-paper-data="{&quot;isPaintingLayer&quot;:true}" fill-rule="nonzero" stroke="none" stroke-linecap="butt" stroke-linejoin="miter" stroke-miterlimit="10" stroke-dasharray="" stroke-dashoffset="0" style="mix-blend-mode: normal"><path d="M47.0789,248.41608c1.38945,1.83147 2.52305,3.90129 4.2571,5.40103c6.42355,5.55563 15.99871,7.39373 23.70686,10.21901c1.44225,0.52863 12.06316,5.009 14.38953,5.62137c3.57936,0.94219 8.08649,0.85436 11.75361,0.67647c2.07524,-0.10067 4.23823,0.32903 6.2271,-0.27193c1.31558,-0.39753 2.63618,-1.0998 3.91792,-1.94722c-5.41439,-0.61092 -10.82095,-1.53374 -16.28492,-2.66172c-9.23125,-1.90571 -18.93729,-4.44417 -27.27355,-9.10316c-1.98482,-1.10928 -3.50107,-2.90229 -5.23668,-4.37117c-1.88513,-1.59542 -3.76882,-3.2215 -5.60401,-4.90612c-1.63233,3.65526 -5.73173,2.5141 -5.73173,2.5141c-1.35698,-0.3778 -2.73211,-0.77617 -4.12122,-1.17069zM121.81661,270.82888c-0.73558,6.89054 -0.43795,15.91385 -5.02989,21.53299c-3.1042,3.7986 -9.66536,5.50198 -14.04259,6.33539c-17.65102,3.36074 -36.00578,-2.92144 -53.16926,-6.74742c-10.29845,-3.95357 -22.05408,-5.35301 -31.67961,-10.90766c-1.35603,-0.78253 -8.64708,-5.89927 -9.82084,-7.61628c-4.81648,-7.04569 -6.48542,-18.79808 -2.27562,-26.51659c2.48584,-4.55769 8.99273,-8.16254 13.78411,-9.5109c10.08847,-2.839 19.69483,-1.14019 29.40966,1.40066c-1.45169,-1.77845 -2.80093,-3.64295 -4.01093,-5.61532c-1.34406,-2.19091 -1.90969,-4.77276 -2.86453,-7.15915c-2.38391,-6.12835 -4.84864,-12.93466 -6.11016,-19.73334c-4.60924,-0.52097 -9.14416,-1.8958 -13.93031,-4.55736c-5.97795,-3.8478 -13.08534,-8.14882 -15.18961,-15.54919c-2.06492,-7.26199 -0.58642,-16.87 6.11038,-21.31958c1.61554,-1.07341 3.61825,-1.39899 5.4223,-2.11143c0.64657,-0.25534 1.6606,-0.15068 1.9293,-0.7918c0.50667,-1.20888 -0.15883,-2.63804 0.05053,-3.93198c0.54564,-3.37222 1.41089,-6.6857 2.20503,-10.00818c2.95934,-12.38101 8.89716,-28.97199 22.47141,-33.29333c4.44664,-1.41557 16.8401,0.31663 21.54744,0.82028c9.72934,1.04097 19.02745,2.75344 28.22194,6.1131c2.53907,0.71843 5.24028,0.71324 7.79852,1.36004c2.50779,0.63404 4.85677,1.79576 7.33371,2.53875c0.90039,-0.56504 1.74025,-0.7488 1.74025,-0.7488l6.71697,1.31195c0.31709,0.40989 0.61731,0.83262 0.90208,1.26622c3.09892,0.54449 5.85608,1.01265 6.1692,1.07753c10.47275,2.17004 21.63028,6.77386 30.98138,11.8788c3.14109,1.71478 6.53018,3.04456 9.40895,5.17051c1.78891,1.3211 2.94771,3.33092 4.39233,5.02166c2.30366,2.69612 4.85116,5.21048 6.85202,8.13834c0.96005,1.40484 1.30944,3.14126 1.93711,4.72281c3.63495,9.15904 4.8932,14.28692 5.52476,24.17003c0.66818,10.45637 -1.79029,21.76595 -3.05383,32.11568c-2.55365,12.51099 -5.03215,26.86346 -14.13805,36.62744c-8.55318,9.17131 -21.24933,11.22935 -33.05953,12.23654c-4.15541,0.35438 -8.25539,0.45134 -12.32711,0.33533zM114.41811,146.9458c-2.5392,-0.42831 -5.15852,-0.77129 -8.27577,-1.26713c-2.75815,-0.43872 -5.47703,-1.32595 -8.26979,-1.34515c-3.04478,-0.02093 -6.03197,0.83722 -9.05188,1.2261c-1.55146,0.19978 -3.18929,0.01151 -4.66165,0.53978c-8.65293,3.10462 -15.73275,7.81468 -22.38044,13.94036c-2.04612,1.88545 -4.49689,3.39536 -6.17973,5.61113c-1.81527,2.39015 -2.74552,5.33819 -4.15039,7.99042c-1.33734,2.52477 -3.20949,4.81755 -4.07598,7.54008c-0.90757,2.85159 -0.74885,5.93815 -1.15722,8.90268c-0.29675,2.15427 -0.90827,4.28778 -1.13803,6.44411c2.65412,-0.28088 5.41263,-0.7582 8.3571,-1.27733c7.54443,-1.33015 10.15557,-1.6993 16.66999,-5.80563c4.962,-3.12776 9.10643,-7.58225 14.39292,-10.1234c4.92681,-2.36827 10.59078,-2.47794 15.42913,-4.89722c2.51542,-1.25776 4.73354,-3.04483 7.00043,-4.7093c2.92773,-2.1497 5.22324,-3.59298 6.55942,-7.19636c2.00234,-5.39983 1.62903,-10.45767 0.93187,-15.57313zM35.25242,196.32176c0.23948,-2.53807 0.87253,-5.05582 1.22441,-7.58612c0.49062,-3.52795 0.45708,-7.18079 1.53962,-10.5742c1.04137,-3.26437 3.14058,-6.09105 4.74298,-9.11972c1.6616,-3.14058 2.89685,-6.56038 5.04878,-9.38763c2.0193,-2.65301 4.85313,-4.57301 7.30053,-6.83713c7.70172,-7.125 16.15803,-12.63525 26.21653,-16.13168c1.9804,-0.68841 4.14985,-0.60304 6.22877,-0.8751c3.4798,-0.45539 6.93757,-1.33432 10.44693,-1.30718c3.25734,0.02518 6.44292,0.9658 9.66225,1.46266c1.99907,0.30853 3.79432,0.56722 5.48524,0.82424c-0.05584,-0.18258 -0.11501,-0.36481 -0.17763,-0.54625c-2.1199,-0.38406 -4.03221,-0.76385 -5.17221,-1.0802c-2.48263,-0.68894 -4.8007,-1.91206 -7.29776,-2.54672c-2.84735,-0.72369 -5.83517,-0.81722 -8.66782,-1.59648c-8.5596,-3.14752 -17.18649,-4.73022 -26.25317,-5.69576c-1.97539,-0.21036 -15.05904,-1.90119 -17.66667,-1.18302c-6.26058,1.72423 -7.52223,6.70155 -10.39512,11.65694c-4.13144,7.12626 -5.78575,15.8737 -7.43048,23.90408c-0.50531,2.46716 -0.0658,5.27801 -1.37595,7.42875c-2.77647,4.55783 -6.40898,4.08964 -10.37996,5.99229c-1.63377,0.7828 -2.17692,3.81817 -2.29282,4.9808c-0.79512,7.97647 5.10835,11.38089 11.09763,15.20028c2.76985,1.57164 5.44273,2.51589 8.1159,3.01718zM123.22175,138.02998c0.044,0.26931 0.09093,0.53861 0.14018,0.80787c1.42769,0.39056 2.93009,0.85199 4.56695,1.4132c4.65189,1.59491 8.67309,4.63828 13.0013,6.97291c0,0 4.32641,2.33366 1.99275,6.66007c-2.33366,4.32641 -6.66007,1.99275 -6.66007,1.99275c-3.73051,-2.01224 -7.17946,-4.6652 -11.1241,-6.1843c-0.04001,3.12319 -1.50015,13.94353 -2.52156,16.47073c-3.50845,8.68072 -14.00076,15.98602 -22.76589,18.74708c-3.65528,1.15143 -7.63539,1.61052 -11.12798,3.28819c-5.5917,2.686 -7.96197,6.2368 -13.41009,9.58474c-8.03565,4.938 -11.01258,5.49023 -20.14767,7.14532c-3.20973,0.58154 -6.24026,1.05947 -9.16158,1.34078c1.2122,5.60022 3.31364,11.21479 5.26784,16.17105c3.62737,9.52308 10.0487,15.56168 17.63332,22.04925c1.33101,1.13849 2.42615,2.60922 3.96167,3.45177c7.37986,4.04938 16.02639,6.21618 24.15963,7.88187c12.21631,2.5019 24.05856,3.98284 36.49219,2.92997c8.90337,-0.75393 20.19281,-1.82221 26.63291,-9.07065c7.57973,-8.53111 9.50622,-20.85437 11.69341,-31.57521c1.08888,-8.97916 2.11262,-17.80493 2.69347,-26.83228c0.32711,-5.08384 0.38006,-10.88302 -1.18778,-15.7256c-2.87598,-8.88302 -4.59827,-11.64336 -10.5427,-18.63202c-1.05026,-1.23476 -1.77596,-2.80652 -3.09105,-3.75425c-2.41421,-1.73981 -5.26929,-2.76698 -7.89671,-4.16413c-8.68096,-4.61619 -18.90514,-8.99466 -28.5912,-10.96763c-0.00241,-0.00049 -0.00483,-0.00098 -0.00725,-0.00147z" fill="#000000" stroke-width="0.5"/><path d="M35.21504,196.36593c-2.67317,-0.50129 -5.35296,-1.45248 -8.12281,-3.02412c-5.98928,-3.81939 -11.9034,-7.24291 -11.10828,-15.21938c0.1159,-1.16263 0.6577,-4.20275 2.29148,-4.98555c3.97097,-1.90264 7.60247,-1.43993 10.37894,-5.99776c1.31015,-2.15074 0.87026,-4.97383 1.37557,-7.44098c1.64473,-8.03038 3.31575,-16.8143 7.44718,-23.94056c2.87289,-4.95539 4.15294,-9.94514 10.41351,-11.66937c2.60763,-0.71817 15.7162,0.96812 17.69159,1.17848c9.06668,0.96554 17.72964,2.5628 26.28923,5.71031c2.83264,0.77927 5.82692,0.87952 8.67426,1.60321c2.49706,0.63466 4.81942,1.86382 7.30205,2.55276c1.14,0.31635 3.0542,0.69944 5.17411,1.0835c0.06262,0.18144 0.01941,0.41749 0.07525,0.60007c-1.69092,-0.25701 -3.48437,-0.51248 -5.48344,-0.82101c-3.21933,-0.49686 -6.40015,-1.43072 -9.65749,-1.45591c-3.50936,-0.02714 -6.96077,0.85843 -10.44057,1.31382c-2.07892,0.27206 -4.2423,0.19139 -6.22271,0.8798c-10.0585,3.49643 -18.44266,9.00065 -26.14437,16.12566c-2.4474,2.26413 -5.26395,4.15134 -7.28326,6.80435c-2.15193,2.82725 -3.38917,6.22037 -5.05077,9.36095c-1.60239,3.02867 -3.70735,5.84276 -4.74872,9.10713c-1.08254,3.39341 -1.05663,7.03634 -1.54725,10.56428c-0.35187,2.5303 -0.98931,5.04394 -1.22878,7.58201z" data-paper-data="{&quot;noHover&quot;:false,&quot;origItem&quot;:[&quot;Path&quot;,{&quot;applyMatrix&quot;:true,&quot;segments&quot;:[[[-36.02848,164.07716],[0,0],[-0.02705,-2.20395]],[[-35.67207,157.44303],[-0.07029,2.20758],[0.09801,-3.07799]],[[-35.3189,148.21113],[-0.61923,3.01665],[0.59568,-2.90194]],[[-32.07833,139.93565],[-1.09962,2.7508],[1.14025,-2.85244]],[[-28.59945,131.40179],[-1.59054,2.62807],[1.49251,-2.4661]],[[-22.95068,124.85393],[-1.89623,2.17107],[5.96725,-6.83216]],[[-1.89288,108.57958],[-8.32638,3.92898],[1.63937,-0.77357]],[[3.38166,107.25562],[-1.76227,0.42468],[2.94978,-0.71085]],[[12.24289,105.17308],[-3.01948,0.29874],[2.80264,-0.27729]],[[20.68373,105.54378],[-2.81325,-0.1317],[1.74691,0.08178]],[[25.47502,105.74897],[-1.47727,-0.06577],[-0.06476,-0.15184]],[[25.27218,105.29566],[0.07049,0.15024],[-1.85772,-0.13562]],[[20.72651,104.84169],[1.00909,0.16734],[-2.19754,-0.36444]],[[14.21893,103.32203],[2.20496,0.31645],[-2.51427,-0.36084]],[[6.62072,102.74502],[2.50673,0.40997],[-7.64752,-1.92036]],[[-16.47177,100.25775],[7.88321,-0.00201],[-1.71754,0.00044]],[[-31.76832,100.86205],[2.17586,-0.85672],[-5.22396,2.05687]],[[-39.63517,111.83749],[2.01504,-4.52379],[-2.89778,6.50558]],[[-43.82936,133.06968],[0.67699,-7.05464],[-0.20799,2.16738]],[[-44.33049,139.58243],[0.92895,-1.96922],[-1.96863,4.17316]],[[-52.70417,145.68659],[3.23922,-2.00013],[-1.33271,0.82291]],[[-54.21819,150.17899],[-0.00706,-1.01015],[0.04847,6.93032]],[[-43.2826,162.22815],[-5.49949,-2.73386],[2.52547,1.09693]],[[-36.02849,164.07718],[-2.34412,-0.18563],[0,0]]],&quot;closed&quot;:true,&quot;fillColor&quot;:[0,0,0,1],&quot;strokeWidth&quot;:0.5}]}" fill="#302617" stroke-width="0.25"/><path d="M114.46503,146.91202c0.69716,5.11546 1.07939,10.19212 -0.92295,15.59195c-1.33618,3.60338 -3.62983,5.05805 -6.55756,7.20775c-2.2669,1.66447 -4.4856,3.46416 -7.00103,4.72192c-4.83835,2.41928 -10.53357,2.57165 -15.46039,4.93992c-5.28648,2.54115 -9.48563,6.99403 -14.44764,10.12179c-6.51442,4.10633 -9.14008,4.46362 -16.68451,5.79377c-2.94447,0.51913 -5.70677,0.99167 -8.36089,1.27255c0.22976,-2.15632 0.83767,-4.29561 1.13442,-6.44988c0.40836,-2.96454 0.24497,-6.06238 1.15253,-8.91396c0.86649,-2.72253 2.73643,-5.02721 4.07377,-7.55198c1.40486,-2.65224 2.33639,-5.61771 4.15167,-8.00786c1.68284,-2.21577 4.14048,-3.74267 6.18661,-5.62812c6.64769,-6.12569 13.78526,-10.86307 22.43819,-13.9677c1.47236,-0.52827 3.11966,-0.33782 4.67112,-0.5376c3.01991,-0.38888 6.02063,-1.24064 9.06541,-1.21971c2.79276,0.0192 5.52123,0.91415 8.27938,1.35288c3.11724,0.49584 5.74264,0.84597 8.28184,1.27427z" data-paper-data="{&quot;noHover&quot;:false,&quot;origItem&quot;:[&quot;Path&quot;,{&quot;applyMatrix&quot;:true,&quot;segments&quot;:[[[27.49858,114.36344],[0,0],[-2.22225,-0.13518]],[[20.26764,114.03359],[2.72539,0.14019],[-2.41144,-0.12404]],[[13.03468,113.63612],[2.40269,-0.2398],[-2.61951,0.26144]],[[5.36533,115.52092],[2.56052,-0.61147],[-1.31545,0.31413]],[[1.40726,116.41279],[1.2173,-0.58928],[-7.15397,3.46315]],[[-16.55377,130.45122],[5.15282,-5.87632],[-1.58601,1.8087]],[[-21.35151,135.84223],[1.24338,-2.05933],[-1.34123,2.2214]],[[-24.18627,143.09247],[0.96435,-2.40905],[-0.918,2.29327]],[[-26.99839,149.94872],[0.49506,-2.42007],[-0.51853,2.53479]],[[-27.17621,157.70853],[0.079,-2.58608],[-0.05741,1.87925]],[[-27.56317,163.35295],[-0.00037,-1.87487],[2.25596,-0.48505]],[[-20.49582,161.48787],[-2.48371,0.71652],[6.36385,-1.83591]],[[-6.69749,154.96692],[-5.22357,4.12805],[3.97877,-3.14431]],[[4.74699,144.94297],[-4.31156,2.66978],[4.01822,-2.48815]],[[17.56193,139.31685],[-3.93749,2.52388],[2.04707,-1.31214]],[[23.14799,134.62582],[-1.79609,1.63898],[2.31967,-2.11678]],[[28.12666,127.83715],[-0.81801,3.22044],[1.22584,-4.82598]],[[27.49858,114.36346],[1.06881,4.33376],[0,0]]],&quot;closed&quot;:true,&quot;fillColor&quot;:[0,0,0,1],&quot;strokeWidth&quot;:0.5}]}" fill="#302617" stroke-width="0.25"/><path d="M135.15241,134.53125c-0.00585,0.1505 -0.01713,0.30554 -0.03418,0.46521c-0.52179,4.8879 -5.40969,4.36611 -5.40969,4.36611c-1.79389,-0.23559 -3.5809,-0.88229 -5.38165,-0.70674c-3.43887,0.33522 -6.33853,3.02338 -8.41269,5.45308c-7.69208,9.01059 -0.42042,20.67158 -5.71732,30.20192c-4.44688,8.00097 -14.43983,9.16823 -20.24273,15.69363c-2.38153,2.67806 -4.0246,5.94219 -5.76605,9.07445c-0.95183,1.71202 -1.09643,3.99165 -2.56623,5.28653c-1.77889,1.56721 -4.37217,1.83477 -6.55827,2.75216c-5.43755,-0.45955 -13.60195,-1.68377 -17.9864,2.9694c-2.59526,2.75432 -2.53824,6.78547 -3.70372,10.17031c-1.34007,3.89191 -4.03374,9.17642 -3.28128,13.47629c0.2489,1.42231 1.41098,2.54443 1.83001,3.92621c0.47819,1.57691 0.19622,3.4646 1.15107,4.80758c1.11183,1.56377 2.66103,3.39738 4.40183,5.11815c1.16033,1.04656 2.36911,2.08697 3.56494,3.10363c1.25895,0.94323 2.53219,1.72548 3.74662,2.23294c3.78244,1.58051 7.82683,2.47886 11.60666,4.06561c9.58286,3.03849 18.28999,7.69101 28.00479,10.18186c2.34009,0.37462 4.67362,0.6996 6.98857,0.9608c-0.17295,0.11434 -0.34663,0.22614 -0.52093,0.33497c6.46837,0.9906 13.20053,1.30026 19.66439,0.82854c3.68753,-0.26911 7.89088,-0.28151 11.30498,-1.86422c3.25077,-1.507 6.36228,-3.36874 9.76235,-4.49925c1.79421,-0.59657 3.57512,-1.32609 5.44956,-1.57423c1.72871,-0.22886 3.56669,0.38952 5.22962,-0.13532c3.85084,-2.16743 7.96025,-5.38071 10.10886,-9.42779c0.6154,-1.15917 0.7843,-4.3974 0.89335,-5.43827c0.41399,-3.95151 0.84348,-7.90137 1.26522,-11.85204c0.82007,-7.68204 2.99762,-16.40761 2.63651,-24.0996c-0.06826,-1.4538 -2.81417,-10.73906 -2.87948,-11.11997c-0.685,-3.99574 0.03371,-8.13592 -0.53042,-12.15051c-0.19532,-1.39001 -0.97565,-2.64202 -1.27426,-4.01356c-1.07032,-4.91604 -1.34673,-10.11837 -1.62359,-15.12898c0.06703,-0.65045 0.87043,-8.57742 0.98724,-9.18046c0.22335,-1.153 0.5729,-2.28768 1.03095,-3.36911c0.1387,-0.32745 0.8133,-0.43598 0.72686,-0.78093c-0.12446,-0.49668 -0.82447,-0.61708 -1.17151,-0.99358c-2.58334,-2.80256 -5.06612,-4.80238 -8.20311,-7.07271c-7.98262,-5.77722 -15.72664,-8.60151 -25.24906,-11.08642c-1.32603,-0.34603 -2.59921,-0.67441 -3.84185,-0.9757zM114.13684,132.34673c-0.77563,-1.83316 -0.05765,-3.79198 -0.05765,-3.79198l5.17218,-5.52262c3.02152,-0.1764 7.21898,-0.50044 10.03765,-0.18979c2.36102,0.26021 4.53945,1.41133 6.84764,1.97199c5.68138,1.38001 11.78015,2.42115 17.30187,4.31258c5.87567,2.01269 11.55506,5.88764 16.56103,9.49644c4.78609,3.4503 12.22231,8.27206 13.36379,14.73916c0.45021,2.55068 -1.42023,5.03133 -1.87781,7.44896c-0.46206,2.44124 -0.50935,4.94305 -0.78407,7.41239c0.26869,4.21551 0.48347,8.62989 1.39242,12.76333c0.34841,1.58443 1.17282,3.05554 1.3957,4.66244c0.54693,3.94338 -0.19638,8.01246 0.49475,11.93314c0.90494,5.13364 2.72948,6.91151 3.01302,12.28457c0.43323,8.20946 -1.80263,17.4842 -2.67744,25.67898c-0.65876,6.17093 -0.19952,14.7854 -3.07535,20.50971c-3.2177,6.40481 -9.18648,10.84576 -15.19351,14.24278c-1.52159,0.40943 -2.9976,1.06434 -4.56476,1.2283c-1.16599,0.12199 -2.33006,-0.50822 -3.49592,-0.38496c-4.4248,0.46784 -8.47865,3.65998 -12.38085,5.36547c-5.28064,2.30795 -11.78812,2.68051 -17.50339,2.87453c-11.27419,0.38273 -24.3954,-1.15157 -35.05982,-5.05056c-6.80496,-2.48794 -13.06271,-5.95461 -20.03126,-8.11118c-4.12722,-1.73603 -8.56039,-2.69456 -12.65001,-4.51739c-1.31068,-0.58419 -2.32058,-1.68866 -3.48275,-2.5304c-5.91314,-4.28273 -11.91333,-8.58538 -14.19149,-15.98534c-0.3031,-0.98454 -0.00172,-2.08773 -0.2896,-3.07684c-0.49185,-1.68992 -1.7773,-3.13381 -2.02515,-4.87631c-0.88208,-6.20133 1.72259,-12.48928 3.69045,-18.14465c1.85293,-5.32509 1.868,-9.42885 6.06448,-13.95985c5.83951,-6.305 15.95225,-6.84277 23.70228,-5.76607c1.07781,-0.05123 1.14239,-1.83478 1.62237,-2.80117c1.96258,-3.95147 4.21767,-7.84925 7.17819,-11.12052c3.15017,-3.48083 8.14466,-6.28622 12.09433,-8.71091c1.8013,-1.10582 5.5,-2.59879 6.76171,-4.9855c1.17493,-2.22256 0.625,-5.18866 0.5206,-7.52363c-0.18087,-4.0449 -0.21272,-6.56833 0.4721,-10.57743c1.30312,-7.62862 5.28155,-15.03568 11.65431,-19.29766z" fill="#ffffff" stroke-width="0.5"/><path d="M139.01348,135.4524c9.52241,2.48491 17.28567,5.32054 25.26829,11.09776c3.137,2.27033 5.62571,4.27628 8.20905,7.07884c0.34704,0.37649 1.0478,0.49782 1.17226,0.99449c0.08644,0.34495 -0.58809,0.45358 -0.72678,0.78103c-0.45805,1.08143 -0.8066,2.2174 -1.02995,3.37042c-0.11681,0.60305 -0.91681,8.53509 -0.98384,9.18554c0.27686,5.0106 0.55881,10.22533 1.62914,15.14138c0.29861,1.37152 1.08002,2.62751 1.27534,4.01751c0.56412,4.01458 -0.15305,8.16658 0.53195,12.16232c0.0653,0.38092 2.81054,9.67665 2.8788,11.13043c0.36111,7.69199 -1.82344,16.43743 -2.64351,24.11947c-0.42174,3.95068 -0.85609,7.90769 -1.27008,11.85919c-0.10904,1.04087 -0.28032,4.2819 -0.89572,5.44105c-2.14861,4.04708 -6.26575,7.26748 -10.11659,9.43491c-1.66293,0.52484 -3.50362,-0.09158 -5.23233,0.13728c-1.87444,0.24815 -3.65904,0.97997 -5.45325,1.57655c-3.40007,1.13052 -6.51942,2.99599 -9.77019,4.503c-3.4141,1.58273 -7.62636,1.59777 -11.31388,1.86688c-6.46386,0.47172 -13.2124,0.16317 -19.68077,-0.82743c0.1743,-0.10883 0.34841,-0.2206 0.52136,-0.33494c-2.31495,-0.2612 -4.65449,-0.58691 -6.99458,-0.96153c-9.7148,-2.49085 -18.4453,-7.15306 -28.02816,-10.19155c-3.77983,-1.58675 -7.83145,-2.49111 -11.61389,-4.07162c-1.21443,-0.50746 -2.48996,-1.29209 -3.74891,-2.23531c-1.19583,-1.01666 -2.40695,-2.05983 -3.5673,-3.10639c-1.7408,-1.72076 -3.29304,-3.55855 -4.40487,-5.12232c-0.95485,-1.34297 -0.67479,-3.23377 -1.15298,-4.81068c-0.41902,-1.38178 -1.58271,-2.50689 -1.83161,-3.92919c-0.75247,-4.29987 1.93771,-9.59307 3.27777,-13.48498c1.16547,-3.38484 1.10656,-7.42415 3.70182,-10.17847c4.38445,-4.65319 12.66313,-3.4468 18.10068,-2.98725c2.18609,-0.91739 4.6647,-1.17015 6.44359,-2.73734c1.46978,-1.29488 1.61417,-3.58361 2.566,-5.29562c1.74145,-3.13226 3.38885,-6.41543 5.77038,-9.09348c5.8029,-6.52541 15.83693,-7.727 20.28381,-15.72798c5.29689,-9.53034 -1.9625,-21.19268 5.72958,-30.20325c2.07417,-2.4297 4.98159,-5.11734 8.42046,-5.45256c1.80075,-0.17554 3.59268,0.47204 5.38657,0.70763c0,0 4.89144,0.5227 5.41324,-4.3652c0.01705,-0.15969 0.02824,-0.31474 0.0341,-0.46525c1.24264,0.30128 2.51897,0.63067 3.845,0.97671z" data-paper-data="{&quot;noHover&quot;:false,&quot;origItem&quot;:[&quot;Path&quot;,{&quot;applyMatrix&quot;:true,&quot;segments&quot;:[[[44.18446,101.78782],[1.09594,0.14497],[0.00878,0.12992]],[[44.19777,102.19091],[0,-0.13885],[0,4.25]],[[39.94777,106.44091],[0,0],[-1.56382,-0.0379]],[[35.25632,106.32722],[1.53199,-0.31617],[-2.92562,0.60379]],[[28.5244,111.78728],[1.56017,-2.27916],[-5.78592,8.45231]],[[26.381,138.27648],[3.67908,-8.67932],[-3.08869,7.28652]],[[10.41866,153.626],[4.38987,-6.14243],[-1.80162,2.52088]],[[6.2944,161.95645],[1.20966,-2.85261],[-0.66117,1.55917]],[[4.57339,166.73678],[1.14473,-1.24809],[-1.38548,1.51058]],[[-0.81216,169.70468],[1.79518,-0.9893],[-4.71682,0.10395]],[[-16.0025,173.90815],[3.34226,-4.40271],[-1.97836,2.60606]],[[-18.2532,182.99144],[0.69131,-3.0169],[-0.79488,3.46885]],[[-19.83733,194.8781],[-1.04151,-3.62753],[0.34451,1.19991]],[[-17.90375,198.0855],[-0.48704,-1.14946],[0.55582,1.31178]],[[-16.47297,202.11293],[-0.94413,-1.06692],[1.09935,1.24233]],[[-12.21902,206.109],[-1.65448,-1.31957],[1.09358,0.79324]],[[-8.86942,208.45002],[-1.12135,-0.76427],[1.16888,0.69535]],[[-5.44354,210.02582],[-1.09061,-0.32481],[3.3968,1.01163]],[[4.9078,212.45582],[-3.39513,-1.01723],[8.51721,1.73272]],[[29.91786,218.63902],[-8.58038,-1.24981],[2.04615,0.1073]],[[36.01409,218.82365],[-2.01413,-0.0121],[-0.13819,0.11417]],[[35.59699,219.15943],[0.13986,-0.10956],[5.65175,0.25799]],[[52.57844,218.06704],[-5.51367,0.99875],[3.14546,-0.56977]],[[62.12621,215.42686],[-2.78984,1.67399],[2.65637,-1.5939]],[[70.10596,210.66294],[-2.81928,1.28394],[1.48773,-0.67753]],[[74.64645,208.80945],[-1.58868,0.38536],[1.46516,-0.3554]],[[79.12992,208.21317],[-1.38145,0.60382],[3.11164,-2.21674]],[[86.95525,199.1804],[-1.47574,3.67645],[0.42268,-1.05301]],[[87.22416,194.42315],[0.00178,0.90484],[-0.00674,-3.43509]],[[87.22416,184.11787],[0,3.43509],[0,-6.67949]],[[87.27904,163.15756],[1.01637,6.57964],[-0.1921,-1.24356]],[[83.78304,153.86202],[0.0911,0.32148],[-0.9556,-3.37226]],[[82.21195,143.46494],[0.85341,3.39955],[-0.29548,-1.17706]],[[80.74813,140.13145],[0.38258,1.15169],[-1.37132,-4.12808]],[[77.96389,127.27412],[0.69786,4.28219],[-0.00207,-0.56534]],[[77.9701,119.2911],[-0.04508,0.52916],[0.0862,-1.01173]],[[78.54721,116.30007],[-0.29454,0.97174],[0.08919,-0.29424]],[[79.10042,115.562],[0.10597,0.28862],[-0.15258,-0.41557]],[[78.00209,114.81534],[0.3329,0.29182],[-2.47809,-2.17227]],[[70.30081,109.48779],[2.90523,1.6639],[-7.39283,-4.23406]],[[47.57683,102.27404],[8.41444,1.26236],[-1.17174,-0.17579]]],&quot;closed&quot;:true}]}" fill="#000000" stroke-width="0.5"/><path d="M124.16746,252.80076c1.30063,-0.90021 2.59348,-1.80157 3.8941,-2.70178c1.75325,-4.50265 4.3828,-8.05666 5.66459,-12.8093c1.99494,-7.39681 1.72353,-15.88887 1.93308,-23.47309c0.18071,-6.54038 1.44055,-13.23671 2.13478,-19.73998c0.01413,-0.13232 0.05541,-0.37701 0.06945,-0.50927c-0.04452,3.92759 -0.17897,7.879 -0.36065,11.90171c-1.37671,12.86504 -1.58791,25.78644 -4.65192,38.36729c-0.87091,3.57595 -1.50575,7.57231 -2.84351,11.00944c-0.31692,0.81427 -0.84143,1.53292 -1.25352,2.30342c-0.46826,0.87551 -1.04582,1.70486 -1.44996,2.60886c-0.36307,-0.68029 -1.1225,-1.27326 -1.66507,-1.82474c-1.35862,-1.38092 -2.96074,-2.8023 -4.2958,-4.37642z" data-paper-data="{&quot;noHover&quot;:false,&quot;origItem&quot;:[&quot;Path&quot;,{&quot;applyMatrix&quot;:true,&quot;selected&quot;:true,&quot;segments&quot;:[[[86.49198,410.66424],[0,0],[2.58441,2.46147]],[[94.66448,417.39858],[-2.58947,-2.12498],[1.03412,0.84862]],[[97.85665,420.2304],[-0.74912,-1.10303],[0.52893,-1.62852]],[[99.86682,415.4788],[-0.64441,1.5913],[0.56711,-1.40042]],[[101.59524,411.2886],[-0.39546,1.45822],[1.66926,-6.15532]],[[104.44764,391.84018],[-0.84107,6.30832],[2.95905,-22.19381]],[[105.40687,325.21133],[-0.00575,22.37275],[-0.42597,-6.94995]],[[103.85324,304.68345],[0.64436,6.76123],[0.00015,0.22997]],[[103.85346,305.37355],[0,-0.23009],[0,11.30912]],[[103.8245,339.71041],[-0.88977,-11.27866],[1.03178,13.07872]],[[104.8203,380.61011],[2.07241,-13.0842],[-1.33158,8.40692]],[[97.39188,403.68354],[2.18808,-8.06364],[-2.07106,1.78654]],[[91.17871,409.04316],[2.07106,-1.78654],[0,0]]],&quot;closed&quot;:true}]}" fill="#ffffff" stroke-width="0.5"/></g></g></svg>