<svg version="1.1" xmlns="http://www.w3.org/2000/svg" xmlns:xlink="http://www.w3.org/1999/xlink" width="737.30109" height="970.62511" viewBox="0,0,737.30109,970.62511"><g transform="translate(120.63439,289.35083)"><g data-paper-data="{&quot;isPaintingLayer&quot;:true}" fill-rule="nonzero" stroke="none" stroke-linecap="butt" stroke-linejoin="miter" stroke-miterlimit="10" stroke-dasharray="" stroke-dashoffset="0" style="mix-blend-mode: normal"><path d="M433.6382,432.18369c0,19.29547 0.77447,35.47921 -5.23178,54.00262c-14.48445,34.72825 -52.31219,57.61378 -86.95645,68.3273c-22.65496,7.00593 -46.8409,12.26663 -70.02306,16.3406c-11.07338,1.946 -22.48594,0.13995 -33.72903,0.13995c-39.50973,0 -76.49069,-4.33536 -115.69843,-9.23667c-22.98622,-3.46589 -51.18324,-13.63105 -70.79895,-26.8315c-1.99119,-1.33997 -20.04536,-19.95581 -21.70179,-21.42727c-9.83467,-8.73639 -14.48453,-7.67249 -21.0772,-22.05101c-6.62671,-14.45271 -2.16483,-29.74743 -0.88906,-44.33584c0.50587,-5.7847 -1.08801,-11.76514 0.23722,-17.41868c6.04897,-25.80559 25.16279,-48.2119 36.89883,-71.79877c-0.3493,-0.11607 -0.69848,-0.23244 -1.04751,-0.34915c-50.18972,-19.50987 -96.0828,-41.65208 -126.10656,-89.06299c-9.63372,-15.2127 -14.27497,-37.889 -19.29165,-54.93133c-16.65948,-56.59474 -17.47802,-120.86498 2.08707,-177.44188c1.9556,-55.25307 14.85303,-112.96556 -10.83507,-164.21975l-4.83924,-14.43149c0,0 -1.33909,-4.01739 0.16758,-7.86709c-2.80705,-1.65206 -7.14057,-5.49189 -4.73797,-12.69969c3.42782,-10.28348 13.7113,-6.85567 13.7113,-6.85567c23.59581,7.97398 41.51364,22.65924 65.82066,29.56833l1.53053,-0.1646c0.68275,-0.58386 1.17247,-0.88999 1.17247,-0.88999c34.02543,-21.25443 66.65619,-44.44147 100.03758,-66.69739c12.32703,-8.21859 24.50779,-19.04488 37.9533,-25.20454c10.343,-4.73834 22.05979,-6.21369 32.13565,-11.49644c20.57569,-10.78784 40.01008,-21.48226 63.06972,-26.16731l10.41589,-0.04397c1.7867,-0.25755 3.48007,0.00681 4.78934,0.36828c1.35818,0.32913 3.02186,0.94552 4.48955,2.09997c32.98752,19.33247 55.07269,51.42437 87.77319,72.36412l6.00123,2.94993c28.97563,-8.46344 55.92612,-25.1487 79.53098,-43.95276c28.42098,-22.64073 58.23285,-51.2252 96.00219,-52.11984h9.14081c0,0 2.04785,0 4.36336,0.89013c1.29579,-0.55391 2.86853,-0.89013 4.7774,-0.89013c10.83974,0 10.83974,10.83974 10.83974,10.83974c0,3.20353 0.02891,39.27231 -0.10481,40.35177c-2.65624,21.44524 -10.57646,41.96863 -15.92244,62.98187c33.77,-0.39478 67.82889,-1.73904 101.00621,4.86718l10.14786,4.7086c3.21167,0.77351 5.085,2.72427 6.17762,4.73679c1.32088,1.89087 2.23165,4.46219 1.45757,7.71395c-0.99093,18.9856 -10.42014,35.92624 -16.50744,54.10612c-7.6003,22.6983 -14.86061,46.5256 -21.48045,69.43147c-10.76211,37.239 -4.82395,82.91215 -24.76962,116.97946c-9.52957,23.63593 -10.9107,48.60449 -12.60943,73.64817c-1.02936,15.17606 -4.5755,28.86737 -4.6479,44.15373l-4.88264,17.47079c0,0 -2.10759,7.37653 -8.98228,7.94522c-12.95664,40.04691 -33.87967,76.87737 -66.28755,106.06228c-11.57973,13.05663 -25.434,23.16752 -40.63784,30.93426c16.25036,17.88606 18.06148,38.19764 18.06148,64.60328zM35.06338,422.9131c-1.86578,4.01885 -5.21668,7.4394 -6.19425,11.76108c-1.07195,4.73892 0.61872,9.73035 0.23722,14.574c-0.81616,10.36156 -5.54483,22.95881 -0.88906,33.36068c3.25494,7.27225 9.9841,9.61854 15.48586,14.51209c6.89303,6.13098 11.72652,14.63341 19.4317,19.70619c16.93884,11.15188 41.88563,20.80317 61.74219,23.44274c38.30024,4.78718 74.24291,9.04484 112.82084,9.04484c10.08556,0 20.34656,2.01472 30.25639,0.13995c22.25913,-4.21101 45.2514,-8.9703 67.0885,-15.65211c26.79935,-8.20016 62.5348,-27.11707 73.00703,-55.07312c5.36199,-15.51941 3.90898,-30.16931 3.90898,-46.54584c0,-23.34027 0.39986,-40.2936 -17.94708,-55.37945c-22.71484,8.04507 -47.24376,12.04233 -71.05725,13.63685c-85.89686,5.75146 -174.51539,-1.6997 -257.37267,-26.00858c-9.40038,20.13974 -21.0833,38.15745 -30.51839,58.48061zM549.2659,0.51755c7.05091,-35.4418 18.61636,-71.99468 30.09469,-106.5754c4.53886,-13.67419 13.33304,-28.56487 15.11334,-42.9224l-0.1267,-0.07177c-35.9743,-7.22924 -73.3163,-4.35986 -109.84862,-4.35986c-3.7646,0 -6.22173,-1.30746 -7.82554,-3.0142c-1.70674,-1.60381 -3.0142,-4.06095 -3.0142,-7.82554c0,-0.50931 0.02393,-0.99469 0.06956,-1.4573l0.14095,-2.9538c4.88408,-24.4204 15.06696,-47.88718 18.1758,-72.50379c1.10769,-8.77125 0.58916,-17.64141 0.19559,-26.50508h-7.74217c-7.13718,-0.25949 -14.12015,2.8775 -20.60766,5.86389c-23.51971,10.8268 -41.41315,25.30885 -61.90862,41.55082c-26.25577,20.80677 -55.98274,38.90331 -88.18047,48.14635c0,0 -2.22682,0.63625 -4.91599,0.29125c-3.89805,0.77239 -7.47992,-1.01853 -7.47992,-1.01853l-10.14447,-5.14102c-15.2789,-9.81113 -18.5994,-11.29118 -33.3376,-23.87025c-19.006,-16.22165 -31.27388,-34.94965 -52.81252,-47.55556l-7.47883,-0.03811c-20.21392,3.94368 -37.7831,14.79198 -55.76033,24.1069c-10.00756,5.18541 -21.57323,6.72596 -31.84976,11.35543c-12.64028,5.69433 -24.06259,16.13993 -35.6592,23.87044c-33.5602,22.3718 -66.37677,45.65919 -100.57306,67.04309c0,0 -1.12312,0.702 -2.82959,1.22254c-3.18368,2.71027 -7.48583,2.71027 -7.48583,2.71027l-9.83346,-0.41706c-13.9579,-4.00689 -21.30691,-5.34858 -34.44026,-12.4644c-3.79788,-2.05773 -7.10214,-4.12691 -10.27347,-6.13256l0.57647,1.74087c18.76314,37.61377 18.38142,77.63121 15.76968,118.00348c0.48585,-0.95183 0.9735,-1.9028 1.46326,-2.8528c-0.52334,16.18597 -0.08812,32.39276 0.19485,48.59818c-1.83316,4.17551 -3.53077,8.41322 -5.09582,12.70466c-0.05638,2.74479 -0.0851,5.48664 -0.0809,8.22493c0,0 0,7.00246 -5.6282,9.75103c-13.24567,48.57092 -10.98425,102.18888 2.91063,149.46669c4.49623,15.29858 8.55103,36.60967 17.27147,50.18751c27.46979,42.77075 69.29531,61.82242 114.67836,79.47911c86.32223,28.831 179.91196,37.51349 270.55824,31.65174c20.70412,-1.33882 42.43469,-4.61494 62.62408,-11.39412c3.396,-5.29563 8.47758,-5.02971 11.42417,-4.29643c17.24566,-7.23279 32.90153,-17.43905 45.19252,-31.70123c62.48389,-55.95056 78.47207,-142.66146 78.57595,-223.10542c3.92432,-4.77145 7.6081,-13.39866 10.71938,-22.92686c4.25095,-4.6065 7.51593,-10.1367 9.45969,-16.25545c0.17794,2.08804 0.3381,4.18033 0.48151,6.27645c7.13988,-20.39114 5.04752,-43.79793 9.24299,-64.88683z" fill="#000000" stroke-width="0.5"/><path d="M34.85023,422.87322c9.43508,-20.32316 21.14561,-38.41322 30.54601,-58.55296c82.85728,24.30887 171.84355,31.75484 257.7404,26.00334c23.81351,-1.59451 48.35711,-5.56504 71.07196,-13.61011c18.34694,15.08581 17.96516,32.1018 17.96516,55.4421c0,16.37652 1.45344,31.0789 -3.90855,46.59833c-10.47223,27.95606 -46.24212,46.96796 -73.0415,55.16812c-21.83706,6.68178 -44.90884,11.51326 -67.16796,15.72429c-9.9098,1.87477 -20.22949,-0.11903 -30.31505,-0.11903c-38.5779,0 -74.72621,-4.327 -113.02643,-9.11418c-19.85657,-2.63958 -44.8431,-12.35683 -61.78194,-23.50867c-7.70519,-5.07278 -12.54752,-13.60452 -19.44053,-19.7355c-5.50177,-4.89358 -12.2344,-7.25936 -15.48938,-14.53161c-4.65577,-10.4019 0.07123,-23.03681 0.88739,-33.39837c0.38151,-4.84365 -1.30782,-9.85154 -0.23588,-14.59046c0.97757,-4.32167 4.33064,-7.75644 6.19641,-11.7753z" data-paper-data="{&quot;noHover&quot;:false,&quot;origItem&quot;:[&quot;Path&quot;,{&quot;applyMatrix&quot;:true,&quot;segments&quot;:[[[198.90219,248.3042],[0,0],[-0.43031,0.92688]],[[197.47359,251.01669],[0.22546,-0.99672],[-0.24723,1.09295]],[[197.5283,254.37794],[0.08799,-1.11711],[-0.18823,2.38972]],[[197.32325,262.07202],[-1.07377,-2.39902],[0.7507,1.67722]],[[200.8948,265.41899],[-1.26889,-1.12862],[1.58976,1.41401]],[[205.37639,269.96389],[-1.77707,-1.16995],[3.90666,2.57199]],[[219.61618,275.37056],[-4.57958,-0.60877],[8.8333,1.10408]],[[245.63639,277.4566],[-8.89734,0],[2.32606,0]],[[252.61451,277.48888],[-2.28553,0.43238],[5.13369,-0.9712]],[[268.08733,273.87899],[-5.03635,1.54104],[6.18082,-1.89123]],[[284.92516,261.17731],[-2.41524,6.44759],[1.23665,-3.57929]],[[285.8267,250.4423],[0,3.77697],[0,-5.38304]],[[281.68751,237.66997],[4.23141,3.47929],[-5.23879,1.85546]],[[265.29936,240.81508],[5.49218,-0.36775],[-19.81065,1.32648]],[[205.94072,234.81664],[19.10963,5.60643],[-2.16804,4.64489]],[[198.90217,248.3042],[2.17604,-4.68719],[0,0]]],&quot;closed&quot;:true,&quot;fillColor&quot;:[0,0,0],&quot;strokeWidth&quot;:0.5}]}" fill="#667eff" stroke-width="0.25"/><path d="M549.47962,0.48106c-4.19545,21.08893 -2.1003,44.54261 -9.24018,64.93375c-0.14339,-2.09616 -0.30339,-4.19312 -0.48132,-6.28115c-1.94378,6.11873 -5.20949,11.6617 -9.46043,16.26817c-3.11125,9.52821 -6.79746,18.17419 -10.72179,22.94563c-0.10388,80.44393 -16.18091,167.2949 -78.66479,223.24546c-12.29099,14.26218 -27.97782,24.4866 -45.2235,31.71939c-2.94658,-0.73328 -8.03536,-0.99589 -11.43136,4.29973c-20.1894,6.77915 -41.95944,10.0681 -62.66353,11.40697c-90.64629,5.86174 -184.40739,-2.85477 -270.72964,-31.68575c-45.38305,-17.65672 -87.26559,-36.76711 -114.73539,-79.53787c-8.72044,-13.57784 -12.79011,-34.91556 -17.28633,-50.21414c-13.89488,-47.27784 -16.17685,-100.98376 -2.93119,-149.55468c5.6282,-2.74857 5.62817,-9.75736 5.62817,-9.75736c-0.00421,-2.73829 0.02466,-5.48555 0.08104,-8.23034c1.56505,-4.2914 3.26313,-8.53771 5.09629,-12.71322c-0.28295,-16.20544 -0.71355,-32.44356 -0.19022,-48.62956c-0.48979,0.95 -0.97787,1.90299 -1.46372,2.85479c2.61172,-40.37228 3.01549,-80.44875 -15.74766,-118.06251l-0.57612,-1.74145c3.1713,2.00564 6.47548,4.07501 10.27336,6.13275c13.13332,7.11581 20.48415,8.45434 34.44204,12.46123l9.83492,0.4145c0,0 4.30423,-0.00347 7.48792,-2.71374c1.70647,-0.52058 2.83047,-1.22398 2.83047,-1.22398c34.19628,-21.3839 67.06841,-44.73075 100.62861,-67.10258c11.59662,-7.73051 23.04516,-18.19257 35.68548,-23.88691c10.27653,-4.62949 21.86445,-6.18025 31.87198,-11.36566c17.97722,-9.31493 35.58805,-20.17499 55.80198,-24.11867l7.48401,0.03726c21.53864,12.60591 33.84516,31.3315 52.85116,47.55315c14.73817,12.57906 18.09027,14.06233 33.36917,23.87346l10.15452,5.14308c0,0 3.58874,1.79258 7.48678,1.02019c2.68916,0.34501 4.92018,-0.29013 4.92018,-0.29013c32.19772,-9.24304 61.97135,-27.32037 88.22714,-48.12714c20.49547,-16.24194 38.40542,-30.71382 61.92512,-41.54062c6.48755,-2.98638 13.47665,-6.11908 20.61384,-5.85958l7.74489,0.00205c0.39358,8.86367 0.91921,17.73944 -0.18848,26.51069c-3.10882,24.6166 -13.27534,48.09842 -18.15942,72.51879l-0.13995,2.95479c-0.04561,0.46261 -0.06907,0.94853 -0.06907,1.45781c0,3.7646 1.31118,6.2257 3.01792,7.82949c1.60381,1.70674 4.06447,3.01807 7.82906,3.01807c36.53232,0 73.89857,-2.83572 109.87285,4.39352l0.12673,0.0718c-1.78032,14.35753 -10.56626,29.26371 -15.10513,42.9379c-11.47833,34.58072 -23.02557,71.19088 -30.07648,106.63268z" data-paper-data="{&quot;noHover&quot;:false,&quot;origItem&quot;:[&quot;Path&quot;,{&quot;applyMatrix&quot;:true,&quot;segments&quot;:[[[317.49428,150.88584],[0,0],[1.62617,-8.17405]],[[324.43511,126.30603],[-2.64728,7.97546],[1.04681,-3.15372]],[[327.92075,116.40671],[-0.4106,3.31132],[0,0]],[[327.89153,116.39016],[0,0],[-8.29686,-1.6673]],[[302.55681,115.38463],[8.42556,0],[-0.86824,0]],[[300.75198,114.68946],[0.36989,0.39363],[-0.39363,-0.36989]],[[300.05681,112.88463],[0,0.86824],[0,-0.11746]],[[300.07285,112.54853],[-0.01052,0.10669],[0,0]],[[300.10536,111.86729],[0,0],[1.12643,-5.63215]],[[304.2973,95.14552],[-0.717,5.6774],[0.25547,-2.02294]],[[304.34241,89.03257],[0.09077,2.04426],[0,0]],[[302.55681,89.03257],[0,0],[-1.64607,-0.05985]],[[297.804,90.38498],[1.49624,-0.68876],[-5.42442,2.49702]],[[283.52583,99.96797],[4.72693,-3.74593],[-6.05545,4.79873]],[[263.1885,111.07211],[7.42586,-2.13175],[0,0]],[[262.05471,111.13928],[0.62021,0.07957],[-0.89902,0.17814]],[260.32959,110.90437],[[257.98994,109.71868],[0,0],[-3.52382,-2.26277]],[[250.30119,104.21341],[3.39911,2.90115],[-4.38341,-3.74125]],[[238.12088,93.24553],[4.96752,2.90734],[0,0]],[[236.39601,93.23674],[0,0],[-4.662,0.90954]],[[223.53584,98.79659],[4.14614,-2.14833],[-2.30807,1.19593]],[[216.19023,101.41553],[2.37011,-1.06771],[-2.91527,1.3133]],[[207.96604,106.92084],[2.67456,-1.78291],[-7.74009,5.15968]],[[184.77057,122.38319],[7.88679,-4.93183],[0,0]],[[184.11797,122.66515],[0.39357,-0.12006],[-0.73426,0.62508]],[182.39149,123.29023],[[180.12357,123.19404],[0,0],[-3.21915,-0.92412]],[[172.18051,120.31934],[3.02898,1.64114],[-0.87592,-0.47458]],[[169.81111,118.90497],[0.73141,0.46257],[0,0]],[[169.94406,119.30647],[0,0],[4.3274,8.67498]],[[173.58107,146.52197],[0.60235,-9.31118],[0.11205,-0.21952]],[[173.91855,145.86402],[-0.11296,0.2191],[-0.1207,3.73302]],[[173.96349,157.07237],[-0.06526,-3.73751],[-0.42279,0.96301]],[[172.78823,160.00248],[0.36095,-0.98974],[-0.013,0.63304]],[[172.76957,161.89942],[-0.00097,-0.63154],[0,0]],[[171.47152,164.14833],[1.29805,-0.63391],[-3.05489,11.20206]],[[172.14281,198.62029],[-3.20462,-10.90383],[1.03698,3.52836]],[[176.12618,210.19519],[-2.01122,-3.1315],[6.33544,9.86435]],[[202.5748,228.5257],[-10.46683,-4.07222],[19.90876,6.64938]],[[264.97447,235.82564],[-20.90603,1.35191],[4.77505,-0.30878]],[[279.41765,233.19778],[-4.65634,1.5635],[0.78323,-1.22135]],[[282.05244,232.20688],[-0.67958,-0.16912],[3.97742,-1.66812]],[[292.47533,224.89553],[-2.83471,3.28933],[14.41085,-12.90405]],[[310.59754,173.44005],[-0.02396,18.55303],[0.90508,-1.10045]],[[313.06978,168.15236],[-0.71756,2.19752],[0.98041,-1.06241]],[[315.2515,164.40332],[-0.4483,1.41118],[0.04104,0.48157]],[[315.36255,165.85088],[-0.03307,-0.48344],[1.64669,-4.70287]],[[317.49429,150.88583],[-0.96761,4.8638],[0,0]]],&quot;closed&quot;:true,&quot;fillColor&quot;:[0,0,0],&quot;strokeWidth&quot;:0.5}]}" fill="#66ecff" stroke-width="0.25"/><path d="M85.94096,293.50797c-4.61656,-5.41331 -4.61656,-12.73647 -4.61656,-12.73647l0.25074,-4.88097c1.42135,-8.52218 2.74327,-17.06097 4.02666,-25.605c4.29023,-11.23998 8.92543,-22.95104 17.08277,-31.79419c38.31358,-41.53474 94.18247,-22.48181 142.01495,-11.19933c14.41615,3.40042 29.25274,7.86669 43.49007,10.91171c10.64375,2.27644 22.78633,2.87657 31.12543,9.87161c21.28117,17.85119 25.86446,52.29221 30.10886,77.8105c2.84706,22.88394 8.26338,45.26296 9.42731,68.39407c1.89839,37.72686 0.02291,76.08404 0.02291,113.85926c0,34.34655 3.01497,72.16527 -4.1595,105.90869c-3.3703,15.85136 -11.38151,31.41763 -18.11844,45.96417c-8.13399,6.94154 -13.91687,16.61025 -22.79127,22.5762c-12.44723,8.36788 -19.02147,5.53646 -32.23293,8.30521c-9.92146,2.07927 -18.92623,7.64785 -28.89698,9.47604c-12.98851,2.38149 -26.7985,-0.5657 -39.65011,-1.67635c-13.2139,-1.14193 -27.21285,2.04897 -40.31331,-0.17516c-6.26898,-1.06433 -12.00928,-4.22315 -18.15369,-5.85993c-26.44955,-7.04566 -56.77761,-6.97265 -76.21545,-29.9755c-10.94383,-12.95102 -17.05015,-32.02276 -22.64329,-47.57164c-0.57169,-27.83395 -3.34276,-57.8751 -0.1176,-85.45822c1.39562,-11.93619 5.64807,-23.39457 7.42058,-35.28064c4.07192,-27.30502 6.4385,-54.72984 11.17516,-81.88576c1.26414,-7.24753 4.51332,-14.09233 5.4337,-21.39151c1.83501,-14.55278 0.41789,-29.36445 1.79988,-43.96721c1.05667,-11.16509 2.93872,-22.39076 4.5301,-33.61963z" fill="#000000" stroke-width="0.5"/><path d="M3.95248,-28.89213c4.20065,-5.60769 7.34569,-12.30578 12.96782,-16.44511c5.25691,-3.87048 12.28919,-4.42098 18.52128,-6.36425c27.46727,-8.56477 57.99704,-6.53574 83.65411,5.99941c34.93566,28.96032 54.50086,67.99593 54.6287,113.55142c0.03224,11.49034 0.35254,28.63614 -2.66845,38.7529c-2.21101,7.40428 -7.0978,13.73277 -10.91084,20.45383c-12.85081,22.65164 -31.51012,51.97842 -53.66363,67.07313c-5.64042,3.8432 -12.55034,5.40223 -18.5976,8.56685c-7.206,3.77101 -13.4478,9.51841 -21.11987,12.21777c-11.94828,4.20395 -39.84106,5.11847 -52.7117,2.32639c-7.87467,-1.70831 -14.98936,-6.34423 -22.94958,-7.59462c-7.89793,-3.25595 -16.39474,-5.32911 -23.69378,-9.76789c-41.98197,-25.53065 -43.78035,-90.07886 -33.7773,-132.26946c2.99094,-12.61499 6.44912,-26.41534 12.81407,-37.98713c4.38784,-7.97725 20.37101,-32.71289 27.7012,-39.96093c8.33299,-8.23958 18.80526,-13.97275 29.80553,-18.55232z" fill="#000000" stroke-width="0.5"/><path d="M371.0491,-20.19168c41.71267,2.02439 83.82493,21.57658 118.2979,42.4868c5.02807,5.88826 11.0455,11.0586 15.08427,17.66477c10.02585,16.39927 9.69639,35.75094 13.29949,53.82844c10.38475,52.10264 -3.98694,116.9295 -56.42314,142.52268c-11.6469,5.68463 -32.17275,6.66706 -44.18373,7.32718c-34.47216,1.89471 -65.81831,-2.894 -95.39114,-21.11047c-24.13827,-14.25321 -34.3564,-33.15552 -48.80341,-56.11862c-3.8553,-6.12787 -10.08337,-10.91414 -12.56645,-17.71477c-7.89931,-21.63429 -1.92352,-26.45646 2.95608,-46.42304c7.80954,-31.9554 14.06963,-64.35872 28.93521,-94.01726c3.0363,-6.05775 4.20437,-13.52316 9.15471,-18.15022c13.06904,-12.2155 36.65255,-18.00806 53.84975,-18.44494c0,0 10.69643,0 15.79056,8.14941z" fill="#000000" stroke-width="0.5"/><path d="M-23.22158,400.20456v-427.92793h533.03303v427.92793z" fill="#000000" stroke-width="0"/></g></g></svg>