<svg version="1.1" xmlns="http://www.w3.org/2000/svg" xmlns:xlink="http://www.w3.org/1999/xlink" width="1106.11536" height="461.01502" viewBox="0,0,1106.11536,461.01502"><g transform="translate(399.448,41.87063)"><g data-paper-data="{&quot;isPaintingLayer&quot;:true}" fill-rule="nonzero" stroke-linejoin="miter" stroke-miterlimit="10" stroke-dasharray="" stroke-dashoffset="0" style="mix-blend-mode: normal"><path d="M-90.22253,419.14439v-461.01502h694.19863v461.01502z" data-paper-data="{&quot;index&quot;:null}" fill="#1a261e" stroke="none" stroke-width="0" stroke-linecap="butt"/><path d="M8.8328,413.89156l-25.53784,-69.88682l553.02011,10.48804l170.35229,30.5173z" data-paper-data="{&quot;index&quot;:null}" fill="#0e1410" stroke="none" stroke-width="0" stroke-linecap="butt"/><path d="M641.50237,173.69655c-1.38071,0 -2.5,-1.11929 -2.5,-2.5c0,-1.38071 1.11929,-2.5 2.5,-2.5c1.38071,0 2.5,1.11929 2.5,2.5c0,1.38071 -1.11929,2.5 -2.5,2.5z" data-paper-data="{&quot;index&quot;:null}" fill="#252525" stroke="none" stroke-width="0.5" stroke-linecap="butt"/><path d="M-330.13427,57.50003c0,-6.90356 5.59644,-12.5 12.5,-12.5c6.90356,0 12.5,5.59644 12.5,12.5c0,6.90356 -5.59644,12.5 -12.5,12.5c-6.90356,0 -12.5,-5.59644 -12.5,-12.5z" fill="#262429" stroke="none" stroke-width="0.5" stroke-linecap="butt"/><path d="M151.86504,353.5744v-314h230.8552v314z" fill="#000000" stroke="none" stroke-width="0" stroke-linecap="butt"/><g stroke="none" stroke-width="0.5" stroke-linecap="butt"><path d="M327.60516,197.58477c1.42861,-0.02872 2.96285,-0.62607 4.28581,-0.08615c6.27708,2.56177 5.08563,9.89078 5.56089,15.35634c0.60467,6.95366 1.5781,13.97784 1.81709,20.95025c0.17903,5.22281 -0.8032,10.03237 -1.08892,15.14643c-0.4931,8.82621 2.02752,18.55354 -6.94827,24.33184c-5.11268,3.29136 -11.81992,1.89954 -17.50638,1.45324c-5.52988,-0.43779 -11.10359,-1.22847 -16.50845,-2.51942c-2.58517,-0.61747 -2.52495,-1.0419 -5.32913,-1.30706c-10.36325,-0.97994 -21.08855,-3.00504 -31.16189,-6.05122c-4.22089,-1.27639 -8.19993,-3.29398 -12.34448,-4.65408c-4.52535,-1.48507 -9.19476,-2.73073 -13.61384,-4.70067c-4.5077,-2.00946 -8.30915,-5.14715 -12.6822,-7.41664c-1.0194,-1.00483 -1.89248,-2.18385 -3.05819,-3.0145c-4.03882,-2.87796 -10.36316,-4.42917 -13.14902,-9.06968c-2.00913,-3.34669 -1.28753,-7.29508 -1.35601,-10.90528c-0.08107,-4.27421 -0.59364,-8.50483 -0.63605,-12.78242c-0.02865,-2.89074 -1.30593,-6.4667 0.7545,-9.09359c1.22206,-1.55803 3.65506,-1.55649 5.56584,-2.07593c0.77643,-0.21107 1.59804,-0.35184 2.44272,-0.44059c-0.73317,-2.83507 -1.01996,-5.93298 -1.51537,-8.93173c-1.215,-7.35464 -1.9774,-14.75074 -2.51949,-22.17095c-0.20381,0.1151 -0.4075,0.23134 -0.61107,0.34878c-4.34532,2.50694 -8.91765,4.59844 -13.35134,6.94556c-1.79068,0.94796 -3.25265,2.4584 -5.07253,3.34903c-3.34898,1.63894 -6.38545,2.20116 -9.87426,3.00873c-2.23107,0.19181 -5.5923,0.71068 -7.71338,-0.21246c-7.39509,-3.21851 -7.54765,-15.84288 -6.78087,-22.49978c0.5637,-4.89383 2.74435,-8.0714 4.38431,-12.58465c1.56267,-4.30053 3.7881,-8.10756 6.50372,-11.52213c-0.19758,-0.24962 -0.35174,-0.51381 -0.47179,-0.76905c-0.74212,0.14299 -1.62938,0.03323 -2.63705,-0.594c-3.18364,-1.98165 -1.20199,-5.16529 -1.20199,-5.16529l1.38728,-2.21371c3.33399,-4.65022 6.55848,-9.85407 10.75152,-13.81442c1.47281,-1.39109 3.52921,-2.04258 5.05195,-3.37884c0.86021,-0.75487 1.31109,-1.9234 2.21948,-2.61955c2.43662,-1.86732 5.38481,-3.51546 8.39862,-4.95642c-0.34765,-1.39287 0.29782,-2.71662 0.29782,-2.71662c5.3576,-10.86852 16.78296,-16.21277 26.02429,-23.32431c5.62978,-4.33231 11.04032,-8.83254 17.00773,-12.71602c2.64302,-1.72003 5.32397,-3.39291 7.84351,-5.28919c3.69158,-2.7784 6.41646,-5.5115 11.53543,-5.35835c6.28501,0.18803 10.51108,7.87806 13.97501,12.06246c6.03734,5.57793 12.14714,12.02101 16.34524,19.19161c2.64614,4.51976 4.7951,9.55648 8.10381,13.66213c0.49869,0.61881 1.31666,0.91277 1.85644,1.49608c3.84467,4.15471 6.71457,9.22158 10.63869,13.30411l1.28283,2.80887c4.00822,1.34151 8.01374,2.68375 12.0453,3.93042c5.94139,1.83723 11.85809,3.67587 17.52311,6.24155c1.34681,0.60997 2.98042,0.81361 4.02813,1.8568c4.33864,4.31992 1.75213,12.35835 -0.12319,17.17862c-0.92109,5.91167 -3.07367,11.06627 -5.38228,16.53601c-0.56612,1.34131 -0.73431,2.97839 -1.78487,3.98631c-1.68425,1.61589 -3.76013,3.06679 -6.04802,3.52867c-1.69806,0.34281 -3.36841,-0.81503 -5.03394,-1.29141c-1.65801,-0.47424 -3.28017,-1.03673 -4.88599,-1.63912c0.03137,0.32449 0.06145,0.64907 0.09015,0.97371c0.63303,7.27986 0.97958,14.36536 0.91674,21.67418c-0.02651,3.08379 0.39778,5.94578 -0.0417,8.71954zM213.95166,208.33939c-0.85548,0.0749 -1.71269,0.29712 -2.5674,0.21379c-0.36795,-0.03588 -0.84753,-0.91022 -0.95873,-0.55763c-0.15194,0.48181 0.60031,0.84497 0.71281,1.33748c0.21338,0.93425 0.23727,1.90605 0.24687,2.86431c0.0429,4.28184 0.54484,8.49909 0.63605,12.78242c0.0316,1.48427 -0.79233,5.5026 0.20333,7.02704c2.25421,3.45137 7.9158,4.68333 11.06168,6.89298c1.21115,0.8507 2.11943,2.06649 3.17914,3.09972c3.95931,1.98176 7.30971,4.88437 11.36436,6.65839c4.20167,1.83836 8.57183,2.99424 12.85379,4.40911c4.11684,1.36032 8.0454,3.35171 12.23553,4.61986c9.65182,2.92113 19.87358,4.74737 29.77521,5.76687c7.27029,0.74858 14.22614,3.23 21.61857,3.80604c3.43118,0.2699 9.71058,1.9403 12.77751,-0.2292c5.95031,-4.20915 3.26771,-12.38369 3.59774,-18.42671c0.26981,-4.94034 1.25734,-9.48834 1.08596,-14.52193c-0.23314,-6.84701 -1.20019,-13.74831 -1.79401,-20.57725c-0.25081,-2.88425 -0.93073,-6.0767 -0.49408,-8.97693c0.0665,-0.44165 -0.80273,0.40246 -1.2311,0.52884l-2.35952,0.20517c0,0 -2.04884,0.17816 -3.2439,-1.24666c-4.85512,4.78132 -13.38552,3.64365 -19.7973,4.20119c-10.73849,0.93379 -21.4569,1.62734 -32.20832,2.32443c-8.34154,0.54085 -16.4327,1.4957 -24.80923,1.10712c-6.57498,-0.3105 -13.07908,0.20099 -19.59388,-0.65462c-1.89711,-0.24915 -3.9095,-0.05499 -5.69039,-0.75465c-1.41267,-0.55499 -2.58225,-1.24715 -3.55667,-2.04998c-1.01639,0.00678 -2.03323,0.06231 -3.04403,0.15081zM297.09676,105.04286c-0.67536,-0.72649 -1.62952,-1.17464 -2.24707,-1.95087c-3.46555,-4.35595 -5.83955,-9.58297 -8.59747,-14.36482c-3.89121,-6.74684 -9.76728,-12.75953 -15.41592,-17.98617c-1.62018,-1.95085 -3.20665,-3.9302 -4.86055,-5.85255c-1.20754,-1.40354 -2.14541,-4.12473 -3.97995,-3.87462c-3.24241,0.44206 -4.08272,1.87434 -6.68413,3.83351c-0.0884,0.06658 -8.16195,5.52059 -8.32431,5.62614c-7.92285,5.15084 -15.03343,11.34746 -22.80306,16.72999c-4.8695,3.37342 -10.44133,6.83529 -14.36863,11.46754c8.11558,-3.03372 16.65406,-5.48835 25.31841,-5.71923c5.45147,-0.14526 11.51038,3.84262 16.61683,5.60475c4.03859,1.91748 8.15555,2.16221 12.45044,3.56855c8.07563,2.64432 16.17608,4.49988 24.48073,6.31089c4.77233,1.04071 9.4603,2.3527 14.10771,3.78945c-1.82364,-2.46546 -3.62053,-4.95311 -5.69302,-7.18254zM182.71115,128.98233c-0.01711,0.21775 -0.03422,0.4355 -0.05133,0.65326c3.13467,-2.73029 6.59328,-5.17758 10.23211,-7.42601c0,0 3.1962,-1.96131 5.15751,1.23489c1.96131,3.19621 -1.23489,5.15752 -1.23489,5.15752c-8.76876,5.33865 -16.57187,12.08951 -20.11841,21.77006c-1.4394,3.92898 -3.58662,6.78636 -4.02788,10.96948c-0.35202,3.33711 0.01245,7.03887 0.48065,10.33545c0.08218,0.57862 0.70962,4.1993 1.68413,4.42461c1.20263,0.27805 2.46481,-0.14476 3.69437,-0.2535c2.52362,-0.59135 5.44837,-1.18121 7.72979,-2.32583c1.72571,-0.86581 3.11075,-2.31291 4.81693,-3.21658c4.37548,-2.31746 8.89226,-4.37419 13.18025,-6.84977c1.2737,-0.73534 2.55336,-1.42579 3.83751,-2.08906c-0.40367,-7.30374 -0.67758,-14.62452 -1.04189,-21.94589c0,0 -0.18637,-3.74536 3.559,-3.93174c3.74536,-0.18637 3.93174,3.559 3.93174,3.559c0.30987,6.22732 0.4977,12.50544 0.7552,18.78511c1.66741,-0.80222 3.3377,-1.61399 5.00769,-2.47302c4.42407,-2.27569 8.43164,-5.29948 12.82386,-7.63604c2.0576,-1.09461 4.34878,-1.72744 6.35921,-2.90646c1.14022,-0.66869 1.91768,-1.83623 3.0063,-2.58599c5.35286,-3.68655 11.62762,-6.05721 17.1209,-9.50078c0.20412,-0.12795 0.40161,-0.27605 0.59465,-0.43726c-6.06287,-0.21356 -12.13315,-0.20129 -18.20614,0.10254c-8.83146,0.43932 -17.62168,0.87851 -26.43501,1.62896c-4.20335,0.35791 -8.47245,0.44327 -12.55738,1.5162l0.64417,0.31912c0,0 -2.41197,2.8714 -5.28336,0.45943c-2.8714,-2.41197 -0.45942,-5.28336 -0.45942,-5.28336l3.22938,-2.75851c4.52266,-1.14463 9.14635,-1.33044 13.78713,-1.72556c8.9021,-0.75794 17.78142,-1.20301 26.70177,-1.64701c20.27118,-1.00339 40.94483,0.82569 60.97894,4.12534c6.4218,1.05768 14.37111,1.71769 17.95162,8.15816c1.83562,3.30184 1.22226,7.55621 1.76329,11.13236c0.48501,3.20583 1.00588,6.41888 1.47487,9.6393c1.60264,0.63844 3.21241,1.25964 4.85326,1.79962c1.78827,0.5885 3.36314,2.05475 5.24535,2.09399c1.34923,0.02813 1.5151,-2.23594 1.72827,-2.82585c1.95288,-5.40427 4.18565,-10.01181 5.1227,-15.7586c0.85872,-2.12927 1.33552,-4.41491 1.63188,-6.69161c0.13083,-1.00503 1.63504,-2.66976 0.666,-2.96671c-8.33243,-2.55333 -16.97816,-5.38854 -25.20248,-8.34793c-10.07597,-3.62568 -20.31167,-7.23106 -30.84801,-9.51982c-6.54898,-1.42261 -13.18885,-2.65626 -19.62941,-4.55114c-3.54608,-1.0433 -6.41721,-2.52058 -10.00831,-3.31616c-2.8403,-0.62924 -5.75003,-1.165 -8.40222,-2.36045c-3.94986,-1.3558 -7.97454,-3.84253 -11.91926,-4.97058c-5.92464,-1.69425 -15.29132,2.04185 -20.80875,3.8449c-6.59306,2.15456 -14.70434,4.93937 -20.26349,9.28202c-0.85781,0.6701 -1.26463,1.79921 -2.08919,2.50983c-0.32628,0.28119 -4.07922,2.45435 -4.83751,3.18677c-2.44705,2.36354 -4.53447,5.19315 -6.52644,8.04598c0.25755,0.839 0.20032,1.56734 0.20032,1.56734zM314.01088,162.24548c-6.78469,-2.23047 -13.945,-3.96414 -20.45304,-6.95473c-3.15796,-1.45116 -6.05987,-3.40778 -9.14817,-5.00187c-5.08937,-2.62698 -9.47447,-4.78816 -13.89957,-8.52522c-1.6948,-0.83393 -3.61533,-1.31454 -5.08442,-2.5018c-0.66172,-0.53477 -0.14694,-2.07634 -0.9451,-2.37098c-0.59895,-0.2211 0.04836,1.42529 -0.40848,1.8713c-0.92906,0.90705 -2.31382,1.18478 -3.4193,1.8658c-4.45948,2.74727 -9.62399,4.7949 -13.92926,7.79679c-1.14406,0.79771 -1.98759,2.00082 -3.18999,2.70753c-2.18358,1.2834 -4.65035,2.02219 -6.88517,3.21415c-4.43346,2.36464 -8.49003,5.40232 -12.95614,7.7047c-2.6763,1.37969 -5.34853,2.62686 -8.00847,3.91151c0.40421,7.17415 1.00787,14.32245 2.09787,21.37117c0.54354,3.51495 1.17426,7.08749 1.85368,10.58796c0.20147,1.03796 0.42456,2.05951 0.85832,2.94437c0.76191,0.15851 2.39801,0.69472 2.90847,2.4196c1.19905,0.33694 2.50447,0.12771 3.74809,0.26256c6.33705,0.68714 12.64154,0.31161 19.03666,0.6077c8.09117,0.38137 15.90606,-0.57628 23.96496,-1.09901c10.69975,-0.69403 21.36568,-1.38323 32.05262,-2.31253c3.61793,-0.31461 7.22893,-0.72274 10.85378,-0.94381c1.60231,-0.09772 3.7366,-0.07669 4.59832,-1.43108c1.6003,-2.51524 0.6746,-6.6022 0.69663,-9.41155c0.05546,-7.07399 -0.27606,-13.91473 -0.88881,-20.96126c-0.13403,-1.57041 -0.30489,-3.13897 -0.50025,-4.70571c-0.9771,-0.36689 -1.96004,-0.71906 -2.95324,-1.04557zM269.75016,133.13414c1.53819,0.923 3.23071,1.56023 4.84607,2.34034c11.88431,9.93196 26.70923,14.68693 41.15848,19.4488c-0.28593,-1.83207 -0.57529,-3.66174 -0.84815,-5.48908c-0.31235,-2.09184 0.25242,-6.62219 -0.90399,-8.60551c-1.32535,-2.27305 -3.71245,-2.65761 -6.0297,-3.12002c-4.61063,-0.92004 -9.26048,-1.64501 -13.91818,-2.28549c-8.25149,-1.13467 -16.53339,-2.07551 -24.83361,-2.65317c0.17178,0.13268 0.34769,0.25527 0.52908,0.36411z" fill="#000000"/><path d="M302.83479,112.24721c-4.6474,-1.43675 -9.33703,-2.74564 -14.10935,-3.78634c-8.30465,-1.81101 -16.41947,-3.65074 -24.49509,-6.29506c-4.29489,-1.40634 -8.45638,-1.64428 -12.49497,-3.56176c-5.10645,-1.76214 -11.19885,-5.78774 -16.65032,-5.64248c-8.66435,0.23088 -17.20269,2.68621 -25.31827,5.71992c3.9273,-4.63224 9.49811,-8.10753 14.3676,-11.48095c7.76963,-5.38254 14.91055,-11.62222 22.83341,-16.77307c0.16235,-0.10555 8.25638,-5.56354 8.34479,-5.63012c2.60141,-1.95916 3.45314,-3.38991 6.69555,-3.83197c1.83454,-0.2501 2.78098,2.47413 3.98852,3.87767c1.6539,1.92235 3.25237,3.90946 4.87255,5.86031c5.64864,5.22664 11.54179,11.27653 15.43301,18.02338c2.75792,4.78185 5.12908,10.02594 8.59463,14.38188c0.61755,0.77623 1.5713,1.2255 2.24666,1.952c2.0725,2.22943 3.86764,4.72114 5.69128,7.18661z" data-paper-data="{&quot;noHover&quot;:false,&quot;origItem&quot;:[&quot;Path&quot;,{&quot;applyMatrix&quot;:true,&quot;segments&quot;:[[[303.61878,102.42675],[1.87157,2.40059],[-0.60988,-0.78227]],[[301.54916,100.28856],[0.54799,0.82681],[-3.07516,-4.63979]],[[294.22843,85.23294],[2.3333,5.00279],[-3.29211,-7.05857]],[[280.42861,65.97891],[5.17462,5.69633],[-1.44509,-2.08387]],[[276.09333,59.7273],[1.48115,2.0584],[-1.08141,-1.50287]],[[272.464,55.52246],[1.84931,-0.09024],[-3.26852,0.15951]],[[265.4729,58.76251],[2.76135,-1.72644],[-0.09384,0.05867]],[[256.6925,63.64636],[0.17089,-0.09109],[-8.33928,4.44512]],[[232.52585,78.33804],[8.20671,-4.68922],[-5.14343,2.9389]],[[217.21781,88.51771],[4.31383,-4.27461],[8.34788,-2.31926]],[[242.93649,85.01331],[-8.65178,-0.52058],[5.44356,0.32755]],[[259.00532,92.0365],[-4.9346,-2.19788],[3.8573,2.26014]],[[271.09981,96.67021],[-4.15691,-1.77312],[7.81619,3.33397]],[[294.94179,105.07813],[-8.11654,-2.52363],[4.66423,1.45022]],[[308.66818,110.07548],[-4.50547,-1.83395],[-1.6032,-2.61418]]],&quot;closed&quot;:true,&quot;fillColor&quot;:[0,0,0,1]}]}" fill="#484848"/><path d="M325.79733,159.29773c-4.55218,-1.3199 -8.54647,-3.72441 -13.06212,-5.31207c-3.69075,-1.29763 -7.50454,-1.49528 -10.99572,-3.43912c-0.54773,-0.30497 -1.06874,-0.63965 -1.56828,-0.99842c-9.1703,-3.48659 -18.01579,-7.73962 -25.62026,-14.09483c-1.26407,-0.61047 -2.57536,-1.1335 -3.82299,-1.77441c-2.31595,-0.64863 -4.5881,-1.38469 -6.74503,-2.25014c-0.27585,0.02192 -0.55173,0.04377 -0.82763,0.06557c-1.13897,1.10167 -2.37216,2.10654 -3.74613,2.96079c-4.94027,3.07154 -10.5922,4.65657 -15.77648,7.21308c-0.34181,0.16855 -0.68693,0.3305 -1.03413,0.48826c-0.04948,0.03375 -0.09887,0.06758 -0.14817,0.10154c-1.08863,0.74975 -1.86526,1.9186 -3.00548,2.58729c-2.01042,1.17902 -4.30264,1.81021 -6.36024,2.90481c-4.39222,2.33657 -8.39984,5.36027 -12.82391,7.63596c-1.66999,0.85903 -3.34053,1.67039 -5.00794,2.47261c-0.01268,-0.30912 -0.0252,-0.61829 -0.03759,-0.92749c-2.23092,2.11698 -4.54189,4.09254 -7.23958,5.76239c0,0 -1.55836,0.95626 -3.16652,0.44522c-0.20119,0.11388 -0.4008,0.22795 -0.59818,0.3419c-4.28799,2.47558 -8.80495,4.53197 -13.18043,6.84944c-1.70618,0.90367 -3.09108,2.35101 -4.81679,3.21682c-2.28142,1.14462 -5.20666,1.7336 -7.73028,2.32496c-1.22956,0.10874 -2.49214,0.5308 -3.69477,0.25275c-0.97451,-0.22531 -1.60308,-3.8483 -1.68526,-4.42692c-0.4682,-3.29658 -0.83465,-7.00341 -0.48263,-10.34052c0.44126,-4.18312 2.58701,-7.04593 4.02641,-10.97491c2.1569,-5.88744 5.88787,-10.6966 10.45301,-14.76235l-1.86789,-0.00732c-1.93617,0.01427 -3.58881,-1.46307 -3.75943,-3.42526c-0.10434,-1.19999 0.36856,-2.31704 1.18846,-3.07702c-0.00296,-0.04389 -0.00352,-0.08765 -0.00011,-0.13117l-0.00003,0.00004c0,0 0.05731,-0.72938 -0.20024,-1.56838c1.99197,-2.85283 4.0803,-5.68859 6.52734,-8.05213c0.75829,-0.73242 4.51199,-2.90866 4.83827,-3.18985c0.82456,-0.71062 1.23207,-1.84197 2.08988,-2.51207c5.55915,-4.34265 13.67745,-7.14118 20.27051,-9.29573c5.51743,-1.80305 14.89919,-5.55287 20.82384,-3.85862c3.94472,1.12805 7.98177,3.60957 11.93164,4.96537c2.65219,1.19545 5.57654,1.72952 8.41684,2.35876c3.59109,0.79557 6.48237,2.27782 10.02845,3.32111c6.44056,1.89488 13.1018,3.14824 19.65078,4.57085c10.53634,2.28876 20.77846,5.9127 30.85443,9.53838c8.22432,2.95939 16.8705,5.80135 25.20293,8.35468c0.96904,0.29695 -0.53521,1.9634 -0.66603,2.96843c-0.29636,2.2767 -0.77345,4.56633 -1.63217,6.69559c-0.93705,5.74679 -3.17189,10.36393 -5.12477,15.76819c-0.21317,0.58991 -0.37968,2.85584 -1.7289,2.82771c-1.88221,-0.03924 -3.55105,-1.53966 -5.33933,-2.12817c-0.35542,-0.11696 -0.70938,-0.23773 -1.06212,-0.36167c-0.94904,0.13816 -1.74523,-0.08394 -1.74523,-0.08394z" fill="#484848"/><path d="M213.90692,208.31704c1.0108,-0.0885 2.02819,-0.14509 3.04458,-0.15187c0.97442,0.80283 2.14394,1.4951 3.55661,2.05009c1.78089,0.69966 3.79418,0.50387 5.69129,0.75302c6.5148,0.85561 13.02644,0.33414 19.60142,0.64463c8.37653,0.38859 16.50029,-0.58124 24.84183,-1.1221c10.75142,-0.69709 21.50906,-1.37543 32.24755,-2.30921c6.41177,-0.55755 14.94775,0.58705 19.80287,-4.19427c1.19506,1.42482 3.24512,1.24858 3.24512,1.24858l2.35993,-0.20448c0.42837,-0.12638 1.29766,-0.97038 1.23116,-0.52873c-0.43665,2.90024 0.24613,6.09844 0.49694,8.9827c0.59382,6.82894 1.56464,13.74658 1.79778,20.59359c0.17138,5.03359 -0.81694,9.59382 -1.08675,14.53415c-0.33002,6.04302 2.34746,14.23197 -3.60285,18.44112c-3.06694,2.16949 -9.34955,0.50428 -12.78073,0.23438c-7.39243,-0.57604 -14.35823,-3.04701 -21.62851,-3.79559c-9.90163,-1.0195 -20.17548,-2.83983 -29.8273,-5.76096c-4.19013,-1.26815 -8.13811,-3.2757 -12.25495,-4.63602c-4.28196,-1.41487 -8.65906,-2.58453 -12.86074,-4.42289c-4.05464,-1.77402 -7.40722,-4.68711 -11.36652,-6.66887c-1.05971,-1.03323 -1.9682,-2.25248 -3.17935,-3.10317c-3.14588,-2.20964 -8.80729,-3.44758 -11.06149,-6.89894c-0.99565,-1.52444 -0.17089,-5.54837 -0.20249,-7.03265c-0.09121,-4.28333 -0.59036,-8.50958 -0.63326,-12.79142c-0.0096,-0.95826 -0.03273,-1.93179 -0.24611,-2.86604c-0.11249,-0.4925 -0.86446,-0.85628 -0.71252,-1.33809c0.1112,-0.35259 0.59076,0.52182 0.95871,0.55769c0.8547,0.08334 1.71235,-0.13977 2.56784,-0.21467z" data-paper-data="{&quot;noHover&quot;:false,&quot;origItem&quot;:[&quot;Path&quot;,{&quot;applyMatrix&quot;:true,&quot;segments&quot;:[[[211.83771,198.13211],[0,0],[-0.85876,0.00051]],[[209.26144,198.12268],[0.84427,0.15707],[-0.36346,-0.06762]],[[208.35462,197.48409],[0.14132,-0.34163],[-0.1931,0.46683]],[[208.94888,198.87829],[-0.0694,-0.5004],[0.13165,0.94922]],[[208.94669,201.75321],[0.07345,-0.95549],[-0.32819,4.26946]],[[208.47301,214.54268],[0.2802,-4.27513],[-0.0971,1.48143]],[[208.06682,221.56092],[-0.85985,-1.60496],[1.94674,3.63367]],[[218.48978,229.38625],[-2.94264,-2.47386],[1.1329,0.95242]],[[221.38844,232.74972],[-0.96622,-1.12115],[3.77274,2.31731]],[[232.13326,240.36757],[-3.88572,-2.11861],[4.02662,2.19544]],[[244.55677,245.87363],[-4.14329,-1.7805],[3.98352,1.71185]],[[256.34609,251.53608],[-4.06452,-1.62637],[9.36248,3.74628]],[[285.50978,259.86069],[-9.77609,-1.87345],[7.17811,1.37559]],[[306.71736,265.52523],[-7.31473,-1.21428],[3.3949,0.56613]],[[319.46669,266.40381],[-3.24335,1.89565],[6.29258,-3.67785]],[[324.6472,248.35804],[-0.85229,5.99171],[0.69677,-4.89839]],[[326.9871,233.98478],[-0.26532,5.02952],[0.36089,-6.84147]],[[326.98244,213.32948],[0,6.85471],[0,-2.89514]],[[327.26789,204.34349],[-0.68626,2.85151],[0.10451,-0.43423]],[[325.9956,204.76369],[0.43771,-0.0888],[0,0]],[323.62718,204.76369],[[320.50347,203.2407],[1.06714,1.52299],[-5.25107,4.34275]],[[300.41665,205.71106],[6.43597,0],[-10.77901,0]],[[268.12805,205.23656],[10.77139,0.23692],[-8.35703,-0.18381]],[[243.31618,204.1903],[8.31138,1.11278],[-6.52337,-0.87892]],[[223.85267,201.84073],[6.41619,1.41677],[-1.86839,-0.41256]],[[218.24905,200.59596],[1.71359,0.85131],[-1.35928,-0.67529]],[[214.88334,198.24557],[0.90121,0.88423],[-1.01315,-0.0813]],[[211.83769,198.13211],[1.01466,-0.00061],[0,0]]],&quot;closed&quot;:true,&quot;fillColor&quot;:[0,0,0,1]}]}" fill="#295623"/><path d="M314.06017,162.2371c0.9932,0.32652 1.97638,0.68017 2.95347,1.04706c0.19536,1.56674 0.36664,3.13995 0.50067,4.71036c0.61275,7.04654 0.94133,13.90655 0.88587,20.98054c-0.02203,2.80935 0.90043,6.90345 -0.69987,9.41869c-0.86172,1.35439 -2.99763,1.33607 -4.59994,1.4338c-3.62484,0.22107 -7.24011,0.63492 -10.85804,0.94952c-10.68694,0.9293 -21.38565,1.63563 -32.0854,2.32966c-8.0589,0.52273 -15.90485,1.47337 -23.99603,1.09199c-6.39512,-0.29609 -12.71194,0.06887 -19.04899,-0.61827c-1.24363,-0.13485 -2.55053,0.07251 -3.74959,-0.26443c-0.51046,-1.72487 -2.14848,-2.2638 -2.91039,-2.42231c-0.43375,-0.88486 -0.65827,-1.90868 -0.85974,-2.94664c-0.67942,-3.50047 -1.31423,-7.08186 -1.85778,-10.59681c-1.08999,-7.04872 -1.69626,-14.21767 -2.10047,-21.39182c2.65993,-1.28465 5.33286,-2.53698 8.00916,-3.91667c4.46612,-2.30238 8.52759,-5.35405 12.96105,-7.71869c2.23481,-1.19196 4.70719,-1.93916 6.89077,-3.22256c1.2024,-0.70671 2.05071,-1.91488 3.19477,-2.71259c4.30527,-3.00189 9.49348,-5.06166 13.95296,-7.80893c1.10548,-0.68103 2.49608,-0.95961 3.42514,-1.86666c0.45683,-0.44601 -0.18962,-2.09247 0.40932,-1.87136c0.79816,0.29465 0.28463,1.83614 0.94636,2.37092c1.46909,1.18725 3.39829,1.66823 5.09309,2.50217c4.4251,3.73707 8.83681,5.91033 13.92618,8.53731c3.0883,1.59409 6.00076,3.5638 9.15873,5.01496c6.50804,2.9906 13.674,4.74031 20.45869,6.97078z" data-paper-data="{&quot;noHover&quot;:false,&quot;origItem&quot;:[&quot;Path&quot;,{&quot;applyMatrix&quot;:true,&quot;segments&quot;:[[[315.51387,160.87959],[0,0],[-6.56596,-2.80984]],[[295.74021,152.17916],[6.2245,3.54314],[-3.02038,-1.71928]],[[287.05974,146.40359],[2.93859,1.85563],[-4.84266,-3.058]],[[273.95096,136.7063],[4.08473,4.10636],[-1.61619,-0.97762]],[[269.10239,133.77345],[1.36071,1.31006],[-0.61291,-0.59009]],[[268.36624,131.3295],[0.76963,0.36268],[-0.57754,-0.27216]],[[267.79719,133.15838],[0.49375,-0.40476],[-1.00414,0.82315]],[[264.22911,134.72096],[1.16032,-0.5827],[-4.68071,2.35062]],[[249.67678,141.28175],[4.54914,-2.61764],[-1.20886,0.6956]],[[246.26423,143.70276],[1.2591,-0.59989],[-2.28655,1.08941]],[[239.12651,146.30836],[2.32967,-0.99388],[-4.62164,1.97168]],[[225.55162,152.86171],[4.64878,-1.90683],[-2.78576,1.14266]],[[217.23441,156.06474],[2.76122,-1.04939],[-0.2188,7.18219]],[[217.47301,177.53731],[-0.47527,-7.11665],[0.237,3.54883]],[[218.40249,188.24605],[-0.37362,-3.54617],[0.11079,1.05151]],[[219.00251,191.2537],[-0.35547,-0.91911],[0.74531,0.22392]],[[221.69043,193.91616],[-0.35911,-1.76261],[1.16536,0.43954]],[[225.40169,194.50243],[-1.22727,-0.24208],[6.2537,1.23353]],[[244.31414,196.75698],[-6.34543,-0.84898],[8.02772,1.08087]],[[268.28421,197.73818],[-8.07389,-0.17738],[10.71965,0.2355]],[[300.41666,198.21105],[-10.72727,0],[3.63158,0]],[[311.3114,198.21105],[-3.63037,-0.09378],[1.60475,0.04145]],[[316.0164,197.1837],[-0.97581,1.27465],[1.81218,-2.36715]],[[317.52573,187.86788],[-0.26532,2.79688],[0.66807,-7.04259]],[[318.45613,166.90842],[0,7.07313],[0.00252,-1.57612]],[[318.36542,162.17706],[0.0589,1.57778],[-0.94164,-0.45016]],[[315.51386,160.87958],[0.96118,0.41133],[0,0]]],&quot;closed&quot;:true,&quot;fillColor&quot;:[0,0,0,1]}]}" fill="#484230"/></g><g><path d="M303.26671,353.60318v-324h221v324z" fill="#151f19" stroke="none" stroke-width="0" stroke-linecap="butt"/><path d="M339.914,344.43907v-295.30769" fill="none" stroke="#0e1410" stroke-width="5" stroke-linecap="round"/><path d="M377.99092,345.41029v-295.30769" fill="none" stroke="#0e1410" stroke-width="5" stroke-linecap="round"/><path d="M416.06785,50.1026v295.30769" fill="none" stroke="#0e1410" stroke-width="5" stroke-linecap="round"/><path d="M454.14477,50.1026v295.30769" fill="none" stroke="#0e1410" stroke-width="5" stroke-linecap="round"/><path d="M492.22169,345.41029v-295.30769" fill="none" stroke="#0e1410" stroke-width="5" stroke-linecap="round"/></g><g><path d="M2.31857,354.5744v-324h221v324z" fill="#151f19" stroke="none" stroke-width="0" stroke-linecap="butt"/><path d="M29.73509,50.1026v295.30769" fill="none" stroke="#0e1410" stroke-width="5" stroke-linecap="round"/><path d="M67.81201,50.1026v295.30769" fill="none" stroke="#0e1410" stroke-width="5" stroke-linecap="round"/><path d="M105.88894,345.41029v-295.30769" fill="none" stroke="#0e1410" stroke-width="5" stroke-linecap="round"/><path d="M143.96585,50.1026v295.30769" fill="none" stroke="#0e1410" stroke-width="5" stroke-linecap="round"/><path d="M182.04278,50.1026v295.30769" fill="none" stroke="#0e1410" stroke-width="5" stroke-linecap="round"/></g><path d="M-399.448,128.483c0,-1.38071 1.11929,-2.5 2.5,-2.5c1.38071,0 2.5,1.11929 2.5,2.5c0,1.38071 -1.11929,2.5 -2.5,2.5c-1.38071,0 -2.5,-1.11929 -2.5,-2.5z" fill="#ffeaaa" stroke="none" stroke-width="0.5" stroke-linecap="butt"/><path d="M215.84336,194.7816c-1.25043,1.80881 -3.67478,1.40475 -3.67478,1.40475c-2.75205,-0.46136 -5.56927,-0.48297 -8.31142,-0.99993c-0.78013,-0.14707 -1.55384,-0.41879 -2.24143,-0.82028c0.21699,1.53518 -1.3045,3.4882 -1.88537,5.08697c-2.41384,6.64384 -5.44708,14.11109 -5.94155,21.24745c-0.13576,1.95933 0.35737,3.9591 0.00943,5.89206c-0.05795,0.32192 -0.88013,0.51262 -0.64475,0.73975c0.31902,0.30783 0.95963,-0.32832 1.32751,-0.08093c3.05148,2.05206 6.66715,6.00277 9.38083,8.46703c2.49442,0.91602 4.87582,2.20737 7.45877,2.86631c1.93103,0.49263 3.99673,0.10684 5.9631,0.43077c1.03165,0.16995 2.032,1.86569 2.87692,1.24982c1.61493,-1.17714 1.89272,-5.68755 2.18172,-7.61462c1.32112,-8.80918 1.31483,-17.36531 1.86007,-26.2187c0.13997,-2.27288 1.82998,-7.49577 -0.21851,-8.9193c-2.2264,-0.77778 -4.26772,-1.42124 -6.60479,-1.8001zM214.58248,189.19994c0.0881,-0.10376 0.18387,-0.20767 0.28779,-0.31158c1.99672,-1.99672 3.99344,-0.98634 4.85797,-0.36542c2.95167,0.59926 5.53711,1.51649 8.38433,2.72852c1.25621,1.35467 2.99667,2.38554 3.76863,4.06401c1.40114,3.04652 0.00661,8.43034 -0.19767,11.64826c-0.57484,9.05515 -0.51235,17.82269 -1.92941,26.83393c-0.68207,4.33737 -1.76005,11.03038 -6.34459,13.22749c-2.27601,1.09076 -5.0555,-0.22461 -7.54414,-0.64492c-2.09488,-0.35381 -4.28986,-0.00822 -6.35269,-0.5166c-3.32312,-0.81897 -6.45411,-2.44448 -9.59386,-3.76527c-3.03948,-2.65448 -6.34785,-6.10504 -9.56653,-8.5856c-1.04036,-0.80178 -2.7454,-0.84236 -3.40933,-1.97566c-0.76237,-1.30133 -0.64753,-5.89432 -0.64475,-7.78657c0.0136,-9.25704 3.24798,-18.24434 6.38367,-26.86048c0.74236,-2.03984 2.75151,-8.88137 5.13835,-10.11278c4.23212,-2.18341 4.76178,0.55256 7.78748,1.11631c2.57077,0.47899 5.21404,0.46713 7.79384,0.89481c0,0 0.54452,0.09075 1.18091,0.41154z" fill="#000000" stroke="none" stroke-width="0.5" stroke-linecap="butt"/><path d="M217.39705,195.66598c2.33707,0.37886 4.39049,1.02902 6.61689,1.8068c2.04849,1.42353 0.36896,6.6571 0.22899,8.92998c-0.54524,8.85339 -0.54664,17.47652 -1.86776,26.2857c-0.289,1.92707 -0.57778,6.44475 -2.19271,7.62189c-0.84492,0.61587 -1.84932,-1.07812 -2.88097,-1.24807c-1.96637,-0.32393 -4.04453,0.06485 -5.97556,-0.42778c-2.58295,-0.65894 -4.98329,-1.9519 -7.47771,-2.86792c-2.71368,-2.46426 -6.35713,-6.43504 -9.40861,-8.4871c-0.36788,-0.24739 -1.00948,0.38725 -1.3285,0.07942c-0.23538,-0.22713 0.58638,-0.41851 0.64433,-0.74043c0.34794,-1.93296 -0.15125,-3.94795 -0.01549,-5.90728c0.49447,-7.13636 3.55351,-14.6586 5.96735,-21.30244c0.58087,-1.59877 2.11005,-3.55501 1.89306,-5.09019c0.68759,0.40149 1.46528,0.6721 2.24541,0.81917c2.74215,0.51696 5.57804,0.53779 8.33009,0.99915c0,0 2.43146,0.40564 3.68189,-1.40317z" data-paper-data="{&quot;noHover&quot;:false,&quot;origItem&quot;:[&quot;Path&quot;,{&quot;applyMatrix&quot;:true,&quot;segments&quot;:[[[215.84336,194.7816],[0,0],[-1.25043,1.80881]],[[212.16858,196.18635],[0,0],[-2.75205,-0.46136]],[[203.85716,195.18642],[2.74215,0.51696],[-0.78013,-0.14707]],[[201.61573,194.36614],[0.68759,0.40149],[0.21699,1.53518]],[[199.73036,199.45311],[0.58087,-1.59877],[-2.41384,6.64384]],[[193.78881,220.70056],[0.49447,-7.13636],[-0.13576,1.95933]],[[193.79824,226.59262],[0.34794,-1.93296],[-0.05795,0.32192]],[[193.15349,227.33237],[-0.23538,-0.22713],[0.31902,0.30783]],[[194.481,227.25144],[-0.36788,-0.24739],[3.05148,2.05206]],[[203.86183,235.71847],[-2.71368,-2.46426],[2.49442,0.91602]],[[211.3206,238.58478],[-2.58295,-0.65894],[1.93103,0.49263]],[[217.2837,239.01555],[-1.96637,-0.32393],[1.03165,0.16995]],[[220.16062,240.26537],[-0.84492,0.61587],[1.61493,-1.17714]],[[222.34234,232.65075],[-0.289,1.92707],[1.32112,-8.80918]],[[224.20241,206.43205],[-0.54524,8.85339],[0.13997,-2.27288]],[[223.9839,197.51275],[2.04849,1.42353],[-2.2264,-0.77778]],[[217.37911,195.71265],[2.33707,0.37886],[0,0]]],&quot;closed&quot;:true,&quot;fillColor&quot;:[0,0,0,1]}]}" fill="#484230" stroke="none" stroke-width="0.5" stroke-linecap="butt"/><path d="M317.2189,203.67508c-1.20386,3.49091 -4.72494,2.31722 -4.72494,2.31722c-1.90358,-0.64353 -2.83203,-1.10918 -4.80766,-1.24139c-1.39344,-0.09325 -2.80969,0.16188 -4.18932,-0.05489c-0.65093,-0.10227 -1.11338,-0.81975 -1.76942,-0.88132c-2.16059,-0.20279 -3.58591,2.38655 -3.7629,3.93033c-0.68126,5.94231 -1.49387,11.67769 -1.85637,17.63392c-0.15471,2.542 -1.07304,4.98202 -1.46374,7.49857c-0.65251,4.20292 -0.42526,8.86488 -0.42526,13.13616c0,3.04374 -0.73968,6.74215 -0.21139,9.65346c0.28791,1.58663 4.30618,1.69137 5.04436,1.79212c4.50752,0.61522 9.28198,2.30077 13.91841,1.45103c1.75302,-0.32129 3.28067,-1.44455 5.01573,-1.85182c0.66107,-0.15517 1.41186,0.11215 2.03012,-0.16864c2.39231,-1.08651 2.90447,-6.30852 3.23029,-8.19348c0.99607,-5.7625 0.41985,-12.007 0.41985,-17.84056c0,-6.72252 0.78048,-13.94894 -0.83679,-20.41184c-0.41535,-1.65983 -0.1416,-4.87117 -1.38065,-6.30493c-0.80533,-0.93187 -1.74256,-0.25648 -2.86818,-0.33548c-0.4546,-0.03191 -0.90851,-0.07782 -1.36214,-0.12846zM307.54147,197.64164c0.99815,-1.79901 3.29623,-1.79901 3.29623,-1.79901h2.36842c4.39611,0.01782 10.15944,-0.28658 13.54639,2.99309c2.95582,2.86219 2.46579,6.23533 3.35619,9.80034c1.77915,7.12334 1.05795,14.8425 1.05795,22.21973c0,9.76964 2.50055,26.7389 -7.71828,32.7028c-1.0756,0.62774 -2.44971,0.4618 -3.65409,0.77873c-1.85103,0.48708 -3.52186,1.59686 -5.40532,1.93765c-5.51744,0.99832 -11.03431,-0.59406 -16.39738,-1.39108c-4.53183,-0.67349 -9.17961,-1.81205 -11.06091,-6.73419c-1.23679,-3.23588 -0.21139,-8.6529 -0.21139,-12.13601c0,-4.68219 -0.18332,-9.71716 0.52211,-14.33753c0.34472,-2.25784 1.26556,-4.43074 1.37837,-6.71196c0.1453,-2.93821 0.10609,-5.89596 0.5004,-8.81121c0.41042,-3.03437 0.68449,-10.52771 2.27791,-13.53945c1.74448,-3.29728 6.9169,-6.16196 10.54979,-6.29561c1.04453,-0.03843 1.93387,0.85757 2.96742,1.01341c0.91417,0.13784 1.78165,0.22985 2.62619,0.31029z" fill="#000000" stroke="none" stroke-width="0.5" stroke-linecap="butt"/><path d="M318.59769,203.75639c1.12562,0.079 2.0672,-0.59462 2.87253,0.33725c1.23905,1.43376 0.97207,4.6489 1.38742,6.30873c1.61727,6.4629 0.85898,13.72909 0.85898,20.45161c0,5.83356 0.55825,12.11829 -0.43782,17.88079c-0.32582,1.88496 -0.8499,7.11434 -3.24221,8.20085c-0.61826,0.28079 -1.37234,0.01478 -2.03341,0.16995c-1.73506,0.40727 -3.27207,1.53288 -5.02509,1.85417c-4.63643,0.84974 -9.43589,-0.83844 -13.94341,-1.45366c-0.73818,-0.10075 -4.76494,-0.20963 -5.05285,-1.79626c-0.52829,-2.91131 0.2021,-6.61703 0.2021,-9.66077c0,-4.27128 -0.24163,-8.9634 0.41088,-13.16632c0.3907,-2.51655 1.31355,-4.98313 1.46826,-7.52513c0.3625,-5.95623 1.19943,-11.71568 1.88069,-17.65799c0.17699,-1.54378 1.61071,-4.13611 3.7713,-3.93332c0.65604,0.06157 1.12116,0.77844 1.77209,0.88071c1.37963,0.21677 2.80353,-0.03928 4.19697,0.05397c1.97563,0.13221 2.91336,0.59832 4.81694,1.24185c0,0 3.52843,1.17532 4.73229,-2.31559c0.45363,0.05064 0.90972,0.09726 1.36432,0.12917z" data-paper-data="{&quot;noHover&quot;:false,&quot;origItem&quot;:[&quot;Path&quot;,{&quot;applyMatrix&quot;:true,&quot;segments&quot;:[[[317.2189,203.67508],[0.45363,0.05064],[-1.20386,3.49091]],[[312.49396,205.9923],[0,0],[-1.90358,-0.64353]],[[307.6863,204.75091],[1.97563,0.13221],[-1.39344,-0.09325]],[[303.49698,204.69602],[1.37963,0.21677],[-0.65093,-0.10227]],[[301.72756,203.8147],[0.65604,0.06157],[-2.16059,-0.20279]],[[297.96466,207.74503],[0.17699,-1.54378],[-0.68126,5.94231]],[[296.10829,225.37895],[0.3625,-5.95623],[-0.15471,2.542]],[[294.64455,232.87752],[0.3907,-2.51655],[-0.65251,4.20292]],[[294.21929,246.01368],[0,-4.27128],[0,3.04374]],[[294.0079,255.66714],[-0.52829,-2.91131],[0.28791,1.58663]],[[299.05226,257.45926],[-0.73818,-0.10075],[4.50752,0.61522]],[[312.97067,258.91029],[-4.63643,0.84974],[1.75302,-0.32129]],[[317.9864,257.05847],[-1.73506,0.40727],[0.66107,-0.15517]],[[320.01652,256.88983],[-0.61826,0.28079],[2.39231,-1.08651]],[[323.24681,248.69635],[-0.32582,1.88496],[0.99607,-5.7625]],[[323.66666,230.85579],[0,5.83356],[0,-6.72252]],[[322.82987,210.44395],[1.61727,6.4629],[-0.41535,-1.65983]],[[321.44922,204.13902],[1.23905,1.43376],[-0.80533,-0.93187]],[[318.58104,203.80354],[1.12562,0.079],[-0.4546,-0.03191]]],&quot;closed&quot;:true,&quot;fillColor&quot;:[0,0,0,1]}]}" fill="#484230" stroke="none" stroke-width="0.5" stroke-linecap="butt"/><path d="M237.26666,170.73801c0,-2.07107 1.67893,-3.75 3.75,-3.75c2.07107,0 3.75,1.67893 3.75,3.75c0,2.07107 -1.67893,3.75 -3.75,3.75c-2.07107,0 -3.75,-1.67893 -3.75,-3.75z" fill="#ffffff" stroke="none" stroke-width="0.5" stroke-linecap="butt"/><path d="M278.40951,167.30944c0,-2.07107 1.67893,-3.75 3.75,-3.75c2.07107,0 3.75,1.67893 3.75,3.75c0,2.07107 -1.67893,3.75 -3.75,3.75c-2.07107,0 -3.75,-1.67893 -3.75,-3.75z" fill="#ffffff" stroke="none" stroke-width="0.5" stroke-linecap="butt"/></g></g></svg>