<svg version="1.1" xmlns="http://www.w3.org/2000/svg" xmlns:xlink="http://www.w3.org/1999/xlink" width="89.02359" height="117.19577" viewBox="0,0,89.02359,117.19577"><g transform="translate(-203.50429,-137.36383)"><g data-paper-data="{&quot;isPaintingLayer&quot;:true}" fill-rule="nonzero" stroke="none" stroke-linecap="butt" stroke-linejoin="miter" stroke-miterlimit="10" stroke-dasharray="" stroke-dashoffset="0" style="mix-blend-mode: normal"><path d="M270.42861,224.48376c0,2.32978 0.09351,4.28385 -0.6317,6.52042c-1.74888,4.19317 -6.31631,6.95644 -10.49935,8.25002c-2.73542,0.84592 -5.65569,1.48111 -8.45477,1.97301c-1.33703,0.23496 -2.71501,0.01691 -4.07253,0.01691c-4.7705,0 -9.23569,-0.52346 -13.96973,-1.11526c-2.77541,-0.41848 -6.17999,-1.64585 -8.54845,-3.23971c-0.24042,-0.16179 -2.42032,-2.40951 -2.62033,-2.58718c-1.18746,-1.05486 -1.7489,-0.9264 -2.54492,-2.66249c-0.80013,-1.74505 -0.26138,-3.59178 -0.10735,-5.35322c0.06109,-0.69846 -0.13137,-1.42056 0.02864,-2.10318c0.73037,-3.11583 3.03822,-5.82123 4.45526,-8.66917c-0.04218,-0.01401 -0.08434,-0.02806 -0.12648,-0.04216c-6.06003,-2.35567 -11.60128,-5.02918 -15.22643,-10.7537c-1.1632,-1.83682 -1.7236,-4.57482 -2.32933,-6.63255c-2.01151,-6.8334 -2.11034,-14.59354 0.252,-21.42478c0.23613,-6.6714 1.7934,-13.63975 -1.30826,-19.82831l-0.58431,-1.7425c0,0 -0.16169,-0.48507 0.02024,-0.94989c-0.33893,-0.19947 -0.86217,-0.6631 -0.57208,-1.53339c0.41388,-1.24166 1.65554,-0.82776 1.65554,-0.82776c2.84902,0.96279 5.01247,2.73594 7.94736,3.57015l0.1848,-0.01987c0.08243,-0.0705 0.14156,-0.10746 0.14156,-0.10746c4.10832,-2.56631 8.04824,-5.36598 12.0788,-8.05321c1.48839,-0.99233 2.95913,-2.29952 4.58258,-3.04326c1.24884,-0.57212 2.66356,-0.75025 3.88013,-1.38812c2.48436,-1.30255 4.83092,-2.59383 7.6152,-3.15951l1.25764,-0.00531c0.21573,-0.0311 0.4202,0.00082 0.57828,0.04447c0.16399,0.03974 0.36486,0.11416 0.54208,0.25355c3.983,2.33425 6.64961,6.20911 10.59797,8.73742l0.7246,0.35618c3.49859,-1.0219 6.75266,-3.03652 9.60277,-5.30697c3.43162,-2.7337 7.03118,-6.18506 11.59156,-6.29309h1.10369c0,0 0.24726,0 0.52684,0.10748c0.15646,-0.06688 0.34635,-0.10748 0.57684,-0.10748c1.30881,0 1.30881,1.30881 1.30881,1.30881c0,0.3868 0.00349,4.74184 -0.01266,4.87218c-0.32072,2.58935 -1.27703,5.0674 -1.92251,7.60459c4.07748,-0.04766 8.18983,-0.20998 12.19574,0.58768l1.22528,0.56853c0.38778,0.0934 0.61398,0.32894 0.74589,0.57193c0.15949,0.22831 0.26945,0.53878 0.17599,0.9314c-0.11964,2.29237 -1.25815,4.33783 -1.99315,6.53292c-0.91768,2.74065 -1.79431,5.61762 -2.5936,8.38333c-1.29945,4.49633 -0.58245,10.01103 -2.99075,14.1244c-1.15062,2.85387 -1.31738,5.86863 -1.52249,8.89246c-0.12429,1.8324 -0.55246,3.48552 -0.56121,5.33124l-0.58954,2.10947c0,0 -0.25447,0.89066 -1.08455,0.95932c-1.56441,4.83536 -4.09072,9.28237 -8.00373,12.80623c-1.39816,1.57649 -3.07097,2.79731 -4.90672,3.73508c1.96211,2.15961 2.18079,4.61209 2.18079,7.80036zM222.30366,223.3644c-0.22527,0.48524 -0.62987,0.89825 -0.74791,1.42006c-0.12943,0.57219 0.07471,1.17486 0.02864,1.7597c-0.09854,1.25108 -0.6695,2.7721 -0.10735,4.02805c0.39301,0.87808 1.2055,1.16137 1.8698,1.75222c0.83229,0.74027 1.41589,1.76688 2.34623,2.37937c2.04524,1.3465 5.05738,2.51183 7.45491,2.83054c4.62447,0.57801 8.96428,1.09209 13.62227,1.09209c1.21776,0 2.45669,0.24326 3.65323,0.01691c2.68763,-0.50846 5.46378,-1.0831 8.10043,-1.88987c3.23582,-0.99011 7.55061,-3.27418 8.81505,-6.64967c0.64742,-1.87386 0.47197,-3.64272 0.47197,-5.62006c0,-2.81817 0.04828,-4.86515 -2.16698,-6.68666c-2.74265,0.97138 -5.70433,1.45402 -8.57963,1.64656c-10.3714,0.69445 -21.07142,-0.20523 -31.07583,-3.14035c-1.13503,2.43172 -2.54565,4.60723 -3.68486,7.0611zM284.38979,172.36329c0.85135,-4.27933 2.24779,-8.69283 3.63371,-12.86819c0.54803,-1.65105 1.60987,-3.44899 1.82482,-5.18256l-0.0153,-0.00867c-4.34363,-0.87288 -8.8524,-0.52642 -13.2634,-0.52642c-0.45455,0 -0.75123,-0.15786 -0.94488,-0.36394c-0.20608,-0.19364 -0.36394,-0.49033 -0.36394,-0.94488c0,-0.0615 0.00289,-0.1201 0.0084,-0.17596l0.01703,-0.35664c0.58972,-2.94859 1.81922,-5.78202 2.1946,-8.75429c0.13375,-1.05906 0.07113,-2.13007 0.02361,-3.2003h-0.93481c-0.86176,-0.03133 -1.7049,0.34745 -2.48822,0.70802c-2.83983,1.30726 -5.00033,3.05586 -7.475,5.01695c-3.17019,2.51226 -6.7595,4.69729 -10.64713,5.81331c0,0 -0.26888,0.07682 -0.59357,0.03516c-0.47066,0.09326 -0.90315,-0.12298 -0.90315,-0.12298l-1.22487,-0.62075c-1.84481,-1.18462 -2.24574,-1.36333 -4.02527,-2.88216c-2.29484,-1.95865 -3.77609,-4.21991 -6.37672,-5.74198l-0.90302,-0.0046c-2.44069,0.47617 -4.56202,1.78603 -6.73264,2.91073c-1.20833,0.62611 -2.60481,0.8121 -3.84563,1.37108c-1.52622,0.68755 -2.90538,1.94878 -4.30558,2.88218c-4.05214,2.70123 -8.01451,5.513 -12.14344,8.09496c0,0 -0.13561,0.08476 -0.34165,0.14761c-0.38441,0.32724 -0.90386,0.32724 -0.90386,0.32724l-1.18732,-0.05036c-1.68531,-0.4838 -2.57265,-0.6458 -4.1584,-1.50498c-0.45857,-0.24845 -0.85753,-0.49829 -1.24045,-0.74045l0.0696,0.21019c2.26551,4.54158 2.21942,9.37339 1.90407,14.24804c0.05866,-0.11492 0.11754,-0.22975 0.17668,-0.34445c-0.06319,1.95434 -0.01064,3.91118 0.02353,5.86787c-0.22134,0.50416 -0.42631,1.01584 -0.61528,1.53399c-0.00681,0.33141 -0.01027,0.66247 -0.00977,0.9931c0,0 0,0.8455 -0.67956,1.17737c-1.59932,5.86458 -1.32626,12.33855 0.35144,18.04699c0.54288,1.84719 1.03247,4.42035 2.0854,6.05977c3.31677,5.16426 8.3669,7.46459 13.84656,9.59651c10.42277,3.48113 21.72303,4.52948 32.66789,3.82171c2.49986,-0.16165 5.12367,-0.55722 7.56139,-1.37576c0.41004,-0.63941 1.0236,-0.6073 1.37939,-0.51877c2.08229,-0.8733 3.97261,-2.10564 5.45667,-3.82768c7.54447,-6.75562 9.47492,-17.22531 9.48746,-26.93832c0.47383,-0.57611 0.91862,-1.61778 1.29428,-2.76825c0.51327,-0.5562 0.90749,-1.22394 1.1422,-1.96273c0.02148,0.25212 0.04083,0.50474 0.05814,0.75783c0.86209,-2.46208 0.60945,-5.28828 1.11602,-7.8346z" fill="#000000" stroke-width="0.5"/><path d="M222.27793,223.35958c1.13922,-2.45386 2.55318,-4.63811 3.6882,-7.06984c10.0044,2.93512 20.74883,3.83415 31.12023,3.13971c2.8753,-0.19253 5.83876,-0.67193 8.58141,-1.64332c2.21526,1.8215 2.16915,3.87606 2.16915,6.69422c0,1.97735 0.17549,3.75255 -0.47193,5.62641c-1.26444,3.37549 -5.58339,5.67103 -8.81921,6.66114c-2.63666,0.80677 -5.42241,1.39014 -8.11003,1.89859c-1.19654,0.22636 -2.44256,-0.01437 -3.66032,-0.01437c-4.658,0 -9.02263,-0.52246 -13.6471,-1.10047c-2.39754,-0.3187 -5.41446,-1.492 -7.45971,-2.8385c-0.93035,-0.6125 -1.51502,-1.64264 -2.3473,-2.38291c-0.6643,-0.59086 -1.47722,-0.87651 -1.87023,-1.75458c-0.56215,-1.25595 0.0086,-2.78153 0.10714,-4.03261c0.04606,-0.58484 -0.15791,-1.1895 -0.02847,-1.76169c0.11804,-0.5218 0.5229,-0.93653 0.74817,-1.42178z" data-paper-data="{&quot;noHover&quot;:false,&quot;origItem&quot;:[&quot;Path&quot;,{&quot;applyMatrix&quot;:true,&quot;segments&quot;:[[[198.90219,248.3042],[0,0],[-0.43031,0.92688]],[[197.47359,251.01669],[0.22546,-0.99672],[-0.24723,1.09295]],[[197.5283,254.37794],[0.08799,-1.11711],[-0.18823,2.38972]],[[197.32325,262.07202],[-1.07377,-2.39902],[0.7507,1.67722]],[[200.8948,265.41899],[-1.26889,-1.12862],[1.58976,1.41401]],[[205.37639,269.96389],[-1.77707,-1.16995],[3.90666,2.57199]],[[219.61618,275.37056],[-4.57958,-0.60877],[8.8333,1.10408]],[[245.63639,277.4566],[-8.89734,0],[2.32606,0]],[[252.61451,277.48888],[-2.28553,0.43238],[5.13369,-0.9712]],[[268.08733,273.87899],[-5.03635,1.54104],[6.18082,-1.89123]],[[284.92516,261.17731],[-2.41524,6.44759],[1.23665,-3.57929]],[[285.8267,250.4423],[0,3.77697],[0,-5.38304]],[[281.68751,237.66997],[4.23141,3.47929],[-5.23879,1.85546]],[[265.29936,240.81508],[5.49218,-0.36775],[-19.81065,1.32648]],[[205.94072,234.81664],[19.10963,5.60643],[-2.16804,4.64489]],[[198.90217,248.3042],[2.17604,-4.68719],[0,0]]],&quot;closed&quot;:true,&quot;fillColor&quot;:[0,0,0],&quot;strokeWidth&quot;:0.5}]}" fill="#667eff" stroke-width="0.25"/><path d="M284.41559,172.35888c-0.50656,2.54633 -0.2536,5.37818 -1.11568,7.84026c-0.01732,-0.2531 -0.03663,-0.50629 -0.05812,-0.75841c-0.2347,0.73879 -0.62901,1.40806 -1.14228,1.96426c-0.37566,1.15046 -0.82075,2.19439 -1.29458,2.77052c-0.01254,9.713 -1.95373,20.19962 -9.49819,26.95522c-1.48404,1.72205 -3.37811,2.95658 -5.4604,3.82988c-0.35578,-0.08854 -0.97021,-0.12025 -1.38025,0.51917c-2.43772,0.81853 -5.06629,1.21565 -7.56615,1.3773c-10.94486,0.70776 -22.26582,-0.34469 -32.68859,-3.82582c-5.47966,-2.13192 -10.53667,-4.43935 -13.85344,-9.60361c-1.05293,-1.63943 -1.54431,-4.21579 -2.0872,-6.06298c-1.6777,-5.70845 -1.95323,-12.19304 -0.35392,-18.05762c0.67956,-0.33187 0.67956,-1.17813 0.67956,-1.17813c-0.00051,-0.33063 0.00298,-0.66234 0.00978,-0.99375c0.18896,-0.51816 0.394,-1.03086 0.61534,-1.53503c-0.03416,-1.95668 -0.08616,-3.91732 -0.02297,-5.87166c-0.05914,0.1147 -0.11808,0.22977 -0.17673,0.34469c0.31535,-4.87465 0.3641,-9.71359 -1.90141,-14.25518l-0.06957,-0.21027c0.38291,0.24217 0.78187,0.49202 1.24044,0.74048c1.58575,0.85918 2.4733,1.02081 4.15862,1.5046l1.18749,0.05005c0,0 0.5197,-0.00042 0.90411,-0.32766c0.20604,-0.06286 0.34176,-0.14779 0.34176,-0.14779c4.12894,-2.58194 8.098,-5.40091 12.15016,-8.10214c1.4002,-0.9334 2.78254,-2.19662 4.30876,-2.88416c1.24082,-0.55898 2.63996,-0.74622 3.8483,-1.37232c2.17062,-1.12471 4.29699,-2.43598 6.73767,-2.91214l0.90364,0.0045c2.60062,1.52207 4.08655,3.78304 6.38138,5.74169c1.77952,1.51882 2.18427,1.69792 4.02908,2.88254l1.22608,0.62099c0,0 0.43331,0.21645 0.90397,0.12318c0.3247,0.04165 0.59407,-0.03502 0.59407,-0.03502c3.88763,-1.11602 7.48258,-3.29874 10.65278,-5.81099c2.47468,-1.9611 4.63717,-3.70846 7.47699,-5.01572c0.78332,-0.36059 1.6272,-0.73883 2.48896,-0.7075l0.93514,0.00025c0.04752,1.07023 0.11099,2.1419 -0.02276,3.20097c-0.37536,2.97227 -1.6029,5.80753 -2.19261,8.7561l-0.01691,0.35676c-0.00551,0.05586 -0.00834,0.11453 -0.00834,0.17602c0,0.45455 0.15831,0.7517 0.36439,0.94536c0.19364,0.20608 0.49075,0.36442 0.94531,0.36442c4.41101,0 8.9227,-0.34239 13.26633,0.53049l0.0153,0.00867c-0.21496,1.73357 -1.2758,3.53337 -1.82383,5.18443c-1.38592,4.17537 -2.78017,8.59577 -3.63151,12.87511z" data-paper-data="{&quot;noHover&quot;:false,&quot;origItem&quot;:[&quot;Path&quot;,{&quot;applyMatrix&quot;:true,&quot;segments&quot;:[[[317.49428,150.88584],[0,0],[1.62617,-8.17405]],[[324.43511,126.30603],[-2.64728,7.97546],[1.04681,-3.15372]],[[327.92075,116.40671],[-0.4106,3.31132],[0,0]],[[327.89153,116.39016],[0,0],[-8.29686,-1.6673]],[[302.55681,115.38463],[8.42556,0],[-0.86824,0]],[[300.75198,114.68946],[0.36989,0.39363],[-0.39363,-0.36989]],[[300.05681,112.88463],[0,0.86824],[0,-0.11746]],[[300.07285,112.54853],[-0.01052,0.10669],[0,0]],[[300.10536,111.86729],[0,0],[1.12643,-5.63215]],[[304.2973,95.14552],[-0.717,5.6774],[0.25547,-2.02294]],[[304.34241,89.03257],[0.09077,2.04426],[0,0]],[[302.55681,89.03257],[0,0],[-1.64607,-0.05985]],[[297.804,90.38498],[1.49624,-0.68876],[-5.42442,2.49702]],[[283.52583,99.96797],[4.72693,-3.74593],[-6.05545,4.79873]],[[263.1885,111.07211],[7.42586,-2.13175],[0,0]],[[262.05471,111.13928],[0.62021,0.07957],[-0.89902,0.17814]],[260.32959,110.90437],[[257.98994,109.71868],[0,0],[-3.52382,-2.26277]],[[250.30119,104.21341],[3.39911,2.90115],[-4.38341,-3.74125]],[[238.12088,93.24553],[4.96752,2.90734],[0,0]],[[236.39601,93.23674],[0,0],[-4.662,0.90954]],[[223.53584,98.79659],[4.14614,-2.14833],[-2.30807,1.19593]],[[216.19023,101.41553],[2.37011,-1.06771],[-2.91527,1.3133]],[[207.96604,106.92084],[2.67456,-1.78291],[-7.74009,5.15968]],[[184.77057,122.38319],[7.88679,-4.93183],[0,0]],[[184.11797,122.66515],[0.39357,-0.12006],[-0.73426,0.62508]],[182.39149,123.29023],[[180.12357,123.19404],[0,0],[-3.21915,-0.92412]],[[172.18051,120.31934],[3.02898,1.64114],[-0.87592,-0.47458]],[[169.81111,118.90497],[0.73141,0.46257],[0,0]],[[169.94406,119.30647],[0,0],[4.3274,8.67498]],[[173.58107,146.52197],[0.60235,-9.31118],[0.11205,-0.21952]],[[173.91855,145.86402],[-0.11296,0.2191],[-0.1207,3.73302]],[[173.96349,157.07237],[-0.06526,-3.73751],[-0.42279,0.96301]],[[172.78823,160.00248],[0.36095,-0.98974],[-0.013,0.63304]],[[172.76957,161.89942],[-0.00097,-0.63154],[0,0]],[[171.47152,164.14833],[1.29805,-0.63391],[-3.05489,11.20206]],[[172.14281,198.62029],[-3.20462,-10.90383],[1.03698,3.52836]],[[176.12618,210.19519],[-2.01122,-3.1315],[6.33544,9.86435]],[[202.5748,228.5257],[-10.46683,-4.07222],[19.90876,6.64938]],[[264.97447,235.82564],[-20.90603,1.35191],[4.77505,-0.30878]],[[279.41765,233.19778],[-4.65634,1.5635],[0.78323,-1.22135]],[[282.05244,232.20688],[-0.67958,-0.16912],[3.97742,-1.66812]],[[292.47533,224.89553],[-2.83471,3.28933],[14.41085,-12.90405]],[[310.59754,173.44005],[-0.02396,18.55303],[0.90508,-1.10045]],[[313.06978,168.15236],[-0.71756,2.19752],[0.98041,-1.06241]],[[315.2515,164.40332],[-0.4483,1.41118],[0.04104,0.48157]],[[315.36255,165.85088],[-0.03307,-0.48344],[1.64669,-4.70287]],[[317.49429,150.88583],[-0.96761,4.8638],[0,0]]],&quot;closed&quot;:true,&quot;fillColor&quot;:[0,0,0],&quot;strokeWidth&quot;:0.5}]}" fill="#66ecff" stroke-width="0.25"/><path d="M228.44675,207.7397c-0.55742,-0.65361 -0.55742,-1.53783 -0.55742,-1.53783l0.03027,-0.58933c0.17161,-1.029 0.33123,-2.05998 0.48619,-3.09161c0.51801,-1.35715 1.07768,-2.77117 2.06262,-3.83891c4.62608,-5.01501 11.37183,-2.71452 17.14725,-1.35224c1.74065,0.41057 3.53205,0.94985 5.25111,1.3175c1.28515,0.27486 2.75128,0.34733 3.75816,1.19193c2.56954,2.1554 3.12294,6.31389 3.63542,9.39504c0.34376,2.76306 0.99774,5.46516 1.13828,8.25807c0.22922,4.55523 0.00277,9.18658 0.00277,13.74766c0,4.14709 0.36403,8.71342 -0.50223,12.78769c-0.40694,1.91393 -1.37424,3.79344 -2.18767,5.54983c-0.98212,0.83814 -1.68036,2.00556 -2.75188,2.72591c-1.50291,1.01036 -2.2967,0.66848 -3.89188,1.0028c-1.19795,0.25105 -2.2852,0.92342 -3.4891,1.14416c-1.56827,0.28754 -3.23572,-0.0683 -4.78746,-0.2024c-1.59548,-0.13789 -3.28575,0.24739 -4.86753,-0.02115c-0.75693,-0.12851 -1.45003,-0.50991 -2.19193,-0.70754c-3.19359,-0.85071 -6.85547,-0.8419 -9.20245,-3.61932c-1.32139,-1.56374 -2.05867,-3.86651 -2.73401,-5.74392c-0.06903,-3.36075 -0.40362,-6.98799 -0.0142,-10.31844c0.16852,-1.4412 0.68196,-2.82472 0.89598,-4.25987c0.49166,-3.29688 0.7774,-6.60823 1.34932,-9.8871c0.15263,-0.87508 0.54495,-1.70155 0.65608,-2.58287c0.22156,-1.75714 0.05046,-3.54554 0.21732,-5.30871c0.12759,-1.3481 0.35482,-2.70351 0.54697,-4.05932z" fill="#000000" stroke-width="0.5"/><path d="M218.54726,168.81228c0.5072,-0.67708 0.88694,-1.48584 1.56577,-1.98562c0.63473,-0.46733 1.48383,-0.5338 2.23631,-0.76843c3.31647,-1.03414 7.00271,-0.78915 10.1006,0.72438c4.21822,3.49675 6.58057,8.21 6.59601,13.71049c0.00389,1.38738 0.04257,3.4576 -0.32219,4.67913c-0.26696,0.89401 -0.85701,1.65813 -1.3174,2.46964c-1.55164,2.73502 -3.80462,6.27601 -6.47948,8.09858c-0.68104,0.46404 -1.51536,0.65228 -2.24552,1.03439c-0.87007,0.45532 -1.62372,1.14928 -2.55007,1.47521c-1.44267,0.50759 -4.81051,0.61802 -6.36455,0.2809c-0.9508,-0.20626 -1.80985,-0.76602 -2.77099,-0.91699c-0.95361,-0.39313 -1.97954,-0.64345 -2.86085,-1.1794c-5.06901,-3.08264 -5.28615,-10.87635 -4.07836,-15.97055c0.36113,-1.52316 0.77868,-3.18946 1.54721,-4.58666c0.52979,-0.9632 2.45965,-3.94984 3.34472,-4.82498c1.00615,-0.99486 2.27059,-1.68711 3.5988,-2.24006z" fill="#000000" stroke-width="0.5"/><path d="M262.87143,169.8628c5.03649,0.24443 10.12123,2.60521 14.2836,5.12996c0.60711,0.71097 1.33366,1.33525 1.82132,2.13289c1.21055,1.98009 1.17077,4.31667 1.60582,6.49939c1.25388,6.291 -0.48139,14.11837 -6.81268,17.20855c-1.40628,0.68637 -3.88462,0.805 -5.33486,0.88471c-4.16225,0.22877 -7.94708,-0.34943 -11.51778,-2.54893c-2.91452,-1.72096 -4.14828,-4.00328 -5.89265,-6.77591c-0.4655,-0.7399 -1.2175,-1.3178 -1.5173,-2.13893c-0.95378,-2.61218 -0.23225,-3.19443 0.35692,-5.60524c0.94294,-3.85838 1.69881,-7.77083 3.49372,-11.35189c0.36661,-0.73143 0.50765,-1.63282 1.10536,-2.1915c1.57799,-1.47493 4.42553,-2.17434 6.50195,-2.22709c0,0 1.29151,0 1.90659,0.98398z" fill="#000000" stroke-width="0.5"/></g></g></svg>