<svg version="1.1" xmlns="http://www.w3.org/2000/svg" xmlns:xlink="http://www.w3.org/1999/xlink" width="809.79892" height="720.64153" viewBox="0,0,809.79892,720.64153"><g transform="translate(285.23147,87.75)"><g data-paper-data="{&quot;isPaintingLayer&quot;:true}" fill-rule="nonzero" stroke="none" stroke-linecap="butt" stroke-linejoin="miter" stroke-miterlimit="10" stroke-dasharray="" stroke-dashoffset="0" style="mix-blend-mode: normal"><path d="M-285.23147,574.02757l256.62839,-433.91909c0,0 209.68263,84.15123 305.94267,122.78296c86.03387,34.52769 244.39188,98.08099 244.39188,98.08099l-109.12839,271.9191z" fill="#0e1410" stroke-width="0"/><path d="M-48.5,222.25l17,-310l537,37l-5,273c0,0 -8.38047,170 -12,170c-34.43307,0 -537,-170 -537,-170z" fill="#1b271f" stroke-width="0"/><g><path d="M299.50234,322.5637c0,6.88689 0.27643,12.66317 -1.86731,19.27451c-5.16976,12.39513 -18.67115,20.56338 -31.03631,24.38723c-8.08596,2.50054 -16.71836,4.37818 -24.99248,5.83225c-3.95229,0.69456 -8.02563,0.04996 -12.0385,0.04996c-14.10173,0 -27.30089,-1.54737 -41.29483,-3.29673c-8.20419,-1.23704 -18.26822,-4.86516 -25.26942,-9.57664c-0.71069,-0.47825 -7.15454,-7.12259 -7.74576,-7.64778c-3.51017,-3.11818 -5.16979,-2.73845 -7.52283,-7.8704c-2.36519,-5.15843 -0.77267,-10.61739 -0.31733,-15.82425c0.18055,-2.06466 -0.38833,-4.19919 0.08467,-6.21704c2.15898,-9.21047 8.98105,-17.20769 13.16986,-25.62626c-0.12467,-0.04143 -0.2493,-0.08297 -0.37388,-0.12463c-17.91361,-6.96342 -34.29367,-14.86638 -45.00968,-31.78817c-3.43844,-5.42968 -5.09499,-13.52327 -6.88553,-19.60597c-5.94607,-20.19968 -6.23822,-43.13888 0.74492,-63.33218c0.698,-19.7208 5.30132,-40.31942 -3.86723,-58.61296l-1.72722,-5.15086c0,0 -0.47795,-1.43387 0.05982,-2.8079c-1.00189,-0.58965 -2.5486,-1.96015 -1.69107,-4.53275c1.22345,-3.67036 4.89381,-2.44691 4.89381,-2.44691c8.42176,2.84605 14.81697,8.08749 23.49257,10.55346l0.54627,-0.05875c0.24368,-0.20839 0.41848,-0.31765 0.41848,-0.31765c12.14428,-7.58608 23.79079,-15.86195 35.7052,-23.80548c4.39973,-2.93336 8.74728,-6.79746 13.54621,-8.99595c3.69161,-1.6912 7.87353,-2.21778 11.46978,-4.10329c7.34383,-3.85037 14.28032,-7.66741 22.51071,-9.33958l3.71762,-0.01569c0.6377,-0.09193 1.2421,0.00243 1.7094,0.13144c0.48476,0.11747 1.07855,0.33748 1.6024,0.74952c11.77383,6.90011 19.65642,18.35427 31.32782,25.82805l2.14195,1.05288c10.34193,-3.02075 19.96103,-8.97601 28.38602,-15.68752c10.14396,-8.08088 20.78435,-18.28318 34.2649,-18.60251h3.26252c0,0 0.73091,-0.00001 1.55735,0.3177c0.46249,-0.1977 1.02384,-0.3177 1.70515,-0.3177c3.8689,0 3.8689,3.8689 3.8689,3.8689c0,1.14339 0.01032,14.01699 -0.0374,14.40227c-0.94806,7.65419 -3.77493,14.97934 -5.683,22.47935c12.05312,-0.14091 24.20934,-0.6207 36.05092,1.73718l3.62195,1.68059c1.1463,0.27608 1.81493,0.97234 2.2049,1.69064c0.47145,0.67489 0.79651,1.59264 0.52023,2.75325c-0.35368,6.7763 -3.71914,12.82272 -5.8918,19.31144c-2.71268,8.10143 -5.30402,16.60582 -7.66676,24.78133c-3.84119,13.29126 -1.72175,29.59283 -8.84071,41.75207c-3.40127,8.43609 -3.89423,17.34781 -4.50053,26.28634c-0.36741,5.41661 -1.63307,10.30328 -1.65892,15.75926l-1.74271,6.23564c0,0 -0.75223,2.63281 -3.20594,2.83579c-4.62446,14.29345 -12.09226,27.4389 -23.65922,37.85553c-4.13302,4.66015 -9.07784,8.26891 -14.50437,11.04099c5.80005,6.38386 6.44646,13.63342 6.44646,23.05806zM157.24387,319.25486c-0.66593,1.4344 -1.86193,2.65525 -2.21084,4.19773c-0.38261,1.6914 0.22083,3.47294 0.08467,5.20173c-0.29129,3.69823 -1.97905,8.19441 -0.31733,11.90703c1.16175,2.5956 3.56349,3.43302 5.52718,5.17962c2.46024,2.18826 4.1854,5.22293 6.93552,7.0335c6.04578,3.9803 14.94973,7.42503 22.03689,8.36713c13.67004,1.70862 26.49862,3.22827 40.26777,3.22827c3.59971,0 7.26205,0.71909 10.79904,0.04996c7.94468,-1.50299 16.15104,-3.20166 23.94508,-5.58651c9.56518,-2.92678 22.31979,-9.67856 26.05751,-19.65658c1.91379,-5.53915 1.39519,-10.76797 1.39519,-16.61304c0,-8.33056 0.14272,-14.38151 -6.40564,-19.76592c-8.10733,2.87143 -16.86214,4.29812 -25.3616,4.86724c-30.65812,2.0528 -62.28765,-0.60666 -91.8609,-9.28293c-3.35516,7.18824 -7.52501,13.61908 -10.89255,20.87278zM340.77193,168.49436c2.51659,-12.64981 6.64452,-25.69619 10.74133,-38.03867c1.62,-4.88057 4.7588,-10.1953 5.39423,-15.31976l-0.04522,-0.02561c-12.83986,-2.58024 -26.16789,-1.55611 -39.20693,-1.55611c-1.34365,0 -2.22066,-0.46665 -2.79308,-1.07582c-0.60917,-0.57242 -1.07581,-1.44943 -1.07581,-2.79308c0,-0.18178 0.00854,-0.35502 0.02482,-0.52013l0.05031,-1.05425c1.74322,-8.71608 5.37766,-17.0918 6.48726,-25.8779c0.39535,-3.13062 0.21028,-6.29653 0.06981,-9.46014h-2.76331c-2.54739,-0.09262 -5.03973,1.02703 -7.35525,2.09293c-8.3946,3.86428 -14.78109,9.03319 -22.09629,14.83023c-9.37115,7.42631 -19.98124,13.88529 -31.47318,17.18429c0,0 -0.79479,0.22709 -1.7546,0.10395c-1.39129,0.27568 -2.66972,-0.36353 -2.66972,-0.36353l-3.62074,-1.83492c-5.45332,-3.50177 -6.63846,-4.03002 -11.89878,-8.51972c-6.78358,-5.7898 -11.16221,-12.47415 -18.84973,-16.97343l-2.66933,-0.0136c-7.21471,1.40757 -13.48546,5.27952 -19.90185,8.60419c-3.57187,1.85077 -7.69988,2.40062 -11.36776,4.05296c-4.51155,2.0324 -8.58837,5.76063 -12.72741,8.51978c-11.97824,7.9849 -23.69106,16.29658 -35.89632,23.92887c0,0 -0.40086,0.25055 -1.00993,0.43635c-1.13631,0.96734 -2.67183,0.96735 -2.67183,0.96735l-3.50974,-0.14886c-4.98182,-1.43013 -7.60482,-1.90901 -12.29234,-4.44877c-1.35554,-0.73444 -2.53488,-1.47296 -3.66678,-2.18882l0.20575,0.62134c6.6969,13.42503 6.56065,27.70797 5.62848,42.11755c0.17341,-0.33972 0.34746,-0.67915 0.52227,-1.01821c-0.18679,5.77706 -0.03145,11.56155 0.06955,17.34556c-0.65429,1.49032 -1.2602,3.00283 -1.81879,4.53451c-0.02012,0.97967 -0.03037,1.95828 -0.02887,2.93562c0,0 0,2.4993 -2.0088,3.48031c-4.72762,17.33583 -3.92047,36.47304 1.03886,53.34734c1.60479,5.46034 3.05201,13.06665 6.16449,17.91282c9.80446,15.26565 24.73274,22.06552 40.93076,28.36751c30.80995,10.2903 64.21379,13.38923 96.56706,11.29708c7.38966,-0.47785 15.14569,-1.64716 22.35165,-4.06676c1.21209,-1.89011 3.0258,-1.7952 4.07749,-1.53348c6.15528,-2.58151 11.74315,-6.22431 16.13002,-11.31473c22.30162,-19.96976 28.00808,-50.91843 28.04516,-79.63031c1.40067,-1.70301 2.71547,-4.78221 3.82593,-8.183c1.51724,-1.64414 2.68257,-3.61798 3.37634,-5.80185c0.06351,0.74525 0.12068,1.49203 0.17185,2.24018c2.54834,-7.27796 1.80156,-15.63226 3.29899,-23.15927z" fill="#000000" stroke-width="0.5"/><path d="M157.16779,319.24063c3.36755,-7.25369 7.54726,-13.71036 10.90242,-20.8986c29.57325,8.67627 61.33403,11.33386 91.99215,9.28105c8.49946,-0.56912 17.25952,-1.98626 25.36685,-4.85769c6.54835,5.3844 6.41209,11.45772 6.41209,19.78828c0,5.84508 0.51875,11.09261 -1.39503,16.63177c-3.73772,9.97801 -16.50464,16.7637 -26.06982,19.69048c-7.79404,2.38485 -16.02876,4.10929 -23.97344,5.61228c-3.53699,0.66913 -7.22027,-0.04248 -10.81998,-0.04248c-13.76915,0 -26.67112,-1.54438 -40.34116,-3.25301c-7.08716,-0.94211 -16.0053,-4.41037 -22.05108,-8.39067c-2.75012,-1.81056 -4.47843,-4.8557 -6.93868,-7.04396c-1.96368,-1.7466 -4.36668,-2.591 -5.52844,-5.18659c-1.66172,-3.71262 0.02543,-8.22224 0.31673,-11.92048c0.13617,-1.72879 -0.46679,-3.51619 -0.08419,-5.2076c0.34891,-1.54248 1.54568,-2.76841 2.21161,-4.20281z" data-paper-data="{&quot;noHover&quot;:false,&quot;origItem&quot;:[&quot;Path&quot;,{&quot;applyMatrix&quot;:true,&quot;segments&quot;:[[[198.90219,248.3042],[0,0],[-0.43031,0.92688]],[[197.47359,251.01669],[0.22546,-0.99672],[-0.24723,1.09295]],[[197.5283,254.37794],[0.08799,-1.11711],[-0.18823,2.38972]],[[197.32325,262.07202],[-1.07377,-2.39902],[0.7507,1.67722]],[[200.8948,265.41899],[-1.26889,-1.12862],[1.58976,1.41401]],[[205.37639,269.96389],[-1.77707,-1.16995],[3.90666,2.57199]],[[219.61618,275.37056],[-4.57958,-0.60877],[8.8333,1.10408]],[[245.63639,277.4566],[-8.89734,0],[2.32606,0]],[[252.61451,277.48888],[-2.28553,0.43238],[5.13369,-0.9712]],[[268.08733,273.87899],[-5.03635,1.54104],[6.18082,-1.89123]],[[284.92516,261.17731],[-2.41524,6.44759],[1.23665,-3.57929]],[[285.8267,250.4423],[0,3.77697],[0,-5.38304]],[[281.68751,237.66997],[4.23141,3.47929],[-5.23879,1.85546]],[[265.29936,240.81508],[5.49218,-0.36775],[-19.81065,1.32648]],[[205.94072,234.81664],[19.10963,5.60643],[-2.16804,4.64489]],[[198.90217,248.3042],[2.17604,-4.68719],[0,0]]],&quot;closed&quot;:true,&quot;fillColor&quot;:[0,0,0],&quot;strokeWidth&quot;:0.5}]}" fill="#667eff" stroke-width="0.25"/><g><path d="M340.84823,168.48133c-1.49743,7.52701 -0.74964,15.89806 -3.29799,23.17602c-0.05118,-0.74815 -0.10828,-1.4966 -0.17179,-2.24186c-0.69377,2.18388 -1.85936,4.16227 -3.3766,5.80641c-1.11046,3.40079 -2.42613,6.48669 -3.8268,8.18971c-0.03708,28.71188 -5.77525,59.71053 -28.07686,79.68029c-4.38687,5.09042 -9.98579,8.73971 -16.14107,11.32121c-1.05169,-0.26173 -2.86797,-0.35546 -4.08006,1.53465c-7.20596,2.4196 -14.97607,3.59349 -22.36573,4.07135c-32.35328,2.09216 -65.8183,-1.01891 -96.62825,-11.3092c-16.19802,-6.30199 -31.14665,-13.12284 -40.9511,-28.38849c-3.11248,-4.84617 -4.56502,-12.46198 -6.16981,-17.92232c-4.95933,-16.8743 -5.77381,-36.04291 -1.04619,-53.37874c2.0088,-0.98101 2.00879,-3.48258 2.00879,-3.48258c-0.0015,-0.97735 0.0088,-1.95789 0.02893,-2.93756c0.55859,-1.53168 1.16466,-3.04726 1.81896,-4.53758c-0.10099,-5.78401 -0.25469,-11.57969 -0.0679,-17.35675c-0.17481,0.33907 -0.34901,0.6792 -0.52242,1.01892c0.93217,-14.40958 1.07628,-28.71359 -5.62062,-42.13862l-0.20562,-0.62156c1.1319,0.71586 2.31121,1.45444 3.66675,2.18888c4.68752,2.53976 7.31115,3.01751 12.29297,4.44764l3.51027,0.14794c0,0 1.53626,-0.00124 2.67257,-0.96858c0.60907,-0.1858 1.01024,-0.43686 1.01024,-0.43686c12.20526,-7.63229 23.93791,-15.9652 35.91615,-23.9501c4.13904,-2.75916 8.22523,-6.49326 12.73678,-8.52567c3.66788,-1.65234 7.80381,-2.20584 11.37568,-4.05661c6.41639,-3.32466 12.70201,-7.20082 19.91672,-8.60838l2.67118,0.01329c7.68752,4.49927 12.07994,11.18277 18.86352,16.97257c5.26032,4.48969 6.45674,5.0191 11.91005,8.52087l3.62433,1.83565c0,0 1.28088,0.6398 2.67217,0.36413c0.95981,0.12314 1.7561,-0.10354 1.7561,-0.10354c11.49194,-3.299 22.11868,-9.75113 31.48984,-17.17744c7.3152,-5.79704 13.70758,-10.96231 22.10218,-14.82659c2.31552,-1.06589 4.81006,-2.184 7.35745,-2.09139l2.76429,0.00073c0.14047,3.16361 0.32809,6.33152 -0.06727,9.46213c-1.1096,8.7861 -4.7382,17.16718 -6.48142,25.88326l-0.04996,1.05461c-0.01628,0.16511 -0.02465,0.33854 -0.02465,0.52032c0,1.34365 0.46798,2.22207 1.07715,2.79449c0.57243,0.60917 1.45068,1.0772 2.79433,1.0772c13.03904,0 26.37572,-1.01211 39.21558,1.56813l0.04523,0.02563c-0.63542,5.12446 -3.77129,10.44474 -5.39129,15.32531c-4.09682,12.34248 -8.21824,25.4093 -10.73483,38.05911z" data-paper-data="{&quot;noHover&quot;:false,&quot;origItem&quot;:[&quot;Path&quot;,{&quot;applyMatrix&quot;:true,&quot;segments&quot;:[[[317.49428,150.88584],[0,0],[1.62617,-8.17405]],[[324.43511,126.30603],[-2.64728,7.97546],[1.04681,-3.15372]],[[327.92075,116.40671],[-0.4106,3.31132],[0,0]],[[327.89153,116.39016],[0,0],[-8.29686,-1.6673]],[[302.55681,115.38463],[8.42556,0],[-0.86824,0]],[[300.75198,114.68946],[0.36989,0.39363],[-0.39363,-0.36989]],[[300.05681,112.88463],[0,0.86824],[0,-0.11746]],[[300.07285,112.54853],[-0.01052,0.10669],[0,0]],[[300.10536,111.86729],[0,0],[1.12643,-5.63215]],[[304.2973,95.14552],[-0.717,5.6774],[0.25547,-2.02294]],[[304.34241,89.03257],[0.09077,2.04426],[0,0]],[[302.55681,89.03257],[0,0],[-1.64607,-0.05985]],[[297.804,90.38498],[1.49624,-0.68876],[-5.42442,2.49702]],[[283.52583,99.96797],[4.72693,-3.74593],[-6.05545,4.79873]],[[263.1885,111.07211],[7.42586,-2.13175],[0,0]],[[262.05471,111.13928],[0.62021,0.07957],[-0.89902,0.17814]],[260.32959,110.90437],[[257.98994,109.71868],[0,0],[-3.52382,-2.26277]],[[250.30119,104.21341],[3.39911,2.90115],[-4.38341,-3.74125]],[[238.12088,93.24553],[4.96752,2.90734],[0,0]],[[236.39601,93.23674],[0,0],[-4.662,0.90954]],[[223.53584,98.79659],[4.14614,-2.14833],[-2.30807,1.19593]],[[216.19023,101.41553],[2.37011,-1.06771],[-2.91527,1.3133]],[[207.96604,106.92084],[2.67456,-1.78291],[-7.74009,5.15968]],[[184.77057,122.38319],[7.88679,-4.93183],[0,0]],[[184.11797,122.66515],[0.39357,-0.12006],[-0.73426,0.62508]],[182.39149,123.29023],[[180.12357,123.19404],[0,0],[-3.21915,-0.92412]],[[172.18051,120.31934],[3.02898,1.64114],[-0.87592,-0.47458]],[[169.81111,118.90497],[0.73141,0.46257],[0,0]],[[169.94406,119.30647],[0,0],[4.3274,8.67498]],[[173.58107,146.52197],[0.60235,-9.31118],[0.11205,-0.21952]],[[173.91855,145.86402],[-0.11296,0.2191],[-0.1207,3.73302]],[[173.96349,157.07237],[-0.06526,-3.73751],[-0.42279,0.96301]],[[172.78823,160.00248],[0.36095,-0.98974],[-0.013,0.63304]],[[172.76957,161.89942],[-0.00097,-0.63154],[0,0]],[[171.47152,164.14833],[1.29805,-0.63391],[-3.05489,11.20206]],[[172.14281,198.62029],[-3.20462,-10.90383],[1.03698,3.52836]],[[176.12618,210.19519],[-2.01122,-3.1315],[6.33544,9.86435]],[[202.5748,228.5257],[-10.46683,-4.07222],[19.90876,6.64938]],[[264.97447,235.82564],[-20.90603,1.35191],[4.77505,-0.30878]],[[279.41765,233.19778],[-4.65634,1.5635],[0.78323,-1.22135]],[[282.05244,232.20688],[-0.67958,-0.16912],[3.97742,-1.66812]],[[292.47533,224.89553],[-2.83471,3.28933],[14.41085,-12.90405]],[[310.59754,173.44005],[-0.02396,18.55303],[0.90508,-1.10045]],[[313.06978,168.15236],[-0.71756,2.19752],[0.98041,-1.06241]],[[315.2515,164.40332],[-0.4483,1.41118],[0.04104,0.48157]],[[315.36255,165.85088],[-0.03307,-0.48344],[1.64669,-4.70287]],[[317.49429,150.88583],[-0.96761,4.8638],[0,0]]],&quot;closed&quot;:true,&quot;fillColor&quot;:[0,0,0],&quot;strokeWidth&quot;:0.5}]}" fill="#66ecff" stroke-width="0.25"/><path d="M309.91599,237.8371c1.73023,3.46044 -1.73022,5.19068 -1.73022,5.19068l-2.42066,1.01905c-9.17696,1.50095 -19.48558,1.4852 -28.40072,-1.47629c-5.48366,-1.8216 -10.15302,-5.00339 -15.74547,-6.57879c0,0 -3.72003,-1.06287 -2.65717,-4.78292c1.06286,-3.72003 4.78291,-2.65715 4.78291,-2.65715c5.70277,1.64912 10.51055,4.81846 16.08999,6.68597c7.66665,2.56615 16.77992,2.5185 24.65838,1.17667l0.2323,-0.30742c0,0 3.46044,-1.73022 5.19067,1.73022z" fill="#000000" stroke-width="0.5"/><path d="M195.83891,215.287c1.73021,3.46044 -1.73021,5.19066 -1.73021,5.19066l-1.83325,0.87315c-3.70731,1.22609 -7.49201,2.35895 -11.36911,2.82331c-15.36728,1.84054 -39.51424,5.81863 -50.57722,-7.39297c0,0 -2.41686,-3.0211 0.60422,-5.43798c3.0211,-2.41688 5.43797,0.60423 5.43797,0.60423c3.46121,4.65222 9.23457,5.87891 14.88636,5.84363c12.99287,-0.08111 26.11353,0.40798 38.57087,-3.7809l0.81971,-0.45333c0,0 3.46043,-1.73021 5.19066,1.73023z" fill="#000000" stroke-width="0.5"/></g></g><g><path d="M475.10741,363.47531c-0.4831,7.67481 -2.29526,13.34539 -5.0786,20.45731c-0.6089,1.55586 -0.61561,3.35971 -1.48228,4.78812c-2.19461,3.61708 -5.01148,4.47906 -8.07964,7.03587c-13.25862,11.04886 -30.04385,14.78735 -47.11601,14.78735c-6.73648,-0.00403 -13.97552,-0.00138 -20.6209,-1.27629c-7.28517,-1.39764 -13.56993,-5.04334 -20.18138,-8.12268c-6.72859,-3.13389 -13.86404,-8.64218 -16.49856,-16.06315c-2.22098,-6.25612 -0.6066,-12.71031 1.1083,-18.73111c1.95315,-6.8573 1.35817,-7.20817 5.32089,-13.13673c1.57261,-2.35276 3.52964,-4.43397 5.67094,-6.3263c-0.50145,-0.08935 -1.00298,-0.18116 -1.50461,-0.27546c-7.34366,-2.24998 -14.92705,-4.07187 -21.80205,-7.60456c-8.81713,-4.53064 -18.7402,-10.64055 -25.83068,-17.54595c-12.47745,-12.15178 -20.16415,-28.80953 -23.95754,-45.62133c-18.34768,9.4126 -42.78672,1.65188 -60.59442,-6.05088c-10.43259,-7.05318 -16.2742,-20.12792 -19.40896,-31.98801c-0.74293,-2.81083 -3.35316,-10.53912 -3.70551,-13.11735c-1.16978,-8.55946 0.1045,-17.89454 1.20323,-26.33275c0.98406,-7.5575 1.41925,-15.01619 3.7681,-22.3667c4.45208,-13.93246 11.80768,-25.90856 20.92762,-37.23863c8.36111,-10.37052 18.48653,-20.84859 30.00574,-27.78372c8.94876,-5.3876 19.11858,-6.85235 29.03144,-9.55527c9.87221,-2.69183 20.21039,-5.67678 30.23977,-7.57744c17.05203,-3.23153 36.79336,-3.14612 54.04054,-1.44109c23.86566,2.38848 49.59133,7.7717 69.90448,21.30174c20.97309,13.96958 37.07151,33.62069 55.08976,50.87657c8.40532,11.4618 14.53304,24.98005 17.64323,38.94012c1.85947,8.34618 1.2828,17.47315 1.28213,25.95871c-0.00222,28.32742 -5.90295,54.20462 -19.40672,79.14657c-4.22549,6.26718 -8.83044,13.66183 -14.31151,18.93696c-5.4789,5.27303 -12.19843,8.6441 -19.33463,11.05424c4.38067,8.26488 4.25993,15.62466 3.67786,24.8719zM378.30004,349.02052c-3.44908,2.38085 -6.88059,5.07914 -9.1999,8.56991c-2.17,3.26601 -3.23096,7.17558 -4.31176,10.94488c-1.2131,4.2307 -2.92074,9.28424 -1.29986,13.77905c1.96925,5.46086 7.47166,9.37903 12.39938,11.6307c6.02573,2.75339 11.72005,6.27819 18.34921,7.53038c6.15756,1.16311 12.87644,1.13582 19.11375,1.13187c15.1617,0 30.19813,-3.08332 41.98598,-12.90652c0.13416,-0.11181 5.71249,-3.80356 6.36933,-5.00495c3.53999,-6.47481 5.03014,-14.46332 5.47994,-21.71371c0.49064,-7.90882 1.03976,-14.16766 -3.09706,-21.26416l-0.62178,-0.80835c-4.64423,1.16114 -9.33466,2.07484 -13.86181,2.98038c-23.53431,4.70747 -47.01612,7.1674 -70.66483,4.55133c-0.34812,0.3744 -0.64061,0.57917 -0.64061,0.57917zM293.7637,267.55243c-0.35796,-5.37986 0.02649,-11.07661 0.0271,-16.19313c0.00117,-10.12642 -0.16246,-19.94891 3.90796,-29.30714c2.99905,-7.83334 8.36223,-13.22126 13.02943,-19.98686c1.05421,-1.5282 1.43492,-3.46329 2.53283,-4.96041c4.4726,-6.09886 10.6805,-10.13083 16.15651,-15.02684c4.18205,-3.73908 8.35216,-8.82864 13.50405,-11.42828c9.91676,-5.00401 21.64545,-5.8484 32.50077,-5.8484c0,0 3.96831,0 3.96831,3.96831c0,3.96831 -3.96831,3.96831 -3.96831,3.96831c-9.67732,0 -20.04053,0.60888 -28.90737,4.98833c-4.52462,2.23477 -8.10688,6.95773 -11.78166,10.24517c-4.91138,4.39372 -11.0245,8.12108 -14.93151,13.62878c-1.06356,1.49928 -1.45716,3.40189 -2.50158,4.91457c-4.3299,6.2713 -9.58993,11.2528 -12.25627,18.54371c-3.75335,8.23318 -3.31761,17.33277 -3.31653,26.30077c0.00041,3.42378 -0.2161,7.17374 -0.2194,10.88793c0.82319,0.00811 1.74628,0.32388 2.66935,1.24696c2.80601,2.80601 0,5.61205 0,5.61205l-0.60204,0.60204c-0.46804,0.45483 -0.94307,0.89254 -1.42483,1.31353c0.03796,0.20734 0.07797,0.41345 0.12016,0.61828c3.34646,16.24845 10.33866,32.45137 22.39797,44.25367c6.47352,6.33557 15.76375,11.89941 23.81033,16.05887c6.29965,3.25642 13.33364,4.87606 20.06709,6.95387c26.63203,4.97915 53.08595,2.48373 79.50294,-2.79898c12.58938,-2.51754 27.54628,-4.86577 37.19464,-14.26041c4.98595,-4.85485 9.17208,-11.60596 13.043,-17.34571c12.77263,-23.65886 18.26128,-48.1905 18.25914,-75.03577c-0.00063,-7.95161 0.63851,-16.57725 -1.12604,-24.39248c-2.8293,-12.53106 -8.26572,-24.95984 -15.82527,-35.26826c-17.58679,-16.71229 -33.13694,-35.90268 -53.5233,-49.50677c-19.20614,-12.81652 -43.74052,-17.75848 -66.29809,-20.01239c-16.47551,-1.66823 -35.48022,-1.75201 -51.77715,1.34245c-9.82597,1.86575 -19.94892,4.79624 -29.62518,7.43581c-9.13061,2.49071 -18.79489,3.70825 -27.0166,8.69201c-10.71763,6.49673 -20.14331,16.29178 -27.9276,25.96819c-8.52841,10.58343 -15.36822,21.67907 -19.55247,34.68759c-2.21156,6.87557 -2.53237,13.90858 -3.45639,20.98021c-1.01335,7.7553 -2.27559,16.36658 -1.20494,24.23864c0.17892,1.31551 3.19684,10.93864 3.51897,12.16835c2.44194,9.32188 7.10433,21.53346 15.50939,27.01195c3.66302,1.55283 7.56791,3.9729 11.3339,5.11982c12.95919,3.94663 31.88081,7.56214 44.1887,-0.37834z" fill="#000000" stroke-width="0.5"/><path d="M293.69671,267.59511c-12.30788,7.94048 -31.23622,4.31193 -44.19541,0.3653c-3.76599,-1.14692 -7.67267,-3.57192 -11.33569,-5.12475c-8.40506,-5.4785 -13.07095,-17.70638 -15.51289,-27.02826c-0.32213,-1.22971 -3.34047,-10.8595 -3.5194,-12.175c-1.07065,-7.87206 0.19236,-16.49627 1.20571,-24.25158c0.92401,-7.07163 1.24721,-14.11567 3.45876,-20.99124c4.18425,-13.00852 11.0327,-24.12359 19.56111,-34.70702c7.78429,-9.67641 17.22319,-19.48765 27.94082,-25.98438c8.22171,-4.98377 17.89836,-6.21082 27.02897,-8.70153c9.67626,-2.63956 19.816,-5.57796 29.64197,-7.44371c16.29694,-3.09446 35.33476,-3.01438 51.81027,-1.34615c22.55757,2.25391 47.13296,7.21235 66.3391,20.02887c20.38636,13.60409 35.96169,32.82856 53.54848,49.54085c7.55954,10.30842 13.00081,22.75745 15.8301,35.2885c1.76455,7.81524 1.12568,16.45388 1.12632,24.40549c0.00215,26.84527 -5.49902,51.41506 -18.27165,75.07391c-3.87092,5.73975 -8.06371,12.49973 -13.04965,17.35458c-9.64837,9.39465 -24.62009,11.75621 -37.20946,14.27375c-26.41699,5.28271 -52.91561,7.79228 -79.54764,2.81313c-6.73345,-2.07781 -13.78149,-3.6986 -20.08114,-6.95502c-8.04658,-4.15946 -17.35593,-9.72916 -23.82946,-16.06473c-12.0593,-11.8023 -19.08136,-28.02865 -22.42782,-44.27709c-0.04219,-0.20483 -0.08254,-0.41137 -0.1205,-0.6187c0.48176,-0.42099 0.9567,-0.85882 1.42473,-1.31365l0.60198,-0.60212c0,0 2.80331,-2.80977 -0.0027,-5.61578c-0.92307,-0.92307 -1.84758,-1.24099 -2.67077,-1.2491c0.0033,-3.7142 0.21505,-7.47284 0.21464,-10.89662c-0.00108,-8.96799 -0.44414,-18.09539 3.30922,-26.32857c2.66634,-7.29092 7.92899,-12.29937 12.2589,-18.57067c1.04441,-1.51268 1.44065,-3.4232 2.50421,-4.92248c3.90701,-5.5077 10.0374,-9.26174 14.94877,-13.65546c3.67478,-3.28744 7.27833,-8.02586 11.80295,-10.26062c8.86685,-4.37945 19.27806,-4.99563 28.95538,-4.99563c0,0 3.93817,0.15576 3.93817,-3.81255c0,-3.96831 -3.96171,-3.96711 -3.96171,-3.96711c-10.85532,0 -22.53768,0.83679 -32.45444,5.8408c-5.15188,2.59964 -9.30131,7.67429 -13.48336,11.41338c-5.47602,4.89601 -11.66704,8.90304 -16.13965,15.0019c-1.09791,1.49712 -1.47605,3.4253 -2.53026,4.9535c-4.66719,6.7656 -10.02661,12.12735 -13.02565,19.96069c-4.07042,9.35823 -3.91293,19.15195 -3.9141,29.27837c-0.00061,5.11652 -0.39134,10.80127 -0.03338,16.18113z" data-paper-data="{&quot;noHover&quot;:false,&quot;origItem&quot;:[&quot;Path&quot;,{&quot;applyMatrix&quot;:true,&quot;segments&quot;:[[[188.8192,184.93027],[0,0],[-0.22551,-3.38926]],[[188.83627,174.72875],[-0.00038,3.22336],[0.00074,-6.37955]],[[191.29825,156.26552],[-2.56433,5.8956],[1.88937,-4.93493]],[[199.50667,143.67398],[-2.94029,4.26227],[0.66414,-0.96275]],[[201.10233,140.54897],[-0.69167,0.94317],[2.8177,-3.84223]],[[211.28078,131.0822],[-3.44984,3.08444],[2.63465,-2.35559]],[[219.78821,123.88249],[-3.24564,1.63775],[6.24747,-3.15248]],[[240.26339,120.19805],[-6.83875,0],[0,0]],[[242.76339,122.69805],[0,-2.5],[0,2.5]],[[240.26339,125.19805],[0,0],[-6.09662,0]],[[222.05201,128.34065],[5.58603,-2.75901],[-2.85047,1.40788]],[[214.62967,134.79501],[2.31508,-2.07106],[-3.09412,2.768]],[[205.22296,143.38102],[2.46138,-3.4698],[-0.67003,0.94453]],[[203.64699,146.47715],[0.65797,-0.95297],[-2.7278,3.95086]],[[195.92565,158.15952],[1.67977,-4.59321],[-2.36458,5.18683]],[[193.83627,174.72876],[-0.00068,-5.64975],[0.00026,2.15695]],[[193.69805,181.58806],[0.00208,-2.33991],[0.5186,0.00511]],[[195.37972,182.37363],[-0.58153,-0.58153],[1.76776,1.76776]],[195.37972,185.90917],[[195.00044,186.28845],[0,0],[-0.29486,0.28654]],[[194.10281,187.11596],[0.3035,-0.26522],[0.02391,0.13062]],[[194.17851,187.50547],[-0.02658,-0.12904],[2.10824,10.23637]],[[208.28902,215.38488],[-7.59725,-7.43534],[4.07826,3.99135]],[[223.28931,225.50182],[-5.06927,-2.62042],[3.96872,2.05151]],[[235.93139,229.88269],[-4.24201,-1.309],[16.77793,3.13682]],[[286.01751,228.11936],[-16.64246,3.32806],[7.93119,-1.58603]],[[309.44979,219.13543],[-6.07838,5.91854],[3.1411,-3.05851]],[[317.66676,208.20779],[-2.43864,3.61599],[8.04664,-14.90486]],[[329.16985,160.93595],[0.00135,16.91227],[-0.0004,-5.00944]],[[328.46045,145.56891],[1.11165,4.92353],[-1.78243,-7.89445]],[[318.49068,123.35023],[4.76244,6.49421],[-11.07952,-10.52859]],[[284.77149,92.16142],[12.84322,8.57045],[-12.09969,-8.07429]],[[243.0043,79.5538],[14.21106,1.41994],[-10.37942,-1.05097]],[[210.38517,80.39953],[10.26692,-1.94948],[-6.19027,1.17541]],[[191.72158,85.08402],[6.09595,-1.6629],[-5.7522,1.56912]],[[174.70137,90.55991],[5.1796,-3.13973],[-6.75201,4.09288]],[[157.10724,106.91963],[4.90403,-6.09605],[-5.37282,6.66746]],[[144.78936,128.77249],[2.63604,-8.19525],[-1.39326,4.33155]],[[142.61187,141.98983],[0.58212,-4.45506],[-0.6384,4.88577]],[[141.85277,157.25995],[-0.6745,-4.95933],[0.11272,0.82876]],[[144.06969,164.9259],[-0.20294,-0.77471],[1.5384,5.8727]],[[153.84046,181.94318],[-5.29511,-3.4514],[2.30767,0.97827]],[[160.98071,185.16862],[-2.37254,-0.72255],[8.16417,2.48634]],[[188.81918,184.93027],[-7.75385,5.00243],[0,0]]],&quot;closed&quot;:true,&quot;fillColor&quot;:[0,0,0],&quot;strokeWidth&quot;:0.5}]}" fill="#ffffff" stroke-width="0.25"/><path d="M378.23249,348.97884c0,0 0.29332,-0.20605 0.64144,-0.58045c23.64871,2.61607 47.25894,0.14914 70.79325,-4.55832c4.52715,-0.90553 9.22277,-1.81203 13.867,-2.97317l0.62252,0.80953c4.13682,7.0965 3.59833,13.38369 3.10769,21.2925c-0.4498,7.25039 -1.94174,15.27337 -5.48173,21.74818c-0.65684,1.20139 -6.23917,4.90425 -6.37333,5.01606c-11.78785,9.8232 -26.90143,12.95338 -42.06313,12.95338c-6.23732,0.00395 -12.99723,0.01689 -19.15479,-1.14623c-6.62916,-1.25219 -12.34688,-4.80285 -18.3726,-7.55624c-4.92773,-2.25167 -10.43879,-6.19297 -12.40804,-11.65384c-1.62088,-4.49481 0.08533,-9.56931 1.29842,-13.80001c1.0808,-3.76929 2.14511,-7.69711 4.31511,-10.96313c2.3193,-3.49077 5.75912,-6.20739 9.20819,-8.58822z" data-paper-data="{&quot;noHover&quot;:false,&quot;origItem&quot;:[&quot;Path&quot;,{&quot;applyMatrix&quot;:true,&quot;segments&quot;:[[[484.15264,472.50884],[0,0],[-4.34578,2.99982]],[[472.56094,483.30676],[2.92228,-4.3983],[-2.73416,4.11512]],[[467.1282,497.0971],[1.36178,-4.74924],[-1.52848,5.3306]],[[465.4904,514.45846],[-2.04228,-5.66338],[2.48122,6.88058]],[[481.1134,529.11292],[-6.20884,-2.83706],[7.5923,3.46922]],[[504.23306,538.60106],[-8.35262,-1.57774],[7.75842,1.4655]],[[528.31604,540.0272],[-7.8589,0.00498],[19.10346,0]],[[581.2176,523.76522],[-14.85248,12.37706],[0.16904,-0.14088]],[[589.24284,517.45908],[-0.8276,1.51372],[4.46032,-8.15814]],[[596.14746,490.1002],[-0.56674,9.13536],[0.6182,-9.96496]],[[592.24522,463.30774],[5.21232,8.94146],[0,0]],[[591.4618,462.28924],[0,0],[-5.85164,1.46302]],[[573.99618,466.04446],[5.70412,-1.14096],[-29.6528,5.93132]],[[484.9598,471.77906],[29.79694,3.2962],[-0.43862,0.47174]],[484.15264,472.5088]],&quot;closed&quot;:true,&quot;fillColor&quot;:[0,0,0],&quot;strokeWidth&quot;:0.5}]}" fill="#1dff00" stroke-width="0.25"/><path d="M359.52329,253.65737c0,3.21574 -2.60592,3.82559 -3.5943,3.94125c-6.0289,2.92066 -12.22174,5.07348 -18.75337,6.6768c-3.90983,0.95976 -11.02604,2.89129 -15.34188,1.58953c-2.04016,-0.61537 -3.53985,-2.37337 -5.30978,-3.56007c0,0 -3.22914,-2.30653 -0.92261,-5.53569c2.30653,-3.22914 5.53568,-0.92261 5.53568,-0.92261c4.925,3.88521 7.85769,2.28664 14.13456,0.72398c6.24882,-1.55569 12.15716,-3.58761 17.91127,-6.46486l2.37212,-0.41663c0,0 3.96831,0 3.96831,3.96831z" fill="#000000" stroke-width="0.5"/><path d="M472.64247,252.66022c2.20123,3.30184 -1.10062,5.50306 -1.10062,5.50306l-2.86706,1.7032c-9.28177,2.72262 -18.3618,1.97348 -28.0119,1.97348c-0.95295,0 -16.10516,0.02179 -16.62369,-0.07161c-4.65697,-0.83889 -8.32094,-3.54611 -12.18948,-5.94994c0,0 -3.36513,-2.1032 -1.26192,-5.46833c2.10321,-3.36512 5.46832,-1.26192 5.46832,-1.26192c2.52461,1.58826 6.40521,4.38586 9.48396,4.88677c4.97557,0.80954 10.08182,-0.07161 15.12281,-0.07161c8.7534,0 17.34913,0.94336 25.73133,-1.63876l0.74518,-0.70496c0,0 3.30184,-2.20122 5.50306,1.10062z" fill="#000000" stroke-width="0.5"/><path d="M414.6697,315.02781c2.44583,3.12496 -0.67913,5.5708 -0.67913,5.5708l-4.22566,3.096c-16.07779,1.62934 -32.22516,2.33259 -47.9888,-1.77955c-5.45684,-1.42348 -14.5749,-3.57808 -18.9792,-7.39912c-2.11803,-1.83754 -3.29459,-4.53828 -4.94188,-6.80741c0,0 -2.27569,-3.25097 0.97528,-5.52666c3.25097,-2.27569 5.52666,0.97528 5.52666,0.97528c1.16222,1.74446 1.91733,3.84375 3.48668,5.23338c3.45435,3.05876 11.68854,4.73687 15.93916,5.84576c14.16814,3.69615 28.59417,2.91328 43.08651,2.06873l2.22959,-1.95636c0,0 3.12496,-2.44583 5.57079,0.67914z" fill="#000000" stroke-width="0.5"/></g></g></g></svg>