<svg version="1.1" xmlns="http://www.w3.org/2000/svg" xmlns:xlink="http://www.w3.org/1999/xlink" width="358.75978" height="351.50131" viewBox="0,0,358.75978,351.50131"><g transform="translate(-36.0623,-36.52446)"><g data-paper-data="{&quot;isPaintingLayer&quot;:true}" fill-rule="nonzero" stroke="none" stroke-linecap="butt" stroke-linejoin="miter" stroke-miterlimit="10" stroke-dasharray="" stroke-dashoffset="0" style="mix-blend-mode: normal"><path d="M324.95607,306.71335c1.46513,1.84287 3.17435,3.51979 4.37412,5.54546c2.91315,4.91849 1.87948,5.27951 3.39369,9.88116c0.61804,1.87822 1.78847,3.58721 2.13708,5.53353c0.40266,2.24804 0.07101,4.56718 0.0812,6.85098c0.04624,10.3678 -2.89963,18.3949 -8.95308,26.76935c-2.31161,3.19793 -5.74456,5.26526 -8.69397,7.71068c-2.69189,2.23191 -4.63098,5.33049 -7.48716,7.34789c-1.05604,0.74591 -2.45721,0.81593 -3.64371,1.32953c-3.00853,1.3023 -5.36911,2.87355 -8.21113,4.57686c-1.47416,1.0839 -2.82309,2.36289 -4.42247,3.25169c-3.9325,2.18536 -8.73887,2.49728 -13.08877,2.51399c-7.51086,0.02885 -14.76434,-0.42603 -22.24336,-1.0066c-4.003,-0.31074 -8.03562,0.1149 -12.04467,-0.10447c-10.59824,-0.5799 -22.99136,-2.57234 -32.68877,-7.34651c-1.07826,-0.53084 -1.92597,-1.46065 -3,-2c-3.78067,-1.89854 -8.06611,-2.96816 -11.65411,-5.39183c-0.45079,-0.30451 -4.37775,-4.3202 -4.84884,-4.79764c-3.08773,-4.63159 -5.90041,-6.8677 -7.80168,-12.46844c-1.71726,-5.05868 -1.21828,-10.14087 -1.21828,-15.38451c0,-6.17038 -0.10823,-11.88084 1.09428,-17.91633c0.63978,-3.21109 0.80591,-7.44481 2.57779,-10.44946c1.25178,-2.1227 2.92337,-2.69947 4.34789,-4.48716c0.49676,-0.6234 0.98247,-1.39778 1.47213,-2.24109l-12.30992,-4.10331l-0.24022,-0.10769l-0.25512,-0.0649l-6.74569,-2.45297l-0.30957,-0.02265l-0.5854,-0.30279l-0.90124,-0.32772l-2.74706,-1.3217l-0.93633,-0.72194l-1.05017,-0.5432l-2.35939,-1.93041l-0.6781,-0.6781l-0.52194,-0.40243l-0.15144,-0.27095l-0.84128,-0.84129l-1.83336,-1.10002l-1.21081,-0.90166l-0.16904,-0.08744l-0.52309,-0.42798l-0.54208,-0.40367l-0.12582,-0.14279l-1.1684,-0.95596l-6.98883,-6.98883l-0.68049,-0.83171l-0.75148,-0.76818l-2.43446,-3.04308l-3.12239,-3.12239l-0.95596,-1.16841l-0.1428,-0.12583l-0.40367,-0.54207l-0.42798,-0.52309l-0.08743,-0.16904l-0.90167,-1.2108l-6.98882,-11.64805l-0.66164,-1.40266l-0.7164,-1.3755l-3.10614,-7.76536l-0.36452,-1.26367l-0.44436,-1.23785l-1.17712,-4.70844h-12.60364l-1.20115,-0.12011l-1.20678,-0.0298l-6.08035,-0.76004l-6.85668,-0.76185l-0.13059,-0.02788l-0.13349,-0.0033l-6.21229,-0.77653l-1.86515,-0.42497l-1.86597,-0.42135l-8.61113,-2.87038l-2.38283,-0.59571l-1.23785,-0.44436l-1.26367,-0.36452l-5.62565,-2.25026l-0.07751,-0.00567l-0.21607,-0.11176l-1.84613,-0.73845l-2.70373,-1.4082l-0.67631,-0.55654l-0.77796,-0.40239l-2.35939,-1.93041l-1.40597,-1.40598l-0.01841,-0.01514l-0.24896,-0.14937l-0.33765,-0.09361l-0.54491,-0.43593l-0.6937,-0.41622l-2.44501,-1.82075l-0.81831,-0.92864l-0.96651,-0.77321l-1.93499,-2.35564l-0.44874,-0.67311l-0.14101,-0.16003l-3.19696,-3.19696l-1.93041,-2.35939l-0.03108,-0.06009l-0.04718,-0.04848l-1.62786,-2.57745l-1.01255,-2.02511l-0.88264,-1.32397l-0.56634,-1.06605l-0.64461,-1.02063l-1.55307,-3.10614l-0.49012,-1.28657l-0.56318,-1.25631l-0.77654,-2.32961l-0.33455,-1.48158l-0.39754,-1.46594l-0.64908,-3.89447l-0.5885,-2.35399l-0.2186,-1.49374l-0.0577,-0.18136l-0.06725,-0.67251l-0.09786,-0.66874l0.01199,-0.18994l-0.15021,-1.50215v-8.5419l0.12011,-1.20116l0.0298,-1.20678l0.62662,-5.01298v-5.78019l0.10693,-1.06929l0.01181,-1.07456l0.77654,-6.98883l0.51871,-2.42973l0.01614,-0.16616l0.05995,-0.19029l0.04165,-0.19511l0.06788,-0.15252l0.7466,-2.36965l1.84492,-4.3048l1.12618,-3.94164l1.47462,-5.89848l0.10965,-0.30545l0.05767,-0.31938l1.14175,-3.9961l0.59082,-4.7266l0.67723,-2.9723l0.32608,-0.70649l0.16304,-0.76084l1.24159,-2.78418l1.77746,-3.11055l0.90355,-3.61419l0.36983,-1.03023l0.01482,-0.09451l0.33109,-0.86912l0.31423,-0.87536l0.05025,-0.0814l0.38967,-1.02289l3.10615,-6.21229l0.28837,-0.45659l0.21995,-0.49322l3.10614,-5.43575l0.38845,-0.54548l0.31417,-0.59139l3.10615,-4.65922l0.74331,-0.90491l0.66986,-0.96055l3.89631,-4.54569l2.45588,-3.68382l1.93498,-2.35563l0.36332,-0.29066l0.27878,-0.3725l2.29203,-2.00993l4.84712,-3.46223l4.1035,-3.41959l0.59979,-0.40601l0.54456,-0.47753l5.43576,-3.88269l0.5203,-0.2983l0.47443,-0.36689l6.21229,-3.88268l0.15886,-0.0785l0.14211,-0.10583l3.88268,-2.32961l0.67509,-0.31844l0.63109,-0.39858l4.65921,-2.32961l2.84877,-1.08525l0.06683,-0.01049l0.06091,-0.02942l2.95996,-0.72927l3.99593,-0.57084l6.37226,-1.91168l1.20356,-0.2337l1.1833,-0.3209l9.00965,-1.50161l7.45841,-1.49168l0.94492,-0.09264l0.93065,-0.18801l7.76536,-0.77653h0.96826l0.96345,-0.09635h33.39106l0.64425,0.06442l0.64711,-0.02143l11.00308,0.73354h33.5212l0.87663,0.08767l0.88098,-0.00794l17.08379,1.55307l0.08626,0.01661h0.08784l7.67835,0.76784l8.45481,0.76862l2.33781,0.4504l0.1855,0.01347l0.23251,0.06706l0.23762,0.04578l0.1714,0.0722l2.28753,0.65987l6.11046,2.44418l6.01759,1.20352l0.93913,0.28748l0.96279,0.194l10.09498,3.10614l0.77077,0.32421l0.00796,0.00155l1.01531,0.42888l1.01596,0.42735l0.00666,0.00462l0.77028,0.32538l7.25635,3.95801l7.1657,2.60571l1.38373,0.66576l1.40986,0.60847l6.23422,3.46345l6.19998,2.75555l0.75045,0.42758l0.793,0.34224l6.98883,3.88268l0.41174,0.2858l0.44936,0.22204l6.21229,3.88268l0.65279,0.50483l0.70616,0.42698l6.03172,4.5238l5.25209,3.75149l2.29203,2.00993l0.27879,0.3725l0.36332,0.29065l1.93499,2.35564l3.10614,4.65922l0.13439,0.25295l0.17522,0.22659l3.88268,6.21229l0.40869,0.82712l0.49265,0.78003l1.91712,3.83423l3.39383,5.43013l0.36406,0.7368l0.00164,0.00208l0.49212,0.9972l0.49262,0.99696l0.00066,0.00256l0.3637,0.73698l2.12692,5.67178l2.87169,6.46131l0.18116,0.54932l0.25598,0.5187l2.17239,5.79304l2.15323,5.02419l0.46605,1.4792l0.52398,1.45968l1.55307,6.21229l0.06707,0.45828l0.13558,0.44288l1.55307,7.76537l0.18665,1.90382l0.19035,1.90346v27.95531l-0.09635,0.96345v0.96825l-0.76783,7.67835l-0.76862,8.45481l-0.19612,1.01795l-0.10115,1.03172l-3.10615,15.53072l-0.42981,1.40406l-0.36201,1.42306l-3.01651,8.29539l-2.24666,6.73999l-0.10769,0.24022l-0.0649,0.25512l-3.10614,8.5419l-0.48361,1.00517l-0.3971,1.04237l-3.88268,7.76537l-0.22589,0.35766l-0.16762,0.38839l-3.88268,6.98883l-0.2858,0.41175l-0.22204,0.44936l-3.88268,6.21229l-0.80818,1.04506l-0.74057,1.09402l-3.88268,4.65922l-0.09659,0.09487l-0.07744,0.11105l-4.65922,5.43575l-1.07695,1.02873l-1.02873,1.07695l-5.43576,4.65922l-0.96055,0.66986l-0.9049,0.74332l-4.65922,3.10614l-1.10888,0.58909l-0.10954,0.08622l-0.74251,0.36643l-0.73123,0.38846l-0.13397,0.03852l-1.12599,0.55568l-5.67178,2.12691l-6.46131,2.8717l-1.78111,0.58738l-0.19953,0.09903l-0.34433,0.08877c0.22084,0.27948 0.4455,0.56358 0.67501,0.85226zM199.92221,312.37743c-1.0571,1.31744 -2.75672,2.08057 -3.65211,3.51284c-1.35763,2.17166 -0.9179,5.03958 -1.42221,7.55054c-1.08334,5.39389 -0.90572,10.54385 -0.90572,16.08367c0,5.36918 -0.84969,11.68987 2.25678,16.52279c1.32374,2.05942 3.36526,3.58727 4.72325,5.62426c1.06863,1.04919 1.89756,2.38305 3.15116,3.20236c3.17238,2.07337 7.01636,2.95004 10.34589,4.60817c1.07582,0.53577 1.92902,1.45461 3,2c8.43765,4.29687 19.99116,5.94887 29.2219,6.44455c4.00926,0.2153 8.04119,-0.20001 12.04467,0.10447c7.32448,0.55706 14.40758,0.95979 21.75664,0.9934c2.82146,0.0129 6.35536,0.03215 8.91123,-1.48601c1.29289,-0.76796 2.38502,-1.83221 3.57753,-2.74831c3.44661,-2.06997 6.12578,-3.8699 9.78887,-5.42314c0.75181,-0.31879 1.6956,-0.19053 2.35629,-0.67047c2.51065,-1.82383 4.13333,-4.66021 6.51284,-6.65211c2.41873,-2.02473 5.4268,-3.61841 7.30603,-6.28932c4.87484,-6.9285 6.99998,-12.75577 7.04692,-21.23065c0.00951,-1.71653 0.39394,-3.4612 0.0812,-5.14902c-0.29391,-1.58613 -1.34618,-2.93834 -1.86292,-4.46647c-1.05237,-3.11216 -0.82773,-5.20449 -2.60631,-8.11884c-0.99736,-1.63426 -2.42463,-2.96372 -3.62588,-4.45454c-1.26632,-1.57157 -2.32389,-3.26517 -3.58028,-4.67524l-1.43567,0.22087l-6.47274,1.94182l-1.06391,0.20659l-1.04171,0.29901l-7.91973,1.43995l-5.5988,1.3997l-1.48104,0.21674l-1.46979,0.28317l-8.5419,0.77654l-0.88097,-0.00793l-0.87663,0.08766h-16.30727l-0.80415,-0.08041l-0.80805,0.01335l-9.31844,-0.77654l-0.66472,-0.12289l-0.67503,-0.0358l-10.09498,-1.55307l-0.25664,-0.06617l-0.26418,-0.02123l-7.50425,-1.36441l-9.81952,-0.70139l-0.27227,-0.04701h-0.2763l-7.76537,-0.77653l-1.20955,-0.24436l-1.22403,-0.15645l-6.77781,-1.56411c-1.19442,1.7893 -3.57228,5.31501 -3.60033,5.34997z" fill="#000000" stroke-width="0.5"/><path d="M199.87766,312.3547c0.02805,-0.03496 2.40829,-3.56482 3.60271,-5.35412l6.77887,1.56251l1.2243,0.15606l1.2098,0.24401l7.7677,0.77354l0.27641,-0.00013l0.27236,0.04691l9.8242,0.69659l7.5091,1.36058l0.2644,0.02108l0.25683,0.06604l10.10561,1.54758l0.67596,0.03546l0.66562,0.12258l9.33347,0.77404l0.80946,-0.01335l0.80556,0.08045l16.33129,0.00739l0.8775,-0.08711l0.88187,0.00852l8.54831,-0.77138l1.47054,-0.28244l1.48178,-0.21599l5.60083,-1.39747l7.92203,-1.43706l1.04191,-0.29874l1.06414,-0.20626l6.47372,-1.9404l1.43593,-0.22048c1.25639,1.41007 2.31623,3.10753 3.58255,4.6791c1.20125,1.49082 2.63033,2.82408 3.62769,4.45834c1.77858,2.91435 1.55606,5.0127 2.60843,8.12486c0.51674,1.52813 1.56986,2.8838 1.86377,4.46993c0.31274,1.68782 -0.07106,3.43622 -0.08057,5.15275c-0.04694,8.47488 -2.1728,14.3191 -7.04764,21.2476c-1.87923,2.67091 -4.88926,4.27132 -7.30799,6.29605c-2.37951,1.9919 -4.00565,4.83573 -6.5163,6.65956c-0.66069,0.47994 -1.60537,0.35318 -2.35718,0.67197c-3.66309,1.55324 -6.34883,3.36164 -9.79544,5.43161c-1.19251,0.9161 -2.28823,1.98373 -3.58112,2.75169c-2.55587,1.51816 -6.09747,1.5043 -8.91893,1.4914c-7.34906,-0.03361 -14.45872,-0.42985 -21.7832,-0.98691c-4.00348,-0.30448 -8.05141,0.10756 -12.06067,-0.10774c-9.23074,-0.49568 -20.80796,-2.1666 -29.24561,-6.46347c-1.07098,-0.54539 -1.92585,-1.46691 -3.00167,-2.00268c-3.32953,-1.65813 -7.17684,-2.54171 -10.34922,-4.61508c-1.2536,-0.81931 -2.08364,-2.15632 -3.15227,-3.20551c-1.35799,-2.03699 -3.40082,-3.56989 -4.72456,-5.62931c-3.10647,-4.83292 -2.25772,-11.16626 -2.25772,-16.53544c0,-5.53982 -0.17557,-10.70153 0.90777,-16.09542c0.50431,-2.51096 0.06646,-5.38407 1.42409,-7.55573c0.89539,-1.43227 2.59647,-2.19853 3.65357,-3.51597z" data-paper-data="{&quot;noHover&quot;:false,&quot;origItem&quot;:[&quot;Path&quot;,{&quot;applyMatrix&quot;:true,&quot;segments&quot;:[[[199.92221,312.37743],[0,0],[-1.0571,1.31744]],[[196.2701,315.89027],[0.89539,-1.43227],[-1.35763,2.17166]],[[194.84789,323.44081],[0.50431,-2.51096],[-1.08334,5.39389]],[[193.94217,339.52448],[0,-5.53982],[0,5.36918]],[[196.19895,356.04727],[-3.10647,-4.83292],[1.32374,2.05942]],[[200.9222,361.67153],[-1.35799,-2.03699],[1.06863,1.04919]],[[204.07336,364.87389],[-1.2536,-0.81931],[3.17238,2.07337]],[[214.41925,369.48206],[-3.32953,-1.65813],[1.07582,0.53577]],[[217.41925,371.48206],[-1.07098,-0.54539],[8.43765,4.29687]],[[246.64115,377.92661],[-9.23074,-0.49568],[4.00926,0.2153]],[[258.68582,378.03108],[-4.00348,-0.30448],[7.32448,0.55706]],[[280.44246,379.02448],[-7.34906,-0.03361],[2.82146,0.0129]],[[289.35369,377.53847],[-2.55587,1.51816],[1.29289,-0.76796]],[[292.93122,374.79016],[-1.19251,0.9161],[3.44661,-2.06997]],[[302.72009,369.36702],[-3.66309,1.55324],[0.75181,-0.31879]],[[305.07638,368.69655],[-0.66069,0.47994],[2.51065,-1.82383]],[[311.58921,362.04444],[-2.37951,1.9919],[2.41873,-2.02473]],[[318.89525,355.75512],[-1.87923,2.67091],[4.87484,-6.9285]],[[325.94217,334.52447],[-0.04694,8.47488],[0.00951,-1.71653]],[[326.02337,329.37545],[0.31274,1.68782],[-0.29391,-1.58613]],[[324.16045,324.90898],[0.51674,1.52813],[-1.05237,-3.11216]],[[321.55414,316.79014],[1.77858,2.91435],[-0.99736,-1.63426]],[[317.92826,312.3356],[1.20125,1.49082],[-1.26632,-1.57157]],[[314.34798,307.66036],[1.25639,1.41007],[0,0]],[312.91231,307.88123],[306.43957,309.82305],[305.37566,310.02964],[304.33394,310.32865],[296.41422,311.7686],[290.81542,313.1683],[289.33438,313.38504],[287.86459,313.66821],[279.32269,314.44475],[278.44172,314.43682],[277.56509,314.52448],[261.25782,314.52448],[260.45367,314.44407],[259.64562,314.45742],[250.32718,313.68088],[249.66246,313.55799],[248.98743,313.52219],[238.89245,311.96912],[238.63581,311.90295],[238.37163,311.88172],[230.86738,310.51731],[221.04786,309.81592],[220.77559,309.76891],[220.49929,309.76891],[212.73392,308.99238],[211.52437,308.74802],[210.30034,308.59157],[[203.52253,307.02746],[0,0],[-1.19442,1.7893]],[[199.9222,312.37743],[0.02805,-0.03496],[0,0]]],&quot;closed&quot;:true,&quot;fillColor&quot;:[0,0,0],&quot;strokeWidth&quot;:0.5}]}" fill="#7300ff" stroke-width="0.25"/></g></g></svg>