<svg version="1.1" xmlns="http://www.w3.org/2000/svg" xmlns:xlink="http://www.w3.org/1999/xlink" width="116.60395" height="133.77717" viewBox="0,0,116.60395,133.77717"><g transform="translate(-316.63648,-46.22283)"><g data-paper-data="{&quot;isPaintingLayer&quot;:true}" fill-rule="nonzero" stroke-linejoin="miter" stroke-miterlimit="10" stroke-dasharray="" stroke-dashoffset="0" style="mix-blend-mode: normal"><g fill="#070707" stroke="none" stroke-width="0" stroke-linecap="butt"><path d="M328.50112,108.66875c0,-11.46601 12.00082,-20.76105 26.80458,-20.76105c14.80376,0 26.80459,9.29504 26.80459,20.76106c0,11.46601 -12.00082,20.76106 -26.80459,20.76106c-14.80376,0 -26.80458,-9.29504 -26.80458,-20.76105z"/><path d="M379.85872,59.64354c11.79001,-0.25057 21.60995,11.21177 21.93346,25.60184c0.32351,14.39007 -8.97194,26.25865 -20.76195,26.50921c-11.79001,0.25056 -21.60995,-11.21178 -21.93346,-25.60184c-0.32351,-14.39007 8.97194,-26.25864 20.76196,-26.50921z"/><path d="M413.81587,134.49209c-6.22161,9.74048 -21.46001,11.48081 -34.03593,3.88715c-12.57592,-7.59366 -17.72711,-21.64576 -11.5055,-31.38623c6.22161,-9.74048 21.46001,-11.48081 34.03593,-3.88715c12.57592,7.59366 17.72711,21.64575 11.5055,31.38623z"/></g><g><g stroke="#000000"><path d="M322.88648,96.41371c3.43559,-27.44602 29.44078,-46.94767 58.08421,-43.55817c28.64343,3.38951 49.07842,28.38663 45.64283,55.83266c-3.43559,27.44602 -29.44078,46.94768 -58.08421,43.55817c-28.64343,-3.38951 -49.07842,-28.38663 -45.64283,-55.83265z" fill="none" stroke-width="12.5" stroke-linecap="butt"/><path d="M352.78428,99.95165c1.45508,-11.6242 12.46904,-19.88372 24.60037,-18.44817c12.13133,1.43555 20.78616,12.02257 19.33108,23.64677c-1.45508,11.6242 -12.46904,19.88372 -24.60037,18.44817c-12.13133,-1.43555 -20.78616,-12.02258 -19.33108,-23.64678z" fill="#000000" stroke-width="0" stroke-linecap="butt"/><path d="M332.64903,97.56896c2.78889,-22.27971 23.89898,-38.11047 47.15071,-35.35899c23.25173,2.75148 39.84013,23.04327 37.05124,45.32298c-2.78889,22.27971 -23.89898,38.11046 -47.15071,35.35898c-23.25173,-2.75148 -39.84013,-23.04327 -37.05124,-45.32298z" fill="none" stroke-width="5" stroke-linecap="butt"/><path d="M324.25934,96.57617l100.98132,11.94957" fill="none" stroke-width="12.5" stroke-linecap="round"/><path d="M380.80603,54.17101l-12.11205,96.7599" fill="none" stroke-width="12.5" stroke-linecap="round"/><path d="M343.93697,98.90471c2.04115,-16.30616 17.49128,-27.89244 34.50885,-25.87868c17.01757,2.01377 29.15836,16.865 27.11721,33.17116c-2.04115,16.30616 -17.49128,27.89245 -34.50885,25.87868c-17.01757,-2.01377 -29.15836,-16.865 -27.11721,-33.17116z" fill="none" stroke-width="5" stroke-linecap="butt"/></g><path d="M372.02411,174.40482v-59.78006h11.20644v59.78006z" fill="#000000" stroke="none" stroke-width="0" stroke-linecap="butt"/><path d="M358.39466,173.37413c0,-3.41664 4.58605,-6.22928 10.47638,-6.58738c0.41847,-0.02544 16.71679,-0.0385 17.14724,-0.0385c6.48954,0 11.75034,2.96651 11.75034,6.62587c0,3.65937 -5.26081,6.62587 -11.75034,6.62587c-0.39487,0 -16.65847,-0.01098 -17.04333,-0.03243c-5.94022,-0.33113 -10.58029,-3.15673 -10.58029,-6.59343z" fill="#000000" stroke="none" stroke-width="0" stroke-linecap="butt"/></g></g></g></svg>