<svg version="1.1" xmlns="http://www.w3.org/2000/svg" xmlns:xlink="http://www.w3.org/1999/xlink" width="819.73196" height="471.26673" viewBox="0,0,819.73196,471.26673"><defs><linearGradient x1="92.52525" y1="194.64289" x2="401.32243" y2="194.64289" gradientUnits="userSpaceOnUse" id="color-1"><stop offset="0" stop-color="#000000"/><stop offset="1" stop-color="#1b271f"/></linearGradient></defs><g transform="translate(113.06456,52.12234)"><g data-paper-data="{&quot;isPaintingLayer&quot;:true}" fill-rule="nonzero" stroke="none" stroke-linecap="butt" stroke-linejoin="miter" stroke-miterlimit="10" stroke-dasharray="" stroke-dashoffset="0" style="mix-blend-mode: normal"><path d="M-100.19111,393.87766v-446h766.75514v446z" data-paper-data="{&quot;index&quot;:null}" fill="#000000" stroke-width="0"/><path d="M344.7775,419.14439v-461.01502h259.19863v461.01502z" data-paper-data="{&quot;index&quot;:null}" fill="#1a261e" stroke-width="0"/><path d="M92.52525,417.64289v-446h308.79718v446z" data-paper-data="{&quot;index&quot;:null}" fill="url(#color-1)" stroke-width="0"/><g stroke-width="0.5"><path d="M171.16011,197.10194c0.85206,3.73693 0.59155,5.49476 0.05621,8.86981c-0.66635,4.20099 -0.79678,6.89145 -3.3628,10.56252c-4.29464,6.14411 -10.3194,7.2349 -16.85478,9.27606c-1.60249,0.5005 -3.10853,1.32354 -4.75072,1.67239c-3.23984,0.68823 -7.52785,0.05687 -10.82454,0.05687c-10.41951,0 -19.91966,-1.44215 -29.80158,-4.90533c-5.24926,-1.83963 -10.25616,-3.73301 -13.39874,-8.77927c-1.24427,-1.99802 -1.37924,-5.88032 -1.2396,-8.27278c0.42736,-7.32155 3.33988,-13.30333 7.00386,-19.33962c-3.90857,-1.66531 -7.63386,-3.64067 -10.66229,-6.81445c-4.64208,-4.86487 -6.44743,-10.49817 -8.03089,-16.82162c-0.2502,-2.47228 -0.4445,-5.01145 -0.54539,-7.57906c-2.95046,0.68527 -5.42799,0.36751 -9.01732,-0.3433c-2.5538,-0.50574 -6.54999,-1.21905 -8.89612,-2.16057c-6.98197,-2.80192 -11.79115,-7.98954 -15.73058,-14.13173c-4.3397,-18.39956 1.96061,-38.97574 14.04766,-53.36889c5.03525,-5.99594 10.77902,-10.95164 16.73009,-15.93211c11.0694,-9.26401 23.37156,-17.61306 38.13301,-19.68481c4.84246,-0.67963 10.92948,-0.14236 15.78137,0.10645c9.21232,0.89892 16.78458,3.19626 25.3327,6.93726c8.94183,3.91331 18.25996,9.03898 25.2247,16.01101c4.73349,4.73844 9.25446,11.90418 11.59096,18.1491c0.91829,2.45436 1.13138,5.11912 1.80578,7.65138c3.80426,14.28442 5.35028,29.60774 2.89342,44.36045c-1.12692,6.76681 -3.49446,13.01902 -5.81266,19.43193c-5.84901,9.16087 -12.66914,20.56941 -22.79583,25.55703c-0.4328,0.21317 -0.86577,0.41965 -1.29895,0.61961c1.72901,2.84152 3.66023,5.52612 4.42306,8.87168zM98.80999,202.93117c-0.2837,1.49157 -1.00125,5.79415 -0.01229,7.31476c1.96197,3.01672 6.12517,4.19917 9.29691,5.30768c9.11521,3.18574 17.73308,4.48598 27.32886,4.48598c2.77507,0 6.80228,0.69803 9.52327,0.05687c2.44416,-0.57592 4.73811,-1.69048 7.17591,-2.29273c3.59936,-0.88922 7.31898,-2.3384 9.56642,-5.54143c1.67671,-2.38962 1.67704,-4.64419 2.11545,-7.43747c0.37781,-2.40714 0.66795,-3.29446 0.05621,-5.99976c-0.63693,-2.81667 -2.80041,-5.41774 -4.23091,-7.87805c-8.19122,2.51551 -16.55396,3.07777 -25.42141,2.83835c-10.06866,-0.27185 -19.76541,-1.00375 -29.15766,-4.71488c-2.75323,4.41566 -5.25053,8.65453 -6.24076,13.86066zM78.76907,147.17043c0.27496,-5.59618 1.1655,-11.14301 3.05173,-16.25076c2.2678,-6.14102 6.05,-12.11007 9.89216,-17.36012c3.34237,-4.56713 7.84851,-9.83846 13.23691,-12.1559c8.61196,-3.70383 19.02944,-2.27709 28.12577,-2.27709c0,0 3.75,0 3.75,3.75c0,3.75 -3.75,3.75 -3.75,3.75c-7.88903,0 -17.60377,-1.55547 -25.09161,1.63595c-4.14446,1.76642 -7.71249,6.29099 -10.24134,9.75714c-3.42425,4.69341 -6.8522,10.02532 -8.89046,15.50944c-3.18163,8.56048 -3.0528,18.81753 -2.16908,27.79141c0.88565,3.54999 1.17067,5.61487 3.07375,8.93999c3.93084,6.86805 10.8345,8.89048 17.72903,11.70658c8.62655,3.52356 17.65191,4.07473 26.92329,4.32101c10.72102,0.28478 20.37252,-0.62085 30.22781,-5.36301c8.56971,-4.12357 14.50727,-14.53226 19.46504,-22.1821c2.01752,-5.73076 4.13838,-11.32307 5.14386,-17.35067c2.28968,-13.7261 0.76618,-27.92709 -2.744,-41.20747c-0.60805,-2.30051 -0.76125,-4.72812 -1.58605,-6.96011c-1.94473,-5.26265 -5.90933,-11.51036 -9.90154,-15.49759c-6.29135,-6.28349 -14.82411,-10.88386 -22.8889,-14.40533c-7.73852,-3.37901 -14.54782,-5.55815 -22.87743,-6.32941c-4.01559,-0.20864 -10.13569,-0.72807 -14.19011,-0.15911c-13.34734,1.873 -24.37349,9.65679 -34.35438,18.00289c-5.61762,4.6975 -11.01516,9.33656 -15.78426,14.98205c-10.27133,12.15881 -16.0547,29.92299 -12.91625,45.62999c5.04453,7.08823 10.72937,10.16873 19.19939,11.88161c3.32619,0.67265 4.58862,1.23917 7.56669,-0.15938z" fill="#000000"/><path d="M105.00782,189.04487c9.39226,3.71113 19.14498,4.42039 29.21363,4.69224c8.86746,0.23942 17.26213,-0.2964 25.45335,-2.81191c1.43051,2.46031 3.59822,5.07432 4.23514,7.89099c0.61174,2.7053 0.32239,3.60166 -0.05541,6.00881c-0.43841,2.79327 -0.44022,5.05972 -2.11692,7.44934c-2.24744,3.20302 -5.97323,4.66674 -9.57259,5.55596c-2.4378,0.60226 -4.74086,1.72759 -7.18502,2.30351c-2.721,0.64115 -6.76833,-0.04597 -9.5434,-0.04597c-9.59579,0 -18.27206,-1.32729 -27.38727,-4.51304c-3.17174,-1.10852 -7.33895,-2.30376 -9.30092,-5.32048c-0.98896,-1.52061 -0.27205,-5.83434 0.01166,-7.32591c0.99023,-5.20613 3.49453,-9.46788 6.24776,-13.88354z" data-paper-data="{&quot;noHover&quot;:false,&quot;origItem&quot;:[&quot;Path&quot;,{&quot;applyMatrix&quot;:true,&quot;segments&quot;:[[[163.05996,399.38234],[1.98047,-10.41227],[-0.56741,2.98313]],[[163.03537,414.01187],[-1.97791,-3.04123],[3.92393,6.03343]],[[181.6292,424.62724],[-6.34348,-2.21703],[18.23042,6.37148]],[[236.28692,433.5992],[-19.19157,0],[5.55013,0]],[[255.33347,433.71295],[-5.44199,1.2823],[4.88832,-1.15184]],[[269.68529,429.12748],[-4.8756,1.20451],[7.19871,-1.77843]],[[288.81813,418.04463],[-4.49488,6.40604],[3.35342,-4.77925]],[[293.04904,403.16969],[-0.87682,5.58655],[0.75561,-4.81429]],[[293.16146,391.17017],[1.22348,5.4106],[-1.27385,-5.63334]],[[284.69963,375.41407],[2.86101,4.92062],[-16.38244,5.03102]],[[233.8568,381.09077],[17.73491,0.47883],[-20.13731,-0.54369]],[[175.54148,371.66102],[18.78451,7.42226],[-5.50646,8.83133]]],&quot;closed&quot;:true}]}" fill="#00300b"/><path d="M71.15806,147.35296c-8.47002,-1.71288 -14.15954,-4.80656 -19.20406,-11.89479c-3.13845,-15.707 2.65042,-33.50582 12.92175,-45.66462c4.7691,-5.64548 10.17757,-10.29782 15.79518,-14.99532c9.9809,-8.3461 21.03524,-16.14176 34.38258,-18.01477c4.05442,-0.56895 10.18544,-0.04928 14.20103,0.15936c8.32962,0.77125 15.15613,2.95597 22.89465,6.33498c8.06479,3.52147 16.61273,8.13447 22.90408,14.41796c3.99221,3.98722 7.96364,10.24617 9.90837,15.50883c0.8248,2.23199 0.9798,4.66434 1.58786,6.96486c3.51018,13.28038 5.03411,27.51074 2.74443,41.23683c-1.00548,6.0276 -3.13126,11.6313 -5.14878,17.36207c-4.95776,7.64984 -10.90873,18.0734 -19.47843,22.19697c-9.85529,4.74216 -19.52616,5.65649 -30.24719,5.3717c-9.27138,-0.24628 -18.31776,-0.79754 -26.94431,-4.3211c-6.89453,-2.8161 -13.81428,-4.84516 -17.74513,-11.71321c-1.90309,-3.32512 -2.19378,-5.39419 -3.07944,-8.94419c-0.88372,-8.97388 -1.02683,-19.25123 2.1548,-27.81171c2.03826,-5.48412 5.46352,-10.84112 8.88777,-15.53453c2.52886,-3.46616 6.11158,-8.01928 10.25604,-9.7857c7.48784,-3.19142 17.26931,-1.63845 25.15835,-1.63845c0,0 3.6853,0.07624 3.6853,-3.67376c0,-3.75 -3.74145,-3.74403 -3.74145,-3.74403c-9.09633,0 -19.4587,-1.43123 -28.07066,2.2726c-5.38841,2.31745 -9.87723,7.56262 -13.21961,12.12975c-3.84216,5.25006 -7.62402,11.19417 -9.89181,17.33518c-1.88623,5.10775 -2.78271,10.64027 -3.05768,16.23645c-2.97807,1.39855 -4.32745,0.8813 -7.65364,0.20865z" data-paper-data="{&quot;noHover&quot;:false,&quot;origItem&quot;:[&quot;Path&quot;,{&quot;applyMatrix&quot;:true,&quot;segments&quot;:[[[122.97813,287.86087],[-5.95614,2.7971],[0.54993,-11.19236]],[[129.08158,255.35935],[-3.77245,10.2155],[4.53559,-12.28203]],[[148.86589,220.63911],[-7.68431,10.50011],[6.68474,-9.13426]],[[175.33972,196.3273],[-10.77682,4.63489],[17.22393,-7.40767]],[[231.59126,191.77312],[-18.19267,0],[0,0]],[[239.09126,199.27312],[0,-7.5],[0,7.5]],[[231.59126,206.77312],[0,0],[-15.77807,0]],[[181.40803,210.04502],[14.97568,-6.38283],[-8.28892,3.53284]],[[160.92534,229.5593],[5.05772,-6.93231],[-6.8485,9.38682]],[[143.14443,260.57818],[4.07651,-10.96823],[-6.36326,17.12096]],[[138.80627,316.16099],[-1.76745,-17.94776],[1.77131,7.09998]],[[144.95378,334.04097],[-3.80617,-6.65023],[7.86168,13.73611]],[[180.41183,357.45413],[-13.78905,-5.63221],[17.2531,7.04712]],[[234.25842,366.09615],[-18.54277,-0.49256],[21.44205,0.56957]],[[294.71404,355.37014],[-19.71059,9.48432],[17.13942,-8.24713]],[[333.64412,311.00594],[-9.91553,15.29968],[4.03505,-11.46152]],[[343.93184,276.30459],[-2.01096,12.0552],[4.57937,-27.45219]],[[338.44385,193.88965],[7.02035,26.56077],[-1.21611,-4.60102]],[[335.27175,179.96943],[1.6496,4.46398],[-3.88947,-10.52531]],[[315.46866,148.97425],[7.98443,7.97445],[-12.5827,-12.56698]],[[269.69086,120.16359],[16.12958,7.04294],[-15.47704,-6.75801]],[[223.93599,107.50478],[16.65923,1.54251],[-8.03118,-0.41728]],[[195.55577,107.18655],[8.10883,-1.1379],[-26.69468,3.74601]],[[126.847,143.19233],[19.96179,-16.6922],[-11.23524,9.395]],[[95.27848,173.15642],[9.53821,-11.29097],[-20.54266,24.31761]],[[69.44597,264.41641],[-6.2769,-31.41401],[10.08905,14.17646]],[[107.84475,288.17963],[-16.94004,-3.42576],[6.65239,1.3453]]],&quot;closed&quot;:true}]}" fill="#313131"/><path d="M108.77667,147.47794c-3.75,0 -3.75,-3.75 -3.75,-3.75v-1.44c0,-0.0601 0,-0.12019 -0.00001,-0.18029c-0.88803,-1.22889 -0.69103,-2.80484 -0.69103,-2.80484c0.21681,-1.69704 0.30166,-3.41071 0.32444,-5.12318c-0.04817,-0.30596 -0.06071,-0.59255 0.00649,-0.83573c0.00036,-0.13868 0.00039,-0.27734 0.00012,-0.41596v-2.88c0,-2.07107 1.67893,-3.75 3.75,-3.75c1.90991,0 3.48633,1.42781 3.72011,3.27425l0.3522,2.46542l-0.08823,0.0126c0.04005,0.08326 0.0789,0.16721 0.11649,0.25189c0.94069,2.11977 0.00943,7.55072 0.00943,9.98583v1.44c0,0 0,3.75 -3.75,3.75z" fill="#ffffff"/><path d="M159.36618,147.36598c-3.63803,0.90951 -4.54754,-2.72853 -4.54754,-2.72853l-0.47197,-2.34951c0.05384,-1.49477 -0.5473,-2.94443 -0.94072,-4.38749c-0.69401,-2.5456 -0.49342,-4.87024 -0.49928,-7.4925c0,0 0,-3.75 3.75,-3.75c3.75,0 3.75,3.75 3.75,3.75c-0.01105,4.32862 1.35046,7.6314 1.44,11.88l0.24803,0.53049c0,0 0.90951,3.63803 -2.72853,4.54754z" fill="#ffffff"/></g><path d="M8.83284,413.89156l-68.53784,-97.88682l511.02011,2.48804l255.35229,66.5173z" data-paper-data="{&quot;index&quot;:null}" fill="#0e1410" stroke-width="0"/><g stroke-width="0"><g><path d="M27.39851,200.32416v-17.25863l295.40688,-0.98697l35.18693,-15.79155v17.25862l-33.15321,16.77852z" fill="#1e1e1e"/><path d="M26.08536,185.8967l40.14022,-19.32254l291.26876,0.78989l-40.14022,18.53265z" fill="#323232"/></g><path d="M27.50728,249.84391v-50.55447h19.56947v50.55447z" fill="#1e1e1e"/><path d="M63.48091,255.13331l-0.26402,-54.91085h19.56947l0.26402,54.91085z" fill="#161616"/><path d="M204.20585,254.69898l-0.26402,-54.91085h19.56947l0.26402,54.91085z" fill="#161616"/><path d="M172.62235,244.74402v-50.55447h19.56947v50.55447z" fill="#1e1e1e"/></g><path d="M641.5024,173.69655c-1.38071,0 -2.5,-1.11929 -2.5,-2.5c0,-1.38071 1.11929,-2.5 2.5,-2.5c1.38071,0 2.5,1.11929 2.5,2.5c0,1.38071 -1.11929,2.5 -2.5,2.5z" data-paper-data="{&quot;index&quot;:null}" fill="#252525" stroke-width="0.5"/><g stroke-width="0"><path d="M195.9353,215.22822l40.14022,-19.32254l291.26876,0.78989l-40.14022,18.53265z" fill="#323232"/><path d="M195.73645,232.13205v-17.25862l295.40688,-0.98697l35.18693,-15.79155v17.25862l-33.15321,16.77853z" fill="#1e1e1e"/></g><g stroke-width="0"><path d="M24.50962,259.49305v-17.25862l295.40689,-0.98698l35.18693,-15.79155v17.25862l-33.15321,16.77853z" fill="#1e1e1e"/><path d="M23.35686,244.55973l40.14022,-19.32254l291.26876,0.78989l-40.14022,18.53265z" fill="#323232"/></g><g stroke-width="0"><path d="M-39.61755,371.21624v-98.16866l477.81764,-12.86174l1.07181,129.2512z" fill="#686868"/><path d="M425.56329,373.35986v-135.66113h59.07236v135.66113z" fill="#a5a5a5"/><path d="M-40.01357,272.28245l60.82149,-28.64938l466.62421,-7.10901l-60.82148,27.8595z" fill="#424242"/></g><path d="M-52.28897,101.56522c0,-0.69035 0.55965,-1.25 1.25,-1.25c0.69035,0 1.25,0.55965 1.25,1.25c0,0.69035 -0.55965,1.25 -1.25,1.25c-0.69035,0 -1.25,-0.55965 -1.25,-1.25z" fill="#000000" stroke-width="0.5"/><path d="M-113.06456,130.23745c0,-0.69036 0.55965,-1.25 1.25,-1.25c0.69035,0 1.25,0.55964 1.25,1.25c0,0.69036 -0.55965,1.25 -1.25,1.25c-0.69035,0 -1.25,-0.55964 -1.25,-1.25z" fill="#2f2f2f" stroke-width="0.5"/></g></g></svg>