<svg version="1.1" xmlns="http://www.w3.org/2000/svg" xmlns:xlink="http://www.w3.org/1999/xlink" width="417.37226" height="169.55848" viewBox="0,0,417.37226,169.55848"><g transform="translate(-56.05368,-79.17006)"><g data-paper-data="{&quot;isPaintingLayer&quot;:true}" fill-rule="nonzero" stroke-linecap="butt" stroke-linejoin="miter" stroke-miterlimit="10" stroke-dasharray="" stroke-dashoffset="0" style="mix-blend-mode: normal"><text transform="translate(61.25,229.25842) scale(0.5,0.5)" font-size="40" xml:space="preserve" fill="#ffffff" fill-rule="nonzero" stroke="none" stroke-width="1" stroke-linecap="butt" stroke-linejoin="miter" stroke-miterlimit="10" stroke-dasharray="" stroke-dashoffset="0" font-family="Pixel" font-weight="normal" text-anchor="start" style="mix-blend-mode: normal"><tspan x="0" dy="0">TCC: he sleeps</tspan></text><text transform="translate(56.5386,245.3341) scale(0.32328,0.32328)" font-size="40" xml:space="preserve" fill="#ffffff" fill-rule="nonzero" stroke="none" stroke-width="1" stroke-linecap="butt" stroke-linejoin="miter" stroke-miterlimit="10" stroke-dasharray="" stroke-dashoffset="0" font-family="Pixel" font-weight="normal" text-anchor="start" style="mix-blend-mode: normal"><tspan x="0" dy="0">when he appears,                                                         idk</tspan></text><path d="M383.51537,197.60409v-115.93403h87.41057v115.93403z" fill="none" stroke="#ffffff" stroke-width="5"/><path d="M435.76555,142.91662c0,2.5 -2.88342,2.5 -2.88342,2.5l-1.67599,-0.04033c-0.28771,0.04531 -0.57388,0.08885 -0.8587,0.13127c0.21059,3.16742 0.40996,6.3404 0.74871,9.53493l0.26355,1.81659c0,0 0.35764,2.48069 -2.50351,2.79078c-2.86115,0.31009 -3.2188,-2.17061 -3.2188,-2.17061l-0.2844,-1.98409c-0.3153,-3.03876 -0.50587,-6.05667 -0.7034,-9.06837c-0.94552,0.19812 -1.88882,0.43577 -2.83693,0.73964c0,0 -2.70982,0.85436 -3.69521,-1.49513c-0.98539,-2.34948 1.72443,-3.20384 1.72443,-3.20384c1.49318,-0.46434 2.96615,-0.79843 4.44807,-1.07413c-0.24554,-3.00107 -0.57102,-6.00408 -1.10706,-9.02355c0,0 -0.43844,-2.47093 2.41145,-2.85107c2.84989,-0.38014 3.28834,2.09079 3.28834,2.09079c0.52681,2.9704 0.85249,5.92531 1.09918,8.87769c0.06415,-0.01003 0.12838,-0.02012 0.19269,-0.03027l2.70759,-0.04033c0,0 2.88342,0 2.88342,2.5z" fill="#ffffff" stroke="none" stroke-width="0.5"/></g></g></svg>