<svg version="1.1" xmlns="http://www.w3.org/2000/svg" xmlns:xlink="http://www.w3.org/1999/xlink" width="1106.11536" height="482.09057" viewBox="0,0,1106.11536,482.09057"><g transform="translate(399.448,41.87063)"><g data-paper-data="{&quot;isPaintingLayer&quot;:true}" fill-rule="nonzero" stroke-linejoin="miter" stroke-miterlimit="10" stroke-dasharray="" stroke-dashoffset="0" style="mix-blend-mode: normal"><g><g><path d="M-90.22253,419.14439v-461.01502h694.19863v461.01502z" data-paper-data="{&quot;index&quot;:null}" fill="#1a261e" stroke="none" stroke-width="0" stroke-linecap="butt"/><path d="M151.86504,353.5744v-314h230.8552v314z" fill="#000000" stroke="none" stroke-width="0" stroke-linecap="butt"/><g><path d="M328.26671,353.60318v-324h221v324z" fill="#151f19" stroke="none" stroke-width="0" stroke-linecap="butt"/><path d="M364.914,49.13138v295.30769" fill="none" stroke="#0e1410" stroke-width="5" stroke-linecap="round"/><path d="M402.99092,345.41029v-295.30769" fill="none" stroke="#0e1410" stroke-width="5" stroke-linecap="round"/><path d="M441.06785,50.1026v295.30769" fill="none" stroke="#0e1410" stroke-width="5" stroke-linecap="round"/><path d="M479.14477,50.1026v295.30769" fill="none" stroke="#0e1410" stroke-width="5" stroke-linecap="round"/><path d="M517.22169,345.41029v-295.30769" fill="none" stroke="#0e1410" stroke-width="5" stroke-linecap="round"/></g><g><path d="M-10.18143,353.74107v-324h221v324z" fill="#151f19" stroke="none" stroke-width="0" stroke-linecap="butt"/><path d="M17.23509,49.26927v295.30769" fill="none" stroke="#0e1410" stroke-width="5" stroke-linecap="round"/><path d="M55.31201,49.26927v295.30769" fill="none" stroke="#0e1410" stroke-width="5" stroke-linecap="round"/><path d="M93.38894,344.57696v-295.30769" fill="none" stroke="#0e1410" stroke-width="5" stroke-linecap="round"/><path d="M131.46585,49.26927v295.30769" fill="none" stroke="#0e1410" stroke-width="5" stroke-linecap="round"/><path d="M169.54278,49.26927v295.30769" fill="none" stroke="#0e1410" stroke-width="5" stroke-linecap="round"/></g><g><path d="M-10.18143,353.74107v-324h221v324z" fill="#151f19" stroke="none" stroke-width="0" stroke-linecap="butt"/><path d="M17.23509,49.26927v295.30769" fill="none" stroke="#0e1410" stroke-width="5" stroke-linecap="round"/><path d="M55.31201,49.26927v295.30769" fill="none" stroke="#0e1410" stroke-width="5" stroke-linecap="round"/><path d="M93.38894,344.57696v-295.30769" fill="none" stroke="#0e1410" stroke-width="5" stroke-linecap="round"/><path d="M131.46585,49.26927v295.30769" fill="none" stroke="#0e1410" stroke-width="5" stroke-linecap="round"/><path d="M169.54278,49.26927v295.30769" fill="none" stroke="#0e1410" stroke-width="5" stroke-linecap="round"/></g></g><path d="M8.8328,413.89156l-25.53784,-69.88682l553.02011,10.48804l170.35229,30.5173z" data-paper-data="{&quot;index&quot;:null}" fill="#0e1410" stroke="none" stroke-width="0" stroke-linecap="butt"/><path d="M-182.91666,206.46271c0,-1.38071 1.11929,-2.5 2.5,-2.5c1.38071,0 2.5,1.11929 2.5,2.5c0,1.38071 -1.11929,2.5 -2.5,2.5c-1.38071,0 -2.5,-1.11929 -2.5,-2.5z" fill="#484230" stroke="none" stroke-width="0.5" stroke-linecap="butt"/></g><path d="M641.50237,173.69655c-1.38071,0 -2.5,-1.11929 -2.5,-2.5c0,-1.38071 1.11929,-2.5 2.5,-2.5c1.38071,0 2.5,1.11929 2.5,2.5c0,1.38071 -1.11929,2.5 -2.5,2.5z" data-paper-data="{&quot;index&quot;:null}" fill="#252525" stroke="none" stroke-width="0.5" stroke-linecap="butt"/><path d="M-330.13427,57.50003c0,-6.90356 5.59644,-12.5 12.5,-12.5c6.90356,0 12.5,5.59644 12.5,12.5c0,6.90356 -5.59644,12.5 -12.5,12.5c-6.90356,0 -12.5,-5.59644 -12.5,-12.5z" fill="#262429" stroke="none" stroke-width="0.5" stroke-linecap="butt"/><path d="M-399.448,128.483c0,-1.38071 1.11929,-2.5 2.5,-2.5c1.38071,0 2.5,1.11929 2.5,2.5c0,1.38071 -1.11929,2.5 -2.5,2.5c-1.38071,0 -2.5,-1.11929 -2.5,-2.5z" fill="#ffeaaa" stroke="none" stroke-width="0.5" stroke-linecap="butt"/><g stroke="none" stroke-width="0.5" stroke-linecap="butt"><path d="M290.9008,220.18581c1.61012,-0.43046 3.1815,-1.53443 4.83036,-1.2914c7.82336,1.15313 8.51535,9.78627 10.5761,15.84449c2.62182,7.70769 5.68097,15.39253 7.89384,23.22333c1.65759,5.86579 1.88477,11.58697 2.98568,17.45905c1.90003,10.13443 7.46458,20.45006 -1.09238,29.4951c-4.87411,5.15213 -12.85881,5.44398 -19.42394,6.52244c-6.38542,1.04448 -12.91875,1.70147 -19.40022,1.74479c-3.10011,0.02071 -3.15013,-0.47679 -6.40017,0.00398c-12.01098,1.77675 -24.72316,2.47053 -36.98133,1.82618c-5.13637,-0.26999 -10.20526,-1.44686 -15.27847,-1.83292c-5.53935,-0.42154 -11.17517,-0.53177 -16.7292,-1.53211c-5.66542,-1.0204 -10.84517,-3.51545 -16.4305,-4.86789c-1.43453,-0.85418 -2.75185,-1.9464 -4.30358,-2.56254c-5.37626,-2.13473 -12.97166,-2.13008 -17.4197,-6.61018c-3.20789,-3.23101 -3.49038,-7.9042 -4.57357,-11.97424c-1.28241,-4.81864 -3.04142,-9.46771 -4.28097,-14.30095c-0.83766,-3.26623 -3.28046,-6.96079 -1.67843,-10.51009c0.95019,-2.10512 3.70637,-2.78108 5.72595,-3.90168c0.82064,-0.45535 1.71203,-0.84365 2.64405,-1.17946c-1.62014,-3.00695 -2.80791,-6.43593 -4.20433,-9.69449c-3.42481,-7.99185 -6.34854,-16.15675 -9.02944,-24.4103c-0.19879,0.18714 -0.39712,0.37553 -0.59498,0.56526c-4.22346,4.04989 -8.81976,7.69248 -13.18782,11.58596c-1.76417,1.57251 -2.99936,3.69055 -4.81257,5.20625c-3.33673,2.78921 -6.61939,4.27184 -10.34607,6.15834c-2.47361,0.83872 -6.1362,2.3627 -8.79581,1.90792c-9.27263,-1.58558 -12.96194,-15.84217 -13.94773,-23.59574c-0.7247,-5.70005 0.86011,-9.90658 1.46046,-15.47536c0.57206,-5.30631 2.03227,-10.23827 4.157,-14.86225c-0.29332,-0.2277 -0.54153,-0.48399 -0.74861,-0.73965c-0.80074,0.36867 -1.83626,0.49151 -3.15233,0.06176c-4.15797,-1.35773 -2.80024,-5.5157 -2.80024,-5.5157l0.9547,-2.8938c2.48095,-6.19579 4.68367,-12.98815 8.32979,-18.64185c1.2807,-1.98588 3.42843,-3.29661 4.78095,-5.2343c0.76405,-1.09462 0.94925,-2.54376 1.78423,-3.58529c2.23972,-2.79377 5.11992,-5.48175 8.13216,-7.95336c-0.78176,-1.48081 -0.41939,-3.15996 -0.41939,-3.15996c3.0409,-13.80267 14.49329,-23.03842 22.97963,-33.66754c5.16985,-6.47521 10.0446,-13.07954 15.72189,-19.14041c2.51452,-2.68442 5.08514,-5.326 7.41071,-8.17566c3.40737,-4.17526 5.73243,-8.02995 11.57314,-9.28238c7.17115,-1.53772 14.09989,5.99528 19.1889,9.7699c8.39198,4.63619 17.10701,10.23211 23.8594,17.18456c4.25615,4.38226 8.09318,9.48855 12.98444,13.2172c0.73722,0.56199 1.74558,0.6671 2.51944,1.17744c5.512,3.63493 10.17399,8.57456 15.75587,12.1056l2.23542,2.82415c4.91363,0.40298 9.82439,0.80754 14.73803,1.09661c7.24131,0.42597 14.45507,0.86043 21.58628,2.18848c1.69538,0.31573 3.60243,0.09134 5.07971,0.98108c6.1175,3.68446 5.42698,13.50973 4.64557,19.49182c0.60343,6.95247 -0.3989,13.39048 -1.49016,20.22888c-0.2676,1.67693 -0.00209,3.57804 -0.91127,5.0123c-1.45758,2.2994 -3.40468,4.52101 -5.86742,5.68146c-1.82783,0.86128 -4.04229,0.01512 -6.06146,-0.06052c-2.01006,-0.07531 -4.0041,-0.26057 -5.99074,-0.49556c0.12592,0.3588 0.25041,0.71806 0.37335,1.07777c2.74482,8.06926 5.111,15.99819 7.07569,24.29408c0.82896,3.50027 2.10675,6.62373 2.3816,9.88787zM165.16595,264.02532c-0.94811,0.32313 -1.85713,0.81361 -2.84843,0.95729c-0.42675,0.06185 -1.21352,-0.79489 -1.24124,-0.36455c-0.03788,0.58804 0.91532,0.78985 1.17992,1.31635c0.50192,0.99874 0.79968,2.0928 1.07748,3.17551c1.24131,4.83791 2.98454,9.4748 4.28097,14.30094c0.44923,1.67237 0.63531,6.45328 2.18768,7.9026c3.51462,3.2813 10.27043,3.09967 14.44914,4.72615c1.60878,0.62618 2.97621,1.75025 4.4643,2.62537c5.03656,1.1418 9.63995,3.4962 14.72663,4.37614c5.27113,0.91186 10.543,1.00376 15.78712,1.41359c5.04189,0.39403 10.04631,1.55529 15.14554,1.82451c11.74589,0.62012 23.83234,-0.15865 35.33149,-1.762c8.44327,-1.17726 17.01308,-0.30421 25.54662,-1.71092c3.96154,-0.65005 11.53923,-0.50718 14.40871,-3.81878c5.56721,-6.42499 0.25172,-14.93671 -1.05776,-21.87332c-1.07054,-5.67086 -1.21884,-11.09727 -2.81507,-16.75088c-2.17131,-7.69038 -5.18899,-15.23781 -7.76379,-22.80726c-1.08749,-3.19701 -2.74687,-6.62357 -3.06015,-10.03018c-0.0477,-0.51876 -0.79712,0.67945 -1.24711,0.94192l-2.61538,0.88964c0,0 -2.271,0.7725 -4.02149,-0.50845c-4.16735,6.768 -14.14628,7.85554 -21.25333,10.27305c-11.90293,4.04887 -23.85004,7.82005 -35.83354,11.60443c-9.29745,2.93614 -18.196,6.27146 -27.79199,8.1646c-7.5337,1.47978 -14.75813,3.87083 -22.37551,4.71642c-2.21817,0.24624 -4.44344,1.0267 -6.65547,0.7303c-1.75466,-0.23512 -3.2722,-0.69331 -4.59951,-1.33122c-1.14933,0.29079 -2.28561,0.63693 -3.40584,1.01873zM230.56765,123.86558c-0.96731,-0.63475 -2.17288,-0.87655 -3.08857,-1.58374c-5.13862,-3.96847 -9.28356,-9.22763 -13.73932,-13.87561c-6.28675,-6.55796 -14.61715,-11.73151 -22.47101,-16.07807c-2.37852,-1.75835 -4.7268,-3.55836 -7.13557,-5.27502c-1.75869,-1.25337 -3.57896,-4.07431 -5.5872,-3.28001c-3.54941,1.40388 -4.10224,3.26024 -6.50302,6.20392c-0.08158,0.10004 -7.70694,8.52644 -7.86143,8.69122c-7.53912,8.04105 -13.86689,17.04036 -21.16792,25.30116c-4.57581,5.17734 -9.92248,10.65048 -13.08046,16.99118c8.34714,-5.69676 17.33458,-10.85542 27.08401,-13.53038c6.13419,-1.68303 14.10769,1.14614 20.38239,1.71964c5.10846,1.04691 9.83974,0.17732 15.09611,0.57388c9.8835,0.74564 19.5754,0.59097 29.48619,0.32896c5.6953,-0.15057 11.37063,0.02964 17.03476,0.36245c-2.75232,-2.28456 -5.48051,-4.60169 -8.44895,-6.54958zM107.6762,182.84296c0.04127,0.2514 0.08255,0.5028 0.12383,0.75422c2.78999,-3.96565 6.02572,-7.70099 9.52097,-11.26129c0,0 3.07388,-3.11181 6.18568,-0.03791c3.1118,3.07389 0.03791,6.18569 0.03791,6.18569c-8.44492,8.48941 -15.40273,18.30937 -16.72322,30.26202c-0.53593,4.85113 -2.17207,8.68568 -1.50666,13.54664c0.53083,3.87786 1.97477,7.96917 3.42335,11.57265c0.25425,0.6325 1.97347,4.5587 3.14002,4.54245c1.43962,-0.02006 2.75147,-0.85053 4.11385,-1.31619c2.69367,-1.37276 5.84212,-2.85556 8.10735,-4.78751c1.71346,-1.46136 2.87915,-3.48623 4.55995,-4.98504c4.3104,-3.84368 8.85346,-7.4314 13.02071,-11.42981c1.23783,-1.18768 2.49493,-2.32618 3.76468,-3.43512c-2.49168,-8.1602 -4.84114,-16.37584 -7.29314,-24.56697c0,0 -1.25436,-4.1903 2.93594,-5.44467c4.1903,-1.25437 5.44467,2.93594 5.44467,2.93594c2.08559,6.96711 4.04711,14.02576 6.08798,21.06675c1.66514,-1.37311 3.3309,-2.75781 4.98314,-4.19598c4.37706,-3.8099 8.07399,-8.35112 12.39803,-12.22111c2.02566,-1.81296 4.44451,-3.16796 6.39321,-5.06339c1.10521,-1.07501 1.66059,-2.61399 2.68479,-3.76645c5.03607,-5.66664 11.48288,-10.09963 16.74569,-15.53018c0.19556,-0.20179 0.378,-0.42454 0.55174,-0.6609c-6.92665,1.44692 -13.79878,3.15169 -20.59277,5.18747c-9.88064,2.95761 -19.71463,5.90357 -29.48808,9.20853c-4.66126,1.57623 -9.47291,2.86208 -13.80088,5.2152l0.81851,0.18202c0,0 -1.93211,3.92417 -5.85627,1.99206c-3.92417,-1.93211 -1.99204,-5.85627 -1.99204,-5.85627l2.8894,-4.024c4.8038,-2.55626 9.9891,-4.05466 15.13546,-5.79488c9.8719,-3.33816 19.80517,-6.31562 29.7852,-9.30328c22.68081,-6.78304 46.60648,-10.46997 70.2174,-12.3131c7.56832,-0.5908 16.75601,-2.05753 22.6055,4.23998c2.99885,3.22854 3.48919,8.21814 5.09813,12.118c1.44233,3.496 2.9273,6.99021 4.35556,10.50721c1.99309,0.27672 3.98943,0.53192 5.99836,0.68648c2.18943,0.16845 4.38164,1.39052 6.52447,0.91067c1.53605,-0.34396 1.09327,-2.95458 1.1704,-3.68213c0.70659,-6.66516 1.95212,-12.50587 1.41271,-19.27604c0.37953,-2.65093 0.28291,-5.3726 -0.0156,-8.03387c-0.13177,-1.17479 1.10828,-3.47937 -0.07202,-3.54578c-10.14902,-0.57104 -20.73143,-1.37411 -30.8711,-2.43519c-12.42256,-1.29999 -25.02039,-2.5325 -37.592,-2.18999c-7.81402,0.21289 -15.67835,0.66512 -23.50113,0.31289c-4.30711,-0.19394 -7.97062,-1.06745 -12.2597,-0.96826c-3.39237,0.07845 -6.83734,0.28212 -10.17435,-0.33315c-4.8515,-0.43543 -10.10277,-2.13095 -14.885,-2.30985c-7.18253,-0.2687 -16.75108,6.57212 -22.4982,10.15124c-6.86753,4.27687 -15.27913,9.69052 -20.3661,16.15775c-0.78495,0.99794 -0.93122,2.39016 -1.66723,3.42473c-0.29123,0.40938 -3.9367,3.91621 -4.59157,4.95701c-2.1133,3.35871 -3.68946,7.14514 -5.15103,10.93129c0.52542,0.87856 0.66349,1.71946 0.66349,1.71946zM265.65937,183.94516c-8.30603,-0.63648 -16.89913,-0.60564 -25.10355,-2.18014c-3.98111,-0.76402 -7.81301,-2.17187 -11.75502,-3.11718c-6.49626,-1.55783 -12.06508,-2.78423 -18.11817,-5.78444c-2.15193,-0.47248 -4.4611,-0.48187 -6.45578,-1.41741c-0.89847,-0.42139 -0.74481,-2.31086 -1.73092,-2.42226c-0.73999,-0.0836 0.45179,1.6009 0.05859,2.23333c-0.79964,1.28616 -2.29075,1.98646 -3.35318,3.06576c-4.28582,4.3539 -9.56507,8.11175 -13.60529,12.7111c-1.07362,1.22221 -1.69393,2.8199 -2.85898,3.95529c-2.11576,2.06189 -4.70398,3.5858 -6.90323,5.55839c-4.36292,3.91327 -8.11148,8.48388 -12.52873,12.33573c-2.64702,2.3082 -5.32636,4.46516 -7.98131,6.66116c2.4562,8.01326 5.1311,15.9417 8.32911,23.62188c1.59474,3.82984 3.30426,7.70061 5.04887,11.47619c0.51731,1.11954 1.05455,2.21446 1.79233,3.09588c0.90713,-0.03269 2.90964,0.11891 3.96828,1.93042c1.45198,0.04764 2.87228,-0.55297 4.31845,-0.74664c7.36911,-0.9869 14.40534,-3.16835 21.7313,-4.61435c9.27077,-1.82183 17.85559,-5.08337 26.83798,-7.92025c11.92584,-3.76651 23.81471,-7.51814 35.6605,-11.54756c4.01024,-1.36411 7.98659,-2.83224 12.03072,-4.09234c1.78765,-0.55702 4.21092,-1.12769 4.80969,-2.90178c1.11197,-3.29467 -1.07495,-7.66594 -1.83255,-10.85412c-1.90765,-8.02786 -4.18864,-15.68372 -6.84548,-23.49436c-0.58925,-1.74141 -1.21969,-3.47046 -1.87739,-5.19063c-1.20891,-0.14339 -2.42035,-0.26848 -3.63626,-0.36165zM207.41814,163.30081c1.99935,0.61698 4.0939,0.86728 6.14084,1.30093c16.22741,7.93914 34.34347,9.19541 52.03595,10.56414c-0.83418,-1.99546 -1.67159,-3.98726 -2.48965,-5.981c-0.93646,-2.28233 -1.5587,-7.57099 -3.42097,-9.49529c-2.13432,-2.20541 -4.94522,-1.97606 -7.69868,-1.85433c-5.47854,0.2422 -10.94718,0.71628 -16.40116,1.28823c-9.66217,1.01326 -19.30482,2.25454 -28.86703,3.91227c0.23153,0.10243 0.46492,0.19228 0.70069,0.26504z" fill="#000000"/><path d="M239.07364,130.42732c-5.66413,-0.33281 -11.34046,-0.50904 -17.03576,-0.35847c-9.91079,0.262 -19.61456,0.43861 -29.49806,-0.30703c-5.25637,-0.39656 -10.03619,0.49312 -15.14466,-0.55379c-6.27471,-0.5735 -14.29665,-3.43608 -20.43084,-1.75305c-9.74944,2.67496 -18.73652,7.83436 -27.08365,13.53113c3.15798,-6.3407 8.49975,-11.82876 13.07556,-17.0061c7.30103,-8.26081 13.65118,-17.31735 21.1903,-25.3584c0.15449,-0.16478 7.80193,-8.60139 7.88352,-8.70144c2.40078,-2.94369 2.96696,-4.80148 6.51637,-6.20536c2.00824,-0.7943 3.83907,2.02769 5.59776,3.28106c2.40877,1.71667 4.77281,3.52213 7.15133,5.28047c7.85386,4.34656 16.21398,9.55749 22.50073,16.11546c4.45577,4.64798 8.60223,9.92726 13.74086,13.89572c0.9157,0.70718 2.12112,0.95039 3.08843,1.58514c2.96843,1.94789 5.69579,4.2701 8.4481,6.55466z" data-paper-data="{&quot;noHover&quot;:false,&quot;origItem&quot;:[&quot;Path&quot;,{&quot;applyMatrix&quot;:true,&quot;segments&quot;:[[[303.61878,102.42675],[1.87157,2.40059],[-0.60988,-0.78227]],[[301.54916,100.28856],[0.54799,0.82681],[-3.07516,-4.63979]],[[294.22843,85.23294],[2.3333,5.00279],[-3.29211,-7.05857]],[[280.42861,65.97891],[5.17462,5.69633],[-1.44509,-2.08387]],[[276.09333,59.7273],[1.48115,2.0584],[-1.08141,-1.50287]],[[272.464,55.52246],[1.84931,-0.09024],[-3.26852,0.15951]],[[265.4729,58.76251],[2.76135,-1.72644],[-0.09384,0.05867]],[[256.6925,63.64636],[0.17089,-0.09109],[-8.33928,4.44512]],[[232.52585,78.33804],[8.20671,-4.68922],[-5.14343,2.9389]],[[217.21781,88.51771],[4.31383,-4.27461],[8.34788,-2.31926]],[[242.93649,85.01331],[-8.65178,-0.52058],[5.44356,0.32755]],[[259.00532,92.0365],[-4.9346,-2.19788],[3.8573,2.26014]],[[271.09981,96.67021],[-4.15691,-1.77312],[7.81619,3.33397]],[[294.94179,105.07813],[-8.11654,-2.52363],[4.66423,1.45022]],[[308.66818,110.07548],[-4.50547,-1.83395],[-1.6032,-2.61418]]],&quot;closed&quot;:true,&quot;fillColor&quot;:[0,0,0,1]}]}" fill="#484848"/><path d="M278.18829,177.32326c-5.52372,-0.22699 -10.71766,-1.83786 -16.27459,-2.3783c-4.54181,-0.44171 -8.91658,0.39674 -13.41236,-0.83249c-0.70534,-0.19286 -1.3887,-0.42681 -2.05444,-0.69403c-11.358,-1.39472 -22.5616,-3.74804 -32.94511,-8.82809c-1.6018,-0.33935 -3.23274,-0.5665 -4.8244,-0.94491c-2.80386,-0.08956 -5.58246,-0.29037 -8.26658,-0.6698c-0.30634,0.10166 -0.61273,0.20326 -0.91916,0.3048c-0.98319,1.56508 -2.10007,3.04675 -3.41835,4.39704c-4.74006,4.85511 -10.70026,8.22477 -15.86015,12.56449c-0.34021,0.28613 -0.686,0.56569 -1.03531,0.84108c-0.04664,0.05201 -0.09316,0.10409 -0.13954,0.15629c-1.0242,1.15246 -1.57828,2.69268 -2.68349,3.76769c-1.9487,1.89543 -4.36918,3.24885 -6.39484,5.06181c-4.32404,3.86999 -8.02104,8.41113 -12.39811,12.22104c-1.65224,1.43816 -3.31839,2.82247 -4.98353,4.19558c-0.10047,-0.3466 -0.20077,-0.69329 -0.30093,-1.04005c-1.93717,3.01924 -4.00444,5.90059 -6.59485,8.54341c0,0 -1.49872,1.5172 -3.46256,1.38632c-0.19616,0.18502 -0.39048,0.36983 -0.5823,0.55388c-4.16725,3.99841 -8.71062,7.5858 -13.02102,11.42948c-1.6808,1.49881 -2.84627,3.52391 -4.55972,4.98528c-2.26524,1.93195 -5.41447,3.41389 -8.10815,4.78665c-1.36238,0.46567 -2.67489,1.29541 -4.11451,1.31546c-1.16656,0.01624 -2.88769,-3.91226 -3.14194,-4.54476c-1.44858,-3.60349 -2.89617,-7.69997 -3.42701,-11.57783c-0.66541,-4.86096 0.96755,-8.70125 1.50348,-13.55238c0.80308,-7.26925 3.6894,-13.75566 7.72763,-19.63238l-2.11772,0.51201c-2.18904,0.55549 -4.47243,-0.65749 -5.21226,-2.83246c-0.45244,-1.33012 -0.22797,-2.72708 0.48901,-3.81626c-0.01559,-0.04889 -0.0284,-0.09829 -0.03666,-0.14854l-0.00003,0.00006c0,0 -0.13826,-0.84211 -0.66368,-1.72066c1.46156,-3.78615 3.03703,-7.57979 5.15032,-10.9385c0.65487,-1.0408 4.30034,-4.55133 4.59157,-4.96071c0.736,-1.03457 0.88242,-2.42951 1.66738,-3.42745c5.08697,-6.46723 13.5027,-11.89838 20.37023,-16.17525c5.74712,-3.57912 15.32893,-10.43967 22.51146,-10.17098c4.78223,0.1789 10.04607,1.86509 14.89757,2.30051c3.33702,0.61526 6.79807,0.40561 10.19044,0.32716c4.28909,-0.09919 7.97679,0.77432 12.2839,0.96825c7.82278,0.35223 15.7168,-0.08363 23.53082,-0.29651c12.57161,-0.34251 25.18188,0.90922 37.60445,2.20922c10.13968,1.06108 20.72448,1.87167 30.8735,2.44271c1.1803,0.06642 -0.0593,2.37295 0.07247,3.54774c0.2985,2.66127 0.39589,5.38753 0.01636,8.03845c0.53941,6.77016 -0.70579,12.62232 -1.41238,19.28748c-0.07713,0.72755 0.36545,3.34045 -1.1706,3.68441c-2.14283,0.47985 -4.451,-0.75476 -6.64043,-0.92321c-0.43515,-0.03348 -0.8697,-0.07167 -1.30376,-0.1138c-1.03645,0.42084 -2.00013,0.39106 -2.00013,0.39106z" fill="#484848"/><path d="M165.10904,264.01247c1.12023,-0.3818 2.25684,-0.72929 3.40617,-1.02008c1.32732,0.63791 2.84481,1.09623 4.59947,1.33135c2.21203,0.2964 4.43787,-0.48616 6.65604,-0.7324c7.61738,-0.84559 14.84757,-3.25005 22.38127,-4.72983c9.59599,-1.89315 18.52728,-5.25451 27.82474,-8.19065c11.98351,-3.78438 23.97929,-7.54924 35.88221,-11.59811c7.10705,-2.41751 17.09422,-3.49876 21.26157,-10.26676c1.75049,1.28095 4.0234,0.51029 4.0234,0.51029l2.61604,-0.88896c0.44999,-0.26247 1.19951,-1.46058 1.24721,-0.94182c0.31328,3.40661 1.97751,6.83889 3.065,10.03591c2.5748,7.56945 5.60131,15.13434 7.77261,22.82473c1.59623,5.65361 1.74704,11.09408 2.81758,16.76494c1.30948,6.9366 6.62319,15.46607 1.05598,21.89106c-2.86948,3.31159 -10.44937,3.17549 -14.41091,3.82554c-8.53355,1.4067 -17.1117,0.54827 -25.55497,1.72552c-11.49915,1.60335 -23.64297,2.40333 -35.38886,1.78321c-5.09923,-0.26922 -10.13014,-1.44338 -15.17203,-1.83741c-5.24411,-0.40983 -10.52768,-0.51542 -15.79881,-1.42727c-5.08668,-0.87994 -9.69545,-3.24561 -14.73201,-4.3874c-1.48809,-0.87511 -2.85673,-2.00304 -4.46551,-2.62922c-4.17871,-1.62648 -10.93597,-1.45166 -14.45059,-4.73297c-1.55237,-1.44933 -1.73906,-6.23681 -2.18829,-7.90918c-1.29642,-4.82614 -3.03902,-9.474 -4.28033,-14.31191c-0.27779,-1.0827 -0.57517,-2.17894 -1.0771,-3.17768c-0.2646,-0.5265 -1.21765,-0.72908 -1.17977,-1.31712c0.02773,-0.43034 0.81448,0.42649 1.24123,0.36463c0.99131,-0.14369 1.90057,-0.6353 2.84868,-0.95843z" data-paper-data="{&quot;noHover&quot;:false,&quot;origItem&quot;:[&quot;Path&quot;,{&quot;applyMatrix&quot;:true,&quot;segments&quot;:[[[211.83771,198.13211],[0,0],[-0.85876,0.00051]],[[209.26144,198.12268],[0.84427,0.15707],[-0.36346,-0.06762]],[[208.35462,197.48409],[0.14132,-0.34163],[-0.1931,0.46683]],[[208.94888,198.87829],[-0.0694,-0.5004],[0.13165,0.94922]],[[208.94669,201.75321],[0.07345,-0.95549],[-0.32819,4.26946]],[[208.47301,214.54268],[0.2802,-4.27513],[-0.0971,1.48143]],[[208.06682,221.56092],[-0.85985,-1.60496],[1.94674,3.63367]],[[218.48978,229.38625],[-2.94264,-2.47386],[1.1329,0.95242]],[[221.38844,232.74972],[-0.96622,-1.12115],[3.77274,2.31731]],[[232.13326,240.36757],[-3.88572,-2.11861],[4.02662,2.19544]],[[244.55677,245.87363],[-4.14329,-1.7805],[3.98352,1.71185]],[[256.34609,251.53608],[-4.06452,-1.62637],[9.36248,3.74628]],[[285.50978,259.86069],[-9.77609,-1.87345],[7.17811,1.37559]],[[306.71736,265.52523],[-7.31473,-1.21428],[3.3949,0.56613]],[[319.46669,266.40381],[-3.24335,1.89565],[6.29258,-3.67785]],[[324.6472,248.35804],[-0.85229,5.99171],[0.69677,-4.89839]],[[326.9871,233.98478],[-0.26532,5.02952],[0.36089,-6.84147]],[[326.98244,213.32948],[0,6.85471],[0,-2.89514]],[[327.26789,204.34349],[-0.68626,2.85151],[0.10451,-0.43423]],[[325.9956,204.76369],[0.43771,-0.0888],[0,0]],[323.62718,204.76369],[[320.50347,203.2407],[1.06714,1.52299],[-5.25107,4.34275]],[[300.41665,205.71106],[6.43597,0],[-10.77901,0]],[[268.12805,205.23656],[10.77139,0.23692],[-8.35703,-0.18381]],[[243.31618,204.1903],[8.31138,1.11278],[-6.52337,-0.87892]],[[223.85267,201.84073],[6.41619,1.41677],[-1.86839,-0.41256]],[[218.24905,200.59596],[1.71359,0.85131],[-1.35928,-0.67529]],[[214.88334,198.24557],[0.90121,0.88423],[-1.01315,-0.0813]],[[211.83769,198.13211],[1.01466,-0.00061],[0,0]]],&quot;closed&quot;:true,&quot;fillColor&quot;:[0,0,0,1]}]}" fill="#295623"/><path d="M265.71285,183.92194c1.21591,0.09318 2.42802,0.21988 3.63693,0.36327c0.65769,1.72017 1.28992,3.45436 1.87917,5.19577c2.65684,7.81064 4.93987,15.48916 6.84751,23.51702c0.75759,3.18817 2.94284,7.56843 1.83087,10.8631c-0.59877,1.77409 -3.02312,2.3483 -4.81077,2.90532c-4.04413,1.2601 -8.02371,2.73587 -12.03395,4.09999c-11.84579,4.02943 -23.76703,7.80959 -35.69287,11.5761c-8.98238,2.83688 -17.60435,6.09912 -26.87512,7.92096c-7.32596,1.446 -14.37909,3.61892 -21.74821,4.60582c-1.44617,0.19368 -2.86869,0.79257 -4.32066,0.74494c-1.05864,-1.81151 -3.06408,-1.96565 -3.9712,-1.93296c-0.73777,-0.88142 -1.27726,-1.97852 -1.79458,-3.09806c-1.74461,-3.77559 -3.46123,-7.65524 -5.05597,-11.48508c-3.19801,-7.68017 -5.88161,-15.63127 -8.33781,-23.64453c2.65495,-2.196 5.33363,-4.359 7.98065,-6.66721c4.41725,-3.85185 8.16747,-8.43967 12.53039,-12.35294c2.19925,-1.97259 4.79148,-3.50759 6.90724,-5.56948c1.16505,-1.13539 1.78937,-2.74013 2.86299,-3.96234c4.04022,-4.59935 9.34294,-8.37754 13.62876,-12.73144c1.06243,-1.07931 2.55991,-1.7822 3.35956,-3.06836c0.39319,-0.63243 -0.79764,-2.31723 -0.05765,-2.23363c0.98611,0.1114 0.83385,2.00044 1.73233,2.42184c1.99468,0.93554 4.31378,0.94294 6.46571,1.41541c6.05309,3.0002 11.65541,4.23289 18.15167,5.79072c3.94201,0.94531 7.78951,2.36505 11.77062,3.12906c8.20442,1.5745 16.80838,1.56025 25.11441,2.19673z" data-paper-data="{&quot;noHover&quot;:false,&quot;origItem&quot;:[&quot;Path&quot;,{&quot;applyMatrix&quot;:true,&quot;segments&quot;:[[[315.51387,160.87959],[0,0],[-6.56596,-2.80984]],[[295.74021,152.17916],[6.2245,3.54314],[-3.02038,-1.71928]],[[287.05974,146.40359],[2.93859,1.85563],[-4.84266,-3.058]],[[273.95096,136.7063],[4.08473,4.10636],[-1.61619,-0.97762]],[[269.10239,133.77345],[1.36071,1.31006],[-0.61291,-0.59009]],[[268.36624,131.3295],[0.76963,0.36268],[-0.57754,-0.27216]],[[267.79719,133.15838],[0.49375,-0.40476],[-1.00414,0.82315]],[[264.22911,134.72096],[1.16032,-0.5827],[-4.68071,2.35062]],[[249.67678,141.28175],[4.54914,-2.61764],[-1.20886,0.6956]],[[246.26423,143.70276],[1.2591,-0.59989],[-2.28655,1.08941]],[[239.12651,146.30836],[2.32967,-0.99388],[-4.62164,1.97168]],[[225.55162,152.86171],[4.64878,-1.90683],[-2.78576,1.14266]],[[217.23441,156.06474],[2.76122,-1.04939],[-0.2188,7.18219]],[[217.47301,177.53731],[-0.47527,-7.11665],[0.237,3.54883]],[[218.40249,188.24605],[-0.37362,-3.54617],[0.11079,1.05151]],[[219.00251,191.2537],[-0.35547,-0.91911],[0.74531,0.22392]],[[221.69043,193.91616],[-0.35911,-1.76261],[1.16536,0.43954]],[[225.40169,194.50243],[-1.22727,-0.24208],[6.2537,1.23353]],[[244.31414,196.75698],[-6.34543,-0.84898],[8.02772,1.08087]],[[268.28421,197.73818],[-8.07389,-0.17738],[10.71965,0.2355]],[[300.41666,198.21105],[-10.72727,0],[3.63158,0]],[[311.3114,198.21105],[-3.63037,-0.09378],[1.60475,0.04145]],[[316.0164,197.1837],[-0.97581,1.27465],[1.81218,-2.36715]],[[317.52573,187.86788],[-0.26532,2.79688],[0.66807,-7.04259]],[[318.45613,166.90842],[0,7.07313],[0.00252,-1.57612]],[[318.36542,162.17706],[0.0589,1.57778],[-0.94164,-0.45016]],[[315.51386,160.87958],[0.96118,0.41133],[0,0]]],&quot;closed&quot;:true,&quot;fillColor&quot;:[0,0,0,1]}]}" fill="#484230"/></g><path d="M181.75238,434.81458c0.20851,1.0217 0.50997,4.05934 -2.93698,5.14809c-4.17091,1.31741 -5.48833,-2.8535 -5.48833,-2.8535l-0.13577,-4.68338c2.3604,-4.47794 2.87022,-9.35943 4.12761,-14.18722c1.15983,-4.45321 2.6752,-9.02644 4.08936,-13.40828c5.14414,-15.82401 7.93083,-31.91218 12.56899,-47.96014c4.81686,-16.66625 11.45028,-32.89372 15.2592,-49.81051c0,0 0.96364,-4.26655 5.2302,-3.30291c4.26656,0.96364 3.30291,5.23021 3.30291,5.23021c-3.87107,17.08859 -10.49889,33.48682 -15.38995,50.31811c-1.42197,4.89335 -2.21307,9.94835 -3.31073,14.92449c-0.92412,4.18942 -2.97722,8.31722 -3.74649,12.53828c-1.27324,6.98638 -3.35118,13.86584 -5.59464,20.767c-2.90115,8.84882 -4.08241,18.78494 -7.97538,27.27975z" fill="#000000" stroke="none" stroke-width="0.5" stroke-linecap="butt"/><path d="M156.64206,273.67217c-1.52816,-0.07537 -2.71389,-1.01209 -2.71389,-1.01209c-3.76882,-3.00315 -7.22269,-5.47545 -12.01322,-6.63504c-1.74428,-0.42222 -3.59052,-0.31332 -5.33176,-0.74791c-2.61807,-0.65344 -7.4757,-2.98858 -10.26306,-3.47842c-3.73282,-0.65598 -7.92413,-0.07733 -11.68932,-0.80188c-3.79116,-0.72955 -7.87228,-2.78234 -11.90496,-2.33269c-4.79348,0.53448 -8.82422,7.7897 -10.67826,11.64089c-1.72008,4.78309 -3.27506,9.70268 -5.06633,14.44178c-1.32919,3.51661 -3.41658,6.72842 -4.60722,10.29433c-2.67893,8.02324 -3.08553,16.80043 -4.95267,25.02562c-2.433,10.71794 -5.69544,20.76522 -3.0778,31.71191c3.30863,6.61421 7.01872,9.70498 12.7786,14.07429c3.23571,2.45454 5.32576,4.23872 9.29796,5.3756c1.26587,0.3623 6.71987,0.87844 7.56523,1.02483c2.27536,0.39402 4.44826,1.36067 6.812,1.0815c4.38837,-0.5183 8.4783,-1.77528 12.6459,-3.13815c4.72545,-1.54528 10.02332,-1.69524 14.38597,-4.13579c2.17221,-2.62133 4.81741,-4.84869 5.98236,-8.14197c1.38811,-3.92417 0.35651,-4.22604 1.05023,-8.80885c0.44648,-2.9495 1.65381,-5.78634 1.8037,-8.76568c0.11474,-2.28055 -0.318,-4.5788 -0.08052,-6.84985c0.23548,-2.25189 1.19219,-4.38258 1.48982,-6.62709c1.13836,-8.58466 1.63507,-17.5167 3.57684,-26.03516c0.4433,-1.94472 2.26605,-5.66936 2.64866,-7.63512c0.56745,-2.91544 0.35699,-5.96436 1.08315,-8.84438c0.24928,-0.98865 0.95782,-1.84063 1.11625,-2.84784c0.35107,-2.23185 -0.03386,-4.53025 0.23129,-6.77393c-0.02965,-0.35296 -0.05931,-0.70593 -0.08896,-1.05889zM158.68501,265.27711c0.17173,-0.05998 0.35379,-0.11406 0.54677,-0.16152c4.24747,-1.04456 5.29203,3.2029 5.29203,3.2029l0.71083,3.13962c0.08084,1.15168 0.16168,2.30336 0.24252,3.45505c-0.786,6.65109 -1.24263,13.23285 -2.56594,19.82704c-0.5613,2.79698 -2.12238,5.32195 -2.74639,8.10561c-1.37115,6.11662 -2.58941,13.0915 -3.25658,19.32377c-0.67645,6.31895 -1.1439,12.38959 -1.51179,18.72136c-0.19015,3.27279 -1.41871,6.40666 -1.90422,9.64882c-0.51531,3.44119 -0.25102,7.07058 -1.44809,10.33774c-1.81569,4.95557 -5.25579,8.08171 -8.64368,11.92802c-5.6252,3.24883 -11.12945,3.68165 -17.17456,5.68489c-4.68979,1.55411 -9.56496,3.11613 -14.5379,3.54706c-4.54034,0.39344 -4.79005,-0.40326 -9.18328,-1.16224c-2.87391,-0.49651 -5.59644,-0.41192 -8.43006,-1.21891c-4.99295,-1.42192 -8.18152,-3.77555 -12.23621,-6.83121c-1.14061,-0.85958 -5.91573,-3.98622 -7.26458,-5.31438c-3.77648,-3.71857 -6.14047,-8.03799 -8.4466,-12.72848c-1.2687,-5.0679 -2.63094,-11.58275 -1.71644,-16.83457c0.20221,-1.16122 1.15427,-2.09032 1.41884,-3.23894c0.66147,-2.87165 0.20054,-5.92423 0.84243,-8.80032c0.58683,-2.62935 1.62432,-5.14409 2.21684,-7.77217c1.9214,-8.52229 2.40831,-17.53849 5.18442,-25.85698c0.61928,-1.85565 3.91741,-8.48439 4.68704,-10.52357c1.84251,-4.88184 3.44289,-9.93721 5.23044,-14.85919c3.42415,-6.96235 8.98481,-15.37663 17.31673,-16.8647c5.03061,-0.89846 10.26434,1.4553 14.99262,2.37772c3.631,0.70835 7.73046,0.0859 11.34068,0.7414c3.8146,0.6926 7.28416,2.7063 11.04817,3.63539c1.74236,0.43008 3.59222,0.3066 5.33177,0.74792c5.7637,1.46222 10.10058,4.21744 14.66418,7.74286z" fill="#000000" stroke="none" stroke-width="0.5" stroke-linecap="butt"/><path d="M156.76655,274.69588c-0.26515,2.24368 0.12268,4.54528 -0.22839,6.77713c-0.15843,1.00721 -0.86607,1.8603 -1.11535,2.84896c-0.72616,2.88002 -0.5118,5.93469 -1.07925,8.85013c-0.38261,1.96576 -2.20241,5.69637 -2.64571,7.64109c-1.94178,8.51846 -2.43718,17.48528 -3.57555,26.06994c-0.29763,2.24451 -1.25811,4.38384 -1.49359,6.63572c-0.23748,2.27105 0.19115,4.57554 0.07641,6.8561c-0.14989,2.97934 -1.36338,5.82283 -1.80986,8.77233c-0.69372,4.58281 0.33271,4.88876 -1.0554,8.81292c-1.16494,3.29328 -3.81772,5.52491 -5.98993,8.14625c-4.36265,2.44055 -9.67357,2.59442 -14.39903,4.13969c-4.1676,1.36286 -8.26887,2.6203 -12.65725,3.1386c-2.36374,0.27917 -4.5426,-0.68828 -6.81796,-1.0823c-0.84536,-0.14639 -6.30569,-0.66421 -7.57156,-1.02651c-3.97221,-1.13689 -6.0707,-2.92482 -9.30641,-5.37936c-5.75988,-4.36931 -9.48308,-7.4707 -12.79172,-14.0849c-2.61763,-10.94669 0.63265,-21.02159 3.06565,-31.73954c1.86714,-8.22519 2.28137,-17.03474 4.96029,-25.05799c1.19064,-3.5659 3.2867,-6.78792 4.61589,-10.30453c1.79127,-4.7391 3.35717,-9.66616 5.07726,-14.44924c1.85403,-3.85118 5.89676,-11.11063 10.69024,-11.64511c4.03268,-0.44965 8.12393,1.60202 11.91509,2.33157c3.76519,0.72455 7.96706,0.14694 11.69988,0.80293c2.78737,0.48984 7.65435,2.82791 10.27242,3.48135c1.74124,0.4346 3.59162,0.32768 5.3359,0.7499c4.79053,1.15959 8.25411,3.6387 12.02293,6.64186c0,0 1.18738,0.93827 2.71554,1.01364c0.02965,0.35296 0.0598,0.70641 0.08945,1.05937z" data-paper-data="{&quot;noHover&quot;:false,&quot;origItem&quot;:[&quot;Path&quot;,{&quot;applyMatrix&quot;:true,&quot;segments&quot;:[[[156.64206,273.67217],[0.02965,0.35296],[-1.52816,-0.07537]],[[153.92817,272.66008],[0,0],[-3.76882,-3.00315]],[[141.91496,266.02504],[4.79053,1.15959],[-1.74428,-0.42222]],[[136.58319,265.27713],[1.74124,0.4346],[-2.61807,-0.65344]],[[126.32013,261.79871],[2.78736,0.48984],[-3.73282,-0.65598]],[[114.63081,260.99683],[3.76519,0.72455],[-3.79116,-0.72955]],[[102.72585,258.66414],[4.03268,-0.44965],[-4.79348,0.53448]],[[92.04759,270.30503],[1.85403,-3.85118],[-1.72008,4.78309]],[[86.98126,284.74681],[1.79127,-4.7391],[-1.32919,3.51661]],[[82.37404,295.04113],[1.19064,-3.5659],[-2.67893,8.02324]],[[77.42137,320.06675],[1.86714,-8.22519],[-2.433,10.71794]],[[74.34357,351.77866],[-2.61763,-10.94669],[3.30863,6.61421]],[[87.12217,365.85295],[-5.75988,-4.36931],[3.23571,2.45454]],[[96.42013,371.22856],[-3.97221,-1.13689],[1.26587,0.3623]],[[103.98536,372.25339],[-0.84536,-0.14639],[2.27536,0.39402]],[[110.79736,373.33488],[-2.36374,0.27917],[4.38837,-0.5183]],[[123.44326,370.19674],[-4.1676,1.36286],[4.72545,-1.54528]],[[137.82923,366.06094],[-4.36265,2.44055],[2.17221,-2.62133]],[[143.81159,357.91897],[-1.16494,3.29328],[1.38811,-3.92417]],[[144.86182,349.11012],[-0.69372,4.58281],[0.44648,-2.9495]],[[146.66552,340.34444],[-0.14989,2.97934],[0.11474,-2.28055]],[[146.585,333.49458],[-0.23748,2.27105],[0.23548,-2.25189]],[[148.07482,326.86749],[-0.29763,2.24451],[1.13836,-8.58466]],[[151.65166,300.83233],[-1.94178,8.51846],[0.4433,-1.94472]],[[154.30032,293.19721],[-0.38261,1.96576],[0.56745,-2.91544]],[[155.38348,284.35283],[-0.72616,2.88002],[0.24928,-0.98865]],[[156.49973,281.50498],[-0.15843,1.00721],[0.35107,-2.23185]],[[156.73102,274.73106],[-0.26515,2.24368],[-0.02965,-0.35296]]],&quot;closed&quot;:true}]}" fill="#484230" stroke="none" stroke-width="0.5" stroke-linecap="butt"/><path d="M304.88468,224.46911c6.86998,-2.88283 14.75035,-2.32838 22.2486,-3.22092c3.04487,-0.36244 5.76208,-2.11098 8.70076,-2.98662c7.50833,-2.23725 15.35489,-3.51175 23.06528,-4.7988c5.30811,-0.88605 10.42792,-1.76612 14.74195,2.47262c2.21395,2.17531 3.29157,5.98685 4.31141,8.81089c-0.04084,6.22975 1.40123,12.07599 0.83337,18.43178c-1.40801,15.75924 -2.79945,31.46265 -3.14895,47.31448c-0.18183,8.24758 -0.9185,16.39944 -1.31434,24.61629c-0.1139,2.36416 0.00888,4.82631 -0.78057,7.05768c-0.2958,2.6361 0.05864,5.32232 -0.2827,7.95291c-0.64926,5.00362 -2.30638,10.53925 -3.63539,15.37982c-3.6616,13.33638 -16.90307,22.96416 -29.96334,25.66171c-7.62237,1.57437 -15.83384,1.10103 -23.52721,0.50346c-7.87666,-2.34875 -18.16276,-0.80886 -24.88804,-6.34644c-3.24523,-2.67212 -8.21774,-8.06488 -9.7805,-12.04538c-1.1153,-2.84078 -0.7287,-6.06252 -1.23955,-9.07135c-2.84407,-16.75106 -1.80286,-34.87329 2.26801,-51.47383c2.0728,-9.56858 3.90904,-19.29086 5.61023,-28.90459c0.3877,-2.19096 -0.21653,-4.4616 0.01055,-6.67498c0.50101,-4.88335 1.52258,-10.81282 3.02254,-15.49364c1.60883,-5.02059 4.93948,-9.52973 7.61102,-14.03981l0.76431,-1.29029c0,0 1.98562,-3.35213 5.37255,-1.85498zM304.61697,234.7303c-1.97638,3.07366 -4.09574,6.2458 -5.15729,9.61798c-1.31041,4.16273 -2.19964,9.38301 -2.6425,13.68705c-0.24615,2.39221 0.30519,4.84066 -0.08252,7.21404c-1.59996,9.79406 -3.61889,19.73066 -5.71986,29.45682c-2.6443,10.50847 -3.86417,22.49226 -3.47109,33.24944c0.19713,5.3946 0.43682,9.62251 1.32906,14.92168c0.34728,2.06255 -0.03772,5.16323 0.73842,7.20649c1.04502,2.75109 5.10597,6.57194 7.13848,8.4347c1.68398,1.54333 3.63099,1.45456 5.81851,1.91057c5.08393,1.05982 10.15303,1.14361 15.13554,2.62936c6.52259,0.40563 13.56203,0.89576 20.01916,-0.42818c3.3798,-0.69298 7.0911,-2.13855 10.06903,-3.87013c2.4728,-1.43786 6.18808,-3.77977 8.17464,-5.89429c3.40816,-3.62769 4.51878,-8.89905 5.69973,-13.40217c0.88963,-3.39231 2.44169,-6.8482 2.9063,-10.37656c0.39335,-2.98719 0.11858,-6.03487 0.47878,-9.02624c0.6651,-1.52082 0.44436,-3.29408 0.52336,-4.95209c0.39736,-8.33956 1.13081,-16.58846 1.32077,-24.95142c0.36286,-15.97449 1.71376,-31.83323 3.17324,-47.71176c0.51593,-5.6131 -0.87586,-10.69845 -0.73377,-16.19491c-0.3952,-0.95404 -1.37572,-3.44954 -1.93461,-4.18506c-1.69018,-2.22436 -9.81801,0.57565 -11.69769,0.83807c-5.68658,0.7939 -11.80129,2.06921 -17.32679,3.72856c-3.39891,1.02071 -6.607,2.8234 -10.12474,3.29231c-6.83621,0.91126 -17.51574,-0.91842 -22.95414,4.33892c0,0 -0.25313,0.21947 -0.68003,0.46686z" fill="#000000" stroke="none" stroke-width="0.5" stroke-linecap="butt"/><path d="M305.27822,234.2171c5.43839,-5.25734 16.13623,-3.43131 22.97245,-4.34258c3.51774,-0.46892 6.73349,-2.27108 10.13239,-3.29179c5.52549,-1.65935 11.65106,-2.9318 17.33765,-3.7257c1.87968,-0.26242 10.01352,-3.05963 11.7037,-0.83527c0.55888,0.73552 1.54147,3.23223 1.93668,4.18626c-0.14209,5.49647 1.25543,10.5859 0.7395,16.199c-1.45948,15.87853 -2.79231,31.77293 -3.15517,47.74742c-0.18996,8.36296 -0.93081,16.64106 -1.32818,24.98062c-0.079,1.65801 0.13894,3.43533 -0.52616,4.95615c-0.36021,2.99136 -0.09028,6.0445 -0.48362,9.03169c-0.46461,3.52837 -2.02294,6.98944 -2.91258,10.38175c-1.18095,4.50312 -2.2997,9.77909 -5.70787,13.40678c-1.98656,2.11453 -5.70858,4.45889 -8.18137,5.89675c-2.97793,1.73158 -6.69669,3.17868 -10.07649,3.87166c-6.45713,1.32394 -13.51062,0.8336 -20.03321,0.42797c-4.98251,-1.48575 -10.06182,-1.57228 -15.14576,-2.6321c-2.18752,-0.45601 -4.13834,-0.3689 -5.82232,-1.91223c-2.03251,-1.86276 -6.09974,-5.68725 -7.14476,-8.43834c-0.77614,-2.04325 -0.39406,-5.14607 -0.74134,-7.20863c-0.89224,-5.29917 -1.13878,-9.53364 -1.33591,-14.92824c-0.39308,-10.75718 0.81475,-22.77051 3.45905,-33.27898c2.10098,-9.72616 4.13161,-19.69813 5.73157,-29.49219c0.38772,-2.37338 -0.15953,-4.82614 0.08661,-7.21835c0.44286,-4.30405 1.3401,-9.53041 2.65051,-13.69314c1.06155,-3.37217 3.18764,-6.54776 5.16402,-9.62142c0.42689,-0.24739 0.68062,-0.4671 0.68062,-0.4671z" data-paper-data="{&quot;noHover&quot;:false,&quot;origItem&quot;:[&quot;Path&quot;,{&quot;applyMatrix&quot;:true,&quot;segments&quot;:[[[304.61697,234.7303],[0.42689,-0.24739],[-1.97638,3.07366]],[[299.45968,244.34827],[1.06155,-3.37217],[-1.31041,4.16273]],[[296.81718,258.03533],[0.44286,-4.30405],[-0.24615,2.39221]],[[296.73465,265.24937],[0.38772,-2.37338],[-1.59996,9.79406]],[[291.01479,294.70619],[2.10098,-9.72616],[-2.6443,10.50847]],[[287.54371,327.95563],[-0.39308,-10.75718],[0.19713,5.3946]],[[288.87276,342.87731],[-0.89224,-5.29917],[0.34728,2.06255]],[[289.61118,350.08379],[-0.77614,-2.04325],[1.04502,2.75109]],[[296.74966,358.5185],[-2.03251,-1.86276],[1.68398,1.54333]],[[302.56817,360.42907],[-2.18752,-0.45601],[5.08393,1.05982]],[[317.7037,363.05842],[-4.98251,-1.48575],[6.52259,0.40563]],[[337.72287,362.63024],[-6.45713,1.32394],[3.3798,-0.69298]],[[347.7919,358.76011],[-2.97793,1.73158],[2.4728,-1.43786]],[[355.96654,352.86582],[-1.98656,2.11453],[3.40816,-3.62769]],[[361.66628,339.46364],[-1.18095,4.50312],[0.88963,-3.39231]],[[364.57258,329.08708],[-0.46461,3.52837],[0.39335,-2.98719]],[[365.05136,320.06084],[-0.36021,2.99136],[0.6651,-1.52082]],[[365.57472,315.10875],[-0.079,1.65801],[0.39736,-8.33956]],[[366.89549,290.15733],[-0.18996,8.36296],[0.36286,-15.97449]],[[370.06873,242.44557],[-1.45948,15.87853],[0.51593,-5.6131]],[[369.33496,226.25065],[-0.14209,5.49647],[-0.3952,-0.95404]],[[367.40035,222.06559],[0.55888,0.73552],[-1.69018,-2.22436]],[[355.70266,222.90366],[1.87968,-0.26242],[-5.68658,0.7939]],[[338.37587,226.63221],[5.52549,-1.65935],[-3.39891,1.02071]],[[328.25113,229.92452],[3.51774,-0.46892],[-6.83621,0.91126]],[[305.29699,234.26344],[5.43839,-5.25734],[0,0]]],&quot;closed&quot;:true}]}" fill="#484230" stroke="none" stroke-width="0.5" stroke-linecap="butt"/><path d="M258.04291,406.53069c0.09565,1.3279 -0.21215,3.52833 -3.03644,4.4204c-4.17091,1.31741 -5.48833,-2.8535 -5.48833,-2.8535l0.07716,-4.00926c0.83214,-1.39434 1.01806,-3.1414 1.0115,-4.76516c2.59572,-7.7172 4.48136,-15.57342 6.46817,-23.4549c1.6263,-6.45133 4.13665,-12.66104 5.92362,-19.04155c0.98856,-3.52971 1.15479,-7.26129 2.20385,-10.77349c4.18013,-13.99501 8.65542,-27.98296 14.20116,-41.52094c0,0 1.65809,-4.04757 5.70566,-2.38948c4.04757,1.65809 2.38948,5.70566 2.38948,5.70566c-5.44638,13.29501 -9.79656,27.02702 -13.92996,40.7607c-1.04125,3.45966 -1.19201,7.14052 -2.15897,10.62168c-1.74892,6.29633 -4.26664,12.41789 -5.85364,18.78168c-1.9114,7.66458 -3.58306,15.4248 -6.33751,22.84828c-0.06223,1.92277 -0.48728,3.85553 -1.17575,5.66991z" fill="#000000" stroke="none" stroke-width="0.5" stroke-linecap="butt"/><path d="M182.66666,212.5102c0,-2.07107 1.67893,-3.75 3.75,-3.75c2.07107,0 3.75,1.67893 3.75,3.75c0,2.07107 -1.67893,3.75 -3.75,3.75c-2.07107,0 -3.75,-1.67893 -3.75,-3.75z" fill="#ffffff" stroke="none" stroke-width="0.5" stroke-linecap="butt"/><path d="M234.86666,208.3102c0,-2.07107 1.67893,-3.75 3.75,-3.75c2.07107,0 3.75,1.67893 3.75,3.75c0,2.07107 -1.67893,3.75 -3.75,3.75c-2.07107,0 -3.75,-1.67893 -3.75,-3.75z" fill="#ffffff" stroke="none" stroke-width="0.5" stroke-linecap="butt"/></g></g></svg>