<svg version="1.1" xmlns="http://www.w3.org/2000/svg" xmlns:xlink="http://www.w3.org/1999/xlink" width="974.13666" height="475.75324" viewBox="0,0,974.13666,475.75324"><g transform="translate(330.13427,50.50751)"><g data-paper-data="{&quot;isPaintingLayer&quot;:true}" fill-rule="nonzero" stroke="none" stroke-linecap="butt" stroke-linejoin="miter" stroke-miterlimit="10" stroke-dasharray="" stroke-dashoffset="0" style="mix-blend-mode: normal"><path d="M-107.09928,410.50751v-461.01502h694.19863v461.01502z" data-paper-data="{&quot;index&quot;:null}" fill="#1a2026" stroke-width="0"/><path d="M-116.1317,367.27899l-25.53784,-69.88682l667.26335,-159.41887l98.15109,-71.34756c0,0 -18.53255,355.89527 -77.31453,358.32809c-122.59065,5.07369 -662.56207,-57.67484 -662.56207,-57.67484z" data-paper-data="{&quot;index&quot;:null}" fill="#0e1414" stroke-width="0"/><path d="M641.5024,173.69655c-1.38071,0 -2.5,-1.11929 -2.5,-2.5c0,-1.38071 1.11929,-2.5 2.5,-2.5c1.38071,0 2.5,1.11929 2.5,2.5c0,1.38071 -1.11929,2.5 -2.5,2.5z" data-paper-data="{&quot;index&quot;:null}" fill="#252525" stroke-width="0.5"/><path d="M-330.13427,57.50003c0,-6.90356 5.59644,-12.5 12.5,-12.5c6.90356,0 12.5,5.59644 12.5,12.5c0,6.90356 -5.59644,12.5 -12.5,12.5c-6.90356,0 -12.5,-5.59644 -12.5,-12.5z" fill="#262429" stroke-width="0.5"/><path d="M215.38251,359.17702c1.37075,0.56482 2.92516,0.57668 4.30389,1.12173c5.63902,2.22926 9.75487,4.32005 15.87062,5.33409c20.97466,3.47775 41.7929,6.18005 63.07761,6.18005c6.69231,0 13.38462,0 20.07692,0c3.62119,0 8.28192,0.894 11.75239,0.06766c1.09028,-0.2596 2.02653,-0.9819 3.10214,-1.29682c2.24789,-0.65813 4.75395,-0.0164 6.99063,-0.7117c1.18919,-0.36968 1.9908,-1.57254 3.16687,-1.98205c2.5063,-0.87269 5.26825,-0.65119 7.90944,-0.91048c4.52292,-0.44402 9.54066,-1.56919 13.94382,-2.67143c5.58174,-1.39727 11.652,-4.92752 17.35006,-4.85642c1.82468,-0.96908 3.89595,-1.38214 5.87533,-1.97426c1.68588,-0.50433 2.67303,-2.33089 4.21554,-3.17776c1.02667,-0.56366 2.23341,-0.6907 3.37421,-0.97761c0.69563,-4.08099 0.95418,-8.01955 0.95418,-12.37452c0,-4.24361 0.48312,-7.85813 -1.1164,-11.76113c-0.03972,-0.09691 -0.07734,-0.19473 -0.11313,-0.29335c-4.59586,2.06206 -9.84818,2.39168 -14.35463,4.4421c-2.43883,1.10966 -4.65837,2.73019 -7.20438,3.56509c-1.99266,0.65344 -4.15273,0.5895 -6.23403,0.84611c-2.62441,0.32357 -5.17051,1.21023 -7.80774,1.40328c-5.78209,0.42325 -11.77755,0.00943 -17.57353,0.00943c-31.37898,0 -62.63465,-0.34969 -93.49394,-6.30146c-7.26492,-1.40117 -12.59627,-6.70611 -19.56942,-8.34897c0,0 -0.1167,-0.02918 -0.30308,-0.09798c-0.21379,0.22793 -0.4125,0.46964 -0.59141,0.72953c-1.29891,1.88694 -2.72301,3.69996 -3.83557,5.70244c-0.45283,0.81504 -0.24591,1.88452 -0.66672,2.71654c-1.70844,3.3779 -4.53755,6.30971 -6.25736,9.74702c-2.24251,4.48203 -3.14887,9.35494 -4.11366,14.22142c0.37122,0.73359 0.83117,1.46805 1.27135,1.64943zM385.16988,305.98116c2.60036,-1.73358 4.47835,0.14475 5.03192,0.81873c1.92321,-1.06824 7.7576,-4.44664 9.13901,-5.16618c4.0582,-2.11381 8.37747,-3.74487 12.28262,-6.12962c11.90733,-7.27141 21.73581,-16.72864 30.68202,-27.2844c2.72211,-5.01892 6.09813,-10.33457 7.88351,-15.78899c1.15901,-3.54082 1.65965,-6.68939 2.68967,-10.14119c1.0745,-3.60087 2.79134,-7.04278 3.38332,-10.75362c1.64594,-10.31774 2.0102,-21.25544 2.00729,-31.70376c-0.00183,-6.55732 0.59255,-13.37545 -0.95909,-19.827c-0.56265,-2.33941 -1.58395,-4.54465 -2.31682,-6.83644c-0.60826,-1.90211 -2.70992,-9.6181 -3.92708,-11.89615c-2.18099,-4.08197 -4.87802,-7.90185 -6.73766,-12.13988c-12.46119,-13.8387 -25.18253,-28.88419 -41.62809,-38.23503c-1.91566,-1.08923 -4.07668,-1.68495 -6.0473,-2.67128c-2.04003,-1.02107 -3.85686,-2.48749 -5.97119,-3.34416c-8.31668,-3.3697 -16.93803,-3.00598 -25.51593,-4.6213c-7.33656,-1.38156 -14.25286,-2.93523 -21.77636,-3.34891c-1.62574,-0.08939 -3.25616,-0.14876 -4.88965,-0.18599c-0.55408,3.06935 -1.2538,6.078 -1.78715,8.83975c-1.07797,2.57822 -1.83147,5.31755 -3.23391,7.73465c-3.25833,5.61573 -9.39562,11.78296 -14.77008,15.4635c-1.03846,0.71116 -2.43227,0.77775 -3.46859,1.49202c-1.01796,0.70162 0.06582,2.29407 0.20678,2.8689c0.72748,2.96676 0.78069,6.07574 0.78367,9.1304c0.01159,11.8821 -3.81149,23.1555 -10.11903,33.234c-5.47104,8.7419 -11.98404,15.78914 -19.44296,22.80208c-1.70218,1.60041 -3.18048,3.43884 -4.96176,4.95071c-1.50902,1.28078 -3.46262,2.00492 -4.8714,3.39519c-0.3778,0.37284 -0.11536,1.0553 -0.17303,1.58296c-2.8234,11.82112 -8.08256,21.61927 -15.26466,31.37858c-1.59389,2.16584 -2.90244,4.57886 -4.80113,6.48315c-7.45688,7.47888 -16.62913,10.9338 -26.28161,14.38234c-8.26196,2.95175 -16.88537,4.35994 -25.58888,4.76639c1.34886,2.15736 2.83913,4.23341 4.19375,6.38781c8.78325,10.97481 19.21558,22.17437 31.9136,28.62126c6.4504,3.27492 14.26146,6.39478 21.2907,7.98425c9.23305,2.0878 18.99319,2.59818 28.3598,3.86809c6.74242,0.91412 13.50851,2.35363 20.28498,2.96947c7.00356,0.63647 14.14403,0.70419 21.16762,1.07385c5.51588,0.2916 11.40922,0.9302 16.90925,0.30723c7.72436,-0.87492 15.44985,-2.91392 22.98133,-4.75471c3.46379,-0.84659 7.68321,-1.61816 11.62705,-2.62271c-0.04506,-0.98318 0.30037,-2.14056 1.71551,-3.08398zM397.90755,316.60099c0.86094,1.15324 2.24424,1.8836 2.99032,3.11427c0.57923,0.95545 0.60614,2.1466 0.92096,3.22264c0.03371,0.09422 0.06534,0.19211 0.09474,0.29381c0.51526,1.46583 2.61926,6.18123 2.86492,7.31433c0.64786,2.98818 0.06766,7.38559 0.06766,10.40146c0,5.27658 -0.37972,10.08842 -1.35225,15.07284c0.07657,0.80119 -0.10976,1.4502 -0.41291,1.96791c-0.1677,0.74712 -0.34903,1.49986 -0.54469,2.2603c-0.97137,1.94274 -1.25808,4.19634 -2.33074,6.08503c-0.56661,0.99766 -1.7026,1.56522 -2.36002,2.50553c-1.00122,1.43204 -3.71253,7.04848 -4.97815,8.47083c-2.9152,3.27621 -7.61641,7.22345 -11.56641,9.22775c-0.97332,0.49388 -2.15799,0.54657 -3.06356,1.15584c-1.09413,0.73614 -1.65953,2.13524 -2.80338,2.79148c-5.16218,2.96164 -11.23399,3.40256 -16.7561,5.24702c-1.6825,0.56198 -3.1987,1.56706 -4.89301,2.09236c-14.59585,4.5253 -30.64747,3.64233 -45.68879,3.64233c-11.08112,0 -21.86621,-0.6789 -32.89502,-1.5913c-9.37576,-0.77564 -18.82256,-1.30019 -28.09288,-3.01527c-4.914,-0.90913 -9.66506,-2.54606 -14.49671,-3.82244c-6.88343,-1.8184 -15.51143,-3.9039 -20.56978,-9.46865c-0.90387,-0.99435 -5.5351,-9.46549 -5.6469,-9.81291c-0.45193,-1.40435 -0.10213,-2.94895 -0.12563,-4.42404c-0.05704,-3.58072 0.0038,-7.17365 0.01825,-10.75413c0.01986,-0.10158 0.03967,-0.20316 0.05944,-0.30475c-0.17034,-0.79416 -0.20857,-1.94673 0.56922,-2.94477c1.02629,-5.27045 2.16149,-10.49558 4.58982,-15.35502c1.68896,-3.37985 4.57038,-6.32536 6.20418,-9.63759c0.42937,-0.87047 0.24655,-1.97345 0.71789,-2.82192c1.31193,-2.36161 2.8749,-4.58028 4.47212,-6.7591c1.49043,-2.03314 4.00952,-3.10932 5.66437,-5.01103c0.76128,-0.87484 0.82152,-2.25105 1.64921,-3.06334c0.92561,-0.90839 2.32649,-1.16377 3.39981,-1.89172c1.05321,-0.71432 2.81272,-2.31347 4.40771,-3.5682c-0.22221,-0.11124 -0.44308,-0.22274 -0.66257,-0.33445c-13.7767,-7.01209 -25.01612,-18.99827 -34.54794,-30.9172c-1.09056,-1.72306 -6.23678,-9.84592 -6.38899,-10.13976c-0.0865,-0.16699 -0.17219,-0.33445 -0.25709,-0.50236c-2.67712,-0.05867 -5.35311,-0.19494 -8.01985,-0.39317c-6.84279,-0.50864 -14.21388,-1.04609 -20.87757,-2.8225c-3.74964,-0.99958 -6.83545,-3.67627 -10.23259,-5.55202c-1.67646,-2.21347 -3.68792,-4.20926 -5.02938,-6.64041c-0.8059,-1.46054 -0.92448,-6.17777 -3.3721,-7.47715c-0.63013,-0.33452 -1.42833,-0.16526 -2.10321,-0.39658c-3.64671,-1.24994 -8.50604,-3.80141 -11.37173,-5.8931c-5.33562,-3.8945 -10.51751,-10.3604 -13.68715,-16.14873c-0.64604,-1.17978 -0.742,-2.58599 -1.0883,-3.88574c-2.41804,-9.07565 -2.72182,-17.93477 -0.49964,-27.15098c0.32488,-1.34741 1.144,-2.52504 1.7292,-3.78146c2.81482,-6.04333 5.90895,-11.83082 9.19537,-17.61542v-1.78086c0.0146,-4.33842 0.33741,-8.67424 0.73113,-12.99479c0.46246,-2.33195 2.09714,-10.60357 2.22684,-11.02108c1.33546,-4.29916 3.76436,-8.17954 5.72589,-12.23153c0.50678,-1.04688 6.36137,-12.70493 6.51552,-12.95059c1.75869,-2.80254 4.26669,-5.36406 6.83555,-7.75398l-0.1775,-0.21214c-2.14683,-4.30438 -3.09703,-7.09455 -3.11739,-11.96584c2.29231,-7.14073 2.77926,-13.78434 7.79762,-19.86655c1.42014,-1.72119 3.44045,-2.84278 5.17689,-4.24424c2.09297,-1.68921 3.97826,-3.68886 6.31105,-5.02754c6.49079,-3.72474 15.92151,-5.58875 23.35519,-4.37641c0.6141,0.10015 0.7363,1.08477 1.30697,1.33272c0.25886,0.11247 -0.28997,-0.58428 -0.15535,-0.83235c0.57012,-1.05057 1.31305,-2.01895 2.16026,-2.86214c4.58474,-4.56304 10.59219,-8.82163 16.29862,-11.87874c3.60156,-1.92947 7.63785,-2.9054 11.46966,-4.3236c3.42669,-1.26826 6.77728,-2.8298 10.34131,-3.63503c1.44623,-0.32675 2.96504,-0.04819 4.44771,-0.05502c4.99995,-0.02303 10,0 15,0c11.24427,0.02514 23.44544,1.96029 33.51589,7.37522c3.45611,1.85837 5.79256,5.32426 8.98435,7.60696c1.09586,0.78374 5.35389,-0.41617 5.53662,-0.43094c5.59067,-0.45195 11.25359,0.65144 16.58852,2.21369c10.01368,2.93235 15.39219,10.97157 19.04687,20.20312c0.72899,1.84138 1.89184,3.54643 2.27057,5.49031c0.36826,1.89011 0.46886,3.87471 0.39345,5.89913c1.47208,0.03856 2.94161,0.09538 4.40749,0.17597c7.79109,0.42836 15.01457,1.98714 22.60942,3.44162c3.87809,0.74269 7.90596,0.38927 11.79933,1.04725c1.26512,0.2138 14.17941,3.57305 15.30013,4.02376c2.29215,0.92182 4.28018,2.47489 6.49034,3.57891c2.09512,1.04655 4.38012,1.70652 6.41424,2.86718c17.46914,9.96788 31.13468,25.80489 44.21806,40.68804c1.99965,4.44664 4.84214,8.46639 7.10849,12.7832c1.63041,3.10552 3.3905,9.87322 4.39777,13.03815c0.78665,2.47173 1.87434,4.85491 2.46778,7.38001c1.66649,7.09098 1.16418,14.35325 1.16223,21.56071c-0.00296,10.91432 -0.37532,22.37096 -2.14656,33.14239c-0.64564,3.92631 -2.40105,7.5876 -3.53976,11.40023c-1.32329,4.43061 -0.94827,4.89668 -2.84879,10.62804c-2.00275,6.03964 -5.69536,11.90244 -8.73187,17.44178c-9.5217,11.46969 -20.19046,21.66514 -33.01029,29.48483c-4.02319,2.45402 -8.46042,4.15579 -12.64046,6.33192c-1.72326,0.89713 -5.1812,2.95707 -7.71891,4.38736c0.87761,1.22149 1.70246,2.51572 2.77495,3.95233zM128.39959,188.37607c-0.43083,0.90673 -1.09711,1.72782 -1.32115,2.70638c-3.3659,14.70149 -0.22387,29.8068 12.4897,39.00287c2.3731,1.71653 6.30876,3.77754 9.32501,4.84166c1.12363,0.39641 2.44494,0.32549 3.43526,0.98804c1.60105,1.07115 3.11972,2.40963 4.11155,4.06099c1.17203,1.95138 1.18503,4.4287 2.20865,6.46186c0.82688,1.64237 2.18554,2.95768 3.27831,4.43652c2.60129,1.35705 4.91855,3.43866 7.76741,4.14029c6.10454,1.50346 12.76736,1.97906 19.00452,2.43942c1.39731,0.10313 2.79823,0.18952 4.20122,0.25612c-2.42272,-6.64619 -4.06243,-13.66618 -5.72546,-20.41547c-1.21858,-4.9455 -2.86918,-10.52048 -2.81462,-15.6818c0.02724,-2.57648 0.88376,-5.08096 1.15094,-7.64369c0.3843,-3.68605 -0.24166,-7.42016 0.00338,-11.11808c1.14624,-17.29867 8.83168,-35.90185 17.98342,-50.30217c6.99796,-8.9234 13.64126,-18.69192 22.09777,-26.30912c6.87892,-6.19618 15.09568,-10.77631 23.60284,-14.52064c1.50798,-1.67781 3.03917,-3.28635 3.75657,-3.74856c3.58969,-2.31276 8.39383,-4.00705 12.25577,-5.80972c0.61285,-0.28607 10.79348,-5.42608 11.21967,-5.60109c5.68331,-2.33388 11.61208,-3.2562 17.50156,-4.86822c2.55482,-0.69928 4.98917,-1.8926 7.60666,-2.29862c0.35166,-0.05455 13.72022,-0.04169 14.40376,-0.04169c5.31623,0 10.67579,-0.14401 16.02623,-0.16999c0.04884,-1.50475 -0.03501,-2.96276 -0.3152,-4.32684c-0.30882,-1.50352 -1.30717,-2.77931 -1.88328,-4.20199c-2.31389,-5.7141 -4.96095,-11.56121 -10.77367,-14.71863c-1.09295,-0.59368 -8.2459,-2.31242 -8.58881,-2.37707c-2.42213,-0.45665 -6.09352,-0.86483 -8.69443,-0.64133c-3.99515,0.34331 -5.66025,1.76373 -9.69415,-0.43094c-3.45712,-1.88087 -5.53636,-5.78427 -9.01565,-7.62381c-9.01795,-4.76787 -19.90824,-6.49566 -29.94565,-6.47093c-5,0 -10.00007,0.02579 -15,0c-1.05604,-0.00545 -2.14073,-0.30125 -3.16767,-0.05502c-3.1191,0.74786 -6.03526,2.1746 -9.0433,3.28805c-3.56458,1.31946 -7.34074,2.17617 -10.68418,3.98409c-4.82946,2.61147 -10.27872,6.3695 -14.16292,10.2751c-2.16662,2.17856 -2.59671,5.17986 -6.30278,5.99781c-1.45455,0.32103 -2.75738,-1.22249 -4.23149,-1.43651c-1.66938,-0.24237 -3.38168,-0.0833 -5.05989,0.08754c-4.18373,0.4259 -9.09427,1.2917 -12.80774,3.47635c-1.99143,1.17157 -3.56975,2.93447 -5.37087,4.38165c-4.0838,3.28128 -5.3723,3.34345 -7.43222,8.69402c-1.33385,3.46463 -1.63883,7.25675 -2.84237,10.76878c-0.02123,2.29816 0.67733,3.95411 1.60799,5.81445c5.98441,-5.21017 12.26695,-9.22122 19.68732,-12.44352c2.48141,-1.07755 4.83013,-2.55101 7.45377,-3.21056c3.55865,-0.8946 10.73271,-0.75523 14.62558,-0.73763c2.06926,0.00935 4.17347,-0.31988 6.20755,0.06017c2.15748,0.40311 4.12405,1.50368 6.18608,2.25551c0,0 3.51123,1.31671 2.19452,4.82795c-1.31671,3.51123 -4.82795,2.19452 -4.82795,2.19452c-17.11678,-6.64371 -35.41677,2.38771 -48.06259,14.01334c-3.34035,3.07087 -7.46213,6.35453 -9.83931,10.21687c-2.33559,3.79475 -4.00453,7.96179 -5.94602,11.97249c-1.8168,3.75312 -4.12457,7.32164 -5.35103,11.30693c-0.97425,3.16574 -1.27142,6.50141 -1.92701,9.74815c-0.35957,3.96579 -0.64588,7.94624 -0.65348,11.92829v2.05164c0.08968,0.62362 -0.00572,1.21451 -0.1358,1.67241c-0.11391,0.46076 -0.32335,1.01922 -0.70847,1.51511c-3.24024,5.69988 -6.24598,11.40782 -9.06385,17.33827zM227.78042,253.40553c8.60312,-3.10602 16.836,-5.93021 23.50526,-12.61914c1.63169,-1.63651 2.70075,-3.75079 4.06124,-5.61885c6.5622,-9.01037 11.45867,-17.83469 14.02898,-28.72345c0.40386,-1.3185 0.32688,-2.89774 1.21158,-3.9555c1.69258,-2.02368 4.22771,-3.16653 6.20552,-4.9125c1.67374,-1.47754 3.1043,-3.21193 4.73054,-4.7416c7.00944,-6.59318 13.06961,-13.12834 18.23589,-21.33255c4.49937,-7.14514 8.39789,-16.14211 8.97954,-24.6484c0.20636,-3.01795 0.25214,-6.05969 0.01005,-9.07499c-0.06504,-0.81007 -1.46153,-6.44871 -1.39426,-6.85421c1.16268,-7.00841 6.94238,-7.88943 11.57807,-12.18985c5.03825,-4.67386 7.97962,-9.00095 10.59659,-15.32461c0.38716,-2.05395 0.94044,-4.35476 1.42351,-6.72725c-5.01278,0.0374 -10.03148,0.16871 -15.01062,0.16871c-4.42954,0 -8.91338,-0.7336 -13.28854,-0.04169c-2.32242,0.36728 -4.46426,1.48433 -6.73003,2.11267c-3.81363,1.05759 -7.71622,1.77578 -11.5223,2.84049c9.30062,-0.22275 18.47502,1.11583 27.80114,2.14993c0,0 3.72706,0.41412 3.31295,4.14118c-0.41412,3.72706 -4.14118,3.31295 -4.14118,3.31295c-11.71659,-1.30443 -23.1722,-3.18972 -35.00408,-1.40709c-4.306,0.64876 -8.35705,2.47226 -12.44581,3.97045c-3.5474,1.29983 -7.13739,2.67805 -10.68153,4.20338c-0.49424,0.67516 -0.97821,1.36244 -1.48482,2.02181c-0.21944,1.09378 -0.98577,3.00362 -3.66195,3.00362c-1.43909,0 -2.32592,-0.55226 -2.87242,-1.23291c-5.31057,2.77906 -10.34766,6.03903 -14.78075,10.03668c-7.9701,7.18721 -14.21032,16.51979 -20.82531,24.92165c-6.5648,10.30076 -10.63144,21.38112 -13.97621,33.07391c-1.23317,4.31095 -2.36926,9.0558 -2.65575,13.547c-0.23418,3.67113 0.38133,7.37665 0.00338,11.03577c-0.24899,2.41058 -1.08302,4.75893 -1.12992,7.18188c-0.07772,4.01582 1.664,10.00313 2.59682,13.77413c1.82873,7.39282 3.56787,15.20755 6.52613,22.35676c9.11354,-0.132 18.18809,-1.33979 26.7983,-4.44837z" fill="#000000" stroke-width="0.5"/><path d="M385.19368,306.02517c-1.41514,0.94342 -1.76171,2.1014 -1.71666,3.08458c-3.94384,1.00455 -8.16796,1.77821 -11.63175,2.6248c-7.53148,1.84079 -15.2671,3.8825 -22.99146,4.75742c-5.50003,0.62297 -11.40098,-0.01502 -16.91686,-0.30662c-7.02359,-0.36966 -14.17365,-0.43828 -21.17721,-1.07475c-6.77647,-0.61584 -13.5513,-2.05787 -20.29372,-2.97199c-9.36661,-1.26991 -19.13682,-1.7856 -28.36987,-3.8734c-7.02924,-1.58947 -14.84689,-4.71471 -21.29729,-7.98963c-12.69802,-6.44689 -23.13973,-17.65895 -31.92298,-28.63376c-1.35462,-2.1544 -2.75529,-4.27479 -4.10415,-6.43215c8.70351,-0.40645 17.32568,-1.81714 25.58764,-4.76889c9.65248,-3.44854 18.73631,-6.85676 26.19319,-14.33564c1.89869,-1.90429 3.20623,-4.31934 4.80012,-6.48518c7.1821,-9.75931 12.43655,-19.57731 15.25995,-31.39843c0.05767,-0.52766 -0.20479,-1.21156 0.17301,-1.5844c1.40878,-1.39027 3.3625,-2.11782 4.87152,-3.39859c1.78128,-1.51187 3.26032,-3.35605 4.9625,-4.95646c7.45892,-7.01294 13.98948,-14.08972 19.46052,-22.83162c6.30754,-10.0785 10.15063,-21.36178 10.13904,-33.24388c-0.00298,-3.05466 -0.05531,-6.16384 -0.78279,-9.1306c-0.14096,-0.57483 -1.22449,-2.16734 -0.20652,-2.86895c1.03632,-0.71427 2.43243,-0.78129 3.47089,-1.49246c5.37446,-3.68054 11.52091,-9.84842 14.77924,-15.46415c1.40244,-2.4171 2.15745,-5.15637 3.23542,-7.73459c0.53335,-2.76175 1.23368,-5.77036 1.78776,-8.83971c1.63349,0.03723 3.26612,0.09679 4.89186,0.18618c7.5235,0.41368 14.4495,1.96938 21.78606,3.35094c8.5779,1.61532 17.2093,1.25604 25.52598,4.62574c2.11433,0.85667 3.93362,2.32462 5.97365,3.34569c1.97062,0.98633 4.13388,1.58361 6.04954,2.67284c16.44556,9.35084 29.18162,24.41374 41.64281,38.25243c1.85964,4.23803 4.55888,8.06288 6.73987,12.14485c1.21716,2.27805 3.32034,9.99869 3.92859,11.9008c0.73287,2.29179 1.75483,4.49976 2.31748,6.83917c1.55164,6.45155 0.95828,13.27736 0.9601,19.83468c0.00291,10.44832 -0.36223,21.39849 -2.00817,31.71623c-0.59198,3.71084 -2.30988,7.15706 -3.38438,10.75793c-1.03002,3.4518 -1.53199,6.60428 -2.691,10.1451c-1.78538,5.45442 -5.16434,10.77637 -7.88645,15.79529c-8.94621,10.55576 -18.78492,20.02585 -30.69225,27.29726c-3.90515,2.38475 -8.22885,4.01937 -12.28705,6.13318c-1.38141,0.71954 -7.21958,4.10039 -9.14279,5.16863c-0.55357,-0.67398 -2.43308,-2.55146 -5.03344,-0.81788z" data-paper-data="{&quot;noHover&quot;:false,&quot;origItem&quot;:[&quot;Path&quot;,{&quot;applyMatrix&quot;:true,&quot;segments&quot;:[[[770.33973,611.96232],[0,0],[5.20072,-3.46716]],[[780.40357,613.59978],[-1.10714,-1.34796],[3.84642,-2.13648]],[[798.68159,603.26742],[-2.76282,1.43908],[8.1164,-4.22762]],[[823.24683,591.00818],[-7.8103,4.7695],[23.81466,-14.54282]],[[884.61087,536.43938],[-17.89242,21.11152],[5.44422,-10.03784]],[[900.37789,504.8614],[-3.57076,10.90884],[2.31802,-7.08164]],[[905.75723,484.57902],[-2.06004,6.9036],[2.149,-7.20174]],[[912.52387,463.07178],[-1.18396,7.42168],[3.29188,-20.63548]],[[916.53845,399.66426],[0.00582,20.89664],[-0.00366,-13.11464]],[[914.62027,360.01026],[3.10328,12.9031],[-1.1253,-4.67882]],[[909.98663,346.33738],[1.46574,4.58358],[-1.21652,-3.80422]],[[902.13247,322.54508],[2.43432,4.5561],[-4.36198,-8.16394]],[[888.65715,298.26532],[3.71928,8.47606],[-24.92238,-27.6774]],[[805.40097,221.79526],[32.89112,18.70168],[-3.83132,-2.17846]],[[793.30637,216.4527],[3.94124,1.97266],[-4.08006,-2.04214]],[[781.36399,209.76438],[4.22866,1.71334],[-16.63336,-6.7394]],[[730.33213,200.52178],[17.1558,3.23064],[-14.67312,-2.76312]],[[686.77941,193.82396],[15.047,0.82736],[-3.25148,-0.17878]],[[677.00011,193.45198],[3.26698,0.07446],[-1.10816,6.1387]],[[673.42581,211.13148],[1.0667,-5.5235],[-2.15594,5.15644]],[[666.95799,226.60078],[2.80488,-4.8342],[-6.51666,11.23146]],[[637.41783,257.52778],[10.74892,-7.36108],[-2.07692,1.42232]],[[630.48065,260.51182],[2.07264,-1.42854],[-2.03592,1.40324]],[[630.89421,266.24962],[-0.28192,-1.14966],[1.45496,5.93352]],[[632.46155,284.51042],[-0.00596,-6.10932],[0.02318,23.7642]],[[612.22349,350.97842],[12.61508,-20.157],[-10.94208,17.4838]],[[573.33757,396.58258],[14.91784,-14.02588],[-3.40436,3.20082]],[[563.41405,406.484],[3.56256,-3.02374],[-3.01804,2.56156]],[[553.67125,413.27438],[2.81756,-2.78054],[-0.7556,0.74568]],[[553.32519,416.4403],[0.11534,-1.05532],[-5.6468,23.64224]],[[522.79587,479.19746],[14.3642,-19.51862],[-3.18778,4.33168]],[[513.19361,492.16376],[3.79738,-3.80858],[-14.91376,14.95776]],[[460.63039,520.92844],[19.30496,-6.89708],[-16.52392,5.9035]],[[409.45263,530.46122],[17.40702,-0.8129],[2.69772,4.31472]],[[417.84013,543.23684],[-2.70924,-4.3088],[17.5665,21.94962]],[[481.66733,600.47936],[-25.39604,-12.89378],[12.9008,6.54984]],[[524.24873,616.44786],[-14.05848,-3.17894],[18.4661,4.1756]],[[580.96833,624.18404],[-18.73322,-2.53982],[13.48484,1.82824]],[[621.53829,630.12298],[-13.55294,-1.23168],[14.00712,1.27294]],[[663.87353,632.27068],[-14.04718,-0.73932],[11.03176,0.5832]],[[697.69203,632.88514],[-11.00006,1.24594],[15.44872,-1.74984]],[[743.65469,623.37572],[-15.06296,3.68158],[6.92758,-1.69318]],[[766.90879,618.1303],[-7.88768,2.0091],[-0.09012,-1.96636]],[[770.33981,611.96234],[-2.83028,1.88684],[0,0]]],&quot;closed&quot;:true,&quot;fillColor&quot;:[0,0,0,1]}]}" fill="#584529" stroke-width="0.5"/><path d="M227.76025,253.45129c-8.61021,3.10858 -17.69455,4.31064 -26.80809,4.44264c-2.95826,-7.14921 -4.70513,-14.97112 -6.53386,-22.36394c-0.93282,-3.771 -2.67894,-9.76418 -2.60122,-13.78c0.0469,-2.42295 0.87915,-4.7743 1.12814,-7.18488c0.37795,-3.65912 -0.24034,-7.37065 -0.00616,-11.04178c0.28649,-4.4912 1.42016,-9.24447 2.65333,-13.55542c3.34477,-11.69279 7.41394,-22.80093 13.97874,-33.10169c6.61499,-8.40186 12.87351,-17.75745 20.84361,-24.94466c4.43309,-3.99765 9.48438,-7.26435 14.79495,-10.04341c0.5465,0.68065 1.43542,1.23235 2.87451,1.23235c2.67618,0 3.44613,-1.91059 3.66557,-3.00437c0.50661,-0.65937 0.99207,-1.34688 1.48631,-2.02204c3.54414,-1.52533 7.14297,-2.90398 10.69037,-4.20381c4.08876,-1.49819 8.14868,-3.32053 12.45468,-3.96929c11.83188,-1.78263 23.30686,0.11164 35.02345,1.41607c0,0 3.66601,0.49331 4.08013,-3.23375c0.41411,-3.72706 -3.31062,-4.13946 -3.31062,-4.13946c-9.32612,-1.0341 -18.48661,-2.36594 -27.78723,-2.14319c3.80608,-1.06471 7.74343,-1.87647 11.55706,-2.93406c2.26577,-0.62834 4.41026,-1.74413 6.73268,-2.11141c4.37516,-0.69191 8.86425,0.04481 13.29379,0.04481c4.97914,0 10.00244,-0.12778 15.01522,-0.16518c-0.48307,2.37249 -1.03512,4.6744 -1.42228,6.72835c-2.61697,6.32366 -5.62733,10.72312 -10.66558,15.39698c-4.63569,4.30042 -10.34508,5.11033 -11.50776,12.11874c-0.06727,0.4055 1.33241,6.04763 1.39745,6.8577c0.24209,3.0153 0.19998,6.06205 -0.00638,9.08c-0.58165,8.50629 -4.47281,17.52291 -8.97218,24.66805c-5.16628,8.20421 -11.23645,14.7774 -18.24589,21.37058c-1.62624,1.52967 -3.06615,3.27327 -4.73989,4.75081c-1.97781,1.74597 -4.526,2.89591 -6.21858,4.91959c-0.8847,1.05776 -0.81163,2.63824 -1.21549,3.95674c-2.57031,10.88876 -7.48512,19.71457 -14.04732,28.72494c-1.36049,1.86806 -2.43221,3.98199 -4.0639,5.6185c-6.66926,6.68893 -14.91446,9.50949 -23.51758,12.61551z" data-paper-data="{&quot;noHover&quot;:false,&quot;origItem&quot;:[&quot;Path&quot;,{&quot;applyMatrix&quot;:true,&quot;segments&quot;:[[[227.7804,253.40553],[0,0],[8.60312,-3.10602]],[[251.28567,240.78639],[-6.66926,6.68893],[1.63169,-1.63651]],[[255.34691,235.16754],[-1.36049,1.86806],[6.5622,-9.01037]],[[269.37589,206.44409],[-2.57031,10.88876],[0.40386,-1.3185]],[[270.58746,202.48859],[-0.8847,1.05776],[1.69258,-2.02368]],[[276.79298,197.57609],[-1.97781,1.74597],[1.67374,-1.47754]],[[281.52352,192.83449],[-1.62624,1.52967],[7.00944,-6.59318]],[[299.75942,171.50194],[-5.16628,8.20421],[4.49937,-7.14514]],[[308.73895,146.85354],[-0.58165,8.50629],[0.20636,-3.01795]],[[308.74901,137.77855],[0.24209,3.0153],[-0.06504,-0.81007]],[[307.35474,130.92434],[-0.06727,0.4055],[1.16268,-7.00841]],[[318.93282,118.73449],[-4.63569,4.30042],[5.03825,-4.67386]],[[329.52941,103.40988],[-2.61697,6.32366],[0.38716,-2.05395]],[[330.95291,96.68263],[-0.48307,2.37249],[-5.01278,0.0374]],[[315.94229,96.85134],[4.97914,0],[-4.42954,0]],[[302.65375,96.80965],[4.37516,-0.69191],[-2.32242,0.36728]],[[295.92373,98.92232],[2.26577,-0.62834],[-3.81363,1.05759]],[[284.40143,101.76281],[3.80608,-1.06471],[9.30062,-0.22275]],[[312.20256,103.91274],[-9.32612,-1.0341],[0,0]],[[315.51551,108.05392],[0.41411,-3.72706],[-0.41412,3.72706]],[[311.37433,111.36687],[0,0],[-11.71659,-1.30443]],[[276.37025,109.95978],[11.83188,-1.78263],[-4.306,0.64876]],[[263.92445,113.93023],[4.08876,-1.49819],[-3.5474,1.29983]],[[253.24291,118.13361],[3.54414,-1.52533],[-0.49424,0.67516]],[[251.7581,120.15542],[0.50661,-0.65937],[-0.21944,1.09378]],[[248.09614,123.15904],[2.67618,0],[-1.43909,0]],[[245.22372,121.92613],[0.5465,0.68065],[-5.31057,2.77906]],[[230.44297,131.96281],[4.43309,-3.99765],[-7.9701,7.18721]],[[209.61767,156.88446],[6.61499,-8.40186],[-6.5648,10.30076]],[[195.64145,189.95837],[3.34477,-11.69279],[-1.23317,4.31095]],[[192.9857,203.50537],[0.28649,-4.4912],[-0.23418,3.67113]],[[192.98908,214.54114],[0.37795,-3.65912],[-0.24899,2.41058]],[[191.85916,221.72302],[0.0469,-2.42295],[-0.07772,4.01582]],[[194.45598,235.49715],[-0.93282,-3.771],[1.82873,7.39282]],[[200.98211,257.85391],[-2.95826,-7.14921],[9.11354,-0.132]],[[227.78041,253.40554],[-8.61021,3.10858],[0,0]]],&quot;closed&quot;:true,&quot;fillColor&quot;:[0,0,0,1]}]}" fill="#302617" stroke-width="0.5"/><path d="M137.41438,171.04749c0.38512,-0.49589 0.59442,-1.05507 0.70833,-1.51583c0.13008,-0.4579 0.22533,-1.04966 0.13565,-1.67328l-0.00017,-2.05273c0.0076,-3.98205 0.29342,-7.96901 0.65299,-11.9348c0.65559,-3.24674 0.95301,-6.58791 1.92726,-9.75365c1.22646,-3.98529 3.5354,-7.56065 5.3522,-11.31377c1.94149,-4.0107 3.61289,-8.18521 5.94848,-11.97996c2.37718,-3.86234 6.50284,-7.15343 9.84319,-10.2243c12.64582,-11.62563 30.97222,-20.67773 48.089,-14.03402c0,0 3.51546,1.31551 4.83217,-2.19572c1.31671,-3.51124 -2.17054,-4.73087 -2.17054,-4.73087c-2.06203,-0.75183 -4.02484,-1.85352 -6.18232,-2.25663c-2.03408,-0.38005 -4.13448,-0.0523 -6.20374,-0.06165c-3.89287,-0.0176 -11.05918,-0.16119 -14.61783,0.73341c-2.62364,0.65955 -4.96834,2.13003 -7.44975,3.20758c-7.42037,3.2223 -13.69368,7.22339 -19.67809,12.43356c-0.93066,-1.86034 -1.70985,-3.5754 -1.68862,-5.87356c1.20354,-3.51203 1.51202,-7.30825 2.84587,-10.77288c2.05992,-5.35057 3.35274,-5.41677 7.43654,-8.69805c1.80112,-1.44718 3.38228,-3.21226 5.37371,-4.38383c3.71347,-2.18465 8.62971,-3.05396 12.81344,-3.47986c1.67821,-0.17084 3.39273,-0.33101 5.06211,-0.08864c1.47411,0.21402 2.77862,1.7568 4.23317,1.43577c3.70607,-0.81795 4.14034,-3.8208 6.30696,-5.99936c3.8842,-3.9056 9.34173,-7.66552 14.17119,-10.27699c3.34344,-1.80792 7.12508,-2.6651 10.68966,-3.98456c3.00804,-1.11345 5.92856,-2.54013 9.04766,-3.28799c1.02694,-0.24623 2.11313,0.04968 3.16917,0.05513c4.99993,0.02579 10.00689,0.00109 15.00689,0.00109c10.03741,-0.02473 20.94059,1.70799 29.95854,6.47586c3.47929,1.83954 5.56299,5.74572 9.02011,7.62659c4.0339,2.19467 5.70183,0.77638 9.69698,0.43307c2.60091,-0.2235 6.27455,0.18661 8.69668,0.64326c0.34291,0.06465 7.49814,1.7856 8.59109,2.37928c5.81272,3.15742 8.46445,9.01014 10.77834,14.72424c0.57611,1.42268 1.5755,2.69998 1.88432,4.2035c0.28019,1.36408 0.27985,2.87603 0.23101,4.38078c-5.35044,0.02598 -10.70785,0.17318 -16.02408,0.17318c-0.68354,0 -14.04936,-0.00943 -14.40102,0.04512c-2.61749,0.40602 -5.05061,1.6007 -7.60543,2.29998c-5.88948,1.61202 -11.81408,2.53829 -17.49739,4.87217c-0.42619,0.17501 -10.60367,5.31746 -11.21652,5.60353c-3.86194,1.80267 -8.66058,3.50038 -12.25027,5.81314c-0.7174,0.46221 -2.24709,2.07152 -3.75507,3.74933c-8.50716,3.74433 -16.69571,8.32922 -23.57463,14.5254c-8.45651,7.6172 -15.05595,17.33693 -22.05391,26.26033c-9.15174,14.40032 -16.85436,32.96494 -18.0006,50.26361c-0.24504,3.69792 0.37709,7.42901 -0.00721,11.11506c-0.26718,2.56273 -1.12547,5.06601 -1.15271,7.64249c-0.05456,5.16132 1.591,10.73343 2.80958,15.67893c1.66303,6.74929 3.29682,13.76681 5.71954,20.413c-1.40299,-0.0666 -2.83812,-0.05904 -4.23543,-0.16217c-6.23716,-0.46036 -12.90712,-0.93938 -19.01166,-2.44284c-2.84886,-0.70163 -5.16926,-2.78522 -7.77055,-4.14227c-1.09277,-1.47884 -2.45324,-2.79545 -3.28012,-4.43782c-1.02362,-2.03316 -1.03858,-4.51203 -2.21061,-6.46341c-0.99183,-1.65136 -2.51242,-2.99152 -4.11347,-4.06267c-0.99032,-0.66255 -2.31264,-0.59259 -3.43627,-0.989c-3.01625,-1.06412 -6.95483,-3.12824 -9.32793,-4.84477c-12.71357,-9.19607 -15.86458,-24.31653 -12.49868,-39.01802c0.22404,-0.97856 0.88999,-1.80056 1.32082,-2.70729c2.81787,-5.93045 5.82172,-11.64531 9.06196,-17.34519z" data-paper-data="{&quot;noHover&quot;:false,&quot;origItem&quot;:[&quot;Path&quot;,{&quot;applyMatrix&quot;:true,&quot;segments&quot;:[[[128.39957,188.37607],[2.81787,-5.93045],[-0.43083,0.90673]],[[127.07842,191.08245],[0.22404,-0.97856],[-3.3659,14.70149]],[[139.56811,230.08532],[-12.71357,-9.19607],[2.3731,1.71653]],[[148.89312,234.92698],[-3.01625,-1.06412],[1.12363,0.39641]],[[152.32838,235.91502],[-0.99032,-0.66255],[1.60105,1.07115]],[[156.43994,239.97601],[-0.99183,-1.65136],[1.17203,1.95138]],[[158.64858,246.43787],[-1.02362,-2.03316],[0.82688,1.64237]],[[161.92689,250.87439],[-1.09277,-1.47884],[2.60129,1.35705]],[[169.69431,255.01468],[-2.84886,-0.70163],[6.10454,1.50346]],[[188.69883,257.4541],[-6.23716,-0.46036],[1.39731,0.10313]],[[192.90004,257.71022],[-1.40299,-0.0666],[-2.42272,-6.64619]],[[187.17458,237.29475],[1.66303,6.74929],[-1.21858,-4.9455]],[[184.35997,221.61295],[-0.05456,5.16132],[0.02724,-2.57648]],[[185.5109,213.96926],[-0.26718,2.56273],[0.3843,-3.68605]],[[185.51428,202.85118],[-0.24504,3.69792],[1.14624,-17.29867]],[[203.49771,152.54901],[-9.15174,14.40032],[6.99796,-8.9234]],[[225.59547,126.23989],[-8.45651,7.6172],[6.87892,-6.19618]],[[249.19831,111.71925],[-8.50716,3.74433],[1.50798,-1.67781]],[[252.95489,107.97069],[-0.7174,0.46221],[3.58969,-2.31276]],[[265.21065,102.16097],[-3.86194,1.80267],[0.61285,-0.28607]],[[276.43032,96.55988],[-0.42619,0.17501],[5.68331,-2.33388]],[[293.93188,91.69166],[-5.88948,1.61202],[2.55482,-0.69928]],[[301.53855,89.39304],[-2.61749,0.40602],[0.35166,-0.05455]],[[315.9423,89.35135],[-0.68354,0],[5.31623,0]],[[331.96853,89.18136],[-5.35044,0.02598],[0.04884,-1.50475]],[[331.65333,84.85452],[0.28019,1.36408],[-0.30882,-1.50352]],[[329.77005,80.65253],[0.57611,1.42268],[-2.31389,-5.7141]],[[318.99638,65.9339],[5.81272,3.15742],[-1.09295,-0.59368]],[[310.40757,63.55683],[0.34291,0.06465],[-2.42213,-0.45665]],[[301.71314,62.9155],[2.60091,-0.2235],[-3.99515,0.34331]],[[292.01899,62.48456],[4.0339,2.19467],[-3.45712,-1.88087]],[[283.00334,54.86075],[3.47929,1.83954],[-9.01795,-4.76787]],[[253.05769,48.38982],[10.03741,-0.02473],[-5,0]],[[238.05769,48.38982],[4.99993,0.02579],[-1.05604,-0.00545]],[[234.89002,48.3348],[1.02694,-0.24623],[-3.1191,0.74786]],[[225.84673,51.62285],[3.00804,-1.11345],[-3.56458,1.31946]],[[215.16254,55.60694],[3.34344,-1.80792],[-4.82946,2.61147]],[[200.99962,65.88204],[3.8842,-3.9056],[-2.16662,2.17856]],[[194.69684,71.87985],[3.70607,-0.81795],[-1.45455,0.32103]],[[190.46535,70.44334],[1.47411,0.21402],[-1.66938,-0.24237]],[[185.40546,70.53088],[1.67821,-0.17084],[-4.18373,0.4259]],[[172.59772,74.00723],[3.71347,-2.18465],[-1.99143,1.17157]],[[167.22685,78.38888],[1.80112,-1.44718],[-4.0838,3.28128]],[[159.79463,87.0829],[2.05992,-5.35057],[-1.33385,3.46463]],[[156.95226,97.85168],[1.20354,-3.51203],[-0.02123,2.29816]],[[158.56025,103.66613],[-0.93066,-1.86034],[5.98441,-5.21017]],[[178.24757,91.22261],[-7.42037,3.2223],[2.48141,-1.07755]],[[185.70134,88.01205],[-2.62364,0.65955],[3.55865,-0.8946]],[[200.32692,87.27442],[-3.89287,-0.0176],[2.06926,0.00935]],[[206.53447,87.33459],[-2.03408,-0.38005],[2.15748,0.40311]],[[212.72055,89.5901],[-2.06203,-0.75183],[0,0]],[[214.91507,94.41805],[1.31671,-3.51124],[-1.31671,3.51123]],[[210.08712,96.61257],[0,0],[-17.11678,-6.64371]],[[162.02453,110.62591],[12.64582,-11.62563],[-3.34035,3.07087]],[[152.18522,120.84278],[2.37718,-3.86234],[-2.33559,3.79475]],[[146.2392,132.81527],[1.94149,-4.0107],[-1.8168,3.75312]],[[140.88817,144.1222],[1.22646,-3.98529],[-0.97425,3.16574]],[[138.96116,153.87035],[0.65559,-3.24674],[-0.35957,3.96579]],[[138.30768,165.79864],[0.0076,-3.98205],[0,0]],[[138.30768,167.85028],[0,0],[0.08968,0.62362]],[[138.17188,169.52269],[0.13008,-0.4579],[-0.11391,0.46076]],[[137.46341,171.0378],[0.38512,-0.49589],[-3.24024,5.69988]]],&quot;closed&quot;:true,&quot;fillColor&quot;:[0,0,0,1]}]}" fill="#302617" stroke-width="0.5"/><path d="M214.06141,357.53259c0.96479,-4.86648 1.87098,-9.74725 4.11349,-14.22928c1.71981,-3.43732 4.54964,-6.3752 6.25808,-9.7531c0.42081,-0.83202 0.21422,-1.90316 0.66705,-2.7182c1.11256,-2.00248 2.53766,-3.81936 3.83657,-5.7063c0.1789,-0.25989 0.37777,-0.50212 0.59157,-0.73005c0.18638,0.0688 0.39849,0.12792 0.39849,0.12792c6.97315,1.64285 12.20858,6.91958 19.4735,8.32076c30.85929,5.95178 62.21171,6.30274 93.5907,6.30274c5.79598,0 11.7922,0.41752 17.57429,-0.00573c2.63722,-0.19305 5.18332,-1.07978 7.80773,-1.40335c2.0813,-0.25661 4.14275,-0.17615 6.13541,-0.82959c2.54601,-0.8349 4.76582,-2.45394 7.20465,-3.56361c4.50645,-2.05043 9.75895,-2.3792 14.3548,-4.44126c0.03579,0.09861 0.17122,0.17558 0.21093,0.27249c1.59952,3.903 1.11732,7.52386 1.11732,11.76747c0,4.35497 -0.25846,8.30031 -0.95409,12.38129c-1.1408,0.28691 -2.34759,0.41461 -3.37425,0.97827c-1.54252,0.84687 -2.52984,2.6755 -4.21573,3.17983c-1.97939,0.59213 -4.05086,1.00684 -5.87554,1.97592c-5.69806,-0.0711 -11.76951,3.46492 -17.35125,4.86219c-4.40316,1.10224 -9.42289,2.23334 -13.94581,2.67736c-2.64119,0.25929 -5.40501,0.04185 -7.91132,0.91455c-1.17607,0.40951 -1.97961,1.61579 -3.16881,1.98546c-2.23667,0.6953 -4.74621,0.0585 -6.9941,0.71662c-1.07561,0.31491 -2.01471,1.04047 -3.10499,1.30007c-3.47047,0.82634 -8.14324,-0.05838 -11.76443,-0.05838c-6.69231,0 -13.42327,0.00406 -20.11558,0.00406c-21.28471,0 -42.13697,-2.73817 -63.11164,-6.21592c-6.11575,-1.01404 -10.23258,-3.10991 -15.8716,-5.33917c-1.37873,-0.54505 -2.93326,-0.55784 -4.30401,-1.12265c-0.44018,-0.18138 -0.90024,-0.9168 -1.27145,-1.6504z" data-paper-data="{&quot;noHover&quot;:false,&quot;origItem&quot;:[&quot;Path&quot;,{&quot;applyMatrix&quot;:true,&quot;segments&quot;:[[[215.38249,359.17702],[-0.44018,-0.18138],[1.37075,0.56482]],[[219.68637,360.29875],[-1.37873,-0.54505],[5.63902,2.22926]],[[235.557,365.63284],[-6.11575,-1.01404],[20.97466,3.47775]],[[298.6346,371.81288],[-21.28471,0],[6.69231,0]],[[318.71153,371.81288],[-6.69231,0],[3.62119,0]],[[330.46391,371.88055],[-3.47047,0.82634],[1.09028,-0.2596]],[[333.56605,370.58373],[-1.07561,0.31491],[2.24789,-0.65813]],[[340.55668,369.87203],[-2.23667,0.6953],[1.18919,-0.36968]],[[343.72355,367.88998],[-1.17607,0.40951],[2.5063,-0.87269]],[[351.63299,366.97951],[-2.64119,0.25929],[4.52292,-0.44402]],[[365.57681,364.30808],[-4.40316,1.10224],[5.58174,-1.39727]],[[382.92688,359.45166],[-5.69806,-0.0711],[1.82468,-0.96908]],[[388.80221,357.4774],[-1.97939,0.59213],[1.68588,-0.50433]],[[393.01775,354.29963],[-1.54252,0.84687],[1.02667,-0.56366]],[[396.39196,353.32202],[-1.1408,0.28691],[0.69563,-4.08099]],[[397.34614,340.9475],[0,4.35497],[0,-4.24361]],[[396.22974,329.18637],[1.59952,3.903],[-0.03972,-0.09691]],[[396.11661,328.89302],[0.03579,0.09861],[-4.59586,2.06206]],[[381.76197,333.33512],[4.50645,-2.05043],[-2.43883,1.10966]],[[374.55759,336.90021],[2.54601,-0.8349],[-1.99266,0.65344]],[[368.32356,337.74633],[2.0813,-0.25661],[-2.62441,0.32357]],[[360.51582,339.1496],[2.63722,-0.19305],[-5.78209,0.42325]],[[342.9423,339.15904],[5.79598,0],[-31.37898,0]],[[249.44836,332.85758],[30.85929,5.95178],[-7.26492,-1.40117]],[[229.87894,324.50861],[6.97315,1.64285],[0,0]],[[229.57586,324.41063],[0.18638,0.0688],[-0.21379,0.22793]],[[228.98445,325.14016],[0.1789,-0.25989],[-1.29891,1.88694]],[[225.14888,330.8426],[1.11256,-2.00248],[-0.45283,0.81504]],[[224.48216,333.55914],[0.42081,-0.83202],[-1.70844,3.3779]],[[218.2248,343.30617],[1.71981,-3.43732],[-2.24251,4.48203]],[[214.11114,357.52759],[0.96479,-4.86648],[0.37122,0.73359]]],&quot;closed&quot;:true}]}" fill="#fffdfd" stroke-width="0.5"/><path d="M339.02665,107.21657c-3.29588,-0.28982 -3.29588,-3.73061 -3.29588,-3.73061c0,-0.67194 -0.00238,-1.34357 -0.00693,-2.01491c-0.56475,-0.81461 -1.36746,-2.49308 -0.0562,-4.25143c-0.27092,-14.09337 -1.32149,-28.08131 -1.32149,-42.1952c0,-4.78102 -1.52287,-13.50773 1.17906,-17.7707c4.21409,-6.64877 12.39569,-6.69424 19.32369,-7.39955c10.98449,-2.19313 21.82971,-2.11817 32.97803,-2.11821c7.94077,-0.00004 16.18677,-0.20942 24.06304,0.71469c2.17474,0.25516 4.253,1.06863 6.41594,1.40963c4.79901,0.75661 10.07897,1.5505 14.94571,2.04229c3.77351,0.38132 4.18781,-0.84553 8.12555,2.08795c1.64606,1.22626 2.63674,3.14844 4.02654,4.65897c5.30712,5.76816 9.59869,11.96209 12.54853,19.31572c5.04523,17.59595 7.17027,35.29283 9.17868,53.41431c0.28769,2.59574 0.52962,6.38931 1.28193,9.14392c0.41683,1.52623 1.21867,2.95233 1.46182,4.51566c0.2601,1.67236 -0.11038,3.3907 0.03017,5.07732c0.25585,3.07019 1.18835,6.06266 1.39562,9.1365c0.49745,7.37735 0.00725,14.99003 0.00725,22.38687c-0.00605,3.38059 0.44523,6.74654 0.68287,10.11878c0.5368,7.6175 0.00943,15.47328 0.00943,23.11199c0,7.85938 0.58904,15.96932 -0.00943,23.80429c-0.35692,4.67253 -1.66689,9.30967 -2.08573,13.94984c-0.83964,9.30192 -3.51693,19.13624 -8.74214,27.03201c-3.3598,7.83954 -8.92935,14.71402 -14.24342,21.36055c-0.78852,0.98622 -1.94704,1.64638 -2.68911,2.668c-3.9334,5.41515 -7.2944,11.54505 -12.13947,16.33959c-1.86844,1.84895 -4.45874,2.80204 -6.53288,4.41687c-2.11148,1.64391 -3.72285,3.99466 -6.10586,5.21206c-0.37023,0.18914 -8.16191,2.77192 -8.86224,3.00512c-9.1762,3.05557 -18.79111,5.18451 -28.38041,6.39002c-3.26434,0.46013 -6.40519,1.61659 -9.66992,2.07386c-3.82833,0.53621 -7.73135,0.03625 -11.59706,0.03625c-0.75296,0 -9.87238,0.01435 -10.29299,-0.04843c-1.44352,-0.21546 -2.71828,-1.1213 -4.15385,-1.38461c-1.05917,-0.19428 -2.15891,0.13765 -3.23037,0.03017c-2.83618,-0.2845 -5.61043,-1.02345 -8.43592,-1.39954c-5.00462,-0.66616 -12.38315,-0.64293 -16.9975,-3.08152c-1.91727,-1.01324 -3.52106,-2.53425 -5.33013,-3.73002c-4.7852,-3.16296 -10.81101,-5.00611 -11.35807,-11.67786c-0.18372,-2.24059 -0.34668,-4.57397 0.25736,-6.73941c0.31486,-1.12877 1.56769,-1.74223 2.35153,-2.61335c1.51691,-4.7926 2.92737,-8.21848 5.53047,-12.44855c1.7006,-2.76349 3.97134,-5.18345 5.41472,-8.08958c0.68795,-1.38514 0.68766,-3.07912 1.51635,-4.38494c0.90159,-1.42069 2.6128,-2.19242 3.54622,-3.5924c0.94398,-1.41581 1.09331,-3.25388 1.98485,-4.70328c0.96339,-1.56621 2.52534,-2.70069 3.52048,-4.24692c1.07118,-1.66438 1.66768,-3.59449 2.63689,-5.32024c2.98688,-5.31837 3.79774,-5.21594 6.03695,-10.67764c1.66096,-4.05128 2.5299,-8.39529 4.15384,-12.46154c3.89741,-9.75883 7.28184,-19.2987 8.78449,-29.74735c1.70781,-6.70999 1.31468,-13.1366 1.31468,-20.04835c0,-8.70676 -0.32696,-17.27945 -1.35652,-25.8495c-0.22021,-1.83298 0.23654,-3.70752 0,-5.53846c-0.28757,-2.22601 -0.34888,-4.53329 -1.12726,-6.63851c-0.39526,-1.06902 -1.65707,-1.66289 -2.06,-2.72905c-1.37192,-3.63009 -1.01249,-7.62558 -0.96658,-11.40167c-0.86424,-3.3303 -0.63446,-6.91223 -1.34505,-10.13365c-0.44479,-2.01644 -1.34244,-3.67765 -2.31024,-5.28624zM343.19871,99.45608c0.3692,1.25185 1.48855,2.22089 2.18195,3.35016c0.29935,0.48752 3.19102,7.69674 3.32091,8.27827c0.76189,3.41105 0.57538,7.13019 1.42418,10.63558c0.02337,2.6852 -0.67582,6.82748 0.41803,9.36755c0.46195,1.07271 1.69957,1.71003 2.09384,2.80942c0.98435,2.74474 1.28948,5.69773 1.64197,8.59226c0.22317,1.83262 -0.23933,3.70788 0,5.53846c1.15839,8.85999 1.41271,17.76609 1.41271,26.76588c0,7.41055 0.3216,14.26681 -1.45456,21.49011c-1.55035,10.93018 -5.12815,20.97412 -9.21551,31.17573c-1.64042,4.0943 -2.46694,8.38056 -4.15385,12.46154c-1.67474,4.05155 -4.27279,7.65657 -6.42458,11.4762c-1.05471,1.87222 -1.74048,3.94852 -2.90158,5.75668c-0.9542,1.48597 -2.47676,2.55696 -3.4026,4.06077c-0.95069,1.54419 -1.1632,3.48016 -2.169,4.98903c-0.87692,1.31553 -2.52622,1.99798 -3.37685,3.33067c-0.73852,1.15705 -0.63588,2.69658 -1.25288,3.92275c-2.06044,4.09474 -5.37983,7.77838 -7.64979,11.83337c-1.86003,3.32272 -2.03501,4.78163 -3.55887,9.16696c-0.60077,0.5135 -1.54534,0.79311 -1.80231,1.54049c-1.81606,5.28188 5.257,7.23838 8.2839,9.27504c2.03068,1.36635 3.98487,3.13672 6.38195,3.63126c6.8596,1.41519 14.05361,2.69514 21.00835,3.38842c1.22487,0.1221 2.48129,-0.18825 3.6927,0.03017c1.43635,0.25898 2.71245,1.15532 4.15384,1.38462c2.99295,0.47613 6.06104,-0.04842 9.09163,-0.04842c3.51895,0 7.07483,0.54511 10.5568,0.03625c3.27681,-0.47888 6.43712,-1.60624 9.71468,-2.07999c9.11966,-1.13311 18.28053,-3.16051 27.00421,-6.07151c2.57905,-0.8606 5.30611,-1.34837 7.75314,-2.53334c1.66564,-0.80658 3.76557,-3.54347 4.97107,-4.48025c1.53195,-1.19046 4.4341,-2.37513 5.92865,-3.89082c4.53389,-4.59798 7.66276,-10.37523 11.39899,-15.50656c0.79357,-1.08988 2.00684,-1.81795 2.84935,-2.87046c5.0328,-6.28721 10.26894,-12.75805 13.44888,-20.17792c3.71867,-5.53458 6.8912,-13.50785 7.89124,-20.19552c0.19735,-1.31975 -0.13964,-2.67437 -0.018,-4.00324c0.41891,-4.57628 1.71114,-9.13792 2.06811,-13.74247c0.34392,-4.43633 -0.00943,-9.13921 -0.00943,-13.58032c0,-10.6521 0.77902,-21.64912 0.00943,-32.27263c-0.25707,-3.54855 -0.69595,-7.0926 -0.70174,-10.65044c0,-7.24335 0.48272,-14.6959 0.00725,-21.92083c-0.19633,-2.98332 -1.12533,-5.88406 -1.37361,-8.8635c-0.12775,-1.53305 0.26123,-3.09408 0.03017,-4.61499c-0.20083,-1.32186 -0.95607,-2.50198 -1.30741,-3.79202c-0.8999,-3.30421 -1.11342,-6.88397 -1.48731,-10.24069c-1.95815,-17.57989 -3.96053,-34.73843 -8.82132,-51.81646c-2.55534,-6.41165 -6.46031,-11.62774 -10.98994,-16.68427c-1.03614,-1.15666 -1.74324,-2.60884 -2.89654,-3.64872c-1.34215,-1.21016 -2.80667,-0.53001 -4.33599,-0.68129c-5.02985,-0.49755 -10.5612,-1.32805 -15.51583,-2.11154c-2.04018,-0.32262 -3.99429,-1.11758 -6.04559,-1.3596c-7.59976,-0.89667 -15.57839,-0.66989 -23.24466,-0.66992c-10.78256,-0.00005 -21.24673,-0.09234 -31.86813,2.03563c-3.43766,0.33724 -11.66744,-0.06376 -13.90708,3.67738c-0.84681,1.41454 -0.20556,4.96615 -0.20556,6.46007c0,3.92307 0,7.84616 0,11.76923c0,13.45256 1.14499,26.81216 1.35255,40.27781z" fill="#ffffff" stroke-width="0.5"/><path d="M341.82813,59.13164c0,-3.92307 0.00148,-7.8467 0.00148,-11.76978c0,-1.49392 -0.64047,-5.04581 0.20634,-6.46034c2.23964,-3.74113 10.47435,-3.34149 13.91201,-3.67873c10.6214,-2.12797 21.0969,-2.03686 31.87946,-2.03682c7.66627,0.00003 15.65314,-0.22599 23.25291,0.67068c2.0513,0.24202 4.00756,1.03741 6.04775,1.36003c4.95463,0.7835 10.49124,1.61548 15.5211,2.11304c1.52932,0.15128 2.99525,-0.52837 4.3374,0.68179c1.1533,1.03988 1.86172,2.49258 2.89785,3.64924c4.52963,5.05654 8.44027,10.27537 10.99561,16.68702c4.86079,17.07803 6.87667,34.24771 8.83482,51.82759c0.37389,3.35672 0.59035,6.94029 1.49025,10.24451c0.35134,1.29004 1.10778,2.47194 1.3086,3.7938c0.23107,1.52091 -0.15679,3.08383 -0.02903,4.61688c0.24829,2.97944 1.17953,5.88458 1.37586,8.8679c0.47548,7.22493 -0.00352,14.68978 -0.00352,21.93313c0.00579,3.55784 0.44534,7.10868 0.7024,10.65723c0.76959,10.6235 -0.01274,21.63993 -0.01274,32.29202c0,4.44111 0.35034,9.15042 0.00642,13.58675c-0.35696,4.60455 -1.65294,9.17193 -2.07185,13.74821c-0.12165,1.32887 0.21434,2.68477 0.017,4.00452c-1.00004,6.68768 -4.17943,14.66791 -7.8981,20.20249c-3.17994,7.41987 -8.42447,13.89639 -13.45727,20.18359c-0.84251,1.0525 -2.05725,1.78134 -2.85082,2.87122c-3.73623,5.13133 -6.87135,10.91116 -11.40524,15.50914c-1.49456,1.51569 -4.39925,2.70114 -5.9312,3.8916c-1.2055,0.93678 -3.30763,3.67423 -4.97327,4.48081c-2.44704,1.18497 -5.1771,1.67334 -7.75615,2.53393c-8.72368,2.911 -17.89465,4.93905 -27.01431,6.07216c-3.27756,0.47375 -6.4413,1.60086 -9.71812,2.07974c-3.48197,0.50886 -7.04152,-0.03678 -10.56047,-0.03678c-3.03058,0 -6.10172,0.5239 -9.09467,0.04777c-1.44139,-0.2293 -2.71898,-1.12603 -4.15533,-1.38501c-1.21141,-0.21843 -2.46902,0.09158 -3.69389,-0.03052c-6.95474,-0.69329 -14.15538,-1.97581 -21.01498,-3.391c-2.39709,-0.49454 -4.35348,-2.26601 -6.38416,-3.63236c-3.0269,-2.03667 -10.10345,-3.99521 -8.28739,-9.27709c0.25697,-0.74738 1.20175,-1.02686 1.80252,-1.54037c1.52386,-4.38533 1.69823,-5.84463 3.55826,-9.16735c2.26995,-4.05498 5.58931,-7.73865 7.64975,-11.83339c0.617,-1.22618 0.51396,-2.76597 1.25248,-3.92302c0.85063,-1.33269 2.55536,-2.09837 3.43228,-3.4139c1.0058,-1.50887 1.16286,-3.36162 2.11355,-4.90581c0.92584,-1.50381 2.44863,-2.57464 3.40283,-4.06062c1.16109,-1.80817 1.84652,-3.88469 2.90123,-5.75691c2.15179,-3.81964 4.74927,-7.42505 6.42401,-11.4766c1.68691,-4.08098 2.5112,-8.36888 4.15162,-12.46319c4.08736,-10.2016 7.65453,-20.25695 9.20488,-31.18713c1.77616,-7.2233 1.44601,-14.10714 1.44601,-21.51769c0,-8.99979 -0.24289,-17.93808 -1.40128,-26.79807c-0.23933,-1.83058 0.22633,-3.70933 0.00316,-5.54194c-0.35249,-2.89453 -0.65418,-5.85066 -1.63853,-8.5954c-0.39427,-1.09939 -1.63177,-1.73681 -2.09372,-2.80952c-1.09386,-2.54008 -0.39114,-6.68502 -0.41452,-9.37022c-0.8488,-3.50539 -0.65953,-7.22631 -1.42142,-10.63735c-0.12989,-0.58152 -3.02084,-7.79117 -3.32019,-8.27868c-0.6934,-1.12927 -1.81287,-2.09825 -2.18207,-3.35009c-0.20756,-13.46565 -1.34563,-26.82854 -1.34563,-40.28111z" data-paper-data="{&quot;noHover&quot;:false,&quot;origItem&quot;:[&quot;Path&quot;,{&quot;applyMatrix&quot;:true,&quot;segments&quot;:[[[686.39739,198.91215],[-0.41513,-26.9313],[0.7384,2.50369]],[[690.76128,205.61247],[-1.3868,-2.25854],[0.59869,0.97503]],[[697.40311,222.169],[-0.25978,-1.16305],[1.52377,6.82209]],[[700.25147,243.44017],[-1.6976,-7.01079],[0.04675,5.3704]],[[701.08754,262.17528],[-2.18771,-5.08015],[0.9239,2.14542]],[[705.27523,267.79411],[-0.78855,-2.19878],[1.9687,5.48948]],[[708.55917,284.97863],[-0.70498,-5.78906],[0.44634,3.66523]],[[708.55917,296.05555],[-0.47867,-3.66115],[2.31677,17.71998]],[[711.38459,349.58731],[0,-17.99958],[0,14.8211]],[[708.47548,392.56752],[3.55231,-14.44659],[-3.1007,21.86037]],[[690.04446,454.91897],[8.17471,-20.4032],[-3.28083,8.18861]],[[681.73676,479.84205],[3.37382,-8.16196],[-3.34949,8.1031]],[[668.8876,502.79445],[4.30358,-7.63927],[-2.10942,3.74443]],[[663.08445,514.30781],[2.32219,-3.61633],[-1.9084,2.97195]],[[656.27925,522.42936],[1.85167,-3.00762],[-1.90139,3.08837]],[[651.94125,532.40741],[2.0116,-3.01774],[-1.75384,2.63106]],[[645.18755,539.06875],[1.70126,-2.66537],[-1.47705,2.3141]],[[642.68178,546.91426],[1.234,-2.45235],[-4.12088,8.18948]],[[627.38221,570.58099],[4.53991,-8.10997],[-3.72007,6.64544]],[[620.26447,588.91491],[3.04771,-8.77065],[-1.20154,1.027]],[[616.65984,591.99589],[0.51394,-1.49476],[-3.63213,10.56376]],[[633.22764,610.54598],[-6.0538,-4.07333],[4.06136,2.73271]],[[645.99154,617.80849],[-4.79417,-0.98908],[13.7192,2.83038]],[[688.00824,624.58534],[-13.90947,-1.38657],[2.44974,0.2442]],[[695.39365,624.64569],[-2.42282,-0.43685],[2.8727,0.51797]],[[703.70134,627.41492],[-2.88278,-0.4586],[5.9859,0.95226]],[[721.88459,627.31808],[-6.06117,0],[7.0379,0]],[[742.99818,627.39057],[-6.96393,1.01772],[6.55363,-0.95776]],[[762.42755,623.23059],[-6.55512,0.94751],[18.23932,-2.26621]],[[816.43596,611.08757],[-17.44735,5.822],[5.1581,-1.7212]],[[831.94225,606.02088],[-4.89407,2.36994],[3.33128,-1.61317]],[[841.88438,597.06038],[-2.411,1.87356],[3.0639,-2.38092]],[[853.74169,589.27874],[-2.98912,3.03138],[9.06778,-9.19596]],[[876.53967,558.26562],[-7.47246,10.26266],[1.58713,-2.17977]],[[882.23837,552.5247],[-1.68502,2.10501],[10.06559,-12.57441]],[[909.13614,512.16887],[-6.35989,14.83974],[7.43734,-11.06916]],[[924.91862,471.77782],[-2.00009,13.37535],[0.3947,-2.6395]],[[924.88263,463.77135],[-0.24329,2.65774],[0.83782,-9.15256]],[[929.01884,436.28641],[-0.71392,9.20909],[0.68784,-8.87266]],[[928.99997,409.12577],[0,8.88222],[0,-21.30419]],[[929.01884,344.58051],[1.53918,21.24701],[-0.51413,-7.0971]],[[927.61536,323.27962],[0.01157,7.11569],[0,-14.4867]],[[927.62985,279.43796],[0.95095,14.44987],[-0.39267,-5.96663]],[[924.88263,261.71096],[0.49657,5.95888],[-0.25551,-3.0661]],[[924.94297,252.48098],[0.46213,3.04182],[-0.40165,-2.64372]],[[922.32815,244.89693],[0.70268,2.58008],[-1.7998,-6.60843]],[[919.35354,224.41555],[0.74778,6.71345],[-3.9163,-35.15978]],[[901.7109,120.78263],[9.72158,34.15605],[-5.11067,-12.8233]],[[879.73103,87.41408],[9.05925,10.11308],[-2.07227,-2.31333]],[[873.93796,80.11664],[2.3066,2.07976],[-2.6843,-2.42032]],[[865.26598,78.75406],[3.05864,0.30256],[-10.05971,-0.99511]],[[834.23432,74.53097],[9.90926,1.56699],[-4.08036,-0.64524]],[[822.14314,71.81176],[4.1026,0.48405],[-15.19953,-1.79334]],[[775.65382,70.47193],[15.33255,0.00006],[-21.56513,-0.00009]],[[711.91757,74.54319],[21.2428,-4.25594],[-6.87532,0.67448]],[[684.1034,81.89794],[4.47928,-7.48227],[-1.69363,2.82907]],[[683.69228,94.81808],[0,-2.98784],[0,7.84615]],[[683.69228,118.35654],[0,-7.84615],[0,26.90513]]],&quot;closed&quot;:true}]}" fill="#000000" stroke-width="0.5"/><path d="M278.21795,222.41157c0.95624,1.37774 0.51624,3.13775 0.51624,3.13775l-0.6717,2.68243c-0.62985,3.0601 -0.55702,5.76396 -0.60095,8.8696c-0.02039,1.44128 0.49825,3.01184 -0.10032,4.32311c-0.98969,2.16808 -2.05341,5.48809 -4.43362,5.60924c-8.41287,0.42817 -7.11991,-8.17663 -7.11991,-12.70158c0,-5.55637 0.9351,-10.80903 1.40287,-16.29259c0.14579,-1.70909 -0.29175,-3.4632 0.04192,-5.14573c0.38355,-1.93403 1.65943,-3.61148 2.07692,-5.53846c0.77651,-3.58404 -1.15039,-4.24884 0.72349,-7.769c0.01442,-0.02709 0.02895,-0.05411 0.04358,-0.08106l-0.02298,-0.00574l0.67328,-2.69313c0.37897,-1.66995 1.87243,-2.91659 3.65706,-2.91659c1.78463,0 3.27809,1.24664 3.65706,2.91659l0.67328,2.69313l-0.20711,0.05178l0.29098,0.39954c0.06519,7.48865 -0.42139,14.9551 -0.60011,22.46072z" fill="#ffffff" stroke-width="0.5"/><path d="M408.33331,214.4864c-0.33232,1.68907 -0.67679,3.53472 -0.73071,4.23194c-0.13483,1.74356 0.23781,3.52191 -0.05489,5.24601c-0.3695,2.1765 -1.63877,4.12374 -2.08783,6.28523c-0.33569,1.61582 0.14801,3.60404 -0.91611,4.86548c-0.1935,0.22938 -0.39912,0.44508 -0.61494,0.64928l0.1673,0.12548l-2.05074,2.73432c-0.68238,0.93066 -1.78372,1.53491 -3.02619,1.53491c-2.07107,0 -3.75,-1.67893 -3.75,-3.75c0,-0.34307 0.04607,-0.67539 0.13236,-0.99109l0.58762,-2.35049c-0.00611,-3.95621 0.86758,-7.77356 1.39012,-11.69463c0.75078,-5.63375 1.39662,-10.90257 2.86367,-16.39532c0.46624,-1.74561 0.98906,-3.48094 1.32075,-5.25704c0.3324,-1.7799 -0.03661,-3.72276 0.66777,-5.39082c0.01021,-0.02417 0.02048,-0.0483 0.03083,-0.0724l-0.01903,-0.00317l0.68217,-4.09304c0.2685,-1.80755 1.82686,-3.19431 3.70911,-3.19431c2.07107,0 3.75,1.67893 3.75,3.75v2.76923c0,6.08114 -0.69231,11.93361 -0.69231,18c0,0 0,1.90614 -1.35899,3.00044z" fill="#ffffff" stroke-width="0.5"/></g></g></svg>