<svg version="1.1" xmlns="http://www.w3.org/2000/svg" xmlns:xlink="http://www.w3.org/1999/xlink" width="84.61593" height="98.82464" viewBox="0,0,84.61593,98.82464"><g transform="translate(-205.70805,-140.26504)"><g data-paper-data="{&quot;isPaintingLayer&quot;:true}" fill-rule="nonzero" stroke="none" stroke-linecap="butt" stroke-linejoin="miter" stroke-miterlimit="10" stroke-dasharray="" stroke-dashoffset="0" style="mix-blend-mode: normal"><path d="M247.10251,200.80722c5.43121,1.35048 3.04428,6.00696 3.53777,8.98489c0.35216,2.12506 0.8766,4.22639 1.09486,6.19426c1.57817,-0.0234 3.15268,-0.08686 4.71953,-0.18818c2.37609,-0.15364 4.87,-0.52964 7.18702,-1.30765c0.38974,-0.60775 0.97292,-0.57724 1.3111,-0.49309c1.97919,-0.83006 3.77592,-2.00138 5.1865,-3.63817c7.17094,-6.42114 9.00581,-16.37247 9.01773,-25.60459c0.45037,-0.54759 0.87313,-1.53768 1.2302,-2.63119c0.48786,-0.52866 0.86256,-1.16334 1.08565,-1.86555c0.02042,0.23964 0.0388,0.47975 0.05526,0.72031c0.81941,-2.34018 0.57928,-5.02645 1.06076,-7.4467l-0.00002,0.00011c0.80919,-4.06745 2.1365,-8.26244 3.4538,-12.23108c0.5209,-1.5693 1.53016,-3.27823 1.73447,-4.92597l-0.01454,-0.00824c-4.12857,-0.82967 -8.41411,-0.50036 -12.60672,-0.50036c-0.43205,0 -0.71403,-0.15005 -0.8981,-0.34592c-0.19588,-0.18406 -0.34592,-0.46605 -0.34592,-0.8981c0,-0.05845 0.00275,-0.11415 0.00799,-0.16725l0.01618,-0.33898c0.56053,-2.80261 1.72915,-5.49575 2.08594,-8.32085c0.12713,-1.00662 0.06761,-2.02461 0.02244,-3.04185h-0.88853c-0.81909,-0.02978 -1.62048,0.33025 -2.36503,0.67296c-2.69922,1.24253 -4.75276,2.90456 -7.10491,4.76855c-3.01323,2.38788 -6.42483,4.46472 -10.11998,5.52549c0,0 -0.25556,0.07302 -0.56418,0.03343c-0.44736,0.08864 -0.85843,-0.1169 -0.85843,-0.1169l-1.16423,-0.59002c-1.75347,-1.12596 -2.13455,-1.29583 -3.82597,-2.73946c-2.18122,-1.86167 -3.58914,-4.01098 -6.061,-5.45769l-0.85831,-0.00437c-2.31985,0.45259 -4.33615,1.6976 -6.39931,2.76662c-1.14851,0.59511 -2.47584,0.77189 -3.65522,1.30319c-1.45066,0.65351 -2.76154,1.8523 -4.09241,2.73948c-3.85151,2.56749 -7.61771,5.24004 -11.54221,7.69417c0,0 -0.1289,0.08056 -0.32473,0.14031c-0.36538,0.31104 -0.85911,0.31104 -0.85911,0.31104l-1.12854,-0.04787c-1.60187,-0.45985 -2.44528,-0.61383 -3.95251,-1.43047c-0.43587,-0.23615 -0.81507,-0.47363 -1.17903,-0.70379l0.06616,0.19978c2.15334,4.31673 2.10954,8.90931 1.8098,13.5426c0.05576,-0.10923 0.11172,-0.21837 0.16793,-0.3274c-0.06006,1.85758 -0.01011,3.71753 0.02236,5.57735c-0.21038,0.47919 -0.4052,0.96554 -0.58482,1.45804c-0.00647,0.315 -0.00976,0.62967 -0.00929,0.94393c0,0 0,0.80364 -0.64592,1.11908c-1.52013,5.57422 -1.26059,11.72765 0.33405,17.15346c0.51601,1.75574 0.98134,4.2015 1.98215,5.75974c3.15255,4.90857 7.95265,7.09502 13.161,9.12138c3.09476,1.03363 6.27092,1.8416 9.49274,2.44353c0.03492,-0.26003 0.07318,-0.52037 0.11424,-0.78055l-0.11387,-0.56934c-2.13823,-0.95313 -2.35543,-3.5595 -2.35543,-3.5595c0.31118,-2.41362 -0.84322,-5.57788 0.93355,-7.24085c4.59403,-4.29976 6.20068,-1.60122 8.60415,0.18017c1.56348,-1.24664 3.26567,-2.26888 5.02293,-1.83193zM246.76254,224.84729c-1.7531,0.75283 -3.70705,1.62222 -5.58166,1.26732c-0.33688,-0.06378 -0.65769,-0.13854 -0.96306,-0.22372c-0.2727,0.5387 -0.5392,1.07823 -0.73287,1.62732l-0.97884,2.61081c0,0 -1.49227,3.9794 -5.47167,2.48712c-3.9794,-1.49227 -2.48712,-5.47167 -2.48712,-5.47167l0.95015,-2.53315c0.65088,-1.84295 0.87674,-3.89711 1.95263,-5.52884c0.0204,-0.03093 0.04087,-0.06181 0.06143,-0.09262l-0.02121,-0.00873l0.80439,-1.95353c-2.43621,-0.46137 -4.84644,-1.03636 -7.21563,-1.73144c-1.07884,2.31133 -2.41962,4.37912 -3.50242,6.7115l0.00004,0.00002c-0.21412,0.46122 -0.59868,0.85378 -0.71088,1.34975c-0.12302,0.54386 0.07101,1.11669 0.02722,1.67258c-0.09366,1.18914 -0.63635,2.63486 -0.10204,3.82862c0.37355,0.8346 1.14581,1.10387 1.77723,1.66546c0.79108,0.70362 1.34579,1.6794 2.23006,2.26156c1.94397,1.27984 4.80698,2.38746 7.08581,2.6904c4.39551,0.54939 8.52045,1.03802 12.94782,1.03802c1.15746,0 2.33506,0.23121 3.47236,0.01607c2.55457,-0.48329 5.19327,-1.02947 7.69937,-1.7963c3.07561,-0.94109 7.17677,-3.11207 8.37861,-6.32044c0.61536,-1.78109 0.4486,-3.46237 0.4486,-5.3418c0,-2.67864 0.04589,-4.62427 -2.05969,-6.3556c-2.60686,0.92329 -5.4219,1.38203 -8.15485,1.56503c-1.59664,0.10691 -3.20148,0.17407 -4.81038,0.1997c-0.19904,2.58869 -1.4289,4.8144 -5.0434,6.36657zM269.31893,223.07162c0,2.21443 0.08888,4.07176 -0.60042,6.19759c-1.66229,3.98556 -6.00358,6.61202 -9.97953,7.84155c-2.59999,0.80403 -5.37567,1.40778 -8.03617,1.87532c-1.27083,0.22333 -2.58059,0.01607 -3.8709,0.01607c-4.53431,0 -8.77842,-0.49754 -13.27808,-1.06005c-2.638,-0.39776 -5.87401,-1.56436 -8.12521,-3.07931c-0.22852,-0.15377 -2.30049,-2.29022 -2.49059,-2.45909c-1.12867,-1.00264 -1.66231,-0.88054 -2.41892,-2.53067c-0.76052,-1.65865 -0.24844,-3.41394 -0.10204,-5.08818c0.05807,-0.66388 -0.12487,-1.35023 0.02722,-1.99905c0.69421,-2.96157 2.8878,-5.53302 4.23468,-8.23995c-0.0401,-0.01332 -0.08016,-0.02667 -0.12022,-0.04008c-5.76,-2.23904 -11.0269,-4.78017 -14.47256,-10.22127c-1.10561,-1.74588 -1.63826,-4.34831 -2.214,-6.30416c-1.91192,-6.49507 -2.00586,-13.871 0.23952,-20.36402c0.22444,-6.3411 1.7046,-12.96444 -1.24349,-18.84659l-0.55538,-1.65623c0,0 -0.15368,-0.46105 0.01924,-0.90286c-0.32215,-0.1896 -0.81948,-0.63027 -0.54375,-1.45747c0.39339,-1.18018 1.57357,-0.78678 1.57357,-0.78678c2.70796,0.91513 4.7643,2.60049 7.55387,3.39339l0.17565,-0.01889c0.07835,-0.06701 0.13455,-0.10214 0.13455,-0.10214c3.90491,-2.43925 7.64976,-5.1003 11.48077,-7.65449c1.4147,-0.9432 2.81261,-2.18567 4.35569,-2.89259c1.18701,-0.54379 2.53168,-0.71311 3.68802,-1.3194c2.36135,-1.23806 4.59173,-2.46541 7.23817,-3.00307l1.19537,-0.00505c0.20505,-0.02956 0.3994,0.00079 0.54964,0.04226c0.15587,0.03777 0.34679,0.10851 0.51524,0.24099c3.7858,2.21868 6.32039,5.90169 10.07325,8.30482l0.68873,0.33855c3.32537,-0.97131 6.41833,-2.88618 9.12732,-5.04422c3.26172,-2.59836 6.68306,-5.87883 11.01765,-5.98151h1.04904c0,0 0.23502,0 0.50075,0.10216c0.14871,-0.06357 0.3292,-0.10216 0.54828,-0.10216c1.24401,0 1.24401,1.24401 1.24401,1.24401c0,0.36765 0.00332,4.50707 -0.01204,4.63095c-0.30484,2.46114 -1.21381,4.81651 -1.82732,7.22808c3.8756,-0.0453 7.78435,-0.19958 11.59192,0.55858l1.16461,0.54038c0.36859,0.08878 0.58358,0.31266 0.70896,0.54361c0.1516,0.21701 0.25611,0.51211 0.16728,0.88529c-0.11372,2.17887 -1.19586,4.12306 -1.89446,6.20947c-0.87225,2.60496 -1.70548,5.33949 -2.46519,7.96826c-1.23511,4.27372 -0.55361,9.51537 -2.84267,13.42509c-1.09365,2.71257 -1.25216,5.57808 -1.44711,8.45219c-0.11814,1.74168 -0.52511,3.31295 -0.53342,5.06729l-0.56036,2.00503c0,0 -0.24187,0.84657 -1.03085,0.91183c-1.48696,4.59596 -3.88819,8.82279 -7.60746,12.17218c-1.32894,1.49844 -2.91892,2.65881 -4.66378,3.55015c1.86496,2.05268 2.07282,4.38374 2.07282,7.41416z" fill="#000000" stroke-width="0.5"/><path d="M223.55223,222.00308c1.08282,-2.33237 2.42677,-4.40847 3.50559,-6.7198c9.50907,2.78979 19.72154,3.64432 29.57944,2.98426c2.73294,-0.183 5.54968,-0.63866 8.15654,-1.56196c2.10558,1.73132 2.06176,3.68416 2.06176,6.36279c0,1.87945 0.16679,3.56676 -0.44856,5.34785c-1.20183,3.20836 -5.30696,5.39026 -8.38256,6.33134c-2.50611,0.76682 -5.15394,1.32131 -7.70849,1.80459c-1.1373,0.21515 -2.32162,-0.01366 -3.4791,-0.01366c-4.42737,0 -8.57591,-0.4966 -12.97142,-1.04598c-2.27883,-0.30293 -5.14638,-1.41813 -7.09038,-2.69796c-0.88429,-0.58218 -1.44001,-1.56131 -2.23109,-2.26493c-0.63142,-0.56161 -1.40408,-0.83312 -1.77763,-1.66772c-0.53432,-1.19377 0.00817,-2.64381 0.10184,-3.83295c0.04378,-0.55589 -0.1501,-1.13061 -0.02707,-1.67446c0.1122,-0.49597 0.49701,-0.89016 0.71113,-1.35139z" data-paper-data="{&quot;noHover&quot;:false,&quot;origItem&quot;:[&quot;Path&quot;,{&quot;applyMatrix&quot;:true,&quot;segments&quot;:[[[198.90219,248.3042],[0,0],[-0.43031,0.92688]],[[197.47359,251.01669],[0.22546,-0.99672],[-0.24723,1.09295]],[[197.5283,254.37794],[0.08799,-1.11711],[-0.18823,2.38972]],[[197.32325,262.07202],[-1.07377,-2.39902],[0.7507,1.67722]],[[200.8948,265.41899],[-1.26889,-1.12862],[1.58976,1.41401]],[[205.37639,269.96389],[-1.77707,-1.16995],[3.90666,2.57199]],[[219.61618,275.37056],[-4.57958,-0.60877],[8.8333,1.10408]],[[245.63639,277.4566],[-8.89734,0],[2.32606,0]],[[252.61451,277.48888],[-2.28553,0.43238],[5.13369,-0.9712]],[[268.08733,273.87899],[-5.03635,1.54104],[6.18082,-1.89123]],[[284.92516,261.17731],[-2.41524,6.44759],[1.23665,-3.57929]],[[285.8267,250.4423],[0,3.77697],[0,-5.38304]],[[281.68751,237.66997],[4.23141,3.47929],[-5.23879,1.85546]],[[265.29936,240.81508],[5.49218,-0.36775],[-19.81065,1.32648]],[[205.94072,234.81664],[19.10963,5.60643],[-2.16804,4.64489]],[[198.90217,248.3042],[2.17604,-4.68719],[0,0]]],&quot;closed&quot;:true,&quot;fillColor&quot;:[0,0,0],&quot;strokeWidth&quot;:0.5}]}" fill="#667eff" stroke-width="0.25"/><path d="M282.61342,173.52748c-0.48148,2.42026 -0.24104,5.1119 -1.06044,7.45207c-0.01647,-0.24057 -0.03482,-0.48122 -0.05524,-0.72086c-0.22308,0.70221 -0.59787,1.33835 -1.08572,1.867c-0.35706,1.0935 -0.78012,2.08575 -1.23048,2.63335c-0.01192,9.23211 -1.857,19.19952 -9.02793,25.62064c-1.41056,1.63678 -3.21086,2.8102 -5.19006,3.64025c-0.33816,-0.08416 -0.92217,-0.11429 -1.31191,0.49347c-2.31702,0.778 -4.81545,1.15546 -7.19154,1.30911c-10.40297,0.67271 -21.16343,-0.32763 -31.07015,-3.6364c-5.20836,-2.02637 -10.01499,-4.21956 -13.16754,-9.12813c-1.0008,-1.55826 -1.46785,-4.00706 -1.98386,-5.7628c-1.59464,-5.42581 -1.85653,-11.58935 -0.33639,-17.16357c0.64592,-0.31544 0.64592,-1.1198 0.64592,-1.1198c-0.00049,-0.31426 0.00283,-0.62955 0.00929,-0.94455c0.17961,-0.49251 0.3745,-0.97982 0.58487,-1.45904c-0.03246,-1.8598 -0.08189,-3.72337 -0.02184,-5.58095c-0.05622,0.10903 -0.11224,0.21839 -0.16798,0.32763c0.29973,-4.6333 0.34607,-9.23266 -1.80728,-13.5494l-0.06613,-0.19986c0.36395,0.23018 0.74315,0.46766 1.17902,0.70382c1.50724,0.81665 2.35085,0.97026 3.95272,1.4301l1.1287,0.04757c0,0 0.49397,-0.0004 0.85935,-0.31143c0.19584,-0.05975 0.32484,-0.14047 0.32484,-0.14047c3.92451,-2.45411 7.69706,-5.1335 11.5486,-7.701c1.33088,-0.88719 2.64478,-2.08787 4.09542,-2.74136c1.17939,-0.5313 2.50925,-0.70927 3.65777,-1.30438c2.06315,-1.06903 4.08424,-2.31537 6.40408,-2.76796l0.8589,0.00427c2.47186,1.44671 3.88422,3.59574 6.06543,5.45742c1.69141,1.44362 2.07613,1.61385 3.8296,2.73983l1.16537,0.59025c0,0 0.41185,0.20574 0.85922,0.11708c0.30863,0.03959 0.56465,-0.03329 0.56465,-0.03329c3.69515,-1.06076 7.11211,-3.13542 10.12535,-5.52329c2.35216,-1.86401 4.40758,-3.52485 7.1068,-4.76739c0.74454,-0.34273 1.54663,-0.70224 2.36573,-0.67248l0.88884,0.00024c0.04516,1.01724 0.10549,2.03585 -0.02164,3.04249c-0.35678,2.82511 -1.52354,5.52 -2.08405,8.32257l-0.01607,0.3391c-0.00524,0.0531 -0.00793,0.10886 -0.00793,0.1673c0,0.43205 0.15047,0.71448 0.34635,0.89855c0.18406,0.19588 0.46646,0.34638 0.89851,0.34638c4.19261,0 8.48093,-0.32544 12.6095,0.50423l0.01454,0.00824c-0.20432,1.64774 -1.21264,3.35843 -1.73353,4.92775c-1.3173,3.96865 -2.64252,8.17018 -3.45171,12.23765z" data-paper-data="{&quot;noHover&quot;:false,&quot;origItem&quot;:[&quot;Path&quot;,{&quot;applyMatrix&quot;:true,&quot;segments&quot;:[[[317.49428,150.88584],[0,0],[1.62617,-8.17405]],[[324.43511,126.30603],[-2.64728,7.97546],[1.04681,-3.15372]],[[327.92075,116.40671],[-0.4106,3.31132],[0,0]],[[327.89153,116.39016],[0,0],[-8.29686,-1.6673]],[[302.55681,115.38463],[8.42556,0],[-0.86824,0]],[[300.75198,114.68946],[0.36989,0.39363],[-0.39363,-0.36989]],[[300.05681,112.88463],[0,0.86824],[0,-0.11746]],[[300.07285,112.54853],[-0.01052,0.10669],[0,0]],[[300.10536,111.86729],[0,0],[1.12643,-5.63215]],[[304.2973,95.14552],[-0.717,5.6774],[0.25547,-2.02294]],[[304.34241,89.03257],[0.09077,2.04426],[0,0]],[[302.55681,89.03257],[0,0],[-1.64607,-0.05985]],[[297.804,90.38498],[1.49624,-0.68876],[-5.42442,2.49702]],[[283.52583,99.96797],[4.72693,-3.74593],[-6.05545,4.79873]],[[263.1885,111.07211],[7.42586,-2.13175],[0,0]],[[262.05471,111.13928],[0.62021,0.07957],[-0.89902,0.17814]],[260.32959,110.90437],[[257.98994,109.71868],[0,0],[-3.52382,-2.26277]],[[250.30119,104.21341],[3.39911,2.90115],[-4.38341,-3.74125]],[[238.12088,93.24553],[4.96752,2.90734],[0,0]],[[236.39601,93.23674],[0,0],[-4.662,0.90954]],[[223.53584,98.79659],[4.14614,-2.14833],[-2.30807,1.19593]],[[216.19023,101.41553],[2.37011,-1.06771],[-2.91527,1.3133]],[[207.96604,106.92084],[2.67456,-1.78291],[-7.74009,5.15968]],[[184.77057,122.38319],[7.88679,-4.93183],[0,0]],[[184.11797,122.66515],[0.39357,-0.12006],[-0.73426,0.62508]],[182.39149,123.29023],[[180.12357,123.19404],[0,0],[-3.21915,-0.92412]],[[172.18051,120.31934],[3.02898,1.64114],[-0.87592,-0.47458]],[[169.81111,118.90497],[0.73141,0.46257],[0,0]],[[169.94406,119.30647],[0,0],[4.3274,8.67498]],[[173.58107,146.52197],[0.60235,-9.31118],[0.11205,-0.21952]],[[173.91855,145.86402],[-0.11296,0.2191],[-0.1207,3.73302]],[[173.96349,157.07237],[-0.06526,-3.73751],[-0.42279,0.96301]],[[172.78823,160.00248],[0.36095,-0.98974],[-0.013,0.63304]],[[172.76957,161.89942],[-0.00097,-0.63154],[0,0]],[[171.47152,164.14833],[1.29805,-0.63391],[-3.05489,11.20206]],[[172.14281,198.62029],[-3.20462,-10.90383],[1.03698,3.52836]],[[176.12618,210.19519],[-2.01122,-3.1315],[6.33544,9.86435]],[[202.5748,228.5257],[-10.46683,-4.07222],[19.90876,6.64938]],[[264.97447,235.82564],[-20.90603,1.35191],[4.77505,-0.30878]],[[279.41765,233.19778],[-4.65634,1.5635],[0.78323,-1.22135]],[[282.05244,232.20688],[-0.67958,-0.16912],[3.97742,-1.66812]],[[292.47533,224.89553],[-2.83471,3.28933],[14.41085,-12.90405]],[[310.59754,173.44005],[-0.02396,18.55303],[0.90508,-1.10045]],[[313.06978,168.15236],[-0.71756,2.19752],[0.98041,-1.06241]],[[315.2515,164.40332],[-0.4483,1.41118],[0.04104,0.48157]],[[315.36255,165.85088],[-0.03307,-0.48344],[1.64669,-4.70287]],[[317.49429,150.88583],[-0.96761,4.8638],[0,0]]],&quot;closed&quot;:true,&quot;fillColor&quot;:[0,0,0],&quot;strokeWidth&quot;:0.5}]}" fill="#66ecff" stroke-width="0.25"/><path d="M218.70476,190.54993l-0.72798,-0.31328c-0.56313,-1.834 -2.60411,-3.81559 -1.68939,-5.502c1.25354,-2.31106 3.85663,-4.44841 6.48881,-4.69087c0.0418,-0.0418 0.06488,-0.06488 0.06488,-0.06488c0.7691,-0.7691 1.8316,-1.2448 3.0052,-1.2448c2.34721,0 4.25,1.90279 4.25,4.25v2.89348h-0.1908l0.16543,0.46375c-0.79856,1.9623 -0.42785,5.10207 -2.39568,5.8869c-2.78299,1.10994 -7.87854,1.43402 -8.88041,-1.38967c-0.03421,-0.09641 -0.06417,-0.19262 -0.09006,-0.28862z" fill="#000000" stroke-width="0.5"/><path d="M268.02831,188.04744c0.99503,0.56115 1.93365,1.61981 1.93365,3.61709c0,4.25 -4.25,4.25 -4.25,4.25l-1.08034,-0.03282c-1.35853,0.08021 -2.85702,0.84655 -4.07558,0.24062c-6.26659,-3.11604 -9.1577,-6.71471 -2.25426,-12.09474c1.44643,-1.12724 3.65413,-0.31403 5.48119,-0.47104c0,0 4.25,0 4.25,4.25c0,0.08186 -0.00158,0.16214 -0.00467,0.24088z" fill="#000000" stroke-width="0.5"/><path d="M237.5373,205.01065c1.15552,-2.52074 3.16488,-4.56947 5.7867,-4.97233c7.86191,-1.20803 10.59398,7.56621 10.55782,13.59783c-0.01078,1.79715 0.42703,3.81166 -0.46576,5.3714c-2.99169,5.22657 -11.66096,5.28226 -15.70491,1.4422c-1.06792,-1.01408 -0.72806,-2.85649 -1.19129,-4.25443c-0.72523,-2.1886 -1.43617,-4.41203 -1.71618,-6.70059c0,0 -0.38942,-3.50475 2.73363,-4.48408z" fill="#000000" stroke-width="0.5"/></g></g></svg>