<svg version="1.1" xmlns="http://www.w3.org/2000/svg" xmlns:xlink="http://www.w3.org/1999/xlink" width="119.45005" height="157.25087" viewBox="0,0,119.45005,157.25087"><g transform="translate(-188.29109,-117.33629)"><g data-paper-data="{&quot;isPaintingLayer&quot;:true}" fill-rule="nonzero" stroke="none" stroke-linecap="butt" stroke-linejoin="miter" stroke-miterlimit="10" stroke-dasharray="" stroke-dashoffset="0" style="mix-blend-mode: normal"><path d="M278.08873,234.23201c0,3.12605 0.12547,5.74798 -0.8476,8.74896c-2.34662,5.62632 -8.47509,9.334 -14.0878,11.0697c-3.67033,1.13503 -7.58869,1.98732 -11.34443,2.64734c-1.794,0.31527 -3.64294,0.02268 -5.46444,0.02268c-6.40097,0 -12.39225,-0.70237 -18.74429,-1.49643c-3.72399,-0.56151 -8.29219,-2.20836 -11.47013,-4.34697c-0.32259,-0.21709 -3.24754,-3.23304 -3.5159,-3.47143c-1.59331,-1.41538 -2.34664,-1.24302 -3.41472,-3.57248c-1.07359,-2.34148 -0.35072,-4.81938 -0.14404,-7.18284c0.08196,-0.93718 -0.17627,-1.90607 0.03843,-2.822c0.97999,-4.18076 4.07662,-7.81081 5.97798,-11.63211c-0.05659,-0.0188 -0.11316,-0.03766 -0.16971,-0.05657c-8.13123,-3.16079 -15.56636,-6.74805 -20.43051,-14.42909c-1.56075,-2.46461 -2.31269,-6.1384 -3.12544,-8.89942c-2.699,-9.16891 -2.83161,-19.58132 0.33813,-28.74734c0.31683,-8.95154 2.40634,-18.30154 -1.75539,-26.60522l-0.78401,-2.33805c0,0 -0.21695,-0.65085 0.02715,-1.27455c-0.45477,-0.26765 -1.15684,-0.88974 -0.7676,-2.05748c0.55534,-1.66603 2.22137,-1.11068 2.22137,-1.11068c3.82275,1.29186 6.72562,3.67102 10.6636,4.79036l0.24796,-0.02667c0.11061,-0.09459 0.18995,-0.14419 0.18995,-0.14419c5.51246,-3.44342 10.79896,-7.19996 16.20708,-10.80563c1.9971,-1.33149 3.97051,-3.08546 6.14881,-4.08338c1.67567,-0.76766 3.57391,-1.00668 5.20629,-1.86254c3.33346,-1.74774 6.48203,-3.48034 10.21792,-4.23937l1.68748,-0.00712c0.28946,-0.04173 0.56381,0.0011 0.77592,0.05967c0.22004,0.05332 0.48957,0.15318 0.72735,0.34021c5.3443,3.13205 8.92232,8.33126 14.22013,11.7237l0.97226,0.47792c4.69434,-1.37116 9.06058,-4.07434 12.8848,-7.12078c4.60448,-3.66802 9.4343,-8.29899 15.55331,-8.44393h1.4809c0,0 0.33177,0 0.7069,0.14421c0.20993,-0.08974 0.46473,-0.14421 0.77399,-0.14421c1.75614,0 1.75614,1.75614 1.75614,1.75614c0,0.519 0.00469,6.3625 -0.01698,6.53738c-0.43034,3.47434 -1.71349,6.79933 -2.57959,10.20368c5.47108,-0.06396 10.98895,-0.28174 16.364,0.78853l1.64405,0.76284c0.52032,0.12532 0.82382,0.44136 1.00083,0.76741c0.214,0.30634 0.36155,0.72292 0.23614,1.24973c-0.16054,3.07586 -1.68817,5.82041 -2.67437,8.76573c-1.23132,3.67735 -2.40757,7.53761 -3.48004,11.24858c-1.74357,6.03308 -0.78153,13.43259 -4.01292,18.95183c-1.54388,3.82926 -1.76764,7.87441 -2.04285,11.93173c-0.16677,2.45867 -0.74128,4.6768 -0.75301,7.15334l-0.79104,2.83044c0,0 -0.34145,1.19507 -1.45522,1.2872c-2.0991,6.48799 -5.48884,12.45489 -10.73924,17.18314c-1.87603,2.1153 -4.12056,3.75337 -6.58373,5.01165c2.63272,2.89772 2.92614,6.1884 2.92614,10.46637zM213.51567,232.73008c-0.30227,0.65109 -0.84515,1.20526 -1.00353,1.90541c-0.17367,0.76775 0.10024,1.57641 0.03843,2.36113c-0.13222,1.67868 -0.89832,3.71955 -0.14404,5.40476c0.52733,1.17818 1.61752,1.5583 2.50886,2.3511c1.11674,0.99328 1.89981,2.37076 3.14813,3.1926c2.74426,1.80671 6.78589,3.37032 10.00285,3.79796c6.20502,0.77557 12.02809,1.46535 18.27809,1.46535c1.63396,0 3.29634,0.3264 4.90183,0.02268c3.6062,-0.68223 7.33118,-1.45328 10.869,-2.53579c4.34176,-1.32851 10.13125,-4.39323 11.82786,-8.92239c0.86869,-2.5143 0.63329,-4.88773 0.63329,-7.54089c0,-3.78136 0.06478,-6.52796 -2.9076,-8.97202c-3.68003,1.30338 -7.65395,1.95098 -11.51198,2.20931c-13.91614,0.9318 -28.27321,-0.27537 -41.69691,-4.21365c-1.52296,3.26284 -3.41571,6.18188 -4.94428,9.47444zM296.82156,164.29784c1.14232,-5.74192 3.01604,-11.66385 4.87564,-17.26627c0.73534,-2.21535 2.16008,-4.62779 2.44851,-6.95385l-0.02053,-0.01163c-5.82819,-1.17121 -11.87796,-0.70634 -17.79656,-0.70634c-0.6099,0 -1.00798,-0.21182 -1.26782,-0.48833c-0.27651,-0.25983 -0.48833,-0.65791 -0.48833,-1.26782c0,-0.08251 0.00388,-0.16115 0.01127,-0.2361l0.02284,-0.47854c0.79127,-3.95635 2.441,-7.7582 2.94466,-11.74633c0.17946,-1.42103 0.09545,-2.85808 0.03169,-4.29409h-1.25431c-1.15629,-0.04204 -2.2876,0.46619 -3.33865,0.95001c-3.81042,1.75405 -6.70934,4.10029 -10.02981,6.73164c-4.2537,3.3709 -9.06976,6.30272 -14.28611,7.80018c0,0 -0.36077,0.10308 -0.79644,0.04718c-0.63152,0.12514 -1.21182,-0.16501 -1.21182,-0.16501l-1.6435,-0.8329c-2.47533,-1.5895 -3.01329,-1.82928 -5.40102,-3.86722c-3.07916,-2.62807 -5.06668,-5.66219 -8.55615,-7.70447l-1.21165,-0.00617c-3.27486,0.63891 -6.12123,2.39645 -9.03372,3.90556c-1.62132,0.84009 -3.49508,1.08967 -5.15998,1.83969c-2.04785,0.92254 -3.89838,2.61483 -5.77714,3.86725c-5.43708,3.62446 -10.7537,7.39724 -16.29383,10.86164c0,0 -0.18196,0.11373 -0.45842,0.19806c-0.51579,0.43909 -1.21278,0.43909 -1.21278,0.43909l-1.59312,-0.06757c-2.26132,-0.64915 -3.45193,-0.86652 -5.57966,-2.01935c-0.6153,-0.33337 -1.15062,-0.6686 -1.6644,-0.99353l0.09339,0.28204c3.03981,6.0938 2.97797,12.57702 2.55484,19.11773c0.07871,-0.1542 0.15772,-0.30827 0.23707,-0.46218c-0.08479,2.62229 -0.01427,5.24795 0.03157,7.87339c-0.29699,0.67647 -0.57202,1.36303 -0.82557,2.05828c-0.00913,0.44468 -0.01379,0.88889 -0.01311,1.33252c0,0 0,1.13447 -0.91182,1.57976c-2.14593,7.86897 -1.77956,16.55561 0.47155,24.21508c0.72843,2.47852 1.38535,5.93113 2.79815,8.13087c4.45038,6.92929 11.22653,10.01584 18.57903,12.8764c13.98506,4.67091 29.14751,6.07756 43.83311,5.1279c3.35427,-0.2169 6.87484,-0.74767 10.14572,-1.84596c0.55019,-0.85795 1.37345,-0.81486 1.85083,-0.69607c2.79397,-1.17178 5.33037,-2.8253 7.32164,-5.13591c10.12301,-9.06454 12.71325,-23.11257 12.73008,-36.14528c0.63578,-0.77302 1.23259,-2.17071 1.73664,-3.71438c0.6887,-0.7463 1.21765,-1.64225 1.53257,-2.63354c0.02883,0.33828 0.05478,0.67725 0.07801,1.01685c1.15673,-3.30357 0.81775,-7.0957 1.49746,-10.51231z" fill="#000000" stroke-width="0.5"/><path d="M213.48114,232.72362c1.52858,-3.29255 3.4258,-6.22332 4.94876,-9.48616c13.4237,3.93828 27.84035,5.14459 41.75649,4.2128c3.85802,-0.25833 7.83433,-0.90159 11.51436,-2.20497c2.97239,2.44405 2.91053,5.20081 2.91053,8.98217c0,2.65316 0.23547,5.03509 -0.63322,7.54939c-1.6966,4.52916 -7.49168,7.60927 -11.83344,8.93778c-3.53782,1.08251 -7.27567,1.86526 -10.88187,2.54749c-1.60549,0.30373 -3.27738,-0.01928 -4.91134,-0.01928c-6.25,0 -12.10638,-0.70102 -18.3114,-1.47659c-3.21696,-0.42763 -7.26502,-2.00193 -10.00929,-3.80864c-1.24832,-0.82184 -2.03282,-2.20407 -3.14956,-3.19735c-0.89134,-0.79281 -1.9821,-1.17609 -2.50943,-2.35426c-0.75428,-1.68521 0.01154,-3.73219 0.14376,-5.41087c0.06181,-0.78472 -0.21188,-1.59605 -0.03821,-2.3638c0.15838,-0.70015 0.70161,-1.25662 1.00388,-1.90771z" data-paper-data="{&quot;noHover&quot;:false,&quot;origItem&quot;:[&quot;Path&quot;,{&quot;applyMatrix&quot;:true,&quot;segments&quot;:[[[198.90219,248.3042],[0,0],[-0.43031,0.92688]],[[197.47359,251.01669],[0.22546,-0.99672],[-0.24723,1.09295]],[[197.5283,254.37794],[0.08799,-1.11711],[-0.18823,2.38972]],[[197.32325,262.07202],[-1.07377,-2.39902],[0.7507,1.67722]],[[200.8948,265.41899],[-1.26889,-1.12862],[1.58976,1.41401]],[[205.37639,269.96389],[-1.77707,-1.16995],[3.90666,2.57199]],[[219.61618,275.37056],[-4.57958,-0.60877],[8.8333,1.10408]],[[245.63639,277.4566],[-8.89734,0],[2.32606,0]],[[252.61451,277.48888],[-2.28553,0.43238],[5.13369,-0.9712]],[[268.08733,273.87899],[-5.03635,1.54104],[6.18082,-1.89123]],[[284.92516,261.17731],[-2.41524,6.44759],[1.23665,-3.57929]],[[285.8267,250.4423],[0,3.77697],[0,-5.38304]],[[281.68751,237.66997],[4.23141,3.47929],[-5.23879,1.85546]],[[265.29936,240.81508],[5.49218,-0.36775],[-19.81065,1.32648]],[[205.94072,234.81664],[19.10963,5.60643],[-2.16804,4.64489]],[[198.90217,248.3042],[2.17604,-4.68719],[0,0]]],&quot;closed&quot;:true,&quot;fillColor&quot;:[0,0,0],&quot;strokeWidth&quot;:0.5}]}" fill="#667eff" stroke-width="0.25"/><path d="M296.85618,164.29192c-0.6797,3.41661 -0.34027,7.21634 -1.497,10.51991c-0.02323,-0.3396 -0.04915,-0.67933 -0.07798,-1.01761c-0.31491,0.99129 -0.84399,1.88931 -1.53268,2.63561c-0.50406,1.54366 -1.10126,2.9444 -1.73704,3.71742c-0.01683,13.03271 -2.62147,27.10343 -12.74447,36.16797c-1.99126,2.31061 -4.53268,3.96707 -7.32665,5.13885c-0.47738,-0.1188 -1.30181,-0.16135 -1.85199,0.6966c-3.27088,1.09829 -6.79784,1.63113 -10.15211,1.84804c-14.68559,0.94966 -29.87582,-0.4625 -43.86088,-5.1334c-7.3525,-2.86056 -14.13789,-5.95663 -18.58827,-12.88592c-1.4128,-2.19975 -2.07212,-5.65666 -2.80056,-8.13519c-2.25111,-7.65948 -2.62081,-16.36037 -0.47488,-24.22934c0.91182,-0.44529 0.91182,-1.58079 0.91182,-1.58079c-0.00068,-0.44363 0.004,-0.88871 0.01313,-1.3334c0.25355,-0.69525 0.52866,-1.38319 0.82565,-2.05967c-0.04584,-2.62544 -0.1156,-5.25618 -0.03082,-7.87847c-0.07935,0.15391 -0.15843,0.3083 -0.23714,0.4625c0.42313,-6.54071 0.48854,-13.03349 -2.55128,-19.1273l-0.09334,-0.28213c0.51378,0.32494 1.04909,0.66019 1.66439,0.99356c2.12773,1.15283 3.31863,1.36969 5.57995,2.01884l1.59336,0.06715c0,0 0.69733,-0.00056 1.21312,-0.43965c0.27647,-0.08434 0.45856,-0.1983 0.45856,-0.1983c5.54013,-3.4644 10.86574,-7.24682 16.30283,-10.87128c1.87876,-1.25242 3.73355,-2.94738 5.7814,-3.86991c1.6649,-0.75002 3.54225,-1.00126 5.16357,-1.84135c2.91249,-1.50911 5.76562,-3.26855 9.04047,-3.90746l1.21248,0.00603c3.48947,2.04228 5.48325,5.07601 8.56241,7.70408c2.38773,2.03793 2.9308,2.27824 5.40613,3.86774l1.64513,0.83323c0,0 0.58141,0.29042 1.21293,0.16528c0.43567,0.05589 0.79712,-0.047 0.79712,-0.047c5.21635,-1.49746 10.03997,-4.42617 14.29367,-7.79707c3.32047,-2.63136 6.22206,-4.97594 10.03248,-6.72999c1.05104,-0.48382 2.18335,-0.99135 3.33964,-0.94931l1.25475,0.00033c0.06376,1.43601 0.14892,2.87396 -0.03054,4.29499c-0.50366,3.98813 -2.15073,7.79242 -2.942,11.74876l-0.02268,0.4787c-0.00739,0.07495 -0.01119,0.15367 -0.01119,0.23618c0,0.6099 0.21242,1.00862 0.48893,1.26846c0.25983,0.27651 0.65848,0.48896 1.26839,0.48896c5.9186,0 11.9723,-0.45941 17.80049,0.71179l0.02053,0.01163c-0.28843,2.32606 -1.71184,4.74101 -2.44718,6.95637c-1.8596,5.60242 -3.73037,11.53363 -4.87269,17.27555z" data-paper-data="{&quot;noHover&quot;:false,&quot;origItem&quot;:[&quot;Path&quot;,{&quot;applyMatrix&quot;:true,&quot;segments&quot;:[[[317.49428,150.88584],[0,0],[1.62617,-8.17405]],[[324.43511,126.30603],[-2.64728,7.97546],[1.04681,-3.15372]],[[327.92075,116.40671],[-0.4106,3.31132],[0,0]],[[327.89153,116.39016],[0,0],[-8.29686,-1.6673]],[[302.55681,115.38463],[8.42556,0],[-0.86824,0]],[[300.75198,114.68946],[0.36989,0.39363],[-0.39363,-0.36989]],[[300.05681,112.88463],[0,0.86824],[0,-0.11746]],[[300.07285,112.54853],[-0.01052,0.10669],[0,0]],[[300.10536,111.86729],[0,0],[1.12643,-5.63215]],[[304.2973,95.14552],[-0.717,5.6774],[0.25547,-2.02294]],[[304.34241,89.03257],[0.09077,2.04426],[0,0]],[[302.55681,89.03257],[0,0],[-1.64607,-0.05985]],[[297.804,90.38498],[1.49624,-0.68876],[-5.42442,2.49702]],[[283.52583,99.96797],[4.72693,-3.74593],[-6.05545,4.79873]],[[263.1885,111.07211],[7.42586,-2.13175],[0,0]],[[262.05471,111.13928],[0.62021,0.07957],[-0.89902,0.17814]],[260.32959,110.90437],[[257.98994,109.71868],[0,0],[-3.52382,-2.26277]],[[250.30119,104.21341],[3.39911,2.90115],[-4.38341,-3.74125]],[[238.12088,93.24553],[4.96752,2.90734],[0,0]],[[236.39601,93.23674],[0,0],[-4.662,0.90954]],[[223.53584,98.79659],[4.14614,-2.14833],[-2.30807,1.19593]],[[216.19023,101.41553],[2.37011,-1.06771],[-2.91527,1.3133]],[[207.96604,106.92084],[2.67456,-1.78291],[-7.74009,5.15968]],[[184.77057,122.38319],[7.88679,-4.93183],[0,0]],[[184.11797,122.66515],[0.39357,-0.12006],[-0.73426,0.62508]],[182.39149,123.29023],[[180.12357,123.19404],[0,0],[-3.21915,-0.92412]],[[172.18051,120.31934],[3.02898,1.64114],[-0.87592,-0.47458]],[[169.81111,118.90497],[0.73141,0.46257],[0,0]],[[169.94406,119.30647],[0,0],[4.3274,8.67498]],[[173.58107,146.52197],[0.60235,-9.31118],[0.11205,-0.21952]],[[173.91855,145.86402],[-0.11296,0.2191],[-0.1207,3.73302]],[[173.96349,157.07237],[-0.06526,-3.73751],[-0.42279,0.96301]],[[172.78823,160.00248],[0.36095,-0.98974],[-0.013,0.63304]],[[172.76957,161.89942],[-0.00097,-0.63154],[0,0]],[[171.47152,164.14833],[1.29805,-0.63391],[-3.05489,11.20206]],[[172.14281,198.62029],[-3.20462,-10.90383],[1.03698,3.52836]],[[176.12618,210.19519],[-2.01122,-3.1315],[6.33544,9.86435]],[[202.5748,228.5257],[-10.46683,-4.07222],[19.90876,6.64938]],[[264.97447,235.82564],[-20.90603,1.35191],[4.77505,-0.30878]],[[279.41765,233.19778],[-4.65634,1.5635],[0.78323,-1.22135]],[[282.05244,232.20688],[-0.67958,-0.16912],[3.97742,-1.66812]],[[292.47533,224.89553],[-2.83471,3.28933],[14.41085,-12.90405]],[[310.59754,173.44005],[-0.02396,18.55303],[0.90508,-1.10045]],[[313.06978,168.15236],[-0.71756,2.19752],[0.98041,-1.06241]],[[315.2515,164.40332],[-0.4483,1.41118],[0.04104,0.48157]],[[315.36255,165.85088],[-0.03307,-0.48344],[1.64669,-4.70287]],[[317.49429,150.88583],[-0.96761,4.8638],[0,0]]],&quot;closed&quot;:true,&quot;fillColor&quot;:[0,0,0],&quot;strokeWidth&quot;:0.5}]}" fill="#66ecff" stroke-width="0.25"/><path d="M221.75834,211.76518c-0.74793,-0.87701 -0.74793,-2.06343 -0.74793,-2.06343l0.04062,-0.79076c0.23027,-1.38068 0.44444,-2.76404 0.65236,-4.14826c0.69506,-1.82099 1.44601,-3.7183 2.76758,-5.15097c6.20718,-6.72904 15.25849,-3.64228 23.00782,-1.81441c2.33556,0.5509 4.73923,1.27448 7.04582,1.7678c1.72439,0.3688 3.69161,0.46603 5.04263,1.5993c3.44776,2.89207 4.1903,8.47185 4.87793,12.60607c0.46125,3.70742 1.33875,7.33304 1.52732,11.08051c0.30756,6.11212 0.00371,12.32636 0.00371,18.44633c0,5.56448 0.48845,11.69148 -0.67388,17.15825c-0.54602,2.56808 -1.84392,5.08996 -2.93537,7.44665c-1.31779,1.1246 -2.25467,2.69102 -3.69241,3.65757c-2.01657,1.35568 -3.08167,0.89696 -5.22205,1.34553c-1.60738,0.33686 -3.06623,1.23903 -4.6816,1.53521c-2.10427,0.38582 -4.34162,-0.09165 -6.42371,-0.27158c-2.14078,-0.18501 -4.40875,0.33195 -6.53115,-0.02838c-1.01563,-0.17243 -1.94562,-0.68419 -2.94108,-0.94936c-4.28509,-1.14147 -9.19853,-1.12964 -12.34766,-4.85633c-1.77301,-2.09819 -2.76229,-5.18801 -3.66844,-7.70707c-0.09262,-4.50938 -0.54156,-9.37634 -0.01905,-13.84508c0.22611,-1.93378 0.91504,-3.79015 1.20221,-5.71581c0.65969,-4.42368 1.0431,-8.86678 1.81049,-13.2663c0.2048,-1.17417 0.7312,-2.2831 0.88031,-3.46564c0.29729,-2.35769 0.0677,-4.75733 0.2916,-7.12312c0.17119,-1.80886 0.4761,-3.62752 0.73392,-5.44671z" fill="#000000" stroke-width="0.5"/><path d="M208.4754,159.53317c0.68055,-0.9085 1.19008,-1.99366 2.10092,-2.66427c0.85167,-0.62706 1.99097,-0.71624 3.00063,-1.03107c4.44997,-1.38758 9.39609,-1.05886 13.55279,0.97196c5.65992,4.69186 8.82968,11.01601 8.85039,18.39645c0.00523,1.86155 0.05712,4.63934 -0.43231,6.27835c-0.3582,1.19957 -1.14992,2.22484 -1.76766,3.31372c-2.08196,3.66979 -5.10495,8.42102 -8.69404,10.86651c-0.91381,0.62264 -2.03328,0.87521 -3.01299,1.38792c-1.16744,0.61094 -2.17868,1.54208 -3.42163,1.9794c-1.93574,0.68108 -6.45464,0.82924 -8.53982,0.3769c-1.27577,-0.27676 -2.42842,-1.02783 -3.71806,-1.2304c-1.27954,-0.5275 -2.65611,-0.86337 -3.83863,-1.5825c-6.80149,-4.13622 -7.09285,-14.59366 -5.47226,-21.42896c0.48456,-2.04375 1.04482,-4.27955 2.07601,-6.15429c0.71087,-1.2924 3.30031,-5.29981 4.48787,-6.47406c1.35002,-1.33489 3.04663,-2.26373 4.82879,-3.00566z" fill="#000000" stroke-width="0.5"/><path d="M267.94868,160.94273c6.75786,0.32797 13.58047,3.49562 19.16543,6.88328c0.8146,0.95396 1.78948,1.7916 2.4438,2.86187c1.62429,2.65684 1.57091,5.79201 2.15465,8.72074c1.68243,8.44114 -0.64592,18.94374 -9.14111,23.09008c-1.88691,0.92096 -5.2123,1.08013 -7.1582,1.18708c-5.58483,0.30696 -10.66322,-0.46886 -15.45431,-3.4201c-3.91064,-2.30916 -5.56608,-5.37152 -7.90664,-9.09177c-0.6246,-0.99278 -1.63361,-1.7682 -2.03589,-2.86997c-1.27976,-3.50497 -0.31163,-4.28621 0.47891,-7.52099c1.26522,-5.17709 2.27942,-10.42675 4.68779,-15.23173c0.49191,-0.98142 0.68115,-2.19089 1.48315,-2.94051c2.11731,-1.97903 5.93808,-2.91748 8.72419,-2.98826c0,0 1.73293,0 2.55822,1.32028z" fill="#000000" stroke-width="0.5"/></g></g></svg>