<svg version="1.1" xmlns="http://www.w3.org/2000/svg" xmlns:xlink="http://www.w3.org/1999/xlink" width="1036.80162" height="464.39907" viewBox="0,0,1036.80162,464.39907"><g transform="translate(330.13427,50.50751)"><g data-paper-data="{&quot;isPaintingLayer&quot;:true}" fill-rule="nonzero" stroke-linejoin="miter" stroke-miterlimit="10" stroke-dasharray="" stroke-dashoffset="0" style="mix-blend-mode: normal"><path d="M-107.09931,410.50751v-461.01502h694.19863v461.01502z" data-paper-data="{&quot;index&quot;:null}" fill="#1a261e" stroke="none" stroke-width="0" stroke-linecap="butt"/><path d="M8.83279,413.89156l-25.53784,-69.88682l553.02011,10.48804l170.35229,30.5173z" data-paper-data="{&quot;index&quot;:null}" fill="#0e1410" stroke="none" stroke-width="0" stroke-linecap="butt"/><path d="M641.50236,173.69655c-1.38071,0 -2.5,-1.11929 -2.5,-2.5c0,-1.38071 1.11929,-2.5 2.5,-2.5c1.38071,0 2.5,1.11929 2.5,2.5c0,1.38071 -1.11929,2.5 -2.5,2.5z" data-paper-data="{&quot;index&quot;:null}" fill="#252525" stroke="none" stroke-width="0.5" stroke-linecap="butt"/><path d="M-330.13427,57.50003c0,-6.90356 5.59644,-12.5 12.5,-12.5c6.90356,0 12.5,5.59644 12.5,12.5c0,6.90356 -5.59644,12.5 -12.5,12.5c-6.90356,0 -12.5,-5.59644 -12.5,-12.5z" fill="#262429" stroke="none" stroke-width="0.5" stroke-linecap="butt"/><path d="M151.86504,353.5744v-314h230.8552v314z" fill="#000000" stroke="none" stroke-width="0" stroke-linecap="butt"/><g><path d="M274.13021,353.60318v-324h221v324z" fill="#151f19" stroke="none" stroke-width="0" stroke-linecap="butt"/><path d="M310.7775,344.43907v-295.30769" fill="none" stroke="#0e1410" stroke-width="5" stroke-linecap="round"/><path d="M348.85442,345.41029v-295.30769" fill="none" stroke="#0e1410" stroke-width="5" stroke-linecap="round"/><path d="M386.93135,50.1026v295.30769" fill="none" stroke="#0e1410" stroke-width="5" stroke-linecap="round"/><path d="M425.00827,50.1026v295.30769" fill="none" stroke="#0e1410" stroke-width="5" stroke-linecap="round"/><path d="M463.08519,345.41029v-295.30769" fill="none" stroke="#0e1410" stroke-width="5" stroke-linecap="round"/></g><g><path d="M31.45507,354.5744v-324h221v324z" fill="#151f19" stroke="none" stroke-width="0" stroke-linecap="butt"/><path d="M58.87159,50.1026v295.30769" fill="none" stroke="#0e1410" stroke-width="5" stroke-linecap="round"/><path d="M96.94851,50.1026v295.30769" fill="none" stroke="#0e1410" stroke-width="5" stroke-linecap="round"/><path d="M135.02544,345.41029v-295.30769" fill="none" stroke="#0e1410" stroke-width="5" stroke-linecap="round"/><path d="M173.10235,50.1026v295.30769" fill="none" stroke="#0e1410" stroke-width="5" stroke-linecap="round"/><path d="M211.17928,50.1026v295.30769" fill="none" stroke="#0e1410" stroke-width="5" stroke-linecap="round"/></g></g></g></svg>