<svg version="1.1" xmlns="http://www.w3.org/2000/svg" xmlns:xlink="http://www.w3.org/1999/xlink" width="1542.38871" height="1597.06382" viewBox="0,0,1542.38871,1597.06382"><g transform="translate(330.13427,859.41024)"><g data-paper-data="{&quot;isPaintingLayer&quot;:true}" fill-rule="nonzero" stroke="none" stroke-linecap="butt" stroke-linejoin="miter" stroke-miterlimit="10" stroke-dasharray="" stroke-dashoffset="0" style="mix-blend-mode: normal"><path d="M122.0558,601.52493c0,0 -178.05421,-143.82347 -214.6925,-256.78054c-36.85791,-113.63417 -5.80003,-423.00533 -5.80003,-423.00533l1090.19865,-781.14931l220.49253,679.78586z" data-paper-data="{&quot;index&quot;:null}" fill="#1c261a" stroke-width="0"/><path d="M7.92686,731.92862c-95.04932,65.5722 -111.37328,-453.7773 -111.37328,-453.7773l660.61565,-201.46596l13.20005,325.90345c0,0 -364.21572,192.58808 -562.44242,329.33981z" data-paper-data="{&quot;index&quot;:null}" fill="#10140e" stroke-width="0"/><path d="M641.50236,173.69655c-1.38071,0 -2.5,-1.11929 -2.5,-2.5c0,-1.38071 1.11929,-2.5 2.5,-2.5c1.38071,0 2.5,1.11929 2.5,2.5c0,1.38071 -1.11929,2.5 -2.5,2.5z" data-paper-data="{&quot;index&quot;:null}" fill="#252525" stroke-width="0.5"/><path d="M-330.13427,57.50003c0,-6.90356 5.59644,-12.5 12.5,-12.5c6.90356,0 12.5,5.59644 12.5,12.5c0,6.90356 -5.59644,12.5 -12.5,12.5c-6.90356,0 -12.5,-5.59644 -12.5,-12.5z" fill="#262429" stroke-width="0.5"/><path d="M313.29423,159.73261v-203.88714h203.06169v203.88714z" fill="#10140e" stroke-width="0"/></g></g></svg>