<svg version="1.1" xmlns="http://www.w3.org/2000/svg" xmlns:xlink="http://www.w3.org/1999/xlink" width="404.53087" height="407.79194" viewBox="0,0,404.53087,407.79194"><g transform="translate(-14.23996,-13.93773)"><g data-paper-data="{&quot;isPaintingLayer&quot;:true}" fill-rule="nonzero" stroke="none" stroke-linecap="butt" stroke-linejoin="miter" stroke-miterlimit="10" stroke-dasharray="" stroke-dashoffset="0" style="mix-blend-mode: normal"><g><path d="M337.17439,391.45365c0.85086,3.40342 -1.6439,4.79947 -2.74842,5.24056c-0.18517,0.32906 -0.38181,0.65974 -0.59058,0.99259c-1.23141,1.96331 -3.09187,3.46027 -4.48748,5.31046c-0.90823,1.20406 -1.32689,2.77283 -2.39209,3.84055c-2.35195,2.35751 -5.3963,3.94012 -7.78767,6.25764c-0.85045,0.35955 -7.1927,3.0842 -8.26855,3.37772c-5.99379,1.63522 -12.44388,1.5755 -18.51032,2.87285c-11.63442,2.4881 -23.55371,2.20255 -35.50058,2.20255c-7.43268,0 -15.06997,0.41199 -22.49687,-0.00682c-6.74442,-0.38034 -7.47815,-1.09198 -14.42874,-2.14461c-4.25865,-0.64495 -8.60325,-0.43853 -12.90476,-0.66005c-7.48877,-0.38565 -14.74162,-2.17193 -22.21106,-2.85366c-3.84717,-0.88117 -7.63155,-2.18382 -11.16447,-3.94328c-5.64571,-2.81167 -10.93756,-4.41555 -14.52901,-10.28477c-1.85639,-3.03375 -1.73123,-7.26675 -1.2599,-11.18994c-0.14364,-0.71772 -0.09456,-1.54373 0.33167,-2.44447c0.15804,-1.08049 0.31597,-2.10789 0.43383,-3.04531c0.40738,-3.24035 0.03502,-6.94126 0.74855,-10.11936c0.10829,-0.48232 2.73214,-7.10265 3.07649,-7.90584c1.54765,-3.60975 3.24041,-7.13812 4.94328,-10.65899c-0.73287,-0.7453 -1.26519,-1.87855 -1.05095,-3.59245c0.45855,-3.66839 3.57719,-3.91667 4.632,-3.8941c1.18355,-2.54505 2.32317,-5.11317 3.36897,-7.73164c0,0 0.08318,-0.20795 0.25887,-0.51205c-0.58302,-0.16942 -1.16703,-0.33427 -1.75268,-0.49144c-15.34363,-4.27171 -32.91431,-11.87399 -44.01621,-23.86074c-1.23938,-1.33816 -2.00155,-3.05098 -3.06461,-4.53308c-3.86896,-5.39404 -8.59083,-10.07617 -11.61115,-16.07479c-0.94271,-1.87233 -1.41223,-3.94982 -2.22661,-5.88143c-2.03812,-4.83415 -5.52001,-11.55442 -7.1456,-16.49288c-2.15942,-6.56023 -2.0082,-13.54108 -2.93088,-20.31421c-0.09316,-0.68383 -0.19262,-1.36672 -0.29689,-2.04891c-9.5604,2.15922 -18.17445,2.35505 -28.35515,1.56114c-3.4305,-0.93167 -11.24931,-2.58516 -14.53116,-5.02759c-4.16926,-3.10286 -5.53245,-9.06481 -9.56366,-12.08222c-0.22647,-0.16952 -0.50412,0.27847 -0.78257,0.32835c-1.28939,0.23096 -2.66737,0.05697 -3.89653,0.50979c-5.60527,2.06495 -11.52197,7.12117 -17.82742,2.96574c-7.08702,-4.67052 -7.11904,-15.71949 -8.26367,-22.96879c-1.20513,-7.63251 -2.69173,-15.41835 -3.52903,-23.10071c-1.06482,-9.76984 -0.50337,-19.47991 0.04229,-29.24869c0.83369,-2.91553 3.4919,-12.27826 3.88481,-13.10784c1.27622,-2.69453 3.37788,-4.91398 5.08253,-7.36008c3.53596,-5.0739 7.55729,-9.83521 11.92629,-14.21234c9.63115,-9.6491 19.44788,-19.43875 30.94295,-26.94365c0.42133,-0.27508 16.36869,-8.8285 16.66263,-8.93188c3.07358,-1.08099 6.38065,-1.33435 9.59767,-1.85035c2.06858,-0.33179 4.15231,-0.74641 6.2465,-0.69843c-0.12855,-0.15529 -0.20837,-0.32052 -0.17123,-0.51434c0.59655,-3.11278 1.99243,-6.01775 2.95275,-9.03819c1.23361,-3.87997 2.26231,-8.55869 3.58325,-12.14654c2.00796,-5.45392 4.80093,-10.58584 7.20776,-15.87586c5.05635,-9.20306 9.90812,-19.4373 18.28083,-26.26446c10.86586,-8.86009 25.88682,-11.66511 39.42334,-12.27504c21.22651,-0.95641 45.68798,-2.61201 63.57771,10.05634c5.50871,0.24336 11.49188,1.82375 16.29252,3.91354c1.86388,0.81137 3.87846,1.48606 5.39976,2.83441c0.70769,0.62723 1.30056,1.35977 1.84731,2.13458c3.99286,-2.09608 8.05592,-4.02172 12.61033,-5.22028c1.40665,-0.37018 2.90205,-0.20316 4.35413,-0.28799c8.29364,-0.48457 16.22075,-0.52895 24.48828,0.63597c6.70109,0.9442 11.62325,1.42591 18.18968,3.25105c6.74542,1.87488 12.59382,5.3555 18.54934,8.85642c12.74482,7.49199 24.88461,14.47388 35.8913,24.46917c3.9731,3.97198 7.86183,8.03012 11.91756,11.9177c2.04323,1.95851 4.55481,3.48297 6.24406,5.75387c1.92544,2.58842 2.93276,5.74719 4.4349,8.60216c2.6697,5.07401 5.38662,10.1668 7.32591,15.56235c6.14187,17.08802 4.32168,35.66524 3.72256,53.38861c-0.28173,8.33425 -0.03561,16.52331 -0.71891,24.85375c-0.61758,7.52929 -1.88105,15.06765 -2.81802,22.56269c-1.94927,17.54784 -5.33559,34.63184 -10.7494,51.47876c-4.69201,14.60076 -14.44479,28.22251 -22.86171,40.84869c-6.31669,9.47563 -12.26755,19.76984 -21.29041,27.03509c-7.00306,5.63891 -8.61301,5.67062 -16.7954,9.18772c-2.75847,0.77288 -5.51356,1.57294 -8.26984,2.37515c0.82959,1.62145 1.60958,3.18204 1.85547,3.79371c0.62697,1.55963 0.72058,3.37388 1.67822,4.75535c3.03203,4.37397 5.04071,8.29929 7.30412,13.15407c1.77048,3.79748 3.84436,6.79364 4.5654,10.98318c0.62879,3.65351 0.0576,8.19852 0.0576,11.93835c0,2.48884 -0.11653,4.74184 -0.53877,6.91256c0.16172,0.32685 0.2993,0.69974 0.40557,1.12482zM189.36957,407.38731c-1.07176,-0.27382 -2.18216,-0.31985 -3.29565,-0.35119c0.04924,0.01076 0.0985,0.02138 0.14778,0.03188c1.12838,0.10217 2.25205,0.23212 3.37256,0.3799c-0.07464,-0.02115 -0.14953,-0.04139 -0.22469,-0.06059zM174.4991,394.32084c2.35892,1.37645 7.034,3.03469 9.77454,3.65508c2.36859,0.53619 4.88781,0.17475 7.24659,0.75254c12.22784,2.99522 26.2027,4.07738 38.9094,4.07738c14.95288,0 29.63475,-0.60203 44.45555,-2.08275c5.79933,-0.5794 11.56578,-1.34527 17.38461,-2.08669c1.6341,-0.20822 3.32932,-0.09017 4.91129,-0.54955c1.59344,-0.4627 2.88439,-1.71 4.47671,-2.17653c1.02781,-0.30113 2.15818,0.11416 3.21213,-0.07621c3.66644,-0.66226 7.76607,-2.19574 11.29678,-3.37265c4.12325,-1.03361 7.96466,-2.45647 12.05877,-3.3931c0.09146,-0.28537 0.17209,-0.57959 0.24068,-0.88379c0.34966,-1.55073 -0.0805,-3.17864 -0.0805,-4.76828c0,-3.2909 0.57059,-7.27192 0.0576,-10.50922c-0.37702,-2.3792 -3.13593,-7.12455 -3.85244,-8.65843c-0.75175,-1.60933 -2.61999,-6.43565 -3.79985,-8.39895l-3.23228,1.58655c-5.6988,1.46406 -11.33184,1.29827 -16.96733,2.32394c-4.17149,0.75923 -7.80233,2.15755 -12.20026,2.14035c-13.43103,2.783 -27.0785,0.73665 -40.64651,0.01617c-10.94685,-0.58129 -21.9819,0.52155 -32.93303,0.00168c-12.86049,-0.6105 -25.75764,-1.95529 -38.5587,-3.50103c-0.94373,1.94082 -1.89015,3.88697 -2.81823,5.8582c-1.55725,3.30756 -4.43342,8.4632 -5.2657,12.26796c-0.65052,2.97385 -0.2747,6.46803 -0.65442,9.52226c-0.0843,0.678 -0.16743,1.33451 -0.24545,1.97933c2.3454,2.1952 4.52366,4.69654 7.23007,6.27574zM310.7521,331.85933c2.10062,-2.10062 4.20125,-1.40347 5.3703,-0.70327c3.67814,-1.06804 7.35245,-2.14388 11.03638,-3.15698c6.78157,-2.89629 8.3348,-2.99203 14.06998,-7.64795c8.29734,-6.73591 13.72358,-16.36714 19.55018,-25.10648c7.98802,-11.98127 17.46868,-25.00571 21.87902,-38.88916c5.15888,-16.23982 8.41714,-32.63712 10.29518,-49.53527c0.92706,-7.4172 2.18588,-14.88117 2.79387,-22.33243c0.66301,-8.12546 0.41194,-16.12098 0.68406,-24.25029c0.5583,-16.67901 2.50469,-34.33951 -3.2923,-50.43136c-1.77385,-4.92402 -4.34023,-9.53017 -6.74576,-14.17839c-1.25114,-2.41758 -1.99773,-5.13427 -3.61983,-7.32033c-1.40743,-1.89674 -3.58453,-3.07929 -5.3009,-4.7018c-4.08466,-3.86131 -7.94976,-7.94847 -11.92375,-11.92361c-10.47308,-9.53327 -22.13042,-16.09737 -34.26656,-23.24112c-5.31505,-3.12863 -10.49358,-6.31248 -16.52497,-7.97924c-5.94957,-1.64415 -10.82288,-2.11764 -16.92726,-2.97869c-7.73312,-1.09079 -15.00147,-0.96709 -22.74792,-0.56233c-1.0271,0.05367 -2.08916,-0.1397 -3.08297,0.12518c-4.20761,1.12145 -8.02948,3.02772 -11.79522,5.07537c-0.29273,0.41148 -0.69209,0.81538 -1.22613,1.19684c-0.96321,0.68801 -1.85339,0.93787 -2.64148,0.93368c-1.89898,1.04325 -3.81241,2.06633 -5.78257,2.98678l-0.13377,0.51429c0,0 -3.15438,3.15439 -6.30877,0c-3.15438,-3.15439 0,-6.30877 0,-6.30877l2.67217,-2.29165c0.90992,-0.42339 1.80551,-0.8621 2.691,-1.3105c-1.53373,-0.80955 -5.51755,-2.08835 -6.15973,-2.26019c-0.871,-0.23307 -1.73224,-0.51148 -2.59345,-0.78926c-0.13187,0.21825 -0.28956,0.43819 -0.47636,0.65874c0.83594,0.83826 1.45097,1.79875 1.65919,2.95762c0.45681,2.54253 -3.419,3.95228 -5.55805,5.4006c-0.16282,0.11024 -0.35571,0.21744 -0.57317,0.32154c0.41767,0.46971 0.81392,0.95419 1.15705,1.47396c3.17122,4.80382 4.03583,10.58514 6.13903,15.78914c1.73375,6.10795 3.92504,14.36473 2.22496,20.70659c-2.33876,8.72428 -8.49286,12.63 -15.94154,16.70767c-12.75769,6.984 -27.38539,11.38221 -41.35634,15.15612c-5.67024,1.53168 -11.46735,2.55957 -17.24236,3.63051c-1.08009,0.2003 -2.43263,0.08624 -3.17014,0.90037c-0.44292,0.48893 0.60166,1.2071 0.66624,1.86365c0.27735,2.81995 -0.49003,5.70249 -0.04312,8.50058c0.25561,1.60029 1.07568,3.07196 1.36199,4.66705c0.94847,5.28395 1.35586,10.5766 -0.64045,15.77198c-1.19785,3.1174 -3.42634,5.73344 -5.13951,8.60015c-7.01053,9.10832 -15.08453,17.78298 -23.70409,25.43085c-3.50601,3.11078 -7.91652,5.04084 -11.64591,7.87997c-0.23274,0.17718 0.49144,0.41078 0.52784,0.701c0.1455,1.16006 0.00016,2.33828 0,3.50742c-0.00036,2.61121 0.04884,5.2229 -0.00154,7.83363c-0.16577,8.58907 -0.21429,18.9328 -2.35306,27.31055c-0.36855,1.44364 -1.4934,2.57944 -2.2864,3.84082c-1.74812,2.78063 -3.01867,5.95595 -5.33597,8.28361c-3.55957,3.57548 -5.85029,4.92348 -8.72686,5.88342c0.1667,1.04453 0.32409,2.09045 0.46684,3.13855c0.84862,6.23044 0.57628,12.81179 2.5961,18.82448c2.33416,6.94844 5.6086,14.54856 8.86642,21.11785c2.74267,5.53049 7.29848,9.81552 10.83641,14.7906c0.89739,1.26193 1.49931,2.74479 2.54729,3.88475c6.44535,7.01108 15.44025,11.03994 23.82049,15.04937c5.09987,2.43997 10.3777,4.59495 15.83117,6.08549c4.1802,1.12184 8.26404,2.69086 12.53728,3.3779c16.59869,2.66871 33.60348,3.10619 50.36226,3.80543c16.97048,0.70808 35.16807,1.84968 51.95206,-1.02483c6.69349,-1.14636 13.27585,-2.8376 19.82227,-4.67873c0.21015,-0.35732 0.48911,-0.71941 0.85119,-1.0815zM222.54785,42.66732c-0.32671,-1.63357 0.07862,-2.77909 0.71482,-3.57328c0.16841,-0.65609 0.52437,-1.32393 1.18847,-1.91309c-0.32772,-0.55684 -0.54908,-1.26439 -0.58253,-2.16339c-7.13375,1.22904 -9.01764,0.92824 -15.85055,3.28107c-10.92662,3.76243 -20.52017,9.97272 -29.70943,16.84009c-10.28234,7.68426 -20.09624,16.3311 -28.21202,26.26142c-9.93227,12.10812 -16.26549,25.38006 -22.99566,39.42467c-1.76373,3.68057 -4.13201,7.10153 -5.45003,10.9642c-5.23399,15.33904 -8.12804,31.38042 -10.25743,47.35509c-1.69475,12.71402 -3.28945,24.8036 -3.41797,37.65271c-0.0583,5.72351 -0.83586,11.83826 -0.07309,17.49155c0.23056,1.70877 0.5006,3.41167 0.78717,5.11211c1.50226,-0.83563 2.83938,-1.81041 3.91023,-2.94105c1.83179,-1.93406 2.75365,-4.56132 4.17703,-6.81297c0.44053,-0.69689 1.23639,-1.22468 1.41305,-2.02999c1.6876,-7.69325 1.7072,-16.78518 1.85585,-24.59943c0.07042,-3.70149 -0.23322,-7.41159 -0.00154,-11.1065c0.10303,-1.64316 -0.4749,-3.60509 0.52785,-4.91089c3.47199,-4.52125 9.35049,-6.56742 13.60759,-10.35868c8.04742,-7.16678 15.69511,-15.26016 22.24983,-23.78694c4.01211,-6.45884 5.88102,-9.99469 4.38503,-17.60327c-1.03489,-5.26347 -1.80445,-9.43037 -1.48707,-14.89183c0.12741,-2.19229 -0.6779,-4.81763 0.66625,-6.55418c4.3169,-5.57725 11.43635,-4.93625 17.3019,-6.18178c8.00379,-1.69958 15.96221,-4.36303 23.71016,-6.94421c8.06613,-2.68718 16.57261,-5.59652 24.06203,-9.69648c4.50298,-2.46509 10.31821,-5.39774 11.5425,-10.93151c1.07502,-4.85907 -0.6466,-11.12833 -1.98396,-15.7707c-1.7318,-4.37065 -2.40551,-9.7007 -5.08474,-13.67329c-1.06765,-1.58305 -2.44341,-2.96047 -3.63192,-4.45669c-1.29871,-0.23688 -2.87408,-1.04409 -3.36182,-3.48276zM170.90022,23.49504c-11.50985,0.50116 -24.9055,2.64991 -34.16728,10.2659c-7.33011,6.02758 -11.51217,15.28789 -15.95626,23.3591c-2.26978,4.99843 -4.92674,9.83744 -6.82198,14.98954c-1.44471,3.92739 -2.15418,7.79421 -3.43161,11.704c-0.85286,2.61035 -1.94521,5.14577 -2.65914,7.79749c-0.49407,1.83511 0.32898,4.21859 -0.95351,5.62106c-1.50148,1.64196 -4.10782,1.76871 -6.27289,2.28143c-4.68394,1.10925 -9.74494,0.5317 -14.28053,2.14361c-2.58693,0.91937 -4.81193,2.64491 -7.22621,3.95208c-4.99152,2.70259 -9.78739,5.81261 -14.25874,9.30922c-8.23476,6.43961 -15.37149,13.11212 -22.78462,20.51087c-4.01053,4.00273 -7.66457,8.38859 -10.92693,13.02142c-1.4397,2.04449 -3.28332,3.84971 -4.35106,6.11081c-1.59266,3.37266 -2.04134,7.17532 -3.13005,10.74269c-0.4394,8.96554 -0.94034,17.90889 0.04229,26.87022c0.82356,7.51069 2.28479,15.12312 3.46287,22.58427c0.84998,5.38323 0.41677,12.64656 4.38606,16.92756c0.72775,0.7849 2.17833,-0.11761 3.16776,-0.52594c4.62071,-1.90692 12.18877,-6.93456 17.81788,-4.08801c5.74508,2.90518 6.75995,9.58557 11.48093,13.17129c1.49344,1.13431 10.56868,3.34813 10.72236,3.39025c5.58127,0.42239 11.20252,0.43274 16.79125,0.12416c2.51067,-0.13863 5.56028,-0.52301 8.62534,-1.23966c-0.42793,-2.462 -0.83764,-4.92663 -1.15736,-7.4044c-0.77143,-5.97865 -0.02609,-12.37279 0.03526,-18.40798c0.13648,-13.19408 1.74679,-25.63488 3.48855,-38.68557c2.22544,-16.67479 5.2557,-33.46213 10.78716,-49.45001c1.40996,-4.07528 3.86192,-7.7121 5.72528,-11.60103c7.03983,-14.69239 13.76186,-28.54669 24.14071,-41.22429c8.60944,-10.48004 18.89756,-19.62262 29.77115,-27.75252c9.93295,-7.42661 20.35739,-14.08997 32.17323,-18.13901c6.51455,-2.2324 8.7332,-2.31949 14.06445,-3.12203c-14.88596,-5.53732 -33.18913,-3.89467 -48.30435,-3.23652zM99.90547,91.39095c0.11229,0.20284 0.16675,0.33452 0.10527,0.18477c-0.02643,-0.06437 -0.06252,-0.12569 -0.10527,-0.18477zM203.11763,409.45602c-0.37723,-0.05769 -0.75598,-0.10293 -1.1359,-0.13884c0.37832,0.04858 0.75694,0.09498 1.1359,0.13884z" fill="#000000" stroke-width="0.5"/><path d="M174.44769,394.33135c-2.7064,-1.5792 -4.88542,-4.08541 -7.23082,-6.2806c0.07802,-0.64481 0.16103,-1.30257 0.24532,-1.98058c0.37972,-3.05423 0.00374,-6.55462 0.65426,-9.52847c0.83228,-3.80476 3.70946,-8.96896 5.2667,-12.27653c0.92808,-1.97122 1.87556,-3.92169 2.81929,-5.8625c12.80106,1.54574 25.70213,2.88082 38.56263,3.49132c10.95113,0.51987 22.03198,-0.61105 32.97884,-0.02976c13.56801,0.72047 27.26432,2.79853 40.69536,0.01552c4.39793,0.01719 8.02977,-1.37865 12.20126,-2.13788c5.6355,-1.02568 11.26941,-0.85735 16.96821,-2.32139l3.23218,-1.58691c1.17987,1.9633 3.04964,6.79559 3.8014,8.40492c0.71652,1.53388 3.47625,6.28518 3.85327,8.66438c0.51299,3.2373 -0.05751,7.22515 -0.05751,10.51606c0,1.58965 0.42991,3.22063 0.08026,4.77136c-0.06859,0.3042 -0.14929,0.59901 -0.24075,0.88437c-4.09411,0.93663 -7.93609,2.36309 -12.05932,3.3967c-3.53072,1.17691 -7.63147,2.71508 -11.29791,3.37734c-1.05395,0.19037 -2.18458,-0.22406 -3.21239,0.07708c-1.59232,0.46653 -2.88438,1.71704 -4.47782,2.17975c-1.58196,0.45937 -3.27811,0.34361 -4.91221,0.55183c-5.81883,0.74142 -11.5923,1.51898 -17.39163,2.09838c-14.8208,1.48072 -29.57516,2.09214 -44.52803,2.09214c-12.7067,0 -26.69979,-1.10715 -38.92763,-4.10237c-2.35878,-0.57778 -4.87874,-0.21867 -7.24732,-0.75486c-2.74054,-0.62039 -7.41668,-2.28288 -9.7756,-3.65933z" data-paper-data="{&quot;noHover&quot;:false,&quot;origItem&quot;:[&quot;Path&quot;,{&quot;applyMatrix&quot;:true,&quot;segments&quot;:[[[352.97136,771.94871],[0,0],[4.49472,2.6227]],[[371.59592,778.91315],[-5.22186,-1.1821],[4.51314,1.02166]],[[385.40368,780.34705],[-4.49446,-1.10092],[23.29912,5.70714]],[[459.54224,788.11615],[-24.21154,0],[28.49144,0]],[[544.24852,784.14765],[-28.23978,2.82138],[11.05014,-1.104]],[[577.37342,780.17163],[-11.08728,1.41272],[3.11364,-0.39674]],[[586.73146,779.12451],[-3.0143,0.8753],[3.03616,-0.88164]],[[595.26146,774.97731],[-3.03404,0.88894],[1.9584,-0.57378]],[[601.3819,774.83209],[-2.00822,0.36274],[6.9861,-1.26188]],[[622.90696,768.40579],[-6.72748,2.2425],[7.8565,-1.96946]],[[645.88392,761.94053],[-7.80098,1.78466],[0.17426,-0.54374]],[[646.34252,760.25655],[-0.1307,0.57962],[0.66624,-2.95478]],[[646.18914,751.17099],[0,3.02894],[0,-6.27054]],[[646.2989,731.14657],[0.97746,6.1684],[-0.71838,-4.53336]],[[638.9584,714.64867],[1.36526,2.92268],[-1.4324,-3.06644]],[[631.7181,698.64519],[2.24814,3.7409],[0,0]],[[625.55926,701.66823],[0,0],[-10.85858,2.78964]],[[593.22944,706.09631],[10.73796,-1.95434],[-7.94842,1.44664]],[[569.98288,710.17457],[8.37988,0.03276],[-25.5917,5.30278]],[[492.5344,710.20539],[25.8527,1.3728],[-20.8583,-1.1076]],[[429.7833,710.20859],[20.86646,0.99056],[-24.50458,-1.16326]],[[356.31296,703.53767],[24.39134,2.94528],[-1.7982,3.69806]],[[350.94306,714.69997],[1.76838,-3.756],[-2.9672,6.30228]],[[340.90972,738.07553],[1.58584,-7.24964],[-1.23952,5.66642]],[[339.66278,756.21939],[0.72352,-5.81958],[-0.16062,1.29188]],[[339.1951,759.99083],[0.14866,-1.22864],[4.46896,4.18276]],[[352.97138,771.94873],[-5.15682,-3.00904],[0,0]]],&quot;closed&quot;:true,&quot;fillColor&quot;:[0,0,0,1]}]}" fill="#ffffff" stroke-width="0.5"/><path d="M310.77135,331.90817c-0.36208,0.36208 -0.64142,0.72433 -0.85157,1.08164c-6.54643,1.84113 -13.13532,3.53441 -19.82881,4.68077c-16.78399,2.8745 -34.99928,1.73409 -51.96976,1.02601c-16.75878,-0.69924 -33.7796,-1.141 -50.37829,-3.80971c-4.27324,-0.68704 -8.36075,-2.25787 -12.54095,-3.37971c-5.45348,-1.49054 -10.7358,-3.64826 -15.83568,-6.08824c-8.38024,-4.00943 -17.38189,-8.04377 -23.82724,-15.05485c-1.04798,-1.13996 -1.65089,-2.62381 -2.54828,-3.88574c-3.53793,-4.97508 -8.09751,-9.26435 -10.84018,-14.79484c-3.25782,-6.5693 -6.5363,-14.17526 -8.87045,-21.1237c-2.01981,-6.01269 -1.75018,-12.59924 -2.5988,-18.82968c-0.14275,-1.0481 -0.30054,-2.09497 -0.46725,-3.13949c2.87657,-0.95994 5.16701,-2.30859 8.72658,-5.88407c2.3173,-2.32766 3.58707,-5.50497 5.33519,-8.28562c0.793,-1.26138 1.91748,-2.39822 2.28603,-3.84186c2.13877,-8.37775 2.18491,-18.73172 2.35068,-27.32078c0.05038,-2.61073 0.00086,-5.22567 0.00122,-7.83688c0.00016,-1.16914 0.14542,-2.34883 -0.00008,-3.50889c-0.0364,-0.29023 -0.76059,-0.52413 -0.52785,-0.70131c3.72939,-2.83913 8.13991,-4.77265 11.64592,-7.88343c8.61956,-7.64788 16.6961,-16.33699 23.70663,-25.44532c1.71317,-2.86671 3.94364,-5.48792 5.14149,-8.60532c1.99631,-5.19538 1.59258,-10.49485 0.64411,-15.7788c-0.28631,-1.59509 -1.10549,-3.06811 -1.3611,-4.6684c-0.44692,-2.79809 0.32248,-5.68339 0.04513,-8.50334c-0.06457,-0.65655 -1.10885,-1.3751 -0.66593,-1.86405c0.73751,-0.81413 2.09088,-0.70108 3.17097,-0.90138c5.77501,-1.07094 11.57727,-2.10416 17.24752,-3.63584c13.97095,-3.77391 28.61977,-8.18366 41.37746,-15.16766c7.44869,-4.07767 13.61255,-7.98513 15.9513,-16.70941c1.70008,-6.34186 -0.48258,-14.49403 -2.21633,-20.60198c-2.1032,-5.204 -2.96605,-10.98549 -6.13728,-15.78931c-0.34313,-0.51977 -0.73902,-1.00428 -1.15669,-1.474c0.21745,-0.10409 0.39749,-0.31546 0.56031,-0.4257c2.13905,-1.44831 6.01703,-2.85828 5.56022,-5.40082c-0.20822,-1.15888 -0.81444,-2.01477 -1.65038,-2.85304c0.18679,-0.22055 0.33537,-0.54506 0.46724,-0.76331c0.86121,0.27778 1.72332,0.55611 2.59432,0.78919c0.64218,0.17184 4.62809,1.45054 6.16183,2.26008c-0.8855,0.4484 -1.77712,0.99198 -2.68705,1.41538l-2.67118,2.29159c0,0 -3.16144,3.04966 -0.00706,6.20403c3.15439,3.15439 6.31113,-0.00012 6.31113,-0.00012l0.13382,-0.51429c1.97016,-0.92045 3.88575,-1.94353 5.78472,-2.98678c0.78809,0.0042 1.67922,-0.24564 2.64244,-0.93364c0.53404,-0.38146 0.93382,-0.78534 1.22655,-1.19683c3.76574,-2.04765 7.59163,-3.95358 11.79923,-5.07503c0.99381,-0.26488 2.05691,-0.07138 3.08401,-0.12504c7.74645,-0.40475 15.02226,-0.52684 22.75537,0.56395c6.10438,0.86105 10.98301,1.33643 16.93258,2.98058c6.0314,1.66675 11.21538,4.85325 16.53043,7.98188c12.13614,7.14374 23.80437,13.71595 34.27745,23.24922c3.97399,3.97513 7.84284,8.06631 11.9275,11.92764c1.71637,1.62251 3.89489,2.80682 5.30232,4.70356c1.6221,2.18605 2.37022,4.90485 3.62137,7.32244c2.40553,4.64821 4.97461,9.25872 6.74845,14.18273c5.79699,16.09185 3.85628,33.76808 3.29798,50.44709c-0.27212,8.12931 -0.02015,16.13357 -0.68316,24.25904c-0.60799,7.45127 -1.86731,14.92356 -2.79437,22.34076c-1.87805,16.89815 -5.14204,33.31293 -10.30091,49.55274c-4.41034,13.88345 -13.90031,26.92036 -21.88833,38.90163c-5.8266,8.73934 -11.26096,18.37716 -19.5583,25.11307c-5.73518,4.65592 -7.29296,4.75432 -14.07453,7.65062c-3.68392,1.0131 -7.36164,2.09056 -11.03978,3.1586c-1.16906,-0.7002 -3.27131,-1.39668 -5.37193,0.70394z" data-paper-data="{&quot;noHover&quot;:false,&quot;origItem&quot;:[&quot;Path&quot;,{&quot;applyMatrix&quot;:true,&quot;segments&quot;:[[[612.58992,652.93359],[0,0],[4.00256,-4.00256]],[[622.82258,651.59357],[-2.22754,-1.33418],[7.00838,-2.03506]],[[643.85146,645.57821],[-7.0194,1.93038],[12.9217,-5.51864]],[[670.66062,631.00569],[-10.9279,8.87146],[15.80988,-12.8347]],[[707.91184,583.16741],[-11.1021,16.65208],[15.2205,-22.8293]],[[749.60046,509.06741],[-8.40352,26.45374],[9.8298,-30.9436]],[[769.21706,414.68215],[-3.57846,32.198],[1.76644,-14.13284]],[[774.54054,372.12959],[-1.15848,14.19776],[1.2633,-15.48238]],[[775.84396,325.92271],[-0.5185,15.48972],[1.0638,-31.78044]],[[769.57076,229.83003],[11.04568,30.66166],[-3.37992,-9.3823]],[[756.71728,202.81431],[4.58354,8.85678],[-2.38394,-4.6065]],[[749.82,188.86605],[3.09078,4.16534],[-2.68174,-3.61408]],[[739.71958,179.90717],[3.2704,3.09156],[-7.78298,-7.3574]],[[716.99988,157.18775],[7.5721,7.57428],[-19.95556,-18.16484]],[[651.70786,112.90377],[23.12438,13.6118],[-10.12738,-5.96134]],[[620.22092,97.70001],[11.49232,3.17586],[-11.3364,-3.13278]],[[587.96746,92.02437],[11.63138,1.64066],[-14.7348,-2.0784]],[[544.62322,90.95289],[14.7602,-0.77122],[-1.95706,0.10226]],[[538.74888,91.19141],[1.89362,-0.5047],[-8.01724,2.13682]],[[516.27408,100.86209],[7.1753,-3.90162],[-0.55778,0.78404]],[[513.9378,103.14257],[1.01756,-0.72684],[-1.83532,1.31094]],[[508.90468,104.92161],[1.50164,0.008],[-3.61834,1.98782]],[[497.88648,110.61267],[3.75398,-1.75384],[0,0]],[497.6316,111.59261],[[485.61078,111.59261],[6.01042,6.01042],[-6.0104,-6.01042]],[485.61078,99.57179],[[490.70238,95.20525],[0,0],[1.73378,-0.80674]],[[495.82986,92.70821],[-1.68724,0.85438],[-2.9224,-1.54252]],[[484.09302,88.40161],[1.22362,0.32742],[-1.65962,-0.4441]],[[479.15142,86.89775],[1.64096,0.52928],[-0.25126,0.41586]],[[478.24376,88.15293],[0.35592,-0.42024],[1.59282,1.59724]],[[481.4052,93.78843],[-0.39674,-2.20814],[0.87042,4.84458]],[[470.8148,104.07881],[4.07578,-2.75964],[-0.31024,0.21006]],[[469.72268,104.69147],[0.41434,-0.19834],[0.79584,0.895]],[[471.92734,107.49997],[-0.6538,-0.99038],[6.0425,9.15328]],[[483.62474,137.58483],[-4.00746,-9.91578],[3.30352,11.63818]],[[487.86422,177.03949],[3.23936,-12.08388],[-4.4563,16.62338]],[[457.48896,208.87455],[14.19284,-7.76966],[-24.3087,13.30742]],[[378.68796,237.75325],[26.62046,-7.19086],[-10.80416,2.91848]],[[345.8341,244.67087],[11.0038,-2.04058],[-2.05802,0.38166]],[[339.79366,246.38645],[1.40526,-1.55126],[-0.84394,0.93162]],[[341.06312,249.93747],[-0.12304,-1.251],[0.52846,5.37318]],[[340.98096,266.13461],[-0.85156,-5.33152],[0.48704,3.04922]],[[343.57612,275.02727],[-0.54554,-3.0393],[1.80722,10.06812]],[[342.3558,305.07945],[3.8038,-9.89936],[-2.2824,5.93994]],[[332.5629,321.46631],[3.2643,-5.46228],[-13.35798,17.35514]],[[287.39676,369.92265],[16.42384,-14.57238],[-6.6804,5.92732]],[[265.20646,384.93727],[7.10604,-5.40972],[-0.44346,0.3376]],[[266.21222,386.27297],[-0.06936,-0.553],[0.27724,2.2104]],[[266.21222,392.95607],[0.0003,-2.2277],[-0.00068,4.97544]],[[266.20928,407.88239],[0.096,-4.97452],[-0.31586,16.36574]],[[261.72572,459.92033],[4.07524,-15.9631],[-0.70224,2.75074]],[[257.36918,467.23869],[1.511,-2.40346],[-3.3309,5.29826]],[[247.20194,483.02241],[4.41542,-4.43516],[-6.78246,6.81278]],[[230.57364,494.23277],[5.48106,-1.82908],[0.31764,1.99026]],[[231.46316,500.21301],[-0.272,-1.99706],[1.61698,11.87158]],[[236.4098,536.08147],[-3.84858,-11.45668],[4.44754,13.23966]],[[253.30402,576.31975],[-6.2075,-12.51724],[5.22592,10.53788]],[[273.95188,604.50199],[-6.74122,-9.4796],[1.7099,2.4045]],[[278.80552,611.90405],[-1.99684,-2.1721],[12.28106,13.35902]],[[324.19344,640.57935],[-15.96784,-7.63962],[9.71738,4.64916]],[[354.3584,652.17473],[-10.39114,-2.8401],[7.96502,2.13758]],[[378.24712,658.61103],[-8.1423,-1.3091],[31.6274,5.085]],[[474.20814,665.86195],[-31.93244,-1.33234],[32.33582,1.34918]],[[573.1984,663.90923],[-31.98048,5.47712],[12.75388,-2.1843]],[[610.96806,654.99431],[-12.47366,3.50812],[0.40042,-0.68084]],[[612.58994,652.93361],[-0.68992,0.68992],[0,0]]],&quot;closed&quot;:true,&quot;fillColor&quot;:[0,0,0,1]}]}" fill="#584529" stroke-width="0.5"/><path d="M170.92185,23.44723c15.11521,-0.65815 33.43226,-2.29163 48.31822,3.2457c-5.33125,0.80253 -7.61849,0.96903 -14.13303,3.20142c-11.81584,4.04904 -22.23443,10.71651 -32.16738,18.14312c-10.87359,8.1299 -21.15321,17.27664 -29.76266,27.75668c-10.37885,12.6776 -17.07541,26.53493 -24.11524,41.22732c-1.86336,3.88893 -4.27727,7.50104 -5.68723,11.57632c-5.53146,15.98787 -8.58631,32.69944 -10.81174,49.37423c-1.74176,13.05069 -3.35882,25.4892 -3.4953,38.68328c-0.06135,6.03519 -0.80899,12.42877 -0.03756,18.40742c0.31972,2.47777 0.70835,5.04521 1.13628,7.50721c-3.06506,0.71664 -6.11836,1.10018 -8.62903,1.23881c-5.58872,0.30857 -11.21674,0.2959 -16.79801,-0.12648c-0.15368,-0.04212 -9.23329,-2.25803 -10.72673,-3.39234c-4.72098,-3.58572 -5.74212,-10.27004 -11.4872,-13.17523c-5.62911,-2.84655 -13.20091,2.17807 -17.82163,4.08499c-0.98943,0.40833 -2.44061,1.31031 -3.16836,0.52541c-3.96929,-4.28101 -3.5404,-11.54877 -4.39038,-16.93199c-1.17807,-7.46116 -2.64457,-15.08083 -3.46813,-22.59152c-0.98263,-8.96132 -0.48663,-17.91545 -0.04723,-26.88099c1.08871,-3.56737 1.53605,-7.37486 3.12871,-10.74753c1.06775,-2.2611 2.91081,-4.06915 4.35051,-6.11364c3.26236,-4.63284 6.9157,-9.026 10.92623,-13.02873c7.41312,-7.39874 14.55245,-14.08896 22.78721,-20.52857c4.47135,-3.49661 9.2733,-6.61921 14.26482,-9.3218c2.41429,-1.30717 4.64428,-3.03914 7.23121,-3.95851c4.53559,-1.61191 9.60816,-1.04389 14.29211,-2.15314c2.16507,-0.51273 4.77936,-0.64342 6.28084,-2.28538c1.28249,-1.40248 0.46278,-3.78714 0.95684,-5.62225c0.71392,-2.65173 1.81119,-5.18845 2.66405,-7.7988c1.27743,-3.90979 1.99179,-7.77742 3.4365,-11.70481c1.89524,-5.15211 4.55806,-9.99147 6.82784,-14.9899c4.44409,-8.07121 8.63453,-17.33089 15.96463,-23.35847c9.26178,-7.61599 22.67097,-9.7607 34.18082,-10.26186z" data-paper-data="{&quot;noHover&quot;:false,&quot;origItem&quot;:[&quot;Path&quot;,{&quot;applyMatrix&quot;:true,&quot;segments&quot;:[[[173.057,32.68577],[0,0],[-10.96552,0.47746]],[[140.50557,42.46617],[8.82377,-7.25581],[-6.98345,5.74252]],[[125.30392,64.72056],[4.23392,-7.6895],[-2.16244,4.76204]],[[118.80457,79.00121],[1.80561,-4.90845],[-1.37639,3.74165]],[[115.53525,90.1517],[1.21702,-3.72489],[-0.81253,2.4869]],[[113.00187,97.58043],[0.68016,-2.52632],[-0.4707,1.74832]],[[112.09345,102.93566],[1.22184,-1.33615],[-1.43047,1.56431]],[[106.11722,105.1092],[2.06268,-0.48848],[-4.46243,1.05679]],[[92.51205,107.15143],[4.32109,-1.53568],[-2.46459,0.87589]],[[85.62758,110.91661],[2.30011,-1.24535],[-4.75546,2.57478]],[[72.04317,119.78558],[4.25989,-3.33125],[-7.84532,6.13507]],[[50.33609,139.32644],[7.06254,-7.04884],[-3.82086,3.81343]],[[39.92592,151.73205],[3.10808,-4.41374],[-1.37161,1.9478]],[[35.78063,157.55387],[1.01725,-2.15417],[-1.51734,3.21316]],[[32.79861,167.78851],[1.03722,-3.39866],[-0.41862,8.54154]],[[32.8389,193.38797],[-0.93616,-8.53752],[0.78461,7.15549]],[[36.138,214.90418],[-1.12236,-7.1083],[0.80978,5.12864]],[[40.31663,231.0312],[-3.78157,-4.07855],[0.69333,0.74778]],[[43.33458,230.53013],[-0.94264,0.38902],[4.40219,-1.81674]],[[60.30981,226.63545],[-5.3629,-2.71193],[5.47338,2.76779]],[[71.24778,239.18384],[-4.49771,-3.41614],[1.42281,1.08067]],[[81.46305,242.41376],[-0.14641,-0.04013],[5.31732,0.40241]],[[97.4602,242.53205],[-5.32442,0.29398],[2.39193,-0.13207]],[[105.67763,241.35102],[-2.92011,0.68275],[-0.40769,-2.34557]],[[104.575,234.29679],[0.3046,2.36059],[-0.73495,-5.69591]],[[104.60859,216.75937],[-0.05845,5.74977],[0.13003,-12.5701]],[[107.93216,179.90333],[-1.65939,12.43349],[2.12019,-15.8862]],[[118.20917,132.79193],[-5.26986,15.23177],[1.34328,-3.88255]],[[123.66369,121.73954],[-1.77524,3.70501],[6.7069,-13.99755]],[[146.66273,82.46484],[-9.88801,12.07805],[8.20228,-9.98441]],[[175.02593,56.0248],[-10.35935,7.74542],[9.4632,-7.07539]],[[205.67761,38.74363],[-11.25704,3.85755],[6.20646,-2.12682]],[[219.07692,35.76925],[-5.07912,0.76458],[-14.18197,-5.27545]],[[173.057,32.68579],[14.40038,-0.62702],[0,0]]],&quot;closed&quot;:true,&quot;fillColor&quot;:[0,0,0],&quot;strokeWidth&quot;:0.5}]}" fill="#302617" stroke-width="0.25"/><path d="M222.57248,42.62099c0.48774,2.43867 2.0651,3.24699 3.36381,3.48387c1.18851,1.49622 2.56658,2.87509 3.63423,4.45814c2.67923,3.97259 3.35809,9.30653 5.08989,13.67718c1.33736,4.64237 3.06411,10.91668 1.98909,15.77574c-1.22429,5.53376 -7.11826,8.53584 -11.62124,11.00093c-7.48942,4.09996 -15.98887,7.01597 -24.055,9.70315c-7.74795,2.58118 -15.68272,5.25513 -23.68651,6.9547c-5.86555,1.24553 -12.95183,0.59928 -17.26873,6.17653c-1.34415,1.73656 -0.53125,4.35704 -0.65866,6.54933c-0.31738,5.46145 0.47195,9.59558 1.50684,14.85905c1.49599,7.60858 -0.38732,11.09868 -4.39943,17.55753c-6.55472,8.52678 -14.27618,16.69481 -22.32361,23.86159c-4.25711,3.79126 -10.06135,5.76326 -13.53334,10.28451c-1.00275,1.30579 -0.42638,3.26618 -0.52942,4.90933c-0.23168,3.69491 0.06834,7.40186 -0.00208,11.10335c-0.14865,7.81425 -0.17393,16.90226 -1.86153,24.59551c-0.17665,0.80532 -1.02645,1.42314 -1.46699,2.12003c-1.42339,2.25166 -2.34527,4.87889 -4.17706,6.81295c-1.07085,1.13064 -2.40866,2.105 -3.91092,2.94063c-0.28656,-1.70045 -0.55788,-3.40416 -0.78845,-5.11293c-0.76277,-5.65329 0.01081,-11.77096 0.06911,-17.49446c0.12853,-12.84911 1.71298,-24.94975 3.40773,-37.66377c2.12938,-15.97467 5.01448,-32.05142 10.24846,-47.39046c1.31802,-3.86267 3.68915,-7.29594 5.45288,-10.97652c6.73017,-14.04461 13.09336,-27.34743 23.02563,-39.45556c8.11578,-9.93033 17.95292,-18.58073 28.23525,-26.26498c9.18926,-6.86736 18.79679,-13.07467 29.72341,-16.83711c6.83291,-2.35283 8.72261,-2.04952 15.85636,-3.27856c0.03345,0.89901 0.25543,1.60686 0.58315,2.16371c-0.6641,0.58916 -1.02012,1.25696 -1.18854,1.91305c-0.6362,0.79419 -1.04109,1.93994 -0.71437,3.57351z" data-paper-data="{&quot;noHover&quot;:false,&quot;origItem&quot;:[&quot;Path&quot;,{&quot;applyMatrix&quot;:true,&quot;segments&quot;:[[[222.26209,50.95135],[0,0],[-0.31126,-1.55631]],[[222.9431,47.54706],[-0.60611,0.75663],[0.16045,-0.62506]],[[224.07536,45.72444],[-0.63269,0.5613],[-0.31222,-0.53051]],[[223.52038,43.66336],[0.03187,0.85649],[-6.79638,1.17092]],[[208.41944,46.78926],[6.50977,-2.24156],[-10.40987,3.5845]],[[180.11504,62.83294],[8.75468,-6.54259],[-9.79606,7.32085]],[[153.23723,87.8524],[7.73197,-9.4607],[-9.46255,11.5355]],[[131.32909,125.41259],[6.41188,-13.38041],[-1.68032,3.50651]],[[126.1368,135.85827],[1.25569,-3.68],[-4.98646,14.61362]],[[116.36447,180.97383],[2.02868,-15.21919],[-1.6146,12.11274]],[[113.10814,216.84586],[0.12245,-12.24145],[-0.05554,5.45283]],[[113.03851,233.51019],[-0.7267,-5.38593],[0.21966,1.62796]],[[113.78845,238.38054],[-0.27301,-1.62003],[1.43121,-0.79611]],[[117.51376,235.57858],[-1.02021,1.07717],[1.74516,-1.84259]],[[121.49325,229.08781],[-1.35607,2.14517],[0.4197,-0.66393]],[[122.83947,227.15382],[-0.1683,0.76723],[1.60779,-7.32942]],[[124.60755,203.71775],[-0.14162,7.4447],[0.06709,-3.52644]],[[124.60608,193.1365],[-0.22072,3.52017],[0.09816,-1.56545]],[[125.10897,188.45786],[-0.95533,1.24404],[3.30779,-4.30743]],[[138.07303,178.58907],[-4.05578,3.61196],[7.66684,-6.82785]],[[159.27061,155.92707],[-6.24473,8.12353],[3.82237,-6.15339]],[[163.44826,139.1563],[1.42524,7.24875],[-0.98595,-5.01455]],[[162.03152,124.96874],[-0.30237,5.20317],[0.12138,-2.08861]],[[162.66626,118.72452],[-1.28058,1.65443],[4.11274,-5.31349]],[[179.14991,112.83509],[-5.58815,1.18663],[7.62527,-1.6192]],[[201.73876,106.21929],[-7.38153,2.45911],[7.68466,-2.5601]],[[224.66284,96.98138],[-7.13523,3.90606],[4.29002,-2.34851]],[[235.65947,86.56685],[-1.16639,5.27206],[1.02418,-4.62927]],[[233.76934,71.54198],[1.27411,4.42282],[-1.6499,-4.16395]],[[228.92507,58.51533],[2.55252,3.78472],[-1.01716,-1.50818]],[[225.46491,54.26941],[1.1323,1.42546],[-1.23729,-0.22568]],[[222.26208,50.95136],[0.46467,2.32334],[0,0]]],&quot;closed&quot;:true,&quot;fillColor&quot;:[0,0,0],&quot;strokeWidth&quot;:0.5}]}" fill="#302617" stroke-width="0.25"/></g><path d="M292.16041,362.62373c-2.95049,0 -3.94952,-1.95145 -4.28779,-3.27297c-11.46964,3.27415 -23.04747,6.07892 -34.99545,6.07892c-8.51109,-0.01548 -17.41764,-1.56296 -25.65914,-3.64699c-3.63525,-0.91924 -6.84537,-3.12188 -10.4401,-4.18868c-1.02053,-0.30286 -2.19389,0.26137 -3.1917,-0.10959c-1.26149,-0.469 -2.07623,-1.77654 -3.31246,-2.30853c-9.45506,-4.06882 -21.17931,-0.70496 -31.06573,-2.43056c-1.57697,-0.27525 -3.0183,-1.08218 -4.56968,-1.47692c-1.60749,-0.40901 -3.35238,-0.30388 -4.88853,-0.92963c-2.41875,-0.98529 -4.20113,-3.15304 -6.54073,-4.31384c-3.06824,-1.52232 -6.48402,-2.57553 -9.65417,-3.88567c-10.60765,-1.26346 -23.0799,-0.32042 -32.79799,-5.43527c-1.26218,-0.66432 -1.93084,-2.12215 -3.06905,-2.98174c-1.02066,-0.77082 -2.47849,-0.93318 -3.35195,-1.86752c-2.0604,-2.20399 -2.85938,-5.93718 -3.84035,-8.63485c-1.04366,-2.87006 -2.51638,-5.57418 -3.52187,-8.45783c-1.2968,-3.71912 -1.38609,-7.77055 -1.6495,-11.70045c-0.43203,-6.44563 -1.44906,-13.06319 -2.0917,-19.49586c-0.18436,-1.84536 -0.65133,-3.66644 -0.69102,-5.52056c-0.02224,-1.03886 1.01267,-2.16806 0.50698,-3.07581c-0.32199,-0.57797 -1.26617,0.38442 -1.89925,0.57663c-2.2069,-0.58083 -4.53396,-0.81877 -6.6207,-1.74251c-7.42974,-3.28892 -9.39327,-11.77477 -12.02501,-18.45502c-0.47006,-1.19319 -1.4057,-2.22429 -1.62322,-3.48816c-0.37528,-2.18057 -0.09137,-4.42436 -0.11933,-6.63681c-0.06521,-5.16034 -0.12561,-8.12882 2.65492,-12.66895c0.93181,-1.52147 1.44824,-3.51975 2.96821,-4.45401c1.51794,-0.933 3.54773,-0.35472 5.30765,-0.63282c1.44104,-0.22771 3.69872,-1.11164 4.87614,-1.67326c1.77745,-0.84782 2.95903,-2.60267 4.36004,-3.98661c1.16281,-1.14864 2.79167,-1.79782 3.83397,-3.05685c0.61048,-0.73742 0.56577,-1.83288 0.9426,-2.71294c1.06442,-2.4859 2.82874,-5.29977 4.13908,-7.55209c0.44602,-1.88158 1.50778,-3.59301 1.8633,-5.49377c0.60807,-3.2509 -0.47868,-6.76498 -0.76026,-9.9406c-0.33418,-3.76875 -0.3374,-7.4709 -0.70148,-11.22378c-1.31399,-13.54408 0.34637,-27.23043 5.16088,-39.85422c0.63332,-1.66058 0.86502,-3.50653 1.79704,-5.01981c1.66417,-2.70206 4.82998,-4.54774 7.13299,-6.59061c3.51643,-3.11923 7.01176,-5.57701 10.34303,-8.94971c0.01747,-0.01746 7.14405,-7.19659 7.71352,-7.58468c1.04054,-0.70914 2.45971,-0.7045 3.50742,-1.40297c1.0858,-0.72385 1.65512,-2.08251 2.76072,-2.77573c3.76383,-2.35997 8.92953,-2.87336 12.51933,-5.53684c2.99151,-2.21957 5.2501,-5.33114 7.82295,-7.90363c1.05877,-1.05864 2.44456,-1.75143 3.50743,-2.80594c3.30248,-3.27649 5.95796,-7.74133 8.72294,-11.45546c0.51252,-0.68846 1.28965,-1.20467 1.63167,-1.99187c0.55606,-1.27984 0.2673,-2.87744 0.99993,-4.06506c0.61383,-0.99505 2.15707,-1.13191 2.80595,-2.10447c0.44555,-0.6678 -0.01168,-1.62558 0.19946,-2.40011c1.1373,-4.17178 2.80769,-8.45664 4.41548,-12.48159c4.78532,-9.58491 9.99638,-17.83672 16.70461,-26.19317c1.68221,-2.09552 2.49275,-4.91376 4.52504,-6.67184c6.74672,-5.83642 11.23669,-4.84282 19.31711,-4.84282c13.73646,0 27.52603,-0.34335 41.22978,0.73017c3.31314,0.25954 6.69719,0.11602 9.93063,0.88353c0.3533,0.08387 3.94436,2.2231 6.20799,3.58242c1.54891,-0.29324 3.12039,-0.44046 4.80197,-0.26402c2.56188,0.26881 4.90523,1.60023 7.4189,2.16324c0.81573,0.18271 1.67849,-0.15523 2.5074,-0.04707c2.09924,0.27394 6.33396,1.78796 8.11834,2.17272c15.09701,3.25533 29.61291,8.28766 44.46354,12.55959c8.56144,2.46278 18.31105,4.8968 25.87602,9.87918c1.98107,1.30475 3.38119,3.32802 5.07179,4.99205c1.12757,1.5727 5.63943,7.49725 6.41196,9.80875c1.67067,4.99892 0.60056,5.72383 0.94736,10.29563c0.34786,4.58592 1.77136,8.45092 2.73668,12.80087c0.17766,0.80056 -0.32331,1.67523 -0.08138,2.45876c0.8246,2.67061 3.09755,4.66043 4.82474,6.85792c2.88798,3.67432 6.02039,7.35904 7.68679,11.72529c5.15004,13.49401 3.79058,28.60496 6.56876,42.49584c0.04131,7.51111 1.6111,14.59133 2.11538,22.07294c0.6084,9.02633 -1.69912,17.31132 -2.09752,26.2531c-0.27066,6.07491 0.27674,12.89343 -0.77813,18.89686c-0.299,1.70166 -4.23317,10.12859 -4.64223,10.63459c-0.04368,0.05402 -6.42375,3.66137 -6.93225,4.05264c-3.36191,2.58677 -6.96655,6.07947 -9.53016,9.5251c-2.88938,3.88349 -2.76202,10.25377 -3.54685,14.78013c-1.86587,4.37158 -2.52254,8.73661 -4.36852,13.07957c-0.74803,1.75986 -1.50002,3.55087 -2.60693,5.11016c-0.92193,1.2987 -2.48054,2.05586 -3.40216,3.35478c-0.62455,0.88024 -0.6464,2.06952 -1.13082,3.03399c-1.52252,3.0313 -3.33843,5.46964 -5.58276,8.00769c-0.19312,0.21839 -5.97175,5.97836 -6.10769,6.08663c-1.50586,1.19932 -3.13645,2.24226 -4.79804,3.21443c-0.57994,0.33931 -1.41305,0.22641 -1.89064,0.69902c-1.34579,1.33171 -0.81984,2.33842 -0.79787,3.86048c0.05256,3.64113 0.17784,9.02586 -0.8929,12.51649c-1.93687,6.31427 -5.22112,9.28226 -9.17123,14.07937c-1.01594,1.23378 -1.44815,2.91655 -2.58962,4.03521c-0.94917,0.9302 -2.32779,1.28306 -3.49168,1.92459c-4.08048,2.99187 -6.3861,7.69077 -11.84265,8.96474c-1.31247,0.30643 -2.74212,-0.39471 -4.04306,-0.04253c-1.20098,0.3251 -1.981,1.585 -3.1569,1.9916c-5.48062,1.89505 -11.63229,0.83336 -17.30167,2.24765c-3.89569,0.97182 -7.59608,2.70599 -11.38222,4.054c-0.03133,0.13876 -0.0635,0.27705 -0.09654,0.41486l0.13319,1.02252c0,0 0,4.46097 -4.46097,4.46097zM289.13584,344.28947c0.19518,-1.31217 -0.18832,-2.73701 0.30614,-3.96803c0.42165,-1.04976 1.78205,-1.49282 2.29273,-2.50227c0.43341,-0.85671 0.11417,-1.93851 0.4151,-2.85023c0.65553,-1.98603 2.1592,-3.62297 2.80594,-5.61189c1.01806,-3.13087 2.2196,-6.2048 3.54307,-9.21929c0.63062,-1.4364 0.1876,-3.13936 0.46751,-4.68292c1.33455,-7.3593 2.76282,-14.24315 2.76282,-21.82882c0,-3.14245 -0.30013,-6.55151 0.03342,-9.66438c0.49545,-4.62372 1.16058,-10.12538 -1.91914,-14.27855c-1.15411,-1.55636 -3.20465,-2.18188 -4.74772,-3.35369c-9.05082,-6.87321 -22.6843,-4.66585 -33.36114,-4.74141c-6.31125,1.30773 -12.78471,1.13608 -19.01403,2.69813c-1.93783,0.48593 -3.67353,1.62061 -5.61189,2.10445c-1.88684,0.47098 -3.87965,0.36136 -5.78699,0.74091c-6.5531,1.30402 -12.80142,3.92065 -19.03929,6.14573c-4.09679,1.46135 -8.66453,3.08098 -12.85,4.28173c-0.86432,0.24797 -1.87024,-0.04528 -2.67362,0.35857c-0.71529,0.35956 -0.93602,1.34454 -1.60104,1.79027c-2.10636,1.41182 -4.70909,1.9212 -6.51851,3.79325c-2.73203,2.82663 -5.41197,5.39588 -8.19857,8.18969c-3.40813,4.01514 -2.35153,8.03914 -2.37045,13.15906c-0.00925,2.50236 0.00262,5.72508 0.58215,8.0944c1.05205,4.30114 4.09331,8.68728 5.51484,12.98066c0.62788,1.89636 0.39346,4.05143 1.23084,5.86504c0.4756,1.03007 1.56733,1.68754 2.05999,2.70957c1.36576,2.83334 1.74586,6.40061 1.82264,9.55071c5.99822,0.28604 12.22185,0.26711 18.06337,1.29983c2.29504,0.40574 4.60393,0.89511 6.76416,1.76989c0.92166,0.37322 1.36975,1.54763 2.29944,1.90039c0.75503,0.28649 1.64732,-0.34374 2.42018,-0.10958c3.64208,1.10344 6.90975,3.31747 10.6045,4.22915c7.52886,1.85774 15.67165,3.38414 23.44489,3.36786c12.20796,0 24.02458,-3.23222 35.73797,-6.65818c0.15424,-1.85866 0.24852,-3.73045 0.52068,-5.56009zM179.40206,338.33389c-0.55822,-1.0665 -1.67187,-1.79711 -2.14893,-2.90231c-0.23755,-0.55035 -1.14196,-5.47299 -1.57511,-6.76171c-1.53444,-4.5653 -4.53796,-9.05218 -5.70894,-13.67582c-1.29617,-5.11794 -0.84653,-11.18232 -0.82082,-16.45762c0.01426,-2.92626 -0.281,-5.55148 1.16492,-8.29326c0.8848,-1.6778 2.31966,-3.00178 3.47949,-4.50267c1.8337,-1.83015 4.00177,-3.30409 5.83116,-5.13854c2.09306,-2.09888 3.84725,-4.6493 6.37135,-6.20336c1.24664,-0.76755 2.72583,-1.1194 3.94582,-1.92866c0.98799,-0.65538 1.54674,-1.88985 2.60789,-2.41865c1.33211,-0.66384 2.92007,-0.60221 4.34124,-1.04439c4.08433,-1.27079 8.37786,-2.69656 12.4035,-4.13611c6.62961,-2.37072 13.28362,-5.08216 20.24394,-6.48102c1.78987,-0.35972 3.66581,-0.21862 5.43679,-0.66206c1.938,-0.48526 3.67337,-1.62123 5.61189,-2.10445c6.63944,-1.65504 13.54486,-1.60665 20.2692,-2.91376c13.25827,-0.07293 28.34147,-1.86784 39.59345,6.48238c0.97639,0.72459 6.04531,4.49297 6.47606,5.06415c0.30487,0.40425 3.33482,7.68003 3.56117,8.52638c1.79685,6.71875 0.165,13.95601 0.165,20.84364c0,8.01239 -1.43494,15.30934 -2.84906,23.0663c-0.39501,2.16676 -0.1199,4.49496 -0.93546,6.54087c-0.76145,1.91013 -2.03162,3.59288 -2.77031,5.51192c-0.42831,1.11271 -0.31748,2.37866 -0.70148,3.50742c-0.67359,1.97999 -2.13896,3.62967 -2.80595,5.61189c-0.45501,1.35223 -0.35533,2.88579 -0.98788,4.16462c-0.37921,0.76668 -1.54572,0.93571 -1.91618,1.70665c-0.24141,0.50239 0.35547,1.08868 0.30615,1.64386c-0.03982,0.44828 -0.0785,0.90068 -0.11718,1.3561c2.61331,-1.01833 5.22829,-2.04332 7.94255,-2.72314c2.74456,-0.68742 5.53311,-1.27104 8.3521,-1.51281c1.61141,-0.1382 6.04364,0.31301 8.01758,-0.44847c1.38386,-0.53385 2.42762,-1.8247 3.85796,-2.21732c1.40631,-0.38603 2.9333,0.1785 4.37478,-0.04253c2.56181,-0.39281 4.05208,-3.6366 5.58689,-5.12613c1.08575,-1.05372 2.41004,-1.82987 3.61505,-2.7448c0.70674,-0.29378 1.58774,-0.33158 2.12021,-0.88135c0.78644,-0.812 0.90677,-2.10208 1.6193,-2.97965c1.21503,-1.49646 2.88374,-2.58153 4.10616,-4.07196c2.61164,-3.18423 3.86982,-7.66539 4.07698,-11.69854c0.15672,-3.05139 -0.86095,-6.26878 0.11072,-9.16556c0.75711,-2.25712 1.77078,-4.50683 3.2917,-6.33839c0.91064,-1.09663 2.50629,-1.36144 3.72125,-2.10692c3.36707,-2.06601 6.10544,-4.59388 8.7359,-7.53462c2.8613,-3.19881 3.58574,-6.63973 5.91318,-10.0029c1.65084,-2.38549 4.12627,-4.27868 5.21468,-6.96777c1.64907,-4.07424 2.28957,-8.08504 4.04932,-12.17393c1.49719,-9.48628 3.19717,-16.64694 10.17717,-23.57584c1.95146,-1.93717 4.02858,-3.75559 6.20823,-5.43189c1.23104,-0.94674 2.60985,-1.69271 3.98758,-2.40941c0.53058,-0.276 1.3593,-0.06615 1.70692,-0.55282c1.28637,-1.80094 2.03615,-4.01364 2.37263,-6.20107c0.8663,-5.63166 0.36107,-11.88552 0.62485,-17.58043c0.39631,-8.55612 2.73257,-16.66108 2.11139,-25.26212c-0.53299,-7.38002 -2.14608,-14.38866 -2.09354,-21.81397c-2.63129,-13.15648 -1.36024,-27.45756 -6.058,-40.27954c-2.70451,-7.38165 -10.13335,-11.80005 -12.74198,-19.29706c-0.34552,-0.99299 0.147,-2.12684 -0.08138,-3.15313c-0.25091,-1.12752 -1.05413,-2.07787 -1.33215,-3.19902c-0.07037,-0.28377 -1.51037,-10.237 -1.54307,-10.65658c-0.18693,-2.39893 0.337,-5.55468 -0.45561,-7.943c-0.89417,-2.69434 -3.16669,-4.71336 -4.81183,-7.02692c-6.91108,-7.07578 -17.32527,-9.39936 -26.60438,-12.06326c-14.66373,-4.20976 -28.99461,-9.18741 -43.89341,-12.41591c-2.47342,-0.53598 -4.80122,-1.73749 -7.31436,-2.03621c-1.02771,-0.12216 -2.0939,0.1761 -3.10449,-0.04707c-2.9086,-0.6423 -5.29392,-2.51005 -8.43215,-2.05739c-0.02505,0.00361 -0.05009,0.00729 -0.07511,0.01106c-1.00975,0.76714 -2.11157,0.85273 -3.01133,0.71894c-0.74876,0.21806 -1.49607,0.44378 -2.25138,0.63054l-5.87769,0.74288c0,0 -4.42652,0.55332 -4.97984,-3.8732c-0.1166,-0.93289 -0.01204,-1.69375 0.22566,-2.31366c-0.97195,-0.01423 -1.94455,-0.02403 -2.91026,-0.08634c-10.66847,-0.68855 -21.28704,-0.70724 -31.97473,-0.70721c-2.87174,0.00001 -5.74348,0 -8.61522,0c-4.57343,0 -9.38473,-1.37525 -12.95126,2.17204c-1.68142,1.67234 -2.41427,4.10078 -3.8928,5.95492c-6.22694,7.80886 -11.0922,15.38487 -15.56376,24.31386c-1.48795,3.71356 -2.78208,7.56675 -4.00236,11.36894c-0.48579,1.51366 -0.38891,3.24962 -1.20351,4.61475c-0.59909,1.00399 -2.17928,1.11745 -2.80595,2.10447c-0.53194,0.8378 0.00693,2.04604 -0.40305,2.94979c-3.27229,7.21348 -10.15026,13.37019 -15.6004,18.82106c-2.91799,2.91839 -5.58265,6.47527 -9.01273,8.93203c-3.88047,2.77934 -8.83109,3.15882 -12.73418,5.68695c-1.12512,0.72878 -1.7358,2.09256 -2.85117,2.83616c-1.04772,0.69848 -2.45076,0.71811 -3.50743,1.40297c-2.5242,1.63602 -4.18922,4.31806 -6.3162,6.44505c-3.52929,3.49317 -7.06664,6.05067 -10.70156,9.28894c-1.78868,1.5935 -4.30242,2.55487 -5.49376,4.63316c-0.5876,1.02508 -0.60158,2.28892 -1.00891,3.39803c-0.83641,2.2774 -2.0158,4.42952 -2.7187,6.75162c-3.13474,10.35583 -2.26448,22.09951 -1.23975,32.66212c0.24838,2.56009 -0.23923,5.15538 0,7.71635c0.38532,4.12471 1.39403,8.29012 0.64271,12.50696c-0.43903,2.46411 -1.71462,4.71091 -2.34561,7.13298c-1.29853,2.3073 -3.09719,5.30211 -4.27876,7.8806c-0.65101,1.42066 -0.90182,3.07005 -1.86335,4.30193c-1.24212,1.59137 -3.16352,2.52347 -4.58386,3.95801c-2.11268,2.1338 -4.19356,4.46065 -6.86375,5.8342c-1.46811,0.75519 -5.88895,2.44795 -7.75061,2.53566c-0.60624,0.02857 -1.13258,-0.82811 -1.70721,-0.63282c-0.369,0.1254 0.31282,0.7984 0.16227,1.15788c-0.39595,0.94538 -1.44042,1.56432 -1.71587,2.55156c-0.52193,1.87067 0.19322,3.88222 0.16186,5.82407c-0.09162,5.67633 1.92895,12.33052 5.42118,16.96504c0.74183,0.98449 1.86346,3.0403 3.25883,3.559c1.47608,0.54871 3.06872,0.70896 4.60307,1.06344c2.17286,0.65987 5.06596,0.23414 6.51859,1.9796c1.18192,1.42017 2.36467,11.28132 2.6219,13.85118c0.65294,6.52317 1.68369,13.24863 2.11723,19.78737c0.11709,1.76595 -0.24928,3.55296 -0.0319,5.30938c0.32132,2.59631 2.27387,6.48479 3.21097,8.73241c1.05323,2.52613 1.95207,5.11606 2.80594,7.71635c0.14839,0.4519 0.07393,1.05022 0.43596,1.35871c0.62085,0.52903 1.6052,0.45195 2.25994,0.93843c0.97884,0.7273 1.47691,2.03781 2.54284,2.63015c2.80342,1.55787 6.49056,1.72095 9.56069,2.19216c6.92049,1.06219 13.80339,1.2915 20.77509,2.19337c3.73523,1.45779 7.80591,2.72905 11.39042,4.53217c2.18584,1.09955 3.80562,3.21705 6.08602,4.10399c1.10624,0.43026 2.37625,0.19163 3.5293,0.47334c1.23126,0.30081 2.35674,0.97647 3.5859,1.27227c-0.01862,-1.81866 -0.1942,-4.06033 -0.97285,-5.54795z" fill="#ffffff" stroke-width="0.5"/><path d="M280.09703,37.04814l5.8795,-0.7425c0.7553,-0.18676 1.50327,-0.41233 2.25202,-0.63038c0.89976,0.13379 2.00244,0.04842 3.01219,-0.71872c0.02502,-0.00377 0.05008,-0.00744 0.07513,-0.01106c3.13822,-0.45267 5.52621,1.41588 8.43481,2.05818c1.0106,0.22316 2.07768,-0.0748 3.10539,0.04736c2.51314,0.29872 4.8432,1.50105 7.31662,2.03703c14.8988,3.22849 29.24164,8.21275 43.90537,12.42251c9.27911,2.6639 19.69947,4.99282 26.61056,12.0686c1.64514,2.31355 3.91931,4.33433 4.81348,7.02867c0.7926,2.38832 0.26988,5.54546 0.45681,7.94439c0.0327,0.41958 1.47443,10.37499 1.5448,10.65876c0.27801,1.12115 1.08185,2.07233 1.33276,3.19985c0.22838,1.0263 -0.26368,2.16079 0.08184,3.15378c2.60862,7.49701 10.04115,11.92151 12.74566,19.30315c4.69776,12.82198 3.43107,27.13483 6.06236,40.29131c-0.05254,7.42531 1.56174,14.44095 2.09472,21.82096c0.62117,8.60104 -1.7149,16.7143 -2.11121,25.27041c-0.26379,5.69492 0.2408,11.95453 -0.62549,17.58619c-0.33648,2.18743 -1.08668,4.40225 -2.37304,6.20318c-0.34762,0.48668 -1.1764,0.27712 -1.70699,0.55312c-1.37773,0.71668 -2.7568,1.46372 -3.98782,2.41047c-2.17965,1.67631 -4.25738,3.49701 -6.20884,5.43419c-6.98,6.92889 -8.68323,14.09803 -10.18043,23.58431c-1.75975,4.08888 -2.40237,8.10361 -4.05144,12.17785c-1.08842,2.68909 -3.56548,4.58484 -5.21632,6.97033c-2.32744,3.36317 -3.05427,6.80735 -5.91557,10.00615c-2.63046,2.94074 -5.37144,5.47164 -8.7385,7.53764c-1.21496,0.74549 -2.81161,1.01134 -3.72224,2.10798c-1.52093,1.83156 -2.53632,4.08292 -3.29342,6.34005c-0.97166,2.89679 0.04443,6.11558 -0.1123,9.16697c-0.20716,4.03316 -1.46803,8.51647 -4.07967,11.7007c-1.22242,1.49043 -2.89261,2.57657 -4.10764,4.07302c-0.71253,0.87757 -0.83365,2.1682 -1.6201,2.98019c-0.53247,0.54978 -1.41407,0.58797 -2.12081,0.88175c-1.20502,0.91494 -2.53051,1.69184 -3.61626,2.74556c-1.5348,1.48952 -3.0271,4.73448 -5.5889,5.1273c-1.44148,0.22103 -2.96955,-0.34292 -4.37585,0.04311c-1.43035,0.39262 -2.47538,1.68412 -3.85923,2.21795c-1.97394,0.76147 -6.40835,0.31127 -8.01975,0.44947c-2.81899,0.24177 -5.61004,0.82639 -8.3546,1.51381c-4.87324,1.22058 -9.43112,3.55528 -14.22922,4.96501c-12.68954,3.72831 -25.4844,7.5335 -38.72718,7.5335c-7.77324,0.01628 -15.92366,-1.51053 -23.45251,-3.36826c-3.69475,-0.91168 -6.96602,-3.12629 -10.60811,-4.22973c-0.77286,-0.23415 -1.66592,0.39591 -2.42094,0.10942c-0.92969,-0.35275 -1.37863,-1.52736 -2.3003,-1.90058c-2.16022,-0.87478 -4.47137,-1.36473 -6.7664,-1.77046c-6.76401,-1.1958 -14.04658,-0.98374 -20.89205,-1.46566c-1.93563,-0.13626 -3.91677,0.41626 -5.82257,0.05138c-1.33285,-0.25518 -2.53102,-1.00751 -3.84931,-1.32957c-1.15305,-0.28169 -2.42402,-0.04355 -3.53025,-0.47382c-2.28041,-0.88694 -3.90219,-3.00553 -6.08805,-4.10508c-3.58452,-1.80312 -7.6584,-3.07636 -11.39363,-4.53415c-6.9717,-0.90187 -13.85894,-1.13442 -20.77943,-2.19661c-3.07012,-0.47121 -6.75915,-0.63595 -9.56257,-2.19381c-1.06593,-0.59233 -1.56477,-1.90355 -2.5436,-2.63085c-0.65473,-0.48648 -1.63955,-0.40985 -2.26041,-0.93887c-0.36204,-0.30849 -0.28782,-0.90706 -0.43621,-1.35896c-0.85387,-2.60028 -1.75422,-5.19177 -2.80745,-7.71789c-0.93711,-2.24761 -2.89134,-6.13801 -3.21266,-8.73432c-0.21738,-1.75643 0.14821,-3.54436 0.03112,-5.31032c-0.43353,-6.53874 -1.46744,-13.26855 -2.12038,-19.79172c-0.25722,-2.56986 -1.44216,-12.43471 -2.62409,-13.85488c-1.45263,-1.74546 -4.34644,-1.32111 -6.5193,-1.98097c-1.53435,-0.35448 -3.12741,-0.51558 -4.60349,-1.06429c-1.39536,-0.51871 -2.51759,-2.57582 -3.25943,-3.56031c-3.49223,-4.63451 -5.5148,-11.29387 -5.42316,-16.9702c0.03135,-1.94185 -0.68432,-3.95511 -0.16239,-5.82576c0.27545,-0.98724 1.31975,-1.60678 1.7157,-2.55216c0.15055,-0.35948 -0.53137,-1.03282 -0.16237,-1.15824c0.57463,-0.1953 1.20227,0.63387 1.80851,0.60531c1.86166,-0.08771 6.18127,-1.75274 7.64938,-2.50795c2.67019,-1.37355 4.75072,-3.70173 6.86341,-5.83554c1.42034,-1.43454 3.34151,-2.36764 4.58363,-3.95901c0.96153,-1.23188 1.21206,-2.88269 1.86306,-4.30335c1.18157,-2.5785 2.97978,-5.576 4.27831,-7.8833c0.631,-2.42207 1.90627,-4.67158 2.34529,-7.13569c0.75131,-4.21684 -0.25759,-8.38732 -0.6429,-12.51202c-0.23923,-2.56096 0.24849,-5.15937 0.00012,-7.71946c-1.02474,-10.5626 -1.89258,-22.31884 1.24215,-32.67467c0.7029,-2.3221 1.88323,-4.47687 2.71964,-6.75429c0.40733,-1.10911 0.42182,-2.37423 1.00942,-3.39931c1.19134,-2.07831 3.70611,-3.04199 5.49479,-4.63549c3.63492,-3.23827 7.1748,-5.8005 10.70409,-9.29367c2.12699,-2.12699 3.79403,-4.81212 6.31822,-6.44814c1.05667,-0.68487 2.4605,-0.70558 3.50822,-1.40407c1.11537,-0.7436 1.72709,-2.10875 2.85221,-2.83751c3.90309,-2.52813 8.85741,-2.91177 12.73787,-5.69113c3.43009,-2.45677 6.09894,-6.01748 9.01693,-8.93587c5.45013,-5.45086 12.33658,-11.61323 15.60886,-18.8267c0.40998,-0.90376 -0.12823,-2.11234 0.40369,-2.95014c0.62667,-0.98702 2.20813,-1.1011 2.80722,-2.10509c0.81459,-1.36513 0.71884,-3.10162 1.20463,-4.61529c1.22028,-3.80219 2.5173,-7.65659 4.00525,-11.37015c4.47156,-8.92898 9.3442,-16.50721 15.57114,-24.31607c1.47852,-1.85415 2.21298,-4.28291 3.8944,-5.95525c3.56653,-3.54729 8.38199,-2.17267 12.95542,-2.17267c2.87174,0 5.74622,-0.00022 8.61796,-0.00022c10.68769,-0.00003 21.31651,0.01907 31.98498,0.70764c0.96571,0.06233 1.93923,0.07225 2.91118,0.08649c-0.23771,0.61991 -0.34224,1.38077 -0.22562,2.31366c0.55332,4.42652 4.98163,3.87353 4.98163,3.87353z" data-paper-data="{&quot;noHover&quot;:false,&quot;origItem&quot;:[&quot;Path&quot;,{&quot;applyMatrix&quot;:true,&quot;segments&quot;:[[[544.67145,83.91391],[1.0543,8.43436],[-0.22219,-1.77754]],[[545.10144,79.50543],[-0.45293,1.18118],[-1.85196,-0.02713]],[[539.55618,79.3409],[1.84008,0.11876],[-20.32787,-1.31199]],[[478.63104,77.99338],[20.36449,-0.00005],[-5.47186,0.00001]],[[462.21547,77.99338],[5.47186,0],[-8.71428,0]],[[437.53794,82.13202],[6.79573,-6.75905],[-3.20379,3.18651]],[[430.12054,93.47861],[2.81721,-3.53291],[-11.8649,14.87912]],[[400.46513,139.8066],[8.52018,-17.01343],[-2.83516,7.07589]],[[392.83897,161.46915],[2.32514,-7.24475],[-0.92564,2.88415]],[[390.54579,170.26218],[1.55214,-2.60115],[-1.14152,1.91301]],[[385.1993,174.27205],[1.19405,-1.88067],[-1.01355,1.59636]],[[384.43132,179.89264],[0.78118,-1.72204],[-6.23507,13.74467]],[[354.70609,215.75457],[10.38476,-10.38617],[-5.55998,5.56073]],[[337.5331,232.7738],[6.53573,-4.68115],[-7.3939,5.29581]],[[313.2692,243.6098],[7.437,-4.81714],[-2.14382,1.38861]],[[307.83654,249.01386],[2.12525,-1.41686],[-1.99634,1.33091]],[[301.15342,251.68711],[2.0134,-1.30496],[-4.80964,3.1173]],[[289.11843,263.9676],[4.05279,-4.05279],[-6.72477,6.65594]],[[268.72751,281.66687],[6.92604,-6.17023],[-3.40819,3.03627]],[[258.25961,290.49498],[2.26999,-3.96003],[-1.11962,1.9532]],[[256.33721,296.96964],[0.77615,-2.11332],[-1.59371,4.33941]],[[251.15696,309.83428],[1.33932,-4.42455],[-5.97298,19.73216]],[[248.79473,372.06917],[-1.95255,-20.12615],[0.47325,4.87805]],[[248.79473,386.77202],[-0.45585,-4.8797],[0.73419,7.85928]],[[250.01935,410.60297],[1.43157,-8.03484],[-0.83653,4.69515]],[[245.54998,424.19426],[1.20232,-4.61505],[-2.47424,4.39636]],[[237.39715,439.21009],[2.25139,-4.91311],[-1.24043,2.70694]],[[233.84669,447.40705],[1.83212,-2.34724],[-2.36676,3.03221]],[[225.11253,454.94871],[2.70635,-2.7334],[-4.02554,4.06578]],[[212.03423,466.0653],[5.08782,-2.61719],[-2.79736,1.43897]],[[197.2661,470.89678],[3.54723,-0.16713],[-1.15513,0.05443]],[[194.01315,469.691],[1.09491,-0.37211],[-0.7031,0.23895]],[[194.32234,471.89723],[0.28687,-0.68495],[-0.75444,1.80134]],[[191.0529,476.75901],[0.52485,-1.8811],[-0.9945,3.56439]],[[191.36132,487.8563],[0.05973,-3.70004],[-0.17459,10.81576]],[[201.69092,520.18173],[-6.65413,-8.83067],[1.4135,1.87586]],[[207.90034,526.96312],[-2.65875,-0.98836],[2.81255,1.04553]],[[216.67111,528.98943],[-2.92359,-0.67544],[4.14021,1.25732]],[[229.09174,532.76139],[-2.76787,-3.32582],[2.25205,2.70602]],[[234.08754,559.15365],[-0.49013,-4.89665],[1.24412,12.42933]],[[238.12173,596.85681],[-0.82607,-12.45903],[0.2231,3.36487]],[[238.06096,606.97338],[-0.4142,-3.34672],[0.61225,4.94703]],[[244.1792,623.61225],[-1.78558,-4.28265],[2.00683,4.81332]],[[249.52569,638.3151],[-1.62698,-4.95463],[0.28275,0.86106]],[[250.35637,640.904],[-0.68983,-0.5878],[1.18299,1.00801]],[[254.66249,642.69209],[-1.24753,-0.92694],[1.86509,1.3858]],[[259.50766,647.70361],[-2.03104,-1.12865],[5.34168,2.96838]],[[277.72473,651.8806],[-5.84986,-0.89786],[13.1864,2.02391]],[[317.30991,656.05988],[-13.28397,-1.71845],[7.11717,2.77771]],[[339.01339,664.69554],[-6.82999,-3.43569],[4.16495,2.09509]],[[350.6098,672.51534],[-4.34513,-1.68999],[2.10785,0.81982]],[[357.33459,673.41724],[-2.19705,-0.53675],[2.5119,0.61367]],[[364.66694,675.9496],[-2.53965,-0.48622],[3.63135,0.69523]],[[375.75841,675.85039],[-3.68818,-0.25965],[13.04349,0.91826]],[[415.55456,678.63898],[-12.88823,-2.27849],[4.373,0.77309]],[[428.44309,682.01136],[-4.11613,-1.66682],[1.75615,0.71115]],[[432.82446,685.63239],[-1.77144,-0.67215],[1.43864,0.54588]],[[437.43591,685.42358],[-1.47262,-0.44616],[6.93968,2.10251]],[[457.64189,693.48187],[-7.04004,-1.73712],[14.3456,3.53976]],[[502.31415,699.89905],[-14.81127,0.03101],[25.23298,0]],[[576.08148,685.54802],[-24.17884,7.10398],[9.14238,-2.68612]],[[603.18516,676.09049],[-9.28554,2.32572],[5.22952,-1.30982]],[[619.09938,673.20796],[-5.37134,0.46068],[3.0704,-0.26333]],[[634.3762,672.35345],[-3.76118,1.45093],[2.63682,-1.01719]],[[641.72723,668.12853],[-2.72541,0.74811],[2.6796,-0.73554]],[[650.063,668.04749],[-2.74662,0.42115],[4.88132,-0.74847]],[[660.70834,658.28009],[-2.92445,2.83816],[2.06881,-2.00777]],[[667.59652,653.0501],[-2.29606,1.74333],[1.34663,-0.55978]],[[671.63641,651.37075],[-1.01459,1.04755],[1.4985,-1.54719]],[[674.72185,645.69327],[-1.35767,1.67214],[2.31514,-2.85138]],[[682.54578,637.9345],[-2.32922,2.83989],[4.97626,-6.06728]],[[690.31412,615.64391],[-0.39471,7.68483],[0.29862,-5.81416]],[[690.52508,598.17971],[-1.85142,5.51959],[1.4426,-4.30076]],[[696.79715,586.10246],[-2.89799,3.48988],[1.73515,-2.08954]],[[703.88767,582.08789],[-2.315,1.42046],[6.41567,-3.93659]],[[720.53318,567.73132],[-5.01212,5.60333],[5.45196,-6.09506]],[[731.80023,548.67164],[-4.43474,6.40824],[3.14555,-4.54535]],[[741.73638,535.39515],[-2.07389,5.12384],[3.14215,-7.76312]],[[749.45202,512.19875],[-3.35306,7.79103],[2.85277,-18.0753]],[[768.84376,467.27699],[-13.29981,13.20243],[3.71834,-3.69112]],[[780.67302,456.92698],[-4.15313,3.19405],[2.34563,-1.80395]],[[788.27101,452.33607],[-2.62515,1.36558],[1.01097,-0.5259]],[[791.52341,451.28271],[-0.66236,0.92732],[2.45105,-3.43153]],[[796.04426,439.46709],[-0.64114,4.16796],[1.65065,-10.73065]],[[797.23485,405.96906],[-0.50262,10.85117],[0.75514,-16.30295]],[[801.25794,357.83422],[1.18359,16.38856],[-1.01556,-14.06201]],[[797.26888,316.26954],[-0.10012,14.14831],[-5.01371,-25.06856]],[[785.72588,239.52027],[8.95119,24.4312],[-5.15322,-14.0651]],[[761.44712,202.75135],[4.97051,14.28492],[-0.65836,-1.89207]],[[761.29207,196.74333],[0.43515,1.95551],[-0.47808,-2.1484]],[[758.75377,190.64786],[0.52973,2.13626],[-0.13408,-0.5407]],[[755.81359,170.34264],[0.0623,0.79948],[-0.35617,-4.57097]],[[754.94546,155.20791],[1.51024,4.55074],[-1.70376,-5.13385]],[[745.77693,141.81871],[3.13467,4.40829],[-13.16848,-13.48229]],[[695.08452,118.83319],[17.68057,5.07584],[-27.9405,-8.02133]],[[611.44933,95.17573],[28.3884,6.15163],[-4.7129,-1.02126]],[[597.51243,91.29592],[4.78858,0.56918],[-1.95822,-0.23276]],[[591.59708,91.20624],[1.92562,0.42522],[-5.5421,-1.22383]],[[575.53034,87.28606],[5.97962,-0.86251],[-0.04773,0.00689]],[[575.38722,87.30714],[0.04768,-0.00717],[-1.924,1.46172]],[[569.64938,88.67702],[1.71443,0.25492],[-1.42669,0.4155]],[[565.35956,89.87847],[1.43917,-0.35587],[0,0]],[554.16011,91.29397]],&quot;closed&quot;:true}]}" fill="#000000" stroke-width="0.5"/><path d="M223.45807,215.72684c0.05244,-1.1738 -0.01199,-2.42853 0.15466,-3.51599c0.24667,-1.60959 1.87518,-6.9135 2.22679,-8.49027c0.21667,-0.97168 0.22743,-2.23003 0.49542,-3.11594c0.77426,-2.55955 1.64134,-2.68076 2.76286,-3.96704c0.23609,-0.27076 2.38349,-3.24016 2.75564,-3.37377c0.92647,-0.33261 1.89752,0.19512 2.83229,-0.01652c4.62939,-1.04814 9.40328,-1.87408 14.13185,-0.33318c0.95227,-0.2094 1.85033,1.59123 2.77461,2.36896c1.27775,1.07514 2.7534,0.09242 3.97044,1.57408c2.78224,3.38719 4.79595,10.34286 6.38055,16.51226c0.59349,2.31066 0.21288,5.35812 0.35177,8.02595c0.30904,5.93604 0.65404,12.02353 0.90809,18.09601c-0.39696,-0.25936 -0.70068,-0.25113 -0.70068,-0.25113l-1.49356,0.03988c-1.58246,0.08455 -2.27761,-0.16896 -3.705,-1.86535c-1.53297,-2.42938 -1.38715,-4.6162 -2.33095,-8.65109c-0.29667,-1.26832 -0.86636,-2.17119 -1.05042,-3.55261c-0.20137,-1.51126 0.05789,-3.13448 -0.05136,-4.69146c-0.21903,-3.12107 -0.98517,-7.58847 -1.80479,-10.06012c-3.16468,-9.54338 -8.1491,-11.40889 -12.6396,-11.34907c-2.63416,0.03509 -5.07773,-0.00174 -7.24952,4.04808c-0.84685,1.57916 -2.47193,6.74016 -2.80396,8.99459c-0.48372,3.28445 -0.45332,7.00094 -0.98789,10.23118c0.1382,8.03633 -0.24069,14.354 -0.90668,21.89598c-0.1044,1.18218 -0.32434,2.2693 -0.4544,3.43266c-0.03034,0.27147 0.07465,1.10733 -0.02104,0.93502c-0.19161,-0.345 -2.44882,-2.11451 -2.46769,-2.55699c-0.37651,-8.82196 -0.33867,-17.99558 -0.56422,-26.87103c0,0 -0.04746,-1.87259 -0.51319,-3.49311z" data-paper-data="{&quot;noHover&quot;:false,&quot;origItem&quot;:[&quot;Path&quot;,{&quot;applyMatrix&quot;:true,&quot;segments&quot;:[[[413.24069,495.87603],[0,0],[0,12.81615]],[[412.8045,534.6234],[-0.54502,-12.74449],[0.02734,0.63921]],[[421.39644,538.39508],[-0.65423,-0.50489],[0.32676,0.25217]],[[421.3899,537.15684],[-0.13328,0.39064],[0.57117,-1.67405]],[[423.32553,532.21605],[-0.48102,1.70215],[3.06874,-10.85918]],[[428.54702,500.60625],[-0.23625,11.60204],[2.20641,-4.64187]],[[433.01488,485.84904],[-2.02943,4.72193],[1.39299,-3.24112]],[[443.8792,472.941],[-3.17371,2.24778],[8.13909,-5.76452]],[[470.23521,467.32669],[-9.42846,-0.04595],[16.07288,0.07833]],[[514.5562,484.22288],[-10.45578,-13.88779],[2.70795,3.59681]],[[520.10682,498.84734],[-0.49987,-4.51195],[0.24937,2.25082]],[[519.86209,505.6367],[-0.58312,-2.18823],[0.53302,2.00024]],[[523.29508,510.81167],[-0.94618,-1.84115],[3.01008,5.85722]],[[530.84207,523.39769],[-5.26419,-3.56198],[4.95317,2.50033]],[[543.74946,526.13809],[-5.66985,0.06397],[0,0]],[549.09595,526.13809],[[551.5799,526.52692],[-1.39675,-0.38883],[-0.35689,-8.77231]],[[549.96873,500.41407],[0.56602,8.57744],[-0.25439,-3.85495]],[[549.44071,488.83611],[1.91345,3.3562],[-5.10886,-8.96096]],[[528.12963,464.81854],[9.6471,4.98998],[-4.21997,-2.18278]],[[514.08015,462.41725],[4.47414,1.59836],[-3.23646,-1.15621]],[[504.38484,458.90948],[3.42638,-0.26725],[-16.77917,-2.39702]],[[453.89767,458.86718],[16.65973,-1.34278],[-3.36393,0.27113]],[[443.77354,458.77749],[3.34524,-0.44602],[-1.34378,0.17917]],[[433.6186,463.53139],[0.86935,-0.38208],[-4.12985,1.81507]],[[423.38046,469.14085],[3.0031,-3.6652],[-1.03944,1.26861]],[[421.32758,473.61229],[0.86363,-1.39425],[-1.40143,2.26249]],[[412.59367,485.76262],[1.02894,-2.3137],[-0.69517,1.56317]],[[411.72158,490.82353],[0.29435,-1.69195],[1.51911,2.35559]]],&quot;closed&quot;:true}]}" fill="#ffffff" stroke-width="0.5"/><path d="M234.03794,327.95442c-0.78399,-4.10007 -1.42912,-8.65252 -2.0429,-13.04297c-0.72833,-7.10121 -1.08091,-14.28436 -1.33396,-21.98075c-0.13212,-0.70464 -0.28271,-1.39544 -0.42659,-2.09028c0.21912,0.21534 0.4809,0.51402 0.61792,0.96701c0.28296,0.93554 0.11666,2.35305 0.37094,3.33576c0.3388,1.30937 0.95661,2.05768 1.34468,3.28388c1.36425,4.31073 1.70333,9.93799 2.85949,14.26466c0.88571,3.31459 2.51769,4.93066 3.82922,7.22771c1.41793,2.48341 2.63511,6.10727 4.29008,7.23686c4.56503,3.11584 7.83174,-8.61845 9.04225,-17.31335c0.36557,-2.21499 0.87333,-4.28526 1.1002,-6.62664c0.11478,-1.1845 -0.17723,-2.49125 -0.09159,-3.69434c0.07419,-1.04226 0.42146,-1.82159 0.55915,-2.81577c0.85266,-6.15692 1.45815,-12.02601 2.74094,-17.74295c0.60231,-2.68429 1.04849,-5.32254 2.1763,-5.88217c0.33661,-0.16702 0.69384,-0.26769 1.00554,-0.59534c0.04223,2.26173 1.29379,6.25007 1.5429,8.29506l-0.03624,1.35204c0,0 0.0704,2.70742 0.85301,4.43138c-0.00587,1.65256 0.18037,3.36376 0.15508,5.02285c-0.0585,3.83656 -0.58288,7.79887 -0.79162,11.59646c-0.21638,3.93646 -0.16457,8.00771 -0.42955,11.91978c-0.17657,2.6069 -0.17881,5.45112 -0.6801,7.74634c-0.23215,1.06294 -0.79565,1.52717 -1.00864,2.61618c-0.61719,3.15574 -0.75256,9.41286 -1.7362,12.35616c-0.34354,1.02791 -0.92371,1.4502 -1.29087,2.4261c-1.48811,3.95519 -2.92882,8.51619 -4.99919,10.96977c-1.24663,1.47737 -3.12177,1.47521 -4.49681,2.42597c-1.2102,-0.0136 -2.87379,0.95887 -4.02135,0.2128c-0.45236,-0.29409 -0.81268,-1.25846 -1.25899,-1.61401c-0.29191,-0.23254 -0.67564,0.39449 -0.90834,-0.11284c-0.4028,-0.87814 -0.42264,-2.46135 -0.75345,-3.50655c-0.64975,-2.05294 -1.67859,-3.26828 -2.32639,-5.32491c-0.6677,-2.11979 -0.96261,-4.82945 -1.58327,-7.03217c-0.55099,-1.95544 -1.40972,-3.33893 -2.03083,-5.15056c0.03165,-1.70911 -0.24079,-3.16117 -0.24079,-3.16117z" data-paper-data="{&quot;noHover&quot;:false,&quot;origItem&quot;:[&quot;Path&quot;,{&quot;applyMatrix&quot;:true,&quot;segments&quot;:[[[439.93572,657.67706],[0.26864,-2.4652],[2.05771,2.63711]],[[446.72341,665.16827],[-1.79368,-2.84204],[2.02051,3.20144]],[[451.73493,675.35993],[-2.19632,-3.08348],[2.13087,2.9916]],[[459.55886,683.1187],[-2.13822,-2.98635],[1.08863,1.52043]],[[461.92929,688.20324],[-1.36138,-1.28198],[0.78651,0.74064]],[[465.16451,688.39742],[-1.02335,-0.34628],[1.56462,0.52944]],[[469.51486,690.77007],[-1.59182,-0.44097],[4.03829,1.11871]],[[483.8995,690.60638],[-4.32897,-0.064],[5.0065,-1.32159]],[[500.18133,687.27312],[-4.59489,2.08623],[7.63105,-3.46475]],[[519.02633,671.64632],[-5.68425,5.65303],[1.4025,-1.3948]],[[523.85734,668.2005],[-1.32264,1.47075],[3.78721,-4.21131]],[[531.17243,650.46542],[-2.4953,4.53132],[0.8611,-1.56371]],[[535.01613,646.73633],[-0.92731,1.52538],[2.00234,-3.29377]],[[538.15009,635.60514],[-0.86882,3.75546],[1.30381,-5.63567]],[[540.77404,618.4511],[-1.13213,5.67265],[1.09219,-5.47251]],[[544.6695,601.7673],[-0.55816,5.53428],[0.24137,-2.39326]],[[544.57611,594.52129],[-0.1713,2.38454],[-2.64354,-2.51649]],[541.93257,588.103],[[542.18636,586.15469],[0,0],[-0.70532,-2.9602]],[[537.43118,574.13909],[-0.05454,3.26537],[-1.14509,0.46138]],[[533.7814,574.96325],[1.2196,-0.22868],[-4.08624,0.7662]],[[525.58416,583.21536],[2.39921,-3.85152],[-5.10979,8.20287]],[[514.177,608.73191],[3.61075,-8.85358],[-0.58304,1.42961]],[[511.92339,612.77849],[0.3602,-1.50133],[-0.41578,1.73298]],[[511.92339,618.12498],[0.51838,-1.70511],[-1.02467,3.37044]],[[507.39495,627.67389],[1.50948,-3.18297],[-5.12192,12.50295]],[[473.31276,652.43273],[16.05081,4.66377],[-5.81892,-1.69076]],[[458.58205,641.78036],[4.84769,3.63572],[-4.48392,-3.3629]],[[445.53321,631.17565],[2.86778,4.81565],[-3.74345,-6.28609]],[[436.60719,610.44914],[4.48945,6.27071],[-1.27703,-1.78372]],[[432.09618,605.65717],[1.09321,1.90193],[-0.82049,-1.42746]],[[431.07505,600.82449],[0.92739,1.36043],[-0.44906,-0.65874]],[[429.12561,599.50567],[0.76445,0.3188],[0.45163,1.00798]],[[430.46342,602.53506],[-0.40867,-1.02169],[0.20563,11.11568]],[[433.24954,634.25366],[-1.96036,-10.27423],[1.79697,6.35823]],[[439.3652,653.11394],[-2.43236,-5.94542],[0,0]]],&quot;closed&quot;:true}]}" fill="#ffffff" stroke-width="0.5"/><path d="M305.87867,88.65254c2.50669,0.90311 7.78595,-0.78727 10.37809,0.62973c3.52164,1.9251 5.93505,6.14652 9.31349,8.1524c2.91534,1.73092 6.56856,2.2444 9.17344,4.41462c1.68084,1.40038 1.75507,3.69375 2.26373,5.64005c1.32845,5.0831 1.78,9.49126 0.65279,14.71618c-0.14137,0.65525 -0.44955,1.27438 -0.7253,1.8957c-0.52971,-1.14094 -1.10695,-2.36169 -1.80254,-3.40559c-0.9549,-1.43305 -2.4751,-2.4494 -3.34528,-3.93543c-0.69001,-1.17835 -0.83409,-2.59576 -1.24983,-3.89645c-0.93278,-1.52632 -1.63807,-3.21156 -2.8008,-4.5709c-1.02249,-1.19538 -2.53654,-1.87146 -3.66415,-2.96822c-1.11413,-1.08367 -1.63867,-2.84273 -3.03432,-3.52667c-4.8087,-2.35652 -10.87434,-0.9279 -15.94964,-1.28457c-7.54131,-0.52997 -8.68295,-0.83459 -15.73671,-3.68318c-2.5606,-1.03406 -5.15113,-2.27136 -7.6256,-3.4973c-1.13951,-0.56455 -2.59701,-0.85112 -3.3035,-1.90851c-3.1223,-4.67306 5.96021,-7.07324 8.10059,-7.38405c2.07839,-0.30181 4.20674,0.04326 6.30692,0.0516c1.06643,0.00424 4.32111,-0.10373 7.03182,0.01951c0.71511,2.09343 2.74427,2.60798 3.69922,2.73555c0.68577,0.74711 1.39014,1.47137 2.31756,1.80551z" data-paper-data="{&quot;noHover&quot;:false,&quot;origItem&quot;:[&quot;Path&quot;,{&quot;applyMatrix&quot;:true,&quot;segments&quot;:[[[598.91332,186.18015],[1.30668,1.42355],[-1.81958,-0.24308]],[[591.87752,180.96353],[1.36258,3.98885],[-5.16504,-0.23483]],[[578.50165,180.91333],[2.032,0.00807],[-4.0017,-0.01589]],[[566.49697,180.80358],[3.96019,-0.57508],[-4.07829,0.59223]],[[551.08073,194.84434],[-5.94928,-8.90411],[1.34616,2.01475]],[[557.37589,198.47931],[-2.17123,-1.0757],[4.7149,2.33591]],[[571.71983,205.06963],[-4.87899,-1.97033],[13.44032,5.42774]],[[601.73366,212.04703],[-14.36933,-1.00983],[9.67054,0.67961]],[[632.28738,214.55434],[-9.16258,-4.49015],[2.65929,1.30319]],[[638.07011,221.29907],[-2.12288,-2.06483],[2.14856,2.08981]],[[645.04989,226.96786],[-1.94826,-2.2777],[2.21548,2.5901]],[[650.3819,235.69269],[-1.77734,-2.90828],[0.79216,2.47835]],[[652.75839,243.12773],[-1.31475,-2.24525],[1.65804,2.8315]],[[659.12959,250.63148],[-1.81948,-2.73056],[1.32539,1.98906]],[[662.39691,257.01102],[-1.00932,-2.17397],[0.52543,-1.18388]],[[663.77581,253.40368],[-0.26935,1.24852],[2.14779,-9.95565]],[[662.51789,225.40364],[2.53124,9.68543],[-0.9692,-3.70851]],[[658.20417,214.677],[3.2027,2.66829],[-4.96338,-4.13518]],[[640.731,206.29237],[5.55493,3.29812],[-6.43732,-3.82201]],[[623.02984,190.81088],[6.71018,3.66813],[-4.93913,-2.69999]],[[603.31792,189.62267],[4.77628,1.7208],[-1.76711,-0.63666]]],&quot;closed&quot;:true}]}" fill="#ffffff" stroke-width="0.5"/><path d="M172.34595,176.16801c-0.73419,1.48944 -1.65207,2.94442 -2.21398,4.50702c-0.63892,1.77671 -0.13046,3.95163 -1.0875,5.5792c-1.2503,2.12633 -4.6299,4.93529 -7.13332,5.47925c-1.61593,0.35112 -2.95775,-1.51807 -4.42213,-2.28625c-0.56411,-0.29591 -1.31804,-0.23801 -1.80339,-0.65059c-0.79125,-0.67263 -0.74642,-1.975 -0.8382,-3.00944c-0.24221,-2.72983 0.23144,-7.6175 1.59391,-10.00876c1.76736,-3.10187 6.82303,-6.54996 9.29629,-8.39077c2.02744,-1.50898 3.90183,-3.32493 6.18355,-4.4118c1.31181,-0.62486 2.80553,-0.72875 4.26152,-0.92428c-0.92849,4.88211 -2.26824,9.36786 -3.83674,14.11643z" data-paper-data="{&quot;noHover&quot;:false,&quot;origItem&quot;:[&quot;Path&quot;,{&quot;applyMatrix&quot;:true,&quot;segments&quot;:[[[356.12089,329.46046],[-1.76917,9.30243],[-2.77426,0.37255]],[[348.01743,331.23123],[2.49955,-1.19062],[-4.34764,2.07093]],[[336.2745,339.64671],[3.86312,-2.87525],[-4.7126,3.5075]],[[318.66303,355.54705],[3.36756,-5.91036],[-2.59607,4.55634]],[[315.60355,374.54143],[-0.46153,-5.20145],[0.17489,1.97104]],[[317.18751,380.26256],[-1.50765,-1.28163],[0.92478,0.78614]],[[320.61387,381.49507],[-1.07485,-0.56384],[2.79026,1.4637]],[[329.00954,385.83841],[-3.07903,0.66902],[4.77007,-1.03645]],[[342.54246,375.40192],[-2.38235,4.05154],[1.82355,-3.10121]],[[344.57248,364.80169],[-1.21741,3.38537],[1.0707,-2.97739]],[[348.7693,356.28771],[-1.39894,2.838],[2.98864,-9.04799]]],&quot;closed&quot;:true}]}" fill="#ffffff" stroke-width="0.5"/></g></g></svg>