<svg version="1.1" xmlns="http://www.w3.org/2000/svg" xmlns:xlink="http://www.w3.org/1999/xlink" width="223.90578" height="261.67936" viewBox="0,0,223.90578,261.67936"><g transform="translate(-124.94016,-50.31396)"><g data-paper-data="{&quot;isPaintingLayer&quot;:true}" fill-rule="nonzero" stroke="none" stroke-width="0.5" stroke-linecap="butt" stroke-linejoin="miter" stroke-miterlimit="10" stroke-dasharray="" stroke-dashoffset="0" style="mix-blend-mode: normal"><path d="M199.88812,177.61566c6.12639,0.94595 13.32982,0.54908 19.20294,-0.80228c5.67545,-1.30586 10.5713,-3.53439 16.5191,-3.57057c14.75479,-1.72045 29.53166,-1.04858 44.21679,1.09406c6.93744,1.01221 15.87865,1.53679 21.77567,5.8872c5.48915,4.04951 6.87952,11.65227 9.34793,17.57139c0.94391,2.26347 2.10735,4.43059 3.06728,6.68732c5.16899,15.27306 14.93664,28.61034 19.06441,44.25263c2.51692,9.53792 2.12051,20.31561 0.52633,29.91722c-0.11994,0.72237 -1.05858,8.77319 -1.09065,8.87385c-0.97558,3.06142 -3.67595,5.96239 -5.6093,8.49346c-5.15861,3.94041 -10.32899,9.38769 -16.49465,11.60969c-9.35644,3.37191 -20.5254,1.13924 -30.17283,1.62189c-9.26476,0.46351 -18.31523,2.00065 -27.60028,2.00065c-12.19094,-0.00011 -24.47707,1.26064 -36.67722,0.49371c-7.41201,-0.46594 -14.99609,-2.1695 -22.27105,-3.53423c-3.47659,-0.65218 -7.54206,-0.99526 -10.88817,-2.10356c-0.94412,-0.31271 -1.6417,-1.15454 -2.56505,-1.52412c-2.62763,-1.05173 -5.42807,-1.97337 -8.12265,-3.0512c-5.34534,-2.67207 -12.67748,-6.81208 -14.38514,-13.11326c-0.98355,-3.62925 0.61516,-9.27226 1.47967,-12.75636c3.13853,-12.64885 6.41177,-25.3538 11.02566,-37.59725c1.02906,-5.23959 2.8363,-10.01614 4.51647,-15.05525c2.65083,-7.95031 5.17284,-15.41884 9.18331,-22.93812c3.58795,-6.72709 7.79788,-13.19583 10.17831,-20.41902c-0.06502,-0.43065 -0.00133,-0.9371 0.28981,-1.51937c0.10098,-0.20197 0.2111,-0.37658 0.32785,-0.52712c0.17126,-0.62606 0.32767,-1.25825 0.46775,-1.89718c0,0 0.54233,-2.44047 2.9828,-1.89814c2.44047,0.54233 1.89814,2.9828 1.89814,2.9828c-0.0618,0.27477 -0.12623,0.54847 -0.19319,0.82115z" fill="#66ff6f"/><path d="M323.05838,68.28363c4.02567,2.72902 8.83121,5.87633 12.00952,9.62594c4.49328,5.30095 7.45013,12.45553 9.57693,19.01233c6.05041,18.65311 4.36264,39.05359 2.33082,58.2217c-1.50447,8.48489 -2.96302,17.38603 -7.76844,24.76575c-14.0802,21.62305 -42.01738,28.07106 -65.90901,29.84729c-17.06566,1.26412 -33.79647,0.31852 -50.83015,-0.78403c-11.01886,-0.71322 -21.87242,-1.64457 -31.94159,-6.73254c-3.70214,-1.87071 -6.15914,-4.59524 -9.55656,-6.87834c-3.59558,-4.26639 -6.6348,-8.83415 -9.84709,-13.38392c-0.75425,-1.06829 -1.87301,-1.92702 -2.34103,-3.14812c-1.52552,-3.98023 0.49958,-10.64718 0.92031,-14.61149c1.54782,-14.58415 6.74121,-27.76268 13.20289,-40.8286c-4.22339,-0.18866 -8.44823,-0.35604 -12.67501,-0.49709c-12.5881,-0.42008 -25.48282,0.00118 -38.00598,-1.12649c-2.26378,-0.49825 -5.14569,0.13768 -6.79133,-1.49475c-1.16603,-1.15668 0.07037,-3.29427 0.32843,-4.91629c1.01038,-6.35074 5.24107,-12.93503 8.99179,-18.02643c3.19807,-4.34119 6.8701,-8.06561 10.40116,-12.10261c9.13112,-10.43944 19.27205,-20.34439 31.94431,-26.51089c0.16722,-0.08137 9.33226,-3.32506 9.45516,-3.36863c6.53508,-1.96292 13.13837,-4.12808 19.98501,-4.72757c11.14738,-0.97605 22.89252,0.64515 34.02503,1.31297c8.8369,0.53012 18.01563,1.32502 26.47349,4.12156c19.35607,0.33271 38.92503,2.49061 56.02135,12.23025z" fill="#ffffff"/><path d="M279.87691,174.38415c1.11803,2.23607 -1.11804,3.35411 -1.11804,3.35411l-2.24022,1.10475c-2.93442,1.09683 -5.95176,1.98231 -8.99824,2.71225c-20.19908,1.70288 -41.09449,0.32459 -61.19908,-1.99643c-8.11043,-0.93633 -16.61186,-1.40861 -23.56724,-5.97652c0,0 -2.08013,-1.38675 -0.69338,-3.46688c1.38675,-2.08013 3.46688,-0.69338 3.46688,-0.69338c6.09603,4.13908 14.20186,4.34345 21.36685,5.16973c19.64801,2.26582 40.08748,3.65069 59.83229,2.02687c2.72338,-0.65569 5.41458,-1.47071 8.03629,-2.45729l1.75978,-0.89524c0,0 2.23607,-1.11804 3.35411,1.11804z" fill="#000000"/><path d="M193.76822,150.31086c0,-1.38071 1.11929,-2.5 2.5,-2.5c1.38071,0 2.5,1.11929 2.5,2.5c0,1.38071 -1.11929,2.5 -2.5,2.5c-1.38071,0 -2.5,-1.11929 -2.5,-2.5z" fill="#000000"/><path d="M251.0522,151.9132c0,-1.38071 1.11929,-2.5 2.5,-2.5c1.38071,0 2.5,1.11929 2.5,2.5c0,1.38071 -1.11929,2.5 -2.5,2.5c-1.38071,0 -2.5,-1.11929 -2.5,-2.5z" fill="#000000"/></g></g></svg>