<svg version="1.1" xmlns="http://www.w3.org/2000/svg" xmlns:xlink="http://www.w3.org/1999/xlink" width="748.16667" height="861.06258" viewBox="0,0,748.16667,861.06258"><defs><radialGradient cx="230" cy="183.125" r="310.625" gradientUnits="userSpaceOnUse" id="color-1"><stop offset="0" stop-color="#10140e" stop-opacity="0"/><stop offset="1" stop-color="#10140e"/></radialGradient></defs><g transform="translate(145.38923,123.409)"><g data-paper-data="{&quot;isPaintingLayer&quot;:true}" fill-rule="nonzero" stroke-linejoin="miter" stroke-miterlimit="10" stroke-dasharray="" stroke-dashoffset="0" style="mix-blend-mode: normal"><path d="M-145.38922,321.88838l22.95818,-445.29738l725.20848,53.1484l-6.75241,392.14899c0,0 -11.31767,244.19534 -16.20578,244.19534c-46.50122,0 -725.20848,-244.19534 -725.20848,-244.19534z" fill="#1b271f" stroke="none" stroke-width="0" stroke-linecap="butt"/><path d="M-103.44641,402.58881l13.20005,-325.90345l660.61565,201.46596c0,0 -16.32396,519.3495 -111.37328,453.7773c-198.2267,-136.75173 -562.44242,-329.33981 -562.44242,-329.33981z" data-paper-data="{&quot;index&quot;:null}" fill="#10140e" stroke="none" stroke-width="0" stroke-linecap="butt"/><g stroke="none" stroke-linecap="butt"><path d="M468.87553,307.71046c-0.7371,6.65022 -1.0884,12.25757 -3.86607,18.41226c-6.31872,11.41584 -20.23037,17.85835 -32.57984,20.22735c-8.0757,1.54919 -16.6124,2.43838 -24.7578,2.9569c-3.8908,0.24768 -7.75517,-0.81074 -11.63013,-1.24023c-13.6171,-1.50929 -26.19705,-4.41617 -39.52285,-7.60317c-7.78985,-2.07261 -17.1197,-6.65319 -23.37603,-11.95209c-0.63507,-0.53789 -6.14635,-7.64355 -6.66103,-8.21398c-3.05581,-3.3867 -4.69903,-3.19765 -6.42194,-8.40508c-1.73181,-5.23429 0.39026,-10.3352 1.38723,-15.3144c0.39533,-1.97438 0.07445,-4.09644 0.74716,-5.99432c3.07057,-8.66287 10.51412,-15.6551 15.46,-23.33603c-0.11595,-0.05335 -0.23185,-0.10679 -0.34769,-0.16035c-16.55271,-8.64139 -31.524,-18.02589 -40.06063,-35.51307c-2.73915,-5.6111 -3.47251,-13.60383 -4.5505,-19.66914c-3.57978,-20.1419 -1.40673,-42.32403 7.49768,-61.07596c2.78469,-18.96837 9.43446,-38.3664 2.53894,-57.01255l-1.11656,-5.15871c0,0 -0.30806,-1.43576 0.35828,-2.705c-0.90434,-0.67661 -2.25122,-2.16557 -1.14781,-4.55797c1.57424,-3.41328 4.98752,-1.83903 4.98752,-1.83903c7.82773,3.64961 13.44217,9.3954 21.5557,12.70515l0.53378,0.00174c0.25761,-0.17515 0.4381,-0.26194 0.4381,-0.26194c12.53886,-6.02559 24.67087,-12.77053 37.02601,-19.16589c4.56248,-2.36165 9.17419,-5.62765 14.04349,-7.23696c3.74574,-1.23797 7.84032,-1.29886 11.51478,-2.73468c7.50354,-2.93205 14.61019,-5.8755 22.7367,-6.60933l3.59153,0.38274c0.62563,-0.02052 1.19916,0.13529 1.63659,0.30989c0.45552,0.16532 1.00537,0.44131 1.46711,0.89526c10.6307,7.92311 17.01647,19.82732 27.48687,28.29342l1.95565,1.24594c10.30982,-1.81006 20.23573,-6.53114 29.08952,-12.11028c10.66024,-6.71748 22.02689,-15.43033 35.07835,-14.29588l3.1504,0.34918c0,0 0.70579,0.07823 1.46983,0.47347c0.46776,-0.14141 1.02265,-0.19721 1.68055,-0.12429c3.73593,0.41409 3.32185,4.15002 3.32185,4.15002c-0.12238,1.1041 -1.49025,13.53638 -1.57758,13.90331c-1.7347,7.28967 -5.24842,14.06054 -7.89364,21.09857c11.65397,1.15396 23.44379,1.99174 34.62606,5.53597l3.3176,2.01049c1.07736,0.38929 1.64849,1.13318 1.94817,1.86853c0.38301,0.70216 0.59868,1.62315 0.20767,2.71431c-1.06679,6.50558 -4.96373,11.984 -7.7562,18.0172c-3.48654,7.53268 -6.89904,15.46746 -10.05559,23.10913c-5.13174,12.42336 -4.82987,28.39155 -13.00557,39.37098c-4.18728,7.78214 -5.61711,16.33483 -7.15926,24.9013c-0.93451,5.19114 -2.6797,9.77441 -3.2886,15.04012l-2.35021,5.83482c0,0 -1.00817,2.46182 -3.39927,2.3952c-5.99534,13.3073 -14.61345,25.20172 -26.89776,34.02236c-4.48975,4.05764 -9.65089,7.01314 -15.18761,9.10917c4.91746,6.78524 4.76575,13.85485 3.75705,22.9556zM331.86009,289.28958c-0.79656,1.31383 -2.08213,2.36471 -2.58415,3.81685c-0.55048,1.59233 -0.15846,3.37722 -0.47497,5.03203c-0.6771,3.53996 -2.78807,7.70097 -1.58082,11.46386c0.84402,2.63074 3.07361,3.69644 4.78286,5.59319c2.14148,2.37637 3.48255,5.49139 5.94438,7.53408c5.41201,4.49059 13.64128,8.7699 20.38405,10.43816c13.01738,3.113 25.24245,5.95343 38.5384,7.42713c3.476,0.38527 6.93552,1.47163 10.42257,1.20405c7.83252,-0.60102 15.93865,-1.36301 23.72009,-2.83171c9.54971,-1.80246 22.58863,-6.95709 27.26584,-16.19215c2.44086,-5.14396 2.49973,-10.24859 3.12532,-15.89279c0.89161,-8.04427 1.67705,-13.872 -4.06998,-19.77222c-8.13603,1.90503 -16.74267,2.34568 -25.01095,1.98555c-29.82423,-1.29904 -60.08213,-7.25238 -87.71044,-18.79566c-4.00921,6.58211 -8.72404,12.34565 -12.75222,18.98963zM525.21671,163.35293c3.784,-11.94574 9.1664,-24.10194 14.44342,-35.58179c2.08668,-4.53946 5.68645,-9.33561 6.84851,-14.21595l-0.04092,-0.02956c-12.12245,-3.86581 -25.10206,-4.30336 -37.69299,-5.69891c-1.29748,-0.14381 -2.0944,-0.68828 -2.58195,-1.33779c-0.52696,-0.61795 -0.88371,-1.51476 -0.7399,-2.81224c0.01945,-0.17552 0.04624,-0.3419 0.07964,-0.49959l0.16142,-1.01264c2.61618,-8.22997 7.02217,-15.92886 9.03401,-24.29425c0.71684,-2.98072 0.87697,-6.05764 1.07991,-9.12756l-2.66835,-0.29575c-2.44993,-0.36208 -4.97645,0.45234 -7.32648,1.23378c-8.5197,2.83302 -15.23994,7.14075 -22.92418,11.95562c-9.84393,6.16811 -20.78069,11.26954 -32.23079,13.2252c0,0 -0.79179,0.13422 -1.70543,-0.08742c-1.37298,0.1173 -2.53906,-0.63678 -2.53906,-0.63678l-3.29992,-2.15939c-4.89112,-3.96509 -5.97899,-4.60204 -10.57801,-9.50044c-5.93078,-6.31686 -9.44351,-13.24013 -16.38529,-18.40757l-2.57615,-0.29884c-7.11742,0.58702 -13.58708,3.65476 -20.1388,6.17842c-3.6472,1.40488 -7.6922,1.49401 -11.41088,2.697c-4.57403,1.4797 -8.90977,4.64345 -13.20187,6.86479c-12.4212,6.42848 -24.62109,13.2009 -37.22378,19.26459c0,0 -0.4139,0.19903 -1.02193,0.31326c-1.2008,0.81248 -2.68354,0.64814 -2.68354,0.64814l-3.37318,-0.51938c-4.65755,-1.91418 -7.13915,-2.65734 -11.39375,-5.61151c-1.23035,-0.85428 -2.29012,-1.69366 -3.3065,-2.50605l0.13217,0.62202c5.02988,13.68043 3.36964,27.45792 0.92727,41.27253c0.2038,-0.30948 0.40821,-0.61861 0.6133,-0.92732c-0.79869,5.55854 -1.26779,11.16086 -1.78932,16.7569c-0.79131,1.36907 -1.53827,2.76475 -2.2416,4.18401c-0.12428,0.94385 -0.23892,1.88773 -0.34208,2.83165c0,0 -0.26749,2.41341 -2.31226,3.14571c-6.42057,16.23407 -7.68941,34.79999 -4.70655,51.62518c0.96522,5.44445 1.54863,12.94424 4.03546,17.957c7.83365,15.79039 21.52112,23.95433 36.48798,31.7734c28.64977,13.23421 60.57397,19.80182 92.03931,21.24429c7.18685,0.32948 14.8015,0.03048 22.01877,-1.53473c1.37274,-1.69543 3.11395,-1.40966 4.10148,-1.04436c6.22005,-1.834 12.00576,-4.75355 16.78669,-9.19952c23.67253,-16.89656 32.49529,-46.17088 35.60409,-73.89209c1.5348,-1.49457 3.13399,-4.32723 4.57026,-7.49229c1.64107,-1.42525 2.9776,-3.20653 3.88127,-5.24111c-0.01844,0.72644 -0.04316,1.45368 -0.07381,2.18159c3.23972,-6.7551 3.41275,-14.90222 5.66432,-22.01029z" fill="#000000" stroke-width="0.5"/><path d="M331.78815,289.2677c4.02817,-6.64399 8.75528,-12.43142 12.76449,-19.01353c27.62831,11.5433 58.01317,17.50887 87.8374,18.80791c8.26828,0.36014 16.87896,-0.07073 25.015,-1.97576c5.74702,5.90022 4.96542,11.75024 4.0738,19.79451c-0.62559,5.64421 -0.6863,10.76693 -3.12717,15.91089c-4.6772,9.23507 -17.73163,14.42112 -27.28134,16.22357c-7.78144,1.4687 -15.91773,2.25253 -23.75025,2.85355c-3.48705,0.26758 -6.96759,-0.81379 -10.44359,-1.19907c-13.29595,-1.4737 -25.58923,-4.34588 -38.60661,-7.45888c-6.74277,-1.66826 -14.98323,-5.97183 -20.39524,-10.46242c-2.46182,-2.04269 -3.80482,-5.16814 -5.94631,-7.54451c-1.70926,-1.89675 -3.93931,-2.96932 -4.78332,-5.60005c-1.20725,-3.76289 0.90456,-7.93696 1.58167,-11.47692c0.31653,-1.65481 -0.07441,-3.4453 0.47607,-5.03763c0.502,-1.45213 1.78887,-2.50784 2.58544,-3.82167z" data-paper-data="{&quot;noHover&quot;:false,&quot;origItem&quot;:[&quot;Path&quot;,{&quot;applyMatrix&quot;:true,&quot;segments&quot;:[[[198.90219,248.3042],[0,0],[-0.43031,0.92688]],[[197.47359,251.01669],[0.22546,-0.99672],[-0.24723,1.09295]],[[197.5283,254.37794],[0.08799,-1.11711],[-0.18823,2.38972]],[[197.32325,262.07202],[-1.07377,-2.39902],[0.7507,1.67722]],[[200.8948,265.41899],[-1.26889,-1.12862],[1.58976,1.41401]],[[205.37639,269.96389],[-1.77707,-1.16995],[3.90666,2.57199]],[[219.61618,275.37056],[-4.57958,-0.60877],[8.8333,1.10408]],[[245.63639,277.4566],[-8.89734,0],[2.32606,0]],[[252.61451,277.48888],[-2.28553,0.43238],[5.13369,-0.9712]],[[268.08733,273.87899],[-5.03635,1.54104],[6.18082,-1.89123]],[[284.92516,261.17731],[-2.41524,6.44759],[1.23665,-3.57929]],[[285.8267,250.4423],[0,3.77697],[0,-5.38304]],[[281.68751,237.66997],[4.23141,3.47929],[-5.23879,1.85546]],[[265.29936,240.81508],[5.49218,-0.36775],[-19.81065,1.32648]],[[205.94072,234.81664],[19.10963,5.60643],[-2.16804,4.64489]],[[198.90217,248.3042],[2.17604,-4.68719],[0,0]]],&quot;closed&quot;:true,&quot;fillColor&quot;:[0,0,0],&quot;strokeWidth&quot;:0.5}]}" fill="#667eff" stroke-width="0.25"/><path d="M525.29177,163.34851c-2.25158,7.10806 -2.42543,15.27147 -5.66515,22.02657c0.03066,-0.72791 0.05562,-1.45676 0.07405,-2.18321c-0.90367,2.03457 -2.24095,3.82022 -3.88202,5.24547c-1.43628,3.16507 -3.03702,6.0041 -4.57182,7.49867c-3.1088,27.72119 -11.96753,57.0404 -35.64006,73.93696c-4.78094,4.44597 -10.57801,7.37059 -16.79806,9.20459c-0.98754,-0.3653 -2.73136,-0.65019 -4.1041,1.04523c-7.21727,1.56521 -14.84601,1.86712 -22.03285,1.53765c-31.46535,-1.44248 -63.44732,-8.02835 -92.09708,-21.26256c-14.96686,-7.81907 -28.67174,-16.00544 -36.50539,-31.79582c-2.48683,-5.01276 -3.07434,-12.5223 -4.03956,-17.96675c-2.98287,-16.82519 -1.71776,-35.42221 4.70281,-51.65629c2.04477,-0.7323 2.3125,-3.1479 2.3125,-3.1479c0.10316,-0.94392 0.21805,-1.88966 0.34233,-2.83352c0.70333,-1.41925 1.45078,-2.81789 2.2421,-4.18696c0.52153,-5.59605 0.99343,-11.209 1.79212,-16.76753c-0.20509,0.30871 -0.40972,0.61851 -0.61352,0.928c2.44238,-13.81461 4.11247,-27.61162 -0.91742,-41.29204l-0.13202,-0.62221c1.01638,0.8124 2.07611,1.65183 3.30646,2.50611c4.25461,2.95417 6.73694,3.69631 11.39449,5.61049l3.3738,0.51856c0,0 1.48359,0.16323 2.68439,-0.64926c0.60802,-0.11423 1.02229,-0.31372 1.02229,-0.31372c12.60269,-6.06369 24.82399,-12.8545 37.2452,-19.28297c4.2921,-2.22134 8.63752,-5.38976 13.21156,-6.86946c3.71868,-1.20299 7.7717,-1.29481 11.41892,-2.69968c6.55172,-2.52367 13.03618,-5.59387 20.1536,-6.18089l2.57795,0.29874c6.94178,5.16744 10.46792,12.09136 16.3987,18.40822c4.59902,4.8984 5.69765,5.53767 10.58877,9.50276l3.30331,2.16047c0,0 1.16839,0.7549 2.54136,0.6376c0.91364,0.22164 1.70684,0.08797 1.70684,0.08797c11.45011,-1.95566 22.4022,-7.04869 32.24613,-13.2168c7.68426,-4.81489 14.40979,-9.11847 22.92949,-11.95149c2.35002,-0.78144 4.87851,-1.59413 7.32843,-1.23206l2.66922,0.29657c-0.20296,3.06992 -0.36084,6.14905 -1.07768,9.12976c-2.01184,8.3654 -6.41275,16.07008 -9.02893,24.30004l-0.16111,1.01302c-0.03339,0.15769 -0.06004,0.32427 -0.0795,0.4998c-0.14381,1.29748 0.21408,2.19579 0.74104,2.81374c0.48755,0.6495 1.28553,1.19545 2.58301,1.33926c12.59094,1.39555 25.57761,1.84562 37.70006,5.71143l0.04094,0.02959c-1.16206,4.88034 -4.75957,9.68216 -6.84626,14.22162c-5.27702,11.47984 -10.65534,23.65649 -14.43934,35.60223z" data-paper-data="{&quot;noHover&quot;:false,&quot;origItem&quot;:[&quot;Path&quot;,{&quot;applyMatrix&quot;:true,&quot;segments&quot;:[[[317.49428,150.88584],[0,0],[1.62617,-8.17405]],[[324.43511,126.30603],[-2.64728,7.97546],[1.04681,-3.15372]],[[327.92075,116.40671],[-0.4106,3.31132],[0,0]],[[327.89153,116.39016],[0,0],[-8.29686,-1.6673]],[[302.55681,115.38463],[8.42556,0],[-0.86824,0]],[[300.75198,114.68946],[0.36989,0.39363],[-0.39363,-0.36989]],[[300.05681,112.88463],[0,0.86824],[0,-0.11746]],[[300.07285,112.54853],[-0.01052,0.10669],[0,0]],[[300.10536,111.86729],[0,0],[1.12643,-5.63215]],[[304.2973,95.14552],[-0.717,5.6774],[0.25547,-2.02294]],[[304.34241,89.03257],[0.09077,2.04426],[0,0]],[[302.55681,89.03257],[0,0],[-1.64607,-0.05985]],[[297.804,90.38498],[1.49624,-0.68876],[-5.42442,2.49702]],[[283.52583,99.96797],[4.72693,-3.74593],[-6.05545,4.79873]],[[263.1885,111.07211],[7.42586,-2.13175],[0,0]],[[262.05471,111.13928],[0.62021,0.07957],[-0.89902,0.17814]],[260.32959,110.90437],[[257.98994,109.71868],[0,0],[-3.52382,-2.26277]],[[250.30119,104.21341],[3.39911,2.90115],[-4.38341,-3.74125]],[[238.12088,93.24553],[4.96752,2.90734],[0,0]],[[236.39601,93.23674],[0,0],[-4.662,0.90954]],[[223.53584,98.79659],[4.14614,-2.14833],[-2.30807,1.19593]],[[216.19023,101.41553],[2.37011,-1.06771],[-2.91527,1.3133]],[[207.96604,106.92084],[2.67456,-1.78291],[-7.74009,5.15968]],[[184.77057,122.38319],[7.88679,-4.93183],[0,0]],[[184.11797,122.66515],[0.39357,-0.12006],[-0.73426,0.62508]],[182.39149,123.29023],[[180.12357,123.19404],[0,0],[-3.21915,-0.92412]],[[172.18051,120.31934],[3.02898,1.64114],[-0.87592,-0.47458]],[[169.81111,118.90497],[0.73141,0.46257],[0,0]],[[169.94406,119.30647],[0,0],[4.3274,8.67498]],[[173.58107,146.52197],[0.60235,-9.31118],[0.11205,-0.21952]],[[173.91855,145.86402],[-0.11296,0.2191],[-0.1207,3.73302]],[[173.96349,157.07237],[-0.06526,-3.73751],[-0.42279,0.96301]],[[172.78823,160.00248],[0.36095,-0.98974],[-0.013,0.63304]],[[172.76957,161.89942],[-0.00097,-0.63154],[0,0]],[[171.47152,164.14833],[1.29805,-0.63391],[-3.05489,11.20206]],[[172.14281,198.62029],[-3.20462,-10.90383],[1.03698,3.52836]],[[176.12618,210.19519],[-2.01122,-3.1315],[6.33544,9.86435]],[[202.5748,228.5257],[-10.46683,-4.07222],[19.90876,6.64938]],[[264.97447,235.82564],[-20.90603,1.35191],[4.77505,-0.30878]],[[279.41765,233.19778],[-4.65634,1.5635],[0.78323,-1.22135]],[[282.05244,232.20688],[-0.67958,-0.16912],[3.97742,-1.66812]],[[292.47533,224.89553],[-2.83471,3.28933],[14.41085,-12.90405]],[[310.59754,173.44005],[-0.02396,18.55303],[0.90508,-1.10045]],[[313.06978,168.15236],[-0.71756,2.19752],[0.98041,-1.06241]],[[315.2515,164.40332],[-0.4483,1.41118],[0.04104,0.48157]],[[315.36255,165.85088],[-0.03307,-0.48344],[1.64669,-4.70287]],[[317.49429,150.88583],[-0.96761,4.8638],[0,0]]],&quot;closed&quot;:true,&quot;fillColor&quot;:[0,0,0],&quot;strokeWidth&quot;:0.5}]}" fill="#66ecff" stroke-width="0.25"/></g><g stroke="none" stroke-linecap="butt"><path d="M165.56609,296.34804c0.13555,0.81879 0.04216,1.47368 -0.17813,1.99619c-0.09652,1.24122 -0.28525,2.54082 -0.58507,3.92426c-0.57602,3.58845 -0.89697,7.09744 -2.54281,10.44108c-3.19286,6.48649 -7.70156,10.3501 -13.25439,14.68759c-15.89872,12.41899 -35.30846,15.24376 -54.89997,17.15974c-8.21393,0.80329 -16.0612,2.21065 -24.29092,1.56486c-8.79584,-1.91715 -14.93097,-4.84849 -22.20247,-10.18072c-1.53933,-1.12881 -3.73015,-1.46962 -4.88369,-2.9905c-2.53735,-3.34534 -3.1594,-7.45736 -2.99934,-11.57921c-0.14238,-0.30628 -0.25374,-0.66353 -0.32269,-1.08002c-0.21409,-1.29327 0.14296,-2.17765 0.66907,-2.77731c0.29355,-2.20697 0.71361,-4.34649 1.07729,-6.29642c2.00134,-10.73046 6.59057,-21.91231 11.65044,-31.9063c-1.6818,-0.15463 -3.35302,-0.38157 -5.00816,-0.70506c-3.7392,-0.7308 -7.47662,-1.92667 -11.28491,-1.81446c-2.38501,-0.27223 -8.04839,-0.69965 -10.52729,-1.73352c-5.21425,-2.17467 -9.91297,-5.64721 -14.38445,-8.85636c-4.64536,-3.33393 -9.76068,-5.44846 -13.6898,-9.95548c-1.13712,-1.30436 -1.55251,-3.09911 -2.47315,-4.56433c-0.50441,-0.80279 -0.99156,-1.60581 -1.46235,-2.4104c-1.1558,0.8207 -2.34545,1.57189 -3.57734,2.22615c-3.35199,1.78024 -7.33306,1.98528 -11.05714,2.71755c-9.15021,1.79921 -18.61644,0.76475 -23.90822,-8.28701c-2.43977,-4.17329 -4.10173,-13.78879 -4.0228,-18.78455c0.0181,-1.14548 0.91816,-2.16645 0.91775,-3.31207c-0.0007,-1.92471 -3.92961,-2.28466 -4.35506,-2.73908c-1.92061,-2.0514 -3.28912,-4.59323 -4.49932,-7.12945c-5.14384,-10.77993 -5.16674,-24.68412 -3.22587,-36.12167c2.03487,-9.14944 4.17343,-17.26918 9.81058,-24.97116c1.84275,-2.51774 5.41429,-3.32909 7.39148,-5.74269c0.72656,-0.88692 0.07669,-2.35085 0.54934,-3.39541c0.50077,-1.10672 1.87847,-1.69864 2.27513,-2.84679c0.64913,-1.8789 -1.43359,-3.71635 -1.94761,-5.63662c-0.84611,-3.16082 -1.51871,-6.41475 -1.59423,-9.68597c-0.14572,-6.31305 2.40723,-14.50687 6.50419,-19.46441c2.38417,-2.88496 6.47571,-4.41658 10.50692,-5.38104c-0.00078,-0.79658 0.07756,-1.57698 0.35882,-2.31581c0.67465,-1.77211 2.53895,-2.82712 3.64528,-4.36711c1.11928,-1.55802 1.46328,-3.77353 3.01413,-4.90273c1.95695,-1.42489 4.59955,-1.51189 6.88634,-2.30596c2.4483,-0.85014 4.53396,-2.56627 6.97716,-3.43099c4.79543,-1.69724 10.04245,-1.03487 14.89942,-1.76509c4.39728,-0.66111 7.90016,-4.45851 11.67258,-6.35963c2.16581,-1.09146 4.49601,-1.82046 6.74402,-2.73071c11.64223,-4.27858 29.95218,-1.97646 35.76341,11.10322c0.04936,0.11109 0.11722,0.37573 0.1986,0.75548c4.8016,-0.75431 9.7837,-1.15251 14.31069,-1.87087c7.59319,0.8351 13.21082,3.18704 20.35687,5.39305c8.76688,2.70638 18.24074,4.46468 26.78044,7.9324c1.85081,0.75156 3.35509,2.19849 5.17517,3.02169c1.63103,0.73768 3.56536,0.73857 5.11608,1.63289c6.36804,3.67248 11.04522,9.7165 15.61098,15.22701c1.63088,1.96835 5.39544,5.40196 6.80287,7.64943c1.69874,2.71261 2.27398,6.01053 3.85004,8.79622c1.79097,3.16556 3.71085,6.3229 4.83262,9.78266c3.1833,10.13293 4.29269,20.77071 5.20064,31.27513c0.19873,2.29921 1.41411,7.306 1.59936,9.64844c0.34371,4.34588 -0.51163,8.70833 -1.00773,13.03947c-1.24454,10.8654 -1.57812,20.69322 -6.00213,31.04043c-2.76842,6.47504 -7.37122,12.27072 -11.44896,17.94762c-4.01075,4.18231 -8.21558,6.31561 -12.95876,9.53619c-0.2187,0.14849 -0.43775,0.29861 -0.65717,0.45015c0.58236,1.21595 1.09458,2.48188 1.98546,3.47783c1.60985,1.79969 4.7075,1.60515 6.4724,3.25307c1.1071,1.03373 1.49334,2.65064 2.43783,3.83478c1.93383,2.42452 4.62276,4.18794 6.5009,6.65587c1.8196,2.39101 2.51953,5.48618 3.30379,8.38667c1.5652,5.78874 3.20843,10.17586 3.30038,15.36383c0.04092,0.14938 0.07565,0.30787 0.10348,0.476zM123.37411,307.47235c5.93085,-0.9818 12.81855,-1.24208 18.36528,-3.68592c5.95116,-2.62204 11.24599,-5.67804 16.78863,-9.0462c-0.27366,-4.1117 -1.75206,-7.62959 -3.04769,-12.4348c-0.55318,-2.05162 -0.79966,-4.35474 -2.13738,-6.00571c-1.72003,-2.12279 -3.98548,-3.76109 -5.79448,-5.80303c-2.05668,1.24655 -6.30077,3.9155 -8.32372,4.6165c-2.97666,1.03147 -6.35222,0.83533 -9.19103,2.2012c-1.79846,0.8653 -3.19819,2.48816 -5.06605,3.19124c-2.02334,0.76161 -4.28495,0.62045 -6.38828,1.1203c-5.59509,1.32968 -10.76086,2.55485 -16.49106,3.50344c-15.91442,2.6345 -31.83187,4.52908 -47.72611,7.13659c-2.8148,6.59864 -5.14346,13.4632 -6.38556,20.09815c-0.16886,0.90201 -0.41621,1.98275 -0.66611,3.16395c25.18437,-3.6631 50.70674,-3.8581 76.06354,-8.05571zM-23.59323,110.00311c-1.74955,-0.2782 -2.46078,-1.30982 -2.73831,-2.25033c-2.2189,0.64347 -4.2405,1.57784 -5.33024,3.01757c-2.78098,3.67418 -4.88867,9.9295 -4.69487,14.50503c0.22246,5.25251 4.46113,12.10959 3.36774,17.17844c-0.34438,1.59648 -2.02251,2.60386 -2.69331,4.09294c-0.64276,1.42684 -0.21683,3.31896 -1.19564,4.54c-1.99,2.48247 -5.68795,3.28641 -7.50378,5.89897c-4.89397,7.04138 -6.74566,13.93167 -8.58393,22.19188c-1.78748,10.31778 -1.48159,22.09324 2.73088,31.91131c0.71133,1.65789 1.38303,3.4403 2.66297,4.71166c0.87217,0.86632 2.57624,0.46407 3.4341,1.34457c1.50205,1.54168 2.78358,3.46443 3.28963,5.55651c0.36809,1.52172 -0.80249,3.05796 -0.82723,4.62337c-0.06417,4.06153 1.23725,11.68565 3.13318,15.20501c3.40581,6.32213 10.62735,6.13702 16.50815,4.90346c3.19412,-0.67001 6.66875,-0.66132 9.53572,-2.22074c1.10233,-0.5996 2.17196,-1.29746 3.21451,-2.06401c-2.19685,-4.57417 -3.95741,-9.30218 -5.43954,-14.41697c-5.22551,-18.03285 -7.82358,-37.16527 -5.08171,-55.77303c0.29031,-4.58454 0.46053,-9.68054 1.38889,-14.19171c1.18604,-5.76334 3.92162,-11.59102 5.66341,-17.22083c1.51364,-4.89237 3.12276,-11.58351 6.16925,-15.88069c3.95528,-5.57901 9.50835,-10.42338 14.11337,-15.45539c6.79856,-7.42899 14.58842,-16.03406 24.20283,-19.96639c0.31058,-0.12704 8.54484,-1.4708 8.78679,-1.51086c0,0 2.97241,-0.49206 3.82876,2.21602c3.69798,-1.79735 7.4753,-3.44159 11.33275,-4.69197c0.40206,-0.13032 0.80884,-0.25422 1.21987,-0.37223c-1.14943,-1.28041 -3.77778,-3.79943 -4.12009,-4.08233c-6.24332,-5.15987 -14.91795,-5.72412 -22.32651,-2.81708c-5.32045,2.12813 -9.43818,5.41631 -14.56097,7.70894c-6.10452,2.73198 -12.6971,0.94638 -18.87004,3.1902c-2.49903,0.90838 -4.62573,2.72213 -7.1688,3.4987c-1.5662,0.47826 -3.44754,0.19546 -4.77541,1.15386c-1.05882,0.76421 -0.95028,2.46196 -1.70789,3.5255c-0.4117,0.57794 -1.04027,0.99384 -1.61451,1.44284c1.01262,0.20267 2.25758,0.8564 2.57927,2.79971c0.56503,3.41324 -2.8482,3.97826 -2.8482,3.97826c-0.31337,0.05039 -0.65583,0.10169 -1.02141,0.15562l-0.09962,0.69075c0,0 -0.54331,3.41675 -3.96007,2.87343zM2.48007,232.37301c4.08717,-3.47124 8.00176,-7.14827 10.28832,-12.14306c1.42845,-3.12034 -0.31483,-8.22726 2.6549,-9.94705c2.25865,-1.30799 5.19154,0.70791 7.80132,0.67093c1.80288,-0.02554 3.65092,-0.22848 5.34083,-0.85714c4.03959,-1.50275 8.39215,-9.17309 10.32216,-12.64361c3.18167,-5.72125 1.73303,-11.70507 1.74217,-17.87206c0.00648,-4.36491 0.03496,-8.77147 -0.68306,-13.07691c-0.19232,-1.15321 -1.5813,-8.92969 -1.2473,-9.77101c2.53836,-6.39386 5.1371,-4.67863 10.22019,-5.14773c2.95646,-0.27284 5.77883,-1.46467 8.51085,-2.6271c1.42124,-1.44737 6.31545,-6.27008 7.50117,-8.09021c5.34596,-8.20628 5.82741,-18.80788 2.19505,-27.79282c-1.82966,-4.52581 -4.70329,-6.68874 -6.46758,-11.24728c-1.13574,-2.93451 -1.37654,-6.18129 -1.80651,-9.31121c-0.3727,0.10862 -0.74134,0.22306 -1.10547,0.34392c-6.18825,2.05386 -12.13461,5.1234 -17.90591,8.1707l-2.53889,0.60025c0,0 -3.41323,0.56504 -3.97827,-2.8482c-0.11441,-0.69114 -0.06571,-1.26551 0.08476,-1.74204c-8.18048,3.65932 -14.95263,11.46968 -20.77868,17.84492c-4.35157,4.76175 -9.6072,9.30362 -13.40277,14.53605c-2.69027,3.70872 -4.06472,9.93728 -5.36878,14.16599c-1.68563,5.466 -4.39434,11.1575 -5.53565,16.74863c-0.78336,3.83754 -1.00164,9.5014 -1.2464,13.34579c-2.61285,17.74439 -0.14371,35.92012 4.84547,53.12035c1.19761,4.12879 2.58483,7.95351 4.25701,11.65133c2.16363,-2.06446 4.24262,-4.20355 6.3011,-6.08146zM65.8759,96.10782c1.37667,5.78888 5.3858,8.92035 7.66162,14.36383c4.59444,10.98932 3.70362,24.19714 -2.83369,34.21209c-1.95587,2.99634 -6.96075,7.61748 -9.38545,9.99834c-5.44582,2.39162 -6.3069,3.41871 -11.8356,3.79972c-1.39086,0.09585 -4.20539,-1.10034 -4.17219,0.29342c0.10239,4.29913 2.37333,9.35315 2.61119,13.71258c0.1291,2.36619 -0.37093,4.72967 -0.37264,7.09938c-0.0054,7.5374 1.18382,14.09008 -2.55269,21.11547c-4.49901,8.45902 -11.325,17.77751 -22.03743,17.16545c-1.31261,-0.075 -2.06577,-1.82506 -3.35755,-2.06973c-0.66981,-0.12688 1.24851,0.98046 1.19455,1.66004c-0.15893,2.00114 -0.97448,3.91494 -1.78319,5.75228c-2.56743,5.833 -7.25517,10.28533 -11.94811,14.34487c-2.51407,2.29406 -5.02571,4.85029 -7.66059,7.25608c0.60448,1.0719 1.23895,2.14169 1.90595,3.21401c0.76615,1.23173 1.03354,2.77676 1.98238,3.87397c3.40726,3.93998 8.25804,5.76462 12.33417,8.67614c6.94329,4.95947 12.60799,8.31176 21.20224,9.30396c4.14151,-0.06493 8.21263,1.12333 12.27496,1.93196c8.54315,1.70056 17.66089,0.53074 26.26831,0.48738c3.90895,-0.01969 7.84519,0.3548 11.72648,-0.10976c1.96756,-0.23549 4.01843,-0.21322 5.87562,-0.90432c1.7193,-0.63978 2.95599,-2.21493 4.61436,-2.99921c3.74674,-1.77191 7.8341,-2.71875 11.67899,-4.26621c3.98842,-1.60523 8.24757,-2.51271 12.16818,-4.2771c5.91362,-2.66132 11.40899,-7.3583 16.69875,-10.94962c4.24274,-2.88049 8.06969,-4.57572 11.6169,-8.2959c3.6671,-5.14064 7.93261,-10.40239 10.41615,-16.25821c4.10592,-9.68112 4.32467,-18.80871 5.47351,-28.97309c0.44195,-3.91019 1.33653,-7.84152 1.00377,-11.76251c-0.27722,-3.26626 -1.31497,-6.43708 -1.60399,-9.7023c-0.88306,-9.97644 -1.8443,-20.13043 -4.90225,-29.75418c-0.93632,-3.06363 -2.75847,-5.78796 -4.3248,-8.58244c-1.47673,-2.63461 -1.97317,-5.7647 -3.57246,-8.32677c-0.66115,-1.05915 -6.08246,-6.70417 -6.32729,-6.99941c-3.99579,-4.81839 -8.03551,-10.37684 -13.62639,-13.57783c-1.37446,-0.78693 -3.11015,-0.70395 -4.55428,-1.3542c-1.76019,-0.79257 -3.20229,-2.20917 -4.98799,-2.94245c-8.35454,-3.43069 -17.68425,-5.09467 -26.28332,-7.75233c-6.35506,-1.96413 -11.35546,-4.25461 -18.07813,-5.06677c-4.19717,0.73049 -8.84871,1.06307 -13.31059,1.75173c0.38777,2.42408 0.72196,4.57222 0.80267,4.91164z" fill="#000000" stroke-width="0.5"/><path d="M-23.62626,109.94228c3.41676,0.54332 3.96502,-2.87587 3.96502,-2.87587l0.09999,-0.69092c0.36558,-0.05393 0.70907,-0.10567 1.02244,-0.15606c0,0 3.41744,-0.56663 2.85241,-3.97986c-0.3217,-1.9433 -1.52031,-2.46665 -2.53293,-2.66932c0.57424,-0.44899 1.15691,-0.99544 1.56861,-1.57337c0.75761,-1.06355 0.65161,-2.7621 1.71043,-3.52631c1.32787,-0.9584 3.21383,-0.67679 4.78004,-1.15505c2.54307,-0.77657 4.677,-2.59148 7.17603,-3.49987c6.17294,-2.24382 12.78284,-0.45796 18.88738,-3.18994c5.12279,-2.29263 9.25084,-5.57853 14.57129,-7.70666c7.40856,-2.90704 16.09824,-2.33619 22.34157,2.82368c0.34231,0.2829 2.97421,2.80416 4.12364,4.08457c-0.41103,0.11801 -0.89465,0.35701 -1.29671,0.48733c-3.85746,1.25039 -7.62978,2.89762 -11.32777,4.69497c-0.85635,-2.70808 -3.82545,-2.21431 -3.82545,-2.21431c-0.24195,0.04005 -8.47022,1.38635 -8.78079,1.51338c-9.61441,3.93233 -17.38363,12.54156 -24.18219,19.97055c-4.60501,5.03201 -10.13414,9.8733 -14.08941,15.4523c-3.0465,4.29717 -4.63187,10.97532 -6.14551,15.86769c-1.74179,5.62981 -4.45365,11.41618 -5.63968,17.17952c-0.92835,4.51117 -1.10272,9.56929 -1.39302,14.15383c-2.74187,18.60777 -0.18796,37.7001 5.03754,55.73295c1.48213,5.11479 3.23497,9.84094 5.43183,14.41511c-1.04256,0.76655 -2.13878,1.60018 -3.24111,2.19979c-2.86696,1.55943 -6.34828,1.54897 -9.5424,2.21898c-5.8808,1.23356 -13.11444,1.41348 -16.52024,-4.90865c-1.89593,-3.51935 -3.20475,-11.14814 -3.14059,-15.20969c0.02474,-1.56541 1.19382,-3.10279 0.82573,-4.6245c-0.50605,-2.09208 -1.79194,-4.01843 -3.29399,-5.56011c-0.85786,-0.8805 -2.56424,-0.48044 -3.43641,-1.34677c-1.27994,-1.27135 -1.955,-3.05736 -2.66633,-4.71525c-4.21247,-9.81806 -4.53282,-21.62026 -2.74533,-31.93804c1.83827,-8.26021 3.68782,-15.17737 8.5818,-22.21875c1.81583,-2.61256 5.51586,-3.42702 7.50585,-5.90949c0.97881,-1.22104 0.55525,-3.12018 1.19801,-4.54703c0.67079,-1.48908 2.35218,-2.50344 2.69656,-4.09992c1.09339,-5.06885 -3.13555,-11.93976 -3.35801,-17.19227c-0.1938,-4.57553 1.92526,-10.84092 4.70624,-14.5151c1.08974,-1.43973 3.11696,-2.37767 5.33586,-3.02115c0.27754,0.94051 0.99004,1.97142 2.73959,2.24963z" data-paper-data="{&quot;noHover&quot;:false,&quot;origItem&quot;:[&quot;Path&quot;,{&quot;applyMatrix&quot;:true,&quot;segments&quot;:[[[361.42832,238.98915],[0,0],[-2.42886,-0.80962]],[[358.05514,235.13427],[0.17372,1.4065],[-3.31562,0.39374]],[[349.74298,238.17867],[1.89358,-1.79558],[-4.83238,4.5823]],[[339.62534,257.75199],[0.80364,-6.5696],[-0.92256,7.5416]],[[340.37246,283.04013],[2.75538,-6.96916],[-0.86784,2.195]],[[335.56624,288.24019],[1.3079,-1.96482],[-1.25324,1.8827]],[[332.7899,294.43117],[1.6838,-1.50994],[-3.4233,3.06984]],[[320.69858,301.07087],[3.20568,-3.29644],[-8.63988,8.88456]],[[303.22152,330.68627],[4.5707,-11.34364],[-4.98394,14.28932]],[[299.58316,376.83041],[-3.68882,-14.993],[0.6229,2.53174]],[[302.26796,384.17691],[-1.52488,-2.11482],[1.03906,1.44108]],[[306.84698,386.90457],[-1.01532,-1.45792],[1.77776,2.55268]],[[310.22588,395.60357],[-0.22774,-3.10236],[0.16566,2.25656]],[[307.95514,402.00039],[0.40476,-2.22614],[-1.05014,5.77584]],[[308.83362,424.41941],[-1.87256,-5.46544],[3.36384,9.81806]],[[331.21378,435.30727],[-8.67608,0.37078],[4.71236,-0.2014]],[[345.3341,434.39163],[-4.45582,1.54676],[1.71324,-0.59474]],[[350.40456,432.20747],[-1.66742,0.84688],[-2.05266,-7.04044]],[[346.05164,410.36767],[0.906,7.64256],[-3.19428,-26.94486]],[[351.97026,329.64629],[-8.3014,25.88404],[1.49602,-6.46818]],[[357.30024,309.73939],[-2.38844,6.21296],[3.0514,-7.9375]],[[369.43986,286.52245],[-3.81228,7.61594],[3.31292,-6.61834]],[[381.9844,265.33569],[-5.358,5.4079],[6.9563,-7.02106]],[[405.75538,246.63037],[-7.7536,6.08778],[11.44696,-8.98768]],[[444.97678,223.87467],[-14.6365,3.33746],[0.4728,-0.10782]],[[457.86172,223.79443],[-0.35444,0],[0,0]],[[462.79776,227.85777],[-0.5818,-4.06334],[5.69686,-1.68984]],[[480.0636,223.84277],[-5.79514,0.87234],[0.60402,-0.09092]],[[481.89076,223.59997],[-0.6139,0.07124],[-1.33666,-2.09692]],[[476.97984,216.80685],[0.4213,0.48416],[-7.68392,-8.83064]],[[445.81132,207.52047],[11.24938,-2.39624],[-8.08828,1.77852]],[[423.23054,215.07513],[7.84528,-2.05972],[-9.34874,2.45444]],[[395.5724,215.16985],[9.33106,-1.74226],[-3.77756,0.70534]],[[384.52522,218.46627],[3.80924,-0.507],[-2.346,0.31224]],[[377.44404,218.98431],[2.1195,-1.05308],[-1.69006,0.8397]],[[374.17678,223.60791],[1.33124,-1.3376],[-0.72342,0.72686]],[[371.53424,225.28405],[0.92474,-0.50464],[1.39598,0.52798]],[[374.55098,229.88469],[0,-2.84672],[0,5]],[[369.55098,234.88469],[0,0],[-0.4587,-0.00212]],[[368.05792,234.86549],[0.53398,0.0094],[0,0]],[367.75284,235.82685],[[361.4283,238.98913],[4.74342,1.58114],[0,0]]],&quot;closed&quot;:true,&quot;fillColor&quot;:[0,0,0,1]}]}" fill="#302617" stroke-width="0.5"/><path d="M2.45499,232.43746c-2.05848,1.87791 -4.1404,4.01578 -6.30403,6.08024c-1.67219,-3.69781 -3.0668,-7.52635 -4.26441,-11.65515c-4.98917,-17.20023 -7.49072,-35.42172 -4.87787,-53.16612c0.24476,-3.84439 0.4622,-9.53043 1.24556,-13.36797c1.14131,-5.59113 3.86004,-11.31083 5.54567,-16.77685c1.30407,-4.22871 2.69336,-10.47414 5.38364,-14.18285c3.79558,-5.23243 9.07416,-9.7867 13.42572,-14.54845c5.82606,-6.37524 12.62395,-14.18864 20.80443,-17.84798c-0.15046,0.47653 -0.19913,1.05091 -0.08472,1.74205c0.56503,3.41324 3.98274,2.84867 3.98274,2.84867l2.54145,-0.59986c5.7713,-3.0473 11.73154,-6.11286 17.91979,-8.16672c0.36413,-0.12086 0.7335,-0.23501 1.1062,-0.34363c0.42997,3.12993 0.6754,6.37884 1.81114,9.31335c1.76429,4.55854 4.6478,6.72755 6.47747,11.25336c3.63236,8.98494 3.16725,19.60361 -2.17871,27.80989c-1.18572,1.82013 -6.07717,6.64733 -7.4984,8.09471c-2.73202,1.16243 -5.67195,2.42706 -8.62842,2.6999c-5.08309,0.4691 -7.57166,-1.32953 -10.11002,5.06433c-0.334,0.84132 1.07099,8.66972 1.26331,9.82294c0.71802,4.30544 0.66539,8.75763 0.65892,13.12255c-0.00914,6.16699 1.41598,12.16385 -1.7657,17.8851c-1.93001,3.47053 -6.30372,11.14419 -10.34331,12.64693c-1.68991,0.62866 -3.546,0.83113 -5.34887,0.85667c-2.60977,0.03698 -5.55404,-1.98123 -7.81269,-0.67324c-2.96973,1.71979 -1.22616,6.82681 -2.65461,9.94715c-2.28656,4.99479 -6.2071,8.66979 -10.29427,12.14103z" data-paper-data="{&quot;noHover&quot;:false,&quot;origItem&quot;:[&quot;Path&quot;,{&quot;applyMatrix&quot;:true,&quot;segments&quot;:[[[369.72084,419.61989],[0,0],[6.64686,-3.98464]],[[387.2562,404.73453],[-4.43914,6.58194],[2.7732,-4.11186]],[[393.3894,391.17853],[-4.6402,1.75114],[3.52914,-1.33184]],[[404.35426,393.97651],[-3.72978,-0.56326],[2.5766,0.38912]],[[412.1716,394.01499],[-2.55788,0.49748],[6.1144,-1.18916]],[[429.87336,378.42391],[-3.57098,4.49278],[5.88686,-7.40646]],[[436.57574,353.35291],[-1.46864,8.79082],[1.0395,-6.22202]],[[438.68838,334.54645],[0.00754,6.30824],[-0.00202,-1.68966]],[[439.21624,320.32041],[-0.6748,1.12072],[5.12838,-8.51732]],[[455.00334,315.39299],[-7.35826,-0.53092],[4.27976,0.3088]],[[467.7583,313.65607],[-4.16972,1.01256],[2.36804,-1.72822]],[[480.36312,303.89145],[-2.12022,2.3153],[9.55928,-10.4388]],[[490.05282,264.78219],[3.05834,13.6682],[-1.54052,-6.88482]],[[483.48598,247.21911],[1.43958,6.91606],[-0.92672,-4.45212]],[[483.10796,233.51667],[-0.1257,4.56418],[-0.55704,0.0669]],[[481.4506,233.74611],[0.5477,-0.08638],[-9.30806,1.4678]],[[453.99158,241.16965],[8.94806,-2.98268],[0,0]],[450.22992,241.42623],[[445.22992,236.42623],[0,5],[0,-1.01244]],[[445.76194,233.96241],[-0.327,0.64394],[-12.52756,3.28666]],[[411.92346,254.50151],[9.81162,-7.71476],[-7.32844,5.76226]],[[389.38264,272.06373],[6.6468,-6.56458],[-4.7112,4.65294]],[[378.38414,290.99459],[2.85746,-5.72156],[-3.69354,7.39564]],[[366.53814,313.56841],[2.94698,-7.70252],[-2.0227,5.28672]],[[361.61098,332.30283],[1.25638,-5.42362],[-7.91368,24.68348]],[[355.98164,409.18621],[-3.05384,-25.70192],[0.73304,6.16956]],[[359.30126,426.80361],[-1.51142,-5.66708],[3.5722,-2.43284]],[[369.72086,419.61985],[-3.37826,2.19168],[0,0]]],&quot;closed&quot;:true,&quot;fillColor&quot;:[0,0,0,1]}]}" fill="#302617" stroke-width="0.5"/><path d="M65.88574,96.17633c-0.08071,-0.33942 -0.43453,-2.62456 -0.82229,-5.04864c4.46188,-0.68866 9.12351,-1.02194 13.32068,-1.75243c6.72267,0.81216 11.73715,3.10415 18.09222,5.06828c8.59907,2.65766 17.94845,4.32906 26.30299,7.75975c1.7857,0.73328 3.23157,2.15216 4.99176,2.94473c1.44413,0.65025 3.18263,0.5692 4.55709,1.35614c5.59088,3.20099 9.64136,8.76909 13.63715,13.58747c0.24483,0.29524 5.67064,5.94578 6.33179,7.00493c1.59929,2.56207 2.09945,5.69782 3.57619,8.33243c1.56634,2.79448 3.39189,5.52534 4.32821,8.58897c3.05795,9.62375 4.02518,19.80037 4.90824,29.77681c0.28903,3.26522 1.32701,6.4437 1.60423,9.70996c0.33276,3.92099 -0.56265,7.86151 -1.00459,11.77169c-1.14884,10.16439 -1.37457,19.31318 -5.48049,28.99429c-2.48354,5.85582 -6.757,11.12958 -10.4241,16.27022c-3.54721,3.72018 -7.38151,5.42307 -11.62424,8.30356c-5.28976,3.59132 -10.79766,8.29719 -16.71128,10.95851c-3.9206,1.76439 -8.18883,2.67608 -12.17724,4.28131c-3.84489,1.54746 -7.94154,2.49708 -11.68828,4.26899c-1.65837,0.78427 -2.89891,2.36018 -4.6182,2.99996c-1.85719,0.6911 -3.91253,0.66943 -5.88009,0.90492c-3.88129,0.46456 -7.82644,0.09038 -11.73539,0.11007c-8.60742,0.04336 -17.74422,1.20992 -26.28737,-0.49064c-4.06233,-0.80863 -8.14159,-2.00008 -12.2831,-1.93516c-8.59425,-0.9922 -14.27257,-4.35287 -21.21585,-9.31235c-4.07612,-2.91151 -8.93442,-4.74302 -12.34167,-8.683c-0.94884,-1.09721 -1.21812,-2.64435 -1.98428,-3.87609c-0.66699,-1.07232 -1.30308,-2.14405 -1.90756,-3.21594c2.63489,-2.4058 5.14612,-4.96254 7.66019,-7.25659c4.69295,-4.05954 9.37847,-8.51483 11.9459,-14.34783c0.80871,-1.83733 1.62217,-3.75425 1.78111,-5.75539c0.05396,-0.67958 -1.74609,-1.85877 -1.07628,-1.73189c1.29178,0.24468 2.04301,1.99164 3.35562,2.06663c10.71243,0.61207 17.42087,-8.63352 21.91987,-17.09255c3.73651,-7.02539 2.53806,-13.61716 2.54346,-21.15455c0.00171,-2.36971 0.50451,-4.74869 0.37541,-7.11488c-0.23786,-4.35943 -2.49936,-9.43308 -2.60175,-13.73221c-0.0332,-1.39376 2.78429,-0.20153 4.17515,-0.29738c5.52871,-0.38101 6.40704,-1.4234 11.85285,-3.81502c2.42469,-2.38086 7.45267,-7.01115 9.40854,-10.00749c6.53731,-10.01495 7.44606,-23.08586 2.85162,-34.07518c-2.27582,-5.44348 -6.27956,-8.5755 -7.65623,-14.36438z" data-paper-data="{&quot;noHover&quot;:false,&quot;origItem&quot;:[&quot;Path&quot;,{&quot;applyMatrix&quot;:true,&quot;segments&quot;:[[[246.13716,120.1473],[0,0],[0.29826,4.2894]],[[249.90402,131.29156],[-0.98003,-4.14927],[1.97849,8.37658]],[[243.8463,155.34717],[5.84241,-6.36822],[-1.74797,1.90529]],[[235.97539,161.36742],[2.00956,-1.41118],[-4.16461,1.06231]],[[227.08928,162.67948],[3.98642,0.38085],[-1.00287,-0.09581]],[[224.08027,162.39628],[0.14082,-0.99754],[-0.43437,3.07696]],[[224.32351,172.48023],[0.34491,-3.13594],[-0.18721,1.70211]],[[223.22001,177.49745],[0.28088,-1.68918],[-0.89338,5.37282]],[[218.90822,192.24955],[3.49289,-4.56748],[-4.20567,5.49954]],[[201.1718,201.88615],[7.56473,1.70058],[-0.92692,-0.20837]],[[199.02244,200.01438],[0.89204,0.32688],[-0.46254,-0.1695]],[[199.67813,201.33881],[0.11867,-0.47811],[-0.34947,1.40787]],[[197.72802,205.2292],[0.79337,-1.21441],[-2.51872,3.85539]],[[187.51721,214.04569],[3.82472,-2.34023],[-2.06303,1.33875]],[[181.19959,218.31453],[2.16235,-1.40415],[0.30444,0.8355]],[[182.17905,220.83075],[-0.34895,-0.84318],[0.40083,0.96853]],[[183.13511,223.82648],[-0.54695,-0.89418],[1.96408,3.21095]],[[190.9043,231.46738],[-2.56229,-2.55668],[4.36462,4.35506]],[[204.9215,240.60243],[-6.0098,-1.7216],[2.96017,0.44248]],[[213.4444,243.42838],[-2.80063,-1.0559],[5.88977,2.22057]],[[232.11373,246.87591],[-6.1414,-0.9849],[2.78904,0.44728]],[[240.48657,248.18157],[-2.82182,-0.12687],[1.43048,0.06432]],[[244.78206,248.23029],[-1.40556,0.27351],[1.3012,-0.2532]],[[248.42562,246.6367],[-1.27482,0.3634],[2.88019,-0.82103]],[[257.25513,244.9736],[-2.92367,0.64944],[3.03281,-0.67368]],[[266.43467,243.36046],[-3.00325,0.79515],[4.52994,-1.19937]],[[279.63155,237.52512],[-4.19494,1.936],[3.36462,-1.55281]],[[288.89236,232.98189],[-2.96787,2.23352],[3.22098,-3.23202]],[[298.23683,222.62058],[-2.46161,3.88155],[4.06966,-6.41717]],[[305.55821,202.61143],[-2.01857,7.11068],[0.77653,-2.73544]],[[307.66196,194.34432],[-0.22551,2.83457],[0.18784,-2.36125]],[[307.66349,187.23819],[-0.1793,2.36191],[0.54784,-7.21648]],[[307.6801,165.44769],[1.04428,7.22172],[-0.30595,-2.29458]],[[305.60978,158.81882],[0.78686,2.17705],[-0.74185,-2.05251]],[[304.04564,152.461],[0.83778,2.01526],[-0.34634,-0.8331]],[[300.36091,146.72435],[0.1397,0.23937],[-2.27998,-3.90663]],[[292.24896,135.4365],[3.60801,2.94182],[-0.88699,-0.72322]],[[289.162,133.9336],[0.95279,0.634],[-1.16132,-0.77276]],[[285.95328,131.24725],[1.1865,0.7335],[-5.55113,-3.43173]],[[268.13062,122.61872],[5.81669,2.90949],[-4.29877,-2.15024]],[[255.84056,116.87308],[4.69679,1.37238],[-3.0784,0.02544]],[[246.14462,116.55104],[3.26218,0.03562],[-0.00964,1.7739]],[[246.1372,120.14731],[-0.01748,-0.2515],[0,0]]],&quot;closed&quot;:true,&quot;fillColor&quot;:[0,0,0,1],&quot;strokeWidth&quot;:0.5}]}" fill="#584529" stroke-width="0.25"/><path d="M47.24599,315.55289c0.24988,-1.1812 0.49612,-2.26508 0.66499,-3.1671c1.24209,-6.63495 3.56738,-13.5249 6.38217,-20.12354c15.89423,-2.60751 31.88673,-4.56732 47.80116,-7.20182c5.73018,-0.94858 10.94513,-2.14665 16.54022,-3.47633c2.10335,-0.49985 4.36911,-0.35255 6.39245,-1.11416c1.86785,-0.70308 3.26747,-2.32614 5.06592,-3.19145c2.83881,-1.36586 6.21665,-1.16564 9.19332,-2.19712c2.02294,-0.701 6.26687,-3.37027 8.32354,-4.61683c1.80901,2.04194 4.07838,3.68924 5.79842,5.81204c1.33772,1.65097 1.58641,3.9617 2.13959,6.01334c1.29564,4.80521 2.77581,8.33855 3.04946,12.45027c-5.54264,3.36814 -10.83915,6.43924 -16.7903,9.06126c-5.54672,2.44384 -12.44195,2.72353 -18.37281,3.70534c-25.3568,4.19761 -51.00374,4.38301 -76.18813,8.04611z" data-paper-data="{&quot;noHover&quot;:false,&quot;origItem&quot;:[&quot;Path&quot;,{&quot;applyMatrix&quot;:true,&quot;segments&quot;:[[[262.18368,277.61616],[-18.57241,0],[4.34401,0]],[[275.7114,277.15583],[-4.2427,1.08763],[4.55206,-1.16694]],[[288.74773,272.68806],[-4.34888,1.74705],[0.29015,-2.96356]],[[288.04251,263.46353],[0.35658,3.57857],[-0.15224,-1.5279]],[[287.22753,258.92978],[0.75883,1.33486],[-0.9757,-1.71634]],[[283.78145,254.10892],[1.04867,1.6692],[-1.61333,0.64595]],[[277.3026,256.41773],[1.5249,-0.26101],[-2.24381,0.38405]],[[270.49048,256.90229],[2.185,-0.63871],[-1.38425,0.40463]],[[266.50224,258.57947],[1.41458,-0.2808],[-1.53233,0.30417]],[[261.81577,258.62424],[1.55848,-0.10812],[-4.1457,0.28763]],[[249.64574,259.17565],[4.19703,0],[-11.65641,0]],[[214.77925,258.63094],[11.63883,0.01686],[-2.78543,4.37203]],[[207.85505,272.20545],[1.66852,-4.58351],[-0.22683,0.62312]],[[207.00678,274.38244],[0.31754,-0.81259],[18.38641,0.3607]]],&quot;closed&quot;:true}]}" fill="#ffffff" stroke-width="0.5"/><path d="M58.52093,67.19321c0.40504,0.68582 0.51265,1.33593 0.51265,1.33593c2.50627,15.23228 3.6756,30.70701 6.83046,45.89776c4.91652,23.67322 10.84012,47.1012 17.71132,70.29342c3.89062,10.40345 5.84547,21.76299 8.48405,32.55352c0.98735,4.03783 0.83786,8.55545 2.06112,12.52389c1.58823,5.15248 3.57224,10.05354 4.82985,15.29532c0.88629,3.69406 1.65522,7.41677 2.60641,11.09467c1.26337,4.88502 0.17622,11.69473 6.38943,12.66613c3.6282,-0.09272 9.2493,-0.00142 12.68879,-1.38319c1.68991,-0.6789 2.94867,-2.16836 4.57802,-2.98196c2.91335,-1.45474 6.24205,-2.03435 9.04375,-3.69401c4.0244,-2.38398 7.63357,-5.52858 11.55385,-7.97868c6.48153,-4.05084 13.26054,-7.07968 16.77807,-14.61003c4.50419,-9.64256 5.11417,-21.23039 4.90095,-31.78199c1.75842,-8.09026 1.10365,-16.49579 0.39844,-24.64259c-1.45442,-16.80162 -1.21543,-33.03358 -7.99411,-48.83374c-1.67381,-3.90144 -1.79,-7.07456 -4.03159,-10.68375c-3.48812,-10.08266 -6.21258,-20.19034 -8.97896,-30.46387c-0.97636,-3.62593 -0.86762,-7.54434 -1.84809,-11.16389c-0.73992,-2.73152 -2.16405,-5.25083 -2.85785,-7.99443c-1.0128,-4.00526 -1.22253,-7.56046 -2.61599,-11.45847c-1.55541,-4.35107 -1.46058,-11.9549 -4.39743,-15.62161c-1.18389,-1.47811 -3.61815,-1.13996 -5.47103,-1.53135c-10.62221,-2.36915 -20.79432,-0.13014 -31.31115,1.61084c-4.27438,0.70759 -9.82032,0.87366 -13.76998,2.88465c-1.5748,0.80181 -2.69473,2.37816 -4.31887,3.07461c-3.77287,1.61785 -9.02294,2.02072 -13.05775,3.01125c-0.027,0.00663 -5.94743,1.56394 -6.72387,2.57888c-2.28921,2.99239 -2.13369,6.52206 -1.99048,10.00273zM53.3332,76.98659c-0.81902,-0.85338 -1.00789,-1.99436 -1.00789,-1.99436l-0.6551,-4.06039c0.2067,-6.19723 -0.98671,-12.87665 3.5548,-18.20582c5.34329,-6.27001 15.63463,-4.53997 22.39981,-7.50989c1.47119,-0.64585 2.42978,-2.16331 3.87302,-2.86942c4.76467,-2.33114 10.60455,-2.67966 15.75401,-3.53211c11.44804,-1.89513 22.35548,-4.05528 33.92726,-1.54227c3.14495,0.7134 6.76729,1.08982 9.1577,3.69354c3.924,4.27414 3.87275,12.68335 5.73559,17.8751c1.47208,4.10271 1.76208,7.92892 2.8151,12.11144c0.68189,2.7084 2.10353,5.18961 2.82973,7.88647c0.97636,3.62593 0.86762,7.54435 1.84809,11.1639c2.67918,9.8905 5.29211,19.61035 8.56654,29.3334c2.21313,3.73592 2.42726,7.02082 4.13014,10.90481c4.51244,10.29214 7.16729,22.18 7.92212,33.50518c0.38347,5.75342 0.08252,11.61845 0.59337,17.3919c0.75485,8.53113 1.48256,17.49381 -0.40109,25.95704c0.27367,11.31343 -0.57453,23.91816 -5.58903,34.1856c-1.66244,3.40394 -6.09152,8.9932 -8.91481,11.50503c-2.95084,2.62533 -6.95997,3.74783 -10.30817,5.84289c-3.98632,2.49434 -7.66743,5.71985 -11.7797,8.11847c-2.98316,1.74003 -6.47629,2.43553 -9.56777,3.97491c-1.79848,0.89553 -3.22882,2.48303 -5.10238,3.20849c-4.54187,1.75865 -11.079,1.71724 -15.83949,1.8101c-1.805,-0.45031 -3.83721,-0.36534 -5.41501,-1.35094c-6.09358,-3.80638 -5.46246,-10.59885 -7.01329,-16.51268c-0.95421,-3.6387 -1.70148,-7.3286 -2.57829,-10.98669c-1.2501,-5.21545 -3.25745,-10.09241 -4.81036,-15.22436c-1.23812,-4.09162 -1.1042,-8.63162 -2.12789,-12.78095c-2.60623,-10.56385 -4.42606,-21.79961 -8.31216,-31.95571c-6.96622,-23.44984 -12.9661,-47.15352 -17.92911,-71.09668c-2.66378,-12.85088 -3.90946,-25.90915 -5.75576,-38.84599z" fill="#ffffff" stroke-width="0.5"/><path d="M60.47588,57.13111c0.77644,-1.01494 6.70066,-2.57437 6.72766,-2.581c4.03482,-0.99054 9.29233,-1.3967 13.06521,-3.01456c1.62414,-0.69645 2.74706,-2.27385 4.32186,-3.07566c3.94966,-2.011 9.50405,-2.17922 13.77842,-2.88681c10.51684,-1.74097 20.70839,-3.98086 31.3306,-1.61171c1.85288,0.3914 4.29062,0.05367 5.47451,1.53178c2.93687,3.6667 2.84672,11.27139 4.40213,15.62246c1.39346,3.89801 1.60712,7.45419 2.61992,11.45945c0.69378,2.74361 2.12203,5.26421 2.86195,7.99573c0.98047,3.61956 0.87679,7.53997 1.85315,11.16589c2.76638,10.27353 5.51465,20.39853 9.00277,30.4812c2.24158,3.60919 2.36695,6.79541 4.04078,10.69685c6.77866,15.80016 6.53951,32.09828 7.99393,48.8999c0.70523,8.14679 1.34676,16.56943 -0.41166,24.6597c0.21322,10.5516 -0.41214,22.15039 -4.91633,31.79295c-3.51753,7.53035 -10.31036,10.56462 -16.79189,14.61546c-3.92029,2.45011 -7.53785,5.59646 -11.56227,7.98044c-2.80168,1.65966 -6.13635,2.23985 -9.0497,3.6946c-1.62935,0.8136 -2.89102,2.30316 -4.58093,2.98206c-3.43951,1.38178 -9.06828,1.29016 -12.69649,1.38289c-6.21322,-0.97139 -5.13114,-7.78179 -6.39451,-12.66681c-0.95119,-3.6779 -1.72339,-7.40125 -2.60968,-11.09533c-1.2576,-5.24178 -3.24843,-10.14474 -4.83666,-15.29721c-1.22325,-3.96843 -1.0794,-8.48822 -2.06676,-12.52605c-2.63858,-10.79053 -4.61895,-22.16915 -8.50957,-32.5726c-6.87122,-23.19222 -12.79675,-46.7066 -17.71327,-70.3798c-3.15485,-15.19075 -4.30862,-30.68035 -6.8149,-45.91262c0,0 -0.10743,-0.65023 -0.51247,-1.33605c-0.14321,-3.48067 -0.295,-7.01274 1.99423,-10.00513z" data-paper-data="{&quot;noHover&quot;:false,&quot;origItem&quot;:[&quot;Path&quot;,{&quot;applyMatrix&quot;:true,&quot;segments&quot;:[[[488.61225,197.33176],[0.61736,-4.99658],[0.41563,1.07343]],[[489.02788,199.35754],[0,0],[-0.02181,22.30994]],[[487.93352,266.41138],[-0.91274,-22.40383],[1.42241,34.91403]],[[496.59511,370.8171],[-4.32298,-34.6896],[3.09177,15.75168]],[[501.00812,419.23483],[-1.21521,-16.00807],[0.45473,5.99024]],[[500.99085,437.57805],[-0.80746,-5.94698],[1.04838,7.72135]],[[504.26714,460.52632],[-0.55589,-7.77064],[0.39175,5.47625]],[[505.36469,476.96045],[-0.48812,-5.4685],[0.64833,7.26333]],[[511.48524,496.52808],[-8.62961,-2.85153],[5.19503,0.72415]],[[529.90357,497.55085],[-5.23023,1.15833],[2.56974,-0.56912]],[[537.1348,494.37969],[-2.51518,0.77546],[4.49726,-1.38655]],[[550.9014,491.24733],[-4.38641,1.70508],[6.30075,-2.44922]],[[569.25826,482.59828],[-6.1679,2.56809],[10.19759,-4.2459]],[[596.62908,465.72725],[-6.79274,9.90662],[8.69807,-12.68537]],[[611.11847,421.56884],[-2.1865,15.09494],[4.41675,-11.12015]],[[617.50299,386.52715],[-0.91739,11.78227],[1.89198,-24.29927]],[[617.63117,315.01249],[5.93579,24.12806],[-1.46569,-5.9578]],[[614.40458,298.82787],[2.3442,5.67512],[-2.59358,-15.19929]],[[608.79269,253.27278],[1.51946,15.30107],[-0.53628,-5.40035]],[[608.79269,236.91894],[0.54365,5.39223],[-0.41027,-4.06928]],[[606.60488,224.84584],[0.34162,4.07562],[-0.49871,-5.94982]],[[605.57952,207.89074],[1.06676,5.88674],[-1.19074,-6.57093]],[[602.99679,184.57931],[3.32195,5.92122],[-1.33912,-2.38693]],[[595.55757,181.10455],[2.54948,0.9954],[-14.58609,-5.88513]],[[550.53351,176.01089],[15.40597,0],[-6.26147,0]],[[530.21922,176.87371],[6.10614,-1.93506],[-2.43462,0.77154]],[[523.33561,180.23815],[2.48011,-0.60966],[-5.76128,1.41623]],[[504.00694,181.44959],[5.9867,-0.45998],[-0.04006,0.00308]],[[493.81127,183.53956],[1.34662,-1.26385],[-3.97029,3.72626]]],&quot;closed&quot;:true}]}" fill="#000000" stroke-width="0.5"/></g><path d="M69.65179,202.11536c-0.98864,1.73012 -2.27095,3.58268 -4.03996,4.47677c-0.18102,0.09149 -0.36714,0.17295 -0.55856,0.24321c-1.38172,0.50716 -2.73434,1.0923 -4.12113,1.58544c-0.19086,0.06787 -0.76051,-0.00411 -0.59671,0.11508c1.61646,1.17633 3.97031,1.32438 4.88131,3.50843c2.60227,6.23877 0.24608,13.66782 -4.43866,18.31182c-10.22151,10.13262 -28.69978,1.57692 -25.259,-13.13651c2.32947,-9.96125 13.60906,-14.65558 22.52219,-17.33578c1.57348,-0.47315 7.98609,-4.11122 9.39442,-1.64664z" fill="#000000" stroke="none" stroke-width="0.5" stroke-linecap="butt"/><path d="M48.69307,263.50331c-1.68637,-3.2675 -5.2309,-8.25323 -1.15733,-11.23007c4.88442,-3.56938 12.15662,-3.43445 17.87284,-4.79488c8.69632,-2.06968 17.21386,-4.8916 25.95764,-6.72784c3.71778,-0.78075 12.6492,-3.92374 12.6492,3.0921c0,5.0419 -8.69329,5.07778 -12.43206,6.01597c-8.01251,2.01063 -16.24658,4.87106 -24.3175,6.42963c-1.12632,0.2175 -10.10444,1.05346 -10.98777,2.1709c-0.05579,0.07057 -0.01074,0.25924 0.09005,0.51536c0.62996,0.69058 1.0477,1.57811 1.15006,2.55942c0.05685,0.1973 0.07235,0.35118 0.02436,0.43674c0.00009,0.01186 0.00014,0.02374 0.00014,0.03562c0,2.48528 -2.01472,4.5 -4.5,4.5c-0.75396,0.44822 -1.69128,-0.04344 -2.50746,-0.76278c-0.64234,-0.43182 -1.16725,-1.02487 -1.51676,-1.72116c-0.15031,-0.21546 -0.26241,-0.39694 -0.32541,-0.51901z" fill="#000000" stroke="none" stroke-width="0.5" stroke-linecap="butt"/><path d="M220.56055,257.6499c-2.27657,1.13828 -3.9093,0.34507 -4.8982,-0.55883c-4.14415,0.87426 -8.28739,1.74003 -12.45232,2.47609c6.56497,4.86921 14.68867,8.5931 21.29243,12.51605c13.77815,8.18487 27.11167,17.13149 41.21946,24.7687c6.79014,2.44415 13.5336,4.95151 20.82618,4.93974c2.35415,-0.0038 5.30051,0.6738 7.47677,-0.4312c1.06734,-0.54195 1.70755,-2.33499 2.21163,-3.04116c1.79471,-2.51426 2.82137,-4.72789 3.17597,-7.88853c0.28069,-2.50187 0.51042,-3.54387 0.311,-6.19282c-0.37443,-4.97351 -0.90791,-10.07004 -1.75666,-14.98202c-1.25059,-7.29511 -2.53459,-14.58734 -3.69537,-21.89755c-0.20205,-1.27248 0.15476,-2.75171 -0.55846,-3.82471c-0.35375,-0.53219 -0.23461,1.5128 -0.83757,1.72446c-2.64612,0.92885 -5.51629,1.01612 -8.28258,1.47695c-4.58225,0.76334 -9.18428,1.40681 -13.7893,2.01791c-12.63187,1.67628 -25.28726,2.98158 -37.87944,4.98243c-3.42651,0.54446 -6.83154,1.19541 -10.22744,1.88654c-0.35737,0.74534 -1.01076,1.46531 -2.13608,2.02797zM211.31902,248.49615c0,0 -1.53785,-4.22907 2.69123,-5.76692c4.22907,-1.53785 5.76691,2.69123 5.76691,2.69123c0.18149,0.5064 0.36832,1.01228 0.56439,1.51473c3.70747,-0.767 7.4237,-1.49295 11.16389,-2.0873c12.67243,-2.01375 25.40819,-3.33048 38.12056,-5.01757c6.79116,-0.90127 13.8716,-1.78287 20.59479,-3.17182c2.18455,-0.45131 4.60566,-2.79353 6.49577,-1.60887c3.19202,2.00065 4.68185,6.02192 6.1082,9.50861c1.21924,2.98041 1.12123,6.34197 1.67381,9.51435c0.79288,4.55192 1.55814,9.10861 2.33883,13.66263c1.83087,10.75546 3.71011,22.67669 -1.30021,32.54583c9.75016,-2.2249 19.56038,-5.4572 26.62407,-12.33515c5.16533,-5.02952 9.50209,-12.02353 13.51227,-17.96979c13.23217,-24.51007 18.9183,-49.92433 18.91608,-77.73546c-0.00066,-8.2377 0.66147,-17.17367 -1.16656,-25.27009c-2.93109,-12.98191 -8.56311,-25.85787 -16.39464,-36.53717c-18.21955,-17.31358 -34.32917,-37.19442 -55.44901,-51.28796c-19.89715,-13.27764 -45.31426,-18.39741 -68.68342,-20.73241c-17.06828,-1.72825 -36.75675,-1.81504 -53.64003,1.39075c-10.1795,1.93289 -20.66666,4.96881 -30.69106,7.70334c-9.45912,2.58032 -19.47111,3.84166 -27.98863,9.00474c-11.10324,6.73047 -20.86804,16.87794 -28.9324,26.90249c-8.83525,10.9642 -15.92115,22.45905 -20.25595,35.9356c-2.29113,7.12295 -2.62348,14.409 -3.58074,21.73505c-1.04981,8.03433 -2.35746,16.95542 -1.24829,25.11072c0.18536,1.36284 3.31186,11.33219 3.64558,12.60615c2.5298,9.65727 7.35993,22.3082 16.06739,27.98381c3.79481,1.6087 7.84019,4.11584 11.74168,5.30403c13.42545,4.08862 33.02785,7.83422 45.77855,-0.39195l0.00002,0.00002c-0.37084,-5.57342 0.02745,-11.47513 0.02807,-16.77573c0.00122,-10.49075 -0.16831,-20.66665 4.04857,-30.36158c3.10695,-8.11517 8.6631,-13.69694 13.49821,-20.70597c1.09213,-1.58318 1.48655,-3.58789 2.62396,-5.13888c4.63352,-6.3183 11.06476,-10.49533 16.7378,-15.56749c4.33251,-3.87361 8.65267,-9.14628 13.98991,-11.83945c10.27356,-5.18405 22.42422,-6.05882 33.6701,-6.05882c0,0 4.11109,0 4.11109,4.11109c0,4.11109 -4.11109,4.11109 -4.11109,4.11109c-10.02549,0 -20.76156,0.63079 -29.94743,5.1678c-4.68741,2.31517 -8.39856,7.20805 -12.20555,10.61377c-5.08808,4.5518 -11.42114,8.41327 -15.46872,14.11913c-1.10182,1.55322 -1.50959,3.52429 -2.59158,5.09138c-4.48569,6.49693 -9.93497,11.65766 -12.69724,19.2109c-3.8884,8.5294 -3.43697,17.95639 -3.43585,27.24703c0.00043,3.54696 -0.22387,7.43184 -0.22729,11.27967c0.8528,0.0084 1.80911,0.33553 2.7654,1.29182c2.90697,2.90697 0,5.81396 0,5.81396l-0.6237,0.6237c-0.48488,0.4712 -0.97701,0.92465 -1.47609,1.36079c0.03932,0.2148 0.08077,0.42833 0.12448,0.64052c3.46686,16.83304 10.71063,33.61894 23.20381,45.84587c6.70643,6.56351 16.33091,12.32754 24.667,16.63665c6.5263,3.37357 13.81337,5.05149 20.78908,7.20405c18.76826,3.50894 37.45113,3.43464 56.09466,1.30565c-1.7584,-0.57838 -3.52646,-1.20287 -5.31877,-1.86003c-13.25592,-7.10612 -25.61877,-15.65552 -38.60188,-23.19142c-10.06199,-5.84037 -21.87539,-11.31682 -30.57507,-19.29757c-1.32545,-0.37829 -3.14922,-1.4193 -3.14922,-4.28408c0,-1.0908 0.26441,-1.9172 0.66504,-2.54327c0.23744,-3.45872 3.94347,-3.92198 3.94347,-3.92198c5.74872,-0.7131 11.43469,-1.82672 17.11265,-3.01444c-0.03919,-0.10521 -0.07815,-0.21049 -0.1169,-0.3158zM321.66033,331.07185c-0.50048,7.95094 -2.37784,13.82554 -5.26132,21.19334c-0.63081,1.61184 -0.63776,3.48059 -1.53561,4.96039c-2.27356,3.74722 -5.19179,4.64022 -8.37034,7.28901c-13.73565,11.44638 -31.12479,15.31937 -48.81118,15.31937c-6.97885,-0.00418 -14.47834,-0.00143 -21.36282,-1.32221c-7.54728,-1.44792 -14.05816,-5.2248 -20.90748,-8.41492c-6.97068,-3.24664 -14.36286,-8.95311 -17.09216,-16.64109c-2.30089,-6.48121 -0.62842,-13.16761 1.14818,-19.40504c2.02343,-7.10402 1.40703,-7.46751 5.51233,-13.60938c1.62919,-2.43741 3.65663,-4.5935 5.87497,-6.55391c-0.51949,-0.09257 -1.03907,-0.18768 -1.55874,-0.28538c-7.60788,-2.33094 -15.4641,-4.21837 -22.58646,-7.87816c-9.13436,-4.69364 -19.41444,-11.02339 -26.76004,-18.17724c-12.92638,-12.58899 -20.88963,-29.84606 -24.8195,-47.26273c-19.00781,9.75125 -44.32613,1.71131 -62.77454,-6.26859c-10.80795,-7.30695 -16.85973,-20.85209 -20.10728,-33.1389c-0.76966,-2.91197 -3.4738,-10.91831 -3.83883,-13.5893c-1.21187,-8.86742 0.10825,-18.53837 1.24651,-27.28017c1.01947,-7.82942 1.47032,-15.55645 3.90367,-23.17143c4.61226,-14.43373 12.23251,-26.84071 21.68057,-38.57842c8.66193,-10.74364 19.15165,-21.5987 31.08531,-28.78335c9.27073,-5.58144 19.80644,-7.09889 30.07596,-9.89905c10.2274,-2.78868 20.93754,-5.88102 31.32777,-7.85007c17.66554,-3.34779 38.11714,-3.25932 55.98485,-1.49293c24.72432,2.47441 51.37556,8.05132 72.41956,22.06815c21.72767,14.47219 38.4053,34.83031 57.07182,52.70705c8.70773,11.87418 15.05592,25.8788 18.27801,40.34114c1.92637,8.64647 1.32895,18.10182 1.32826,26.89268c-0.0023,29.3466 -6.11532,56.15483 -20.10494,81.99417c-4.37752,6.49267 -9.14816,14.15337 -14.82642,19.61829c-5.67603,5.46275 -12.63732,8.9551 -20.03027,11.45196c4.53828,8.56224 4.4132,16.18681 3.81019,25.76676zM221.36995,316.09701c-3.57318,2.4665 -7.12815,5.26188 -9.5309,8.87824c-2.24807,3.38352 -3.34721,7.43375 -4.46689,11.33866c-1.25674,4.38291 -3.02583,9.61828 -1.34663,14.27481c2.0401,5.65733 7.74049,9.71647 12.8455,12.04915c6.24252,2.85245 12.14172,6.50407 19.00939,7.80131c6.37911,1.20496 13.33972,1.17669 19.80144,1.1726c15.7072,0 31.28462,-3.19425 43.49658,-13.37088c0.13899,-0.11583 5.91802,-3.94041 6.59849,-5.18502c3.66735,-6.70776 5.21112,-14.9837 5.6771,-22.49495c0.50829,-8.19336 1.07717,-14.6774 -3.20849,-22.02923l-0.64414,-0.83743c-4.81132,1.20292 -9.67051,2.14949 -14.36054,3.08761c-24.38105,4.87683 -48.7077,7.42528 -73.20726,4.71509c-0.36064,0.38787 -0.66366,0.6 -0.66366,0.6z" fill="#000000" stroke="none" stroke-width="0.5" stroke-linecap="butt"/><path d="M133.72274,231.74201c-12.7507,8.22617 -32.36006,4.46706 -45.7855,0.37843c-3.90149,-1.18819 -7.94872,-3.70042 -11.74353,-5.30912c-8.70746,-5.6756 -13.54123,-18.34344 -16.07103,-28.00071c-0.33372,-1.27396 -3.46066,-11.2502 -3.64602,-12.61304c-1.10917,-8.15529 0.19929,-17.08979 1.2491,-25.12412c0.95726,-7.32606 1.29208,-14.62353 3.58321,-21.74648c4.3348,-13.47655 11.42964,-24.99153 20.2649,-35.95573c8.06436,-10.02456 17.84286,-20.18879 28.9461,-26.91927c8.51751,-5.16308 18.54232,-6.43428 28.00144,-9.01459c10.02439,-2.73453 20.52896,-5.77864 30.70845,-7.71153c16.88328,-3.20579 36.60606,-3.12283 53.67433,-1.39458c23.36916,2.335 48.82874,7.47183 68.7259,20.74948c21.11984,14.09355 37.25554,34.00969 55.47509,51.32327c7.83152,10.6793 13.46856,23.57623 16.39965,36.55814c1.82804,8.09642 1.16618,17.04588 1.16684,25.28358c0.00222,27.81112 -5.69686,53.2649 -18.92904,77.77497c-4.01018,5.94626 -8.35383,12.94946 -13.51916,17.97898c-9.9955,9.73265 -25.50589,12.17918 -38.54822,14.7873c-27.36744,5.47278 -54.81945,8.07265 -82.40966,2.91435c-6.97571,-2.15257 -14.27733,-3.83168 -20.80363,-7.20526c-8.33608,-4.30911 -17.98038,-10.0792 -24.68681,-16.64272c-12.49318,-12.22693 -19.76788,-29.03708 -23.23475,-45.87013c-0.04371,-0.2122 -0.08551,-0.42617 -0.12483,-0.64097c0.49909,-0.43614 0.99112,-0.88972 1.476,-1.36092l0.62364,-0.62378c0,0 2.90417,-2.91086 -0.0028,-5.81783c-0.95629,-0.95629 -1.91406,-1.28564 -2.76686,-1.29404c0.00342,-3.84783 0.22279,-7.7417 0.22236,-11.28867c-0.00112,-9.29065 -0.46011,-18.74644 3.42828,-27.27584c2.76227,-7.55323 8.21426,-12.74189 12.69995,-19.23882c1.08199,-1.5671 1.49249,-3.54637 2.59431,-5.09959c4.04758,-5.70586 10.39853,-9.59496 15.48661,-14.14676c3.807,-3.40572 7.54019,-8.31462 12.22761,-10.62979c9.18586,-4.53701 19.97166,-5.17537 29.99715,-5.17537c0,0 4.07986,0.16137 4.07986,-3.94972c0,-4.11109 -4.10425,-4.10984 -4.10425,-4.10984c-11.24588,0 -23.34856,0.8669 -33.62211,6.05094c-5.33724,2.69317 -9.63596,7.9504 -13.96847,11.82401c-5.67304,5.07216 -12.08681,9.22336 -16.72033,15.54165c-1.13741,1.55098 -1.52916,3.54854 -2.62129,5.13172c-4.83512,7.00903 -10.38735,12.56368 -13.4943,20.67885c-4.21687,9.69493 -4.05371,19.84101 -4.05493,30.33176c-0.00062,5.30061 -0.40542,11.18989 -0.03458,16.7633z" data-paper-data="{&quot;noHover&quot;:false,&quot;origItem&quot;:[&quot;Path&quot;,{&quot;applyMatrix&quot;:true,&quot;segments&quot;:[[[188.8192,184.93027],[0,0],[-0.22551,-3.38926]],[[188.83627,174.72875],[-0.00038,3.22336],[0.00074,-6.37955]],[[191.29825,156.26552],[-2.56433,5.8956],[1.88937,-4.93493]],[[199.50667,143.67398],[-2.94029,4.26227],[0.66414,-0.96275]],[[201.10233,140.54897],[-0.69167,0.94317],[2.8177,-3.84223]],[[211.28078,131.0822],[-3.44984,3.08444],[2.63465,-2.35559]],[[219.78821,123.88249],[-3.24564,1.63775],[6.24747,-3.15248]],[[240.26339,120.19805],[-6.83875,0],[0,0]],[[242.76339,122.69805],[0,-2.5],[0,2.5]],[[240.26339,125.19805],[0,0],[-6.09662,0]],[[222.05201,128.34065],[5.58603,-2.75901],[-2.85047,1.40788]],[[214.62967,134.79501],[2.31508,-2.07106],[-3.09412,2.768]],[[205.22296,143.38102],[2.46138,-3.4698],[-0.67003,0.94453]],[[203.64699,146.47715],[0.65797,-0.95297],[-2.7278,3.95086]],[[195.92565,158.15952],[1.67977,-4.59321],[-2.36458,5.18683]],[[193.83627,174.72876],[-0.00068,-5.64975],[0.00026,2.15695]],[[193.69805,181.58806],[0.00208,-2.33991],[0.5186,0.00511]],[[195.37972,182.37363],[-0.58153,-0.58153],[1.76776,1.76776]],[195.37972,185.90917],[[195.00044,186.28845],[0,0],[-0.29486,0.28654]],[[194.10281,187.11596],[0.3035,-0.26522],[0.02391,0.13062]],[[194.17851,187.50547],[-0.02658,-0.12904],[2.10824,10.23637]],[[208.28902,215.38488],[-7.59725,-7.43534],[4.07826,3.99135]],[[223.28931,225.50182],[-5.06927,-2.62042],[3.96872,2.05151]],[[235.93139,229.88269],[-4.24201,-1.309],[16.77793,3.13682]],[[286.01751,228.11936],[-16.64246,3.32806],[7.93119,-1.58603]],[[309.44979,219.13543],[-6.07838,5.91854],[3.1411,-3.05851]],[[317.66676,208.20779],[-2.43864,3.61599],[8.04664,-14.90486]],[[329.16985,160.93595],[0.00135,16.91227],[-0.0004,-5.00944]],[[328.46045,145.56891],[1.11165,4.92353],[-1.78243,-7.89445]],[[318.49068,123.35023],[4.76244,6.49421],[-11.07952,-10.52859]],[[284.77149,92.16142],[12.84322,8.57045],[-12.09969,-8.07429]],[[243.0043,79.5538],[14.21106,1.41994],[-10.37942,-1.05097]],[[210.38517,80.39953],[10.26692,-1.94948],[-6.19027,1.17541]],[[191.72158,85.08402],[6.09595,-1.6629],[-5.7522,1.56912]],[[174.70137,90.55991],[5.1796,-3.13973],[-6.75201,4.09288]],[[157.10724,106.91963],[4.90403,-6.09605],[-5.37282,6.66746]],[[144.78936,128.77249],[2.63604,-8.19525],[-1.39326,4.33155]],[[142.61187,141.98983],[0.58212,-4.45506],[-0.6384,4.88577]],[[141.85277,157.25995],[-0.6745,-4.95933],[0.11272,0.82876]],[[144.06969,164.9259],[-0.20294,-0.77471],[1.5384,5.8727]],[[153.84046,181.94318],[-5.29511,-3.4514],[2.30767,0.97827]],[[160.98071,185.16862],[-2.37254,-0.72255],[8.16417,2.48634]],[[188.81918,184.93027],[-7.75385,5.00243],[0,0]]],&quot;closed&quot;:true,&quot;fillColor&quot;:[0,0,0],&quot;strokeWidth&quot;:0.5}]}" fill="#ffffff" stroke="none" stroke-width="0.25" stroke-linecap="butt"/><path d="M221.29996,316.05382c0,0 0.30388,-0.21346 0.66452,-0.60134c24.49956,2.71019 48.95926,0.15451 73.34031,-4.72232c4.69003,-0.93812 9.55459,-1.87722 14.36591,-3.08014l0.64491,0.83866c4.28566,7.35182 3.7278,13.86522 3.21951,22.05858c-0.46598,7.51125 -2.0116,15.82288 -5.67896,22.53065c-0.68047,1.24461 -6.46365,5.0807 -6.60264,5.19653c-12.21197,10.17663 -27.86931,13.41943 -43.5765,13.41943c-6.46172,0.00409 -13.46485,0.0175 -19.84395,-1.18746c-6.86767,-1.29725 -12.7911,-4.97565 -19.03363,-7.8281c-5.10502,-2.33268 -10.81436,-6.4158 -12.85446,-12.07313c-1.6792,-4.65653 0.08839,-9.91361 1.34513,-14.29652c1.11968,-3.90491 2.22229,-7.97405 4.47036,-11.35757c2.40275,-3.61636 5.96632,-6.43073 9.5395,-8.89721z" data-paper-data="{&quot;noHover&quot;:false,&quot;origItem&quot;:[&quot;Path&quot;,{&quot;applyMatrix&quot;:true,&quot;segments&quot;:[[[484.15264,472.50884],[0,0],[-4.34578,2.99982]],[[472.56094,483.30676],[2.92228,-4.3983],[-2.73416,4.11512]],[[467.1282,497.0971],[1.36178,-4.74924],[-1.52848,5.3306]],[[465.4904,514.45846],[-2.04228,-5.66338],[2.48122,6.88058]],[[481.1134,529.11292],[-6.20884,-2.83706],[7.5923,3.46922]],[[504.23306,538.60106],[-8.35262,-1.57774],[7.75842,1.4655]],[[528.31604,540.0272],[-7.8589,0.00498],[19.10346,0]],[[581.2176,523.76522],[-14.85248,12.37706],[0.16904,-0.14088]],[[589.24284,517.45908],[-0.8276,1.51372],[4.46032,-8.15814]],[[596.14746,490.1002],[-0.56674,9.13536],[0.6182,-9.96496]],[[592.24522,463.30774],[5.21232,8.94146],[0,0]],[[591.4618,462.28924],[0,0],[-5.85164,1.46302]],[[573.99618,466.04446],[5.70412,-1.14096],[-29.6528,5.93132]],[[484.9598,471.77906],[29.79694,3.2962],[-0.43862,0.47174]],[484.15264,472.5088]],&quot;closed&quot;:true,&quot;fillColor&quot;:[0,0,0],&quot;strokeWidth&quot;:0.5}]}" fill="#1dff00" stroke="none" stroke-width="0.25" stroke-linecap="butt"/><path d="M197.3223,182.74481c0.92233,-2.53003 2.69552,-8.3209 4.62341,-10.2123c3.35172,-3.28827 7.02423,-3.7308 10.75729,-0.74638c1.54052,1.23158 2.16978,3.29423 3.25467,4.94135c-1.24663,9.07082 -1.8402,17.79189 -5.19532,26.47545c-1.69708,4.39229 -3.94005,8.91081 -7.91641,11.73931c-3.71327,2.64135 -6.8123,2.17104 -10.99984,2.50619c-8.88214,0.71088 -17.699,0.67655 -26.63136,0.67655c0,0 -4.5,0 -4.5,-4.5c0,-4.5 4.5,-4.5 4.5,-4.5c8.57542,0 17.03702,0.03624 25.55965,-0.61947l0.28161,-2.53447c0.12546,-7.93317 3.569,-15.82734 6.26628,-23.22623z" fill="#000000" stroke="none" stroke-width="0.5" stroke-linecap="butt"/><path d="M279.59541,202.16869c-0.05572,-0.42682 -0.12174,-0.83643 -0.21399,-1.21039c-0.50563,-2.04967 -0.00086,-4.22222 0,-6.33333c0.00219,-5.40747 0.56479,-10.94389 1.8338,-16.21501c1.00931,-4.19239 3.28121,-11.7075 8.66366,-12.27244c2.47782,-0.26007 4.7378,2.08156 6.29924,4.02298c1.72769,2.14812 0.86997,8.77016 0.86997,11.46447c0,7.97379 -1.06873,16.55852 -5.67554,23.37138c-1.14965,1.70019 -2.16306,3.62706 -3.83565,4.81651c-1.17307,0.83422 -2.81474,0.60445 -4.22079,0.91275c-3.08099,0.67557 -3.34994,0.80835 -6.75286,1.34741c-9.14513,1.44868 -18.68507,2.43054 -27.90073,3.36295c0,0 -4.47767,0.44776 -4.92543,-4.0299c-0.44777,-4.47767 4.0299,-4.92543 4.0299,-4.92543c8.21302,-0.81045 16.66464,-1.80158 24.82649,-2.97924c2.32029,-0.33479 4.67051,-0.92809 7.00193,-1.33271z" fill="#000000" stroke="none" stroke-width="0.5" stroke-linecap="butt"/><path d="M314.71475,238.62497c0,3.54663 -2.79524,4.29802 -3.97964,4.45721c-1.28925,0.42246 -2.58354,0.82244 -3.88243,1.20173c0.53926,6.423 0.53087,12.90861 0.52411,19.54498c-0.9636,10.64333 -5.78773,25.33603 -16.09681,30.79419c-3.06443,1.62246 -7.55399,1.80749 -10.94637,2.14579c-11.87216,1.18392 -24.36169,-0.71861 -35.34557,-5.39493c-12.34103,-6.16573 -25.80229,-11.60931 -36.34865,-20.64871c-9.47313,-8.11951 -17.07669,-19.07528 -28.0038,-25.36022c-1.5062,-0.62957 -2.93134,-1.51238 -4.19583,-2.57262c-1.1591,0.34977 -2.31539,0.71638 -3.46866,1.10165c0,0 -4.26908,1.42302 -5.6921,-2.84605c-1.42302,-4.26907 2.84605,-5.6921 2.84605,-5.6921c14.0498,-4.67355 28.49021,-6.7481 43.03469,-9.17267c10.27284,-1.71249 20.61644,-3.11169 30.85662,-4.97432c4.61988,-0.84033 9.1772,-2.20308 13.79676,-3.0235c3.37939,-0.60018 6.59479,-0.4845 9.93899,-1.3228c2.21607,-0.22876 4.30784,-1.14267 6.48185,-1.62944c4.9653,-1.11175 10.43235,-1.23665 15.50842,-1.74999c2.6963,-0.27268 6.66824,-1.08379 8.99198,0.9951c2.50667,2.24255 4.11355,9.79621 5.12393,13.18698c0.75311,2.52739 1.3456,5.05261 1.81161,7.58114c0.93228,-0.28492 1.86183,-0.5815 2.78848,-0.89048l1.75636,-0.23093c0,0 4.5,0 4.5,4.5zM251.55672,252.82608c-8.72796,0.94816 -17.33573,2.22591 -25.91898,3.67996c0.98848,5.06713 1.86959,10.15461 2.38802,15.33783l0.21418,1.24246c6.72135,3.66382 13.83263,6.76924 20.53485,10.12302c6.59153,2.85098 13.94689,4.46496 21.26038,4.83089l-0.32041,-1.08193c0,-12.00655 -1.87549,-23.82723 -3.83296,-35.62027c-4.78094,0.5011 -9.56257,0.97067 -14.32508,1.48804zM202.70608,251.53778c4.11175,-0.78268 8.2117,-1.55423 12.30971,-2.29844c-0.93185,-4.57221 -1.83568,-9.16206 -2.51863,-13.82418c-8.07593,1.32808 -16.12488,2.57525 -24.07944,4.30723c4.97427,3.46527 9.32705,7.69084 13.59464,12.02202c0.41001,-0.15258 0.69373,-0.20663 0.69373,-0.20663zM250.58472,243.87872c4.56181,-0.49558 9.14568,-0.94084 13.73119,-1.4127c-0.99761,-5.25791 -2.00411,-10.3868 -2.41206,-15.75971c-0.87093,0.0909 -1.74395,0.20069 -2.6208,0.35825c-4.53215,0.81435 -9.00208,2.15238 -13.53658,2.9765c-8.08692,1.46975 -16.23528,2.65827 -24.36436,3.93336c0.67043,4.62399 1.55613,9.17532 2.47454,13.70792c8.85208,-1.50376 17.72829,-2.82591 26.72807,-3.80361zM278.71475,286.95831l0.34482,-0.00459c0,0 0.13759,0.34399 0.23512,0.87405c0.04486,-0.0044 0.0897,-0.00885 0.13453,-0.01335c2.21467,-0.22217 5.75292,-0.11949 7.7203,-1.18754c1.42008,-0.77093 2.33407,-2.23694 3.44579,-3.40956c4.84751,-5.11302 7.16686,-12.96812 7.79073,-19.79625c-0.00631,-5.64024 0.15543,-11.27879 -0.25496,-16.89598c-7.67007,1.724 -15.46268,2.87963 -23.29044,3.81704c2.01121,12.11803 3.87411,24.27664 3.87411,36.61619zM294.27669,227.04101c-0.82666,-2.47809 -1.49975,-2.97866 -1.34794,-4.82407c-0.70934,0.21421 -1.49849,0.13471 -2.24163,0.21651c-1.11814,0.12308 -2.2386,0.22409 -3.35793,0.33586c-3.61356,0.36084 -7.61315,0.43376 -11.13365,1.24748c-1.80554,0.41733 -3.56668,1.0631 -5.37496,1.45329c0.33409,5.48763 1.40524,10.68036 2.44448,16.01972c8.05317,-0.94798 16.07022,-2.13296 23.93996,-3.97316c-0.90018,-3.49325 -1.77772,-7.02643 -2.92833,-10.47563zM214.45678,263.85805c1.25126,1.07256 2.54897,2.09033 3.88481,3.06176c-0.44038,-2.97008 -0.97186,-5.91834 -1.54308,-8.85936c-2.40011,0.43568 -4.80086,0.88105 -7.20437,1.33274c1.58175,1.53584 3.19407,3.03459 4.86265,4.46486z" fill="#000000" stroke="none" stroke-width="0.5" stroke-linecap="butt"/><path d="M478.5336,196.23792c0.24283,0.21709 0.4606,0.46369 0.64746,0.74668c2.45923,3.72437 1.54983,7.07905 -0.77008,9.22541c-0.22033,0.59928 -0.5249,1.15405 -0.94237,1.63847c-3.70526,4.29943 -12.227,1.85586 -15.34325,-1.647c-4.89433,-5.50152 -3.19417,-15.62894 4.42461,-17.43548c4.54718,-1.07822 5.88257,0.49071 9.72629,2.45757c0,0 3.2263,1.7598 2.25734,5.01435z" fill="#ffffff" stroke="none" stroke-width="0.5" stroke-linecap="butt"/><path d="M382.83948,173.67522c1.56134,-1.65242 3.92147,-2.39005 7.06679,-1.29868c2.49104,0.86434 3.11955,4.42226 3.69076,6.99637c0.01291,0.05818 0.02526,0.11647 0.03706,0.17487l0.654,0.29299c-0.22402,1.89971 0.64548,4.31236 -0.67208,5.69913c-0.39002,0.4105 -0.82915,0.81948 -1.30387,1.20468c-0.89693,1.40869 -2.17775,2.56817 -3.80198,3.25365c-8.11955,3.42669 -15.74,-3.77269 -12.6319,-12.38529c0.70986,-1.96703 3.48713,-2.30917 5.2307,-3.46375c0,0 0.73336,-0.36668 1.73052,-0.47396z" fill="#ffffff" stroke="none" stroke-width="0.5" stroke-linecap="butt"/><path d="M-80.625,405.19766v-444.14532h621.25v444.14532z" fill="url(#color-1)" stroke="none" stroke-width="0" stroke-linecap="butt"/><path d="M78.08033,281.90002l-10.44174,-165.87468l350.94782,-22.09201l10.44174,165.87468z" fill="#ffffff" stroke="none" stroke-width="0" stroke-linecap="butt"/><path d="M80.23505,276.04621l-9.72466,-154.48346l345.92131,-21.77559l9.72466,154.48346z" fill="none" stroke="#000000" stroke-width="2.5" stroke-linecap="butt"/><path d="M322.50784,155.94641c0,0 -38.02701,2.39379 -61.99357,3.90247c-33.08258,2.08253 -118.12288,7.43578 -118.12288,7.43578" fill="none" stroke="#000000" stroke-width="2.5" stroke-linecap="round"/><path d="M396.32332,126.06764l-74.55983,4.69351" fill="none" stroke="#000000" stroke-width="2.5" stroke-linecap="round"/><path d="M93.26318,195.18884l230.80038,-14.52878" fill="none" stroke="#000000" stroke-width="2.5" stroke-linecap="round"/><path d="M107.45584,251.06769l108.06986,-6.80295" fill="none" stroke="#000000" stroke-width="2.5" stroke-linecap="round"/><path d="M260.18426,241.45349l149.11966,-9.38701" fill="none" stroke="#000000" stroke-width="2.5" stroke-linecap="round"/><path d="M348.16153,161.90115l-1.21293,-19.26827l61.52815,-3.87317l1.21293,19.26827z" fill="none" stroke="#000000" stroke-width="2.5" stroke-linecap="butt"/><text transform="translate(350.84383,159.04682) rotate(-3.60196) scale(0.46168,0.46168)" font-size="40" xml:space="preserve" fill="#000000" fill-rule="nonzero" stroke="none" stroke-width="1" stroke-linecap="butt" stroke-linejoin="miter" stroke-miterlimit="10" stroke-dasharray="" stroke-dashoffset="0" font-family="Malgun Gothic" font-weight="normal" text-anchor="start" style="mix-blend-mode: normal"><tspan x="0" dy="0">276.30</tspan></text><text transform="translate(333.83957,158.92572) rotate(-3.60196) scale(0.46168,0.46168)" font-size="40" xml:space="preserve" fill="#000000" fill-rule="nonzero" stroke="none" stroke-width="1" stroke-linecap="butt" stroke-linejoin="miter" stroke-miterlimit="10" stroke-dasharray="" stroke-dashoffset="0" font-family="Malgun Gothic" font-weight="normal" text-anchor="start" style="mix-blend-mode: normal"><tspan x="0" dy="0">$</tspan></text><text transform="translate(81.73729,156.19552) rotate(-3.60222) scale(0.26994,0.26994)" font-size="40" xml:space="preserve" fill="#000000" fill-rule="nonzero" stroke="none" stroke-width="1" stroke-linecap="butt" stroke-linejoin="miter" stroke-miterlimit="10" stroke-dasharray="" stroke-dashoffset="0" font-family="Malgun Gothic" font-weight="normal" text-anchor="start" style="mix-blend-mode: normal"><tspan x="0" dy="0">PAY TO THE</tspan><tspan x="0" dy="46.15px">ORDER OF:</tspan></text><text transform="translate(291.34668,130.15102) rotate(-3.60222) scale(0.26994,0.26994)" font-size="40" xml:space="preserve" fill="#000000" fill-rule="nonzero" stroke="none" stroke-width="1" stroke-linecap="butt" stroke-linejoin="miter" stroke-miterlimit="10" stroke-dasharray="" stroke-dashoffset="0" font-family="Malgun Gothic" font-weight="normal" text-anchor="start" style="mix-blend-mode: normal"><tspan x="0" dy="0">DATE:</tspan></text><text transform="translate(80.38235,253.73937) rotate(-3.60223) scale(0.18009,0.18009)" font-size="40" xml:space="preserve" fill="#000000" fill-rule="nonzero" stroke="none" stroke-width="1" stroke-linecap="butt" stroke-linejoin="miter" stroke-miterlimit="10" stroke-dasharray="" stroke-dashoffset="0" font-family="Malgun Gothic" font-weight="normal" text-anchor="start" style="mix-blend-mode: normal"><tspan x="0" dy="0">MEMO:</tspan></text><text transform="translate(143.60959,159.62209) rotate(-3.60161) scale(0.37831,0.37831)" font-size="40" xml:space="preserve" fill="#000000" fill-rule="nonzero" stroke="none" stroke-width="1" stroke-linecap="butt" stroke-linejoin="miter" stroke-miterlimit="10" stroke-dasharray="" stroke-dashoffset="0" font-family="Handwriting" font-weight="normal" text-anchor="start" style="mix-blend-mode: normal"><tspan x="0" dy="0">Scratcher</tspan></text><text transform="translate(95.45445,188.38119) rotate(-3.60198) scale(0.285,0.285)" font-size="40" xml:space="preserve" fill="#000000" fill-rule="nonzero" stroke="none" stroke-width="1" stroke-linecap="butt" stroke-linejoin="miter" stroke-miterlimit="10" stroke-dasharray="" stroke-dashoffset="0" font-family="Handwriting" font-weight="normal" text-anchor="start" style="mix-blend-mode: normal"><tspan x="0" dy="0">Two Hundred seventy-six dollars and 30/100</tspan></text><text transform="translate(104.18127,242.22209) rotate(-3.60166) scale(0.31121,0.31121)" font-size="40" xml:space="preserve" fill="#000000" fill-rule="nonzero" stroke="none" stroke-width="1" stroke-linecap="butt" stroke-linejoin="miter" stroke-miterlimit="10" stroke-dasharray="" stroke-dashoffset="0" font-family="Handwriting" font-weight="normal" text-anchor="start" style="mix-blend-mode: normal"><tspan x="0" dy="0">employee of the month</tspan></text><text transform="translate(247.27027,236.82224) rotate(-3.60185) scale(0.39078,0.39078)" font-size="40" xml:space="preserve" fill="#000000" fill-rule="nonzero" stroke="none" stroke-width="1" stroke-linecap="butt" stroke-linejoin="miter" stroke-miterlimit="10" stroke-dasharray="" stroke-dashoffset="0" font-family="Handwriting" font-weight="normal" text-anchor="start" style="mix-blend-mode: normal"><tspan x="0" dy="0">NotFazbear Entertainemnt</tspan></text><text transform="translate(325.23465,124.75814) rotate(-3.60166) scale(0.31121,0.31121)" font-size="40" xml:space="preserve" fill="#000000" fill-rule="nonzero" stroke="none" stroke-width="1" stroke-linecap="butt" stroke-linejoin="miter" stroke-miterlimit="10" stroke-dasharray="" stroke-dashoffset="0" font-family="Handwriting" font-weight="normal" text-anchor="start" style="mix-blend-mode: normal"><tspan x="0" dy="0">9-13-25</tspan></text><text transform="translate(197.18753,72.69168) scale(1.16667,1.16667)" font-size="40" xml:space="preserve" fill="#ffffff" fill-rule="nonzero" stroke="none" stroke-width="1" stroke-linecap="butt" stroke-linejoin="miter" stroke-miterlimit="10" stroke-dasharray="" stroke-dashoffset="0" font-family="Pixel" font-weight="normal" text-anchor="start" style="mix-blend-mode: normal"><tspan x="0" dy="0">GG</tspan></text><text transform="translate(145.3125,332.06667) scale(1.16667,1.16667)" font-size="40" xml:space="preserve" fill="#ffffff" fill-rule="nonzero" stroke="none" stroke-width="1" stroke-linecap="butt" stroke-linejoin="miter" stroke-miterlimit="10" stroke-dasharray="" stroke-dashoffset="0" font-family="Pixel" font-weight="normal" text-anchor="start" style="mix-blend-mode: normal"><tspan x="0" dy="0">The End</tspan></text></g></g></svg>