<svg version="1.1" xmlns="http://www.w3.org/2000/svg" xmlns:xlink="http://www.w3.org/1999/xlink" width="1945.31673" height="741.24896" viewBox="0,0,1945.31673,741.24896"><defs><linearGradient x1="359.01765" y1="188.47301" x2="1569.16769" y2="-99.91025" gradientUnits="userSpaceOnUse" id="color-1"><stop offset="0" stop-color="#ffd6b3" stop-opacity="0"/><stop offset="1" stop-color="#ffd6b3"/></linearGradient></defs><g transform="translate(330.13427,293.0032)"><g data-paper-data="{&quot;isPaintingLayer&quot;:true}" fill-rule="nonzero" stroke="none" stroke-linecap="butt" stroke-linejoin="miter" stroke-miterlimit="10" stroke-dasharray="" stroke-dashoffset="0" style="mix-blend-mode: normal"><path d="M-191.09925,411.50752v-461.01502h694.19863v461.01502z" data-paper-data="{&quot;index&quot;:null}" fill="#1c261a" stroke-width="0"/><path d="M-40.13173,390.27903l-29.53784,-149.88682l597.26335,-115.41887c0,0 153.61854,320.54771 94.83656,322.98053c-122.59065,5.07369 -662.56207,-57.67484 -662.56207,-57.67484z" data-paper-data="{&quot;index&quot;:null}" fill="#10140e" stroke-width="0"/><path d="M641.50236,173.69659c-1.38071,0 -2.5,-1.11929 -2.5,-2.5c0,-1.38071 1.11929,-2.5 2.5,-2.5c1.38071,0 2.5,1.11929 2.5,2.5c0,1.38071 -1.11929,2.5 -2.5,2.5z" data-paper-data="{&quot;index&quot;:null}" fill="#252525" stroke-width="0.5"/><path d="M-330.13427,57.50003c0,-6.90356 5.59644,-12.5 12.5,-12.5c6.90356,0 12.5,5.59644 12.5,12.5c0,6.90356 -5.59644,12.5 -12.5,12.5c-6.90356,0 -12.5,-5.59644 -12.5,-12.5z" fill="#262429" stroke-width="0.5"/><path d="M405.03242,381.56597l-92.02954,-386.18592l1210.15005,-288.38324l92.02954,386.18592z" fill="url(#color-1)" stroke-width="0"/><g><path d="M466.00891,290.56756c0,0.78237 -0.18767,1.37706 -0.47299,1.82909c-0.28086,1.13951 -0.65647,2.31912 -1.1483,3.55961c-1.08819,3.24868 -1.92693,6.46275 -3.97239,9.31903c-3.96811,5.54107 -8.75618,8.44019 -14.58827,11.61929c-16.69831,9.10229 -35.18486,8.74111 -53.70054,7.50675c-7.76289,-0.51752 -15.27776,-0.41678 -22.83223,-2.28443c-7.88524,-3.13721 -13.13979,-6.808 -19.08156,-12.88664c-1.25783,-1.28682 -3.24289,-1.94108 -4.08157,-3.53314c-1.84477,-3.50191 -1.79021,-7.42199 -1.00676,-11.23079c-0.08527,-0.30677 -0.13383,-0.65617 -0.13383,-1.05414c0,-1.23575 0.46822,-2.00327 1.04985,-2.47997c0.61279,-2.00736 1.33286,-3.9325 1.9713,-5.69c3.51335,-9.67154 9.50303,-19.36444 15.74752,-27.88015c-1.54032,-0.40274 -3.05967,-0.87109 -4.54919,-1.42677c-3.36505,-1.25535 -6.65685,-2.94295 -10.21596,-3.4249c-2.17622,-0.62037 -7.37753,-1.88981 -9.52381,-3.23299c-4.51461,-2.82529 -8.34993,-6.77827 -12.01446,-10.4513c-3.80704,-3.81586 -8.23889,-6.56998 -11.19921,-11.36657c-0.85673,-1.38817 -0.96675,-3.12129 -1.59738,-4.62573c-0.34553,-0.82427 -0.67495,-1.64611 -0.98894,-2.46689c-1.20128,0.58533 -2.42335,1.1008 -3.66977,1.51962c-3.39153,1.13961 -7.12562,0.71738 -10.70187,0.82506c-8.78698,0.26457 -17.4316,-2.15493 -20.95952,-11.38805c-1.62654,-4.25692 -1.69183,-13.4555 -0.84928,-18.08955c0.19319,-1.06254 1.18746,-1.87349 1.36346,-2.93902c0.29568,-1.79015 -3.30292,-2.72981 -3.62864,-3.21794c-1.4704,-2.20356 -2.35181,-4.77823 -3.08687,-7.32331c-3.12427,-10.81761 -1.00489,-23.75245 2.56109,-34.09091c3.30113,-8.19597 6.54016,-15.41833 12.96866,-21.71352c2.10144,-2.05787 5.548,-2.26258 7.75844,-4.20289c0.81227,-0.71301 0.43326,-2.17456 1.03366,-3.07326c0.63612,-0.95219 2.00856,-1.29058 2.55423,-2.29732c0.89299,-1.64749 -0.76112,-3.67704 -0.94354,-5.54208c-0.30027,-3.06992 -0.42484,-6.19973 0.00856,-9.2537c0.83642,-5.89376 4.47226,-13.12122 9.04582,-17.10112c2.66151,-2.31604 6.70258,-3.11056 10.60022,-3.3869c0.12192,-0.74096 0.31492,-1.4547 0.69026,-2.09853c0.90028,-1.54425 2.79656,-2.23841 4.06257,-3.50032c1.28083,-1.27668 1.94187,-3.28422 3.55805,-4.09565c2.0394,-1.0239 4.5105,-0.69797 6.75953,-1.0844c2.40788,-0.41372 4.61182,-1.68866 7.0172,-2.11673c4.7212,-0.84019 9.49911,0.58366 14.12866,0.65231c4.19139,0.06215 8.03382,-2.93025 11.83498,-4.11756c2.18231,-0.68165 4.46171,-1.00089 6.69256,-1.50134c11.48635,-2.18678 28.16074,2.77324 31.55163,15.83242c0.0288,0.11091 0.05116,0.36748 0.06839,0.73319c4.58176,0.03771 9.27658,0.43442 13.59742,0.46329c6.93333,1.94571 11.79579,4.99796 18.1022,8.14982c7.73679,3.86676 16.27707,6.96061 23.68536,11.50045c1.6056,0.98393 2.78186,2.56121 4.34786,3.60702c1.40334,0.93718 3.20219,1.23581 4.50671,2.3063c5.35706,4.39594 8.77645,10.73716 12.17435,16.56504c1.21373,2.08172 4.18625,5.85466 5.14918,8.16157c1.16225,2.78435 1.1895,5.94007 2.2264,8.7735c1.17829,3.2198 2.47774,6.45181 2.98836,9.8422c1.40051,9.91403 0.79449,19.97829 0.02167,29.88751c-0.16915,2.16893 0.19035,7.01253 0.002,9.21958c-0.34943,4.09472 -1.81656,8.02024 -2.94476,11.97195c-2.83029,9.91355 -4.65361,19.00236 -10.3611,27.94447c-3.5716,5.59576 -8.74465,10.27728 -13.41108,14.92917c-4.37403,3.27219 -8.61308,4.60885 -13.52023,6.87384c-0.22626,0.10443 -0.45309,0.21032 -0.68049,0.31748c0.3544,1.22053 0.63588,2.47675 1.3111,3.54018c1.22013,1.92162 4.131,2.2176 5.51869,4.02194c0.87048,1.13185 0.98076,2.69508 1.67686,3.94179c1.42525,2.55261 3.65455,4.60663 5.02131,7.19103c1.32417,2.50386 1.49859,5.49022 1.78142,8.30851c0.56446,5.62468 1.41728,9.95782 0.70406,14.79695c0.01505,0.14522 0.02296,0.29797 0.02296,0.45863zM425.05638,294.41769c5.66703,0 12.11288,0.81835 17.64776,-0.60053c5.93844,-1.52235 11.3333,-3.54933 17.00668,-5.82848c0.37852,-3.86615 -0.45484,-7.3655 -0.92,-12.03397c-0.19861,-1.99324 -0.07325,-4.17315 -1.06319,-5.91456c-1.27286,-2.23907 -3.12757,-4.11153 -4.49562,-6.28911c-2.10469,0.84268 -6.46273,2.67148 -8.45206,3.01198c-2.92719,0.50102 -6.03636,-0.2011 -8.88683,0.63214c-1.80584,0.52786 -3.3575,1.82168 -5.2029,2.18798c-1.99902,0.39681 -4.08066,-0.08266 -6.11378,0.05839c-5.40832,0.37523 -10.40127,0.71936 -15.87657,0.71936c-15.20651,0 -30.3019,-0.68861 -45.48549,-0.71061c-3.63377,5.70358 -6.85636,11.72931 -9.03306,17.70878c-0.29591,0.8129 -0.69236,1.77994 -1.10662,2.84002c23.98621,0.47056 47.75281,4.21859 71.98167,4.21859zM318.77437,88.13834c-1.5843,-0.5281 -2.08695,-1.59703 -2.20026,-2.51446c-2.16272,0.25683 -4.18672,0.81458 -5.42186,1.9858c-3.15207,2.98895 -6.07534,8.48208 -6.59954,12.7673c-0.60177,4.91924 2.28461,11.94912 0.48733,16.49497c-0.56608,1.43176 -2.28189,2.11028 -3.13501,3.3919c-0.81746,1.22805 -0.71264,3.05335 -1.81095,4.03826c-2.23295,2.0024 -5.79593,2.18074 -7.88694,4.33095c-5.63563,5.79523 -8.41857,11.91832 -11.39995,19.31756c-3.25093,9.32065 -4.77938,20.31929 -2.37323,30.09894c0.40631,1.65141 0.75659,3.41252 1.75124,4.79198c0.67776,0.93999 2.32453,0.82823 2.98681,1.7792c1.1596,1.66506 2.05544,3.65058 2.20399,5.67419c0.10806,1.47191 -1.21714,2.72045 -1.48116,4.17252c-0.68499,3.76747 -0.64842,11.0585 0.57302,14.6235c2.19417,6.40413 8.93891,7.34379 14.59815,7.10194c3.07378,-0.13137 6.30397,0.41167 9.21041,-0.59725c1.11751,-0.38794 2.21974,-0.87228 3.30736,-1.42469c-1.33891,-4.59234 -2.24836,-9.26059 -2.83933,-14.24568c-2.08357,-17.57562 -1.55424,-35.76934 3.8606,-52.65301c0.97583,-4.21907 1.91871,-8.93229 3.47664,-12.98489c1.99037,-5.17748 5.43176,-10.17623 7.91844,-15.14396c2.16095,-4.31702 4.68764,-10.29225 8.18256,-13.81972c4.53746,-4.5797 10.44783,-8.23018 15.50535,-12.20112c7.46663,-5.86249 16.03626,-12.66615 25.58337,-14.84311c0.3084,-0.07033 8.1734,-0.05234 8.4046,-0.05234c0,0 2.84019,0 3.21968,2.65044c3.71595,-1.10225 7.48212,-2.0499 11.26218,-2.61891c0.39399,-0.05931 0.79139,-0.11191 1.19182,-0.15837c-0.87188,-1.36778 -2.92849,-4.11521 -3.2033,-4.43102c-5.01207,-5.76006 -12.99287,-7.62035 -20.33063,-6.05733c-5.27583,1.16009 -9.61168,3.58424 -14.72901,4.92776c-6.098,1.60098 -11.9544,-1.07466 -18.04087,0.06178c-2.46403,0.46008 -4.72117,1.81949 -7.20586,2.15019c-1.53025,0.20367 -3.23641,-0.349 -4.61892,0.33791c-1.10239,0.54772 -1.26283,2.14339 -2.13117,3.01589c-0.47187,0.47412 -1.12049,0.76415 -1.72368,1.09331c0.91057,0.34439 1.96776,1.14405 1.96776,3.00091c0,3.2614 -3.2614,3.2614 -3.2614,3.2614c-0.2992,-0.00138 -0.62559,-0.00639 -0.97389,-0.01252l-0.199,0.62708c0,0 -1.03133,3.09404 -4.12538,2.06269zM324.18342,205.96031c4.33562,-2.5991 8.54241,-5.41616 11.43798,-9.70943c1.80891,-2.68209 0.97386,-7.70008 4.00057,-8.84232c2.30199,-0.86873 4.7193,1.45766 7.15217,1.82507c1.68067,0.25382 3.43064,0.3496 5.0991,0.0251c3.98831,-0.77567 9.21724,-7.23921 11.54652,-10.16976c3.83989,-4.83109 3.41387,-10.61925 4.37183,-16.35333c0.67805,-4.0585 1.38295,-8.15235 1.37803,-12.26709c-0.00132,-1.10213 -0.09585,-8.54835 0.34431,-9.27937c3.34514,-5.55568 5.49797,-3.56037 10.29762,-3.21406c2.79161,0.20142 5.59999,-0.47249 8.31982,-1.13296c1.54463,-1.12728 6.8389,-4.85905 8.22188,-6.36927c6.23533,-6.80903 8.3153,-16.59472 6.32041,-25.51022c-1.00485,-4.49084 -3.34441,-6.94485 -4.28342,-11.45606c-0.60448,-2.90403 -0.32857,-5.96071 -0.24658,-8.93784c-0.36335,0.04364 -0.72381,0.09332 -1.08106,0.14966c-6.07147,0.95742 -12.07434,2.89669 -17.91099,4.84223l-2.45366,0.16736c0,0 -3.2614,0 -3.2614,-3.2614c0,-0.6604 0.13373,-1.18707 0.34703,-1.6071c-8.17149,2.14383 -15.67226,8.36507 -22.07219,13.39726c-4.7802,3.75861 -10.36736,7.17355 -14.70294,11.4555c-3.07303,3.03502 -5.31024,8.61617 -7.17411,12.34824c-2.40923,4.82403 -5.80466,9.70026 -7.72692,14.72447c-1.31937,3.44843 -2.39438,8.68238 -3.21389,12.2201c-5.16194,16.10056 -5.66387,33.38468 -3.67191,50.14955c0.47815,4.02429 1.17945,7.79496 2.16532,11.49149c2.33008,-1.58689 4.59293,-3.25624 6.79651,-4.68583zM404.12271,88.98986c0.3891,5.59579 3.63559,9.1254 4.9141,14.53837c2.58106,10.92776 -0.28089,23.07429 -7.90267,31.38203c-2.28033,2.48557 -7.64649,6.01282 -10.26809,7.85379c-5.43299,1.38585 -6.39195,2.20851 -11.59248,1.71166c-1.30831,-0.12499 -3.74173,-1.6708 -3.92544,-0.36945c-0.56666,4.01408 0.76728,9.06411 0.31732,13.15513c-0.24423,2.22051 -1.07316,4.34163 -1.43958,6.54527c-1.16547,7.00917 -1.06831,13.28646 -5.625,19.24502c-5.48656,7.17449 -13.2696,14.79005 -23.13825,12.57154c-1.20922,-0.27183 -1.64025,-2.0154 -2.80397,-2.44184c-0.60341,-0.22112 1.0102,1.10408 0.85539,1.7278c-0.45591,1.83665 -1.50904,3.49098 -2.54404,5.07525c-3.28583,5.02959 -8.33105,8.44868 -13.32063,11.50165c-2.69135,1.74648 -5.42081,3.73716 -8.24172,5.56896c0.39716,1.08996 0.82254,2.18258 1.27777,3.28256c0.52291,1.26351 0.53371,2.7416 1.24724,3.90811c2.56226,4.18888 6.79272,6.63268 10.13539,9.96802c5.69392,5.68144 10.44615,9.6713 18.2863,11.91724c3.86172,0.57724 7.46505,2.30914 11.11865,3.68663c7.68357,2.89687 16.34346,3.21265 24.35529,4.49752c3.63847,0.5835 7.24165,1.5378 10.92289,1.70331c1.86615,0.08391 3.77009,0.42037 5.60373,0.06356c1.6975,-0.33032 3.09017,-1.60486 4.75325,-2.07894c3.75739,-1.07108 7.70453,-1.32238 11.51864,-2.16962c3.95649,-0.87886 8.05735,-1.06712 11.97528,-2.10444c5.90959,-1.56465 11.74359,-5.08693 17.21614,-7.61256c4.38935,-2.02574 8.20953,-3.01316 12.0813,-5.92692c4.20197,-4.21637 8.97912,-8.45325 12.19044,-13.51697c5.30912,-8.37159 6.91784,-16.82685 9.55119,-26.10317c1.01303,-3.56855 2.45028,-7.08708 2.74447,-10.78495c0.24505,-3.0804 -0.23191,-6.18913 0.002,-9.27038c0.71469,-9.41434 1.384,-19.00587 0.02167,-28.42705c-0.39913,-2.99342 -1.67435,-5.80767 -2.70086,-8.64777c-0.96779,-2.67763 -0.94758,-5.66514 -2.04052,-8.29417c-0.45182,-1.08683 -4.62471,-7.17154 -4.80696,-7.48381c-2.97437,-5.09644 -5.87567,-10.88791 -10.58254,-14.7257c-1.15713,-0.94349 -2.78416,-1.13353 -4.02713,-1.96063c-1.51501,-1.00811 -2.63811,-2.54761 -4.18597,-3.50451c-7.24179,-4.4769 -15.66253,-7.46084 -23.25076,-11.25645c-5.60801,-2.80512 -9.90589,-5.70519 -16.03314,-7.49554c-4.01596,0.03319 -8.39324,-0.37365 -12.64895,-0.42012c-0.01258,2.31416 -0.03248,4.36346 -0.00968,4.69156z" fill="#000000" stroke-width="0.5"/><path d="M318.75302,88.07669c3.09404,1.03135 4.13036,-2.06419 4.13036,-2.06419l0.19938,-0.62718c0.3483,0.00613 0.67572,0.01089 0.97492,0.01228c0,0 3.26557,-0.00083 3.26557,-3.26224c0,-1.85686 -1.03417,-2.52812 -1.94474,-2.87251c0.60319,-0.32917 1.22921,-0.74767 1.70108,-1.22179c0.86834,-0.87249 1.03127,-2.46852 2.13366,-3.01624c1.38251,-0.6869 3.09315,-0.13463 4.62341,-0.3383c2.48469,-0.33071 4.74873,-1.6901 7.21276,-2.15018c6.08647,-1.13644 11.95894,1.54212 18.05696,-0.05886c5.11733,-1.34352 9.46242,-3.76396 14.73825,-4.92405c7.33775,-1.56302 15.33153,0.30574 20.34361,6.06579c0.27481,0.31581 2.33438,3.06586 3.20626,4.43364c-0.40044,0.04647 -0.88701,0.19429 -1.281,0.25359c-3.78006,0.56901 -7.54205,1.52021 -11.25801,2.62246c-0.3795,-2.65044 -3.21687,-2.64834 -3.21687,-2.64834c-0.23119,0 -8.09101,-0.01472 -8.39941,0.05561c-9.54711,2.17696 -18.09818,8.98767 -25.56482,14.85016c-5.05752,3.97094 -10.94514,7.62223 -15.4826,12.20192c-3.49492,3.52747 -5.99753,9.49427 -8.15848,13.81129c-2.48668,4.96773 -5.89965,9.93172 -7.89001,15.1092c-1.55793,4.05259 -2.49884,8.72996 -3.47466,12.94903c-5.41484,16.88366 -5.97907,35.0333 -3.8955,52.60891c0.59097,4.9851 1.49351,9.65043 2.83243,14.24277c-1.08763,0.5524 -2.2355,1.15893 -3.35301,1.54687c-2.90645,1.00892 -6.14257,0.46321 -9.21635,0.59458c-5.65924,0.24185 -12.41444,-0.7045 -14.6086,-7.10863c-1.22143,-3.565 -1.26416,-10.86151 -0.57917,-14.62899c0.26402,-1.45207 1.58799,-2.70189 1.47993,-4.1738c-0.14855,-2.02361 -1.04789,-4.01316 -2.20749,-5.67822c-0.66227,-0.95097 -2.31086,-0.84161 -2.98862,-1.7816c-0.99465,-1.37946 -1.34751,-3.14442 -1.75381,-4.79583c-2.40615,-9.77965 -0.88704,-20.80537 2.36389,-30.12602c2.98138,-7.39924 5.76648,-13.54765 11.4021,-19.34288c2.091,-2.1502 5.65754,-2.33802 7.89048,-4.34042c1.09831,-0.9849 0.99678,-2.81638 1.81424,-4.04443c0.85312,-1.28161 2.57303,-1.96614 3.1391,-3.3979c1.79728,-4.54585 -1.07792,-11.58709 -0.47615,-16.50633c0.5242,-4.28522 3.45961,-9.78597 6.61167,-12.77492c1.23515,-1.17122 3.26493,-1.73143 5.42764,-1.98826c0.11331,0.91743 0.61725,1.98591 2.20155,2.51401z" data-paper-data="{&quot;noHover&quot;:false,&quot;origItem&quot;:[&quot;Path&quot;,{&quot;applyMatrix&quot;:true,&quot;segments&quot;:[[[361.42832,238.98915],[0,0],[-2.42886,-0.80962]],[[358.05514,235.13427],[0.17372,1.4065],[-3.31562,0.39374]],[[349.74298,238.17867],[1.89358,-1.79558],[-4.83238,4.5823]],[[339.62534,257.75199],[0.80364,-6.5696],[-0.92256,7.5416]],[[340.37246,283.04013],[2.75538,-6.96916],[-0.86784,2.195]],[[335.56624,288.24019],[1.3079,-1.96482],[-1.25324,1.8827]],[[332.7899,294.43117],[1.6838,-1.50994],[-3.4233,3.06984]],[[320.69858,301.07087],[3.20568,-3.29644],[-8.63988,8.88456]],[[303.22152,330.68627],[4.5707,-11.34364],[-4.98394,14.28932]],[[299.58316,376.83041],[-3.68882,-14.993],[0.6229,2.53174]],[[302.26796,384.17691],[-1.52488,-2.11482],[1.03906,1.44108]],[[306.84698,386.90457],[-1.01532,-1.45792],[1.77776,2.55268]],[[310.22588,395.60357],[-0.22774,-3.10236],[0.16566,2.25656]],[[307.95514,402.00039],[0.40476,-2.22614],[-1.05014,5.77584]],[[308.83362,424.41941],[-1.87256,-5.46544],[3.36384,9.81806]],[[331.21378,435.30727],[-8.67608,0.37078],[4.71236,-0.2014]],[[345.3341,434.39163],[-4.45582,1.54676],[1.71324,-0.59474]],[[350.40456,432.20747],[-1.66742,0.84688],[-2.05266,-7.04044]],[[346.05164,410.36767],[0.906,7.64256],[-3.19428,-26.94486]],[[351.97026,329.64629],[-8.3014,25.88404],[1.49602,-6.46818]],[[357.30024,309.73939],[-2.38844,6.21296],[3.0514,-7.9375]],[[369.43986,286.52245],[-3.81228,7.61594],[3.31292,-6.61834]],[[381.9844,265.33569],[-5.358,5.4079],[6.9563,-7.02106]],[[405.75538,246.63037],[-7.7536,6.08778],[11.44696,-8.98768]],[[444.97678,223.87467],[-14.6365,3.33746],[0.4728,-0.10782]],[[457.86172,223.79443],[-0.35444,0],[0,0]],[[462.79776,227.85777],[-0.5818,-4.06334],[5.69686,-1.68984]],[[480.0636,223.84277],[-5.79514,0.87234],[0.60402,-0.09092]],[[481.89076,223.59997],[-0.6139,0.07124],[-1.33666,-2.09692]],[[476.97984,216.80685],[0.4213,0.48416],[-7.68392,-8.83064]],[[445.81132,207.52047],[11.24938,-2.39624],[-8.08828,1.77852]],[[423.23054,215.07513],[7.84528,-2.05972],[-9.34874,2.45444]],[[395.5724,215.16985],[9.33106,-1.74226],[-3.77756,0.70534]],[[384.52522,218.46627],[3.80924,-0.507],[-2.346,0.31224]],[[377.44404,218.98431],[2.1195,-1.05308],[-1.69006,0.8397]],[[374.17678,223.60791],[1.33124,-1.3376],[-0.72342,0.72686]],[[371.53424,225.28405],[0.92474,-0.50464],[1.39598,0.52798]],[[374.55098,229.88469],[0,-2.84672],[0,5]],[[369.55098,234.88469],[0,0],[-0.4587,-0.00212]],[[368.05792,234.86549],[0.53398,0.0094],[0,0]],[367.75284,235.82685],[[361.4283,238.98913],[4.74342,1.58114],[0,0]]],&quot;closed&quot;:true,&quot;fillColor&quot;:[0,0,0,1]}]}" fill="#302617" stroke-width="0.5"/><path d="M324.15018,206.01639c-2.20357,1.42959 -4.46897,3.09736 -6.79905,4.68425c-0.98587,-3.69653 -1.69348,-7.4719 -2.17163,-11.49619c-1.99196,-16.76487 -1.51312,-34.09654 3.64882,-50.19711c0.81951,-3.53772 1.89716,-8.79243 3.21653,-12.24086c1.92226,-5.02421 5.33135,-9.92513 7.74058,-14.74918c1.86387,-3.73206 4.1175,-9.32661 7.19052,-12.36163c4.33558,-4.28195 9.94599,-7.70488 14.72619,-11.4635c6.39993,-5.03219 13.92513,-11.2523 22.09661,-13.39614c-0.2133,0.42003 -0.347,0.94672 -0.347,1.60712c0,3.2614 3.26549,3.26253 3.26549,3.26253l2.45598,-0.16661c5.83665,-1.94554 11.85183,-3.87898 17.92329,-4.8364c0.35725,-0.05634 0.71836,-0.10563 1.0817,-0.14927c-0.08199,2.97713 -0.35393,6.03651 0.25055,8.94054c0.93901,4.51121 3.28683,6.9724 4.29168,11.46324c1.9949,8.9155 -0.07251,18.71959 -6.30784,25.52861c-1.38298,1.51023 -6.67536,5.24659 -8.21999,6.37388c-2.71983,0.66047 -5.64875,1.384 -8.44037,1.18257c-4.79965,-0.34631 -6.83718,-2.40223 -10.18233,3.15345c-0.44016,0.73102 -0.33873,8.228 -0.33741,9.33013c0.00492,4.11474 -0.72948,8.24731 -1.40752,12.30581c-0.95797,5.73408 -0.55582,11.53075 -4.39572,16.36184c-2.32928,2.93055 -7.57839,9.39393 -11.5667,10.16959c-1.66846,0.3245 -3.42584,0.22705 -5.10651,-0.02677c-2.43286,-0.3674 -4.86039,-2.6977 -7.16238,-1.82897c-3.02671,1.14224 -2.19142,6.16036 -4.00032,8.84245c-2.89557,4.29327 -7.10759,7.10754 -11.44321,9.70664z" data-paper-data="{&quot;noHover&quot;:false,&quot;origItem&quot;:[&quot;Path&quot;,{&quot;applyMatrix&quot;:true,&quot;segments&quot;:[[[369.72084,419.61989],[0,0],[6.64686,-3.98464]],[[387.2562,404.73453],[-4.43914,6.58194],[2.7732,-4.11186]],[[393.3894,391.17853],[-4.6402,1.75114],[3.52914,-1.33184]],[[404.35426,393.97651],[-3.72978,-0.56326],[2.5766,0.38912]],[[412.1716,394.01499],[-2.55788,0.49748],[6.1144,-1.18916]],[[429.87336,378.42391],[-3.57098,4.49278],[5.88686,-7.40646]],[[436.57574,353.35291],[-1.46864,8.79082],[1.0395,-6.22202]],[[438.68838,334.54645],[0.00754,6.30824],[-0.00202,-1.68966]],[[439.21624,320.32041],[-0.6748,1.12072],[5.12838,-8.51732]],[[455.00334,315.39299],[-7.35826,-0.53092],[4.27976,0.3088]],[[467.7583,313.65607],[-4.16972,1.01256],[2.36804,-1.72822]],[[480.36312,303.89145],[-2.12022,2.3153],[9.55928,-10.4388]],[[490.05282,264.78219],[3.05834,13.6682],[-1.54052,-6.88482]],[[483.48598,247.21911],[1.43958,6.91606],[-0.92672,-4.45212]],[[483.10796,233.51667],[-0.1257,4.56418],[-0.55704,0.0669]],[[481.4506,233.74611],[0.5477,-0.08638],[-9.30806,1.4678]],[[453.99158,241.16965],[8.94806,-2.98268],[0,0]],[450.22992,241.42623],[[445.22992,236.42623],[0,5],[0,-1.01244]],[[445.76194,233.96241],[-0.327,0.64394],[-12.52756,3.28666]],[[411.92346,254.50151],[9.81162,-7.71476],[-7.32844,5.76226]],[[389.38264,272.06373],[6.6468,-6.56458],[-4.7112,4.65294]],[[378.38414,290.99459],[2.85746,-5.72156],[-3.69354,7.39564]],[[366.53814,313.56841],[2.94698,-7.70252],[-2.0227,5.28672]],[[361.61098,332.30283],[1.25638,-5.42362],[-7.91368,24.68348]],[[355.98164,409.18621],[-3.05384,-25.70192],[0.73304,6.16956]],[[359.30126,426.80361],[-1.51142,-5.66708],[3.5722,-2.43284]],[[369.72086,419.61985],[-3.37826,2.19168],[0,0]]],&quot;closed&quot;:true,&quot;fillColor&quot;:[0,0,0,1]}]}" fill="#302617" stroke-width="0.5"/><path d="M404.1213,89.05508c-0.0228,-0.3281 -0.00005,-2.50782 0.01252,-4.82199c4.25571,0.04647 8.64249,0.45421 12.65845,0.42102c6.12725,1.79035 10.43799,4.69398 16.046,7.4991c7.58823,3.79561 16.02612,6.78949 23.26791,11.26639c1.54786,0.9569 2.6741,2.4991 4.18912,3.50721c1.24297,0.82709 2.87232,1.01937 4.02945,1.96286c4.70687,3.83779 7.61668,9.63989 10.59106,14.73633c0.18225,0.31227 4.35846,6.4028 4.81028,7.48963c1.09294,2.62903 1.07532,5.62237 2.04311,8.3c1.02651,2.8401 2.30389,5.66095 2.70303,8.65437c1.36233,9.42118 0.6951,19.03466 -0.01959,28.44901c-0.23391,3.08126 0.2421,6.19715 -0.00295,9.27755c-0.29419,3.69787 -1.73362,7.22482 -2.74665,10.79337c-2.63335,9.27632 -4.25183,17.75022 -9.56095,26.12181c-3.21132,5.06372 -7.99771,9.31055 -12.19967,13.52692c-3.87177,2.91376 -7.69995,3.90718 -12.08931,5.93291c-5.47256,2.52563 -11.31958,6.05425 -17.22916,7.6189c-3.91792,1.03732 -8.02787,1.2281 -11.98436,2.10696c-3.81411,0.84723 -7.77032,1.09969 -11.52771,2.17078c-1.66308,0.47408 -3.05944,1.74873 -4.75694,2.07904c-1.83364,0.35681 -3.74183,0.02022 -5.60798,-0.06369c-3.68124,-0.16551 -7.29275,-1.12089 -10.93122,-1.7044c-8.01183,-1.28486 -16.68896,-1.60662 -24.37252,-4.50349c-3.65359,-1.37749 -7.26399,-3.1136 -11.12572,-3.69084c-7.84015,-2.24593 -12.60376,-6.24569 -18.29768,-11.92714c-3.34267,-3.33535 -7.57905,-5.78668 -10.14131,-9.97557c-0.71353,-1.16651 -0.72578,-2.64686 -1.24869,-3.91037c-0.45523,-1.09998 -0.88181,-2.19465 -1.27897,-3.28461c2.82092,-1.8318 5.55007,-3.82302 8.24142,-5.5695c4.98958,-3.05297 10.0332,-6.47515 13.31903,-11.50475c1.035,-1.58427 2.08667,-3.24182 2.54258,-5.07848c0.15481,-0.62372 -1.33775,-1.99753 -0.73434,-1.77641c1.16372,0.42644 1.59343,2.16682 2.80265,2.43866c9.86866,2.21851 17.53114,-5.34735 23.0177,-12.52183c4.55669,-5.95856 4.45696,-12.27362 5.62243,-19.28279c0.36643,-2.20364 1.20031,-4.33875 1.44454,-6.55926c0.44996,-4.09103 -0.87218,-9.15785 -0.30552,-13.17194c0.18371,-1.30135 2.6205,0.24124 3.9288,0.36623c5.20053,0.49684 6.17788,-0.33739 11.61087,-1.72323c2.62159,-1.84097 8.01063,-5.37318 10.29097,-7.85874c7.62178,-8.30774 10.47933,-20.32417 7.89827,-31.25193c-1.27851,-5.41298 -4.51991,-8.94227 -4.90901,-14.53806z" data-paper-data="{&quot;noHover&quot;:false,&quot;origItem&quot;:[&quot;Path&quot;,{&quot;applyMatrix&quot;:true,&quot;segments&quot;:[[[246.13716,120.1473],[0,0],[0.29826,4.2894]],[[249.90402,131.29156],[-0.98003,-4.14927],[1.97849,8.37658]],[[243.8463,155.34717],[5.84241,-6.36822],[-1.74797,1.90529]],[[235.97539,161.36742],[2.00956,-1.41118],[-4.16461,1.06231]],[[227.08928,162.67948],[3.98642,0.38085],[-1.00287,-0.09581]],[[224.08027,162.39628],[0.14082,-0.99754],[-0.43437,3.07696]],[[224.32351,172.48023],[0.34491,-3.13594],[-0.18721,1.70211]],[[223.22001,177.49745],[0.28088,-1.68918],[-0.89338,5.37282]],[[218.90822,192.24955],[3.49289,-4.56748],[-4.20567,5.49954]],[[201.1718,201.88615],[7.56473,1.70058],[-0.92692,-0.20837]],[[199.02244,200.01438],[0.89204,0.32688],[-0.46254,-0.1695]],[[199.67813,201.33881],[0.11867,-0.47811],[-0.34947,1.40787]],[[197.72802,205.2292],[0.79337,-1.21441],[-2.51872,3.85539]],[[187.51721,214.04569],[3.82472,-2.34023],[-2.06303,1.33875]],[[181.19959,218.31453],[2.16235,-1.40415],[0.30444,0.8355]],[[182.17905,220.83075],[-0.34895,-0.84318],[0.40083,0.96853]],[[183.13511,223.82648],[-0.54695,-0.89418],[1.96408,3.21095]],[[190.9043,231.46738],[-2.56229,-2.55668],[4.36462,4.35506]],[[204.9215,240.60243],[-6.0098,-1.7216],[2.96017,0.44248]],[[213.4444,243.42838],[-2.80063,-1.0559],[5.88977,2.22057]],[[232.11373,246.87591],[-6.1414,-0.9849],[2.78904,0.44728]],[[240.48657,248.18157],[-2.82182,-0.12687],[1.43048,0.06432]],[[244.78206,248.23029],[-1.40556,0.27351],[1.3012,-0.2532]],[[248.42562,246.6367],[-1.27482,0.3634],[2.88019,-0.82103]],[[257.25513,244.9736],[-2.92367,0.64944],[3.03281,-0.67368]],[[266.43467,243.36046],[-3.00325,0.79515],[4.52994,-1.19937]],[[279.63155,237.52512],[-4.19494,1.936],[3.36462,-1.55281]],[[288.89236,232.98189],[-2.96787,2.23352],[3.22098,-3.23202]],[[298.23683,222.62058],[-2.46161,3.88155],[4.06966,-6.41717]],[[305.55821,202.61143],[-2.01857,7.11068],[0.77653,-2.73544]],[[307.66196,194.34432],[-0.22551,2.83457],[0.18784,-2.36125]],[[307.66349,187.23819],[-0.1793,2.36191],[0.54784,-7.21648]],[[307.6801,165.44769],[1.04428,7.22172],[-0.30595,-2.29458]],[[305.60978,158.81882],[0.78686,2.17705],[-0.74185,-2.05251]],[[304.04564,152.461],[0.83778,2.01526],[-0.34634,-0.8331]],[[300.36091,146.72435],[0.1397,0.23937],[-2.27998,-3.90663]],[[292.24896,135.4365],[3.60801,2.94182],[-0.88699,-0.72322]],[[289.162,133.9336],[0.95279,0.634],[-1.16132,-0.77276]],[[285.95328,131.24725],[1.1865,0.7335],[-5.55113,-3.43173]],[[268.13062,122.61872],[5.81669,2.90949],[-4.29877,-2.15024]],[[255.84056,116.87308],[4.69679,1.37238],[-3.0784,0.02544]],[[246.14462,116.55104],[3.26218,0.03562],[-0.00964,1.7739]],[[246.1372,120.14731],[-0.01748,-0.2515],[0,0]]],&quot;closed&quot;:true,&quot;fillColor&quot;:[0,0,0,1],&quot;strokeWidth&quot;:0.5}]}" fill="#584529" stroke-width="0.25"/><path d="M353.01083,290.21225c0.41425,-1.06007 0.81013,-2.03021 1.10606,-2.84312c2.17669,-5.97947 5.40004,-12.02934 9.0338,-17.73292c15.18357,0.02199 30.35882,0.66149 45.56532,0.66149c5.47528,0 10.5098,-0.31135 15.91812,-0.68658c2.03313,-0.14105 4.11769,0.34478 6.11671,-0.05203c1.84541,-0.36632 3.39697,-1.66033 5.20281,-2.18821c2.85047,-0.83324 5.96113,-0.12697 8.88833,-0.628c1.98933,-0.3405 6.34727,-2.16962 8.45195,-3.01231c1.36805,2.17757 3.22503,4.05901 4.49789,6.2981c0.98994,1.74141 0.86547,3.92874 1.06408,5.92199c0.46518,4.66847 1.29779,8.18247 0.91926,12.04862c-5.67338,2.27913 -11.07211,4.31991 -17.01054,5.84224c-5.53486,1.41888 -11.99071,0.61742 -17.65775,0.61742c-24.22885,0 -48.10985,-3.77614 -72.09606,-4.2467z" data-paper-data="{&quot;noHover&quot;:false,&quot;origItem&quot;:[&quot;Path&quot;,{&quot;applyMatrix&quot;:true,&quot;segments&quot;:[[[262.18368,277.61616],[-18.57241,0],[4.34401,0]],[[275.7114,277.15583],[-4.2427,1.08763],[4.55206,-1.16694]],[[288.74773,272.68806],[-4.34888,1.74705],[0.29015,-2.96356]],[[288.04251,263.46353],[0.35658,3.57857],[-0.15224,-1.5279]],[[287.22753,258.92978],[0.75883,1.33486],[-0.9757,-1.71634]],[[283.78145,254.10892],[1.04867,1.6692],[-1.61333,0.64595]],[[277.3026,256.41773],[1.5249,-0.26101],[-2.24381,0.38405]],[[270.49048,256.90229],[2.185,-0.63871],[-1.38425,0.40463]],[[266.50224,258.57947],[1.41458,-0.2808],[-1.53233,0.30417]],[[261.81577,258.62424],[1.55848,-0.10812],[-4.1457,0.28763]],[[249.64574,259.17565],[4.19703,0],[-11.65641,0]],[[214.77925,258.63094],[11.63883,0.01686],[-2.78543,4.37203]],[[207.85505,272.20545],[1.66852,-4.58351],[-0.22683,0.62312]],[[207.00678,274.38244],[0.31754,-0.81259],[18.38641,0.3607]]],&quot;closed&quot;:true}]}" fill="#ffffff" stroke-width="0.5"/><path d="M401.73402,60.96602c0.27111,0.70018 0.2711,1.32138 0.2711,1.32138c-0.01423,14.55235 -1.30919,29.12435 -0.71383,43.73793c0.92782,22.77376 2.83,45.47449 5.64978,68.10185c2.0167,10.27452 2.08586,21.1402 2.87853,31.58196c0.29661,3.90732 -0.53795,8.08583 -0.01126,11.96493c0.68384,5.03648 1.77446,9.90007 2.13705,14.96871c0.25554,3.57205 0.39753,7.15266 0.71592,10.71966c0.42289,4.73772 -1.63661,10.90359 3.99231,12.7636c3.38861,0.47236 8.60234,1.42269 12.01392,0.66714c1.67619,-0.37123 3.0762,-1.56267 4.7168,-2.06849c2.93348,-0.90441 6.11851,-0.93099 8.97969,-2.04318c4.10985,-1.59758 7.95062,-3.96649 11.97383,-5.6416c6.65169,-2.76952 13.42269,-4.54274 17.85346,-11.00464c5.67359,-8.27442 8.02493,-18.95754 9.45114,-28.80368c2.88095,-7.25347 3.5661,-15.17167 4.1645,-22.85703c1.2341,-15.84994 3.95542,-30.90937 0.08361,-46.64764c-0.95603,-3.88616 -0.57556,-6.85515 -2.10464,-10.55692c-1.69174,-9.91421 -2.66942,-19.73412 -3.66053,-29.71472c-0.34981,-3.52255 0.35461,-7.15005 0,-10.6673c-0.2676,-2.65431 -1.20423,-5.2166 -1.42707,-7.87505c-0.32529,-3.88095 0.027,-7.21968 -0.66882,-11.05949c-0.7767,-4.2861 0.48218,-11.34329 -1.68466,-15.20559c-0.87348,-1.55696 -3.18948,-1.61724 -4.85246,-2.26652c-9.51423,-3.83876 -19.31932,-3.3225 -29.36833,-3.3225c-4.08424,0 -9.26771,-0.6994 -13.25063,0.5628c-1.58806,0.50326 -2.87232,1.79689 -4.49004,2.19456c-3.75797,0.92379 -8.70272,0.49016 -12.60771,0.7902c-0.02613,0.00201 -5.77207,0.53886 -6.65045,1.36324c-2.58974,2.43057 -2.98853,5.73721 -3.39122,8.99639zM395.40149,69.27546c-0.63033,-0.91977 -0.63033,-2.00999 -0.63033,-2.00999l0.01586,-3.87714c1.14636,-5.73179 1.0648,-12.1276 6.10901,-16.38468c5.93475,-5.00866 15.23965,-1.81522 21.98873,-3.53578c1.46768,-0.37416 2.59283,-1.63785 4.0438,-2.07236c4.79019,-1.43447 10.27511,-0.8595 15.19551,-0.8595c10.9388,0 21.41562,-0.32971 31.79084,3.78903c2.81506,1.14768 6.126,2.05544 7.94829,4.84501c2.9914,4.57922 1.64907,12.39215 2.58225,17.50744c0.73743,4.04229 0.41807,7.64542 0.75348,11.69742c0.2172,2.62388 1.15737,5.15036 1.41755,7.77032c0.34981,3.52255 -0.35461,7.15005 0,10.6673c0.96899,9.61095 1.90264,19.05299 3.45101,28.59985c1.4831,3.81526 1.17651,6.90327 2.16227,10.77768c2.61215,10.26673 3.25099,21.73154 2.20941,32.38052c-0.52916,5.4099 -1.71202,10.81822 -2.12578,16.26636c-0.61141,8.05042 -1.3145,16.49803 -4.36934,24.07909c-1.48728,10.56397 -4.21673,22.15617 -10.46114,30.93318c-2.07018,2.90982 -7.04989,7.42611 -10.06234,9.32752c-3.14856,1.98733 -7.04999,2.41405 -10.48647,3.84703c-4.09143,1.70608 -8.01156,4.13917 -12.20539,5.73684c-3.04232,1.159 -6.39812,1.26803 -9.51029,2.22374c-1.81052,0.55598 -3.38518,1.81219 -5.23934,2.19843c-4.49484,0.93634 -10.5682,-0.10862 -15.00989,-0.75517c-1.60937,-0.6967 -3.51247,-0.93056 -4.82813,-2.0901c-5.08119,-4.47821 -3.44847,-10.69824 -3.98031,-16.43705c-0.32724,-3.531 -0.45413,-7.07778 -0.70639,-10.61492c-0.35967,-5.04299 -1.47571,-9.88776 -2.12985,-14.89971c-0.52155,-3.99595 0.30197,-8.19768 -0.01127,-12.21428c-0.79748,-10.22596 -0.76013,-20.95573 -2.8107,-30.99952c-2.8685,-22.88158 -4.79917,-45.85046 -5.72867,-68.88243c-0.49889,-12.36182 0.35303,-24.69821 0.62765,-37.01412z" fill="#ffffff" stroke-width="0.5"/><path d="M405.10132,51.90894c0.87837,-0.82438 6.62816,-1.36261 6.65429,-1.36462c3.90501,-0.30004 8.85719,0.13166 12.61516,-0.79213c1.61772,-0.39767 2.90493,-1.69182 4.49299,-2.19507c3.98292,-1.2622 9.17456,-0.56351 13.25881,-0.56351c10.04903,0 19.87232,-0.51409 29.38656,3.32468c1.66298,0.64928 3.98215,0.71049 4.85563,2.26745c2.16685,3.8623 0.9122,10.92102 1.6889,15.20712c0.69583,3.83981 0.34704,7.18005 0.67233,11.061c0.22283,2.65845 1.16308,5.22258 1.43069,7.87689c0.35461,3.51725 -0.34541,7.14739 0.0044,10.66993c0.99111,9.9806 1.98827,19.82028 3.68001,29.73449c1.52908,3.70177 1.15512,6.68435 2.11117,10.57051c3.8718,15.73827 1.14013,30.8592 -0.09397,46.70914c-0.59839,7.68534 -1.29848,15.61743 -4.17944,22.8709c-1.42621,9.84614 -3.79355,20.53709 -9.46714,28.8115c-4.43077,6.4619 -11.21546,8.23805 -17.86715,11.00756c-4.0232,1.67511 -7.87206,4.04436 -11.98193,5.64194c-2.86116,1.11219 -6.05184,1.13839 -8.98531,2.04281c-1.6406,0.50582 -3.04333,1.69691 -4.71953,2.06813c-3.41159,0.75555 -8.6324,-0.19626 -12.02103,-0.66861c-5.62894,-1.86 -3.57404,-8.02728 -3.99693,-12.76501c-0.31839,-3.567 -0.46333,-7.14872 -0.71887,-10.72078c-0.36259,-5.06864 -1.45927,-9.93505 -2.14311,-14.97153c-0.52669,-3.8791 0.30297,-8.06048 0.00635,-11.9678c-0.79266,-10.44175 -0.88263,-21.32911 -2.89932,-31.60363c-2.8198,-22.62736 -4.71049,-45.40874 -5.6383,-68.18248c-0.59536,-14.61358 0.71636,-29.19702 0.73058,-43.74936c0,0 0.0002,-0.62128 -0.27092,-1.32147c0.40269,-3.25917 0.80532,-6.56748 3.39507,-8.99804z" data-paper-data="{&quot;noHover&quot;:false,&quot;origItem&quot;:[&quot;Path&quot;,{&quot;applyMatrix&quot;:true,&quot;segments&quot;:[[[488.61225,197.33176],[0.61736,-4.99658],[0.41563,1.07343]],[[489.02788,199.35754],[0,0],[-0.02181,22.30994]],[[487.93352,266.41138],[-0.91274,-22.40383],[1.42241,34.91403]],[[496.59511,370.8171],[-4.32298,-34.6896],[3.09177,15.75168]],[[501.00812,419.23483],[-1.21521,-16.00807],[0.45473,5.99024]],[[500.99085,437.57805],[-0.80746,-5.94698],[1.04838,7.72135]],[[504.26714,460.52632],[-0.55589,-7.77064],[0.39175,5.47625]],[[505.36469,476.96045],[-0.48812,-5.4685],[0.64833,7.26333]],[[511.48524,496.52808],[-8.62961,-2.85153],[5.19503,0.72415]],[[529.90357,497.55085],[-5.23023,1.15833],[2.56974,-0.56912]],[[537.1348,494.37969],[-2.51518,0.77546],[4.49726,-1.38655]],[[550.9014,491.24733],[-4.38641,1.70508],[6.30075,-2.44922]],[[569.25826,482.59828],[-6.1679,2.56809],[10.19759,-4.2459]],[[596.62908,465.72725],[-6.79274,9.90662],[8.69807,-12.68537]],[[611.11847,421.56884],[-2.1865,15.09494],[4.41675,-11.12015]],[[617.50299,386.52715],[-0.91739,11.78227],[1.89198,-24.29927]],[[617.63117,315.01249],[5.93579,24.12806],[-1.46569,-5.9578]],[[614.40458,298.82787],[2.3442,5.67512],[-2.59358,-15.19929]],[[608.79269,253.27278],[1.51946,15.30107],[-0.53628,-5.40035]],[[608.79269,236.91894],[0.54365,5.39223],[-0.41027,-4.06928]],[[606.60488,224.84584],[0.34162,4.07562],[-0.49871,-5.94982]],[[605.57952,207.89074],[1.06676,5.88674],[-1.19074,-6.57093]],[[602.99679,184.57931],[3.32195,5.92122],[-1.33912,-2.38693]],[[595.55757,181.10455],[2.54948,0.9954],[-14.58609,-5.88513]],[[550.53351,176.01089],[15.40597,0],[-6.26147,0]],[[530.21922,176.87371],[6.10614,-1.93506],[-2.43462,0.77154]],[[523.33561,180.23815],[2.48011,-0.60966],[-5.76128,1.41623]],[[504.00694,181.44959],[5.9867,-0.45998],[-0.04006,0.00308]],[[493.81127,183.53956],[1.34662,-1.26385],[-3.97029,3.72626]]],&quot;closed&quot;:true}]}" fill="#000000" stroke-width="0.5"/></g><path d="M371.94403,197.20809c1.1745,0.84139 1.5349,2.28296 1.5349,2.28296l0.86021,3.46136c0.29099,2.26164 1.43054,4.57386 0.87297,6.78492c-0.07104,0.28171 -0.16533,0.55283 -0.27859,0.81532l0.1013,0.03377l-0.79084,2.37251c-0.47126,1.53234 -1.89801,2.64618 -3.58491,2.64618c-1.3223,0 -2.48475,-0.68439 -3.15245,-1.71827l-1.6041,-2.40615l0.15333,-0.10222l-0.40183,-0.33034c-0.54377,-1.81186 -2.25814,-3.05013 -3.16729,-4.70904c-2.22947,-4.06805 -2.68344,-10.43142 -3.66812,-14.93401c-0.32977,-1.50792 -1.09143,-3.01357 -0.89129,-4.5441c0.01615,-0.1235 0.03387,-0.24667 0.05307,-0.36952l-0.07132,0v-4.90909c0,-2.07107 1.67893,-3.75 3.75,-3.75c1.3223,0 2.48475,0.68439 3.15245,1.71827l1.6041,2.40615l-0.08207,0.05471l0.20529,0.14319c1.35163,2.70681 2.17831,5.64771 3.398,8.41648c0.47587,1.08024 1.57451,1.86925 1.85678,3.01542c0.09161,0.37201 0.13264,1.92285 0.15041,3.6215z" fill="#ffffff" stroke-width="0.5"/><path d="M446.66873,167.11323c0.72643,0.57616 1.06956,1.38363 1.23163,2.01788c1.18254,2.1858 1.98775,4.54507 2.36195,7.04016c0.01168,0.03436 0.02325,0.06875 0.0347,0.10319c0.03922,0.11791 0.85814,4.95885 1.45802,6.1149c1.48777,2.86711 3.32489,3.42841 2.8331,7.51875c-0.23298,1.93775 -0.68787,4.36775 -2.37276,5.35279c-2.08332,1.21797 -4.9857,1.13874 -7.23486,0.26412c-1.71434,-0.66665 -2.61366,-2.69804 -3.35413,-4.38181c-1.15142,-2.61822 -0.82241,-5.69043 -1.71723,-8.40708c-0.7429,-2.25542 -2.51317,-4.09004 -3.20766,-6.36083c-0.62611,-2.04718 -0.61154,-4.23866 -0.99521,-6.34478c-0.24441,-1.34164 -1.30501,-2.69517 -0.88812,-3.9936c0.09382,-0.29221 0.20314,-0.5772 0.32537,-0.85616l-0.2134,-0.05335l0.79916,-3.19663c0.37897,-1.66995 1.87243,-2.91659 3.65706,-2.91659c1.6869,0 3.11364,1.11384 3.58491,2.64618l0.57996,1.73987c1.17522,1.15655 2.21897,2.39742 3.11751,3.71298z" fill="#ffffff" stroke-width="0.5"/></g></g></svg>