<svg version="1.1" xmlns="http://www.w3.org/2000/svg" xmlns:xlink="http://www.w3.org/1999/xlink" width="165.15387" height="190.27373" viewBox="0,0,165.15387,190.27373"><g transform="translate(-148.75171,-37.8148)"><g data-paper-data="{&quot;isPaintingLayer&quot;:true}" fill-rule="nonzero" stroke="none" stroke-width="0.5" stroke-linecap="butt" stroke-linejoin="miter" stroke-miterlimit="10" stroke-dasharray="" stroke-dashoffset="0" style="mix-blend-mode: normal"><path d="M274.72331,159.66207l-0.40636,1.39897c0.25272,1.14989 0.50539,2.26298 0.53518,3.35062c0.00661,-0.05501 0.01333,-0.11 0.02017,-0.16494l-0.0193,-0.39177c0,0 0,-2.5 2.5,-2.5c1.81464,0 2.31211,1.31716 2.44849,2.03935c0.24897,0.24478 0.41566,0.53138 0.52727,0.80543c1.17289,-0.31655 2.21843,0.51988 2.21843,0.51988l1.62365,1.40668c0.5014,-4.45035 -0.01959,-9.22992 -0.41593,-13.2276c-0.11016,-1.11118 -0.66211,-2.16583 -0.66879,-3.28243c-0.00435,-0.72763 0.7077,-1.36387 0.63665,-2.08805c-0.05274,-0.53758 -0.23985,1.17634 -0.69802,1.46244c-1.18925,0.74262 -2.64155,0.94155 -3.95164,1.44101c-3.45013,1.31533 -6.64706,2.47442 -10.25687,3.27822c-12.53488,1.79456 -25.24705,2.40047 -37.86219,1.07817c-2.51702,-0.26384 -5.04211,-0.55425 -7.53324,-0.96225c-0.02282,0.315 -0.04577,0.63 -0.06947,0.94492c2.06749,1.8612 4.01665,3.89649 5.75059,6.01462c2.64408,0.15649 5.39833,-0.11812 6.76406,-0.11843c7.21665,-0.00158 14.49898,-0.27215 21.71036,0.00108c3.8926,0.14748 8.00225,1.08574 11.56849,-0.40246c-0.13353,-0.57598 -0.23343,-0.97492 -0.23836,-1.01356c0,0 -0.31008,-2.4807 2.17061,-2.79078c1.21123,-0.1514 1.90499,0.36253 2.29784,0.92816c1.34839,0.61622 1.34838,2.2727 1.34838,2.2727zM269.44489,179.95297c-0.30971,-0.00482 -0.61946,-0.01019 -0.92926,-0.01613c-0.0519,0.08524 -0.10583,0.16986 -0.16188,0.25383c0.39565,-0.07238 0.78995,-0.15095 1.18271,-0.23622c-0.03058,-0.00052 -0.0611,-0.001 -0.09157,-0.00148zM264.5884,174.87493c0.11774,0.00484 0.23611,0.00999 0.35507,0.01542c0.12446,-0.8517 0.1821,-1.68328 0.24284,-2.21991l-0.01931,-0.0404c0,0 0,-0.24383 0.07615,-0.57919c-1.97386,-0.30295 -3.96604,-0.6075 -6.01214,-0.79297c-7.56557,-0.68576 -15.14129,-1.27937 -22.70482,-2.09538c-0.5693,0.00106 -1.13855,0.00952 -1.70652,0.01943c0.09069,0.09887 0.18379,0.19578 0.27955,0.29054c0.96451,0.95437 1.95219,1.84117 2.96291,2.66419c8.75865,1.51681 17.64864,2.37351 26.52627,2.73827zM278.6682,174.52204c3.22434,-0.86369 3.74968,-2.73384 1.98956,-5.06156l-1.11728,-0.75737l-0.36758,1.24814c-0.16742,0.07798 -0.33283,0.16229 -0.49707,0.25021c-0.25032,0.87328 -0.51909,1.74138 -0.79064,2.60546c-2.64303,0.31592 -5.19157,0.20669 -7.72128,-0.07143l-0.01622,0.55512c-0.08298,0.61901 -0.15101,1.24243 -0.2303,1.86231c2.99477,0.12269 6.05926,0.09008 8.7508,-0.63089zM224.15461,174.31319c-3.34397,-2.40034 -5.02904,-3.92719 -5.66146,-6.98314c-1.00327,-0.01329 -1.99934,-0.05918 -2.93611,-0.3834c-1.54969,-0.53636 -2.58461,-1.20409 -3.2349,-1.97371c-0.50428,-0.12662 -0.99653,-0.28206 -1.46035,-0.50551c3.57002,4.2563 8.23015,7.48424 13.39344,9.91767c-0.0336,-0.02391 -0.06714,-0.04788 -0.10061,-0.0719zM228.75116,169.06312c-0.39911,-0.04253 -0.79517,-0.09596 -1.18768,-0.16264c0.51936,0.40136 1.0964,0.74117 1.70584,1.03203c-0.17503,-0.28785 -0.3469,-0.57833 -0.51816,-0.86938zM225.8362,129.38807c-2.32119,0.92847 -3.24967,-1.39271 -3.24967,-1.39271l-0.67764,-1.69611c-2.33042,-5.44132 -3.71758,-11.09891 -5.67372,-16.64374c-0.95392,-2.70396 -2.31771,-5.23121 -3.61426,-7.77799c-4.48024,5.84113 -7.0396,13.19749 -8.69282,20.21447c-0.73482,8.65281 -2.40153,18.76026 -0.11831,27.26531c0.82068,3.05704 1.69486,6.13572 3.07548,8.98404c0.10218,0.2108 0.20658,0.41975 0.31315,0.62685c0.03319,-1.45746 0.41802,-3.074 0.64604,-4.89847c0,0 0.31009,-2.48069 2.79078,-2.17061c2.48069,0.31008 2.17061,2.79078 2.17061,2.79078c-0.19851,1.58779 -1.14364,3.14676 -0.86341,4.72218c0.00375,0.02108 0.00929,0.04096 0.01648,0.05972c0.36232,-1.06538 0.85537,-2.17542 1.34567,-3.29989c0,0 0.58724,-1.32129 1.87338,-1.50758c-0.13961,-0.09531 -0.27933,-0.18944 -0.41913,-0.28233l-0.7315,-0.66285c0,0 -1.14577,-1.14576 -0.67002,-2.51487c-2.49954,-0.98181 -4.8916,-2.24771 -7.12339,-3.91212c0,0 -2,-1.5 -0.5,-3.5c1.5,-2 3.5,-0.5 3.5,-0.5c6.35218,4.79477 14.49578,5.70423 22.24498,6.52353c12.13326,1.28281 24.38279,0.6939 36.4408,-1.02475c4.58298,-1.01608 8.66868,-3.00182 13.12939,-4.39339c1.61959,-0.50525 3.46534,-2.23141 4.90975,-1.34145c2.78361,1.7151 2.64968,10.12025 2.78175,12.99723c0.26547,5.78326 0.6599,11.73084 -1.0715,16.88358c1.77106,-1.09121 3.42901,-2.29706 4.91562,-3.6224c3.52472,-3.14237 5.68158,-7.33591 7.65556,-11.52997c4.93209,-10.47909 6.9915,-21.65316 8.08249,-33.14883c0.28195,-4.24595 1.01155,-8.8485 0.30955,-13.09678c-1.22006,-7.38337 -4.59574,-14.437 -7.80175,-21.10581c-8.37209,-17.41472 -19.79619,-31.44514 -37.38041,-40.22842c-8.96771,-3.4391 -17.27386,-5.38006 -26.81168,-6.27174c-3.86791,-0.3616 -8.03249,-1.23561 -11.91388,-1.1059c-8.00187,0.26741 -14.82106,2.49851 -22.27413,5.05576c-9.95544,3.41584 -19.60058,8.19846 -27.43517,15.26677c-6.07548,5.94082 -13.1138,12.52847 -16.80472,20.3152c-0.60425,1.27479 -1.75519,6.89299 -1.97112,7.69459c-1.85429,6.88387 -2.35091,12.93308 -2.37079,20.05586c-0.02017,7.23023 3.20664,17.78784 9.89615,21.30116c3.15399,1.58074 6.64746,3.35386 10.03153,4.36479c7.01953,2.09696 15.4382,0.19659 22.15567,-1.7499l1.7396,-0.09619c0,0 0.0433,0 0.11848,0.0057c0.23806,-4.67258 0.79606,-9.34258 1.18073,-13.73834c2.04334,-8.69406 5.3037,-17.61648 11.30334,-24.44962c-1.76695,-4.31838 -3.06525,-8.76784 -4.27486,-13.303c0,0 -0.64415,-2.41559 1.77143,-3.05974c2.41558,-0.64415 3.05974,1.77143 3.05974,1.77143c0.97741,3.66597 2.00712,7.26406 3.32216,10.78113c1.66679,-1.45097 3.40371,-2.82798 5.04653,-4.3057c4.92237,-4.4277 10.2551,-9.05261 16.81404,-10.82765c7.21847,-1.95353 17.3869,-0.3627 24.30015,2.18875c0,0 2.34082,0.8778 1.46301,3.21863c-0.87781,2.34082 -3.21863,1.46301 -3.21863,1.46301c-4.35109,-1.66319 -9.30602,-2.12631 -13.95042,-2.29893c-0.97424,-0.03621 -5.96596,-0.11034 -7.37051,0.27651c-5.71698,1.57456 -10.40888,5.84019 -14.69323,9.69653c-2.07186,1.86488 -4.29791,3.56368 -6.33467,5.46398c1.59618,3.34975 3.48967,6.58608 4.73388,10.10996c1.91721,5.42997 3.25681,10.97396 5.54183,16.30193l0.7243,1.80875c0,0 0.92847,2.32119 -1.39272,3.24967zM273.31266,185.18246c-3.46422,1.07157 -6.94419,0.84221 -10.54307,1.16312c-1.15961,-0.09554 -2.30736,-0.21656 -3.44248,-0.36518c-2.69283,0.05855 -5.38733,0.02541 -8.04692,0.02453c-7.47204,-0.6181 -15.62125,-2.02679 -23.22813,-4.72263c-5.44703,8.90608 -18.17957,14.63634 -14.96111,26.8452v-0.00001c0.57247,2.17162 1.47782,3.92941 3.16723,5.50189c2.29891,2.13979 3.13474,2.05512 6.26991,3.36991c3.42632,1.43689 7.04354,2.08985 10.63016,3.06846c5.36712,1.81026 10.74824,2.17726 16.37123,2.71281c12.68483,1.20815 26.82229,-0.5927 34.87212,-11.89057c2.09364,-2.9384 1.60023,-7.59853 2.03698,-11.04447c0.04665,-6.41022 -2.55833,-11.54396 -6.20686,-16.63999l-0.33875,-0.78091c-2.25275,1.40256 -3.85369,1.91443 -6.58032,2.75785zM217.87363,158.2026c-0.40163,0.88287 -0.79265,1.77065 -1.20305,2.64945c0.75542,0.19142 1.502,0.34824 2.24635,0.47964l-0.07411,-0.83168c-0.56281,-1.12101 -0.72225,-2.30569 -0.7039,-3.62342c-0.01647,-0.01337 -0.03293,-0.02674 -0.04941,-0.04008c0.0618,0.74131 -0.21588,1.3661 -0.21588,1.3661zM274.68285,166.28394c0.00444,-0.07988 0.00928,-0.15974 0.01452,-0.23958c-0.01975,0.08318 -0.04154,0.16623 -0.06548,0.24917c0.017,-0.00314 0.03399,-0.00635 0.05096,-0.00959zM291.42891,200.15621c-0.56198,4.55395 -0.22437,9.56328 -2.87606,13.52073c-8.71967,13.01342 -25.27943,15.43504 -39.52534,14.07836c-5.95523,-0.56713 -11.62452,-1.02439 -17.31818,-2.90209c-5.28412,-1.44043 -10.7564,-2.41888 -15.60594,-5.13517c-8.46545,-4.74159 -11.23859,-16.68525 -6.15952,-24.87664c3.61896,-5.83656 9.79427,-9.7622 13.4021,-15.43095c-8.87291,-3.9461 -16.57473,-9.93342 -20.93849,-18.8443c-1.53985,-3.14442 -2.5429,-6.54078 -3.43077,-9.92755c-0.88856,-3.3894 -1.23503,-6.96752 -1.27683,-10.60363c-0.00547,0.00009 -0.0083,0.0001 -0.0083,0.0001l-0.36599,-0.09619c-7.70149,2.174 -16.85823,4.08579 -24.86915,1.75941c-3.71701,-1.07942 -7.5699,-3.03589 -11.02435,-4.75942c-6.00376,-3.46544 -8.67233,-9.03184 -10.69712,-15.50965c-3.25496,-10.41342 -2.12771,-21.14934 0.67592,-31.56806c0.52043,-1.93399 1.32332,-6.49913 2.24005,-8.44825c3.95583,-8.41076 11.38807,-15.50255 17.94243,-21.90897c8.385,-7.54695 18.58929,-12.68923 29.23259,-16.34988c7.95778,-2.73699 15.33739,-5.06135 23.87607,-5.32696c4.05348,-0.12609 8.36594,0.75021 12.40185,1.12756c10.07905,0.94237 18.89442,3.03257 28.36305,6.67482c18.66861,9.34269 30.9608,24.10546 39.86991,42.63724c3.40944,7.09195 6.9661,14.61113 8.23038,22.46814c0.75671,4.70265 0.0521,9.59985 -0.26073,14.30366c-1.15527,12.09017 -3.33771,23.85761 -8.5438,34.87851c-2.30777,4.88538 -4.86221,9.55282 -8.95193,13.21747c-3.24968,2.91192 -7.24064,5.30563 -11.47459,7.21509c4.34451,6.10784 7.05255,12.19481 7.09275,19.80662z" fill="#000000"/><path d="M197.65034,135.06335l-1.74019,0.0953c-6.71747,1.94649 -15.14017,3.83935 -22.15971,1.74239c-3.38407,-1.01093 -6.8795,-2.78938 -10.03349,-4.37011c-6.68951,-3.51332 -9.9185,-14.08594 -9.89832,-21.31617c0.01988,-7.12278 0.5183,-13.18484 2.37259,-20.06871c0.21592,-0.8016 1.36846,-6.4246 1.97272,-7.6994c3.69092,-7.78674 10.73802,-14.38898 16.81351,-20.32979c7.83459,-7.06831 17.49695,-11.86378 27.45239,-15.27962c7.45308,-2.55725 14.28805,-4.79256 22.28992,-5.05997c3.88139,-0.12971 8.05462,0.74421 11.92253,1.10582c9.53782,0.89168 17.86317,2.83812 26.83088,6.27722c17.58422,8.78329 29.03305,22.8433 37.40514,40.25802c3.20601,6.66881 6.58393,13.73697 7.80399,21.12034c0.702,4.24828 -0.02827,8.85923 -0.31022,13.10518c-1.09099,11.49567 -3.15812,22.68931 -8.09021,33.1684c-1.97398,4.19406 -4.136,8.39409 -7.66071,11.53646c-6.06063,5.4032 -14.98112,8.82964 -22.79069,10.58968c-5.94829,1.34055 -12.26994,1.11678 -18.32852,1.11889c-16.14098,-1.35557 -36.85092,-6.60214 -44.64006,-22.67172c-1.38062,-2.84832 -2.26111,-5.93096 -3.08179,-8.988c-2.28322,-8.50505 -0.63374,-18.63539 0.10108,-27.28819c1.94434,-8.25267 5.14991,-17.02337 11.25181,-23.19784c2.30455,-2.33196 4.97306,-4.3099 7.40989,-6.50328c4.28435,-3.85634 9.00676,-8.12546 14.72375,-9.70002c1.40455,-0.38684 6.40691,-0.3093 7.38116,-0.27309c4.64441,0.17262 9.61422,0.64602 13.96531,2.30921c0,0 2.26902,0.9474 3.14684,-1.39342c0.87781,-2.34082 -1.46024,-3.2159 -1.46024,-3.2159c-6.91324,-2.55145 -17.05479,-4.12973 -24.27326,-2.1762c-6.55894,1.77505 -11.86167,6.39468 -16.78404,10.82238c-2.51289,2.26036 -5.23081,4.27282 -7.59626,6.68704c-6.84633,6.98748 -10.41958,16.51183 -12.60731,25.8203c-0.38467,4.39576 -0.94951,9.05131 -1.18757,13.7239c-0.07519,-0.0057 -0.2009,0.05093 -0.2009,0.05093z" data-paper-data="{&quot;noHover&quot;:false,&quot;origItem&quot;:[&quot;Path&quot;,{&quot;applyMatrix&quot;:true,&quot;segments&quot;:[[[365.01832,285.38241],[-0.15037,-0.01139],[0.47612,-9.34517]],[[367.37978,257.90573],[-0.76933,8.79151],[4.37547,-18.61695]],[[392.61362,206.17332],[-13.69265,13.97495],[4.7309,-4.82844]],[[407.83646,192.77471],[-5.02578,4.52072],[9.84474,-8.8554]],[[441.46455,171.1194],[-13.11789,3.55009],[14.43693,-3.90706]],[[490.06484,175.4969],[-13.82649,-5.10289],[0,0]],[[492.99087,181.93416],[1.75562,-4.68165],[-1.75562,4.68165]],[[486.55361,184.86019],[0,0],[-8.70217,-3.32638]],[[458.65276,180.26233],[9.28882,0.34525],[-1.94848,-0.07242]],[[443.91174,180.81534],[2.80911,-0.77368],[-11.43397,3.14912]],[[414.52528,200.20839],[8.5687,-7.71267],[-4.87365,4.38676]],[[399.74227,213.18634],[4.60911,-4.66392],[-12.20381,12.34894]],[[377.25432,259.48483],[3.88868,-16.50533],[-1.46964,17.30561]],[[377.0177,314.01545],[-4.56644,-17.0101],[1.64136,6.11409]],[[383.16865,331.98352],[-2.76124,-5.69664],[15.57829,32.13916]],[[472.37417,377.31937],[-32.28196,-2.71114],[12.11716,-0.00422]],[[509.00994,375.09055],[-11.89658,2.68111],[15.61914,-3.52006]],[[554.56758,353.92984],[-12.12126,10.8064],[7.04943,-6.28473]],[[569.87871,330.8699],[-3.94796,8.38813],[9.86418,-20.95818]],[[586.04369,264.57224],[-2.18198,22.99133],[0.56389,-8.49189]],[[586.66278,238.37869],[1.404,8.49655],[-2.44011,-14.76674]],[[571.05928,196.16708],[6.41202,13.33761],[-16.74417,-34.82944]],[[496.29845,115.71023],[35.16845,17.56658],[-17.93542,-6.87819]],[[442.67509,103.16675],[19.07564,1.78336],[-7.73582,-0.72321]],[[418.84733,100.95495],[7.76278,-0.25942],[-16.00373,0.53482]],[[374.29907,111.06647],[14.90615,-5.1145],[-19.91088,6.83169]],[[319.42873,141.60001],[15.66918,-14.13663],[-12.15097,11.88163]],[[285.81928,182.23041],[7.38184,-15.57347],[-1.20851,2.54959]],[[281.87704,197.61959],[0.43185,-1.6032],[-3.70858,13.76774]],[[277.13547,237.7313],[0.03975,-14.24555],[-0.04035,14.46046]],[[296.92777,280.33361],[-13.37902,-7.02663],[6.30797,3.16147]],[[316.99084,289.0632],[-6.76815,-2.02186],[14.03907,4.19392]],[[361.30217,285.56339],[-13.43493,3.89299],[0,0]],[364.78136,285.37101]],&quot;closed&quot;:true}]}" fill="#ffffff"/><path d="M228.01625,181.2474c7.60688,2.69584 15.79734,4.08973 23.26937,4.70783c6.50983,0.00214 13.2621,0.21575 19.6539,-1.21331c2.88736,-0.64555 5.90766,-1.49919 8.89316,-2.57999l0.44157,1.01732c3.64853,5.09604 6.26088,10.25289 6.21423,16.66311c-0.43674,3.44593 0.05527,8.12133 -2.03836,11.05973c-8.04982,11.29787 -22.23575,13.13662 -34.92058,11.92848c-5.62299,-0.53555 -11.03792,-0.91566 -16.40504,-2.72592c-3.58661,-0.97861 -7.21392,-1.6444 -10.64024,-3.0813c-3.13517,-1.31479 -3.97444,-1.23791 -6.27335,-3.3777c-1.68941,-1.57248 -2.59682,-3.33849 -3.1693,-5.51011c-3.21847,-12.20886 9.52761,-17.98205 14.97465,-26.88814z" data-paper-data="{&quot;noHover&quot;:false,&quot;origItem&quot;:[&quot;Path&quot;,{&quot;applyMatrix&quot;:true,&quot;segments&quot;:[[[395.58013,431.55585],[-6.43693,-24.41772],[1.14495,4.34323]],[[401.91459,442.55963],[-3.37882,-3.14496],[4.59782,4.27959]],[[414.4544,449.29945],[-6.27033,-2.62958],[6.85264,2.87379]],[[435.71471,455.43637],[-7.17322,-1.95722],[10.73423,3.62052]],[[468.45717,460.86199],[-11.24598,-1.07111],[25.36966,2.41629]],[[538.20141,437.08085],[-16.09965,22.59573],[4.18727,-5.8768]],[[542.27537,414.99192],[-0.87349,6.89187],[0.09331,-12.82044]],[[529.86165,381.71193],[7.29706,10.19208],[0,0]],[[528.98015,379.67982],[0,0],[-5.971,2.1616]],[[511.19973,384.84784],[5.77472,-1.2911],[-12.78359,2.85812]],[[471.95859,387.31073],[13.01966,0.00427],[-14.94407,-1.2362]],[[425.50234,377.86546],[15.21376,5.39168],[-10.89406,17.81217]]],&quot;closed&quot;:true}]}" fill="#11ff00"/><path d="M214.14187,132.97296c0,-1.38071 1.11929,-2.5 2.5,-2.5c1.38071,0 2.5,1.11929 2.5,2.5c0,1.38071 -1.11929,2.5 -2.5,2.5c-1.38071,0 -2.5,-1.11929 -2.5,-2.5z" fill="#ff0000"/><path d="M265.02693,136.48227c0,-1.38071 1.11929,-2.5 2.5,-2.5c1.38071,0 2.5,1.11929 2.5,2.5c0,1.38071 -1.11929,2.5 -2.5,2.5c-1.38071,0 -2.5,-1.11929 -2.5,-2.5z" fill="#ff0000"/><path d="M201.61587,85.15933c1.95217,-1.56174 3.51391,0.39044 3.51391,0.39044l1.74763,2.32937c2.82981,6.62639 7.52987,12.26027 10.70647,18.72252c2.89097,5.8812 5.21645,12.06634 8.15797,17.94525c0,0 1.11804,2.23607 -1.11803,3.35411c-2.23607,1.11804 -3.35411,-1.11804 -3.35411,-1.11804c-2.94333,-5.89064 -5.28003,-12.08454 -8.17343,-17.97644c-3.21644,-6.54974 -7.92781,-12.24359 -10.8146,-18.95781l-1.05625,-1.17549c0,0 -1.56173,-1.95217 0.39044,-3.51391z" fill="#000000"/><path d="M290.46391,81.83888c1.76776,1.76776 0,3.53553 0,3.53553l-1.08958,1.02093c-4.85349,7.25353 -10.95633,13.67157 -15.75249,20.99964c-4.90193,7.48968 -7.09532,15.76676 -10.68004,23.84163c0,0 -1.01534,2.28453 -3.29987,1.26918c-2.28453,-1.01534 -1.26918,-3.29988 -1.26918,-3.29988c3.69896,-8.31262 6.00006,-16.80416 11.05009,-24.52541c4.80604,-7.3482 10.95352,-13.77193 15.79123,-21.05866l1.71431,-1.78296c0,0 1.76776,-1.76776 3.53553,0z" fill="#000000"/></g></g></svg>