<svg version="1.1" xmlns="http://www.w3.org/2000/svg" xmlns:xlink="http://www.w3.org/1999/xlink" width="1106.11536" height="461.01502" viewBox="0,0,1106.11536,461.01502"><g transform="translate(399.448,41.87063)"><g data-paper-data="{&quot;isPaintingLayer&quot;:true}" fill-rule="nonzero" stroke-linejoin="miter" stroke-miterlimit="10" stroke-dasharray="" stroke-dashoffset="0" style="mix-blend-mode: normal"><path d="M-90.22253,419.14439v-461.01502h694.19863v461.01502z" data-paper-data="{&quot;index&quot;:null}" fill="#1a261e" stroke="none" stroke-width="0" stroke-linecap="butt"/><path d="M8.8328,413.89156l-25.53784,-69.88682l553.02011,10.48804l170.35229,30.5173z" data-paper-data="{&quot;index&quot;:null}" fill="#0e1410" stroke="none" stroke-width="0" stroke-linecap="butt"/><path d="M641.50237,173.69655c-1.38071,0 -2.5,-1.11929 -2.5,-2.5c0,-1.38071 1.11929,-2.5 2.5,-2.5c1.38071,0 2.5,1.11929 2.5,2.5c0,1.38071 -1.11929,2.5 -2.5,2.5z" data-paper-data="{&quot;index&quot;:null}" fill="#252525" stroke="none" stroke-width="0.5" stroke-linecap="butt"/><path d="M-330.13427,57.50003c0,-6.90356 5.59644,-12.5 12.5,-12.5c6.90356,0 12.5,5.59644 12.5,12.5c0,6.90356 -5.59644,12.5 -12.5,12.5c-6.90356,0 -12.5,-5.59644 -12.5,-12.5z" fill="#262429" stroke="none" stroke-width="0.5" stroke-linecap="butt"/><path d="M151.86504,353.5744v-314h230.8552v314z" fill="#000000" stroke="none" stroke-width="0" stroke-linecap="butt"/><g><path d="M360.1837,353.60318v-324h221v324z" fill="#151f19" stroke="none" stroke-width="0" stroke-linecap="butt"/><path d="M396.83099,344.43907v-295.30769" fill="none" stroke="#0e1410" stroke-width="5" stroke-linecap="round"/><path d="M434.90791,345.41029v-295.30769" fill="none" stroke="#0e1410" stroke-width="5" stroke-linecap="round"/><path d="M472.98484,50.1026v295.30769" fill="none" stroke="#0e1410" stroke-width="5" stroke-linecap="round"/><path d="M511.06176,50.1026v295.30769" fill="none" stroke="#0e1410" stroke-width="5" stroke-linecap="round"/><path d="M549.13868,345.41029v-295.30769" fill="none" stroke="#0e1410" stroke-width="5" stroke-linecap="round"/></g><g><path d="M-54.59841,354.5744v-324h221v324z" fill="#151f19" stroke="none" stroke-width="0" stroke-linecap="butt"/><path d="M-27.18189,345.41029v-295.30769" fill="none" stroke="#0e1410" stroke-width="5" stroke-linecap="round"/><path d="M10.89503,50.1026v295.30769" fill="none" stroke="#0e1410" stroke-width="5" stroke-linecap="round"/><path d="M48.97196,50.1026v295.30769" fill="none" stroke="#0e1410" stroke-width="5" stroke-linecap="round"/><path d="M87.04887,50.1026v295.30769" fill="none" stroke="#0e1410" stroke-width="5" stroke-linecap="round"/><path d="M125.12579,50.1026v295.30769" fill="none" stroke="#0e1410" stroke-width="5" stroke-linecap="round"/></g><path d="M-399.448,128.483c0,-1.38071 1.11929,-2.5 2.5,-2.5c1.38071,0 2.5,1.11929 2.5,2.5c0,1.38071 -1.11929,2.5 -2.5,2.5c-1.38071,0 -2.5,-1.11929 -2.5,-2.5z" fill="#ffeaaa" stroke="none" stroke-width="0.5" stroke-linecap="butt"/><path d="M237.15508,106.95989c-2.67905,-0.56803 -5.41525,-2.35322 -8.05655,-3.07026c-2.3708,-0.64361 -4.80055,-1.06864 -7.15042,-1.78489c-4.663,-1.42131 -9.54858,-1.25506 -14.30097,-1.66279c-3.57943,-0.30709 -6.80175,-1.87279 -10.13123,-3.08348c-0.07739,0.55142 -0.1759,1.09857 -0.31016,1.63842c-0.22195,0.89242 -0.95245,1.59404 -1.22291,2.47298c-1.9739,6.41484 -1.45919,13.33902 -3.60862,19.82619l0.19244,0.01415c0,0 0,3.75 -3.75,3.75c-3.75,0 -3.75,-3.75 -3.75,-3.75l0.19244,-2.38585c2.1689,-6.46283 1.68989,-13.29684 3.59138,-19.77381c0.57057,-1.9435 1.10555,-3.91707 1.62972,-5.90447c-0.06219,-0.4285 -0.05169,-0.91641 0.05929,-1.4713c0.15422,-0.77112 0.43781,-1.34819 0.78973,-1.77868c0.54789,-2.10587 1.09872,-4.21732 1.68151,-6.3153c1.31535,-4.7351 0.87805,-8.11263 3.56378,-12.56324c0.70984,-1.1763 2.12811,-1.73822 3.19216,-2.60734c0,0 3,-2.25 5.25,0.75c2.25,3 -0.75,5.25 -0.75,5.25c-3.53303,2.18125 -3.03934,7.61231 -4.04406,11.22942c-0.40111,1.44402 -1.12468,2.78221 -1.61133,4.19874c3.24047,1.21418 6.44213,2.81875 9.7749,3.04009c5.23451,0.34763 10.58163,0.42398 15.69903,1.93721c2.38886,0.7064 4.84695,1.15705 7.24958,1.81511c2.49622,0.6837 5.04808,2.33497 7.54344,2.92974c1.66645,0.3972 3.42529,-0.10032 5.13843,-0.10032l0.05193,0c-0.03808,-3.7657 -0.20193,-7.55034 -0.20193,-11.25c0,0 0,-3.75 3.75,-3.75c3.75,0 3.75,3.75 3.75,3.75c0,6.43323 0.43891,13.08948 -0.01278,19.5093c-0.38553,5.47946 -1.82524,11.01099 -1.78722,16.4907l-0.71197,3.30951c0,0 -0.90951,3.63803 -4.54754,2.72853c-3.63803,-0.90951 -2.72853,-4.54754 -2.72853,-4.54754l0.48803,-1.49049c0.03099,-5.7226 1.39846,-11.40082 1.81278,-17.1093c0.0034,-0.04685 0.00675,-0.09372 0.01005,-0.1406c-1.2373,0.00163 -6.16108,0.02114 -6.7344,-0.10042z" fill="#ff0000" stroke="none" stroke-width="0.5" stroke-linecap="butt"/><path d="M291.72616,180.74824c-3.63803,0.90951 -4.54754,-2.72853 -4.54754,-2.72853l-0.63914,-2.57407c-0.44905,-2.3091 -0.46764,-4.68166 -0.66004,-7.02613c-0.29524,-3.5976 -1.46271,-7.15596 -1.79453,-10.73979c-0.57052,-6.16196 -0.92094,-12.8683 -3.82235,-18.49246c0,0 -1.67705,-3.3541 1.67705,-5.03115c3.3541,-1.67705 5.03115,1.67705 5.03115,1.67705c5.76071,11.78372 4.3325,25.63071 6.92308,38.14162l0.56086,2.22593c0,0 0.90951,3.63803 -2.72853,4.54754z" fill="#ff0000" stroke="none" stroke-width="0.5" stroke-linecap="butt"/><path d="M200.80968,204.06732c-0.73019,-0.53803 -1.34302,-1.44115 -1.34302,-2.95711c0,-1.0094 0.2717,-1.74709 0.66884,-2.28622c-0.05318,-0.30275 -0.56628,-3.68855 2.94573,-4.39096c2.8988,-0.57976 3.96945,1.58271 4.29283,2.52418c0.49059,-0.06752 0.98142,-0.13103 1.47309,-0.17875c9.53144,-0.92516 19.59493,-0.01825 29.16952,-0.01825c3.49443,0 8.23739,-0.68995 11.66157,0.10032c6.51089,1.50264 11.18587,6.98246 13.53296,12.78113c1.54531,7.75372 1.30606,15.71886 -4.54289,21.7202c-1.22549,1.25742 -2.88053,2.06838 -4.0187,3.40536c-1.36078,1.59847 -2.20948,3.57754 -3.47718,5.25079c-1.58773,2.09566 -3.78469,3.65525 -5.56154,5.59316c-1.00014,1.09079 -1.67786,2.49484 -2.83669,3.41529c-2.90494,2.30739 -7.21859,3.50017 -10.62486,4.78896c-6.19236,2.34292 -12.88679,3.3309 -19.56774,2.95934c-1.23311,-1.18287 -2.86063,-2.05988 -3.69932,-3.54862c-1.94731,-3.45662 -1.26513,-8.95078 -1.59737,-12.74641c-0.27215,-3.10906 -1.50455,-6.03506 -2.29262,-9.00701c-1.17127,-4.41701 -1.51103,-9.34847 -1.91285,-13.8532c-0.41178,-4.61644 -1.838,-8.97182 -2.26976,-13.55219zM208.37844,204.38127c0.34156,2.89798 0.99917,5.71092 1.52678,8.65288c0.84093,4.68909 1.4116,9.40906 1.84319,14.10654c0.28784,3.13282 1.73176,6.13942 2.34543,9.23408c0.7251,3.65661 0.76588,7.25962 1.22872,10.96198c0.10388,0.83094 0.87293,2.12411 0.12917,2.5089c7.30754,-1.63339 16.43704,-1.66411 22.6074,-6.6517c0.84143,-0.68014 1.23925,-1.78076 1.96331,-2.58471c1.64763,-1.82941 3.7735,-3.22813 5.23846,-5.20684c1.32539,-1.7902 2.26925,-3.86143 3.72282,-5.54921c1.26081,-1.46395 2.98959,-2.45452 4.3813,-3.79464c3.88036,-3.73651 3.63029,-9.4412 2.65711,-14.2798c-1.28177,-3.27021 -4.35865,-6.85844 -8.06704,-7.61887c-2.88126,-0.59082 -7.01665,0.10032 -9.93843,0.10032c-9.30413,0 -19.17744,-0.97429 -28.43048,-0.01825c-0.40278,0.04162 -0.8053,0.08929 -1.20774,0.13931z" fill="#ff0000" stroke="none" stroke-width="0.5" stroke-linecap="butt"/><path d="M304.26831,294.36185c-2.65165,2.65165 -5.3033,0 -5.3033,0l-1.8,-1.8c-1.97051,-1.97051 -3.35467,-2.81841 -5.54101,-4.40949c-2.41304,-1.75605 -4.15359,-4.34734 -6.04029,-6.58515c-0.95942,-1.13797 -2.29368,-1.89536 -3.42892,-2.86144c-0.3367,0.98838 -0.68365,1.97622 -1.04322,2.96389c-1.24009,3.40622 -3.32597,6.98304 -2.28097,10.83954c1.3573,5.00905 6.01535,4.91841 9.54361,7.68475c1.4244,1.1168 2.32222,2.96574 3.97867,3.69535c4.19456,1.67783 8.56047,5.52683 12.97294,6.33856c1.98555,0.36527 4.04454,0.21977 6.02628,0.60516l-0.13544,-0.07282c0,0 3.75,0 3.75,3.75c0,3.75 -3.75,3.75 -3.75,3.75l-1.33544,-0.07282c-1.95952,-0.40575 -4.01567,-0.18205 -5.97372,-0.59484c-5.17907,-1.09183 -9.73674,-4.90531 -14.62706,-6.86144c-1.07378,-0.56822 -2.2897,-0.92495 -3.22133,-1.70465c-0.98206,-0.82192 -1.40975,-2.18797 -2.4,-3c-2.13782,-1.75307 -5.33248,-1.91858 -7.3904,-3.76479c-1.12881,-1.01269 -1.6855,-2.52288 -2.46766,-3.8221c-0.77394,-1.28555 -1.80222,-2.48104 -2.19833,-3.92836c-1.51472,-5.53445 0.71355,-10.58939 2.51903,-15.56046c0.84676,-2.3314 1.61234,-4.66398 2.33941,-7.00141c-0.41251,-1.01508 -0.534,-2.45293 0.90385,-3.89078c0.12637,-0.12637 0.25273,-0.24069 0.37881,-0.34383c0.76543,-2.57793 1.5154,-5.16437 2.30666,-7.76419c0.85968,-2.82465 2.29423,-4.96319 2.88017,-7.9306c0.00287,-0.01501 0.00582,-0.03006 0.00884,-0.04517c0.25541,-1.27707 0.86565,-2.02191 1.55343,-2.45018c0.65986,-0.47016 1.58211,-0.74698 2.85918,-0.49156c0.05442,0.01088 0.10788,0.02241 0.16038,0.03456l3.45642,0.74491c2.9398,1.71199 5.38248,3.28939 8.04043,5.25555c2.1727,1.60721 5.22839,1.96981 7.54161,3.42951c3.80784,2.40284 7.48622,5.33878 12.00116,6.13547c0,0 3.67718,0.73544 2.94174,4.41261c-0.73544,3.67718 -4.41261,2.94174 -4.41261,2.94174c-5.49156,-1.18351 -9.72427,-4.06278 -14.39884,-7.06453c-2.51322,-1.61385 -5.58138,-2.04718 -8.05839,-3.77049c-1.90179,-1.32312 -3.60089,-2.5714 -5.55261,-3.83202c-0.65214,1.63643 -1.37859,3.21869 -1.88855,4.94953c-0.80976,2.74842 -1.59802,5.47825 -2.41353,8.19676c0.66012,0.80756 1.32135,1.61406 2.05726,2.35083c1.37913,1.38075 3.14307,2.3626 4.42304,3.83574c1.48324,1.70707 2.84925,4.08223 4.75971,5.41485c2.40328,1.67637 4.33144,3.06296 6.45899,5.19051l1.8,1.8c0,0 2.65165,2.65165 0,5.3033z" fill="#ff0000" stroke="none" stroke-width="0.5" stroke-linecap="butt"/></g></g></svg>