<svg version="1.1" xmlns="http://www.w3.org/2000/svg" xmlns:xlink="http://www.w3.org/1999/xlink" width="1130.29283" height="475.75324" viewBox="0,0,1130.29283,475.75324"><g transform="translate(330.13427,50.50751)"><g data-paper-data="{&quot;isPaintingLayer&quot;:true}" fill-rule="nonzero" stroke="none" stroke-linecap="butt" stroke-linejoin="miter" stroke-miterlimit="10" stroke-dasharray="" stroke-dashoffset="0" style="mix-blend-mode: normal"><path d="M-105.02403,410.50751v-461.01502h694.19863v461.01502z" data-paper-data="{&quot;index&quot;:null}" fill="#1a2026" stroke-width="0"/><path d="M-64.35504,424.95383c-58.78198,-2.43282 -77.31453,-358.32809 -77.31453,-358.32809l98.15109,71.34756l667.26335,159.41887l-25.53784,69.88682c0,0 -539.97142,62.74853 -662.56207,57.67484z" data-paper-data="{&quot;index&quot;:null}" fill="#0e1414" stroke-width="0"/><path d="M-330.13427,57.50003c0,-6.90356 5.59644,-12.5 12.5,-12.5c6.90356,0 12.5,5.59644 12.5,12.5c0,6.90356 -5.59644,12.5 -12.5,12.5c-6.90356,0 -12.5,-5.59644 -12.5,-12.5z" fill="#262429" stroke-width="0.5"/><path d="M787.65857,68.49853c-6.90356,0 -12.5,-5.59644 -12.5,-12.5c0,-6.90356 5.59644,-12.5 12.5,-12.5c6.90356,0 12.5,5.59644 12.5,12.5c0,6.90356 -5.59644,12.5 -12.5,12.5z" data-paper-data="{&quot;index&quot;:null}" fill="#262429" stroke-width="0.5"/><path d="M-283.6285,180.01034c-3.3541,1.67705 -5.03115,-1.67705 -5.03115,-1.67705l-1.6459,-3.2918c-3.22776,-6.45951 -7.21003,-12.47991 -10.44224,-18.9149c-3.3539,-6.67725 -5.97364,-13.91504 -8.77696,-20.83806c-2.97265,-7.34118 -5.70708,-14.07444 -7.4415,-21.81881c0,0 -0.81349,-3.6607 2.84721,-4.47419c3.6607,-0.81349 4.47419,2.84721 4.47419,2.84721c1.6175,7.34104 4.25459,13.67303 7.07184,20.63094c2.72738,6.73597 5.26383,13.78935 8.52728,20.28654c3.23283,6.43622 7.21603,12.46633 10.44838,18.92716l1.6459,3.2918c0,0 1.67705,3.3541 -1.67705,5.03115z" fill="#000000" stroke-width="0.5"/><g><g><path d="M249.65004,324.60066c-0.91669,7.32411 -1.39158,13.50389 -4.55142,20.2496c-7.14783,12.49391 -22.59362,19.3836 -36.25276,21.80432c-8.93213,1.58299 -18.36249,2.4308 -27.35545,2.87584c-4.29566,0.21258 -8.54179,-1.01513 -12.80941,-1.54927c-14.99698,-1.87703 -28.82814,-5.27954 -43.47764,-9.00264c-8.56038,-2.4076 -18.7804,-7.60565 -25.59894,-13.54814c-0.69214,-0.60321 -6.66069,-8.52708 -7.21953,-9.16431c-3.31797,-3.78336 -5.13349,-3.60044 -6.95282,-9.37139c-1.82873,-5.80073 0.59153,-11.39429 1.76884,-16.8711c0.46684,-2.1717 0.14596,-4.51747 0.91757,-6.60046c3.52202,-9.50783 11.84167,-17.10469 17.41697,-25.50016c-0.12707,-0.06065 -0.25408,-0.12142 -0.38102,-0.1823c-18.12399,-9.78992 -34.492,-20.37489 -43.63592,-39.79734c-2.934,-6.23207 -3.61841,-15.05998 -4.71297,-21.76718c-3.63485,-22.27353 -0.89218,-46.7079 9.22214,-67.25368c3.36728,-20.87987 11.00466,-42.17348 3.68903,-62.84878l-1.15126,-5.70777c0,0 -0.31744,-1.58852 0.43736,-2.9782c-0.98701,-0.76044 -2.44948,-2.42383 -1.19508,-5.04561c1.78968,-3.74052 5.53019,-1.95085 5.53019,-1.95085c8.57759,4.14772 14.68113,10.57316 23.57927,14.35047l0.58877,0.01024c0.28688,-0.18919 0.48732,-0.28212 0.48732,-0.28212c13.92503,-6.4512 27.41248,-13.70224 41.14062,-20.56419c5.0695,-2.53395 10.20739,-6.06468 15.60361,-7.76397c4.15108,-1.30719 8.66859,-1.31055 12.74412,-2.83708c8.32256,-3.1173 16.20749,-6.25337 25.18296,-6.93619l3.95573,0.47815c0.69042,-0.01288 1.32063,0.16792 1.80043,0.36733c0.4999,0.18946 1.1021,0.50246 1.60436,1.01038c11.60285,8.90534 18.46125,22.1359 29.8788,31.63769l2.13778,1.40483c11.40057,-1.83595 22.42303,-6.88892 32.27623,-12.90509c11.86357,-7.24367 24.53746,-16.67736 38.91634,-15.2226l3.46964,0.43426c0,0 0.77731,0.09729 1.61393,0.54516c0.51817,-0.14869 1.13112,-0.20159 1.85568,-0.1109c4.11451,0.51497 3.59954,4.62949 3.59954,4.62949c-0.1522,1.21599 -1.85478,14.90823 -1.95682,15.31162c-2.02708,8.01393 -6.00843,15.42785 -9.03594,23.15002c12.83707,1.4545 25.82889,2.56233 38.10839,6.64608l3.62819,2.26938c1.18233,0.4462 1.80073,1.27565 2.11984,2.09146c0.41154,0.78049 0.63509,1.79977 0.18678,2.99728c-1.2781,7.15942 -5.66204,13.14173 -8.83632,19.7532c-3.96325,8.25468 -7.85109,16.95404 -11.45204,25.33409c-5.8542,13.62377 -5.77005,31.24236 -14.95944,43.22595c-4.7401,8.51893 -6.45057,17.93079 -8.28514,27.35609c-1.11172,5.71158 -3.10819,10.74002 -3.8619,16.53893l-2.68335,6.39954c0,0 -1.15044,2.69983 -3.78692,2.58909c-6.8206,14.58534 -16.51223,27.57131 -30.20004,37.1096c-5.01569,4.40587 -10.75481,7.58554 -16.89482,9.8113c5.31852,7.56117 5.04101,15.35701 3.78653,25.37998zM98.80068,302.1462c-0.89914,1.43682 -2.33356,2.57598 -2.90994,4.16995c-0.63203,1.74786 -0.22741,3.72281 -0.60234,5.54323c-0.80205,3.89424 -3.19542,8.45121 -1.92238,12.62072c0.89002,2.91501 3.33277,4.12529 5.18863,6.24416c2.32516,2.65466 3.75591,6.11161 6.43962,8.40318c5.89979,5.03773 14.9105,9.88632 22.32219,11.83158c14.31046,3.63667 27.75119,6.96035 42.39447,8.79312c3.82824,0.47915 7.62738,1.73136 11.47798,1.49055c8.64911,-0.54091 17.60255,-1.25511 26.20883,-2.75392c10.56199,-1.8394 25.02505,-7.3221 30.3282,-17.43606c2.77258,-5.63608 2.91705,-11.26586 3.69506,-17.48202c1.10886,-8.85943 2.06605,-15.27553 -4.18133,-21.87339c-9.00423,1.97458 -18.50474,2.32653 -27.61955,1.80044c-32.8777,-1.89767 -66.16126,-8.93607 -96.4571,-22.09955c-4.52497,7.19799 -9.81553,13.48206 -14.36238,20.74801zM314.0473,166.24342c4.36013,-13.11792 10.48667,-26.44308 16.48645,-39.02382c2.37248,-4.97477 6.41798,-10.20914 7.77585,-15.57434l-0.04468,-0.03325c-13.31156,-4.45312 -27.62204,-5.13803 -41.48887,-6.87361c-1.42895,-0.17885 -2.29951,-0.79186 -2.8272,-1.51589c-0.57164,-0.68985 -0.95119,-1.68464 -0.77234,-3.1136c0.0242,-0.19331 0.05634,-0.37642 0.09563,-0.54985l0.19383,-1.1145c3.01405,-9.03738 7.9941,-17.46107 10.34363,-26.65726c0.83716,-3.27674 1.06174,-6.66828 1.33345,-10.05143l-2.93875,-0.36782c-2.69678,-0.43758 -5.49638,0.42142 -8.10078,1.24677c-9.44189,2.99223 -16.92185,7.63919 -25.47307,12.83057c-10.95458,6.65041 -23.09798,12.10716 -35.75861,14.08595c0,0 -0.87548,0.13571 -1.87984,-0.123c-1.5163,0.108 -2.79082,-0.74197 -2.79082,-0.74197l-3.60636,-2.43336c-5.33341,-4.44995 -6.52349,-5.16949 -11.52015,-10.6444c-6.44358,-7.0603 -10.21045,-14.75184 -17.78714,-20.56001l-2.83698,-0.36977c-7.8601,0.5366 -15.04433,3.81969 -22.3106,6.50136c-4.04498,1.49283 -8.50824,1.52811 -12.62892,2.79714c-5.06849,1.56092 -9.90038,4.98317 -14.66945,7.36656c-13.80152,6.89745 -27.36427,14.17774 -41.3603,20.66997c0,0 -0.45967,0.2131 -1.13214,0.32962c-1.33721,0.87751 -2.97021,0.67312 -2.97021,0.67312l-3.71273,-0.62548c-5.10773,-2.18403 -7.83352,-3.04245 -12.48056,-6.36738c-1.34383,-0.96149 -2.49975,-1.90389 -3.60823,-2.81585l0.13611,0.68818c5.33509,15.16872 3.28905,30.34028 0.37968,45.54058c0.22963,-0.3382 0.45991,-0.67601 0.69096,-1.01334c-0.96761,6.11896 -1.57236,12.29136 -2.23484,18.45601c-0.8942,1.49784 -1.7399,3.02573 -2.53783,4.58029c-0.1518,1.03918 -0.29296,2.07856 -0.42146,3.11815c0,0 -0.33267,2.65797 -2.59959,3.43388c-7.33526,17.80713 -9.02417,38.26669 -5.99607,56.87239c0.97986,6.0206 1.50652,14.30243 4.17153,19.87056c8.39494,17.53983 23.36584,26.75845 39.75336,35.61659c31.39622,15.04459 66.50822,22.78653 101.19394,24.86799c7.9224,0.47542 16.32648,0.26427 24.31197,-1.34979c1.54063,-1.84877 3.45684,-1.50641 4.54046,-1.08808c6.88967,-1.92609 13.31716,-5.05638 18.66011,-9.88605c26.37555,-18.26905 36.56376,-50.42294 40.42494,-80.95266c1.71627,-1.62469 3.52441,-4.72436 5.15803,-8.19324c1.83241,-1.54656 3.33445,-3.4906 4.36295,-5.72078c-0.03166,0.80103 -0.07026,1.60281 -0.11542,2.40527c3.67888,-7.4008 3.99669,-16.38488 6.59108,-24.19043z" fill="#000000" stroke-width="0.5"/><path d="M98.72167,302.12095c4.54685,-7.26596 9.85133,-13.57619 14.3763,-20.77418c30.29585,13.16348 63.71923,20.21737 96.59693,22.11504c9.11481,0.52609 18.61963,0.18499 27.62386,-1.78959c6.24738,6.59786 5.29407,13.03861 4.18521,21.89803c-0.77802,6.21616 -0.92481,11.86588 -3.69739,17.50196c-5.30316,10.11395 -19.7838,15.63107 -30.3458,17.47048c-8.60629,1.49881 -17.59332,2.23664 -26.24243,2.77756c-3.8506,0.24081 -7.673,-1.00624 -11.50124,-1.48539c-14.64328,-1.83276 -28.15877,-5.19254 -42.46922,-8.82921c-7.41169,-1.94527 -16.43435,-6.82077 -22.33415,-11.8585c-2.68371,-2.29157 -4.11643,-5.76007 -6.44159,-8.41473c-1.85586,-2.11887 -4.29902,-3.33672 -5.18904,-6.25173c-1.27304,-4.16951 1.12148,-8.74085 1.92352,-12.63509c0.37493,-1.82042 -0.02839,-3.80155 0.60364,-5.54941c0.57638,-1.59397 2.0123,-2.73842 2.91144,-4.17524z" data-paper-data="{&quot;noHover&quot;:false,&quot;origItem&quot;:[&quot;Path&quot;,{&quot;applyMatrix&quot;:true,&quot;segments&quot;:[[[198.90219,248.3042],[0,0],[-0.43031,0.92688]],[[197.47359,251.01669],[0.22546,-0.99672],[-0.24723,1.09295]],[[197.5283,254.37794],[0.08799,-1.11711],[-0.18823,2.38972]],[[197.32325,262.07202],[-1.07377,-2.39902],[0.7507,1.67722]],[[200.8948,265.41899],[-1.26889,-1.12862],[1.58976,1.41401]],[[205.37639,269.96389],[-1.77707,-1.16995],[3.90666,2.57199]],[[219.61618,275.37056],[-4.57958,-0.60877],[8.8333,1.10408]],[[245.63639,277.4566],[-8.89734,0],[2.32606,0]],[[252.61451,277.48888],[-2.28553,0.43238],[5.13369,-0.9712]],[[268.08733,273.87899],[-5.03635,1.54104],[6.18082,-1.89123]],[[284.92516,261.17731],[-2.41524,6.44759],[1.23665,-3.57929]],[[285.8267,250.4423],[0,3.77697],[0,-5.38304]],[[281.68751,237.66997],[4.23141,3.47929],[-5.23879,1.85546]],[[265.29936,240.81508],[5.49218,-0.36775],[-19.81065,1.32648]],[[205.94072,234.81664],[19.10963,5.60643],[-2.16804,4.64489]],[[198.90217,248.3042],[2.17604,-4.68719],[0,0]]],&quot;closed&quot;:true,&quot;fillColor&quot;:[0,0,0],&quot;strokeWidth&quot;:0.5}]}" fill="#667eff" stroke-width="0.25"/><path d="M314.13016,166.23971c-2.59439,7.80554 -2.91336,16.80757 -6.59224,24.20837c0.04516,-0.80246 0.08405,-1.60602 0.1157,-2.40704c-1.0285,2.23018 -2.53143,4.17901 -4.36383,5.72558c-1.63363,3.46888 -3.44358,6.57557 -5.15985,8.20025c-3.86118,30.52973 -14.08976,62.73256 -40.46531,81.00161c-5.34295,4.82967 -11.78305,7.96538 -18.67272,9.89147c-1.08362,-0.41832 -3.00272,-0.75977 -4.54335,1.08899c-7.98549,1.61406 -16.40515,1.82821 -24.32755,1.35279c-34.68572,-2.08146 -69.86117,-9.84445 -101.25739,-24.88904c-16.38752,-8.85814 -31.37727,-18.10177 -39.7722,-35.6416c-2.66501,-5.56813 -3.19605,-13.86077 -4.17591,-19.88137c-3.0281,-18.60569 -1.34282,-39.09963 5.99245,-56.90675c2.26691,-0.7759 2.59987,-3.43628 2.59987,-3.43628c0.1285,-1.03959 0.26998,-2.08102 0.42177,-3.1202c0.79793,-1.55456 1.64421,-3.0857 2.53841,-4.58354c0.66249,-6.16466 1.27048,-12.34873 2.2381,-18.46769c-0.23104,0.33732 -0.46158,0.67588 -0.69121,1.01408c2.90936,-15.2003 4.96658,-30.39323 -0.36852,-45.56195l-0.13595,-0.68839c1.10847,0.91196 2.26435,1.85442 3.60818,2.81591c4.64705,3.32493 7.37366,4.18224 12.48139,6.36627l3.71342,0.62458c0,0 1.63396,0.20317 2.97116,-0.67434c0.67247,-0.11652 1.13253,-0.33013 1.13253,-0.33013c13.99603,-6.49223 27.58269,-13.79246 41.38421,-20.68991c4.76907,-2.38339 9.61172,-5.81064 14.68021,-7.37156c4.12068,-1.26902 8.59284,-1.30714 12.63782,-2.79997c7.26627,-2.68167 14.46688,-5.96724 22.32698,-6.50384l2.83899,0.36969c7.57668,5.80817 11.35833,13.50064 17.80191,20.56094c4.99666,5.47491 6.19857,6.19717 11.53198,10.64712l3.61008,2.43461c0,0 1.27704,0.85092 2.79335,0.74292c1.00436,0.25871 1.88137,0.12363 1.88137,0.12363c12.66064,-1.97879 24.82083,-7.42604 35.77541,-14.07645c8.55122,-5.19137 16.03697,-9.83368 25.47886,-12.82591c2.6044,-0.82536 5.40613,-1.68241 8.10291,-1.24484l2.93969,0.36872c-0.27171,3.38315 -0.49385,6.77715 -1.33101,10.05389c-2.34953,9.1962 -7.32407,17.62636 -10.33812,26.66374l-0.19351,1.11491c-0.03929,0.17342 -0.07128,0.35676 -0.09548,0.55008c-0.17885,1.42896 0.20192,2.42542 0.77357,3.11527c0.52769,0.72403 1.39939,1.33868 2.82835,1.51753c13.86683,1.73558 28.18491,2.43442 41.49647,6.88754l0.04469,0.03328c-1.35787,5.36521 -5.40098,10.60585 -7.77346,15.58062c-5.99977,12.58074 -12.12212,25.92851 -16.48226,39.04643z" data-paper-data="{&quot;noHover&quot;:false,&quot;origItem&quot;:[&quot;Path&quot;,{&quot;applyMatrix&quot;:true,&quot;segments&quot;:[[[317.49428,150.88584],[0,0],[1.62617,-8.17405]],[[324.43511,126.30603],[-2.64728,7.97546],[1.04681,-3.15372]],[[327.92075,116.40671],[-0.4106,3.31132],[0,0]],[[327.89153,116.39016],[0,0],[-8.29686,-1.6673]],[[302.55681,115.38463],[8.42556,0],[-0.86824,0]],[[300.75198,114.68946],[0.36989,0.39363],[-0.39363,-0.36989]],[[300.05681,112.88463],[0,0.86824],[0,-0.11746]],[[300.07285,112.54853],[-0.01052,0.10669],[0,0]],[[300.10536,111.86729],[0,0],[1.12643,-5.63215]],[[304.2973,95.14552],[-0.717,5.6774],[0.25547,-2.02294]],[[304.34241,89.03257],[0.09077,2.04426],[0,0]],[[302.55681,89.03257],[0,0],[-1.64607,-0.05985]],[[297.804,90.38498],[1.49624,-0.68876],[-5.42442,2.49702]],[[283.52583,99.96797],[4.72693,-3.74593],[-6.05545,4.79873]],[[263.1885,111.07211],[7.42586,-2.13175],[0,0]],[[262.05471,111.13928],[0.62021,0.07957],[-0.89902,0.17814]],[260.32959,110.90437],[[257.98994,109.71868],[0,0],[-3.52382,-2.26277]],[[250.30119,104.21341],[3.39911,2.90115],[-4.38341,-3.74125]],[[238.12088,93.24553],[4.96752,2.90734],[0,0]],[[236.39601,93.23674],[0,0],[-4.662,0.90954]],[[223.53584,98.79659],[4.14614,-2.14833],[-2.30807,1.19593]],[[216.19023,101.41553],[2.37011,-1.06771],[-2.91527,1.3133]],[[207.96604,106.92084],[2.67456,-1.78291],[-7.74009,5.15968]],[[184.77057,122.38319],[7.88679,-4.93183],[0,0]],[[184.11797,122.66515],[0.39357,-0.12006],[-0.73426,0.62508]],[182.39149,123.29023],[[180.12357,123.19404],[0,0],[-3.21915,-0.92412]],[[172.18051,120.31934],[3.02898,1.64114],[-0.87592,-0.47458]],[[169.81111,118.90497],[0.73141,0.46257],[0,0]],[[169.94406,119.30647],[0,0],[4.3274,8.67498]],[[173.58107,146.52197],[0.60235,-9.31118],[0.11205,-0.21952]],[[173.91855,145.86402],[-0.11296,0.2191],[-0.1207,3.73302]],[[173.96349,157.07237],[-0.06526,-3.73751],[-0.42279,0.96301]],[[172.78823,160.00248],[0.36095,-0.98974],[-0.013,0.63304]],[[172.76957,161.89942],[-0.00097,-0.63154],[0,0]],[[171.47152,164.14833],[1.29805,-0.63391],[-3.05489,11.20206]],[[172.14281,198.62029],[-3.20462,-10.90383],[1.03698,3.52836]],[[176.12618,210.19519],[-2.01122,-3.1315],[6.33544,9.86435]],[[202.5748,228.5257],[-10.46683,-4.07222],[19.90876,6.64938]],[[264.97447,235.82564],[-20.90603,1.35191],[4.77505,-0.30878]],[[279.41765,233.19778],[-4.65634,1.5635],[0.78323,-1.22135]],[[282.05244,232.20688],[-0.67958,-0.16912],[3.97742,-1.66812]],[[292.47533,224.89553],[-2.83471,3.28933],[14.41085,-12.90405]],[[310.59754,173.44005],[-0.02396,18.55303],[0.90508,-1.10045]],[[313.06978,168.15236],[-0.71756,2.19752],[0.98041,-1.06241]],[[315.2515,164.40332],[-0.4483,1.41118],[0.04104,0.48157]],[[315.36255,165.85088],[-0.03307,-0.48344],[1.64669,-4.70287]],[[317.49429,150.88583],[-0.96761,4.8638],[0,0]]],&quot;closed&quot;:true,&quot;fillColor&quot;:[0,0,0],&quot;strokeWidth&quot;:0.5}]}" fill="#66ecff" stroke-width="0.25"/></g><path d="M136.37791,158.94634c1.57913,1.43881 1.24435,3.78227 1.24435,3.78227l-0.48523,3.31265c-1.11753,3.75171 -1.50015,9.39602 -4.34037,12.37689c-0.01066,0.01118 -0.02132,0.02236 -0.032,0.03352l0.00895,0.00537l-2.53135,4.21892c-0.7341,1.27319 -2.10918,2.13019 -3.68442,2.13019c-2.34721,0 -4.25,-1.90279 -4.25,-4.25v-2.57143l0.16938,0l-0.1549,-0.35054c0.20183,-1.21101 0.36122,-2.40718 0.50113,-3.59509c-1.29383,-2.15678 -0.25993,-3.91768 0.52019,-4.81332c0.27763,-2.52571 0.60936,-5.05449 1.22196,-7.6512c0.44106,-1.86958 0.42731,-4.11184 1.77211,-5.48348c0.52572,-0.53621 1.12637,-0.97158 1.77174,-1.34679c0.5739,-1.66811 2.15688,-2.86672 4.01981,-2.86672c2.34721,0 4.25,1.90279 4.25,4.25l0,2.57143c-0.0003,0.08151 -0.00075,0.16397 -0.00135,0.24734z" fill="#ffffff" stroke-width="0.5"/><path d="M238.02986,222.45936c0.16431,-0.72887 0.31186,-1.56131 0.46483,-2.65608c0.0547,-0.39144 0.70242,-8.54663 0.93386,-8.96718c0.08845,-0.16073 0.17922,-0.31995 0.27212,-0.47776l-0.10956,-0.04214l2.10724,-5.47883c0.58804,-1.64212 2.15799,-2.81694 4.00233,-2.81694c2.16456,0 3.95118,1.61818 4.21612,3.71082l0.41973,2.93814l-0.28331,0.04047l0.32602,0.56057c-0.26854,2.01824 -0.15545,4.07765 -0.46041,6.09071c-0.22577,1.49029 -0.60083,2.88218 -1.08044,4.21986l0.25514,1.26086c-0.0353,3.42613 -0.43377,9.80777 -3.51635,12.10045c-0.24677,0.18353 -0.50322,0.34912 -0.76769,0.49986l0.11756,0.14695l-2.11642,1.69314c-0.73141,0.59547 -1.66471,0.95246 -2.68139,0.95246c-2.34721,0 -4.25,-1.90279 -4.25,-4.25c0,-0.20147 0.01402,-0.39966 0.04113,-0.59365l0.42026,-3.36206l0.16042,0.02005l-0.08796,-0.43304c0.27649,-0.83771 0.51186,-1.51895 0.71685,-2.12063c-0.04016,-1.33379 0.56984,-2.43179 0.56984,-2.43179c0.11366,-0.20396 0.22362,-0.40529 0.33005,-0.60423z" fill="#ffffff" stroke-width="0.5"/></g></g></g></svg>