<svg version="1.1" xmlns="http://www.w3.org/2000/svg" xmlns:xlink="http://www.w3.org/1999/xlink" width="90.53989" height="115.93404" viewBox="0,0,90.53989,115.93404"><g transform="translate(-194.66191,-82.21625)"><g data-paper-data="{&quot;isPaintingLayer&quot;:true}" fill-rule="nonzero" stroke="none" stroke-linecap="butt" stroke-linejoin="miter" stroke-miterlimit="10" stroke-dasharray="" stroke-dashoffset="0" style="mix-blend-mode: normal"><path d="M197.7912,198.15029v-115.93403h87.41058v115.93403z" fill="#000000" stroke-width="0"/><path d="M259.23095,158.06106c-2.31543,11.26325 -14.20953,15.85854 -22.86919,14.39986c-4.9758,-0.83816 -8.92968,-4.08756 -13.56635,-5.63765c-7.43885,-4.99966 -17.33174,-10.15317 -17.48119,-21.65926v-2.72147c0,0 0,-1.28987 0.73237,-2.1283c-0.10336,-5.12348 -0.36532,-10.69474 0.89594,-15.47448c5.14963,-19.51521 26.77972,-19.20027 40.32359,-14.60191c4.81591,1.69206 8.05109,5.31721 12.13037,8.54508c4.8479,3.83606 9.46101,8.30361 13.92108,12.86676c2.5405,2.59921 5.85365,7.5767 3.62734,12.12871c-2.01411,4.11812 -5.03767,3.26355 -8.20412,3.30951c-2.97237,0.04314 -5.84182,-0.40468 -8.67816,-1.02886c0.00892,4.01794 -0.02648,8.08521 -0.83168,12.00202z" fill="#ffffff" stroke-width="0.5"/><path d="M197.79122,198.1503v-115.93403h87.41058v115.93403z" fill="#000000" stroke-width="0"/><path d="M221.97406,154.33141c-6.99277,1.12263 -15.22803,1.14082 -20.52597,-2.51083c-8.1131,-5.59202 -8.29332,-17.29494 -3.99791,-25.44954c1.93221,-3.66819 5.44761,-6.55359 8.4357,-9.27387c4.76033,-3.64253 9.53336,-8.38245 15.15801,-10.70373c5.62436,-2.32116 13.25507,-0.75475 18.98254,0.36093c16.07458,3.13123 32.93882,13.94592 39.97434,29.14607c2.71169,8.84507 1.84319,21.00449 -3.23798,29.07362c-2.9613,4.70267 -7.83532,6.60395 -12.6325,8.71455c-2.88966,1.27136 -5.91752,3.14279 -9.06748,3.67956c-9.48858,1.61691 -19.75974,0.10913 -27.26813,-5.90901c-2.17383,-2.44822 -4.36758,-5.10962 -5.41523,-8.29511c-0.95613,-2.9072 -0.64478,-5.8658 -0.40539,-8.83265z" fill="#ffffff" stroke-width="0.5"/></g></g></svg>