<svg version="1.1" xmlns="http://www.w3.org/2000/svg" xmlns:xlink="http://www.w3.org/1999/xlink" width="304" height="185.7831" viewBox="0,0,304,185.7831"><g transform="translate(-99.25,-79.71627)"><g data-paper-data="{&quot;isPaintingLayer&quot;:true}" fill-rule="nonzero" stroke-linecap="butt" stroke-linejoin="miter" stroke-miterlimit="10" stroke-dasharray="" stroke-dashoffset="0" style="mix-blend-mode: normal"><text transform="translate(100,239.06367) scale(0.5,0.5)" font-size="40" xml:space="preserve" fill="#ffffff" fill-rule="nonzero" stroke="none" stroke-width="1" stroke-linecap="butt" stroke-linejoin="miter" stroke-miterlimit="10" stroke-dasharray="" stroke-dashoffset="0" font-family="Pixel" font-weight="normal" text-anchor="start" style="mix-blend-mode: normal"><tspan x="0" dy="0">Plijah: hes slow, hes blow, hes</tspan></text><text transform="translate(117.00467,261.93672) scale(0.3393,0.3393)" font-size="40" xml:space="preserve" fill="#ffffff" fill-rule="nonzero" stroke="none" stroke-width="1" stroke-linecap="butt" stroke-linejoin="miter" stroke-miterlimit="10" stroke-dasharray="" stroke-dashoffset="0" font-family="Pixel" font-weight="normal" text-anchor="start" style="mix-blend-mode: normal"><tspan x="0" dy="0">i forgot</tspan></text><path d="M103.43266,198.1503v-115.93403h87.41057v115.93403z" fill="none" stroke="#ffffff" stroke-width="5"/><path d="M137.27841,145.71213c1.56853,0.25848 3.16529,0.49191 3.53485,1.81444c0.54885,1.96416 -1.55524,4.54236 -3.54582,4.98594c-2.26702,0.50518 -5.36371,-0.68911 -6.39314,-2.77115c-0.76222,-1.5416 1.94666,-2.83557 2.91999,-4.25336c0,0 1.86643,-1.59979 3.48411,0.22413z" fill="#ffffff" stroke="none" stroke-width="0.5"/><path d="M169.03452,153.41108l0.90329,1.4659c-1.38934,0.31365 -2.95194,1.68242 -4.16803,0.94095c-0.41128,-0.25077 -0.75193,-0.57235 -1.0454,-0.94123l-0.18541,0.15892l-1.79768,-2.09729c-0.38059,-0.43866 -0.61093,-1.01121 -0.61093,-1.63756c0,-1.38071 1.11929,-2.5 2.5,-2.5h3.01125c0,0 2.5,0 2.5,2.5c0,1.15455 -0.53319,1.7759 -1.1071,2.1103z" fill="#ffffff" stroke="none" stroke-width="0.5"/></g></g></svg>