<svg version="1.1" xmlns="http://www.w3.org/2000/svg" xmlns:xlink="http://www.w3.org/1999/xlink" width="1106.11536" height="461.01502" viewBox="0,0,1106.11536,461.01502"><g transform="translate(399.448,41.87063)"><g data-paper-data="{&quot;isPaintingLayer&quot;:true}" fill-rule="nonzero" stroke-linejoin="miter" stroke-miterlimit="10" stroke-dasharray="" stroke-dashoffset="0" style="mix-blend-mode: normal"><path d="M-90.22253,419.14439v-461.01502h694.19863v461.01502z" data-paper-data="{&quot;index&quot;:null}" fill="#1a261e" stroke="none" stroke-width="0" stroke-linecap="butt"/><path d="M8.8328,413.89156l-25.53784,-69.88682l553.02011,10.48804l170.35229,30.5173z" data-paper-data="{&quot;index&quot;:null}" fill="#0e1410" stroke="none" stroke-width="0" stroke-linecap="butt"/><path d="M641.50237,173.69655c-1.38071,0 -2.5,-1.11929 -2.5,-2.5c0,-1.38071 1.11929,-2.5 2.5,-2.5c1.38071,0 2.5,1.11929 2.5,2.5c0,1.38071 -1.11929,2.5 -2.5,2.5z" data-paper-data="{&quot;index&quot;:null}" fill="#252525" stroke="none" stroke-width="0.5" stroke-linecap="butt"/><path d="M-330.13427,57.50003c0,-6.90356 5.59644,-12.5 12.5,-12.5c6.90356,0 12.5,5.59644 12.5,12.5c0,6.90356 -5.59644,12.5 -12.5,12.5c-6.90356,0 -12.5,-5.59644 -12.5,-12.5z" fill="#262429" stroke="none" stroke-width="0.5" stroke-linecap="butt"/><path d="M151.86504,353.5744v-314h230.8552v314z" fill="#000000" stroke="none" stroke-width="0" stroke-linecap="butt"/><g><path d="M360.1837,353.60318v-324h221v324z" fill="#151f19" stroke="none" stroke-width="0" stroke-linecap="butt"/><path d="M396.83099,344.43907v-295.30769" fill="none" stroke="#0e1410" stroke-width="5" stroke-linecap="round"/><path d="M434.90791,345.41029v-295.30769" fill="none" stroke="#0e1410" stroke-width="5" stroke-linecap="round"/><path d="M472.98484,50.1026v295.30769" fill="none" stroke="#0e1410" stroke-width="5" stroke-linecap="round"/><path d="M511.06176,50.1026v295.30769" fill="none" stroke="#0e1410" stroke-width="5" stroke-linecap="round"/><path d="M549.13868,345.41029v-295.30769" fill="none" stroke="#0e1410" stroke-width="5" stroke-linecap="round"/></g><g><path d="M-54.59841,354.5744v-324h221v324z" fill="#151f19" stroke="none" stroke-width="0" stroke-linecap="butt"/><path d="M-27.18189,345.41029v-295.30769" fill="none" stroke="#0e1410" stroke-width="5" stroke-linecap="round"/><path d="M10.89503,50.1026v295.30769" fill="none" stroke="#0e1410" stroke-width="5" stroke-linecap="round"/><path d="M48.97196,50.1026v295.30769" fill="none" stroke="#0e1410" stroke-width="5" stroke-linecap="round"/><path d="M87.04887,50.1026v295.30769" fill="none" stroke="#0e1410" stroke-width="5" stroke-linecap="round"/><path d="M125.12579,50.1026v295.30769" fill="none" stroke="#0e1410" stroke-width="5" stroke-linecap="round"/></g><path d="M-399.448,128.483c0,-1.38071 1.11929,-2.5 2.5,-2.5c1.38071,0 2.5,1.11929 2.5,2.5c0,1.38071 -1.11929,2.5 -2.5,2.5c-1.38071,0 -2.5,-1.11929 -2.5,-2.5z" fill="#ffeaaa" stroke="none" stroke-width="0.5" stroke-linecap="butt"/><path d="M239.56501,105.36185l-0.29096,-0.32339c-3.82082,-3.28873 -8.53362,-2.57572 -13.33345,-3.4397c-3.76221,-0.67721 -7.73197,-1.02463 -11.45169,-1.80985c-2.15556,-0.45503 -4.19529,-1.40963 -6.37001,-1.76189c-2.75375,-0.44606 -5.56577,-0.14552 -8.36508,-0.01701c-1.72801,5.26797 -3.62984,9.77067 -3.58717,15.50019v2.4c0,0 0,3.75 -3.75,3.75c-3.75,0 -3.75,-3.75 -3.75,-3.75v-2.4c0.04185,-6.98946 2.30093,-12.4714 4.35492,-19.06673c2.46007,-7.89924 2.91583,-16.17265 6.14828,-23.81047c0,0 1.4772,-3.44679 4.92399,-1.9696c3.44679,1.4772 1.9696,4.92399 1.9696,4.92399c-2.3256,5.34607 -3.12272,11.14086 -4.31221,16.84637c2.46742,-0.1149 4.93404,-0.2152 7.36316,0.15961c6.93322,1.06978 13.82478,3.49589 20.87177,4.18507c3.23644,0.31652 7.17822,0.0364 10.2144,1.53268c1.41414,0.69691 2.50579,1.91388 3.75869,2.87081l0.13903,0.13407c0.21603,-3.65906 0.36836,-7.32428 0.36836,-11.00581c0,0 0,-3.75 3.75,-3.75c3.75,0 3.75,3.75 3.75,3.75c0,12.66099 -1.8,25.11854 -1.8,37.8l-0.79244,2.98585c0,0 -1.18585,3.55756 -4.74342,2.37171c-3.55756,-1.18585 -2.37171,-4.74342 -2.37171,-4.74342l0.40756,-0.61415c0,-6.66178 0.49666,-13.26291 0.9682,-19.86319c-2.18245,1.00224 -4.06986,-0.88516 -4.06986,-0.88516z" fill="#ff0000" stroke="none" stroke-width="0.5" stroke-linecap="butt"/><path d="M292.01666,178.4602c-3.75,0 -3.75,-3.75 -3.75,-3.75l0.13607,-1.999c-2.36061,-3.76931 -2.47716,-7.51768 -3.09838,-11.87067c-1.06226,-7.44348 -1.64207,-14.36669 -4.04525,-21.54448c0,0 -1.18585,-3.55756 2.37171,-4.74342c3.55756,-1.18585 4.74342,2.37171 4.74342,2.37171c1.8102,5.45282 2.30239,6.16732 3.15361,12.04762c1.04083,7.19016 0.40864,15.3441 4.10276,21.73724l0.13607,4.001c0,0 0,3.75 -3.75,3.75z" fill="#ff0000" stroke="none" stroke-width="0.5" stroke-linecap="butt"/><path d="M208.78552,205.33427c0.19159,8.75302 1.80785,17.04005 3.50595,25.6288c0.79612,4.02664 1.80166,8.01614 2.41441,12.07473c0.13925,0.92232 -0.23164,1.90421 0.03484,2.7981c0.38833,1.30263 2.71682,0.14541 4.07594,0.1243c1.73067,-0.02688 3.4643,0.09965 5.19262,0.00574c4.30119,-0.23372 10.81334,-0.61967 14.70953,-2.59936c1.20383,-0.61168 1.97509,-1.84951 3.05425,-2.66117c0.99582,-0.74897 2.30751,-1.09254 3.15326,-2.00759c1.31094,-1.41837 4.82449,-8.8395 5.33624,-9.86467c2.84421,-5.6814 6.96799,-12.77724 4.77421,-19.49849c-0.19178,-0.58756 -0.94778,-0.79468 -1.44402,-1.16313c-2.79463,-2.07498 -3.84266,-3.09225 -7.12642,-4.09212c-8.2519,-2.5126 -17.36117,-3.5833 -25.87622,-2.26331c-3.1765,0.49242 -5.67878,0.58552 -8.4964,2.04821l1.07705,-0.47705c0,0 -1.46175,2.92349 -4.38524,1.94701zM206.49065,199.99766l2.24896,-2.84155c11.72513,-5.71048 28.01038,-4.04749 40.02738,-0.21511c4.12087,1.3142 11.22896,4.78784 13.02956,9.14475c3.70859,8.97365 -0.92985,18.30043 -4.82579,26.10151c-1.5089,3.01317 -4.31121,9.15351 -6.66376,11.73533c-1.10383,1.21141 -2.73462,1.81042 -4.04674,2.79241c-1.42058,1.06316 -2.55507,2.55266 -4.14575,3.33883c-4.86785,2.40587 -12.33855,3.09746 -17.69047,3.40064c-4.93494,0.27956 -12.52223,1.37776 -15.93144,-3.46996c-1.09715,-1.5601 -0.76404,-3.73729 -1.16516,-5.6019c-0.38281,-1.77949 -0.82953,-3.54528 -1.18658,-5.33011c-2.36509,-11.82278 -4.85946,-23.41038 -4.8742,-35.54229c0,0 0,-3.75 3.75,-3.75c0.57499,0 1.06181,0.08816 1.47399,0.23745z" fill="#ff0000" stroke="none" stroke-width="0.5" stroke-linecap="butt"/><path d="M305.46831,292.56185c-2.65165,2.65165 -5.3033,0 -5.3033,0l-1.54835,-1.60165c-2.11309,-2.8879 -4.91063,-4.26447 -7.42501,-6.77197c-1.04718,-1.04432 -1.71467,-2.441 -2.81436,-3.42987c-0.89059,-0.80084 -2.17089,-1.07461 -3.07216,-1.86342c-0.14061,-0.12306 -0.27674,-0.2529 -0.40998,-0.38708c-1.24748,3.33375 -3.08159,6.50656 -3.55179,10.01965c-0.14074,1.05155 0.11612,2.12584 0.02329,3.1827c-0.03936,0.44816 -0.72148,0.95415 -0.41562,1.28407c0.93745,1.01122 2.56469,1.15272 3.55968,2.10738c1.07384,1.03031 1.49602,2.59931 2.49526,3.70212c1.8169,2.00522 4.11246,3.52865 6.00334,5.46427c3.73257,1.81405 7.38731,5.27101 11.60802,5.94058c1.97514,0.31334 3.99948,-0.04842 5.99932,-0.04842h1.2c0,0 3.75,0 3.75,3.75c0,3.75 -3.75,3.75 -3.75,3.75h-1.2c-0.93531,0 -6.8522,0.01153 -7.20068,-0.04842c-5.49318,-0.94497 -9.97104,-4.7922 -14.79198,-7.25942c-2.31313,-2.26942 -5.01311,-4.14137 -7.19666,-6.53573c-0.94087,-1.03171 -1.33421,-2.49401 -2.30474,-3.49788c-1.43911,-1.48854 -3.7614,-2.1255 -4.84032,-3.89262c-0.82233,-1.34688 -0.3448,-3.13945 -0.41562,-4.71593c-0.17806,-3.96364 0.07055,-6.22693 1.4391,-10.28906c0.78423,-2.32775 2.28341,-4.38559 2.96931,-6.74418c1.96928,-6.77168 1.30482,-19.47227 9.30652,-23.03131c2.90248,-1.29098 6.74382,0.13665 9.37977,1.16394c8.24509,3.21331 15.65245,6.42601 22.5979,11.97235c0,0 2.92826,2.34261 0.58565,5.27086c-2.34261,2.92826 -5.27086,0.58565 -5.27086,0.58565c-4.76777,-3.82172 -8.78915,-5.82955 -14.48134,-8.15143c-2.06182,-0.84103 -4.06003,-1.83252 -6.12076,-2.67622c-1.23862,-0.50711 -2.59632,-1.7777 -3.82023,-1.23606c-1.63212,0.72229 -1.53363,3.23463 -2.08151,4.93326c-0.69141,2.14366 -1.09892,4.36272 -1.48939,6.58694c3.64306,2.36108 6.44525,5.61284 9.56084,8.73722c2.7456,2.75335 5.76441,4.47085 8.17499,7.62803l0.85165,0.79835c0,0 2.65165,2.65165 0,5.3033z" fill="#ff0000" stroke="none" stroke-width="0.5" stroke-linecap="butt"/></g></g></svg>