<svg version="1.1" xmlns="http://www.w3.org/2000/svg" xmlns:xlink="http://www.w3.org/1999/xlink" width="62.88185" height="71.67286" viewBox="0,0,62.88185,71.67286"><g transform="translate(20.74283,-170.06985)"><g data-paper-data="{&quot;isPaintingLayer&quot;:true}" fill-rule="nonzero" stroke="none" stroke-linecap="butt" stroke-linejoin="miter" stroke-miterlimit="10" stroke-dasharray="" stroke-dashoffset="0" style="mix-blend-mode: normal"><path d="M16.41994,203.22839c1.25245,-0.31311 2.10007,0.04849 2.65918,0.5614c2.3222,-4.06631 4.84022,-7.95537 5.79231,-12.5914c0.35181,-1.71309 0.23798,-4.44688 0.63327,-6.77119c-2.50881,-1.142 -5.0851,-2.10742 -7.72353,-3.08465c-5.96881,-2.21077 -12.02945,-4.33934 -18.42121,-5.00644c-0.92707,-0.09676 -7.79398,-0.96199 -9.19517,1.02314c-0.31208,0.44213 -0.02891,1.08587 0.03609,1.62313c0.13787,1.13957 0.05544,2.37044 0.57115,3.39596c1.72747,3.43514 5.09378,5.83356 6.97729,9.18568c0.8544,1.52058 2.23864,3.20769 1.82802,4.90285c-0.45146,1.86374 -2.37626,3.12354 -4.01393,4.12124c-1.53611,0.93583 -3.43466,1.08276 -5.18791,1.48469c-1.5701,0.35994 -3.1775,0.53151 -4.76625,0.79727c-0.65474,-0.45381 1.12094,1.21268 1.86704,1.4919c1.49862,0.56082 3.13755,0.63973 4.72154,0.86636c0.83067,0.11885 1.66063,0.24004 2.49006,0.36301c0.65182,-0.31898 1.27151,-0.62022 1.84251,-0.90572c0,0 2.67929,-1.33965 4.01893,1.33965c0.08426,0.16853 0.15262,0.33174 0.20675,0.48967c3.04515,0.47104 6.08998,0.94662 9.14452,1.39765c1.5748,0.23253 3.3532,1.06903 4.84002,0.71848l-0.50026,-1.77005c0,0 -0.72653,-2.9061 2.17957,-3.63262zM22.86612,211.77031c0.91753,2.66083 0.35925,3.38445 0.54943,6.04577c0.30554,4.27556 0.80297,8.42159 -0.05297,12.70532c-0.4946,2.47533 -1.70269,6.75998 -3.71048,8.51388c-1.21324,1.05983 -2.79841,1.59677 -4.19761,2.39515c-5.34779,0.13251 -12.91371,1.37304 -17.4494,-2.23278c-3.24657,-2.58099 -3.56668,-8.06376 -6.84147,-10.56072c-1.58103,-1.2055 -3.83226,-1.30444 -5.40682,-2.51836c-1.02793,-0.79248 -1.75861,-1.91489 -2.54045,-2.95094c-0.66552,-0.88193 -1.58946,-1.7027 -1.79107,-2.78901c-0.78671,-4.23882 1.68125,-7.49471 5.0552,-10.0524c-3.46324,-0.99522 -6.35739,-2.95621 -7.1833,-7.25613c-0.37327,-1.94335 1.96293,-3.43667 2.94439,-5.15501c2.23919,-0.55452 4.47969,-1.10376 6.71757,-1.66355c1.27969,-0.32011 2.54199,-0.71541 3.83509,-0.97613c0.29667,-0.05982 0.97182,0.31564 0.90771,0.01988c-0.08125,-0.3748 -0.76692,-0.245 -1.01914,-0.5339c-1.26053,-1.44388 -2.3165,-3.05438 -3.45781,-4.59423c-3.47723,-4.69145 -4.89406,-5.12578 -5.01287,-11.01857c-0.03368,-1.67057 -0.11727,-3.58112 0.85636,-4.93905c3.42679,-4.77938 9.87358,-4.35815 14.91338,-3.83216c6.89052,0.71915 13.44435,2.96002 19.88145,5.34752c3.31798,1.23064 6.54088,2.46493 9.66803,3.98931c0.39886,-0.2216 0.90851,-0.36319 1.55975,-0.36319c2.99554,0 2.99554,2.99554 2.99554,2.99554l-0.0009,0.00125c0.64229,0.65384 1.40892,1.89957 0.39429,3.59062c-0.90429,1.50714 -2.16229,1.59939 -3.04761,1.41825c-0.08101,0.50446 -0.17626,1.00809 -0.23986,1.51347c-0.41134,3.26881 -0.50884,5.26757 -1.83422,8.53993c-0.68665,1.69535 -1.73675,3.2197 -2.60977,4.82703c-1.4121,2.59982 -2.73309,5.56289 -4.62645,7.98361c0.39919,0.8089 0.70793,1.44493 0.74401,1.54957z" fill="#000000" stroke-width="0.5"/><path d="M16.44496,203.2532c-2.9061,0.72652 -2.18636,3.63796 -2.18636,3.63796l0.49947,1.77052c-1.48682,0.35054 -3.27303,-0.48268 -4.84783,-0.71521c-3.05454,-0.45103 -6.1202,-0.92709 -9.16535,-1.39813c-0.05412,-0.15792 -0.12329,-0.32142 -0.20755,-0.48995c-1.33964,-2.67929 -4.02768,-1.3443 -4.02768,-1.3443c-0.571,0.2855 -1.19225,0.58553 -1.84407,0.90451c-0.82943,-0.12296 -1.66242,-0.24695 -2.49309,-0.3658c-1.58399,-0.22663 -3.22692,-0.31051 -4.72554,-0.87133c-0.7461,-0.27921 -2.46126,-1.98165 -1.80652,-1.52784c1.58875,-0.26576 3.19465,-0.43991 4.76475,-0.79985c1.75325,-0.40192 3.6493,-0.55229 5.18541,-1.48812c1.63766,-0.9977 3.50629,-2.21503 3.95775,-4.07878c0.41062,-1.69516 -0.97965,-3.40603 -1.83405,-4.92661c-1.88351,-3.35212 -5.24391,-5.76663 -6.97138,-9.20176c-0.51572,-1.02552 -0.43064,-2.2598 -0.56851,-3.39937c-0.06501,-0.53726 -0.34683,-1.18243 -0.03476,-1.62457c1.40119,-1.98513 8.2807,-1.12815 9.20776,-1.03139c6.39175,0.6671 12.49117,2.80504 18.45999,5.01581c2.63843,0.97724 5.22125,1.95319 7.73006,3.09519c-0.39529,2.32431 -0.27903,5.06897 -0.63084,6.78206c-0.95209,4.63603 -3.47828,8.5499 -5.80048,12.61621c-0.55911,-0.51291 -1.4087,-0.87235 -2.66115,-0.55923z" data-paper-data="{&quot;noHover&quot;:false,&quot;origItem&quot;:[&quot;Path&quot;,{&quot;applyMatrix&quot;:true,&quot;segments&quot;:[[[21.81762,203.6077],[0,0],[1.77695,-0.44424]],[[25.5904,204.4042],[-0.79325,-0.7277],[3.29468,-5.76919]],[[33.8084,186.5398],[-1.35081,6.5775],[0.49914,-2.43049]],[[34.70687,176.93298],[-0.56083,3.29768],[-3.55944,-1.62024]],[[23.7489,172.55654],[3.74334,1.38648],[-8.46842,-3.13659]],[[-2.3867,165.45352],[9.06848,0.94646],[-1.3153,-0.13728]],[[-15.4326,166.90513],[1.98798,-2.81646],[-0.44277,0.62729]],[[-15.38139,169.20799],[-0.09223,-0.76225],[0.19561,1.6168]],[[-14.57105,174.0261],[-0.73169,-1.45498],[2.4509,4.8737]],[[-4.67183,187.05854],[-2.67228,-4.75592],[1.2122,2.15737]],[[-2.07828,194.0146],[0.58258,-2.40506],[-0.64052,2.64424]],[[-7.77315,199.86172],[2.32348,-1.41551],[-2.1794,1.32773]],[[-15.13364,201.96816],[2.48747,-0.57024],[-2.22762,0.51067]],[[-21.89589,203.09931],[2.25408,-0.37705],[-0.92893,-0.64385]],[[-19.24697,205.21598],[-1.05855,-0.39614],[2.12621,0.79568]],[[-12.54816,206.44515],[-2.24733,-0.32154],[1.17854,0.16862]],[[-9.01532,206.96018],[-1.17678,-0.17446],[0.92479,-0.45256]],[[-6.40121,205.67517],[-0.81012,0.40506],[0,0]],[[-0.69924,207.57583],[-1.90065,-3.80132],[0.11955,0.2391]],[[-0.40591,208.27056],[-0.07679,-0.22406],[4.32039,0.6683]],[[12.56813,210.25352],[-4.33371,-0.63991],[2.23429,0.32991]],[[19.43504,211.27289],[-2.10947,0.49734],[0,0]],[18.72528,208.76158],[[21.81761,203.6077],[-4.12311,1.03077],[0,0]]],&quot;closed&quot;:true,&quot;fillColor&quot;:[0,0,0],&quot;strokeWidth&quot;:0.5}]}" fill="#302617" stroke-width="0.25"/><path d="M21.27374,178.53531c-0.25205,0.08588 -0.49821,0.19752 -0.73696,0.33851zM21.60455,178.43788c-0.16392,0.4204 -1.18174,2.6899 -3.76481,1.82888c-1.51318,-0.50439 -1.95206,-1.54593 -2.03169,-2.40958c-0.79678,-0.07748 -1.59296,-0.14677 -2.37348,-0.00621c-0.63016,0.11348 -1.0142,0.80337 -1.59859,1.06505c-0.61791,0.27669 -1.33664,0.26711 -1.961,0.52889c-0.60281,0.25275 -0.36453,1.26604 -0.40674,1.91833c-0.10128,1.5652 0.62836,3.07887 1.0962,4.57595c0.34898,1.11673 0.29257,2.347 0.72432,3.43441c0.32742,0.82464 1.09132,1.4098 1.50973,2.19222c1.71462,3.20632 3.61348,6.62369 3.22757,10.35235c-0.76206,7.3631 -8.99011,8.41149 -14.26183,11.49906c-0.42915,0.3885 -1.03741,0.6434 -1.28745,1.16548c-0.40131,0.8379 -0.31366,1.83581 -0.57676,2.72683c-0.76443,2.58897 -0.56017,3.51015 -0.67497,6.46082c-0.0139,0.35724 -0.271,0.71653 -0.16886,1.05914c0.22182,0.74405 1.59064,1.04067 2.02927,1.31434c3.03729,1.89507 7.19189,3.10295 10.81013,3.6945c1.96086,0.32059 3.94852,0.46164 5.90809,0.78996c0.38268,0.06412 0.82366,0.39649 1.14919,0.18534c1.09233,-0.70854 1.82735,-1.8567 2.7859,-2.73783c2.22072,-2.04136 5.10917,-4.01363 6.92223,-6.46711c0.56564,-0.76545 1.75837,-4.11374 1.97752,-4.68705c0.3016,-2.83285 1.14714,-5.58293 1.59709,-8.39604c0.47389,-2.96278 0.51919,-6.00911 1.29368,-8.90787c0.58249,-2.18015 2.00888,-4.46889 2.39755,-6.67731c0.65076,-3.69759 -0.23359,-8.61149 -3.15073,-11.24033c-0.81137,-0.73119 -3.8627,-1.69891 -4.32525,-1.8615c-2.02576,-0.71207 -4.63109,-1.9549 -6.84629,-1.40072zM19.42245,172.91513c3.76843,-1.15365 7.15614,-0.09535 11.02781,1.27587c2.19394,0.77703 4.52547,1.49762 6.33829,3.06014c4.44234,3.82895 6.08565,11.07009 5.05199,16.64894c-0.65869,3.55506 -2.76746,6.59292 -3.28109,10.25341c-0.24769,1.76522 -0.12843,3.57167 -0.41013,5.33177c-0.47353,2.95862 -1.34065,5.85314 -1.684,8.82969c-0.69519,1.88061 -1.70442,5.07387 -2.94411,6.79677c-2.00181,2.78206 -5.24645,5.29106 -7.84268,7.47753c-1.52454,1.28392 -2.79906,2.96316 -4.59655,3.82435c-2.15107,1.03061 -7.97056,-0.29274 -10.16845,-0.66525c-2.52328,-0.42765 -4.93222,-1.37241 -7.37189,-2.14562c-2.4409,-0.7736 -5.59941,-1.49157 -7.5548,-3.4015c-3.96999,-3.87772 -3.32638,-9.87205 -1.78728,-14.73498c0.40033,-1.26488 0.40447,-2.68406 1.06379,-3.83535c0.67364,-1.17631 1.87594,-1.95725 2.81391,-2.93589c1.77012,-1.0791 3.26615,-2.08694 5.20864,-2.86724c2.01112,-0.80786 5.42098,-1.3917 6.70798,-3.56759c0.82214,-1.38998 -0.35717,-3.1697 -0.88821,-4.2804c-1.01866,-2.13057 -2.44548,-4.06401 -3.32724,-6.25478c-0.50443,-1.25328 -0.51326,-2.65856 -0.91623,-3.94805c-0.34278,-1.09689 -1.09093,-2.06013 -1.31365,-3.18755c-0.65492,-3.31525 -0.03116,-7.80405 2.82339,-10.00472c0.83486,-0.64362 2.00256,-0.67194 2.96063,-1.11165c0.86816,-0.39844 1.56478,-1.21517 2.50278,-1.39577c1.73881,-0.33478 3.54074,-0.07246 5.31111,-0.10869c0,0 1.3897,0 2.27599,0.94655z" fill="#ffffff" stroke-width="0.5"/><path d="M28.46514,179.80639c0.46255,0.16259 3.51923,1.13326 4.3306,1.86445c2.91714,2.62884 3.81179,7.55342 3.16103,11.251c-0.38867,2.20842 -1.81121,4.50577 -2.39369,6.68592c-0.77448,2.89876 -0.81971,5.96477 -1.2936,8.92756c-0.44994,2.8131 -1.304,5.57795 -1.60561,8.4108c-0.21915,0.5733 -1.41822,3.9268 -1.98387,4.69225c-1.81305,2.45348 -4.71445,4.4308 -6.93517,6.47215c-0.95855,0.88113 -1.69783,2.02977 -2.79016,2.73831c-0.32553,0.21115 -0.76803,-0.12117 -1.15072,-0.18529c-1.95957,-0.32832 -3.9552,-0.47021 -5.91606,-0.7908c-3.61825,-0.59156 -7.78643,-1.80572 -10.82372,-3.70079c-0.43863,-0.27368 -1.80981,-0.57225 -2.03164,-1.3163c-0.10214,-0.3426 0.1544,-0.70243 0.1683,-1.05966c0.1148,-2.95067 -0.09368,-3.87663 0.67075,-6.46559c0.26309,-0.89102 0.17362,-1.89166 0.57494,-2.72956c0.25005,-0.52208 0.91908,-0.81267 1.34824,-1.20117c5.27172,-3.08757 13.4501,-4.14801 14.21216,-11.51111c0.38591,-3.72867 -1.48146,-7.08341 -3.19609,-10.28974c-0.4184,-0.78241 -1.20834,-1.43306 -1.53577,-2.2577c-0.43175,-1.08741 -0.37424,-2.31812 -0.72321,-3.43485c-0.46783,-1.49708 -1.19665,-3.01105 -1.09537,-4.57625c0.04221,-0.65229 -0.19477,-1.66602 0.40805,-1.91876c0.62437,-0.26178 1.34576,-0.25291 1.96365,-0.5296c0.58438,-0.26168 0.97074,-0.95201 1.60091,-1.06549c0.78052,-0.14056 1.57979,-0.07161 2.37657,0.00586c0.07962,0.86365 0.52124,1.90511 2.03442,2.4095c2.58308,0.86102 3.60592,-1.40806 3.76985,-1.82846c2.2152,-0.55418 4.82942,0.69126 6.85518,1.40333z" data-paper-data="{&quot;noHover&quot;:false,&quot;origItem&quot;:[&quot;Path&quot;,{&quot;applyMatrix&quot;:true,&quot;segments&quot;:[[[29.17343,168.43547],[3.14288,-0.78626],[-0.23257,0.59646]],[[23.832,171.03024],[3.66481,1.2216],[-2.14686,-0.71562]],[[20.94948,167.61158],[0.11297,1.22533],[-1.13046,-0.10992]],[[17.58205,167.60277],[1.10738,-0.19943],[-0.89406,0.16101]],[[15.31401,169.11384],[0.82911,-0.37127],[-0.87667,0.39256]],[[12.53178,169.86422],[0.88584,-0.37141],[-0.85526,0.35859]],[[11.95471,172.58591],[0.05988,-0.92546],[-0.14369,2.22067]],[[13.50997,179.07815],[-0.66375,-2.12402],[0.49512,1.58439]],[[14.53762,183.95081],[-0.61256,-1.54279],[0.46454,1.16998]],[[16.67959,187.06108],[-0.59362,-1.11007],[2.43267,4.54906]],[[21.25879,201.74877],[0.54752,-5.29015],[-1.0812,10.4466]],[[1.02441,218.06338],[7.4794,-4.38057],[-0.60887,0.55119]],[[-0.8022,219.71694],[0.35477,-0.74072],[-0.56937,1.1888]],[[-1.62049,223.58571],[0.37327,-1.26416],[-1.08456,3.67317]],[[-2.57812,232.75217],[0.16288,-4.18634],[-0.01972,0.50684]],[[-2.8177,234.25486],[-0.14491,-0.48608],[0.31472,1.05564]],[[0.06138,236.11962],[-0.62232,-0.38829],[4.30924,2.68868]],[[15.39856,241.36129],[-5.13349,-0.83929],[2.78202,0.45484]],[[23.78083,242.48207],[-2.7802,-0.46581],[0.54294,0.09097]],[[25.41127,242.74503],[-0.46185,0.29958],[1.54978,-1.00526]],[[29.36385,238.86066],[-1.35997,1.25013],[3.15071,-2.89623]],[[39.18496,229.68526],[-2.57232,3.48095],[0.80252,-1.086]],[[41.99062,223.03539],[-0.31093,0.81339],[0.42791,-4.01919]],[[44.25654,211.12327],[-0.63837,3.99117],[0.67234,-4.20353]],[[46.09198,198.48498],[-1.09882,4.1127],[0.82642,-3.09315]],[[49.49357,189.01136],[-0.55144,3.13326],[0.92328,-5.24606]],[[45.02338,173.06383],[4.13878,3.72974],[-1.15116,-1.03739]],[[38.8868,170.42278],[0.65626,0.23068],[-2.8741,-1.01027]]],&quot;closed&quot;:true}]}" fill="#000000" stroke-width="0.5"/></g></g></svg>