<svg version="1.1" xmlns="http://www.w3.org/2000/svg" xmlns:xlink="http://www.w3.org/1999/xlink" width="974.13667" height="492.74723" viewBox="0,0,974.13667,492.74723"><g transform="translate(330.13427,44.50148)"><g data-paper-data="{&quot;isPaintingLayer&quot;:true}" fill-rule="nonzero" stroke="none" stroke-linecap="butt" stroke-linejoin="miter" stroke-miterlimit="10" stroke-dasharray="" stroke-dashoffset="0" style="mix-blend-mode: normal"><path d="" data-paper-data="{&quot;index&quot;:null}" fill="#1a2026" stroke-width="0"/><path d="M-141.66952,297.39216z" data-paper-data="{&quot;index&quot;:null}" fill="#0e1414" stroke-width="0"/><path d="" data-paper-data="{&quot;index&quot;:null}" fill="#252525" stroke-width="0.5"/><path d="M-330.13427,57.50005c0,-6.90356 5.59644,-12.5 12.5,-12.5c6.90356,0 12.5,5.59644 12.5,12.5c0,6.90356 -5.59644,12.5 -12.5,12.5c-6.90356,0 -12.5,-5.59644 -12.5,-12.5z" fill="#262429" stroke-width="0.5"/><path d="" fill="#1b1b1b" stroke-width="0.5"/><path d="" fill="#ffffff" stroke-width="0.5"/><g stroke-width="0.5"><path d="" fill="#584529"/><path d="" fill="#302617"/><path d="" fill="#000000"/></g><path d="" fill="#ffffff" stroke-width="0.5"/><path d="" fill="#ffffff" stroke-width="0.5"/><path d="" fill="#000000" stroke-width="0.5"/><path d="M-109.99415,416.51354v-461.01502h694.19863v461.01502z" data-paper-data="{&quot;index&quot;:null}" fill="#1a2026" stroke-width="0"/><path d="M-40.13173,390.27901l-25.53784,-69.88682l366.26335,-248.41887l165.15109,0.65244c0,0 215.46745,372.89527 156.68547,375.32809c-122.59065,5.07369 -662.56207,-57.67484 -662.56207,-57.67484z" data-paper-data="{&quot;index&quot;:null}" fill="#0e1414" stroke-width="0"/><path d="M641.5024,173.69657c-1.38071,0 -2.5,-1.11929 -2.5,-2.5c0,-1.38071 1.11929,-2.5 2.5,-2.5c1.38071,0 2.5,1.11929 2.5,2.5c0,1.38071 -1.11929,2.5 -2.5,2.5z" data-paper-data="{&quot;index&quot;:null}" fill="#252525" stroke-width="0.5"/><path d="M308.57012,12.29666c-0.07971,-0.34722 -0.16931,-0.68725 -0.26862,-1.02022c1.24021,0.1458 2.49445,0.34058 3.78788,0.60058c0,0 3.68214,0.73411 4.41757,-2.94307c0.23743,-1.18718 0.01511,-2.06777 -0.3951,-2.71595c0.76246,-0.36239 1.42736,-0.6331 1.88548,-0.74003c1.81585,-0.42384 3.72429,-0.27757 5.5838,-0.41605c7.80044,-0.01754 14.14148,2.53067 21.3503,5.07551c5.16578,1.82361 10.55326,3.58417 15.42968,6.15466c1.67517,0.88303 3.07688,2.23173 4.72827,3.15846c4.54507,2.55059 9.26429,4.38032 12.90702,8.36449c5.05401,5.52773 7.64188,14.6742 8.44318,21.92728c-0.0078,4.75527 0.48247,9.75269 -0.46508,14.43676c-1.02375,5.06076 -2.82486,10.79973 -5.41492,15.30692c-0.78204,1.3609 -1.97933,2.46433 -2.72233,3.84694c-0.89723,1.66962 -1.07343,3.74648 -2.26357,5.22169c-3.69943,4.58553 -8.34409,7.32507 -12.77102,11.15479c-3.11465,2.69447 -6.47612,6.92069 -10.48283,8.30327c-1.12955,0.38977 -2.39225,0.1512 -3.57045,0.35035c-3.53121,0.59687 -7.07358,1.24523 -10.64276,1.53943c-8.71218,-0.00419 -17.85925,0.77581 -26.53288,0.01094c-8.84039,-0.77958 -17.827,-3.34028 -26.34861,-5.71172c-5.43009,-1.51112 -13.09187,-4.04931 -18.06674,-8.49435c1.34999,-1.48856 2.79608,-2.89954 4.00133,-4.50654c0.99839,-0.99395 1.99635,-1.9886 2.99474,-2.98254l0.23469,-0.23478c5.06192,-3.18291 11.38001,-6.3491 15.92981,-10.12867c11.66865,-9.6933 10.34821,-25.28691 10.34821,-38.93061l0.00063,-0.86263c3.24696,-7.84091 9.98489,-16.69371 7.90234,-25.76492z" data-paper-data="{&quot;noHover&quot;:false,&quot;origItem&quot;:[&quot;Path&quot;,{&quot;applyMatrix&quot;:true,&quot;segments&quot;:[[[617.17767,24.68599],[0,0],[4.1651,18.14242]],[[601.41567,76.18299],[6.49392,-15.68182],[0,0]],[[601.41567,77.90653],[0,0],[0,27.2874]],[[580.72543,155.66119],[23.3373,-19.3866],[-9.0996,7.55914]],[[548.86487,175.91687],[10.12384,-6.36582],[0,0]],[[548.39543,176.38631],[0,0],[-1.99678,1.98788]],[[542.40509,182.34997],[1.99678,-1.9879],[-2.4105,3.214]],[[534.40111,191.36089],[2.69998,-2.97712],[9.94974,8.8901]],[[570.51693,208.32881],[-10.86018,-3.02224],[17.04322,4.74288]],[[623.17555,219.73081],[-17.68078,-1.55916],[17.34726,1.52974]],[[676.19219,219.70715],[-17.42436,-0.00838],[7.13838,-0.5884]],[[697.45913,216.63423],[-7.06242,1.19374],[2.3564,-0.3983]],[[704.59453,215.93611],[-2.2591,0.77954],[8.01342,-2.76518]],[[725.54035,199.34279],[-6.2293,5.38894],[8.85386,-7.65944]],[[751.06291,177.05567],[-7.39886,9.17106],[2.38028,-2.95042]],[[755.58519,166.62087],[-1.79446,3.33924],[1.486,-2.76522]],[[761.02651,158.93431],[-1.56408,2.7218],[5.18012,-9.01438]],[[771.84959,128.34717],[-2.0475,10.12152],[1.8951,-9.36814]],[[772.78001,99.49779],[-0.0156,9.51054],[-1.6026,-14.50616]],[[755.90641,55.68047],[10.10802,11.05546],[-7.28546,-7.96834]],[[730.10801,38.97177],[9.09014,5.10118],[-3.30278,-1.85346]],[[720.65927,32.66189],[3.35034,1.76606],[-9.75284,-5.14098]],[[689.82731,20.36833],[10.33156,3.64722],[-14.41764,-5.08968]],[[647.16847,10.22365],[15.60088,-0.03508],[-3.71902,0.27696]],[[636.01139,11.05453],[3.6317,-0.84768],[-0.91624,0.21386]],[[632.24413,12.53389],[1.52492,-0.72478],[0.82042,1.29636]],[[633.03467,17.96573],[0.47486,-2.37436],[-1.47086,7.35436]],[[624.20945,23.84921],[0,0],[-2.58686,-0.52]],[[616.64013,22.64573],[2.48042,0.2916],[0.1986,0.66594]],[[617.17761,24.68607],[-0.15942,-0.69444],[0,0]]],&quot;closed&quot;:true,&quot;fillColor&quot;:[0,0,0,1]}]}" fill="#584529" stroke-width="0.5"/><path d="M241.85883,29.9676c2.84739,0 3.5394,-2.16935 3.70436,-3.21015c2.0004,-0.86722 4.23817,-1.13017 6.34352,-1.71372c0,0 3.61375,-1.03342 2.58355,-4.63913c-1.03021,-3.60571 -4.60112,-2.48197 -4.60112,-2.48197c-0.90817,0.26604 -1.88144,0.39063 -2.8089,0.60691c1.05705,-3.17748 2.35217,-6.18311 3.60318,-9.52664c1.12322,-3.002 2.37138,-6.03886 4.27151,-8.62016c1.75558,-2.38493 4.18445,-5.32996 7.28668,-5.98254c2.27689,-0.47896 4.65994,0.07431 6.98667,0.07138c1.38391,0.15133 5.36375,0.37617 6.96463,1.17768c2.03897,1.02084 3.12642,3.398 5.04867,4.62456c1.07939,0.68874 2.46012,0.7535 3.62086,1.29399c1.73772,0.80914 3.45902,1.57402 5.13085,2.39157c-0.14648,0.03788 -0.3439,0.16066 -0.47863,0.20347c-5.92243,1.88178 -5.53391,2.80037 -9.68095,5.91454c-1.80081,1.3523 -3.83032,2.40345 -5.51679,3.89591c-6.98908,6.18505 -11.73144,14.05028 -15.66713,22.35324c-0.91091,1.92171 -2.13098,3.67594 -2.79237,5.69715c-1.89745,5.79857 -0.98097,6.48286 -1.2612,12.05635c-0.24425,4.8578 -0.54925,9.59488 -0.54925,14.4728c0,7.79832 -0.9486,16.12887 1.80987,23.52887c0.40905,1.09734 0.89628,2.2381 1.47163,3.22661c-1.50591,0.26198 -3.28942,-0.22576 -4.8504,-0.23235c-0.48695,-0.00205 -6.78955,0.15648 -8.13214,-0.25837c-2.87943,-0.88973 -6.88671,-6.61378 -8.04853,-9.1727c-1.0716,-2.36021 -0.74301,-5.57576 -0.73846,-8.00552c0.01152,-6.14164 1.53143,-11.96447 1.57658,-18.008c0.00001,-0.00176 0.00002,-0.00354 0.00003,-0.00531c0,0 -0.0002,-0.09028 -0.01413,-0.24234l-0.05969,-1.02423c-0.23629,-1.08795 -0.30576,-2.23234 -0.71138,-3.26914c-0.63913,-1.63365 -2.27372,-2.91612 -2.46508,-4.65987c-0.84165,-7.6695 1.16828,-15.60144 6.85813,-20.59021c0.32886,0.08208 0.69939,0.12736 1.11544,0.12736z" data-paper-data="{&quot;noHover&quot;:false,&quot;origItem&quot;:[&quot;Path&quot;,{&quot;applyMatrix&quot;:true,&quot;segments&quot;:[[[483.79803,59.99477],[0,0],[-0.83212,0]],[[481.56841,59.73829],[0.65772,0.16416],[-11.37968,9.97754]],[[467.86859,100.84117],[-1.6833,-15.339],[0.38272,3.4875]],[[472.79345,110.14323],[-1.27826,-3.2673],[0.81124,2.0736]],[[474.21121,116.67095],[-0.47258,-2.1759],[0,0]],[[474.32899,118.71661],[0,0],[0.02786,0.30412]],[[474.35685,119.20065],[0,0],[-0.00002,0.00354]],[[474.35677,119.21125],[0.00002,-0.00352],[-0.0903,12.08706]],[[471.18037,155.20065],[0.02304,-12.28328],[-0.0091,4.85952]],[[472.64783,171.20497],[-2.1432,-4.72042],[2.32364,5.11784]],[[488.72489,189.54075],[-5.75886,-1.77946],[2.68518,0.8297]],[[504.97447,190.05357],[-0.9739,-0.0041],[3.12196,0.01318]],[[514.66585,190.51697],[-3.01182,0.52396],[-1.1507,-1.97702]],[[511.70107,184.26255],[0.8181,2.19468],[-5.51694,-14.8]],[[508.06269,137.20061],[0,15.59664],[0,-9.75584]],[[509.13083,108.23879],[-0.4885,9.7156],[0.56046,-11.14696]],[[511.62405,84.00539],[-3.7949,11.59714],[1.32278,-4.04242]],[[517.26415,72.55951],[-1.82182,3.84342],[7.87138,-16.60592]],[[548.67131,27.85385],[-13.97816,12.3701],[3.37294,-2.98492]],[[559.71339,20.06595],[-3.60162,2.7046],[8.29408,-6.22834]],[[579.08559,8.24301],[-11.84486,3.76356],[0.26946,-0.08562]],[[579.92983,8.00109],[-0.29296,0.07576],[-3.34366,-1.6351]],[[569.67789,3.22389],[3.47544,1.61828],[-2.32148,-1.08096]],[[562.44323,0.63933],[2.15878,1.37748],[-3.8445,-2.45312]],[[552.35781,-8.60549],[4.07794,2.04168],[-3.20176,-1.60302]],[[538.44205,-10.95791],[2.76782,0.30266],[-4.65344,0.00586]],[[524.48245,-11.09961],[4.55378,-0.95792],[-6.20446,1.30516]],[[509.92521,0.86429],[3.51116,-4.76986],[-3.80026,5.1626]],[[501.39663,18.10127],[2.24644,-6.004],[-2.50202,6.68706]],[[494.20949,37.14623],[2.1141,-6.35496],[1.85492,-0.43256]],[[499.73757,35.75391],[-1.81634,0.53208],[0,0]],[[509.00941,40.90493],[-2.06042,-7.21142],[2.0604,7.21142]],[[503.85839,50.17677],[0,0],[-4.2107,1.1671]],[[491.19339,53.58911],[4.0008,-1.73444],[-0.32992,2.08158]],[[483.79797,59.99475],[5.69478,0],[0,0]]],&quot;closed&quot;:true,&quot;fillColor&quot;:[0,0,0,1]}]}" fill="#302617" stroke-width="0.5"/><path d="M294.6862,23.68804c2.01101,-2.68417 4.28453,-5.0999 6.73989,-7.32855c-0.23705,6.63694 -5.25453,13.37505 -7.7078,19.07329c-0.21448,0.42322 -0.33182,0.84855 -0.39707,1.18809c-0.05986,0.31021 -0.10346,0.70409 -0.07878,1.13006l0.00174,1.16802c0,11.01527 1.91659,25.38646 -7.68185,33.20612c-4.485,3.65384 -10.62777,6.65934 -15.51693,9.77041c0,0 -0.13324,0.08449 -0.32727,0.24623c-0.19999,0.15431 -0.31169,0.26563 -0.31169,0.26563l-0.52982,0.52925c-1.11926,1.1237 -2.24079,2.24648 -3.36005,3.37018c-0.8246,1.09947 -1.76618,2.10373 -2.7087,3.10685c-2.22809,-6.52054 -1.31311,-13.92303 -1.31311,-20.77923c0,-4.75648 0.27706,-9.39283 0.51259,-14.13039c0.21009,-4.22611 -0.52866,-6.03702 0.8721,-10.1445c3.95511,-11.5977 11.92588,-21.2199 21.5369,-28.4181c3.12759,-2.34242 3.13191,-3.38226 7.26345,-4.67529c0.91184,-0.28538 2.90749,-0.37442 4.81565,-0.3955c-2.93296,2.54225 -5.32779,5.06011 -7.84321,8.41075l-0.72677,3.74097c0,0 0.00844,3.75286 3.75844,3.75286c3.75,0 3.70678,-3.65987 3.70678,-3.65987l-0.74945,0.66203z" data-paper-data="{&quot;noHover&quot;:false,&quot;origItem&quot;:[&quot;Path&quot;,{&quot;applyMatrix&quot;:true,&quot;segments&quot;:[[589.32745,47.46537],[590.82745,46.14185],[[583.32745,53.64185],[7.5,0],[-7.5,0]],[575.82745,46.14185],[[577.32745,38.46537],[0,0],[5.03084,-6.70126]],[[592.95495,21.83453],[-5.86592,5.0845],[-3.81632,0.04216]],[[583.33395,22.62887],[1.82368,-0.57076],[-8.26308,2.58606]],[[568.82381,31.98239],[6.25518,-4.68484],[-19.22202,14.3964]],[[525.85433,88.74883],[7.91022,-23.1954],[-2.80152,8.21496]],[[524.11225,108.98601],[0.42018,-8.45222],[-0.47104,9.47512]],[[523.06273,137.20065],[0,-9.51296],[0,13.7124]],[[525.65847,178.73683],[-4.45618,-13.04108],[1.88504,-2.00624]],[[531.07329,172.52195],[-1.6492,2.19894],[2.23852,-2.2474]],[[537.78883,165.77973],[-2.23852,2.2474],[0,0]],[538.84765,164.72091],[[539.47047,164.18945],[-0.39998,0.30862],[0.38806,-0.3235]],[[540.12439,163.69675],[0,0],[9.77832,-6.22214]],[[571.10591,144.15189],[-8.97,7.30768],[19.19688,-15.63932]],[[586.41567,77.90657],[0,22.03054],[0,0]],[[586.41567,75.57405],[0,0],[-0.04936,-0.85194]],[[586.57619,73.31665],[-0.11972,0.62042],[0.1305,-0.67908]],[[587.37227,70.94213],[-0.42896,0.84644],[4.90654,-11.39648]],[[602.80111,32.80495],[-0.4741,13.27388],[-4.91072,4.4573]],[[589.32743,47.46539],[4.02202,-5.36834],[0,0]]],&quot;closed&quot;:true,&quot;fillColor&quot;:[0,0,0,1]}]}" fill="#302617" stroke-width="0.5"/><g stroke-width="0.5"><path d="M310.51957,119.71837c0.67291,0.46497 0.93151,1.42887 1.65373,1.8128c0.69013,0.36688 1.551,0.19519 2.3252,0.30242c3.99829,0.55378 7.79532,1.33784 11.82841,1.33079c4.01828,-0.00702 8.19308,0.34633 12.1957,0.00943c3.25207,-0.27372 6.43855,-1.13182 9.69231,-1.38462c2.59271,-0.20144 4.26667,0.40566 6.6642,-0.49877c1.56203,-0.58925 2.90723,-1.70996 4.50929,-2.17958c1.0151,-0.29756 2.1219,0.05009 3.17262,-0.07222c1.59679,-0.18588 4.00229,-1.31551 5.29624,-1.83681c2.83132,-1.12401 5.39893,-2.82967 8.16977,-4.09546c3.21366,-1.46809 6.42463,-1.79896 9.54589,-3.39224l1.13236,-0.14643c-2.6639,-4.32379 -5.99538,-8.25572 -8.81572,-12.53565c-3.18007,2.9629 -6.77863,5.32946 -10.15587,8.26194c-3.84769,3.34097 -7.88378,7.90014 -12.82121,9.70334c-1.55113,0.56649 -3.27847,0.41285 -4.90289,0.70976c-3.84207,0.70225 -7.70984,1.31258 -11.60182,1.64002c-9.03762,0.00416 -18.49125,0.77969 -27.49168,-0.01183c-0.70785,-0.06225 -1.41658,-0.13492 -2.12591,-0.21718c-0.31221,0.37583 -0.61024,0.7464 -0.897,1.11344c0.77949,0.32506 1.59403,0.77349 2.62638,1.48683zM241.89903,29.99739c-0.41606,0 -0.78595,-0.04616 -1.11481,-0.12824c-5.68984,4.98877 -7.69156,12.88194 -6.84991,20.55144c0.19136,1.74375 1.8233,3.01738 2.46243,4.65103c0.40562,1.0368 0.47259,2.17591 0.70888,3.26386l0.05889,1.02283c0.01393,0.15206 0.01393,0.24202 0.01393,0.24202c-0.00001,0.00177 -0.00003,0.00354 -0.00004,0.0053c-0.04515,6.04353 -1.57668,11.85306 -1.5882,17.9947c-0.00455,2.42976 -0.33787,5.64195 0.73373,8.00216c1.16182,2.55892 5.1591,8.27816 8.03853,9.16789c1.34259,0.41485 7.63784,0.25436 8.12479,0.25641c1.56098,0.00659 3.33978,0.49368 4.84569,0.2317c-0.57535,-0.98851 -1.07334,-2.02987 -1.48239,-3.12721c-2.75847,-7.4 -1.81919,-15.73265 -1.81919,-23.53097c0,-4.87792 0.28982,-9.62311 0.53407,-14.48091c0.28023,-5.57348 -0.65084,-6.31813 1.24661,-12.1167c0.66139,-2.02121 1.90914,-3.80123 2.82005,-5.72294c3.93569,-8.30296 8.7145,-16.16778 15.70358,-22.35283c1.68647,-1.49246 3.72023,-2.54165 5.52104,-3.89395c4.14704,-3.11417 3.76367,-4.02969 9.6861,-5.91147c0.13473,-0.04281 0.27564,-0.08308 0.42212,-0.12096c-1.67183,-0.81755 -3.38825,-1.57946 -5.12597,-2.3886c-1.16074,-0.54048 -2.53794,-0.60354 -3.61733,-1.29228c-1.92225,-1.22656 -3.00374,-3.60157 -5.04271,-4.62241c-1.60088,-0.80151 -5.57397,-1.02488 -6.95788,-1.17621c-2.32672,0.00293 -4.70291,-0.54981 -6.9798,-0.07085c-3.10223,0.65258 -5.52304,3.59702 -7.27862,5.98195c-1.90013,2.5813 -3.14107,5.61649 -4.26429,8.61849c-1.25101,3.34353 -2.53652,6.345 -3.59357,9.52248c0.92746,-0.21628 1.85587,-0.43012 2.76404,-0.69616c0,0 3.60571,-1.0302 4.63592,2.57551c1.0302,3.60571 -2.57551,4.63592 -2.57551,4.63592c-2.10535,0.58355 -4.3321,0.83895 -6.3325,1.70617c-0.16496,1.04079 -0.85032,3.20282 -3.69771,3.20282zM240.52176,13.24087c0.89696,-2.35189 2.28064,-4.49935 3.16617,-6.85557c2.99902,-7.97975 7.91121,-17.07024 17.04533,-19.28192c2.88426,-0.69838 5.93494,-0.07427 8.90255,-0.07085c3.3159,0.37313 6.90011,0.45982 9.9833,2.00026c2.20802,1.10318 3.46086,3.58542 5.54552,4.907c0.80444,0.50998 1.86928,0.42955 2.73562,0.82537c5.12856,2.34315 11.05604,4.79606 15.32692,8.70532c0.81726,0.02139 1.62413,0.05435 2.42591,0.10127c3.25231,-2.34867 6.76211,-4.40885 10.49217,-5.31009c2.31872,-0.56024 4.75156,-0.42893 7.12734,-0.64339c8.82072,0.01518 16.01994,2.62944 24.19998,5.51589c5.4882,1.93659 11.16584,3.83527 16.34873,6.5591c1.70312,0.89507 3.12913,2.25299 4.80504,3.198c5.08747,2.8687 10.57656,5.16928 14.63021,9.64566c6.34346,7.00498 9.59735,17.61834 10.62203,26.79722c0.00792,5.39838 0.4611,10.95755 -0.59361,16.28119c-1.15728,5.84134 -3.27508,12.32156 -6.23551,17.52996c-0.72469,1.27497 -1.877,2.27786 -2.57345,3.56848c-0.62954,1.16663 -1.05572,2.44928 -1.55975,3.68359c0.51268,0.61898 0.73629,1.35253 0.83381,1.87466c1.03227,1.49547 2.37968,2.77254 3.5165,4.19699c2.10485,2.63739 3.68317,5.60439 5.16836,8.58261c2.06711,4.14511 4.31513,7.03543 5.50279,11.63025c1.71093,4.50925 1.27679,9.0739 1.24072,13.85965c-0.02366,3.13817 0.23292,4.76152 -1.61889,7.79502c-0.92946,1.52258 -5.39188,5.33849 -6.84198,6.37993c-3.76738,2.70568 -8.62201,2.99435 -12.42759,5.45779c-1.18741,0.76863 -2.01512,2.05307 -3.27192,2.70207c-1.81051,0.93493 -3.80021,1.51445 -5.78516,1.97493c-3.41462,0.79214 -6.8742,0.61488 -10.33387,0.61672c-8.59538,0.00457 -17.0939,-0.51846 -25.6776,-0.53885c-6.90064,-0.9858 -13.90309,-1.23123 -20.85307,-2.13802c-6.56642,-0.85674 -13.68088,-1.00971 -19.01727,-5.73344c-3.59207,-3.17967 -3.40542,-7.66851 -2.73928,-11.83854c1.20806,-7.5624 5.06288,-13.67016 9.64794,-19.4965c-5.7584,-1.18196 -11.4808,-2.77519 -17.0143,-4.33343c-6.92131,-1.94905 -15.06204,-5.01565 -20.90029,-10.14973c-3.26827,1.77885 -6.05854,1.27363 -9.85789,1.28733c-3.08827,0.01113 -7.91705,0.24028 -10.93403,-0.80241c-3.86652,-1.3363 -6.9242,-5.60079 -9.09339,-8.75861c-0.98938,-1.44031 -2.30013,-2.70152 -2.98572,-4.30879c-2.68021,-6.2834 -1.83314,-15.67072 -0.8071,-22.23926c0.3541,-2.2669 1.03266,-4.5144 1.01151,-6.80856c-0.00003,-0.00295 -0.00006,-0.00589 -0.00008,-0.00884c0,0 0,-0.04919 0.00563,-0.13631c-0.61771,-2.80549 -2.6768,-4.67053 -3.11444,-7.62513c-1.6859,-11.38195 2.41358,-22.94551 11.76339,-29.48106c0.57155,-3.06216 1.07824,-6.20516 2.18874,-9.11697zM308.58885,12.343c2.08255,9.07121 -4.63404,17.90759 -7.881,25.7485v0.86177c0,13.6437 1.32353,29.18403 -10.34512,38.87733c-4.5498,3.77957 -10.86836,6.94493 -15.93028,10.12784l-0.23472,0.23472c-0.99839,0.99394 -1.99678,1.98788 -2.99517,2.98183c-1.20525,1.607 -2.652,3.0169 -4.00199,4.50546c4.97487,4.44505 12.62782,6.97284 18.05791,8.48396c8.52161,2.37144 17.48892,4.92142 26.32931,5.701c8.67363,0.76487 17.79614,-0.01602 26.50832,-0.01183c3.56919,-0.2942 7.10226,-0.93959 10.63347,-1.53646c1.1782,-0.19915 2.43815,0.04071 3.5677,-0.34906c4.00671,-1.38259 7.35826,-5.60219 10.47291,-8.29666c4.42693,-3.82972 9.06185,-6.55803 12.76128,-11.14356c1.19014,-1.47521 1.36391,-3.54778 2.26114,-5.2174c0.743,-1.38261 1.93862,-2.48238 2.72066,-3.84328c2.59006,-4.50719 4.38779,-10.23281 5.41154,-15.29357c0.94755,-4.68407 0.45741,-9.66942 0.46521,-14.42469c-0.8013,-7.25308 -3.38279,-16.38093 -8.4368,-21.90866c-3.64273,-3.98417 -8.35413,-5.80376 -12.8992,-8.35435c-1.65139,-0.92673 -3.0492,-2.27191 -4.72437,-3.15494c-4.87642,-2.57049 -10.2502,-4.32317 -15.41598,-6.14678c-7.20882,-2.54484 -13.52898,-5.08988 -21.32942,-5.07234c-1.85951,0.13848 -3.76269,-0.0084 -5.57854,0.41544c-0.45812,0.10693 -1.12117,0.37729 -1.88363,0.73968c0.41021,0.64818 0.6327,1.52874 0.39527,2.71592c-0.73543,3.67718 -4.41261,2.94174 -4.41261,2.94174c-1.29343,-0.26 -2.54445,-0.45594 -3.78466,-0.60174c0.0993,0.33297 0.18903,0.67295 0.26874,1.02017zM294.66373,23.73269l0.75,-0.66176c0,0 0,3.75 -3.75,3.75c-3.75,0 -3.75,-3.75 -3.75,-3.75l0.75,-3.83824c2.51542,-3.35063 4.88079,-5.77317 7.81375,-8.31542c-1.90816,0.02108 -3.89866,0.11179 -4.8105,0.39717c-4.13154,1.29303 -4.12748,2.33434 -7.25507,4.67676c-9.61101,7.1982 -17.52963,16.78552 -21.48474,28.38322c-1.40076,4.10748 -0.66095,5.89248 -0.87104,10.11859c-0.23552,4.73756 -0.52476,9.35084 -0.52476,14.10732c0,6.8562 -0.93022,14.24755 1.29787,20.76809c0.94252,-1.00312 1.88281,-2.00797 2.70741,-3.10744c1.11926,-1.1237 2.23851,-2.24741 3.35777,-3.37111l0.52941,-0.52941c0,0 0.11142,-0.11142 0.31141,-0.26573c0.19403,-0.16175 0.32696,-0.24635 0.32696,-0.24635c4.88916,-3.11107 11.00576,-6.11859 15.49076,-9.77243c9.59844,-7.81966 7.65488,-22.10739 7.65488,-33.12266v-1.16626c-0.02468,-0.42597 0.0204,-0.81849 0.08026,-1.1287c0.06525,-0.33954 0.18356,-0.76404 0.39804,-1.18726c2.45327,-5.69824 7.47737,-12.43165 7.71442,-19.06859c-2.45536,2.22865 -4.72583,4.64605 -6.73684,7.33022z" fill="#000000"/><path d="M307.84421,118.24155c0.28676,-0.36704 0.58458,-0.73875 0.89678,-1.11458c0.70933,0.08226 1.51632,0.1364 2.22418,0.19866c9.00043,0.79152 18.44392,-0.00575 27.48154,-0.00991c3.89198,-0.32744 7.69883,-0.95128 11.5409,-1.65353c1.62442,-0.29691 3.33152,-0.12512 4.88265,-0.69161c4.93743,-1.8032 8.96713,-6.324 12.81482,-9.66497c3.37724,-2.93248 7.07037,-5.3304 10.25044,-8.2933c2.82033,4.27992 6.15587,8.23082 8.81977,12.55461l-1.13236,0.14659c-3.12126,1.59328 -6.33248,1.92983 -9.54615,3.39792c-2.77084,1.26579 -5.34088,2.98254 -8.1722,4.10655c-1.29395,0.5213 -3.70353,1.65987 -5.30032,1.84575c-1.05072,0.12232 -2.16054,-0.22073 -3.17564,0.07682c-1.60206,0.46962 -2.9593,1.60192 -4.52132,2.19118c-2.39753,0.90443 -4.09574,0.30586 -6.68845,0.5073c-3.25376,0.2528 -6.47215,1.10249 -9.72422,1.37621c-4.00263,0.3369 -8.19196,-0.03157 -12.21023,-0.02455c-4.0331,0.00705 -7.83473,-0.78659 -11.83302,-1.34037c-0.7742,-0.10723 -1.63553,0.0631 -2.32566,-0.30378c-0.72222,-0.38393 -0.98164,-1.35065 -1.65455,-1.81563c-1.03235,-0.71334 -1.84748,-1.16432 -2.62697,-1.48937z" data-paper-data="{&quot;noHover&quot;:false,&quot;origItem&quot;:[&quot;Path&quot;,{&quot;applyMatrix&quot;:true,&quot;segments&quot;:[[[621.03915,239.43671],[-2.06469,-1.42668],[1.34582,0.92995]],[[624.3466,243.06231],[-1.44444,-0.76787],[1.38027,0.73376]],[[628.997,243.66715],[-1.54841,-0.21446],[7.99658,1.10756]],[[652.65382,246.32872],[-8.06619,0.01411],[8.03655,-0.01405]],[[677.04523,246.34759],[-8.00525,0.6738],[6.50414,-0.54745]],[[696.42985,243.57835],[-6.50753,0.5056],[5.18541,-0.40288]],[[709.75826,242.58082],[-4.79506,1.80886],[3.12405,-1.1785]],[[718.77683,238.22166],[-3.20412,0.93923],[2.0302,-0.59511]],[[725.12206,238.07722],[-2.10143,0.24463],[3.19358,-0.37177]],[[735.71454,234.4036],[-2.58791,1.04261],[5.66264,-2.24802]],[[752.05409,226.21269],[-5.54168,2.53158],[6.42733,-2.93617]],[[771.14587,219.42821],[-6.24252,3.18656],[0,0]],[[773.41058,219.13536],[0,0],[-5.32779,-8.64758]],[[755.77915,194.06407],[5.64066,8.55984],[-6.36014,5.9258]],[[735.46741,210.58795],[6.75448,-5.86496],[-7.69538,6.68194]],[[709.82499,229.99463],[9.87486,-3.6064],[-3.10226,1.13298]],[[700.01921,231.41415],[3.24884,-0.59382],[-7.68414,1.4045]],[[676.81557,234.69419],[7.78396,-0.65488],[-18.07524,0.00832]],[[621.83221,234.67053],[18.00086,1.58304],[-1.4157,-0.1245]],[[617.58039,234.23617],[1.41866,0.16452],[-0.62441,0.75166]],[[615.78639,236.46305],[0.57351,-0.73408],[1.55898,0.65012]]],&quot;closed&quot;:true}]}" fill="#ffffff"/></g><path d="M352.07449,119.11665c-0.26605,0.97374 -0.97074,2.00738 -2.68422,2.43575c-3.63803,0.90951 -4.54754,-2.72853 -4.54754,-2.72853c-0.06639,-0.27629 -0.1389,-0.54833 -0.21702,-0.81649c-0.28234,-0.42281 -0.48932,-0.95876 -0.56038,-1.63813c-1.5033,-3.83382 -4.0484,-6.96288 -5.89365,-10.68939c-2.47851,-5.00538 -2.9772,-10.79982 -5.51187,-15.86836c-1.08409,-2.16784 -2.5372,-4.14666 -3.52301,-6.36092c-1.06798,-2.39883 -1.48824,-5.06633 -2.67,-7.41119c-0.51929,-1.03039 -1.56203,-1.73664 -2.07692,-2.76923c-1.47082,-2.94963 -2.84768,-6.89466 -3.65693,-10.13166c-1.70674,-3.36884 -3.70761,-6.65168 -5.38082,-10.0193c-1.21813,-2.4517 -1.68388,-5.22253 -2.81673,-7.71478c-1.20118,-2.64257 -2.99268,-4.99188 -4.16782,-7.64614c-0.61989,-1.40013 -1.30119,-2.79672 -1.64605,-4.2886c-0.17236,-0.74565 0.39839,-1.57781 0.12477,-2.29253c-0.3527,-0.92129 -1.46998,-1.38912 -1.87806,-2.28725c-3.16954,-6.97583 -3.7693,-15.21513 -6.92308,-22.15385c-0.94688,-2.08326 -2.79843,-3.70261 -3.59775,-5.84683c-0.56625,-1.51899 -0.63431,-3.21109 -1.31616,-4.68182c-2.21148,-4.77013 -5.75681,-7.91136 -7.13466,-13.07582c-0.23662,-1.50498 -1.25644,-3.09291 -0.70985,-4.51495c2.96304,-7.70879 9.26839,-8.30691 16.02734,-9.75441c3.22262,-0.69016 6.31892,-1.8789 9.5044,-2.72407c10.62591,-2.81927 21.90003,-2.16729 32.54005,-4.84658c4.46373,-1.12402 11.07141,-3.47785 15.81556,-2.06805c7.84432,2.33106 11.40038,11.64199 15.45015,17.75087c2.88409,6.68226 6.29942,13.13733 9.16725,19.73569c0.93615,2.15392 2.82213,3.77322 3.95842,5.82861c0.11719,0.21198 2.94844,7.24404 3.06821,7.60654c0.76541,2.31655 0.86656,4.80543 1.45594,7.17289c0.56365,2.26413 2.43078,6.45321 2.83139,8.61095c0.77387,4.16824 0.33524,8.5306 0.72795,12.75292c0.48688,5.23478 0.70509,10.25102 0.70509,15.54007c0,6.93128 1.20487,15.6753 -1.67007,22.20429c-0.66267,1.50493 -2.11407,2.57994 -2.74654,4.0978c-0.55293,1.32695 -0.17541,2.92461 -0.73191,4.25007c-1.5776,3.75745 -5.58852,7.35032 -8.41136,10.17641c-2.24375,2.24632 -4.64837,4.34138 -6.74177,6.72843c-0.84157,0.95962 -1.38186,2.18508 -2.33282,3.03643c-1.2542,1.12282 -2.9453,1.68322 -4.19671,2.80915c-1.07295,0.96536 -1.6649,2.3777 -2.69351,3.39016c-3.82605,3.76596 -9.68538,6.65405 -14.93925,8.20185zM350.3827,111.81444c3.98382,-1.1869 8.65639,-3.47951 11.41124,-6.28512c1.05934,-1.07886 1.72124,-2.52127 2.84495,-3.53292c1.22243,-1.10052 2.87734,-1.64138 4.11098,-2.72931c0.77365,-0.68227 1.14266,-1.72495 1.82103,-2.50204c2.20452,-2.52532 4.73261,-4.74879 7.10438,-7.11772c2.05945,-2.05699 5.77644,-5.03545 6.8194,-7.82359c0.47997,-1.28309 0.12583,-2.79306 0.6527,-4.05762c0.6476,-1.55433 2.07362,-2.68694 2.79192,-4.20989c2.51171,-5.32541 1.09916,-13.64932 1.09916,-19.33417c0,-5.09172 -0.23161,-9.88711 -0.67953,-14.92147c-0.36017,-4.04807 0.05056,-8.1783 -0.65666,-12.17016c-0.49136,-2.77341 -2.0215,-5.27254 -2.70707,-8.00443c-0.74905,-2.98484 -0.43803,-4.07539 -1.31329,-6.67326c-0.71421,-2.11986 -1.3788,-4.28702 -2.47025,-6.23962c-1.29001,-2.30783 -3.26021,-4.22375 -4.34928,-6.63293c-0.41154,-0.91039 -0.39922,-1.96584 -0.74483,-2.90325c-2.03722,-5.52565 -5.75682,-10.64878 -8.08792,-16.13029c-2.63148,-3.92318 -5.6517,-12.50017 -10.85755,-14.09529c-0.95693,-0.29321 -5.29825,0.78529 -5.55256,0.81013c-1.03584,0.10115 -2.10169,-0.2552 -3.1219,-0.04941c-1.1324,0.22842 -2.08112,1.04673 -3.20229,1.32508c-8.88336,2.20542 -18.34109,2.04401 -27.32539,3.5332c-5.14761,0.85324 -10.00574,3.03644 -15.0917,4.12693c-1.51858,0.3256 -3.11119,0.2502 -4.61573,0.63549c-1.71778,0.4399 -6.67808,1.91899 -4.98986,4.47977c1.01124,4.51925 4.74617,7.65992 6.71149,11.84726c0.73885,1.57421 0.8737,3.37086 1.45307,5.01048c0.68829,1.94788 2.47042,3.34938 3.32533,5.23009c3.16464,6.96189 3.75828,15.19414 6.92308,22.15385c0.54759,1.2042 1.81731,2.01034 2.27579,3.25121c0.37527,1.01567 -0.10001,2.18674 0.12477,3.24593c0.78773,3.71184 3.735,6.85738 5.26305,10.21911c1.10259,2.42571 1.52316,5.13624 2.72173,7.51599c1.82008,3.61373 3.89412,7.10567 5.6961,10.74993c0.73214,2.92856 1.92629,6.58116 3.26614,9.25296c0.51724,1.03142 1.5638,1.73576 2.07692,2.76923c1.23467,2.48672 1.74279,5.28165 2.86846,7.81957c0.9439,2.1281 2.35906,4.01829 3.40006,6.10062c1.08887,2.17807 2.18128,4.37183 2.95683,6.68012c0.97405,2.89909 1.21623,6.54945 2.60822,9.29768c0.46037,0.90892 1.33984,1.54603 1.88085,2.40938c1.34529,2.14684 2.56413,4.51703 3.55814,6.94848z" fill="#ffffff" stroke-width="0.5"/><path d="M346.82882,104.91577c-0.54101,-0.86336 -1.42179,-1.50037 -1.88216,-2.40929c-1.39199,-2.74822 -1.63607,-6.39851 -2.61012,-9.2976c-0.77555,-2.30828 -1.87092,-4.50207 -2.9598,-6.68014c-1.04101,-2.08233 -2.46052,-3.97287 -3.40442,-6.10097c-1.12567,-2.53793 -1.63926,-5.33386 -2.87393,-7.82058c-0.51313,-1.03347 -1.56366,-1.73894 -2.0809,-2.77037c-1.33985,-2.6718 -2.54483,-6.32949 -3.27697,-9.25805c-1.80199,-3.64426 -3.89315,-7.15418 -5.71322,-10.76792c-1.19857,-2.37975 -1.62498,-5.1075 -2.72757,-7.53321c-1.52805,-3.36173 -4.47422,-6.52705 -5.26195,-10.23888c-0.22478,-1.05919 0.25212,-2.23536 -0.12315,-3.25103c-0.45848,-1.24087 -1.72687,-2.05018 -2.27446,-3.25438c-3.16479,-6.95971 -3.7487,-15.20609 -6.91335,-22.16797c-0.85491,-1.88072 -2.63617,-3.28308 -3.32446,-5.23096c-0.57937,-1.63963 -0.71277,-3.43763 -1.45162,-5.01184c-1.96532,-4.18733 -5.69878,-7.32927 -6.71002,-11.84852c-1.68822,-2.56077 3.27561,-4.04254 4.99339,-4.48244c1.50454,-0.38529 3.09953,-0.31143 4.61811,-0.63703c5.08596,-1.09049 9.95374,-3.27823 15.10135,-4.13147c8.98429,-1.48918 18.46129,-1.33044 27.34466,-3.53586c1.12117,-0.27835 2.07204,-1.09649 3.20444,-1.32491c1.02022,-0.20579 2.08819,0.15083 3.12403,0.04968c0.2543,-0.02483 4.59919,-1.10269 5.55612,-0.80948c5.20584,1.59512 8.23616,10.17548 10.86764,14.09867c2.33111,5.48152 6.06165,10.61149 8.09887,16.13714c0.34561,0.93741 0.33501,1.99434 0.74655,2.90473c1.08907,2.40918 3.06439,4.33046 4.3544,6.6383c1.09144,1.9526 1.75977,4.12494 2.47398,6.2448c0.87526,2.59788 0.56738,3.69424 1.31643,6.67908c0.68557,2.73189 2.21865,5.2393 2.71,8.01271c0.70722,3.99186 0.29807,8.13476 0.65824,12.18283c0.44792,5.03436 0.67721,9.8446 0.67721,14.93632c0,5.68485 1.40512,14.02335 -1.10659,19.34877c-0.71829,1.52295 -2.14702,2.65892 -2.79462,4.21325c-0.52687,1.26456 -0.17468,2.77662 -0.65465,4.05971c-1.04296,2.78815 -4.76628,5.77203 -6.82573,7.82902c-2.37177,2.36893 -4.90642,4.59641 -7.11094,7.12173c-0.67837,0.77708 -1.04925,1.82067 -1.82291,2.50294c-1.23365,1.08793 -2.89191,1.63018 -4.11434,2.7307c-1.12371,1.01164 -1.78826,2.45496 -2.8476,3.53382c-2.75484,2.80561 -7.43596,5.10008 -11.41978,6.28697c-0.99402,-2.43145 -2.21485,-4.80143 -3.56015,-6.94827z" data-paper-data="{&quot;noHover&quot;:false,&quot;origItem&quot;:[&quot;Path&quot;,{&quot;applyMatrix&quot;:true,&quot;segments&quot;:[[[350.38269,111.81443],[-0.99402,-2.43145],[3.98382,-1.1869]],[[361.79392,105.52931],[-2.75484,2.80561],[1.05934,-1.07886]],[[364.63887,101.99639],[-1.12371,1.01164],[1.22243,-1.10052]],[[368.74985,99.26708],[-1.23365,1.08793],[0.77365,-0.68227]],[[370.57088,96.76504],[-0.67837,0.77708],[2.20452,-2.52532]],[[377.67526,89.64732],[-2.37177,2.36893],[2.05945,-2.05699]],[[384.49466,81.82373],[-1.04296,2.78815],[0.47997,-1.28309]],[[385.14737,77.76611],[-0.52687,1.26456],[0.6476,-1.55433]],[[387.93928,73.55622],[-0.71829,1.52295],[2.51171,-5.32541]],[[389.03845,54.22205],[0,5.68485],[0,-5.09172]],[[388.35892,39.30058],[0.44792,5.03436],[-0.36017,-4.04807]],[[387.70226,27.13043],[0.70722,3.99186],[-0.49136,-2.77341]],[[384.99518,19.126],[0.68557,2.73189],[-0.74905,-2.98484]],[[383.68189,12.45273],[0.87526,2.59788],[-0.71421,-2.11986]],[[381.21164,6.21312],[1.09144,1.9526],[-1.29001,-2.30783]],[[376.86236,-0.41981],[1.08907,2.40918],[-0.41154,-0.91039]],[[376.11753,-3.32305],[0.34561,0.93741],[-2.03722,-5.52565]],[[368.02961,-19.45334],[2.33111,5.48152],[-2.63148,-3.92318]],[[357.17206,-33.54863],[5.20584,1.59512],[-0.95693,-0.29321]],[[351.6195,-32.73851],[0.2543,-0.02483],[-1.03584,0.10115]],[[348.4976,-32.78792],[1.02022,-0.20579],[-1.1324,0.22842]],[[345.29532,-31.46284],[1.12117,-0.27835],[-8.88336,2.20542]],[[317.96993,-27.92964],[8.98429,-1.48918],[-5.14761,0.85324]],[[302.87823,-23.80272],[5.08596,-1.09049],[-1.51858,0.3256]],[[298.26249,-23.16722],[1.50454,-0.38529],[-1.71778,0.4399]],[[293.27264,-18.68746],[-1.68822,-2.56077],[1.01124,4.51925]],[[299.98413,-6.8402],[-1.96532,-4.18733],[0.73885,1.57421]],[[301.4372,-1.82972],[-0.57937,-1.63963],[0.68829,1.94788]],[[304.76253,3.40038],[-0.85491,-1.88072],[3.16464,6.96189]],[[311.68561,25.55422],[-3.16479,-6.95971],[0.54759,1.2042]],[[313.9614,28.80543],[-0.45848,-1.24087],[0.37527,1.01567]],[[314.08617,32.05136],[-0.22478,-1.05919],[0.78773,3.71184]],[[319.34922,42.27047],[-1.52805,-3.36173],[1.10259,2.42571]],[[322.07095,49.78646],[-1.19857,-2.37975],[1.82008,3.61373]],[[327.76706,60.53639],[-1.80199,-3.64426],[0.73214,2.92856]],[[331.0332,69.78934],[-1.33985,-2.6718],[0.51724,1.03142]],[[333.11012,72.55857],[-0.51313,-1.03347],[1.23467,2.48672]],[[335.97858,80.37815],[-1.12567,-2.53793],[0.9439,2.1281]],[[339.37864,86.47877],[-1.04101,-2.08233],[1.08887,2.17807]],[[342.33547,93.15889],[-0.77555,-2.30828],[0.97405,2.89909]],[[344.9437,102.45656],[-1.39199,-2.74822],[0.46037,0.90892]],[[346.82454,104.86594],[-0.54101,-0.86336],[1.34529,2.14684]]],&quot;closed&quot;:true}]}" fill="#000000" stroke-width="0.5"/><path d="M347.5,67.3759c0,-2.07107 1.67893,-3.75 3.75,-3.75c2.07107,0 3.75,1.67893 3.75,3.75c0,2.07107 -1.67893,3.75 -3.75,3.75c-2.07107,0 -3.75,-1.67893 -3.75,-3.75z" fill="#ffffff" stroke-width="0.5"/><path d="M312.3332,90.66842c-3.2156,1.92936 -5.14496,-1.28624 -5.14496,-1.28624l-1.81709,-3.0831c-0.95187,-0.96145 -2.42853,-1.6006 -2.85562,-2.88436c-0.06422,-0.19303 -0.12356,-0.38718 -0.17849,-0.58234l-0.13345,0.06673l-2.04319,-4.08637c-0.27436,-0.52111 -0.42964,-1.11469 -0.42964,-1.74453c0,-2.07107 1.67893,-3.75 3.75,-3.75c1.03553,0 1.97303,0.41973 2.65165,1.09835l1.98467,1.98467c1.37921,1.17857 3.12545,2.0393 4.10551,3.56354c0.86875,1.35111 0.77741,3.11713 1.16612,4.6757c0,0 0.04707,0.23537 0.05785,0.59892l0.17287,0.28408c0,0 1.92936,3.2156 -1.28624,5.14496z" fill="#000000" stroke-width="0.5"/></g></g></svg>