<svg version="1.1" xmlns="http://www.w3.org/2000/svg" xmlns:xlink="http://www.w3.org/1999/xlink" width="87.41057" height="115.93403" viewBox="0,0,87.41057,115.93403"><defs><linearGradient x1="426.70964" y1="111.47084" x2="426.70964" y2="172.38228" gradientUnits="userSpaceOnUse" id="color-1"><stop offset="0" stop-color="#000000"/><stop offset="1" stop-color="#4e4e4e"/></linearGradient></defs><g transform="translate(-383.51536,-81.67006)"><g data-paper-data="{&quot;isPaintingLayer&quot;:true}" fill-rule="nonzero" stroke="none" stroke-linecap="butt" stroke-linejoin="miter" stroke-miterlimit="10" stroke-dasharray="" stroke-dashoffset="0" style="mix-blend-mode: normal"><path d="M383.51537,197.60409v-115.93403h87.41057v115.93403z" fill="#000000" stroke-width="0"/><path d="M398.40063,161.18153c0.32138,-3.91345 1.00994,-7.75387 1.50353,-11.68509c0.84396,-6.72176 1.3144,-13.34575 2.38623,-20.03054c0.67928,-4.23656 0.471,-12.46249 4.94769,-15.03773c0.03103,-0.01785 6.1927,-1.13001 7.17924,-1.3084c7.33577,-0.56637 14.55027,-1.44378 21.93628,-1.44581c2.45776,-0.00067 7.21756,-0.73358 9.35476,0.58908c2.65903,1.6456 3.60704,6.66435 4.2464,9.42821c1.91514,8.27874 3.84978,16.67738 5.25217,25.07202c0.7275,4.03378 1.05036,8.11333 1.22225,12.19296c0.09432,2.23855 0.86503,4.91826 -0.82438,6.95156c-2.49142,2.99855 -9.6676,2.76902 -13.12771,3.01869c-10.48353,0.75647 -20.81157,2.39061 -31.42726,2.37971c-5.25981,0.47835 -12.18335,3.53888 -14.20952,-3.45915c-0.30677,-1.05954 0.13631,-2.2019 0.20446,-3.30284l0.86154,-2.55181c0,0 0.15088,-0.40234 0.49433,-0.81086z" fill="url(#color-1)" stroke-width="0.5"/><path d="M435.76554,142.91662c0,2.5 -2.88342,2.5 -2.88342,2.5l-1.67599,-0.04033c-0.28771,0.04531 -0.57388,0.08885 -0.8587,0.13127c0.21059,3.16742 0.40996,6.3404 0.74871,9.53493l0.26355,1.81659c0,0 0.35764,2.48069 -2.50351,2.79078c-2.86115,0.31009 -3.2188,-2.17061 -3.2188,-2.17061l-0.2844,-1.98409c-0.3153,-3.03876 -0.50587,-6.05667 -0.7034,-9.06837c-0.94552,0.19812 -1.88882,0.43577 -2.83693,0.73964c0,0 -2.70982,0.85436 -3.69521,-1.49513c-0.98539,-2.34948 1.72443,-3.20384 1.72443,-3.20384c1.49318,-0.46434 2.96615,-0.79843 4.44807,-1.07413c-0.24554,-3.00107 -0.57102,-6.00408 -1.10706,-9.02355c0,0 -0.43844,-2.47093 2.41145,-2.85107c2.84989,-0.38014 3.28834,2.09079 3.28834,2.09079c0.52681,2.9704 0.85249,5.92531 1.09918,8.87769c0.06415,-0.01003 0.12838,-0.02012 0.19269,-0.03027l2.70759,-0.04033c0,0 2.88342,0 2.88342,2.5z" fill="#000000" stroke-width="0.5"/></g></g></svg>