<svg version="1.1" xmlns="http://www.w3.org/2000/svg" xmlns:xlink="http://www.w3.org/1999/xlink" width="98.67645" height="205.7211" viewBox="0,0,98.67645,205.7211"><defs><radialGradient cx="-29.16338" cy="206.15605" r="51.58102" gradientUnits="userSpaceOnUse" id="color-1"><stop offset="0" stop-color="#ababab"/><stop offset="1" stop-color="#545454"/></radialGradient><radialGradient cx="-43.0953" cy="174.37263" r="14.50169" gradientUnits="userSpaceOnUse" id="color-2"><stop offset="0" stop-color="#4a4a4a"/><stop offset="1" stop-color="#545454"/></radialGradient><radialGradient cx="-52.61483" cy="173.45761" r="6.68503" gradientUnits="userSpaceOnUse" id="color-3"><stop offset="0" stop-color="#302b24"/><stop offset="1" stop-color="#545454"/></radialGradient></defs><g transform="translate(77.18353,-103.91048)"><g data-paper-data="{&quot;isPaintingLayer&quot;:true}" fill-rule="nonzero" stroke-linecap="butt" stroke-linejoin="miter" stroke-miterlimit="10" stroke-dasharray="" stroke-dashoffset="0" style="mix-blend-mode: normal"><path d="M-69.49035,309.63158l-7.69318,-184.63566l92.85657,-21.08544l5.81988,140.40941z" fill="#2b2633" stroke="#000000" stroke-width="0"/><g><path d="M-6.54578,155.1889c0.16345,0.29057 0.36025,0.54802 0.58378,0.77892c0.30343,0.39994 0.64607,0.7685 1.02219,1.09995c0.0085,0.18737 0.01804,0.34861 0.02725,0.4766c0.10045,1.39524 0.24945,2.78029 0.43068,4.15853c-0.07417,7.28844 0.53469,14.75255 0.54747,15.4939c0.2186,12.67865 -0.15497,25.07903 0.47359,37.65029c0.14426,2.88523 -0.72804,6.3244 -0.00274,9.28149c-0.65513,0.89292 -1.11737,1.9362 -1.32534,3.06844c-1.45911,1.04596 -2.87263,2.08347 -4.22816,2.79735c-8.35382,4.39949 -14.45991,11.98167 -22.31065,17.22932c-5.1351,3.43245 -12.00791,5.80912 -16.05352,10.5134c-0.77367,-0.43888 -1.63305,-0.7442 -2.54679,-0.8846c-0.01781,-0.37618 -0.03795,-0.7442 -0.05927,-1.099c0.07735,-8.95687 0.07203,-17.91481 -0.01595,-26.87154c-0.03999,-4.07122 -1.88781,-8.18764 -1.92804,-12.21094c-0.10282,-10.28238 0.07254,-20.56605 0,-30.84869c-0.04505,-6.38581 -1.71428,-12.23637 -2.95112,-18.32769l2.87876,-1.64501c0.30066,-0.1718 0.53659,-0.41085 0.71601,-0.70576c0.58206,0.14491 1.191,0.22183 1.81791,0.22183c1.41358,0 2.73583,-0.39107 3.86444,-1.07093c0.85977,-0.37972 1.73535,-0.82314 2.57911,-1.26598c2.12252,-0.50091 4.20096,-1.18432 6.00146,-1.9868c3.02247,-1.34712 6.8151,-1.0327 9.90144,-1.65335c4.58579,-0.92218 9.08803,-2.90797 13.65397,-3.99871c2.01473,-0.48129 4.34353,-0.54706 6.61887,-0.81488c0.09182,0.21095 0.19322,0.41573 0.30466,0.61384z" fill="url(#color-1)" stroke="#000000" stroke-width="0"/><path d="M-49.27564,256.98269c-0.04137,-0.11888 -0.08133,-0.23901 -0.11987,-0.36043c-0.05591,-0.17615 -0.13801,-1.7939 -0.21054,-3.48316c-0.04613,-0.22482 -0.06039,-0.47537 -0.03162,-0.75417c-0.05728,-1.39712 -0.10424,-2.70274 -0.12033,-3.12915c-0.31367,-8.31485 1.52034,-16.71573 4.4718,-24.48367c-0.63722,-0.04588 -1.2243,-0.11824 -1.72634,-0.22646c-1.11313,-0.23996 -2.02293,-1.08138 -3.11633,-1.39944c-0.26884,-0.0782 -0.53521,-0.15079 -0.79943,-0.21961c-0.48459,-2.09727 -0.98231,-4.18873 -1.00298,-6.2556c-0.01358,-1.35793 -0.02231,-2.71588 -0.02739,-4.07385c4.4904,1.10115 11.91338,1.35374 14.13713,1.27925c2.86606,-0.096 13.19842,-2.82149 13.35825,1.34633c0.01519,0.39603 -0.05179,0.73766 -0.1856,1.03272c0.92016,0.26431 1.81193,0.59208 2.62474,0.92316l-0.00002,0.00001c0.47431,-0.20621 1.99157,-0.71213 3.0192,0.69773c2.23403,-0.88965 4.39933,-2.06799 6.4634,-3.05496c2.84917,-1.72957 6.01468,-3.20274 8.87756,-5.04129c0.05218,1.68662 0.11861,3.37525 0.2032,5.06697c0.00608,0.12157 0.01035,0.24412 0.01302,0.36757c-0.87881,0.54655 -1.77651,1.08201 -2.68897,1.62008c0.85747,0.41619 1.71534,0.87935 2.55086,1.39167c-0.15754,1.98606 -0.33446,4.03973 0.12235,5.90217c-0.05342,0.07281 -0.10555,0.14661 -0.15637,0.22138c-0.20623,-0.18578 -0.41901,-0.36589 -0.63721,-0.54048c-0.13066,0.08265 -0.21682,0.12355 -0.21682,0.12355l-2.51326,1.1919c-2.29254,1.25963 -4.72567,2.11132 -7.00506,3.27105c-5.34833,2.72119 -10.05586,6.65686 -16.21002,7.58674c-4.46403,0.67451 -8.7895,0.0541 -13.18804,-0.39355c-1.02005,4.43122 -1.54694,8.97212 -1.37132,13.47502c0.01803,0.46226 0.00709,0.92859 -0.01409,1.39626c2.58822,0.39787 5.26845,0.28236 7.92023,-0.0403c-3.8631,2.07272 -7.82457,4.17602 -10.52571,7.31694c-0.58673,-0.33284 -1.22276,-0.58886 -1.89441,-0.75438zM-40.51903,219.07115c0.04845,-0.06567 0.09527,-0.13391 0.14071,-0.20431c-2.63745,0.01272 -5.48677,-0.11435 -8.1677,-0.45394c0.93279,0.35401 1.74247,1.04982 2.71628,1.27468c0.90224,0.20833 3.18464,0.17203 5.11275,0.10073c0.06509,-0.42381 0.19796,-0.71716 0.19796,-0.71716z" fill="#4a4a4a" stroke="none" stroke-width="0.5"/><path d="M-52.05492,180.57815c2.44778,-3.51684 1.87859,-5.54539 0.42953,-9.40872l-2.85293,-2.97192c-0.13571,-0.14007 -0.25528,-0.29609 -0.35557,-0.46514c-0.01624,-0.07921 -0.03241,-0.15846 -0.04851,-0.23774l2.87876,-1.645c0.30066,-0.1718 0.53659,-0.41085 0.71601,-0.70576c0.58206,0.14491 1.191,0.22183 1.81791,0.22183c1.41358,0 2.73583,-0.39107 3.86444,-1.07093c0.85977,-0.37972 1.73535,-0.82314 2.57911,-1.26598c2.12252,-0.50091 4.20096,-1.18432 6.00146,-1.9868c1.74367,-0.77716 3.74367,-1.00133 5.7165,-1.17106c-1.94304,4.20689 -3.53358,4.34077 -7.90314,6.59732c-2.86199,1.478 -5.36196,3.09924 -7.91814,2.72129c1.62209,4.10994 2.71618,5.61478 1.4393,10.60352c-0.34102,1.33238 -1.44761,2.33891 -2.17141,3.50837c-0.99865,1.5138 -1.75047,3.22319 -2.99594,4.5414c-0.3262,0.34525 -0.6804,0.68966 -1.05898,1.03147c-0.00283,-1.01733 -0.00758,-2.03465 -0.01476,-3.05196c-0.01177,-1.66799 -0.13435,-3.29946 -0.33109,-4.90825c0.06781,-0.11301 0.13682,-0.2251 0.20745,-0.33592z" fill="url(#color-2)" stroke="none" stroke-width="0.5"/><path d="M-44.81919,250.48527c0.02118,-0.46767 0.03101,-0.93604 0.01299,-1.3983c-0.17562,-4.5029 0.34594,-9.07028 1.36599,-13.5015c4.39854,0.44765 8.72438,1.06466 13.18841,0.39015c6.15416,-0.92988 10.94377,-4.89633 16.2921,-7.61751c2.27939,-1.15973 4.71841,-2.00542 7.01096,-3.26505l2.51425,-1.19067c0,0 0.0862,-0.04084 0.21687,-0.12349c0.21394,0.17117 0.42285,0.34795 0.6256,0.53035c-0.58718,0.85184 -1.00277,1.83108 -1.19687,2.88782c-1.45911,1.04596 -2.87263,2.08347 -4.22816,2.79735c-8.35382,4.39949 -14.45991,11.98167 -22.31065,17.22932c-1.72748,1.1547 -3.65162,2.18991 -5.59862,3.23446c-2.64398,0.3152 -5.31611,0.4232 -7.89285,0.02709z" data-paper-data="{&quot;noHover&quot;:false,&quot;origItem&quot;:[&quot;Path&quot;,{&quot;applyMatrix&quot;:true,&quot;segments&quot;:[[[-42.77087,496.36116],[-9.10145,1.29189],[4.24217,-0.60215]],[[-29.93933,495.60011],[-4.24845,0.55616],[7.90815,-1.03526]],[[-5.78678,489.71082],[-7.75196,1.93268],[8.08737,-2.0163]],[[21.1188,479.03287],[-5.705,6.17419],[0,0]],[23.36808,476.78359],[[23.48179,476.67816],[-0.07442,0.06614],[0.18198,-2.71867]],[[23.50526,468.57855],[0.55197,2.64552],[-0.49492,-2.37208]],[[18.51534,458.94075],[0.65034,1.63732],[-0.68082,-1.71404]],[[17.3043,453.54199],[0.8611,1.63094],[-1.26789,-2.40147]],[[12.07151,447.19653],[2.12465,1.8378],[-0.26747,0.15516]],[11.62872,447.42683],[[6.51454,449.61627],[0,0],[-4.67826,2.34171]],[[-7.73598,455.6167],[4.64431,-2.14307],[-10.89735,5.02848]],[[-40.71366,469.53669],[12.37054,-1.38674],[-8.9732,1.0059]],[[-67.04021,467.73943],[8.75631,1.23174],[-2.37821,8.77775]],[[-70.81356,494.56457],[-0.00588,-9.01264],[0.0006,0.92522]],[[-70.94873,497.35396],[0.07817,-0.93303],[9.18227,1.77413]]],&quot;closed&quot;:true}]}" fill="#818181" stroke="none" stroke-width="0.5"/><path d="M-6.54578,155.1889c0.16345,0.29057 0.36025,0.54802 0.58378,0.77892c0.30343,0.39994 0.64607,0.7685 1.02219,1.09995c0.0085,0.18737 0.01804,0.34861 0.02725,0.4766c0.10045,1.39524 0.24945,2.78029 0.43068,4.15853c-0.07417,7.28844 0.53469,14.75255 0.54747,15.4939c0.18951,10.99165 -0.06605,21.77417 0.27215,32.6402c-2.85881,1.83225 -6.01859,3.30606 -8.85738,5.02934c-3.43834,1.6441 -7.17134,3.82364 -11.02125,4.31075c-4.66471,0.59022 -9.6547,0.35319 -14.35481,0.53474c-1.22006,0.04713 -6.46462,0.36591 -7.95164,0.02255c-1.06854,-0.24673 -1.94292,-1.06196 -2.99572,-1.36899c-1.08683,-0.31696 -2.07704,-0.49399 -3.04515,-0.71953c-0.02485,-0.3255 -0.03984,-0.65047 -0.04308,-0.97483c-0.09272,-9.27187 0.04076,-18.54479 0.0147,-27.81706c0.36151,-0.32831 0.70043,-0.65895 1.01355,-0.99036c1.24547,-1.31822 1.99457,-3.03507 2.99322,-4.54887c0.72381,-1.16946 1.82877,-2.18496 2.16979,-3.51734c1.27688,-4.98874 0.1888,-6.52206 -1.43328,-10.632c2.55618,0.37794 5.07014,-1.25932 7.93214,-2.73732c4.3515,-2.24721 5.97059,-2.39738 7.90714,-6.55493c1.45564,-0.12558 2.89716,-0.22035 4.21075,-0.48451c4.58579,-0.92218 9.08803,-2.90797 13.65397,-3.99871c2.01473,-0.48129 4.34353,-0.54706 6.61887,-0.81488c0.09182,0.21095 0.19322,0.41573 0.30466,0.61384z" data-paper-data="{&quot;noHover&quot;:false,&quot;origItem&quot;:[&quot;Path&quot;,{&quot;applyMatrix&quot;:true,&quot;segments&quot;:[[[-55.3411,273.29047],[0,0],[4.13926,2.23518]],[[-44.10198,281.59265],[-2.95376,-3.83322],[5.73546,7.44314]],[[-35.57482,307.87425],[0.07348,-9.15132],[-0.01822,2.26778]],[[-35.82138,314.67335],[0.92826,-2.06918],[-4.90584,10.9355]],[[-53.39088,329.91937],[9.7765,-4.58312],[-5.83306,2.73448]],[[-69.4241,334.75111],[5.07964,0.95124],[2.9268,8.33816]],[[-67.36028,356.05289],[2.93422,-9.8723],[-0.78366,2.63666]],[[-71.9688,362.89805],[1.53618,-2.28172],[-2.11186,2.94884]],[[-78.30434,371.74457],[2.59014,-2.53904],[-8.04728,7.88854]],[[-113.74588,388.43359],[11.48122,-1.4524],[2.34308,6.80094]],[[-105.13026,408.25871],[-3.3697,-6.41776],[3.68478,7.0178]],[[-89.57154,428.14993],[-6.82814,-4.48976],[4.41398,2.90236]],[[-76.572,432.81021],[-4.74416,-1.58322],[2.08052,0.6943]],[[-70.69666,435.77263],[-2.1166,-0.575],[2.94554,0.80018]],[[-54.82028,436.33157],[-2.44194,0.00068],[9.40724,-0.00262]],[[-26.1252,436.36143],[-9.3678,0.82206],[7.7315,-0.67846]],[[-3.79632,428.59867],[-6.99764,3.02226],[8.28974,-4.60708]],[[21.36746,414.32119],[-7.34442,6.14962],[4.21694,-3.53094]],[[31.49238,399.98475],[-2.5397,4.79228],[12.8708,-24.2866]],[[32.104,321.94487],[10.81328,24.46374],[-5.0097,-11.33384]],[[10.55016,288.73447],[10.89146,6.9319],[-17.32668,-12.6174]],[[-44.57672,272.38717],[21.34916,0.02118],[-3.62848,-0.0036]],[[-55.48264,272.62537],[3.57788,-0.32286],[0.04766,0.22214]],[[-55.34108,273.29045],[-0.04676,-0.2212],[0,0]]],&quot;closed&quot;:true,&quot;fillColor&quot;:[0,0,0,1]}]}" fill="#615645" stroke="none" stroke-width="0.5"/><path d="M-54.43658,167.35143l2.8302,3.04568c1.44906,3.86333 2.00353,5.89545 -0.44425,9.41229c-0.07007,0.10995 -0.1386,0.22113 -0.206,0.33323c-0.55033,-4.53478 -1.69243,-8.88831 -2.60614,-13.37006c0.11225,0.21065 0.25617,0.40338 0.42619,0.57887z" data-paper-data="{&quot;noHover&quot;:false,&quot;origItem&quot;:[&quot;Path&quot;,{&quot;applyMatrix&quot;:true,&quot;segments&quot;:[[[-57.3724,283.26335],[0,0],[-0.26428,0.09762]],[[-58.23416,283.51453],[0.31082,-0.06908],[-1.87402,0.41644]],[[-62.3308,282.73951],[0.90824,0.72848],[-11.68218,-1.2383]],[[-91.59724,293.15969],[9.24524,-6.77352],[-1.79022,1.3116]],[[-97.26876,296.64683],[1.71612,-1.40714],[-8.56586,7.0237]],[[-111.56942,326.73611],[3.44952,-9.79898],[-5.3052,15.07038]],[[-118.07276,372.61069],[0.06206,-15.95694],[0.41356,2.03892]],[[-116.67838,378.67835],[-0.51532,-2.00624],[0.26162,-0.02136]],[[-115.90162,378.61233],[-0.25596,0.02234],[9.19656,-0.8025]],[[-85.33278,364.63113],[-6.66256,6.64812],[2.1518,-2.14714]],[[-80.14054,357.13415],[-1.73076,2.499],[5.1615,-6.84092]],[[-78.56102,338.36345],[2.5999,7.83204],[0,0]],[[-84.03492,332.20533],[0,0],[-0.79412,-0.88514]],[[-85.3121,328.86751],[0,1.28276],[0,-2.76142]],[[-80.3121,323.86751],[-2.76142,0],[0.17388,0]],[[-79.79712,323.89369],[-0.1693,-0.0173],[0,0]],[-71.61206,324.63779],[[-71.62946,324.82931],[0,0],[14.26224,-2.2348]],[[-45.45186,301.47853],[4.33758,16.35172],[-0.76056,-2.86714]],[[-49.38844,293.49767],[1.27782,2.67696],[-0.91942,-1.92618]],[[-52.04282,287.67065],[1.25632,1.72546],[-1.29586,-1.77974]],[[-57.37238,283.26331],[2.11596,1.22938],[0,0]]],&quot;closed&quot;:true,&quot;fillColor&quot;:[0,0,0,1]}]}" fill="url(#color-3)" stroke="none" stroke-width="0.5"/><path d="M-21.34652,213.63069c0.81328,-0.15825 1.65529,-0.25673 2.43783,-0.47892l0.74781,1.03925l0.40231,-0.4344l2.45694,2.27546c0.46942,0.43474 0.77298,1.04856 0.79944,1.73841c0.05291,1.3797 -1.02267,2.54106 -2.40236,2.59396c-0.1696,0.0065 -0.33591,-0.00404 -0.49726,-0.03012l-2.57214,-0.36647l0.03962,-0.27807c-0.5128,0.09426 -1.01886,0.21082 -1.51385,0.3645c-0.38736,0.70056 -0.81043,1.32442 -1.5358,1.47612c-0.26991,0.05644 -0.51754,0.01151 -0.75206,-0.09778c-0.60706,0.57347 -1.20528,1.13837 -1.98917,1.162c-0.94129,0.02837 -0.99657,-2.13776 -1.93495,-2.05851c-0.88093,0.0744 -0.43798,2.02659 -1.26869,2.32908c-0.99036,0.36063 -2.02374,-0.85729 -3.07208,-0.74846c-0.05122,0.00532 -0.10213,0.01186 -0.15274,0.01955c-0.43323,0.45519 -1.03742,0.74847 -1.71496,0.77446c-0.08924,0.00342 -0.17756,0.00212 -0.26474,-0.00367c-0.15125,0.08056 -0.30227,0.16199 -0.45375,0.24161c0.00017,0.01301 0.00008,0.02586 -0.00029,0.03852c0,0 -0.7637,2.3805 -3.14419,1.6168c-2.3805,-0.7637 -1.6168,-3.14419 -1.6168,-3.14419c0.45216,-1.04546 0.54264,-2.36818 1.16342,-3.28438c0.10202,-1.24263 1.11861,-2.24148 2.39581,-2.29046c0.138,-0.00529 0.27382,0.00071 0.40656,0.01717c-0.0699,-0.3271 -0.05928,-0.6393 0.11783,-0.9207c0.5557,-0.88294 2.15078,-0.33891 2.97135,-0.98316c0.98095,-0.77017 0.92493,-2.93064 2.16632,-3.05055c1.29312,-0.1249 1.68015,2.24488 2.94118,2.55721c0.76968,0.19063 1.17103,-1.33218 1.9639,-1.34233c1.36771,-0.01751 2.61918,0.63432 3.87551,1.26807z" fill="#000000" stroke="none" stroke-width="0.5"/><path d="M-24.86028,173.06318c3.52419,12.70796 6.78229,25.26518 7.15206,38.6016c0.61621,1.83597 0.92847,6.67019 3.00628,7.72013c1.07471,0.54306 2.32166,-0.64376 3.46447,-1.02311c2.42134,-0.80374 5.22256,-1.75206 7.79169,-3.03259c0.02406,1.76549 -0.26581,3.70975 -0.30534,5.60916c-1.99877,0.84984 -4.02772,1.55848 -5.92955,2.17486c-2.04063,0.66137 -4.75563,1.84477 -6.967,0.87755c-4.32941,-1.89362 -4.7701,-7.66394 -5.98203,-11.44328c-0.61524,-13.23198 -3.56749,-25.49061 -7.04538,-38.13603c-1.28551,-4.67404 -1.68017,-9.70253 -2.89258,-14.4201c1.70712,-0.18653 3.43906,-0.25277 5.01181,-0.52237c1.04863,4.48111 1.47547,9.19463 2.69557,13.59418z" fill="#ffffff" stroke="none" stroke-width="0.5"/><path d="M-6.54578,155.1889c0.16345,0.29057 0.36025,0.54802 0.58378,0.77892c0.30343,0.39994 0.64607,0.7685 1.02219,1.09995c0.0085,0.18737 0.01804,0.34861 0.02725,0.4766c0.10045,1.39524 0.24945,2.78029 0.43068,4.15853c-0.07417,7.28844 0.53469,14.75255 0.54747,15.4939c0.2186,12.67865 -0.15497,25.07903 0.47359,37.65029c0.00883,0.17655 0.01385,0.35517 0.01566,0.53563c-2.57009,1.27865 -5.37083,2.22637 -7.78861,3.02893c-1.14281,0.37935 -2.39328,1.56631 -3.46799,1.02325c-2.07781,-1.04994 -2.39357,-5.88428 -3.00978,-7.72024c-0.36978,-13.33642 -3.67124,-25.92559 -7.19543,-38.63355c-1.21684,-4.38783 -1.63761,-9.12635 -2.67826,-13.6071c0.15558,-0.02639 0.30963,-0.05474 0.46195,-0.08537c4.58579,-0.92218 9.08803,-2.90797 13.65397,-3.99871c2.01473,-0.48129 4.34353,-0.54706 6.61887,-0.81488c0.09182,0.21095 0.19322,0.41573 0.30466,0.61384z" data-paper-data="{&quot;noHover&quot;:false,&quot;origItem&quot;:[&quot;Path&quot;,{&quot;applyMatrix&quot;:true,&quot;segments&quot;:[[[-48.78694,260.26663],[-1.01193,-3.11684],[1.95825,0.67695]],[-45.84957,262.90183],[[-44.72123,265.42474],[0,0],[2.39206,9.56826]],[[-35.83646,292.78231],[-3.8601,-9.07235],[1.68425,6.6707]],[[-30.46025,312.72355],[-1.64853,-6.6483],[2.53939,10.241]],[[-25.21527,344.19943],[-2.4216,-10.24111],[6.06926,25.66734]],[[-13.8801,421.89407],[0.2831,-26.68159],[1.0908,3.71646]],[[-8.46363,437.55339],[-4.0721,-2.25758],[2.10622,1.16769]],[[-1.46136,435.7742],[-2.31302,0.67055],[9.47919,-2.74804]],[[26.87515,421.56084],[-6.49635,7.74521],[12.57917,-14.9974]],[[42.89691,367.85507],[0,19.04319],[0,-28.5752]],[[36.95763,283.14699],[4.46674,28.27113],[-2.50383,-15.8474]],[[18.36989,238.70707],[11.17873,11.94778],[-16.01497,-3.92494]],[[-31.32863,238.64175],[16.21799,-0.8436],[-6.11707,0.31819]],[[-48.11992,241.88588],[5.57882,-2.29972],[-1.53332,0.63207]],[[-52.76019,243.6812],[1.14476,-1.20005],[-0.56457,0.59184]],[[-52.08213,246.03944],[-0.15458,-0.80319],[0.29542,1.53502]],[[-51.41304,250.68104],[-0.31057,-1.53203],[0.67103,3.31018]]],&quot;closed&quot;:true}]}" fill="#444444" stroke="none" stroke-width="0.5"/><path d="M-47.15195,192.00696c-0.03146,-0.26724 -0.03216,-0.50908 0.00104,-0.7174c1.17392,-7.36745 10.66043,-1.82191 13.13745,-0.56824c0.34546,1.78408 1.68802,3.65589 1.03637,5.35225c-0.04774,0.12429 -0.09712,0.24442 -0.14807,0.36049c2.00783,3.02845 0.05238,5.2551 -2.76934,6.21813c-0.04647,0.20722 -0.12086,0.40973 -0.22904,0.60656c-1.79512,3.2662 -10.04616,1.42603 -11.53324,-0.04682c-0.18153,-0.17979 -0.18375,-0.35378 -0.07109,-0.52405l-1.50266,-1.11044c-1.07364,-0.2466 -1.89265,-1.18752 -1.93689,-2.34102c-0.0017,-0.04435 -0.00224,-0.08848 -0.00163,-0.13236c-0.00396,-0.0437 -0.00681,-0.08774 -0.00851,-0.13209c-0.0425,-1.1083 0.64318,-2.07571 1.62975,-2.44085l0.13034,-0.12318c-0.00493,-0.05005 -0.00839,-0.10056 -0.01034,-0.15148c-0.04219,-1.10005 0.63302,-2.06131 1.60778,-2.43259c0.1211,-0.65372 0.33481,-1.27221 0.66809,-1.81691z" fill="#ffffff" stroke="none" stroke-width="0.5"/></g><path d="" fill="#000000" stroke="none" stroke-width="0.5"/><path d="" data-paper-data="{&quot;noHover&quot;:false,&quot;origItem&quot;:[&quot;Path&quot;,{&quot;applyMatrix&quot;:true,&quot;segments&quot;:[[[-57.3724,283.26335],[0,0],[-0.26428,0.09762]],[[-58.23416,283.51453],[0.31082,-0.06908],[-1.87402,0.41644]],[[-62.3308,282.73951],[0.90824,0.72848],[-11.68218,-1.2383]],[[-91.59724,293.15969],[9.24524,-6.77352],[-1.79022,1.3116]],[[-97.26876,296.64683],[1.71612,-1.40714],[-8.56586,7.0237]],[[-111.56942,326.73611],[3.44952,-9.79898],[-5.3052,15.07038]],[[-118.07276,372.61069],[0.06206,-15.95694],[0.41356,2.03892]],[[-116.67838,378.67835],[-0.51532,-2.00624],[0.26162,-0.02136]],[[-115.90162,378.61233],[-0.25596,0.02234],[9.19656,-0.8025]],[[-85.33278,364.63113],[-6.66256,6.64812],[2.1518,-2.14714]],[[-80.14054,357.13415],[-1.73076,2.499],[5.1615,-6.84092]],[[-78.56102,338.36345],[2.5999,7.83204],[0,0]],[[-84.03492,332.20533],[0,0],[-0.79412,-0.88514]],[[-85.3121,328.86751],[0,1.28276],[0,-2.76142]],[[-80.3121,323.86751],[-2.76142,0],[0.17388,0]],[[-79.79712,323.89369],[-0.1693,-0.0173],[0,0]],[-71.61206,324.63779],[[-71.62946,324.82931],[0,0],[14.26224,-2.2348]],[[-45.45186,301.47853],[4.33758,16.35172],[-0.76056,-2.86714]],[[-49.38844,293.49767],[1.27782,2.67696],[-0.91942,-1.92618]],[[-52.04282,287.67065],[1.25632,1.72546],[-1.29586,-1.77974]],[[-57.37238,283.26331],[2.11596,1.22938],[0,0]]],&quot;closed&quot;:true,&quot;fillColor&quot;:[0,0,0,1]}]}" fill="#302617" stroke="none" stroke-width="0.5"/><path d="" data-paper-data="{&quot;noHover&quot;:false,&quot;origItem&quot;:[&quot;Path&quot;,{&quot;applyMatrix&quot;:true,&quot;segments&quot;:[[[-57.3724,283.26335],[0,0],[-0.26428,0.09762]],[[-58.23416,283.51453],[0.31082,-0.06908],[-1.87402,0.41644]],[[-62.3308,282.73951],[0.90824,0.72848],[-11.68218,-1.2383]],[[-91.59724,293.15969],[9.24524,-6.77352],[-1.79022,1.3116]],[[-97.26876,296.64683],[1.71612,-1.40714],[-8.56586,7.0237]],[[-111.56942,326.73611],[3.44952,-9.79898],[-5.3052,15.07038]],[[-118.07276,372.61069],[0.06206,-15.95694],[0.41356,2.03892]],[[-116.67838,378.67835],[-0.51532,-2.00624],[0.26162,-0.02136]],[[-115.90162,378.61233],[-0.25596,0.02234],[9.19656,-0.8025]],[[-85.33278,364.63113],[-6.66256,6.64812],[2.1518,-2.14714]],[[-80.14054,357.13415],[-1.73076,2.499],[5.1615,-6.84092]],[[-78.56102,338.36345],[2.5999,7.83204],[0,0]],[[-84.03492,332.20533],[0,0],[-0.79412,-0.88514]],[[-85.3121,328.86751],[0,1.28276],[0,-2.76142]],[[-80.3121,323.86751],[-2.76142,0],[0.17388,0]],[[-79.79712,323.89369],[-0.1693,-0.0173],[0,0]],[-71.61206,324.63779],[[-71.62946,324.82931],[0,0],[14.26224,-2.2348]],[[-45.45186,301.47853],[4.33758,16.35172],[-0.76056,-2.86714]],[[-49.38844,293.49767],[1.27782,2.67696],[-0.91942,-1.92618]],[[-52.04282,287.67065],[1.25632,1.72546],[-1.29586,-1.77974]],[[-57.37238,283.26331],[2.11596,1.22938],[0,0]]],&quot;closed&quot;:true,&quot;fillColor&quot;:[0,0,0,1]}]}" fill="#302617" stroke="none" stroke-width="0.5"/><path d="" data-paper-data="{&quot;noHover&quot;:false,&quot;origItem&quot;:[&quot;Path&quot;,{&quot;applyMatrix&quot;:true,&quot;segments&quot;:[[[27.25747,388.54984],[1.34972,-11.99935],[-0.14489,1.28814]],[[26.79113,393.01557],[0.19346,-1.633],[0,0]],[26.82084,392.93236],[27.09219,392.52534],[27.52322,391.23226],[27.60394,391.10542],[27.62425,390.95645],[28.14099,389.66459],[28.87356,386.73433],[28.87356,386.06432],[29.06849,385.28457],[29.13014,384.48319],[29.19494,384.28878],[29.19494,383.4981],[29.16379,383.45137],[29.19494,383.31118],[29.19494,383.17186],[29.47358,382.0573],[29.7228,380.9358],[29.78511,380.81118],[29.81994,380.67186],[29.8687,380.644],[30.02934,380.32272],[30.22712,379.13602],[30.30838,378.94913],[30.30838,378.74534],[30.48048,378.05695],[30.48048,376.74417],[30.62977,376.14702],[30.62977,375.5315],[30.80186,374.84311],[30.80186,364.8257],[30.62977,364.13732],[30.62977,363.52179],[30.48048,362.92464],[30.48048,360.44599],[30.22712,358.92586],[30.26045,358.50929],[30.15909,358.10387],[30.15909,356.91076],[30.10618,356.59326],[30.02912,356.49052],[29.96908,356.46833],[29.90922,356.33065],[29.87356,356.2831],[29.41389,355.19139],[28.94159,354.1051],[28.93181,354.04647],[28.87356,353.9081],[28.89896,353.84935],[28.7438,352.9184],[[28.68058,352.79195],[0,0],[0.42957,11.87219]]],&quot;closed&quot;:true}]}" fill="#ffffff" stroke="none" stroke-width="0.5"/><g fill="#2b2633" stroke="none" stroke-width="0"><path d="M-3.58366,225.29249l-2.54382,-72.42869l9.66153,-2.78183l0.57504,79.69324z"/><path d="M-51.2818,259.63097l47.82506,-34.55515l12.228,1.12595l-51.16999,40.05281z"/><path d="M-57.05481,259.8864l-3.2337,-95.76l8.26087,2.31923l3.66755,93.56585z"/></g><path d="M-57.27464,167.93844l14.32305,-18.76382l26.05051,-4.45186l18.02346,9.36821z" fill="#2b2633" stroke="none" stroke-width="0"/></g></g></svg>