<svg version="1.1" xmlns="http://www.w3.org/2000/svg" xmlns:xlink="http://www.w3.org/1999/xlink" width="170.04598" height="198.59991" viewBox="0,0,170.04598,198.59991"><g transform="translate(-162.99313,-84.0326)"><g data-paper-data="{&quot;isPaintingLayer&quot;:true}" fill-rule="nonzero" stroke="none" stroke-linecap="butt" stroke-linejoin="miter" stroke-miterlimit="10" stroke-dasharray="" stroke-dashoffset="0" style="mix-blend-mode: normal"><path d="M209.96455,174.00053c0.03927,0.02107 0.05651,0.01947 0.03514,-0.02649c-0.19568,-0.421 -0.90635,-1.62035 -0.69431,-1.20735c0.25745,0.50144 0.46527,0.90494 0.65917,1.23385zM213.78767,171.53364c0.58753,1.11796 0.96642,2.23399 1.06546,3.00551c1.65773,0.95126 1.00548,2.908 1.00548,2.908l-3.38904,3.24201c-1.34725,-0.29987 -3.0812,-0.94732 -4.63347,-1.89342c-2.69429,-0.28251 -5.30301,-1.46573 -6.06372,-3.11288c-2.57422,-5.57387 2.13269,-7.47572 6.38059,-8.09634c0.29276,-0.08077 0.58142,-0.11564 0.86478,-0.11036c1.0737,-0.11806 2.0811,-0.16128 2.88803,-0.17111c0,0 2.5,0 2.5,2.5c0,0.81065 -0.26286,1.35843 -0.61811,1.72859z" fill="#000000" stroke-width="0.5"/><path d="M270.98191,195.62613c3.61172,-1.57584 8.79288,2.85589 6.9671,6.84602c-1.04339,2.28026 -10.90749,4.38522 -12.01454,-0.2333c-0.54394,-2.26929 1.56791,-4.60649 3.2932,-6.17777c0.46453,-0.42306 1.08856,-0.47716 1.75424,-0.43494z" fill="#000000" stroke-width="0.5"/><g><path d="M290.82671,250.44231c0,4.45017 0.17862,8.18268 -1.20662,12.45479c-3.34059,8.00948 -12.06492,13.28764 -20.05503,15.75853c-5.22498,1.6158 -10.80306,2.82909 -16.14963,3.76868c-2.55389,0.44881 -5.186,0.03228 -7.77903,0.03228c-9.11225,0 -17.64128,-0.99988 -26.68388,-2.13028c-5.30138,-0.79935 -11.80455,-3.14377 -16.32858,-6.18823c-0.45923,-0.30904 -4.62312,-4.60247 -5.00515,-4.94184c-2.2682,-2.0149 -3.34061,-1.76953 -4.8611,-5.08569c-1.52834,-3.33327 -0.49928,-6.86074 -0.20505,-10.22531c0.11667,-1.33414 -0.25093,-2.71343 0.05471,-4.01732c1.39509,-5.95162 5.80337,-11.11926 8.51009,-16.55917c-0.08056,-0.02677 -0.16109,-0.05361 -0.24159,-0.08053c-11.57541,-4.49962 -22.15987,-9.60635 -29.08434,-20.54087c-2.22185,-3.50855 -3.29228,-8.73846 -4.44929,-12.66898c-3.84223,-13.05262 -4.03101,-27.87546 0.48135,-40.92396c0.45103,-12.74318 3.4256,-26.05359 -2.49893,-37.8745l-1.11609,-3.32838c0,0 -0.30884,-0.92654 0.03865,-1.81441c-0.6474,-0.38102 -1.64685,-1.26661 -1.09273,-2.92897c0.79057,-2.37171 3.16228,-1.58114 3.16228,-1.58114c5.44197,1.83906 9.57442,5.22597 15.18042,6.81943l0.35299,-0.03796c0.15746,-0.13466 0.27041,-0.20526 0.27041,-0.20526c7.84739,-4.90197 15.37312,-10.24967 23.07197,-15.38262c2.84302,-1.89548 5.65231,-4.39238 8.75328,-5.813c2.38544,-1.09282 5.08772,-1.43308 7.41154,-2.65146c4.74543,-2.48803 9.22765,-4.95452 14.54596,-6.03505l2.40225,-0.01014c0.41207,-0.0594 0.80262,0.00157 1.10458,0.08494c0.31324,0.07591 0.69694,0.21807 1.03544,0.48432c7.60801,4.45871 12.70158,11.86016 20.2434,16.68956l1.38408,0.68035c6.68274,-1.95195 12.89841,-5.80012 18.34247,-10.13696c6.55482,-5.2217 13.43042,-11.81422 22.14128,-12.02056h2.10817c0,0 0.4723,0 1.00633,0.20529c0.29885,-0.12775 0.66158,-0.20529 1.10183,-0.20529c2.5,0 2.5,2.5 2.5,2.5c0,0.73884 0.00667,9.05749 -0.02417,9.30645c-0.61262,4.94598 -2.43928,9.67935 -3.67224,14.5257c7.78848,-0.09105 15.64358,-0.40108 23.29537,1.12253l2.34043,1.08596c0.74072,0.1784 1.17277,0.62831 1.42476,1.09246c0.30464,0.4361 0.51469,1.02913 0.33616,1.77909c-0.22854,4.37871 -2.40323,8.28578 -3.80716,12.47866c-1.75288,5.23498 -3.42735,10.73034 -4.9541,16.01319c-2.4821,8.58854 -1.11256,19.12228 -5.71269,26.97933c-2.19783,5.45123 -2.51637,11.2098 -2.90815,16.9857c-0.23741,3.5001 -1.05526,6.65777 -1.07196,10.18331l-1.1261,4.02934c0,0 -0.48608,1.70127 -2.07161,1.83243c-2.98823,9.23614 -7.81377,17.73046 -15.2881,24.46147c-2.67067,3.01129 -5.86592,5.3432 -9.37243,7.13446c3.74787,4.12512 4.16557,8.80964 4.16557,14.89965zM198.90219,248.3042c-0.43031,0.92688 -1.20314,1.71577 -1.4286,2.71249c-0.24723,1.09295 0.1427,2.24414 0.05471,3.36125c-0.18823,2.38972 -1.27882,5.29506 -0.20505,7.69408c0.7507,1.67722 2.30266,2.21835 3.57155,3.34697c1.58976,1.41401 2.70452,3.37495 4.48159,4.5449c3.90666,2.57199 9.66021,4.7979 14.23979,5.40667c8.8333,1.10408 17.12287,2.08604 26.02021,2.08604c2.32606,0 4.69259,0.46466 6.97812,0.03228c5.13369,-0.9712 10.43647,-2.06885 15.47282,-3.60989c6.18082,-1.89123 14.42259,-6.25409 16.83783,-12.70168c1.23665,-3.57929 0.90154,-6.95804 0.90154,-10.73501c0,-5.38304 0.09222,-9.29304 -4.13919,-12.77233c-5.23879,1.85546 -10.89597,2.77736 -16.38815,3.14511c-19.81065,1.32648 -40.24901,-0.39201 -59.35864,-5.99844c-2.16804,4.64489 -4.86251,8.80037 -7.03855,13.48756zM317.49428,150.88584c1.62617,-8.17405 4.29355,-16.60435 6.94083,-24.57981c1.04681,-3.15372 3.07504,-6.588 3.48564,-9.89932l-0.02922,-0.01655c-8.29686,-1.6673 -16.90916,-1.00553 -25.33472,-1.00553c-0.86824,0 -1.43494,-0.30154 -1.80483,-0.69517c-0.39363,-0.36989 -0.69517,-0.93659 -0.69517,-1.80483c0,-0.11746 0.00552,-0.22941 0.01604,-0.3361l0.03251,-0.68124c1.12643,-5.63215 3.47494,-11.04437 4.19194,-16.72177c0.25547,-2.02294 0.13588,-4.06869 0.04511,-6.11295h-1.7856c-1.64607,-0.05985 -3.25657,0.66365 -4.75281,1.35241c-5.42442,2.49702 -9.55124,5.83706 -14.27817,9.58299c-6.05545,4.79873 -12.91147,8.97239 -20.33733,11.10414c0,0 -0.51358,0.14674 -1.13379,0.06717c-0.89902,0.17814 -1.72512,-0.23491 -1.72512,-0.23491l-2.33965,-1.18569c-3.52382,-2.26277 -4.28964,-2.60412 -7.68875,-5.50527c-4.38341,-3.74125 -7.21279,-8.06054 -12.18031,-10.96788l-1.72487,-0.00879c-4.662,0.90954 -8.71403,3.41152 -12.86017,5.55985c-2.30807,1.19593 -4.9755,1.55123 -7.34561,2.61894c-2.91527,1.3133 -5.54963,3.7224 -8.22419,5.50531c-7.74009,5.15968 -15.30868,10.53052 -23.19547,15.46235c0,0 -0.25903,0.1619 -0.6526,0.28196c-0.73426,0.62508 -1.72648,0.62508 -1.72648,0.62508l-2.26792,-0.09619c-3.21915,-0.92412 -4.91408,-1.23356 -7.94306,-2.8747c-0.87592,-0.47458 -1.63799,-0.9518 -2.3694,-1.41437l0.13295,0.4015c4.3274,8.67498 4.23936,17.90432 3.63701,27.2155c0.11205,-0.21952 0.22452,-0.43885 0.33748,-0.65795c-0.1207,3.73302 -0.02032,7.47084 0.04494,11.20835c-0.42279,0.96301 -0.81431,1.94037 -1.17526,2.93011c-0.013,0.63304 -0.01963,1.2654 -0.01866,1.89694c0,0 0,1.615 -1.29805,2.24891c-3.05489,11.20206 -2.53333,23.56813 0.67129,34.47196c1.03698,3.52836 1.97215,8.4434 3.98337,11.5749c6.33544,9.86435 15.98179,14.25829 26.44862,18.33051c19.90876,6.64938 41.49364,8.65185 62.39967,7.29994c4.77505,-0.30878 9.78684,-1.06436 14.44318,-2.62786c0.78323,-1.22135 1.95521,-1.16002 2.63479,-0.9909c3.97742,-1.66812 7.58818,-4.02202 10.42289,-7.31135c14.41085,-12.90405 18.09825,-32.90245 18.12221,-51.45548c0.90508,-1.10045 1.75468,-3.09017 2.47224,-5.28769c0.98041,-1.06241 1.73342,-2.33786 2.18172,-3.74904c0.04104,0.48157 0.07798,0.96412 0.11105,1.44756c1.64669,-4.70287 1.16413,-10.10125 2.13174,-14.96505z" fill="#000000" stroke-width="0.5"/><path d="M198.85303,248.29501c2.17604,-4.68719 4.87688,-8.85936 7.04492,-13.50425c19.10963,5.60643 39.6328,7.32371 59.44345,5.99723c5.49218,-0.36775 11.15275,-1.28348 16.39154,-3.13894c4.23141,3.47929 4.14336,7.40374 4.14336,12.78678c0,3.77697 0.33521,7.16782 -0.90144,10.74711c-2.41524,6.44759 -10.66496,10.83236 -16.84578,12.72359c-5.03635,1.54104 -10.35746,2.65534 -15.49115,3.62654c-2.28553,0.43238 -4.66559,-0.02745 -6.99165,-0.02745c-8.89734,0 -17.23433,-0.99795 -26.06763,-2.10203c-4.57958,-0.60877 -10.3423,-2.84989 -14.24896,-5.42188c-1.77707,-1.16995 -2.89387,-3.13765 -4.48363,-4.55166c-1.26889,-1.12862 -2.82166,-1.67425 -3.57236,-3.35147c-1.07377,-2.39902 0.01643,-5.31305 0.20466,-7.70277c0.08799,-1.11711 -0.30163,-2.27209 -0.0544,-3.36504c0.22546,-0.99672 0.99879,-1.78889 1.4291,-2.71577z" data-paper-data="{&quot;noHover&quot;:false,&quot;origItem&quot;:[&quot;Path&quot;,{&quot;applyMatrix&quot;:true,&quot;segments&quot;:[[[198.90219,248.3042],[0,0],[-0.43031,0.92688]],[[197.47359,251.01669],[0.22546,-0.99672],[-0.24723,1.09295]],[[197.5283,254.37794],[0.08799,-1.11711],[-0.18823,2.38972]],[[197.32325,262.07202],[-1.07377,-2.39902],[0.7507,1.67722]],[[200.8948,265.41899],[-1.26889,-1.12862],[1.58976,1.41401]],[[205.37639,269.96389],[-1.77707,-1.16995],[3.90666,2.57199]],[[219.61618,275.37056],[-4.57958,-0.60877],[8.8333,1.10408]],[[245.63639,277.4566],[-8.89734,0],[2.32606,0]],[[252.61451,277.48888],[-2.28553,0.43238],[5.13369,-0.9712]],[[268.08733,273.87899],[-5.03635,1.54104],[6.18082,-1.89123]],[[284.92516,261.17731],[-2.41524,6.44759],[1.23665,-3.57929]],[[285.8267,250.4423],[0,3.77697],[0,-5.38304]],[[281.68751,237.66997],[4.23141,3.47929],[-5.23879,1.85546]],[[265.29936,240.81508],[5.49218,-0.36775],[-19.81065,1.32648]],[[205.94072,234.81664],[19.10963,5.60643],[-2.16804,4.64489]],[[198.90217,248.3042],[2.17604,-4.68719],[0,0]]],&quot;closed&quot;:true,&quot;fillColor&quot;:[0,0,0],&quot;strokeWidth&quot;:0.5}]}" fill="#667eff" stroke-width="0.25"/><path d="M317.54358,150.87742c-0.96761,4.8638 -0.4844,10.273 -2.13109,14.97587c-0.03307,-0.48344 -0.06997,-0.96707 -0.11101,-1.44864c-0.4483,1.41118 -1.20148,2.68957 -2.18189,3.75198c-0.71756,2.19752 -1.56772,4.19157 -2.4728,5.29202c-0.02396,18.55303 -3.73185,38.58373 -18.1427,51.48778c-2.83471,3.28933 -6.45261,5.64742 -10.43003,7.31554c-0.67958,-0.16912 -1.85322,-0.22969 -2.63645,0.99166c-4.65634,1.5635 -9.67723,2.32204 -14.45228,2.63082c-20.90603,1.35191 -42.53044,-0.6584 -62.4392,-7.30778c-10.46683,-4.07222 -20.12633,-8.47971 -26.46177,-18.34406c-2.01122,-3.1315 -2.94982,-8.05268 -3.9868,-11.58104c-3.20462,-10.90383 -3.73092,-23.29019 -0.67603,-34.49225c1.29805,-0.63391 1.29804,-2.25037 1.29804,-2.25037c-0.00097,-0.63154 0.00569,-1.26515 0.01869,-1.89819c0.36095,-0.98974 0.75258,-1.96908 1.17537,-2.93209c-0.06526,-3.73751 -0.16457,-7.48256 -0.04387,-11.21558c-0.11296,0.2191 -0.22553,0.43889 -0.33758,0.65841c0.60235,-9.31118 0.69547,-18.55414 -3.63193,-27.22912l-0.13287,-0.40164c0.73141,0.46257 1.49346,0.93983 2.36938,1.41441c3.02898,1.64114 4.72432,1.94985 7.94347,2.87397l2.26826,0.0956c0,0 0.9927,-0.0008 1.72696,-0.62588c0.39357,-0.12006 0.6528,-0.28229 0.6528,-0.28229c7.88679,-4.93183 15.46819,-10.31639 23.20828,-15.47607c2.67456,-1.78291 5.31498,-4.19581 8.23025,-5.50911c2.37011,-1.06771 5.04266,-1.42537 7.35073,-2.6213c4.14614,-2.14833 8.20778,-4.65302 12.86978,-5.56256l1.72606,0.00859c4.96752,2.90734 7.80581,7.22608 12.18922,10.96733c3.39911,2.90115 4.17221,3.24324 7.69603,5.50601l2.34197,1.18616c0,0 0.82768,0.41343 1.7267,0.23529c0.62021,0.07957 1.13476,-0.06691 1.13476,-0.06691c7.42586,-2.13175 14.29264,-6.30098 20.34809,-11.09971c4.72693,-3.74593 8.85756,-7.08362 14.28198,-9.58064c1.49624,-0.68876 3.10816,-1.41126 4.75423,-1.35141l1.78623,0.00047c0.09077,2.04426 0.212,4.0913 -0.04347,6.11424c-0.717,5.6774 -3.06173,11.09308 -4.18816,16.72523l-0.03228,0.68147c-0.01052,0.10669 -0.01593,0.21876 -0.01593,0.33622c0,0.86824 0.3024,1.43585 0.69603,1.80574c0.36989,0.39363 0.9374,0.69607 1.80564,0.69607c8.42556,0 17.04345,-0.65401 25.34031,1.01329l0.02923,0.01656c-0.4106,3.31132 -2.43693,6.74918 -3.48374,9.9029c-2.64728,7.97546 -5.31046,16.41897 -6.93663,24.59302z" data-paper-data="{&quot;noHover&quot;:false,&quot;origItem&quot;:[&quot;Path&quot;,{&quot;applyMatrix&quot;:true,&quot;segments&quot;:[[[317.49428,150.88584],[0,0],[1.62617,-8.17405]],[[324.43511,126.30603],[-2.64728,7.97546],[1.04681,-3.15372]],[[327.92075,116.40671],[-0.4106,3.31132],[0,0]],[[327.89153,116.39016],[0,0],[-8.29686,-1.6673]],[[302.55681,115.38463],[8.42556,0],[-0.86824,0]],[[300.75198,114.68946],[0.36989,0.39363],[-0.39363,-0.36989]],[[300.05681,112.88463],[0,0.86824],[0,-0.11746]],[[300.07285,112.54853],[-0.01052,0.10669],[0,0]],[[300.10536,111.86729],[0,0],[1.12643,-5.63215]],[[304.2973,95.14552],[-0.717,5.6774],[0.25547,-2.02294]],[[304.34241,89.03257],[0.09077,2.04426],[0,0]],[[302.55681,89.03257],[0,0],[-1.64607,-0.05985]],[[297.804,90.38498],[1.49624,-0.68876],[-5.42442,2.49702]],[[283.52583,99.96797],[4.72693,-3.74593],[-6.05545,4.79873]],[[263.1885,111.07211],[7.42586,-2.13175],[0,0]],[[262.05471,111.13928],[0.62021,0.07957],[-0.89902,0.17814]],[260.32959,110.90437],[[257.98994,109.71868],[0,0],[-3.52382,-2.26277]],[[250.30119,104.21341],[3.39911,2.90115],[-4.38341,-3.74125]],[[238.12088,93.24553],[4.96752,2.90734],[0,0]],[[236.39601,93.23674],[0,0],[-4.662,0.90954]],[[223.53584,98.79659],[4.14614,-2.14833],[-2.30807,1.19593]],[[216.19023,101.41553],[2.37011,-1.06771],[-2.91527,1.3133]],[[207.96604,106.92084],[2.67456,-1.78291],[-7.74009,5.15968]],[[184.77057,122.38319],[7.88679,-4.93183],[0,0]],[[184.11797,122.66515],[0.39357,-0.12006],[-0.73426,0.62508]],[182.39149,123.29023],[[180.12357,123.19404],[0,0],[-3.21915,-0.92412]],[[172.18051,120.31934],[3.02898,1.64114],[-0.87592,-0.47458]],[[169.81111,118.90497],[0.73141,0.46257],[0,0]],[[169.94406,119.30647],[0,0],[4.3274,8.67498]],[[173.58107,146.52197],[0.60235,-9.31118],[0.11205,-0.21952]],[[173.91855,145.86402],[-0.11296,0.2191],[-0.1207,3.73302]],[[173.96349,157.07237],[-0.06526,-3.73751],[-0.42279,0.96301]],[[172.78823,160.00248],[0.36095,-0.98974],[-0.013,0.63304]],[[172.76957,161.89942],[-0.00097,-0.63154],[0,0]],[[171.47152,164.14833],[1.29805,-0.63391],[-3.05489,11.20206]],[[172.14281,198.62029],[-3.20462,-10.90383],[1.03698,3.52836]],[[176.12618,210.19519],[-2.01122,-3.1315],[6.33544,9.86435]],[[202.5748,228.5257],[-10.46683,-4.07222],[19.90876,6.64938]],[[264.97447,235.82564],[-20.90603,1.35191],[4.77505,-0.30878]],[[279.41765,233.19778],[-4.65634,1.5635],[0.78323,-1.22135]],[[282.05244,232.20688],[-0.67958,-0.16912],[3.97742,-1.66812]],[[292.47533,224.89553],[-2.83471,3.28933],[14.41085,-12.90405]],[[310.59754,173.44005],[-0.02396,18.55303],[0.90508,-1.10045]],[[313.06978,168.15236],[-0.71756,2.19752],[0.98041,-1.06241]],[[315.2515,164.40332],[-0.4483,1.41118],[0.04104,0.48157]],[[315.36255,165.85088],[-0.03307,-0.48344],[1.64669,-4.70287]],[[317.49429,150.88583],[-0.96761,4.8638],[0,0]]],&quot;closed&quot;:true,&quot;fillColor&quot;:[0,0,0],&quot;strokeWidth&quot;:0.5}]}" fill="#66ecff" stroke-width="0.25"/></g><path d="M195.53384,178.76474c0,-2.34721 1.90279,-4.25 4.25,-4.25c2.34721,0 4.25,1.90279 4.25,4.25c0,2.34721 -1.90279,4.25 -4.25,4.25c-2.34721,0 -4.25,-1.90279 -4.25,-4.25z" fill="#ffffff" stroke-width="0.5"/><path d="M279.33334,187.72444c0,-2.34721 1.90279,-4.25 4.25,-4.25c2.34721,0 4.25,1.90279 4.25,4.25c0,2.34721 -1.90279,4.25 -4.25,4.25c-2.34721,0 -4.25,-1.90279 -4.25,-4.25z" fill="#ffffff" stroke-width="0.5"/></g></g></svg>