<svg version="1.1" xmlns="http://www.w3.org/2000/svg" xmlns:xlink="http://www.w3.org/1999/xlink" width="438.01044" height="441.54139" viewBox="0,0,438.01044,441.54139"><g transform="translate(-5.93755,-11.52711)"><g data-paper-data="{&quot;isPaintingLayer&quot;:true}" fill-rule="nonzero" stroke="none" stroke-linecap="butt" stroke-linejoin="miter" stroke-miterlimit="10" stroke-dasharray="" stroke-dashoffset="0" style="mix-blend-mode: normal"><g><path d="M355.59853,420.28678c0.92128,3.68509 -1.77996,5.19668 -2.97588,5.67428c-0.20049,0.3563 -0.41341,0.71434 -0.63946,1.07474c-1.33332,2.1258 -3.34776,3.74665 -4.85887,5.74997c-0.9834,1.30371 -1.43671,3.00232 -2.59006,4.1584c-2.5466,2.55262 -5.84291,4.26621 -8.43219,6.77553c-0.92083,0.38931 -7.78798,3.33945 -8.95287,3.65727c-6.48985,1.77056 -13.47376,1.70589 -20.04226,3.11062c-12.5973,2.69402 -25.50305,2.38484 -38.43866,2.38484c-8.04782,0 -16.31719,0.44609 -24.35875,-0.00739c-7.3026,-0.41181 -8.09705,-1.18236 -15.62288,-2.32211c-4.6111,-0.69833 -9.31527,-0.47482 -13.97277,-0.71467c-8.10855,-0.41757 -15.96165,-2.35168 -24.04929,-3.08983c-4.16557,-0.9541 -8.26315,-2.36455 -12.08846,-4.26963c-6.11296,-3.04437 -11.84277,-4.78099 -15.73145,-11.13595c-2.01003,-3.28483 -1.87451,-7.86816 -1.36418,-12.11604c-0.15553,-0.77712 -0.10239,-1.67149 0.35911,-2.64678c0.17112,-1.16991 0.34212,-2.28234 0.46973,-3.29734c0.44109,-3.50853 0.03791,-7.51573 0.8105,-10.95685c0.11725,-0.52224 2.95826,-7.69048 3.33111,-8.56013c1.67574,-3.9085 3.50859,-7.72888 5.35239,-11.54114c-0.79352,-0.80698 -1.3699,-2.03402 -1.13793,-3.88976c0.4965,-3.97199 3.87325,-4.24082 5.01535,-4.21638c1.28151,-2.75568 2.51544,-5.53635 3.64779,-8.37152c0,0 0.09007,-0.22517 0.2803,-0.55442c-0.63127,-0.18344 -1.26362,-0.36193 -1.89773,-0.53211c-16.61349,-4.62524 -35.63836,-12.8567 -47.65906,-25.83549c-1.34196,-1.44891 -2.1672,-3.30348 -3.31824,-4.90824c-4.18916,-5.84046 -9.30182,-10.91008 -12.57211,-17.40517c-1.02073,-2.02728 -1.52911,-4.27671 -2.41089,-6.36818c-2.2068,-5.23423 -5.97686,-12.51068 -7.73698,-17.85785c-2.33814,-7.10316 -2.1744,-14.66176 -3.17344,-21.99544c-0.10087,-0.74042 -0.20856,-1.47983 -0.32146,-2.21848c-10.35164,2.33793 -19.6786,2.54995 -30.70187,1.69034c-3.71441,-1.00878 -12.18032,-2.79911 -15.73378,-5.44368c-4.51432,-3.35966 -5.99033,-9.81502 -10.35516,-13.08216c-0.24521,-0.18355 -0.54584,0.30152 -0.84734,0.35552c-1.3961,0.25008 -2.88812,0.06169 -4.21901,0.55198c-6.06917,2.23584 -12.47555,7.71053 -19.30285,3.21119c-7.67355,-5.05706 -7.70822,-17.02046 -8.94758,-24.86972c-1.30487,-8.26419 -2.9145,-16.6944 -3.82109,-25.01256c-1.15294,-10.57841 -0.54502,-21.0921 0.04579,-31.66936c0.90268,-3.15683 3.7809,-13.29443 4.20633,-14.19267c1.38184,-2.91753 3.65744,-5.32067 5.50317,-7.96921c3.82861,-5.49382 8.18275,-10.64919 12.91333,-15.38858c10.42824,-10.44767 21.05741,-21.04754 33.50384,-29.17355c0.4562,-0.29785 17.72339,-9.55916 18.04166,-9.6711c3.32795,-1.17046 6.90872,-1.44479 10.39198,-2.00348c2.23978,-0.35925 4.49596,-0.80818 6.76347,-0.75623c-0.13919,-0.16815 -0.22562,-0.34704 -0.1854,-0.55691c0.64592,-3.3704 2.15732,-6.51579 3.19713,-9.7862c1.33571,-4.20109 2.44954,-9.26702 3.87981,-13.1518c2.17414,-5.90529 5.19826,-11.46194 7.80429,-17.18977c5.47482,-9.96472 10.72813,-21.04596 19.79378,-28.43815c11.76514,-9.59337 28.02925,-12.63053 42.68608,-13.29094c22.98325,-1.03556 49.46919,-2.82818 68.8395,10.88862c5.96462,0.2635 12.44296,1.97469 17.64092,4.23743c2.01813,0.87852 4.19945,1.60905 5.84665,3.06899c0.76626,0.67914 1.40819,1.4723 2.0002,2.31124c4.32332,-2.26955 8.72264,-4.35456 13.65398,-5.65232c1.52307,-0.40081 3.14223,-0.21997 4.71448,-0.31182c8.98003,-0.52467 17.5632,-0.57272 26.51497,0.6886c7.25568,1.02235 12.58521,1.54393 19.69509,3.52011c7.30368,2.03005 13.63611,5.79873 20.08451,9.58939c13.7996,8.11204 26.9441,15.67177 38.86172,26.49428c4.30192,4.30071 8.51249,8.69471 12.90388,12.90402c2.21233,2.1206 4.93177,3.77122 6.76082,6.23007c2.08479,2.80264 3.17548,6.22283 4.80194,9.31408c2.89064,5.49395 5.83242,11.00822 7.93221,16.85031c6.65018,18.50225 4.67935,38.61695 4.03064,57.80714c-0.30505,9.024 -0.03856,17.8908 -0.77841,26.91069c-0.66869,8.15242 -2.03673,16.31468 -3.05124,24.43002c-2.11059,19.00013 -5.77717,37.49803 -11.63904,55.73922c-5.08032,15.80915 -15.64026,30.55825 -24.75379,44.22939c-6.83947,10.25985 -13.28283,21.40603 -23.05244,29.27256c-7.58265,6.10559 -9.32584,6.13993 -18.18542,9.94811c-2.98677,0.83685 -5.96987,1.70312 -8.95427,2.57172c0.89825,1.75565 1.74279,3.44539 2.00903,4.10769c0.67886,1.68871 0.78021,3.65311 1.81711,5.14891c3.28297,4.73596 5.45788,8.98616 7.90862,14.24272c1.91701,4.11177 4.16252,7.35589 4.94324,11.89217c0.68083,3.95588 0.06237,8.87704 0.06237,12.92639c0,2.69482 -0.12618,5.13429 -0.58336,7.48466c0.1751,0.3539 0.32408,0.75765 0.43914,1.21791zM195.56114,437.53913c-1.16046,-0.29648 -2.36276,-0.34632 -3.5684,-0.38025c0.05331,0.01165 0.10665,0.02315 0.16001,0.03452c1.22177,0.11063 2.43844,0.25133 3.65167,0.41134c-0.08082,-0.0229 -0.16191,-0.04481 -0.24328,-0.0656zM179.45997,423.39127c2.55415,1.49036 7.61615,3.28584 10.5835,3.95758c2.56461,0.58056 5.29233,0.18922 7.84633,0.81482c13.23984,3.24311 28.37127,4.41483 42.1296,4.41483c16.1904,0 32.08736,-0.65186 48.13476,-2.25512c6.2793,-0.62735 12.52299,-1.45661 18.82339,-2.25939c1.76934,-0.22545 3.60486,-0.09764 5.31775,-0.59503c1.72531,-0.501 3.12311,-1.85152 4.84721,-2.35667c1.11287,-0.32605 2.33679,0.12361 3.47797,-0.08252c3.96989,-0.71707 8.4088,-2.37746 12.23172,-3.65178c4.46449,-1.11916 8.62382,-2.65977 13.05677,-3.67392c0.09902,-0.30898 0.18633,-0.62756 0.2606,-0.95693c0.37859,-1.67907 -0.08716,-3.4417 -0.08716,-5.16291c0,-3.56327 0.61782,-7.87375 0.06237,-11.37897c-0.40822,-2.5761 -3.39546,-7.71419 -4.17128,-9.37501c-0.81397,-1.74252 -2.83682,-6.96827 -4.11434,-9.09406l-3.49979,1.71786c-6.17044,1.58523 -12.26968,1.40571 -18.37158,2.51628c-4.51673,0.82206 -8.44806,2.33611 -13.20997,2.31749c-14.54261,3.01333 -29.31955,0.79761 -44.01048,0.01751c-11.85283,-0.6294 -23.80115,0.56471 -35.65862,0.00182c-13.92485,-0.66103 -27.88938,-2.11711 -41.74988,-3.79078c-1.02184,2.10144 -2.04658,4.20867 -3.05147,6.34303c-1.68613,3.5813 -4.80033,9.16363 -5.70149,13.28328c-0.70436,3.21997 -0.29744,7.00333 -0.70858,10.31034c-0.09127,0.73412 -0.18128,1.44496 -0.26576,2.14314c2.53951,2.37687 4.89805,5.08523 7.82844,6.79514zM326.98949,355.76034c2.27447,-2.27447 4.54895,-1.51963 5.81476,-0.76147c3.98255,-1.15643 7.96096,-2.32131 11.94976,-3.41826c7.34282,-3.13599 9.0246,-3.23966 15.23444,-8.28091c8.98404,-7.29338 14.85937,-17.72171 21.16819,-27.18434c8.64912,-12.97286 18.91442,-27.07522 23.68976,-42.10769c5.58583,-17.58385 9.11375,-35.33821 11.14723,-53.63489c1.00379,-8.03106 2.36678,-16.11275 3.02509,-24.1807c0.71788,-8.79794 0.44603,-17.45518 0.74067,-26.25729c0.60451,-18.05939 2.71199,-37.1815 -3.56478,-54.60514c-1.92066,-5.33154 -4.69943,-10.31891 -7.30405,-15.35182c-1.35469,-2.61767 -2.16306,-5.55919 -3.91941,-7.92617c-1.52391,-2.05372 -3.88119,-3.33413 -5.73961,-5.09093c-4.42272,-4.18088 -8.6077,-8.6063 -12.91058,-12.91042c-11.33984,-10.32226 -23.96197,-17.42962 -37.10251,-25.16459c-5.75493,-3.38756 -11.36204,-6.83491 -17.89261,-8.63961c-6.44196,-1.78022 -11.7186,-2.2929 -18.32819,-3.22521c-8.37312,-1.18106 -16.24302,-1.04712 -24.63058,-0.60887c-1.11211,0.05811 -2.26206,-0.15126 -3.33812,0.13554c-4.55584,1.21426 -8.69402,3.2783 -12.77142,5.49541c-0.31696,0.44553 -0.74937,0.88286 -1.3276,1.29589c-1.04293,0.74495 -2.00678,1.01549 -2.8601,1.01095c-2.05614,1.12959 -4.12793,2.23734 -6.26115,3.23397l-0.14484,0.55686c0,0 -3.41544,3.41545 -6.83089,0c-3.41544,-3.41545 0,-6.83089 0,-6.83089l2.89333,-2.48131c0.98523,-0.45843 1.95493,-0.93345 2.91372,-1.41896c-1.66067,-0.87654 -5.97419,-2.26119 -6.66952,-2.44725c-0.94309,-0.25236 -1.8756,-0.55381 -2.80809,-0.85458c-0.14278,0.23631 -0.31353,0.47446 -0.51578,0.71326c0.90513,0.90764 1.57105,1.94761 1.7965,3.2024c0.49462,2.75296 -3.70196,4.27938 -6.01805,5.84756c-0.1763,0.11937 -0.38515,0.23544 -0.6206,0.34815c0.45224,0.50859 0.88128,1.03316 1.25281,1.59594c3.43368,5.2014 4.36985,11.46118 6.6471,17.09587c1.87724,6.61345 4.24989,15.55358 2.40911,22.4203c-2.53231,9.44632 -9.19574,13.67528 -17.26089,18.09043c-13.81354,7.56201 -29.65185,12.32422 -44.77905,16.41046c-6.13952,1.65844 -12.4164,2.7714 -18.66937,3.93097c-1.16948,0.21688 -2.63396,0.09338 -3.43251,0.97489c-0.47957,0.5294 0.65146,1.307 0.72138,2.01788c0.3003,3.05334 -0.53059,6.17444 -0.04669,9.2041c0.27676,1.73273 1.16471,3.3262 1.47471,5.0533c1.02696,5.72126 1.46808,11.45194 -0.69345,17.0773c-1.29698,3.3754 -3.70991,6.20795 -5.56486,9.31191c-7.59074,9.86214 -16.33295,19.25473 -25.66588,27.53555c-3.79617,3.36823 -8.5717,5.45803 -12.60975,8.53213c-0.252,0.19184 0.53211,0.44477 0.57153,0.75902c0.15754,1.25607 0.00017,2.5318 0,3.7977c-0.00039,2.82732 0.05288,5.65516 -0.00167,8.48195c-0.17949,9.29991 -0.23203,20.4997 -2.5478,29.57081c-0.39905,1.56312 -1.61699,2.79292 -2.47563,4.15869c-1.8928,3.01076 -3.2685,6.44887 -5.77758,8.96918c-3.85417,3.8714 -6.33447,5.33096 -9.44911,6.37034c0.1805,1.13097 0.35091,2.26346 0.50547,3.3983c0.91886,6.74608 0.62398,13.87211 2.81095,20.38243c2.52734,7.5235 6.07278,15.75262 9.60022,22.8656c2.96965,5.9882 7.90252,10.62787 11.73325,16.0147c0.97166,1.36637 1.62339,2.97195 2.7581,4.20626c6.97877,7.59133 16.7181,11.95363 25.79191,16.29488c5.52195,2.64191 11.23657,4.97523 17.14139,6.58913c4.52616,1.21469 8.94798,2.91356 13.57488,3.65746c17.97242,2.88958 36.38455,3.36326 54.53032,4.12037c18.37499,0.76668 38.07864,2.00276 56.2517,-1.10964c7.24745,-1.24124 14.37458,-3.07244 21.46279,-5.06595c0.22754,-0.38689 0.52959,-0.77895 0.92164,-1.171zM231.48531,42.63434c-0.35375,-1.76876 0.08512,-3.00909 0.77397,-3.86901c0.18235,-0.71039 0.56777,-1.4335 1.28682,-2.07143c-0.35484,-0.60293 -0.59452,-1.36903 -0.63074,-2.34244c-7.72415,1.33076 -9.76395,1.00506 -17.16237,3.55262c-11.83092,4.07382 -22.21845,10.79808 -32.16823,18.2338c-11.13332,8.32022 -21.75943,17.68268 -30.54689,28.43486c-10.75428,13.11021 -17.61165,27.48056 -24.89882,42.68752c-1.9097,3.98518 -4.47398,7.68926 -5.90109,11.87162c-5.66716,16.60852 -8.80073,33.97752 -11.10635,51.27428c-1.83501,13.76625 -3.56169,26.85639 -3.70085,40.76891c-0.06312,6.19719 -0.90504,12.81801 -0.07914,18.93917c0.24965,1.85019 0.54204,3.69402 0.85231,5.5352c1.62658,-0.90479 3.07437,-1.96024 4.23385,-3.18445c1.98339,-2.09412 2.98154,-4.93882 4.52273,-7.37682c0.47699,-0.75456 1.33872,-1.32603 1.52999,-2.198c1.82727,-8.32996 1.84849,-18.17435 2.00944,-26.63532c0.07625,-4.00783 -0.25252,-8.02499 -0.00167,-12.02569c0.11156,-1.77915 -0.5142,-3.90346 0.57154,-5.31732c3.75934,-4.89544 10.12435,-7.11095 14.73378,-11.21598c8.71344,-7.75992 16.99406,-16.52311 24.09126,-25.75558c4.34416,-6.99339 6.36774,-10.82187 4.74794,-19.06014c-1.12054,-5.69909 -1.95379,-10.21085 -1.61014,-16.1243c0.13795,-2.37373 -0.734,-5.21634 0.72139,-7.09662c4.67417,-6.03883 12.38284,-5.34478 18.73383,-6.69339c8.66619,-1.84024 17.28327,-4.72412 25.67245,-7.51892c8.73369,-2.90958 17.94418,-6.0597 26.05344,-10.49898c4.87565,-2.6691 11.17216,-5.84447 12.49778,-11.83622c1.16399,-5.26121 -0.70011,-12.04933 -2.14815,-17.07591c-1.87513,-4.73237 -2.6046,-10.50354 -5.50556,-14.80492c-1.15601,-1.71406 -2.64564,-3.20548 -3.93251,-4.82553c-1.40619,-0.25649 -3.11195,-1.1305 -3.64005,-3.771zM175.56324,21.87533c-12.46242,0.54264 -26.96672,2.86922 -36.99502,11.11552c-7.93676,6.52643 -12.46493,16.55314 -17.27682,25.29233c-2.45763,5.41211 -5.33448,10.6516 -7.38657,16.2301c-1.56428,4.25242 -2.33246,8.43927 -3.71561,12.67264c-0.92345,2.82639 -2.1062,5.57164 -2.87921,8.44282c-0.53496,1.98698 0.3562,4.56772 -1.03243,6.08627c-1.62574,1.77785 -4.44779,1.91509 -6.79204,2.47025c-5.0716,1.20105 -10.55145,0.5757 -15.46241,2.32101c-2.80103,0.99546 -5.21017,2.86381 -7.82427,4.27916c-5.40463,2.92626 -10.59741,6.29367 -15.43881,10.07967c-8.91628,6.97257 -16.64366,14.1973 -24.67031,22.20838c-4.34244,4.334 -8.2989,9.08284 -11.83126,14.0991c-1.55885,2.21369 -3.55505,4.16832 -4.71116,6.61656c-1.72447,3.65179 -2.21028,7.76916 -3.38909,11.63177c-0.47577,9.70754 -1.01817,19.39106 0.04579,29.09404c0.89172,8.13228 2.47389,16.37473 3.74946,24.45338c0.92032,5.82875 0.45126,13.6932 4.74905,18.32852c0.78798,0.84986 2.35861,-0.12735 3.42993,-0.56947c5.00313,-2.06474 13.19753,-7.50848 19.29252,-4.42634c6.22055,3.14562 7.31942,10.37889 12.43111,14.26137c1.61704,1.22819 11.44336,3.62523 11.60975,3.67084c6.04319,0.45734 12.12966,0.46855 18.18092,0.13444c2.71845,-0.1501 6.02046,-0.5663 9.33919,-1.34225c-0.46334,-2.66576 -0.90697,-5.33437 -1.25315,-8.0172c-0.83528,-6.47346 -0.02825,-13.39678 0.03818,-19.93145c0.14778,-14.28604 1.89136,-27.75647 3.77727,-41.88725c2.40962,-18.05482 5.69067,-36.23151 11.67992,-53.54257c1.52665,-4.41256 4.18154,-8.35037 6.19912,-12.56115c7.62246,-15.90835 14.90081,-30.90926 26.13863,-44.63608c9.32197,-11.34738 20.46155,-21.24662 32.23505,-30.04936c10.75502,-8.04125 22.0422,-15.25608 34.83593,-19.64022c7.0537,-2.41715 9.45598,-2.51146 15.22845,-3.38041c-16.11795,-5.9956 -35.93592,-4.217 -52.30209,-3.50438zM98.69286,95.39042c0.12158,0.21963 0.18055,0.36221 0.11398,0.20006c-0.02862,-0.0697 -0.06769,-0.1361 -0.11398,-0.20006zM210.44701,439.77906c-0.40845,-0.06246 -0.81855,-0.11145 -1.22991,-0.15033c0.40963,0.0526 0.81958,0.10284 1.22991,0.15033z" fill="#000000" stroke-width="0.5"/><path d="M179.4043,423.40265c-2.93039,-1.7099 -5.28975,-4.42352 -7.82926,-6.8004c0.08448,-0.69818 0.17435,-1.41037 0.26563,-2.14449c0.41114,-3.307 0.00405,-7.09709 0.70841,-10.31707c0.90116,-4.11964 4.01646,-9.71125 5.70259,-13.29255c1.00489,-2.13437 2.03078,-4.24625 3.05262,-6.34769c13.8605,1.67367 27.82928,3.11924 41.75413,3.78027c11.85747,0.56289 23.85539,-0.66162 35.70822,-0.03222c14.69092,0.7801 29.52076,3.03014 44.06337,0.01681c4.76191,0.01862 8.69432,-1.49275 13.21105,-2.31481c6.1019,-1.11056 12.20208,-0.9283 18.37252,-2.51352l3.49968,-1.71824c1.27752,2.12578 3.30204,7.358 4.11601,9.10052c0.77582,1.66083 3.76395,6.80535 4.17217,9.38146c0.55545,3.50522 -0.06227,7.82312 -0.06227,11.38638c0,1.72121 0.46549,3.48718 0.0869,5.16624c-0.07427,0.32937 -0.16165,0.64858 -0.26067,0.95757c-4.43295,1.01414 -8.59289,2.55866 -13.05737,3.67781c-3.82292,1.27431 -8.26306,2.93979 -12.23295,3.65686c-1.14118,0.20613 -2.36538,-0.2426 -3.47825,0.08345c-1.72411,0.50514 -3.12309,1.85915 -4.84841,2.36014c-1.71289,0.49739 -3.54941,0.37205 -5.31875,0.5975c-6.3004,0.80279 -12.55169,1.64469 -18.83099,2.27204c-16.04739,1.60326 -32.02285,2.26529 -48.21325,2.26529c-13.75833,0 -28.9095,-1.19878 -42.14934,-4.44189c-2.554,-0.6256 -5.28251,-0.23677 -7.84712,-0.81733c-2.96735,-0.67173 -8.0305,-2.47182 -10.58465,-3.96218z" data-paper-data="{&quot;noHover&quot;:false,&quot;origItem&quot;:[&quot;Path&quot;,{&quot;applyMatrix&quot;:true,&quot;segments&quot;:[[[352.97136,771.94871],[0,0],[4.49472,2.6227]],[[371.59592,778.91315],[-5.22186,-1.1821],[4.51314,1.02166]],[[385.40368,780.34705],[-4.49446,-1.10092],[23.29912,5.70714]],[[459.54224,788.11615],[-24.21154,0],[28.49144,0]],[[544.24852,784.14765],[-28.23978,2.82138],[11.05014,-1.104]],[[577.37342,780.17163],[-11.08728,1.41272],[3.11364,-0.39674]],[[586.73146,779.12451],[-3.0143,0.8753],[3.03616,-0.88164]],[[595.26146,774.97731],[-3.03404,0.88894],[1.9584,-0.57378]],[[601.3819,774.83209],[-2.00822,0.36274],[6.9861,-1.26188]],[[622.90696,768.40579],[-6.72748,2.2425],[7.8565,-1.96946]],[[645.88392,761.94053],[-7.80098,1.78466],[0.17426,-0.54374]],[[646.34252,760.25655],[-0.1307,0.57962],[0.66624,-2.95478]],[[646.18914,751.17099],[0,3.02894],[0,-6.27054]],[[646.2989,731.14657],[0.97746,6.1684],[-0.71838,-4.53336]],[[638.9584,714.64867],[1.36526,2.92268],[-1.4324,-3.06644]],[[631.7181,698.64519],[2.24814,3.7409],[0,0]],[[625.55926,701.66823],[0,0],[-10.85858,2.78964]],[[593.22944,706.09631],[10.73796,-1.95434],[-7.94842,1.44664]],[[569.98288,710.17457],[8.37988,0.03276],[-25.5917,5.30278]],[[492.5344,710.20539],[25.8527,1.3728],[-20.8583,-1.1076]],[[429.7833,710.20859],[20.86646,0.99056],[-24.50458,-1.16326]],[[356.31296,703.53767],[24.39134,2.94528],[-1.7982,3.69806]],[[350.94306,714.69997],[1.76838,-3.756],[-2.9672,6.30228]],[[340.90972,738.07553],[1.58584,-7.24964],[-1.23952,5.66642]],[[339.66278,756.21939],[0.72352,-5.81958],[-0.16062,1.29188]],[[339.1951,759.99083],[0.14866,-1.22864],[4.46896,4.18276]],[[352.97138,771.94873],[-5.15682,-3.00904],[0,0]]],&quot;closed&quot;:true,&quot;fillColor&quot;:[0,0,0,1]}]}" fill="#ffffff" stroke-width="0.5"/><path d="M327.01033,355.81323c-0.39205,0.39205 -0.69451,0.78427 -0.92205,1.17116c-7.08822,1.99351 -14.22242,3.82692 -21.46987,5.06816c-18.17306,3.1124 -37.89587,1.87761 -56.27086,1.11093c-18.14577,-0.75711 -36.57525,-1.23543 -54.54767,-4.12501c-4.6269,-0.7439 -9.0527,-2.44473 -13.57886,-3.65943c-5.90482,-1.6139 -11.62431,-3.9502 -17.14626,-6.59211c-9.0738,-4.34125 -18.82044,-8.70948 -25.79922,-16.30081c-1.13471,-1.23431 -1.78753,-2.84096 -2.75918,-4.20733c-3.83073,-5.38683 -8.76767,-10.03109 -11.73733,-16.01929c-3.52744,-7.11298 -7.07725,-15.34843 -9.60459,-22.87193c-2.18697,-6.51031 -1.89503,-13.64197 -2.81388,-20.38805c-0.15457,-1.13484 -0.32542,-2.26835 -0.50592,-3.39932c3.11464,-1.03938 5.59464,-2.49965 9.44881,-6.37105c2.50908,-2.5203 3.88394,-5.96057 5.77674,-8.97135c0.85863,-1.36578 2.07618,-2.5967 2.47523,-4.15982c2.31578,-9.07111 2.36574,-20.28198 2.54523,-29.58189c0.05455,-2.8268 0.00093,-5.65816 0.00132,-8.48548c0.00017,-1.2659 0.15745,-2.54322 -0.00009,-3.7993c-0.03941,-0.31424 -0.82354,-0.5675 -0.57154,-0.75935c4.03804,-3.0741 8.81358,-5.16764 12.60976,-8.53587c9.33293,-8.28083 18.07789,-17.68907 25.66863,-27.55121c1.85495,-3.10397 4.27003,-5.94211 5.56701,-9.3175c2.16153,-5.62536 1.72438,-11.36342 0.69742,-17.08467c-0.31001,-1.7271 -1.19698,-3.32203 -1.47375,-5.05476c-0.4839,-3.02966 0.34917,-6.15376 0.04887,-9.20709c-0.06992,-0.71089 -1.20062,-1.48891 -0.72105,-2.01832c0.79855,-0.88151 2.26393,-0.7591 3.43341,-0.97598c6.25296,-1.15957 12.53542,-2.2783 18.67495,-3.93674c15.12721,-4.08624 30.98838,-8.86096 44.80192,-16.42296c8.06515,-4.41515 14.73915,-8.64599 17.27146,-18.0923c1.84078,-6.86672 -0.52252,-15.69357 -2.39975,-22.30703c-2.27726,-5.63469 -3.21153,-11.89467 -6.64521,-17.09606c-0.37153,-0.56279 -0.80018,-1.0874 -1.25242,-1.59599c0.23545,-0.11271 0.43038,-0.34157 0.60668,-0.46093c2.31608,-1.56818 6.51501,-3.09484 6.02039,-5.8478c-0.22545,-1.25479 -0.88184,-2.18152 -1.78697,-3.08916c0.20225,-0.2388 0.36313,-0.59017 0.50591,-0.82648c0.93248,0.30077 1.86594,0.60213 2.80903,0.85451c0.69533,0.18606 5.01112,1.57059 6.67179,2.44713c-0.95878,0.48551 -1.9242,1.07408 -2.90943,1.53252l-2.89225,2.48125c0,0 -3.42309,3.30205 -0.00765,6.71749c3.41545,3.41545 6.83345,-0.00013 6.83345,-0.00013l0.14489,-0.55686c2.13322,-0.99663 4.20734,-2.10438 6.26348,-3.23397c0.85331,0.00455 1.8182,-0.26597 2.86113,-1.01091c0.57823,-0.41303 1.01111,-0.85034 1.32806,-1.29588c4.0774,-2.21711 8.21992,-4.28079 12.77576,-5.49505c1.07606,-0.2868 2.22714,-0.07728 3.33925,-0.13539c8.38756,-0.43825 16.26552,-0.57044 24.63865,0.61062c6.60959,0.93231 11.89198,1.44704 18.33395,3.22726c6.53057,1.8047 12.14358,5.25491 17.89852,8.64248c13.14054,7.73497 25.77446,14.8511 37.11431,25.17336c4.30288,4.30412 8.49192,8.7339 12.91464,12.91479c1.85842,1.75679 4.21724,3.03912 5.74115,5.09284c1.75635,2.36697 2.56639,5.31079 3.92108,7.92845c2.60462,5.03291 5.38632,10.02498 7.30696,15.35652c6.27676,17.42364 4.17543,36.56278 3.57093,54.62217c-0.29464,8.80211 -0.02182,17.46881 -0.7397,26.26675c-0.65831,8.06795 -2.02185,16.15866 -3.02564,24.18971c-2.03348,18.29667 -5.5676,36.06996 -11.15343,53.65381c-4.77534,15.03247 -15.05072,29.14833 -23.69984,42.12119c-6.30882,9.46263 -12.19293,19.89808 -21.17697,27.19146c-6.20983,5.04125 -7.89654,5.1478 -15.23936,8.28379c-3.98881,1.09695 -7.9709,2.26358 -11.95345,3.42001c-1.26581,-0.75815 -3.54205,-1.51227 -5.81652,0.7622z" data-paper-data="{&quot;noHover&quot;:false,&quot;origItem&quot;:[&quot;Path&quot;,{&quot;applyMatrix&quot;:true,&quot;segments&quot;:[[[612.58992,652.93359],[0,0],[4.00256,-4.00256]],[[622.82258,651.59357],[-2.22754,-1.33418],[7.00838,-2.03506]],[[643.85146,645.57821],[-7.0194,1.93038],[12.9217,-5.51864]],[[670.66062,631.00569],[-10.9279,8.87146],[15.80988,-12.8347]],[[707.91184,583.16741],[-11.1021,16.65208],[15.2205,-22.8293]],[[749.60046,509.06741],[-8.40352,26.45374],[9.8298,-30.9436]],[[769.21706,414.68215],[-3.57846,32.198],[1.76644,-14.13284]],[[774.54054,372.12959],[-1.15848,14.19776],[1.2633,-15.48238]],[[775.84396,325.92271],[-0.5185,15.48972],[1.0638,-31.78044]],[[769.57076,229.83003],[11.04568,30.66166],[-3.37992,-9.3823]],[[756.71728,202.81431],[4.58354,8.85678],[-2.38394,-4.6065]],[[749.82,188.86605],[3.09078,4.16534],[-2.68174,-3.61408]],[[739.71958,179.90717],[3.2704,3.09156],[-7.78298,-7.3574]],[[716.99988,157.18775],[7.5721,7.57428],[-19.95556,-18.16484]],[[651.70786,112.90377],[23.12438,13.6118],[-10.12738,-5.96134]],[[620.22092,97.70001],[11.49232,3.17586],[-11.3364,-3.13278]],[[587.96746,92.02437],[11.63138,1.64066],[-14.7348,-2.0784]],[[544.62322,90.95289],[14.7602,-0.77122],[-1.95706,0.10226]],[[538.74888,91.19141],[1.89362,-0.5047],[-8.01724,2.13682]],[[516.27408,100.86209],[7.1753,-3.90162],[-0.55778,0.78404]],[[513.9378,103.14257],[1.01756,-0.72684],[-1.83532,1.31094]],[[508.90468,104.92161],[1.50164,0.008],[-3.61834,1.98782]],[[497.88648,110.61267],[3.75398,-1.75384],[0,0]],[497.6316,111.59261],[[485.61078,111.59261],[6.01042,6.01042],[-6.0104,-6.01042]],[485.61078,99.57179],[[490.70238,95.20525],[0,0],[1.73378,-0.80674]],[[495.82986,92.70821],[-1.68724,0.85438],[-2.9224,-1.54252]],[[484.09302,88.40161],[1.22362,0.32742],[-1.65962,-0.4441]],[[479.15142,86.89775],[1.64096,0.52928],[-0.25126,0.41586]],[[478.24376,88.15293],[0.35592,-0.42024],[1.59282,1.59724]],[[481.4052,93.78843],[-0.39674,-2.20814],[0.87042,4.84458]],[[470.8148,104.07881],[4.07578,-2.75964],[-0.31024,0.21006]],[[469.72268,104.69147],[0.41434,-0.19834],[0.79584,0.895]],[[471.92734,107.49997],[-0.6538,-0.99038],[6.0425,9.15328]],[[483.62474,137.58483],[-4.00746,-9.91578],[3.30352,11.63818]],[[487.86422,177.03949],[3.23936,-12.08388],[-4.4563,16.62338]],[[457.48896,208.87455],[14.19284,-7.76966],[-24.3087,13.30742]],[[378.68796,237.75325],[26.62046,-7.19086],[-10.80416,2.91848]],[[345.8341,244.67087],[11.0038,-2.04058],[-2.05802,0.38166]],[[339.79366,246.38645],[1.40526,-1.55126],[-0.84394,0.93162]],[[341.06312,249.93747],[-0.12304,-1.251],[0.52846,5.37318]],[[340.98096,266.13461],[-0.85156,-5.33152],[0.48704,3.04922]],[[343.57612,275.02727],[-0.54554,-3.0393],[1.80722,10.06812]],[[342.3558,305.07945],[3.8038,-9.89936],[-2.2824,5.93994]],[[332.5629,321.46631],[3.2643,-5.46228],[-13.35798,17.35514]],[[287.39676,369.92265],[16.42384,-14.57238],[-6.6804,5.92732]],[[265.20646,384.93727],[7.10604,-5.40972],[-0.44346,0.3376]],[[266.21222,386.27297],[-0.06936,-0.553],[0.27724,2.2104]],[[266.21222,392.95607],[0.0003,-2.2277],[-0.00068,4.97544]],[[266.20928,407.88239],[0.096,-4.97452],[-0.31586,16.36574]],[[261.72572,459.92033],[4.07524,-15.9631],[-0.70224,2.75074]],[[257.36918,467.23869],[1.511,-2.40346],[-3.3309,5.29826]],[[247.20194,483.02241],[4.41542,-4.43516],[-6.78246,6.81278]],[[230.57364,494.23277],[5.48106,-1.82908],[0.31764,1.99026]],[[231.46316,500.21301],[-0.272,-1.99706],[1.61698,11.87158]],[[236.4098,536.08147],[-3.84858,-11.45668],[4.44754,13.23966]],[[253.30402,576.31975],[-6.2075,-12.51724],[5.22592,10.53788]],[[273.95188,604.50199],[-6.74122,-9.4796],[1.7099,2.4045]],[[278.80552,611.90405],[-1.99684,-2.1721],[12.28106,13.35902]],[[324.19344,640.57935],[-15.96784,-7.63962],[9.71738,4.64916]],[[354.3584,652.17473],[-10.39114,-2.8401],[7.96502,2.13758]],[[378.24712,658.61103],[-8.1423,-1.3091],[31.6274,5.085]],[[474.20814,665.86195],[-31.93244,-1.33234],[32.33582,1.34918]],[[573.1984,663.90923],[-31.98048,5.47712],[12.75388,-2.1843]],[[610.96806,654.99431],[-12.47366,3.50812],[0.40042,-0.68084]],[[612.58994,652.93361],[-0.68992,0.68992],[0,0]]],&quot;closed&quot;:true,&quot;fillColor&quot;:[0,0,0,1]}]}" fill="#584529" stroke-width="0.5"/><path d="M175.58666,21.82357c16.36617,-0.71261 36.19917,-2.48128 52.31711,3.51432c-5.77247,0.86895 -8.249,1.04923 -15.30271,3.46638c-12.79374,4.38414 -24.07458,11.60342 -34.8296,19.64467c-11.7735,8.80275 -22.90389,18.70649 -32.22586,30.05386c-11.23782,13.72682 -18.48859,28.731 -26.11105,44.63935c-2.01758,4.21078 -4.63127,8.12184 -6.15792,12.5344c-5.98925,17.31106 -9.29692,35.4057 -11.70654,53.46052c-1.88591,14.13078 -3.6368,27.59873 -3.78458,41.88477c-0.06643,6.53467 -0.87594,13.45739 -0.04066,19.93085c0.34618,2.68283 0.76697,5.46276 1.23032,8.12852c-3.31873,0.77595 -6.62473,1.19123 -9.34318,1.34133c-6.05126,0.33411 -12.14505,0.32039 -18.18824,-0.13695c-0.1664,-0.04561 -9.99746,-2.44491 -11.61449,-3.6731c-5.11169,-3.88248 -6.21734,-11.12001 -12.43789,-14.26563c-6.09499,-3.08213 -14.29344,2.35833 -19.29657,4.42307c-1.07132,0.44213 -2.6426,1.41875 -3.43058,0.56889c-4.29779,-4.63531 -3.83341,-12.50456 -4.75374,-18.33331c-1.27557,-8.07865 -2.86344,-16.32894 -3.75515,-24.46123c-1.06396,-9.70298 -0.52691,-19.39816 -0.05114,-29.10571c1.17881,-3.86261 1.66318,-7.98522 3.38765,-11.63701c1.15611,-2.44824 3.15171,-4.40592 4.71056,-6.61961c3.53236,-5.01626 7.48805,-9.77301 11.8305,-14.10701c8.02665,-8.01108 15.75683,-15.25498 24.67312,-22.22755c4.84141,-3.786 10.04077,-7.16702 15.4454,-10.09329c2.6141,-1.41535 5.02865,-3.29066 7.82968,-4.28612c4.91096,-1.74532 10.40335,-1.13028 15.47494,-2.33133c2.34426,-0.55516 5.1749,-0.69667 6.80065,-2.47452c1.38863,-1.51855 0.50108,-4.10057 1.03603,-6.08756c0.77301,-2.87119 1.96108,-5.61786 2.88453,-8.44424c1.38316,-4.23337 2.15663,-8.42109 3.72091,-12.67352c2.05209,-5.5785 4.93529,-10.81838 7.39293,-16.23048c4.81189,-8.73919 9.34913,-18.76522 17.28589,-25.29165c10.0283,-8.2463 24.54726,-10.56851 37.00968,-11.11114z" data-paper-data="{&quot;noHover&quot;:false,&quot;origItem&quot;:[&quot;Path&quot;,{&quot;applyMatrix&quot;:true,&quot;segments&quot;:[[[173.057,32.68577],[0,0],[-10.96552,0.47746]],[[140.50557,42.46617],[8.82377,-7.25581],[-6.98345,5.74252]],[[125.30392,64.72056],[4.23392,-7.6895],[-2.16244,4.76204]],[[118.80457,79.00121],[1.80561,-4.90845],[-1.37639,3.74165]],[[115.53525,90.1517],[1.21702,-3.72489],[-0.81253,2.4869]],[[113.00187,97.58043],[0.68016,-2.52632],[-0.4707,1.74832]],[[112.09345,102.93566],[1.22184,-1.33615],[-1.43047,1.56431]],[[106.11722,105.1092],[2.06268,-0.48848],[-4.46243,1.05679]],[[92.51205,107.15143],[4.32109,-1.53568],[-2.46459,0.87589]],[[85.62758,110.91661],[2.30011,-1.24535],[-4.75546,2.57478]],[[72.04317,119.78558],[4.25989,-3.33125],[-7.84532,6.13507]],[[50.33609,139.32644],[7.06254,-7.04884],[-3.82086,3.81343]],[[39.92592,151.73205],[3.10808,-4.41374],[-1.37161,1.9478]],[[35.78063,157.55387],[1.01725,-2.15417],[-1.51734,3.21316]],[[32.79861,167.78851],[1.03722,-3.39866],[-0.41862,8.54154]],[[32.8389,193.38797],[-0.93616,-8.53752],[0.78461,7.15549]],[[36.138,214.90418],[-1.12236,-7.1083],[0.80978,5.12864]],[[40.31663,231.0312],[-3.78157,-4.07855],[0.69333,0.74778]],[[43.33458,230.53013],[-0.94264,0.38902],[4.40219,-1.81674]],[[60.30981,226.63545],[-5.3629,-2.71193],[5.47338,2.76779]],[[71.24778,239.18384],[-4.49771,-3.41614],[1.42281,1.08067]],[[81.46305,242.41376],[-0.14641,-0.04013],[5.31732,0.40241]],[[97.4602,242.53205],[-5.32442,0.29398],[2.39193,-0.13207]],[[105.67763,241.35102],[-2.92011,0.68275],[-0.40769,-2.34557]],[[104.575,234.29679],[0.3046,2.36059],[-0.73495,-5.69591]],[[104.60859,216.75937],[-0.05845,5.74977],[0.13003,-12.5701]],[[107.93216,179.90333],[-1.65939,12.43349],[2.12019,-15.8862]],[[118.20917,132.79193],[-5.26986,15.23177],[1.34328,-3.88255]],[[123.66369,121.73954],[-1.77524,3.70501],[6.7069,-13.99755]],[[146.66273,82.46484],[-9.88801,12.07805],[8.20228,-9.98441]],[[175.02593,56.0248],[-10.35935,7.74542],[9.4632,-7.07539]],[[205.67761,38.74363],[-11.25704,3.85755],[6.20646,-2.12682]],[[219.07692,35.76925],[-5.07912,0.76458],[-14.18197,-5.27545]],[[173.057,32.68579],[14.40038,-0.62702],[0,0]]],&quot;closed&quot;:true,&quot;fillColor&quot;:[0,0,0],&quot;strokeWidth&quot;:0.5}]}" fill="#302617" stroke-width="0.25"/><path d="M231.51198,42.58417c0.5281,2.6405 2.23601,3.51571 3.64221,3.7722c1.28687,1.62005 2.77899,3.11304 3.93501,4.8271c2.90096,4.30137 3.63601,10.07675 5.51114,14.80912c1.44804,5.02658 3.3177,11.82016 2.15371,17.08137c-1.32561,5.99175 -7.70738,9.24228 -12.58303,11.91138c-8.10926,4.43928 -17.31214,7.59662 -26.04583,10.5062c-8.38918,2.7948 -16.98065,5.69005 -25.64684,7.53029c-6.35099,1.34862 -14.02375,0.64888 -18.69792,6.68771c-1.45539,1.88028 -0.57522,4.71764 -0.71317,7.09137c-0.34365,5.91345 0.51101,10.38972 1.63155,16.08881c1.6198,8.23828 -0.41937,12.01723 -4.76353,19.01062c-7.0972,9.23247 -15.4577,18.07649 -24.17114,25.83641c-4.60943,4.10503 -10.89405,6.24023 -14.65338,11.13567c-1.08574,1.41386 -0.46167,3.53649 -0.57323,5.31564c-0.25085,4.00071 0.074,8.01445 -0.00225,12.02228c-0.16095,8.46097 -0.18832,18.30111 -2.01559,26.63107c-0.19127,0.87196 -1.1114,1.54093 -1.5884,2.29549c-1.54119,2.43801 -2.53937,5.28268 -4.52276,7.3768c-1.15948,1.22421 -2.60801,2.27921 -4.23459,3.184c-0.31028,-1.84118 -0.60405,-3.68589 -0.8537,-5.53609c-0.8259,-6.12116 0.01171,-12.74514 0.07483,-18.94233c0.13917,-13.91253 1.85475,-27.01463 3.68976,-40.78088c2.30561,-17.29676 5.42948,-34.70404 11.09664,-51.31256c1.4271,-4.18236 3.99447,-7.89977 5.90417,-11.88495c7.28716,-15.20697 14.17698,-29.61075 24.93126,-42.72096c8.78746,-10.75218 19.43873,-20.1185 30.57205,-28.43871c9.94978,-7.43572 20.35245,-14.15675 32.18337,-18.23057c7.39842,-2.54755 9.44451,-2.21914 17.16866,-3.5499c0.03622,0.97341 0.27657,1.73985 0.63141,2.34278c-0.71906,0.63792 -1.10455,1.36099 -1.2869,2.07138c-0.68885,0.85992 -1.12725,2.1005 -0.7735,3.86926z" data-paper-data="{&quot;noHover&quot;:false,&quot;origItem&quot;:[&quot;Path&quot;,{&quot;applyMatrix&quot;:true,&quot;segments&quot;:[[[222.26209,50.95135],[0,0],[-0.31126,-1.55631]],[[222.9431,47.54706],[-0.60611,0.75663],[0.16045,-0.62506]],[[224.07536,45.72444],[-0.63269,0.5613],[-0.31222,-0.53051]],[[223.52038,43.66336],[0.03187,0.85649],[-6.79638,1.17092]],[[208.41944,46.78926],[6.50977,-2.24156],[-10.40987,3.5845]],[[180.11504,62.83294],[8.75468,-6.54259],[-9.79606,7.32085]],[[153.23723,87.8524],[7.73197,-9.4607],[-9.46255,11.5355]],[[131.32909,125.41259],[6.41188,-13.38041],[-1.68032,3.50651]],[[126.1368,135.85827],[1.25569,-3.68],[-4.98646,14.61362]],[[116.36447,180.97383],[2.02868,-15.21919],[-1.6146,12.11274]],[[113.10814,216.84586],[0.12245,-12.24145],[-0.05554,5.45283]],[[113.03851,233.51019],[-0.7267,-5.38593],[0.21966,1.62796]],[[113.78845,238.38054],[-0.27301,-1.62003],[1.43121,-0.79611]],[[117.51376,235.57858],[-1.02021,1.07717],[1.74516,-1.84259]],[[121.49325,229.08781],[-1.35607,2.14517],[0.4197,-0.66393]],[[122.83947,227.15382],[-0.1683,0.76723],[1.60779,-7.32942]],[[124.60755,203.71775],[-0.14162,7.4447],[0.06709,-3.52644]],[[124.60608,193.1365],[-0.22072,3.52017],[0.09816,-1.56545]],[[125.10897,188.45786],[-0.95533,1.24404],[3.30779,-4.30743]],[[138.07303,178.58907],[-4.05578,3.61196],[7.66684,-6.82785]],[[159.27061,155.92707],[-6.24473,8.12353],[3.82237,-6.15339]],[[163.44826,139.1563],[1.42524,7.24875],[-0.98595,-5.01455]],[[162.03152,124.96874],[-0.30237,5.20317],[0.12138,-2.08861]],[[162.66626,118.72452],[-1.28058,1.65443],[4.11274,-5.31349]],[[179.14991,112.83509],[-5.58815,1.18663],[7.62527,-1.6192]],[[201.73876,106.21929],[-7.38153,2.45911],[7.68466,-2.5601]],[[224.66284,96.98138],[-7.13523,3.90606],[4.29002,-2.34851]],[[235.65947,86.56685],[-1.16639,5.27206],[1.02418,-4.62927]],[[233.76934,71.54198],[1.27411,4.42282],[-1.6499,-4.16395]],[[228.92507,58.51533],[2.55252,3.78472],[-1.01716,-1.50818]],[[225.46491,54.26941],[1.1323,1.42546],[-1.23729,-0.22568]],[[222.26208,50.95136],[0.46467,2.32334],[0,0]]],&quot;closed&quot;:true,&quot;fillColor&quot;:[0,0,0],&quot;strokeWidth&quot;:0.5}]}" fill="#302617" stroke-width="0.25"/></g><path d="M306.85911,389.07086c-3.19467,0 -4.27639,-2.11295 -4.64265,-3.54384c-12.41888,3.54513 -24.95491,6.58202 -37.89172,6.58202c-9.21548,-0.01676 -18.85915,-1.69231 -27.78273,-3.94883c-3.93611,-0.99532 -7.41191,-3.38025 -11.30414,-4.53534c-1.10499,-0.32793 -2.37546,0.283 -3.45585,-0.11866c-1.36589,-0.50782 -2.24806,-1.92357 -3.58661,-2.49958c-10.23758,-4.40557 -22.93214,-0.7633 -33.63678,-2.63171c-1.70748,-0.29803 -3.2681,-1.17174 -4.94787,-1.59915c-1.74053,-0.44286 -3.62983,-0.32903 -5.29311,-1.00657c-2.61893,-1.06683 -4.54882,-3.414 -7.08205,-4.67086c-3.32218,-1.64831 -7.02065,-2.78869 -10.45316,-4.20726c-11.48556,-1.36803 -24.99003,-0.34694 -35.51241,-5.8851c-1.36664,-0.7193 -2.09064,-2.29778 -3.32305,-3.22852c-1.10513,-0.83462 -2.68362,-1.01041 -3.62936,-2.02208c-2.23092,-2.3864 -3.09602,-6.42855 -4.15818,-9.34949c-1.13003,-3.10759 -2.72463,-6.0355 -3.81334,-9.15781c-1.40412,-4.02692 -1.50081,-8.41365 -1.78601,-12.6688c-0.46779,-6.97908 -1.56899,-14.14432 -2.26481,-21.10937c-0.19962,-1.99809 -0.70524,-3.96989 -0.74821,-5.97745c-0.02408,-1.12484 1.09648,-2.3475 0.54893,-3.33037c-0.34864,-0.62581 -1.37096,0.41624 -2.05643,0.62435c-2.38955,-0.6289 -4.9092,-0.88653 -7.16864,-1.88672c-8.04464,-3.56112 -10.17067,-12.74926 -13.02022,-19.98239c-0.50896,-1.29194 -1.52204,-2.40838 -1.75756,-3.77685c-0.40634,-2.36104 -0.09893,-4.79053 -0.12921,-7.18608c-0.07061,-5.58742 -0.13601,-8.80158 2.87464,-13.71746c1.00893,-1.64739 1.5681,-3.81105 3.21387,-4.82263c1.64356,-1.01022 3.84135,-0.38407 5.74692,-0.68519c1.5603,-0.24655 4.00483,-1.20364 5.2797,-1.81174c1.92455,-0.91798 3.20392,-2.81807 4.72088,-4.31654c1.25905,-1.24371 3.02272,-1.94661 4.15127,-3.30983c0.66101,-0.79845 0.61259,-1.98457 1.02061,-2.93747c1.15251,-2.69164 3.06285,-5.73839 4.48163,-8.17711c0.48294,-2.03731 1.63256,-3.89038 2.01751,-5.94845c0.65839,-3.51995 -0.51829,-7.32486 -0.82319,-10.7633c-0.36184,-4.08066 -0.36532,-8.0892 -0.75954,-12.15268c-1.42274,-14.66501 0.37504,-29.48406 5.588,-43.15262c0.68574,-1.79802 0.93661,-3.79674 1.94576,-5.43526c1.8019,-2.92568 5.22972,-4.92412 7.72332,-7.13605c3.80746,-3.37738 7.59207,-6.03857 11.19903,-9.69041c0.01891,-0.0189 7.7353,-7.7922 8.3519,-8.2124c1.12666,-0.76783 2.66327,-0.7628 3.7977,-1.51908c1.17566,-0.78376 1.79211,-2.25486 2.9892,-3.00545c4.07533,-2.55528 9.66855,-3.11116 13.55545,-5.99508c3.23909,-2.40326 5.68461,-5.77236 8.47038,-8.55775c1.1464,-1.14625 2.64687,-1.89638 3.79772,-3.03816c3.5758,-3.54766 6.45105,-8.38201 9.44486,-12.40353c0.55493,-0.74544 1.39638,-1.30437 1.7667,-2.15672c0.60208,-1.38576 0.28942,-3.11558 1.08268,-4.40149c0.66463,-1.0774 2.3356,-1.22559 3.03817,-2.27863c0.48243,-0.72307 -0.01265,-1.76011 0.21597,-2.59874c1.23142,-4.51705 3.04006,-9.15653 4.78091,-13.51459c5.18136,-10.37818 10.8237,-19.31292 18.08711,-28.36095c1.82143,-2.26895 2.69905,-5.32043 4.89954,-7.22401c7.30509,-6.31945 12.16666,-5.24362 20.91583,-5.24362c14.87331,0 29.80413,-0.37176 44.64202,0.7906c3.58734,0.28102 7.25146,0.12562 10.75251,0.95666c0.38254,0.09081 4.2708,2.40708 6.72177,3.87891c1.6771,-0.31751 3.37864,-0.47691 5.19938,-0.28587c2.7739,0.29106 5.31119,1.73267 8.0329,2.34228c0.88324,0.19783 1.8174,-0.16808 2.71492,-0.05096c2.27297,0.29661 6.85817,1.93593 8.79022,2.35254c16.34647,3.52475 32.06373,8.97356 48.14342,13.59904c9.27,2.6666 19.8265,5.30207 28.01756,10.6968c2.14503,1.41274 3.66103,3.60345 5.49154,5.4052c1.22088,1.70286 6.10616,8.11774 6.94262,10.62054c1.80894,5.41264 0.65027,6.19755 1.02577,11.14772c0.37665,4.96546 1.91796,9.15034 2.96318,13.86029c0.19237,0.86682 -0.35007,1.81387 -0.08811,2.66225c0.89284,2.89163 3.35391,5.04614 5.22405,7.42549c3.12699,3.97841 6.51865,7.96808 8.32296,12.69569c5.57626,14.6108 4.10429,30.97235 7.1124,46.01286c0.04473,8.13274 1.74444,15.79893 2.29045,23.89973c0.65876,9.77336 -1.83974,18.74404 -2.27111,28.42585c-0.29306,6.57768 0.29964,13.96051 -0.84253,20.46079c-0.32375,1.84249 -4.58351,10.96685 -5.02643,11.51473c-0.04729,0.0585 -6.95539,3.9644 -7.50598,4.38804c-3.64015,2.80086 -7.54312,6.58262 -10.3189,10.31342c-3.1285,4.20489 -2.99061,11.10239 -3.84039,16.00335c-2.02029,4.73338 -2.73131,9.45967 -4.73006,14.16206c-0.80993,1.90551 -1.62416,3.84474 -2.82268,5.53309c-0.99823,1.40618 -2.68583,2.226 -3.68372,3.63242c-0.67623,0.95309 -0.6999,2.2408 -1.22441,3.28509c-1.64853,3.28217 -3.61473,5.92232 -6.0448,8.67042c-0.20911,0.23646 -6.46598,6.47314 -6.61317,6.59037c-1.63048,1.29858 -3.39603,2.42783 -5.19513,3.48046c-0.62793,0.36739 -1.52999,0.24515 -2.04712,0.75687c-1.45716,1.44192 -0.88769,2.53195 -0.86391,4.17998c0.05691,3.94247 0.19256,9.77286 -0.96679,13.55238c-2.09717,6.83685 -5.65323,10.05047 -9.93025,15.2446c-1.10002,1.33589 -1.568,3.15793 -2.80394,4.36918c-1.02772,1.00719 -2.52044,1.38925 -3.78066,2.08387c-4.41818,3.23948 -6.91463,8.32728 -12.82276,9.70668c-1.42109,0.33179 -2.96906,-0.42737 -4.37767,-0.04605c-1.30037,0.35201 -2.14495,1.71618 -3.41817,2.15643c-5.93421,2.05189 -12.59499,0.90233 -18.73358,2.43367c-4.2181,1.05225 -8.22474,2.92994 -12.32423,4.38952c-0.03392,0.15025 -0.06876,0.29998 -0.10452,0.44919l0.14421,1.10714c0,0 0,4.83017 -4.83017,4.83017zM303.58423,369.21922c0.21133,-1.42076 -0.2039,-2.96353 0.33147,-4.29643c0.45655,-1.13663 1.92953,-1.61637 2.48248,-2.70936c0.46928,-0.92761 0.12362,-2.09894 0.44946,-3.08612c0.70978,-2.1504 2.3379,-3.92281 3.03816,-6.07634c1.10231,-3.38998 2.4033,-6.71832 3.8363,-9.9823c0.68282,-1.55528 0.20313,-3.39918 0.5062,-5.07048c1.445,-7.96837 2.99148,-15.42194 2.99148,-23.6354c0,-3.40253 -0.32497,-7.09372 0.03619,-10.46422c0.53646,-5.00638 1.25663,-10.96338 -2.07797,-15.46026c-1.24963,-1.68517 -3.46987,-2.36245 -5.14065,-3.63125c-9.79989,-7.44205 -24.56169,-5.052 -36.12216,-5.13382c-6.83358,1.41595 -13.84279,1.2301 -20.58766,2.92143c-2.09821,0.52615 -3.97756,1.75474 -6.07634,2.27862c-2.043,0.50996 -4.20073,0.39127 -6.26593,0.80223c-7.09545,1.41194 -13.86088,4.24513 -20.61501,6.65436c-4.43584,1.58229 -9.38162,3.33596 -13.91348,4.6361c-0.93585,0.26849 -2.02502,-0.04903 -2.89489,0.38824c-0.77449,0.38932 -1.01348,1.45581 -1.73354,1.93843c-2.28069,1.52866 -5.09883,2.0802 -7.05799,4.10719c-2.95814,3.06056 -5.85988,5.84246 -8.8771,8.86748c-3.69019,4.34743 -2.54615,8.70447 -2.56664,14.24813c-0.01001,2.70946 0.00284,6.1989 0.63033,8.76431c1.13912,4.65711 4.43208,9.40626 5.97126,14.05496c0.67985,2.05331 0.42602,4.38673 1.33271,6.35044c0.51496,1.11533 1.69705,1.8272 2.23048,2.93382c1.47879,3.06783 1.89035,6.93033 1.97348,10.34114c6.49464,0.30971 13.23335,0.28922 19.55832,1.40741c2.48498,0.43932 4.98496,0.96919 7.32398,1.91637c0.99794,0.40411 1.48311,1.67572 2.48974,2.05767c0.81751,0.3102 1.78365,-0.37218 2.62047,-0.11865c3.94351,1.19477 7.48161,3.59203 11.48215,4.57916c8.15196,2.01149 16.96866,3.66422 25.38523,3.64659c13.21831,0 26.01289,-3.49972 38.6957,-7.20922c0.16701,-2.01249 0.26909,-4.03919 0.56378,-6.02025zM184.76871,362.77075c-0.60442,-1.15476 -1.81023,-1.94584 -2.32678,-3.14251c-0.25721,-0.59589 -1.23647,-5.92594 -1.70547,-7.32132c-1.66143,-4.94314 -4.91353,-9.80135 -6.18142,-14.80765c-1.40344,-5.54151 -0.9166,-12.10778 -0.88875,-17.81968c0.01545,-3.16844 -0.30426,-6.01093 1.26133,-8.97962c0.95803,-1.81665 2.51164,-3.25021 3.76746,-4.87532c1.98546,-1.98162 4.33297,-3.57754 6.31376,-5.56382c2.26628,-2.27259 4.16565,-5.03408 6.89865,-6.71676c1.34981,-0.83107 2.95142,-1.21204 4.27238,-2.08828c1.06976,-0.70963 1.67475,-2.04625 2.82373,-2.61883c1.44236,-0.71879 3.16174,-0.65205 4.70052,-1.13083c4.42235,-1.37596 9.07122,-2.91973 13.43003,-4.47842c7.17829,-2.56692 14.383,-5.50276 21.91936,-7.0174c1.938,-0.38949 3.9692,-0.23671 5.88675,-0.71685c2.09839,-0.52542 3.97739,-1.75541 6.07634,-2.27862c7.18894,-1.79201 14.66585,-1.73962 21.94671,-3.15491c14.35555,-0.07896 30.68706,-2.02243 42.87026,7.01887c1.05719,0.78456 6.54563,4.86482 7.01203,5.48326c0.3301,0.4377 3.61082,8.31564 3.85589,9.23204c1.94556,7.2748 0.17866,15.11103 0.17866,22.5687c0,8.67551 -1.5537,16.57637 -3.08485,24.9753c-0.4277,2.34609 -0.12982,4.86697 -1.01288,7.08221c-0.82447,2.06822 -2.19976,3.89023 -2.99959,5.9681c-0.46375,1.2048 -0.34376,2.57552 -0.75954,3.7977c-0.72933,2.14386 -2.31598,3.93006 -3.03817,6.07634c-0.49267,1.46414 -0.38474,3.12462 -1.06964,4.5093c-0.4106,0.83013 -1.67365,1.01315 -2.07477,1.8479c-0.26139,0.54397 0.38489,1.17878 0.33149,1.77991c-0.04312,0.48538 -0.085,0.97522 -0.12688,1.46834c2.82959,-1.10261 5.66099,-2.21243 8.59989,-2.94852c2.9717,-0.74431 5.99104,-1.37623 9.04333,-1.63802c1.74477,-0.14963 6.54382,0.33892 8.68113,-0.48559c1.49839,-0.57803 2.62853,-1.97572 4.17725,-2.40083c1.5227,-0.41797 3.17607,0.19327 4.73685,-0.04605c2.77383,-0.42532 4.38744,-3.93757 6.04927,-5.55037c1.17561,-1.14093 2.60949,-1.98131 3.91424,-2.97196c0.76523,-0.3181 1.71914,-0.35902 2.29568,-0.95429c0.85153,-0.8792 0.98182,-2.27605 1.75332,-3.22626c1.31559,-1.62031 3.1224,-2.79518 4.44599,-4.40896c2.82778,-3.44776 4.1901,-8.29979 4.4144,-12.66673c0.16969,-3.30392 -0.9322,-6.78759 0.11988,-9.92412c0.81976,-2.44393 1.91734,-4.87982 3.56413,-6.86296c0.986,-1.18739 2.71371,-1.47411 4.02922,-2.28129c3.64573,-2.23699 6.61074,-4.97407 9.4589,-8.1582c3.0981,-3.46355 3.8825,-7.18924 6.40256,-10.83076c1.78747,-2.58291 4.46777,-4.63279 5.64626,-7.54444c1.78555,-4.41143 2.47906,-8.75417 4.38445,-13.18147c1.62109,-10.27138 3.46177,-18.02467 11.01945,-25.52701c2.11296,-2.0975 4.36199,-4.06641 6.72203,-5.88144c1.33292,-1.0251 2.82584,-1.8328 4.3176,-2.60881c0.57449,-0.29885 1.4718,-0.07162 1.84819,-0.59858c1.39283,-1.94999 2.20467,-4.34582 2.56899,-6.71428c0.938,-6.09775 0.39095,-12.86919 0.67656,-19.03541c0.42911,-9.26424 2.95872,-18.03998 2.28613,-27.35286c-0.5771,-7.9908 -2.3237,-15.57949 -2.2668,-23.61933c-2.84906,-14.24533 -1.47281,-29.72999 -6.55937,-43.61314c-2.92834,-7.99256 -10.972,-12.77664 -13.79652,-20.89412c-0.37412,-1.07517 0.15917,-2.30286 -0.08811,-3.41409c-0.27167,-1.22084 -1.14137,-2.24983 -1.4424,-3.46377c-0.07619,-0.30726 -1.63537,-11.08423 -1.67077,-11.53854c-0.2024,-2.59747 0.36489,-6.0144 -0.49331,-8.60038c-0.96817,-2.91733 -3.42877,-5.10344 -5.21007,-7.60848c-7.48305,-7.66138 -18.75914,-10.17726 -28.8062,-13.06163c-15.87733,-4.55817 -31.39425,-9.94778 -47.5261,-13.44347c-2.67813,-0.58034 -5.19858,-1.88129 -7.91971,-2.20473c-1.11277,-0.13227 -2.26719,0.19067 -3.36142,-0.05096c-3.14933,-0.69545 -5.73206,-2.71778 -9.13,-2.22766c-0.02713,0.00391 -0.05423,0.0079 -0.08133,0.01198c-1.09332,0.83063 -2.28633,0.9233 -3.26056,0.77844c-0.81073,0.23611 -1.61989,0.4805 -2.43771,0.68272l-6.36414,0.80436c0,0 -4.79287,0.59911 -5.39198,-4.19376c-0.12625,-1.0101 -0.01304,-1.83393 0.24434,-2.50514c-1.05239,-0.01541 -2.10549,-0.02601 -3.15112,-0.09349c-11.55141,-0.74554 -23.04879,-0.76577 -34.62101,-0.76573c-3.10941,0.00001 -6.21882,0 -9.32823,0c-4.95193,0 -10.16142,-1.48907 -14.02312,2.3518c-1.82058,1.81074 -2.61407,4.44016 -4.21497,6.44776c-6.74229,8.45513 -12.0102,16.65814 -16.85184,26.32611c-1.61109,4.0209 -3.01233,8.19299 -4.3336,12.30986c-0.526,1.63894 -0.4211,3.51857 -1.30311,4.99668c-0.64867,1.08708 -2.35964,1.20993 -3.03817,2.27863c-0.57596,0.90714 0.0075,2.21538 -0.43641,3.19392c-3.54311,7.81048 -10.99031,14.47673 -16.89151,20.37872c-3.15949,3.15992 -6.04468,7.01117 -9.75864,9.67126c-4.20162,3.00936 -9.56197,3.42025 -13.78808,6.15761c-1.21824,0.78909 -1.87946,2.26575 -3.08714,3.07088c-1.13443,0.75629 -2.65359,0.77754 -3.79772,1.51908c-2.7331,1.77142 -4.53592,4.67543 -6.83894,6.97845c-3.82138,3.78227 -7.65148,6.55143 -11.58724,10.0577c-1.93671,1.72538 -4.6585,2.76631 -5.94844,5.01661c-0.63623,1.10992 -0.65137,2.47835 -1.09241,3.67926c-0.90563,2.46589 -2.18263,4.79612 -2.94371,7.31039c-3.39418,11.2129 -2.45189,23.9285 -1.34235,35.36529c0.26893,2.77197 -0.25903,5.58205 0,8.35497c0.41721,4.46607 1.5094,8.97622 0.6959,13.54206c-0.47537,2.66805 -1.85652,5.10079 -2.53974,7.72331c-1.406,2.49825 -3.35352,5.74092 -4.63288,8.53281c-0.70489,1.53823 -0.97646,3.32413 -2.01757,4.65796c-1.34492,1.72307 -3.42534,2.73232 -4.96323,4.28559c-2.28753,2.3104 -4.54063,4.82983 -7.43181,6.31705c-1.58961,0.8177 -6.37633,2.65055 -8.39207,2.74551c-0.65641,0.03094 -1.22632,-0.89665 -1.8485,-0.68519c-0.39954,0.13578 0.33871,0.86447 0.1757,1.25371c-0.42871,1.02362 -1.55963,1.69379 -1.85788,2.76273c-0.56513,2.02549 0.20921,4.20352 0.17526,6.30608c-0.09921,6.14611 2.0886,13.35101 5.86985,18.36909c0.80323,1.06597 2.01768,3.29192 3.52853,3.85355c1.59824,0.59412 3.32269,0.76763 4.98403,1.15145c2.35269,0.71448 5.48523,0.25352 7.05808,2.14343c1.27973,1.53771 2.56037,12.21498 2.83889,14.99753c0.70698,7.06303 1.82303,14.34511 2.29245,21.42501c0.12678,1.9121 -0.26991,3.84701 -0.03454,5.7488c0.34791,2.81118 2.46206,7.02148 3.47672,9.45511c1.1404,2.73519 2.11362,5.53947 3.03816,8.35497c0.16067,0.4893 0.08004,1.13713 0.47204,1.47116c0.67223,0.57281 1.73805,0.48936 2.44697,1.0161c1.05985,0.78749 1.59914,2.20647 2.75329,2.84782c3.03544,1.6868 7.02773,1.86338 10.35194,2.37359c7.49324,1.1501 14.94579,1.39838 22.49447,2.3749c4.04436,1.57844 8.45194,2.95491 12.33311,4.90726c2.36675,1.19055 4.12058,3.4833 6.58971,4.44364c1.19779,0.46587 2.57291,0.20749 3.82139,0.51251c1.33316,0.3257 2.55178,1.05728 3.88267,1.37756c-0.02016,-1.96917 -0.21028,-4.39637 -1.05336,-6.0071z" fill="#ffffff" stroke-width="0.5"/><path d="M293.79735,35.18023l6.36609,-0.80396c0.81781,-0.20222 1.62769,-0.44646 2.4384,-0.68255c0.97423,0.14486 2.16817,0.05243 3.26149,-0.7782c0.02709,-0.00408 0.05422,-0.00806 0.08135,-0.01198c3.39795,-0.49013 5.98356,1.53306 9.13289,2.22851c1.09424,0.24163 2.24963,-0.08099 3.3624,0.05128c2.72113,0.32344 5.24403,1.62528 7.92216,2.20561c16.13185,3.49569 31.66172,8.89245 47.53905,13.45062c10.04706,2.88437 21.32983,5.40604 28.81289,13.06742c1.7813,2.50503 4.24368,4.69305 5.21185,7.61038c0.8582,2.58598 0.29222,6.00441 0.49462,8.60188c0.0354,0.45431 1.59646,11.23364 1.67265,11.54089c0.30102,1.21394 1.17139,2.24383 1.44306,3.46467c0.24728,1.11123 -0.2855,2.33962 0.08861,3.41479c2.82451,8.11748 10.87217,12.90815 13.80051,20.90071c5.08655,13.88315 3.71503,29.38055 6.56409,43.62588c-0.05689,8.03984 1.69099,15.6361 2.26809,23.6269c0.67258,9.31288 -1.85683,18.0976 -2.28594,27.36183c-0.28562,6.16624 0.26073,12.9439 -0.67726,19.04165c-0.36433,2.36846 -1.17662,4.76659 -2.56943,6.71657c-0.37639,0.52695 -1.27377,0.30005 -1.84826,0.5989c-1.49175,0.776 -2.98495,1.58486 -4.31786,2.60996c-2.36004,1.81504 -4.60973,3.78643 -6.72269,5.88393c-7.55768,7.50234 -9.40187,15.2648 -11.02297,25.53618c-1.90539,4.42729 -2.6012,8.77428 -4.38675,13.18571c-1.1785,2.91165 -3.86056,4.96429 -5.64803,7.54721c-2.52006,3.64151 -3.30705,7.37073 -6.40515,10.83428c-2.84816,3.18413 -5.81599,5.92448 -9.46172,8.16147c-1.31551,0.80718 -3.0443,1.09504 -4.0303,2.28244c-1.6468,1.98314 -2.74623,4.42083 -3.56599,6.86476c-1.05208,3.13653 0.04811,6.62172 -0.1216,9.92564c-0.2243,4.36695 -1.58952,9.22131 -4.41731,12.66907c-1.32359,1.61378 -3.13201,2.78981 -4.44759,4.41011c-0.7715,0.9502 -0.90264,2.34764 -1.75418,3.22684c-0.57654,0.59528 -1.53111,0.63663 -2.29633,0.95473c-1.30475,0.99066 -2.73994,1.83186 -3.91555,2.97279c-1.66183,1.6128 -3.27763,5.12632 -6.05145,5.55165c-1.56078,0.23933 -3.21531,-0.3713 -4.73801,0.04668c-1.54873,0.42511 -2.68024,1.8235 -4.17863,2.40151c-2.13731,0.82449 -6.93871,0.33703 -8.68348,0.48666c-3.05229,0.26178 -6.07434,0.89479 -9.04604,1.6391c-5.27655,1.3216 -10.21165,3.84952 -15.40686,5.37592c-13.73974,4.03687 -27.59353,8.15698 -41.9323,8.15698c-8.41657,0.01763 -17.24152,-1.63554 -25.39348,-3.64703c-4.00054,-0.98713 -7.54254,-3.38503 -11.48606,-4.57979c-0.83682,-0.25353 -1.80379,0.42868 -2.6213,0.11848c-1.00663,-0.38195 -1.49273,-1.65377 -2.49067,-2.05788c-2.33901,-0.94718 -4.84143,-1.47768 -7.3264,-1.91699c-7.32381,-1.29477 -15.20909,-1.06516 -22.62111,-1.58697c-2.09583,-0.14754 -4.24093,0.45071 -6.30446,0.05563c-1.44316,-0.2763 -2.74049,-1.09089 -4.16789,-1.43961c-1.24848,-0.30501 -2.62463,-0.04715 -3.82242,-0.51303c-2.46914,-0.96034 -4.22515,-3.25427 -6.5919,-4.44482c-3.88118,-1.95235 -8.29223,-3.33096 -12.33659,-4.9094c-7.54869,-0.97651 -15.00593,-1.22831 -22.49917,-2.37841c-3.32421,-0.51021 -7.31854,-0.68858 -10.35398,-2.37537c-1.15415,-0.64136 -1.69427,-2.06109 -2.75412,-2.84858c-0.70892,-0.52674 -1.77524,-0.44377 -2.44749,-1.01657c-0.392,-0.33402 -0.31164,-0.98213 -0.47231,-1.47143c-0.92454,-2.81549 -1.8994,-5.62145 -3.0398,-8.35663c-1.01466,-2.43363 -3.13063,-6.646 -3.47855,-9.45718c-0.23537,-1.90179 0.16048,-3.8377 0.0337,-5.74981c-0.46941,-7.0799 -1.58889,-14.36668 -2.29586,-21.42971c-0.27851,-2.78255 -1.56152,-13.46382 -2.84126,-15.00153c-1.57285,-1.88991 -4.70616,-1.43045 -7.05885,-2.14492c-1.66134,-0.38382 -3.38624,-0.55825 -4.98448,-1.15238c-1.51084,-0.56164 -2.72595,-2.789 -3.52918,-3.85496c-3.78125,-5.01807 -5.97121,-12.22857 -5.87199,-18.37468c0.03395,-2.10257 -0.74096,-4.28244 -0.17583,-6.30791c0.29824,-1.06894 1.42898,-1.73976 1.85769,-2.76338c0.16301,-0.38923 -0.57535,-1.1183 -0.17581,-1.25409c0.62218,-0.21146 1.30177,0.68633 1.95818,0.6554c2.01574,-0.09497 6.69284,-1.8978 8.28245,-2.71551c2.89118,-1.48723 5.1439,-4.00809 7.43143,-6.31849c1.53789,-1.55327 3.61806,-2.56359 4.96298,-4.28666c1.04111,-1.33383 1.31237,-3.12127 2.01725,-4.6595c1.27936,-2.7919 3.22639,-6.03748 4.63239,-8.53573c0.68322,-2.62252 2.06404,-5.05821 2.53939,-7.72625c0.81349,-4.56584 -0.27891,-9.08146 -0.69611,-13.54754c-0.25903,-2.77291 0.26906,-5.58637 0.00013,-8.35834c-1.10955,-11.43678 -2.04922,-24.16598 1.34496,-35.37888c0.76108,-2.51428 2.03909,-4.84738 2.94472,-7.31328c0.44105,-1.2009 0.45673,-2.57073 1.09296,-3.68064c1.28994,-2.25031 4.01283,-3.29375 5.94955,-5.01913c3.93576,-3.50627 7.7686,-6.28056 11.58998,-10.06283c2.30302,-2.30302 4.10803,-5.21037 6.84113,-6.9818c1.14412,-0.74155 2.66414,-0.76397 3.79857,-1.52028c1.20768,-0.80514 1.87002,-2.28327 3.08826,-3.07235c4.22611,-2.73736 9.59046,-3.15276 13.79208,-6.16213c3.71397,-2.66009 6.6037,-6.5155 9.76319,-9.67541c5.90119,-5.90199 13.35757,-12.57436 16.90067,-20.38483c0.44391,-0.97856 -0.13885,-2.28716 0.4371,-3.1943c0.67853,-1.06871 2.39088,-1.19223 3.03955,-2.27932c0.88201,-1.47811 0.77833,-3.35832 1.30433,-4.99726c1.32127,-4.11687 2.72563,-8.29026 4.33673,-12.31116c4.84163,-9.66796 10.11754,-17.87338 16.85983,-26.32851c1.60089,-2.0076 2.39613,-4.63737 4.2167,-6.44811c3.8617,-3.84087 9.0757,-2.35248 14.02763,-2.35248c3.10941,0 6.22179,-0.00024 9.3312,-0.00024c11.57222,-0.00003 23.0807,0.02065 34.63211,0.7662c1.04563,0.06749 2.09972,0.07823 3.15211,0.09365c-0.25739,0.67121 -0.37056,1.49504 -0.24429,2.50514c0.59911,4.79287 5.39392,4.19411 5.39392,4.19411z" data-paper-data="{&quot;noHover&quot;:false,&quot;origItem&quot;:[&quot;Path&quot;,{&quot;applyMatrix&quot;:true,&quot;segments&quot;:[[[544.67145,83.91391],[1.0543,8.43436],[-0.22219,-1.77754]],[[545.10144,79.50543],[-0.45293,1.18118],[-1.85196,-0.02713]],[[539.55618,79.3409],[1.84008,0.11876],[-20.32787,-1.31199]],[[478.63104,77.99338],[20.36449,-0.00005],[-5.47186,0.00001]],[[462.21547,77.99338],[5.47186,0],[-8.71428,0]],[[437.53794,82.13202],[6.79573,-6.75905],[-3.20379,3.18651]],[[430.12054,93.47861],[2.81721,-3.53291],[-11.8649,14.87912]],[[400.46513,139.8066],[8.52018,-17.01343],[-2.83516,7.07589]],[[392.83897,161.46915],[2.32514,-7.24475],[-0.92564,2.88415]],[[390.54579,170.26218],[1.55214,-2.60115],[-1.14152,1.91301]],[[385.1993,174.27205],[1.19405,-1.88067],[-1.01355,1.59636]],[[384.43132,179.89264],[0.78118,-1.72204],[-6.23507,13.74467]],[[354.70609,215.75457],[10.38476,-10.38617],[-5.55998,5.56073]],[[337.5331,232.7738],[6.53573,-4.68115],[-7.3939,5.29581]],[[313.2692,243.6098],[7.437,-4.81714],[-2.14382,1.38861]],[[307.83654,249.01386],[2.12525,-1.41686],[-1.99634,1.33091]],[[301.15342,251.68711],[2.0134,-1.30496],[-4.80964,3.1173]],[[289.11843,263.9676],[4.05279,-4.05279],[-6.72477,6.65594]],[[268.72751,281.66687],[6.92604,-6.17023],[-3.40819,3.03627]],[[258.25961,290.49498],[2.26999,-3.96003],[-1.11962,1.9532]],[[256.33721,296.96964],[0.77615,-2.11332],[-1.59371,4.33941]],[[251.15696,309.83428],[1.33932,-4.42455],[-5.97298,19.73216]],[[248.79473,372.06917],[-1.95255,-20.12615],[0.47325,4.87805]],[[248.79473,386.77202],[-0.45585,-4.8797],[0.73419,7.85928]],[[250.01935,410.60297],[1.43157,-8.03484],[-0.83653,4.69515]],[[245.54998,424.19426],[1.20232,-4.61505],[-2.47424,4.39636]],[[237.39715,439.21009],[2.25139,-4.91311],[-1.24043,2.70694]],[[233.84669,447.40705],[1.83212,-2.34724],[-2.36676,3.03221]],[[225.11253,454.94871],[2.70635,-2.7334],[-4.02554,4.06578]],[[212.03423,466.0653],[5.08782,-2.61719],[-2.79736,1.43897]],[[197.2661,470.89678],[3.54723,-0.16713],[-1.15513,0.05443]],[[194.01315,469.691],[1.09491,-0.37211],[-0.7031,0.23895]],[[194.32234,471.89723],[0.28687,-0.68495],[-0.75444,1.80134]],[[191.0529,476.75901],[0.52485,-1.8811],[-0.9945,3.56439]],[[191.36132,487.8563],[0.05973,-3.70004],[-0.17459,10.81576]],[[201.69092,520.18173],[-6.65413,-8.83067],[1.4135,1.87586]],[[207.90034,526.96312],[-2.65875,-0.98836],[2.81255,1.04553]],[[216.67111,528.98943],[-2.92359,-0.67544],[4.14021,1.25732]],[[229.09174,532.76139],[-2.76787,-3.32582],[2.25205,2.70602]],[[234.08754,559.15365],[-0.49013,-4.89665],[1.24412,12.42933]],[[238.12173,596.85681],[-0.82607,-12.45903],[0.2231,3.36487]],[[238.06096,606.97338],[-0.4142,-3.34672],[0.61225,4.94703]],[[244.1792,623.61225],[-1.78558,-4.28265],[2.00683,4.81332]],[[249.52569,638.3151],[-1.62698,-4.95463],[0.28275,0.86106]],[[250.35637,640.904],[-0.68983,-0.5878],[1.18299,1.00801]],[[254.66249,642.69209],[-1.24753,-0.92694],[1.86509,1.3858]],[[259.50766,647.70361],[-2.03104,-1.12865],[5.34168,2.96838]],[[277.72473,651.8806],[-5.84986,-0.89786],[13.1864,2.02391]],[[317.30991,656.05988],[-13.28397,-1.71845],[7.11717,2.77771]],[[339.01339,664.69554],[-6.82999,-3.43569],[4.16495,2.09509]],[[350.6098,672.51534],[-4.34513,-1.68999],[2.10785,0.81982]],[[357.33459,673.41724],[-2.19705,-0.53675],[2.5119,0.61367]],[[364.66694,675.9496],[-2.53965,-0.48622],[3.63135,0.69523]],[[375.75841,675.85039],[-3.68818,-0.25965],[13.04349,0.91826]],[[415.55456,678.63898],[-12.88823,-2.27849],[4.373,0.77309]],[[428.44309,682.01136],[-4.11613,-1.66682],[1.75615,0.71115]],[[432.82446,685.63239],[-1.77144,-0.67215],[1.43864,0.54588]],[[437.43591,685.42358],[-1.47262,-0.44616],[6.93968,2.10251]],[[457.64189,693.48187],[-7.04004,-1.73712],[14.3456,3.53976]],[[502.31415,699.89905],[-14.81127,0.03101],[25.23298,0]],[[576.08148,685.54802],[-24.17884,7.10398],[9.14238,-2.68612]],[[603.18516,676.09049],[-9.28554,2.32572],[5.22952,-1.30982]],[[619.09938,673.20796],[-5.37134,0.46068],[3.0704,-0.26333]],[[634.3762,672.35345],[-3.76118,1.45093],[2.63682,-1.01719]],[[641.72723,668.12853],[-2.72541,0.74811],[2.6796,-0.73554]],[[650.063,668.04749],[-2.74662,0.42115],[4.88132,-0.74847]],[[660.70834,658.28009],[-2.92445,2.83816],[2.06881,-2.00777]],[[667.59652,653.0501],[-2.29606,1.74333],[1.34663,-0.55978]],[[671.63641,651.37075],[-1.01459,1.04755],[1.4985,-1.54719]],[[674.72185,645.69327],[-1.35767,1.67214],[2.31514,-2.85138]],[[682.54578,637.9345],[-2.32922,2.83989],[4.97626,-6.06728]],[[690.31412,615.64391],[-0.39471,7.68483],[0.29862,-5.81416]],[[690.52508,598.17971],[-1.85142,5.51959],[1.4426,-4.30076]],[[696.79715,586.10246],[-2.89799,3.48988],[1.73515,-2.08954]],[[703.88767,582.08789],[-2.315,1.42046],[6.41567,-3.93659]],[[720.53318,567.73132],[-5.01212,5.60333],[5.45196,-6.09506]],[[731.80023,548.67164],[-4.43474,6.40824],[3.14555,-4.54535]],[[741.73638,535.39515],[-2.07389,5.12384],[3.14215,-7.76312]],[[749.45202,512.19875],[-3.35306,7.79103],[2.85277,-18.0753]],[[768.84376,467.27699],[-13.29981,13.20243],[3.71834,-3.69112]],[[780.67302,456.92698],[-4.15313,3.19405],[2.34563,-1.80395]],[[788.27101,452.33607],[-2.62515,1.36558],[1.01097,-0.5259]],[[791.52341,451.28271],[-0.66236,0.92732],[2.45105,-3.43153]],[[796.04426,439.46709],[-0.64114,4.16796],[1.65065,-10.73065]],[[797.23485,405.96906],[-0.50262,10.85117],[0.75514,-16.30295]],[[801.25794,357.83422],[1.18359,16.38856],[-1.01556,-14.06201]],[[797.26888,316.26954],[-0.10012,14.14831],[-5.01371,-25.06856]],[[785.72588,239.52027],[8.95119,24.4312],[-5.15322,-14.0651]],[[761.44712,202.75135],[4.97051,14.28492],[-0.65836,-1.89207]],[[761.29207,196.74333],[0.43515,1.95551],[-0.47808,-2.1484]],[[758.75377,190.64786],[0.52973,2.13626],[-0.13408,-0.5407]],[[755.81359,170.34264],[0.0623,0.79948],[-0.35617,-4.57097]],[[754.94546,155.20791],[1.51024,4.55074],[-1.70376,-5.13385]],[[745.77693,141.81871],[3.13467,4.40829],[-13.16848,-13.48229]],[[695.08452,118.83319],[17.68057,5.07584],[-27.9405,-8.02133]],[[611.44933,95.17573],[28.3884,6.15163],[-4.7129,-1.02126]],[[597.51243,91.29592],[4.78858,0.56918],[-1.95822,-0.23276]],[[591.59708,91.20624],[1.92562,0.42522],[-5.5421,-1.22383]],[[575.53034,87.28606],[5.97962,-0.86251],[-0.04773,0.00689]],[[575.38722,87.30714],[0.04768,-0.00717],[-1.924,1.46172]],[[569.64938,88.67702],[1.71443,0.25492],[-1.42669,0.4155]],[[565.35956,89.87847],[1.43917,-0.35587],[0,0]],[554.16011,91.29397]],&quot;closed&quot;:true}]}" fill="#000000" stroke-width="0.5"/><path d="M234.05573,229.45817c0.08905,-1.2691 0.05383,-2.629 0.26411,-3.8015c0.31127,-1.73545 2.21989,-7.43167 2.64384,-9.12872c0.26125,-1.04579 0.30752,-2.40755 0.62195,-3.3591c0.90847,-2.74918 1.85034,-2.85654 3.09967,-4.21797c0.26299,-0.28658 2.66904,-3.44162 3.07554,-3.57602c1.01197,-0.33454 2.04854,0.2634 3.06617,0.06003c5.03974,-1.00719 10.22977,-1.76988 15.30565,0.02807c1.03651,-0.20046 1.95905,1.77326 2.93811,2.64051c1.35347,1.19889 2.97777,0.17577 4.25435,1.81302c2.91835,3.74287 4.9067,11.32716 6.45218,18.04857c0.57885,2.51741 0.08303,5.80555 0.15999,8.69706c0.17123,6.43375 0.37721,13.0324 0.48516,19.61232c-0.42253,-0.29165 -0.75152,-0.29111 -0.75152,-0.29111l-1.61774,0.00208c-1.7152,0.04798 -2.46066,-0.24554 -3.95903,-2.12099c-1.59248,-2.67175 -1.37449,-5.03478 -2.28508,-9.42816c-0.28623,-1.38101 -0.87803,-2.37395 -1.03927,-3.87428c-0.1764,-1.64135 0.14888,-3.39121 0.07345,-5.07951c-0.15122,-3.38431 -0.85762,-8.24096 -1.67681,-10.93884c-3.16299,-10.41692 -8.50687,-12.57328 -13.36908,-12.63203c-2.85221,-0.03447 -5.49615,-0.14155 -7.95832,4.18229c-0.96008,1.68601 -2.86105,7.22763 -3.28244,9.65873c-0.61393,3.54182 -0.68326,7.56543 -1.35072,11.04718c-0.07146,8.70243 -0.65536,15.53032 -1.58368,23.67553c-0.14552,1.27674 -0.41348,2.44739 -0.58627,3.70306c-0.04031,0.293 0.05035,1.20064 -0.04849,1.01149c-0.19791,-0.37871 -2.59247,-2.35613 -2.60073,-2.83559c-0.16487,-9.55935 0.12841,-19.48795 0.12841,-29.10105c0,0 0.00014,-2.02822 -0.4594,-3.7951z" data-paper-data="{&quot;noHover&quot;:false,&quot;origItem&quot;:[&quot;Path&quot;,{&quot;applyMatrix&quot;:true,&quot;segments&quot;:[[[413.24069,495.87603],[0,0],[0,12.81615]],[[412.8045,534.6234],[-0.54502,-12.74449],[0.02734,0.63921]],[[421.39644,538.39508],[-0.65423,-0.50489],[0.32676,0.25217]],[[421.3899,537.15684],[-0.13328,0.39064],[0.57117,-1.67405]],[[423.32553,532.21605],[-0.48102,1.70215],[3.06874,-10.85918]],[[428.54702,500.60625],[-0.23625,11.60204],[2.20641,-4.64187]],[[433.01488,485.84904],[-2.02943,4.72193],[1.39299,-3.24112]],[[443.8792,472.941],[-3.17371,2.24778],[8.13909,-5.76452]],[[470.23521,467.32669],[-9.42846,-0.04595],[16.07288,0.07833]],[[514.5562,484.22288],[-10.45578,-13.88779],[2.70795,3.59681]],[[520.10682,498.84734],[-0.49987,-4.51195],[0.24937,2.25082]],[[519.86209,505.6367],[-0.58312,-2.18823],[0.53302,2.00024]],[[523.29508,510.81167],[-0.94618,-1.84115],[3.01008,5.85722]],[[530.84207,523.39769],[-5.26419,-3.56198],[4.95317,2.50033]],[[543.74946,526.13809],[-5.66985,0.06397],[0,0]],[549.09595,526.13809],[[551.5799,526.52692],[-1.39675,-0.38883],[-0.35689,-8.77231]],[[549.96873,500.41407],[0.56602,8.57744],[-0.25439,-3.85495]],[[549.44071,488.83611],[1.91345,3.3562],[-5.10886,-8.96096]],[[528.12963,464.81854],[9.6471,4.98998],[-4.21997,-2.18278]],[[514.08015,462.41725],[4.47414,1.59836],[-3.23646,-1.15621]],[[504.38484,458.90948],[3.42638,-0.26725],[-16.77917,-2.39702]],[[453.89767,458.86718],[16.65973,-1.34278],[-3.36393,0.27113]],[[443.77354,458.77749],[3.34524,-0.44602],[-1.34378,0.17917]],[[433.6186,463.53139],[0.86935,-0.38208],[-4.12985,1.81507]],[[423.38046,469.14085],[3.0031,-3.6652],[-1.03944,1.26861]],[[421.32758,473.61229],[0.86363,-1.39425],[-1.40143,2.26249]],[[412.59367,485.76262],[1.02894,-2.3137],[-0.69517,1.56317]],[[411.72158,490.82353],[0.29435,-1.69195],[1.51911,2.35559]]],&quot;closed&quot;:true}]}" fill="#ffffff" stroke-width="0.5"/><path d="M242.42052,351.22568c-0.73582,-4.45953 -1.3089,-9.4049 -1.8525,-14.17406c-0.59303,-7.70647 -0.77708,-15.4913 -0.83928,-23.82892c-0.12363,-0.76635 -0.26763,-1.51822 -0.40425,-2.27428c0.23126,0.23912 0.50639,0.56961 0.64224,1.0637c0.28055,1.02043 0.06155,2.55017 0.30976,3.62087c0.33071,1.42659 0.97885,2.25357 1.36516,3.5915c1.35811,4.70351 1.57034,10.80384 2.70278,15.51889c0.86753,3.61211 2.58955,5.40626 3.94598,7.92869c1.46647,2.72708 2.68429,6.68306 4.44457,7.95127c4.85553,3.49819 8.71423,-9.11329 10.26367,-18.49146c0.45663,-2.38748 1.06317,-4.61439 1.37314,-7.14249c0.15682,-1.27896 -0.1233,-2.70144 0.00248,-4.00131c0.10897,-1.12611 0.5063,-1.96013 0.68268,-3.03245c1.09229,-6.64087 1.90911,-12.977 3.45488,-19.12979c0.72579,-2.88894 1.28131,-5.73235 2.51745,-6.30706c0.36895,-0.17152 0.75839,-0.27067 1.10479,-0.61674c-0.0165,2.44928 1.2285,6.80074 1.44188,9.02111l-0.07642,1.46246c0,0 0.00173,2.93248 0.80142,4.82004c-0.05181,1.78859 0.10271,3.64593 0.0297,5.44106c-0.16885,4.15114 -0.84544,8.42556 -1.17583,12.53037c-0.34249,4.25492 -0.3984,8.66311 -0.79282,12.89029c-0.26283,2.81688 -0.34349,5.89544 -0.94922,8.36602c-0.28052,1.14416 -0.90323,1.63114 -1.16373,2.80404c-0.75486,3.39883 -1.07349,10.16789 -2.21916,13.3267c-0.40012,1.10318 -1.03972,1.54431 -1.464,2.59053c-1.71954,4.24022 -3.40444,9.13747 -5.71292,11.7363c-1.39001,1.56483 -3.41962,1.51092 -4.93413,2.50221c-1.30955,-0.04801 -3.13699,0.95884 -4.35862,0.11972c-0.48155,-0.33077 -0.84504,-1.38453 -1.31835,-1.78165c-0.30957,-0.25974 -0.74216,0.40842 -0.98009,-0.14712c-0.41184,-0.96159 -0.38978,-2.67582 -0.71909,-3.81626c-0.64683,-2.23999 -1.72703,-3.5838 -2.37163,-5.82774c-0.66441,-2.31285 -0.90909,-5.25394 -1.52032,-7.65526c-0.54262,-2.13175 -1.43405,-3.65287 -2.05653,-5.63089c0.08127,-1.84909 -0.17368,-3.42832 -0.17368,-3.42832z" data-paper-data="{&quot;noHover&quot;:false,&quot;origItem&quot;:[&quot;Path&quot;,{&quot;applyMatrix&quot;:true,&quot;segments&quot;:[[[439.93572,657.67706],[0.26864,-2.4652],[2.05771,2.63711]],[[446.72341,665.16827],[-1.79368,-2.84204],[2.02051,3.20144]],[[451.73493,675.35993],[-2.19632,-3.08348],[2.13087,2.9916]],[[459.55886,683.1187],[-2.13822,-2.98635],[1.08863,1.52043]],[[461.92929,688.20324],[-1.36138,-1.28198],[0.78651,0.74064]],[[465.16451,688.39742],[-1.02335,-0.34628],[1.56462,0.52944]],[[469.51486,690.77007],[-1.59182,-0.44097],[4.03829,1.11871]],[[483.8995,690.60638],[-4.32897,-0.064],[5.0065,-1.32159]],[[500.18133,687.27312],[-4.59489,2.08623],[7.63105,-3.46475]],[[519.02633,671.64632],[-5.68425,5.65303],[1.4025,-1.3948]],[[523.85734,668.2005],[-1.32264,1.47075],[3.78721,-4.21131]],[[531.17243,650.46542],[-2.4953,4.53132],[0.8611,-1.56371]],[[535.01613,646.73633],[-0.92731,1.52538],[2.00234,-3.29377]],[[538.15009,635.60514],[-0.86882,3.75546],[1.30381,-5.63567]],[[540.77404,618.4511],[-1.13213,5.67265],[1.09219,-5.47251]],[[544.6695,601.7673],[-0.55816,5.53428],[0.24137,-2.39326]],[[544.57611,594.52129],[-0.1713,2.38454],[-2.64354,-2.51649]],[541.93257,588.103],[[542.18636,586.15469],[0,0],[-0.70532,-2.9602]],[[537.43118,574.13909],[-0.05454,3.26537],[-1.14509,0.46138]],[[533.7814,574.96325],[1.2196,-0.22868],[-4.08624,0.7662]],[[525.58416,583.21536],[2.39921,-3.85152],[-5.10979,8.20287]],[[514.177,608.73191],[3.61075,-8.85358],[-0.58304,1.42961]],[[511.92339,612.77849],[0.3602,-1.50133],[-0.41578,1.73298]],[[511.92339,618.12498],[0.51838,-1.70511],[-1.02467,3.37044]],[[507.39495,627.67389],[1.50948,-3.18297],[-5.12192,12.50295]],[[473.31276,652.43273],[16.05081,4.66377],[-5.81892,-1.69076]],[[458.58205,641.78036],[4.84769,3.63572],[-4.48392,-3.3629]],[[445.53321,631.17565],[2.86778,4.81565],[-3.74345,-6.28609]],[[436.60719,610.44914],[4.48945,6.27071],[-1.27703,-1.78372]],[[432.09618,605.65717],[1.09321,1.90193],[-0.82049,-1.42746]],[[431.07505,600.82449],[0.92739,1.36043],[-0.44906,-0.65874]],[[429.12561,599.50567],[0.76445,0.3188],[0.45163,1.00798]],[[430.46342,602.53506],[-0.40867,-1.02169],[0.20563,11.11568]],[[433.24954,634.25366],[-1.96036,-10.27423],[1.79697,6.35823]],[[439.3652,653.11394],[-2.43236,-5.94542],[0,0]]],&quot;closed&quot;:true}]}" fill="#ffffff" stroke-width="0.5"/><path d="M321.71272,92.42537c2.71414,0.97785 8.43032,-0.85243 11.237,0.68185c3.81309,2.08443 6.42625,6.65522 10.08429,8.8271c3.15662,1.87417 7.11219,2.43015 9.93265,4.77998c1.81995,1.51627 1.90032,3.99945 2.45108,6.10683c1.43839,5.50379 1.92732,10.27678 0.70682,15.93412c-0.15307,0.70948 -0.48676,1.37985 -0.78533,2.05259c-0.57355,-1.23536 -1.19856,-2.55715 -1.95172,-3.68744c-1.03393,-1.55165 -2.67995,-2.65211 -3.62214,-4.26113c-0.74712,-1.27587 -0.90312,-2.81059 -1.35326,-4.21893c-1.00998,-1.65264 -1.77364,-3.47736 -3.03259,-4.94919c-1.10711,-1.29431 -2.74647,-2.02634 -3.9674,-3.21388c-1.20634,-1.17336 -1.77428,-3.078 -3.28545,-3.81855c-5.20668,-2.55154 -11.77432,-1.0047 -17.26965,-1.39088c-8.16544,-0.57384 -9.40156,-0.90366 -17.0391,-3.988c-2.77252,-1.11964 -5.57744,-2.45934 -8.25671,-3.78674c-1.23382,-0.61127 -2.81194,-0.92156 -3.5769,-2.06646c-3.38071,-5.05981 6.45349,-7.65863 8.771,-7.99516c2.2504,-0.32679 4.55489,0.04684 6.82889,0.05587c1.15469,0.00459 4.67873,-0.11231 7.61379,0.02113c0.77429,2.26669 2.97139,2.82382 4.00538,2.96195c0.74253,0.80894 1.50519,1.59315 2.50937,1.95493z" data-paper-data="{&quot;noHover&quot;:false,&quot;origItem&quot;:[&quot;Path&quot;,{&quot;applyMatrix&quot;:true,&quot;segments&quot;:[[[598.91332,186.18015],[1.30668,1.42355],[-1.81958,-0.24308]],[[591.87752,180.96353],[1.36258,3.98885],[-5.16504,-0.23483]],[[578.50165,180.91333],[2.032,0.00807],[-4.0017,-0.01589]],[[566.49697,180.80358],[3.96019,-0.57508],[-4.07829,0.59223]],[[551.08073,194.84434],[-5.94928,-8.90411],[1.34616,2.01475]],[[557.37589,198.47931],[-2.17123,-1.0757],[4.7149,2.33591]],[[571.71983,205.06963],[-4.87899,-1.97033],[13.44032,5.42774]],[[601.73366,212.04703],[-14.36933,-1.00983],[9.67054,0.67961]],[[632.28738,214.55434],[-9.16258,-4.49015],[2.65929,1.30319]],[[638.07011,221.29907],[-2.12288,-2.06483],[2.14856,2.08981]],[[645.04989,226.96786],[-1.94826,-2.2777],[2.21548,2.5901]],[[650.3819,235.69269],[-1.77734,-2.90828],[0.79216,2.47835]],[[652.75839,243.12773],[-1.31475,-2.24525],[1.65804,2.8315]],[[659.12959,250.63148],[-1.81948,-2.73056],[1.32539,1.98906]],[[662.39691,257.01102],[-1.00932,-2.17397],[0.52543,-1.18388]],[[663.77581,253.40368],[-0.26935,1.24852],[2.14779,-9.95565]],[[662.51789,225.40364],[2.53124,9.68543],[-0.9692,-3.70851]],[[658.20417,214.677],[3.2027,2.66829],[-4.96338,-4.13518]],[[640.731,206.29237],[5.55493,3.29812],[-6.43732,-3.82201]],[[623.02984,190.81088],[6.71018,3.66813],[-4.93913,-2.69999]],[[603.31792,189.62267],[4.77628,1.7208],[-1.76711,-0.63666]]],&quot;closed&quot;:true}]}" fill="#ffffff" stroke-width="0.5"/><path d="M177.12862,187.18376c-0.79495,1.61271 -1.7888,3.1881 -2.39722,4.88003c-0.69179,1.92376 -0.14126,4.27868 -1.1775,6.04095c-1.35378,2.30231 -5.01308,5.34374 -7.72369,5.93272c-1.74967,0.38017 -3.20254,-1.64371 -4.78812,-2.47547c-0.61079,-0.3204 -1.42713,-0.2577 -1.95264,-0.70443c-0.85674,-0.7283 -0.80819,-2.13846 -0.90757,-3.25851c-0.26226,-2.95576 0.25059,-8.24794 1.72582,-10.8371c1.91363,-3.35859 7.38771,-7.09205 10.06567,-9.0852c2.19524,-1.63387 4.22475,-3.60011 6.69532,-4.77693c1.42038,-0.67658 3.03772,-0.78907 4.61421,-1.00078c-1.00533,5.28616 -2.45596,10.14316 -4.15427,15.28473z" data-paper-data="{&quot;noHover&quot;:false,&quot;origItem&quot;:[&quot;Path&quot;,{&quot;applyMatrix&quot;:true,&quot;segments&quot;:[[[356.12089,329.46046],[-1.76917,9.30243],[-2.77426,0.37255]],[[348.01743,331.23123],[2.49955,-1.19062],[-4.34764,2.07093]],[[336.2745,339.64671],[3.86312,-2.87525],[-4.7126,3.5075]],[[318.66303,355.54705],[3.36756,-5.91036],[-2.59607,4.55634]],[[315.60355,374.54143],[-0.46153,-5.20145],[0.17489,1.97104]],[[317.18751,380.26256],[-1.50765,-1.28163],[0.92478,0.78614]],[[320.61387,381.49507],[-1.07485,-0.56384],[2.79026,1.4637]],[[329.00954,385.83841],[-3.07903,0.66902],[4.77007,-1.03645]],[[342.54246,375.40192],[-2.38235,4.05154],[1.82355,-3.10121]],[[344.57248,364.80169],[-1.21741,3.38537],[1.0707,-2.97739]],[[348.7693,356.28771],[-1.39894,2.838],[2.98864,-9.04799]]],&quot;closed&quot;:true}]}" fill="#ffffff" stroke-width="0.5"/></g></g></svg>