<svg version="1.1" xmlns="http://www.w3.org/2000/svg" xmlns:xlink="http://www.w3.org/1999/xlink" width="85.13117" height="99.42635" viewBox="0,0,85.13117,99.42635"><g transform="translate(-205.45046,-139.92594)"><g data-paper-data="{&quot;isPaintingLayer&quot;:true}" fill-rule="nonzero" stroke="none" stroke-linecap="butt" stroke-linejoin="miter" stroke-miterlimit="10" stroke-dasharray="" stroke-dashoffset="0" style="mix-blend-mode: normal"><path d="M269.44865,223.23669c0,2.22791 0.08942,4.09655 -0.60408,6.23533c-1.67241,4.00983 -6.04014,6.65228 -10.04029,7.8893c-2.61582,0.80893 -5.4084,1.41635 -8.0851,1.88674c-1.27857,0.22469 -2.5963,0.01617 -3.89447,0.01617c-4.56192,0 -8.83187,-0.50057 -13.35893,-1.0665c-2.65406,-0.40018 -5.90978,-1.57389 -8.17468,-3.09806c-0.22991,-0.15471 -2.3145,-2.30416 -2.50576,-2.47406c-1.13554,-1.00874 -1.67243,-0.8859 -2.43365,-2.54608c-0.76515,-1.66875 -0.24995,-3.43473 -0.10266,-5.11916c0.05842,-0.66792 -0.12563,-1.35845 0.02739,-2.01122c0.69844,-2.9796 2.90538,-5.56671 4.26046,-8.29012c-0.04034,-0.0134 -0.08065,-0.02683 -0.12095,-0.04032c-5.79507,-2.25267 -11.09404,-4.80928 -14.56068,-10.28351c-1.11234,-1.75651 -1.64824,-4.37479 -2.22748,-6.34255c-1.92356,-6.53462 -2.01807,-13.95546 0.24098,-20.48802c0.22581,-6.37971 1.71498,-13.04338 -1.25106,-18.96135l-0.55876,-1.66631c0,0 -0.15462,-0.46386 0.01936,-0.90836c-0.32411,-0.19075 -0.82447,-0.63411 -0.54706,-1.46634c0.39579,-1.18737 1.58315,-0.79157 1.58315,-0.79157c2.72445,0.9207 4.79331,2.61632 7.59987,3.41405l0.17672,-0.019c0.07883,-0.06742 0.13537,-0.10276 0.13537,-0.10276c3.92869,-2.4541 7.69634,-5.13136 11.55068,-7.7011c1.42331,-0.94894 2.82974,-2.19898 4.38221,-2.9102c1.19424,-0.5471 2.5471,-0.71745 3.71048,-1.32743c2.37573,-1.2456 4.61969,-2.48042 7.28224,-3.02136l1.20265,-0.00508c0.2063,-0.02974 0.40183,0.00079 0.55299,0.04252c0.15682,0.038 0.3489,0.10917 0.51838,0.24246c3.80885,2.23219 6.35887,5.93763 10.13459,8.35539l0.69292,0.34061c3.34562,-0.97722 6.45741,-2.90375 9.1829,-5.07493c3.28158,-2.61418 6.72375,-5.91463 11.08474,-6.01793h1.05543c0,0 0.23645,0 0.5038,0.10278c0.14962,-0.06396 0.3312,-0.10278 0.55162,-0.10278c1.25158,0 1.25158,1.25158 1.25158,1.25158c0,0.36989 0.00334,4.53451 -0.01211,4.65915c-0.3067,2.47613 -1.2212,4.84584 -1.83845,7.27209c3.8992,-0.04558 7.83175,-0.2008 11.6625,0.56198l1.1717,0.54367c0.37083,0.08932 0.58713,0.31456 0.71328,0.54692c0.15252,0.21833 0.25767,0.51523 0.1683,0.89068c-0.11441,2.19214 -1.20314,4.14817 -1.906,6.24728c-0.87756,2.62082 -1.71586,5.372 -2.4802,8.01678c-1.24263,4.29974 -0.55698,9.57331 -2.85998,13.50683c-1.10031,2.72909 -1.25978,5.61204 -1.45592,8.50365c-0.11886,1.75228 -0.52831,3.33312 -0.53667,5.09814l-0.56377,2.01724c0,0 -0.24334,0.85172 -1.03713,0.91738c-1.49601,4.62394 -3.91186,8.87651 -7.65378,12.2463c-1.33703,1.50756 -2.93669,2.675 -4.69218,3.57177c1.87632,2.06518 2.08544,4.41043 2.08544,7.4593zM223.42789,222.16626c-0.21542,0.46403 -0.60233,0.85898 -0.71521,1.35797c-0.12377,0.54717 0.07144,1.12349 0.02739,1.68276c-0.09423,1.19638 -0.64022,2.6509 -0.10266,3.85193c0.37582,0.83968 1.15279,1.11059 1.78805,1.6756c0.7959,0.7079 1.35398,1.68963 2.24364,2.27533c1.95581,1.28763 4.83625,2.402 7.12896,2.70678c4.42227,0.55274 8.57233,1.04434 13.02666,1.04434c1.16451,0 2.34928,0.23262 3.4935,0.01617c2.57012,-0.48623 5.22489,-1.03574 7.74625,-1.80724c3.09434,-0.94682 7.22047,-3.13102 8.42963,-6.35892c0.61911,-1.79193 0.45133,-3.48345 0.45133,-5.37433c0,-2.69495 0.04617,-4.65243 -2.07223,-6.3943c-2.62273,0.92891 -5.45491,1.39045 -8.2045,1.57456c-9.91792,0.66409 -20.15011,-0.19626 -29.71709,-3.00304c-1.08541,2.3254 -2.43435,4.40578 -3.52375,6.75237zM282.7994,173.39509c0.81412,-4.09222 2.14951,-8.31275 3.47483,-12.30555c0.52407,-1.57886 1.53948,-3.29819 1.74503,-4.95596l-0.01463,-0.00829c-4.15371,-0.83472 -8.46534,-0.50341 -12.68348,-0.50341c-0.43468,0 -0.71838,-0.15096 -0.90357,-0.34803c-0.19707,-0.18518 -0.34803,-0.46889 -0.34803,-0.90357c0,-0.05881 0.00277,-0.11485 0.00804,-0.16827l0.01628,-0.34104c0.56394,-2.81967 1.73968,-5.52921 2.09864,-8.37152c0.1279,-1.01275 0.06802,-2.03694 0.02258,-3.06037h-0.89394c-0.82408,-0.02996 -1.63035,0.33226 -2.37943,0.67706c-2.71566,1.2501 -4.7817,2.92225 -7.14817,4.79759c-3.03158,2.40242 -6.46395,4.49191 -10.1816,5.55913c0,0 -0.25712,0.07346 -0.56762,0.03363c-0.45008,0.08918 -0.86366,-0.11761 -0.86366,-0.11761l-1.17132,-0.59361c-1.76415,-1.13282 -2.14755,-1.30372 -3.84927,-2.75614c-2.1945,-1.87301 -3.61099,-4.0354 -6.09791,-5.49092l-0.86354,-0.0044c-2.33398,0.45535 -4.36255,1.70794 -6.43827,2.78347c-1.1555,0.59873 -2.49092,0.77659 -3.67748,1.31113c-1.45949,0.65749 -2.77835,1.86358 -4.11733,2.75616c-3.87496,2.58312 -7.66409,5.27195 -11.61249,7.74102c0,0 -0.12968,0.08105 -0.32671,0.14116c-0.3676,0.31293 -0.86434,0.31293 -0.86434,0.31293l-1.13541,-0.04816c-1.61162,-0.46265 -2.46017,-0.61757 -3.97658,-1.43918c-0.43852,-0.23759 -0.82003,-0.47651 -1.18621,-0.70808l0.06656,0.201c2.16645,4.34301 2.12238,8.96356 1.82082,13.62506c0.0561,-0.1099 0.1124,-0.2197 0.16895,-0.32939c-0.06043,1.86889 -0.01017,3.74017 0.0225,5.61131c-0.21166,0.48211 -0.40767,0.97142 -0.58838,1.46692c-0.00651,0.31692 -0.00982,0.6335 -0.00935,0.94968c0,0 0,0.80853 -0.64985,1.12589c-1.52939,5.60816 -1.26827,11.79906 0.33608,17.25791c0.51915,1.76643 0.98732,4.22708 1.99422,5.79481c3.17175,4.93846 8.00107,7.13822 13.24114,9.17692c9.96705,3.32892 20.77323,4.33144 31.23954,3.65461c2.39056,-0.15458 4.89965,-0.53286 7.23078,-1.31561c0.39211,-0.61145 0.97884,-0.58075 1.31908,-0.49609c1.99124,-0.83511 3.79891,-2.01357 5.21808,-3.66032c7.2146,-6.46024 9.06065,-16.47216 9.07264,-25.76049c0.45311,-0.55092 0.87845,-1.54704 1.23769,-2.64721c0.49083,-0.53188 0.86781,-1.17042 1.09226,-1.87691c0.02054,0.2411 0.03904,0.48267 0.0556,0.7247c0.8244,-2.35443 0.58281,-5.05706 1.06722,-7.49204z" fill="#000000" stroke-width="0.5"/><path d="M223.40328,222.16165c1.08941,-2.34657 2.44155,-4.43531 3.52694,-6.76072c9.56697,2.80678 19.84162,3.66651 29.75955,3.00243c2.74958,-0.18411 5.58347,-0.64255 8.2062,-1.57147c2.1184,1.74186 2.07431,3.70659 2.07431,6.40153c0,1.89089 0.16781,3.58848 -0.45129,5.38041c-1.20915,3.2279 -5.33927,5.42308 -8.4336,6.36989c-2.52137,0.77149 -5.18532,1.32936 -7.75543,1.81558c-1.14422,0.21646 -2.33576,-0.01374 -3.50028,-0.01374c-4.45433,0 -8.62813,-0.49962 -13.0504,-1.05235c-2.29271,-0.30477 -5.17772,-1.42676 -7.13355,-2.71439c-0.88967,-0.58572 -1.44878,-1.57082 -2.24467,-2.27872c-0.63526,-0.56503 -1.41263,-0.83819 -1.78845,-1.67787c-0.53757,-1.20104 0.00822,-2.65991 0.10246,-3.85629c0.04405,-0.55927 -0.15101,-1.13749 -0.02723,-1.68466c0.11288,-0.49899 0.50004,-0.89558 0.71546,-1.35962z" data-paper-data="{&quot;noHover&quot;:false,&quot;origItem&quot;:[&quot;Path&quot;,{&quot;applyMatrix&quot;:true,&quot;segments&quot;:[[[198.90219,248.3042],[0,0],[-0.43031,0.92688]],[[197.47359,251.01669],[0.22546,-0.99672],[-0.24723,1.09295]],[[197.5283,254.37794],[0.08799,-1.11711],[-0.18823,2.38972]],[[197.32325,262.07202],[-1.07377,-2.39902],[0.7507,1.67722]],[[200.8948,265.41899],[-1.26889,-1.12862],[1.58976,1.41401]],[[205.37639,269.96389],[-1.77707,-1.16995],[3.90666,2.57199]],[[219.61618,275.37056],[-4.57958,-0.60877],[8.8333,1.10408]],[[245.63639,277.4566],[-8.89734,0],[2.32606,0]],[[252.61451,277.48888],[-2.28553,0.43238],[5.13369,-0.9712]],[[268.08733,273.87899],[-5.03635,1.54104],[6.18082,-1.89123]],[[284.92516,261.17731],[-2.41524,6.44759],[1.23665,-3.57929]],[[285.8267,250.4423],[0,3.77697],[0,-5.38304]],[[281.68751,237.66997],[4.23141,3.47929],[-5.23879,1.85546]],[[265.29936,240.81508],[5.49218,-0.36775],[-19.81065,1.32648]],[[205.94072,234.81664],[19.10963,5.60643],[-2.16804,4.64489]],[[198.90217,248.3042],[2.17604,-4.68719],[0,0]]],&quot;closed&quot;:true,&quot;fillColor&quot;:[0,0,0],&quot;strokeWidth&quot;:0.5}]}" fill="#667eff" stroke-width="0.25"/><path d="M282.82408,173.39088c-0.48441,2.435 -0.24251,5.14303 -1.0669,7.49745c-0.01657,-0.24203 -0.03503,-0.48415 -0.05558,-0.72525c-0.22444,0.70649 -0.60151,1.3465 -1.09233,1.87837c-0.35923,1.10016 -0.78487,2.09845 -1.23797,2.64938c-0.01199,9.28832 -1.86831,19.31642 -9.0829,25.77664c-1.41915,1.64675 -3.23041,2.82731 -5.22166,3.66242c-0.34022,-0.08467 -0.92779,-0.11499 -1.3199,0.49647c-2.33113,0.78274 -4.84477,1.1625 -7.23533,1.31708c-10.46631,0.67681 -21.29229,-0.32962 -31.25933,-3.65854c-5.24007,-2.03871 -10.07597,-4.24525 -13.24772,-9.18371c-1.00689,-1.56775 -1.47679,-4.03146 -1.99594,-5.79789c-1.60435,-5.45885 -1.86783,-11.65992 -0.33844,-17.26808c0.64985,-0.31736 0.64985,-1.12662 0.64985,-1.12662c-0.00049,-0.31617 0.00285,-0.63338 0.00935,-0.9503c0.1807,-0.49551 0.37678,-0.98579 0.58843,-1.46792c-0.03266,-1.87112 -0.08239,-3.74604 -0.02197,-5.61493c-0.05656,0.10969 -0.11292,0.21972 -0.169,0.32962c0.30156,-4.66151 0.34818,-9.28888 -1.81828,-13.6319l-0.06653,-0.20108c0.36617,0.23158 0.74768,0.47051 1.1862,0.70811c1.51642,0.82162 2.36516,0.97617 3.97679,1.43881l1.13557,0.04786c0,0 0.49698,-0.0004 0.86458,-0.31333c0.19703,-0.06011 0.32682,-0.14133 0.32682,-0.14133c3.94841,-2.46905 7.74393,-5.16476 11.61892,-7.74789c1.33898,-0.89259 2.66088,-2.10058 4.12036,-2.75805c1.18657,-0.53454 2.52453,-0.71359 3.68004,-1.31232c2.07571,-1.07554 4.10911,-2.32947 6.44307,-2.78481l0.86413,0.0043c2.48691,1.45552 3.90787,3.61763 6.10236,5.49065c1.70171,1.45241 2.08877,1.62368 3.85292,2.75651l1.17247,0.59384c0,0 0.41436,0.20699 0.86445,0.11779c0.31051,0.03983 0.56809,-0.03349 0.56809,-0.03349c3.71765,-1.06722 7.15542,-3.15451 10.187,-5.55692c2.36648,-1.87536 4.43442,-3.54631 7.15007,-4.79642c0.74907,-0.34482 1.55605,-0.70652 2.38013,-0.67657l0.89425,0.00024c0.04544,1.02343 0.10613,2.04825 -0.02177,3.06102c-0.35895,2.84231 -1.53282,5.55361 -2.09674,8.37325l-0.01617,0.34116c-0.00527,0.05342 -0.00798,0.10952 -0.00798,0.16832c0,0.43468 0.15139,0.71883 0.34846,0.90402c0.18518,0.19707 0.4693,0.34849 0.90398,0.34849c4.21814,0 8.53257,-0.32742 12.68628,0.5073l0.01463,0.00829c-0.20556,1.65777 -1.22002,3.37888 -1.74409,4.95775c-1.32532,3.99281 -2.65861,8.21993 -3.47273,12.31216z" data-paper-data="{&quot;noHover&quot;:false,&quot;origItem&quot;:[&quot;Path&quot;,{&quot;applyMatrix&quot;:true,&quot;segments&quot;:[[[317.49428,150.88584],[0,0],[1.62617,-8.17405]],[[324.43511,126.30603],[-2.64728,7.97546],[1.04681,-3.15372]],[[327.92075,116.40671],[-0.4106,3.31132],[0,0]],[[327.89153,116.39016],[0,0],[-8.29686,-1.6673]],[[302.55681,115.38463],[8.42556,0],[-0.86824,0]],[[300.75198,114.68946],[0.36989,0.39363],[-0.39363,-0.36989]],[[300.05681,112.88463],[0,0.86824],[0,-0.11746]],[[300.07285,112.54853],[-0.01052,0.10669],[0,0]],[[300.10536,111.86729],[0,0],[1.12643,-5.63215]],[[304.2973,95.14552],[-0.717,5.6774],[0.25547,-2.02294]],[[304.34241,89.03257],[0.09077,2.04426],[0,0]],[[302.55681,89.03257],[0,0],[-1.64607,-0.05985]],[[297.804,90.38498],[1.49624,-0.68876],[-5.42442,2.49702]],[[283.52583,99.96797],[4.72693,-3.74593],[-6.05545,4.79873]],[[263.1885,111.07211],[7.42586,-2.13175],[0,0]],[[262.05471,111.13928],[0.62021,0.07957],[-0.89902,0.17814]],[260.32959,110.90437],[[257.98994,109.71868],[0,0],[-3.52382,-2.26277]],[[250.30119,104.21341],[3.39911,2.90115],[-4.38341,-3.74125]],[[238.12088,93.24553],[4.96752,2.90734],[0,0]],[[236.39601,93.23674],[0,0],[-4.662,0.90954]],[[223.53584,98.79659],[4.14614,-2.14833],[-2.30807,1.19593]],[[216.19023,101.41553],[2.37011,-1.06771],[-2.91527,1.3133]],[[207.96604,106.92084],[2.67456,-1.78291],[-7.74009,5.15968]],[[184.77057,122.38319],[7.88679,-4.93183],[0,0]],[[184.11797,122.66515],[0.39357,-0.12006],[-0.73426,0.62508]],[182.39149,123.29023],[[180.12357,123.19404],[0,0],[-3.21915,-0.92412]],[[172.18051,120.31934],[3.02898,1.64114],[-0.87592,-0.47458]],[[169.81111,118.90497],[0.73141,0.46257],[0,0]],[[169.94406,119.30647],[0,0],[4.3274,8.67498]],[[173.58107,146.52197],[0.60235,-9.31118],[0.11205,-0.21952]],[[173.91855,145.86402],[-0.11296,0.2191],[-0.1207,3.73302]],[[173.96349,157.07237],[-0.06526,-3.73751],[-0.42279,0.96301]],[[172.78823,160.00248],[0.36095,-0.98974],[-0.013,0.63304]],[[172.76957,161.89942],[-0.00097,-0.63154],[0,0]],[[171.47152,164.14833],[1.29805,-0.63391],[-3.05489,11.20206]],[[172.14281,198.62029],[-3.20462,-10.90383],[1.03698,3.52836]],[[176.12618,210.19519],[-2.01122,-3.1315],[6.33544,9.86435]],[[202.5748,228.5257],[-10.46683,-4.07222],[19.90876,6.64938]],[[264.97447,235.82564],[-20.90603,1.35191],[4.77505,-0.30878]],[[279.41765,233.19778],[-4.65634,1.5635],[0.78323,-1.22135]],[[282.05244,232.20688],[-0.67958,-0.16912],[3.97742,-1.66812]],[[292.47533,224.89553],[-2.83471,3.28933],[14.41085,-12.90405]],[[310.59754,173.44005],[-0.02396,18.55303],[0.90508,-1.10045]],[[313.06978,168.15236],[-0.71756,2.19752],[0.98041,-1.06241]],[[315.2515,164.40332],[-0.4483,1.41118],[0.04104,0.48157]],[[315.36255,165.85088],[-0.03307,-0.48344],[1.64669,-4.70287]],[[317.49429,150.88583],[-0.96761,4.8638],[0,0]]],&quot;closed&quot;:true,&quot;fillColor&quot;:[0,0,0],&quot;strokeWidth&quot;:0.5}]}" fill="#66ecff" stroke-width="0.25"/><path d="M219.02014,173.65972c0.03221,0 0.06432,0.00035 0.09636,0.00107l0.16097,-0.12877l0.41101,-0.18838l0.34329,-0.29425l1.86999,-0.93499l0.02369,-0.04145l0.11843,-0.02961l0.10592,-0.05296l0.95328,-0.21184l0.94738,-0.23684h0.11843l0.11916,-0.02648l0.03972,0.02648h4.22349l0.34461,0.08615l0.35408,-0.02832l1.58852,0.26475l0.46976,0.20425l0.50571,0.08156l1.85326,0.79426l0.31304,0.23791l0.37028,0.13224l0.49654,0.33103l0.03574,-0.00076l0.07376,0.07377l0.18822,0.12547l0.62738,0.69012l0.65949,0.65949l0.11638,0.19397l0.07017,0.07719l-0.00246,0.03566l0.61016,1.01694l0.00704,0.02311l0.06737,0.0385l0.25601,1.02405l0.30734,1.00984l-0.03797,0.06767l0.00586,0.02344v3.44178l-0.12689,0.50758v0.5232l-0.26475,1.05901l-0.07842,0.14704l-0.01279,0.16616l-0.52951,1.58852l-0.16423,0.25807l-0.06636,0.29862l-0.52951,1.05901l-0.07859,0.09169l-0.0327,0.11624l-1.00048,1.75085l-0.47675,0.9535l-0.44461,0.51872l-0.3515,0.58583l-1.05901,1.05901l-0.36298,0.21779l-0.28475,0.31322l-1.58852,1.05901l-0.41867,0.14952l-0.3604,0.26029l-0.9129,0.36516l-0.3279,0.2186l-0.96464,0.72348l-0.35603,0.14991l-0.29331,0.25141l-0.28148,0.14074l-0.02369,0.04145l-0.11843,0.02961l-0.10592,0.05296l-0.95328,0.21184l-0.94738,0.23685h-0.11843l-0.11916,0.02648l-0.03972,-0.02648h-4.75299l-0.66279,-0.16569l-0.68118,-0.0524l-1.58852,-0.52951l-0.25807,-0.16423l-0.29862,-0.06636l-1.05901,-0.52951l-0.2039,-0.17478l-0.25291,-0.09032l-0.57411,-0.38273l-0.29284,-0.14642l-0.26346,-0.22582l-0.2117,-0.01176l-0.54827,-0.63965l-0.63964,-0.54827l-0.01176,-0.2117l-0.22582,-0.26346l-0.40549,-0.81098l-0.04145,-0.02368l-0.02961,-0.11843l-0.05296,-0.10592l-0.16426,-0.73917l-0.12767,-0.10942l-0.0093,-0.16756l-0.14571,-0.08326l-0.53125,-2.125v-2.11802l0.1657,-0.66279l0.05239,-0.68118l0.31141,-0.93422v-1.4158l-0.02648,-0.03972l0.02648,-0.11916v-0.11842l0.23685,-0.94737l0.21184,-0.95328l0.05296,-0.10592l0.02961,-0.11842l0.04145,-0.02369l0.00566,-0.01132l0.434,-1.30198l0.45014,-0.70737l0.01802,-0.32449l0.41462,-0.35539l0.29318,-0.46071l0.31868,-0.06374l0.00006,-0.00005l0.32626,-0.54375l1.32376,-1.32377l0.58583,-0.3515l0.51871,-0.44461l0.52951,-0.26476l0.21292,-0.04731l0.03129,-0.01877l0.02388,0.00651l0.03053,-0.00679l0.25807,-0.16423l0.70015,-0.23338c0.44914,-0.16148 0.93333,-0.24947 1.43808,-0.24947zM228.93612,180.16447l-0.21993,-0.03665l0.12652,0.15571l0.2531,-0.05062z" fill="#000000" stroke-width="0.5"/><path d="M252.36408,177.70131c4.83451,-3.0765 18.30268,-2.26842 22.7611,2.03276c5.32894,5.14099 6.25582,14.67926 -0.2348,19.23277c-6.30196,4.42116 -15.58223,2.37727 -21.18234,-2.21372c-1.31667,-1.07941 -4.5451,-2.89991 -5.04781,-4.53978c-0.3978,-1.29762 -0.51861,-2.41748 -0.45642,-3.44487c-0.04912,-0.25852 -0.07483,-0.52533 -0.07483,-0.79815c0,-1.00257 0.34715,-1.92406 0.9278,-2.65082c0.45984,-1.16578 1.0303,-2.34727 1.52527,-3.71337c0.47025,-1.29788 0.65614,-2.6958 1.7367,-3.67813z" fill="#000000" stroke-width="0.5"/><path d="M250.67899,197.72433c12.7993,2.84429 11.96057,22.3055 9.12526,31.55437c-1.85238,6.04255 -17.4144,7.64414 -21.69369,6.23415c-10.22003,-3.36742 -7.44922,-10.95449 -6.92576,-22.11998c0.26731,-5.70164 1.19391,-12.033 5.74559,-15.71963c0.16749,-0.13566 0.61174,-0.26734 1.23972,-0.38777c0.71197,-0.53797 1.5986,-0.85703 2.55974,-0.85703c0.6254,0 1.21924,0.13508 1.75396,0.37766c3.31596,-0.20757 6.9314,-0.14728 7.2783,0.45979z" fill="#000000" stroke-width="0.5"/></g></g></svg>