<svg version="1.1" xmlns="http://www.w3.org/2000/svg" xmlns:xlink="http://www.w3.org/1999/xlink" width="321.35364" height="319.58799" viewBox="0,0,321.35364,319.58799"><g transform="translate(4.67405,-74.13601)"><g data-paper-data="{&quot;isPaintingLayer&quot;:true}" fill-rule="nonzero" stroke="none" stroke-linecap="butt" stroke-linejoin="miter" stroke-miterlimit="10" stroke-dasharray="" stroke-dashoffset="0" style="mix-blend-mode: normal"><path d="M70.60139,305.43566c2.3942,3.15585 4.34754,6.72242 7.33553,9.30666c11.06859,9.57306 27.56782,12.74034 40.84995,17.60865c2.48518,0.91089 20.78636,8.63115 24.79499,9.68633c6.16769,1.62351 13.93405,1.47217 20.25296,1.16564c3.57591,-0.17346 7.30301,0.56697 10.73009,-0.46857c2.26692,-0.68499 4.54247,-1.89509 6.75107,-3.35531c-9.32968,-1.05269 -18.64588,-2.64282 -28.06099,-4.58648c-15.90662,-3.28378 -32.63136,-7.65787 -46.9958,-15.68591c-3.4201,-1.91143 -6.03278,-5.00102 -9.02347,-7.53208c-3.24832,-2.74911 -6.49415,-5.55106 -9.65643,-8.45387c-2.81271,6.29848 -9.8765,4.33212 -9.8765,4.33212c-2.33826,-0.65099 -4.70778,-1.33743 -7.10138,-2.01725zM199.38399,344.05576c-1.26749,11.87328 -0.75465,27.42159 -8.66714,37.10408c-5.34893,6.54547 -16.65465,9.48062 -24.19718,10.91668c-30.41496,5.79098 -62.04254,-5.03402 -91.61741,-11.62666c-17.74554,-6.81251 -38.00199,-9.22392 -54.588,-18.79529c-2.33661,-1.3484 -14.90002,-10.16519 -16.92256,-13.12382c-8.2994,-12.14062 -11.17521,-32.39149 -3.92118,-45.69147c4.28343,-7.85348 15.49562,-14.0651 23.75178,-16.38849c17.38372,-4.89196 33.9367,-1.96469 50.67659,2.41352c-2.50144,-3.0645 -4.82636,-6.27726 -6.91135,-9.67591c-2.31599,-3.77521 -3.29064,-8.22408 -4.93595,-12.33612c-4.10779,-10.55992 -8.35483,-22.28806 -10.52858,-34.00306c-7.94231,-0.8977 -15.75655,-3.2667 -24.00369,-7.85291c-10.30078,-6.63025 -22.5477,-14.04146 -26.17364,-26.79323c-3.55812,-12.51333 -1.01048,-29.06916 10.52897,-36.73635c2.78378,-1.84962 6.23471,-2.41064 9.34331,-3.63826c1.11412,-0.43998 2.86142,-0.25964 3.32444,-1.36438c0.87306,-2.08306 -0.27369,-4.54568 0.08707,-6.7753c0.9402,-5.81077 2.43114,-11.52031 3.79954,-17.24537c5.09932,-21.33406 15.33094,-49.92243 38.72111,-57.36865c7.66212,-2.4392 29.01763,0.54559 37.12898,1.41345c16.76489,1.79373 32.78672,4.74452 48.63,10.53365c4.37514,1.23795 9.02967,1.229 13.43784,2.34353c4.32124,1.09253 8.36884,3.09433 12.63692,4.37459c1.55149,-0.97363 2.99867,-1.29028 2.99867,-1.29028l11.5742,2.26065c0.54639,0.70629 1.06371,1.4347 1.5544,2.18186c5.33983,0.93822 10.09077,1.74493 10.63032,1.85672c18.04589,3.73926 37.27173,11.67222 53.38487,20.46869c5.4125,2.95478 11.25233,5.24617 16.21281,8.90944c3.08252,2.27642 5.07928,5.7396 7.56854,8.65296c3.9695,4.64576 8.35917,8.97832 11.80691,14.0234c1.65429,2.42072 2.25633,5.41279 3.33789,8.138c6.26349,15.78219 8.43161,24.61819 9.51986,41.64804c1.15136,18.01766 -3.0849,37.50551 -5.26213,55.33941c-4.40026,21.55803 -8.67104,46.28917 -24.36166,63.11375c-14.73822,15.80334 -36.6153,19.34959 -56.96579,21.08511c-7.16031,0.61064 -14.22509,0.77772 -21.24118,0.57782zM186.63542,130.58944c-4.37536,-0.73804 -8.88879,-1.32903 -14.2602,-2.18342c-4.75264,-0.75597 -9.43762,-2.28478 -14.24991,-2.31786c-5.24655,-0.03607 -10.39385,1.44264 -15.59754,2.11273c-2.67337,0.34425 -5.49556,0.01983 -8.03262,0.93011c-14.9101,5.34966 -27.10953,13.46569 -38.56434,24.02102c-3.52572,3.24888 -7.74871,5.85064 -10.64846,9.66869c-3.12794,4.11853 -4.73088,9.19838 -7.15166,13.76851c-2.30441,4.3505 -5.53036,8.30125 -7.02343,12.99251c-1.56387,4.91365 -1.29036,10.23219 -1.99403,15.34045c-0.51133,3.71208 -1.56507,7.38839 -1.96096,11.10403c4.57339,-0.48399 9.32665,-1.30648 14.40035,-2.201c13.00001,-2.29202 17.49934,-2.92811 28.72451,-10.00383c8.55016,-5.38953 15.69154,-13.06518 24.80083,-17.44391c8.48952,-4.08083 18.24926,-4.26981 26.58635,-8.43853c4.33439,-2.16728 8.15649,-5.24664 12.06263,-8.11473c5.04486,-3.70421 9.00031,-6.19116 11.30271,-12.40025c3.45028,-9.3046 2.80703,-18.0199 1.60574,-26.83448zM50.22286,215.67051c0.41265,-4.37342 1.50348,-8.71182 2.10982,-13.07185c0.84541,-6.07911 0.78761,-12.37342 2.65296,-18.2207c1.79441,-5.62492 5.41162,-10.49566 8.17275,-15.71444c2.86314,-5.41162 4.99164,-11.30437 8.69969,-16.17608c3.47952,-4.57147 8.36256,-7.87988 12.57975,-11.78125c13.27104,-12.27728 27.84235,-21.77215 45.17443,-27.79694c3.41248,-1.18622 7.15072,-1.03912 10.73296,-1.50791c5.99614,-0.7847 11.95431,-2.29921 18.00139,-2.25244c5.61281,0.04339 11.10197,1.66419 16.64929,2.52034c3.44465,0.53163 6.53809,0.97739 9.45177,1.42027c-0.09622,-0.31461 -0.19818,-0.62862 -0.30608,-0.94125c-3.65286,-0.66179 -6.94801,-1.31621 -8.91238,-1.86132c-4.27788,-1.18713 -8.27221,-3.29472 -12.57497,-4.38832c-4.90635,-1.24701 -10.05474,-1.40818 -14.93575,-2.75094c-14.74928,-5.42358 -29.61451,-8.15077 -45.23756,-9.81452c-3.40385,-0.36248 -25.94864,-3.27599 -30.44193,-2.03849c-10.78778,2.97107 -12.96176,11.54762 -17.91212,20.08639c-7.11899,12.27945 -9.96959,27.35241 -12.80367,41.18978c-0.87072,4.25123 -0.11338,9.09468 -2.37093,12.80069c-4.78421,7.85373 -11.04348,7.04697 -17.88599,10.32548c-2.81519,1.34887 -3.75111,6.57919 -3.95081,8.58256c-1.3701,13.74448 8.80233,19.61072 19.12263,26.19202c4.7728,2.70814 9.37852,4.3352 13.98473,5.19899z" fill="#000000" stroke-width="0.5"/><path d="M50.15845,215.74661c-4.60621,-0.86379 -9.22384,-2.50281 -13.99664,-5.21094c-10.32029,-6.5813 -20.51108,-12.48046 -19.14098,-26.22493c0.19971,-2.00335 1.1333,-7.24187 3.94851,-8.59074c6.84248,-3.27849 13.10003,-2.48118 17.88423,-10.3349c2.25756,-3.706 1.49957,-8.57054 2.37029,-12.82175c2.83408,-13.83736 5.71346,-28.97319 12.83243,-41.25264c4.95036,-8.53877 7.15605,-17.13674 17.9438,-20.10781c4.49328,-1.23749 27.08101,1.66819 30.48486,2.03067c15.62305,1.66375 30.55043,4.41603 45.29969,9.83959c4.881,1.34278 10.04053,1.51552 14.94685,2.76253c4.30276,1.0936 8.30448,3.2116 12.58236,4.39873c1.96437,0.54511 5.26278,1.20522 8.91565,1.86701c0.1079,0.31265 0.03344,0.71939 0.12967,1.03399c-2.91368,-0.44285 -6.00401,-0.88307 -9.44866,-1.4147c-5.54732,-0.85615 -11.02827,-2.46532 -16.64109,-2.50872c-6.04708,-0.04676 -11.99429,1.47918 -17.99044,2.26387c-3.58225,0.46879 -7.31003,0.32979 -10.72253,1.51601c-17.33208,6.02479 -31.77905,15.50927 -45.05008,27.78657c-4.21719,3.90138 -9.07045,7.15329 -12.54998,11.72476c-3.70804,4.87171 -5.83998,10.71849 -8.70312,16.13011c-2.76112,5.21879 -6.38823,10.06782 -8.18265,15.69274c-1.86535,5.84728 -1.82071,12.12451 -2.66611,18.2036c-0.60631,4.36003 -1.7047,8.69135 -2.11734,13.06477z" data-paper-data="{&quot;noHover&quot;:false,&quot;origItem&quot;:[&quot;Path&quot;,{&quot;applyMatrix&quot;:true,&quot;segments&quot;:[[[-36.02848,164.07716],[0,0],[-0.02705,-2.20395]],[[-35.67207,157.44303],[-0.07029,2.20758],[0.09801,-3.07799]],[[-35.3189,148.21113],[-0.61923,3.01665],[0.59568,-2.90194]],[[-32.07833,139.93565],[-1.09962,2.7508],[1.14025,-2.85244]],[[-28.59945,131.40179],[-1.59054,2.62807],[1.49251,-2.4661]],[[-22.95068,124.85393],[-1.89623,2.17107],[5.96725,-6.83216]],[[-1.89288,108.57958],[-8.32638,3.92898],[1.63937,-0.77357]],[[3.38166,107.25562],[-1.76227,0.42468],[2.94978,-0.71085]],[[12.24289,105.17308],[-3.01948,0.29874],[2.80264,-0.27729]],[[20.68373,105.54378],[-2.81325,-0.1317],[1.74691,0.08178]],[[25.47502,105.74897],[-1.47727,-0.06577],[-0.06476,-0.15184]],[[25.27218,105.29566],[0.07049,0.15024],[-1.85772,-0.13562]],[[20.72651,104.84169],[1.00909,0.16734],[-2.19754,-0.36444]],[[14.21893,103.32203],[2.20496,0.31645],[-2.51427,-0.36084]],[[6.62072,102.74502],[2.50673,0.40997],[-7.64752,-1.92036]],[[-16.47177,100.25775],[7.88321,-0.00201],[-1.71754,0.00044]],[[-31.76832,100.86205],[2.17586,-0.85672],[-5.22396,2.05687]],[[-39.63517,111.83749],[2.01504,-4.52379],[-2.89778,6.50558]],[[-43.82936,133.06968],[0.67699,-7.05464],[-0.20799,2.16738]],[[-44.33049,139.58243],[0.92895,-1.96922],[-1.96863,4.17316]],[[-52.70417,145.68659],[3.23922,-2.00013],[-1.33271,0.82291]],[[-54.21819,150.17899],[-0.00706,-1.01015],[0.04847,6.93032]],[[-43.2826,162.22815],[-5.49949,-2.73386],[2.52547,1.09693]],[[-36.02849,164.07718],[-2.34412,-0.18563],[0,0]]],&quot;closed&quot;:true,&quot;fillColor&quot;:[0,0,0,1],&quot;strokeWidth&quot;:0.5}]}" fill="#302617" stroke-width="0.25"/><path d="M186.71628,130.53123c1.20129,8.81459 1.85993,17.56233 -1.59035,26.86692c-2.30241,6.20908 -6.25466,8.71566 -11.29951,12.41988c-3.90616,2.86809 -7.72927,5.96919 -12.06366,8.13646c-8.33709,4.16873 -18.15068,4.43128 -26.64023,8.51211c-9.10928,4.37873 -16.34495,12.05161 -24.89513,17.44113c-11.22517,7.07574 -15.74952,7.69138 -28.74954,9.9834c-5.0737,0.89453 -9.83349,1.70877 -14.40688,2.19277c0.39591,-3.71562 1.44342,-7.40189 1.95475,-11.11397c0.70366,-5.10828 0.42211,-10.44625 1.98595,-15.35989c1.49307,-4.69127 4.71522,-8.66253 7.01962,-13.01302c2.42075,-4.57015 4.02589,-9.68003 7.15386,-13.79856c2.89974,-3.81806 7.13458,-6.4491 10.66032,-9.69797c11.45481,-10.55534 23.75376,-18.71845 38.66386,-24.06813c2.53706,-0.91027 5.37558,-0.5821 8.04893,-0.92635c5.20369,-0.67009 10.37432,-2.13778 15.62086,-2.10171c4.81227,0.03308 9.51379,1.57519 14.26643,2.33119c5.37141,0.85439 9.8953,1.45771 14.27066,2.19573z" data-paper-data="{&quot;noHover&quot;:false,&quot;origItem&quot;:[&quot;Path&quot;,{&quot;applyMatrix&quot;:true,&quot;segments&quot;:[[[27.49858,114.36344],[0,0],[-2.22225,-0.13518]],[[20.26764,114.03359],[2.72539,0.14019],[-2.41144,-0.12404]],[[13.03468,113.63612],[2.40269,-0.2398],[-2.61951,0.26144]],[[5.36533,115.52092],[2.56052,-0.61147],[-1.31545,0.31413]],[[1.40726,116.41279],[1.2173,-0.58928],[-7.15397,3.46315]],[[-16.55377,130.45122],[5.15282,-5.87632],[-1.58601,1.8087]],[[-21.35151,135.84223],[1.24338,-2.05933],[-1.34123,2.2214]],[[-24.18627,143.09247],[0.96435,-2.40905],[-0.918,2.29327]],[[-26.99839,149.94872],[0.49506,-2.42007],[-0.51853,2.53479]],[[-27.17621,157.70853],[0.079,-2.58608],[-0.05741,1.87925]],[[-27.56317,163.35295],[-0.00037,-1.87487],[2.25596,-0.48505]],[[-20.49582,161.48787],[-2.48371,0.71652],[6.36385,-1.83591]],[[-6.69749,154.96692],[-5.22357,4.12805],[3.97877,-3.14431]],[[4.74699,144.94297],[-4.31156,2.66978],[4.01822,-2.48815]],[[17.56193,139.31685],[-3.93749,2.52388],[2.04707,-1.31214]],[[23.14799,134.62582],[-1.79609,1.63898],[2.31967,-2.11678]],[[28.12666,127.83715],[-0.81801,3.22044],[1.22584,-4.82598]],[[27.49858,114.36346],[1.06881,4.33376],[0,0]]],&quot;closed&quot;:true,&quot;fillColor&quot;:[0,0,0,1],&quot;strokeWidth&quot;:0.5}]}" fill="#302617" stroke-width="0.25"/><path d="M229.01639,110.78484c16.40833,4.28182 29.78541,9.16797 43.54048,19.12285c5.40545,3.91206 9.69382,7.36857 14.14524,12.19774c0.598,0.64874 1.8055,0.85781 2.01995,1.71364c0.14894,0.59439 -1.01336,0.78158 -1.25233,1.34581c-0.78928,1.86345 -1.38987,3.82086 -1.77473,5.80766c-0.20128,1.03913 -1.57978,14.70704 -1.69528,15.82786c0.47706,8.6339 0.9629,17.61954 2.80721,26.09053c0.51454,2.36331 1.86101,4.52753 2.19757,6.92269c0.97205,6.91764 -0.26372,14.07205 0.91661,20.95722c0.11252,0.65638 4.84292,16.67411 4.96054,19.17915c0.62224,13.25428 -3.14202,28.32379 -4.55511,41.56092c-0.72671,6.80752 -1.47515,13.62596 -2.18851,20.4349c-0.18789,1.79355 -0.48303,7.37826 -1.54343,9.37562c-3.70233,6.97363 -10.79669,12.52279 -17.43217,16.25755c-2.86544,0.90437 -6.03719,-0.1578 -9.01597,0.23656c-3.2299,0.42759 -6.305,1.68861 -9.39664,2.7166c-5.85875,1.94803 -11.23379,5.16247 -16.83528,7.75924c-5.88293,2.72725 -13.14118,2.75316 -19.49526,3.21687c-11.13805,0.81283 -22.76665,0.28116 -33.91247,-1.42577c0.30035,-0.18753 0.60036,-0.38013 0.89837,-0.57714c-3.98896,-0.45008 -8.02028,-1.01132 -12.05255,-1.65684c-16.73984,-4.29205 -31.7836,-12.32563 -48.2961,-17.56134c-6.51313,-2.73418 -13.49459,-4.2925 -20.01221,-7.01592c-2.09262,-0.87442 -4.29052,-2.22643 -6.45986,-3.85172c-2.06057,-1.75183 -4.14748,-3.54935 -6.14691,-5.35271c-2.99962,-2.96509 -5.67433,-6.13184 -7.59015,-8.82641c-1.64533,-2.31411 -1.16275,-5.5722 -1.98673,-8.28942c-0.72202,-2.38098 -2.72721,-4.31969 -3.1561,-6.77049c-1.2966,-7.40923 3.33892,-16.53008 5.64801,-23.23633c2.00825,-5.8325 1.90674,-12.79275 6.3787,-17.5388c7.55497,-8.01804 21.82018,-5.93928 31.18978,-5.14741c3.76691,-1.58077 8.03787,-2.01631 11.10313,-4.71679c2.53262,-2.23125 2.78142,-6.17502 4.42154,-9.12503c3.00075,-5.39729 5.83942,-11.05461 9.9431,-15.66922c9.99913,-11.24411 27.28904,-13.31461 34.95159,-27.10131c9.12721,-16.42199 -3.38164,-36.51768 9.8728,-52.04404c3.57405,-4.18668 8.58391,-8.81783 14.50952,-9.39545c3.10292,-0.30248 6.19065,0.81339 9.28175,1.21933c0,0 8.42858,0.90068 9.3277,-7.5218c0.02938,-0.27516 0.04866,-0.54234 0.05875,-0.80168c2.14123,0.51914 4.34051,1.08673 6.62542,1.68299z" data-paper-data="{&quot;noHover&quot;:false,&quot;origItem&quot;:[&quot;Path&quot;,{&quot;applyMatrix&quot;:true,&quot;segments&quot;:[[[44.18446,101.78782],[1.09594,0.14497],[0.00878,0.12992]],[[44.19777,102.19091],[0,-0.13885],[0,4.25]],[[39.94777,106.44091],[0,0],[-1.56382,-0.0379]],[[35.25632,106.32722],[1.53199,-0.31617],[-2.92562,0.60379]],[[28.5244,111.78728],[1.56017,-2.27916],[-5.78592,8.45231]],[[26.381,138.27648],[3.67908,-8.67932],[-3.08869,7.28652]],[[10.41866,153.626],[4.38987,-6.14243],[-1.80162,2.52088]],[[6.2944,161.95645],[1.20966,-2.85261],[-0.66117,1.55917]],[[4.57339,166.73678],[1.14473,-1.24809],[-1.38548,1.51058]],[[-0.81216,169.70468],[1.79518,-0.9893],[-4.71682,0.10395]],[[-16.0025,173.90815],[3.34226,-4.40271],[-1.97836,2.60606]],[[-18.2532,182.99144],[0.69131,-3.0169],[-0.79488,3.46885]],[[-19.83733,194.8781],[-1.04151,-3.62753],[0.34451,1.19991]],[[-17.90375,198.0855],[-0.48704,-1.14946],[0.55582,1.31178]],[[-16.47297,202.11293],[-0.94413,-1.06692],[1.09935,1.24233]],[[-12.21902,206.109],[-1.65448,-1.31957],[1.09358,0.79324]],[[-8.86942,208.45002],[-1.12135,-0.76427],[1.16888,0.69535]],[[-5.44354,210.02582],[-1.09061,-0.32481],[3.3968,1.01163]],[[4.9078,212.45582],[-3.39513,-1.01723],[8.51721,1.73272]],[[29.91786,218.63902],[-8.58038,-1.24981],[2.04615,0.1073]],[[36.01409,218.82365],[-2.01413,-0.0121],[-0.13819,0.11417]],[[35.59699,219.15943],[0.13986,-0.10956],[5.65175,0.25799]],[[52.57844,218.06704],[-5.51367,0.99875],[3.14546,-0.56977]],[[62.12621,215.42686],[-2.78984,1.67399],[2.65637,-1.5939]],[[70.10596,210.66294],[-2.81928,1.28394],[1.48773,-0.67753]],[[74.64645,208.80945],[-1.58868,0.38536],[1.46516,-0.3554]],[[79.12992,208.21317],[-1.38145,0.60382],[3.11164,-2.21674]],[[86.95525,199.1804],[-1.47574,3.67645],[0.42268,-1.05301]],[[87.22416,194.42315],[0.00178,0.90484],[-0.00674,-3.43509]],[[87.22416,184.11787],[0,3.43509],[0,-6.67949]],[[87.27904,163.15756],[1.01637,6.57964],[-0.1921,-1.24356]],[[83.78304,153.86202],[0.0911,0.32148],[-0.9556,-3.37226]],[[82.21195,143.46494],[0.85341,3.39955],[-0.29548,-1.17706]],[[80.74813,140.13145],[0.38258,1.15169],[-1.37132,-4.12808]],[[77.96389,127.27412],[0.69786,4.28219],[-0.00207,-0.56534]],[[77.9701,119.2911],[-0.04508,0.52916],[0.0862,-1.01173]],[[78.54721,116.30007],[-0.29454,0.97174],[0.08919,-0.29424]],[[79.10042,115.562],[0.10597,0.28862],[-0.15258,-0.41557]],[[78.00209,114.81534],[0.3329,0.29182],[-2.47809,-2.17227]],[[70.30081,109.48779],[2.90523,1.6639],[-7.39283,-4.23406]],[[47.57683,102.27404],[8.41444,1.26236],[-1.17174,-0.17579]]],&quot;closed&quot;:true}]}" fill="#000000" stroke-width="0.5"/><path d="M203.4348,312.99102c2.24115,-1.55118 4.46889,-3.10433 6.71003,-4.65551c3.02107,-7.75864 7.55212,-13.88265 9.7608,-22.07205c3.43754,-12.74565 2.96987,-27.37855 3.33095,-40.44712c0.31139,-11.2699 2.48225,-22.80854 3.6785,-34.01449c0.02435,-0.228 0.09548,-0.64963 0.11967,-0.87754c-0.07671,6.76774 -0.30839,13.57652 -0.62145,20.50816c-2.37224,22.16811 -2.73617,44.43332 -8.01585,66.11173c-1.50068,6.16181 -2.5946,13.04806 -4.89973,18.97067c-0.54609,1.40309 -1.44989,2.64141 -2.15997,3.96908c-0.80688,1.50862 -1.80208,2.93769 -2.49846,4.49539c-0.62562,-1.17223 -1.93422,-2.19399 -2.86913,-3.14426c-2.34108,-2.37951 -5.10173,-4.82872 -7.40221,-7.54113z" data-paper-data="{&quot;noHover&quot;:false,&quot;origItem&quot;:[&quot;Path&quot;,{&quot;applyMatrix&quot;:true,&quot;selected&quot;:true,&quot;segments&quot;:[[[86.49198,410.66424],[0,0],[2.58441,2.46147]],[[94.66448,417.39858],[-2.58947,-2.12498],[1.03412,0.84862]],[[97.85665,420.2304],[-0.74912,-1.10303],[0.52893,-1.62852]],[[99.86682,415.4788],[-0.64441,1.5913],[0.56711,-1.40042]],[[101.59524,411.2886],[-0.39546,1.45822],[1.66926,-6.15532]],[[104.44764,391.84018],[-0.84107,6.30832],[2.95905,-22.19381]],[[105.40687,325.21133],[-0.00575,22.37275],[-0.42597,-6.94995]],[[103.85324,304.68345],[0.64436,6.76123],[0.00015,0.22997]],[[103.85346,305.37355],[0,-0.23009],[0,11.30912]],[[103.8245,339.71041],[-0.88977,-11.27866],[1.03178,13.07872]],[[104.8203,380.61011],[2.07241,-13.0842],[-1.33158,8.40692]],[[97.39188,403.68354],[2.18808,-8.06364],[-2.07106,1.78654]],[[91.17871,409.04316],[2.07106,-1.78654],[0,0]]],&quot;closed&quot;:true}]}" fill="#ffffff" stroke-width="0.5"/><path d="M131.35412,207.08228c1.2774,0.20155 3.29581,0.97705 3.51677,3.84957c0.32596,4.23748 -3.91152,4.56344 -3.91152,4.56344c-7.36693,0.5636 -15.35819,0.94475 -22.53488,2.88158c-3.30466,0.89185 -6.83047,2.56414 -10.20311,3.66258c-5.71764,1.86217 -13.55677,2.43139 -17.21591,7.90596c-0.89177,1.33421 -2.16629,2.94704 -1.73214,4.492c0.48063,1.71033 10.57725,9.69178 10.73743,9.86635c1.73629,1.89214 4.4233,3.80058 4.33739,6.3672c-0.12309,3.67716 -3.10897,6.67546 -4.88191,9.89933c-4.50648,8.19451 -10.51663,15.01734 -11.635,24.52694c0.49085,1.57203 0.43857,3.43426 1.47256,4.7161c1.4088,1.7465 3.82535,2.39314 5.48246,3.90607c1.51668,1.38472 2.63005,3.15508 3.96293,4.71751c1.00129,1.17373 2.56811,2.02158 3.03932,3.49066c0.66328,2.06788 0.60723,4.38571 0.1693,6.51275c-0.70374,3.41807 -5.58505,7.25594 -1.56555,11.17118c2.97988,2.90258 12.50631,6.82982 15.97408,8.44811c13.3441,6.22722 28.1293,8.24221 42.69119,9.53383c2.94373,0.2611 5.93582,0.11776 8.84147,0.65713c5.52075,1.02481 10.84987,2.96412 16.38359,3.91644c9.35669,2.34706 18.50628,2.75635 28.14405,2.84082c11.79857,0.10341 23.49122,0.48024 35.21311,-0.87725c3.50208,-0.40557 7.17095,-0.04672 10.51097,-1.17513c4.75071,-1.605 9.614,-3.09889 13.96728,-5.58771c2.29849,-1.31407 4.21128,-3.21019 6.33218,-4.795c1.54612,-1.15532 3.36086,-2.00561 4.66857,-3.42517c4.02203,-4.366 4.71933,-7.51204 5.88777,-13.2241c0.81608,-3.98951 0.51734,-10.22905 3.79537,-13.71167c3.76019,-3.99487 8.24742,-3.96467 13.26856,-5.00147c2.45404,-0.8917 4.93403,-1.71501 7.36212,-2.67511c1.32174,-0.52263 3.05817,-0.60975 3.87929,-1.76988c1.01565,-1.43497 0.72852,-11.96886 0.71289,-12.06523c-1.40515,-8.6617 -6.83476,-16.40392 -8.91235,-24.82839c-3.30061,-13.38378 -1.83367,-28.04961 -5.98858,-41.21778c-4.59498,-14.56289 -12.49993,-29.34507 -22.77861,-40.59364c-3.33545,-3.67246 -9.29049,-7.3119 -10.84683,-12.26312c-0.86622,-2.75574 -0.9934,-5.71516 -1.03938,-8.60347c-0.03741,-2.35001 1.25228,-4.55101 1.51185,-6.88694c0.28845,-2.59581 -0.03856,-5.22361 -0.02068,-7.83534c0.01764,-2.57625 1.46188,-5.9962 -0.45689,-7.71542c-3.43657,-3.07916 -9.26019,-2.91488 -13.58358,-3.05141c-4.42945,-0.13989 -8.94759,-0.9061 -13.29489,-0.04555c-2.55686,0.50614 -4.93083,1.69172 -7.40061,2.52472c-10.59467,3.57334 -20.41136,9.01553 -30.25774,14.26612c-9.25729,5.20761 -18.90897,10.47879 -25.28937,19.33074c-3.52474,4.89011 -4.05665,8.063 -6.71626,13.35609c-3.18653,6.34176 -4.8574,8.89626 -9.58592,14.37691c-1.36476,1.58184 -3.01021,2.9007 -4.43587,4.42787c-0.98297,1.05296 -1.50227,2.64722 -2.7835,3.30555c-1.36779,0.70281 -3.06684,0.25737 -4.58811,0.4822c-1.26169,0.18647 -2.47886,0.67253 -3.75188,0.75038c-0.52527,0.03212 -1.07491,-0.70936 -1.51963,-0.428c-0.61877,0.39147 -0.48585,1.41133 -0.9411,1.98479c-0.76525,0.96394 -1.97268,1.53829 -2.66411,2.55648c-0.52352,0.77093 -0.94782,1.61236 -1.32661,2.48939zM122.20548,207.65072c0.00517,-0.00336 0.01035,-0.00672 0.01555,-0.01006c1.19179,-2.55568 1.79701,-5.34627 3.36356,-7.72694c0.87925,-1.3362 2.25315,-2.27192 3.3389,-3.44652c1.21483,-1.31425 1.99476,-3.15247 3.56115,-4.01821c1.31392,-0.7262 2.99726,-0.21535 4.48337,-0.428c1.26253,-0.18066 2.4782,-0.68427 3.75188,-0.75038c0.4976,-0.02583 0.95841,0.68194 1.41489,0.4822c0.37146,-0.16254 -0.04065,-0.88444 0.218,-1.1967c1.39851,-1.68836 3.19714,-3.01107 4.63689,-4.6644c7.16465,-8.22749 9.50539,-18.40507 15.77892,-27.07699c7.17645,-9.92003 17.69171,-15.963 28.10405,-21.81952c10.28198,-5.48454 20.55839,-11.21511 31.65367,-14.87526c2.90626,-0.95873 5.72138,-2.27519 8.727,-2.85115c2.1077,-0.4039 4.29187,-0.04846 6.4379,-0.05488c3.96635,-0.01187 7.96331,-0.1316 11.89189,0.41464c6.48578,0.90181 11.40871,0.42347 16.32251,5.54778c3.40315,3.54895 2.51952,9.10463 2.54461,13.29509c0.01731,2.89093 0.29855,5.79961 -0.02068,8.67291c-0.48079,4.32739 -2.35375,7.02923 -1.02828,11.52309c0.22027,0.7468 0.96938,1.22184 1.51039,1.78177c2.55781,2.64723 5.24576,5.1707 7.7231,7.89339c11.11676,12.28555 19.73764,28.15382 24.67483,44.02136c4.12766,13.26577 2.73683,27.87455 6.01742,41.32349c3.00111,12.30322 10.78647,21.90931 9.12185,35.32277c-0.3745,3.01766 -0.54552,6.35032 -2.3138,8.82413c-2.39926,3.35656 -12.53541,6.38328 -15.77209,7.56102c-0.28279,0.05452 -7.51522,0.72604 -9.2427,2.50229c-2.30945,2.37465 -1.09792,6.53569 -1.79539,9.77391c-0.66214,3.0742 -1.21333,6.23391 -2.53639,9.08675c-3.53885,7.63065 -5.27706,8.1296 -11.23827,12.61444c-7.31157,5.50076 -14.55473,9.00348 -23.31555,11.8233c-3.71309,1.19512 -7.74542,0.93298 -11.62058,1.37851c-9.55793,1.0989 -18.82662,1.04322 -28.45978,1.00227c-12.73181,-0.05412 -25.21447,-0.00002 -37.62729,-3.0931c-2.75463,-0.47783 -5.54503,-0.78222 -8.26388,-1.4335c-2.68692,-0.64363 -5.2046,-1.9357 -7.9205,-2.44336c-3.88026,-0.7253 -7.88196,-0.52377 -11.799,-1.01302c-14.47585,-1.80807 -28.40961,-3.59596 -41.77181,-9.83167c-4.63531,-2.16315 -15.61886,-6.80922 -18.94079,-10.74695c-3.84498,-4.55774 -3.77022,-10.14889 -2.2252,-15.37945c0.47476,-1.60726 3.23907,-3.04765 2.3297,-4.45539c-0.3217,-0.498 -1.05587,-0.58055 -1.46293,-1.01159c-1.27252,-1.3475 -2.18535,-3.02296 -3.54082,-4.28699c-2.0184,-1.88224 -4.95951,-2.82455 -6.52354,-5.09843c-1.75644,-2.55362 -2.0198,-5.86044 -3.0297,-8.79065c0.30025,-2.8016 0.29846,-5.65229 0.90074,-8.40481c0.28444,-1.29991 1.13661,-2.40655 1.72598,-3.59958c1.78743,-3.61824 3.5635,-7.25818 5.7072,-10.67741c1.49288,-2.38117 2.89404,-4.82254 4.48178,-7.14153c1.13718,-1.66092 3.092,-2.86098 3.6839,-4.78491c0.21234,-0.69019 -1.31159,-0.63037 -1.88142,-1.07392c-2.24163,-1.74487 -4.60891,-3.38291 -6.53119,-5.4744c-6.9257,-7.53535 -9.22053,-9.31017 -3.75746,-19.24941c3.74724,-6.81753 7.40447,-7.00405 13.77319,-9.06864c5.81335,-1.88455 12.97214,-4.8017 18.8378,-6.37633c5.0776,-1.36307 10.51046,-2.02354 15.88641,-2.49103z" fill="#ffffff" stroke-width="0.5"/><path d="M132.63645,204.56967c0.69142,-1.01819 1.90013,-1.59482 2.66538,-2.55876c0.45526,-0.57346 0.32319,-1.59471 0.94196,-1.98618c0.44472,-0.28136 0.99455,0.45983 1.51982,0.42771c1.27301,-0.07785 2.49138,-0.56566 3.75306,-0.75213c1.52127,-0.22483 3.22185,0.21857 4.58964,-0.48425c1.28123,-0.65833 1.80288,-2.25535 2.78585,-3.30831c1.42566,-1.52718 3.07486,-2.84972 4.43962,-4.43156c4.72852,-5.48065 6.4099,-8.04231 9.59643,-14.38407c2.65961,-5.2931 3.19887,-8.46901 6.7236,-13.35911c6.38039,-8.85195 16.04847,-14.12552 25.30576,-19.33313c9.84637,-5.2506 19.67654,-10.69063 30.2712,-14.26397c2.46978,-0.833 4.84636,-2.01771 7.40322,-2.52385c4.3473,-0.86056 8.87021,-0.09231 13.29966,0.04758c4.32339,0.13654 10.15176,-0.0251 13.58833,3.05406c1.91877,1.71922 0.47611,5.14021 0.45848,7.71646c-0.01788,2.61173 0.31075,5.24068 0.0223,7.8365c-0.25957,2.33593 -1.54817,4.53777 -1.51076,6.88778c0.04598,2.88831 0.17552,5.84971 1.04174,8.60545c1.55634,4.95123 7.51704,8.59662 10.85248,12.26909c10.27868,11.24857 18.19353,26.05154 22.7885,40.61443c4.15491,13.16817 2.68825,27.85362 5.98886,41.2374c2.07758,8.42447 7.50467,16.17562 8.90982,24.83731c0.01563,0.09637 0.30095,10.63439 -0.71471,12.06936c-0.82112,1.16013 -2.55815,1.24842 -3.87989,1.77106c-2.4281,0.9601 -4.90927,1.78552 -7.36331,2.67722c-5.02114,1.0368 -9.51111,1.01074 -13.27129,5.00561c-3.27803,3.48262 -2.98291,9.72654 -3.79899,13.71604c-1.16844,5.71206 -1.86976,8.86198 -5.8918,13.22798c-1.30772,1.41955 -3.12427,2.27134 -4.6704,3.42667c-2.1209,1.58481 -4.03631,3.48284 -6.3348,4.79692c-4.35328,2.48882 -9.22183,3.98584 -13.97253,5.59085c-3.34002,1.12841 -7.01273,0.77134 -10.51481,1.17691c-11.7219,1.3575 -23.42934,0.98428 -35.2279,0.88087c-9.63776,-0.08447 -18.80038,-0.49434 -28.15706,-2.84139c-5.53372,-0.95231 -10.87041,-2.89358 -16.39116,-3.91839c-2.90565,-0.53937 -5.90136,-0.39743 -8.84509,-0.65853c-14.56189,-1.29162 -29.36152,-3.31611 -42.70562,-9.54333c-3.46777,-1.61829 -12.9987,-5.55037 -15.97857,-8.45295c-4.01951,-3.91524 0.85993,-7.75556 1.56367,-11.17364c0.43793,-2.12704 0.49272,-4.44672 -0.17056,-6.5146c-0.47121,-1.46908 -2.03902,-2.31853 -3.04032,-3.49226c-1.33288,-1.56243 -2.44748,-3.33496 -3.96415,-4.71967c-1.65711,-1.51293 -4.07473,-2.16172 -5.48353,-3.90821c-1.03398,-1.28184 -0.9825,-3.14585 -1.47336,-4.71788c1.11836,-9.5096 7.12587,-16.34051 11.63235,-24.53502c1.77293,-3.22387 4.75801,-6.22637 4.88111,-9.90353c0.08592,-2.56662 -2.60148,-4.47839 -4.33776,-6.37053c-0.16018,-0.17456 -10.25696,-8.16071 -10.73758,-9.87105c-0.43415,-1.54495 0.84044,-3.1598 1.73221,-4.49401c3.65914,-5.47457 11.49875,-6.04839 17.21639,-7.91056c3.37264,-1.09843 6.89898,-2.77365 10.20364,-3.6655c7.17669,-1.93683 15.16945,-2.3235 22.53638,-2.8871c0,0 4.23906,-0.33007 3.9131,-4.56755c-0.22096,-2.87252 -2.23873,-3.64944 -3.51612,-3.85099c0.3788,-0.87702 0.80402,-1.7203 1.32754,-2.49124z" data-paper-data="{&quot;noHover&quot;:false,&quot;origItem&quot;:[&quot;Path&quot;,{&quot;applyMatrix&quot;:true,&quot;segments&quot;:[[[131.35412,207.08228],[0.3788,-0.87702],[1.2774,0.20155]],[[134.87089,210.93184],[-0.22096,-2.87252],[0.32596,4.23748]],[[130.95937,215.49529],[0,0],[-7.36693,0.5636]],[[108.42449,218.37686],[7.17669,-1.93683],[-3.30466,0.89185]],[[98.22138,222.03944],[3.37264,-1.09843],[-5.71764,1.86217]],[[81.00547,229.9454],[3.65914,-5.47457],[-0.89177,1.33421]],[[79.27333,234.4374],[-0.43415,-1.54495],[0.48063,1.71033]],[[90.01077,244.30374],[-0.16018,-0.17456],[1.73629,1.89214]],[[94.34815,250.67094],[0.08592,-2.56662],[-0.12309,3.67716]],[[89.46624,260.57027],[1.77293,-3.22387],[-4.50648,8.19451]],[[77.83125,285.09721],[1.11836,-9.5096],[0.49085,1.57203]],[[79.3038,289.81331],[-1.03398,-1.28184],[1.4088,1.7465]],[[84.78626,293.71938],[-1.65711,-1.51293],[1.51668,1.38472]],[[88.7492,298.43689],[-1.33288,-1.56243],[1.00129,1.17373]],[[91.78851,301.92755],[-0.47121,-1.46908],[0.66328,2.06788]],[[91.95781,308.4403],[0.43793,-2.12704],[-0.70374,3.41807]],[[90.39227,319.61147],[-4.01951,-3.91524],[2.97988,2.90258]],[[106.36635,328.05958],[-3.46777,-1.61829],[13.3441,6.22722]],[[149.05754,337.59341],[-14.56189,-1.29162],[2.94373,0.2611]],[[157.89901,338.25054],[-2.90565,-0.53937],[5.52075,1.02481]],[[174.2826,342.16698],[-5.53372,-0.95231],[9.35669,2.34706]],[[202.42665,345.0078],[-9.63776,-0.08447],[11.79857,0.10341]],[[237.63976,344.13054],[-11.7219,1.3575],[3.50208,-0.40557]],[[248.15073,342.95542],[-3.34002,1.12841],[4.75071,-1.605]],[[262.11801,337.36771],[-4.35328,2.48882],[2.29849,-1.31407]],[[268.45019,332.57271],[-2.1209,1.58481],[1.54612,-1.15532]],[[273.11877,329.14754],[-1.30772,1.41955],[4.02203,-4.366]],[[279.00654,315.92345],[-1.16844,5.71206],[0.81608,-3.98951]],[[282.80191,302.21178],[-3.27803,3.48262],[3.76019,-3.99487]],[[296.07047,297.21031],[-5.02114,1.0368],[2.45404,-0.8917]],[[303.43259,294.5352],[-2.4281,0.9601],[1.32174,-0.52263]],[[307.31188,292.76533],[-0.82112,1.16013],[1.01565,-1.43497]],[[308.02477,280.7001],[0.01563,0.09637],[-1.40515,-8.6617]],[[299.11243,255.87171],[2.07758,8.42447],[-3.30061,-13.38378]],[[293.12384,214.65393],[4.15491,13.16817],[-4.59498,-14.56289]],[[270.34523,174.06029],[10.27868,11.24857],[-3.33545,-3.67246]],[[259.49841,161.79717],[1.55634,4.95123],[-0.86622,-2.75574]],[[258.45902,153.1937],[0.04598,2.88831],[-0.03741,-2.35001]],[[259.97088,146.30675],[-0.25957,2.33593],[0.28845,-2.59581]],[[259.95019,138.47141],[-0.01788,2.61173],[0.01764,-2.57625]],[[259.4933,130.75599],[1.91877,1.71922],[-3.43657,-3.07916]],[[245.90972,127.70458],[4.32339,0.13654],[-4.42945,-0.13989]],[[232.61483,127.65903],[4.3473,-0.86056],[-2.55686,0.50614]],[[225.21422,130.18375],[2.46978,-0.833],[-10.59467,3.57334]],[[194.95648,144.44987],[9.84637,-5.2506],[-9.25729,5.20761]],[[169.66712,163.78061],[6.38039,-8.85195],[-3.52474,4.89011]],[[162.95086,177.1367],[2.65961,-5.2931],[-3.18653,6.34176]],[[153.36494,191.51362],[4.72852,-5.48065],[-1.36476,1.58184]],[[148.92906,195.94149],[1.42566,-1.52718],[-0.98297,1.05296]],[[146.14556,199.24704],[1.28123,-0.65833],[-1.36779,0.70281]],[[141.55745,199.72924],[1.52127,-0.22483],[-1.26169,0.18647]],[[137.80557,200.47962],[1.27301,-0.07785],[-0.52527,0.03212]],[[136.28594,200.05162],[0.44472,-0.28136],[-0.61877,0.39147]],[[135.34484,202.03641],[0.45526,-0.57346],[-0.76525,0.96394]],[[132.68074,204.59289],[0.69142,-1.01819],[-0.52352,0.77093]]],&quot;closed&quot;:true}]}" fill="#000000" stroke-width="0.5"/></g></g></svg>