<svg version="1.1" xmlns="http://www.w3.org/2000/svg" xmlns:xlink="http://www.w3.org/1999/xlink" width="90.53989" height="115.93403" viewBox="0,0,90.53989,115.93403"><defs><linearGradient x1="238.08516" y1="105.19335" x2="238.08516" y2="177.97356" gradientUnits="userSpaceOnUse" id="color-1"><stop offset="0" stop-color="#1a1a1a"/><stop offset="1" stop-color="#ffffff"/></linearGradient></defs><g transform="translate(-194.66191,-82.21626)"><g data-paper-data="{&quot;isPaintingLayer&quot;:true}" fill-rule="nonzero" stroke="none" stroke-linecap="butt" stroke-linejoin="miter" stroke-miterlimit="10" stroke-dasharray="" stroke-dashoffset="0" style="mix-blend-mode: normal"><path d="M197.79121,198.15029v-115.93403h87.41058v115.93403z" fill="#000000" stroke-width="0"/><path d="M221.97405,154.33141c-6.99277,1.12263 -15.22803,1.14082 -20.52597,-2.51083c-8.1131,-5.59202 -8.29332,-17.29494 -3.99791,-25.44954c1.93221,-3.66819 5.44761,-6.55359 8.4357,-9.27387c4.76033,-3.64253 9.53336,-8.38245 15.15801,-10.70373c5.62436,-2.32116 13.25507,-0.75475 18.98254,0.36093c16.07458,3.13123 32.93882,13.94592 39.97434,29.14607c2.71169,8.84507 1.84319,21.00449 -3.23798,29.07362c-2.9613,4.70267 -7.83532,6.60395 -12.6325,8.71455c-2.88966,1.27136 -5.91752,3.14279 -9.06748,3.67956c-9.48858,1.61691 -19.75974,0.10913 -27.26813,-5.90901c-2.17383,-2.44822 -4.36758,-5.10962 -5.41523,-8.29511c-0.95613,-2.9072 -0.64478,-5.8658 -0.40539,-8.83265z" fill="url(#color-1)" stroke-width="0.5"/><path d="M231.62499,161.90487c2.47487,0.35355 2.12132,2.82843 2.12132,2.82843l-0.33109,0.68354c0.29693,2.25675 1.25944,1.89251 3.49792,1.98318c4.65308,0.18847 9.27476,-0.31187 13.91918,-0.25388c1.03674,0.01294 2.07273,0.1114 3.10926,0.08664c0.44148,-0.01055 1.20447,0.23637 1.3108,-0.19224c0.11671,-0.47043 -0.66773,-0.70273 -1.00159,-1.05409c0,0 -0.85436,-2.34948 1.49513,-3.20384c2.34948,-0.85436 3.20384,1.49513 3.20384,1.49513c0.33488,1.48769 1.65993,3.08613 1.00465,4.46308c-1.92758,4.05047 -5.84135,3.37002 -9.12209,3.40533c-4.70958,0.05068 -9.45235,0.51876 -14.16825,0.24768c-2.16445,-0.12442 -5.09692,-0.3726 -6.73578,-2.06347c-0.8613,-0.88864 -0.86814,-2.31785 -1.30221,-3.47677l0.17047,-2.82739c0,0 0.35355,-2.47487 2.82843,-2.12132z" fill="#000000" stroke-width="0.5"/><path d="M233.77147,150.06176l0.12009,-2.18747l1.16676,-3.03358c0.3459,-0.96595 1.26941,-1.65702 2.35431,-1.65702c1.0731,0 1.98829,0.67611 2.34282,1.62559l0.92854,2.32136l-0.38314,0.15326l0.56188,0.79308c-0.56696,1.45005 -0.78214,3.09316 -1.70088,4.35014c-2.51387,3.43933 -6.01981,2.59525 -9.63393,2.87549c0,0 -2.49264,0.19174 -2.68438,-2.30089c-0.19174,-2.49264 2.30089,-2.68438 2.30089,-2.68438c1.89859,-0.14494 3.40386,0.14299 4.62702,-0.25557z" fill="#000000" stroke-width="0.5"/><path d="M254.15358,149.83816v-0.35378c0.22505,-2.1318 -0.27982,-10.22496 6.62474,-5.7918c1.65566,1.06304 1.02036,3.94286 0.6224,5.86974c-0.98306,4.75986 -5.04404,4.44806 -8.60265,5.42202c0,0 -2.41191,0.65779 -3.0697,-1.75412c-0.65779,-2.41191 1.75412,-3.0697 1.75412,-3.0697c0.85184,-0.23156 1.78296,-0.22162 2.6711,-0.32236z" fill="#000000" stroke-width="0.5"/></g></g></svg>