<svg version="1.1" xmlns="http://www.w3.org/2000/svg" xmlns:xlink="http://www.w3.org/1999/xlink" width="1130.29281" height="498.75324" viewBox="0,0,1130.29281,498.75324"><g transform="translate(330.13427,68.52553)"><g data-paper-data="{&quot;isPaintingLayer&quot;:true}" fill-rule="nonzero" stroke="none" stroke-linecap="butt" stroke-linejoin="miter" stroke-miterlimit="10" stroke-dasharray="" stroke-dashoffset="0" style="mix-blend-mode: normal"><path d="M-330.13427,57.50003c0,-6.90356 5.59644,-12.5 12.5,-12.5c6.90356,0 12.5,5.59644 12.5,12.5c0,6.90356 -5.59644,12.5 -12.5,12.5c-6.90356,0 -12.5,-5.59644 -12.5,-12.5z" fill="#262429" stroke-width="0.5"/><path d="M787.65855,68.49853c-6.90356,0 -12.5,-5.59644 -12.5,-12.5c0,-6.90356 5.59644,-12.5 12.5,-12.5c6.90356,0 12.5,5.59644 12.5,12.5c0,6.90356 -5.59644,12.5 -12.5,12.5z" data-paper-data="{&quot;index&quot;:null}" fill="#262429" stroke-width="0.5"/><path d="M-10.55706,392.48949v-461.01502h694.19863v461.01502z" data-paper-data="{&quot;index&quot;:null}" fill="#1a2026" stroke-width="0"/><path d="M-153.88807,429.93581c-58.78198,-2.43282 156.68547,-375.32809 156.68547,-375.32809l165.15109,-0.65244l366.26335,248.41887l-25.53784,69.88682c0,0 -539.97142,62.74853 -662.56207,57.67484z" data-paper-data="{&quot;index&quot;:null}" fill="#0e1414" stroke-width="0"/><path d="M641.5024,173.69655c-1.38071,0 -2.5,-1.11929 -2.5,-2.5c0,-1.38071 1.11929,-2.5 2.5,-2.5c1.38071,0 2.5,1.11929 2.5,2.5c0,1.38071 -1.11929,2.5 -2.5,2.5z" data-paper-data="{&quot;index&quot;:null}" fill="#252525" stroke-width="0.5"/><g stroke-width="0.5"><path d="M340.66252,305.16336c1.34397,-4.0319 5.37587,-2.68794 5.37587,-2.68794l0.73469,0.31944c5.29546,-4.00105 10.15199,-8.6393 14.5321,-13.42518c4.85757,-5.30759 10.80005,-10.50704 14.96252,-16.37633c5.80324,-8.18287 9.27619,-17.75087 13.36731,-26.80993c2.28362,-5.05668 5.193,-9.8505 7.04631,-15.08024c2.66278,-7.51392 3.98152,-16.04367 5.70821,-23.8154c5.17158,-23.21961 5.05489,-46.62391 5.05489,-70.28045c0,-7.41336 0.3501,-14.93047 0.00313,-22.3369c-0.19185,-4.09522 0.14028,-8.30202 -0.9073,-12.26563c-1.96515,-7.43528 -5.71409,-13.18995 -9.51323,-19.74975c-4.11137,-7.09891 -7.93464,-13.88553 -12.76919,-20.52224c-3.31016,-4.55362 -6.51868,-9.7731 -10.59851,-13.65047c-3.64475,-3.46388 -7.65006,-6.53153 -11.60116,-9.64144c-3.76794,-2.96574 -7.29915,-6.32572 -11.49094,-8.65422c-6.52364,-3.62383 -14.45817,-6.14718 -21.35075,-8.98583c-12.7438,-5.24842 -26.00944,-10.45292 -39.4757,-13.55189c-15.71824,-3.61721 -32.13347,-4.88635 -48.17897,-5.89369c-20.68033,0.00511 -41.46664,-0.65765 -62.11855,0.46702c-8.15598,0.44416 -15.66748,1.92606 -23.49955,4.34729c-3.5121,1.08574 -7.16542,1.95092 -10.37108,3.75022c-16.84715,9.45614 -32.10189,21.6273 -48.54487,31.73973c-3.19733,2.23919 -6.70512,4.08707 -9.60171,6.70369c-4.74435,4.2858 -8.92717,9.16692 -13.13976,13.95027c-3.00299,3.40986 -6.63444,6.33943 -9.07118,10.17445c-1.95529,3.0773 -2.89113,6.73156 -4.86929,9.79421c-4.25803,6.59243 -9.95867,12.99674 -12.72932,20.46219c-1.92052,5.1748 -3.15016,10.58037 -4.73623,15.86727c-1.91891,6.39638 -4.2659,12.68262 -4.86786,19.39549c-0.65002,7.24873 -0.05953,14.81843 -0.06799,22.1027c0,8.07917 -0.50931,16.28367 0.75488,24.30283c1.30859,8.3008 3.1045,16.16882 6.75646,23.71612c1.4612,3.01977 4.43788,4.64015 6.44933,7.19398c0.78251,0.99351 0.9758,2.53026 2.05531,3.18908c1.18176,0.72122 2.79609,0.14932 4.11329,0.57557c2.8366,0.91794 5.16711,3.07069 8,4c1.61499,0.52979 3.38871,0.45906 5,1c3.05675,1.02622 5.74769,3.00516 8.83174,3.94615c2.94797,0.89946 6.14152,0.53187 9.20776,0.84449c0.57488,0.05862 9.01649,1.79878 10,2c7.52644,-0.06031 15.05453,-0.02068 22.58122,-0.02068c3.61407,0 6.34503,0.40373 9.65604,-0.7819l3.34396,-0.2181c0,0 0.62886,0 1.40277,0.24189c-0.0282,-6.06086 1.02299,-12.25087 1.3516,-18.18448c0.50679,-9.15075 -0.02733,-17.98404 1.37709,-27.11234c1.45748,-9.47315 5.12814,-18.03993 8.31043,-27.02843c1.01426,-2.83225 1.68883,-5.81026 3.04278,-8.49674c7.95654,-15.78728 23.84563,-26.29539 38.95071,-34.26544c6.1418,-3.24066 9.8722,-5.74928 16.88386,-7.09959c0.38445,-0.07404 13.49539,-0.05489 13.68077,-0.05488c1.13949,0.00004 12.35778,-0.09606 14.31122,0.22611c9.00643,1.48538 16.95699,4.87896 24.79738,9.33386c0,0 3.69003,2.10859 1.58144,5.79863c-2.10859,3.69003 -5.79862,1.58145 -5.79862,1.58145c-6.87691,-3.95439 -13.86522,-6.97661 -21.7883,-8.30022c-4.30825,-0.71972 -8.73516,-0.13998 -13.10311,-0.13982c-4.10645,0.00015 -8.28441,-0.81857 -12.31922,-0.05488c-5.42333,1.0265 -9.48224,3.68452 -14.27185,6.22339c-10.70481,5.6744 -19.83282,11.73113 -27.93613,20.74259c-3.06134,3.40443 -5.17367,5.35677 -7.38736,9.81385c-1.18249,2.38084 -1.75394,5.01902 -2.63091,7.52853c-2.98964,8.44408 -6.57921,16.56816 -7.91996,25.47132c-1.32959,8.829 -0.80352,17.36696 -1.28894,26.21778c-0.3983,7.26238 -2.03727,15.10439 -1.01631,22.38863c0.35539,2.53562 0.76262,5.08225 1.50819,7.5317c1.12097,3.68276 3.4393,6.95894 4.34357,10.70082c1.73867,7.19465 2.04958,14.6615 5.73898,21.32358c2.53142,4.57106 5.39846,8.95763 7.78219,13.60742c4.37205,5.81729 8.92344,9.35375 14.88892,13.47564c4.18544,2.89196 7.77573,6.74724 12.35965,8.95382c2.0859,1.0041 4.53835,1.01052 6.6899,1.86493c1.30748,0.51922 2.52078,1.25608 3.74398,1.96655c0.6657,-0.27634 1.50209,-0.38246 2.54879,-0.17312c1.73533,0.34707 2.60355,1.2722 3.02591,2.23382c3.32008,0.52148 9.82518,1.5418 10.93022,1.75764c9.7874,1.9117 19.4667,4.34626 29.47446,4.93422c5.23628,0.30763 10.49061,-0.00822 15.73592,-0.00822c5.23951,0 10.49206,0.37881 15.71853,0.00933c9.82031,-0.69423 19.5633,-2.95408 29.19063,-4.86696c0.23739,-0.07939 14.05445,-4.70339 14.79384,-4.93963c4.154,-1.32723 8.62603,-1.83849 12.51521,-3.8112c1.52744,-0.77476 3.02661,-1.61464 4.49685,-2.51093c-0.06056,-0.57145 0.00378,-1.22678 0.25304,-1.97458zM360.62092,316.88092c0,1 -0.28549,2.04162 0,3c0.11846,0.39766 0.77329,0.34034 1.07872,0.6212c0.934,0.85887 1.98002,1.66946 2.61006,2.77085c1.27728,2.23282 1.18139,5.01229 1.57986,7.55358c0.32656,2.08274 1.69546,3.91393 2,6c1.07987,7.39709 -0.11598,15.85776 -2.11461,22.86902c-0.55414,1.94394 -1.36047,6.30603 -2.46524,8.04611c-0.81091,1.27722 -2.28813,2.01956 -3.16749,3.25066c-0.80854,1.13196 -1.0945,2.57019 -1.83251,3.74934c-0.23207,0.37079 -5.72668,7.64335 -6.14582,8.22033c-0.86617,1.19233 -1.42973,2.64814 -2.53658,3.62116c-1.48869,1.30869 -3.58931,1.7812 -5.08647,3.08019c-1.43597,1.2459 -2.38694,2.95966 -3.58041,4.43949c-1.82362,0.41892 -3.79862,0.41731 -5.47087,1.25675c-1.83058,0.91892 -2.96656,2.89904 -4.7641,3.88101c-1.86926,1.02116 -4.15302,1.07951 -6.05856,2.03127c-1.58838,0.79335 -2.65102,2.48583 -4.30051,3.14275c-2.09281,0.83348 -4.46431,0.66209 -6.64747,1.21736c-2.05904,0.5237 -3.97612,1.54139 -6.04802,2.01163c-10.28993,2.33541 -21.04825,1.02205 -31.38435,-0.1283c-8.51,-0.94711 -17.17205,-1.57851 -25.60337,-3.10898c-2.76128,-0.50123 -5.44143,-1.4086 -8.21159,-1.85811c-2.82773,-0.45886 -5.73218,-0.35022 -8.55083,-0.86194c-2.57509,-0.4675 -5.00259,-1.5833 -7.57494,-2.06565c-2.79301,-0.52372 -5.68146,-0.4104 -8.47271,-0.94346c-6.58466,-1.2575 -11.86659,-3.2798 -17.55012,-6.64303c-3.55595,-2.66096 -8.34216,-5.22675 -10.97842,-8.91135c-6.43158,-8.98917 -5.33381,-18.87608 -3.86828,-29.13478c0.89359,-6.25514 2.36072,-11.87523 5.51316,-17.5629c0.83634,-1.50893 2.16145,-2.698 3.08973,-4.15218c1.42891,-2.23841 1.68409,-5.04342 2.72858,-7.485c0.40911,-0.95634 1.31216,-1.64834 1.80004,-2.55863c-1.12645,-0.64374 -2.2552,-1.28465 -3.45408,-1.76113c-2.35903,-0.93755 -5.03016,-1.01889 -7.3101,-2.13506c-0.49196,-0.24084 -13.19244,-9.40618 -13.4955,-9.61629c-6.91853,-4.79653 -12.19148,-9.19087 -17.25593,-15.95427c-2.53486,-4.9086 -5.58213,-9.53737 -8.21781,-14.39258c-3.88244,-7.1519 -4.45988,-14.96876 -6.26102,-22.67642c-0.87035,-3.72451 -3.2348,-6.96236 -4.32246,-10.62931c-0.66264,-2.23405 -1.1138,-4.52801 -1.48148,-6.83322c-1.05915,0.52625 -2.11498,0.52626 -2.11498,0.52626l-0.65603,-0.2181c-5.37644,1.70725 -10.7273,1.2181 -16.34397,1.2181c-6.47288,0 -12.94602,0.01847 -19.41878,-0.02069c-3.33581,-0.65417 -6.61682,-1.66888 -10,-2c-3.60077,-0.35242 -7.32313,-0.12837 -10.79224,-1.15551c-3.20401,-0.94864 -5.99578,-3.00456 -9.16826,-4.05385c-1.6137,-0.53373 -3.38984,-0.45569 -5,-1c-2.82441,-0.95478 -5.17925,-3.03445 -8,-4c-1.91006,-0.65382 -4.18182,-0.34314 -5.8867,-1.42443c-1.75127,-1.1107 -2.58277,-3.24703 -3.9447,-4.81092c-2.61514,-3.00296 -5.6743,-5.14616 -7.55067,-8.80603c-4.22666,-8.24409 -6.21645,-17.23528 -7.63178,-26.36046c-1.31531,-8.48036 -0.85687,-17.07934 -0.85687,-25.62059c0.00874,-7.53321 -0.59263,-15.37753 0.10323,-22.87108c0.67878,-7.30967 3.10127,-14.09856 5.19109,-21.06463c0.20146,-0.67154 4.87944,-16.29007 5.0336,-16.69883c2.97599,-7.89061 8.7266,-14.56847 13.27069,-21.53781c2.07962,-3.18955 3.07532,-7.00057 5.13071,-10.20579c2.64729,-4.12824 6.49222,-7.3521 9.73425,-11.03174c4.50325,-5.11111 8.96483,-10.28422 14.05481,-14.84354c3.15396,-2.82514 6.92893,-4.86886 10.39829,-7.29631c16.72264,-10.29706 32.23644,-22.7736 49.45512,-32.26027c5.85706,-3.22695 13.21001,-4.66127 19.62133,-6.27862c12.46192,-3.1437 24.96618,-3.15892 37.75688,-3.15892c14.21087,0 28.42175,-0.00134 42.63262,0.00207c16.5978,1.03287 33.56236,2.3646 49.82103,6.10631c13.92187,3.20393 27.62828,8.55074 40.80478,13.97537c7.24167,2.98132 15.53074,5.66891 22.36877,9.48692c4.54451,2.53742 8.4193,6.12631 12.50906,9.34577c4.23165,3.33116 8.51165,6.6312 12.39884,10.35856c4.36728,4.18769 7.84737,9.71484 11.40256,14.60102c4.9889,6.8703 8.98047,13.88799 13.22973,21.22627c4.27409,7.38115 8.33723,13.86442 10.48676,22.25025c0.42334,1.65153 0.29618,3.397 0.4314,5.09655c0.831,10.4449 0.66444,20.82546 0.66444,31.30092c0,24.28998 0.02985,48.28059 -5.25729,72.12436c-1.80268,8.11039 -3.21616,16.97207 -5.99401,24.81071c-0.11807,0.33317 -7.05236,15.16579 -7.31144,15.73947c-4.34299,9.61677 -8.08488,19.66503 -14.26053,28.33943c-4.35448,6.11635 -10.47449,11.56336 -15.55016,17.09205c-4.39343,4.78554 -9.22158,9.42233 -14.45379,13.51488c2.18665,2.92005 4.97033,5.32255 7.50372,8.2527zM206.62092,325.13373c-0.42776,1.15856 -1.55253,1.95813 -2.0398,3.09295c-1.19967,2.79393 -1.68134,5.9233 -3.27142,8.515c-2.48345,4.04785 -4.86413,7.74034 -6.62925,12.24016c-0.74171,1.89084 -0.48061,4.03406 -0.76785,6.04476c-0.35559,2.4891 -0.97886,4.96637 -0.96816,7.48072c0.02569,6.03434 -0.55746,10.25062 3.09987,15.3845c2.04229,2.8668 6.26084,5.013 9.02158,7.08865c7.25702,4.43505 14.61372,4.74229 22.8732,6.29085c2.55711,0.47943 4.96925,1.59211 7.52904,2.05702c2.75685,0.5007 5.59902,0.38092 8.3648,0.82963c2.82335,0.45805 5.55713,1.37286 8.37108,1.88555c8.23547,1.50048 16.7098,2.0988 25.02272,3.02397c9.2778,1.03256 19.25208,2.47497 28.49126,0.30353c2.03629,-0.47858 3.92035,-1.49037 5.95198,-1.98837c1.7513,-0.42929 3.67957,-0.10993 5.35253,-0.78264c1.44564,-0.5813 2.30617,-2.15979 3.69949,-2.85725c1.86568,-0.93391 4.1092,-0.97081 5.94144,-1.96873c1.95014,-1.06214 3.24806,-3.1292 5.2359,-4.11899c1.36952,-0.68192 3.01942,-0.4955 4.52913,-0.74325c0.80653,-1.18684 1.34433,-2.6103 2.41959,-3.56051c1.42763,-1.26161 3.44817,-1.70223 4.91353,-2.91981c2.02623,-1.68361 2.94885,-4.36914 4.53286,-6.47415c1.87469,-2.49129 3.14001,-5.39792 4.95222,-7.93502c0.76479,-1.07071 2.06654,-1.67947 2.83251,-2.74934c1.19309,-1.66644 0.97045,-3.9836 1.53476,-5.95389c1.67411,-5.84516 2.73929,-12.95412 1.88539,-19.13098c-0.2887,-2.08832 -1.63745,-3.92322 -2,-6c-0.18038,-1.03327 0.36951,-3.2792 -0.42014,-4.44642c-1.17863,-1.7422 -3.43539,-2.69553 -4.31122,-4.60795c-0.41638,-0.90919 0,-2 0,-3c-2.32391,-1.33827 -5.13086,-3.82638 -6.77372,-6.46302c-2.11703,1.34218 -4.29025,2.58106 -6.518,3.69507c-4.20979,2.10514 -9.00127,2.75633 -13.48479,4.18879c-5.08862,1.62579 -10.13669,3.37583 -15.20616,5.06037c-10.15947,2.04419 -20.44088,4.40311 -30.80937,5.13304c-5.41376,0.38112 -10.85431,0.00933 -16.28147,0.00933c-0.93513,0 -16.08509,0.00235 -16.26408,-0.00821c-10.36506,-0.61126 -20.38864,-3.08387 -30.52553,-5.06579c-1.93312,-0.37795 -6.78027,-1.07359 -10.25237,-1.63615c-0.01038,0.02889 -0.02089,0.05774 -0.03153,0.08656z" fill="#000000"/><path d="M206.60701,325.02629c3.4721,0.56256 8.32016,1.25632 10.25328,1.63427c10.13689,1.98192 20.16737,4.44435 30.53244,5.05561c0.17899,0.01056 15.3442,-0.00357 16.27933,-0.00357c5.42716,0 10.89713,0.36701 16.31089,-0.01411c10.36849,-0.72993 20.68028,-3.0725 30.83975,-5.11669c5.06947,-1.68455 10.12077,-3.43055 15.20938,-5.05634c4.48352,-1.43246 9.27666,-2.08118 13.48645,-4.18632c2.22775,-1.11401 4.40108,-2.35272 6.51811,-3.69489c1.64286,2.63664 4.45239,5.12943 6.77631,6.4677c0,1 -0.4157,2.09227 0.00068,3.00147c0.87583,1.91242 3.13389,2.86898 4.31252,4.61117c0.78965,1.16722 0.24057,3.41557 0.42095,4.44883c0.36255,2.07678 1.71226,3.91526 2.00096,6.00359c0.8539,6.17686 -0.21004,13.29705 -1.88415,19.1422c-0.56431,1.97029 -0.34182,4.29118 -1.5349,5.95762c-0.76597,1.06987 -2.0679,1.68053 -2.8327,2.75124c-1.81221,2.5371 -3.07852,5.44937 -4.95321,7.94066c-1.58401,2.10501 -2.50806,4.79549 -4.53429,6.4791c-1.46536,1.21758 -3.48705,1.66121 -4.91468,2.92282c-1.07525,0.95021 -1.61437,2.37653 -2.4209,3.56337c-1.50971,0.24775 -3.16059,0.0632 -4.53011,0.74512c-1.98784,0.98979 -3.2884,3.06112 -5.23854,4.12326c-1.83224,0.99793 -4.07838,1.03829 -5.94406,1.9722c-1.39332,0.69746 -2.25654,2.27894 -3.70217,2.86024c-1.67296,0.67271 -3.60413,0.35611 -5.35544,0.7854c-2.03163,0.498 -3.92013,1.51325 -5.95642,1.99183c-9.23918,2.17145 -19.24094,0.73795 -28.51874,-0.29461c-8.31292,-0.92518 -16.81463,-1.53099 -25.0501,-3.03147c-2.81394,-0.51269 -5.55435,-1.43241 -8.3777,-1.89046c-2.76579,-0.44871 -5.6124,-0.33335 -8.36925,-0.83405c-2.55979,-0.46491 -4.97536,-1.58191 -7.53247,-2.06134c-8.25948,-1.54856 -15.6219,-1.86643 -22.87891,-6.30147c-2.76074,-2.07565 -6.98113,-4.22752 -9.02342,-7.09433c-3.65733,-5.13388 -3.07568,-9.35946 -3.10137,-15.39379c-0.0107,-2.51435 0.61248,-4.99611 0.96807,-7.48521c0.28724,-2.0107 0.02637,-4.15761 0.76808,-6.04845c1.76512,-4.49982 4.1473,-8.20046 6.63075,-12.24831c1.59008,-2.59171 2.07362,-5.72664 3.27329,-8.52057c0.48727,-1.13481 1.61298,-1.93656 2.04074,-3.09512c0.01064,-0.02881 0.02117,-0.05772 0.03155,-0.08661z" data-paper-data="{&quot;noHover&quot;:false,&quot;origItem&quot;:[&quot;Path&quot;,{&quot;applyMatrix&quot;:true,&quot;segments&quot;:[[[206.62092,325.13373],[0.01064,-0.02881],[-0.42776,1.15856]],[[204.58111,328.22668],[0.48727,-1.13481],[-1.19967,2.79393]],[[201.30969,336.74168],[1.59008,-2.59171],[-2.48345,4.04785]],[[194.68044,348.98185],[1.76512,-4.49982],[-0.74171,1.89084]],[[193.91258,355.0266],[0.28724,-2.0107],[-0.35559,2.4891]],[[192.94443,362.50733],[-0.0107,-2.51435],[0.02569,6.03434]],[[196.0443,377.89182],[-3.65733,-5.13388],[2.04229,2.8668]],[[205.06588,384.98047],[-2.76074,-2.07565],[7.25702,4.43505]],[[227.93908,391.27132],[-8.25948,-1.54856],[2.55711,0.47943]],[[235.46812,393.32834],[-2.55979,-0.46491],[2.75685,0.5007]],[[243.83292,394.15797],[-2.76579,-0.44871],[2.82335,0.45805]],[[252.204,396.04352],[-2.81394,-0.51269],[8.23547,1.50048]],[[277.22672,399.06749],[-8.31292,-0.92518],[9.2778,1.03256]],[[305.71798,399.37102],[-9.23918,2.17145],[2.03629,-0.47858]],[[311.66996,397.38265],[-2.03163,0.498],[1.7513,-0.42929]],[[317.02249,396.60001],[-1.67296,0.67271],[1.44564,-0.5813]],[[320.72197,393.74276],[-1.39332,0.69746],[1.86568,-0.93391]],[[326.66341,391.77403],[-1.83224,0.99793],[1.95014,-1.06214]],[[331.89932,387.65504],[-1.98784,0.98979],[1.36952,-0.68192]],[[336.42845,386.9118],[-1.50971,0.24775],[0.80653,-1.18684]],[[338.84804,383.35129],[-1.07525,0.95021],[1.42763,-1.26161]],[[343.76157,380.43148],[-1.46536,1.21758],[2.02623,-1.68361]],[[348.29443,373.95733],[-1.58401,2.10501],[1.87469,-2.49129]],[[353.24665,366.02231],[-1.81221,2.5371],[0.76479,-1.07071]],[[356.07916,363.27297],[-0.76597,1.06987],[1.19309,-1.66644]],[[357.61392,357.31908],[-0.56431,1.97029],[1.67411,-5.84516]],[[359.49931,338.1881],[0.8539,6.17686],[-0.2887,-2.08832]],[[357.49931,332.1881],[0.36255,2.07678],[-0.18038,-1.03327]],[[357.07916,327.74168],[0.78965,1.16722],[-1.17863,-1.7422]],[[352.76794,323.13373],[0.87583,1.91242],[-0.41638,-0.90919]],[[352.76794,320.13373],[0,1],[-2.32391,-1.33827]],[[345.99422,313.67071],[1.64286,2.63664],[-2.11703,1.34218]],[[339.47622,317.36579],[2.22775,-1.11401],[-4.20979,2.10514]],[[325.99143,321.55458],[4.48352,-1.43246],[-5.08862,1.62579]],[[310.78526,326.61495],[5.06947,-1.68455],[-10.15947,2.04419]],[[279.97589,331.748],[10.36849,-0.72993],[-5.41376,0.38112]],[[263.69443,331.75732],[5.42716,0],[-0.93513,0]],[[247.43035,331.74912],[0.17899,0.01056],[-10.36506,-0.61126]],[[216.90481,326.68333],[10.13689,1.98192],[-1.93312,-0.37795]],[[206.65244,325.04718],[3.4721,0.56256],[-0.01038,0.02889]]],&quot;closed&quot;:true}]}" fill="#29ff00"/><path d="M340.44105,306.17671c-1.47024,0.89629 -2.97048,1.73702 -4.49792,2.51178c-3.88918,1.97271 -8.36395,2.48594 -12.51795,3.81317c-0.73939,0.23624 -14.56005,4.86243 -14.79745,4.94183c-9.62733,1.91288 -19.37781,4.17609 -29.19812,4.87032c-5.22647,0.36948 -10.4833,-0.00803 -15.72281,-0.00803c-5.2453,0 -10.50423,0.31679 -15.74051,0.00916c-10.00776,-0.58796 -19.69618,-3.02193 -29.48358,-4.93363c-1.10504,-0.21584 -7.61368,-1.23639 -10.93376,-1.75786c-0.42235,-0.96162 -1.29163,-1.88687 -3.02696,-2.23393c-1.0467,-0.20934 -1.88391,-0.10332 -2.5496,0.17302c-1.2232,-0.71047 -2.4378,-1.44752 -3.74527,-1.96674c-2.15155,-0.85441 -4.60624,-0.86126 -6.69214,-1.86535c-4.58392,-2.20657 -8.17884,-6.06306 -12.36428,-8.95502c-5.96547,-4.12189 -10.52301,-7.66072 -14.89507,-13.47801c-2.38374,-4.64979 -5.25513,-9.03864 -7.78654,-13.60971c-3.6894,-6.66208 -4.00594,-14.13279 -5.74461,-21.32744c-0.90427,-3.74187 -3.22604,-7.02103 -4.34701,-10.7038c-0.74557,-2.44945 -1.15488,-4.99817 -1.51027,-7.53379c-1.02096,-7.28424 0.61272,-15.133 1.01102,-22.39538c0.48541,-8.85082 -0.04646,-17.40101 1.28312,-26.23001c1.34075,-8.90315 4.92797,-17.04349 7.91762,-25.48757c0.87697,-2.50951 1.44888,-5.15347 2.63137,-7.53431c2.21369,-4.45708 4.32804,-6.41811 7.38937,-9.82254c8.10331,-9.01146 17.24892,-15.09268 27.95373,-20.76708c4.78961,-2.53888 8.86261,-5.20426 14.28594,-6.23076c4.03481,-0.76369 8.22537,0.05256 12.33182,0.05241c4.36795,-0.00016 8.80895,-0.57881 13.1172,0.14091c7.92308,1.32361 14.93304,4.35665 21.80996,8.31104c0,0 3.6227,2.18245 5.73129,-1.50758c2.10859,-3.69003 -1.57807,-5.79564 -1.57807,-5.79564c-7.84038,-4.45489 -15.76978,-7.83841 -24.77621,-9.32379c-1.95344,-0.32217 -13.15873,-0.22508 -14.29821,-0.22512c-0.18538,-0.00001 -13.28437,-0.02129 -13.66882,0.05275c-7.01165,1.35031 -10.72774,3.85186 -16.86953,7.09252c-15.10507,7.97004 -30.97393,18.44613 -38.93047,34.23341c-1.35395,2.68648 -2.02784,5.65864 -3.0421,8.49089c-3.18229,8.9885 -6.8546,17.53935 -8.31209,27.0125c-1.40443,9.1283 -0.8754,17.94942 -1.38219,27.10017c-0.32862,5.93361 -1.38365,12.11797 -1.35545,18.17883c-0.77391,-0.24189 -1.48169,-0.18049 -1.48169,-0.18049l-3.34446,0.21744c-3.311,1.18563 -6.04319,0.78019 -9.65726,0.78019c-7.52668,0 -15.05713,-0.04345 -22.58357,0.01686c-0.98351,-0.20122 -9.42615,-1.94334 -10.00103,-2.00196c-3.06624,-0.31262 -6.26046,0.05357 -9.20843,-0.84589c-3.08406,-0.94099 -5.77588,-2.92198 -8.83263,-3.94819c-1.61129,-0.54094 -3.38532,-0.47099 -5.00031,-1.00078c-2.83289,-0.92931 -5.16406,-3.08385 -8.00066,-4.00179c-1.31721,-0.42625 -2.9317,0.14515 -4.11347,-0.57607c-1.07951,-0.65882 -1.27311,-2.19654 -2.05562,-3.19005c-2.01145,-2.55382 -4.9888,-4.17652 -6.44999,-7.19628c-3.65197,-7.5473 -5.44912,-15.42188 -6.75771,-23.72268c-1.26419,-8.01916 -0.75524,-16.23021 -0.75524,-24.30939c0.00845,-7.28427 -0.58161,-14.85991 0.0684,-22.10863c0.60196,-6.71287 2.94993,-13.00439 4.86885,-19.40078c1.58607,-5.2869 2.81696,-10.69677 4.73748,-15.87157c2.77065,-7.46545 8.47377,-13.87577 12.7318,-20.4682c1.97816,-3.06266 2.91541,-6.71957 4.8707,-9.79688c2.43673,-3.83503 6.07015,-6.76777 9.07314,-10.17763c4.2126,-4.78335 8.39863,-9.66874 13.14299,-13.95455c2.89659,-2.61662 6.40655,-4.46692 9.60388,-6.70611c16.44298,-10.11243 31.71122,-22.29359 48.55837,-31.74973c3.20566,-1.7993 6.8619,-2.66585 10.374,-3.75159c7.83207,-2.42123 15.35023,-3.90544 23.5062,-4.3496c20.65191,-1.12466 41.45708,-0.46329 62.13741,-0.4684c16.04549,1.00735 32.47477,2.28026 48.19301,5.89747c13.46625,3.09897 26.74212,8.30942 39.48592,13.55784c6.89259,2.83865 14.83176,5.36597 21.3554,8.9898c4.19179,2.3285 7.72565,5.69125 11.49359,8.65699c3.9511,3.1099 7.9589,6.18061 11.60365,9.64449c4.07984,3.87738 7.29093,9.1006 10.60109,13.65422c4.83455,6.63672 8.66081,13.4289 12.77218,20.52781c3.79914,6.5598 7.55016,12.31975 9.5153,19.75503c1.04758,3.96361 0.71633,8.17341 0.90817,12.26863c0.34696,7.40644 -0.00201,14.92924 -0.00201,22.3426c0,23.65654 0.11569,47.07977 -5.0559,70.29938c-1.72669,7.77174 -3.04744,16.30773 -5.71022,23.82165c-1.85331,5.22974 -4.76451,10.02763 -7.04813,15.08431c-4.09112,9.05906 -7.56818,18.63385 -13.37142,26.81672c-4.16246,5.86929 -10.10865,11.0733 -14.96622,16.38088c-4.3801,4.78588 -9.2404,9.42783 -14.53585,13.42887l-0.73476,-0.31938c0,0 -4.0331,-1.34295 -5.37707,2.68896c-0.24927,0.7478 -0.31391,1.40338 -0.25334,1.97482z" data-paper-data="{&quot;noHover&quot;:false,&quot;origItem&quot;:[&quot;Path&quot;,{&quot;applyMatrix&quot;:true,&quot;segments&quot;:[[[340.66252,305.16336],[-0.24927,0.7478],[1.34397,-4.0319]],[346.0384,302.47542],[[346.77308,302.79486],[0,0],[5.29546,-4.00105]],[[361.30518,289.36969],[-4.3801,4.78588],[4.85757,-5.30759]],[[376.2677,272.99336],[-4.16246,5.86929],[5.80324,-8.18287]],[[389.63501,246.18343],[-4.09112,9.05906],[2.28362,-5.05668]],[[396.68133,231.10319],[-1.85331,5.22974],[2.66278,-7.51392]],[[402.38954,207.28778],[-1.72669,7.77174],[5.17158,-23.21961]],[[407.44443,137.00733],[0,23.65654],[0,-7.41336]],[[407.44756,114.67043],[0.34696,7.40644],[-0.19185,-4.09522]],[[406.54027,102.4048],[1.04758,3.96361],[-1.96515,-7.43528]],[[397.02703,82.65505],[3.79914,6.5598],[-4.11137,-7.09891]],[[384.25784,62.1328],[4.83455,6.63672],[-3.31016,-4.55362]],[[373.65933,48.48233],[4.07984,3.87738],[-3.64475,-3.46388]],[[362.05817,38.84089],[3.9511,3.1099],[-3.76794,-2.96574]],[[350.56723,30.18667],[4.19179,2.3285],[-6.52364,-3.62383]],[[329.21648,21.20084],[6.89259,2.83865],[-12.7438,-5.24842]],[[289.74078,7.64895],[13.46625,3.09897],[-15.71824,-3.61721]],[[241.56181,1.75526],[16.04549,1.00735],[-20.68033,0.00511]],[[179.44326,2.22227],[20.65191,-1.12466],[-8.15598,0.44416]],[[155.94371,6.56957],[7.83207,-2.42123],[-3.5121,1.08574]],[[145.57264,10.31979],[3.20566,-1.7993],[-16.84715,9.45614]],[[97.02776,42.05952],[16.44298,-10.11243],[-3.19733,2.23919]],[[87.42605,48.76321],[2.89659,-2.61662],[-4.74435,4.2858]],[[74.28629,62.71348],[4.2126,-4.78335],[-3.00299,3.40986]],[[65.21511,72.88793],[2.43673,-3.83503],[-1.95529,3.0773]],[[60.34582,82.68214],[1.97816,-3.06266],[-4.25803,6.59243]],[[47.61651,103.14434],[2.77065,-7.46545],[-1.92052,5.1748]],[[42.88028,119.0116],[1.58607,-5.2869],[-1.91891,6.39638]],[[38.01241,138.40709],[0.60196,-6.71287],[-0.65002,7.24873]],[[37.94443,160.50979],[0.00845,-7.28427],[0,8.07917]],[[38.69931,184.81262],[-1.26419,-8.01916],[1.30859,8.3008]],[[45.45577,208.52875],[-3.65197,-7.5473],[1.4612,3.01977]],[[51.90511,215.72272],[-2.01145,-2.55382],[0.78251,0.99351]],[[53.96041,218.9118],[-1.07951,-0.65882],[1.18176,0.72122]],[[58.07371,219.48737],[-1.31721,-0.42625],[2.8366,0.91794]],[[66.07371,223.48737],[-2.83289,-0.92931],[1.61499,0.52979]],[[71.07371,224.48737],[-1.61129,-0.54094],[3.05675,1.02622]],[[79.90545,228.43352],[-3.08406,-0.94099],[2.94797,0.89946]],[[89.11321,229.27801],[-3.06624,-0.31262],[0.57488,0.05862]],[[99.11321,231.27801],[-0.98351,-0.20122],[7.52644,-0.06031]],[[121.69443,231.25733],[-7.52668,0],[3.61407,0]],[[131.35046,230.47542],[-3.311,1.18563],[0,0]],[134.69443,230.25733],[[136.09719,230.49922],[-0.77391,-0.24189],[-0.0282,-6.06086]],[[137.44879,212.31474],[-0.32862,5.93361],[0.50679,-9.15075]],[[138.82589,185.2024],[-1.40443,9.1283],[1.45748,-9.47315]],[[147.13632,158.17397],[-3.18229,8.9885],[1.01426,-2.83225]],[[150.17909,149.67723],[-1.35395,2.68648],[7.95654,-15.78728]],[[189.1298,115.4118],[-15.10507,7.97004],[6.1418,-3.24066]],[[206.01366,108.31221],[-7.01165,1.35031],[0.38445,-0.07404]],[[219.69443,108.25733],[-0.18538,-0.00001],[1.13949,0.00004]],[[234.00565,108.48344],[-1.95344,-0.32217],[9.00643,1.48538]],[[258.80302,117.81729],[-7.84038,-4.45489],[0,0]],[[260.38446,123.61592],[2.10859,-3.69003],[-2.10859,3.69003]],[[254.58584,125.19736],[0,0],[-6.87691,-3.95439]],[[232.79754,116.89715],[7.92308,1.32361],[-4.30825,-0.71972]],[[219.69443,116.75733],[4.36795,-0.00016],[-4.10645,0.00015]],[[207.3752,116.70245],[4.03481,-0.76369],[-5.42333,1.0265]],[[193.10336,122.92584],[4.78961,-2.53888],[-10.70481,5.6744]],[[165.16723,143.66843],[8.10331,-9.01146],[-3.06134,3.40443]],[[157.77986,153.48228],[2.21369,-4.45708],[-1.18249,2.38084]],[[155.14895,161.01081],[0.87697,-2.50951],[-2.98964,8.44408]],[[147.229,186.48213],[1.34075,-8.90315],[-1.32959,8.829]],[[145.94006,212.69991],[0.48541,-8.85082],[-0.3983,7.26238]],[[144.92375,235.08854],[-1.02096,-7.28424],[0.35539,2.53562]],[[146.43194,242.62024],[-0.74557,-2.44945],[1.12097,3.68276]],[[150.77551,253.32105],[-0.90427,-3.74187],[1.73867,7.19465]],[[156.51449,274.64463],[-3.6894,-6.66208],[2.53142,4.57106]],[[164.29668,288.25205],[-2.38374,-4.64979],[4.37205,5.81729]],[[179.1856,301.72769],[-5.96547,-4.12189],[4.18544,2.89196]],[[191.54525,310.6815],[-4.58392,-2.20657],[2.0859,1.0041]],[[198.23515,312.54643],[-2.15155,-0.85441],[1.30748,0.51922]],[[201.97913,314.51298],[-1.2232,-0.71047],[0.6657,-0.27634]],[[204.52792,314.33986],[-1.0467,-0.20934],[1.73533,0.34707]],[[207.55383,316.57368],[-0.42235,-0.96162],[3.32008,0.52148]],[[218.48405,318.33132],[-1.10504,-0.21584],[9.7874,1.9117]],[[247.95851,323.26554],[-10.00776,-0.58796],[5.23628,0.30763]],[[263.69443,323.25732],[-5.2453,0],[5.23951,0]],[[279.41296,323.26666],[-5.22647,0.36948],[9.82031,-0.69423]],[[308.60359,318.3997],[-9.62733,1.91288],[0.23739,-0.07939]],[[323.39743,313.46007],[-0.73939,0.23624],[4.154,-1.32723]],[[335.91264,309.64887],[-3.88918,1.97271],[1.52744,-0.77476]],[[340.40948,307.13794],[-1.47024,0.89629],[-0.06056,-0.57145]]],&quot;closed&quot;:true}]}" fill="#ffffff"/><path d="M193.44443,209.50733c0,-2.34721 1.90279,-4.25 4.25,-4.25c2.34721,0 4.25,1.90279 4.25,4.25c0,2.34721 -1.90279,4.25 -4.25,4.25c-2.34721,0 -4.25,-1.90279 -4.25,-4.25z" fill="#000000"/><path d="M315.44443,201.50733c0,-2.34721 1.90279,-4.25 4.25,-4.25c2.34721,0 4.25,1.90279 4.25,4.25c0,2.34721 -1.90279,4.25 -4.25,4.25c-2.34721,0 -4.25,-1.90279 -4.25,-4.25z" fill="#000000"/><path d="M320.49574,292.60667c1.90066,3.80132 -1.90066,5.70197 -1.90066,5.70197l-0.89545,0.20389c-2.56754,2.56754 -4.82101,5.12259 -8.13796,6.81264c-1.65491,0.84321 -4.46999,1.3489 -6.24084,2.10865c-3.28652,1.41001 -6.65625,2.88196 -10.20762,3.30283c-4.02579,0.47709 -8.35889,0.02068 -12.41878,0.02068c-7,0 -14,0 -21,0c-2.83978,0 -5.70705,0.36277 -8.51928,-0.03184c-4.42713,-0.62122 -8.8323,-2.23607 -13.24692,-3.03779c-3.66423,-0.66545 -7.01932,-0.96532 -10.5414,-2.13652c-6.39474,-2.12644 -11.69303,-5.8975 -18.03637,-8.01194c0,0 -4.0319,-1.34397 -2.68794,-5.37587c1.34397,-4.0319 5.37587,-2.68794 5.37587,-2.68794c6.34506,2.11502 11.62414,5.8687 17.96363,7.98806c2.83849,0.94894 6.68409,1.35844 9.4586,1.86348c4.25114,0.77382 8.49708,2.33969 12.75308,2.96221c2.46734,0.36089 4.98712,-0.03184 7.48072,-0.03184c7,0 14,0 21,0c3.80562,0 7.80101,0.40262 11.58122,0.02068c2.73473,-0.2763 5.26555,-1.61539 7.79238,-2.69717c1.85752,-0.79524 3.94108,-1.00967 5.75916,-1.89135c2.33345,-1.13162 4.07107,-3.3964 5.86204,-5.18736l3.10455,-1.79611c0,0 3.80132,-1.90066 5.70197,1.90066z" fill="#000000"/></g></g></g></svg>