<svg version="1.1" xmlns="http://www.w3.org/2000/svg" xmlns:xlink="http://www.w3.org/1999/xlink" width="806.96294" height="720.64153" viewBox="0,0,806.96294,720.64153"><defs><radialGradient cx="119.82782" cy="169.65377" r="27.61956" gradientUnits="userSpaceOnUse" id="color-1"><stop offset="0" stop-color="#ffffff"/><stop offset="1" stop-color="#1a1a1a" stop-opacity="0"/></radialGradient></defs><g transform="translate(285.23147,87.75)"><g data-paper-data="{&quot;isPaintingLayer&quot;:true}" fill-rule="nonzero" stroke="none" stroke-linecap="butt" stroke-linejoin="miter" stroke-miterlimit="10" stroke-dasharray="" stroke-dashoffset="0" style="mix-blend-mode: normal"><path d="M-285.23147,574.02757l256.62839,-433.91909c0,0 209.68263,84.15123 305.94267,122.78296c86.03387,34.52769 244.39188,98.08099 244.39188,98.08099l-109.12839,271.9191z" fill="#0e1410" stroke-width="0"/><path d="M-48.5,222.25l17,-310l537,37l-5,273c0,0 -8.38047,170 -12,170c-34.43307,0 -537,-170 -537,-170z" fill="#1b271f" stroke-width="0"/><g><g><path d="M146.34216,296.64948c0,0.86953 -0.20858,1.53046 -0.52569,2.03285c-0.31214,1.26645 -0.7296,2.57746 -1.27622,3.95614c-1.20941,3.61059 -2.14158,7.18269 -4.41491,10.35716c-4.41016,6.15834 -9.73161,9.38041 -16.21338,12.91366c-18.55848,10.11627 -39.10441,9.71486 -59.68271,8.34299c-8.62766,-0.57517 -16.97968,-0.46321 -25.3757,-2.53891c-8.76364,-3.48669 -14.60354,-7.5664 -21.20721,-14.3222c-1.39795,-1.43017 -3.60414,-2.15732 -4.53625,-3.92673c-2.05027,-3.89202 -1.98964,-8.24879 -1.11891,-12.48188c-0.09477,-0.34094 -0.14874,-0.72926 -0.14874,-1.17156c0,-1.3734 0.52038,-2.22643 1.1668,-2.75624c0.68106,-2.23097 1.48133,-4.37057 2.19089,-6.32386c3.90474,-10.74893 10.56165,-21.52161 17.50177,-30.98595c-1.71191,-0.44761 -3.4005,-0.96814 -5.05596,-1.58571c-3.73991,-1.3952 -7.39841,-3.27079 -11.354,-3.80643c-2.41864,-0.68948 -8.19937,-2.10034 -10.58475,-3.59314c-5.01752,-3.14002 -9.28009,-7.53336 -13.35286,-11.61556c-4.23113,-4.24094 -9.15669,-7.30186 -12.44678,-12.63278c-0.95217,-1.54281 -1.07444,-3.469 -1.77533,-5.14103c-0.38402,-0.9161 -0.75014,-1.82949 -1.0991,-2.74169c-1.3351,0.65053 -2.69331,1.22343 -4.07858,1.6889c-3.76935,1.26657 -7.9194,0.7973 -11.89404,0.91697c-9.76584,0.29404 -19.37346,-2.39498 -23.29438,-12.65667c-1.80773,-4.73113 -1.8803,-14.95442 -0.94389,-20.10469c0.21471,-1.1809 1.31975,-2.0822 1.51535,-3.26643c0.32861,-1.98956 -3.67085,-3.0339 -4.03286,-3.57641c-1.6342,-2.44904 -2.6138,-5.31052 -3.43074,-8.13912c-3.47231,-12.02267 -1.11683,-26.39844 2.84639,-37.88858c3.66887,-9.10899 7.26872,-17.1359 14.41335,-24.13237c2.33554,-2.28711 6.16604,-2.51463 8.62272,-4.67109c0.90276,-0.79243 0.48152,-2.4168 1.1488,-3.41561c0.70698,-1.05826 2.2323,-1.43435 2.83876,-2.55324c0.99247,-1.83102 -0.84591,-4.08665 -1.04865,-6.15946c-0.33372,-3.41191 -0.47216,-6.89037 0.00952,-10.28454c0.92959,-6.55032 4.97046,-14.5829 10.05351,-19.00616c2.95801,-2.57404 7.44923,-3.45707 11.78106,-3.7642c0.1355,-0.8235 0.35,-1.61675 0.76715,-2.3323c1.00057,-1.71628 3.1081,-2.48776 4.51514,-3.89025c1.42352,-1.41891 2.15818,-3.65008 3.9544,-4.55189c2.26658,-1.13796 5.01296,-0.77572 7.51254,-1.2052c2.67612,-0.45981 5.12557,-1.87678 7.7989,-2.35253c5.24713,-0.93379 10.5573,0.64868 15.70258,0.72498c4.6583,0.06907 8.92877,-3.25668 13.15338,-4.57625c2.42542,-0.75758 4.95873,-1.11239 7.4381,-1.66859c12.76592,-2.43039 31.2978,3.08217 35.06644,17.59613c0.03202,0.12327 0.05687,0.40843 0.076,0.81487c5.09216,0.04192 10.30997,0.48281 15.11215,0.5149c7.70569,2.16246 13.10983,5.55472 20.11876,9.0577c8.59866,4.29751 18.09031,7.73601 26.32388,12.78159c1.78447,1.09354 3.09176,2.84653 4.8322,4.00884c1.55967,1.04158 3.5589,1.37347 5.00875,2.56321c5.95383,4.88564 9.75414,11.93326 13.53056,18.41035c1.34893,2.31361 4.65259,6.50687 5.72279,9.07076c1.29172,3.09453 1.32201,6.60179 2.47442,9.75086c1.30955,3.57848 2.75376,7.17054 3.32126,10.93861c1.55652,11.01844 0.883,22.20385 0.02408,33.21693c-0.18799,2.41054 0.21156,7.79371 0.00222,10.24663c-0.38835,4.55086 -2.01893,8.91368 -3.27281,13.30561c-3.14558,11.0179 -5.17201,21.11919 -11.51531,31.05744c-3.96947,6.21912 -9.71878,11.42216 -14.90505,16.59225c-4.86129,3.63671 -9.57256,5.12226 -15.02636,7.63958c-0.25147,0.11606 -0.50356,0.23375 -0.75629,0.35285c0.39388,1.3565 0.70672,2.75265 1.45715,3.93454c1.35605,2.13568 4.59118,2.46464 6.13346,4.46998c0.96745,1.25793 1.09002,2.99531 1.86366,4.38089c1.58401,2.83697 4.06165,5.1198 5.58067,7.9921c1.47168,2.78278 1.66553,6.10183 1.97987,9.23406c0.62733,6.25126 1.57516,11.06711 0.78249,16.44531c0.01673,0.1614 0.02552,0.33116 0.02552,0.50972zM100.82758,300.9285c6.29833,0 13.46224,0.90951 19.61369,-0.66743c6.59998,-1.69193 12.59581,-3.94473 18.9012,-6.47777c0.42068,-4.29683 -0.5055,-8.186 -1.02249,-13.37453c-0.22073,-2.21528 -0.08141,-4.63803 -1.18163,-6.57343c-1.41466,-2.4885 -3.47597,-4.56955 -4.99643,-6.98971c-2.33915,0.93655 -7.18267,2.96908 -9.39361,3.34751c-3.25328,0.55683 -6.7088,-0.2235 -9.87681,0.70256c-2.00701,0.58667 -3.73153,2.02461 -5.7825,2.43173c-2.2217,0.44101 -4.53523,-0.09187 -6.79484,0.06489c-6.0108,0.41703 -11.55996,0.7995 -17.64519,0.7995c-16.90049,0 -33.67749,-0.76533 -50.5525,-0.78977c-4.03856,6.33895 -7.62015,13.03594 -10.03933,19.68151c-0.32888,0.90346 -0.76948,1.97823 -1.22989,3.15639c26.65823,0.52297 53.07241,4.68853 80.00032,4.68853zM-17.29408,71.66996c-1.76078,-0.58693 -2.31943,-1.77494 -2.44537,-2.79457c-2.40364,0.28544 -4.65311,0.90533 -6.02585,2.20702c-3.50321,3.32191 -6.75213,9.42697 -7.33472,14.18956c-0.6688,5.46724 2.53912,13.28023 0.54162,18.33248c-0.62913,1.59125 -2.53608,2.34537 -3.48424,3.76975c-0.90853,1.36485 -0.79203,3.39349 -2.01269,4.48811c-2.4817,2.22546 -6.44159,2.42368 -8.76553,4.81341c-6.26343,6.44081 -9.35639,13.246 -12.66989,21.4695c-3.61308,10.35896 -5.31179,22.58283 -2.63761,33.45192c0.45157,1.83537 0.84088,3.79267 1.94633,5.3258c0.75326,1.0447 2.58348,0.92049 3.31953,1.9774c1.28878,1.85055 2.28442,4.05725 2.44952,6.30628c0.12009,1.63588 -1.35273,3.02352 -1.64616,4.63734c-0.76129,4.18716 -0.72065,12.29039 0.63685,16.25253c2.43859,7.11755 9.93469,8.16188 16.22436,7.89309c3.4162,-0.14601 7.00622,0.45753 10.23644,-0.66378c1.242,-0.43115 2.46702,-0.96946 3.6758,-1.5834c-1.48806,-5.10393 -2.49882,-10.2922 -3.15563,-15.83263c-2.31567,-19.53351 -1.72738,-39.75399 4.29067,-58.51847c1.08453,-4.68907 2.13245,-9.92734 3.86394,-14.43139c2.2121,-5.75424 6.03685,-11.30985 8.80055,-16.83098c2.40168,-4.79793 5.20984,-11.43879 9.09409,-15.35921c5.04293,-5.08988 11.61171,-9.147 17.23263,-13.5603c8.29841,-6.51556 17.82267,-14.07714 28.43332,-16.49661c0.34275,-0.07816 9.0839,-0.05817 9.34085,-0.05817c0,0 3.15659,0 3.57836,2.9457c4.12991,-1.22504 8.31562,-2.27825 12.51677,-2.91065c0.43788,-0.06591 0.87955,-0.12438 1.32459,-0.17602c-0.969,-1.52015 -3.25473,-4.57364 -3.56015,-4.92463c-5.57041,-6.40172 -14.44025,-8.46925 -22.59542,-6.73211c-5.86355,1.28932 -10.68241,3.98353 -16.3698,5.47671c-6.77731,1.77933 -13.28611,-1.19437 -20.0506,0.06867c-2.73852,0.51133 -5.2471,2.02217 -8.00858,2.38972c-1.70072,0.22635 -3.59694,-0.38787 -5.13346,0.37555c-1.2252,0.60874 -1.40351,2.38217 -2.36858,3.35185c-0.52444,0.52694 -1.24531,0.84927 -1.91569,1.21511c1.01201,0.38276 2.18697,1.2715 2.18697,3.33521c0,3.62472 -3.62472,3.62472 -3.62472,3.62472c-0.33253,-0.00154 -0.69528,-0.0071 -1.08239,-0.01392l-0.22117,0.69693c0,0 -1.14622,3.43872 -4.58494,2.29247zM-11.28247,202.61711c4.8186,-2.88864 9.49403,-6.01952 12.71215,-10.79105c2.01042,-2.98087 1.08234,-8.55786 4.44623,-9.82734c2.55843,-0.96551 5.24503,1.62005 7.94891,2.02838c1.86789,0.28209 3.81281,0.38854 5.66714,0.0279c4.43259,-0.86208 10.24402,-8.04564 12.83278,-11.30266c4.26765,-5.36927 3.79417,-11.80222 4.85885,-18.17507c0.75358,-4.51062 1.53701,-9.06051 1.53155,-13.63363c-0.00147,-1.22491 -0.10652,-9.50062 0.38267,-10.31308c3.71779,-6.17458 6.11044,-3.95699 11.44476,-3.5721c3.10258,0.22387 6.22382,-0.52512 9.24663,-1.25917c1.7167,-1.25286 7.60075,-5.40033 9.13779,-7.0788c6.92994,-7.56754 9.24161,-18.44334 7.02449,-28.35202c-1.11679,-4.99111 -3.71697,-7.71849 -4.76059,-12.73224c-0.67182,-3.22754 -0.36517,-6.62473 -0.27405,-9.9335c-0.40382,0.0485 -0.80445,0.10371 -1.2015,0.16633c-6.74782,1.06408 -13.41941,3.21937 -19.90625,5.38165l-2.72699,0.18601c0,0 -3.62472,0 -3.62472,-3.62472c0,-0.73396 0.14863,-1.31931 0.38569,-1.78613c-9.08178,2.38264 -17.41813,9.29692 -24.531,14.88969c-5.31271,4.17732 -11.52227,7.97268 -16.34083,12.73163c-3.41535,3.37312 -5.90179,9.576 -7.97329,13.72381c-2.67761,5.36142 -6.45129,10.78086 -8.58768,16.36476c-1.46635,3.83257 -2.66111,9.64958 -3.57191,13.5814c-5.73698,17.89414 -6.29482,37.10369 -4.08095,55.73614c0.53141,4.47259 1.31084,8.66331 2.40653,12.77163c2.58965,-1.76368 5.10458,-3.61898 7.55363,-5.20782zM77.56193,72.61633c0.43245,6.21915 4.04059,10.14195 5.46152,16.15792c2.86859,12.1451 -0.31217,25.64473 -8.78301,34.87794c-2.53436,2.76246 -8.4983,6.68264 -11.41194,8.72869c-6.03822,1.54023 -7.10401,2.45453 -12.88386,1.90234c-1.45405,-0.13891 -4.15855,-1.85693 -4.36272,-0.41061c-0.62979,4.46124 0.85275,10.07384 0.35267,14.6206c-0.27143,2.46787 -1.1927,4.82529 -1.59995,7.27441c-1.2953,7.78999 -1.18731,14.76656 -6.25161,21.38889c-6.09775,7.97371 -14.74781,16.43764 -25.71582,13.97199c-1.34393,-0.30211 -1.82297,-2.23992 -3.11633,-2.71386c-0.67063,-0.24576 1.12273,1.22707 0.95067,1.92028c-0.50669,2.04126 -1.67714,3.87987 -2.82744,5.64063c-3.65186,5.58989 -9.25911,9.38985 -14.80453,12.78292c-2.99116,1.94103 -6.02467,4.15348 -9.15984,6.18934c0.4414,1.21138 0.91417,2.42572 1.42011,3.64823c0.58116,1.40426 0.59316,3.04701 1.38618,4.34347c2.8477,4.65552 7.54942,7.37155 11.26445,11.07845c6.32821,6.31435 11.60983,10.74867 20.32337,13.2448c4.29191,0.64155 8.29665,2.56637 12.35725,4.09731c8.5395,3.21957 18.1641,3.57053 27.06844,4.99853c4.0438,0.64851 8.04836,1.70911 12.13968,1.89306c2.07403,0.09325 4.19008,0.4672 6.22798,0.07064c1.88659,-0.36711 3.43441,-1.78364 5.28275,-2.31053c4.17595,-1.1904 8.5628,-1.46969 12.8018,-2.4113c4.39723,-0.97676 8.95493,-1.18599 13.3093,-2.33888c6.5679,-1.73895 13.05181,-5.6536 19.13399,-8.46059c4.87832,-2.2514 9.12405,-3.34882 13.42713,-6.58718c4.67006,-4.68607 9.97937,-9.39493 13.54843,-15.02274c5.90055,-9.30417 7.68848,-18.70133 10.61518,-29.01102c1.12588,-3.96608 2.72324,-7.87657 3.05021,-11.98638c0.27235,-3.42355 -0.25775,-6.87858 0.00222,-10.30309c0.79431,-10.46309 1.53817,-21.1231 0.02408,-31.59378c-0.44359,-3.32689 -1.86087,-6.45464 -3.00173,-9.61112c-1.0756,-2.97591 -1.05314,-6.29623 -2.26782,-9.21812c-0.50215,-1.2079 -5.13989,-7.97044 -5.34244,-8.3175c-3.30571,-5.66417 -6.53021,-12.1008 -11.76142,-16.36611c-1.28603,-1.04859 -3.0943,-1.2598 -4.47574,-2.17903c-1.68379,-1.12041 -2.93199,-2.83142 -4.65228,-3.89491c-8.04851,-4.97562 -17.40731,-8.29196 -25.84086,-12.5104c-6.23274,-3.1176 -11.00939,-6.34074 -17.81921,-8.33053c-4.46334,0.03688 -9.32823,-0.41528 -14.05802,-0.46692c-0.01398,2.57196 -0.0361,4.84954 -0.01075,5.21419z" fill="#000000" stroke-width="0.5"/><path d="M-17.31782,71.60143c3.43872,1.14624 4.59048,-2.29414 4.59048,-2.29414l0.22159,-0.69705c0.38711,0.00682 0.751,0.01211 1.08353,0.01364c0,0 3.62934,-0.00093 3.62934,-3.62565c0,-2.06371 -1.14937,-2.80975 -2.16138,-3.1925c0.67038,-0.36583 1.36614,-0.83096 1.89058,-1.35789c0.96507,-0.96968 1.14614,-2.7435 2.37134,-3.35224c1.53652,-0.76342 3.43773,-0.14963 5.13845,-0.37598c2.76149,-0.36754 5.27774,-1.87838 8.01625,-2.38971c6.7645,-1.26304 13.29115,1.71391 20.06848,-0.06542c5.68739,-1.49318 10.51651,-4.18326 16.38007,-5.47259c8.15517,-1.73714 17.03944,0.3398 22.60985,6.74152c0.30542,0.35099 2.59443,3.4074 3.56343,4.92755c-0.44504,0.05165 -0.98582,0.21593 -1.4237,0.28184c-4.20115,0.6324 -8.38222,1.68955 -12.51214,2.91459c-0.42177,-2.9457 -3.57522,-2.94336 -3.57522,-2.94336c-0.25695,0 -8.99234,-0.01636 -9.33509,0.06181c-10.61064,2.41947 -20.11429,9.98889 -28.41269,16.50445c-5.62092,4.4133 -12.16441,8.47133 -17.20734,13.56119c-3.88425,3.92042 -6.66565,10.55192 -9.06732,15.34985c-2.76369,5.52113 -6.55685,11.0381 -8.76895,16.79234c-1.73148,4.50405 -2.7772,9.70246 -3.86173,14.39153c-6.01805,18.76448 -6.64512,38.93595 -4.32945,58.46946c0.6568,5.54042 1.65989,10.72548 3.14796,15.8294c-1.20878,0.61394 -2.48453,1.28804 -3.72654,1.71919c-3.23022,1.12132 -6.82684,0.51481 -10.24303,0.66081c-6.28967,0.2688 -13.7974,-0.78298 -16.23598,-7.90052c-1.3575,-3.96213 -1.40498,-12.07147 -0.64369,-16.25864c0.29343,-1.61382 1.76489,-3.00288 1.6448,-4.63876c-0.1651,-2.24903 -1.16463,-4.46022 -2.4534,-6.31077c-0.73605,-1.05691 -2.56829,-0.93537 -3.32155,-1.98007c-1.10545,-1.53313 -1.49762,-3.49471 -1.94918,-5.33008c-2.67419,-10.86909 -0.98585,-23.12305 2.62723,-33.48201c3.3135,-8.2235 6.40885,-15.05683 12.67228,-21.49764c2.32394,-2.38974 6.28779,-2.59848 8.76947,-4.82394c1.22066,-1.09462 1.10782,-3.13012 2.01635,-4.49497c0.94815,-1.42439 2.85966,-2.18517 3.48879,-3.77642c1.9975,-5.05225 -1.198,-12.87787 -0.52919,-18.34511c0.58259,-4.76259 3.845,-10.87611 7.3482,-14.19803c1.37274,-1.30169 3.62863,-1.92431 6.03227,-2.20974c0.12593,1.01963 0.68602,2.20713 2.44681,2.79406z" data-paper-data="{&quot;noHover&quot;:false,&quot;origItem&quot;:[&quot;Path&quot;,{&quot;applyMatrix&quot;:true,&quot;segments&quot;:[[[361.42832,238.98915],[0,0],[-2.42886,-0.80962]],[[358.05514,235.13427],[0.17372,1.4065],[-3.31562,0.39374]],[[349.74298,238.17867],[1.89358,-1.79558],[-4.83238,4.5823]],[[339.62534,257.75199],[0.80364,-6.5696],[-0.92256,7.5416]],[[340.37246,283.04013],[2.75538,-6.96916],[-0.86784,2.195]],[[335.56624,288.24019],[1.3079,-1.96482],[-1.25324,1.8827]],[[332.7899,294.43117],[1.6838,-1.50994],[-3.4233,3.06984]],[[320.69858,301.07087],[3.20568,-3.29644],[-8.63988,8.88456]],[[303.22152,330.68627],[4.5707,-11.34364],[-4.98394,14.28932]],[[299.58316,376.83041],[-3.68882,-14.993],[0.6229,2.53174]],[[302.26796,384.17691],[-1.52488,-2.11482],[1.03906,1.44108]],[[306.84698,386.90457],[-1.01532,-1.45792],[1.77776,2.55268]],[[310.22588,395.60357],[-0.22774,-3.10236],[0.16566,2.25656]],[[307.95514,402.00039],[0.40476,-2.22614],[-1.05014,5.77584]],[[308.83362,424.41941],[-1.87256,-5.46544],[3.36384,9.81806]],[[331.21378,435.30727],[-8.67608,0.37078],[4.71236,-0.2014]],[[345.3341,434.39163],[-4.45582,1.54676],[1.71324,-0.59474]],[[350.40456,432.20747],[-1.66742,0.84688],[-2.05266,-7.04044]],[[346.05164,410.36767],[0.906,7.64256],[-3.19428,-26.94486]],[[351.97026,329.64629],[-8.3014,25.88404],[1.49602,-6.46818]],[[357.30024,309.73939],[-2.38844,6.21296],[3.0514,-7.9375]],[[369.43986,286.52245],[-3.81228,7.61594],[3.31292,-6.61834]],[[381.9844,265.33569],[-5.358,5.4079],[6.9563,-7.02106]],[[405.75538,246.63037],[-7.7536,6.08778],[11.44696,-8.98768]],[[444.97678,223.87467],[-14.6365,3.33746],[0.4728,-0.10782]],[[457.86172,223.79443],[-0.35444,0],[0,0]],[[462.79776,227.85777],[-0.5818,-4.06334],[5.69686,-1.68984]],[[480.0636,223.84277],[-5.79514,0.87234],[0.60402,-0.09092]],[[481.89076,223.59997],[-0.6139,0.07124],[-1.33666,-2.09692]],[[476.97984,216.80685],[0.4213,0.48416],[-7.68392,-8.83064]],[[445.81132,207.52047],[11.24938,-2.39624],[-8.08828,1.77852]],[[423.23054,215.07513],[7.84528,-2.05972],[-9.34874,2.45444]],[[395.5724,215.16985],[9.33106,-1.74226],[-3.77756,0.70534]],[[384.52522,218.46627],[3.80924,-0.507],[-2.346,0.31224]],[[377.44404,218.98431],[2.1195,-1.05308],[-1.69006,0.8397]],[[374.17678,223.60791],[1.33124,-1.3376],[-0.72342,0.72686]],[[371.53424,225.28405],[0.92474,-0.50464],[1.39598,0.52798]],[[374.55098,229.88469],[0,-2.84672],[0,5]],[[369.55098,234.88469],[0,0],[-0.4587,-0.00212]],[[368.05792,234.86549],[0.53398,0.0094],[0,0]],[367.75284,235.82685],[[361.4283,238.98913],[4.74342,1.58114],[0,0]]],&quot;closed&quot;:true,&quot;fillColor&quot;:[0,0,0,1]}]}" fill="#302617" stroke-width="0.5"/><path d="M-11.31941,202.67944c-2.44905,1.58884 -4.96681,3.44239 -7.55645,5.20606c-1.09569,-4.10832 -1.88213,-8.30426 -2.41354,-12.77685c-2.21387,-18.63245 -1.68168,-37.89485 4.0553,-55.78898c0.9108,-3.93182 2.10849,-9.7719 3.57484,-13.60447c2.1364,-5.58389 5.92526,-11.03077 8.60287,-16.39221c2.0715,-4.14781 4.57618,-10.36559 7.99154,-13.73871c4.81856,-4.75895 11.05395,-8.5632 16.36666,-12.74051c7.11287,-5.59277 15.47636,-12.50579 24.55814,-14.88845c-0.23705,0.46682 -0.38565,1.05219 -0.38565,1.78615c0,3.62472 3.62926,3.62597 3.62926,3.62597l2.72957,-0.18516c6.48684,-2.16227 13.17211,-4.31109 19.91993,-5.37517c0.39705,-0.06262 0.79838,-0.1174 1.2022,-0.1659c-0.09113,3.30877 -0.39335,6.70896 0.27846,9.9365c1.04362,5.01376 3.65298,7.74911 4.76977,12.74022c2.21712,9.90868 -0.08058,20.80492 -7.01052,28.37246c-1.53704,1.67847 -7.41899,5.83106 -9.13569,7.08392c-3.02282,0.73405 -6.27801,1.53817 -9.38061,1.31431c-5.33432,-0.38488 -7.59883,-2.66984 -11.31662,3.50474c-0.48919,0.81246 -0.37647,9.14459 -0.375,10.3695c0.00547,4.57312 -0.81075,9.16604 -1.56432,13.67666c-1.06468,6.37285 -0.61773,12.81526 -4.88539,18.18453c-2.58876,3.25701 -8.42262,10.44039 -12.85522,11.30247c-1.85432,0.36065 -3.80747,0.25233 -5.67536,-0.02976c-2.70388,-0.40833 -5.40183,-2.99822 -7.96026,-2.03271c-3.36388,1.26948 -2.43553,6.84661 -4.44595,9.82748c-3.21812,4.77154 -7.89937,7.8993 -12.71797,10.78795z" data-paper-data="{&quot;noHover&quot;:false,&quot;origItem&quot;:[&quot;Path&quot;,{&quot;applyMatrix&quot;:true,&quot;segments&quot;:[[[369.72084,419.61989],[0,0],[6.64686,-3.98464]],[[387.2562,404.73453],[-4.43914,6.58194],[2.7732,-4.11186]],[[393.3894,391.17853],[-4.6402,1.75114],[3.52914,-1.33184]],[[404.35426,393.97651],[-3.72978,-0.56326],[2.5766,0.38912]],[[412.1716,394.01499],[-2.55788,0.49748],[6.1144,-1.18916]],[[429.87336,378.42391],[-3.57098,4.49278],[5.88686,-7.40646]],[[436.57574,353.35291],[-1.46864,8.79082],[1.0395,-6.22202]],[[438.68838,334.54645],[0.00754,6.30824],[-0.00202,-1.68966]],[[439.21624,320.32041],[-0.6748,1.12072],[5.12838,-8.51732]],[[455.00334,315.39299],[-7.35826,-0.53092],[4.27976,0.3088]],[[467.7583,313.65607],[-4.16972,1.01256],[2.36804,-1.72822]],[[480.36312,303.89145],[-2.12022,2.3153],[9.55928,-10.4388]],[[490.05282,264.78219],[3.05834,13.6682],[-1.54052,-6.88482]],[[483.48598,247.21911],[1.43958,6.91606],[-0.92672,-4.45212]],[[483.10796,233.51667],[-0.1257,4.56418],[-0.55704,0.0669]],[[481.4506,233.74611],[0.5477,-0.08638],[-9.30806,1.4678]],[[453.99158,241.16965],[8.94806,-2.98268],[0,0]],[450.22992,241.42623],[[445.22992,236.42623],[0,5],[0,-1.01244]],[[445.76194,233.96241],[-0.327,0.64394],[-12.52756,3.28666]],[[411.92346,254.50151],[9.81162,-7.71476],[-7.32844,5.76226]],[[389.38264,272.06373],[6.6468,-6.56458],[-4.7112,4.65294]],[[378.38414,290.99459],[2.85746,-5.72156],[-3.69354,7.39564]],[[366.53814,313.56841],[2.94698,-7.70252],[-2.0227,5.28672]],[[361.61098,332.30283],[1.25638,-5.42362],[-7.91368,24.68348]],[[355.98164,409.18621],[-3.05384,-25.70192],[0.73304,6.16956]],[[359.30126,426.80361],[-1.51142,-5.66708],[3.5722,-2.43284]],[[369.72086,419.61985],[-3.37826,2.19168],[0,0]]],&quot;closed&quot;:true,&quot;fillColor&quot;:[0,0,0,1]}]}" fill="#302617" stroke-width="0.5"/><path d="M77.56036,72.68882c-0.02535,-0.36464 -0.00006,-2.7872 0.01392,-5.35915c4.72979,0.05164 9.60524,0.50481 14.06858,0.46793c6.80982,1.9898 11.60077,5.21689 17.83351,8.33449c8.43355,4.21843 17.81141,7.54583 25.85992,12.52145c1.72029,1.0635 2.97199,2.77749 4.65578,3.8979c1.38144,0.91923 3.19229,1.13293 4.47833,2.18152c5.23121,4.26531 8.46517,10.71376 11.77088,16.37793c0.20255,0.34706 4.84399,7.11607 5.34615,8.32397c1.21469,2.9219 1.19511,6.24869 2.27071,9.2246c1.14086,3.15648 2.56055,6.29157 3.00414,9.61846c1.51409,10.47069 0.77253,21.15509 -0.02177,31.61818c-0.25996,3.42451 0.26906,6.88751 -0.00328,10.31106c-0.32697,4.10981 -1.92674,8.02965 -3.05262,11.99573c-2.9267,10.30969 -4.72547,19.72757 -10.62602,29.03175c-3.56906,5.62781 -8.88864,10.34774 -13.5587,15.0338c-4.30308,3.23836 -8.55772,4.34242 -13.43604,6.59382c-6.08219,2.80698 -12.58056,6.72869 -19.14847,8.46764c-4.35438,1.15288 -8.92216,1.36491 -13.31939,2.34167c-4.239,0.94162 -8.63593,1.2222 -12.81188,2.4126c-1.84834,0.52689 -3.40026,1.94353 -5.28686,2.31064c-2.0379,0.39656 -4.15867,0.02247 -6.2327,-0.07079c-4.09132,-0.18394 -8.10514,-1.24576 -12.14894,-1.89426c-8.90434,-1.428 -18.54808,-1.7856 -27.08759,-5.00517c-4.0606,-1.53093 -8.07319,-3.46045 -12.36511,-4.10199c-8.71353,-2.49613 -14.0078,-6.94145 -20.33601,-13.2558c-3.71504,-3.7069 -8.42335,-6.43132 -11.27104,-11.08683c-0.79302,-1.29646 -0.80662,-2.94172 -1.38778,-4.34598c-0.50594,-1.22251 -0.98004,-2.43913 -1.42144,-3.65051c3.13517,-2.03586 6.16835,-4.2489 9.15951,-6.18994c5.54542,-3.39307 11.15088,-7.19647 14.80275,-12.78635c1.1503,-1.76076 2.31913,-3.60296 2.82582,-5.64421c0.17206,-0.69321 -1.48677,-2.22006 -0.81614,-1.9743c1.29336,0.47394 1.77093,2.40821 3.11487,2.71032c10.96801,2.46565 19.48409,-5.94303 25.58184,-13.91675c5.0643,-6.62233 4.95345,-13.64088 6.24875,-21.43086c0.40725,-2.44912 1.33403,-4.82208 1.60546,-7.28995c0.50008,-4.54676 -0.96934,-10.17803 -0.33955,-14.63927c0.20417,-1.44632 2.91242,0.26811 4.36647,0.40703c5.77986,0.55219 6.86609,-0.37497 12.90431,-1.9152c2.91363,-2.04605 8.90301,-5.97174 11.43737,-8.73419c8.47084,-9.2332 11.64671,-22.58826 8.77812,-34.73336c-1.42093,-6.01597 -5.02342,-9.93842 -5.45587,-16.15757z" data-paper-data="{&quot;noHover&quot;:false,&quot;origItem&quot;:[&quot;Path&quot;,{&quot;applyMatrix&quot;:true,&quot;segments&quot;:[[[246.13716,120.1473],[0,0],[0.29826,4.2894]],[[249.90402,131.29156],[-0.98003,-4.14927],[1.97849,8.37658]],[[243.8463,155.34717],[5.84241,-6.36822],[-1.74797,1.90529]],[[235.97539,161.36742],[2.00956,-1.41118],[-4.16461,1.06231]],[[227.08928,162.67948],[3.98642,0.38085],[-1.00287,-0.09581]],[[224.08027,162.39628],[0.14082,-0.99754],[-0.43437,3.07696]],[[224.32351,172.48023],[0.34491,-3.13594],[-0.18721,1.70211]],[[223.22001,177.49745],[0.28088,-1.68918],[-0.89338,5.37282]],[[218.90822,192.24955],[3.49289,-4.56748],[-4.20567,5.49954]],[[201.1718,201.88615],[7.56473,1.70058],[-0.92692,-0.20837]],[[199.02244,200.01438],[0.89204,0.32688],[-0.46254,-0.1695]],[[199.67813,201.33881],[0.11867,-0.47811],[-0.34947,1.40787]],[[197.72802,205.2292],[0.79337,-1.21441],[-2.51872,3.85539]],[[187.51721,214.04569],[3.82472,-2.34023],[-2.06303,1.33875]],[[181.19959,218.31453],[2.16235,-1.40415],[0.30444,0.8355]],[[182.17905,220.83075],[-0.34895,-0.84318],[0.40083,0.96853]],[[183.13511,223.82648],[-0.54695,-0.89418],[1.96408,3.21095]],[[190.9043,231.46738],[-2.56229,-2.55668],[4.36462,4.35506]],[[204.9215,240.60243],[-6.0098,-1.7216],[2.96017,0.44248]],[[213.4444,243.42838],[-2.80063,-1.0559],[5.88977,2.22057]],[[232.11373,246.87591],[-6.1414,-0.9849],[2.78904,0.44728]],[[240.48657,248.18157],[-2.82182,-0.12687],[1.43048,0.06432]],[[244.78206,248.23029],[-1.40556,0.27351],[1.3012,-0.2532]],[[248.42562,246.6367],[-1.27482,0.3634],[2.88019,-0.82103]],[[257.25513,244.9736],[-2.92367,0.64944],[3.03281,-0.67368]],[[266.43467,243.36046],[-3.00325,0.79515],[4.52994,-1.19937]],[[279.63155,237.52512],[-4.19494,1.936],[3.36462,-1.55281]],[[288.89236,232.98189],[-2.96787,2.23352],[3.22098,-3.23202]],[[298.23683,222.62058],[-2.46161,3.88155],[4.06966,-6.41717]],[[305.55821,202.61143],[-2.01857,7.11068],[0.77653,-2.73544]],[[307.66196,194.34432],[-0.22551,2.83457],[0.18784,-2.36125]],[[307.66349,187.23819],[-0.1793,2.36191],[0.54784,-7.21648]],[[307.6801,165.44769],[1.04428,7.22172],[-0.30595,-2.29458]],[[305.60978,158.81882],[0.78686,2.17705],[-0.74185,-2.05251]],[[304.04564,152.461],[0.83778,2.01526],[-0.34634,-0.8331]],[[300.36091,146.72435],[0.1397,0.23937],[-2.27998,-3.90663]],[[292.24896,135.4365],[3.60801,2.94182],[-0.88699,-0.72322]],[[289.162,133.9336],[0.95279,0.634],[-1.16132,-0.77276]],[[285.95328,131.24725],[1.1865,0.7335],[-5.55113,-3.43173]],[[268.13062,122.61872],[5.81669,2.90949],[-4.29877,-2.15024]],[[255.84056,116.87308],[4.69679,1.37238],[-3.0784,0.02544]],[[246.14462,116.55104],[3.26218,0.03562],[-0.00964,1.7739]],[[246.1372,120.14731],[-0.01748,-0.2515],[0,0]]],&quot;closed&quot;:true,&quot;fillColor&quot;:[0,0,0,1],&quot;strokeWidth&quot;:0.5}]}" fill="#584529" stroke-width="0.25"/><path d="M20.75627,296.25459c0.46039,-1.17816 0.90038,-2.25637 1.22927,-3.15984c2.41916,-6.64558 6.00159,-13.36938 10.04015,-19.70834c16.875,0.02445 33.74075,0.73518 50.64124,0.73518c6.08522,0 11.68057,-0.34603 17.69137,-0.76306c2.25962,-0.15676 4.5764,0.38319 6.79811,-0.05782c2.05098,-0.40713 3.77539,-1.84528 5.78239,-2.43197c3.168,-0.92606 6.62519,-0.14112 9.87848,-0.69797c2.21094,-0.37844 7.05435,-2.4113 9.39349,-3.34787c1.52045,2.42016 3.58429,4.51118 4.99895,6.99969c1.10022,1.9354 0.96188,4.3664 1.18261,6.5817c0.517,5.18853 1.44237,9.09398 1.02167,13.39081c-6.30539,2.53303 -12.30554,4.80114 -18.9055,6.49306c-6.15144,1.57694 -13.32645,0.6862 -19.62479,0.6862c-26.92791,0 -53.46921,-4.1968 -80.12745,-4.71978z" data-paper-data="{&quot;noHover&quot;:false,&quot;origItem&quot;:[&quot;Path&quot;,{&quot;applyMatrix&quot;:true,&quot;segments&quot;:[[[262.18368,277.61616],[-18.57241,0],[4.34401,0]],[[275.7114,277.15583],[-4.2427,1.08763],[4.55206,-1.16694]],[[288.74773,272.68806],[-4.34888,1.74705],[0.29015,-2.96356]],[[288.04251,263.46353],[0.35658,3.57857],[-0.15224,-1.5279]],[[287.22753,258.92978],[0.75883,1.33486],[-0.9757,-1.71634]],[[283.78145,254.10892],[1.04867,1.6692],[-1.61333,0.64595]],[[277.3026,256.41773],[1.5249,-0.26101],[-2.24381,0.38405]],[[270.49048,256.90229],[2.185,-0.63871],[-1.38425,0.40463]],[[266.50224,258.57947],[1.41458,-0.2808],[-1.53233,0.30417]],[[261.81577,258.62424],[1.55848,-0.10812],[-4.1457,0.28763]],[[249.64574,259.17565],[4.19703,0],[-11.65641,0]],[[214.77925,258.63094],[11.63883,0.01686],[-2.78543,4.37203]],[[207.85505,272.20545],[1.66852,-4.58351],[-0.22683,0.62312]],[[207.00678,274.38244],[0.31754,-0.81259],[18.38641,0.3607]]],&quot;closed&quot;:true}]}" fill="#ffffff" stroke-width="0.5"/><path d="M74.90714,41.47068c0.30132,0.77819 0.3013,1.46858 0.3013,1.46858c-0.01582,16.17346 -1.45503,32.36875 -0.79335,48.61027c1.03118,25.31072 3.14525,50.54028 6.27916,75.68829c2.24135,11.41908 2.31822,23.49518 3.19919,35.10015c0.32964,4.34259 -0.59787,8.98658 -0.01251,13.2978c0.76001,5.59754 1.97214,11.00292 2.37512,16.6362c0.284,3.96997 0.44181,7.94946 0.79566,11.91382c0.46999,5.2655 -1.81893,12.11824 4.43705,14.18544c3.7661,0.52497 9.56063,1.58117 13.35225,0.74146c1.86292,-0.41258 3.41888,-1.73675 5.24224,-2.29891c3.26026,-1.00517 6.80011,-1.0347 9.98002,-2.27078c4.56768,-1.77554 8.83631,-4.40835 13.3077,-6.27007c7.39267,-3.07804 14.91796,-5.0488 19.84231,-12.23055c6.30562,-9.19618 8.91889,-21.06938 10.50399,-32.01236c3.20189,-8.06149 3.96335,-16.86178 4.62842,-25.40327c1.37158,-17.6156 4.39604,-34.35263 0.09292,-51.84412c-1.06253,-4.31907 -0.63967,-7.6188 -2.33909,-11.73294c-1.8802,-11.01864 -2.96679,-21.93247 -4.06831,-33.02489c-0.38878,-3.91496 0.39411,-7.94656 0,-11.85561c-0.29742,-2.95 -1.33838,-5.79772 -1.58605,-8.75232c-0.36153,-4.31329 0.03001,-8.02394 -0.74333,-12.29149c-0.86322,-4.76356 0.53589,-12.60693 -1.87233,-16.89948c-0.97079,-1.7304 -3.54479,-1.79739 -5.39302,-2.519c-10.57411,-4.26639 -21.47146,-3.69261 -32.63991,-3.69261c-4.53922,0 -10.30012,-0.77732 -14.72673,0.62549c-1.76497,0.55933 -3.19229,1.99706 -4.99022,2.43903c-4.1766,1.0267 -9.67219,0.54476 -14.0122,0.87822c-0.02904,0.00223 -6.41507,0.59889 -7.39129,1.51511c-2.87823,2.70133 -3.32144,6.37633 -3.769,9.99857zM67.86918,50.70578c-0.70054,-1.02223 -0.70055,-2.2339 -0.70055,-2.2339l0.01763,-4.30905c1.27406,-6.3703 1.18341,-13.47859 6.78955,-18.20991c6.59588,-5.56661 16.93733,-2.01743 24.43824,-3.92966c1.63118,-0.41584 2.88166,-1.82031 4.49428,-2.30322c5.32381,-1.59427 11.41973,-0.95525 16.88826,-0.95525c12.15737,0 23.80129,-0.36644 35.33229,4.21112c3.12866,1.27552 6.80842,2.28441 8.83371,5.38474c3.32464,5.08934 1.83277,13.77261 2.86991,19.45774c0.81958,4.4926 0.46465,8.49711 0.83741,13.00049c0.24139,2.91618 1.2863,5.7241 1.57547,8.63592c0.38878,3.91496 -0.39411,7.94656 0,11.85562c1.07693,10.6816 2.11459,21.17547 3.83544,31.78584c1.64832,4.24027 1.30756,7.67229 2.40314,11.97829c2.90314,11.41043 3.61315,24.1524 2.45553,35.98766c-0.58811,6.01255 -1.90274,12.02336 -2.36259,18.07841c-0.67952,8.94723 -1.46094,18.33589 -4.85608,26.76146c-1.65296,11.74078 -4.68647,24.62433 -11.62649,34.37909c-2.3008,3.23397 -7.83524,8.25337 -11.18328,10.3666c-3.4993,2.20872 -7.83535,2.68297 -11.65464,4.27559c-4.54721,1.89614 -8.90404,4.60026 -13.56505,6.37591c-3.38123,1.28811 -7.11086,1.40929 -10.56973,2.47147c-2.01221,0.61791 -3.76229,2.01407 -5.823,2.44333c-4.99556,1.04064 -11.74548,-0.12072 -16.68197,-0.83929c-1.78866,-0.77432 -3.90375,-1.03421 -5.36598,-2.32293c-5.64723,-4.97708 -3.83262,-11.89001 -4.42371,-18.26811c-0.36369,-3.92435 -0.50472,-7.86623 -0.78508,-11.7974c-0.39974,-5.60477 -1.6401,-10.98924 -2.36711,-16.55952c-0.57965,-4.44109 0.33561,-9.11089 -0.01253,-13.57493c-0.88631,-11.36512 -0.84481,-23.29017 -3.12381,-34.45282c-3.18804,-25.43055 -5.33379,-50.95813 -6.36683,-76.55583c-0.55446,-13.73891 0.39235,-27.44955 0.69757,-41.13744z" fill="#ffffff" stroke-width="0.5"/><path d="M78.64956,31.40466c0.97622,-0.91622 7.36654,-1.51441 7.39558,-1.51664c4.34002,-0.33346 9.84387,0.14633 14.02047,-0.88037c1.79793,-0.44197 3.22853,-1.88029 4.9935,-2.4396c4.42661,-1.40281 10.1966,-0.62628 14.73582,-0.62628c11.16847,0 22.08606,-0.57136 32.66017,3.69504c1.84823,0.72161 4.42576,0.78963 5.39655,2.52003c2.40823,4.29255 1.01381,12.1376 1.87704,16.90117c0.77334,4.26756 0.3857,7.97989 0.74723,12.29318c0.24766,2.95459 1.29265,5.80436 1.59006,8.75436c0.39411,3.90907 -0.38389,7.9436 0.00489,11.85855c1.10153,11.09243 2.20976,22.02823 4.08996,33.04687c1.69941,4.11414 1.28381,7.42898 2.34635,11.74805c4.3031,17.49149 1.26714,34.29686 -0.10444,51.91246c-0.66505,8.54148 -1.44313,17.35719 -4.64502,25.41868c-1.58509,10.94298 -4.21614,22.82488 -10.52176,32.02106c-4.92435,7.18175 -12.46484,9.15575 -19.85752,12.23379c-4.47138,1.86172 -8.749,4.4949 -13.3167,6.27045c-3.1799,1.23609 -6.72601,1.2652 -9.98627,2.27038c-1.82336,0.56216 -3.38235,1.88595 -5.24527,2.29853c-3.79163,0.83972 -9.59404,-0.21813 -13.36016,-0.7431c-6.25599,-2.06721 -3.97218,-8.9215 -4.44218,-14.187c-0.35386,-3.96436 -0.51494,-7.94508 -0.79895,-11.91506c-0.40298,-5.63328 -1.62183,-11.0418 -2.38184,-16.63934c-0.58536,-4.31123 0.33672,-8.9584 0.00706,-13.30099c-0.88097,-11.60494 -0.98095,-23.70514 -3.22231,-35.12423c-3.13392,-25.14802 -5.23522,-50.4672 -6.2664,-75.7779c-0.66169,-16.24151 0.79616,-32.44952 0.81197,-48.62297c0,0 0.00022,-0.69049 -0.3011,-1.46867c0.44755,-3.62224 0.89503,-7.29908 3.77327,-10.00041z" data-paper-data="{&quot;noHover&quot;:false,&quot;origItem&quot;:[&quot;Path&quot;,{&quot;applyMatrix&quot;:true,&quot;segments&quot;:[[[488.61225,197.33176],[0.61736,-4.99658],[0.41563,1.07343]],[[489.02788,199.35754],[0,0],[-0.02181,22.30994]],[[487.93352,266.41138],[-0.91274,-22.40383],[1.42241,34.91403]],[[496.59511,370.8171],[-4.32298,-34.6896],[3.09177,15.75168]],[[501.00812,419.23483],[-1.21521,-16.00807],[0.45473,5.99024]],[[500.99085,437.57805],[-0.80746,-5.94698],[1.04838,7.72135]],[[504.26714,460.52632],[-0.55589,-7.77064],[0.39175,5.47625]],[[505.36469,476.96045],[-0.48812,-5.4685],[0.64833,7.26333]],[[511.48524,496.52808],[-8.62961,-2.85153],[5.19503,0.72415]],[[529.90357,497.55085],[-5.23023,1.15833],[2.56974,-0.56912]],[[537.1348,494.37969],[-2.51518,0.77546],[4.49726,-1.38655]],[[550.9014,491.24733],[-4.38641,1.70508],[6.30075,-2.44922]],[[569.25826,482.59828],[-6.1679,2.56809],[10.19759,-4.2459]],[[596.62908,465.72725],[-6.79274,9.90662],[8.69807,-12.68537]],[[611.11847,421.56884],[-2.1865,15.09494],[4.41675,-11.12015]],[[617.50299,386.52715],[-0.91739,11.78227],[1.89198,-24.29927]],[[617.63117,315.01249],[5.93579,24.12806],[-1.46569,-5.9578]],[[614.40458,298.82787],[2.3442,5.67512],[-2.59358,-15.19929]],[[608.79269,253.27278],[1.51946,15.30107],[-0.53628,-5.40035]],[[608.79269,236.91894],[0.54365,5.39223],[-0.41027,-4.06928]],[[606.60488,224.84584],[0.34162,4.07562],[-0.49871,-5.94982]],[[605.57952,207.89074],[1.06676,5.88674],[-1.19074,-6.57093]],[[602.99679,184.57931],[3.32195,5.92122],[-1.33912,-2.38693]],[[595.55757,181.10455],[2.54948,0.9954],[-14.58609,-5.88513]],[[550.53351,176.01089],[15.40597,0],[-6.26147,0]],[[530.21922,176.87371],[6.10614,-1.93506],[-2.43462,0.77154]],[[523.33561,180.23815],[2.48011,-0.60966],[-5.76128,1.41623]],[[504.00694,181.44959],[5.9867,-0.45998],[-0.04006,0.00308]],[[493.81127,183.53956],[1.34662,-1.26385],[-3.97029,3.72626]]],&quot;closed&quot;:true}]}" fill="#000000" stroke-width="0.5"/></g><path d="M70.56069,202.79743c0.73543,3.67718 -2.94174,4.41261 -2.94174,4.41261l-1.0149,0.06823c-11.99283,5.88619 -25.63948,3.9242 -38.25237,1.91672c-3.7024,-0.58928 -8.47526,-1.22669 -11.71261,-3.34741c-1.13897,-0.74612 -1.81555,-2.02964 -2.72334,-3.04446c0,0 -2.40069,-2.88083 0.48014,-5.28152c2.88083,-2.40069 5.28152,0.48014 5.28152,0.48014c2.15587,2.99212 6.35452,3.23868 9.82492,3.78204c10.85686,1.69985 23.40194,4.09048 33.74763,-1.21372l2.89814,-0.71438c0,0 3.67718,-0.73543 4.41261,2.94174z" fill="#000000" stroke-width="0.5"/></g><path d="M116.07782,169.65377c0,-2.07107 1.67893,-3.75 3.75,-3.75c2.07107,0 3.75,1.67893 3.75,3.75c0,2.07107 -1.67893,3.75 -3.75,3.75c-2.07107,0 -3.75,-1.67893 -3.75,-3.75z" fill="#ffffff" stroke-width="0.5"/><path d="M92.20826,169.65377c0,-15.25386 12.3657,-27.61956 27.61956,-27.61956c15.25386,0 27.61956,12.3657 27.61956,27.61956c0,15.25386 -12.3657,27.61956 -27.61956,27.61956c-15.25386,0 -27.61956,-12.3657 -27.61956,-27.61956z" fill="url(#color-1)" stroke-width="0.5"/></g></g></svg>