<svg version="1.1" xmlns="http://www.w3.org/2000/svg" xmlns:xlink="http://www.w3.org/1999/xlink" width="170.04598" height="236.3279" viewBox="0,0,170.04598,236.3279"><g transform="translate(-162.99313,-84.0326)"><g data-paper-data="{&quot;isPaintingLayer&quot;:true}" fill-rule="nonzero" stroke="none" stroke-linecap="butt" stroke-linejoin="miter" stroke-miterlimit="10" stroke-dasharray="" stroke-dashoffset="0" style="mix-blend-mode: normal"><path d="M290.82671,250.44231c0,4.45017 0.17862,8.18268 -1.20662,12.45479c-3.34059,8.00948 -12.06492,13.28764 -20.05503,15.75853c-5.22498,1.6158 -10.80306,2.82909 -16.14963,3.76868c-2.55389,0.44881 -5.186,0.03228 -7.77903,0.03228c-9.11225,0 -17.64128,-0.99988 -26.68388,-2.13028c-5.30138,-0.79935 -11.80455,-3.14377 -16.32858,-6.18823c-0.45923,-0.30904 -4.62312,-4.60247 -5.00515,-4.94184c-2.2682,-2.0149 -3.34061,-1.76953 -4.8611,-5.08569c-1.52834,-3.33327 -0.49928,-6.86074 -0.20505,-10.22531c0.11667,-1.33414 -0.25093,-2.71343 0.05471,-4.01732c1.39509,-5.95162 5.80337,-11.11926 8.51009,-16.55917c-0.08056,-0.02677 -0.16109,-0.05361 -0.24159,-0.08053c-11.57541,-4.49962 -22.15987,-9.60635 -29.08434,-20.54087c-2.22185,-3.50855 -3.29228,-8.73846 -4.44929,-12.66898c-3.84223,-13.05262 -4.03101,-27.87546 0.48135,-40.92396c0.45103,-12.74318 3.4256,-26.05359 -2.49893,-37.8745l-1.11609,-3.32838c0,0 -0.30884,-0.92654 0.03865,-1.81441c-0.6474,-0.38102 -1.64685,-1.26661 -1.09273,-2.92897c0.79057,-2.37171 3.16228,-1.58114 3.16228,-1.58114c5.44197,1.83906 9.57442,5.22597 15.18042,6.81943l0.35299,-0.03796c0.15746,-0.13466 0.27041,-0.20526 0.27041,-0.20526c7.84739,-4.90197 15.37312,-10.24967 23.07197,-15.38262c2.84302,-1.89548 5.65231,-4.39238 8.75328,-5.813c2.38544,-1.09282 5.08772,-1.43308 7.41154,-2.65146c4.74543,-2.48803 9.22765,-4.95452 14.54596,-6.03505l2.40225,-0.01014c0.41207,-0.0594 0.80262,0.00157 1.10458,0.08494c0.31324,0.07591 0.69694,0.21807 1.03544,0.48432c7.60801,4.45871 12.70158,11.86016 20.2434,16.68956l1.38408,0.68035c6.68274,-1.95195 12.89841,-5.80012 18.34247,-10.13696c6.55482,-5.2217 13.43042,-11.81422 22.14128,-12.02056h2.10817c0,0 0.4723,0 1.00633,0.20529c0.29885,-0.12775 0.66158,-0.20529 1.10183,-0.20529c2.5,0 2.5,2.5 2.5,2.5c0,0.73884 0.00667,9.05749 -0.02417,9.30645c-0.61262,4.94598 -2.43928,9.67935 -3.67224,14.5257c7.78848,-0.09105 15.64358,-0.40108 23.29537,1.12253l2.34043,1.08596c0.74072,0.1784 1.17277,0.62831 1.42476,1.09246c0.30464,0.4361 0.51469,1.02913 0.33616,1.77909c-0.22854,4.37871 -2.40323,8.28578 -3.80716,12.47866c-1.75288,5.23498 -3.42735,10.73034 -4.9541,16.01319c-2.4821,8.58854 -1.11256,19.12228 -5.71269,26.97933c-2.19783,5.45123 -2.51637,11.2098 -2.90815,16.9857c-0.23741,3.5001 -1.05526,6.65777 -1.07196,10.18331l-1.1261,4.02934c0,0 -0.48608,1.70127 -2.07161,1.83243c-2.98823,9.23614 -7.81377,17.73046 -15.2881,24.46147c-2.67067,3.01129 -5.86592,5.3432 -9.37243,7.13446c3.74787,4.12512 4.16557,8.80964 4.16557,14.89965zM198.90219,248.3042c-0.43031,0.92688 -1.20314,1.71577 -1.4286,2.71249c-0.24723,1.09295 0.1427,2.24414 0.05471,3.36125c-0.18823,2.38972 -1.27882,5.29506 -0.20505,7.69408c0.7507,1.67722 2.30266,2.21835 3.57155,3.34697c1.58976,1.41401 2.70452,3.37495 4.48159,4.5449c3.90666,2.57199 9.66021,4.7979 14.23979,5.40667c8.8333,1.10408 17.12287,2.08604 26.02021,2.08604c2.32606,0 4.69259,0.46466 6.97812,0.03228c5.13369,-0.9712 10.43647,-2.06885 15.47282,-3.60989c6.18082,-1.89123 14.42259,-6.25409 16.83783,-12.70168c1.23665,-3.57929 0.90154,-6.95804 0.90154,-10.73501c0,-5.38304 0.09222,-9.29304 -4.13919,-12.77233c-5.23879,1.85546 -10.89597,2.77736 -16.38815,3.14511c-19.81065,1.32648 -40.24901,-0.39201 -59.35864,-5.99844c-2.16804,4.64489 -4.86251,8.80037 -7.03855,13.48756zM317.49428,150.88584c1.62617,-8.17405 4.29355,-16.60435 6.94083,-24.57981c1.04681,-3.15372 3.07504,-6.588 3.48564,-9.89932l-0.02922,-0.01655c-8.29686,-1.6673 -16.90916,-1.00553 -25.33472,-1.00553c-0.86824,0 -1.43494,-0.30154 -1.80483,-0.69517c-0.39363,-0.36989 -0.69517,-0.93659 -0.69517,-1.80483c0,-0.11746 0.00552,-0.22941 0.01604,-0.3361l0.03251,-0.68124c1.12643,-5.63215 3.47494,-11.04437 4.19194,-16.72177c0.25547,-2.02294 0.13588,-4.06869 0.04511,-6.11295h-1.7856c-1.64607,-0.05985 -3.25657,0.66365 -4.75281,1.35241c-5.42442,2.49702 -9.55124,5.83706 -14.27817,9.58299c-6.05545,4.79873 -12.91147,8.97239 -20.33733,11.10414c0,0 -0.51358,0.14674 -1.13379,0.06717c-0.89902,0.17814 -1.72512,-0.23491 -1.72512,-0.23491l-2.33965,-1.18569c-3.52382,-2.26277 -4.28964,-2.60412 -7.68875,-5.50527c-4.38341,-3.74125 -7.21279,-8.06054 -12.18031,-10.96788l-1.72487,-0.00879c-4.662,0.90954 -8.71403,3.41152 -12.86017,5.55985c-2.30807,1.19593 -4.9755,1.55123 -7.34561,2.61894c-2.91527,1.3133 -5.54963,3.7224 -8.22419,5.50531c-7.74009,5.15968 -15.30868,10.53052 -23.19547,15.46235c0,0 -0.25903,0.1619 -0.6526,0.28196c-0.73426,0.62508 -1.72648,0.62508 -1.72648,0.62508l-2.26792,-0.09619c-3.21915,-0.92412 -4.91408,-1.23356 -7.94306,-2.8747c-0.87592,-0.47458 -1.63799,-0.9518 -2.3694,-1.41437l0.13295,0.4015c4.3274,8.67498 4.23936,17.90432 3.63701,27.2155c0.11205,-0.21952 0.22452,-0.43885 0.33748,-0.65795c-0.1207,3.73302 -0.02032,7.47084 0.04494,11.20835c-0.42279,0.96301 -0.81431,1.94037 -1.17526,2.93011c-0.013,0.63304 -0.01963,1.2654 -0.01866,1.89694c0,0 0,1.615 -1.29805,2.24891c-3.05489,11.20206 -2.53333,23.56813 0.67129,34.47196c1.03698,3.52836 1.97215,8.4434 3.98337,11.5749c6.33544,9.86435 15.98179,14.25829 26.44862,18.33051c19.90876,6.64938 41.49364,8.65185 62.39967,7.29994c4.77505,-0.30878 9.78684,-1.06436 14.44318,-2.62786c0.78323,-1.22135 1.95521,-1.16002 2.63479,-0.9909c3.97742,-1.66812 7.58818,-4.02202 10.42289,-7.31135c14.41085,-12.90405 18.09825,-32.90245 18.12221,-51.45548c0.90508,-1.10045 1.75468,-3.09017 2.47224,-5.28769c0.98041,-1.06241 1.73342,-2.33786 2.18172,-3.74904c0.04104,0.48157 0.07798,0.96412 0.11105,1.44756c1.64669,-4.70287 1.16413,-10.10125 2.13174,-14.96505z" fill="#000000" stroke-width="0.5"/><path d="M198.85303,248.29501c2.17604,-4.68719 4.87688,-8.85936 7.04492,-13.50425c19.10963,5.60643 39.6328,7.32371 59.44345,5.99723c5.49218,-0.36775 11.15275,-1.28348 16.39154,-3.13894c4.23141,3.47929 4.14336,7.40374 4.14336,12.78678c0,3.77697 0.33521,7.16782 -0.90144,10.74711c-2.41524,6.44759 -10.66496,10.83236 -16.84578,12.72359c-5.03635,1.54104 -10.35746,2.65534 -15.49115,3.62654c-2.28553,0.43238 -4.66559,-0.02745 -6.99165,-0.02745c-8.89734,0 -17.23433,-0.99795 -26.06763,-2.10203c-4.57958,-0.60877 -10.3423,-2.84989 -14.24896,-5.42188c-1.77707,-1.16995 -2.89387,-3.13765 -4.48363,-4.55166c-1.26889,-1.12862 -2.82166,-1.67425 -3.57236,-3.35147c-1.07377,-2.39902 0.01643,-5.31305 0.20466,-7.70277c0.08799,-1.11711 -0.30163,-2.27209 -0.0544,-3.36504c0.22546,-0.99672 0.99879,-1.78889 1.4291,-2.71577z" data-paper-data="{&quot;noHover&quot;:false,&quot;origItem&quot;:[&quot;Path&quot;,{&quot;applyMatrix&quot;:true,&quot;segments&quot;:[[[198.90219,248.3042],[0,0],[-0.43031,0.92688]],[[197.47359,251.01669],[0.22546,-0.99672],[-0.24723,1.09295]],[[197.5283,254.37794],[0.08799,-1.11711],[-0.18823,2.38972]],[[197.32325,262.07202],[-1.07377,-2.39902],[0.7507,1.67722]],[[200.8948,265.41899],[-1.26889,-1.12862],[1.58976,1.41401]],[[205.37639,269.96389],[-1.77707,-1.16995],[3.90666,2.57199]],[[219.61618,275.37056],[-4.57958,-0.60877],[8.8333,1.10408]],[[245.63639,277.4566],[-8.89734,0],[2.32606,0]],[[252.61451,277.48888],[-2.28553,0.43238],[5.13369,-0.9712]],[[268.08733,273.87899],[-5.03635,1.54104],[6.18082,-1.89123]],[[284.92516,261.17731],[-2.41524,6.44759],[1.23665,-3.57929]],[[285.8267,250.4423],[0,3.77697],[0,-5.38304]],[[281.68751,237.66997],[4.23141,3.47929],[-5.23879,1.85546]],[[265.29936,240.81508],[5.49218,-0.36775],[-19.81065,1.32648]],[[205.94072,234.81664],[19.10963,5.60643],[-2.16804,4.64489]],[[198.90217,248.3042],[2.17604,-4.68719],[0,0]]],&quot;closed&quot;:true,&quot;fillColor&quot;:[0,0,0],&quot;strokeWidth&quot;:0.5}]}" fill="#667eff" stroke-width="0.25"/><path d="M317.54357,150.87742c-0.96761,4.8638 -0.4844,10.273 -2.13109,14.97587c-0.03307,-0.48344 -0.06997,-0.96707 -0.11101,-1.44864c-0.4483,1.41118 -1.20148,2.68957 -2.18189,3.75198c-0.71756,2.19752 -1.56772,4.19157 -2.4728,5.29202c-0.02396,18.55303 -3.73185,38.58373 -18.1427,51.48778c-2.83471,3.28933 -6.45261,5.64742 -10.43003,7.31554c-0.67958,-0.16912 -1.85322,-0.22969 -2.63645,0.99166c-4.65634,1.5635 -9.67723,2.32204 -14.45228,2.63082c-20.90603,1.35191 -42.53044,-0.6584 -62.4392,-7.30778c-10.46683,-4.07222 -20.12633,-8.47971 -26.46177,-18.34406c-2.01122,-3.1315 -2.94982,-8.05268 -3.9868,-11.58104c-3.20462,-10.90383 -3.73092,-23.29019 -0.67603,-34.49225c1.29805,-0.63391 1.29804,-2.25037 1.29804,-2.25037c-0.00097,-0.63154 0.00569,-1.26515 0.01869,-1.89819c0.36095,-0.98974 0.75258,-1.96908 1.17537,-2.93209c-0.06526,-3.73751 -0.16457,-7.48256 -0.04387,-11.21558c-0.11296,0.2191 -0.22553,0.43889 -0.33758,0.65841c0.60235,-9.31118 0.69547,-18.55414 -3.63193,-27.22912l-0.13287,-0.40164c0.73141,0.46257 1.49346,0.93983 2.36938,1.41441c3.02898,1.64114 4.72432,1.94985 7.94347,2.87397l2.26826,0.0956c0,0 0.9927,-0.0008 1.72696,-0.62588c0.39357,-0.12006 0.6528,-0.28229 0.6528,-0.28229c7.88679,-4.93183 15.46819,-10.31639 23.20828,-15.47607c2.67456,-1.78291 5.31498,-4.19581 8.23025,-5.50911c2.37011,-1.06771 5.04266,-1.42537 7.35073,-2.6213c4.14614,-2.14833 8.20778,-4.65302 12.86978,-5.56256l1.72606,0.00859c4.96752,2.90734 7.80581,7.22608 12.18922,10.96733c3.39911,2.90115 4.17221,3.24324 7.69603,5.50601l2.34197,1.18616c0,0 0.82768,0.41343 1.7267,0.23529c0.62021,0.07957 1.13476,-0.06691 1.13476,-0.06691c7.42586,-2.13175 14.29264,-6.30098 20.34809,-11.09971c4.72693,-3.74593 8.85756,-7.08362 14.28198,-9.58064c1.49624,-0.68876 3.10816,-1.41126 4.75423,-1.35141l1.78623,0.00047c0.09077,2.04426 0.212,4.0913 -0.04347,6.11424c-0.717,5.6774 -3.06173,11.09308 -4.18816,16.72523l-0.03228,0.68147c-0.01052,0.10669 -0.01593,0.21876 -0.01593,0.33622c0,0.86824 0.3024,1.43585 0.69603,1.80574c0.36989,0.39363 0.9374,0.69607 1.80564,0.69607c8.42556,0 17.04345,-0.65401 25.34031,1.01329l0.02923,0.01656c-0.4106,3.31132 -2.43693,6.74918 -3.48374,9.9029c-2.64728,7.97546 -5.31046,16.41897 -6.93663,24.59302z" data-paper-data="{&quot;noHover&quot;:false,&quot;origItem&quot;:[&quot;Path&quot;,{&quot;applyMatrix&quot;:true,&quot;segments&quot;:[[[317.49428,150.88584],[0,0],[1.62617,-8.17405]],[[324.43511,126.30603],[-2.64728,7.97546],[1.04681,-3.15372]],[[327.92075,116.40671],[-0.4106,3.31132],[0,0]],[[327.89153,116.39016],[0,0],[-8.29686,-1.6673]],[[302.55681,115.38463],[8.42556,0],[-0.86824,0]],[[300.75198,114.68946],[0.36989,0.39363],[-0.39363,-0.36989]],[[300.05681,112.88463],[0,0.86824],[0,-0.11746]],[[300.07285,112.54853],[-0.01052,0.10669],[0,0]],[[300.10536,111.86729],[0,0],[1.12643,-5.63215]],[[304.2973,95.14552],[-0.717,5.6774],[0.25547,-2.02294]],[[304.34241,89.03257],[0.09077,2.04426],[0,0]],[[302.55681,89.03257],[0,0],[-1.64607,-0.05985]],[[297.804,90.38498],[1.49624,-0.68876],[-5.42442,2.49702]],[[283.52583,99.96797],[4.72693,-3.74593],[-6.05545,4.79873]],[[263.1885,111.07211],[7.42586,-2.13175],[0,0]],[[262.05471,111.13928],[0.62021,0.07957],[-0.89902,0.17814]],[260.32959,110.90437],[[257.98994,109.71868],[0,0],[-3.52382,-2.26277]],[[250.30119,104.21341],[3.39911,2.90115],[-4.38341,-3.74125]],[[238.12088,93.24553],[4.96752,2.90734],[0,0]],[[236.39601,93.23674],[0,0],[-4.662,0.90954]],[[223.53584,98.79659],[4.14614,-2.14833],[-2.30807,1.19593]],[[216.19023,101.41553],[2.37011,-1.06771],[-2.91527,1.3133]],[[207.96604,106.92084],[2.67456,-1.78291],[-7.74009,5.15968]],[[184.77057,122.38319],[7.88679,-4.93183],[0,0]],[[184.11797,122.66515],[0.39357,-0.12006],[-0.73426,0.62508]],[182.39149,123.29023],[[180.12357,123.19404],[0,0],[-3.21915,-0.92412]],[[172.18051,120.31934],[3.02898,1.64114],[-0.87592,-0.47458]],[[169.81111,118.90497],[0.73141,0.46257],[0,0]],[[169.94406,119.30647],[0,0],[4.3274,8.67498]],[[173.58107,146.52197],[0.60235,-9.31118],[0.11205,-0.21952]],[[173.91855,145.86402],[-0.11296,0.2191],[-0.1207,3.73302]],[[173.96349,157.07237],[-0.06526,-3.73751],[-0.42279,0.96301]],[[172.78823,160.00248],[0.36095,-0.98974],[-0.013,0.63304]],[[172.76957,161.89942],[-0.00097,-0.63154],[0,0]],[[171.47152,164.14833],[1.29805,-0.63391],[-3.05489,11.20206]],[[172.14281,198.62029],[-3.20462,-10.90383],[1.03698,3.52836]],[[176.12618,210.19519],[-2.01122,-3.1315],[6.33544,9.86435]],[[202.5748,228.5257],[-10.46683,-4.07222],[19.90876,6.64938]],[[264.97447,235.82564],[-20.90603,1.35191],[4.77505,-0.30878]],[[279.41765,233.19778],[-4.65634,1.5635],[0.78323,-1.22135]],[[282.05244,232.20688],[-0.67958,-0.16912],[3.97742,-1.66812]],[[292.47533,224.89553],[-2.83471,3.28933],[14.41085,-12.90405]],[[310.59754,173.44005],[-0.02396,18.55303],[0.90508,-1.10045]],[[313.06978,168.15236],[-0.71756,2.19752],[0.98041,-1.06241]],[[315.2515,164.40332],[-0.4483,1.41118],[0.04104,0.48157]],[[315.36255,165.85088],[-0.03307,-0.48344],[1.64669,-4.70287]],[[317.49429,150.88583],[-0.96761,4.8638],[0,0]]],&quot;closed&quot;:true,&quot;fillColor&quot;:[0,0,0],&quot;strokeWidth&quot;:0.5}]}" fill="#66ecff" stroke-width="0.25"/><path d="M210.63624,218.45911c-1.06473,-1.24849 -1.06473,-2.93745 -1.06473,-2.93745l0.05783,-1.12571c0.32781,-1.9655 0.63269,-3.93482 0.92868,-5.90536c0.98947,-2.59231 2.0585,-5.29327 3.93985,-7.33279c8.83638,-9.57928 21.72159,-5.18505 32.75334,-2.58294c3.32484,0.78425 6.74665,1.81432 10.03025,2.5166c2.4548,0.52502 5.25528,0.66343 7.17855,2.27672c4.90814,4.11707 5.9652,12.06031 6.9441,17.94567c0.65663,5.27779 1.90581,10.43913 2.17425,15.77393c0.43783,8.70106 0.00528,17.54749 0.00528,26.25971c0,7.92145 0.69535,16.64369 -0.95932,24.42604c-0.7773,3.65585 -2.62495,7.24594 -4.17871,10.60086c-1.87597,1.60095 -3.20969,3.83087 -5.25642,5.20682c-2.87074,1.92991 -4.38698,1.27689 -7.43398,1.91546c-2.28822,0.47955 -4.36501,1.76385 -6.6646,2.18549c-2.99558,0.54925 -6.18062,-0.13047 -9.14463,-0.38662c-3.04756,-0.26337 -6.27618,0.47256 -9.29758,-0.0404c-1.44583,-0.24547 -2.76974,-0.974 -4.18684,-1.35149c-6.10014,-1.62496 -13.09479,-1.60812 -17.5778,-6.91334c-2.52401,-2.98693 -3.93233,-7.38551 -5.22229,-10.97159c-0.13185,-6.41943 -0.77095,-13.34791 -0.02712,-19.70949c0.32188,-2.75288 1.30263,-5.39556 1.71143,-8.13688c0.93912,-6.29744 1.48493,-12.62251 2.57736,-18.88556c0.29155,-1.67152 1.04092,-3.25016 1.25319,-4.93359c0.42321,-3.35635 0.09638,-6.77241 0.41511,-10.14029c0.2437,-2.57504 0.67777,-5.16405 1.04479,-7.7538z" fill="#000000" stroke-width="0.5"/><path d="M191.72699,144.10299c0.96881,-1.29332 1.69416,-2.83812 2.99081,-3.79279c1.21242,-0.89266 2.83429,-1.01962 4.27162,-1.46781c6.33486,-1.97532 13.37603,-1.50736 19.2934,1.38366c8.05732,6.67921 12.5697,15.68211 12.59918,26.18871c0.00744,2.65005 0.08131,6.60444 -0.61543,8.9377c-0.50993,1.70767 -1.63699,3.16723 -2.5164,4.71733c-2.96382,5.22422 -7.26727,11.98794 -12.37661,15.46928c-1.30087,0.88637 -2.89452,1.24593 -4.28922,1.9758c-1.66194,0.86972 -3.10151,2.19526 -4.87094,2.81782c-2.75567,0.96957 -9.18866,1.18049 -12.15706,0.53654c-1.81616,-0.39399 -3.45704,-1.46319 -5.29293,-1.75157c-1.82152,-0.75093 -3.78117,-1.22907 -5.46457,-2.2528c-9.68243,-5.88821 -10.0972,-20.77516 -7.79016,-30.50571c0.68981,-2.90943 1.48738,-6.09225 2.95535,-8.76109c1.01198,-1.83982 4.69823,-7.54467 6.38881,-9.21631c1.92186,-1.90032 4.33711,-3.22258 6.87414,-4.27878z" fill="#000000" stroke-width="0.5"/><path d="M276.3916,146.1096c9.62032,0.46689 19.3328,4.97627 27.2834,9.79886c1.15964,1.35803 2.54746,2.55048 3.47893,4.07408c2.31229,3.78221 2.23631,8.24535 3.0673,12.41462c2.39507,12.01659 -0.91952,26.96781 -13.01304,32.87044c-2.68616,1.31106 -7.4201,1.53764 -10.19023,1.68989c-7.95042,0.43698 -15.17988,-0.66745 -22.00035,-4.86877c-5.56708,-3.28726 -7.92372,-7.64676 -11.25568,-12.94281c-0.88916,-1.41329 -2.32556,-2.51716 -2.89824,-4.08561c-1.82184,-4.98958 -0.44363,-6.10173 0.68177,-10.70669c1.80114,-7.36997 3.24492,-14.84325 6.67342,-21.68349c0.70027,-1.39712 0.96967,-3.11889 2.11138,-4.18604c3.01415,-2.8173 8.45329,-4.15325 12.41953,-4.25401c0,0 2.46695,0 3.64182,1.87952z" fill="#000000" stroke-width="0.5"/><path d="M264.25232,144.13547l0.0025,-0.01792l0.05551,-0.04009l0.68337,-0.68337l1.55312,-0.93187l1.46833,-1.06046l0.89731,-0.35892l0.05872,-0.03523l0.01746,0.00476l0.42214,-0.16886l1.04839,-0.78629l0.67723,-0.28515l0.22277,-0.38985l1.73077,-0.43269l1.64423,-0.69231l0.41213,0.17822l0.71287,-0.17822h3.50117l1.72253,0.43063l0.66396,-0.18108l0.99162,0.59497l0.62323,0.15581h0.50017l1.40356,0.35089l1.44249,0.11096l1.17259,0.39086l0.44889,0.11222l0.03102,-0.02068l0.25234,0.05608h0.25078l2.00621,0.50155l2.01871,0.4486l0.2243,0.11215l0.25078,0.06269l0.05016,0.08777l0.39741,0.19871l1.31898,0.2638l1.5804,0.74861l1.64686,0.58816l1.5005,1.00033l1.18864,1.30751l0.11863,0.10784l0.54411,0.21764l1.46833,1.06046l1.55312,0.93187l0.68337,0.68337l0.05551,0.04009l0.0025,0.01792l0.75911,0.75911l0.57004,0.95006l0.78344,0.78344l1.39031,2.31719l0.74297,1.11445l1.0706,1.42747l0.10807,0.03994l0.10775,0.24782l0.06419,0.08559l0.8274,1.96507l0.85015,1.95534l0.01759,0.10554l0.10487,0.24906l-0.04573,0.10575l0.39958,2.39751l0.47171,2.35853l-0.04264,0.8954l0.21741,0.86965v13.5045l-0.15711,0.62844l0.06666,0.64435l-0.40971,2.86799v1.36106l-0.21741,0.86965l0.04264,0.8954l-0.50017,2.50083l-0.24346,0.51397l-0.04362,0.56704l-0.50017,1.5005l-0.64538,1.01417l-0.40431,1.13208l-0.33177,0.49766l-0.6192,1.85759l-0.34778,0.54651l-0.14052,0.63236l-1.00033,2.00067l-0.37011,0.4318l-0.19128,0.53558l-0.33177,0.49766l-0.11903,0.35709l-0.95325,1.49796l-0.03817,0.68715l-0.87802,0.75259l-0.62085,0.97563l-0.67484,0.13497l-1.34809,1.15551l-0.70969,0.35484l-0.04062,0.14444l-1.97235,1.05192l-1.91678,1.15007l-0.15853,-0.04324l-0.04513,0.02407l-0.23746,0.05937l-0.54669,0.41002l-1.33338,0.56142l-1.22057,0.77673l-1.5005,0.50017l-0.35185,0.02707l-0.31138,0.16607l-2.00067,0.50017h-1.10795l-1.07487,0.26872h-0.89272l-0.9258,0.23145h-1.10795l-1.07487,0.26872h-12.007v1.75897l0.37771,2.26627l-0.05999,0.74983l0.18244,0.72976v4.5415l0.03832,0.11495l0.11096,1.44249l0.35089,1.40356v6.89472l0.73162,2.92646v1.10795l0.26872,1.07487v0.04l0.03832,0.11495l0.11096,1.44249l0.35089,1.40356v1.60966l0.21551,1.07753l0.82314,2.46943l0.11096,1.44249l0.28892,1.15567l0.11215,0.2243l0.4486,2.01871l0.50155,2.00621v0.25078l0.05608,0.25234l-0.05608,0.08411v23.92094l-0.08782,0.3513l0.13637,0.27274l-0.68185,1.90919l-0.49169,1.96677l-0.10944,0.06254l-0.44084,2.20418l-0.09394,0.19833v0.21945l-0.50017,2.00067l-0.28602,0.53628l-0.44699,1.78794l-0.26733,1.20299v0.97428l-0.50017,2.00067l-0.29134,0.54627l-0.08365,0.61343l-0.90211,2.25527l-0.23083,0.6925l0.0266,0.09753l-0.13299,0.22166l-0.0793,0.23791l-1.11023,1.74465l-0.90832,1.51387l-0.15357,0.42999l-0.49169,1.96677l-0.26476,0.15129l-0.12179,0.34101l-0.68952,1.03429l-1.24992,2.49984l-0.47821,0.55791l-0.02491,0.44832l-1.35454,1.16104l-1.16104,1.35454l-0.44832,0.02491l-0.55791,0.47821l-2.69502,1.34751l-0.46777,0.46777l-0.04386,0.02632l-0.04449,0.15818l-1.97235,1.05192l-1.91678,1.15007l-0.15853,-0.04324l-0.04513,0.02407l-1.66534,0.41634l-0.56581,0.1886l-0.42825,0.21412l-0.96755,0.21501l-0.87455,0.46643l-4.00133,1.00033h-1.10795l-1.07487,0.26872h-0.04l-0.11495,0.03832l-1.44249,0.11096l-1.40356,0.35089h-14.50483l-0.3513,-0.08782l-0.27274,0.13637l-1.90919,-0.68185l-1.96677,-0.49169l-0.08231,-0.14405h-0.60151l-2.00067,-0.50017l-0.31138,-0.16607l-0.35185,-0.02707l-3.001,-1.00033l-0.8362,-0.53213l-0.94821,-0.28859l-4.70528,-2.82317l-1.69151,-0.84576l-0.62112,-0.53239l-0.75396,-0.31746l-2.00067,-1.5005l-0.40849,-0.50276l-0.55547,-0.33328l-0.71706,-0.71706l-1.55077,-0.93046l-0.78344,-0.78344l-0.95006,-0.57004l-1.00033,-1.00033l-0.74435,-1.24058l-0.94153,-1.09846l-1.00033,-2.00067l-0.14052,-0.63236l-0.34778,-0.54651l-0.26938,-0.80814l-0.0678,-0.03875l-0.06269,-0.25078l-0.11215,-0.2243l-0.4486,-2.01871l-0.50155,-2.00621v-0.25078l-0.05608,-0.25234l0.05608,-0.08411v-19.41944l0.13793,-0.55173l-0.06843,-0.56458l0.43067,-3.44534v-12.94418l0.21741,-0.86965l-0.04264,-0.8954l0.47171,-2.35853l0.47631,-2.85785l0.14626,-0.3364v-0.36683l0.23145,-0.9258v-2.39322c0,-0.67502 0.07431,-1.33268 0.2152,-1.96525l-0.03366,-0.20196l-0.91316,-3.65264v-0.73738l-0.23763,-0.69804l-0.4695,-5.63404l-0.43946,-2.63678l0.05999,-0.74983l-0.18244,-0.72976v-13.00433l0.41341,-1.65363l0.2303,-1.68889l2.00067,-5.00167l0.5512,-0.7632l0.31664,-0.88659l0.00824,-0.01237h-7.02463l-0.3513,-0.08782l-0.27274,0.13637l-1.90919,-0.68185l-1.96677,-0.49169l-0.13954,-0.24419c-1.17061,0.55719 -2.48053,0.86902 -3.8633,0.86902c-0.43384,0 -0.86052,-0.0307 -1.27797,-0.09004l-0.1276,0.05051l-0.24206,-0.11094c-1.50936,-0.27924 -2.88661,-0.93511 -4.03062,-1.86649l-2.44485,-1.95588l-0.84028,-1.10286l-1.02592,-0.93266l-0.86177,-1.29265l-0.96685,-1.28913l-0.13283,-0.13283l-0.09913,-0.01983l-0.13878,-0.21808l-0.17733,-0.17733l-1.06395,-1.77326l-1.11023,-1.74465l-0.0793,-0.23791l-0.13299,-0.22166l0.0266,-0.09753l-0.31447,-0.94341l-0.02707,-0.35185l-0.16607,-0.31138l-0.41634,-1.66534l-0.39086,-1.17259l-0.11096,-1.44249l-0.35089,-1.40356v-7.61166l-0.82556,-4.1278l0.04264,-0.8954l-0.21741,-0.86965v-20.00667l0.21741,-0.86965l-0.04264,-0.8954l0.82556,-4.1278v-0.0221l-0.05608,-0.08411l0.05608,-0.25234v-0.25078l0.50155,-2.00621l0.4486,-2.01871l0.11215,-0.2243l0.06269,-0.25078l0.08777,-0.05016l1.23788,-2.47577l0.47821,-0.55791l0.02491,-0.44832l1.35454,-1.16104l1.16104,-1.35454l0.37072,-0.0206l0.29714,-0.29714l1.24058,-0.74435l1.09846,-0.94153l2.00067,-1.00033l1.4123,-0.31384l1.33983,-0.54586l3.159,-0.45129l4.16409,-0.92535l0.99081,0.02607l0.96156,-0.24039h2.39322l2.92646,-0.73162h0.61367l0.57527,-0.21367l4.44024,-0.49336l3.94017,-0.49252l0.56458,0.06843l0.55173,-0.13793h3.50117l2.00067,-0.50017h0.25078l0.25234,-0.05608l0.08411,0.05608h6.91527l1.40356,0.35089l1.44249,0.11096l0.94341,0.31447l0.09753,-0.0266l0.22166,0.13299l0.23791,0.0793l1.74465,1.11023l1.77326,1.06395l0.17733,0.17733l0.21808,0.13878l0.01983,0.09913l0.82055,0.82055l0.39355,0.14056l1.5005,1.00033l0.57553,0.63308l0.48003,0.09601l0.91642,1.44009l1.14822,1.26304l-0.03368,0.48837l0.45934,0.72182l0.0793,0.23791l0.16052,0.26753l0.59753,0.34145l0.28047,1.12189l0.59497,0.99162l-0.18108,0.66396l0.43063,1.72253v0.04l0.53848,1.61545l0.11096,1.44249l0.35089,1.40356v13.00433l-0.26872,1.07487v1.10795l-0.23145,0.9258v0.39255l-0.35089,1.40356l-0.11096,1.44249l-0.50017,1.5005l-0.27159,0.42678l-0.35735,2.50147l-0.30865,0.7576l-0.06274,0.81565l-0.31447,0.94341l0.0266,0.09753l-0.13299,0.22166l-0.0793,0.23791l-1.11023,1.74465l-0.55233,0.92055l-0.05102,0.25512l-0.51461,1.08639l-0.26077,1.17348l-2.00067,4.00133l-0.37011,0.4318l-0.19128,0.53558l-1.00033,1.5005l-0.66329,0.60299l-0.40706,0.67843h1.00986l1.07487,-0.26872h2.10982l1.62696,-0.32539l0.8954,0.04264l0.86965,-0.21741h13.13313l-0.12579,-0.50317v-10.5035l0.35089,-1.40356l0.11096,-1.44249l0.32298,-0.96893l0.21551,-1.07753v-0.60932l0.41341,-1.65363l0.2303,-1.68889l0.90211,-2.25527l0.23083,-0.6925l-0.0266,-0.09753l0.13299,-0.22166l0.0793,-0.23791l1.11023,-1.74465l1.06395,-1.77326l0.17733,-0.17733l0.13878,-0.21808l0.09913,-0.01983l0.1465,-0.1465l-0.02193,-0.17548l2.27372,-2.79842c0.62075,-0.95513 1.41779,-1.78514 2.34499,-2.4439l0.17563,-0.20491l0.13719,-0.00762c0.31475,-0.20433 0.64308,-0.38952 0.98333,-0.55392l0.61288,-0.91932l0.19643,-0.39286l-0.00949,-0.13763l1.56614,-1.72276l1.5152,-1.76773l0.13775,-0.00765l0.6601,-0.44007zM265.38115,169.38496l-0.40312,0.30714l-0.26074,0.43457l-0.02753,0.02753l-0.4926,1.23149l-0.06225,0.249l0.04264,0.8954l-0.50017,2.50083l-0.24346,0.51397l-0.04362,0.56704l-0.03832,0.11495v7.5825l0.03832,0.11495l0.04362,0.56704l0.24346,0.51397l0.09981,0.49903l0.27563,0.36751l0.31746,0.75396l0.53239,0.62112l2.50083,5.00167l0.08285,0.37281l0.2236,0.3096l0.2774,0.69349l2.18096,1.63572l0.95373,0.19075l1.5804,0.74861l0.21546,0.07695h10.33615l0.9258,-0.23145h1.10795l1.07487,-0.26872h0.89272l0.41301,-0.10325l0.79677,-0.59758l1.64362,-0.69205l1.57356,-0.83923l0.11255,-0.02814l0.08365,-0.23421l0.68952,-1.03429l0.46371,-0.92742l0.79807,-2.39421l0.64538,-1.01417l0.40431,-1.13208l0.29854,-0.44781l0.19058,-0.9529v-1.10949l0.15711,-0.62844l-0.06666,-0.64435l0.40971,-2.86799v-11.97372l-0.32539,-1.62696l0.00709,-0.14882l-0.05941,-0.13663l-0.13938,-0.83627l-0.18374,-0.24499l-0.09923,-0.23568l-0.18922,-0.17202l-1.00033,-1.5005l-0.07381,-0.20667l-0.15517,-0.15517l-0.65137,-1.08562l-0.47554,-0.19022l-0.37036,-0.26748l-0.34337,0.02368l-1.45381,-1.32164l-1.49418,-1.07913l-0.84887,-0.4021l-1.17348,-0.26077l-0.63779,-0.3189h-1.02127l-2.00067,-0.50017l-0.31138,-0.16607l-0.35185,-0.02707l-0.11495,-0.03832h-2.04067l-1.72253,-0.43063l-0.66396,0.18108l-0.34214,-0.20528l-0.43102,0.3113l-0.78564,0.31426l-2.69508,2.69508l-0.76867,0.4612l-0.07836,0.0862l-0.02915,0.08161l-2.00067,3.001l-1.12754,1.02504l-0.96091,1.18266l-1.58677,1.19008zM198.98844,186.23489l0.35185,-0.02707l0.31138,-0.16607l0.09506,-0.02376l0.29793,-0.23834l0.01572,-0.0559l0.16247,-0.08665l0.49088,-0.39271l1.74536,-0.79996l1.60806,-0.85763l0.73885,-0.86199l0.33025,-0.01835l2.224,-2.96533l0.10563,-0.17605l0.21972,-0.76903l0.23412,-0.40581l0.0633,-0.46421l0.77348,-1.93371l0.70537,-2.82148l0.37827,-3.40443v-4.59512l-0.35332,-3.88647l-0.90845,-2.42254l-1.13467,-2.26934l-0.41562,-0.6927l-0.59028,-0.44271l-0.40849,-0.50276l-0.55547,-0.33328l-0.85177,-0.85177l-4.00779,-1.14508l-1.25283,1.61078l-2.16374,3.89473l-0.32446,0.34684l-0.16986,0.44353l-2.75021,3.92887l-0.58623,1.75869l-0.14529,0.22832l-0.03657,0.26815l-1.00033,2.50083l-0.2236,0.3096l-0.08285,0.37281l-0.50017,1.00033l-3.01869,3.52181l-5.09061,0.28281l0.38185,1.90925l-0.04264,0.8954l0.21741,0.86965v7.04234l0.03832,0.11495l0.02707,0.35185l0.16607,0.31138l0.28328,1.13311l0.18611,0.15121l1.5005,2.00067l0.08643,0.20527l3.21707,-0.80427h0.52694l0.09709,-0.04855l0.13593,0.04855h5.13441l2.59114,-0.64779zM212.83516,270.79839l-0.13793,0.55173l0.06843,0.56458l-0.43067,3.44534v17.54042l0.03832,0.06021l0.19759,0.59278l0.89638,0.53783l0.78344,0.78344l0.95006,0.57004l1.04823,1.04823l0.83976,0.62982l1.27481,0.63741l0.26794,0.22966l0.3376,0.10275l4.15451,2.4927l1.73584,0.57861l0.59047,0.14762h0.39255l0.3513,0.08782l0.27274,-0.13637l1.90919,0.68185l1.4681,0.36703h10.5435l0.11495,-0.03832l1.44249,-0.11096l1.40356,-0.35089h0.39255l1.96801,-0.492l0.11668,-0.05834l0.63236,-0.14052l0.54651,-0.34778l1.5005,-0.50017l0.31253,-0.02404l0.91131,-0.54679l1.09846,-0.94153l1.31805,-0.65903l0.15886,-0.31772l0.24762,-0.28889l0.43586,-1.22041l0.49169,-1.96677l0.26476,-0.15129l0.12179,-0.34101l1.00033,-1.5005l0.5342,-0.48564l0.06189,-0.09726l0.03657,-0.26815l0.77348,-1.93371l0.35202,-1.40809l0.05064,-0.09496l0.16498,-0.65991l-0.04025,-0.06037l0.05608,-0.25234v-0.25078l0.50155,-2.00621l0.4486,-2.01871l0.05834,-0.11668l0.20861,-0.83444l0.28339,-1.41696v-0.10916l0.08782,-0.3513l-0.13637,-0.27274l0.68185,-1.90919l0.36703,-1.4681v-19.88272l-0.05018,-0.10036l-0.4486,-2.01871l-0.50155,-2.00621v-0.25078l-0.05608,-0.25234l0.04562,-0.06843l-0.52803,-1.58408l-0.04362,-0.56704l-0.24346,-0.51397l-0.50017,-2.50083l0.04264,-0.8954l-0.21741,-0.86965v-1.04033l-0.03832,-0.11495l-0.11096,-1.44249l-0.35089,-1.40356v-0.39255l-0.73162,-2.92646v-1.10795l-0.26872,-1.07487v-6.54217l-0.03832,-0.11495l-0.11096,-1.44249l-0.35089,-1.40356v-5.25714l-0.37771,-2.26627l0.05999,-0.74983l-0.18244,-0.72976v-1.44076l-0.00681,-0.01908l-0.7248,-1.359l-0.50017,-2.00067v-1.10795l-0.26872,-1.07487v-0.04l-0.33622,-1.00866l-0.71429,-1.42858l-0.21501,-0.96755l-0.46643,-0.87455l-0.42141,-1.68565h-17.4653l-1.62696,0.32539l-0.8954,-0.04264l-0.86965,0.21741h-1.89305l-0.9258,0.23145h-1.10795l-1.07487,0.26872h-0.59491l-0.06021,0.03832l-0.56325,0.18775l-0.68077,0.40846l-0.00102,0.0073l-0.05551,0.04009l-0.68337,0.68337l-1.55312,0.93187l-1.46833,1.06046l-0.29778,0.11911l-0.51842,0.64802l-0.40312,0.30714l-0.26074,0.43457l-1.37051,1.37051l-2.98719,4.48079l-1.00893,2.52232v10.52623l0.37771,2.26627l-0.03004,0.37554l0.12141,0.35664l0.43955,5.27466l0.82332,3.29326v0.36683l0.14626,0.3364l0.38018,2.28109l5.03328,8.69384l1.28106,4.45808l-4.56057,7.84008l-3.51199,0.01984z" fill="#000000" stroke-width="0.5"/></g></g></svg>