<svg version="1.1" xmlns="http://www.w3.org/2000/svg" xmlns:xlink="http://www.w3.org/1999/xlink" width="87.4106" height="115.93405" viewBox="0,0,87.4106,115.93405"><g transform="translate(-103.43265,-82.21625)"><g data-paper-data="{&quot;isPaintingLayer&quot;:true}" fill-rule="nonzero" stroke="none" stroke-linecap="butt" stroke-linejoin="miter" stroke-miterlimit="10" stroke-dasharray="" stroke-dashoffset="0" style="mix-blend-mode: normal"><path d="M103.43265,198.15028v-115.93403h87.41057v115.93403z" fill="#000000" stroke-width="0"/><path d="M115.61566,137.5356c-0.04963,-5.84673 -0.38658,-11.80582 0.00589,-17.62078c0.13357,-1.97907 -0.74674,-4.41292 0.59869,-5.92195c5.49383,-6.1619 8.42309,0.73808 11.73911,3.30481c0.82285,0.63692 1.889,0.97353 2.64233,1.68479c0.69345,0.65473 0.71181,1.97601 1.61225,2.33223c0.55536,0.2197 1.03769,-0.66523 1.32377,-1.17073c0.57136,-1.00956 0.81577,-2.1599 1.18019,-3.25368c1.51704,-4.5533 3.8373,-8.42519 6.3171,-12.56197c1.10689,-1.48385 1.41763,-4.35267 3.32066,-4.45154c6.00325,-0.31191 8.93243,8.1512 11.1629,11.89005c0.57965,0.97165 2.49208,3.98354 3.12272,5.68069c0.48054,-0.49939 1.06016,-0.9255 1.60245,-1.36264c1.20822,-0.97394 2.48857,-1.86602 3.7894,-2.72394c3.21932,-2.12319 8.86467,-6.53435 13.15538,-3.71584c1.28156,0.84184 2.64769,7.08614 2.90245,8.54067c1.12886,6.4453 0.92094,12.91392 0.92094,19.4194c0,3.11077 0.39728,6.53223 -0.02224,9.61331c-0.30092,2.21005 -1.1573,4.34442 -1.30466,6.56867c-0.17823,2.69012 0.36803,3.82039 -0.5697,6.567c-1.58514,4.64286 -5.17183,9.74359 -8.58251,13.29743c-0.28268,0.29455 -5.14758,4.94864 -5.51702,5.15118c-1.80295,0.98845 -5.88737,1.54278 -7.92698,1.65033c-8.57314,0.45207 -17.78996,-2.56906 -25.53367,-5.89853c-3.67245,-2.88348 -8.5626,-5.32256 -11.95018,-8.37672c-2.97514,-2.68232 -3.50473,-6.51318 -4.70881,-9.97582c-2.29643,-6.60395 -2.7464,-12.62236 0.71953,-18.66643z" fill="#66d6ff" stroke-width="0.5"/><path d="M103.43268,198.1503v-115.93403h87.41057v115.93403z" fill="#000000" stroke-width="0"/><path d="M182.64552,122.61534c2.48759,0.24876 2.23883,2.73635 2.23883,2.73635c-0.70964,6.85291 -4.17807,12.89162 -5.76717,19.55953c-0.89087,3.7381 -0.48637,7.93932 -1.54978,11.61449c-1.12763,3.89712 -3.31239,7.20667 -5.91974,10.25379l-0.91288,0.681c-3.08043,5.4277 -8.82189,8.25365 -15.27855,10.311c-5.43162,1.73073 -11.3226,3.02265 -17.06159,1.54154c-2.7917,-0.72047 -5.77921,-2.40268 -8.20559,-3.90557c-5.26341,-3.27823 -10.68271,-8.10724 -13.02827,-14.09528c-1.03869,-2.6517 -1.44622,-5.67228 -1.31724,-8.78639c-0.08635,-0.35761 -0.08635,-0.62276 -0.08635,-0.62276c0,-8.54553 0.6059,-17.06721 0.60225,-25.59561v-1.50562c0,0 0,-2.30231 2.20942,-2.48811c1.20493,-0.29724 2.23797,0.60667 2.23797,0.60667c1.07846,0.94366 2.15965,1.88421 3.24464,2.82037c0.07367,-0.20524 0.14135,-0.32931 0.14135,-0.32931c4.54256,-8.26129 11.63567,-14.14955 18.61596,-20.25742l1.16289,-0.80093c0,0 0.73931,-0.49287 1.63026,-0.4502c1.3011,-0.21174 2.25689,0.90335 2.25689,0.90335c2.87412,3.3854 5.04332,7.38868 6.69126,11.52342c2.0662,-0.51025 4.04671,-1.4573 5.85456,-2.56766l0.22941,-0.13765c0,0 0.89414,-0.53648 1.87397,-0.33903c2.26631,-0.34562 2.76015,1.95895 2.76015,1.95895c0.50682,2.37342 0.97402,4.76183 1.2447,7.17361l0.09478,0.18507c4.76117,0 9.52233,0 14.2835,0h1.20449c0,0 0.00879,0 0.0253,0.00052c0.16274,-0.01006 0.33731,-0.00683 0.52459,0.01189z" fill="#66d6ff" stroke-width="0.5"/></g></g></svg>