<svg version="1.1" xmlns="http://www.w3.org/2000/svg" xmlns:xlink="http://www.w3.org/1999/xlink" width="193.34909" height="212.47327" viewBox="0,0,193.34909,212.47327"><g transform="translate(-143.32546,-73.76336)"><g data-paper-data="{&quot;isPaintingLayer&quot;:true}" fill-rule="nonzero" stroke="none" stroke-width="0.5" stroke-linecap="butt" stroke-linejoin="miter" stroke-miterlimit="10" stroke-dasharray="" stroke-dashoffset="0" style="mix-blend-mode: normal"><path d="M295.4469,221.38719c0.55992,0 0.99444,0.12541 1.33164,0.32004c1.89954,-0.81128 3.8024,-1.62938 5.72797,-2.42085c5.98862,-2.46151 11.20061,-4.08672 15.68817,-9.08978c6.96616,-7.76637 9.7081,-19.26152 11.9921,-29.13792c3.0923,-18.45051 1.50443,-38.43601 -5.33789,-55.80752c-1.64241,-4.16981 -1.35247,-5.06153 -3.61028,-8.88989c-4.66901,-7.9168 -11.40415,-13.38483 -18.71775,-18.70165c-19.2801,-14.02298 -43.41556,-18.81511 -66.89181,-18.89444c-8.03153,-0.02714 -15.72512,0.17348 -23.50243,2.35118c-3.87102,1.07688 -7.7151,2.30558 -11.60997,3.28961c-2.37507,0.60005 -4.92433,0.64192 -7.16617,1.62943c-9.80447,4.31874 -17.85046,11.83158 -25.27425,19.25539c-3.46849,3.4685 -6.06119,6.55631 -9.19061,10.3528c-0.59721,0.72451 -1.59787,1.11318 -2.04161,1.94062c-0.61824,1.15281 -0.47921,2.60026 -1.02993,3.78681c-1.15806,2.49507 -3.43038,4.36609 -4.57748,6.86622c-0.95045,2.07152 -1.29581,4.37763 -2.15033,6.49053c-0.54768,3.32678 -0.28648,6.40315 -0.48282,9.75023c-0.56492,9.63053 -0.85687,18.14899 4.20721,26.59821c2.20767,3.6834 3.2129,7.4045 6.77356,10.15774c4.34737,3.36156 9.59002,4.76745 14.80575,5.83431c4.01236,-0.01299 7.81064,0.52079 11.76735,0.6269l1.74509,-0.94732c0,0 2.23607,-1.11803 3.3541,1.11803c0.08483,0.16966 0.15035,0.33288 0.199,0.48966c-0.11138,-3.8568 0.21965,-7.84197 0.22437,-11.47339c0.03631,-6.65288 -0.31872,-13.98196 1.19999,-20.50866c0.5226,-2.2459 2.63891,-6.68163 3.54776,-8.94628c4.63479,-11.54886 13.55478,-21.26091 25.48437,-25.44494c4.56287,-1.60032 8.73852,-1.29966 13.45544,-1.29966c0,0 2.5,0 2.5,2.5c0,2.5 -2.5,2.5 -2.5,2.5c-4.02879,0 -7.84784,-0.42383 -11.72071,0.98908c-10.60191,3.86782 -18.44232,12.24051 -22.57918,22.61862c-0.61966,1.55452 -2.94762,6.61193 -3.31846,8.21927c-1.42063,6.15742 -1.03521,13.11595 -1.06923,19.38941c-0.00687,5.29187 -0.90388,11.70947 0.44653,16.84935c1.06097,4.03826 3.48614,9.63907 5.46474,13.31207c2.84275,5.27716 8.21041,9.80494 13.33333,12.58098c3.42961,1.85846 7.29499,4.43612 11.0393,5.65517c10.75764,3.50238 22.65596,4.05875 33.85058,4.08809c6.54567,0.01763 12.72945,-0.07771 19.1435,-1.62908c4.54581,-1.09949 8.83088,-2.71082 13.0692,-4.46497c0.17215,-0.7395 0.71405,-1.9034 2.41985,-1.9034zM303.92035,227.81205c1.49253,2.62627 3.99595,4.89721 4.7908,7.93876c0.39973,1.52959 0.22295,3.17025 0.60687,4.70389c0.39396,1.57376 1.30068,2.98669 1.71122,4.55621c1.81925,6.95523 0.23196,14.43274 -1.1502,21.28747c-1.14088,3.43379 -1.98992,7.06066 -4.65378,9.70887c-2.69966,2.68381 -6.12279,3.0436 -9.42826,4.56923c-12.86028,5.93562 -26.07652,6.12381 -39.96912,5.31414c-6.42353,-0.37437 -12.75272,-0.12266 -19.12616,-1.16995c-0.66542,-0.09503 -8.18282,-1.15035 -8.52055,-1.27961c-6.25754,-2.39497 -12.22492,-8.97903 -13.57852,-15.59503c-0.66019,-3.22682 -0.04803,-7.49758 -0.04511,-10.7721c0.0022,-2.4679 -0.14882,-5.74035 0.83612,-7.98426c0.48608,-1.1074 1.80358,-1.64143 2.4967,-2.63248c1.50332,-2.1495 2.08093,-4.85312 3.56897,-7.01322c1.9698,-2.85942 4.30476,-5.82297 6.52418,-8.60876c-0.86424,-0.24517 -1.72239,-0.50689 -2.57359,-0.78624c-4.05237,-1.32991 -8.15882,-3.97635 -11.87961,-6.01806c-5.98368,-3.28342 -11.9733,-8.44954 -15.33221,-14.5828c-0.84644,-1.54557 -1.22986,-3.30327 -1.89071,-4.93683c-0.26351,-0.65138 -3.90125,-9.04376 -4.02004,-9.50458c-0.44548,-1.72804 -0.67561,-3.55547 -0.78036,-5.42587c-0.27574,1.09275 -1.36849,1.63913 -1.36849,1.63913l-2.83239,1.34142c-4.50055,0.06688 -8.8691,-0.50448 -13.4088,-0.51747c-6.03941,-1.18409 -12.23748,-2.8482 -17.23662,-6.75376c-4.21202,-3.29064 -5.49652,-7.24547 -8.10326,-11.5853c-5.60937,-9.33875 -5.58388,-18.82031 -4.94775,-29.47594c0.22349,-3.74356 0.03295,-7.11156 0.66155,-10.84844c0.93731,-2.36713 1.35582,-4.93235 2.42715,-7.24192c1.1575,-2.49533 3.43031,-4.36613 4.57748,-6.86622c0.61269,-1.33527 0.54775,-2.9382 1.25881,-4.22378c0.59022,-1.0671 1.76686,-1.69045 2.53587,-2.63686c3.15899,-3.88773 5.94415,-7.13042 9.47763,-10.66389c7.90364,-7.90362 16.53667,-15.8641 27.00848,-20.37955c2.42386,-1.04517 5.15136,-1.15752 7.71065,-1.80369c3.86457,-0.97572 7.67845,-2.19678 11.51925,-3.26529c8.23848,-2.27815 16.35655,-2.56281 24.85941,-2.53408c24.53093,0.08289 49.68038,5.20793 69.81577,19.85074c7.85909,5.71795 15.09663,11.68604 20.08805,20.21276c2.65184,4.53008 2.08686,4.85162 3.95159,9.59093c7.20019,18.29962 8.81071,39.18807 5.58971,58.61267c-2.49087,10.81539 -5.60154,23 -13.18405,31.51371c-4.97723,5.58848 -10.82855,7.62598 -17.49857,10.36451c-0.60779,0.24954 -1.2135,0.50151 -1.81768,0.75494c0.68398,0.88743 0.76894,2.16012 1.32956,3.14659zM232.74215,232.88734c-2.39969,2.98971 -4.96552,6.23208 -7.14003,9.35615c-1.52703,2.19386 -2.12179,4.9481 -3.65556,7.13726c-0.54478,0.77757 -1.67122,1.08846 -2.08078,1.945c-1.05147,2.199 -0.30825,7.49878 -0.30825,9.75348c0,1.94048 -0.41329,3.91604 -0.04511,5.82127c0.95177,4.92508 5.85792,10.09114 10.45325,11.86986c2.35265,0.91064 5.00327,0.65226 7.50064,1.00913c6.20101,1.04962 12.38221,0.75967 18.63806,1.11879c13.09334,0.75163 25.50853,0.71798 37.63737,-4.87985c2.57704,-1.18938 5.88975,-1.46813 7.94798,-3.5467c1.93404,-1.95315 2.52005,-4.95563 3.35681,-7.45668c1.18106,-5.9595 2.78658,-12.71307 1.13855,-18.76549c-0.43004,-1.57934 -1.32541,-3.01065 -1.72189,-4.59875c-0.362,-1.44996 -0.19358,-2.99672 -0.5375,-4.45107c-0.61783,-2.61264 -3.13886,-4.67416 -4.36416,-6.93806c-0.40057,-0.7401 -0.31264,-1.71024 -0.80466,-2.39296c-0.4065,-0.56406 -1.09329,-0.72957 -1.84032,-0.79797c-5.12988,2.16365 -10.27543,4.21251 -15.78323,5.54468c-6.80288,1.64541 -13.38878,1.78789 -20.33242,1.7692c-9.06741,-0.02505 -18.58206,-0.39987 -27.63461,-2.2826c-0.17488,0.47376 -0.42413,0.78532 -0.42413,0.78532z" fill="#000000"/><path d="M233.12603,232.07236c9.05256,1.88274 18.60169,2.23754 27.6691,2.2626c6.94364,0.01869 13.5674,-0.11245 20.37029,-1.75787c5.50781,-1.33217 10.66028,-3.37395 15.79016,-5.5376c0.74702,0.06839 1.43503,0.2355 1.84154,0.79955c0.49202,0.68272 0.40567,1.65513 0.80624,2.39523c1.22531,2.2639 3.75068,4.33365 4.36852,6.94628c0.34393,1.45436 0.17719,3.00582 0.53919,4.45578c0.39649,1.5881 1.29317,3.02485 1.72321,4.60419c1.64803,6.05243 0.04174,12.82755 -1.13932,18.78705c-0.83676,2.50105 -1.42601,5.51243 -3.36005,7.46559c-2.05824,2.07858 -5.37541,2.36492 -7.95245,3.5543c-12.12884,5.59783 -24.59739,5.65081 -37.69072,4.89919c-6.25585,-0.35912 -12.45977,-0.0822 -18.66077,-1.13182c-2.49737,-0.35687 -5.15277,-0.10402 -7.50541,-1.01466c-4.59533,-1.77872 -9.50934,-6.96056 -10.46111,-11.88564c-0.36818,-1.90523 0.04372,-3.88697 0.04372,-5.82745c0,-2.25471 -0.74373,-7.5656 0.30774,-9.7646c0.40956,-0.85654 1.53622,-1.16992 2.081,-1.9475c1.53377,-2.18915 2.13054,-4.95278 3.65757,-7.14663c2.17451,-3.12407 4.74705,-6.37999 7.14673,-9.3697c0,0 0.24994,-0.31253 0.42483,-0.78629z" data-paper-data="{&quot;noHover&quot;:false,&quot;origItem&quot;:[&quot;Path&quot;,{&quot;applyMatrix&quot;:true,&quot;selected&quot;:true,&quot;segments&quot;:[[[232.74215,232.88734],[0,0],[-2.39969,2.98971],7],[[225.60212,242.24349],[2.17451,-3.12407],[-1.52703,2.19386],7],[[221.94656,249.38075],[1.53377,-2.18915],[-0.54478,0.77757],7],[[219.86578,251.32575],[0.40956,-0.85654],[-1.05147,2.199],7],[[219.55753,261.07923],[0,-2.25471],[0,1.94048],7],[[219.51242,266.9005],[-0.36818,-1.90523],[0.95177,4.92508],7],[[229.96567,278.77036],[-4.59533,-1.77872],[2.35265,0.91064],7],[[237.46631,279.77949],[-2.49737,-0.35687],[6.20101,1.04962],7],[[256.10437,280.89828],[-6.25585,-0.35912],[13.09334,0.75163],7],[[293.74174,276.01843],[-12.12884,5.59783],[2.57704,-1.18938],7],[[301.68973,272.47172],[-2.05824,2.07858],[1.93404,-1.95315],7],[[305.04654,265.01504],[-0.83676,2.50105],[1.18106,-5.9595],7],[[306.18509,246.24955],[1.64803,6.05243],[-0.43004,-1.57934],7],[[304.46319,241.6508],[0.39649,1.5881],[-0.362,-1.44996],7],[[303.92569,237.19973],[0.34393,1.45436],[-0.61783,-2.61264],7],[[299.56153,230.26167],[1.22531,2.2639],[-0.40057,-0.7401],7],[[298.75686,227.86871],[0.49202,0.68272],[-0.4065,-0.56406],7],[[296.91655,227.07074],[0.74702,0.06839],[-5.12988,2.16365],7],[[281.13331,232.61542],[5.50781,-1.33217],[-6.80288,1.64541],7],[[260.80089,234.38462],[6.94364,0.01869],[-9.06741,-0.02505],7],[[233.16628,232.10202],[9.05256,1.88274],[-0.17488,0.47376],7]],&quot;closed&quot;:true}]}" fill="#1dff00"/><path d="M293.05746,223.33028c-4.23831,1.75415 -8.52997,3.36973 -13.07577,4.46923c-6.41405,1.55137 -12.60835,1.65095 -19.15402,1.63332c-11.19462,-0.02934 -23.11526,-0.58472 -33.8729,-4.0871c-3.74432,-1.21904 -7.61792,-3.79896 -11.04753,-5.65741c-5.12292,-2.77603 -10.50218,-7.30991 -13.34493,-12.58707c-1.97861,-3.673 -4.41163,-9.2807 -5.4726,-13.31896c-1.3504,-5.13988 -0.46093,-11.56813 -0.45407,-16.86c0.03402,-6.27346 -0.35699,-13.25125 1.06363,-19.40867c0.37084,-1.60734 2.69901,-6.6749 3.31867,-8.22942c4.13686,-10.37811 12.00127,-18.78763 22.60319,-22.65545c3.87287,-1.41291 7.70949,-0.9955 11.73828,-0.9955c0,0 2.50461,-0.00053 2.50461,-2.50053c0,-2.5 -2.48968,-2.40059 -2.48968,-2.40059c-4.71692,0 -8.87489,-0.30663 -13.43776,1.29369c-11.92959,4.18403 -20.82471,13.86007 -25.4595,25.40892c-0.90885,2.26465 -3.02465,6.69041 -3.54725,8.93631c-1.51871,6.5267 -1.1684,13.83687 -1.20471,20.48975c-0.00472,3.63142 -0.34012,7.60909 -0.22875,11.46589c-0.04865,-0.15678 -0.19611,-0.26268 -0.28094,-0.43233c-1.11803,-2.23607 -3.35537,-1.11995 -3.35537,-1.11995l-1.74514,0.94723c-3.95671,-0.1061 -7.75724,-0.6439 -11.76961,-0.63091c-5.21573,-1.06686 -10.46108,-2.47921 -14.80845,-5.84077c-3.56066,-2.75325 -4.5676,-6.48077 -6.77526,-10.16417c-5.06408,-8.44922 -4.77278,-16.98247 -4.20786,-26.613c0.19634,-3.34708 -0.06404,-6.42864 0.48364,-9.75541c0.85452,-2.1129 1.20078,-4.42258 2.15123,-6.4941c1.1471,-2.50013 3.42082,-4.37528 4.57888,-6.87035c0.55072,-1.18655 0.41251,-2.63599 1.03075,-3.7888c0.44375,-0.82745 1.445,-1.21743 2.04221,-1.94194c3.12942,-3.79649 5.72592,-6.89096 9.19441,-10.35946c7.42379,-7.4238 15.48288,-14.94982 25.28735,-19.26856c2.24184,-0.9875 4.79472,-1.03163 7.16979,-1.63169c3.89487,-0.98403 7.74576,-2.21594 11.61678,-3.29282c7.7773,-2.17769 15.48584,-2.38153 23.51737,-2.35439c23.47625,0.07933 47.65173,4.88788 66.93183,18.91086c7.3136,5.31683 14.05697,10.79729 18.72598,18.7141c2.25782,3.82836 1.96986,4.72505 3.61227,8.89486c6.84232,17.37152 8.43075,37.38743 5.33845,55.83794c-2.284,9.87641 -5.03323,21.38637 -11.99938,29.15274c-4.48757,5.00306 -9.70557,6.63521 -15.6942,9.09672c-1.92557,0.79147 -3.83088,1.61176 -5.73042,2.42305c-0.3372,-0.19464 -0.77208,-0.31974 -1.332,-0.31974c-1.7058,0 -2.24908,1.165 -2.42123,1.90449z" data-paper-data="{&quot;noHover&quot;:false,&quot;origItem&quot;:[&quot;Path&quot;,{&quot;applyMatrix&quot;:true,&quot;selected&quot;:true,&quot;segments&quot;:[[[295.4469,221.38719],[-1.7058,0],[0.55992,0],7],[[296.77854,221.70724],[-0.3372,-0.19464],[1.89954,-0.81128],7],[[302.50652,219.28639],[-1.92557,0.79147],[5.98862,-2.46151],7],[[318.19469,210.19661],[-4.48757,5.00306],[6.96616,-7.76637],7],[[330.18679,181.05868],[-2.284,9.87641],[3.0923,-18.45051],7],[[324.8489,125.25116],[6.84232,17.37152],[-1.64241,-4.16981],7],[[321.23862,116.36127],[2.25782,3.82836],[-4.66901,-7.9168],7],[[302.52087,97.65962],[7.3136,5.31683],[-19.2801,-14.02298],7],[[235.62906,78.76517],[23.47625,0.07933],[-8.03153,-0.02714],7],[[212.12663,81.11635],[7.7773,-2.17769],[-3.87102,1.07688],7],[[200.51666,84.40596],[3.89487,-0.98403],[-2.37507,0.60005],7],[[193.35049,86.03539],[2.24184,-0.9875],[-9.80447,4.31874],7],[[168.07624,105.29077],[7.42379,-7.4238],[-3.46849,3.4685],7],[[158.88563,115.64357],[3.12942,-3.79649],[-0.59721,0.72451],7],[[156.84402,117.5842],[0.44375,-0.82745],[-0.61824,1.15281],7],[[155.81409,121.37101],[0.55072,-1.18655],[-1.15806,2.49507],7],[[151.23661,128.23723],[1.1471,-2.50013],[-0.95045,2.07152],7],[[149.08628,134.72776],[0.85452,-2.1129],[-0.54768,3.32678],7],[[148.60346,144.47799],[0.19634,-3.34708],[-0.56492,9.63053],7],[[152.81067,171.0762],[-5.06408,-8.44922],[2.20767,3.6834],7],[[159.58423,181.23394],[-3.56066,-2.75325],[4.34737,3.36156],7],[[174.38998,187.06825],[-5.21573,-1.06686],[4.01236,-0.01299],7],[[186.15733,187.69514],[-3.95671,-0.1061],[0,0],7],[[187.90242,186.74783],[0,0],[0,0],7],[[191.25652,187.86586],[-1.11803,-2.23607],[0.08483,0.16966],7],[[191.45552,188.35552],[-0.04865,-0.15678],[-0.11138,-3.8568],7],[[191.6799,176.88214],[-0.00472,3.63142],[0.03631,-6.65288],7],[[192.87988,156.37348],[-1.51871,6.5267],[0.5226,-2.2459],7],[[196.42764,147.4272],[-0.90885,2.26465],[4.63479,-11.54886],7],[[221.91202,121.98226],[-11.92959,4.18403],[4.56287,-1.60032],7],[[235.36746,120.6826],[-4.71692,0],[0,0],7],[[237.86746,123.1826],[0,-2.5],[0,2.5],7],[[235.36746,125.6826],[0,0],[-4.02879,0],7],[[223.64675,126.67168],[3.87287,-1.41291],[-10.60191,3.86782],7],[[201.06756,149.2903],[4.13686,-10.37811],[-0.61966,1.55452],7],[[197.7491,157.50957],[0.37084,-1.60734],[-1.42063,6.15742],7],[[196.67987,176.89898],[0.03402,-6.27346],[-0.00687,5.29187],7],[[197.1264,193.74834],[-1.3504,-5.13988],[1.06097,4.03826],7],[[202.59114,207.06041],[-1.97861,-3.673],[2.84275,5.27716],7],[[215.92447,219.64139],[-5.12292,-2.77603],[3.42961,1.85846],7],[[226.96377,225.29655],[-3.74432,-1.21904],[10.75764,3.50238],7],[[260.81435,229.38464],[-11.19462,-0.02934],[6.54567,0.01763],7],[[279.95785,227.75556],[-6.41405,1.55137],[4.54581,-1.09949],7],[[293.02705,223.29059],[-4.23831,1.75415],[0.17215,-0.7395],7]],&quot;closed&quot;:true}]}" fill="#ffffff"/><path d="M223.86812,174.78038c0.62586,1.94182 0.93762,3.9989 0.21584,5.55122c-0.07092,0.15253 -0.14578,0.30272 -0.22416,0.45081l0.07308,0.03132l-1.69386,3.95234c-0.36945,0.91919 -1.26922,1.56816 -2.32056,1.56816c-1.22888,0 -2.25067,-0.88665 -2.46053,-2.05512l-0.47957,-2.39786c-3.2719,-4.32894 -3.79495,-8.78779 -3.23112,-13.49602h-0.33407v-4.57748c0,-1.38071 1.11929,-2.5 2.5,-2.5c0.82831,0 1.56254,0.40283 2.01746,1.02328l1.6991,2.26546l-0.04318,0.03239l0.13252,0.09479c1.44779,2.52894 2.84818,5.08713 4.15202,7.6932c0,0 0.63086,1.26173 -0.00296,2.36352z" fill="#000000"/><path d="M262.77671,173.06383c0.62586,1.94182 0.93762,3.9989 0.21584,5.55122c-0.07092,0.15253 -0.14578,0.30272 -0.22416,0.45081l0.07308,0.03132l-1.69386,3.95234c-0.36945,0.91919 -1.26922,1.56816 -2.32056,1.56816c-1.22888,0 -2.25067,-0.88665 -2.46053,-2.05512l-0.47957,-2.39786c-3.2719,-4.32894 -3.79495,-8.78779 -3.23112,-13.49602h-0.33407v-4.57748c0,-1.38071 1.11929,-2.5 2.5,-2.5c0.82831,0 1.56254,0.40283 2.01746,1.02328l1.6991,2.26546l-0.04318,0.03239l0.13252,0.09479c1.44779,2.52894 2.84818,5.08713 4.15202,7.6932c0,0 0.63086,1.26173 -0.00296,2.36352z" fill="#000000"/><path d="M275.52446,205.8263c-0.48332,-0.35937 -0.88748,-0.9604 -0.88748,-1.96559c0,-2.5 2.5,-2.5 2.5,-2.5l3.02364,2.00971c0.47897,2.44367 0.57501,4.96191 0.53002,7.45166c-0.9647,1.45636 -1.45515,3.3786 -2.8941,4.36909c-1.07862,0.74246 -2.61419,0.17193 -3.91545,0.31821c-2.52992,0.2844 -5.06977,0.5762 -7.61563,0.57847c-11.19503,0.01 -22.04322,-0.72591 -33.1855,-1.85923c-4.45748,-0.45339 -9.92459,0.63843 -13.86956,-1.92656c-5.11386,-3.325 -5.20687,-5.8023 -5.22506,-11.30228c0,0 0,-2.5 2.5,-2.5c2.5,0 2.5,2.5 2.5,2.5c-0.00639,1.67351 -0.76803,3.66546 0.22065,5.01572c3.14546,4.29582 9.9335,2.78996 14.37798,3.23859c8.64368,0.8725 17.1187,1.83376 25.81525,1.83376c4.76977,0 9.40118,-0.35936 14.12741,-0.5659c0.61082,-0.02669 1.247,0.56496 1.8064,0.31821c0.44411,-0.1959 0.35934,-0.90184 0.53902,-1.35276c-0.03817,-1.22443 -0.15761,-2.44892 -0.3476,-3.66112z" fill="#000000"/></g></g></svg>