<svg version="1.1" xmlns="http://www.w3.org/2000/svg" xmlns:xlink="http://www.w3.org/1999/xlink" width="529.56381" height="615.64358" viewBox="0,0,529.56381,615.64358"><g transform="translate(47.72172,111.86007)"><g data-paper-data="{&quot;isPaintingLayer&quot;:true}" fill-rule="nonzero" stroke="none" stroke-linecap="butt" stroke-linejoin="miter" stroke-miterlimit="10" stroke-dasharray="" stroke-dashoffset="0" style="mix-blend-mode: normal"><path d="M365.75164,345.79149c0,12.23864 0.49123,22.50359 -3.31839,34.25253c-9.18713,22.02727 -33.18033,36.543 -55.15433,43.33832c-14.36948,4.44369 -29.71003,7.78042 -44.4139,10.36444c-7.02357,1.2343 -14.26228,0.08877 -21.39349,0.08877c-25.06005,0 -48.51616,-2.74981 -73.38466,-5.85859c-14.57959,-2.19833 -32.46427,-8.64584 -44.90603,-17.01856c-1.26296,-0.84991 -12.71428,-12.65748 -13.76491,-13.59079c-6.23789,-5.54128 -9.18718,-4.86647 -13.36875,-13.98641c-4.20316,-9.167 -1.3731,-18.86806 -0.56391,-28.12113c0.32086,-3.66909 -0.6901,-7.46234 0.15046,-11.04824c3.83671,-16.36785 15.96014,-30.57962 23.40402,-45.54019c-0.22155,-0.07362 -0.44303,-0.14743 -0.66441,-0.22146c-31.8341,-12.37463 -60.94295,-26.41889 -79.98628,-56.49046c-6.11043,-9.64904 -9.05426,-24.03206 -12.23622,-34.84159c-10.5667,-35.89665 -11.08588,-76.66168 1.32378,-112.54701c1.24039,-35.04566 9.42091,-71.65127 -6.87242,-104.16054l-3.06941,-9.15354c0,0 -0.84935,-2.54813 0.10629,-4.9899c-1.78044,-1.04786 -4.52909,-3.48337 -3.00518,-8.0551c2.17418,-6.52256 8.69674,-4.34838 8.69674,-4.34838c14.96624,5.0577 26.33108,14.3722 41.74842,18.75446l0.97078,-0.1044c0.43305,-0.37033 0.74367,-0.5645 0.74367,-0.5645c21.58149,-13.48116 42.27838,-28.18813 63.45137,-42.30451c7.81873,-5.21285 15.54469,-12.0797 24.07284,-15.98662c6.56031,-3.00541 13.99198,-3.94119 20.38285,-7.29191c13.05065,-6.84246 25.37741,-13.62567 40.00357,-16.59728l6.60654,-0.02789c1.13326,-0.16336 2.20732,0.00432 3.03776,0.23359c0.86146,0.20876 1.91669,0.59972 2.84761,1.33196c20.92317,12.26211 34.93125,32.61721 55.67237,45.89878l3.80643,1.87107c18.37853,-5.36815 35.47256,-15.9512 50.44454,-27.87815c18.02673,-14.36046 36.93566,-32.49088 60.89182,-33.05833h5.79779c0,0 1.2989,0 2.76757,0.56459c0.82189,-0.35133 1.81944,-0.56459 3.03019,-0.56459c6.87538,0 6.87538,6.87538 6.87538,6.87538c0,2.03192 0.01834,24.90946 -0.06648,25.59413c-1.68479,13.60219 -6.70839,26.61967 -10.09921,39.94785c21.41948,-0.2504 43.02219,-1.10303 64.06575,3.08713l6.43654,2.98655c2.03708,0.49062 3.22529,1.72794 3.91831,3.00443c0.8378,1.19933 1.41548,2.83026 0.9245,4.89277c-0.62852,12.0421 -6.60924,22.78713 -10.47026,34.31818c-4.82068,14.39697 -9.42572,29.51004 -13.62452,44.03867c-6.82614,23.61978 -3.05971,52.58913 -15.71076,74.19719c-6.04437,14.99169 -6.92039,30.82863 -7.99785,46.71322c-0.6529,9.6258 -2.90213,18.30986 -2.94805,28.00562l-3.09694,11.08129c0,0 -1.33679,4.67875 -5.69724,5.03946c-8.21808,25.40077 -21.48904,48.76142 -42.04456,67.27269c-7.34474,8.2815 -16.13216,14.69459 -25.77558,19.62084c10.3072,11.34469 11.45595,24.22782 11.45595,40.97627zM112.94546,339.91138c-1.18342,2.54906 -3.30881,4.71863 -3.92886,7.45976c-0.67991,3.00578 0.39244,6.17172 0.15046,9.24393c-0.51767,6.57208 -3.51695,14.56221 -0.56391,21.15986c2.06453,4.61261 6.33267,6.1008 9.8223,9.20466c4.37208,3.88873 7.43784,9.28161 12.32505,12.49915c10.74389,7.07336 26.56702,13.19494 39.16155,14.86915c24.2929,3.03639 47.09045,5.73692 71.55948,5.73692c6.39702,0 12.90532,1.27789 19.19088,0.08877c14.11842,-2.67094 28.70185,-5.68964 42.55258,-9.92775c16.99817,-5.20116 39.66428,-17.19969 46.30656,-34.93152c3.40098,-9.84358 2.47937,-19.13565 2.47937,-29.52288c0,-14.80416 0.25362,-25.55724 -11.38339,-35.12582c-14.40746,5.10279 -29.96555,7.63815 -45.06986,8.64952c-54.48226,3.64801 -110.69081,-1.07808 -163.24514,-16.4966c-5.96243,12.77414 -13.37262,24.20233 -19.35706,37.09281zM439.09144,71.9963c4.47222,-22.47986 11.8079,-45.66445 19.08832,-67.59815c2.87889,-8.6732 8.45682,-18.11799 9.58602,-27.22462l-0.08036,-0.04552c-22.81761,-4.58533 -46.50272,-2.76535 -69.67427,-2.76535c-2.38779,0 -3.94629,-0.82929 -4.96355,-1.91183c-1.08254,-1.01726 -1.91183,-2.57576 -1.91183,-4.96355c0,-0.32304 0.01518,-0.63091 0.04412,-0.92433l0.0894,-1.87352c3.09785,-15.48926 9.5566,-30.37366 11.52846,-45.98737c0.70258,-5.56339 0.37369,-11.18951 0.12406,-16.81152h-4.91067c-4.52694,-0.16459 -8.95606,1.82513 -13.07093,3.71932c-14.91797,6.86717 -26.26734,16.05278 -39.26711,26.35466c-16.65339,13.19722 -35.50847,24.67541 -55.9307,30.53804c0,0 -1.41242,0.40356 -3.11809,0.18473c-2.47244,0.48991 -4.74433,-0.64603 -4.74433,-0.64603l-6.43439,-3.26082c-9.69103,-6.22296 -11.79714,-7.16172 -21.14522,-15.14031c-12.05504,-10.28899 -19.83625,-22.1677 -33.49768,-30.16332l-4.74364,-0.02417c-12.82119,2.50138 -23.96489,9.38219 -35.3674,15.29041c-6.34755,3.28898 -13.68337,4.26611 -20.20152,7.20247c-8.01742,3.61177 -15.26231,10.23716 -22.61775,15.14043c-21.28641,14.18988 -42.10115,28.9605 -63.79101,42.52378c0,0 -0.71237,0.44526 -1.79474,0.77543c-2.01933,1.71906 -4.74808,1.71906 -4.74808,1.71906l-6.23712,-0.26453c-8.85315,-2.54147 -13.51445,-3.39247 -21.84461,-7.90586c-2.4089,-1.30517 -4.50471,-2.6176 -6.51621,-3.88973l0.36564,1.10419c11.901,23.85749 11.65888,49.23956 10.00232,74.8467c0.30816,-0.60372 0.61747,-1.2069 0.92811,-1.80946c-0.33194,10.26636 -0.05589,20.54593 0.12359,30.82463c-1.16273,2.64842 -2.23948,5.3363 -3.23215,8.05825c-0.03576,1.74095 -0.05398,3.48004 -0.05131,5.21687c0,0 0,4.44149 -3.56983,6.18484c-8.4014,30.80734 -6.96704,64.81589 1.84614,94.80304c2.85185,9.70351 5.42371,23.22061 10.95487,31.8327c17.42341,27.12843 43.95231,39.21244 72.73766,50.41164c54.75206,18.28679 114.11372,23.79388 171.60842,20.07592c13.13211,-0.84918 26.91528,-2.92714 39.72091,-7.22701c2.154,-3.35889 5.37712,-3.19022 7.24607,-2.72512c10.9385,-4.58758 20.86863,-11.06116 28.6645,-20.10731c39.63199,-35.48806 49.7729,-90.48665 49.83879,-141.51027c2.4891,-3.02641 4.82563,-8.49844 6.79904,-14.54194c2.69627,-2.92179 4.76717,-6.42946 6.00005,-10.31043c0.11286,1.32439 0.21445,2.65148 0.30541,3.981c4.52865,-12.9336 3.20152,-27.77995 5.8626,-41.15612z" fill="#000000" stroke-width="0.5"/><path d="M112.81026,339.88609c5.98444,-12.89048 13.41214,-24.36456 19.37458,-37.1387c52.55433,15.41852 108.99613,20.14131 163.47838,16.49328c15.10432,-1.01136 30.67172,-3.52977 45.07919,-8.63256c11.63701,9.56856 11.39486,20.36138 11.39486,35.16556c0,10.38722 0.92188,19.71258 -2.4791,29.55617c-6.64228,17.73184 -29.33024,29.79062 -46.32842,34.99178c-13.85071,4.23809 -28.48457,7.30258 -42.60298,9.97353c-6.28554,1.18912 -12.83107,-0.0755 -19.22809,-0.0755c-24.46901,0 -47.39699,-2.74451 -71.68988,-5.7809c-12.59453,-1.67422 -28.44287,-7.83763 -39.18676,-14.91097c-4.88721,-3.21754 -7.95858,-8.62901 -12.33065,-12.51774c-3.48964,-3.10388 -7.75998,-4.60443 -9.82453,-9.21704c-2.95304,-6.59767 0.04518,-14.61168 0.56285,-21.18376c0.24198,-3.07221 -0.82952,-6.24859 -0.14961,-9.25437c0.62005,-2.74113 2.74682,-4.91972 3.93023,-7.46878z" data-paper-data="{&quot;noHover&quot;:false,&quot;origItem&quot;:[&quot;Path&quot;,{&quot;applyMatrix&quot;:true,&quot;segments&quot;:[[[198.90219,248.3042],[0,0],[-0.43031,0.92688]],[[197.47359,251.01669],[0.22546,-0.99672],[-0.24723,1.09295]],[[197.5283,254.37794],[0.08799,-1.11711],[-0.18823,2.38972]],[[197.32325,262.07202],[-1.07377,-2.39902],[0.7507,1.67722]],[[200.8948,265.41899],[-1.26889,-1.12862],[1.58976,1.41401]],[[205.37639,269.96389],[-1.77707,-1.16995],[3.90666,2.57199]],[[219.61618,275.37056],[-4.57958,-0.60877],[8.8333,1.10408]],[[245.63639,277.4566],[-8.89734,0],[2.32606,0]],[[252.61451,277.48888],[-2.28553,0.43238],[5.13369,-0.9712]],[[268.08733,273.87899],[-5.03635,1.54104],[6.18082,-1.89123]],[[284.92516,261.17731],[-2.41524,6.44759],[1.23665,-3.57929]],[[285.8267,250.4423],[0,3.77697],[0,-5.38304]],[[281.68751,237.66997],[4.23141,3.47929],[-5.23879,1.85546]],[[265.29936,240.81508],[5.49218,-0.36775],[-19.81065,1.32648]],[[205.94072,234.81664],[19.10963,5.60643],[-2.16804,4.64489]],[[198.90217,248.3042],[2.17604,-4.68719],[0,0]]],&quot;closed&quot;:true,&quot;fillColor&quot;:[0,0,0],&quot;strokeWidth&quot;:0.5}]}" fill="#667eff" stroke-width="0.25"/><path d="M439.227,71.97315c-2.66107,13.37619 -1.33217,28.25228 -5.86082,41.18588c-0.09095,-1.32954 -0.19243,-2.65959 -0.30529,-3.98398c-1.23289,3.88096 -3.30425,7.39673 -6.00052,10.3185c-1.97339,6.04351 -4.31146,11.52744 -6.80057,14.55385c-0.06589,51.0236 -10.26315,106.11103 -49.89514,141.59909c-7.79587,9.04615 -17.74564,15.53125 -28.68415,20.11883c-1.86894,-0.4651 -5.09663,-0.63167 -7.25063,2.72721c-12.80564,4.29985 -26.61384,6.38595 -39.74593,7.23516c-57.49471,3.71796 -116.96506,-1.81071 -171.71714,-20.09749c-28.78535,-11.19922 -55.35041,-23.32047 -72.77383,-50.44891c-5.53116,-8.61209 -8.11245,-22.14608 -10.96429,-31.84959c-8.81318,-29.98717 -10.26058,-64.05151 -1.85918,-94.85885c3.56983,-1.74335 3.56981,-6.18885 3.56981,-6.18885c-0.00267,-1.73683 0.01564,-3.47935 0.0514,-5.2203c0.99267,-2.72193 2.06972,-5.41526 3.23245,-8.06368c-0.17947,-10.27871 -0.45259,-20.57815 -0.12065,-30.84453c-0.31066,0.60256 -0.62024,1.20702 -0.9284,1.81072c1.65655,-25.60714 1.91265,-51.02666 -9.98835,-74.88414l-0.36542,-1.10456c2.01148,1.27213 4.10724,2.58468 6.51614,3.88985c8.33014,4.51338 12.99259,5.36238 21.84574,7.90385l6.23805,0.26291c0,0 2.73007,-0.0022 4.7494,-1.72126c1.08237,-0.33019 1.7953,-0.77634 1.7953,-0.77634c21.68986,-13.56328 42.53984,-28.37161 63.82625,-42.56151c7.35545,-4.90327 14.61698,-11.5391 22.63442,-15.15088c6.51815,-2.93637 13.86808,-3.91998 20.21561,-7.20896c11.40251,-5.90823 22.57262,-12.7965 35.39382,-15.29788l4.74692,0.02363c13.66143,7.99562 21.46715,19.8728 33.52219,30.16179c9.34806,7.97859 11.47421,8.91939 21.16524,15.14235l6.44076,3.26213c0,0 2.27625,1.13699 4.74868,0.64708c1.70567,0.21883 3.12075,-0.18402 3.12075,-0.18402c20.42222,-5.86263 39.3069,-17.32864 55.9603,-30.52586c12.99977,-10.30186 24.35961,-19.48102 39.27758,-26.34819c4.11489,-1.89419 8.54791,-3.88118 13.07485,-3.71659l4.91239,0.0013c0.24964,5.62201 0.58303,11.25169 -0.11955,16.81508c-1.97185,15.6137 -8.42022,30.50764 -11.51807,45.99688l-0.08877,1.87415c-0.02893,0.29342 -0.04381,0.60163 -0.04381,0.92465c0,2.38779 0.83165,3.94881 1.91419,4.96605c1.01726,1.08254 2.57799,1.91429 4.96578,1.91429c23.17155,0 46.87204,-1.79863 69.68964,2.7867l0.08038,0.04554c-1.12921,9.10663 -6.70192,18.56125 -9.58081,27.23445c-7.28042,21.9337 -14.60455,45.15462 -19.07677,67.63448z" data-paper-data="{&quot;noHover&quot;:false,&quot;origItem&quot;:[&quot;Path&quot;,{&quot;applyMatrix&quot;:true,&quot;segments&quot;:[[[317.49428,150.88584],[0,0],[1.62617,-8.17405]],[[324.43511,126.30603],[-2.64728,7.97546],[1.04681,-3.15372]],[[327.92075,116.40671],[-0.4106,3.31132],[0,0]],[[327.89153,116.39016],[0,0],[-8.29686,-1.6673]],[[302.55681,115.38463],[8.42556,0],[-0.86824,0]],[[300.75198,114.68946],[0.36989,0.39363],[-0.39363,-0.36989]],[[300.05681,112.88463],[0,0.86824],[0,-0.11746]],[[300.07285,112.54853],[-0.01052,0.10669],[0,0]],[[300.10536,111.86729],[0,0],[1.12643,-5.63215]],[[304.2973,95.14552],[-0.717,5.6774],[0.25547,-2.02294]],[[304.34241,89.03257],[0.09077,2.04426],[0,0]],[[302.55681,89.03257],[0,0],[-1.64607,-0.05985]],[[297.804,90.38498],[1.49624,-0.68876],[-5.42442,2.49702]],[[283.52583,99.96797],[4.72693,-3.74593],[-6.05545,4.79873]],[[263.1885,111.07211],[7.42586,-2.13175],[0,0]],[[262.05471,111.13928],[0.62021,0.07957],[-0.89902,0.17814]],[260.32959,110.90437],[[257.98994,109.71868],[0,0],[-3.52382,-2.26277]],[[250.30119,104.21341],[3.39911,2.90115],[-4.38341,-3.74125]],[[238.12088,93.24553],[4.96752,2.90734],[0,0]],[[236.39601,93.23674],[0,0],[-4.662,0.90954]],[[223.53584,98.79659],[4.14614,-2.14833],[-2.30807,1.19593]],[[216.19023,101.41553],[2.37011,-1.06771],[-2.91527,1.3133]],[[207.96604,106.92084],[2.67456,-1.78291],[-7.74009,5.15968]],[[184.77057,122.38319],[7.88679,-4.93183],[0,0]],[[184.11797,122.66515],[0.39357,-0.12006],[-0.73426,0.62508]],[182.39149,123.29023],[[180.12357,123.19404],[0,0],[-3.21915,-0.92412]],[[172.18051,120.31934],[3.02898,1.64114],[-0.87592,-0.47458]],[[169.81111,118.90497],[0.73141,0.46257],[0,0]],[[169.94406,119.30647],[0,0],[4.3274,8.67498]],[[173.58107,146.52197],[0.60235,-9.31118],[0.11205,-0.21952]],[[173.91855,145.86402],[-0.11296,0.2191],[-0.1207,3.73302]],[[173.96349,157.07237],[-0.06526,-3.73751],[-0.42279,0.96301]],[[172.78823,160.00248],[0.36095,-0.98974],[-0.013,0.63304]],[[172.76957,161.89942],[-0.00097,-0.63154],[0,0]],[[171.47152,164.14833],[1.29805,-0.63391],[-3.05489,11.20206]],[[172.14281,198.62029],[-3.20462,-10.90383],[1.03698,3.52836]],[[176.12618,210.19519],[-2.01122,-3.1315],[6.33544,9.86435]],[[202.5748,228.5257],[-10.46683,-4.07222],[19.90876,6.64938]],[[264.97447,235.82564],[-20.90603,1.35191],[4.77505,-0.30878]],[[279.41765,233.19778],[-4.65634,1.5635],[0.78323,-1.22135]],[[282.05244,232.20688],[-0.67958,-0.16912],[3.97742,-1.66812]],[[292.47533,224.89553],[-2.83471,3.28933],[14.41085,-12.90405]],[[310.59754,173.44005],[-0.02396,18.55303],[0.90508,-1.10045]],[[313.06978,168.15236],[-0.71756,2.19752],[0.98041,-1.06241]],[[315.2515,164.40332],[-0.4483,1.41118],[0.04104,0.48157]],[[315.36255,165.85088],[-0.03307,-0.48344],[1.64669,-4.70287]],[[317.49429,150.88583],[-0.96761,4.8638],[0,0]]],&quot;closed&quot;:true,&quot;fillColor&quot;:[0,0,0],&quot;strokeWidth&quot;:0.5}]}" fill="#66ecff" stroke-width="0.25"/><path d="M145.21585,257.8329c-2.92817,-3.43353 -2.92817,-8.07843 -2.92817,-8.07843l0.15904,-3.09588c0.90153,-5.40541 1.73999,-10.82135 2.55401,-16.24062c2.72119,-7.12924 5.66118,-14.55728 10.83518,-20.16627c24.30136,-26.34446 59.73762,-14.25966 90.07658,-7.10346c9.14381,2.1568 18.55429,4.98965 27.58468,6.92103c6.75107,1.44389 14.45281,1.82454 19.74209,6.26132c13.49812,11.32257 16.40519,33.16766 19.09731,49.35328c1.80582,14.51472 5.24126,28.70918 5.97951,43.38067c1.2041,23.92922 0.01453,48.25823 0.01453,72.21812c0,21.78517 1.91232,45.77265 -2.63827,67.17527c-2.1377,10.05413 -7.21901,19.92743 -11.49208,29.15394c-5.15919,4.40285 -8.82713,10.53547 -14.45594,14.31953c-7.89497,5.30754 -12.06485,3.51164 -20.44455,5.26779c-6.29294,1.31883 -12.00444,4.85084 -18.32864,6.01042c-8.23829,1.51052 -16.99763,-0.35881 -25.14909,-1.06327c-8.38125,-0.7243 -17.26044,1.29961 -25.56974,-0.1111c-3.97626,-0.67508 -7.61719,-2.67864 -11.51444,-3.71681c-16.7763,-4.46889 -36.01264,-4.42258 -48.34158,-19.01272c-6.9414,-8.21451 -10.81449,-20.31125 -14.36208,-30.17352c-0.36261,-17.65439 -2.12023,-36.70875 -0.07459,-54.20404c0.88521,-7.57083 3.58243,-14.8386 4.70669,-22.37764c2.58272,-17.3189 4.08378,-34.71379 7.08813,-51.93812c0.80181,-4.59693 2.86269,-8.93842 3.44646,-13.56811c1.1639,-9.23047 0.26506,-18.62515 1.14162,-27.88732c0.67022,-7.08174 1.86396,-14.20191 2.87333,-21.3241z" fill="#000000" stroke-width="0.5"/><path d="M93.21258,53.34246c2.66437,-3.55682 4.65919,-7.80525 8.22517,-10.43073c3.33433,-2.45495 7.79473,-2.80412 11.74759,-4.03669c17.42181,-5.43242 36.78609,-4.14546 53.05974,3.80528c22.15883,18.36882 34.56855,43.12814 34.64964,72.02287c0.02045,7.28804 0.22361,18.1632 -1.69253,24.58001c-1.40239,4.69635 -4.50196,8.71036 -6.92048,12.97336c-8.15095,14.36738 -19.98609,32.96863 -34.03752,42.54283c-3.57758,2.43765 -7.96037,3.4265 -11.796,5.43374c-4.57059,2.39186 -8.52961,6.03729 -13.39581,7.74943c-7.5785,2.66646 -25.2702,3.24652 -33.43373,1.47557c-4.99471,-1.08354 -9.50738,-4.02399 -14.55635,-4.81708c-5.00946,-2.06517 -10.39878,-3.38012 -15.02838,-6.19553c-26.62813,-16.19346 -27.7688,-57.1348 -21.42411,-83.89526c1.89708,-8.00138 4.09052,-16.7546 8.12765,-24.0943c2.7831,-5.05977 12.92083,-20.74898 17.57019,-25.34623c5.28541,-5.22616 11.92771,-8.86257 18.90491,-11.76728z" fill="#000000" stroke-width="0.5"/><path d="M326.05292,58.86094c26.45732,1.28402 53.16809,13.68549 75.03344,26.94833c3.18918,3.73478 7.00589,7.0142 9.56758,11.20433c6.35915,10.40165 6.15018,22.67594 8.43554,34.14205c6.58679,33.04742 -2.52882,74.1655 -35.78781,90.39862c-7.38734,3.60562 -20.40638,4.22875 -28.02465,4.64745c-21.86484,1.20177 -41.74693,-1.83559 -60.50425,-13.38985c-15.31031,-9.04046 -21.79142,-21.02973 -30.9548,-35.59466c-2.44532,-3.88676 -6.39563,-6.92257 -7.97059,-11.23604c-5.01034,-13.7221 -1.22004,-16.78068 1.87497,-29.44499c4.9534,-20.26852 8.92402,-40.82115 18.35289,-59.63283c1.92585,-3.84228 2.66673,-8.57741 5.80661,-11.51224c8.28937,-7.74799 23.24781,-11.42207 34.15557,-11.69917c0,0 6.78448,0 10.01556,5.16897z" fill="#000000" stroke-width="0.5"/><path d="M50.34932,411.06818c-1.09913,-1.90785 -1.82428,-3.96817 -2.29909,-6.10304c-0.53887,-2.04179 -0.82591,-4.18585 -0.82591,-6.39696c0,-0.22105 0.00287,-0.44142 0.00857,-0.66109c-0.07946,-2.2169 -0.04044,-4.42436 -0.00857,-6.54323c0.09199,-6.11539 4.01181,-10.96702 4.5027,-16.88413c0.61645,-7.43062 2.35689,-14.6637 2.70162,-22.10708c0.32965,-7.1178 0.24194,-14.21072 1.1518,-21.27836c1.26461,-9.82326 1.98273,-18.83339 3.65305,-28.4852c0.58671,-3.39028 0.48402,-6.86589 0.59839,-10.30466c0.10522,-3.16364 0.78717,-3.8304 0.3828,-3.85551c-3.22924,-0.2005 -12.5286,1.2346 -16.4084,1.64624c-8.77346,0.93085 -18.80211,-0.48903 -26.88877,-4.24735c-5.70437,-2.65114 -9.39217,-5.69334 -14.62383,-9.11299c-9.28485,-6.06901 -17.87887,-10.73632 -24.71492,-20.09261c-7.50984,-10.27847 -9.62315,-24.74248 -13.12539,-36.59049c-2.29695,-7.77056 -5.37012,-15.661 -6.94293,-23.5973c-5.64427,-28.4806 -7.99238,-60.43195 -0.49425,-88.52037c3.25792,-12.20436 11.00783,-23.124 17.17875,-33.88761c2.3264,-4.05781 4.10689,-8.42778 6.62233,-12.3712c1.42944,-2.24092 2.91098,-3.08528 4.43842,-5.02989c6.01831,-7.66199 11.24206,-16.00198 17.09557,-23.81885c8.96129,-11.96704 23.11908,-26.44447 36.77212,-33.69595c8.6194,-4.57798 18.16533,-5.78719 27.72207,-6.49092c4.23263,-0.31168 8.31569,-1.75211 12.58318,-1.80108c14.35137,-0.16467 27.24159,1.20752 41.48443,1.80108c16.0505,0.6689 31.7014,2.159 47.46897,5.34437c5.0542,1.02105 19.53333,6.51005 25.21604,8.54611c9.57942,3.43222 16.9414,10.58789 25.96747,14.75203c0.53953,0.24891 0.94199,-0.72913 1.452,-1.034c3.62691,-2.16805 7.68797,-4.63519 11.83923,-5.93418c8.96762,-2.8061 17.4005,-6.59482 25.78476,-10.81463c4.57746,-2.30384 8.35753,-4.92587 13.56935,-6.10573c19.81571,-4.48591 38.10242,-9.25814 58.77163,-7.19122c3.02409,0.30241 5.85232,1.49635 8.80563,2.10964c11.32446,2.35166 22.17819,5.39055 33.34197,8.32267c6.989,1.83563 11.66311,2.51418 18.58684,4.99489c3.61619,1.29565 6.84601,3.4721 10.19908,5.26889c4.10466,2.19954 8.65277,3.71848 12.67259,6.05511c5.76214,3.3494 15.78767,12.10601 19.84101,17.20497c8.12529,10.22133 14.15372,22.34278 19.8691,33.98179c1.76709,3.59856 4.70343,6.47123 6.05066,10.41069c2.45201,7.16997 3.20445,14.95765 5.2145,22.25741c4.62459,16.79485 8.63941,33.7057 9.73267,51.26597c0.84466,13.56713 1.68964,28.81865 -1.98764,42.3786c-2.87573,10.60424 -9.37487,18.40178 -15.56453,27.06814c-5.96038,8.34534 -13.48348,13.50354 -21.30146,19.28642c-6.99777,5.17617 -13.89822,10.84859 -22.21247,13.97721c-7.58311,2.85349 -14.71281,7.35231 -22.55473,9.54188c-1.83943,0.51359 -3.72451,0.85616 -5.55829,1.38957c-0.71791,0.20883 -2.07978,0.08537 -2.08257,0.83303c-0.02107,5.64208 1.16077,11.22896 2.01669,16.80578c2.18707,14.25 4.75967,28.43819 7.11035,42.66212c1.05184,6.36466 2.11474,12.93201 2.14123,19.41916c0.04658,11.40675 0.04933,22.81379 0,34.22053c-0.05121,11.84159 -2.8691,24.29818 -6.64753,35.40649c-2.10113,6.17717 -2.22666,10.46116 -9.30258,14.50455c-4.33302,2.47601 -9.46343,3.81308 -14.45312,3.90625c-4.34479,0.08113 -8.28908,-2.74709 -12.58509,-3.40138c-0.76185,-0.11603 -1.23489,1.01351 -1.98687,1.18206c-0.39386,0.08828 -0.79781,0.03536 -1.20369,-0.03443c-0.99225,0.48354 -2.06737,0.89455 -3.23549,1.22308c-4.80417,1.35117 -10.12744,1.49461 -14.969,0.28422c-4.84156,-1.21039 -9.47106,-3.84202 -13.07419,-7.29502c-0.92758,-0.88893 -1.73614,-1.80821 -2.43579,-2.75465c-1.16539,-0.42711 -2.3135,-0.9999 -3.43739,-1.74916c-8.73464,-5.82309 -13.50958,-15.37297 -12.92727,-25.85454c0.24276,-4.36966 3.45044,-8.07744 5.7337,-11.81102c0.65741,-1.07499 0.21468,-4.04534 0.41823,-4.98122c1.03961,-4.77992 1.71783,-11.44661 2.28339,-16.40992c0.30549,-2.68094 0.87923,-5.95759 0.90054,-8.59898c0.21032,-26.07146 4.59034,-69.20554 -6.47026,-98.23963c-1.77212,-4.65181 -1.68044,-11.23271 -4.86056,-15.17815c-2.70309,-3.35362 -4.66369,-7.81018 -8.40281,-10.06114c-1.67125,-1.0061 -4.33892,-1.36883 -6.19132,-2.19921c-3.78235,-1.69554 -7.21097,-3.66384 -11.16001,-5.02223c-4.50832,-1.55078 -10.04468,-1.56026 -14.76507,-2.91737c-18.05976,-5.19218 -40.32308,-5.10196 -59.18857,0.44704c-1.91403,3.6373 -4.68205,6.78599 -7.84813,9.5651c-1.01275,4.15089 -3.0873,7.83965 -4.63172,11.80383c-1.1243,2.88583 -1.31897,6.14681 -2.64281,9.0023c-7.34003,15.83231 -14.33727,34.50036 -19.31736,51.40036c-1.80257,6.11705 -6.21909,17.53656 -6.24242,23.22582c-0.00987,2.40782 -0.03085,4.8159 -0.0553,7.22407c0.02068,0.40664 0.03909,0.81218 0.0553,1.21642c0.17047,4.25061 2.67851,8.36688 1.80108,12.79646c0,3.42855 -0.69017,6.6959 -1.93916,9.67071c0.02934,2.01859 0.07387,4.03693 0.13808,6.05493c0.29402,9.24005 2.31426,28.8543 2.67072,37.0528c0.02052,0.41541 0.0309,0.83348 0.0309,1.25398c0,4.49436 -1.18596,8.71172 -3.26201,12.35621c-1.27817,2.91838 -3.17395,5.58251 -6.38225,8.08983c-3.01136,2.35341 -6.84699,3.55247 -10.74029,4.12878c-1.54538,0.22876 -3.09984,0.3594 -4.61545,0.42518c-6.8387,0.29679 -12.35463,-2.07176 -16.47072,-6.0123c-3.60668,1.54664 -7.56831,2.41014 -11.44603,2.41014c-6.85615,0 -12.21337,-2.22773 -16.23138,-5.83829c-4.5465,4.71006 -10.92574,7.63937 -17.98916,7.63937c-4.98998,0 -9.6385,-1.46195 -13.54062,-3.98091c-3.10186,-1.54571 -5.69746,-3.94195 -8.33438,-8.51909zM307.09928,180.23709l1.25887,1.25887l0.14593,0.08756l2.64279,1.05712l0.92303,0.48075l0.97254,0.37049l3.81412,1.90706l6.41934,2.13978l0.94967,0.42571l0.99262,0.31274l1.58724,0.68025h19.73734l5.95415,-0.59542l5.43907,-1.35977l1.66095,-0.24307l1.64165,-0.35046l7.02659,-0.78073l6.08256,-1.21651l4.91537,-1.78741l1.84164,-1.31546l2.18976,-2.18976l2.85472,-4.28208l0.0184,-0.11038l0.10587,-0.39038l0.03947,-0.40255l0.90054,-4.5027l0.17459,-0.57032l0.08637,-0.59016l0.1541,-0.61641v-30.26674l-0.60817,-4.25721l-1.7533,-10.51978l-0.13494,-2.05789l-0.20521,-2.05208v-2.20316l-1.86338,-3.72676l-1.18734,-3.11676l-0.08434,-0.16472l-0.05333,-0.19666l-0.07254,-0.19041l-0.02868,-0.18282l-0.87295,-3.219l-0.22151,-1.32905l-0.79566,-0.65358l-1.9066,-1.55994l-4.60136,-4.60136l-0.90824,-0.75686l-0.92815,-0.30938l-3.58227,-1.60584l-0.0704,-0.05131l-0.08226,-0.02868l-3.35937,-2.03125l-3.04703,-2.28528l-7.44345,-4.9623l-4.92872,-1.64291l-2.11117,-0.94639l-2.12421,-0.91676l-6.48111,-3.60062l-5.46509,-2.04941l-0.2446,-0.12071l-0.26208,-0.0756l-2.75931,-1.10372l-1.35444,0.3907l-0.8216,0.05963l-0.78498,0.24977l-3.90625,0.39063h-0.40208l-0.1246,0.0623l-2.27239,0.86567l-0.25126,0.13905l-0.57902,0.17725l-0.56588,0.21557l-0.2837,0.0445l-2.32519,0.71179l-0.25645,0.05129l-0.78946,0.47368l-1.5318,0.72255l-1.48261,0.81875l-4.74427,2.03326l-6.69437,4.01662l-4.93694,3.52639l-2.13584,1.70867l-2.89159,3.37353l-4.56585,6.84878l-0.95722,1.16531l-0.86262,1.23697l-3.40034,3.96706l-1.89725,3.7945l-1.10972,2.58936l-0.09279,0.64953l10.97722,2.96682l7.42188,8.59375l2.73438,8.59375l0.12904,1.29041l1.10076,3.85267l0.41615,2.30483l0.44308,2.2998l0.90054,9.90594l-0.00219,0.24287l0.04133,0.23934l0.81691,11.43667l0.99009,5.94054zM149.40876,135.71798c2.39082,-3.44252 5.00614,-6.16684 7.84576,-8.15984l0.42802,-0.74904l0.50024,-0.70246l0.40459,-0.76157l1.74505,-2.61758l1.26053,-3.78158v-11.19605l-0.51816,-1.1559l-0.90054,-2.70162l-0.21172,-0.93761l-0.32118,-0.89471l-0.78951,-1.31584l-1.67479,-3.55056l-0.29177,-1.23295l-0.53095,-1.15039l-0.87212,-3.82763l-0.25199,-2.01594l-0.12992,-0.549l0.03564,-0.20522l-0.24334,-1.94668l-0.63672,-1.19854l-0.83011,-1.31434l-0.02332,-0.04663l-2.96658,-4.15321l-3.17655,-3.97069l-0.59046,-0.91099l-0.68908,-0.83888l-5.40324,-8.10486l-0.72932,-1.37283l-0.83011,-1.31434l-0.22664,-0.45328l-3.59498,0.51357l-1.77138,0.07485l-1.76416,0.17642h-2.43364l-5.05753,0.84292l-2.04092,1.02046l-3.66855,1.39754l-0.08606,0.0135l-0.07845,0.03789l-3.81175,0.93913l-4.07219,0.58174l-1.57915,0.52638l-0.21446,0.10723l-0.47891,0.41361l-0.95783,0.30476l-0.36183,0.18092l-3.42055,1.30306l-1.22534,1.00255l-1.65006,0.85348l-1.5013,1.09417l-3.58227,1.60584l-0.38378,0.12793l-0.89279,0.46179l-0.63111,0.04618l-2.50906,0.83635l-2.59346,1.11148l-4.80684,3.60513l-0.90938,0.54986l-0.84065,0.6501l-5.61105,3.50691l-4.14827,3.55566l-6.52541,6.52541l-0.87808,0.71843l-0.79498,0.80943l-3.15993,2.63328l-2.29861,3.06482l-1.79947,3.59894l-0.45642,1.36927l-0.40044,3.20353v15.1778l1.05464,4.21857l0.21836,1.49216l0.33502,1.47037l0.66139,5.29109l1.27139,4.44985l0.30287,1.67743l0.40777,1.65506l0.51565,3.60954l1.746,4.65601l0.25811,0.97377l0.37176,0.93629l3.12703,10.94462l3.49772,0.94533l2.0706,2.39753h14.96681l3.6885,-1.58079l1.35292,-0.42626l1.31136,-0.54077l8.64267,-2.5928l6.60067,-2.20022l6.40922,-2.84854c0.32643,-0.55384 0.6736,-1.09399 1.04045,-1.61939c0.42289,-0.80431 0.91167,-1.56506 1.51355,-2.25203c0.75165,-0.85792 1.62218,-1.5898 2.54031,-2.27122c1.29462,-1.13318 2.70719,-2.13492 4.21691,-2.98439c1.18312,-0.9202 2.60637,-1.7424 4.1019,-1.8421c1.76721,-0.60823 3.62403,-1.02392 5.54539,-1.22201l3.68784,-2.10733l7.32556,-5.99364l3.62675,-3.62675c0.42979,-0.80202 0.83963,-1.50177 1.20018,-2.02092z" fill="#000000" stroke-width="0.5"/></g></g></svg>