<svg version="1.1" xmlns="http://www.w3.org/2000/svg" xmlns:xlink="http://www.w3.org/1999/xlink" width="813.76666" height="464.39907" viewBox="0,0,813.76666,464.39907"><g transform="translate(107.0993,50.50751)"><g data-paper-data="{&quot;isPaintingLayer&quot;:true}" fill-rule="nonzero" stroke-linejoin="miter" stroke-miterlimit="10" stroke-dasharray="" stroke-dashoffset="0" style="mix-blend-mode: normal"><path d="M-107.0993,410.50751v-461.01502h694.19863v461.01502z" data-paper-data="{&quot;index&quot;:null}" fill="#1a261e" stroke="none" stroke-width="0" stroke-linecap="butt"/><path d="M8.8328,413.89156l-25.53784,-69.88682l553.02011,10.48804l170.35229,30.5173z" data-paper-data="{&quot;index&quot;:null}" fill="#0e1410" stroke="none" stroke-width="0" stroke-linecap="butt"/><path d="M151.86505,353.5744v-314h230.8552v314z" fill="#000000" stroke="none" stroke-width="0" stroke-linecap="butt"/><g><path d="M274.13023,353.60318v-324h221v324z" fill="#151f19" stroke="none" stroke-width="0" stroke-linecap="butt"/><path d="M310.77752,344.43907v-295.30769" fill="none" stroke="#0e1410" stroke-width="5" stroke-linecap="round"/><path d="M348.85444,345.41029v-295.30769" fill="none" stroke="#0e1410" stroke-width="5" stroke-linecap="round"/><path d="M386.93137,50.1026v295.30769" fill="none" stroke="#0e1410" stroke-width="5" stroke-linecap="round"/><path d="M425.00829,50.1026v295.30769" fill="none" stroke="#0e1410" stroke-width="5" stroke-linecap="round"/><path d="M463.08521,345.41029v-295.30769" fill="none" stroke="#0e1410" stroke-width="5" stroke-linecap="round"/></g><g><path d="M31.45508,354.5744v-324h221v324z" fill="#151f19" stroke="none" stroke-width="0" stroke-linecap="butt"/><path d="M58.8716,50.1026v295.30769" fill="none" stroke="#0e1410" stroke-width="5" stroke-linecap="round"/><path d="M96.94852,345.41029v-295.30769" fill="none" stroke="#0e1410" stroke-width="5" stroke-linecap="round"/><path d="M135.02544,345.41029v-295.30769" fill="none" stroke="#0e1410" stroke-width="5" stroke-linecap="round"/><path d="M173.10237,345.41029v-295.30769" fill="none" stroke="#0e1410" stroke-width="5" stroke-linecap="round"/><path d="M211.17929,50.1026v295.30769" fill="none" stroke="#0e1410" stroke-width="5" stroke-linecap="round"/></g><text transform="translate(104.04324,195.7224) scale(0.51725,1.37995)" font-size="40" xml:space="preserve" fill="#ff0000" fill-rule="nonzero" stroke="none" stroke-width="1" stroke-linecap="butt" stroke-linejoin="miter" stroke-miterlimit="10" stroke-dasharray="" stroke-dashoffset="0" font-family="Serif" font-weight="normal" text-anchor="start" style="mix-blend-mode: normal"><tspan x="0" dy="0">EVIL</tspan></text></g></g></svg>