<svg version="1.1" xmlns="http://www.w3.org/2000/svg" xmlns:xlink="http://www.w3.org/1999/xlink" width="824.35236" height="461.01502" viewBox="0,0,824.35236,461.01502"><defs><linearGradient x1="92.52522" y1="194.64289" x2="401.3224" y2="194.64289" gradientUnits="userSpaceOnUse" id="color-1"><stop offset="0" stop-color="#000000"/><stop offset="1" stop-color="#1b271f"/></linearGradient></defs><g transform="translate(117.68499,41.87063)"><g data-paper-data="{&quot;isPaintingLayer&quot;:true}" fill-rule="nonzero" stroke="none" stroke-linecap="butt" stroke-linejoin="miter" stroke-miterlimit="10" stroke-dasharray="" stroke-dashoffset="0" style="mix-blend-mode: normal"><path d="M-117.68499,417.64289v-446h766.75514v446z" data-paper-data="{&quot;index&quot;:null}" fill="#000000" stroke-width="0"/><path d="M344.77747,419.14439v-461.01502h259.19863v461.01502z" data-paper-data="{&quot;index&quot;:null}" fill="#1a261e" stroke-width="0"/><path d="M92.52522,417.64289v-446h308.79718v446z" data-paper-data="{&quot;index&quot;:null}" fill="url(#color-1)" stroke-width="0"/><path d="M8.83281,413.89156l-68.53784,-97.88682l511.02011,2.48804l255.35229,66.5173z" data-paper-data="{&quot;index&quot;:null}" fill="#0e1410" stroke-width="0"/><g stroke-width="0"><g><path d="M27.39848,200.32416v-17.25863l295.40688,-0.98697l35.18693,-15.79155v17.25862l-33.15321,16.77852z" fill="#1e1e1e"/><path d="M26.08533,185.8967l40.14022,-19.32254l291.26876,0.78989l-40.14022,18.53265z" fill="#323232"/></g><path d="M27.50725,249.84391v-50.55447h19.56947v50.55447z" fill="#1e1e1e"/><path d="M63.48088,255.13331l-0.26402,-54.91085h19.56947l0.26402,54.91085z" fill="#161616"/><path d="M204.20582,254.69898l-0.26402,-54.91085h19.56947l0.26402,54.91085z" fill="#161616"/><path d="M172.62232,244.74402v-50.55447h19.56947v50.55447z" fill="#1e1e1e"/></g><g stroke-width="0"><path d="M195.93527,215.22822l40.14022,-19.32254l291.26876,0.78989l-40.14022,18.53265z" fill="#323232"/><path d="M195.73642,232.13205v-17.25862l295.40688,-0.98697l35.18693,-15.79155v17.25862l-33.15321,16.77853z" fill="#1e1e1e"/></g><g stroke-width="0"><path d="M24.50959,259.49305v-17.25862l295.40689,-0.98698l35.18693,-15.79155v17.25862l-33.15321,16.77853z" fill="#1e1e1e"/><path d="M23.35683,244.55973l40.14022,-19.32254l291.26876,0.78989l-40.14022,18.53265z" fill="#323232"/></g><g stroke-width="0"><path d="M-39.61757,371.21624v-98.16866l477.81764,-12.86174l1.07181,129.2512z" fill="#686868"/><path d="M425.56326,373.35986v-135.66113h59.07236v135.66113z" fill="#a5a5a5"/><path d="M-40.0136,272.28245l60.82149,-28.64938l466.62421,-7.10901l-60.82148,27.8595z" fill="#424242"/></g><text transform="translate(104.04324,195.7224) scale(0.51725,1.37995)" font-size="40" xml:space="preserve" fill="#ff0000" fill-rule="nonzero" stroke="none" stroke-width="1" stroke-linecap="butt" stroke-linejoin="miter" stroke-miterlimit="10" stroke-dasharray="" stroke-dashoffset="0" font-family="Serif" font-weight="normal" text-anchor="start" style="mix-blend-mode: normal"><tspan x="0" dy="0">EVIL</tspan></text></g></g></svg>