<svg version="1.1" xmlns="http://www.w3.org/2000/svg" xmlns:xlink="http://www.w3.org/1999/xlink" width="288.45692" height="384.45881" viewBox="0,0,288.45692,384.45881"><g transform="translate(-97.99864,-13.71216)"><g data-paper-data="{&quot;isPaintingLayer&quot;:true}" fill-rule="nonzero" stroke="none" stroke-linecap="butt" stroke-linejoin="miter" stroke-miterlimit="10" stroke-dasharray="" stroke-dashoffset="0" style="mix-blend-mode: normal"><path d="M317.72284,284.67022c0,7.24603 0.29084,13.32352 -1.96469,20.27962c-5.43935,13.04151 -19.64481,21.63572 -32.65478,25.65897c-8.50762,2.63094 -17.59018,4.60649 -26.29578,6.13639c-4.15839,0.73078 -8.44415,0.05256 -12.66627,0.05256c-14.8371,0 -28.72457,-1.62806 -43.44826,-3.46865c-8.63202,-1.30155 -19.22086,-5.11887 -26.58715,-10.07604c-0.74775,-0.5032 -7.52764,-7.49401 -8.14968,-8.04659c-3.69322,-3.28078 -5.43938,-2.88125 -7.91513,-8.28082c-2.48853,-5.42743 -0.81296,-11.17106 -0.33387,-16.64945c0.18997,-2.17233 -0.40858,-4.41817 0.08908,-6.54124c2.27157,-9.69078 9.44939,-18.10503 13.85663,-26.96261c-0.13117,-0.04359 -0.2623,-0.08729 -0.39337,-0.13112c-18.84776,-7.32655 -36.082,-15.64162 -47.35683,-33.44585c-3.61775,-5.71283 -5.36068,-14.22847 -7.2446,-20.62838c-6.25614,-21.25304 -6.56353,-45.38846 0.78376,-66.6348c0.73439,-20.7492 5.57776,-42.42199 -4.0689,-61.66949l-1.81728,-5.41946c0,0 -0.50287,-1.50865 0.06293,-2.95433c-1.05413,-0.6204 -2.6815,-2.06237 -1.77925,-4.76912c1.28725,-3.86176 5.14901,-2.57451 5.14901,-2.57451c8.86094,2.99447 15.58963,8.50923 24.71765,11.1038l0.57476,-0.06181c0.25639,-0.21926 0.4403,-0.33422 0.4403,-0.33422c12.77758,-7.98168 25.03142,-16.68912 37.56714,-25.04689c4.62917,-3.08633 9.20342,-7.15193 14.25261,-9.46507c3.88411,-1.77939 8.28412,-2.33343 12.06791,-4.31726c7.72679,-4.05116 15.025,-8.06724 23.68459,-9.82662l3.91148,-0.01651c0.67096,-0.09672 1.30687,0.00256 1.79854,0.1383c0.51004,0.1236 1.1348,0.35507 1.68596,0.7886c12.38781,7.25993 20.68146,19.31141 32.96149,27.17492l2.25364,1.10779c10.88123,-3.17828 21.00195,-9.4441 29.86629,-16.50559c10.67294,-8.50228 21.8682,-19.23661 36.05173,-19.57258h3.43265c0,0 0.76903,0 1.63857,0.33427c0.48661,-0.20801 1.07722,-0.33427 1.79406,-0.33427c4.07065,0 4.07065,4.07065 4.07065,4.07065c0,1.20302 0.01086,14.74794 -0.03936,15.15331c-0.9975,8.05334 -3.97178,15.76049 -5.97936,23.6516c12.68166,-0.14825 25.4718,-0.65306 37.93089,1.82777l3.81083,1.76822c1.20608,0.29048 1.90957,1.02305 2.31988,1.77881c0.49603,0.71008 0.83805,1.67569 0.54736,2.89682c-0.37212,7.12967 -3.91308,13.49139 -6.19904,20.31849c-2.85414,8.5239 -5.58061,17.47177 -8.06656,26.07362c-4.0415,13.98437 -1.81154,31.13602 -9.30174,43.92933c-3.57864,8.87601 -4.0973,18.25246 -4.73522,27.65712c-0.38656,5.69907 -1.71824,10.84057 -1.74543,16.58106l-1.83358,6.56081c0,0 -0.79146,2.77011 -3.37312,2.98367c-4.86561,15.03883 -12.72284,28.86978 -24.89298,39.8296c-4.34854,4.90316 -9.55124,8.70011 -15.26074,11.61675c6.1025,6.71676 6.78263,14.34437 6.78263,24.26049zM168.04593,281.18883c-0.70066,1.5092 -1.95902,2.79372 -2.32613,4.41664c-0.40255,1.77961 0.23235,3.65404 0.08908,5.47298c-0.30649,3.89108 -2.08225,8.62173 -0.33387,12.52795c1.22233,2.73095 3.74933,3.61205 5.81541,5.44973c2.58854,2.30237 4.40366,5.49529 7.29719,7.40027c6.36105,4.18787 15.72932,7.81222 23.18606,8.80346c14.3829,1.79773 27.88046,3.39661 42.36764,3.39661c3.78743,0 7.64075,0.75659 11.36219,0.05256c8.35898,-1.58136 16.99327,-3.36862 25.19376,-5.87784c10.06397,-3.07941 23.48371,-10.18328 27.41635,-20.68162c2.01359,-5.82801 1.46794,-11.32949 1.46794,-17.47937c0,-8.76498 0.15016,-15.13147 -6.73967,-20.79666c-8.53011,3.02117 -17.74146,4.52226 -26.68415,5.12105c-32.25687,2.15985 -65.53581,-0.63829 -96.65123,-9.76701c-3.53013,7.56308 -7.91742,14.32928 -11.46058,21.96124zM361.14454,122.56652c2.64783,-13.30947 6.99101,-27.03618 11.30147,-40.02229c1.70448,-5.13507 5.00696,-10.72697 5.67552,-16.11866l-0.04758,-0.02695c-13.50944,-2.7148 -27.53249,-1.63726 -41.25148,-1.63726c-1.41372,0 -2.33645,-0.49099 -2.93873,-1.13192c-0.64093,-0.60228 -1.13192,-1.52501 -1.13192,-2.93873c0,-0.19126 0.00899,-0.37354 0.02612,-0.54726l0.05293,-1.10924c1.83412,-9.1706 5.6581,-17.98309 6.82556,-27.22737c0.41597,-3.29387 0.22125,-6.62488 0.07345,-9.95346h-2.90742c-2.68023,-0.09745 -5.30254,1.08059 -7.7388,2.20207c-8.83236,4.06579 -15.55189,9.50424 -23.24856,15.60359c-9.85984,7.81357 -21.02321,14.60937 -33.11444,18.08041c0,0 -0.83624,0.23893 -1.8461,0.10937c-1.46384,0.29006 -2.80894,-0.38249 -2.80894,-0.38249l-3.80956,-1.93061c-5.73769,-3.68438 -6.98464,-4.24018 -12.51928,-8.964c-7.13733,-6.09172 -11.74429,-13.12465 -19.8327,-17.85855l-2.80853,-0.01431c-7.59094,1.48097 -14.1887,5.55484 -20.93969,9.05287c-3.75814,1.94728 -8.1014,2.5258 -11.96055,4.26431c-4.74681,2.13839 -9.03623,6.06103 -13.39111,8.96407c-12.60287,8.40129 -24.92649,17.14641 -37.76823,25.17671c0,0 -0.42177,0.26362 -1.0626,0.4591c-1.19557,1.01779 -2.81116,1.01779 -2.81116,1.01779l-3.69276,-0.15662c-5.24161,-1.50471 -8.00139,-2.00855 -12.93336,-4.68076c-1.42622,-0.77274 -2.66707,-1.54978 -3.858,-2.30296l0.21648,0.65375c7.04613,14.12511 6.90278,29.15287 5.92199,44.31388c0.18245,-0.35744 0.36558,-0.71456 0.5495,-1.07131c-0.19653,6.07832 -0.03309,12.16446 0.07317,18.25009c-0.68841,1.56803 -1.32591,3.15942 -1.91363,4.77098c-0.02117,1.03075 -0.03196,2.0604 -0.03038,3.08871c0,0 0,2.62964 -2.11356,3.66181c-4.97415,18.23985 -4.12492,38.37502 1.09303,56.12927c1.68847,5.74508 3.21117,13.74804 6.48596,18.84693c10.31574,16.06171 26.02249,23.21619 43.0652,29.84681c32.41661,10.82691 67.56239,14.08745 101.60281,11.88619c7.77502,-0.50277 15.93551,-1.73305 23.51724,-4.27884c1.2753,-1.98867 3.18359,-1.88881 4.29012,-1.61344c6.47627,-2.71613 12.35552,-6.54889 16.97116,-11.90477c23.46459,-21.01113 29.46864,-53.5737 29.50765,-83.78284c1.4737,-1.79182 2.85707,-5.0316 4.02545,-8.60973c1.59636,-1.72988 2.82246,-3.80664 3.5524,-6.10441c0.06682,0.78412 0.12697,1.56984 0.18082,2.357c2.68124,-7.65749 1.8955,-16.44745 3.47102,-24.36697z" fill="#000000" stroke-width="0.5"/><path d="M167.96588,281.17386c3.54316,-7.63196 7.94082,-14.42533 11.47095,-21.98841c31.11542,9.12872 64.53246,11.9249 96.78932,9.76504c8.94269,-0.59879 18.15956,-2.08984 26.68967,-5.11101c6.88983,5.66518 6.74646,12.0552 6.74646,20.82019c0,6.14988 0.54581,11.67107 -1.46778,17.49908c-3.93264,10.49835 -17.36532,17.63789 -27.42929,20.7173c-8.20048,2.50921 -16.86463,4.32358 -25.2236,5.90495c-3.72143,0.70403 -7.59679,-0.0447 -11.38422,-0.0447c-14.48717,0 -28.06195,-1.62492 -42.44485,-3.42265c-7.45674,-0.99124 -16.83994,-4.64036 -23.20099,-8.82822c-2.89353,-1.90498 -4.71197,-5.10891 -7.30051,-7.41128c-2.06608,-1.83769 -4.59439,-2.72611 -5.81673,-5.45706c-1.74838,-3.90623 0.02675,-8.65102 0.33324,-12.5421c0.14327,-1.81894 -0.49113,-3.69955 -0.08858,-5.47916c0.36711,-1.62292 1.62629,-2.91278 2.32694,-4.42198z" data-paper-data="{&quot;noHover&quot;:false,&quot;origItem&quot;:[&quot;Path&quot;,{&quot;applyMatrix&quot;:true,&quot;segments&quot;:[[[198.90219,248.3042],[0,0],[-0.43031,0.92688]],[[197.47359,251.01669],[0.22546,-0.99672],[-0.24723,1.09295]],[[197.5283,254.37794],[0.08799,-1.11711],[-0.18823,2.38972]],[[197.32325,262.07202],[-1.07377,-2.39902],[0.7507,1.67722]],[[200.8948,265.41899],[-1.26889,-1.12862],[1.58976,1.41401]],[[205.37639,269.96389],[-1.77707,-1.16995],[3.90666,2.57199]],[[219.61618,275.37056],[-4.57958,-0.60877],[8.8333,1.10408]],[[245.63639,277.4566],[-8.89734,0],[2.32606,0]],[[252.61451,277.48888],[-2.28553,0.43238],[5.13369,-0.9712]],[[268.08733,273.87899],[-5.03635,1.54104],[6.18082,-1.89123]],[[284.92516,261.17731],[-2.41524,6.44759],[1.23665,-3.57929]],[[285.8267,250.4423],[0,3.77697],[0,-5.38304]],[[281.68751,237.66997],[4.23141,3.47929],[-5.23879,1.85546]],[[265.29936,240.81508],[5.49218,-0.36775],[-19.81065,1.32648]],[[205.94072,234.81664],[19.10963,5.60643],[-2.16804,4.64489]],[[198.90217,248.3042],[2.17604,-4.68719],[0,0]]],&quot;closed&quot;:true,&quot;fillColor&quot;:[0,0,0],&quot;strokeWidth&quot;:0.5}]}" fill="#667eff" stroke-width="0.25"/><path d="M361.2248,122.55281c-1.57552,7.91953 -0.78873,16.7271 -3.46997,24.38459c-0.05385,-0.78717 -0.11393,-1.57464 -0.18075,-2.35876c-0.72995,2.29777 -1.95632,4.37932 -3.55268,6.10919c-1.16837,3.57813 -2.55265,6.82496 -4.02636,8.61678c-0.03901,30.20913 -6.07642,62.8243 -29.54101,83.83543c-4.61564,5.35588 -10.50652,9.19546 -16.98279,11.91159c-1.10653,-0.27537 -3.01752,-0.37399 -4.29282,1.61468c-7.58173,2.54578 -15.75704,3.78088 -23.53205,4.28366c-34.04043,2.20126 -69.25056,-1.07205 -101.66718,-11.89896c-17.04271,-6.63063 -32.77087,-13.80716 -43.08661,-29.86888c-3.27479,-5.09889 -4.80307,-13.11185 -6.49154,-18.85693c-5.21795,-17.75426 -6.0749,-37.92246 -1.10075,-56.16231c2.11356,-1.03217 2.11355,-3.66418 2.11355,-3.66418c-0.00158,-1.02831 0.00926,-2.05999 0.03043,-3.09074c0.58772,-1.61155 1.2254,-3.20617 1.91381,-4.7742c-0.10626,-6.08563 -0.26796,-12.18354 -0.07143,-18.26187c-0.18393,0.35675 -0.36722,0.71463 -0.54967,1.07206c0.98078,-15.16101 1.13241,-30.21094 -5.91372,-44.33605l-0.21635,-0.65397c1.19092,0.75318 2.43174,1.53029 3.85796,2.30303c4.93196,2.6722 7.69242,3.17486 12.93403,4.67957l3.69331,0.15566c0,0 1.61637,-0.0013 2.81194,-1.01909c0.64083,-0.19549 1.06293,-0.45964 1.06293,-0.45964c12.84174,-8.0303 25.18622,-16.79775 37.78909,-25.19905c4.35488,-2.90304 8.65416,-6.83186 13.40098,-8.97026c3.85915,-1.73851 8.21076,-2.32087 11.96889,-4.26815c6.75099,-3.49804 13.36439,-7.57632 20.95533,-9.05729l2.81047,0.01399c8.08841,4.7339 12.70988,11.76593 19.84721,17.85765c5.53463,4.72382 6.79344,5.28083 12.53113,8.96521l3.81333,1.93138c0,0 1.34768,0.67317 2.81151,0.38311c1.00986,0.12956 1.84768,-0.10895 1.84768,-0.10895c12.09122,-3.47104 23.27212,-10.25963 33.13196,-18.0732c7.69667,-6.09934 14.4224,-11.53397 23.25476,-15.59976c2.43627,-1.12148 5.06089,-2.2979 7.74112,-2.20045l2.90844,0.00077c0.1478,3.32858 0.34519,6.6617 -0.07078,9.95557c-1.16746,9.24428 -4.98529,18.06241 -6.81941,27.233l-0.05256,1.10961c-0.01713,0.17372 -0.02594,0.3562 -0.02594,0.54745c0,1.41372 0.49239,2.33794 1.13332,2.94021c0.60228,0.64093 1.52633,1.13338 2.94005,1.13338c13.71899,0 27.75115,-1.0649 41.26058,1.6499l0.04759,0.02696c-0.66856,5.39169 -3.96795,10.98941 -5.67243,16.12448c-4.31046,12.98611 -8.6468,26.73433 -11.29463,40.0438z" data-paper-data="{&quot;noHover&quot;:false,&quot;origItem&quot;:[&quot;Path&quot;,{&quot;applyMatrix&quot;:true,&quot;segments&quot;:[[[317.49428,150.88584],[0,0],[1.62617,-8.17405]],[[324.43511,126.30603],[-2.64728,7.97546],[1.04681,-3.15372]],[[327.92075,116.40671],[-0.4106,3.31132],[0,0]],[[327.89153,116.39016],[0,0],[-8.29686,-1.6673]],[[302.55681,115.38463],[8.42556,0],[-0.86824,0]],[[300.75198,114.68946],[0.36989,0.39363],[-0.39363,-0.36989]],[[300.05681,112.88463],[0,0.86824],[0,-0.11746]],[[300.07285,112.54853],[-0.01052,0.10669],[0,0]],[[300.10536,111.86729],[0,0],[1.12643,-5.63215]],[[304.2973,95.14552],[-0.717,5.6774],[0.25547,-2.02294]],[[304.34241,89.03257],[0.09077,2.04426],[0,0]],[[302.55681,89.03257],[0,0],[-1.64607,-0.05985]],[[297.804,90.38498],[1.49624,-0.68876],[-5.42442,2.49702]],[[283.52583,99.96797],[4.72693,-3.74593],[-6.05545,4.79873]],[[263.1885,111.07211],[7.42586,-2.13175],[0,0]],[[262.05471,111.13928],[0.62021,0.07957],[-0.89902,0.17814]],[260.32959,110.90437],[[257.98994,109.71868],[0,0],[-3.52382,-2.26277]],[[250.30119,104.21341],[3.39911,2.90115],[-4.38341,-3.74125]],[[238.12088,93.24553],[4.96752,2.90734],[0,0]],[[236.39601,93.23674],[0,0],[-4.662,0.90954]],[[223.53584,98.79659],[4.14614,-2.14833],[-2.30807,1.19593]],[[216.19023,101.41553],[2.37011,-1.06771],[-2.91527,1.3133]],[[207.96604,106.92084],[2.67456,-1.78291],[-7.74009,5.15968]],[[184.77057,122.38319],[7.88679,-4.93183],[0,0]],[[184.11797,122.66515],[0.39357,-0.12006],[-0.73426,0.62508]],[182.39149,123.29023],[[180.12357,123.19404],[0,0],[-3.21915,-0.92412]],[[172.18051,120.31934],[3.02898,1.64114],[-0.87592,-0.47458]],[[169.81111,118.90497],[0.73141,0.46257],[0,0]],[[169.94406,119.30647],[0,0],[4.3274,8.67498]],[[173.58107,146.52197],[0.60235,-9.31118],[0.11205,-0.21952]],[[173.91855,145.86402],[-0.11296,0.2191],[-0.1207,3.73302]],[[173.96349,157.07237],[-0.06526,-3.73751],[-0.42279,0.96301]],[[172.78823,160.00248],[0.36095,-0.98974],[-0.013,0.63304]],[[172.76957,161.89942],[-0.00097,-0.63154],[0,0]],[[171.47152,164.14833],[1.29805,-0.63391],[-3.05489,11.20206]],[[172.14281,198.62029],[-3.20462,-10.90383],[1.03698,3.52836]],[[176.12618,210.19519],[-2.01122,-3.1315],[6.33544,9.86435]],[[202.5748,228.5257],[-10.46683,-4.07222],[19.90876,6.64938]],[[264.97447,235.82564],[-20.90603,1.35191],[4.77505,-0.30878]],[[279.41765,233.19778],[-4.65634,1.5635],[0.78323,-1.22135]],[[282.05244,232.20688],[-0.67958,-0.16912],[3.97742,-1.66812]],[[292.47533,224.89553],[-2.83471,3.28933],[14.41085,-12.90405]],[[310.59754,173.44005],[-0.02396,18.55303],[0.90508,-1.10045]],[[313.06978,168.15236],[-0.71756,2.19752],[0.98041,-1.06241]],[[315.2515,164.40332],[-0.4483,1.41118],[0.04104,0.48157]],[[315.36255,165.85088],[-0.03307,-0.48344],[1.64669,-4.70287]],[[317.49429,150.88583],[-0.96761,4.8638],[0,0]]],&quot;closed&quot;:true,&quot;fillColor&quot;:[0,0,0],&quot;strokeWidth&quot;:0.5}]}" fill="#66ecff" stroke-width="0.25"/><path d="M187.152,232.59329c-1.73366,-2.03286 -1.73366,-4.78293 -1.73366,-4.78293l0.09416,-1.83295c0.53376,-3.20034 1.03018,-6.40691 1.51213,-9.61545c1.61111,-4.22095 3.35177,-8.61881 6.4151,-11.93968c14.38791,-15.59755 35.36837,-8.4426 53.33091,-4.20569c5.4137,1.27696 10.98529,2.95418 16.33184,4.09768c3.99705,0.85487 8.55696,1.08024 11.68854,3.70709c7.99172,6.70366 9.71289,19.63731 11.30679,29.2202c1.06916,8.59361 3.10315,16.99761 3.54024,25.68404c0.7129,14.16758 0.0086,28.57186 0.0086,42.7576c0,12.89817 1.13221,27.10024 -1.56202,39.77192c-1.26565,5.95267 -4.2741,11.79827 -6.80402,17.26094c-3.05456,2.60676 -5.22621,6.23765 -8.55881,8.47805c-4.67431,3.14239 -7.14314,2.07911 -12.10444,3.11886c-3.72581,0.78083 -7.10737,2.872 -10.85169,3.55854c-4.87758,0.89432 -10.06365,-0.21244 -14.88982,-0.62952c-4.96222,-0.42883 -10.21925,0.76945 -15.13887,-0.06578c-2.35419,-0.39969 -4.50985,-1.58592 -6.81726,-2.20058c-9.93261,-2.64586 -21.32171,-2.61844 -28.62121,-11.25671c-4.10974,-4.8635 -6.40285,-12.02552 -8.50324,-17.86459c-0.21469,-10.45249 -1.25531,-21.73385 -0.04416,-32.09215c0.5241,-4.4824 2.12102,-8.78537 2.78665,-13.24895c1.52913,-10.25386 2.41785,-20.55271 4.19661,-30.75058c0.47472,-2.72167 1.69489,-5.2921 2.04052,-8.03316c0.6891,-5.46501 0.15693,-11.02724 0.67591,-16.51102c0.39681,-4.19283 1.10358,-8.40841 1.70119,-12.62519z" fill="#000000" stroke-width="0.5"/><path d="M156.36284,111.52229c1.57747,-2.10586 2.75853,-4.62119 4.86981,-6.17564c1.97413,-1.45348 4.61496,-1.66021 6.9553,-2.38997c10.31479,-3.21633 21.77964,-2.45437 31.41465,2.25296c13.1194,10.87548 20.46672,25.53453 20.51473,42.642c0.01211,4.31497 0.13239,10.75374 -1.00208,14.55289c-0.8303,2.78053 -2.66544,5.15707 -4.09735,7.68103c-4.82587,8.50638 -11.833,19.51947 -20.15232,25.18799c-2.11815,1.44324 -4.71303,2.0287 -6.98396,3.21711c-2.70607,1.41613 -5.05006,3.57445 -7.93115,4.58814c-4.48694,1.57871 -14.96152,1.92214 -19.79484,0.87363c-2.95718,-0.64152 -5.62896,-2.38245 -8.61826,-2.85201c-2.96591,-1.22271 -6.15672,-2.00124 -8.89773,-3.66814c-15.7655,-9.58753 -16.44085,-33.82734 -12.6844,-49.67119c1.12319,-4.73731 2.42184,-9.91976 4.81207,-14.26532c1.64777,-2.9957 7.64993,-12.28468 10.40264,-15.00654c3.12929,-3.09421 7.06194,-5.24719 11.19288,-6.96696z" fill="#000000" stroke-width="0.5"/><path d="M294.21874,114.78957c15.66437,0.76022 31.4788,8.10266 44.42444,15.95508c1.88819,2.21122 4.14792,4.15284 5.6646,6.63366c3.76501,6.15842 3.64129,13.42556 4.99436,20.21421c3.89979,19.56612 -1.49722,43.91057 -21.1886,53.52158c-4.37376,2.13475 -12.08184,2.50368 -16.59233,2.75158c-12.94534,0.71152 -24.71677,-1.08678 -35.82226,-7.92762c-9.06465,-5.35251 -12.90187,-12.4509 -18.32716,-21.07424c-1.44778,-2.3012 -3.78661,-4.09859 -4.71908,-6.65243c-2.96643,-8.12433 -0.72234,-9.9352 1.1101,-17.43326c2.93272,-12.00022 5.28357,-24.16865 10.86605,-35.30633c1.14022,-2.27487 1.57887,-5.07836 3.43787,-6.81596c4.90782,-4.58729 13.76414,-6.76257 20.22221,-6.92663c0,0 4.01683,0 5.92983,3.06035z" fill="#000000" stroke-width="0.5"/><path d="M177.03095,235.35775l-1.57194,0.43579l-0.41144,0.26182l-2.70162,0.90054l-1.49441,0.11495l-0.27656,0.07667l-0.1342,-0.04507l-0.45891,0.0353l-2.30027,0.57507h-8.10486l-1.76159,-0.4404h-1.81581l-3.60216,-0.90054l-1.43329,-0.76442l-1.58571,-0.35238l-14.40865,-7.20432l-0.3182,-0.27275l-0.40345,-0.11347l-6.30378,-3.60216l-1.42241,-1.36314l-1.68937,-1.01362l-3.25451,-3.25451l-2.66603,-1.11084l-0.86574,-1.01003l-1.17378,-0.62602l-3.85688,-5.47789l-0.01098,-0.57808l-0.43032,-0.86063l-1.0646,-1.5969l-1.37023,-1.82697l-0.01795,-0.01264l-0.02085,-0.0391l-1.04695,-1.39593l-1.13419,-2.69371l-1.37541,-2.57889l-0.4232,-1.69281l-0.0172,-0.04084l0.00151,-0.0219l-0.06895,-0.27581l-1.07698,-2.15396l-0.13578,-0.61099l-0.36645,-0.5074l-1.80108,-4.5027l-0.37744,-2.7679l-0.67753,-2.71011v-0.88581l-0.46014,-1.84057v-0.77433l-0.29215,-0.7171l-0.90054,-6.30378l0.10924,-1.05601l-0.25749,-1.02995v-2.56265l-0.74611,-1.86528l-0.37744,-2.7679l-0.67753,-2.71011v-12.60756l0.67753,-2.71011l0.37744,-2.7679l1.6401,-4.10025l2.18938,-6.56813l0.02725,-0.37235l0.21796,-0.36327l0.12997,-0.3899l1.81955,-2.85929l1.7437,-2.90617l0.29062,-0.29062l0.22744,-0.35741l0.32086,-0.19089l0.17017,-0.17017l0.73063,-1.46126l1.54307,-1.80025l1.2199,-2.03317l1.80108,-1.80108l0.91036,-0.54621l0.66947,-0.82396l2.76356,-2.07267l2.86094,-2.86094l0.91036,-0.54621l0.66947,-0.82396l2.76356,-2.07267l1.82818,-1.82818l0.99092,-1.48638l2.14286,-1.94805l1.94805,-2.14286l1.48638,-0.99092l0.5382,-0.5382l0.37493,-0.5325l3.23246,-1.72398l3.14138,-1.88483l0.64952,-0.04753l0.80781,-0.20195l0.23517,-0.15678l1.82697,-1.37023l0.01264,-0.01795l0.0391,-0.02085l1.39593,-1.04695l2.69371,-1.13419l2.57889,-1.37541l0.1441,-0.03602l1.46155,-1.26225l1.83866,-0.45966l1.62516,-0.9751l3.21669,-0.23537l0.69449,-0.17362h0.88581l4.89317,-1.22329l2.16422,-0.72141l0.57665,-0.04436l0.51031,-0.27217l3.60216,-0.90054h1.81581l1.76159,-0.4404h9.90594l2.30027,0.57507l2.36408,0.18185l1.83044,0.61015l3.60223,0.72045l2.5901,1.22689l2.69902,0.96393l1.65646,1.10431l1.52824,0.38206l0.64952,0.04753l3.14138,1.88483l3.23246,1.72398l0.37493,0.5325l2.31184,2.31184l1.75618,1.11757l2.90617,1.7437l0.29062,0.29062l0.35741,0.22744l0.19089,0.32086l2.76324,2.76324l0.54621,0.91036l0.82396,0.66947l2.70162,3.60216l0.92011,2.18526l1.27297,2.00038l0.2759,0.82769l0.70539,1.05808l0.31348,0.87776l0.60657,0.70767l1.2705,2.541l0.24403,0.28256l0.10275,0.41099l0.1838,0.3676l0.73521,3.30844l0.82199,3.28796v0.41099l0.0919,0.41356l-0.0919,0.36186v1.195l0.23956,1.43739c3.98924,-9.85657 11.90821,-18.48989 21.63997,-22.41485c5.8228,-2.34842 12.43486,-3.46132 18.46938,-5.32818c6.02188,-1.86295 14.13855,-5.32632 20.47048,-5.32632c5.12848,0 10.25846,-0.04261 15.38518,0.0919c3.21966,0.08448 6.34686,1.56924 9.5654,1.80108c6.54738,0.47164 12.41064,0.42822 18.6953,2.35507c3.33859,1.0236 4.64891,4.34784 6.61593,6.60002c2.65126,3.03563 4.54816,6.2469 6.67863,9.63127c0.74672,1.1862 4.74082,3.63629 5.93406,5.02841c0.97054,1.13229 1.12787,3.24511 1.93384,4.38957c1.95396,2.77456 4.45215,5.03128 6.09503,8.06602c7.74096,14.29913 10.47607,34.20265 7.10406,49.98399c-1.10386,5.16617 -3.69034,11.4123 -6.38598,15.90503c-0.73874,1.23124 -1.92119,1.68742 -2.59023,3.24607c-2.90128,6.75909 -7.06499,12.77897 -12.1228,17.97516c-0.59305,0.60927 -0.72615,1.87905 -1.23824,2.47649c-2.91389,3.39954 -8.14851,8.18917 -11.98917,10.59156c-5.77267,3.61091 -11.79688,5.25431 -18.38989,6.71942c-1.92072,0.42683 -4.36245,0.72777 -6.30378,0.90054c-1.38165,0.12296 -3.96583,-1.37327 -4.16135,0c-1.62107,11.38619 -0.41153,23.05286 0.7523,34.49483c1.5192,14.93576 -1.74345,28.06212 -2.55338,42.62804c-0.20385,3.66608 0.11748,7.19548 -0.4404,10.76396c-0.79367,5.07676 -3.01891,9.91701 -3.51808,14.95812c-0.52305,5.2823 -0.08004,11.56709 -1.3652,16.70774c-4.42364,17.69454 -15.53412,31.88231 -33.57925,36.3844c-20.07103,5.00754 -26.97558,-1.79745 -43.7078,-2.84524c-4.98656,-0.31226 -9.99438,0.13132 -14.98898,0c-5.61406,-0.1476 -12.03771,-2.37252 -17.60946,-3.27669c-2.87583,-0.46668 -5.99288,-0.02888 -8.81523,-0.73446c-2.02592,-0.50648 -3.54277,-2.12077 -5.29225,-3.01386c-2.24578,-1.14645 -5.15367,-1.19141 -7.29891,-2.63705c-4.93201,-3.3236 -6.83628,-7.22283 -9.97627,-12.20726c-9.48671,-15.05924 -9.11403,-30.71667 -7.82579,-48.84359c0.74556,-10.49077 0.43999,-25.5531 3.4991,-35.96697c4.71141,-16.03867 13.71777,-30.33714 20.01642,-45.70631l0.2977,-1.33963l0.1838,-0.3676l0.06008,-0.24032v-0.90054l0.57507,-2.30027l0.1102,-1.43262zM236.46401,177.03527l-0.57507,2.30027l-0.14316,1.86107h2.79262l0.36186,-0.0919l0.2638,0.05862c-0.94866,-1.89392 -1.87363,-3.80303 -2.70006,-5.74754zM210.8666,232.61264c-1.11194,2.45475 -2.15352,4.9487 -3.00253,7.50631c-0.94658,2.85158 -1.40487,6.4176 -2.67509,9.25216c-0.06924,0.15452 -0.13851,0.30907 -0.20782,0.46366l-0.03607,0.14426v3.60216l-1.84375,7.375l-0.10468,0.12121c-0.08733,0.61479 -0.21257,1.21738 -0.37327,1.80532l-0.82032,3.28127l-0.27217,0.51031l-0.04436,0.57665l-0.14362,0.43086v0.30803l-0.17362,0.69449l-0.23537,3.21669l-0.9751,1.62516l-0.45966,1.83866l-0.63276,0.73267l-0.08149,1.05939l-1.0098,3.02941l0.08043,0.41109l-1.03309,3.67321l-0.92545,3.70179l-0.39074,0.45244l-1.50763,2.63835l-0.21635,0.86541l0.06988,1.46746l-0.61411,3.07053v17.45081l-0.35631,1.42526l0.06988,1.46746l-0.61411,3.07053v4.55737l0.0919,0.36186l-0.0919,0.41356v0.41099l-0.82199,3.28796l-0.07855,0.35348v10.75248l0.46014,1.84057v1.81581l0.4404,1.76159v2.10911l0.71267,2.13802l0.92161,1.84322l0.48154,0.72231l1.66886,1.66886l1.2199,2.03317l0.6482,0.75624l1.50279,0.7514l0.70767,0.60657l0.87776,0.31348l0.33654,0.22436h1.38757l2.71011,0.67753l2.7679,0.37744l1.86528,0.74611h24.03665l1.86528,-0.74611l1.7533,-0.23909l1.63875,-0.66764l4.71005,-0.67286l0.81642,-0.51954l2.70162,-0.90054l0.57665,-0.04436l0.51031,-0.27217l3.60216,-0.90054h1.81581l1.76159,-0.4404h0.96307l0.86277,-0.46014l3.0526,-0.76315l0.9741,-0.3247l1.56912,-1.17684l0.0271,-0.0271l0.99092,-1.48638l1.08706,-0.98824l0.75586,-1.25976l0.76832,-0.76832l0.99092,-1.48638l0.29166,-0.26514l0.58936,-2.65213l0.1838,-0.3676l0.10275,-0.41099l0.24403,-0.28256l0.33662,-0.67325l0.1336,-1.73679l0.14362,-0.43086v-37.84485l-0.0919,-0.36186l0.0919,-0.41356v-0.41099l0.82199,-3.28796l0.07855,-0.35348v-71.60814l-0.40378,-0.30284l-0.66947,-0.82396l-0.91036,-0.54621l-0.1978,-0.1978l-0.22152,0.01528l-2.69471,-1.13462l-2.83654,-0.70913l-1.09628,-0.94679l-0.37872,-0.15946l-1.68728,-1.26546l-3.13248,-1.04416l-1.66212,-1.05771l-1.85535,-0.66262l-1.05808,-0.70539l-0.29029,-0.09676l-3.0526,-0.76315l-1.92465,-1.02648l-2.08676,-0.6351l-2.36081,-1.41649l-0.03231,0.00821l-0.41356,-0.0919h-0.41099l-3.28796,-0.82199l-0.35348,-0.07855h-3.27702l-0.36186,0.0919l-0.41356,-0.0919h-0.41099l-3.28796,-0.82199l-0.35348,-0.07855h-7.47307l-0.43086,0.14362l-2.02358,0.15566l-0.85259,0.45471c-1.24135,7.8678 -5.57325,16.41185 -8.1329,22.06257zM288.64661,194.46084l0.3676,0.1838l0.41099,0.10275l0.28256,0.24403l1.60342,0.80171l1.16976,0.38992l3.0526,0.76315l2.22726,1.18787l2.37717,0.84899l0.57581,0.38388l0.78303,0.19576l2.72635,0.54527h12.03284l1.29101,-0.32275l2.16422,-0.72141l0.10016,-0.0077l0.88507,-0.97358l1.48638,-0.99092l0.92764,-0.92764l1.27467,-1.69956l0.73749,-1.47498l0.38992,-1.16976l0.76315,-3.0526l0.27217,-0.51031l0.04436,-0.57665l1.51069,-4.53206l0.72045,-3.60223l0.84338,-1.78048l0.42738,-1.92321l0.24388,-0.48776v-20.0522l-0.24388,-0.48776l-0.2303,-1.03637l-0.56997,-0.89567l-0.56905,-1.70716l-1.33229,-2.66458l-0.35238,-1.58571l-0.76442,-1.43329l-0.22046,-0.88185l-0.34509,-0.57514l-1.81955,-2.85929l-0.06865,-0.20594l-0.52822,-0.66028l-2.21996,-1.47997l-1.45103,-0.58041l-0.05889,-0.00431l-0.09623,-0.05774l-1.47059,-0.58824l-2.40643,-1.73797l-1.63284,-0.9797l-0.57976,-0.11595l-0.32503,-0.15396h-0.35965l-3.60216,-0.90054l-0.51031,-0.27217l-0.57665,-0.04436l-2.16422,-0.72141l-1.29101,-0.32275h-9.87649l-3.5565,0.88913l-14.51012,8.06118l-0.31736,0.08514l-0.24948,0.21384l-5.06343,2.53171l-1.00909,1.00909l-1.25976,0.75586l-0.11139,0.12252l-0.81538,1.93652l-0.59192,3.55149l2.96589,3.70736l0.90521,1.97499l1.27201,1.76125l0.35686,0.89214l1.46615,1.17292l1.37712,1.80747l1.68137,1.52852l1.80108,2.70162l0.12374,0.34647l2.67339,2.29148l0.22993,0.55183l0.00636,0.00954l1.42745,0.85647l2.70162,2.70162l1.2199,2.03317l1.54307,1.80025l0.90054,1.80108l0.16636,0.74862l0.08131,0.13551l0.02513,0.34346l1.3763,6.19335l-1.6491,6.49333l-1.22877,1.09437zM156.53462,186.96132l0.64952,0.04753l3.14138,1.88483l2.45314,1.30834h5.99761l0.18253,-0.18253l2.03317,-1.2199l1.80025,-1.54307l1.2082,-0.6041l1.69307,-2.25742l1.45196,-1.17972l1.13379,-1.4881l3.86479,-3.09183l1.38274,-1.38274l2.07267,-2.76356l0.82396,-0.66947l0.54621,-0.91036l1.80108,-1.80108l1.25976,-0.75586l0.98824,-1.08706l0.24707,-0.16472l1.9658,-2.94869l0.93673,-0.85157l0.04455,-0.13366l0.38433,-0.60395l1.2405,-2.97719l0.98051,-0.84044l0.0248,-0.05235l0.07149,-0.92931l1.9447,-5.8341v-0.30803l0.17362,-0.69449l0.23537,-3.21669l0.9751,-1.62516l0.41699,-1.66798v-15.82238l-0.14362,-0.22569l-0.56905,-1.70716l-0.39517,-0.79034l-0.05595,-0.04796l-1.33711,-0.55713l-1.90281,-2.21994l-2.21994,-1.90281l-0.00409,-0.00982l-2.11107,-0.84443l-0.5074,-0.36645l-0.61099,-0.13578l-2.15396,-1.07698l-2.03136,-0.50784l-1.43329,-0.76442l-0.35811,-0.07958l-0.34346,-0.02513l-0.13551,-0.08131l-0.74862,-0.16636l-1.80108,-0.90054l-0.28453,-0.24388h-2.54166l-0.9994,0.59964l-2.41486,0.73496l-2.28124,1.08059l-1.99741,0.39948l-2.31189,1.38713l-0.55329,0.16839l-0.43912,0.37639l-2.41257,1.20628l-1.69956,1.27467l-1.05986,1.05986l-1.25976,0.75586l-0.98824,1.08706l-1.2469,0.83127l-0.9245,1.01695l-1.50191,2.36014l-1.40189,0.83403l-0.32805,0.36085l-1.48638,0.99092l-1.53665,1.53665l-0.99092,1.48638l-1.84791,1.67992l-1.57483,1.93825l-2.20486,1.65365v27.7261l1.66857,1.33486l1.37712,1.80747l1.68137,1.52852l1.80108,2.70162l2.55682,7.1591l-0.17677,1.41413z" fill="#000000" stroke-width="0.5"/></g></g></svg>