<svg version="1.1" xmlns="http://www.w3.org/2000/svg" xmlns:xlink="http://www.w3.org/1999/xlink" width="306.5" height="186.29162" viewBox="0,0,306.5,186.29162"><g transform="translate(-78,-79.71626)"><g data-paper-data="{&quot;isPaintingLayer&quot;:true}" fill-rule="nonzero" stroke-linecap="butt" stroke-linejoin="miter" stroke-miterlimit="10" stroke-dasharray="" stroke-dashoffset="0" style="mix-blend-mode: normal"><text transform="translate(78.75,244.83145) scale(0.5,0.5)" font-size="40" xml:space="preserve" fill="#ffffff" fill-rule="nonzero" stroke="none" stroke-width="1" stroke-linecap="butt" stroke-linejoin="miter" stroke-miterlimit="10" stroke-dasharray="" stroke-dashoffset="0" font-family="Pixel" font-weight="normal" text-anchor="start" style="mix-blend-mode: normal"><tspan x="0" dy="0">freddy: same as 8nac charles</tspan></text><text transform="translate(111.066,262.44523) scale(0.3393,0.3393)" font-size="40" xml:space="preserve" fill="#ffffff" fill-rule="nonzero" stroke="none" stroke-width="1" stroke-linecap="butt" stroke-linejoin="miter" stroke-miterlimit="10" stroke-dasharray="" stroke-dashoffset="0" font-family="Pixel" font-weight="normal" text-anchor="start" style="mix-blend-mode: normal"><tspan x="0" dy="0">look at him</tspan></text><path d="M197.79121,198.15029v-115.93403h87.41058v115.93403z" fill="none" stroke="#ffffff" stroke-width="5"/><path d="M233.77148,150.06176l0.12009,-2.18747l1.16676,-3.03358c0.3459,-0.96595 1.26941,-1.65702 2.35431,-1.65702c1.0731,0 1.98829,0.67611 2.34282,1.62559l0.92854,2.32136l-0.38314,0.15326l0.56188,0.79308c-0.56696,1.45005 -0.78214,3.09316 -1.70088,4.35014c-2.51387,3.43933 -6.01981,2.59525 -9.63393,2.87549c0,0 -2.49264,0.19174 -2.68438,-2.30089c-0.19174,-2.49264 2.30089,-2.68438 2.30089,-2.68438c1.89859,-0.14494 3.40386,0.14299 4.62702,-0.25557z" fill="#ffffff" stroke="none" stroke-width="0.5"/><path d="M254.15359,149.83816v-0.35378c0.22505,-2.1318 -0.27982,-10.22496 6.62474,-5.7918c1.65566,1.06304 1.02036,3.94286 0.6224,5.86974c-0.98306,4.75986 -5.04404,4.44806 -8.60265,5.42202c0,0 -2.41191,0.65779 -3.0697,-1.75412c-0.65779,-2.41191 1.75412,-3.0697 1.75412,-3.0697c0.85184,-0.23156 1.78296,-0.22162 2.6711,-0.32236z" fill="#ffffff" stroke="none" stroke-width="0.5"/></g></g></svg>