<svg version="1.1" xmlns="http://www.w3.org/2000/svg" xmlns:xlink="http://www.w3.org/1999/xlink" width="87.41057" height="115.93403" viewBox="0,0,87.41057,115.93403"><defs><linearGradient x1="56.39343" y1="116.45677" x2="56.39343" y2="180.2291" gradientUnits="userSpaceOnUse" id="color-1"><stop offset="0" stop-color="#000000"/><stop offset="1" stop-color="#764d27"/></linearGradient><linearGradient x1="39.15311" y1="109.16541" x2="39.15311" y2="157.89752" gradientUnits="userSpaceOnUse" id="color-2"><stop offset="0" stop-color="#000000"/><stop offset="1" stop-color="#3e270d"/></linearGradient></defs><g transform="translate(-9.07412,-82.21627)"><g data-paper-data="{&quot;isPaintingLayer&quot;:true}" fill-rule="nonzero" stroke="none" stroke-linecap="butt" stroke-linejoin="miter" stroke-miterlimit="10" stroke-dasharray="" stroke-dashoffset="0" style="mix-blend-mode: normal"><path d="M9.07412,198.1503v-115.93403h87.41057v115.93403z" fill="#000000" stroke-width="0"/><path d="M44.28013,119.56033c-0.15451,-0.27245 -0.25366,-0.62215 -0.25366,-1.071c0,-2.03186 2.03186,-2.03186 2.03186,-2.03186h0.6985c5.08828,0 10.13448,-0.03285 15.18542,0.35617c2.92086,0.22496 6.01368,0.02121 8.88943,0.75415c4.43079,1.12926 7.90688,4.35339 10.84426,7.65915c8.11292,10.55735 8.69091,27.14022 2.51761,38.88392c-2.5607,4.87132 -6.64737,8.44851 -11.00511,11.61085c-8.63321,5.03245 -18.8392,4.96034 -28.55446,3.98763c-4.47539,-0.44808 -8.86738,-1.05763 -12.34152,-4.18607c-5.12976,-4.61932 -7.0081,-11.22547 -7.82018,-17.79146c-0.00569,-4.4864 -0.29313,-9.10745 0.74866,-13.51425c1.5118,-6.395 4.90465,-12.43316 8.93869,-17.5562c1.14892,-1.45908 2.9937,-3.64341 4.55818,-4.67037c1.583,-1.03911 3.51264,-1.84444 5.56231,-2.43065z" fill="url(#color-1)" stroke-width="0.5"/><path d="M15.05416,130.47519c-0.14985,-0.03181 -0.30667,-0.07752 -0.47067,-0.13902c-2.34083,-0.87781 -1.46301,-3.21863 -1.46301,-3.21863l1.14499,-2.63739c2.07394,-2.43746 4.1128,-5.29254 7.17901,-6.65394c1.91482,-0.85017 4.18276,-0.40037 6.22502,-0.86777c2.90876,-2.3711 6.45125,-5.15002 9.95618,-6.50684c7.22915,-2.79855 15.6229,-0.76893 21.55545,3.56892c1.54272,1.12803 3.44491,1.90513 4.59075,3.43467c2.08465,2.78274 2.66039,7.66256 2.40169,10.98834c-0.31728,4.07888 -2.05617,9.26162 -6.11597,11.15278c-0.74606,0.34753 -1.6923,-0.33426 -2.46838,-0.06022c-0.44488,0.15709 -0.47861,0.81473 -0.75374,1.198c-1.51537,2.11103 -3.32593,4.01886 -5.26259,5.75152c-3.36723,3.01254 -6.5846,3.68879 -10.9603,4.9047c-1.62851,-0.16619 -3.28102,-0.17424 -4.88553,-0.49859c-0.69693,-0.14088 -1.30865,-1.2041 -1.94233,-0.88163c-0.7468,0.38004 -0.41034,1.67478 -0.92131,2.33891c-1.00294,1.30358 -2.09849,2.63796 -3.53038,3.44723c-4.85186,2.74214 -13.20773,3.45501 -16.78853,-1.91681c-0.81786,-1.22693 -0.32653,-2.93988 -0.29153,-4.414c0.06516,-2.74425 0.92071,-5.41672 1.19295,-8.14821c0.33071,-3.31807 0.42808,-7.36627 1.60825,-10.84202z" fill="url(#color-2)" stroke-width="0.5"/><path d="M52.31719,112.14607c-0.66138,-1.90458 -0.95577,-3.56471 0.97454,-5.79765c1.48181,-1.71413 4.82395,-1.8222 6.86878,-1.98664c5.38141,-0.43277 10.73373,-0.66685 16.06572,0.26693c1.9538,0.34216 4.43761,0.66927 6.13976,1.77948c6.37925,4.16078 5.39847,14.69213 6.31613,21.25032c3.61596,10.95968 4.50966,25.56903 -0.14103,36.25375c-1.96706,4.51922 -4.70673,10.48534 -9.03906,13.23371c-3.29457,2.09002 -7.51806,2.70188 -11.12737,4.01913c-3.58581,1.39522 -11.26718,3.30575 -13.60649,-1.5109c-1.84262,-3.79395 2.50451,-7.58165 2.61382,-11.00529c0.05317,-1.66529 -1.52831,-2.96785 -2.44026,-4.36225c-1.48737,-2.27422 -2.53083,-3.05505 -2.98553,-5.92719c-1.10953,-7.00842 2.54293,-13.47736 2.8166,-20.29132c0.16808,-4.18498 -1.6328,-7.95313 -1.66424,-12.09739c-0.281,-3.32345 2.13962,-8.72801 -0.33418,-11.05678l-0.61856,-1.8838c0,0 0,-0.40228 0.16136,-0.88409zM57.84958,113.02792c0.34146,0.38046 0.63994,0.78478 0.8093,1.26081c1.23418,3.46904 -0.9117,7.83349 -0.55545,11.45544c-0.03898,4.29532 1.82471,8.20482 1.66136,12.60704c-0.23777,6.40771 -3.75122,12.60658 -2.88442,19.14074c0.54749,4.12713 5.43136,6.57262 5.50117,11.0894c0.01235,0.79891 -2.21914,6.92436 -2.45045,7.53125c-0.18442,0.48388 -0.68602,0.90154 -0.63675,1.41703c0.02485,0.26001 0.51848,0.07919 0.77968,0.07825c0.69371,-0.0025 1.38674,-0.04797 2.07928,-0.08856c1.51581,-0.08885 3.0355,-0.44437 4.4383,-1.02551c3.3057,-1.1982 7.19629,-1.75958 10.25146,-3.58223c3.41275,-2.03597 5.6107,-7.53427 7.11383,-10.99563c3.81217,-8.77854 2.47909,-17.92568 1.01533,-27.08701c-0.32247,-2.0183 -0.50373,-4.08477 -1.15636,-6.02168c-0.58679,-4.03839 -0.61346,-8.1833 -1.43975,-12.17998c-0.39175,-1.89482 -0.81186,-4.88658 -2.696,-6.00176c-4.24174,-2.51059 -11.02379,-1.67504 -15.67693,-1.5104c-0.98525,0.03486 -5.94094,-0.1917 -7.0331,0.61998c-0.74394,0.5529 0.38123,1.82693 0.74785,2.67824c0,0 0.09058,0.24909 0.13164,0.61457z" fill="#ffffff" stroke-width="0.5"/><path d="M57.73843,112.45895c-0.36662,-0.8513 -1.53226,-2.21678 -0.78832,-2.76968c1.09215,-0.81169 6.05698,-0.5881 7.04223,-0.62296c4.65313,-0.16464 11.45808,-0.9999 15.69981,1.51069c1.88415,1.11518 2.31099,4.10913 2.70274,6.00395c0.8263,3.99668 0.86649,8.14976 1.45328,12.18815c0.65263,1.9369 0.8439,4.0149 1.16637,6.0332c1.46376,9.16133 2.78217,18.37678 -1.03001,27.15532c-1.50314,3.46137 -3.71999,8.96723 -7.13274,11.0032c-3.05518,1.82265 -6.96193,2.38425 -10.26763,3.58245c-1.40281,0.58113 -2.92833,0.93542 -4.44414,1.02427c-0.69253,0.04059 -1.38818,0.08525 -2.0819,0.08775c-0.2612,0.00094 -0.75581,0.18142 -0.78066,-0.07859c-0.04927,-0.51549 0.48592,-1.02734 0.67034,-1.51122c0.2313,-0.60689 2.429,-6.63823 2.41665,-7.43714c-0.06981,-4.51678 -4.97252,-6.97449 -5.52002,-11.10162c-0.8668,-6.53417 2.6364,-12.78698 2.87416,-19.1947c0.16336,-4.40222 -1.68466,-8.33216 -1.64567,-12.62748c-0.35625,-3.62195 1.79975,-7.99244 0.56557,-11.46148c-0.16936,-0.47603 -0.42678,-0.78917 -0.76824,-1.16963c-0.04107,-0.36548 -0.13183,-0.61449 -0.13183,-0.61449z" data-paper-data="{&quot;noHover&quot;:false,&quot;origItem&quot;:[&quot;Path&quot;,{&quot;applyMatrix&quot;:true,&quot;segments&quot;:[[[112.84866,227.48109],[-0.08213,-0.73095],[0.68293,0.76092]],[[114.46725,230.00271],[-0.33871,-0.95205],[2.46835,6.93808]],[[113.35635,252.9136],[-0.7125,-7.24391],[-0.07797,8.59063]],[[116.67906,278.12767],[0.32671,-8.80444],[-0.47554,12.81543]],[[110.91023,316.40916],[-1.73361,-13.06833],[1.09499,8.25425]],[[121.91256,338.58796],[-0.13962,-9.03357],[0.0247,1.59782]],[[117.01167,353.65046],[0.46261,-1.21378],[-0.36885,0.96777]],[[115.73817,356.48453],[-0.09854,-1.03098],[0.0497,0.52002]],[[117.29752,356.64102],[-0.52239,0.00188],[1.38743,-0.005]],[[121.45608,356.46391],[-1.38507,0.08118],[3.03162,-0.1777]],[[130.33268,354.4129],[-2.80561,1.16227],[6.61139,-2.3964]],[[150.83561,347.24843],[-6.11035,3.64531],[6.82549,-4.07194]],[[165.06328,325.25716],[-3.00627,6.92273],[7.62435,-17.55708]],[[167.09394,271.08314],[2.92752,18.32265],[-0.64495,-4.0366]],[[164.78123,259.03979],[1.30526,3.87381],[-1.17357,-8.07679]],[[161.90172,234.67983],[1.65259,7.99336],[-0.78349,-3.78964]],[[156.50972,222.67631],[3.76829,2.23036],[-8.48347,-5.02117]],[[125.15586,219.65551],[9.30627,-0.32927],[-1.9705,0.06972]],[[111.08967,220.89548],[2.18431,-1.62338],[-1.48787,1.10579]],[[112.58537,226.25195],[-0.73325,-1.70261],[0,0]]],&quot;closed&quot;:true}]}" fill="#000000" stroke-width="0.5"/><path d="M34.81521,165.05199c0,-1.38071 1.11929,-2.5 2.5,-2.5c1.38071,0 2.5,1.11929 2.5,2.5c0,1.38071 -1.11929,2.5 -2.5,2.5c-1.38071,0 -2.5,-1.11929 -2.5,-2.5z" fill="#000000" stroke-width="0.5"/><path d="M48.84183,177.64174c0,2.5 -2.5,2.5 -2.5,2.5l-0.77672,-0.03401c-0.95017,0.15836 -1.90034,0.31673 -2.85051,0.47509c0,0 -2.46599,0.411 -2.87698,-2.05499c-0.41099,-2.46598 2.05499,-2.87698 2.05499,-2.87698c0.95017,-0.15836 1.90034,-0.31673 2.85051,-0.47509l1.59871,-0.03402c0,0 2.5,0 2.5,2.5z" fill="#000000" stroke-width="0.5"/></g></g></svg>