<svg version="1.1" xmlns="http://www.w3.org/2000/svg" xmlns:xlink="http://www.w3.org/1999/xlink" width="87.41059" height="115.93404" viewBox="0,0,87.41059,115.93404"><g transform="translate(-9.0741,-82.21627)"><g data-paper-data="{&quot;isPaintingLayer&quot;:true}" fill-rule="nonzero" stroke="none" stroke-linecap="butt" stroke-linejoin="miter" stroke-miterlimit="10" stroke-dasharray="" stroke-dashoffset="0" style="mix-blend-mode: normal"><path d="M9.07411,198.1503v-115.93403h87.41057v115.93403z" fill="#000000" stroke-width="0"/><g stroke-width="0.5"><path d="M49.52541,112.24115c0.47274,-0.7347 1.27353,-1.05501 1.27353,-1.05501l2.37853,-0.85398c7.28235,-0.80051 13.83421,-0.37995 20.60893,2.61006c5.18749,2.25402 9.77797,6.44043 12.31631,11.59875c2.71011,5.50738 1.96041,13.07642 1.95702,19.00117c-0.00302,5.28596 0.07872,10.80474 -2.78504,15.46066c-2.84674,4.62825 -7.33968,7.79008 -12.17874,9.96084c-3.02377,1.28958 -6.96195,3.31214 -10.16381,3.9552c-7.80185,1.56692 -16.0937,-0.7168 -23.36641,-3.17726c-3.18669,-1.0781 -6.30645,-0.60417 -9.38223,-2.24369c-6.24117,-3.3268 -10.88427,-11.96038 -10.99089,-18.77734c0,-4.13433 -0.53596,-8.68407 0.02416,-12.77495c1.18366,-8.64506 7.23666,-17.18831 14.7724,-21.54198c4.61517,-2.66635 10.23861,-2.41381 15.53624,-2.16248z" fill="#794f28"/><path d="M48.31318,108.87503c1.35465,-1.35645 3.07485,-0.20965 3.07485,-0.20965l1.56948,1.17012c5.10931,6.51515 3.47128,19.86468 -5.64728,22.62404c-2.2228,0.67264 -5.52261,0.55256 -7.8037,0.07159c-0.53954,-0.11377 -0.95964,-0.73671 -1.5081,-0.67978c-0.45165,0.04688 -0.72705,0.56655 -0.98711,0.93877c-1.11815,1.60043 -2.13054,3.28554 -3.39772,4.77076c-3.61477,4.23675 -6.84071,5.30348 -12.06802,3.15839c-2.68467,-0.84053 -4.58,-0.92849 -5.96018,-4.16066c-1.89388,-4.43519 2.28314,-12.42115 4.77269,-15.88672c1.30842,-1.82138 3.12464,-3.82217 5.27427,-4.66628c1.16042,-0.45567 2.46223,-0.4315 3.70739,-0.49308c0.48214,-0.02384 1.06357,0.55527 1.42831,0.23906c0.37497,-0.32507 -0.17012,-1.02755 0.01316,-1.48873c0.44199,-1.11221 0.98158,-2.23731 1.81061,-3.1005c4.21405,-4.38765 10.27679,-3.01904 15.72135,-2.28733z" fill="#40270e"/><path d="M57.85508,107.80599c-1.85947,18.02953 1.08795,36.18948 -0.54148,54.25116c-0.29002,2.87168 -0.2887,5.60014 -0.31162,8.48158c-0.00847,1.06462 -0.92818,2.68005 0.00423,3.19397c0.44444,0.24496 1.00237,-0.17457 1.50919,-0.20032c3.83736,-0.19499 5.65329,-1.37152 8.95499,-3.22656c2.70987,-1.52252 5.78159,-3.06739 8.63745,-4.3192c1.6605,-0.72785 3.09308,-0.87122 4.47503,-2.13305c3.43146,-3.13317 3.71891,-10.65365 3.71219,-14.95121c0.00595,-3.77377 0.75309,-7.38589 0.97362,-11.13499c0.4241,-7.20975 -0.00483,-14.57877 -0.00483,-21.80395c0,-1.93758 0,-3.87517 0,-5.81275c0,-0.96879 -0.15929,-1.95077 0,-2.90638c0.06116,-0.36692 0.90021,-0.65311 0.63718,-0.91614c-0.27375,-0.27375 -0.66566,0.42569 -1.04356,0.50977c-0.86167,0.19172 -1.75315,0.2084 -2.6303,0.30764c-2.81779,0.31882 -5.51872,0.33822 -8.34935,0.33822c-5.33267,-0.00838 -10.66957,0.30524 -16.02275,0.32222zM52.91351,107.00391c-0.3402,-0.36953 -0.5886,-0.90917 -0.5886,-1.6972c0,-2.5 2.5,-2.5 2.5,-2.5h2.58345c5.50607,0 10.98378,-0.3151 16.46947,-0.32293c3.49678,0 7.58436,-0.99489 10.97965,-0.64586c1.62716,0.16727 3.61256,-0.00101 4.7692,1.15563c1.01311,1.01311 0.51013,2.82365 0.63718,4.25075c0.25317,2.84377 0,5.86284 0,8.71913c0,7.32963 0.42543,14.80013 -0.00483,22.11464c-0.21438,3.6445 -0.9704,7.15953 -0.96396,10.8243c-0.00829,5.89901 -0.75831,14.3456 -5.32988,18.6336c-3.56771,3.34641 -9.77396,4.72307 -14.0137,7.11085c-3.81455,2.14832 -7.0401,4.40776 -11.71258,3.87792c-1.45268,-0.16473 -3.16186,0.06701 -4.30357,-0.84618c-1.17799,-0.94221 -1.49897,-2.65429 -1.89324,-4.11031c-0.91266,-3.37042 -0.04557,-8.55751 0.29413,-11.98619c1.6655,-18.17163 -1.29422,-36.42385 0.57729,-54.57814z" fill="#131313"/><path d="M73.88183,107.43394c2.83063,0 5.54337,-0.017 8.36116,-0.33582c0.87715,-0.09924 1.77176,-0.11476 2.63343,-0.30648c0.3779,-0.08408 0.77078,-0.7831 1.04453,-0.50936c0.26303,0.26303 -0.5763,0.5491 -0.63746,0.91602c-0.15929,0.95561 0.00158,1.93829 0.00158,2.90708c0,1.93758 0.00393,3.87722 0.00393,5.81481c0,7.22518 0.45316,14.62942 0.02906,21.83918c-0.22054,3.7491 -0.97569,7.39735 -0.98165,11.17113c0.00672,4.29756 -0.30385,11.83647 -3.73531,14.96964c-1.38195,1.26182 -2.82358,1.40779 -4.48408,2.13563c-2.85586,1.25181 -5.94298,2.79714 -8.65284,4.31966c-3.3017,1.85504 -5.12919,3.02869 -8.96656,3.22368c-0.50682,0.02575 -1.06645,0.4446 -1.51089,0.19964c-0.93241,-0.51392 -0.01439,-2.1301 -0.00593,-3.19473c0.02292,-2.88144 0.01602,-5.61296 0.30604,-8.48464c1.62943,-18.06168 -1.31044,-36.31002 0.54903,-54.33955c5.35319,-0.01698 10.71329,-0.33428 16.04596,-0.32589z" data-paper-data="{&quot;noHover&quot;:false,&quot;origItem&quot;:[&quot;Path&quot;,{&quot;applyMatrix&quot;:true,&quot;segments&quot;:[[[57.85506,107.80596],[5.35319,-0.01698],[-1.85947,18.02953]],[[57.31358,162.05712],[1.62943,-18.06168],[-0.29002,2.87168]],[[57.00197,170.5387],[0.02292,-2.88144],[-0.00847,1.06462]],[[57.0062,173.73267],[-0.93241,-0.51392],[0.44444,0.24496]],[[58.51539,173.53235],[-0.50682,0.02575],[3.83736,-0.19499]],[[67.47038,170.30579],[-3.3017,1.85504],[2.70987,-1.52252]],[[76.10783,165.98659],[-2.85586,1.25181],[1.6605,-0.72785]],[[80.58286,163.85354],[-1.38195,1.26182],[3.43146,-3.13317]],[[84.29505,148.90234],[0.00672,4.29756],[0.00595,-3.77377]],[[85.26867,137.76734],[-0.22054,3.7491],[0.4241,-7.20975]],[[85.26384,115.96339],[0,7.22518],[0,-1.93758]],[[85.26384,110.15064],[0,1.93758],[0,-0.96879]],[[85.26384,107.24426],[-0.15929,0.95561],[0.06116,-0.36692]],[[85.90102,106.32812],[0.26303,0.26303],[-0.27375,-0.27375]],[[84.85746,106.83788],[0.3779,-0.08408],[-0.86167,0.19172]],[[82.22716,107.14552],[0.87715,-0.09924],[-2.81779,0.31882]],[[73.87781,107.48375],[2.83063,0],[-5.33267,-0.00838]]],&quot;closed&quot;:true}]}" fill="#000000"/></g><path d="M9.07413,198.15031v-115.93403h87.41057v115.93403z" fill="#000000" stroke-width="0"/><path d="M44.28014,119.56034c-0.15451,-0.27245 -0.25366,-0.62215 -0.25366,-1.071c0,-2.03186 2.03186,-2.03186 2.03186,-2.03186h0.6985c5.08828,0 10.13448,-0.03285 15.18542,0.35617c2.92086,0.22496 6.01368,0.02121 8.88943,0.75415c4.43079,1.12926 7.90688,4.35339 10.84426,7.65915c8.11292,10.55735 8.69091,27.14022 2.51761,38.88392c-2.5607,4.87132 -6.64737,8.44851 -11.00511,11.61085c-8.63321,5.03245 -18.8392,4.96034 -28.55446,3.98763c-4.47539,-0.44808 -8.86738,-1.05763 -12.34152,-4.18607c-5.12976,-4.61932 -7.0081,-11.22547 -7.82018,-17.79146c-0.00569,-4.4864 -0.29313,-9.10745 0.74866,-13.51425c1.5118,-6.395 4.90465,-12.43316 8.93869,-17.5562c1.14892,-1.45908 2.9937,-3.64341 4.55818,-4.67037c1.583,-1.03911 3.51264,-1.84444 5.56231,-2.43065z" fill="#764d27" stroke-width="0.5"/><path d="M15.05417,130.47519c-0.14985,-0.03181 -0.30667,-0.07752 -0.47067,-0.13902c-2.34083,-0.87781 -1.46301,-3.21863 -1.46301,-3.21863l1.14499,-2.63739c2.07394,-2.43746 4.1128,-5.29254 7.17901,-6.65394c1.91482,-0.85017 4.18276,-0.40037 6.22502,-0.86777c2.90876,-2.3711 6.45125,-5.15002 9.95618,-6.50684c7.22915,-2.79855 15.6229,-0.76893 21.55545,3.56892c1.54272,1.12803 3.44491,1.90513 4.59075,3.43467c2.08465,2.78274 2.66039,7.66256 2.40169,10.98834c-0.31728,4.07888 -2.05617,9.26162 -6.11597,11.15278c-0.74606,0.34753 -1.6923,-0.33426 -2.46838,-0.06022c-0.44488,0.15709 -0.47861,0.81473 -0.75374,1.198c-1.51537,2.11103 -3.32593,4.01886 -5.26259,5.75152c-3.36723,3.01254 -6.5846,3.68879 -10.9603,4.9047c-1.62851,-0.16619 -3.28102,-0.17424 -4.88553,-0.49859c-0.69693,-0.14088 -1.30865,-1.2041 -1.94233,-0.88163c-0.7468,0.38004 -0.41034,1.67478 -0.92131,2.33891c-1.00294,1.30358 -2.09849,2.63796 -3.53038,3.44723c-4.85186,2.74214 -13.20773,3.45501 -16.78853,-1.91681c-0.81786,-1.22693 -0.32653,-2.93988 -0.29153,-4.414c0.06516,-2.74425 0.92071,-5.41672 1.19295,-8.14821c0.33071,-3.31807 0.42808,-7.36627 1.60825,-10.84202z" fill="#3e270d" stroke-width="0.5"/><path d="M52.3172,112.14608c-0.66138,-1.90458 -0.95577,-3.56471 0.97454,-5.79765c1.48181,-1.71413 4.82395,-1.8222 6.86878,-1.98664c5.38141,-0.43277 10.73373,-0.66685 16.06572,0.26693c1.9538,0.34216 4.43761,0.66927 6.13976,1.77948c6.37925,4.16078 5.39847,14.69213 6.31613,21.25032c3.61596,10.95968 4.50966,25.56903 -0.14103,36.25375c-1.96706,4.51922 -4.70673,10.48534 -9.03906,13.23371c-3.29457,2.09002 -7.51806,2.70188 -11.12737,4.01913c-3.58581,1.39522 -11.26718,3.30575 -13.60649,-1.5109c-1.84262,-3.79395 2.50451,-7.58165 2.61382,-11.00529c0.05317,-1.66529 -1.52831,-2.96785 -2.44026,-4.36225c-1.48737,-2.27422 -2.53083,-3.05505 -2.98553,-5.92719c-1.10953,-7.00842 2.54293,-13.47736 2.8166,-20.29132c0.16808,-4.18498 -1.6328,-7.95313 -1.66424,-12.09739c-0.281,-3.32345 2.13962,-8.72801 -0.33418,-11.05678l-0.61856,-1.8838c0,0 0,-0.40228 0.16136,-0.88409zM57.84959,113.02793c0.34146,0.38046 0.63994,0.78478 0.8093,1.26081c1.23418,3.46904 -0.9117,7.83349 -0.55545,11.45544c-0.03898,4.29532 1.82471,8.20482 1.66136,12.60704c-0.23777,6.40771 -3.75122,12.60658 -2.88442,19.14074c0.54749,4.12713 5.43136,6.57262 5.50117,11.0894c0.01235,0.79891 -2.21914,6.92436 -2.45045,7.53125c-0.18442,0.48388 -0.68602,0.90154 -0.63675,1.41703c0.02485,0.26001 0.51848,0.07919 0.77968,0.07825c0.69371,-0.0025 1.38674,-0.04797 2.07928,-0.08856c1.51581,-0.08885 3.0355,-0.44437 4.4383,-1.02551c3.3057,-1.1982 7.19629,-1.75958 10.25146,-3.58223c3.41275,-2.03597 5.6107,-7.53427 7.11383,-10.99563c3.81217,-8.77854 2.47909,-17.92568 1.01533,-27.08701c-0.32247,-2.0183 -0.50373,-4.08477 -1.15636,-6.02168c-0.58679,-4.03839 -0.61346,-8.1833 -1.43975,-12.17998c-0.39175,-1.89482 -0.81186,-4.88658 -2.696,-6.00176c-4.24174,-2.51059 -11.02379,-1.67504 -15.67693,-1.5104c-0.98525,0.03486 -5.94094,-0.1917 -7.0331,0.61998c-0.74394,0.5529 0.38123,1.82693 0.74785,2.67824c0,0 0.09058,0.24909 0.13164,0.61457z" fill="#ffffff" stroke-width="0.5"/><path d="M57.73844,112.45896c-0.36662,-0.8513 -1.53226,-2.21678 -0.78832,-2.76968c1.09215,-0.81169 6.05698,-0.5881 7.04223,-0.62296c4.65313,-0.16464 11.45808,-0.9999 15.69981,1.51069c1.88415,1.11518 2.31099,4.10913 2.70274,6.00395c0.8263,3.99668 0.86649,8.14976 1.45328,12.18815c0.65263,1.9369 0.8439,4.0149 1.16637,6.0332c1.46376,9.16133 2.78217,18.37678 -1.03001,27.15532c-1.50314,3.46137 -3.71999,8.96723 -7.13274,11.0032c-3.05518,1.82265 -6.96193,2.38425 -10.26763,3.58245c-1.40281,0.58113 -2.92833,0.93542 -4.44414,1.02427c-0.69253,0.04059 -1.38818,0.08525 -2.0819,0.08775c-0.2612,0.00094 -0.75581,0.18142 -0.78066,-0.07859c-0.04927,-0.51549 0.48592,-1.02734 0.67034,-1.51122c0.2313,-0.60689 2.429,-6.63823 2.41665,-7.43714c-0.06981,-4.51678 -4.97252,-6.97449 -5.52002,-11.10162c-0.8668,-6.53417 2.6364,-12.78698 2.87416,-19.1947c0.16336,-4.40222 -1.68466,-8.33216 -1.64567,-12.62748c-0.35625,-3.62195 1.79975,-7.99244 0.56557,-11.46148c-0.16936,-0.47603 -0.42678,-0.78917 -0.76824,-1.16963c-0.04107,-0.36548 -0.13183,-0.61449 -0.13183,-0.61449z" data-paper-data="{&quot;noHover&quot;:false,&quot;origItem&quot;:[&quot;Path&quot;,{&quot;applyMatrix&quot;:true,&quot;segments&quot;:[[[112.84866,227.48109],[-0.08213,-0.73095],[0.68293,0.76092]],[[114.46725,230.00271],[-0.33871,-0.95205],[2.46835,6.93808]],[[113.35635,252.9136],[-0.7125,-7.24391],[-0.07797,8.59063]],[[116.67906,278.12767],[0.32671,-8.80444],[-0.47554,12.81543]],[[110.91023,316.40916],[-1.73361,-13.06833],[1.09499,8.25425]],[[121.91256,338.58796],[-0.13962,-9.03357],[0.0247,1.59782]],[[117.01167,353.65046],[0.46261,-1.21378],[-0.36885,0.96777]],[[115.73817,356.48453],[-0.09854,-1.03098],[0.0497,0.52002]],[[117.29752,356.64102],[-0.52239,0.00188],[1.38743,-0.005]],[[121.45608,356.46391],[-1.38507,0.08118],[3.03162,-0.1777]],[[130.33268,354.4129],[-2.80561,1.16227],[6.61139,-2.3964]],[[150.83561,347.24843],[-6.11035,3.64531],[6.82549,-4.07194]],[[165.06328,325.25716],[-3.00627,6.92273],[7.62435,-17.55708]],[[167.09394,271.08314],[2.92752,18.32265],[-0.64495,-4.0366]],[[164.78123,259.03979],[1.30526,3.87381],[-1.17357,-8.07679]],[[161.90172,234.67983],[1.65259,7.99336],[-0.78349,-3.78964]],[[156.50972,222.67631],[3.76829,2.23036],[-8.48347,-5.02117]],[[125.15586,219.65551],[9.30627,-0.32927],[-1.9705,0.06972]],[[111.08967,220.89548],[2.18431,-1.62338],[-1.48787,1.10579]],[[112.58537,226.25195],[-0.73325,-1.70261],[0,0]]],&quot;closed&quot;:true}]}" fill="#000000" stroke-width="0.5"/></g></g></svg>