<svg version="1.1" xmlns="http://www.w3.org/2000/svg" xmlns:xlink="http://www.w3.org/1999/xlink" width="187.55598" height="249.30523" viewBox="0,0,187.55598,249.30523"><g transform="translate(-146.22201,-55.34739)"><g data-paper-data="{&quot;isPaintingLayer&quot;:true}" fill-rule="nonzero" stroke="none" stroke-width="0.5" stroke-linecap="butt" stroke-linejoin="miter" stroke-miterlimit="10" stroke-dasharray="" stroke-dashoffset="0" style="mix-blend-mode: normal"><path d="M194.25886,170.27492c6.12639,0.94595 13.32982,0.54907 19.20294,-0.80227c5.67545,-1.30587 10.57131,-3.53439 16.51911,-3.57057c14.75479,-1.72046 29.53165,-1.04858 44.21678,1.09406c6.93743,1.01221 15.87865,1.5368 21.77567,5.88721c5.48914,4.04951 6.87952,11.65227 9.34792,17.5714c0.94391,2.26347 2.10735,4.43059 3.06728,6.68731c5.16899,15.27306 14.93664,28.61034 19.06441,44.25264c2.51692,9.53792 2.12051,20.31561 0.52632,29.91722c-0.11994,0.72237 -1.05857,8.77318 -1.09065,8.87385c-0.97558,3.06142 -3.67595,5.96239 -5.6093,8.49346c-5.15862,3.94041 -10.329,9.38768 -16.49466,11.60969c-9.35644,3.37191 -20.5254,1.13924 -30.17283,1.62189c-9.26476,0.46351 -18.31523,2.00065 -27.60028,2.00065c-12.19094,-0.0001 -24.47707,1.26064 -36.67722,0.49371c-7.41202,-0.46594 -14.99609,-2.1695 -22.27105,-3.53423c-3.47659,-0.65218 -7.54206,-0.99526 -10.88818,-2.10356c-0.94412,-0.31271 -1.6417,-1.15454 -2.56504,-1.52411c-2.62764,-1.05173 -5.42806,-1.97337 -8.12265,-3.0512c-5.34534,-2.67207 -12.67748,-6.81208 -14.38515,-13.11327c-0.98355,-3.62924 0.61516,-9.27226 1.47967,-12.75636c3.13854,-12.64885 6.41177,-25.3538 11.02566,-37.59725c1.02905,-5.23958 2.8363,-10.01614 4.51646,-15.05525c2.65083,-7.95031 5.17284,-15.41884 9.18331,-22.93811c3.58795,-6.72709 7.79788,-13.19584 10.17831,-20.41902c-0.06502,-0.43065 -0.00132,-0.9371 0.28981,-1.51937c0.10099,-0.20197 0.21109,-0.37658 0.32785,-0.52712c0.17126,-0.62606 0.32768,-1.25825 0.46775,-1.89718c0,0 0.54233,-2.44047 2.98279,-1.89814c2.44047,0.54233 1.89814,2.98279 1.89814,2.98279c-0.0618,0.27476 -0.12622,0.54847 -0.19319,0.82115z" fill="#1b1b1b"/><path d="M164.52117,225.99659c0.6961,-1.08515 2.1293,-1.08515 2.1293,-1.08515c5.52138,0.06419 10.12604,2.35171 15.7109,2.78261c10.53236,0.81263 21.07221,1.07587 31.64957,1.66566c7.0388,0.39247 13.89712,1.66312 20.97286,1.66284c6.69429,0 13.67586,0.55385 20.34936,0.00852c8.86797,-0.72466 17.06255,-4.34255 25.91593,-5.52162c4.29334,-0.57178 9.02474,-0.26114 13.26195,-1.10845c5.40883,-1.0816 10.44382,-3.50587 15.98125,-4.41583c3.12888,-1.01999 8.6376,-2.59616 11.64582,-0.05126c2.36527,2.00097 2.0893,6.51511 3.41865,9.14441c0.91494,1.80964 1.44035,3.79345 2.26487,5.64604c0.38182,0.85788 1.34796,1.38188 1.68282,2.25915c2.00076,5.24149 0.96498,12.94628 -1.76903,17.73376c-2.10694,3.68942 -3.94597,4.50811 -7.94111,6.12921c-7.51865,3.05081 -16.09567,3.68784 -24.06993,4.41062c-17.88867,0.44432 -35.53787,1.39209 -53.31215,2.97916c-8.08187,0.72163 -16.52901,0.00852 -24.65064,0.00852c-16.96343,0 -33.87191,0.30971 -50.73278,-1.1174c-3.10823,-0.26308 -6.15926,0.51759 -9.17654,-0.76701c-0.95281,-0.40566 -1.63416,-1.27958 -2.51612,-1.82231c-1.24723,-0.7675 -2.86963,-1.02053 -3.85871,-2.10052c-0.98034,-1.07044 -1.3817,-2.58775 -1.7263,-3.99778c-0.25725,-1.05264 -0.03007,-2.16703 -0.04511,-3.25054c0.01123,-4.66786 0.87296,-9.19386 1.70763,-13.78404c0.10138,-0.55751 1.16321,-5.85008 1.28788,-6.12528c1.49678,-3.304 4.71931,-5.44717 7.6627,-7.23442l2.77778,-1.66666c0,0 0.61251,-0.36751 1.37917,-0.38223z" fill="#ffffff"/><g><path d="M208.3831,86.25393c0.71958,-0.33603 1.4241,-0.68633 2.1035,-1.05505c1.25994,-0.68377 2.26509,-1.83536 3.60495,-2.34502c2.23522,-0.85023 4.72356,-0.7585 7.06864,-1.22721c11.83424,-2.36532 24.56944,-1.15966 36.6014,-1.15966c11.32516,0 22.44291,-0.1872 33.68736,1.13512c4.87848,0.57369 9.55761,0.86033 14.27373,2.30989c5.82708,1.79102 13.75245,5.22698 17.40035,10.37099c2.81365,3.96762 3.07075,8.63386 4.81269,12.97163c0.8603,4.31297 0.6592,8.54394 0.6592,12.93459c0,5.55176 0.52874,11.3852 -0.01217,16.91301c-0.39994,4.08722 -1.26731,8.1365 -1.66667,12.22222c-0.54094,5.53429 -0.18422,11.75942 -1.75814,17.13269c-0.65458,2.23468 -1.64985,4.35598 -2.40413,6.55901c-5.02546,6.83488 -7.84371,15.81764 -15.19711,20.86784c-4.62148,3.17396 -9.8385,2.84225 -15.10432,3.2375c-9.23025,0.69282 -18.26752,2.87862 -27.4215,4.38289c-5.37951,1.78906 -9.86732,1.35971 -15.39642,1.73187c-8.85772,0.59622 -18.24092,2.20525 -27.17833,1.1009c-2.769,-0.34215 -5.42294,-1.44423 -8.20509,-1.65422c-4.45851,-0.33653 -8.74846,0.31914 -13.20836,-0.62428c-4.85837,-1.02772 -9.71301,-3.04791 -14.44135,-4.65499c-0.68182,-0.52756 -1.2443,-1.26433 -2.04546,-1.58269c-1.03455,-0.41112 -2.26464,-0.12035 -3.29582,-0.53987c-1.0966,-0.44613 -1.89458,-1.43608 -2.93764,-1.99608c-2.68986,-1.44414 -5.71694,-2.511 -7.88414,-4.66137c-3.21597,-3.19099 -3.87802,-6.25984 -5.52567,-10.21715c-0.43295,-1.03985 -1.33889,-1.84885 -1.71926,-2.90906c-0.14821,-0.41309 -0.877,-5.31861 -1.1624,-6.26578c-3.3388,-11.08078 -3.92233,-23.5123 -2.27828,-35.07858c1.10015,-4.40636 1.96229,-10.48899 4.11448,-14.54275c3.08153,-5.80423 7.91941,-11.3157 11.91564,-16.5045c1.69795,-2.20466 2.64373,-5.01216 4.66925,-6.92025c1.61525,-1.52161 6.74743,-3.6385 8.5597,-4.41074c5.57196,-2.37432 11.63749,-3.45188 17.3165,-5.59311c0,0 1.08519,-0.40695 2.05489,0.0722z" fill="#584529"/><path d="M157.65677,95.10015c-0.1084,-0.28303 -0.17298,-0.62025 -0.17298,-1.02205c0,-2.5 2.5,-2.5 2.5,-2.5l0.62083,0.04855c1.85614,-0.36361 3.78449,-0.23338 5.64539,-0.57182c3.23564,-0.58847 6.00707,-2.14695 9.03356,-3.2303c1.96183,-0.70225 4.17441,-0.45937 6.14934,-1.12389c5.29917,-1.78302 10.17351,-4.87919 15.51997,-6.6548c2.41259,-0.80124 4.96206,-1.11064 7.42828,-1.72735c6.26099,-1.56565 12.16021,-4.17471 18.29433,-6.09275c2.58361,-0.80785 5.28856,-1.24228 7.80821,-2.23173c7.43336,-1.65887 13.87125,-1.81032 21.37296,-1.18518c3.7621,0.31351 7.53585,-0.01266 11.01041,1.97415c1.37123,0.78409 2.43436,2.01369 3.66746,3.00086c2.8562,2.28654 4.27698,2.64038 5.36143,7.11602c0.77962,3.21755 -2.61104,9.04596 -4.6314,11.09867c-0.85568,0.86939 -2.09701,1.2494 -3.10802,1.93196c-6.11014,4.12517 -12.72685,7.30102 -19.46996,10.28918c-7.40264,1.8647 -14.34116,1.81207 -21.925,1.80286c-1.41275,-0.00171 -2.82553,0.00154 -4.23825,-0.00851c-0.63858,-0.00455 -1.48519,-0.50718 -1.91546,-0.0353c-0.69582,0.76311 -0.14197,2.189 -0.78508,2.99703c-0.82635,1.03825 -2.23676,1.42911 -3.33291,2.17697c-0.88879,0.60638 -1.62247,1.48257 -2.62042,1.88473c-1.25036,0.50388 -2.66856,0.41976 -3.97004,0.77114c-6.0714,1.63921 -11.21973,3.4178 -17.58229,3.32505c-3.9961,-0.05825 -8.00163,-1.26736 -9.26722,-5.56184c-2.80872,5.06258 -7.19992,9.59758 -13.0079,11.06634c-2.3169,0.58592 -4.77949,0.05469 -7.16933,0.05106c-4.27381,-0.00648 -9.44364,0.18986 -12.20418,-4.09814c-0.99162,-1.5403 -0.07913,-5.58728 0.32064,-7.28367c1.59776,-6.77985 5.68955,-11.77429 10.66763,-16.20726z" fill="#302617"/><path d="M234.37554,69.57895c-0.22507,-0.55422 -0.22507,-1.05641 -0.22507,-1.05641v-0.55555c0,-4.06708 -0.70617,-8.80874 2.74268,-12.05481c1.02561,-0.9653 2.79619,-0.35553 4.20176,-0.44519c4.21923,-0.26912 8.54931,0 12.77777,0c6.36305,0.01354 12.28841,2.21347 18.57968,2.78995c13.56802,1.24325 27.28625,-0.65239 40.82753,1.52892c3.23895,0.52175 6.49609,0.92448 9.74885,1.35177c2.08103,0.27337 4.43826,-0.16252 6.22677,0.93595c3.09019,1.89795 2.66594,8.7713 2.66056,11.75819c1.49703,7.48514 -0.21684,15.23101 0.55556,22.77778c0.66294,6.47734 1.75288,13.37852 1.11111,19.93713c-0.60413,6.17398 -1.09895,12.40051 -1.09895,18.64255c-0.01184,11.27336 -2.13104,21.5221 -5.08375,32.30834c-1.39695,5.10304 -1.5752,11.00131 -4.89018,15.34131c-4.56482,5.97629 -12.52475,8.91937 -18.35332,13.31387c-1.81529,1.09022 -4.78292,2.98471 -6.73297,3.63617c-6.34958,2.1212 -13.76805,1.62695 -20.31407,2.85782c-3.90774,0.73478 -7.71567,1.9449 -11.5727,2.75835c-5.02753,1.06031 -10.45462,0.61749 -15.55302,0.61749c-3.51798,0 -7.03775,0.03249 -10.55555,0c-1.30271,-0.01203 -2.6759,0.3572 -3.90771,-0.06687c-1.8393,-0.63322 -3.96576,-1.35688 -5.00474,-3.00141c-0.48325,-0.76489 0.65109,-5.87243 0.90545,-7.14423c3.14348,-15.70793 2.76157,-32.30256 1.62295,-48.24325c-0.59539,-8.33543 -0.94797,-17.63949 -4.77277,-25.21458c-0.61589,-1.47937 -1.47834,-2.87879 -1.84767,-4.4381c-1.37443,-5.80274 2.18692,-11.76848 2.73889,-17.41568c0.78621,-8.04368 2.66803,-15.95505 3.89545,-23.948c0.36334,-2.36603 0.77358,-4.67958 1.31745,-6.97147z" fill="#000000"/></g><path d="M187.42922,148.93247c-6.67651,-0.27545 -13.69386,0.71433 -19.39265,3.32468c0,0 -2.27592,1.03451 -3.31042,-1.24141c-1.03451,-2.27592 1.24141,-3.31042 1.24141,-3.31042c9.02018,-4.0721 20.98605,-4.82738 30.64017,-2.66685c5.18883,1.16123 10.72176,5.02172 12.45604,10.37875c1.89623,5.8573 -2.92456,8.31467 -7.92162,8.6288c-4.45694,0.28018 -7.16859,-2.02025 -10.42375,-4.64397c-1.93451,-3.46908 -3.18047,-5.84646 -3.69076,-9.7359zM192.73513,149.42605c-0.22816,0.46689 -0.52129,0.76002 -0.52129,0.76002l-0.16884,-0.85614c-0.00695,-0.00092 -0.0139,-0.00183 -0.02085,-0.00275c0.35792,2.69203 1.21078,4.37414 2.52583,6.86259c2.13928,1.69138 3.61907,2.91912 6.45594,2.85811c0.4586,-0.00986 3.18163,0.03338 3.64257,-1.12555c0.4602,-1.15705 -1.00755,-2.31122 -1.79394,-3.27669c-2.11828,-2.60067 -4.08039,-4.04601 -7.317,-4.72303c-0.91275,-0.19092 -1.84874,-0.35684 -2.80243,-0.49656z" fill="#000000"/><path d="M226.08028,186.86648c0,2.5 -2.5,2.5 -2.5,2.5l-2.1969,-0.02074c-9.1169,-1.18236 -17.96791,-2.79254 -27.18627,-2.79254c0,0 -2.5,0 -2.5,-2.5c0,-2.5 2.5,-2.5 2.5,-2.5c9.43758,0 18.49681,1.6249 27.82902,2.83402l1.55414,-0.02074c0,0 2.5,0 2.5,2.5z" fill="#000000"/><path d="M279.49921,145.84483c-0.99109,0.02564 -1.94752,0.07198 -2.77916,0.07207c-8.22597,0.00094 -16.37039,0.63724 -22.73551,6.25835c0,0 -1.88144,1.64626 -3.5277,-0.23518c-1.64626,-1.88144 0.23518,-3.5277 0.23518,-3.5277c7.39597,-6.42069 16.49187,-7.49649 26.02804,-7.49547c3.02179,0.00032 7.01664,-0.30638 9.90222,0.76952c5.95468,2.22024 11.23,8.69116 11.04041,15.17171c-0.03914,1.33783 0.07733,2.8143 -0.59662,3.97064c-0.82155,1.40961 -2.42049,2.18839 -3.63073,3.28259c-2.35719,0.47323 -4.99236,1.30957 -7.47114,0.83322c-6.07947,-1.16829 -11.80826,-8.41886 -9.74935,-14.78854c0.49379,-1.52766 2.01502,-3.06409 3.28438,-4.31122zM285.20437,146.5014c0.09116,1.5183 -1.42714,2.27745 -1.42714,2.27745l0.02456,-0.15571c-0.1578,0.1567 -2.619,2.48115 -2.82548,3.05881c-1.21618,3.40236 2.75913,7.78392 5.87999,8.34289c1.09655,0.1964 3.50773,-0.28202 4.40716,-0.41712c4.65974,-3.71795 -1.93905,-11.33862 -6.05909,-13.10631z" fill="#ffffff"/><path d="M287.6599,180.30216c0,2.5 -2.5,2.5 -2.5,2.5l-1.07264,-0.04855c-10.96855,2.17818 -22.20927,0.62102 -33.13421,2.81328c0,0 -2.45145,0.49029 -2.94174,-1.96116c-0.49029,-2.45145 1.96116,-2.94174 1.96116,-2.94174c10.94222,-2.18152 22.17745,-0.60487 33.13421,-2.81328l2.05322,-0.04855c0,0 2.5,0 2.5,2.5z" fill="#ffffff"/></g></g></svg>