<svg version="1.1" xmlns="http://www.w3.org/2000/svg" xmlns:xlink="http://www.w3.org/1999/xlink" width="1542.38872" height="1597.06383" viewBox="0,0,1542.38872,1597.06383"><g transform="translate(330.13427,859.41025)"><g data-paper-data="{&quot;isPaintingLayer&quot;:true}" fill-rule="nonzero" stroke="none" stroke-linecap="butt" stroke-linejoin="miter" stroke-miterlimit="10" stroke-dasharray="" stroke-dashoffset="0" style="mix-blend-mode: normal"><path d="M122.0558,601.52493c0,0 -178.05421,-143.82347 -214.6925,-256.78054c-36.85791,-113.63417 -5.80003,-423.00533 -5.80003,-423.00533l1090.19865,-781.14931l220.49253,679.78586z" data-paper-data="{&quot;index&quot;:null}" fill="#1c261a" stroke-width="0"/><path d="M7.92686,731.92862c-95.04932,65.5722 -111.37328,-453.7773 -111.37328,-453.7773l660.61565,-201.46596l13.20005,325.90345c0,0 -364.21572,192.58808 -562.44242,329.33981z" data-paper-data="{&quot;index&quot;:null}" fill="#10140e" stroke-width="0"/><path d="M641.50236,173.69655c-1.38071,0 -2.5,-1.11929 -2.5,-2.5c0,-1.38071 1.11929,-2.5 2.5,-2.5c1.38071,0 2.5,1.11929 2.5,2.5c0,1.38071 -1.11929,2.5 -2.5,2.5z" data-paper-data="{&quot;index&quot;:null}" fill="#252525" stroke-width="0.5"/><path d="M-330.13427,57.50003c0,-6.90356 5.59644,-12.5 12.5,-12.5c6.90356,0 12.5,5.59644 12.5,12.5c0,6.90356 -5.59644,12.5 -12.5,12.5c-6.90356,0 -12.5,-5.59644 -12.5,-12.5z" fill="#262429" stroke-width="0.5"/><path d="M313.29423,159.73261v-203.88714h203.06169v203.88714z" fill="#10140e" stroke-width="0"/><g><path d="M315.2215,360.80563c0.64563,9.19639 1.55626,16.8838 -0.68658,25.91319c-5.74141,17.03644 -23.00471,29.20961 -39.15799,35.47496c-10.56313,4.09712 -21.91436,7.41368 -32.82687,10.13105c-5.21256,1.29799 -10.71232,0.81909 -16.07088,1.19528c-18.8307,1.322 -36.60121,0.4931 -55.45196,-0.531c-11.0714,-0.88276 -24.8505,-4.78408 -34.64121,-10.4192c-0.99385,-0.57202 -10.22152,-8.8404 -11.06023,-9.48629c-4.97961,-3.83477 -7.16017,-3.17213 -10.78341,-9.80446c-3.64194,-6.66656 -2.02712,-14.10546 -1.90722,-21.10111c0.04755,-2.77396 -0.91221,-5.57096 -0.46976,-8.30983c2.01953,-12.50157 10.37964,-23.82018 15.18392,-35.45458c-0.17037,-0.04363 -0.34067,-0.08741 -0.51093,-0.13136c-24.57368,-7.61923 -47.18761,-16.63683 -63.08357,-38.2287c-5.10053,-6.92817 -8.07135,-17.5806 -11.03258,-25.53526c-9.83373,-26.41614 -12.37433,-57.02052 -4.94248,-84.64023c-0.9167,-26.39953 3.29926,-54.33739 -10.6589,-77.90607l-2.78931,-6.71626c0,0 -0.77265,-1.86992 -0.18337,-3.75513c-1.39314,-0.69347 -3.58702,-2.37856 -2.68308,-5.89426c1.28965,-5.0159 6.30554,-3.72625 6.30554,-3.72625c11.51277,3.01095 20.54396,9.41055 32.36007,11.89017l0.72396,-0.12966c0.30586,-0.30113 0.52903,-0.46341 0.52903,-0.46341c15.50565,-11.26854 30.28192,-23.41152 45.44712,-35.13583c5.60018,-4.32952 11.0434,-9.897 17.24553,-13.28262c4.77103,-2.60442 10.30599,-3.69961 14.93146,-6.55456c9.44559,-5.83004 18.35038,-11.57738 29.18404,-14.5819l4.96284,-0.36947c0.84294,-0.18254 1.65886,-0.1132 2.29497,0.01528c0.65833,0.11142 1.47188,0.34954 2.21003,0.85063c16.36901,8.11028 27.9688,22.66658 44.2548,31.5525l2.95894,1.20516c13.52686,-5.00328 25.81342,-13.85738 36.43452,-23.60939c12.78814,-11.74174 26.04031,-26.36285 44.01158,-28.05303l4.35659,-0.30585c0,0 0.97602,-0.06852 2.10939,0.27824c0.59905,-0.30736 1.33738,-0.52022 2.24718,-0.58409c5.16632,-0.3627 5.52902,4.80362 5.52902,4.80362c0.10719,1.52683 1.32783,18.71656 1.30022,19.23552c-0.54843,10.30987 -3.63656,20.35651 -5.4814,30.55049c16.08188,-1.3181 32.26967,-3.09839 48.30332,-1.05993l4.99411,1.90462c1.55659,0.2612 2.51471,1.12827 3.1028,2.0509c0.69282,0.85701 1.21293,2.05206 0.95279,3.62777c0.16298,9.08187 -3.76424,17.47143 -6.0572,26.3398c-2.86289,11.07252 -5.52595,22.67175 -7.91459,33.81039c-3.8833,18.10854 0.47511,39.67808 -7.89129,56.58226c-3.75101,11.58397 -3.57383,23.53041 -3.5455,35.52329c0.01718,7.26748 -1.21482,13.91154 -0.73785,21.19959l-1.74254,8.4901c0,0 -0.75768,3.58624 -4.01519,4.0873c-4.83528,19.52025 -13.57503,37.77406 -28.04439,52.76823c-5.08213,6.61037 -11.34688,11.89288 -18.3333,16.10328c8.34353,7.98093 9.88634,17.60101 10.76988,30.18616zM124.94697,369.7235c-0.75478,1.97784 -2.2374,3.72023 -2.55872,5.81269c-0.35234,2.29448 0.62047,4.61687 0.60071,6.93817c-0.04228,4.96573 -1.87451,11.1279 0.6925,15.92976c1.79467,3.3571 5.08034,4.2502 7.86628,6.39844c3.49043,2.69145 6.0786,6.58205 9.92069,8.74197c8.44635,4.7483 20.65915,8.51349 30.21128,9.10712c18.41441,1.00008 35.68749,1.82668 54.07406,0.53587c4.80687,-0.33746 9.76476,0.27944 14.42515,-0.94567c10.468,-2.7518 21.26709,-5.78945 31.45126,-9.70471c12.49844,-4.80498 28.89731,-15.01665 32.95305,-28.69116c2.03628,-7.5761 0.85359,-14.50975 0.30563,-22.31497c-0.78097,-11.12419 -1.15765,-19.21768 -10.40674,-25.79383c-10.5569,4.5944 -22.11386,7.32026 -33.41024,8.87703c-40.74676,5.61532 -83.23246,5.02919 -123.53637,-3.78423c-3.80644,9.91332 -8.77175,18.89164 -12.58858,28.89352zM355.88714,151.20077c2.17464,-17.12781 6.46379,-34.93621 10.77738,-51.80176c1.70572,-6.66911 5.39886,-14.0604 5.76698,-20.96289l-0.06279,-0.02996c-17.38756,-2.24182 -35.08909,0.37521 -52.50072,1.59758c-1.79424,0.12596 -3.00909,-0.41496 -3.83058,-1.17475c-0.86711,-0.70728 -1.57247,-1.83464 -1.69843,-3.62887c-0.01704,-0.24273 -0.02187,-0.47488 -0.01561,-0.69689l-0.03165,-1.41252c1.51069,-11.80241 5.57875,-23.32762 6.23677,-35.16412c0.23445,-4.21752 -0.30948,-8.42777 -0.79365,-12.63911l-3.68999,0.25905c-3.41033,0.11513 -6.6335,1.84391 -9.6256,3.48433c-10.84744,5.94712 -18.89104,13.44812 -28.11591,21.87496c-11.81754,10.79521 -25.38017,20.41486 -40.41663,25.89751c0,0 -1.04004,0.37775 -2.33327,0.3033c-1.83201,0.49856 -3.59908,-0.23517 -3.59908,-0.23517l-5.00697,-2.11082c-7.61034,-4.16483 -9.24245,-4.75914 -16.6877,-10.2613c-9.60121,-7.09544 -16.07483,-15.61088 -26.76213,-20.89829l-3.56576,0.23208c-9.50219,2.55595 -17.51283,8.31422 -25.76924,13.35531c-4.59618,2.80627 -10.05695,3.9275 -14.79994,6.4778c-5.83395,3.13692 -10.92841,8.49757 -16.19679,12.57002c-15.24653,11.78553 -30.10801,23.98256 -45.69075,35.31851c0,0 -0.51181,0.37215 -1.30771,0.67736c-1.42668,1.39827 -3.47712,1.54222 -3.47712,1.54222l-4.70067,0.13025c-6.78652,-1.44268 -10.33404,-1.83625 -16.83159,-4.78827c-1.87896,-0.85365 -3.52304,-1.72928 -5.10162,-2.57908l0.33299,0.81042c10.20124,17.29925 11.35828,36.38468 11.46437,55.71386c0.19971,-0.4699 0.4003,-0.93947 0.60196,-1.40864c0.29215,7.73189 1.04187,15.44163 1.71897,23.15582c-0.73399,2.05142 -1.40129,4.12797 -2.00361,6.22565c0.06498,1.31008 0.14302,2.61783 0.23664,3.92279c0,0 0.2343,3.33744 -2.35619,4.83575c-4.68782,23.59255 -1.81595,49.07166 6.38839,71.13978c2.65484,7.141 5.30046,17.16238 9.91101,23.34192c14.52345,19.46579 35.09535,27.14649 57.31611,34.04331c42.10664,10.85276 87.00286,11.8594 130.00956,6.03262c9.82297,-1.33087 20.07034,-3.6194 29.46595,-7.52594c1.44137,-2.63759 3.8722,-2.68087 5.3011,-2.42997c7.97743,-4.02426 15.09765,-9.4125 20.47844,-16.62123c27.90828,-28.75726 32.62704,-70.61941 29.98489,-108.96319c1.71072,-2.40541 3.17777,-6.64049 4.34181,-11.28581c1.87191,-2.33773 3.24299,-5.08273 3.96467,-8.064c0.15468,0.98922 0.30102,1.98106 0.4395,2.97531c2.72064,-9.9575 0.94022,-21.04338 2.23418,-31.23492z" fill="#000000" stroke-width="0.5"/><path d="M124.84405,369.71164c3.81683,-10.0019 8.79289,-19.01562 12.59932,-28.92895c40.30391,8.81342 82.96469,9.38475 123.71146,3.76943c11.29638,-1.55677 22.86124,-4.27037 33.41814,-8.86477c9.24909,6.57615 9.63649,14.69889 10.41745,25.82309c0.54796,7.8052 1.73262,14.76385 -0.30366,22.33995c-4.05575,13.67451 -20.46786,23.9326 -32.9663,28.73759c-10.18417,3.91527 -21.01872,6.98997 -31.48671,9.74178c-4.66037,1.22511 -9.64555,0.62015 -14.4524,0.95761c-18.38658,1.29082 -35.75995,0.43805 -54.17437,-0.56203c-9.55214,-0.59363 -21.78609,-4.38892 -30.23244,-9.13722c-3.8421,-2.15991 -6.43546,-6.06419 -9.92589,-8.75564c-2.78593,-2.14824 -6.07394,-3.05052 -7.8686,-6.40762c-2.56702,-4.80185 -0.73686,-10.98193 -0.69458,-15.94766c0.01976,-2.3213 -0.95295,-4.65157 -0.60062,-6.94605c0.32132,-2.09245 1.80449,-3.84168 2.55927,-5.81954z" data-paper-data="{&quot;noHover&quot;:false,&quot;origItem&quot;:[&quot;Path&quot;,{&quot;applyMatrix&quot;:true,&quot;segments&quot;:[[[198.90219,248.3042],[0,0],[-0.43031,0.92688]],[[197.47359,251.01669],[0.22546,-0.99672],[-0.24723,1.09295]],[[197.5283,254.37794],[0.08799,-1.11711],[-0.18823,2.38972]],[[197.32325,262.07202],[-1.07377,-2.39902],[0.7507,1.67722]],[[200.8948,265.41899],[-1.26889,-1.12862],[1.58976,1.41401]],[[205.37639,269.96389],[-1.77707,-1.16995],[3.90666,2.57199]],[[219.61618,275.37056],[-4.57958,-0.60877],[8.8333,1.10408]],[[245.63639,277.4566],[-8.89734,0],[2.32606,0]],[[252.61451,277.48888],[-2.28553,0.43238],[5.13369,-0.9712]],[[268.08733,273.87899],[-5.03635,1.54104],[6.18082,-1.89123]],[[284.92516,261.17731],[-2.41524,6.44759],[1.23665,-3.57929]],[[285.8267,250.4423],[0,3.77697],[0,-5.38304]],[[281.68751,237.66997],[4.23141,3.47929],[-5.23879,1.85546]],[[265.29936,240.81508],[5.49218,-0.36775],[-19.81065,1.32648]],[[205.94072,234.81664],[19.10963,5.60643],[-2.16804,4.64489]],[[198.90217,248.3042],[2.17604,-4.68719],[0,0]]],&quot;closed&quot;:true,&quot;fillColor&quot;:[0,0,0],&quot;strokeWidth&quot;:0.5}]}" fill="#667eff" stroke-width="0.25"/><path d="M355.9878,151.17622c-1.29396,10.19154 0.48937,21.29969 -2.23126,31.25719c-0.13848,-0.99424 -0.28489,-1.98832 -0.43957,-2.97755c-0.72169,2.98127 -2.09269,5.73237 -3.9646,8.07011c-1.16405,4.64533 -2.63162,8.88942 -4.34234,11.29485c2.64214,38.34378 -2.11427,80.27567 -30.02255,109.03292c-5.38078,7.20874 -12.51516,12.60667 -20.49259,16.63093c-1.4289,-0.25089 -3.86304,-0.20579 -5.30442,2.43178c-9.39561,3.90655 -19.66136,6.20252 -29.48432,7.53338c-43.0067,5.82678 -87.98575,4.80968 -130.09238,-6.04309c-22.22076,-6.89683 -42.82179,-14.60363 -57.34526,-34.06942c-4.61055,-6.17954 -7.26415,-16.21311 -9.91899,-23.35411c-8.20435,-22.06811 -11.08896,-47.58849 -6.40113,-71.18102c2.59049,-1.49832 2.35595,-4.83876 2.35595,-4.83876c-0.09363,-1.30495 -0.17179,-2.61529 -0.23676,-3.92537c0.60232,-2.09769 1.26955,-4.17833 2.00355,-6.22976c-0.6771,-7.71419 -1.42565,-15.43902 -1.7178,-23.17091c-0.20165,0.46916 -0.40239,0.93969 -0.6021,1.40959c-0.10609,-19.32918 -1.25461,-38.4435 -11.45585,-55.74274l-0.33285,-0.81072c1.57858,0.8498 3.22262,1.72552 5.10159,2.57917c6.49756,2.95201 10.04581,3.34402 16.83233,4.7867l4.70129,-0.13152c0,0 2.05132,-0.14567 3.478,-1.54394c0.79591,-0.30521 1.30807,-0.67807 1.30807,-0.67807c15.58274,-11.33596 30.46871,-23.56319 45.71525,-35.34873c5.26839,-4.07245 10.37481,-9.44184 16.20876,-12.57875c4.74299,-2.5503 10.21399,-3.67715 14.81017,-6.48342c8.25643,-5.04109 16.28653,-10.80636 25.78871,-13.36231l3.56819,-0.23267c10.6873,5.2874 17.17926,13.80041 26.78046,20.89587c7.44524,5.50216 9.09251,6.09694 16.70285,10.26177l5.01183,2.11146c0,0 1.77041,0.73429 3.6024,0.23573c1.29323,0.07445 2.3353,-0.3029 2.3353,-0.3029c15.03646,-5.48265 28.62196,-15.0947 40.4395,-25.88991c9.22487,-8.42684 17.27668,-15.92353 28.12412,-21.87065c2.99209,-1.64041 6.21835,-3.36733 9.62867,-3.48246l3.69135,-0.25818c0.48416,4.21134 1.03166,8.42402 0.79721,12.64153c-0.65803,11.83651 -4.71777,23.36833 -6.22846,35.17072l0.03216,1.41296c-0.00626,0.222 -0.00119,0.45438 0.01585,0.69712c0.12596,1.79424 0.83322,2.92335 1.70034,3.63063c0.8215,0.75978 2.03815,1.30244 3.83239,1.17648c17.41163,-1.22237 35.12583,-3.82417 52.51339,-1.58235l0.0628,0.02999c-0.36812,6.90249 -4.05681,14.3009 -5.76253,20.97001c-4.3136,16.86555 -8.59215,34.70065 -10.76679,51.82846z" data-paper-data="{&quot;noHover&quot;:false,&quot;origItem&quot;:[&quot;Path&quot;,{&quot;applyMatrix&quot;:true,&quot;segments&quot;:[[[317.49428,150.88584],[0,0],[1.62617,-8.17405]],[[324.43511,126.30603],[-2.64728,7.97546],[1.04681,-3.15372]],[[327.92075,116.40671],[-0.4106,3.31132],[0,0]],[[327.89153,116.39016],[0,0],[-8.29686,-1.6673]],[[302.55681,115.38463],[8.42556,0],[-0.86824,0]],[[300.75198,114.68946],[0.36989,0.39363],[-0.39363,-0.36989]],[[300.05681,112.88463],[0,0.86824],[0,-0.11746]],[[300.07285,112.54853],[-0.01052,0.10669],[0,0]],[[300.10536,111.86729],[0,0],[1.12643,-5.63215]],[[304.2973,95.14552],[-0.717,5.6774],[0.25547,-2.02294]],[[304.34241,89.03257],[0.09077,2.04426],[0,0]],[[302.55681,89.03257],[0,0],[-1.64607,-0.05985]],[[297.804,90.38498],[1.49624,-0.68876],[-5.42442,2.49702]],[[283.52583,99.96797],[4.72693,-3.74593],[-6.05545,4.79873]],[[263.1885,111.07211],[7.42586,-2.13175],[0,0]],[[262.05471,111.13928],[0.62021,0.07957],[-0.89902,0.17814]],[260.32959,110.90437],[[257.98994,109.71868],[0,0],[-3.52382,-2.26277]],[[250.30119,104.21341],[3.39911,2.90115],[-4.38341,-3.74125]],[[238.12088,93.24553],[4.96752,2.90734],[0,0]],[[236.39601,93.23674],[0,0],[-4.662,0.90954]],[[223.53584,98.79659],[4.14614,-2.14833],[-2.30807,1.19593]],[[216.19023,101.41553],[2.37011,-1.06771],[-2.91527,1.3133]],[[207.96604,106.92084],[2.67456,-1.78291],[-7.74009,5.15968]],[[184.77057,122.38319],[7.88679,-4.93183],[0,0]],[[184.11797,122.66515],[0.39357,-0.12006],[-0.73426,0.62508]],[182.39149,123.29023],[[180.12357,123.19404],[0,0],[-3.21915,-0.92412]],[[172.18051,120.31934],[3.02898,1.64114],[-0.87592,-0.47458]],[[169.81111,118.90497],[0.73141,0.46257],[0,0]],[[169.94406,119.30647],[0,0],[4.3274,8.67498]],[[173.58107,146.52197],[0.60235,-9.31118],[0.11205,-0.21952]],[[173.91855,145.86402],[-0.11296,0.2191],[-0.1207,3.73302]],[[173.96349,157.07237],[-0.06526,-3.73751],[-0.42279,0.96301]],[[172.78823,160.00248],[0.36095,-0.98974],[-0.013,0.63304]],[[172.76957,161.89942],[-0.00097,-0.63154],[0,0]],[[171.47152,164.14833],[1.29805,-0.63391],[-3.05489,11.20206]],[[172.14281,198.62029],[-3.20462,-10.90383],[1.03698,3.52836]],[[176.12618,210.19519],[-2.01122,-3.1315],[6.33544,9.86435]],[[202.5748,228.5257],[-10.46683,-4.07222],[19.90876,6.64938]],[[264.97447,235.82564],[-20.90603,1.35191],[4.77505,-0.30878]],[[279.41765,233.19778],[-4.65634,1.5635],[0.78323,-1.22135]],[[282.05244,232.20688],[-0.67958,-0.16912],[3.97742,-1.66812]],[[292.47533,224.89553],[-2.83471,3.28933],[14.41085,-12.90405]],[[310.59754,173.44005],[-0.02396,18.55303],[0.90508,-1.10045]],[[313.06978,168.15236],[-0.71756,2.19752],[0.98041,-1.06241]],[[315.2515,164.40332],[-0.4483,1.41118],[0.04104,0.48157]],[[315.36255,165.85088],[-0.03307,-0.48344],[1.64669,-4.70287]],[[317.49429,150.88583],[-0.96761,4.8638],[0,0]]],&quot;closed&quot;:true,&quot;fillColor&quot;:[0,0,0],&quot;strokeWidth&quot;:0.5}]}" fill="#66ecff" stroke-width="0.25"/></g><path d="M109.44443,251.65623c0,-2.34721 1.90279,-4.25 4.25,-4.25c2.34721,0 4.25,1.90279 4.25,4.25c0,2.34721 -1.90279,4.25 -4.25,4.25c-2.34721,0 -4.25,-1.90279 -4.25,-4.25z" fill="#ffffff" stroke-width="0.5"/><path d="M262.44443,209.65623c0,-2.34721 1.90279,-4.25 4.25,-4.25c2.34721,0 4.25,1.90279 4.25,4.25c0,2.34721 -1.90279,4.25 -4.25,4.25c-2.34721,0 -4.25,-1.90279 -4.25,-4.25z" fill="#ffffff" stroke-width="0.5"/></g></g></svg>