<svg version="1.1" xmlns="http://www.w3.org/2000/svg" xmlns:xlink="http://www.w3.org/1999/xlink" width="286.3571" height="299.24144" viewBox="0,0,286.3571,299.24144"><g transform="translate(-128.75,-23.33336)"><g data-paper-data="{&quot;isPaintingLayer&quot;:true}" fill-rule="nonzero" stroke-linecap="butt" stroke-linejoin="miter" stroke-miterlimit="10" stroke-dasharray="" stroke-dashoffset="0" style="mix-blend-mode: normal"><g fill="none" stroke="#ffffff" stroke-width="2.5"><path d=""/><path d=""/></g><path d="M175.27778,189.44446v-65.55555h156.11111v65.55556z" fill="none" stroke="#ffffff" stroke-width="2.5"/><path d="M147.5,201.66669v-28.33334h27.22223v28.33334z" fill="none" stroke="#ffffff" stroke-width="2.5"/><path d="M130,280.41668v-43.33334h45.13889v43.33334z" fill="none" stroke="#ffffff" stroke-width="2.5"/><path d="M317.5,122.7778v-14.44445h13.88889v14.44445z" fill="none" stroke="#ffffff" stroke-width="2.5"/><path d="M302.5,204.0278v-14.44445h13.88889v14.44445z" fill="none" stroke="#ffffff" stroke-width="2.5"/><path d="M331.49196,169.23744v-14.44445h13.88889v14.44445z" fill="none" stroke="#ffffff" stroke-width="2.5"/><path d="M346.67822,204.0278v-49.2348h67.17887v49.2348z" fill="none" stroke="#ffffff" stroke-width="2.5"/><path d="M143.09524,236.23018l0.23809,-23.73016h42.63889v14.44445h-28.4271l0.71428,9.52381z" fill="none" stroke="#ffffff" stroke-width="2.5"/><path d="M157.42608,281.3889l0.11905,21.46825l51.20488,-1.11111v14.44444l-65.41667,1.11111l-1.07143,-35.6746z" data-paper-data="{&quot;index&quot;:null}" fill="none" stroke="#ffffff" stroke-width="2.5"/><path d="M317.08333,64.44446v-14.44445h13.88889v14.44445z" fill="none" stroke="#ffffff" stroke-width="2.5"/><path d="M362.5,64.02779v-14.44445h13.88889v14.44445z" fill="none" stroke="#ffffff" stroke-width="2.5"/><path d="M308.33333,49.44446v-24.44444h28.88889v24.44445z" fill="none" stroke="#ffffff" stroke-width="2.5"/><path d="M353.75,49.0278v-24.44444h28.88889v24.44445z" fill="none" stroke="#ffffff" stroke-width="2.5"/><path d="M206.25,103.19446v-11.94445h13.88889v11.94445z" fill="none" stroke="#ffffff" stroke-width="2.5"/><path d="M303.65384,108.54703v-43.67521h86.45299v43.67521z" fill="none" stroke="#ffffff" stroke-width="2.5"/><path d="M287.82051,234.38036v-29.09188h39.78633v29.09188z" fill="none" stroke="#ffffff" stroke-width="2.5"/><path d="M299.48718,292.43591v-58.39744h12.28633v58.39744z" fill="none" stroke="#ffffff" stroke-width="2.5"/><path d="M210.4594,321.3248v-29.09188c0,0 49.9091,0 70.76609,0c16.52765,0 44.43691,0 44.43691,0v29.09188z" fill="none" stroke="#ffffff" stroke-width="2.5"/><path d="M186.98718,234.79703v-29.09188h99.36966v29.09188z" fill="none" stroke="#ffffff" stroke-width="2.5"/><path d="M188.61111,123.33335v-19.44445h66.66667v19.44445z" fill="none" stroke="#ffffff" stroke-width="2.5"/><path d="M174.55555,90.33335v-24.44444h70.55556v24.44445z" fill="none" stroke="#ffffff" stroke-width="2.5"/><path d="M144.51305,274.14824v-15.89286h15.89285v15.89286z" fill="#ffffff" stroke="none" stroke-width="0"/><text transform="translate(140.66573,252.80895) scale(0.2601,0.2601)" font-size="40" xml:space="preserve" fill="#ffffff" fill-rule="nonzero" stroke="#000000" stroke-width="0" stroke-linecap="butt" stroke-linejoin="miter" stroke-miterlimit="10" stroke-dasharray="" stroke-dashoffset="0" font-family="Pixel" font-weight="normal" text-anchor="start" style="mix-blend-mode: normal"><tspan x="0" dy="0">YOU</tspan></text></g></g></svg>