<svg version="1.1" xmlns="http://www.w3.org/2000/svg" xmlns:xlink="http://www.w3.org/1999/xlink" width="728.22823" height="550.45065" viewBox="0,0,728.22823,550.45065"><defs><linearGradient x1="236.99941" y1="-101.46172" x2="236.99941" y2="186.82657" gradientUnits="userSpaceOnUse" id="color-1"><stop offset="0" stop-color="#ffe7a7" stop-opacity="0.18372"/><stop offset="1" stop-color="#ffe7a7" stop-opacity="0"/></linearGradient></defs><g transform="translate(127.1147,104.81555)"><g data-paper-data="{&quot;isPaintingLayer&quot;:true}" fill-rule="nonzero" stroke-width="0" stroke-linecap="butt" stroke-linejoin="miter" stroke-miterlimit="10" stroke-dasharray="" stroke-dashoffset="0" style="mix-blend-mode: normal"><path d="M-101.59437,243.39311l3.87992,-331.60855h657.03323l-3.87992,331.60855z" fill="#2b2633" stroke="#000000"/><path d="M-109.4722,445.6351v-215.36199h691.18455v215.36199z" fill="#201e23" stroke="#000000"/><path d="M-102.46968,333.2652l-6.78987,-423.36026l141.42226,-14.72049l10.66979,333.77664z" fill="#211d27" stroke="#000000"/><path d="M-69.49035,309.63158l-7.69318,-184.63566l92.85657,-21.08544l5.81988,140.40941z" fill="#000000" stroke="#000000"/><path d="M433.78424,229.6171l4.8499,-318.18147l159.85189,0.61723l-19.39961,421.86837z" data-paper-data="{&quot;index&quot;:null}" fill="#211d27" stroke="#000000"/><path d="M457.20908,245.06587l5.81988,-140.40941l92.36789,15.14246l-7.20449,190.57864z" data-paper-data="{&quot;index&quot;:null}" fill="#000000" stroke="#000000"/><path d="M164.69888,213.61563v-85.23125h150.60223v85.23125z" fill="#000000" stroke="#000000"/><path d="M-127.1147,186.82657v-288.28829h728.22823v288.28829z" fill="url(#color-1)" stroke="none"/></g></g></svg>