<svg version="1.1" xmlns="http://www.w3.org/2000/svg" xmlns:xlink="http://www.w3.org/1999/xlink" width="386.39413" height="346.95479" viewBox="0,0,386.39413,346.95479"><g transform="translate(-3.50483,-15.73448)"><g data-paper-data="{&quot;isPaintingLayer&quot;:true}" fill-rule="nonzero" stroke="none" stroke-width="0.5" stroke-linecap="butt" stroke-linejoin="miter" stroke-miterlimit="10" stroke-dasharray="" stroke-dashoffset="0" style="mix-blend-mode: normal"><path d="M324.99456,334.78234c-3.19175,4.88727 -6.06092,9.5176 -10.65657,13.28472c-3.99051,3.27107 -8.78808,4.81157 -13.36831,6.85008c-2.62715,1.16926 -5.33963,3.11325 -8.05498,4.00234c-1.06337,0.34818 -8.77059,1.59721 -10.3704,1.86385c-9.70879,1.61813 -19.82627,2.38736 -29.6949,1.58625c-3.26492,-0.26504 -6.51493,-0.7952 -9.79013,-0.85035c-7.55709,-2.88352 -15.72108,-3.87602 -23.42833,-6.23405c-1.85106,-0.56633 -3.48849,-1.71531 -5.33771,-2.28759c-1.64971,-0.51054 -3.4671,-0.36332 -5.09455,-0.94089c-4.23811,-1.50406 -9.0143,-5.12666 -10.90596,-9.2525c-1.68884,-3.68346 -1.27995,-6.85099 -1.27544,-10.81516c0.00448,-3.94097 0.64136,-7.91723 1.79309,-11.68616c1.45127,-4.74916 3.84568,-9.05469 6.17048,-13.41985c-12.81216,-3.60094 -25.18193,-8.52278 -36.61136,-15.39235c-4.43879,-2.6679 -12.4262,-8.03754 -15.91721,-12.10958c-1.69486,-1.97695 -2.48771,-4.58394 -3.93637,-6.74779c-3.83503,-5.72835 -8.27915,-10.66189 -11.26579,-17.01818c-1.08974,-2.31922 -1.61696,-4.87527 -2.69924,-7.19798c-0.43229,-0.92774 -0.97451,-1.80094 -1.52823,-2.6678c-1.27238,0.61884 -2.52984,0.70529 -2.85634,0.71737c-4.5254,1.51241 -9.12293,3.04254 -13.88621,3.57175c-6.58464,0.73156 -13.78103,0.0292 -20.38567,0.0292c-1.02292,0 -6.5702,0.00627 -6.88945,-0.0292c-2.7952,-0.31055 -5.44748,-1.47818 -8.2396,-1.81525c-9.42555,-1.13784 -20.06209,-2.07878 -28.89543,-5.96364c-3.71814,-1.63522 -7.18303,-4.48987 -10.82704,-6.31304c-3.21329,-1.60768 -6.63466,-3.00287 -9.36276,-5.34109c-2.28794,-1.96097 -4.98288,-5.21489 -7.26829,-7.25994c-1.61244,-1.44286 -3.5795,-2.50241 -5.01501,-4.12141c-3.2154,-3.6264 -6.21268,-9.28442 -8.72488,-13.45784c-7.72053,-13.36376 -7.16858,-28.54488 -7.15327,-43.57561c0.00967,-9.49555 1.46932,-18.38817 2.75176,-27.78456c0.42464,-3.11131 0.33871,-6.29349 0.9616,-9.37125c3.13975,-15.51375 11.16952,-28.85879 19.79277,-41.75827c1.66398,-2.48914 2.92122,-5.25936 4.79082,-7.59799c1.94735,-2.43587 4.46969,-4.35399 6.59137,-6.63962c1.97771,-2.13052 3.56394,-4.62844 5.69938,-6.60083c2.43254,-2.24681 5.2854,-3.99075 7.92811,-5.98613c12.57791,-9.14327 25.72177,-18.27555 40.24984,-24.13192c8.44655,-3.40486 17.63794,-5.70439 26.4303,-8.02052c11.5255,-3.03612 23.05226,-5.9818 34.89804,-7.52074c11.01258,-1.43069 22.12012,-0.98933 33.19415,-0.94864c27.21139,0.1 54.28718,4.30412 80.13748,12.90425c3.76455,1.26313 7.65185,2.20681 11.29366,3.7894c3.59831,1.56369 6.8655,3.80132 10.34505,5.61396c6.88797,3.58824 13.81416,7.10441 20.65654,10.77882c11.77923,6.32553 23.57081,12.09452 34.18773,20.37648c4.93227,3.84753 9.06551,8.63546 13.29749,13.24209c1.88655,2.05356 4.23991,3.69979 5.86361,5.96692c1.67669,2.34112 2.45953,5.21665 3.92236,7.69702c5.61075,9.51362 11.49793,18.37106 14.91409,29.05538c3.08673,9.654 6.05597,20.62668 7.43009,30.69883c1.47261,10.79402 0.95811,21.74813 0.95252,32.6019c-0.91528,10.08957 -1.81568,20.4338 -4.73245,30.1996c-1.81098,6.06346 -4.58443,11.81914 -6.27606,17.91698c-1.64517,5.93039 -2.94925,12.09927 -5.92426,17.48678c-4.59821,8.327 -10.69779,14.14049 -17.04964,20.97821c-2.76712,2.97879 -9.49003,11.46607 -12.07059,13.86604c-1.99384,1.85432 -4.48553,3.09411 -6.62699,4.7758c-2.29741,1.80415 -4.22173,4.09398 -6.67905,5.67341c-3.47811,2.23554 -7.27325,3.9743 -11.15126,5.49264c10.59708,6.4395 9.76743,19.64907 5.69747,29.83766zM211.51847,320.00811c-0.26184,0.57019 -2.51064,7.92358 -2.55919,8.23796c-0.42468,2.74993 -0.10339,5.56749 0.01304,8.34759c0.02499,0.59681 -0.03196,1.40943 0.47306,1.72844c1.38031,0.87194 2.60215,2.10703 4.16616,2.57545c1.30847,0.39188 2.7496,0.18484 4.05581,0.58417c1.85118,0.56594 3.48854,1.71514 5.33771,2.28759c7.29464,2.2582 15.26329,2.97452 22.3235,5.96644c8.81134,-0.19662 17.68481,1.35353 26.5841,0.67471c2.91876,-0.22264 5.77144,-0.98263 8.65885,-1.46387c2.63649,-0.43941 5.40158,-0.32049 7.93033,-1.18627c2.41901,-0.82821 4.83559,-2.57562 7.19562,-3.62297c3.6221,-1.60743 7.90622,-2.6711 11.03266,-5.3504c3.28411,-2.81442 5.23996,-6.08799 7.64416,-9.5912c1.69298,-4.22171 2.79111,-9.15473 -0.05891,-13.18801c-0.8883,-1.2571 -4.86651,-1.55314 -5.99907,-1.83628l-2.99256,-4.33489c-9.08689,2.86569 -18.58846,5.03116 -28.0413,5.88843c-0.44241,0.04012 -18.57811,0.01883 -19.70542,0.01808c-13.48212,-1.22296 -27.20095,-2.95657 -40.61429,-5.88336c-1.76916,3.36745 -3.88338,6.74939 -5.44428,10.14839zM210.46377,177.95839c1.10484,-1.43872 3.14345,-2.96822 6.50747,-1.84688c5.6921,1.89737 3.79473,7.58946 3.79473,7.58946l-1.60928,3.35156c-2.33764,1.82883 -4.09347,4.95172 -7.01292,5.4865c-2.33312,0.42738 -4.36597,-1.87512 -6.44232,-3.02178c-0.80833,-0.44639 -1.44212,-1.15369 -2.16317,-1.73054c-4.02024,-3.23575 -7.34252,-7.1287 -11.1137,-10.63789c-1.52881,-1.4226 -3.36597,-2.49773 -4.84407,-3.97294c-1.94264,-1.93885 -3.42696,-4.30398 -5.37439,-6.23802c-5.42862,-5.3913 -11.26496,-10.43772 -16.26052,-16.28623c-1.72168,-2.01564 -3.43842,-4.03723 -5.15494,-6.0603c-4.25279,4.23475 -8.08142,8.83821 -11.05339,14.19404c-7.79168,14.04146 -9.15748,31.30268 -9.16883,47.01851c-1.19314,8.352 -1.60661,17.10608 -0.08692,25.46537c0.37193,2.04583 0.68117,4.13829 1.4689,6.06268c0.87317,2.13314 2.48677,3.89717 3.46277,5.98526c1.08506,2.32142 1.62231,4.87278 2.69924,7.19798c2.67257,5.7703 6.87554,10.17069 10.32815,15.37273c1.23439,1.85986 1.834,4.13266 3.26161,5.84867c5.31054,6.38337 15.18129,11.06401 22.34796,14.64938c22.50545,11.25911 49.25687,15.10819 74.07067,17.36945c6.02799,-0.00426 12.08087,0.56528 18.08398,0.01808c10.18335,-0.92825 20.4489,-3.54164 30.0559,-6.88817c5.30075,-1.84648 12.71617,-4.27775 17.54991,-7.43028c2.18539,-1.4253 3.86629,-3.51102 5.91742,-5.12357c1.91594,-1.50627 4.18207,-2.56491 5.96948,-4.22168c0.67674,-0.62728 10.56926,-12.31453 11.32283,-13.12639c5.69594,-6.13649 11.18349,-11.18206 15.34127,-18.61068c2.55279,-4.56101 3.47211,-9.86846 4.87271,-14.90412c1.71018,-6.14867 4.47836,-11.96245 6.3204,-18.07292c2.66135,-8.82832 3.43348,-18.25875 4.26502,-27.38423c-0.00545,-10.09512 0.5214,-20.34031 -0.84698,-30.38042c-1.28457,-9.42513 -4.10536,-19.64575 -6.96587,-28.6845c-3.12595,-9.87749 -8.7281,-17.93881 -13.87782,-26.72897c-1.25646,-2.14468 -1.83391,-4.67413 -3.27562,-6.69893c-1.33486,-1.87471 -3.36785,-3.14317 -4.93336,-4.83005c-3.82342,-4.11983 -7.45321,-8.50726 -11.89544,-11.95084c-10.0712,-7.8071 -21.24416,-13.22653 -32.39359,-19.2124c-13.26421,-7.12127 -26.18209,-14.67473 -40.4815,-19.4067c-24.63321,-8.22775 -50.48393,-12.194 -76.41856,-12.28869c-10.52033,-0.03841 -21.12595,-0.51962 -31.58766,0.85085c-11.32877,1.48406 -22.34726,4.31664 -33.37088,7.22263c-8.29112,2.18566 -16.98326,4.31867 -24.95395,7.52707c-13.596,5.47273 -25.89649,14.11854 -37.65664,22.67555c-2.28421,1.69689 -4.76655,3.15541 -6.85263,5.09069c-1.92313,1.7841 -3.31225,4.07365 -5.09758,5.99563c-1.91889,2.06575 -4.24294,3.75586 -6.00509,5.95684c-1.66545,2.0802 -2.7315,4.57877 -4.20665,6.79797c-7.69318,11.57346 -15.24355,23.46423 -17.99663,37.4195c-0.55898,2.83349 -0.44803,5.76203 -0.8379,8.62369c-1.20572,8.85017 -2.65638,17.25315 -2.64672,26.20029c0.00682,6.31141 -0.46538,12.98993 -0.02045,19.29956c0.23842,3.38114 1.73161,6.5545 2.54276,9.84554c0.38479,1.56123 0.1709,3.25584 0.70716,4.77172c0.45896,1.29738 1.4758,2.32323 2.21371,3.48484c1.61171,2.69602 3.50509,5.21345 5.23262,7.83677c0.82407,1.25138 1.24067,2.78008 2.23795,3.89832c2.31476,2.59552 5.36486,4.4431 7.82257,6.90369c1.38745,1.38908 3.93731,4.26273 5.89489,5.31028c1.33369,0.7137 2.87224,0.97888 4.22536,1.655c3.62736,1.8125 7.08669,4.62306 10.7669,6.28342c4.26139,1.92256 9.21348,2.26163 13.74128,3.08719c8.32737,1.51835 16.51095,3.50069 25.01099,3.50069c6.19924,0 13.02114,0.71617 19.20322,0.0292c4.17005,-0.46339 8.23708,-2.00262 12.19007,-3.32029l1.40442,-0.1546c-2.0394,-9.64884 -1.43059,-20.30896 -0.09347,-29.66879c-0.01291,-17.48013 1.97316,-36.39445 10.62561,-51.9537c3.61057,-6.4927 8.26522,-12.43761 13.58585,-17.78946c-3.61606,-4.22299 -7.26321,-8.42234 -10.98478,-12.5572c0,0 -4.01379,-4.45977 0.44598,-8.47356c4.45977,-4.01379 8.47356,0.44598 8.47356,0.44598c3.73173,4.14657 7.39548,8.35296 11.0264,12.58471c6.14573,-4.89022 12.7933,-9.11551 19.51976,-12.62525c8.82668,-4.6056 10.25449,-5.87561 20.18236,-6.95121c7.20322,-0.78041 9.12508,0.11996 15.71012,0.91425c3.25243,0.39231 6.58398,0.29267 9.77221,1.04596c3.27826,0.77456 6.19939,2.65812 9.39716,3.71696c0,0 5.6921,1.89737 3.79474,7.58947c-1.89737,5.6921 -7.58947,3.79473 -7.58947,3.79473c-2.9316,-0.98266 -5.58727,-2.77621 -8.59778,-3.48101c-2.67993,-0.62741 -5.48812,-0.44117 -8.22273,-0.75353c-5.80078,-0.66259 -6.94079,-1.50666 -13.0818,-0.88524c-7.84392,0.79375 -8.60881,1.8576 -15.80754,5.64525c-6.05679,3.18682 -11.88478,6.92533 -17.14385,11.30825c1.79202,2.1148 3.58228,4.22964 5.37511,6.34028c4.81438,5.6678 10.5377,10.48146 15.7544,15.72868c6.42403,6.46161 12.49447,13.57847 19.62983,19.36083z" fill="#000000"/><path d="M216.91712,309.83928c13.41334,2.92679 27.16196,4.63341 40.64408,5.85637c1.12731,0.00075 19.31467,0.03458 19.75707,-0.00554c9.45284,-0.85727 18.96376,-3.0093 28.05065,-5.87499l2.99459,4.33985c1.13256,0.28314 5.1118,0.58248 6.00009,1.83958c2.85002,4.03328 1.75365,8.97853 0.06067,13.20023c-2.4042,3.50321 -4.36096,6.78725 -7.64507,9.60167c-3.12645,2.6793 -7.41352,3.75277 -11.03563,5.3602c-2.36003,1.04734 -4.78126,2.80336 -7.20026,3.63157c-2.52875,0.86578 -5.30053,0.75485 -7.93702,1.19427c-2.88741,0.48124 -5.75361,1.25057 -8.67237,1.47321c-8.89929,0.67882 -17.82696,-0.87894 -26.6383,-0.68232c-7.0602,-2.99192 -15.04322,-3.72961 -22.33786,-5.98781c-1.84917,-0.57245 -3.48774,-1.72571 -5.33892,-2.29165c-1.30621,-0.39933 -2.74771,-0.19381 -4.05617,-0.58569c-1.56401,-0.46842 -2.78643,-1.70663 -4.16674,-2.57857c-0.50501,-0.31902 -0.44829,-1.13327 -0.47328,-1.73008c-0.11643,-2.7801 -0.43804,-5.60542 -0.01336,-8.35536c0.04855,-0.31439 2.29829,-7.67576 2.56014,-8.24595c1.5609,-3.39901 3.67851,-6.79155 5.44768,-10.159z" data-paper-data="{&quot;noHover&quot;:false,&quot;origItem&quot;:[&quot;Path&quot;,{&quot;applyMatrix&quot;:true,&quot;selected&quot;:true,&quot;segments&quot;:[[[211.51847,320.00811],[1.5609,-3.39901],[-0.26184,0.57019],7],[[208.95928,328.24607],[0.04855,-0.31439],[-0.42468,2.74993],7],[[208.97232,336.59366],[-0.11643,-2.7801],[0.02499,0.59681],7],[[209.44538,338.3221],[-0.50501,-0.31902],[1.38031,0.87194],7],[[213.61154,340.89755],[-1.56401,-0.46842],[1.30847,0.39188],7],[[217.66735,341.48172],[-1.30621,-0.39933],[1.85118,0.56594],7],[[223.00507,343.76931],[-1.84917,-0.57245],[7.29464,2.2582],7],[[245.32856,349.73575],[-7.0602,-2.99192],[8.81134,-0.19662],7],[[271.91266,350.41047],[-8.89929,0.67882],[2.91876,-0.22264],7],[[280.57151,348.9466],[-2.88741,0.48124],[2.63649,-0.43941],7],[[288.50184,347.76032],[-2.52875,0.86578],[2.41901,-0.82821],7],[[295.69747,344.13736],[-2.36003,1.04734],[3.6221,-1.60743],7],[[306.73013,338.78695],[-3.12645,2.6793],[3.28411,-2.81442],7],[[314.3743,329.19576],[-2.4042,3.50321],[1.69298,-4.22171],7],[[314.31539,316.00774],[2.85002,4.03328],[-0.8883,-1.2571],7],[[308.31632,314.17146],[1.13256,0.28314],[0,0],7],[[305.32376,309.83656],[0,0],[-9.08689,2.86569],7],[[277.28246,315.725],[9.45284,-0.85727],[-0.44241,0.04012],7],[[257.57704,315.74308],[1.12731,0.00075],[-13.48212,-1.22296],7],[[216.96276,309.85972],[13.41334,2.92679],[-1.76916,3.36745],7]],&quot;closed&quot;:true}]}" fill="#04ff00"/><path d="M190.86507,158.6367c-5.2167,-5.24722 -11.00531,-10.13651 -15.81969,-15.80431c-1.79283,-2.11064 -3.58272,-4.22583 -5.37474,-6.34063c5.25907,-4.38291 11.10917,-8.13319 17.16597,-11.32001c7.19872,-3.78765 7.98177,-4.85246 15.82569,-5.64621c6.141,-0.62143 7.29395,0.22615 13.09473,0.88874c2.73461,0.31236 5.54951,0.12956 8.22944,0.75697c3.01051,0.70481 5.67294,2.50333 8.60455,3.48599c0,0 5.62444,1.97095 7.5218,-3.72115c1.89736,-5.6921 -3.79011,-7.58551 -3.79011,-7.58551c-3.19778,-1.05884 -6.11248,-2.93827 -9.39074,-3.71283c-3.18823,-0.75329 -6.51294,-0.6506 -9.76537,-1.04291c-6.58504,-0.79429 -8.49416,-1.69189 -15.69739,-0.91149c-9.92787,1.0756 -11.3372,2.3437 -20.16389,6.9493c-6.72645,3.50974 -13.35486,7.72426 -19.50059,12.61448c-3.63092,-4.23176 -7.2948,-8.43803 -11.02653,-12.5846c0,0 -4.01091,-4.46256 -8.47067,-0.44877c-4.45977,4.01379 -0.44295,8.47006 -0.44295,8.47006c3.72157,4.13487 7.37042,8.33192 10.98649,12.55491c-5.32064,5.35185 -9.96746,11.27902 -13.57803,17.77172c-8.65245,15.55925 -10.64396,34.43773 -10.63105,51.91785c-1.33712,9.35983 -1.95413,20.00929 0.08526,29.65813l-1.47502,0.22542c-3.95299,1.31767 -8.02198,2.85481 -12.19203,3.3182c-6.18207,0.68697 -13.0072,-0.03323 -19.20644,-0.03323c-8.50003,0 -16.68685,-1.9875 -25.01423,-3.50584c-4.5278,-0.82556 -9.48127,-1.16732 -13.74265,-3.08988c-3.68021,-1.66036 -7.1408,-4.47383 -10.76816,-6.28634c-1.35312,-0.67612 -2.89202,-0.94218 -4.2257,-1.65588c-1.95757,-1.04755 -4.50812,-3.92317 -5.89557,-5.31225c-2.4577,-2.46059 -5.50855,-4.31064 -7.82331,-6.90616c-0.99728,-1.11824 -1.41419,-2.64814 -2.23826,-3.89952c-1.72753,-2.62331 -3.62144,-5.14316 -5.23315,-7.83918c-0.7379,-1.16161 -1.75493,-2.1885 -2.2139,-3.48588c-0.53627,-1.51588 -0.32257,-3.21182 -0.70737,-4.77305c-0.81115,-3.29104 -2.30465,-6.46717 -2.54308,-9.8483c-0.44493,-6.30964 0.02709,-12.99346 0.02027,-19.30487c-0.00967,-8.94714 1.44168,-17.35736 2.6474,-26.20753c0.38987,-2.86166 0.27936,-5.79254 0.83835,-8.62603c2.75308,-13.95527 10.30716,-25.85692 18.00034,-37.43038c1.47516,-2.2192 2.54222,-4.71979 4.20767,-6.79998c1.76215,-2.20098 4.08735,-3.89311 6.00623,-5.95887c1.78534,-1.92198 3.17565,-4.21344 5.09878,-5.99754c2.08608,-1.93528 4.56976,-3.39573 6.85397,-5.09263c11.76014,-8.55701 24.06952,-17.21221 37.66552,-22.68494c7.97069,-3.2084 16.66946,-5.34598 24.96058,-7.53164c11.02362,-2.90599 22.05259,-5.7431 33.38136,-7.22716c10.46171,-1.37047 21.07823,-0.89128 31.59856,-0.85287c25.93463,0.09469 51.81231,4.06661 76.44552,12.29436c14.29941,4.73196 27.22937,12.29439 40.49359,19.41565c11.14942,5.98588 22.32932,11.41404 32.40052,19.22115c4.44223,3.44357 8.0744,7.83526 11.89781,11.95509c1.56551,1.68688 3.59932,2.95705 4.93418,4.83177c1.44172,2.0248 2.02001,4.55625 3.27647,6.70093c5.14972,8.79017 10.75433,16.8596 13.88028,26.73709c2.86051,9.03875 5.68235,19.2675 6.96691,28.69263c1.36838,10.04011 0.84122,20.29364 0.84666,30.38877c-0.83154,9.12548 -1.60515,18.56332 -4.26651,27.39164c-1.84204,6.11047 -4.61188,11.92918 -6.32206,18.07785c-1.4006,5.03566 -2.32164,10.34697 -4.87443,14.90799c-4.15778,7.42862 -9.6486,12.4798 -15.34454,18.61629c-0.75358,0.81186 -10.64895,12.50294 -11.32569,13.13022c-1.7874,1.65677 -4.05483,2.71691 -5.97077,4.22318c-2.05112,1.61255 -3.73352,3.69987 -5.91891,5.12517c-4.83374,3.15253 -12.25292,5.5873 -17.55368,7.43378c-9.60699,3.34654 -19.87965,5.96489 -30.063,6.89313c-6.00311,0.5472 -12.0606,-0.01998 -18.0886,-0.01572c-24.81381,-2.26126 -51.59078,-6.10627 -74.09623,-17.36538c-7.16667,-3.58537 -17.04789,-8.26826 -22.35843,-14.65163c-1.42761,-1.71602 -2.02938,-3.98959 -3.26377,-5.84944c-3.45261,-5.20204 -7.6626,-9.60576 -10.33517,-15.37606c-1.07693,-2.3252 -1.6169,-4.87824 -2.70196,-7.19965c-0.976,-2.08809 -2.5924,-3.85412 -3.46557,-5.98726c-0.78772,-1.92439 -1.09916,-4.01862 -1.47108,-6.06445c-1.51969,-8.3593 -1.11438,-17.1223 0.07876,-25.4743c0.01135,-15.71582 1.36843,-33.01352 9.16011,-47.05499c2.97197,-5.35583 6.80705,-9.97735 11.05984,-14.21211c1.71652,2.02308 3.52105,4.09242 5.24273,6.10806c4.99556,5.8485 10.83697,10.86899 16.26559,16.26029c1.94743,1.93404 3.42074,4.27142 5.36339,6.21027c1.4781,1.47521 3.2938,2.53494 4.8226,3.95753c3.77118,3.50919 7.06101,7.40134 11.08125,10.63709c0.72106,0.57684 1.35196,1.28514 2.1603,1.73154c2.07636,1.14666 4.10198,3.45262 6.4351,3.02524c2.91945,-0.53478 4.664,-3.6487 7.00164,-5.47753l1.60549,-3.34702c0,0 1.89293,-5.68488 -3.79917,-7.58224c-3.36402,-1.12134 -5.3203,0.46353 -6.42514,1.90225c-7.13536,-5.78236 -13.21235,-12.89297 -19.63637,-19.35458z" data-paper-data="{&quot;noHover&quot;:false,&quot;origItem&quot;:[&quot;Path&quot;,{&quot;applyMatrix&quot;:true,&quot;selected&quot;:true,&quot;segments&quot;:[[[210.46377,177.95839],[-7.13536,-5.78236],[1.10484,-1.43872],7],[[216.97124,176.11151],[-3.36402,-1.12134],[5.6921,1.89737],7],[[220.76597,183.70097],[0,0],[0,0],7],[[219.1567,187.05254],[0,0],[-2.33764,1.82883],7],[[212.14378,192.53904],[2.91945,-0.53478],[-2.33312,0.42738],7],[[205.70146,189.51726],[2.07635,1.14666],[-0.80833,-0.44639],7],[[203.53829,187.78672],[0.72106,0.57684],[-4.02024,-3.23575],7],[[192.42459,177.14883],[3.77118,3.50919],[-1.52881,-1.4226],7],[[187.58052,173.17589],[1.4781,1.47521],[-1.94264,-1.93885],7],[[182.20613,166.93787],[1.94743,1.93404],[-5.42862,-5.3913],7],[[165.94561,150.65164],[4.99556,5.8485],[-1.72168,-2.01564],7],[[160.79067,144.59133],[1.71652,2.02308],[-4.25279,4.23475],7],[[149.73727,158.78538],[2.97197,-5.35583],[-7.79168,14.04146],7],[[140.56844,205.80388],[0.01135,-15.71582],[-1.19314,8.352],7],[[140.48152,231.26926],[-1.51969,-8.3593],[0.37193,2.04583],7],[[141.95042,237.33194],[-0.78772,-1.92439],[0.87317,2.13314],7],[[145.41319,243.3172],[-0.976,-2.08809],[1.08506,2.32142],7],[[148.11243,250.51518],[-1.07693,-2.3252],[2.67257,5.7703],7],[[158.44058,265.88791],[-3.45261,-5.20205],[1.23439,1.85986],7],[[161.70218,271.73658],[-1.42761,-1.71601],[5.31054,6.38337],7],[[184.05014,286.38596],[-7.16667,-3.58537],[22.50545,11.25911],7],[[258.12081,303.75541],[-24.81381,-2.26126],[6.02799,-0.00426],7],[[276.20479,303.77349],[-6.00311,0.5472],[10.18335,-0.92825],7],[[306.26069,296.88532],[-9.60699,3.34654],[5.30075,-1.84648],7],[[323.81059,289.45504],[-4.83374,3.15253],[2.18539,-1.4253],7],[[329.72801,284.33147],[-2.05112,1.61255],[1.91594,-1.50627],7],[[335.69749,280.10979],[-1.78741,1.65677],[0.67674,-0.62728],7],[[347.02032,266.98341],[-0.75357,0.81186],[5.69594,-6.13649],7],[[362.36159,248.37273],[-4.15778,7.42862],[2.55279,-4.56101],7],[[367.2343,233.46861],[-1.4006,5.03566],[1.71018,-6.14867],7],[[373.5547,215.39569],[-1.84204,6.11047],[2.66135,-8.82832],7],[[377.81972,188.01146],[-0.83154,9.12548],[-0.00545,-10.09512],7],[[376.97274,157.63104],[1.36838,10.04011],[-1.28457,-9.42513],7],[[370.00687,128.94654],[2.86051,9.03875],[-3.12595,-9.87749],7],[[356.12906,102.21757],[5.14972,8.79017],[-1.25646,-2.14468],7],[[352.85343,95.51864],[1.44172,2.0248],[-1.33486,-1.87471],7],[[347.92007,90.68859],[1.56551,1.68688],[-3.82342,-4.11983],7],[[336.02463,78.73775],[4.44223,3.44358],[-10.0712,-7.8071],7],[[303.63105,59.52535],[11.14942,5.98588],[-13.26421,-7.12127],7],[[263.14954,40.11865],[14.29941,4.73196],[-24.63321,-8.22775],7],[[186.73098,27.82996],[25.93464,0.09469],[-10.52033,-0.03841],7],[[155.14331,28.68082],[10.46171,-1.37047],[-11.32877,1.48406],7],[[121.77244,35.90344],[11.02362,-2.90599],[-8.29112,2.18566],7],[[96.81849,43.43051],[7.97069,-3.2084],[-13.596,5.47273],7],[[59.16185,66.10606],[11.76014,-8.55701],[-2.28421,1.69689],7],[[52.30922,71.19675],[2.08608,-1.93528],[-1.92313,1.7841],7],[[47.21164,77.19238],[1.78534,-1.92199],[-1.91889,2.06575],7],[[41.20655,83.14922],[1.76215,-2.20098],[-1.66545,2.0802],7],[[36.9999,89.94719],[1.47515,-2.2192],[-7.69318,11.57346],7],[[19.00327,127.36669],[2.75308,-13.95527],[-0.55898,2.83349],7],[[18.16537,135.99038],[0.38987,-2.86167],[-1.20572,8.85017],7],[[15.51865,162.19067],[-0.00967,-8.94714],[0.00682,6.31141],7],[[15.49821,181.49023],[-0.44493,-6.30964],[0.23842,3.38114],7],[[18.04097,191.33577],[-0.81115,-3.29104],[0.38479,1.56123],7],[[18.74813,196.1075],[-0.53627,-1.51588],[0.45896,1.29738],7],[[20.96184,199.59233],[-0.73791,-1.16161],[1.61171,2.69602],7],[[26.19446,207.4291],[-1.72753,-2.62331],[0.82407,1.25138],7],[[28.43241,211.32742],[-0.99728,-1.11824],[2.31476,2.59552],7],[[36.25498,218.23111],[-2.45771,-2.46059],[1.38745,1.38908],7],[[42.14986,223.54139],[-1.95757,-1.04755],[1.33369,0.7137],7],[[46.37523,225.19639],[-1.35312,-0.67612],[3.62736,1.8125],7],[[57.14213,231.47981],[-3.68021,-1.66036],[4.26139,1.92256],7],[[70.88341,234.567],[-4.5278,-0.82556],[8.32737,1.51835],7],[[95.8944,238.06769],[-8.50003,0],[6.19924,0],7],[[115.09762,238.09689],[-6.18207,0.68697],[4.17005,-0.46339],7],[[127.28769,234.7766],[-3.95299,1.31767],[0,0],7],[[128.69211,234.622],[0,0],[-2.0394,-9.64884],7],[[128.59863,204.95321],[-1.33712,9.35983],[-0.01291,-17.48013],7],[[139.22424,152.99951],[-8.65245,15.55925],[3.61057,-6.4927],7],[[152.8101,135.21005],[-5.32064,5.35185],[-3.61606,-4.22299],7],[[141.82532,122.65285],[3.72157,4.13487],[0,0],7],[[142.27129,114.17929],[-4.45977,4.01379],[4.45977,-4.01379],7],[[150.74485,114.62527],[0,0],[3.73173,4.14657],7],[[161.77125,127.20998],[-3.63092,-4.23175],[6.14573,-4.89022],7],[[181.291,114.58473],[-6.72645,3.50974],[8.82668,-4.6056],7],[[201.47336,107.63352],[-9.92787,1.0756],[7.20322,-0.78041],7],[[217.18348,108.54777],[-6.58504,-0.79429],[3.25243,0.39231],7],[[226.9557,109.59374],[-3.18823,-0.75329],[3.27826,0.77456],7],[[236.35286,113.3107],[-3.19778,-1.05884],[0,0],7],[[240.1476,120.90017],[1.89736,-5.6921],[-1.89737,5.6921],7],[[232.55813,124.6949],[0,0],[-2.9316,-0.98266],7],[[223.96035,121.21388],[3.01051,0.70481],[-2.67993,-0.62741],7],[[215.73761,120.46035],[2.73461,0.31236],[-5.80078,-0.66259],7],[[202.65582,119.57511],[6.14101,-0.62143],[-7.84392,0.79375],7],[[186.84828,125.22036],[7.19872,-3.78765],[-6.05679,3.18682],7],[[169.70443,136.52861],[5.25907,-4.38291],[1.79202,2.1148],7],[[175.07955,142.86889],[-1.79283,-2.11064],[4.81438,5.6678],7],[[190.83395,158.59756],[-5.2167,-5.24722],[6.42403,6.46161],7]],&quot;closed&quot;:true}]}" fill="#ffffff"/><path d="M204.19319,205.59107c1.30587,1.73016 1.30587,3.90111 1.30587,3.90111v1.73054c0,1.22024 0.01102,8.87696 -0.05309,9.01645c-0.11309,0.24604 -0.232,0.48871 -0.35614,0.72835l0.19781,0.05395l-1.26361,4.63322c-0.64956,2.61167 -3.0102,4.54704 -5.82287,4.54704c-2.69904,0 -4.98184,-1.78214 -5.73586,-4.23389l-0.82152,-2.46455l0.14949,-0.04983l-0.23968,-0.24594c-1.12423,-5.01761 -1.95496,-9.41195 -1.94825,-14.58062c0.00294,-2.26337 -0.78707,-4.68507 0.04495,-6.78997c0.09096,-0.23011 0.18589,-0.45824 0.28447,-0.68454l-0.15028,-0.03757l1.7001,-6.80038c0.60635,-2.67192 2.99588,-4.66655 5.85129,-4.66655c2.69904,0 4.98183,1.78214 5.73585,4.23389l0.82152,2.46454l-0.48272,0.16091l0.71315,0.77536c0.04058,2.7698 0.06017,5.53912 0.06951,8.30847z" fill="#000000"/><path d="M301.53582,206.88897c1.30586,1.73016 1.30587,3.90111 1.30587,3.90111v1.73054c0,1.22024 0.01103,8.87695 -0.05309,9.01644c-0.11309,0.24604 -0.232,0.48871 -0.35614,0.72835l0.19781,0.05395l-1.26361,4.63322c-0.64956,2.61167 -3.0102,4.54705 -5.82288,4.54705c-2.69903,0 -4.98183,-1.78214 -5.73586,-4.23389l-0.82151,-2.46455l0.14949,-0.04983l-0.23968,-0.24594c-1.12423,-5.01761 -1.95495,-9.41195 -1.94824,-14.58062c0.00293,-2.26337 -0.78707,-4.68508 0.04496,-6.78997c0.09096,-0.23011 0.18588,-0.45824 0.28447,-0.68454l-0.15028,-0.03757l1.70009,-6.80038c0.60635,-2.67192 2.99588,-4.66655 5.85129,-4.66655c2.69903,0 4.98183,1.78214 5.73585,4.23389l0.82152,2.46455l-0.48273,0.1609l0.71316,0.77536c0.04059,2.7698 0.06016,5.53912 0.06951,8.30847z" fill="#000000"/><path d="M343.91508,107.04164c4.24264,4.24264 0,8.48529 0,8.48529l-0.01992,-0.19738c-4.83029,7.56665 -7.21319,16.5494 -12.12948,24.25253c-8.61119,13.4925 -21.15374,24.31306 -31.71244,36.22883c-3.41113,3.84955 -5.85345,8.60771 -9.7657,11.94673c-1.90204,1.62335 -3.90435,3.69914 -6.39502,3.92183c-2.36748,0.21168 -4.64131,-1.37864 -6.57402,-2.76225c-1.46699,-1.05021 -2.52303,-2.66506 -3.28892,-4.29857c-0.65711,-1.4015 -0.57706,-3.04154 -0.86559,-4.56231c0,0 -0.84853,-5.93969 5.09116,-6.78822c3.41771,-0.48825 5.1498,1.27101 6.00453,2.85298c0.34836,-0.37165 0.69199,-0.74628 1.00962,-1.13742c4.31925,-5.31881 9.01559,-10.32119 13.62542,-15.39023c7.72483,-8.49432 16.54046,-16.66793 22.72643,-26.42142c4.90014,-7.72611 7.36386,-16.50841 12.09802,-24.20247l1.71061,-1.92791c0,0 4.24265,-4.24264 8.48529,0z" fill="#000000"/><path d="M304.6291,288.17467c-6,0 -6,-6 -6,-6l0.17914,-0.70796c-0.42528,-1.73018 -1.24649,-4.46107 -1.32854,-6.59887c-1.67757,-0.06968 -3.3849,-0.76455 -5.06018,-1.04757c-1.92624,-0.32542 -3.90998,0.18176 -5.86022,0.06829c-5.95014,-0.3462 -12.10017,-0.6829 -17.94502,-1.7456c-5.57501,0.02079 -11.00669,-0.63168 -16.56415,-0.84544c-9.69708,-0.37299 -19.48253,0.02541 -29.18885,0.00442c-3.05383,-0.0066 -6.10306,0.37347 -9.12578,0.80831c-1.33295,0.19175 -2.67719,0.29467 -4.01509,0.44822c-0.98871,0.11347 -1.97692,0.23132 -2.96467,0.35282c-0.17819,0.02192 -0.50104,0.03304 -0.78716,0.02647c0.32237,0.53943 0.17731,2.07502 0.44739,2.80664c0.29185,0.79055 0.88064,1.43702 1.32097,2.15554c0,0 2.97683,5.20946 -2.23263,8.18629c-5.20946,2.97683 -8.18629,-2.23263 -8.18629,-2.23263c-2.28075,-4.15773 -5.28967,-10.79121 -2.92962,-15.65615c1.0878,-2.24236 3.06094,-4.03261 5.09631,-5.47093c3.26754,-2.30904 8.81601,-1.96522 12.60118,-2.50235c18.99139,-2.69495 38.52267,-0.09648 57.60604,-0.03272c5.7199,1.03998 11.71078,1.36872 17.53096,1.71547c1.95186,0.11629 5.28379,-0.1944 7.1188,0.06829c0.90287,0.12925 1.69312,0.73477 2.5958,0.86527c3.4875,0.50418 5.11074,-1.54703 8.80062,1.63561c4.18825,3.61249 3.50575,9.35749 4.71182,14.08018l0.17914,3.61838c0,0 0,6 -6,6z" fill="#000000"/></g></g></svg>