<svg version="1.1" xmlns="http://www.w3.org/2000/svg" xmlns:xlink="http://www.w3.org/1999/xlink" width="517" height="396" viewBox="0,0,517,396"><g transform="translate(17.5,22.5)"><g data-paper-data="{&quot;isPaintingLayer&quot;:true}" fill-rule="nonzero" stroke="none" stroke-linecap="butt" stroke-linejoin="miter" stroke-miterlimit="10" stroke-dasharray="" stroke-dashoffset="0" style="mix-blend-mode: normal"><path d="M-17.5,373.5v-396h517v396z" fill="#d6ff00" stroke-width="0"/><text transform="translate(143.59003,90.5) scale(1.29167,1.29167)" font-size="40" xml:space="preserve" fill="#ffffff" fill-rule="nonzero" stroke="none" stroke-width="1" stroke-linecap="butt" stroke-linejoin="miter" stroke-miterlimit="10" stroke-dasharray="" stroke-dashoffset="0" font-family="Handwriting" font-weight="normal" text-anchor="start" style="mix-blend-mode: normal"><tspan x="0" dy="0">die</tspan></text><path d="M375,194.5c0,6.37991 0.32646,12.54035 1.00666,18.84486c0.28601,2.65088 1.58667,5.11483 1.96106,7.75469c0.50118,3.53388 0.03228,7.8215 0.03228,11.40046c0,4.60354 0.59713,9.71211 -0.01617,14.28386c-0.42774,3.18859 -1.07628,6.36372 -1.17852,9.57925c-0.96791,2.06902 -1.16939,4.72055 -2.90374,6.20706c-1.21951,1.04524 -3.20556,0.5737 -4.80203,0.39755c-6.4384,-0.71038 -10.31625,-8.29399 -11.06726,-14.06726c-1.05615,-8.11896 0.52429,-16.46342 0.97154,-24.53871c0.60261,-10.88028 -0.00383,-21.96204 -0.00383,-32.86175c0,0 0,-0.04643 0.00633,-0.12664c-2.89716,-0.55045 -6.9,-1.30932 -7.12313,-1.38308c-4.86582,-1.60852 -9.41133,-4.6654 -13.69753,-7.36366c-1.68927,-1.06343 -6.09514,-3.29579 -7.20316,-4.13986c-3.36425,-2.56283 -6.49589,-6.29151 -9.20214,-9.5452c-3.38272,-4.067 -6.85634,-8.76937 -8.68396,-13.92c-12.69382,0.13624 -26.66769,0.64496 -37.49298,-6.93687c-1.38648,-0.97107 -5.46046,-5.55912 -6.81273,-7.0441c-4.47242,-4.92639 -8.40592,-10.38144 -9.75058,-17.09454c-1.19205,-5.95119 -0.04012,-13.37181 -0.04012,-19.44606c0,-5.87143 -0.13336,-11.74545 1.05879,-17.53897c0.59089,-2.87157 1.81547,-5.57563 2.67507,-8.37851c0.52916,-1.72541 0.7233,-3.57851 1.52701,-5.19441c0.80964,-1.62781 2.15367,-2.92968 3.23913,-4.38811c4.83597,-6.49768 10.42138,-12.46058 16.16476,-18.16581c10.29733,-10.2203 22.85449,-19.70192 37.40627,-22.78864c13.95412,-2.95995 30.68795,-1.14299 44.21265,3.08336c4.82443,1.50759 9.5821,3.80294 14.27743,5.6766c10.10422,5.75785 20.56531,11.81792 28.74822,20.27701c0.13057,0.13498 6.051,7.86595 6.27125,8.15346c4.04967,5.2861 8.26207,11.22172 11.19429,17.22721c1.23471,2.52881 1.70105,5.36509 2.54242,8.05051c3.06567,9.78481 5.4803,19.61763 6.09143,29.89044c0.47812,8.16199 1.4317,17.63499 -0.47973,25.68747c-0.06389,0.26915 -3.86635,8.95824 -3.99367,9.24977c-2.00779,4.59724 -4.32394,9.7699 -7.48476,13.72236c-0.13705,0.17137 -7.14585,6.81916 -7.41122,7.07088c-10.32259,9.79128 -25.07804,17.79392 -39.53934,17.86538c-0.23913,-0.00084 -0.47437,-0.00364 -0.70605,-0.00832zM363.99617,224.63825c-0.42816,7.73054 -1.9514,15.68522 -1.02846,23.46129c0.37635,3.17082 2.25285,7.38002 4.88151,9.2958c0.57859,0.42168 1.36902,0.41973 2.05122,0.63694c0.40091,0.12764 0.94569,0.73426 1.19797,0.39755c0.63611,-0.84898 0.54011,-2.0518 0.81016,-3.07771c0.06503,-3.06694 0.68078,-6.09819 1.10758,-9.13599c0.79407,-5.65196 -0.01617,-12.01013 -0.01617,-17.71614c0,-2.19987 0.34605,-4.42216 0.03228,-6.59954c-0.39441,-2.73701 -1.68672,-5.30366 -2.0001,-8.05112c-0.73621,-6.45438 -1.03218,-12.81333 -1.03218,-19.34934l-0.73607,-0.88197c0,0 -0.02676,-0.05351 -0.06371,-0.14812c-1.69625,-0.28084 -3.35469,-0.65379 -5.19891,-1.07075c0.03071,10.70205 0.58605,21.56499 -0.00513,32.23909zM323,152.5c0,2.5 -2.5,2.5 -2.5,2.5h-2.08448c1.73629,3.96 4.61642,7.63964 7.20595,10.74065c2.48131,2.9714 5.3157,6.42696 8.39601,8.77259c0.20925,0.15934 5.9293,3.31399 6.79684,3.86014c3.94917,2.48617 8.15056,5.38607 12.63823,6.86959c3.08433,1.01961 6.40296,1.114 9.57521,1.81367c4.75164,1.04801 7.60213,1.96279 12.47224,1.94337c13.09418,0.07483 26.79602,-7.64493 36.09593,-16.49069c2.31104,-2.19818 4.96193,-4.08176 6.95351,-6.57306c2.88324,-3.60671 4.9767,-8.40059 6.80278,-12.59368c1.22679,-2.817 3.01264,-5.44388 3.71879,-8.43418c1.78475,-7.55783 0.7951,-16.54979 0.34627,-24.21186c-0.56804,-9.86024 -2.93008,-19.3004 -5.87129,-28.68794c-0.77973,-2.48869 -1.16629,-5.13329 -2.32086,-7.47178c-2.79669,-5.66444 -6.78025,-11.26306 -10.61268,-16.25881c-1.97082,-2.56905 -3.64558,-5.39187 -5.89683,-7.7191c-7.77168,-8.03397 -17.74365,-13.7578 -27.32402,-19.24859c-4.48028,-1.77501 -9.00178,-3.97233 -13.59925,-5.409c-12.70711,-3.97085 -28.56991,-5.74631 -41.6838,-2.96459c-13.59499,2.88376 -25.31916,11.90621 -34.92068,21.44538c-5.58406,5.54298 -10.94148,11.3435 -15.68786,17.61789c-0.91424,1.20856 -2.08794,2.25409 -2.76087,3.61189c-0.67885,1.36972 -0.78203,2.95627 -1.2202,4.42083c-0.80361,2.68603 -2.01716,5.2592 -2.57772,8.00625c-1.10848,5.43215 -0.94121,10.95817 -0.94121,16.46103c0,5.74435 -1.18817,12.94195 -0.04012,18.55394c1.18028,5.76953 4.67854,10.40441 8.52821,14.62076c0.76729,0.84313 5.13516,5.72308 5.97955,6.31167c9.55182,6.65813 22.11221,6.25678 33.44605,6.06293c-0.7784,-6.37688 0.91116,-12.922 2.14722,-19.09777c3.39181,-13.57958 7.61289,-28.03828 19.93803,-36.08648c1.54776,-1.01068 2.93457,-2.35008 4.66652,-2.99613c5.94122,-2.21619 14.38386,-0.81583 20.4384,0.06445c7.34575,1.06802 12.79958,2.50862 18.16391,7.79887c0,0 1.76776,1.76776 0,3.53553c-1.76776,1.76776 -3.53553,0 -3.53553,0c-4.4803,-4.55622 -9.12585,-5.48282 -15.3474,-6.38636c-5.09221,-0.73953 -12.9281,-2.27179 -17.94979,-0.3361c-1.38567,0.53413 -2.45146,1.67706 -3.68923,2.49762c-11.11669,7.36965 -14.72703,20.69842 -17.80672,33.00555c-1.16229,5.81581 -2.80926,11.95369 -1.98489,17.95153h3.5458c0,0 2.5,0 2.5,2.5z" fill="#ffffff" stroke-width="0.5"/><path d="M353.74943,152.82262c-0.04003,-2.77884 0.14229,-5.59238 0.08461,-8.38304c-0.83404,-0.73703 -0.83404,-1.93958 -0.83404,-1.93958c0,-6.95569 -0.35889,-13.10838 -3.58099,-19.50061c-1.07137,-2.12547 -2.29088,-4.18703 -3.1648,-6.40101c-0.29836,-0.75587 -1.00077,-2.76071 -1.35264,-2.02821c-1.63828,3.41039 0.82678,5.90306 1.95022,9.08183c1.13675,3.21646 2.60255,6.33036 3.45395,9.63384c0.65236,2.53118 0.22693,5.23627 0.66198,7.8137c0.34609,2.05036 1.00686,4.07479 1.02012,6.15411c0.40285,2.09802 1.06183,3.84407 1.76159,5.56896zM358.14773,137.86251c1.17987,5.51749 0.89201,10.94809 0.85227,16.6375c-0.01065,1.52492 0.55394,3.18151 -0.06688,4.57438c-0.07824,0.17553 -0.16259,0.34739 -0.25237,0.51599l0.05532,0.02766l-1.97578,3.95156c-0.40086,0.84562 -1.26229,1.43041 -2.26029,1.43041c-1.1246,0 -2.07577,-0.74256 -2.38994,-1.76412l-0.98177,-2.94531l0.02695,-0.00898l-0.05554,-0.08262c-0.29703,-1.23308 -0.39185,-2.53329 -0.89111,-3.69925c-0.4928,-1.15088 -1.61311,-1.9759 -2.04255,-3.15189c-0.65391,-1.79071 -0.76925,-3.73432 -1.15387,-5.60148c0.01396,-1.97576 -0.65879,-3.89634 -0.97988,-5.84589c-0.40055,-2.43198 0.06265,-4.99002 -0.56974,-7.37225c-0.83474,-3.14448 -2.23113,-6.11244 -3.31432,-9.18021c-0.6142,-1.7395 -3.06417,-7.47561 -3.00513,-8.21827c0.38497,-4.84293 3.04738,-9.35513 8.53656,-6.83391c1.55221,0.71294 2.2181,2.62308 3.06615,4.1058c0.52742,0.92215 0.54007,2.0701 1.01083,3.02243c2.46999,4.99666 5.39908,9.99052 6.2111,15.6755c0.22505,1.57555 0.22982,3.16732 0.18001,4.76296z" fill="#ffffff" stroke-width="0.5"/><path d="M409.24222,131.72063c-1.24221,-0.65228 -1.24221,-2.22063 -1.24221,-2.22063c0.06344,-1.01443 0.61508,-2.1199 0.1903,-3.04329c-0.52814,-1.14807 -2.09847,-1.51463 -2.7774,-2.58048c-0.96961,-1.52217 -1.44838,-3.30927 -2.05666,-5.00842c-0.16798,-0.46923 -0.23392,-1.97733 -0.21823,-1.47918c0.3802,12.06742 -2.75934,24.41921 -4.88945,36.23413c-0.50412,2.79618 0.86974,7.56754 4.29473,7.56754c2.73417,-3.22709 2.18508,-8.99475 2.463,-12.86752c0.35896,-5.00213 1.61122,-9.85036 1.98976,-14.86598zM412.09191,131.50198c0.41453,0.31408 0.76366,0.82213 0.88219,1.63905c0.20473,1.41108 -0.51209,2.13413 -1.16587,2.49496c-0.49948,4.37292 -1.5059,8.65507 -1.81451,13.04123c-0.31585,4.48904 -0.03581,9.88394 -2.31821,14.05452c-0.71269,1.30227 -2.14586,2.05197 -3.21879,3.07796c-1.63781,0 -3.35768,0.51196 -4.91342,0c-3.03791,-0.9997 -6.13824,-6.13072 -6.52579,-9.01439c-0.32925,-2.4499 0.96728,-6.75331 1.38413,-8.90676c1.14002,-5.88941 1.98708,-11.87446 2.74945,-17.82429c0.00702,-0.05485 1.15968,-9.92056 1.16264,-9.93657c0.40671,-2.19522 -0.11295,-5.02475 1.54827,-6.51632c6.4507,-5.79193 8.13521,5.00501 9.72511,7.5124c0.83873,1.32274 2.6316,1.96905 3.2226,3.41952c0.6239,1.53123 0.12686,3.30447 0.1903,4.95671c0,0 0,1.27272 -0.9081,2.00198z" fill="#ffffff" stroke-width="0.5"/></g></g></svg>