<svg version="1.1" xmlns="http://www.w3.org/2000/svg" xmlns:xlink="http://www.w3.org/1999/xlink" width="88.54989" height="115.93406" viewBox="0,0,88.54989,115.93406"><g transform="translate(-292.14974,-82.21625)"><g data-paper-data="{&quot;isPaintingLayer&quot;:true}" fill-rule="nonzero" stroke="none" stroke-linecap="butt" stroke-linejoin="miter" stroke-miterlimit="10" stroke-dasharray="" stroke-dashoffset="0" style="mix-blend-mode: normal"><path d="M292.14974,198.15028v-115.93403h87.41058v115.93403z" fill="#000000" stroke-width="0"/><g stroke-width="0.5"><path d="M314.72943,135.83015c-0.74948,-1.32869 0.44628,-2.51037 0.44628,-2.51037l0.52117,-0.48405c1.05539,-0.69407 1.935,-1.78355 3.16618,-2.08221c1.68231,-0.4081 3.40305,0.70649 5.13239,0.80578c4.0404,0.23198 8.26276,-0.40966 12.27743,-0.84557c6.07398,-0.00844 12.39303,-0.38053 17.91868,2.47931c1.36758,0.7078 2.9819,1.10024 4.0719,2.18061c2.29639,2.2761 2.10653,8.24705 2.27169,11.17776c0.39707,7.04568 2.55597,13.92775 2.56854,20.97128c-0.0053,4.16777 -0.09529,10.10734 -2.68659,13.6508c-2.40187,3.28443 -7.2155,3.72527 -10.91594,3.73349c-10.27118,0.02281 -21.81578,1.09411 -31.36657,-3.14454c-1.33168,-1.08691 -3.20582,-2.37863 -3.95895,-4.0077c-3.4153,-7.38752 -0.64565,-16.74365 -0.21309,-24.4189c0.32549,-5.7755 -0.46176,-11.8353 0.76687,-17.50569z" fill="#ffd1a6"/><path d="M305.96042,126.52011c0.00422,-0.60182 0.24655,-1.08078 0.24655,-1.08078l0.812,-1.59986c1.83828,-4.08353 4.16106,-7.63354 6.15295,-11.57042c4.83191,-5.79963 10.90501,-10.91679 17.62055,-14.52813c0.98971,-0.53223 7.25277,-2.56573 7.95765,-2.40983c1.43706,0.31783 4.45419,5.14386 5.39994,6.42564c1.64093,2.22396 3.67716,3.71765 5.54731,5.73047c3.11434,3.35193 5.94238,6.80479 8.94024,10.26217c1.72481,2.39487 2.55906,6.03567 4.81779,7.84627c2.11429,1.6948 5.97474,3.00657 7.33717,5.38531c1.57021,2.74154 -0.15194,6.69468 -1.23165,9.2762c-0.55958,1.33792 -0.68731,3.20463 -1.98609,3.87429c-0.49917,0.25738 -5.16409,-0.94556 -6.36504,-1.24278c-7.65009,-1.8933 -14.71579,-5.4435 -22.39873,-7.26002c-6.97653,0.7593 -12.78625,4.50384 -19.4725,6.39347c-1.15204,0.32558 -7.32104,1.82712 -8.10395,1.74639c-2.4357,-0.25115 -6.33603,-3.67315 -8.04554,-5.16606c-0.95879,-0.83731 -2.65137,-1.26532 -2.87834,-2.50972c-0.22744,-1.24694 1.17621,-2.25251 1.80869,-3.35464c1.23208,-2.14697 2.34486,-4.26888 3.84099,-6.21798z" fill="#ffffff"/></g><path d="M292.14976,198.15031v-115.93403h87.41058v115.93403z" fill="#000000" stroke-width="0"/><path d="M314.95439,147.6098c-0.52857,-0.71737 -0.52857,-1.60463 -0.52857,-1.60463l0.01027,-0.70143c0.38016,-3.61772 1.36186,-7.26673 4.79805,-9.29976c2.63755,-1.56051 6.40662,-1.28689 9.33127,-1.28789c6.12236,-0.00211 12.2702,-0.02222 18.34632,0.72987c3.94165,0.44296 8.32139,0.52925 11.30264,3.65892c1.04085,1.09267 2.36786,4.89226 2.71139,6.31283c1.45769,6.02785 1.49526,12.94627 1.49526,19.11578c0,4.82567 1.56074,14.02322 -3.84238,16.76668c-1.08568,0.55126 -2.42907,0.18304 -3.64601,0.22342c-4.02768,0.13362 -8.08466,0 -12.11467,0c-6.87241,0 -13.92619,0.19556 -20.74755,-0.73305c-2.46131,-0.33506 -5.72814,-0.78549 -7.52803,-2.76495c-2.20274,-2.42248 -1.2876,-7.25692 -1.05874,-10.12864c0.54034,-6.77981 0.57461,-13.55624 1.47075,-20.28715z" fill="#ffd1a6" stroke-width="0.5"/><path d="M313.24881,122.52649c4.17395,-8.66923 8.51799,-16.8505 15.16046,-23.90815c2.08789,-2.2184 4.84254,-6.48972 8.27044,-6.7155c4.16862,-0.27457 6.2578,4.00684 8.20248,6.78274c3.16154,4.74442 4.9985,9.98837 7.9142,14.84472c3.81245,6.34995 7.5314,12.5372 10.61151,19.31486l0.38031,0.95005c2.52283,1.81485 5.08309,3.58835 7.71169,5.30076c2.86527,1.86658 9.59361,5.84297 9.18163,10.08398c-0.09312,0.95856 -4.56372,4.82948 -5.31899,5.51609c-0.96627,0.73561 -1.72094,1.91112 -2.8988,2.20684c-4.68867,1.17717 -9.79116,-3.79642 -13.17791,-6.00523c-4.39594,-2.867 -8.84262,-5.59405 -13.14592,-8.60568c-1.88018,-1.31583 -2.56505,-1.5723 -4.30865,-3.11136c-0.31704,-0.27984 -0.40857,-0.95621 -0.83145,-0.95819c-0.49534,-0.00233 -0.71321,0.70374 -1.14363,0.94893c-1.69606,0.96614 -3.4754,1.77931 -5.23771,2.61854c-4.05496,1.93103 -7.9199,4.26519 -12.0171,6.12756c-4.57211,2.75245 -9.28748,4.91839 -14.02549,7.3693c-2.0546,1.06282 -4.7809,2.96125 -7.31709,2.64624c-6.05466,-0.75204 -7.51726,-7.92262 -5.10549,-12.61796c0.17946,-0.34938 0.72203,-1.00146 1.389,-1.73661l0.30706,-1.07202c2.32379,-2.9838 4.26451,-6.05465 7.39001,-8.32467c1.26442,-0.91833 2.59945,-1.7624 3.97796,-2.55518c1.07067,-3.21475 2.53457,-5.99102 4.03147,-9.10006z" fill="#ffffff" stroke-width="0.5"/></g></g></svg>