<svg version="1.1" xmlns="http://www.w3.org/2000/svg" xmlns:xlink="http://www.w3.org/1999/xlink" width="262.60683" height="258.33333" viewBox="0,0,262.60683,258.33333"><g transform="translate(-128.75,-23.33335)"><g data-paper-data="{&quot;isPaintingLayer&quot;:true}" fill-rule="nonzero" stroke-linecap="butt" stroke-linejoin="miter" stroke-miterlimit="10" stroke-dasharray="" stroke-dashoffset="0" style="mix-blend-mode: normal"><g fill="none" stroke="#ffffff" stroke-width="2.5"><path d=""/><path d=""/></g><path d="M130,280.41668v-43.33334h45.13889v43.33334z" fill="none" stroke="#ffffff" stroke-width="2.5"/><path d="M144.51305,274.14824v-15.89286h15.89285v15.89286z" fill="#ffffff" stroke="none" stroke-width="0"/><text transform="translate(140.66573,252.80895) scale(0.2601,0.2601)" font-size="40" xml:space="preserve" fill="#ffffff" fill-rule="nonzero" stroke="#000000" stroke-width="0" stroke-linecap="butt" stroke-linejoin="miter" stroke-miterlimit="10" stroke-dasharray="" stroke-dashoffset="0" font-family="Pixel" font-weight="normal" text-anchor="start" style="mix-blend-mode: normal"><tspan x="0" dy="0">YOU</tspan></text><path d="M175.94285,264.75217v-10.5h179.09503l2.26042,-145.17708l10.5433,-0.02258l0.35126,145.19966v10.5z" fill="none" stroke="#ff0000" stroke-width="5"/><path d="M176.41133,264.23551v-109.13413h12.12121v109.13413z" fill="none" stroke="#ff0000" stroke-width="5"/><path d="M271.41133,264.23551v-109.13413h12.12121v109.13413z" fill="none" stroke="#ff0000" stroke-width="5"/><path d="M176.10898,164.03795v-9.23077h191.33484v9.23077z" fill="none" stroke="#ff0000" stroke-width="5"/><path d="M317.08333,64.44446v-14.44445h13.88889v14.44445z" fill="none" stroke="#ffffff" stroke-width="2.5"/><path d="M362.5,64.02778v-14.44445h13.88889v14.44445z" fill="none" stroke="#ffffff" stroke-width="2.5"/><path d="M308.33333,49.44446v-24.44444h28.88889v24.44445z" fill="none" stroke="#ffffff" stroke-width="2.5"/><path d="M353.75,49.0278v-24.44444h28.88889v24.44445z" fill="none" stroke="#ffffff" stroke-width="2.5"/><path d="M303.65384,108.54703v-43.67521h86.45299v43.67521z" fill="none" stroke="#ffffff" stroke-width="2.5"/></g></g></svg>