<svg version="1.1" xmlns="http://www.w3.org/2000/svg" xmlns:xlink="http://www.w3.org/1999/xlink" width="334.48891" height="314.50177" viewBox="0,0,334.48891,314.50177"><g transform="translate(-77.70384,-44.67503)"><g data-paper-data="{&quot;isPaintingLayer&quot;:true}" fill-rule="nonzero" stroke-linecap="butt" stroke-linejoin="miter" stroke-miterlimit="10" stroke-dasharray="" stroke-dashoffset="0" style="mix-blend-mode: normal"><path d="M254.73572,292.54674c3.26505,-4.54275 7.18237,-10.41083 12.47295,-12.72696c2.5492,-1.11599 5.19314,-1.31994 7.87214,-1.11794c-3.11505,-1.2086 -6.26569,-2.57631 -9.17886,-4.0292c-0.90611,-0.45191 -1.64433,-1.19207 -2.53507,-1.67356c-3.39477,-1.83506 -7.1763,-2.89572 -10.42857,-5.05288c-1.7125,-1.13586 -3.31837,-2.44878 -5.13178,-3.55401c-4.5186,-2.75397 -9.38754,-5.05424 -13.95251,-7.76741c-4.22372,-2.11362 -8.31278,-4.48288 -12.39688,-6.86557c-1.0182,1.8567 -2.0149,3.72676 -3.03889,5.57991c0.39812,0.45959 0.76413,0.96576 1.09165,1.5276c1.12396,1.92806 1.82206,6.19757 2.28781,8.59119c0.02432,8.51736 1.46171,17.29931 0.26341,25.79804c2.76025,6.25939 -1.10089,12.79641 -4.15024,18.40935c-1.20566,2.21925 -1.63757,4.78787 -2.69667,7.08068c-0.61091,1.32253 -1.70814,2.37131 -2.39288,3.65717c-3.42248,6.42708 -5.88819,12.27546 -11.12277,17.54847c-2.00903,1.41526 -3.7272,3.37991 -6.02707,4.24579c-4.21016,1.58509 -8.417,-0.48508 -12.27137,-1.64376c-3.8514,-1.15779 -7.97082,-2.61031 -11.11288,-5.31564c-1.011,-0.87047 -1.62595,-2.12304 -2.55369,-3.08176c-1.22107,-1.26184 -2.21837,-1.26269 -3.73559,-2.21692c-3.29745,-2.07389 -6.22199,-4.62916 -9.26878,-6.92987c-4.75619,-3.59152 -10.94489,-6.95225 -14.61856,-11.72283c-3.1444,-2.26207 -6.45898,-4.20493 -7.38746,-8.33792c-1.11136,-4.94703 1.78937,-8.28467 3.6508,-12.44342c3.10676,-6.94101 8.19155,-12.0104 12.97454,-17.85366c1.58593,-1.9375 3.44135,-3.64351 5.02766,-5.58069c0.83712,-1.02229 1.6122,-2.16331 2.47293,-3.19705c-0.03244,-0.24546 -0.04974,-0.50715 -0.04974,-0.78613c0,-3.00088 2.00117,-4.00059 3.33451,-4.33363c1.62193,-1.22724 3.55192,-2.65807 5.2378,-3.2655c1.85679,-0.66901 3.88603,-0.99245 5.94913,-1.0046c1.599,-0.60412 3.05619,-2.3318 4.83677,-2.96794c3.71646,-1.32776 7.51798,-2.65715 11.25422,-3.93898c7.06827,-2.42498 14.06974,0.30639 20.57571,2.89184c0.23301,0.0926 0.46653,0.1846 0.7001,0.27667c1.00208,-1.81763 1.97533,-3.65312 2.97099,-5.47476c-2.61717,-1.45897 -5.26538,-2.86165 -7.97765,-4.14641c-5.72738,-2.71296 -11.49599,-5.15823 -17.10853,-8.1505c-1.9186,-1.02291 -4.01128,-1.79109 -5.71884,-3.13704c-0.725,-0.57146 -1.07335,-1.52023 -1.75626,-2.14136c-0.82343,-0.74895 -1.98581,-1.09889 -2.72307,-1.93284c-0.54319,-0.61439 -0.52578,-1.57393 -0.98054,-2.25634c-0.47132,-0.70726 -1.35864,-1.09761 -1.75547,-1.84917c-1.075,-2.03598 -1.13987,-5.24446 -1.15739,-7.45591c0,-3.62951 -0.13605,-7.29101 0,-10.91787c0.04447,-1.18614 -0.28638,-2.48237 0.22432,-3.55385c1.75653,-3.68536 4.74562,-3.04699 7.97916,-3.03214c1.47475,0.00676 2.93883,0.25568 4.40371,0.42643c2.19827,0.25627 4.51171,-0.18127 6.72306,-0.01468c1.73115,0.13041 3.45122,0.21969 5.17072,0.28001c-1.00919,-1.25364 -1.89371,-2.58547 -2.62168,-3.97218c-0.90039,-1.80689 -2.05982,-3.87419 -2.48482,-5.86862c-0.05963,-0.27986 -0.04727,-3.80068 -0.04727,-4.3332c0,-3.37011 0.09932,-6.66587 0.32298,-10.01896c0.20345,-3.04993 0.40173,-6.10203 0.62449,-9.15144c-1.38326,0.75202 -2.75261,1.52542 -4.09566,2.34044c-4.56702,2.77138 -9.13379,8.52619 -15.26579,7.52471c-0.73037,-0.11928 -3.01815,-3.59788 -3.50319,-4.64384c-2.78522,-6.00605 -4.40636,-11.98646 -3.45828,-18.62297c0.00288,-2.80957 0.21892,-5.78093 1.14269,-8.46855c1.02347,-2.97769 3.62327,-5.326 5.60626,-7.53953c1.20458,-1.34461 2.04805,-2.99746 3.31866,-4.27985c0.64134,-0.64729 1.49212,-1.07481 2.08853,-1.76374c2.33071,-2.69221 4.24741,-5.69322 6.73231,-8.32494c2.46262,-2.60813 5.25749,-5.08628 8.21975,-7.34467c-0.11722,-0.72622 0.03508,-1.33534 0.03508,-1.33534c0.79649,-3.15121 2.06676,-6.07837 2.82141,-9.26272c0.63345,-2.67302 0.82877,-4.94067 1.69283,-7.54229c0.54853,-1.6516 1.50168,-3.15403 2.01055,-4.81828c0.3758,-1.229 1.36248,-5.94832 1.78065,-6.87105c0.37152,-0.81984 1.23625,-1.33332 1.66959,-2.12219c1.26878,-2.30977 1.98869,-5.19427 3.1856,-7.58826c1.93463,-3.86949 4.51499,-7.36822 6.4195,-11.21583c0.87903,-2.19756 1.80775,-3.62289 3.19604,-5.45868c2.45016,-3.23995 4.05004,-6.82676 7.3834,-9.40522c1.08366,-0.83825 4.62208,-2.84331 5.92477,-2.60788c0.27448,0.04961 4.27196,3.24943 5.00809,3.84258c5.88483,4.74193 9.98407,11.07083 14.77811,16.86274c2.16549,4.31821 5.82885,7.34496 8.49168,11.32221c0.47851,0.71471 0.63122,1.62076 1.13749,2.31609c0.54513,0.7487 1.41773,1.21502 1.97311,1.95618c0.68406,0.9129 1.08085,2.0131 1.71279,2.9628c1.95676,2.94065 4.44519,5.56711 6.45317,8.46738c0.62416,0.90152 1.02763,1.94138 1.63414,2.85484c1.18827,1.78965 2.18073,2.28275 3.34378,4.21642c0.94622,1.57311 1.27842,3.47292 2.2707,5.0174c0.29454,0.45844 0.855,0.69888 1.16436,1.14743c1.75104,2.53875 2.46667,4.94725 4.34249,7.35502c0.16204,0.59919 0.32413,1.19842 0.48617,1.79762l0.60827,0.97651c3.43807,2.20752 6.90498,4.37276 10.35547,6.55525c3.53196,2.23406 7.30458,3.78091 10.81028,6.04286c4.18775,2.70204 10.02059,5.73232 10.84584,11.32449c0.15146,1.02635 -0.27667,2.05642 -0.41503,3.08465c-1.80696,4.2986 -4.21341,8.22437 -6.66693,12.14293c-0.53413,0.85308 -1.33254,1.52753 -1.82596,2.40479c-0.87389,1.55376 -1.35724,3.33946 -2.42673,4.76565c-1.69565,2.26118 -3.84457,5.4515 -7.02033,5.96435c-1.06385,0.17177 -1.98268,-0.84575 -2.98468,-1.24235c-0.78453,-0.31051 -1.59529,-0.55344 -2.37384,-0.87861c-1.69943,-0.70974 -3.23605,-1.76217 -4.80941,-2.71943c-0.2294,-0.13958 -0.4599,-0.27652 -0.69126,-0.41138c0.29312,1.86809 0.53885,3.73917 0.67314,5.60239c0.51484,7.14329 0.00887,14.1322 -0.31337,21.25847c-0.09517,2.10463 -0.04934,4.22479 -0.34271,6.31105c-0.25362,1.80347 -1.0688,3.48914 -1.78276,5.16458c-0.19699,0.46228 -0.38812,0.92162 -0.57944,1.37518c2.23218,-0.23604 4.44333,-0.17566 6.73055,-0.17566l-0.00017,-0.00004c6.8005,0 13.51543,0.91502 16.91648,7.58547c0.85851,3.33136 1.46625,6.64336 1.78614,10.03239c0.2085,2.20896 1.09024,4.35458 1.56,6.51809c0.31626,1.45654 0.33398,2.96247 0.46612,4.44709c0.23595,2.65097 1.09924,5.16688 1.57253,7.7639c0.38568,2.11626 0.32477,4.30509 0.7951,6.40417c0.27957,1.24777 0.93611,2.39094 1.21312,3.6393c0.65717,2.9618 0.26245,6.16156 1.60723,8.85115c0.13377,4.60216 0.49907,8.86696 0.06878,13.45538c-0.27661,2.94954 0.34164,5.7631 -0.51649,8.68393c-0.5563,1.8935 -1.49735,4.11466 -2.96673,5.6753c2.11061,1.55709 3.86178,3.45186 6.03129,5.06481c1.8657,1.49751 3.67215,3.07622 5.37216,4.75959c0.84155,0.31819 1.64125,0.7516 2.38109,1.33703c1.47251,1.16519 2.97462,2.48173 3.77711,4.17936c0.41317,0.87405 0.34254,5.86283 0.34254,7.34918c0,5.74498 0.64439,11.55569 -1.18353,17.03944c0.0894,5.81739 -0.6801,11.14567 -1.07194,16.92713c-0.24473,3.61086 0.52883,4.51848 -2.16592,7.74385c-3.53066,4.22587 -10.43841,5.08778 -15.46336,5.54028c-5.61564,0.5057 -11.5813,1.19242 -17.09438,2.20807c-1.16667,0.21493 -2.20104,0.96366 -3.37626,1.12542c-7.36555,1.01379 -15.91515,0.34975 -23.10997,-1.08922c-5.62758,0.03037 -13.41504,0.72132 -18.04978,-3.15722c-4.5856,-3.83742 -3.45851,-9.05304 -3.45084,-14.26324c0.01148,-7.79977 1.99304,-15.32889 2.84043,-22.99946c0.18363,-1.66215 -0.18358,-3.35409 -0.00497,-5.01679c0.55472,-5.16401 1.95593,-10.37523 3.54152,-15.39442c-0.83343,-2.14351 0.65105,-4.22178 0.65105,-4.22178zM278.9509,273.09843c0,0 -0.29934,-4.49003 4.1907,-4.78937c4.49003,-0.29934 4.78937,4.1907 4.78937,4.1907c0.11268,1.69598 0.1955,3.38897 0.25806,5.08006c0.18393,0.03352 0.36492,0.0769 0.54139,0.13507c0.89567,0.29525 1.69152,0.83445 2.53729,1.2517c2.69423,0.68659 5.47152,-0.03744 8.23242,0.72624c2.95526,0.81746 5.02152,1.52054 8.13292,1.51695c0.97488,-0.00115 1.98625,0.51745 2.91599,0.22432c0.94106,-0.29669 1.76422,-4.04795 1.83456,-4.84651c0.17511,-1.98817 -0.18023,-4.02678 -0.0043,-6.01816c0.20896,-2.36553 0.56344,-4.44102 0.40002,-6.85242c-0.10761,-1.58779 -0.40731,-3.1732 -0.33123,-4.76285c-1.37937,-2.75875 -0.95741,-5.92936 -1.62767,-8.94091c-0.27782,-1.24817 -0.93772,-2.39057 -1.21312,-3.6393c-0.47281,-2.1442 -0.43065,-4.37506 -0.82238,-6.53554c-0.6352,-3.50326 -1.32409,-6.83662 -1.65809,-10.38522c-0.284,-3.01757 -1.70455,-5.87048 -2.02182,-8.89602c-0.30281,-2.88757 -0.76908,-5.69873 -1.44876,-8.56841c-2.16399,-4.55525 -9.38432,-3.73675 -13.41093,-3.73675c-1.92551,0 -3.60164,-0.04593 -5.48758,0.34714l-0.98228,0.05723c0,0 -0.80105,0 -1.56785,-0.41766c-0.77704,0.80234 -1.71647,1.49761 -2.90008,2.04815c-4.69255,2.18255 -10.942,1.25798 -15.90297,1.25798c-9.51974,0 -18.93708,-0.31346 -28.40208,-1.33436c-5.04058,-0.54367 -9.82692,-0.79307 -14.76072,-1.91029c-3.25872,-0.73791 -6.48172,-1.13027 -9.62036,-2.3486c-1.70749,-0.66281 -3.37664,-1.52593 -4.95742,-2.55276c-6.98901,-0.0096 -14.01204,-0.11373 -20.91372,-0.82998l0.00009,-0.00009c-0.78117,-0.08107 -3.18447,0.41969 -4.4011,0.11007c0.01545,0.20169 0.01311,0.40864 0.02491,0.60457c0.04861,0.80729 0,1.61746 0,2.42619c0,2.83055 0,5.66113 0,8.49168c-0.01065,0.99825 -0.12701,3.7019 0.46007,4.67505c0.34904,0.57856 1.10452,0.82364 1.47947,1.38574c0.35094,0.52617 0.21501,1.31613 0.63692,1.78731c0.55499,0.61979 1.50726,0.74964 2.12933,1.30208c0.60048,0.53333 0.85638,1.39457 1.47863,1.90229c0.5587,0.45585 1.32603,0.57073 1.96409,0.90663c2.00347,1.05471 3.96775,2.18476 5.99285,3.19734c7.60866,3.80434 15.33491,7.33435 22.88731,11.24819c0.99204,-0.43084 2.28897,-0.52225 3.85487,0.37256c1.45853,0.83345 2.06146,1.90024 2.24433,2.91002c4.44584,2.51024 8.58222,5.26864 13.17639,7.5638c4.69119,2.78464 9.67598,5.1632 14.32406,7.98835c1.88672,1.14676 3.58293,2.51856 5.38172,3.72455c3.00681,2.01596 6.62566,2.95445 9.78969,4.6519c0.82076,0.4403 1.48469,1.14388 2.3173,1.56138c3.33144,1.67046 6.98378,3.14268 10.5086,4.48059c-0.01563,-0.25347 -0.03191,-0.50701 -0.04888,-0.76062zM278.16422,157.03814c-4.14777,-2.7608 -8.25692,-5.65647 -12.32251,-8.52978c-3.20514,-2.26521 -6.03749,-5.03741 -9.22754,-7.31615c-1.16618,-0.83301 -2.50726,-1.41637 -3.62007,-2.31945c-1.24462,-1.01005 -2.27788,-2.25573 -3.41264,-3.38777c-1.46774,-1.46421 -3.52892,-2.78627 -4.02185,-4.8924c-0.32709,0.1942 -0.6612,0.38681 -0.90398,0.65358c-0.96862,1.06431 -1.65796,2.38071 -2.71695,3.35516c-3.10806,2.85985 -6.79524,4.89837 -9.80873,7.85353c-7.76757,3.97635 -15.03476,8.50943 -22.31664,13.26893c-2.85348,1.86504 -5.85165,3.48722 -8.8699,5.07021c-0.34837,4.25035 -0.62664,8.50989 -0.91043,12.76848c-0.21545,3.23354 -0.3116,6.40175 -0.3116,9.65276c0,1.094 -0.27863,2.21241 -0.04727,3.28167c0.21082,0.9744 1.60516,3.58312 1.9572,4.28453c0.53313,1.1547 1.40038,2.14618 2.30359,3.0416c1.20257,1.19222 2.29642,2.58142 3.56687,3.74629c0.64796,0.12459 1.68943,0.49498 2.15407,1.59643c3.55021,2.08567 7.98373,2.49595 11.87906,3.3846c4.71036,1.07458 9.27851,1.27842 14.10113,1.80084c9.25663,1.00276 18.4588,1.30024 27.76871,1.30024c3.84104,0 9.5848,1.03819 13.28733,-0.64575c2.62807,-1.19524 2.9632,-3.74541 3.97926,-6.10193c0.3443,-0.79852 0.88485,-1.50732 1.18929,-2.32188c0.79635,-2.13075 0.39276,-4.95612 0.49266,-7.14337c0.31615,-6.92001 0.81194,-13.68589 0.3212,-20.62325c-0.22673,-3.2051 -0.816,-6.44175 -1.38727,-9.63869c-1.07289,-0.64364 -2.12115,-1.34 -3.12292,-2.13839zM212.81962,294.5996l0.02334,-0.83685c-0.1815,-0.22707 -0.36722,-0.45044 -0.56455,-0.66369c-1.1879,-1.2837 -2.58009,-2.38137 -3.67378,-3.74622c-0.45947,-0.5734 -0.46494,-1.42957 -0.92972,-1.99867c-1.10276,-1.3503 -2.99462,-1.84629 -4.22878,-3.07765c-0.52817,-0.52697 -0.64254,-1.41888 -1.24345,-1.86109c-0.78368,-0.57671 -1.96546,-0.44356 -2.72117,-1.05648c-2.29447,-1.86095 -3.92774,-4.4186 -6.01673,-6.50759c-2.32953,-1.9503 -4.9414,-4.10875 -7.6108,-5.58978c-0.97513,-0.54102 -2.15729,-0.67441 -3.0861,-1.29158c-0.93487,-0.6212 -1.51546,-1.67229 -2.40483,-2.35704c-1.65497,-1.2742 -3.37515,-1.89292 -5.09101,-2.01819c-0.63928,0.10559 -1.30419,0.08832 -1.97041,0.06474c-0.33214,0.04482 -0.66309,0.10607 -0.99235,0.18252c0.46947,3.62905 -3.272,4.69805 -3.272,4.69805c-5.1224,1.33796 -7.31571,5.64351 -10.66841,9.74313c-4.25807,5.2067 -9.06326,9.73847 -11.78475,15.90901c-0.68013,1.54208 -3.45806,4.94341 -3.10172,6.68875c0.19076,0.93435 4.49855,3.66121 4.99218,4.04173c3.24672,4.46675 9.10698,7.49819 13.517,10.78561c2.89264,2.1563 5.60178,4.62941 8.73797,6.5752c1.77745,1.10278 3.76847,1.95159 5.26779,3.41019c2.2705,2.20884 3.29839,3.24778 5.98643,5.03047c2.1662,1.43661 6.19429,2.33987 8.76914,2.7261c0.68667,0.103 1.44055,0.49663 2.07253,0.20902c1.18059,-0.53728 1.98421,-1.67116 2.9763,-2.50674c5.84528,-5.78041 9.36244,-14.40162 12.25959,-21.86567c1.24164,-3.19888 2.52439,-4.60495 4.08051,-7.64053c0.73455,-1.43292 0.83787,-3.10917 1.31801,-4.64803c-0.64023,-1.17232 -0.64023,-2.39871 -0.64023,-2.39871zM262.0734,301.35045c-1.17156,3.84535 -2.17269,7.79954 -2.57405,11.69932c-0.17446,1.69505 0.18421,3.41854 -0.00497,5.11201c-0.20117,1.80083 -0.86158,3.52363 -1.15942,5.31101c-1.31245,7.87622 -1.46276,15.80921 -1.85819,23.72404c-0.02646,0.52963 0.99683,0.37254 1.51487,0.48585c4.47661,0.97915 7.53342,0.94052 12.10351,0.96076c6.39989,1.27998 14.22719,2.13905 20.78149,1.16163c1.17332,-0.17498 2.20865,-0.9157 3.37626,-1.12542c3.61863,-0.64997 7.8443,-1.34305 11.53162,-1.72434c3.74409,-0.38716 7.24695,-0.28945 10.6991,-1.43051c1.15743,-0.38257 3.65263,-0.29735 4.8589,-1.47644c0.52506,-0.51322 0.08463,-2.37977 0.08493,-2.38495c0.34858,-6.14239 1.11028,-11.79368 1.1789,-17.96094c1.68477,-5.0543 1.06732,-10.28224 1.06732,-15.5978c0,-1.29054 0.66663,-2.61059 0.3547,-3.85828c-0.91948,-0.07798 -1.70575,-0.47228 -2.23874,-0.82269c-2.32183,-0.10402 -4.83029,0.17759 -7.12102,0.17759c-7.73464,0 -15.63966,0.49658 -23.35077,-0.0087c-0.82479,-0.05404 -1.64936,-0.12558 -2.47383,-0.20641c0.02864,0.43668 0.05904,0.87305 0.09113,1.30914c-3.06928,-0.44669 -6.13825,-0.89364 -9.12973,-1.66253c-0.01025,-0.1692 -0.02024,-0.33844 -0.02994,-0.50773c-0.74836,-0.03546 -1.49692,-0.05389 -2.24577,-0.04919c-1.47005,-0.04012 -2.96462,0.14997 -4.41016,-0.12038c-0.82455,-0.15422 -1.43693,-0.92246 -2.25084,-1.12542c-2.03229,-0.50677 -5.29217,0.12038 -7.40678,0.12038zM207.40697,112.1808c-5.66117,3.1357 -11.36716,7.42852 -15.79375,12.14531c-2.434,2.59358 -4.29635,5.52566 -6.59371,8.17394c-0.68082,0.78482 -1.6151,1.31275 -2.35347,2.0437c-1.18257,1.17067 -1.92559,2.7223 -3.02707,3.96959c-1.50947,1.70933 -3.80569,3.44912 -4.54687,5.78646c-0.6816,2.14942 -0.76336,4.5389 -0.76102,6.76116c-0.72947,5.10616 0.29143,8.65556 2.0408,13.35161c0.46642,1.25205 1.43627,2.32801 1.67143,3.64331c0.00048,0.00278 0.00086,0.00555 0.00106,0.00835c3.24387,-2.15996 6.27631,-4.71167 9.59549,-6.72788c2.50012,-1.51866 5.09441,-2.88839 7.69951,-4.24505c0.28913,-3.17439 0.62936,-6.34176 1.05437,-9.49651c0.10214,-0.75826 0.23023,-1.51734 0.37716,-2.27651c-1.67383,-0.69452 -1.67383,-2.71561 -1.67383,-2.71561v-0.95186c0.07813,-5.83256 2.90524,-11.15854 5.79193,-16.07418c1.09628,-1.8668 2.28404,-3.82703 4.05325,-5.0747c2.49432,-1.75904 5.18018,-1.96708 7.97152,-2.65987c0.09565,-0.02374 4.46246,-1.5273 4.80417,-1.59664c4.91648,-0.99773 9.93421,-1.02502 14.92105,-0.99844c12.16706,1.27964 24.22503,3.83072 35.45082,8.79789c5.05513,2.23679 10.85667,4.84701 14.00304,9.71108c0.43347,0.67009 0.48059,1.52689 0.81804,2.25014c0.90638,1.94271 1.91555,3.87687 2.40875,5.96312c0.37434,1.58347 0.26285,3.24365 0.37877,4.86662c0.20614,2.88597 0.56413,5.74871 0.92348,8.62815c1.63704,0.88661 3.30265,1.71966 4.9184,2.67805c1.34954,0.80048 2.62041,1.76773 4.07459,2.35714c0.89298,0.36196 1.87045,0.53958 2.70273,1.0251c0.198,0.1155 -0.03468,0.71494 0.1882,0.66139c0.27285,-0.06558 0.15112,-0.5521 0.31248,-0.78169c0.18572,-0.26425 2.75132,-3.34119 3.21087,-4.28037c0.40906,-0.83593 0.53384,-1.7994 0.99013,-2.61053c2.57257,-4.57297 5.86451,-8.51225 8.00597,-13.37345c0.45784,-1.50726 -0.88851,-2.44884 -1.87252,-3.51501c-2.25285,-2.44087 -5.87827,-4.45068 -8.76004,-6.07416c-1.53006,-0.86197 -3.23822,-1.37668 -4.77375,-2.22888c-3.14931,-1.74783 -6.04674,-3.86457 -9.06433,-5.81868c-1.32254,-0.85644 -2.64703,-1.70419 -3.97024,-2.54992c-1.04422,-0.13755 -1.74384,-0.92438 -2.01644,-1.28897c-5.83463,-3.73359 -11.6136,-7.4937 -17.06422,-11.85421c-6.55703,-4.91971 -13.02665,-9.92626 -19.81892,-14.4728c-1.03111,-0.6902 -2.10498,-1.32116 -3.0892,-2.07671c-0.38303,-0.29402 -2.28759,-2.33463 -2.83552,-2.18821c-0.90795,0.24266 -2.54775,1.90528 -3.10854,2.31179c-1.16215,0.84249 -2.58051,1.29419 -3.72512,2.16038c-0.60102,0.45481 -0.98651,1.16012 -1.60057,1.59716c-1.84928,1.31626 -3.93366,2.2677 -5.86363,3.46248c-3.05521,1.07009 -5.55224,3.28327 -8.2058,5.18254c-2.19805,1.57323 -4.38188,3.12405 -6.5487,4.69765c1.06879,2.38031 -1.30075,3.69673 -1.30075,3.69673zM273.70209,107.95872c-1.08093,-1.71127 -1.54288,-3.75892 -2.58167,-5.4961c-0.85118,-1.42343 -2.20366,-2.49252 -3.12605,-3.87087c-0.59892,-0.895 -0.98779,-1.92083 -1.60078,-2.80627c-2.01967,-2.91741 -4.51211,-5.55976 -6.48654,-8.51594c-0.57355,-0.85873 -0.90216,-1.87245 -1.52213,-2.69833c-0.58839,-0.7838 -1.4945,-1.29459 -2.07056,-2.08749c-0.55739,-0.7672 -0.76434,-1.74614 -1.2887,-2.53628c-2.64477,-3.98514 -6.32844,-6.98263 -8.49168,-11.32221c-3.96658,-4.72547 -7.45913,-9.76207 -11.78078,-14.11917c-0.77267,-0.779 -3.56117,-1.94969 -4.01477,-3.28536c-0.41848,0.28187 -0.95526,0.41226 -1.35626,0.72659c-0.91296,0.71567 -1.68175,1.60253 -2.4483,2.47317c-2.56069,2.90829 -4.95249,6.58653 -6.38179,10.15977c-1.97451,3.91938 -4.54658,7.48159 -6.5202,11.42859c-1.23435,2.46859 -1.98499,5.38003 -3.28423,7.77762c-0.39359,0.72632 -1.21243,1.17451 -1.56534,1.92146c-0.88859,1.88079 -0.83957,4.08138 -1.45429,6.06862c-0.52133,1.68542 -1.47306,3.21354 -2.0331,4.88649c-0.62082,1.85458 -1.12841,5.28493 -1.54211,7.01484c-0.08222,0.34386 -0.17039,0.6846 -0.26322,1.02289c2.65222,-1.948 5.33147,-3.84851 8.03547,-5.77609c2.97063,-2.11768 5.55066,-4.27242 8.92763,-5.60519c3.51347,-2.22015 7.0399,-4.29883 10.3861,-6.74055c2.40909,-1.75791 2.72768,-2.98001 6.41006,-3.39936c0.98883,-0.1126 1.9272,0.5178 2.84916,0.89266c2.44719,0.99497 4.26908,2.90975 6.45585,4.36101c6.92732,4.59746 13.49077,9.71824 20.15911,14.7175c2.27788,1.82232 4.61193,3.56852 6.98565,5.26033c-0.15006,-0.13644 -0.28886,-0.28183 -0.39656,-0.4523zM206.58694,150.79188c7.19158,-4.70869 14.33074,-9.35154 22.097,-13.11804c2.08528,-2.1338 4.62129,-3.58873 6.96809,-5.38502c2.55357,-1.95453 4.07234,-4.47156 6.47737,-6.51544c1.01412,-0.86182 1.7429,-2.98533 3.02016,-2.61143c2.41773,0.70778 3.72906,3.38871 5.55692,5.12232c2.0465,1.941 3.78059,4.21966 5.97527,5.99137c1.03084,0.83218 2.28214,1.35255 3.36021,2.12257c3.17309,2.26638 5.98561,5.03056 9.17505,7.27902c3.62928,2.55854 7.28631,5.13642 10.97428,7.62852c-0.14634,-1.34881 -0.27483,-2.69858 -0.37152,-4.05221c-0.09561,-1.33843 0.04957,-2.71075 -0.25579,-4.01738c-0.39714,-1.69941 -1.30985,-3.23642 -2.03327,-4.82461c-0.22403,-0.49183 -0.16674,-1.09774 -0.45113,-1.55729c-2.31655,-3.7437 -7.62443,-5.76164 -11.37984,-7.42238c-10.55915,-4.66954 -21.93554,-7.09416 -33.38273,-8.30028c-4.46311,-0.01545 -8.9315,0.00574 -13.33485,0.87003c-1.62594,0.31916 -3.10753,1.17186 -4.71443,1.5762c-2.08014,0.52342 -4.09881,0.53972 -5.98907,1.78213c-1.72549,1.13411 -1.36887,1.57933 -2.29246,3.17474c-0.84984,1.46803 -1.84878,2.8654 -2.54495,4.40974c2.16153,0.90039 1.59842,3.34054 1.59842,3.34054c-0.91707,3.97339 -2.27408,8.06733 -2.80761,12.11328c-0.236,1.78952 -0.44614,3.58249 -0.63625,5.37811c1.69617,-0.93987 3.36785,-1.92165 4.99108,-2.98445zM209.81009,277.91255c1.09527,1.0978 2.55391,1.7931 3.77319,2.74647c-0.11695,-3.03788 -0.38779,-6.09225 -0.56786,-9.10283c1.51089,-5.02168 -0.226,-9.94088 -4.71407,-12.36471c-1.29006,-0.69671 -2.80644,-1.61718 -4.38109,-1.45974c-3.16694,-1.23418 -6.36613,-2.24511 -9.79107,-1.98278c-1.84679,0.14145 -3.43214,1.3962 -5.17283,2.02917c-0.94935,0.34522 -1.92228,0.63761 -2.90416,0.90877c0.56741,0.57922 0.99704,1.31907 1.67012,1.76953c0.7524,0.50354 1.74983,0.51914 2.541,0.95926c2.07803,1.15598 4.10812,2.62935 6.04463,4.15819c0.42015,0.72393 2.06079,2.46611 2.39939,2.9222c1.48695,2.0029 6.15473,7.6827 9.90135,7.80159c0.38701,0.54885 0.73078,1.14315 1.20141,1.61488zM308.44486,292.00453c-0.22469,-0.10016 -0.45253,-0.18898 -0.68317,-0.26759c0.04035,-0.23484 0.06226,-0.48985 0.06226,-0.76677c0,-3.5 -3.5,-3.5 -3.5,-3.5h-1.42128c-3.43424,0 -6.50775,0.17402 -9.85978,0.53869c-1.52596,-0.3771 -3.42584,-0.13593 -4.71571,-0.17546c-3.93348,-0.12056 -7.49719,-1.27438 -10.42736,-0.33232c-0.14497,-0.0183 -0.29271,-0.02772 -0.44265,-0.02772c-0.54102,0 -1.05336,0.12275 -1.5107,0.34192c-1.07257,-0.25896 -2.15065,-0.47389 -3.24935,-0.53858h0.00001c-0.4582,-0.02698 -3.25342,1.50634 -3.49442,1.73732c-1.02515,0.98254 -2.02532,2.09164 -2.98791,3.25388c2.28194,-0.10063 4.69853,-0.21037 6.72167,0.20293c0.53958,0.11023 1.07383,0.27702 1.60778,0.44352c0.29264,0.4383 0.68157,0.80684 1.13656,1.07536c0.98269,1.71971 3.94243,0.42786 5.92232,0.48365c1.89144,0.0533 5.80157,0.76242 8.99987,0.52485c0.84812,0.24962 1.60046,0.15558 1.60046,0.15558c1.17593,-0.14846 2.29549,-0.27077 3.39253,-0.36881c5.44713,0.15385 10.97085,-0.0929 16.42153,-0.1649c-1.12036,-1.05317 -2.28302,-2.04064 -3.57265,-2.61555z" fill="#000000" stroke="none" stroke-width="0.5"/><path d="M209.77428,277.87767c-0.47063,-0.47173 -0.74184,-0.99724 -1.12885,-1.54609c-3.74662,-0.11889 -8.49927,-5.81904 -9.98622,-7.82194c-0.3386,-0.45609 -1.97124,-2.24166 -2.39139,-2.96559c-1.93651,-1.52884 -3.88567,-2.94348 -5.9637,-4.09946c-0.79117,-0.44012 -1.78727,-0.4577 -2.53967,-0.96124c-0.67308,-0.45046 -1.186,-1.24562 -1.75341,-1.82484c0.98188,-0.27116 1.95986,-0.56975 2.90921,-0.91497c1.74069,-0.63297 3.34134,-1.8986 5.18813,-2.04005c3.42494,-0.26233 6.6632,0.74752 9.83014,1.9817c1.57465,-0.15744 3.10707,0.7732 4.39713,1.46991c4.48807,2.42383 6.23909,7.39178 4.7282,12.41346c0.18007,3.01058 0.43952,6.08615 0.55647,9.12403c-1.21928,-0.95337 -2.67914,-1.64737 -3.77441,-2.74517z" data-paper-data="{&quot;noHover&quot;:false,&quot;origItem&quot;:[&quot;Path&quot;,{&quot;applyMatrix&quot;:true,&quot;segments&quot;:[[[209.81008,277.91255],[0,0],[1.09527,1.0978]],[[213.58327,280.65902],[-1.21928,-0.95337],[-0.11695,-3.03788]],[[213.01541,271.55619],[0.18007,3.01058],[1.51089,-5.02168]],[[208.30134,259.19148],[4.48807,2.42383],[-1.29006,-0.69671]],[[203.92025,257.73174],[1.57465,-0.15744],[-3.16694,-1.23418]],[[194.12918,255.74896],[3.42494,-0.26233],[-1.84679,0.14145]],[[188.95635,257.77813],[1.74069,-0.63297],[-0.94935,0.34522]],[[186.05219,258.6869],[0.98188,-0.27116],[0.56741,0.57922]],[[187.72231,260.45643],[-0.67308,-0.45046],[0.7524,0.50354]],[[190.26331,261.41569],[-0.79117,-0.44012],[2.07803,1.15598]],[[196.30794,265.57388],[-1.93651,-1.52884],[0.42015,0.72393]],[[198.70733,268.49608],[-0.3386,-0.45609],[1.48695,2.0029]],[[208.60868,276.29767],[-3.74662,-0.11889],[0.38701,0.54885]],[[209.81009,277.91255],[-0.47063,-0.47173],[0,0]]],&quot;closed&quot;:true,&quot;fillColor&quot;:[0,0,0,1]}]}" fill="#00f3ff" stroke="none" stroke-width="0.5"/><path d="M308.49482,292.00673c1.28963,0.57491 2.45178,1.56766 3.57214,2.62083c-5.45068,0.072 -10.98022,0.33571 -16.42735,0.18186c-1.09704,0.09804 -2.22967,0.23549 -3.4056,0.38395c0,0 -0.76485,0.10109 -1.61297,-0.14853c-3.1983,0.23757 -7.17219,-0.49797 -9.06363,-0.55127c-1.97989,-0.05579 -4.94282,1.22618 -5.92551,-0.49353c-0.45499,-0.26852 -0.84464,-0.64139 -1.13728,-1.07969c-0.53395,-0.1665 -1.0684,-0.33523 -1.60798,-0.44546c-2.02314,-0.4133 -4.43984,-0.30519 -6.72178,-0.20456c0.96259,-1.16224 1.96299,-2.27911 2.98814,-3.26165c0.241,-0.23098 3.03727,-1.77045 3.49547,-1.74347h-0.00001c1.0987,0.06469 2.17697,0.27883 3.24954,0.53779c0.45734,-0.21917 0.97047,-0.34468 1.51149,-0.34468c0.14994,0 0.29782,0.00899 0.44279,0.02729c2.93017,-0.94206 6.52986,0.17859 10.46334,0.29915c1.28987,0.03953 3.24035,-0.18424 4.76631,0.19286c3.35203,-0.36467 6.43481,-0.52034 9.86905,-0.52034l1.42157,0.00114c0,0 3.5014,0.01128 3.5014,3.51128c0,0.27692 -0.02193,0.53398 -0.06228,0.76882c0.23064,0.07861 0.45846,0.16807 0.68315,0.26823z" data-paper-data="{&quot;noHover&quot;:false,&quot;origItem&quot;:[&quot;Path&quot;,{&quot;applyMatrix&quot;:true,&quot;segments&quot;:[[[308.44485,292.00453],[0,0],[-0.22469,-0.10016]],[[307.76168,291.73694],[0.23064,0.07861],[0.04035,-0.23484]],[[307.82394,290.97017],[0,0.27692],[0,-3.5]],[304.32394,287.47017],[[302.90266,287.47017],[0,0],[-3.43424,0]],[[293.04288,288.00886],[3.35203,-0.36467],[-1.52596,-0.3771]],[[288.32717,287.8334],[1.28987,0.03953],[-3.93348,-0.12056]],[[277.89981,287.50108],[2.93017,-0.94206],[-0.14497,-0.0183]],[[277.45716,287.47336],[0.14994,0],[-0.54102,0]],[[275.94646,287.81528],[0.45734,-0.21917],[-1.07257,-0.25896]],[[272.69711,287.2767],[1.0987,0.06469],[0,0]],[[272.69712,287.2767],[0,0],[-0.4582,-0.02698]],[[269.2027,289.01402],[0.241,-0.23098],[-1.02515,0.98254]],[[266.21479,292.2679],[0.96259,-1.16224],[2.28194,-0.10063]],[[272.93646,292.47083],[-2.02314,-0.4133],[0.53958,0.11023]],[[274.54424,292.91435],[-0.53395,-0.1665],[0.29264,0.4383]],[[275.6808,293.98971],[-0.45499,-0.26852],[0.98269,1.71971]],[[281.60312,294.47336],[-1.97989,-0.05579],[1.89144,0.0533]],[[290.60299,294.99821],[-3.1983,0.23757],[0.84812,0.24962]],[[292.20345,295.15379],[0,0],[1.17593,-0.14846]],[[295.59598,294.78498],[-1.09704,0.09804],[5.44713,0.15385]],[[312.01751,294.62008],[-5.45068,0.072],[-1.12036,-1.05317]],[[308.44486,292.00453],[1.28963,0.57491],[0,0]]],&quot;closed&quot;:true,&quot;fillColor&quot;:[0,0,0,1]}]}" fill="#00f3ff" stroke="none" stroke-width="0.5"/><path d="M263.42485,301.3169c2.11461,0 5.38042,-0.63272 7.41271,-0.12595c0.81391,0.20296 1.42774,0.97009 2.25229,1.12431c1.44554,0.27035 2.94566,0.07671 4.41571,0.11683c0.74885,-0.0047 1.50083,0.01201 2.24919,0.04747c0.0097,0.16929 0.01936,0.33868 0.02961,0.50788c2.99148,0.76889 6.07826,1.2113 9.14754,1.65799c-0.03209,-0.43609 -0.0625,-0.87246 -0.09114,-1.30914c0.82447,0.08083 1.65461,0.15232 2.4794,0.20636c7.71111,0.50528 15.6509,0.02512 23.38554,0.02512c2.29073,0 4.80296,-0.2769 7.12479,-0.17288c0.53299,0.35041 1.32063,0.74675 2.24011,0.82473c0.31193,1.24769 -0.35266,2.57127 -0.35266,3.86181c0,5.31556 0.62309,10.56377 -1.06168,15.61807c-0.06862,6.16726 -0.83578,11.84442 -1.18436,17.98681c-0.0003,0.00518 0.43868,1.87435 -0.08638,2.38757c-1.20627,1.17909 -3.70466,1.09861 -4.86209,1.48118c-3.45215,1.14106 -6.96544,1.05356 -10.70953,1.44072c-3.68732,0.38129 -7.93391,1.08319 -11.55254,1.73316c-1.16761,0.20972 -2.2102,0.95115 -3.38352,1.12613c-6.5543,0.97742 -14.41579,0.10594 -20.81568,-1.17404c-4.57009,-0.02024 -7.63521,0.009 -12.11182,-0.97015c-0.51804,-0.11331 -1.54219,0.04247 -1.51573,-0.48716c0.39543,-7.91483 0.53801,-15.87807 1.85046,-23.75429c0.29784,-1.78738 0.95954,-3.5186 1.16071,-5.31943c0.18918,-1.69347 -0.16718,-3.42409 0.00728,-5.11914c0.40136,-3.89978 1.41087,-7.86767 2.58243,-11.71302z" data-paper-data="{&quot;noHover&quot;:false,&quot;origItem&quot;:[&quot;Path&quot;,{&quot;applyMatrix&quot;:true,&quot;segments&quot;:[[[262.0734,301.35045],[0,0],[-1.17156,3.84535]],[[259.49935,313.04977],[0.40136,-3.89978],[-0.17446,1.69505]],[[259.49438,318.16178],[0.18918,-1.69347],[-0.20117,1.80083]],[[258.33496,323.47279],[0.29784,-1.78738],[-1.31245,7.87622]],[[256.47677,347.19683],[0.39543,-7.91483],[-0.02646,0.52963]],[[257.99164,347.68268],[-0.51804,-0.11331],[4.47661,0.97915]],[[270.09515,348.64344],[-4.57009,-0.02024],[6.39989,1.27998]],[[290.87664,349.80507],[-6.5543,0.97742],[1.17332,-0.17498]],[[294.2529,348.67965],[-1.16761,0.20972],[3.61863,-0.64997]],[[305.78452,346.95531],[-3.68732,0.38129],[3.74409,-0.38716]],[[316.48362,345.5248],[-3.45215,1.14106],[1.15743,-0.38257]],[[321.34252,344.04836],[-1.20627,1.17909],[0.52506,-0.51322]],[[321.42745,341.66341],[-0.0003,0.00518],[0.34858,-6.14239]],[[322.60635,323.70247],[-0.06862,6.16726],[1.68477,-5.0543]],[[323.67367,308.10467],[0,5.31556],[0,-1.29054]],[[324.02837,304.24639],[0.31193,1.24769],[-0.91948,-0.07798]],[[321.78963,303.4237],[0.53299,0.35041],[-2.32183,-0.10402]],[[314.66861,303.60129],[2.29073,0],[-7.73464,0]],[[291.31784,303.59259],[7.71111,0.50528],[-0.82479,-0.05404]],[[288.84401,303.38618],[0.82447,0.08083],[0.02864,0.43668]],[[288.93514,304.69532],[-0.03209,-0.43609],[-3.06928,-0.44669]],[[279.80541,303.03279],[2.99148,0.76889],[-0.01025,-0.1692]],[[279.77547,302.52506],[0.0097,0.16929],[-0.74836,-0.03546]],[[277.5297,302.47587],[0.74885,-0.0047],[-1.47005,-0.04012]],[[273.11954,302.35549],[1.44554,0.27035],[-0.82455,-0.15422]],[[270.8687,301.23007],[0.81391,0.20296],[-2.03229,-0.50677]],[[263.46192,301.35045],[2.11461,0],[0,0]]],&quot;closed&quot;:true,&quot;fillColor&quot;:[0,0,0,1]}]}" fill="#00f3ff" stroke="none" stroke-width="0.5"/><path d="M212.86927,294.59372c0,0 0.00029,1.22989 0.64052,2.40221c-0.48014,1.53886 -0.5836,3.2219 -1.31815,4.65482c-1.55612,3.03558 -2.84161,4.45413 -4.08325,7.65301c-2.89715,7.46405 -6.43782,16.1125 -12.2831,21.89291c-0.99209,0.83558 -1.80027,1.97161 -2.98086,2.50889c-0.63198,0.28761 -1.38819,-0.10513 -2.07486,-0.20813c-2.57485,-0.38623 -6.61414,-1.28693 -8.78034,-2.72354c-2.68804,-1.78269 -3.72593,-2.82154 -5.99643,-5.03038c-1.49932,-1.4586 -3.50136,-2.30968 -5.27881,-3.41246c-3.13619,-1.94579 -5.86453,-4.43047 -8.75717,-6.58677c-4.41002,-3.28742 -10.28448,-6.34461 -13.5312,-10.81136c-0.49363,-0.38052 -4.80237,-3.11443 -4.99313,-4.04878c-0.35634,-1.74534 2.42198,-5.15678 3.10211,-6.69886c2.72149,-6.17054 7.54111,-10.73096 11.79918,-15.93766c3.3527,-4.09962 5.56618,-8.41727 10.68858,-9.75523c0,0 3.7477,-1.07052 3.27823,-4.69957c0.32926,-0.07645 0.66162,-0.13793 0.99376,-0.18275c0.66622,0.02358 1.33389,0.04052 1.97317,-0.06507c1.71586,0.12527 3.44344,0.74387 5.09841,2.01807c0.88937,0.68475 1.47403,1.73624 2.4089,2.35744c0.92881,0.61717 2.11621,0.75158 3.09134,1.2926c2.6694,1.48103 5.29572,3.64566 7.62525,5.59596c2.08899,2.08899 3.7342,4.65716 6.02867,6.51811c0.75571,0.61292 1.94015,0.48331 2.72383,1.06002c0.60091,0.44221 0.71735,1.33741 1.24552,1.86438c1.23416,1.23136 3.12932,1.73425 4.23208,3.08455c0.46478,0.5691 0.4714,1.42856 0.93087,2.00196c1.09369,1.36485 2.48745,2.46916 3.67535,3.75286c0.19733,0.21325 0.38321,0.43768 0.56471,0.66475l-0.02319,0.83803z" data-paper-data="{&quot;noHover&quot;:false,&quot;origItem&quot;:[&quot;Path&quot;,{&quot;applyMatrix&quot;:true,&quot;segments&quot;:[[212.81961,294.5996],[[212.84295,293.76275],[0,0],[-0.1815,-0.22707]],[[212.2784,293.09906],[0.19733,0.21325],[-1.1879,-1.2837]],[[208.60462,289.35284],[1.09369,1.36485],[-0.45947,-0.5734]],[[207.6749,287.35417],[0.46478,0.5691],[-1.10276,-1.3503]],[[203.44612,284.27652],[1.23416,1.23136],[-0.52817,-0.52697]],[[202.20267,282.41543],[0.60091,0.44221],[-0.78368,-0.57671]],[[199.4815,281.35895],[0.75571,0.61292],[-2.29447,-1.86095]],[[193.46477,274.85136],[2.08899,2.08899],[-2.32953,-1.9503]],[[185.85397,269.26158],[2.6694,1.48103],[-0.97513,-0.54102]],[[182.76787,267.97],[0.92881,0.61717],[-0.93487,-0.6212]],[[180.36304,265.61296],[0.88937,0.68475],[-1.65497,-1.2742]],[[175.27203,263.59477],[1.71586,0.12527],[-0.63928,0.10559]],[[173.30162,263.65951],[0.66622,0.02358],[-0.33214,0.04482]],[[172.30927,263.84203],[0.32926,-0.07645],[0.46947,3.62905]],[[169.03727,268.54008],[0,0],[-5.1224,1.33796]],[[158.36886,278.28321],[3.3527,-4.09962],[-4.25807,5.2067]],[[146.58411,294.19222],[2.72149,-6.17054],[-0.68013,1.54208]],[[143.48239,300.88097],[-0.35634,-1.74534],[0.19076,0.93435]],[[148.47457,304.9227],[-0.49363,-0.38052],[3.24672,4.46675]],[[161.99157,315.70831],[-4.41002,-3.28742],[2.89264,2.1563]],[[170.72954,322.28351],[-3.13619,-1.94579],[1.77745,1.10278]],[[175.99733,325.6937],[-1.49932,-1.4586],[2.2705,2.20884]],[[181.98376,330.72417],[-2.68804,-1.78269],[2.1662,1.43661]],[[190.7529,333.45027],[-2.57485,-0.38623],[0.68667,0.103]],[[192.82543,333.65929],[-0.63198,0.28761],[1.18059,-0.53728]],[[195.80173,331.15255],[-0.99209,0.83558],[5.84528,-5.78041]],[[208.06132,309.28688],[-2.89715,7.46405],[1.24164,-3.19888]],[[212.14183,301.64635],[-1.55612,3.03558],[0.73455,-1.43292]],[[213.45984,296.99832],[-0.48014,1.53886],[-0.64023,-1.17232]],[212.81961,294.59961]],&quot;closed&quot;:true,&quot;fillColor&quot;:[0,0,0,1]}]}" fill="#00f3ff" stroke="none" stroke-width="0.5"/><path d="M273.72754,107.97935c0.10767,0.1705 0.24646,0.3159 0.39651,0.45237c-2.3737,-1.69181 -4.70796,-3.43778 -6.98584,-5.2601c-6.66833,-4.99926 -13.23478,-10.11691 -20.16207,-14.71435c-2.18675,-1.45128 -4.01995,-3.35921 -6.46714,-4.35418c-0.92196,-0.37482 -1.88335,-1.00572 -2.87223,-0.89312c-3.68238,0.41934 -4.01348,1.63255 -6.42257,3.39049c-3.3462,2.44174 -6.87422,4.51846 -10.38769,6.73859c-3.37696,1.33277 -5.90395,3.44907 -8.87462,5.56673c-2.70398,1.92758 -5.43668,3.8659 -8.08892,5.8139c0.09283,-0.33826 0.18069,-0.67947 0.26291,-1.02332c0.4137,-1.72991 0.91908,-5.164 1.53989,-7.01856c0.56002,-1.67296 1.51039,-3.20418 2.03172,-4.88958c0.61472,-1.98725 0.56415,-4.19318 1.45272,-6.07399c0.35288,-0.74693 1.17142,-1.19693 1.56501,-1.92325c1.29924,-2.39758 2.04993,-5.31852 3.28428,-7.78712c1.97361,-3.947 4.5528,-7.52513 6.52732,-11.44452c1.4293,-3.57324 3.83231,-7.26021 6.39298,-10.16848c0.76657,-0.87064 1.53874,-1.75887 2.45168,-2.47454c0.40098,-0.31433 0.93937,-0.44523 1.35785,-0.72711c0.4536,1.33572 3.24575,2.50553 4.01845,3.28455c4.32163,4.3571 7.83789,9.39888 11.80448,14.12435c2.16324,4.33961 5.86136,7.36448 8.50611,11.34965c0.52438,0.79013 0.73095,1.7738 1.28834,2.54102c0.57605,0.7929 1.4816,1.30653 2.06999,2.09031c0.61998,0.82587 0.94762,1.84276 1.52116,2.7015c1.97443,2.9562 4.4643,5.60404 6.48397,8.52143c0.61297,0.88544 1.00103,1.91256 1.59996,2.80759c0.9224,1.37835 2.27415,2.44851 3.12532,3.87194c1.0388,1.73718 1.49943,3.78658 2.58034,5.49785z" data-paper-data="{&quot;noHover&quot;:false,&quot;origItem&quot;:[&quot;Path&quot;,{&quot;applyMatrix&quot;:true,&quot;segments&quot;:[[[294.82465,59.53341],[0,0],[-1.65071,-2.61334]],[[290.88212,51.14018],[1.58636,2.65291],[-1.29984,-2.17375]],[[286.10827,45.22889],[1.40859,2.10491],[-0.91464,-1.36677]],[[283.66369,40.94337],[0.93608,1.35218],[-3.08429,-4.45524]],[[273.75797,27.93847],[3.01519,4.51449],[-0.87588,-1.31142]],[[271.43349,23.81781],[0.94677,1.2612],[-0.89855,-1.19694]],[[268.2715,20.62996],[0.87971,1.21085],[-0.8512,-1.17161]],[[266.30347,16.75674],[0.80079,1.20663],[-4.03888,-6.08582]],[[253.33565,-0.53368],[3.30353,6.62711],[-6.05745,-7.21635]],[[235.34497,-22.0954],[6.59968,6.65384],[-1.17996,-1.18964]],[[229.21395,-27.11257],[0.69268,2.03979],[-0.63908,0.43045]],[[227.14277,-26.00297],[0.61237,-0.48005],[-1.39417,1.09292]],[[223.40389,-22.22614],[1.17066,-1.32956],[-3.91048,4.4413]],[[213.65814,-6.71093],[2.18272,-5.45679],[-3.01532,5.98538]],[[203.70101,10.74194],[3.01395,-6.02755],[-1.88502,3.76984]],[[198.68559,22.61931],[1.98411,-3.66139],[-0.60107,1.10919]],[[196.29515,25.55361],[0.53891,-1.14068],[-1.35699,2.87222]],[[194.07429,34.82116],[0.93873,-3.03477],[-0.79614,2.57382]],[[190.96952,42.28345],[0.8552,-2.5548],[-0.94806,2.83217]],[[188.61456,52.99599],[0.63176,-2.6418],[-0.12557,0.52511]],[[188.2126,54.55805],[0.14176,-0.51658],[4.05027,-2.97483]],[[200.48373,45.73727],[-4.1293,2.94365],[4.53654,-3.23396]],[[214.1173,37.17748],[-5.15703,2.03531],[5.36548,-3.39043]],[[229.97814,26.88382],[-5.11005,3.72883],[3.67897,-2.68456]],[[239.76707,21.69259],[-5.62341,0.64039],[1.51009,-0.17197]],[[244.11806,23.05578],[-1.40793,-0.57243],[3.73717,1.51944]],[[253.97691,29.71558],[-3.33944,-2.21629],[10.57886,7.02088]],[[284.76231,52.19099],[-10.18337,-7.63445],[3.47861,2.7829]],[[295.43025,60.22416],[-3.62494,-2.5836],[-0.22915,-0.20839]],[[294.82466,59.53343],[0.16444,0.26035],[0,0]]],&quot;closed&quot;:true,&quot;fillColor&quot;:[0,0,0,1]}]}" fill="#ffffff" stroke="none" stroke-width="0.5"/><path d="M208.6795,108.46725c2.16685,-1.57359 4.35458,-3.12975 6.55264,-4.70297c2.6536,-1.89926 5.15723,-4.11808 8.21244,-5.18815c1.92998,-1.19478 4.01991,-2.14908 5.86919,-3.46532c0.61405,-0.43704 1.0013,-1.14298 1.6023,-1.59779c1.14461,-0.86619 2.56647,-1.31883 3.72864,-2.16132c0.56075,-0.40652 2.20345,-2.06962 3.11138,-2.31227c0.54795,-0.14645 2.45473,1.89398 2.83776,2.188c0.98422,0.75555 2.06087,1.38647 3.09198,2.07667c6.79225,4.54654 13.28411,9.56273 19.84116,14.48245c5.45062,4.36051 11.23824,8.13621 17.07287,11.86981c0.2726,0.36461 0.97248,1.1528 2.01671,1.29035c1.32321,0.84573 2.64805,1.69588 3.97059,2.5523c3.01761,1.95411 5.91525,4.07505 9.06456,5.82288c1.53553,0.8522 3.24365,1.36814 4.7737,2.23009c2.88177,1.62347 6.50692,3.63603 8.75977,6.07687c0.98403,1.06617 2.3301,2.00928 1.87229,3.51651c-2.14146,4.86121 -5.43553,8.80745 -8.0081,13.38047c-0.45631,0.81113 -0.58167,1.77585 -0.99071,2.6118c-0.45955,0.93916 -3.02638,4.01847 -3.21212,4.28267c-0.16137,0.22957 -0.03986,0.71651 -0.31268,0.78205c-0.22286,0.05355 -0.04646,-0.57941 -0.24443,-0.69492c-0.83226,-0.48552 -1.75355,-0.62959 -2.64648,-0.99155c-1.45418,-0.58942 -2.72509,-1.55662 -4.07461,-2.3571c-1.61575,-0.95837 -3.33729,-1.82546 -4.97433,-2.71206c-0.35935,-2.87941 -0.71955,-5.7379 -0.92569,-8.62384c-0.11594,-1.62297 -0.00553,-3.28016 -0.37987,-4.86363c-0.49321,-2.08624 -1.50331,-4.01655 -2.40969,-5.95926c-0.33743,-0.72323 -0.38482,-1.57835 -0.81827,-2.24844c-3.14637,-4.86407 -8.94768,-7.46431 -14.00281,-9.70108c-11.22581,-4.96715 -23.23194,-7.49777 -35.39898,-8.77739c-4.98684,-0.02658 -9.99485,-0.01098 -14.91134,0.98674c-0.34169,0.06934 -4.70708,1.56952 -4.80273,1.59324c-2.79134,0.69279 -5.47599,0.89657 -7.97031,2.65561c-1.76921,1.24769 -2.95633,3.20337 -4.05263,5.07019c-2.8867,4.91564 -5.71489,10.23059 -5.79302,16.06314l-0.00017,0.95127c0,0 -0.00065,2.01913 1.67316,2.71367c-0.14695,0.75918 -0.27548,1.51701 -0.37762,2.2753c-0.42497,3.15476 -0.76747,6.31767 -1.05661,9.49206c-2.6051,1.35664 -5.1993,2.72651 -7.69942,4.24519c-3.31919,2.01621 -6.35181,4.56759 -9.59568,6.72757c-0.00021,-0.00278 -0.05642,0.0286 -0.05692,0.02585c-0.23514,-1.31528 -1.20585,-2.39274 -1.67227,-3.64479c-1.74937,-4.69603 -2.77255,-8.25078 -2.04308,-13.35694c-0.00234,-2.22226 0.07861,-4.61456 0.76023,-6.76398c0.74119,-2.33735 3.03696,-4.07945 4.54644,-5.78878c1.10147,-1.24729 1.84425,-2.80076 3.02682,-3.97145c0.73837,-0.73095 1.67254,-1.25991 2.35338,-2.04473c2.29736,-2.64826 4.15976,-5.58527 6.59375,-8.17887c4.42657,-4.71681 10.13553,-9.02073 15.7967,-12.15641c0,0 2.37113,-1.31931 1.30221,-3.69971z" data-paper-data="{&quot;noHover&quot;:false,&quot;origItem&quot;:[&quot;Path&quot;,{&quot;applyMatrix&quot;:true,&quot;segments&quot;:[[[195.57023,60.33548],[0,0],[1.63238,3.63513]],[[193.58391,65.981],[0,0],[-8.6453,4.78859]],[[169.46492,84.52837],[6.75994,-7.20315],[-3.71701,3.96071]],[[159.39552,97.01095],[3.50835,-4.04422],[-1.03972,1.19853]],[[155.80149,100.13193],[1.1276,-1.11626],[-1.80593,1.78777]],[[151.1788,106.19397],[1.68207,-1.90477],[-2.30515,2.61035]],[[144.23515,115.03061],[1.13191,-3.56942],[-1.04091,3.28244]],[[143.07298,125.35574],[-0.00356,-3.39367],[-1.11397,7.79774]],[[146.18952,145.74526],[-2.6715,-7.17142],[0.71229,1.91207]],[[148.74197,151.30903],[-0.35908,-2.0086],[0.00075,0.00423]],[[148.7436,151.32176],[-0.00033,-0.00425],[4.95382,-3.29853]],[[163.39709,141.04747],[-5.06881,3.07899],[3.81797,-2.31918]],[[175.15518,134.56478],[-3.97832,2.07177],[0.44153,-4.84768]],[[176.76532,120.06245],[-0.64901,4.81771],[0.15599,-1.15797]],[[177.34129,116.58594],[-0.22439,1.15934],[-2.55613,-1.06064]],[174.78516,112.43885],[[174.78516,110.98525],[0,0],[0.11932,-8.90703]],[[183.63015,86.43801],[-4.40833,7.50679],[1.67415,-2.85085]],[[189.81997,78.68833],[-2.7018,1.90537],[3.80913,-2.68627]],[[201.99345,74.62637],[-4.2627,1.058],[0.14606,-0.03625]],[[209.33,72.18809],[-0.52182,0.10589],[7.50807,-1.52365]],[[232.11628,70.66335],[-7.61552,-0.04059],[18.58058,1.95414]],[[286.25403,84.0988],[-17.14318,-7.58546],[7.71981,3.41584]],[[307.63837,98.92878],[-4.80487,-7.42802],[0.66195,1.02332]],[[308.88759,102.36501],[-0.51529,-1.10447],[1.38414,2.96676]],[[312.56603,111.47142],[-0.75319,-3.18594],[0.57168,2.41814]],[[313.14447,118.90333],[-0.17704,-2.47848],[0.3148,4.40721]],[[314.55476,132.07956],[-0.54878,-4.39722],[2.49996,1.35396]],[[322.06574,136.16928],[-2.46745,-1.46356],[2.06092,1.22243]],[[328.28814,139.76892],[-2.22071,-0.90012],[1.36367,0.55274]],[[332.41553,141.33437],[-1.27097,-0.74144],[0.30234,0.17638]],[[332.70293,142.34437],[-0.34034,0.08179],[0.41667,-0.10013]],[[333.18012,141.15063],[-0.24642,0.35059],[0.28363,-0.40352]],[[338.08351,134.614],[-0.70181,1.43422],[0.62468,-1.27659]],[[339.59558,130.62739],[-0.69684,1.23869],[3.92863,-6.98352]],[[351.82169,110.20449],[-3.27027,7.42367],[0.69917,-2.30177]],[[348.96212,104.83662],[1.50274,1.62817],[-3.44038,-3.7275]],[[335.58448,95.56064],[4.40083,2.47924],[-2.33658,-1.31633]],[[328.29439,92.15686],[2.34493,1.30141],[-4.80936,-2.66913]],[[314.45204,83.27104],[4.60824,2.98416],[-2.0197,-1.30789]],[[308.38901,79.37699],[2.02071,1.29153],[-1.59465,-0.21005]],[[305.30967,77.40856],[0.41628,0.55679],[-8.91021,-5.70163]],[[279.25052,59.30574],[8.32379,6.65903],[-10.01337,-7.51299]],[[248.98462,37.20401],[10.37262,6.94312],[-1.57463,-1.05401]],[[244.26701,34.03262],[1.50304,1.1538],[-0.58492,-0.449]],[[239.93681,30.69098],[0.83677,-0.22364],[-1.38652,0.37056]],[[235.18972,34.22136],[0.85635,-0.6208],[-1.77477,1.28659]],[[229.501,37.5205],[1.74797,-1.32277],[-0.91782,0.69456]],[[227.05673,39.95956],[0.93774,-0.66744],[-2.82408,2.01006]],[[218.10223,45.24719],[2.94731,-1.8246],[-4.66567,1.63414]],[[205.57095,53.16157],[4.05235,-2.90042],[-3.35671,2.40252]],[[195.57023,60.33549],[3.30901,-2.40307],[0,0]]],&quot;closed&quot;:true,&quot;fillColor&quot;:[0,0,0,1]}]}" fill="#ffffff" stroke="none" stroke-width="0.5"/><path d="M206.61745,150.78c-1.6232,1.06279 -3.35564,2.06901 -5.05183,3.00886c0.1901,-1.79562 0.399,-3.59222 0.63499,-5.38177c0.53352,-4.04592 1.88937,-8.14987 2.8064,-12.12328c0,0 0.56334,-2.443 -1.59821,-3.34341c0.69617,-1.54432 1.69592,-2.94589 2.54576,-4.41392c0.92359,-1.59541 0.56799,-2.04391 2.29348,-3.17802c1.89026,-1.24241 3.91058,-1.26245 5.99072,-1.78587c1.60689,-0.40434 3.09075,-1.2608 4.71668,-1.57994c4.40335,-0.86429 8.88329,-0.89561 13.34637,-0.88016c11.44719,1.20612 22.86994,3.64968 33.42911,8.31922c3.75541,1.66074 9.06487,3.68818 11.38143,7.43192c0.28439,0.45955 0.22708,1.06686 0.45111,1.55868c0.72342,1.58819 1.63577,3.12921 2.03291,4.8286c0.30536,1.30663 0.15956,2.6821 0.25516,4.02053c0.09669,1.35359 0.22432,2.7063 0.37065,4.05511c-3.68799,-2.49212 -7.40787,-5.08791 -11.03715,-7.64645c-3.1894,-2.24844 -6.00265,-5.00379 -9.17574,-7.27017c-1.07807,-0.77 -2.32877,-1.28571 -3.35961,-2.11791c-2.19468,-1.77173 -3.92057,-4.0345 -5.96709,-5.97548c-1.82786,-1.73359 -3.12461,-4.4055 -5.54233,-5.1133c-1.27728,-0.3739 -2.00015,1.75077 -3.01427,2.6126c-2.40504,2.04387 -3.89706,4.55132 -6.45061,6.50585c-2.34683,1.79629 -4.8734,3.22765 -6.95872,5.36145c-7.76628,3.7665 -14.90765,8.39808 -22.09921,13.10679z" data-paper-data="{&quot;noHover&quot;:false,&quot;origItem&quot;:[&quot;Path&quot;,{&quot;applyMatrix&quot;:true,&quot;segments&quot;:[[[192.33164,124.94484],[0,0],[10.98242,-7.19074]],[[226.07646,104.91199],[-11.86004,5.7519],[3.18449,-3.25858]],[[236.71762,96.68838],[-3.5839,2.74317],[3.8996,-2.98481]],[[246.60937,86.73851],[-3.6728,3.12124],[1.5487,-1.31612]],[[251.22153,82.75055],[-1.95054,-0.57101],[3.69216,1.08086]],[[259.70761,90.57294],[-2.79134,-2.64741],[3.12526,2.96412]],[[268.83256,99.72251],[-3.35152,-2.70565],[1.57421,1.27084]],[[273.96401,102.96391],[-1.64634,-1.17589],[4.84573,3.46104]],[[287.9754,114.07985],[-4.87063,-3.43365],[5.54233,3.90718]],[[304.73447,125.72954],[-5.63199,-3.80577],[-0.22348,-2.05979]],[[304.16711,119.54133],[0.14765,2.06713],[-0.146,-2.04395]],[[303.77648,113.40629],[0.46632,1.99539],[-0.60649,-2.59518]],[[300.67144,106.03853],[1.10473,2.42536],[-0.34211,-0.75108]],[[299.98252,103.66036],[0.43428,0.70181],[-3.53765,-5.71711]],[[282.60413,92.32549],[5.73497,2.53615],[-16.12513,-7.13093]],[[231.62464,79.64992],[17.48126,1.84191],[-6.81569,-0.0236]],[[211.26071,80.97857],[6.72444,-1.31989],[-2.48302,0.48738]],[[204.06123,83.38562],[2.45391,-0.61747],[-3.17665,0.79933]],[[194.9152,86.10715],[2.88665,-1.89729],[-2.63503,1.73192]],[[191.41434,90.95536],[1.41041,-2.4364],[-1.29779,2.24187]],[[187.52787,97.68956],[1.06316,-2.35836],[3.30094,1.375]],[[189.96887,102.79098],[0,0],[-1.40045,6.06785]],[[185.68128,121.28943],[0.81477,-6.17865],[-0.36038,2.73283]],[[184.70966,129.50247],[0.2903,-2.74213],[2.59026,-1.4353]],[[192.33163,124.94485],[-2.47883,1.62302],[0,0]]],&quot;closed&quot;:true,&quot;fillColor&quot;:[0,0,0,1]}]}" fill="#ffffff" stroke="none" stroke-width="0.5"/><path d="M278.19552,157.0286c1.00178,0.79839 2.05066,1.49703 3.12355,2.14069c0.57129,3.19692 1.16136,6.44127 1.38808,9.64638c0.49074,6.93738 -0.00871,13.71781 -0.32484,20.6378c-0.09993,2.18723 0.30145,5.0163 -0.49494,7.14709c-0.30444,0.81455 -0.84596,1.52473 -1.19029,2.32325c-1.01608,2.35651 -1.35432,4.91015 -3.98239,6.10539c-3.7025,1.68394 -9.45233,0.65034 -13.29336,0.65034c-9.30991,0 -18.53382,-0.29327 -27.79044,-1.29603c-4.82262,-0.52244 -9.40205,-0.73022 -14.11241,-1.80481c-3.89532,-0.88865 -8.33592,-1.30442 -11.88613,-3.39009c-0.46464,-1.10145 -1.50745,-1.47329 -2.15539,-1.59783c-1.27043,-1.16484 -2.36658,-2.55706 -3.56915,-3.74923c-0.90319,-0.8954 -1.7719,-1.88924 -2.30505,-3.04392c-0.35204,-0.70141 -1.74789,-3.31313 -1.95871,-4.28756c-0.23134,-1.06926 0.04648,-2.18973 0.04648,-3.28371c0,-3.25099 0.09446,-6.42614 0.30991,-9.65968c0.28379,-4.2586 0.56236,-8.5283 0.9107,-12.77863c3.01828,-1.58297 6.01822,-3.2113 8.8717,-5.07637c7.28188,-4.75951 14.56861,-9.31133 22.33617,-13.28766c3.01352,-2.95516 6.71226,-4.99552 9.82032,-7.85539c1.05899,-0.97445 1.75067,-2.2907 2.71929,-3.35503c0.24278,-0.26677 0.57762,-0.45932 0.90471,-0.65349c0.49293,2.10613 2.55844,3.42897 4.02617,4.8932c1.13478,1.13206 2.17211,2.37906 3.41673,3.38909c1.11281,0.90308 2.45792,1.48834 3.62408,2.32138c3.19007,2.27874 6.03175,5.05889 9.23692,7.3241c4.06559,2.87333 8.18052,5.77995 12.32829,8.54077z" data-paper-data="{&quot;noHover&quot;:false,&quot;origItem&quot;:[&quot;Path&quot;,{&quot;applyMatrix&quot;:true,&quot;segments&quot;:[[[301.63885,134.48363],[0,0],[-6.33414,-4.21609]],[[282.82091,121.4576],[6.20865,4.38792],[-4.89466,-3.45927]],[[268.72932,110.28497],[4.87162,3.47992],[-1.78087,-1.27213]],[[263.20102,106.74289],[1.69939,1.3791],[-1.90069,-1.54245]],[[257.98947,101.56934],[1.73294,1.72878],[-2.24142,-2.23604]],[[251.84763,94.09805],[0.75278,3.21631],[-0.49951,0.29655]],[[250.46714,95.09613],[0.37076,-0.40738],[-1.47921,1.62534]],[[246.31801,100.21986],[1.61722,-1.48807],[-4.74638,4.36735]],[[231.33886,112.21316],[4.602,-4.5129],[-11.86202,6.07236]],[[197.25862,132.47643],[11.12032,-7.26834],[-4.3576,2.84816]],[[183.7132,140.21924],[4.60927,-2.41739],[-0.53199,6.49078]],[[182.32288,159.71827],[0.43335,-6.5034],[-0.32904,4.938]],[[181.84705,174.45921],[0,-4.96467],[0,1.67067]],[[181.77484,179.47071],[-0.35329,-1.63289],[0.32194,1.48806]],[[184.76371,186.0137],[-0.53759,-1.07114],[0.81417,1.76334]],[[188.28158,190.65859],[-1.37929,-1.36741],[1.83646,1.82064]],[[193.72861,196.37961],[-1.94009,-1.77885],[0.98949,0.19023]],[[197.01814,198.81754],[-0.70957,-1.68204],[5.42161,3.18507]],[[215.15889,203.98623],[-5.94861,-1.35707],[7.19328,1.64102]],[[236.69301,206.73633],[-7.36473,-0.79781],[14.13601,1.53134]],[[279.09922,208.72194],[-14.21737,0],[5.86573,0]],[[299.39059,207.73582],[-5.6542,2.57156],[4.01337,-1.8253]],[[305.46741,198.41744],[-1.55166,3.59868],[0.52579,-1.21943]],[[307.28358,194.87165],[-0.4649,1.24391],[1.21614,-3.25394]],[[308.03596,183.96288],[-0.15259,3.34015],[0.48277,-10.56769]],[[308.52648,152.46866],[0.74944,10.59423],[-0.34625,-4.89456]],[[306.40794,137.74921],[0.87242,4.88211],[-1.63842,-0.98293]],[[301.63885,134.48362],[1.52984,1.21925],[0,0]]],&quot;closed&quot;:true,&quot;fillColor&quot;:[0,0,0,1]}]}" fill="#ffeaab" stroke="none" stroke-width="0.5"/><path d="M184.72277,202.55117c6.90168,0.71626 13.92852,0.81549 20.91752,0.82512c1.5808,1.02685 3.25064,1.88924 4.95813,2.55207c3.13864,1.21836 6.36461,1.60808 9.62332,2.34599c4.9338,1.11722 9.72908,1.36165 14.76966,1.90532c9.465,1.0209 18.90933,1.33645 28.42907,1.33645c4.96095,0 11.21811,0.93045 15.91066,-1.25212c1.18359,-0.5505 2.1233,-1.24554 2.90033,-2.04788c0.76678,0.41766 1.56846,0.41833 1.56846,0.41833l0.98251,-0.05694c1.88596,-0.39311 3.5633,-0.34561 5.48883,-0.34561c4.02661,0 11.25001,-0.8137 13.414,3.74155c0.67968,2.86966 1.14772,5.6848 1.45053,8.5724c0.31728,3.02558 1.73914,5.88307 2.02316,8.90066c0.334,3.54863 1.02353,6.88746 1.65874,10.39073c0.39173,2.16046 0.34949,4.39475 0.82232,6.53895c0.27535,1.24871 0.93511,2.39291 1.21295,3.64108c0.6703,3.01157 0.24752,6.18628 1.6269,8.94503c-0.07608,1.58965 0.22303,3.17706 0.33064,4.76489c0.16344,2.41143 -0.19213,4.48973 -0.40109,6.85524c-0.17593,1.99138 0.17837,4.03218 0.00326,6.02035c-0.07034,0.79856 -0.89461,4.55176 -1.83569,4.84847c-0.92977,0.29312 -1.94146,-0.22493 -2.9163,-0.2238c-3.1114,0.00363 -5.17853,-0.6982 -8.13379,-1.51563c-2.7609,-0.76367 -5.53965,-0.03777 -8.23389,-0.72436c-0.84577,-0.41725 -1.64187,-0.95614 -2.53754,-1.25139c-1.21172,-0.39944 -2.63748,-0.10062 -3.7636,-0.70037c-1.42642,-0.75971 -2.65377,-1.91225 -4.16796,-2.47713c-4.06273,-1.51567 -8.40931,-3.19757 -12.31221,-5.15456c-0.83262,-0.41748 -1.4972,-1.12052 -2.31797,-1.56086c-3.16403,-1.69743 -6.78891,-2.63231 -9.79572,-4.64826c-1.79879,-1.20604 -3.50073,-2.57577 -5.38744,-3.72255c-4.64808,-2.82517 -9.66467,-5.21292 -14.35586,-7.99754c-4.7936,-2.39477 -9.09774,-5.31435 -13.76611,-7.90968c-9.27586,-5.15677 -18.93108,-9.47824 -28.40489,-14.21515c-2.0251,-1.01257 -3.98913,-2.14353 -5.99264,-3.19823c-0.63804,-0.3359 -1.40533,-0.45097 -1.96403,-0.9068c-0.62228,-0.50772 -0.87796,-1.36967 -1.47845,-1.90298c-0.62205,-0.55246 -1.57424,-0.68258 -2.12923,-1.30237c-0.42188,-0.47118 -0.28575,-1.26185 -0.63669,-1.78802c-0.37493,-0.56213 -1.13029,-0.80754 -1.47932,-1.38614c-0.58708,-0.97315 -0.47001,-3.6786 -0.45936,-4.67685c0,-2.83055 0.00148,-5.66415 0.00148,-8.49473c0,-0.80873 0.04904,-1.61971 0.00044,-2.427c-0.0118,-0.19593 -0.00937,-0.40305 -0.02483,-0.60476c1.21664,0.30962 3.62047,-0.19202 4.40166,-0.11095z" data-paper-data="{&quot;noHover&quot;:false,&quot;origItem&quot;:[&quot;Path&quot;,{&quot;applyMatrix&quot;:true,&quot;segments&quot;:[[[158.98451,204.01449],[0,0],[-1.19296,-0.12381]],[[152.26349,204.18258],[1.85794,0.47284],[0.02358,0.30801]],[[152.30155,205.10584],[-0.01802,-0.29921],[0.07424,1.2328]],[[152.30155,208.81093],[0,-1.23503],[0,4.32261]],[[152.30155,221.77875],[0,-4.32261],[-0.01629,1.52448]],[[153.00412,228.91812],[-0.89655,-1.4861],[0.53303,0.88354]],[[155.26343,231.03433],[-0.57257,-0.85844],[0.53594,0.80353]],[[156.23608,233.76378],[-0.64429,-0.71957],[0.84751,0.94652]],[[159.4878,235.75223],[-0.94994,-0.84368],[0.91702,0.81444]],[[161.74588,238.65725],[-0.9503,-0.77534],[0.85322,0.69613]],[[164.74528,240.04176],[-0.9744,-0.51296],[3.05957,1.61067]],[[173.89711,244.92449],[-3.0926,-1.5463],[14.46767,7.23383]],[[217.27615,266.61772],[-14.16534,-7.87504],[7.12917,3.96337]],[[238.28502,278.66553],[-7.32041,-3.6571],[7.16402,4.25248]],[[260.15961,290.86471],[-7.09817,-4.31435],[2.88124,1.75125]],[[268.37814,296.55258],[-2.74698,-1.84174],[4.59178,3.07861]],[[283.32819,303.65659],[-4.83186,-2.59218],[1.2534,0.67242]],[[286.86699,306.04099],[-1.27149,-0.63755],[5.96017,2.98857]],[[305.66423,313.91722],[-6.20427,-2.31461],[2.31235,0.86266]],[[312.02852,317.70088],[-2.17833,-1.16018],[1.7197,0.91591]],[[317.77478,318.7718],[-1.85046,-0.60998],[1.3678,0.45088]],[[321.64953,320.68328],[-1.29158,-0.63716],[4.11442,1.04851]],[[334.22147,321.79231],[-4.21624,-1.16623],[4.51306,1.24833]],[[346.64142,324.10885],[-4.75149,0.00552],[1.48874,-0.00173]],[[351.0945,324.45139],[-1.41985,0.44765],[1.43712,-0.4531]],[[353.89611,317.05016],[-0.10741,1.2195],[0.26742,-3.03619]],[[353.88954,307.85969],[-0.26865,3.04109],[0.31912,-3.61246]],[[354.50042,297.3952],[0.24958,3.68252],[-0.16434,-2.42477]],[[353.99459,290.12177],[-0.1162,2.42756],[-2.10647,-4.21295]],[[351.50892,276.4679],[1.02361,4.59903],[-0.42425,-1.90611]],[[349.65637,270.91026],[0.42052,1.90694],[-0.72206,-3.27442]],[[348.4005,260.92971],[0.59822,3.29929],[-0.97003,-5.3499]],[[345.86841,245.0702],[0.51005,5.41917],[-0.43372,-4.60822]],[[342.78083,231.48487],[0.48453,4.62042],[-0.46242,-4.40968]],[[340.56839,218.39986],[1.03795,4.38234],[-3.30469,-6.95641]],[[320.08827,212.69339],[6.14912,0],[-2.9405,0]],[[311.70807,213.22352],[2.88007,-0.6003],[0,0]],[310.20803,213.31091],[[307.81374,212.67309],[1.17098,0.63782],[-1.18663,1.22526]],[[303.38498,215.80085],[1.80751,-0.8407],[-7.16609,3.33304]],[[279.09921,217.72194],[7.57598,0],[-14.53782,0]],[[235.72579,215.68421],[14.4542,1.55904],[-7.69758,-0.83026]],[[213.18439,212.76697],[7.53451,1.70613],[-4.97647,-1.12688]],[[198.49293,209.18036],[4.79311,1.86058],[-2.60754,-1.01219]],[[190.92233,205.28197],[2.41406,1.56813],[-10.67305,-0.01469]],[[158.98452,204.01448],[10.53972,1.09382],[0,0]]],&quot;closed&quot;:true,&quot;fillColor&quot;:[0,0,0],&quot;strokeWidth&quot;:0.5}]}" fill="#7aff69" stroke="none" stroke-width="0.25"/><path d="M183.80077,196.71046c2.35743,0.81127 2.81542,3.55924 2.81542,3.55924l0.2395,1.77199c1.5223,4.66111 1.45972,8.99822 1.45567,13.85951c-0.38849,5.45506 -0.33808,10.82954 -3.15673,15.76056c-1.57247,2.75092 -2.85236,2.61834 -4.76003,4.50097c-1.03742,1.0238 -1.74011,2.39843 -2.91886,3.25572c-2.19753,1.59824 -5.14043,1.76361 -7.70561,2.65993c-1.30433,0.45576 -2.40045,1.4591 -3.74534,1.77577c-4.16171,0.97993 -8.50913,-0.33687 -12.57338,-0.72489c-7.57712,-0.7234 -15.04714,-1.07395 -22.63006,-2.06136c-5.2075,-0.6781 -9.98014,-1.12655 -15.07948,-2.51728c-6.13735,-1.01564 -11.74487,-2.23312 -17.64217,-4.21726c-5.15644,-1.73488 -10.16054,-3.52989 -13.86531,-7.88985c-4.85452,-5.71302 -3.86499,-12.26166 -3.53409,-19.07378c0.27433,-5.64749 2.09265,-10.48754 2.91008,-16.02863c1.52541,-10.34032 4.76122,-20.01566 10.92464,-28.53131c3.05497,-2.73211 6.67757,-6.48521 10.90604,-7.50937c3.77036,-0.91321 8.70316,-0.04176 12.49311,0.3076c16.6015,1.53038 30.65669,11.21414 43.20588,21.63895c6.29773,5.23163 12.72591,12.91676 20.18541,16.46398c0,0 1.99967,0.99983 2.47531,2.9995z" fill="#ffeaab" stroke="#000000" stroke-width="6"/><path d="M293.90302,209.29865c-3.74423,-2.49615 -1.24808,-6.24038 -1.24808,-6.24038l3.35923,-3.61139c2.80238,-1.09503 5.7767,-1.76179 8.75246,-2.20603c0,0 0.20687,-0.02955 0.53783,-0.03134c1.2908,-2.49297 2.75872,-4.9718 4.27285,-7.75995c4.1526,-7.64665 7.8051,-15.60433 11.8195,-23.32829c2.64683,-5.09268 5.76106,-10.10165 8.12022,-15.32726c1.99242,-4.41326 4.88845,-13.3151 10.60525,-14.67373c5.1101,-1.21445 9.29462,1.36382 13.32667,3.7159c3.22038,1.87859 10.76768,6.81888 13.79096,8.7761c11.30835,8.32957 22.53013,17.23374 31.25245,28.32735c4.15719,5.28738 8.63492,10.44706 10.24121,17.22421c1.07291,4.52674 0.97675,8.79328 0.95919,13.39289c-0.02391,6.26258 -1.52019,10.56743 -4.75451,15.85389c-3.08904,5.049 -5.92374,8.16838 -10.55194,11.89113c-1.88017,1.31677 -7.65983,5.48069 -9.55153,6.27719c-1.86159,0.78383 -3.94158,0.89112 -5.89022,1.42286c-5.98537,1.63327 -12.01483,2.59087 -18.01828,4.0956c-8.44532,2.11676 -17.88706,4.41336 -26.63601,2.50906c-7.0046,-1.52462 -14.28384,-4.49577 -19.70242,-9.26519c-2.33936,-2.05911 -4.20092,-4.60758 -6.40422,-6.81167c-5.72717,-6.67489 -11.88155,-15.19977 -13.90215,-23.99704c-0.12468,-0.07098 -0.25086,-0.14882 -0.37849,-0.2339z" fill="#ffeaab" stroke="#000000" stroke-width="5"/><path d="M227.05745,176.77448c0,5.72659 1.85106,12.10617 -0.8438,17.15905c-1.67853,3.14725 -7.43804,2.43822 -8.30314,-1.02216c-4.07075,-16.283 -5.69149,-32.83412 -5.47911,-49.61191c0.05129,-4.05157 6.9145,-6.18441 8.4375,-2.25c1.87426,4.84183 2.36913,10.48604 3.99646,15.47642c0.77993,2.39174 4.42944,8.30268 4.47736,11.20643c0.00264,0.16008 -0.01667,0.313 -0.05414,0.46006c-0.15597,1.68684 -1.24294,3.10384 -2.74229,3.73236c-0.39981,1.48921 0.65621,3.07587 0.44971,4.60393z" fill="#000000" stroke="#000000" stroke-width="0.5"/><path d="M258.84624,148.92593c1.07695,-0.6154 2.6793,-1.67954 3.9375,-2.25c0.73328,-0.33246 1.41717,0.76721 2.09713,1.19836c3.07193,1.94785 2.74074,3.58332 2.40287,7.80249c0,0.26334 -0.02262,0.52139 -0.06602,0.77233c-0.48183,5.31175 -1.51886,10.6501 -1.91082,16.11644c-0.17622,2.45757 -0.20697,4.92359 -0.27358,7.38657c-0.0205,0.75791 0.2381,4.17912 -0.5625,4.97972c-6.23888,6.23888 -8.31339,-1.39474 -8.4375,-6.09453c-0.15409,-5.83518 -1.051,-11.9543 -0.56261,-17.81578c0.06419,-0.77041 0.12591,-1.612 0.5625,-2.25c0.34791,-0.50842 1.4368,-0.32421 1.60467,-0.91696c0.72607,-2.56364 0.0754,-5.42224 0.96008,-7.93556zM267.28374,155.67678z" fill="#000000" stroke="#000000" stroke-width="0.5"/><path d="M223.91772,208.70982c0,-1.3111 0.764,-1.85821 1.40161,-2.08651c-0.07785,-0.32211 -0.07785,-0.56101 -0.07785,-0.56101c0.16061,-3.47992 -0.46505,-4.11252 3.10951,-6.63066c1.20166,-0.84652 2.76422,-1.00222 4.12918,-1.54763c4.36048,-1.74235 8.77822,-2.46098 13.39341,-3.29939c4.38461,-0.79652 8.63596,-1.63639 12.84394,0.48308c4.09043,2.06026 8.64972,10.57167 4.57507,14.64445c-1.13581,1.13529 -2.92253,1.33215 -4.38379,1.99823c-10.72474,0.12068 -21.79746,0.40567 -32.46004,-0.76433l-0.28103,0.01376c0,0 -2.25,0 -2.25,-2.25zM229.63294,206.7397c9.38513,0.80762 18.99785,0.42126 28.39333,0.55808c0.65676,-0.21643 1.41889,-0.23198 1.97027,-0.6493c0.78841,-0.59672 -0.0182,-1.99788 -0.27035,-2.95396c-0.53862,-2.04233 -1.0609,-3.63479 -3.09716,-4.64081c-3.1812,-1.57167 -6.63448,-0.64519 -9.92478,-0.04642c-4.33828,0.78947 -8.44218,1.48716 -12.55234,3.05467c-2.72575,1.03953 -4.70364,0.83984 -4.41043,4.00034c0,0 0,0.29816 -0.10854,0.6774z" fill="#000000" stroke="none" stroke-width="0.5"/></g></g></svg>