<svg version="1.1" xmlns="http://www.w3.org/2000/svg" xmlns:xlink="http://www.w3.org/1999/xlink" width="98.18777" height="205.7211" viewBox="0,0,98.18777,205.7211"><defs><radialGradient cx="506.30297" cy="207.51707" r="102.86055" gradientUnits="userSpaceOnUse" id="color-1"><stop offset="0" stop-color="#454545"/><stop offset="1" stop-color="#000000"/></radialGradient></defs><g transform="translate(-457.20908,-104.65651)"><g data-paper-data="{&quot;isPaintingLayer&quot;:true}" fill-rule="nonzero" stroke-linecap="butt" stroke-linejoin="miter" stroke-miterlimit="10" stroke-dasharray="" stroke-dashoffset="0" style="mix-blend-mode: normal"><path d="M457.20908,245.06593l5.81988,-140.40941l92.36789,15.14246l-7.20449,190.57864z" data-paper-data="{&quot;index&quot;:null}" fill="url(#color-1)" stroke="#000000" stroke-width="0"/><path d="M537.58052,219.71446c0.4768,-1.39052 1.42164,-1.82454 2.22992,-1.91711c3.08911,-3.80231 5.36357,-8.48304 7.44006,-12.70665c1.14716,-4.16327 2.9722,-8.25132 3.58493,-12.54239c0.98179,-6.87573 1.28287,-13.89095 2.18962,-20.71688c0.02101,-0.15818 0.06391,-0.37477 0.12414,-0.63584c-0.14633,12.70753 -2.33902,25.40777 -2.39337,38.0565c-0.00237,0.55059 -0.00464,1.10119 -0.00683,1.65178c-1.70505,3.35451 -3.5958,6.73305 -5.88712,9.7318c2.03092,2.26781 4.25784,4.18206 5.84698,6.7376c-0.00849,8.5961 0.0014,17.19223 0.02438,25.78829c-2.07706,4.29601 -5.34819,7.88803 -9.97722,9.92116c-2.76014,1.21229 -5.92489,1.46648 -8.8656,1.86501c-11.06444,1.35065 -21.97548,-3.13878 -31.84848,-7.77337c-3.49156,-1.63901 -5.52202,-1.61009 -8.1646,-4.78695c-6.04681,-7.26936 -1.61534,-20.96354 1.66017,-28.61638c0,0 0.04469,-0.10366 0.13693,-0.26101c-5.45139,-4.64219 -10.19054,-9.84675 -13.16708,-16.61361c-1.51943,-3.10954 -3.2972,-6.0303 -4.99736,-9.04218l-1.44752,-2.56475c0,0 -0.60613,-1.07397 -0.3197,-2.2112c-2.75399,-4.46742 -5.79182,-8.66765 -8.36543,-13.17736l-0.93581,-2.60238c-0.14753,-0.29164 -0.25823,-0.64244 -0.31479,-1.06414c-0.11226,-0.83712 0.05489,-1.4609 0.3467,-1.92441c0.28389,-0.46841 0.76691,-0.89705 1.56575,-1.17131c0.37677,-0.12936 0.7192,-0.18845 1.02956,-0.1943c1.04735,-0.14047 2.09472,-0.28093 3.14209,-0.42139c2.21904,-7.48331 2.54037,-15.75194 5.56002,-22.88649c2.31995,-5.48136 2.52367,-7.97229 9.36805,-7.0358c2.7105,0.37086 4.54946,3.04101 6.86631,4.49585l1.28544,0.71688c4.88907,-2.66896 9.19223,-6.26305 14.3275,-8.46705c3.13818,-1.34688 8.12059,-2.50034 11.42904,-3.35156c1.31443,-0.33819 7.08163,-1.87512 7.60369,-1.66085c5.24016,2.15077 6.2125,9.60304 6.84033,14.04265l-0.00994,1.45848c6.85241,-0.17924 13.74793,0.4656 20.06712,3.10737c-0.11078,1.43745 -0.35943,3.64 -0.39164,5.08937c-0.00868,0.39054 -0.01561,0.7811 -0.02106,1.17167c-0.91802,-0.49092 -1.82982,-0.99527 -2.79707,-1.37471c-5.71271,-2.24096 -11.90127,-2.48438 -17.92363,-2.21532c0,0 -0.76571,0.03268 -1.52263,-0.33145c-0.10349,0.00752 -0.21115,0.01097 -0.32315,0.01001c-2.86967,-0.02463 -2.84505,-2.8943 -2.84505,-2.8943l0.03866,-3.6634c-0.15639,-1.25594 -0.79226,-7.89692 -2.86248,-8.93431c-0.54452,-0.27285 -0.95844,0.78257 -1.52463,1.007c-0.92756,0.36767 -1.93245,0.49792 -2.89881,0.7464c-2.85059,0.73295 -7.84409,1.89408 -10.60075,3.06967c-5.19599,2.21586 -9.5899,6.00704 -14.59801,8.63533c0,0 -0.59924,0.31356 -1.36813,0.34534c-1.2182,0.44979 -2.44787,-0.23833 -2.44787,-0.23833l-2.51262,-1.41038c-1.24138,-0.78191 -2.53388,-1.48799 -3.72414,-2.34571c-0.87464,-0.63029 -2.26708,-2.29282 -2.90427,-1.4232c-0.59082,0.80632 -1.56443,5.10021 -1.84197,6.20671c-1.78314,7.10896 -2.90619,14.28979 -5.23142,21.2446c-0.1035,0.83666 -0.54032,1.37969 -1.01887,1.72913c-0.43473,0.3994 -1.04982,0.7206 -1.88577,0.66138c-0.38029,0.051 -0.83765,0.11234 -1.32502,0.1777c2.37407,4.06635 5.2023,7.95216 7.69706,12.00141c0,0 0.69039,1.12217 0.37523,2.3136l1.41803,2.51252c1.77635,3.14793 3.61638,6.20453 5.20799,9.45316c3.47775,8.03377 9.88435,13.41284 16.67946,18.64253c2.41683,1.86005 3.05654,2.96588 5.9339,3.46406c5.24017,0.90727 10.88765,-0.50298 16.04999,-1.19087c4.02808,-0.53675 8.51007,-1.29789 11.80707,-3.94859c0.42258,-0.33974 0.83199,-0.6967 1.22913,-1.06895c0.02994,-0.21016 0.08339,-0.43332 0.16457,-0.67004zM494.93143,243.48771c0.08679,1.55122 0.23983,3.93309 1.38383,5.26004c1.62614,1.88617 4.01958,2.22833 6.15256,3.22493c6.39294,2.987 12.29659,5.74772 19.27606,6.41523c3.84204,0.36745 5.53593,1.44909 9.3836,0.8712c2.0549,-0.2724 5.31426,-0.56202 7.24987,-1.39984c9.43402,-4.08351 10.80668,-16.89529 8.35895,-25.4749c-0.91418,-3.20432 -3.41838,-5.29894 -5.68104,-7.54722c-0.43534,0.39755 -0.88346,0.78048 -1.34517,1.14719c-4.13308,3.28268 -9.50355,4.42304 -14.56745,5.10632c-5.6979,0.76883 -12.07159,2.31885 -17.84656,1.14796c-4.35814,-0.88361 -4.83638,-1.85957 -8.38326,-4.54783c-0.20214,-0.15321 -0.40381,-0.30671 -0.60496,-0.46059c-2.02803,4.96861 -3.6705,11.00176 -3.37645,16.2575z" fill="#000000" stroke="none" stroke-width="0.5"/><path d="M494.87408,243.49017c-0.29405,-5.25574 1.35766,-11.32268 3.38569,-16.29129c0.20115,0.15387 0.49908,0.36991 0.70122,0.52312c3.54688,2.68827 3.93016,3.59977 8.28831,4.48338c5.77498,1.17089 12.21306,-0.40052 17.91096,-1.16935c5.0639,-0.68329 10.45945,-1.80739 14.59253,-5.09007c0.46171,-0.36671 0.90989,-0.74957 1.34524,-1.14712c2.26266,2.24828 4.7775,4.36013 5.69167,7.56445c2.44773,8.57961 1.06393,21.45134 -8.37009,25.53485c-1.93561,0.83783 -5.20885,1.13847 -7.26375,1.41087c-3.84767,0.57789 -5.5691,-0.49626 -9.41114,-0.86372c-6.97947,-0.66751 -12.93516,-3.45972 -19.3281,-6.44672c-2.13298,-0.9966 -4.53082,-1.35052 -6.15696,-3.23669c-1.144,-1.32695 -1.29876,-3.72049 -1.38555,-5.27171z" data-paper-data="{&quot;noHover&quot;:false,&quot;origItem&quot;:[&quot;Path&quot;,{&quot;applyMatrix&quot;:true,&quot;segments&quot;:[[[989.86286,488.51504],[0,0],[0.17357,3.10244]],[[992.63052,499.03512],[-2.28801,-2.6539],[3.25228,3.77234]],[[1004.93564,505.48498],[-4.26596,-1.9932],[12.78588,5.974]],[[1043.48777,518.31544],[-13.95895,-1.33503],[7.68409,0.7349]],[[1062.25498,520.05784],[-7.69535,1.15578],[4.1098,-0.5448]],[[1076.75471,517.25816],[-3.87121,1.67565],[18.86804,-8.16701]],[[1093.4726,466.30836],[4.89546,17.15921],[-1.82835,-6.40863]],[[1082.11053,451.21392],[4.52532,4.49656],[-0.87069,0.7951]],[[1079.42019,453.5083],[0.92342,-0.73342],[-8.26616,6.56535]],[[1050.2853,463.72095],[10.12779,-1.36657],[-11.39579,1.53767]],[[1014.59217,466.01687],[11.54996,2.34178],[-8.71629,-1.76723]],[[997.82565,456.9212],[7.09376,5.37654],[-0.40428,-0.30642]],[[996.61573,456.00002],[0.4023,0.30775],[-4.05607,9.93722]],[[989.86283,488.51502],[-0.5881,-10.51148],[0,0]]],&quot;closed&quot;:true,&quot;fillColor&quot;:[0,0,0,1]}]}" fill="#667eff" stroke="none" stroke-width="0.5"/><path d="M537.61011,219.76368c-0.08118,0.23672 -0.13519,0.46021 -0.16513,0.67037c-0.39714,0.37225 -0.80843,0.73025 -1.231,1.07c-3.29701,2.6507 -7.79476,3.41753 -11.82285,3.95428c-5.16235,0.68788 -10.83128,2.09841 -16.07145,1.19113c-2.87736,-0.49818 -3.52571,-1.60626 -5.94254,-3.4663c-6.79511,-5.22969 -13.23039,-10.63061 -16.70813,-18.66438c-1.59161,-3.24863 -3.43898,-6.32029 -5.21533,-9.46822l-1.41918,-2.51665c0.31516,-1.19144 -0.37594,-2.31709 -0.37594,-2.31709c-2.49476,-4.04925 -5.32338,-7.95188 -7.69745,-12.01823c0.48737,-0.06536 0.94479,-0.12714 1.32508,-0.17814c0.83595,0.05921 1.45121,-0.2632 1.88594,-0.6626c0.47855,-0.34944 0.91582,-0.89501 1.01932,-1.73166c2.32522,-6.9548 3.46037,-14.16099 5.24351,-21.26995c0.27754,-1.10649 1.25593,-5.40548 1.84674,-6.2118c0.63719,-0.86962 2.03067,0.79194 2.90531,1.42223c1.19026,0.85772 2.48401,1.56272 3.72539,2.34463l2.51375,1.40944c0,0 1.23181,0.68649 2.45002,0.23669c0.76889,-0.03178 1.36979,-0.34652 1.36979,-0.34652c5.00811,-2.6283 9.4254,-6.42867 14.62139,-8.64452c2.75667,-1.17559 7.76506,-2.33707 10.61566,-3.07002c0.96636,-0.24848 1.9749,-0.37822 2.90247,-0.7459c0.56619,-0.22443 0.98179,-1.27954 1.52631,-1.00668c2.07022,1.03739 2.71297,7.68022 2.86936,8.93616l-0.03683,3.66405c0,0 -0.01858,2.87234 2.85109,2.89697c0.112,0.00097 0.2201,-0.00225 0.3236,-0.00977c0.75692,0.36413 1.52495,0.33272 1.52495,0.33272c6.02236,-0.26906 12.22777,-0.01067 17.94047,2.23029c0.95074,0.37296 1.849,0.86822 2.7521,1.35256c-0.05192,3.62374 0.02486,7.24887 0.02026,10.87319c-0.0006,0.47315 -0.00422,0.9463 -0.01063,1.41943c-0.0304,0.14656 -0.05297,0.27261 -0.06649,0.37441c-0.90675,6.82593 -1.20677,13.87275 -2.18857,20.74848c-0.61274,4.29108 -2.44598,8.39743 -3.59315,12.5607c-2.07649,4.22361 -4.36543,8.91904 -7.45454,12.72135c-0.80827,0.09257 -1.75648,0.52877 -2.23327,1.9193z" data-paper-data="{&quot;noHover&quot;:false,&quot;origItem&quot;:[&quot;Path&quot;,{&quot;applyMatrix&quot;:true,&quot;segments&quot;:[[[521.29584,226.43282],[0,0],[0.57269,-1.14539]],[[523.44318,225.03578],[-0.7086,-0.01367],[3.10748,-2.92528]],[[531.33842,214.92614],[-2.28195,3.4063],[1.47257,-3.46181]],[[535.88606,204.51194],[-1.02593,3.63404],[1.64387,-5.82294]],[[540.17552,186.87816],[-1.57331,5.78863],[0.29815,-1.09698]],[[543.1861,180.27167],[-0.69817,1.2089],[0.52477,-0.90866]],[[544.92489,177.64755],[-0.06093,1.04754],[0.032,-0.55014]],[[543.37164,177.08135],[0.47627,0.27721],[-1.34965,-0.78554]],[[539.47745,174.47696],[1.36506,0.75846],[-4.67296,-2.59639]],[[524.25839,170.48875],[5.23097,0.46505],[0,0]],[[522.9821,170.02626],[0.61137,0.40204],[-0.09023,-0.00549]],[[522.70193,169.99748],[0.09659,0.0138],[-2.47487,-0.35356]],[520.58061,167.16905],[[521.03819,164.01048],[0,0],[0.0104,-1.10251]],[[519.60122,155.96498],[1.66734,1.13542],[-0.43855,-0.29864]],[[518.16822,156.6579],[0.51485,-0.12822],[-0.84345,0.21005]],[[515.57891,156.96669],[0.86314,-0.10264],[-2.54612,0.30276]],[[506.07058,158.38958],[2.51628,-0.69582],[-4.74289,1.31154]],[[492.46647,164.15511],[4.62843,-1.68941],[0,0]],[[491.24522,164.29486],[0.66755,0.0616],[-1.1039,0.2473]],[489.15928,163.80563],[[487.15316,162.29694],[0,0],[-0.98129,-0.81886]],[[484.20929,159.84037],[0.92837,0.8784],[-0.68219,-0.64548]],[[481.86649,158.27526],[0.65086,-0.67706],[-0.60349,0.62778]],[[479.5574,163.42095],[0.36776,-0.92323],[-2.36277,5.93152]],[[472.58049,181.15814],[2.81297,-5.73565],[-0.18624,0.7104]],[[471.50055,182.53312],[0.45365,-0.2463],[-0.4216,0.29451]],[[469.79576,182.88581],[0.71492,0.14792],[-0.33425,0]],[[468.63114,182.88581],[0.42837,0],[1.57895,3.78587]],[[473.88722,194.13932],[-1.68514,-3.78507],[0,0]],[[473.94329,196.18038],[0.41008,-0.99221],[0,0]],[[474.87671,198.51393],[0,0],[1.16922,2.92367]],[[478.27875,207.27901],[-0.99805,-2.98922],[2.07248,7.33921]],[[490.52139,225.3067],[-5.26145,-5.30225],[1.87135,1.88585]],[[495.24371,228.98474],[-2.42668,-0.76332],[4.4194,1.39014]],[[509.23946,229.81503],[-4.53692,-0.00384],[3.54007,0.00299]],[[519.89112,227.77294],[-3.15363,1.90689],[0.4042,-0.24441]],[[521.07615,226.99232],[-0.386,0.27542],[0.05019,-0.17799]],[[521.29583,226.43285],[-0.0975,0.19499],[0,0]]],&quot;closed&quot;:true,&quot;fillColor&quot;:[0,0,0,1]}]}" fill="#66ecff" stroke="none" stroke-width="0.5"/><path d="M494.71961,197.20409c5.32065,3.26179 4.39518,4.99113 2.01722,5.91985c0.38302,0.96931 0.53445,1.92335 0.11158,2.83954c-2.5573,5.54068 -10.02082,-2.25518 -10.15536,-3.57824c-0.04351,-0.42795 -0.01088,-0.84359 0.0781,-1.25013l-0.09417,-0.02354l0.89668,-3.58672c0.25265,-1.1133 1.24829,-1.9444 2.43804,-1.9444c0.66213,0 1.26415,0.25741 1.71143,0.67762c1.09224,0.1003 2.20502,0.46081 2.99648,0.94601z" fill="#ffffff" stroke="none" stroke-width="0.5"/><path d="M528.0934,201.87106c2.74877,-2.06453 6.47174,-2.92062 8.30483,2.47082c0.66782,1.96419 -1.51894,3.96734 -2.9227,5.49491c-2.54058,2.76464 -9.41624,2.65087 -11.24991,-1.01793c-1.00128,-2.00335 1.42134,-4.45819 3.06572,-5.97871c0.73676,-0.68126 1.75715,-0.84745 2.80207,-0.96908z" fill="#ffffff" stroke="none" stroke-width="0.5"/></g></g></svg>