<svg version="1.1" xmlns="http://www.w3.org/2000/svg" xmlns:xlink="http://www.w3.org/1999/xlink" width="819.73195" height="471.26673" viewBox="0,0,819.73195,471.26673"><defs><linearGradient x1="92.52526" y1="194.64289" x2="401.32247" y2="194.64289" gradientUnits="userSpaceOnUse" id="color-1"><stop offset="0" stop-color="#000000"/><stop offset="1" stop-color="#1b271f"/></linearGradient></defs><g transform="translate(113.06456,52.12234)"><g data-paper-data="{&quot;isPaintingLayer&quot;:true}" fill-rule="nonzero" stroke="none" stroke-linecap="butt" stroke-linejoin="miter" stroke-miterlimit="10" stroke-dasharray="" stroke-dashoffset="0" style="mix-blend-mode: normal"><path d="M-100.1911,393.87766v-446h766.75514v446z" data-paper-data="{&quot;index&quot;:null}" fill="#000000" stroke-width="0"/><path d="M344.77753,419.14439v-461.01502h259.19863v461.01502z" data-paper-data="{&quot;index&quot;:null}" fill="#1a261e" stroke-width="0"/><path d="M92.52526,417.64289v-446h308.79718v446z" data-paper-data="{&quot;index&quot;:null}" fill="url(#color-1)" stroke-width="0"/><path d="M8.83283,413.89156l-68.53784,-97.88682l511.02011,2.48804l255.35229,66.5173z" data-paper-data="{&quot;index&quot;:null}" fill="#0e1410" stroke-width="0"/><g stroke-width="0"><g><path d="M27.39851,200.32416v-17.25863l295.40688,-0.98697l35.18693,-15.79155v17.25862l-33.15321,16.77852z" fill="#1e1e1e"/><path d="M26.08536,185.8967l40.14022,-19.32254l291.26876,0.78989l-40.14022,18.53265z" fill="#323232"/></g><path d="M27.50728,249.84391v-50.55447h19.56947v50.55447z" fill="#1e1e1e"/><path d="M63.48091,255.13331l-0.26402,-54.91085h19.56947l0.26402,54.91085z" fill="#161616"/><path d="M204.20585,254.69898l-0.26402,-54.91085h19.56947l0.26402,54.91085z" fill="#161616"/><path d="M172.62235,244.74402v-50.55447h19.56947v50.55447z" fill="#1e1e1e"/></g><path d="M641.5024,173.69655c-1.38071,0 -2.5,-1.11929 -2.5,-2.5c0,-1.38071 1.11929,-2.5 2.5,-2.5c1.38071,0 2.5,1.11929 2.5,2.5c0,1.38071 -1.11929,2.5 -2.5,2.5z" data-paper-data="{&quot;index&quot;:null}" fill="#252525" stroke-width="0.5"/><g stroke-width="0.5"><path d="M360.94129,101.36498c3.48179,-1.39271 4.8745,2.08907 4.8745,2.08907l0.79924,2.09069c0.39617,1.60079 0.35151,3.30688 0.88402,4.86762c0.67615,1.98172 1.82641,3.84455 2.09904,5.92063c0.53418,4.06786 -0.12529,8.43129 -0.30376,12.49139c-0.2278,5.18218 -0.30814,10.47591 -0.33923,15.65427c-2.11741,9.52836 -0.74465,20.00713 -3.32294,29.50572c-2.02459,7.45872 -5.39666,14.23216 -9.45121,20.63403c-2.39392,3.77983 -6.17209,6.64547 -9.33664,9.71977c-2.43252,1.25072 -4.65526,2.92495 -7.18755,3.95887c-5.48869,2.241 -11.77372,3.00834 -17.58308,3.49219c-11.80924,0.98355 -23.7194,1.18556 -35.1205,-2.41182c-2.9178,-0.92065 -6.17944,-0.82097 -9.00058,-2.04487c-2.41982,-1.04979 -4.58677,-2.61077 -6.94287,-3.79667c-8.36822,-6.05289 -17.27483,-13.56333 -20.00235,-24.10594c-1.60451,-6.2019 -0.08053,-13.21787 0.20112,-19.47239c0.15566,-3.45669 -0.00465,-6.96113 -0.00465,-10.42261c0,0 0,-0.3597 0.1114,-0.85629c-0.58336,-4.91565 -1.06807,-9.84672 -1.68997,-14.75373c-1.09832,-8.66612 -2.80353,-16.83038 -1.93929,-25.5933l0.27026,-0.75298c-0.03619,-0.45728 0.01556,-0.97486 0.19078,-1.55892c1.07755,-3.59185 4.6694,-2.5143 4.6694,-2.5143c6.59229,1.98895 12.34939,4.63133 18.4053,7.84695c3.64943,-2.63639 7.59337,-4.87496 11.58057,-6.96487c5.93236,-3.10948 10.09088,-6.05761 16.5881,-8.11124c4.85174,-1.53353 10.326,-2.47612 15.28762,-3.79065l2.8242,-0.36179c0,0 0.18929,-0.02366 0.48783,-0.01761c3.62032,-0.32533 4.02586,3.32454 4.02586,3.32454c0.68225,6.1403 1.77664,12.17578 2.63126,18.2652c10.38024,-5.41217 21.07979,-8.71098 32.33622,-12.41158l2.13563,-0.18757c0,0 0.77598,0 1.62196,0.35299c0.06491,-0.02904 0.13166,-0.05731 0.20031,-0.08477zM258.69919,160.33113c-0.24532,5.35262 -1.87149,11.8852 -0.44187,17.17832c2.31677,8.57774 9.86642,14.65349 16.64837,19.61771c2.01943,1.00235 3.86849,2.33483 5.91702,3.27627c2.49538,1.14681 5.71461,0.99363 8.36029,1.8131c10.55066,3.26796 21.47494,2.99958 32.39396,2.08915c5.00734,-0.41752 10.47905,-0.99773 15.20966,-2.93776c1.99568,-0.81843 3.72925,-2.17763 5.67235,-3.11408c2.38684,-2.48713 5.54832,-4.66348 7.38123,-7.64109c3.64263,-5.91756 6.60364,-11.77295 8.55265,-18.58866c0.69228,-2.4209 0.58119,-5.63172 0.85764,-8.11946c0.74494,-6.70361 0.79802,-13.71327 2.24937,-20.24436c-0.06142,-8.74152 1.47136,-17.78801 0.64299,-26.50891c-0.14841,-1.56236 -1.27066,-2.87579 -1.75894,-4.36729c-0.44623,-1.36303 -0.55752,-2.81054 -0.79861,-4.22747c-0.28409,0.04017 -0.4663,0.04017 -0.4663,0.04017l0.20665,-0.18756c-11.72744,3.85528 -22.85429,7.188 -33.60556,13.22863c-0.27092,0.80541 -0.89184,1.60711 -2.18058,2.1226c-3.48179,1.39271 -4.8745,-2.08907 -4.8745,-2.08907l-0.88759,-2.57993c-0.71287,-6.3615 -1.874,-12.62535 -2.73507,-18.96492c-4.41796,1.12273 -9.11621,1.96745 -13.40442,3.30504c-6.0044,1.87291 -9.81824,4.70424 -15.35708,7.60044c-3.95111,2.06599 -7.87833,4.26129 -11.42972,6.95606c-0.61827,0.76275 -1.42371,1.06811 -2.14105,1.16838c-0.72696,0.18087 -1.62326,0.19345 -2.51066,-0.33495l-2.22143,-0.69947c-4.36983,-2.33159 -8.53075,-4.35335 -13.02696,-6.00577c-0.21255,7.05213 1.2192,13.80489 2.11637,20.87895c0.70524,5.56067 1.23332,11.15253 1.92895,16.71759c0,0 0.12574,1.0059 -0.27653,2.03708c0.03586,2.86027 0.10972,5.7365 -0.02066,8.58128z" fill="#000000"/><path d="M258.66986,151.74909c0.40227,-1.03118 0.27661,-2.03913 0.27661,-2.03913c-0.69563,-5.56506 -1.22056,-11.1718 -1.92579,-16.73246c-0.89717,-7.07407 -2.32211,-13.83919 -2.10956,-20.89132c4.49621,1.65243 8.65891,3.67196 13.02874,6.00355l2.222,0.6988c0.8874,0.52841 1.78466,0.51476 2.51162,0.33389c0.71734,-0.10027 1.52444,-0.40734 2.14271,-1.1701c3.55139,-2.69477 7.48986,-4.89835 11.44097,-6.96434c5.53884,-2.8962 9.36933,-5.73302 15.37373,-7.60593c4.28821,-1.33759 8.99958,-2.18245 13.41754,-3.30518c0.86108,6.33957 2.02932,12.60482 2.74219,18.96632l0.88985,2.58061c0,0 1.40026,3.48494 4.88205,2.09222c1.28873,-0.5155 1.91086,-1.31655 2.18178,-2.12196c10.75128,-6.04063 21.89165,-9.36241 33.61909,-13.2177l-0.20664,0.18757c0,0 0.18234,0.00015 0.46643,-0.04001c0.24109,1.41693 0.35418,2.86664 0.80041,4.22968c0.48828,1.49151 1.61258,2.80781 1.76099,4.37018c0.82837,8.7209 -0.69681,17.7867 -0.63539,26.52822c-1.45135,6.53109 -1.50496,13.56 -2.2499,20.26361c-0.27645,2.48774 -0.16759,5.70584 -0.85987,8.12674c-1.94901,6.81572 -4.91986,12.6868 -8.56249,18.60436c-1.8329,2.97761 -5.00138,5.16021 -7.38822,7.64735c-1.9431,0.93645 -3.68144,2.29877 -5.67712,3.1172c-4.73061,1.94003 -10.21517,2.52543 -15.22251,2.94294c-10.91902,0.91044 -21.87364,1.17685 -32.42431,-2.09111c-2.64567,-0.81947 -5.87178,-0.66963 -8.36717,-1.81643c-2.04853,-0.94144 -3.90264,-2.27728 -5.92207,-3.27963c-6.78194,-4.96422 -14.34622,-11.05763 -16.66299,-19.63537c-1.42962,-5.29312 0.19194,-11.84018 0.43726,-17.19281c0.13038,-2.84477 0.05593,-5.7295 0.02007,-8.58977z" data-paper-data="{&quot;noHover&quot;:false,&quot;origItem&quot;:[&quot;Path&quot;,{&quot;applyMatrix&quot;:true,&quot;segments&quot;:[[[258.69919,160.33113],[0.13038,-2.84477],[-0.24532,5.35262]],[[258.25732,177.50945],[-1.42962,-5.29312],[2.31677,8.57774]],[[274.90569,197.12716],[-6.78194,-4.96422],[2.01943,1.00235]],[[280.82271,200.40344],[-2.04853,-0.94144],[2.49538,1.14681]],[[289.183,202.21654],[-2.64567,-0.81947],[10.55066,3.26796]],[[321.57696,204.30569],[-10.91902,0.91044],[5.00734,-0.41752]],[[336.78662,201.36793],[-4.73061,1.94003],[1.99568,-0.81843]],[[342.45897,198.25385],[-1.9431,0.93645],[2.38684,-2.48713]],[[349.8402,190.61276],[-1.8329,2.97761],[3.64263,-5.91756]],[[358.39285,172.02409],[-1.94901,6.81572],[0.69228,-2.4209]],[[359.25049,163.90463],[-0.27645,2.48774],[0.74494,-6.70361]],[[361.49986,143.66027],[-1.45135,6.53109],[-0.06142,-8.74152]],[[362.14286,117.15136],[0.82837,8.7209],[-0.14841,-1.56236]],[[360.38392,112.78407],[0.48828,1.49151],[-0.44623,-1.36303]],[[359.58532,108.5566],[0.24109,1.41693],[-0.28409,0.04017]],[359.11902,108.59677],[[359.32567,108.4092],[0,0],[-11.72744,3.85528]],[[325.72011,121.63783],[10.75128,-6.04063],[-0.27092,0.80541]],[[323.53953,123.76043],[1.28873,-0.5155],[-3.48179,1.39271]],[318.66503,121.67136],[[317.77744,119.09143],[0,0],[-0.71287,-6.3615]],[[315.04237,100.12651],[0.86108,6.33957],[-4.41796,1.12273]],[[301.63795,103.43155],[4.28821,-1.33759],[-6.0044,1.87291]],[[286.28087,111.03199],[5.53884,-2.8962],[-3.95111,2.06599]],[[274.85115,117.98805],[3.55139,-2.69477],[-0.61827,0.76275]],[[272.71011,119.15643],[0.71734,-0.10027],[-0.72696,0.18087]],[[270.19945,118.82148],[0.8874,0.52841],[0,0]],[[267.97802,118.12201],[0,0],[-4.36983,-2.33159]],[[254.95106,112.11624],[4.49621,1.65243],[-0.21255,7.05213]],[[257.06743,132.99519],[-0.89717,-7.07407],[0.70524,5.56067]],[[258.99638,149.71278],[-0.69563,-5.56506],[0,0]],[[258.71985,151.74986],[0.40227,-1.03118],[0.03586,2.86027]]],&quot;closed&quot;:true}]}" fill="#002f3b"/><path d="M268.56941,160.32017c-3.71231,-0.53033 -3.18198,-4.24264 -3.18198,-4.24264l0.28381,-1.72015c0,-1.50032 0,-3.00064 0,-4.50096c0,0 0,-3.75 3.75,-3.75c3.75,0 3.75,3.75 3.75,3.75c0,1.50032 0,3.00064 0,4.50096l-0.35919,2.78081c0,0 -0.53033,3.71231 -4.24264,3.18198z" fill="#ffffff"/><path d="M307.7874,168.50327c0,-2.07107 1.67893,-3.75 3.75,-3.75c2.07107,0 3.75,1.67893 3.75,3.75c0,2.07107 -1.67893,3.75 -3.75,3.75c-2.07107,0 -3.75,-1.67893 -3.75,-3.75z" fill="#ffffff"/></g><g stroke-width="0"><path d="M195.9353,215.22822l40.14022,-19.32254l291.26876,0.78989l-40.14022,18.53265z" fill="#323232"/><path d="M195.73645,232.13205v-17.25862l295.40688,-0.98697l35.18693,-15.79155v17.25862l-33.15321,16.77853z" fill="#1e1e1e"/></g><g stroke-width="0"><path d="M24.50962,259.49305v-17.25862l295.40689,-0.98698l35.18693,-15.79155v17.25862l-33.15321,16.77853z" fill="#1e1e1e"/><path d="M23.35686,244.55973l40.14022,-19.32254l291.26876,0.78989l-40.14022,18.53265z" fill="#323232"/></g><g stroke-width="0"><path d="M-39.61756,371.21624v-98.16866l477.81764,-12.86174l1.07181,129.2512z" fill="#686868"/><path d="M425.56329,373.35986v-135.66113h59.07236v135.66113z" fill="#a5a5a5"/><path d="M-40.01358,272.28245l60.82149,-28.64938l466.62421,-7.10901l-60.82148,27.8595z" fill="#424242"/></g><path d="M-52.28897,101.56522c0,-0.69035 0.55965,-1.25 1.25,-1.25c0.69035,0 1.25,0.55965 1.25,1.25c0,0.69035 -0.55965,1.25 -1.25,1.25c-0.69035,0 -1.25,-0.55965 -1.25,-1.25z" fill="#000000" stroke-width="0.5"/><path d="M-113.06456,130.23745c0,-0.69036 0.55965,-1.25 1.25,-1.25c0.69035,0 1.25,0.55964 1.25,1.25c0,0.69036 -0.55965,1.25 -1.25,1.25c-0.69035,0 -1.25,-0.55964 -1.25,-1.25z" fill="#2f2f2f" stroke-width="0.5"/></g></g></svg>