<svg version="1.1" xmlns="http://www.w3.org/2000/svg" xmlns:xlink="http://www.w3.org/1999/xlink" width="1106.11536" height="461.01502" viewBox="0,0,1106.11536,461.01502"><g transform="translate(399.448,41.87063)"><g data-paper-data="{&quot;isPaintingLayer&quot;:true}" fill-rule="nonzero" stroke-linejoin="miter" stroke-miterlimit="10" stroke-dasharray="" stroke-dashoffset="0" style="mix-blend-mode: normal"><path d="M-90.22253,419.14439v-461.01502h694.19863v461.01502z" data-paper-data="{&quot;index&quot;:null}" fill="#1a261e" stroke="none" stroke-width="0" stroke-linecap="butt"/><path d="M8.8328,413.89156l-25.53784,-69.88682l553.02011,10.48804l170.35229,30.5173z" data-paper-data="{&quot;index&quot;:null}" fill="#0e1410" stroke="none" stroke-width="0" stroke-linecap="butt"/><path d="M641.50237,173.69655c-1.38071,0 -2.5,-1.11929 -2.5,-2.5c0,-1.38071 1.11929,-2.5 2.5,-2.5c1.38071,0 2.5,1.11929 2.5,2.5c0,1.38071 -1.11929,2.5 -2.5,2.5z" data-paper-data="{&quot;index&quot;:null}" fill="#252525" stroke="none" stroke-width="0.5" stroke-linecap="butt"/><path d="M-330.13427,57.50003c0,-6.90356 5.59644,-12.5 12.5,-12.5c6.90356,0 12.5,5.59644 12.5,12.5c0,6.90356 -5.59644,12.5 -12.5,12.5c-6.90356,0 -12.5,-5.59644 -12.5,-12.5z" fill="#262429" stroke="none" stroke-width="0.5" stroke-linecap="butt"/><path d="M151.86504,353.5744v-314h230.8552v314z" fill="#000000" stroke="none" stroke-width="0" stroke-linecap="butt"/><path d="M-399.448,128.483c0,-1.38071 1.11929,-2.5 2.5,-2.5c1.38071,0 2.5,1.11929 2.5,2.5c0,1.38071 -1.11929,2.5 -2.5,2.5c-1.38071,0 -2.5,-1.11929 -2.5,-2.5z" fill="#ffeaaa" stroke="none" stroke-width="0.5" stroke-linecap="butt"/><g><path d="M287.79264,354.5744v-324h221v324z" fill="#151f19" stroke="none" stroke-width="0" stroke-linecap="butt"/><path d="M324.43993,345.41029v-295.30769" fill="none" stroke="#0e1410" stroke-width="5" stroke-linecap="round"/><path d="M362.51685,50.1026v295.30769" fill="none" stroke="#0e1410" stroke-width="5" stroke-linecap="round"/><path d="M400.59378,50.1026v295.30769" fill="none" stroke="#0e1410" stroke-width="5" stroke-linecap="round"/><path d="M438.6707,50.1026v295.30769" fill="none" stroke="#0e1410" stroke-width="5" stroke-linecap="round"/><path d="M476.74762,345.41029v-295.30769" fill="none" stroke="#0e1410" stroke-width="5" stroke-linecap="round"/><path d="M17.79264,354.5744v-324h221v324z" fill="#151f19" stroke="none" stroke-width="0" stroke-linecap="butt"/><path d="M45.20916,345.41029v-295.30769" fill="none" stroke="#0e1410" stroke-width="5" stroke-linecap="round"/><path d="M83.28608,50.1026v295.30769" fill="none" stroke="#0e1410" stroke-width="5" stroke-linecap="round"/><path d="M121.36301,50.1026v295.30769" fill="none" stroke="#0e1410" stroke-width="5" stroke-linecap="round"/><path d="M159.43992,50.1026v295.30769" fill="none" stroke="#0e1410" stroke-width="5" stroke-linecap="round"/><path d="M197.51685,50.1026v295.30769" fill="none" stroke="#0e1410" stroke-width="5" stroke-linecap="round"/></g><path d="M243.47816,186.31196c0,-1.38071 1.11929,-2.5 2.5,-2.5c1.38071,0 2.5,1.11929 2.5,2.5c0,1.38071 -1.11929,2.5 -2.5,2.5c-1.38071,0 -2.5,-1.11929 -2.5,-2.5z" fill="#ffffff" stroke="none" stroke-width="0.5" stroke-linecap="butt"/><path d="M276.48702,187.11706c0,-1.38071 1.11929,-2.5 2.5,-2.5c1.38071,0 2.5,1.11929 2.5,2.5c0,1.38071 -1.11929,2.5 -2.5,2.5c-1.38071,0 -2.5,-1.11929 -2.5,-2.5z" fill="#ffffff" stroke="none" stroke-width="0.5" stroke-linecap="butt"/></g></g></svg>