<svg version="1.1" xmlns="http://www.w3.org/2000/svg" xmlns:xlink="http://www.w3.org/1999/xlink" width="90.6424" height="162.50183" viewBox="0,0,90.6424,162.50183"><g transform="translate(-197.20099,-38.38795)"><g data-paper-data="{&quot;isPaintingLayer&quot;:true}" fill-rule="nonzero" stroke="none" stroke-width="0.5" stroke-linecap="butt" stroke-linejoin="miter" stroke-miterlimit="10" stroke-dasharray="" stroke-dashoffset="0" style="mix-blend-mode: normal"><path d="M214.14187,132.97294c0,-1.38071 1.11929,-2.5 2.5,-2.5c1.38071,0 2.5,1.11929 2.5,2.5c0,1.38071 -1.11929,2.5 -2.5,2.5c-1.38071,0 -2.5,-1.11929 -2.5,-2.5z" fill="#ffffff"/><path d="M265.02693,136.48225c0,-1.38071 1.11929,-2.5 2.5,-2.5c1.38071,0 2.5,1.11929 2.5,2.5c0,1.38071 -1.11929,2.5 -2.5,2.5c-1.38071,0 -2.5,-1.11929 -2.5,-2.5z" fill="#ffffff"/><path d="M214.14188,132.97296c0,-1.38071 1.11929,-2.5 2.5,-2.5c1.38071,0 2.5,1.11929 2.5,2.5c0,1.38071 -1.11929,2.5 -2.5,2.5c-1.38071,0 -2.5,-1.11929 -2.5,-2.5z" fill="#ff0000"/><path d="M265.02693,136.48227c0,-1.38071 1.11929,-2.5 2.5,-2.5c1.38071,0 2.5,1.11929 2.5,2.5c0,1.38071 -1.11929,2.5 -2.5,2.5c-1.38071,0 -2.5,-1.11929 -2.5,-2.5z" fill="#ff0000"/><path d="M264.418,182.12121c2.42536,0.60634 1.81902,3.03169 1.81902,3.03169l-0.47798,1.78041c-1.0045,2.31486 -2.26821,4.55015 -3.84113,6.52335c-3.46076,4.34143 -9.64381,8.52597 -15.57124,7.17511c-2.80881,-0.64013 -6.63466,-4.29798 -8.51532,-6.28576c-6.91304,-7.30679 -13.20029,-16.52829 -14.35688,-26.69717c0,0 -0.27608,-2.48471 2.20863,-2.76079c2.48471,-0.27608 2.76079,2.20863 2.76079,2.20863c0.83076,7.68408 5.16824,14.20433 9.96476,20.07262c2.00311,2.4507 5.73012,7.75796 9.22135,8.62996c2.29205,0.57248 6.41363,-1.54068 8.0017,-2.72242c0.96352,-0.71699 1.62447,-1.77286 2.36301,-2.71997c1.28215,-1.64422 2.35778,-3.47225 3.16859,-5.39317l0.223,-1.02348c0,0 0.60634,-2.42536 3.03169,-1.81902z" fill="#ff0000"/><path d="M240.66932,113.54659c-2.08013,1.38675 -3.46688,-0.69338 -3.46688,-0.69338l-0.15987,-0.23981c-14.90785,-22.36177 -22.87668,-48.69014 -39.28638,-70.14896c0,0 -1.51863,-1.98589 0.46727,-3.50452c1.98589,-1.51863 3.50452,0.46727 3.50452,0.46727c16.48972,21.56348 24.50382,47.95619 39.47484,70.41271l0.15987,0.23981c0,0 1.38675,2.08013 -0.69338,3.46688z" fill="#ff0000"/><path d="M286.13576,54.0642c2.37171,0.79057 1.58114,3.16228 1.58114,3.16228l-0.77283,1.92361c-10.16896,13.68227 -19.44343,28.85843 -25.77388,44.68455c0,0 -0.92848,2.32119 -3.24967,1.39272c-2.32119,-0.92848 -1.39272,-3.24967 -1.39272,-3.24967c6.48948,-16.22371 15.97883,-31.78418 26.40324,-45.81016l0.04243,-0.52219c0,0 0.79057,-2.37171 3.16228,-1.58114z" fill="#ff0000"/></g></g></svg>