<svg version="1.1" xmlns="http://www.w3.org/2000/svg" xmlns:xlink="http://www.w3.org/1999/xlink" width="98.18777" height="205.7211" viewBox="0,0,98.18777,205.7211"><g transform="translate(-457.20908,-104.65655)"><g data-paper-data="{&quot;isPaintingLayer&quot;:true}" fill-rule="nonzero" stroke-linecap="butt" stroke-linejoin="miter" stroke-miterlimit="10" stroke-dasharray="" stroke-dashoffset="0" style="mix-blend-mode: normal"><path d="M457.20908,245.06596l5.81988,-140.40941l92.36789,15.14246l-7.20449,190.57864z" data-paper-data="{&quot;index&quot;:null}" fill="#2b2633" stroke="#000000" stroke-width="0"/><path d="M482.21143,225.9432l2.84018,-68.5217c0.03004,-0.07206 0.05899,-0.1447 0.08682,-0.21788c2.88014,0.45699 5.76547,0.88207 8.65302,1.26755l36.60304,6.00057l-3.53541,93.52146z" data-paper-data="{&quot;index&quot;:null}" fill="#464646" stroke="#000000" stroke-width="0"/><path d="" fill="#000000" stroke="none" stroke-width="0.5"/><path d="M526.38089,261.11546c-0.0662,0.06386 -2.5751,-1.92866 -2.62923,-1.95998c-0.54558,-0.31574 -1.07556,-0.6138 -1.59267,-0.90233c2.12989,0.38163 3.68084,0.86527 6.00167,0.70668c-0.49659,0.75522 -1.07732,1.47806 -1.77976,2.15563z" fill="#000000" stroke="none" stroke-width="0.5"/><g data-paper-data="{&quot;index&quot;:null}" fill="#2b2633" stroke="none" stroke-width="0"><path d="M475.54692,230.54506l0.57504,-79.69324l9.66153,2.78183l-2.54382,72.42869z"/><path d="M522.05474,267.02441l-51.16999,-40.05281l12.228,-1.12595l47.82506,34.55515z"/><path d="M526.74832,260.64045l3.52669,-94.41104l9.66952,-1.33318l-3.2337,95.76z"/><path d="M478.19459,155.87789l18.3625,-10.38533l26.05051,4.45186l14.32305,18.76382z"/></g><path d="M488.93245,190.43225c0,-1.38071 1.11929,-2.5 2.5,-2.5c1.38071,0 2.5,1.11929 2.5,2.5c0,1.38071 -1.11929,2.5 -2.5,2.5c-1.38071,0 -2.5,-1.11929 -2.5,-2.5z" fill="#ffffff" stroke="none" stroke-width="0.5"/><path d="M520.68523,216.9654c0,-1.38071 1.11929,-2.5 2.5,-2.5c1.38071,0 2.5,1.11929 2.5,2.5c0,1.38071 -1.11929,2.5 -2.5,2.5c-1.38071,0 -2.5,-1.11929 -2.5,-2.5z" fill="#ffffff" stroke="none" stroke-width="0.5"/></g></g></svg>